<?xml version="1.0" encoding="UTF-8" standalone="no"?>
<!-- Created with Inkscape (http://www.inkscape.org/) -->

<svg
   version="1.1"
   id="svg132"
   width="455.05609"
   height="265.92178"
   viewBox="0 0 455.05609 265.92179"
   sodipodi:docname="cylinder.svg"
   inkscape:version="1.2.1 (9c6d41e410, 2022-07-14)"
   xmlns:inkscape="http://www.inkscape.org/namespaces/inkscape"
   xmlns:sodipodi="http://sodipodi.sourceforge.net/DTD/sodipodi-0.dtd"
   xmlns="http://www.w3.org/2000/svg"
   xmlns:svg="http://www.w3.org/2000/svg">
  <defs
     id="defs136">
    <marker
       style="overflow:visible"
       id="TriangleStart"
       refX="3"
       refY="0"
       orient="auto-start-reverse"
       inkscape:stockid="TriangleStart"
       markerWidth="15"
       markerHeight="10"
       viewBox="0 0 5.3244081 6.1553851"
       inkscape:isstock="true"
       inkscape:collect="always"
       preserveAspectRatio="none">
      <path
         transform="scale(0.5)"
         style="fill:context-stroke;fill-rule:evenodd;stroke:context-stroke;stroke-width:1pt"
         d="M 5.77,0 -2.88,5 V -5 Z"
         id="path135" />
    </marker>
    <clipPath
       clipPathUnits="userSpaceOnUse"
       id="clipPath254">
      <path
         d="M 0,0 H 19866 V 14031 H 0 V 0"
         id="path252" />
    </clipPath>
    <clipPath
       clipPathUnits="userSpaceOnUse"
       id="clipPath521">
      <g
         id="g525">
        <path
           d="M 982,719 H 19123 V 13556 H 982 V 719"
           id="path523" />
      </g>
    </clipPath>
    <clipPath
       clipPathUnits="userSpaceOnUse"
       id="clipPath527">
      <g
         id="g531">
        <path
           d="M 982,719 H 19123 V 13556 H 982 V 719"
           id="path529" />
      </g>
    </clipPath>
    <clipPath
       clipPathUnits="userSpaceOnUse"
       id="clipPath533">
      <g
         id="g537">
        <path
           d="M 982,719 H 19123 V 13556 H 982 V 719"
           id="path535" />
      </g>
    </clipPath>
    <clipPath
       clipPathUnits="userSpaceOnUse"
       id="clipPath539">
      <g
         id="g543">
        <path
           d="M 982,719 H 19123 V 13556 H 982 V 719"
           id="path541" />
      </g>
    </clipPath>
    <clipPath
       clipPathUnits="userSpaceOnUse"
       id="clipPath545">
      <g
         id="g549">
        <path
           d="M 982,719 H 19123 V 13556 H 982 V 719"
           id="path547" />
      </g>
    </clipPath>
    <clipPath
       clipPathUnits="userSpaceOnUse"
       id="clipPath551">
      <g
         id="g555">
        <path
           d="M 982,719 H 19123 V 13556 H 982 V 719"
           id="path553" />
      </g>
    </clipPath>
    <clipPath
       clipPathUnits="userSpaceOnUse"
       id="clipPath557">
      <g
         id="g561">
        <path
           d="M 982,719 H 19123 V 13556 H 982 V 719"
           id="path559" />
      </g>
    </clipPath>
    <clipPath
       clipPathUnits="userSpaceOnUse"
       id="clipPath563">
      <g
         id="g567">
        <path
           d="M 982,719 H 19123 V 13556 H 982 V 719"
           id="path565" />
      </g>
    </clipPath>
    <clipPath
       clipPathUnits="userSpaceOnUse"
       id="clipPath569">
      <g
         id="g573">
        <path
           d="M 982,719 H 19123 V 13556 H 982 V 719"
           id="path571" />
      </g>
    </clipPath>
    <clipPath
       clipPathUnits="userSpaceOnUse"
       id="clipPath575">
      <g
         id="g579">
        <path
           d="M 982,719 H 19123 V 13556 H 982 V 719"
           id="path577" />
      </g>
    </clipPath>
    <clipPath
       clipPathUnits="userSpaceOnUse"
       id="clipPath581">
      <g
         id="g585">
        <path
           d="M 982,719 H 19123 V 13556 H 982 V 719"
           id="path583" />
      </g>
    </clipPath>
    <clipPath
       clipPathUnits="userSpaceOnUse"
       id="clipPath587">
      <g
         id="g591">
        <path
           d="M 982,719 H 19123 V 13556 H 982 V 719"
           id="path589" />
      </g>
    </clipPath>
    <clipPath
       clipPathUnits="userSpaceOnUse"
       id="clipPath593">
      <g
         id="g597">
        <path
           d="M 982,719 H 19123 V 13556 H 982 V 719"
           id="path595" />
      </g>
    </clipPath>
    <clipPath
       clipPathUnits="userSpaceOnUse"
       id="clipPath599">
      <g
         id="g603">
        <path
           d="M 982,719 H 19123 V 13556 H 982 V 719"
           id="path601" />
      </g>
    </clipPath>
    <clipPath
       clipPathUnits="userSpaceOnUse"
       id="clipPath605">
      <g
         id="g609">
        <path
           d="M 982,719 H 19123 V 13556 H 982 V 719"
           id="path607" />
      </g>
    </clipPath>
    <clipPath
       clipPathUnits="userSpaceOnUse"
       id="clipPath611">
      <g
         id="g615">
        <path
           d="M 982,719 H 19123 V 13556 H 982 V 719"
           id="path613" />
      </g>
    </clipPath>
    <clipPath
       clipPathUnits="userSpaceOnUse"
       id="clipPath617">
      <g
         id="g621">
        <path
           d="M 982,719 H 19123 V 13556 H 982 V 719"
           id="path619" />
      </g>
    </clipPath>
    <clipPath
       clipPathUnits="userSpaceOnUse"
       id="clipPath623">
      <g
         id="g627">
        <path
           d="M 982,719 H 19123 V 13556 H 982 V 719"
           id="path625" />
      </g>
    </clipPath>
    <clipPath
       clipPathUnits="userSpaceOnUse"
       id="clipPath629">
      <g
         id="g633">
        <path
           d="M 982,719 H 19123 V 13556 H 982 V 719"
           id="path631" />
      </g>
    </clipPath>
    <clipPath
       clipPathUnits="userSpaceOnUse"
       id="clipPath635">
      <g
         id="g639">
        <path
           d="M 982,719 H 19123 V 13556 H 982 V 719"
           id="path637" />
      </g>
    </clipPath>
    <clipPath
       clipPathUnits="userSpaceOnUse"
       id="clipPath641">
      <g
         id="g645"
         transform="matrix(0.49997236,0.86604409,-0.86604409,0.49997236,-1135.3564,-11140.197)">
        <path
           d="M 982,719 H 19123 V 13556 H 982 V 719"
           id="path643" />
      </g>
    </clipPath>
    <clipPath
       clipPathUnits="userSpaceOnUse"
       id="clipPath647">
      <g
         id="g651">
        <path
           d="M 982,719 H 19123 V 13556 H 982 V 719"
           id="path649" />
      </g>
    </clipPath>
    <clipPath
       clipPathUnits="userSpaceOnUse"
       id="clipPath653">
      <g
         id="g657">
        <path
           d="M 982,719 H 19123 V 13556 H 982 V 719"
           id="path655" />
      </g>
    </clipPath>
    <clipPath
       clipPathUnits="userSpaceOnUse"
       id="clipPath659">
      <g
         id="g663">
        <path
           d="M 982,719 H 19123 V 13556 H 982 V 719"
           id="path661" />
      </g>
    </clipPath>
    <clipPath
       clipPathUnits="userSpaceOnUse"
       id="clipPath665">
      <g
         id="g669">
        <path
           d="M 982,719 H 19123 V 13556 H 982 V 719"
           id="path667" />
      </g>
    </clipPath>
    <clipPath
       clipPathUnits="userSpaceOnUse"
       id="clipPath671">
      <g
         id="g675">
        <path
           d="M 982,719 H 19123 V 13556 H 982 V 719"
           id="path673" />
      </g>
    </clipPath>
    <clipPath
       clipPathUnits="userSpaceOnUse"
       id="clipPath677">
      <g
         id="g681">
        <path
           d="M 982,719 H 19123 V 13556 H 982 V 719"
           id="path679" />
      </g>
    </clipPath>
    <clipPath
       clipPathUnits="userSpaceOnUse"
       id="clipPath683">
      <g
         id="g687">
        <path
           d="M 982,719 H 19123 V 13556 H 982 V 719"
           id="path685" />
      </g>
    </clipPath>
    <clipPath
       clipPathUnits="userSpaceOnUse"
       id="clipPath689">
      <g
         id="g693">
        <path
           d="M 982,719 H 19123 V 13556 H 982 V 719"
           id="path691" />
      </g>
    </clipPath>
    <clipPath
       clipPathUnits="userSpaceOnUse"
       id="clipPath695">
      <g
         id="g699">
        <path
           d="M 982,719 H 19123 V 13556 H 982 V 719"
           id="path697" />
      </g>
    </clipPath>
    <clipPath
       clipPathUnits="userSpaceOnUse"
       id="clipPath701">
      <g
         id="g705"
         transform="matrix(0.49997236,0.86604409,-0.86604409,0.49997236,4089.5128,-11400.321)">
        <path
           d="M 982,719 H 19123 V 13556 H 982 V 719"
           id="path703" />
      </g>
    </clipPath>
    <clipPath
       clipPathUnits="userSpaceOnUse"
       id="clipPath707">
      <g
         id="g711">
        <path
           d="M 982,719 H 19123 V 13556 H 982 V 719"
           id="path709" />
      </g>
    </clipPath>
    <clipPath
       clipPathUnits="userSpaceOnUse"
       id="clipPath713">
      <g
         id="g717">
        <path
           d="M 982,719 H 19123 V 13556 H 982 V 719"
           id="path715" />
      </g>
    </clipPath>
    <clipPath
       clipPathUnits="userSpaceOnUse"
       id="clipPath719">
      <g
         id="g723">
        <path
           d="M 982,719 H 19123 V 13556 H 982 V 719"
           id="path721" />
      </g>
    </clipPath>
    <clipPath
       clipPathUnits="userSpaceOnUse"
       id="clipPath725">
      <g
         id="g729">
        <path
           d="M 982,719 H 19123 V 13556 H 982 V 719"
           id="path727" />
      </g>
    </clipPath>
    <clipPath
       clipPathUnits="userSpaceOnUse"
       id="clipPath731">
      <g
         id="g735">
        <path
           d="M 982,719 H 19123 V 13556 H 982 V 719"
           id="path733" />
      </g>
    </clipPath>
    <clipPath
       clipPathUnits="userSpaceOnUse"
       id="clipPath737">
      <g
         id="g741">
        <path
           d="M 982,719 H 19123 V 13556 H 982 V 719"
           id="path739" />
      </g>
    </clipPath>
    <clipPath
       clipPathUnits="userSpaceOnUse"
       id="clipPath743">
      <g
         id="g747">
        <path
           d="M 982,719 H 19123 V 13556 H 982 V 719"
           id="path745" />
      </g>
    </clipPath>
    <clipPath
       clipPathUnits="userSpaceOnUse"
       id="clipPath749">
      <g
         id="g753"
         transform="matrix(0.49997236,0.86604409,-0.86604409,0.49997236,4089.1232,-15193.223)">
        <path
           d="M 982,719 H 19123 V 13556 H 982 V 719"
           id="path751" />
      </g>
    </clipPath>
    <clipPath
       clipPathUnits="userSpaceOnUse"
       id="clipPath755">
      <g
         id="g759">
        <path
           d="M 982,719 H 19123 V 13556 H 982 V 719"
           id="path757" />
      </g>
    </clipPath>
    <clipPath
       clipPathUnits="userSpaceOnUse"
       id="clipPath761">
      <g
         id="g765">
        <path
           d="M 982,719 H 19123 V 13556 H 982 V 719"
           id="path763" />
      </g>
    </clipPath>
    <clipPath
       clipPathUnits="userSpaceOnUse"
       id="clipPath767">
      <g
         id="g771">
        <path
           d="M 982,719 H 19123 V 13556 H 982 V 719"
           id="path769" />
      </g>
    </clipPath>
    <clipPath
       clipPathUnits="userSpaceOnUse"
       id="clipPath773">
      <g
         id="g777">
        <path
           d="M 982,719 H 19123 V 13556 H 982 V 719"
           id="path775" />
      </g>
    </clipPath>
    <clipPath
       clipPathUnits="userSpaceOnUse"
       id="clipPath779">
      <g
         id="g783"
         transform="matrix(0.49997236,0.86604409,-0.86604409,0.49997236,4089.5128,-11400.321)">
        <path
           d="M 982,719 H 19123 V 13556 H 982 V 719"
           id="path781" />
      </g>
    </clipPath>
    <clipPath
       clipPathUnits="userSpaceOnUse"
       id="clipPath785">
      <g
         id="g789">
        <path
           d="M 982,719 H 19123 V 13556 H 982 V 719"
           id="path787" />
      </g>
    </clipPath>
    <clipPath
       id="clipPath5113">
      <path
         clip-rule="nonzero"
         d="m 233,7 h 11 v 12.128906 h -11 z m 0,0"
         id="path4812" />
    </clipPath>
    <clipPath
       id="clipPath3342">
      <path
         clip-rule="nonzero"
         d="m 240,14 h 5 v 7.710938 h -5 z m 0,0"
         id="path7574" />
    </clipPath>
    <clipPath
       id="clipPath8695">
      <path
         clip-rule="nonzero"
         d="m 240,14 h 5 v 7.710938 h -5 z m 0,0"
         id="path3876" />
    </clipPath>
    <clipPath
       id="clipPath8619">
      <path
         clip-rule="nonzero"
         d="m 240,14 h 5 v 7.710938 h -5 z m 0,0"
         id="path9881" />
    </clipPath>
    <clipPath
       id="clipPath139">
      <path
         clip-rule="nonzero"
         d="m 232,7 h 13 v 12.128906 h -13 z m 0,0"
         id="path7144" />
    </clipPath>
    <clipPath
       id="clipPath7725">
      <path
         clip-rule="nonzero"
         d="m 232,7 h 13 v 12.128906 h -13 z m 0,0"
         id="path8892" />
    </clipPath>
    <clipPath
       id="clipPath5769">
      <path
         clip-rule="nonzero"
         d="m 235,8 h 6 v 11.128906 h -6 z m 0,0"
         id="path2551" />
    </clipPath>
    <clipPath
       id="clipPath1672">
      <path
         clip-rule="nonzero"
         d="m 232,7 h 13 v 12.128906 h -13 z m 0,0"
         id="path5979" />
    </clipPath>
  </defs>
  <sodipodi:namedview
     id="namedview134"
     pagecolor="#ffffff"
     bordercolor="#000000"
     borderopacity="0.25"
     inkscape:showpageshadow="2"
     inkscape:pageopacity="0.0"
     inkscape:pagecheckerboard="0"
     inkscape:deskcolor="#d1d1d1"
     showgrid="false"
     inkscape:zoom="2.0507777"
     inkscape:cx="327.19294"
     inkscape:cy="80.457281"
     inkscape:window-width="1920"
     inkscape:window-height="1017"
     inkscape:window-x="1912"
     inkscape:window-y="-3"
     inkscape:window-maximized="1"
     inkscape:current-layer="g140"
     showguides="true">
    <inkscape:page
       x="0"
       y="0"
       id="page138"
       width="455.05609"
       height="265.92178" />
    <inkscape:grid
       type="xygrid"
       id="grid9129"
       originx="101.24391"
       originy="-0.0047876638" />
  </sodipodi:namedview>
  <g
     id="g140"
     inkscape:groupmode="layer"
     inkscape:label="Page 1"
     transform="matrix(0.16,0,0,-0.16,-1371.8461,1169.9352)">
    <g
       id="g204"
       transform="matrix(0.19497108,-0.33772575,0.33772575,0.19497108,9600.8904,6245.4887)"
       clip-path="url(#clipPath641)"
       style="stroke-width:2;stroke-dasharray:none">
      <path
         d="M 1393.5,0 C 1393.5,444.31311 769.60883,804.5 0,804.5 -769.60883,804.5 -1393.5,444.31311 -1393.5,0 c 0,-444.31311 623.89117,-804.5 1393.5,-804.5 769.60883,0 1393.5,360.18689 1393.5,804.5"
         style="fill:none;stroke:#000000;stroke-width:2;stroke-linecap:round;stroke-linejoin:round;stroke-miterlimit:10;stroke-dasharray:none;stroke-opacity:1"
         id="path206" />
    </g>
    <path
       d="m 10902,3396 17,10 15,10 16,11 15,12 14,13 14,13 14,14 13,15 13,15 12,16 12,16 11,17 11,18 10,18 10,19 9,20 9,20 8,21 8,21 7,22 6,23 6,23 6,23 5,24 4,24 4,25 3,26 3,25 2,27 1,26 1,27 v 28 27 l -1,28 -1,29 -2,28 -3,29 -3,29 -4,30 -4,29 -5,30 -6,30 -6,31 -6,30 -8,30 -8,31 -8,31 -9,31 -9,31 -10,30 -11,31 -11,31 -11,31 -13,31 -12,31 -13,31 -14,30 -14,31 -14,30 -15,31 -16,30 -15,30 -17,30 -16,29 -18,29 -17,29 -18,29 -19,28 -18,29 -19,27 -20,28 -20,27 -20,26 -20,27 -21,26 -21,25 -21,25 -22,25 -22,24 -22,23 -22,24 -22,22 -23,22 -23,22 -23,21 -23,20 -23,20 -23,19 -24,19 -24,18 -23,17 -24,17 -24,16 -24,16 -23,14 -24,14 -24,14 -24,12 -24,12 -23,12 -24,10 -23,10 -24,9 -23,9 -23,8 -23,7 -23,6 -23,6 -23,4 -22,4 -22,4 -22,2 -21,2 -22,1 h -21 -20 l -21,-1 -20,-2 -20,-3 -19,-3 -20,-5 -18,-4 -19,-6 -18,-6 -18,-7 -17,-8 -17,-8 -17,-9 -16,-10 -16,-11 -15,-11 -15,-12 -15,-12 -14,-14 -14,-14 -13,-14 -12,-15 -13,-16 -11,-17 -12,-17 -10,-18 -11,-18 -9,-19 -10,-20 -8,-20 -9,-21 -7,-21 -7,-22 -7,-22 -6,-23 -5,-24 -5,-24 -5,-24 -4,-25 -3,-25 -2,-26 -2,-26 -2,-27 -1,-27 v -27 -28 l 1,-28 1,-28 3,-29 2,-29 4,-29 3,-29 5,-30 5,-30 5,-30 6,-30 7,-30 7,-31 8,-31 8,-30 9,-31 10,-31 10,-31 10,-31 11,-31 12,-31 12,-31 12,-31 13,-30 14,-31 14,-31 14,-30 16,-30 15,-30 16,-30 16,-30 17,-29 17,-30 18,-29 18,-28 18,-29 19,-28 19,-28 19,-27 20,-27 20,-27 21,-26 20,-26 21,-26 22,-25 21,-24 22,-25 22,-23 22,-23 23,-23 22,-22 23,-21 23,-21 23,-21 24,-19 23,-20 23,-18 24,-18 24,-18 23,-16 24,-16 24,-16 24,-15 24,-14 24,-13 23,-13 24,-12 24,-12 23,-10 24,-10 23,-9 24,-9 23,-7 23,-7 23,-7 22,-5 23,-5 22,-4 22,-3 22,-3 21,-1 22,-1 21,-1 21,1 20,1 20,2 20,3 20,3 19,4 19,5 18,5 19,7 17,7 18,7 17,9 16,9"
       style="fill:none;stroke:#000000;stroke-width:12;stroke-linecap:round;stroke-linejoin:round;stroke-miterlimit:10;stroke-dasharray:none;stroke-opacity:1"
       id="path208"
       clip-path="url(#clipPath635)"
       transform="matrix(0.38996554,0,0,0.38996554,5617.1973,4456.9117)" />
    <path
       d="m 10921,3363 18,11 17,11 17,12 16,13 16,14 15,14 15,15 14,16 13,16 14,17 12,18 12,18 12,19 11,20 10,20 10,20 9,22 9,22 8,22 7,23 7,24 6,24 6,24 5,25 4,25 4,26 3,27 3,26 2,27 2,28 1,28 v 28 28 l -1,29 -2,29 -2,29 -2,30 -4,30 -3,30 -5,30 -5,31 -5,30 -7,31 -6,31 -8,31 -8,32 -8,31 -9,31 -10,32 -10,31 -11,32 -11,31 -12,32 -12,31 -13,31 -14,32 -13,31 -15,31 -15,31 -15,31 -15,30 -17,31 -16,30 -17,30 -18,30 -17,29 -19,29 -18,29 -19,29 -19,28 -20,28 -20,27 -21,28 -20,26 -21,27 -22,26 -21,25 -22,25 -23,25 -22,24 -23,23 -23,23 -23,22 -23,22 -23,22 -24,20 -24,21 -24,19 -24,19 -24,19 -24,17 -25,18 -24,16 -24,16 -25,15 -24,15 -25,14 -24,13 -25,12 -24,12 -25,11 -24,11 -25,9 -24,9 -24,8 -24,7 -24,7 -24,6 -23,5 -24,4 -23,3 -23,3 -23,2 -23,1 h -22 l -22,-1 -22,-1 -22,-2 -21,-3 -21,-3 -21,-5 -20,-5 -20,-6 -19,-7 -20,-7 -19,-9 -18,-9 -18,-10 -18,-10 -17,-12 -16,-12 -16,-13 -16,-13 -15,-15 -15,-15 -14,-15 -14,-17 -13,-17 -12,-17 -13,-19 -11,-19 -11,-19 -10,-20 -10,-21 -10,-21 -8,-22 -8,-23 -8,-22 -7,-24 -6,-24 -6,-24 -5,-25 -4,-26 -4,-26 -3,-26 -3,-26 -2,-28 -2,-27 -1,-28 v -28 -28 l 1,-29 2,-29 2,-30 2,-29 4,-30 4,-30 4,-31 5,-30 6,-31 6,-31 7,-31 7,-31 8,-31 9,-32 9,-31 9,-31 11,-32 10,-31 12,-32 11,-31 13,-32 12,-31 14,-31 13,-32 15,-31 14,-31 16,-30 15,-31 16,-30 17,-31 17,-30 17,-29 18,-30 19,-29 18,-29 19,-28 20,-29 20,-27 20,-28 20,-27 21,-27 21,-26 21,-26 22,-26 22,-25 22,-24 22,-24 23,-24 23,-23 23,-22 23,-22 24,-22 23,-21 24,-20 24,-19 24,-19 24,-19 24,-18 25,-17 24,-16 25,-16 24,-15 25,-15 24,-14 25,-13 24,-12 25,-12 24,-11 25,-10 24,-10 24,-9 24,-8 24,-7 24,-6 24,-6 24,-5 23,-4 23,-4 23,-2 23,-2 23,-1 22,-1 22,1 22,1 22,2 21,3 21,4 21,4 20,5 20,6 20,7 19,8 19,8 18,9 18,10"
       style="fill:none;stroke:#000000;stroke-width:12;stroke-linecap:round;stroke-linejoin:round;stroke-miterlimit:10;stroke-dasharray:none;stroke-opacity:1"
       id="path210"
       clip-path="url(#clipPath629)"
       transform="matrix(0.38996554,0,0,0.38996554,5617.1973,4456.9117)" />
    <path
       d="M 12843,3069 10215,4586 V 7303"
       style="fill:none;stroke:#000000;stroke-width:12;stroke-linecap:round;stroke-linejoin:round;stroke-miterlimit:10;stroke-dasharray:none;stroke-opacity:1;marker-start:url(#TriangleStart);marker-end:url(#TriangleStart)"
       id="path212"
       clip-path="url(#clipPath623)"
       transform="matrix(0.38996554,0,0,0.38996554,5617.1973,4456.9117)" />
    <path
       d="m 10215,4586 681,393"
       style="fill:none;stroke:#000000;stroke-width:12;stroke-linecap:round;stroke-linejoin:round;stroke-miterlimit:10;stroke-dasharray:none;stroke-opacity:1"
       id="path214"
       clip-path="url(#clipPath617)"
       transform="matrix(0.38996554,0,0,0.38996554,5617.1973,4456.9117)" />
    <path
       d="m 12899,6136 601,347"
       style="fill:none;stroke:#000000;stroke-width:12;stroke-linecap:round;stroke-linejoin:round;stroke-miterlimit:10;stroke-dasharray:none;stroke-opacity:1;marker-end:url(#TriangleStart)"
       id="path216"
       clip-path="url(#clipPath611)"
       transform="matrix(0.38996554,0,0,0.38996554,5617.1973,4456.9117)" />
    <path
       d="m 10899,3351 1993,1150 9,5 9,5 8,6 9,6 8,6 8,6 8,6 9,7 7,6 8,7 8,7 7,8 8,7 7,8 7,7 7,8 7,8 7,9 7,8 6,9 6,8 7,9 6,9 6,10 6,9 5,10 6,9 5,10 6,10 5,10 5,11 4,10 5,11 5,10 4,11 4,11 4,11 4,12 4,11 4,12 3,11 3,12 7,24 5,25 5,25 5,25 4,26 3,26 3,27 2,27 1,27 1,28 1,28 -1,29 -1,28 -1,29 -2,30 -3,29 -3,30 -4,30 -4,31 -5,30 -6,31 -6,31 -7,31 -7,31 -8,31 -8,31 -10,32 -9,31 -10,32 -11,31 -11,32 -12,31 -13,31 -12,32 -14,31 -14,31 -14,31 -15,31 -15,31 -15,30 -17,31 -16,30 -17,30 -18,30 -17,29 -19,30 -18,28 -19,29 -19,28 -20,28 -20,28 -21,27 -20,27 -21,26 -22,26 -21,25 -22,25 -22,25 -23,24 -23,23 -22,23 -24,23 -23,22 -23,21 -24,21 -24,20 -24,20 -24,19 -24,18 -24,18 -24,17 -25,17 -24,16 -25,15 -24,14 -25,14 -24,13 -25,13 -24,12 -25,11 -24,10 -24,10 -25,9 -12,4 -12,4 -12,3 -12,4 -12,3 -12,4 -12,2 -11,3 -12,3 -12,2 -12,2 -11,2 -12,2 -12,2 -11,1 -12,1 -11,2 h -12 l -11,1 h -11 l -12,1 h -11 -11 l -11,-1 h -11 l -11,-1 -11,-1 -10,-1 -11,-1 -11,-2 -10,-2 -11,-1 -10,-3 -10,-2 -11,-2 -10,-3 -10,-3 -10,-3 -10,-3 -9,-4 -10,-3 -10,-4 -9,-4 -9,-5 -10,-4 -9,-5 -9,-4 -9,-5 -1971,-1139"
       style="fill:none;stroke:#000000;stroke-width:12;stroke-linecap:round;stroke-linejoin:round;stroke-miterlimit:10;stroke-dasharray:none;stroke-opacity:1"
       id="path218"
       clip-path="url(#clipPath605)"
       transform="matrix(0.38996554,0,0,0.38996554,5617.1973,4456.9117)" />
    <path
       d="m 11408,3897 815,-470"
       style="fill:none;stroke:#000000;stroke-width:12;stroke-linecap:round;stroke-linejoin:round;stroke-miterlimit:10;stroke-dasharray:none;stroke-opacity:1"
       id="path220"
       clip-path="url(#clipPath599)"
       transform="matrix(0.38996554,0,0,0.38996554,5617.1973,4456.9117)" />
    <path
       d="m 13379,5035 815,-470"
       style="fill:none;stroke:#000000;stroke-width:12;stroke-linecap:round;stroke-linejoin:round;stroke-miterlimit:10;stroke-dasharray:none;stroke-opacity:1"
       id="path222"
       clip-path="url(#clipPath593)"
       transform="matrix(0.38996554,0,0,0.38996554,5617.1973,4456.9117)" />
    <path
       d="m 12034,3536 1970,1138"
       style="fill:none;stroke:#000000;stroke-width:12;stroke-linecap:round;stroke-linejoin:round;stroke-miterlimit:10;stroke-dasharray:none;stroke-opacity:1"
       id="path224"
       clip-path="url(#clipPath587)"
       transform="matrix(0.38996554,0,0,0.38996554,5617.1973,4456.9117)" />
    <path
       d="m 12069,3666 -70,-259"
       style="fill:none;stroke:#000000;stroke-width:12;stroke-linecap:round;stroke-linejoin:round;stroke-miterlimit:10;stroke-dasharray:none;stroke-opacity:1"
       id="path226"
       clip-path="url(#clipPath581)"
       transform="matrix(0.38996554,0,0,0.38996554,5617.1973,4456.9117)" />
    <path
       d="m 13970,4545 69,259"
       style="fill:none;stroke:#000000;stroke-width:12;stroke-linecap:round;stroke-linejoin:round;stroke-miterlimit:10;stroke-dasharray:none;stroke-opacity:1"
       id="path228"
       clip-path="url(#clipPath575)"
       transform="matrix(0.38996554,0,0,0.38996554,5617.1973,4456.9117)" />
    <path
       d="M 10215,4586 9537,5803"
       style="fill:none;stroke:#000000;stroke-width:12;stroke-linecap:round;stroke-linejoin:round;stroke-miterlimit:10;stroke-dasharray:none;stroke-opacity:1;marker-end:url(#TriangleStart)"
       id="path230"
       clip-path="url(#clipPath569)"
       transform="matrix(0.38996554,0,0,0.38996554,5617.1973,4456.9117)" />
    <path
       d="m 10515,5177 98,192"
       style="fill:none;stroke:#000000;stroke-width:12;stroke-linecap:round;stroke-linejoin:round;stroke-miterlimit:10;stroke-dasharray:none;stroke-opacity:1;marker-end:url(#TriangleStart)"
       id="path232"
       clip-path="url(#clipPath563)"
       transform="matrix(0.38996554,0,0,0.38996554,5617.1973,4456.9117)" />
    <path
       d="m 10632,5405 106,209"
       style="fill:none;stroke:#000000;stroke-width:12;stroke-linecap:round;stroke-linejoin:round;stroke-miterlimit:10;stroke-dasharray:none;stroke-opacity:1;marker-start:url(#TriangleStart)"
       id="path234"
       clip-path="url(#clipPath557)"
       transform="matrix(0.38996554,0,0,0.38996554,5617.1973,4456.9117)" />
    <path
       d="m 10215,5745 1971,1138"
       style="fill:none;stroke:#000000;stroke-width:12;stroke-linecap:round;stroke-linejoin:round;stroke-miterlimit:10;stroke-dasharray:48;stroke-dashoffset:0;stroke-opacity:1"
       id="path236"
       clip-path="url(#clipPath551)"
       transform="matrix(0.38996554,0,0,0.38996554,5617.1973,4456.9117)" />
    <path
       d="m 11891,3923 18,10 18,11 17,12 16,12 17,13 15,14 16,14 14,16 14,15 14,17 13,17 13,18 12,19 11,19 11,20 11,20 9,21 9,22 9,22 8,23 7,23 7,24 6,24 6,25 4,25 5,26 3,26 4,26 2,27 2,28 1,27 1,29 v 28 29 l -1,29 -2,29 -2,30 -3,30 -4,30 -4,30 -4,31 -6,31 -5,31 -7,31 -7,31 -8,31 -8,32 -9,31 -9,32 -10,32 -11,31 -11,32 -11,32 -12,31 -13,32 -13,31 -14,32 -14,31 -15,31 -15,31 -31,62 -34,61 -35,60 -18,29 -19,29 -18,29 -20,29 -19,28 -20,28 -21,27 -21,28 -21,26 -21,27 -22,25 -22,26 -22,24 -22,25 -23,24 -23,23 -23,23 -24,22 -23,22 -24,21 -24,20 -24,20 -24,19 -24,19 -25,18 -24,18 -25,17 -24,16 -25,15 -25,15 -24,14 -25,14 -25,12 -24,12 -25,12 -25,10 -24,10 -24,9 -25,8 -24,8 -24,7 -24,6 -24,5 -23,4 -24,4 -23,2 -23,2 -23,1 -23,1 -22,-1 -22,-1 -22,-2 -21,-2 -21,-4 -21,-4 -21,-6 -20,-5 -20,-7 -19,-8 -19,-8 -19,-9 -18,-10"
       style="fill:none;stroke:#000000;stroke-width:12;stroke-linecap:round;stroke-linejoin:round;stroke-miterlimit:10;stroke-dasharray:48;stroke-dashoffset:0;stroke-opacity:1"
       id="path238"
       clip-path="url(#clipPath545)"
       transform="matrix(0.38996554,0,0,0.38996554,5617.1973,4456.9117)" />
    <path
       d="m 11219,4007 1971,1138"
       style="fill:none;stroke:#000000;stroke-width:12;stroke-linecap:round;stroke-linejoin:round;stroke-miterlimit:10;stroke-dasharray:48;stroke-dashoffset:0;stroke-opacity:1"
       id="path240"
       clip-path="url(#clipPath539)"
       transform="matrix(0.38996554,0,0,0.38996554,5617.1973,4456.9117)" />
    <path
       d="m 11201,6314 v 759"
       style="fill:none;stroke:#000000;stroke-width:12;stroke-linecap:round;stroke-linejoin:round;stroke-miterlimit:10;stroke-dasharray:none;stroke-opacity:1;marker-start:url(#TriangleStart)"
       id="path242"
       clip-path="url(#clipPath533)"
       transform="matrix(0.38996554,0,0,0.38996554,5617.1973,4456.9117)" />
    <path
       d="m 10896,4979 2003,1157"
       style="fill:none;stroke:#000000;stroke-width:12;stroke-linecap:round;stroke-linejoin:round;stroke-miterlimit:10;stroke-dasharray:96;stroke-dashoffset:0;stroke-opacity:1"
       id="path244"
       clip-path="url(#clipPath527)"
       transform="matrix(0.38996554,0,0,0.38996554,5617.1973,4456.9117)" />
    <path
       d="M 11219,4007 V 3248"
       style="fill:none;stroke:#000000;stroke-width:12;stroke-linecap:round;stroke-linejoin:round;stroke-miterlimit:10;stroke-dasharray:none;stroke-opacity:1;marker-start:url(#TriangleStart)"
       id="path246"
       clip-path="url(#clipPath521)"
       transform="matrix(0.38996554,0,0,0.38996554,5617.1973,4456.9117)" />
    <g
       inkscape:label=""
       transform="matrix(6.25,0,0,-6.25,10728.169,6025.6965)"
       id="g1123">
      <g
         clip-path="url(#clipPath5113)"
         id="g17"
         transform="matrix(1.33333,0,0,1.33333,-310.897,-9.8165)">
        <g
           fill="#000000"
           fill-opacity="1"
           id="g15">
          <g
             id="use13"
             transform="translate(232.37601,19.128)">
            <path
               d="m 6.3125,-10.4375 c 0.15625,-0.65625 0.21875,-0.828125 1.734375,-0.828125 0.453125,0 0.578125,0 0.578125,-0.328125 0,-0.171875 -0.1875,-0.171875 -0.25,-0.171875 -0.34375,0 -0.75,0.04687 -1.09375,0.04687 h -2.3125 c -0.3125,0 -0.703125,-0.04687 -1.03125,-0.04687 -0.125,0 -0.328125,0 -0.328125,0.328125 0,0.171875 0.15625,0.171875 0.421875,0.171875 1.046875,0 1.046875,0.140625 1.046875,0.328125 0,0.03125 0,0.140625 -0.0625,0.40625 l -2.328125,9.25 C 2.53125,-0.671875 2.5,-0.5 1.296875,-0.5 c -0.328125,0 -0.5,0 -0.5,0.3125 C 0.796875,0 0.890625,0 1.234375,0 h 7.71875 c 0.375,0 0.390625,-0.015625 0.515625,-0.328125 L 10.796875,-4 c 0.03125,-0.078125 0.0625,-0.1875 0.0625,-0.234375 0,-0.109375 -0.07813,-0.171875 -0.171875,-0.171875 -0.01563,0 -0.09375,0 -0.125,0.0625 -0.04687,0.015625 -0.04687,0.0625 -0.171875,0.390625 C 9.828125,-2.4375 9.0625,-0.5 6.140625,-0.5 H 4.5 c -0.25,0 -0.28125,0 -0.390625,-0.015625 -0.1875,-0.015625 -0.203125,-0.046875 -0.203125,-0.1875 0,-0.125 0.03125,-0.234375 0.078125,-0.375 z m 0,0"
               id="path23" />
          </g>
        </g>
      </g>
    </g>
    <g
       inkscape:label=""
       transform="matrix(6.25,0,0,-6.25,10645.314,5757.8043)"
       id="g5944">
      <g
         fill="#000000"
         fill-opacity="1"
         id="g19"
         transform="matrix(1.33333,0,0,1.33333,-307.771,-15.3803)">
        <g
           id="use17"
           transform="translate(230.34399,19.129)">
          <path
             d="m 8.15625,-7.03125 c -0.546875,0.109375 -0.75,0.515625 -0.75,0.84375 0,0.421875 0.328125,0.5625 0.5625,0.5625 0.515625,0 0.875,-0.453125 0.875,-0.921875 0,-0.71875 -0.8125,-1.046875 -1.546875,-1.046875 -1.046875,0 -1.625,1.03125 -1.78125,1.359375 -0.40625,-1.296875 -1.46875,-1.359375 -1.78125,-1.359375 -1.75,0 -2.6875,2.25 -2.6875,2.640625 0,0.0625 0.078125,0.15625 0.1875,0.15625 0.140625,0 0.171875,-0.109375 0.21875,-0.171875 C 2.03125,-6.890625 3.1875,-7.25 3.6875,-7.25 c 0.765625,0 0.921875,0.71875 0.921875,1.140625 0,0.375 -0.09375,0.765625 -0.296875,1.59375 L 3.71875,-2.15625 c -0.25,1.03125 -0.75,1.984375 -1.671875,1.984375 -0.078125,0 -0.515625,0 -0.875,-0.21875 0.625,-0.125 0.75,-0.640625 0.75,-0.84375 0,-0.34375 -0.25,-0.5625 -0.578125,-0.5625 -0.40625,0 -0.859375,0.375 -0.859375,0.921875 0,0.71875 0.8125,1.046875 1.546875,1.046875 0.828125,0 1.40625,-0.65625 1.78125,-1.359375 0.265625,1.015625 1.125,1.359375 1.765625,1.359375 1.75,0 2.6875,-2.25 2.6875,-2.640625 0,-0.078125 -0.0625,-0.15625 -0.171875,-0.15625 -0.15625,0 -0.171875,0.09375 -0.21875,0.234375 -0.46875,1.515625 -1.46875,2.21875 -2.25,2.21875 -0.59375,0 -0.921875,-0.453125 -0.921875,-1.15625 0,-0.375 0.0625,-0.65625 0.34375,-1.78125 l 0.59375,-2.34375 C 5.90625,-6.484375 6.484375,-7.25 7.28125,-7.25 c 0.03125,0 0.515625,0 0.875,0.21875 z m 0,0"
             id="path31" />
        </g>
      </g>
      <g
         clip-path="url(#clipPath3342)"
         id="g25"
         transform="matrix(1.33333,0,0,1.33333,-307.771,-15.3803)">
        <g
           fill="#000000"
           fill-opacity="1"
           id="g23">
          <g
             id="use21"
             transform="translate(239.923,21.711)">
            <path
               d="m 3.203125,-6.984375 c 0,-0.25 0,-0.28125 -0.25,-0.28125 C 2.28125,-6.5625 1.3125,-6.5625 0.96875,-6.5625 v 0.328125 c 0.21875,0 0.859375,0 1.4375,-0.28125 v 5.65625 c 0,0.390625 -0.046875,0.515625 -1.015625,0.515625 H 1.03125 V 0 c 0.390625,-0.03125 1.328125,-0.03125 1.765625,-0.03125 0.4375,0 1.390625,0 1.765625,0.03125 V -0.34375 H 4.21875 c -0.984375,0 -1.015625,-0.109375 -1.015625,-0.515625 z m 0,0"
               id="path35" />
          </g>
        </g>
      </g>
    </g>
    <g
       inkscape:label=""
       transform="matrix(6.25,0,0,-6.25,10889.124,7010.4079)"
       id="g6373">
      <g
         fill="#000000"
         fill-opacity="1"
         id="g6363"
         transform="matrix(1.33333,0,0,1.33333,-307.771,-15.3803)">
        <g
           id="g6361"
           transform="translate(230.34399,19.129)">
          <path
             d="m 8.15625,-7.03125 c -0.546875,0.109375 -0.75,0.515625 -0.75,0.84375 0,0.421875 0.328125,0.5625 0.5625,0.5625 0.515625,0 0.875,-0.453125 0.875,-0.921875 0,-0.71875 -0.8125,-1.046875 -1.546875,-1.046875 -1.046875,0 -1.625,1.03125 -1.78125,1.359375 -0.40625,-1.296875 -1.46875,-1.359375 -1.78125,-1.359375 -1.75,0 -2.6875,2.25 -2.6875,2.640625 0,0.0625 0.078125,0.15625 0.1875,0.15625 0.140625,0 0.171875,-0.109375 0.21875,-0.171875 C 2.03125,-6.890625 3.1875,-7.25 3.6875,-7.25 c 0.765625,0 0.921875,0.71875 0.921875,1.140625 0,0.375 -0.09375,0.765625 -0.296875,1.59375 L 3.71875,-2.15625 c -0.25,1.03125 -0.75,1.984375 -1.671875,1.984375 -0.078125,0 -0.515625,0 -0.875,-0.21875 0.625,-0.125 0.75,-0.640625 0.75,-0.84375 0,-0.34375 -0.25,-0.5625 -0.578125,-0.5625 -0.40625,0 -0.859375,0.375 -0.859375,0.921875 0,0.71875 0.8125,1.046875 1.546875,1.046875 0.828125,0 1.40625,-0.65625 1.78125,-1.359375 0.265625,1.015625 1.125,1.359375 1.765625,1.359375 1.75,0 2.6875,-2.25 2.6875,-2.640625 0,-0.078125 -0.0625,-0.15625 -0.171875,-0.15625 -0.15625,0 -0.171875,0.09375 -0.21875,0.234375 -0.46875,1.515625 -1.46875,2.21875 -2.25,2.21875 -0.59375,0 -0.921875,-0.453125 -0.921875,-1.15625 0,-0.375 0.0625,-0.65625 0.34375,-1.78125 l 0.59375,-2.34375 C 5.90625,-6.484375 6.484375,-7.25 7.28125,-7.25 c 0.03125,0 0.515625,0 0.875,0.21875 z m 0,0"
             id="path6359" />
        </g>
      </g>
      <g
         clip-path="url(#clipPath8695)"
         id="g6371"
         transform="matrix(1.33333,0,0,1.33333,-307.771,-15.3803)">
        <g
           fill="#000000"
           fill-opacity="1"
           id="g6369">
          <g
             id="g6367"
             transform="translate(239.923,21.711)">
            <path
               d="m 1.390625,-0.84375 1.15625,-1.125 c 1.703125,-1.5 2.34375,-2.09375 2.34375,-3.171875 0,-1.25 -0.96875,-2.125 -2.3125,-2.125 -1.21875,0 -2.03125,1 -2.03125,1.96875 0,0.625 0.546875,0.625 0.578125,0.625 0.1875,0 0.5625,-0.140625 0.5625,-0.578125 0,-0.296875 -0.1875,-0.578125 -0.578125,-0.578125 -0.078125,0 -0.109375,0 -0.140625,0.015625 0.25,-0.703125 0.84375,-1.109375 1.46875,-1.109375 1,0 1.46875,0.875 1.46875,1.78125 0,0.859375 -0.546875,1.734375 -1.140625,2.40625 l -2.09375,2.328125 c -0.125,0.125 -0.125,0.140625 -0.125,0.40625 H 4.59375 L 4.890625,-1.890625 H 4.625 C 4.5625,-1.578125 4.5,-1.09375 4.390625,-0.921875 4.3125,-0.84375 3.59375,-0.84375 3.34375,-0.84375 Z m 0,0"
               id="path6365" />
          </g>
        </g>
      </g>
    </g>
    <g
       inkscape:label=""
       transform="matrix(6.25,0,0,-6.25,9657.884,7287.7417)"
       id="g6794">
      <g
         fill="#000000"
         fill-opacity="1"
         id="g6784"
         transform="matrix(1.33333,0,0,1.33333,-307.771,-15.3803)">
        <g
           id="g6782"
           transform="translate(230.34399,19.129)">
          <path
             d="m 8.15625,-7.03125 c -0.546875,0.109375 -0.75,0.515625 -0.75,0.84375 0,0.421875 0.328125,0.5625 0.5625,0.5625 0.515625,0 0.875,-0.453125 0.875,-0.921875 0,-0.71875 -0.8125,-1.046875 -1.546875,-1.046875 -1.046875,0 -1.625,1.03125 -1.78125,1.359375 -0.40625,-1.296875 -1.46875,-1.359375 -1.78125,-1.359375 -1.75,0 -2.6875,2.25 -2.6875,2.640625 0,0.0625 0.078125,0.15625 0.1875,0.15625 0.140625,0 0.171875,-0.109375 0.21875,-0.171875 C 2.03125,-6.890625 3.1875,-7.25 3.6875,-7.25 c 0.765625,0 0.921875,0.71875 0.921875,1.140625 0,0.375 -0.09375,0.765625 -0.296875,1.59375 L 3.71875,-2.15625 c -0.25,1.03125 -0.75,1.984375 -1.671875,1.984375 -0.078125,0 -0.515625,0 -0.875,-0.21875 0.625,-0.125 0.75,-0.640625 0.75,-0.84375 0,-0.34375 -0.25,-0.5625 -0.578125,-0.5625 -0.40625,0 -0.859375,0.375 -0.859375,0.921875 0,0.71875 0.8125,1.046875 1.546875,1.046875 0.828125,0 1.40625,-0.65625 1.78125,-1.359375 0.265625,1.015625 1.125,1.359375 1.765625,1.359375 1.75,0 2.6875,-2.25 2.6875,-2.640625 0,-0.078125 -0.0625,-0.15625 -0.171875,-0.15625 -0.15625,0 -0.171875,0.09375 -0.21875,0.234375 -0.46875,1.515625 -1.46875,2.21875 -2.25,2.21875 -0.59375,0 -0.921875,-0.453125 -0.921875,-1.15625 0,-0.375 0.0625,-0.65625 0.34375,-1.78125 l 0.59375,-2.34375 C 5.90625,-6.484375 6.484375,-7.25 7.28125,-7.25 c 0.03125,0 0.515625,0 0.875,0.21875 z m 0,0"
             id="path6780" />
        </g>
      </g>
      <g
         clip-path="url(#clipPath8619)"
         id="g6792"
         transform="matrix(1.33333,0,0,1.33333,-307.771,-15.3803)">
        <g
           fill="#000000"
           fill-opacity="1"
           id="g6790">
          <g
             id="g6788"
             transform="translate(239.923,21.711)">
            <path
               d="M 3.15625,-3.84375 C 4.0625,-4.140625 4.6875,-4.890625 4.6875,-5.765625 c 0,-0.890625 -0.953125,-1.5 -2,-1.5 -1.109375,0 -1.9375,0.65625 -1.9375,1.484375 0,0.359375 0.25,0.5625 0.5625,0.5625 0.328125,0 0.546875,-0.234375 0.546875,-0.546875 0,-0.546875 -0.5,-0.546875 -0.671875,-0.546875 C 1.53125,-6.84375 2.25,-6.984375 2.640625,-6.984375 3.09375,-6.984375 3.6875,-6.75 3.6875,-5.765625 3.6875,-5.640625 3.671875,-5 3.375,-4.53125 3.046875,-4 2.6875,-3.96875 2.40625,-3.953125 c -0.078125,0 -0.34375,0.03125 -0.421875,0.03125 -0.09375,0 -0.15625,0.015625 -0.15625,0.125 0,0.125 0.0625,0.125 0.25,0.125 H 2.5625 c 0.890625,0 1.296875,0.734375 1.296875,1.8125 0,1.484375 -0.75,1.796875 -1.234375,1.796875 -0.46875,0 -1.28125,-0.1875 -1.671875,-0.828125 0.390625,0.046875 0.71875,-0.1875 0.71875,-0.609375 0,-0.390625 -0.28125,-0.609375 -0.609375,-0.609375 -0.25,0 -0.609375,0.15625 -0.609375,0.640625 0,0.984375 1.015625,1.703125 2.203125,1.703125 1.328125,0 2.328125,-0.984375 2.328125,-2.09375 0,-0.90625 -0.6875,-1.75 -1.828125,-1.984375 z m 0,0"
               id="path6786" />
          </g>
        </g>
      </g>
    </g>
    <g
       inkscape:label=""
       transform="matrix(6.25,0,0,-6.25,9999.2179,7269.456)"
       id="g7229">
      <g
         clip-path="url(#clipPath139)"
         id="g7227"
         transform="matrix(1.33333,0,0,1.33333,-309.759,-9.8165)">
        <g
           fill="#000000"
           fill-opacity="1"
           id="g7225">
          <g
             id="g7223"
             transform="translate(231.507,19.128)">
            <path
               d="m 5.09375,-5.46875 h 2.890625 c 2.375,0 4.75,-1.765625 4.75,-3.71875 0,-1.34375 -1.125,-2.578125 -3.296875,-2.578125 H 4.109375 c -0.328125,0 -0.46875,0 -0.46875,0.328125 0,0.171875 0.140625,0.171875 0.40625,0.171875 1.046875,0 1.046875,0.140625 1.046875,0.328125 0,0.03125 0,0.140625 -0.0625,0.40625 l -2.328125,9.25 C 2.546875,-0.671875 2.515625,-0.5 1.3125,-0.5 c -0.328125,0 -0.5,0 -0.5,0.3125 C 0.8125,0 0.96875,0 1.0625,0 c 0.328125,0 0.671875,-0.03125 1,-0.03125 H 4.078125 C 4.40625,-0.03125 4.765625,0 5.09375,0 5.234375,0 5.421875,0 5.421875,-0.328125 5.421875,-0.5 5.265625,-0.5 5.015625,-0.5 c -1.03125,0 -1.0625,-0.125 -1.0625,-0.296875 C 3.953125,-0.875 3.984375,-1 4,-1.078125 Z m 1.25,-5.125 c 0.140625,-0.640625 0.21875,-0.671875 0.890625,-0.671875 H 8.9375 c 1.296875,0 2.359375,0.421875 2.359375,1.703125 0,0.453125 -0.21875,1.921875 -1.015625,2.703125 -0.296875,0.3125 -1.125,0.96875 -2.6875,0.96875 H 5.171875 Z m 0,0"
               id="path7221" />
          </g>
        </g>
      </g>
    </g>
    <g
       inkscape:label=""
       transform="matrix(6.25,0,0,-6.25,9356.1692,6483.1689)"
       id="g7675">
      <g
         clip-path="url(#clipPath7725)"
         id="g7673"
         transform="matrix(1.33333,0,0,1.33333,-309.915,-9.8165)">
        <g
           fill="#000000"
           fill-opacity="1"
           id="g7671">
          <g
             id="g7669"
             transform="translate(231.62399,19.128)">
            <path
               d="m 6.34375,-10.59375 c 0.140625,-0.640625 0.21875,-0.671875 0.890625,-0.671875 H 8.46875 c 1.484375,0 2.578125,0.453125 2.578125,1.796875 0,0.875 -0.4375,3.40625 -3.90625,3.40625 h -1.9375 z m 2.390625,4.734375 c 2.125,-0.453125 3.796875,-1.84375 3.796875,-3.3125 0,-1.34375 -1.359375,-2.59375 -3.75,-2.59375 H 4.109375 c -0.34375,0 -0.5,0 -0.5,0.328125 0,0.171875 0.125,0.171875 0.453125,0.171875 1.03125,0 1.03125,0.140625 1.03125,0.328125 0,0.03125 0,0.140625 -0.0625,0.40625 l -2.328125,9.25 C 2.546875,-0.671875 2.515625,-0.5 1.328125,-0.5 0.9375,-0.5 0.8125,-0.5 0.8125,-0.171875 0.8125,0 1,0 1.046875,0 c 0.3125,0 0.671875,-0.03125 1,-0.03125 h 2.03125 C 4.390625,-0.03125 4.75,0 5.0625,0 5.203125,0 5.390625,0 5.390625,-0.328125 5.390625,-0.5 5.234375,-0.5 4.96875,-0.5 c -1.046875,0 -1.046875,-0.140625 -1.046875,-0.3125 0,-0.015625 0,-0.140625 0.03125,-0.265625 L 5.109375,-5.71875 H 7.1875 c 1.625,0 1.9375,1.03125 1.9375,1.609375 0,0.25 -0.171875,0.921875 -0.296875,1.375 -0.1875,0.78125 -0.234375,0.984375 -0.234375,1.3125 0,1.21875 1,1.78125 2.15625,1.78125 1.390625,0 1.984375,-1.703125 1.984375,-1.9375 0,-0.125 -0.07813,-0.171875 -0.1875,-0.171875 -0.125,0 -0.171875,0.09375 -0.203125,0.234375 -0.40625,1.21875 -1.109375,1.53125 -1.546875,1.53125 -0.4375,0 -0.703125,-0.1875 -0.703125,-0.96875 0,-0.40625 0.203125,-1.96875 0.21875,-2.0625 0.09375,-0.640625 0.09375,-0.703125 0.09375,-0.84375 0,-1.25 -1.015625,-1.78125 -1.671875,-2 z m 0,0"
               id="path7667" />
          </g>
        </g>
      </g>
    </g>
    <g
       inkscape:label=""
       transform="matrix(6.25,0,0,-6.25,9837.6938,6641.6454)"
       id="g8135">
      <g
         clip-path="url(#clipPath5769)"
         id="g8133"
         transform="matrix(1.33333,0,0,1.33333,-313.923,-11.1498)">
        <g
           fill="#000000"
           fill-opacity="1"
           id="g8131">
          <g
             id="g8129"
             transform="translate(235.067,19.128)">
            <path
               d="m 3.46875,-6.921875 h 1.578125 c 0.328125,0 0.5,0 0.5,-0.3125 0,-0.1875 -0.109375,-0.1875 -0.453125,-0.1875 H 3.578125 L 4.21875,-9.9375 c 0.0625,-0.234375 0.0625,-0.265625 0.0625,-0.390625 0,-0.28125 -0.21875,-0.4375 -0.4375,-0.4375 -0.140625,0 -0.53125,0.0625 -0.671875,0.609375 L 2.5,-7.421875 H 0.875 c -0.34375,0 -0.5,0 -0.5,0.328125 0,0.171875 0.125,0.171875 0.453125,0.171875 h 1.53125 L 1.21875,-2.375 c -0.140625,0.59375 -0.1875,0.78125 -0.1875,1 0,0.8125 0.5625,1.546875 1.53125,1.546875 1.75,0 2.671875,-2.515625 2.671875,-2.640625 0,-0.09375 -0.0625,-0.15625 -0.171875,-0.15625 -0.03125,0 -0.109375,0 -0.140625,0.078125 -0.015625,0.015625 -0.03125,0.03125 -0.15625,0.3125 -0.359375,0.859375 -1.15625,2.0625 -2.140625,2.0625 -0.53125,0 -0.5625,-0.4375 -0.5625,-0.8125 0,-0.015625 0,-0.34375 0.0625,-0.546875 z m 0,0"
               id="path8127" />
          </g>
        </g>
      </g>
    </g>
    <g
       inkscape:label=""
       transform="matrix(6.25,0,0,-6.25,9993.1227,5803.5487)"
       id="g8609">
      <g
         clip-path="url(#clipPath1672)"
         id="g8607"
         transform="matrix(1.33333,0,0,1.33333,-309.759,-9.8165)">
        <g
           fill="#000000"
           fill-opacity="1"
           id="g8605">
          <g
             id="g8603"
             transform="translate(231.507,19.128)">
            <path
               d="m 5.09375,-5.46875 h 2.890625 c 2.375,0 4.75,-1.765625 4.75,-3.71875 0,-1.34375 -1.125,-2.578125 -3.296875,-2.578125 H 4.109375 c -0.328125,0 -0.46875,0 -0.46875,0.328125 0,0.171875 0.140625,0.171875 0.40625,0.171875 1.046875,0 1.046875,0.140625 1.046875,0.328125 0,0.03125 0,0.140625 -0.0625,0.40625 l -2.328125,9.25 C 2.546875,-0.671875 2.515625,-0.5 1.3125,-0.5 c -0.328125,0 -0.5,0 -0.5,0.3125 C 0.8125,0 0.96875,0 1.0625,0 c 0.328125,0 0.671875,-0.03125 1,-0.03125 H 4.078125 C 4.40625,-0.03125 4.765625,0 5.09375,0 5.234375,0 5.421875,0 5.421875,-0.328125 5.421875,-0.5 5.265625,-0.5 5.015625,-0.5 c -1.03125,0 -1.0625,-0.125 -1.0625,-0.296875 C 3.953125,-0.875 3.984375,-1 4,-1.078125 Z m 1.25,-5.125 c 0.140625,-0.640625 0.21875,-0.671875 0.890625,-0.671875 H 8.9375 c 1.296875,0 2.359375,0.421875 2.359375,1.703125 0,0.453125 -0.21875,1.921875 -1.015625,2.703125 -0.296875,0.3125 -1.125,0.96875 -2.6875,0.96875 H 5.171875 Z m 0,0"
               id="path8601" />
          </g>
        </g>
      </g>
    </g>
    <text
       xml:space="preserve"
       style="font-weight:bold;font-size:100px;font-family:Arial;-inkscape-font-specification:'Arial, Bold';fill:#000000;fill-opacity:1;stroke:none;stroke-width:4.67959;stroke-dasharray:37.4367;stroke-dashoffset:0"
       x="8566.8115"
       y="-5818.7891"
       id="text9050"
       transform="scale(1,-1)"><tspan
         sodipodi:role="line"
         id="tspan9048"
         style="fill:#000000;fill-opacity:1;stroke:none;stroke-width:4.67959"
         x="8566.8115"
         y="-5818.7891">Diafragma rígido</tspan></text>
    <text
       xml:space="preserve"
       style="font-weight:bold;font-size:100px;font-family:Arial;-inkscape-font-specification:'Arial, Bold';fill:#000000;fill-opacity:1;stroke:none;stroke-width:4.67959;stroke-dasharray:37.4367;stroke-dashoffset:0"
       x="10627.123"
       y="-7155.1982"
       id="text9050-4"
       transform="scale(1,-1)"><tspan
         sodipodi:role="line"
         id="tspan9048-4"
         style="fill:#000000;fill-opacity:1;stroke:none;stroke-width:4.67959"
         x="10627.123"
         y="-7155.1982">Diafragma rígido</tspan></text>
    <path
       style="fill:none;fill-opacity:1;stroke:#000000;stroke-width:4.68125;stroke-dasharray:none;stroke-dashoffset:0;stroke-opacity:1;marker-end:url(#TriangleStart)"
       d="m 9363.0625,5843.375 h 93.75 l 125,156.25"
       id="path9185" />
    <path
       style="fill:none;fill-opacity:1;stroke:#000000;stroke-width:4.68125;stroke-dasharray:none;stroke-dashoffset:0;stroke-opacity:1;marker-end:url(#TriangleStart)"
       d="m 10613.063,7187.125 h -93.75 l -87.5,-87.5"
       id="path9205" />
  </g>
</svg>
