<?xml version="1.0" encoding="UTF-8" standalone="no"?>
<!-- Created with Inkscape (http://www.inkscape.org/) -->

<svg
   width="140.57999mm"
   height="94.825798mm"
   viewBox="0 0 140.57997 94.825806"
   version="1.1"
   id="svg1173"
   sodipodi:docname="deslocamento1.svg"
   inkscape:version="1.2.1 (9c6d41e410, 2022-07-14)"
   xmlns:inkscape="http://www.inkscape.org/namespaces/inkscape"
   xmlns:sodipodi="http://sodipodi.sourceforge.net/DTD/sodipodi-0.dtd"
   xmlns="http://www.w3.org/2000/svg"
   xmlns:svg="http://www.w3.org/2000/svg">
  <sodipodi:namedview
     id="namedview1175"
     pagecolor="#ffffff"
     bordercolor="#000000"
     borderopacity="0.25"
     inkscape:showpageshadow="2"
     inkscape:pageopacity="0.0"
     inkscape:pagecheckerboard="0"
     inkscape:deskcolor="#d1d1d1"
     inkscape:document-units="mm"
     showgrid="false"
     inkscape:lockguides="true"
     inkscape:zoom="1.4912879"
     inkscape:cx="261.51892"
     inkscape:cy="195.13335"
     inkscape:window-width="1920"
     inkscape:window-height="1017"
     inkscape:window-x="1912"
     inkscape:window-y="-8"
     inkscape:window-maximized="1"
     inkscape:current-layer="layer1" />
  <defs
     id="defs1170">
    <clipPath
       clipPathUnits="userSpaceOnUse"
       id="clipPath1588">
      <g
         id="g1592"
         transform="matrix(3.7795276,0,0,3.7795276,801.33616,-426.57533)">
        <rect
           x="8.3777237"
           y="112.86472"
           width="150.01875"
           height="100.0125"
           id="rect1590"
           style="stroke-width:0.264583" />
      </g>
    </clipPath>
    <clipPath
       clipPathUnits="userSpaceOnUse"
       id="clipPath1594">
      <g
         id="g1598"
         transform="matrix(3.7795276,0,0,3.7795276,801.33616,-426.57533)">
        <rect
           x="8.3777237"
           y="112.86472"
           width="150.01875"
           height="100.0125"
           id="rect1596"
           style="stroke-width:0.264583" />
      </g>
    </clipPath>
    <clipPath
       clipPathUnits="userSpaceOnUse"
       id="clipPath1600">
      <g
         id="g1604"
         transform="matrix(3.7795276,0,0,3.7795276,801.33616,-426.57533)">
        <rect
           x="8.3777237"
           y="112.86472"
           width="150.01875"
           height="100.0125"
           id="rect1602"
           style="stroke-width:0.264583" />
      </g>
    </clipPath>
    <clipPath
       clipPathUnits="userSpaceOnUse"
       id="clipPath1606">
      <g
         id="g1610"
         transform="matrix(3.7795276,0,0,3.7795276,801.33616,-426.57533)">
        <rect
           x="8.3777237"
           y="112.86472"
           width="150.01875"
           height="100.0125"
           id="rect1608"
           style="stroke-width:0.264583" />
      </g>
    </clipPath>
    <clipPath
       clipPathUnits="userSpaceOnUse"
       id="clipPath1612">
      <g
         id="g1616"
         transform="matrix(3.7795276,0,0,3.7795276,801.33616,-426.57533)">
        <rect
           x="8.3777237"
           y="112.86472"
           width="150.01875"
           height="100.0125"
           id="rect1614"
           style="stroke-width:0.264583" />
      </g>
    </clipPath>
    <clipPath
       clipPathUnits="userSpaceOnUse"
       id="clipPath1618">
      <g
         id="g1622"
         transform="matrix(3.7795276,0,0,3.7795276,801.33616,-426.57533)">
        <rect
           x="8.3777237"
           y="112.86472"
           width="150.01875"
           height="100.0125"
           id="rect1620"
           style="stroke-width:0.264583" />
      </g>
    </clipPath>
    <clipPath
       clipPathUnits="userSpaceOnUse"
       id="clipPath1624">
      <g
         id="g1628"
         transform="matrix(3.7795276,0,0,3.7795276,801.33616,-426.57533)">
        <rect
           x="8.3777237"
           y="112.86472"
           width="150.01875"
           height="100.0125"
           id="rect1626"
           style="stroke-width:0.264583" />
      </g>
    </clipPath>
    <clipPath
       clipPathUnits="userSpaceOnUse"
       id="clipPath1630">
      <g
         id="g1634"
         transform="matrix(3.7795276,0,0,3.7795276,801.33616,-426.57533)">
        <rect
           x="8.3777237"
           y="112.86472"
           width="150.01875"
           height="100.0125"
           id="rect1632"
           style="stroke-width:0.264583" />
      </g>
    </clipPath>
    <clipPath
       clipPathUnits="userSpaceOnUse"
       id="clipPath1636">
      <g
         id="g1640"
         transform="matrix(3.7795276,0,0,3.7795276,801.33616,-426.57533)">
        <rect
           x="8.3777237"
           y="112.86472"
           width="150.01875"
           height="100.0125"
           id="rect1638"
           style="stroke-width:0.264583" />
      </g>
    </clipPath>
    <clipPath
       clipPathUnits="userSpaceOnUse"
       id="clipPath1642">
      <g
         id="g1646"
         transform="matrix(3.7795276,0,0,3.7795276,801.33616,-426.57533)">
        <rect
           x="8.3777237"
           y="112.86472"
           width="150.01875"
           height="100.0125"
           id="rect1644"
           style="stroke-width:0.264583" />
      </g>
    </clipPath>
    <clipPath
       clipPathUnits="userSpaceOnUse"
       id="clipPath1648">
      <g
         id="g1652"
         transform="matrix(3.7795276,0,0,3.7795276,801.33616,-426.57533)">
        <rect
           x="8.3777237"
           y="112.86472"
           width="150.01875"
           height="100.0125"
           id="rect1650"
           style="stroke-width:0.264583" />
      </g>
    </clipPath>
    <clipPath
       clipPathUnits="userSpaceOnUse"
       id="clipPath1654">
      <g
         id="g1658"
         transform="matrix(3.7795276,0,0,3.7795276,801.33616,-426.57533)">
        <rect
           x="8.3777237"
           y="112.86472"
           width="150.01875"
           height="100.0125"
           id="rect1656"
           style="stroke-width:0.264583" />
      </g>
    </clipPath>
    <clipPath
       clipPathUnits="userSpaceOnUse"
       id="clipPath1660">
      <g
         id="g1664">
        <rect
           x="8.3777237"
           y="112.86472"
           width="150.01875"
           height="100.0125"
           id="rect1662"
           style="stroke-width:0.264583" />
      </g>
    </clipPath>
    <clipPath
       id="clipPath4171">
      <path
         clip-rule="nonzero"
         d="m 240,14 h 5 v 7.710938 h -5 z m 0,0"
         id="path8986" />
    </clipPath>
  </defs>
  <g
     inkscape:label="Camada 1"
     inkscape:groupmode="layer"
     id="layer1"
     transform="translate(-188.9816,-124.53178)">
    <g
       inkscape:label=""
       transform="translate(265.10348,215.76781)"
       id="g1891">
      <g
         fill="#000000"
         fill-opacity="1"
         id="g19"
         transform="matrix(0.352778,0,0,0.352778,-81.4311,-4.06938)">
        <g
           id="use17"
           transform="translate(230.34399,19.129)">
          <path
             d="m 8.15625,-7.03125 c -0.546875,0.109375 -0.75,0.515625 -0.75,0.84375 0,0.421875 0.328125,0.5625 0.5625,0.5625 0.515625,0 0.875,-0.453125 0.875,-0.921875 0,-0.71875 -0.8125,-1.046875 -1.546875,-1.046875 -1.046875,0 -1.625,1.03125 -1.78125,1.359375 -0.40625,-1.296875 -1.46875,-1.359375 -1.78125,-1.359375 -1.75,0 -2.6875,2.25 -2.6875,2.640625 0,0.0625 0.078125,0.15625 0.1875,0.15625 0.140625,0 0.171875,-0.109375 0.21875,-0.171875 C 2.03125,-6.890625 3.1875,-7.25 3.6875,-7.25 c 0.765625,0 0.921875,0.71875 0.921875,1.140625 0,0.375 -0.09375,0.765625 -0.296875,1.59375 L 3.71875,-2.15625 c -0.25,1.03125 -0.75,1.984375 -1.671875,1.984375 -0.078125,0 -0.515625,0 -0.875,-0.21875 0.625,-0.125 0.75,-0.640625 0.75,-0.84375 0,-0.34375 -0.25,-0.5625 -0.578125,-0.5625 -0.40625,0 -0.859375,0.375 -0.859375,0.921875 0,0.71875 0.8125,1.046875 1.546875,1.046875 0.828125,0 1.40625,-0.65625 1.78125,-1.359375 0.265625,1.015625 1.125,1.359375 1.765625,1.359375 1.75,0 2.6875,-2.25 2.6875,-2.640625 0,-0.078125 -0.0625,-0.15625 -0.171875,-0.15625 -0.15625,0 -0.171875,0.09375 -0.21875,0.234375 -0.46875,1.515625 -1.46875,2.21875 -2.25,2.21875 -0.59375,0 -0.921875,-0.453125 -0.921875,-1.15625 0,-0.375 0.0625,-0.65625 0.34375,-1.78125 l 0.59375,-2.34375 C 5.90625,-6.484375 6.484375,-7.25 7.28125,-7.25 c 0.03125,0 0.515625,0 0.875,0.21875 z m 0,0"
             id="path31" />
        </g>
      </g>
      <g
         clip-path="url(#clipPath4171)"
         id="g25"
         transform="matrix(0.352778,0,0,0.352778,-81.4311,-4.06938)">
        <g
           fill="#000000"
           fill-opacity="1"
           id="g23">
          <g
             id="use21"
             transform="translate(239.923,21.711)">
            <path
               d="m 1.390625,-0.84375 1.15625,-1.125 c 1.703125,-1.5 2.34375,-2.09375 2.34375,-3.171875 0,-1.25 -0.96875,-2.125 -2.3125,-2.125 -1.21875,0 -2.03125,1 -2.03125,1.96875 0,0.625 0.546875,0.625 0.578125,0.625 0.1875,0 0.5625,-0.140625 0.5625,-0.578125 0,-0.296875 -0.1875,-0.578125 -0.578125,-0.578125 -0.078125,0 -0.109375,0 -0.140625,0.015625 0.25,-0.703125 0.84375,-1.109375 1.46875,-1.109375 1,0 1.46875,0.875 1.46875,1.78125 0,0.859375 -0.546875,1.734375 -1.140625,2.40625 l -2.09375,2.328125 c -0.125,0.125 -0.125,0.140625 -0.125,0.40625 H 4.59375 L 4.890625,-1.890625 H 4.625 C 4.5625,-1.578125 4.5,-1.09375 4.390625,-0.921875 4.3125,-0.84375 3.59375,-0.84375 3.34375,-0.84375 Z m 0,0"
               id="path35" />
          </g>
        </g>
      </g>
    </g>
    <g
       id="g481"
       transform="matrix(0.26458333,0,0,0.26458333,-55.324422,116.75964)">
      <path
         d="m 995.5,34.5001 h 450 m -450,32 h 450 m -450,33 h 450 M 995.5,132.5 h 450 m -450,33 h 450 m -450,33 h 450 m -450,33 h 450 m -450,33 h 450 m -450,33 h 450 m -450,33 h 450"
         stroke="#d9d9d9"
         stroke-linejoin="round"
         stroke-miterlimit="10"
         fill="none"
         id="path479" />
    </g>
    <g
       id="g485"
       transform="matrix(0.26458333,0,0,0.26458333,-55.324422,116.75964)">
      <path
         d="M 1070.5,34.5001 V 363.5 m 75,-328.9999 V 363.5 m 75,-328.9999 V 363.5 m 75,-328.9999 V 363.5 m 75,-328.9999 V 363.5 m 75,-328.9999 V 363.5"
         stroke="#d9d9d9"
         stroke-linejoin="round"
         stroke-miterlimit="10"
         fill="none"
         id="path483" />
    </g>
    <g
       id="g489"
       transform="matrix(0.26458333,0,0,0.26458333,-55.324422,116.75964)">
      <rect
         x="995.5"
         y="34.500099"
         width="450"
         height="329"
         stroke="#000000"
         stroke-linejoin="round"
         stroke-miterlimit="10"
         fill="none"
         id="rect487" />
    </g>
    <g
       id="g493"
       transform="matrix(0.26458333,0,0,0.26458333,-55.324422,116.75964)">
      <path
         d="M 995.5,34.5001 V 363.5"
         stroke="#000000"
         stroke-linejoin="round"
         stroke-miterlimit="10"
         fill="none"
         fill-rule="evenodd"
         id="path491" />
    </g>
    <g
       id="g497"
       transform="matrix(0.26458333,0,0,0.26458333,-55.324422,116.75964)">
      <path
         d="m 995.5,34.5001 h 3 m -3,6 h 3 m -3,7 h 3 m -3,6 h 3 m -3,7 h 3 m -3,6 h 3 m -3,7 h 3 m -3,7 h 3 m -3,6 h 3 m -3,7 h 3 m -3,6 h 3 m -3,6.9999 h 3 m -3,7 h 3 m -3,6 h 3 m -3,7 h 3 m -3,6 h 3 m -3,7 h 3 m -3,6 h 3 m -3,7 h 3 m -3,7 h 3 m -3,6 h 3 m -3,7 h 3 m -3,6 h 3 m -3,7 h 3 m -3,7 h 3 m -3,6 h 3 m -3,7 h 3 m -3,6 h 3 m -3,7 h 3 m -3,7 h 3 m -3,6 h 3 m -3,7 h 3 m -3,6 h 3 m -3,7 h 3 m -3,6 h 3 m -3,7 h 3 m -3,7 h 3 m -3,6 h 3 m -3,7 h 3 m -3,6 h 3 m -3,7 h 3 m -3,7 h 3 m -3,6 h 3 m -3,7 h 3 m -3,6 h 3 m -3,7 h 3 m -3,6 h 3 m -3,7 h 3 m -3,7 h 3 m -3,6 h 3 m -3,7 h 3 m -7,-328.9999 h 7 m -7,32 h 7 m -7,33 h 7 m -7,32.9999 h 7 m -7,33 h 7 m -7,33 h 7 m -7,33 h 7 m -7,33 h 7 m -7,33 h 7 m -7,33 h 7 m -7,33 h 7"
         stroke="#000000"
         stroke-linejoin="round"
         stroke-miterlimit="10"
         fill="none"
         id="path495" />
    </g>
    <g
       id="g501"
       transform="matrix(0.26458333,0,0,0.26458333,-55.324422,116.75964)">
      <path
         d="m 995.5,363.5 h 450"
         stroke="#000000"
         stroke-linejoin="round"
         stroke-miterlimit="10"
         fill="none"
         fill-rule="evenodd"
         id="path499" />
    </g>
    <g
       id="g505"
       transform="matrix(0.26458333,0,0,0.26458333,-55.324422,116.75964)">
      <path
         d="m 995.5,363.5 v 3 m 15,-3 v 3 m 15,-3 v 3 m 15,-3 v 3 m 15,-3 v 3 m 15,-3 v 3 m 15,-3 v 3 m 15,-3 v 3 m 15,-3 v 3 m 15,-3 v 3 m 15,-3 v 3 m 15,-3 v 3 m 15,-3 v 3 m 15,-3 v 3 m 15,-3 v 3 m 15,-3 v 3 m 15,-3 v 3 m 15,-3 v 3 m 15,-3 v 3 m 15,-3 v 3 m 15,-3 v 3 m 15,-3 v 3 m 15,-3 v 3 m 15,-3 v 3 m 15,-3 v 3 m 15,-3 v 3 m 15,-3 v 3 m 15,-3 v 3 m 15,-3 v 3 m 15,-3 v 3 m 15,-3 v 3 m -450,-7 v 7 m 75,-7 v 7 m 75,-7 v 7 m 75,-7 v 7 m 75,-7 v 7 m 75,-7 v 7 m 75,-7 v 7"
         stroke="#000000"
         stroke-linejoin="round"
         stroke-miterlimit="10"
         fill="none"
         id="path503" />
    </g>
    <g
       id="g509"
       transform="matrix(0.26458333,0,0,0.26458333,-55.324422,116.75964)">
      <path
         d="m 995,363 h 8 l 7,-1 8,-2 7,-3 8,-2 7,-3 8,-3 7,-4 8,-3 7,-3 8,-3 7,-3 8,-4 7,-3 8,-3 7,-3 8,-3 7,-3 8,-3 7,-4 8,-3 7,-3 8,-3 7,-3 8,-4 7,-3 8,-3 7,-4 8,-3 7,-4 8,-3 7,-4 8,-4 7,-3 8,-4 7,-4 8,-4 7,-4 8,-4 7,-4 8,-4 7,-5 8,-4 7,-5 8,-5 7,-5 8,-5 7,-6 8,-7 7,-7 8,-8 7,-9 8,-10 7,-12 8,-12 7,-13 8,-15 7,-14 8,-15 7,-11"
         stroke="#ed7d31"
         stroke-width="2"
         stroke-linecap="round"
         stroke-linejoin="round"
         stroke-miterlimit="10"
         fill="none"
         id="path507" />
    </g>
    <g
       id="g513"
       transform="matrix(0.26458333,0,0,0.26458333,-55.324422,116.75964)">
      <path
         d="m 995,363 h 7 l 6,-1 6,-2 6,-2 7,-2 6,-3 6,-3 6,-3 7,-3 6,-3 6,-3 6,-3 7,-2 6,-3 6,-3 6,-3 7,-3 6,-3 6,-3 6,-2 7,-3 6,-3 6,-3 6,-3 7,-2 6,-3 6,-3 6,-3 7,-3 6,-3 6,-3 6,-3 7,-3 6,-3 6,-3 6,-3 7,-3 6,-3 6,-3 6,-4 7,-3 6,-3 6,-4 6,-3 7,-3 6,-4 6,-3 6,-4 7,-4 6,-3 6,-4 6,-4 7,-4 6,-4 6,-5 6,-4 7,-5 6,-6 6,-5 6,-7 7,-6 6,-8 6,-8 6,-8 7,-10 6,-10 6,-10 6,-11 7,-11 6,-10 6,-9 6,-6"
         stroke="#4472c4"
         stroke-width="2"
         stroke-linecap="round"
         stroke-linejoin="round"
         stroke-miterlimit="10"
         fill="none"
         id="path511" />
    </g>
    <g
       id="g517"
       transform="matrix(0.26458333,0,0,0.26458333,-55.324422,116.75964)">
      <text
         font-family="Arial, Arial_MSFontService, sans-serif"
         font-weight="400"
         font-size="12px"
         transform="translate(939,38)"
         id="text515">-2.0E-05</text>
    </g>
    <g
       id="g521"
       transform="matrix(0.26458333,0,0,0.26458333,-55.324422,116.75964)">
      <text
         font-family="Arial, Arial_MSFontService, sans-serif"
         font-weight="400"
         font-size="12px"
         transform="translate(939,71)"
         id="text519">-1.8E-05</text>
    </g>
    <g
       id="g525"
       transform="matrix(0.26458333,0,0,0.26458333,-55.324422,116.75964)">
      <text
         font-family="Arial, Arial_MSFontService, sans-serif"
         font-weight="400"
         font-size="12px"
         transform="translate(939,104)"
         id="text523">-1.6E-05</text>
    </g>
    <g
       id="g529"
       transform="matrix(0.26458333,0,0,0.26458333,-55.324422,116.75964)">
      <text
         font-family="Arial, Arial_MSFontService, sans-serif"
         font-weight="400"
         font-size="12px"
         transform="translate(939,137)"
         id="text527">-1.4E-05</text>
    </g>
    <g
       id="g533"
       transform="matrix(0.26458333,0,0,0.26458333,-55.324422,116.75964)">
      <text
         font-family="Arial, Arial_MSFontService, sans-serif"
         font-weight="400"
         font-size="12px"
         transform="translate(939,170)"
         id="text531">-1.2E-05</text>
    </g>
    <g
       id="g537"
       transform="matrix(0.26458333,0,0,0.26458333,-55.324422,116.75964)">
      <text
         font-family="Arial, Arial_MSFontService, sans-serif"
         font-weight="400"
         font-size="12px"
         transform="translate(939,203)"
         id="text535">-1.0E-05</text>
    </g>
    <g
       id="g541"
       transform="matrix(0.26458333,0,0,0.26458333,-55.324422,116.75964)">
      <text
         font-family="Arial, Arial_MSFontService, sans-serif"
         font-weight="400"
         font-size="12px"
         transform="translate(939,236)"
         id="text539">-8.0E-06</text>
    </g>
    <g
       id="g545"
       transform="matrix(0.26458333,0,0,0.26458333,-55.324422,116.75964)">
      <text
         font-family="Arial, Arial_MSFontService, sans-serif"
         font-weight="400"
         font-size="12px"
         transform="translate(939,268)"
         id="text543">-6.0E-06</text>
    </g>
    <g
       id="g549"
       transform="matrix(0.26458333,0,0,0.26458333,-55.324422,116.75964)">
      <text
         font-family="Arial, Arial_MSFontService, sans-serif"
         font-weight="400"
         font-size="12px"
         transform="translate(939,301)"
         id="text547">-4.0E-06</text>
    </g>
    <g
       id="g553"
       transform="matrix(0.26458333,0,0,0.26458333,-55.324422,116.75964)">
      <text
         font-family="Arial, Arial_MSFontService, sans-serif"
         font-weight="400"
         font-size="12px"
         transform="translate(939,334)"
         id="text551">-2.0E-06</text>
    </g>
    <g
       id="g557"
       transform="matrix(0.26458333,0,0,0.26458333,-55.324422,116.75964)">
      <text
         font-family="Arial, Arial_MSFontService, sans-serif"
         font-weight="400"
         font-size="12px"
         transform="translate(939.98,367)"
         id="text555">0.0E+00</text>
    </g>
    <g
       id="g561"
       transform="matrix(0.26458333,0,0,0.26458333,-55.324422,116.75964)">
      <text
         font-family="Arial, Arial_MSFontService, sans-serif"
         font-weight="400"
         font-size="12px"
         transform="translate(992.004,353)"
         id="text559">0</text>
    </g>
    <g
       id="g565"
       transform="matrix(0.26458333,0,0,0.26458333,-55.324422,116.75964)">
      <text
         font-family="Arial, Arial_MSFontService, sans-serif"
         font-weight="400"
         font-size="12px"
         transform="translate(1063.65,353)"
         id="text563">50</text>
    </g>
    <g
       id="g569"
       transform="matrix(0.26458333,0,0,0.26458333,-55.324422,116.75964)">
      <text
         font-family="Arial, Arial_MSFontService, sans-serif"
         font-weight="400"
         font-size="12px"
         transform="translate(1135.3,353)"
         id="text567">100</text>
    </g>
    <g
       id="g573"
       transform="matrix(0.26458333,0,0,0.26458333,-55.324422,116.75964)">
      <text
         font-family="Arial, Arial_MSFontService, sans-serif"
         font-weight="400"
         font-size="12px"
         transform="translate(1210.29,353)"
         id="text571">150</text>
    </g>
    <g
       id="g577"
       transform="matrix(0.26458333,0,0,0.26458333,-55.324422,116.75964)">
      <text
         font-family="Arial, Arial_MSFontService, sans-serif"
         font-weight="400"
         font-size="12px"
         transform="translate(1285.27,353)"
         id="text575">200</text>
    </g>
    <g
       id="g581"
       transform="matrix(0.26458333,0,0,0.26458333,-55.324422,116.75964)">
      <text
         font-family="Arial, Arial_MSFontService, sans-serif"
         font-weight="400"
         font-size="12px"
         transform="translate(1360.26,353)"
         id="text579">250</text>
    </g>
    <g
       id="g585"
       transform="matrix(0.26458333,0,0,0.26458333,-55.324422,116.75964)">
      <text
         font-family="Arial, Arial_MSFontService, sans-serif"
         font-weight="400"
         font-size="12px"
         transform="translate(1435.24,353)"
         id="text583">300</text>
    </g>
    <g
       id="g589"
       transform="matrix(0.26458333,0,0,0.26458333,-55.324422,116.75964)">
      <text
         font-family="Arial, Arial_MSFontService, sans-serif"
         font-weight="400"
         font-size="13px"
         transform="rotate(-90,595.8335,-336.8335)"
         id="text587">Deslocamento radial</text>
    </g>
    <g
       id="g597"
       transform="matrix(0.26458333,0,0,0.26458333,-55.324422,116.75964)">
      <rect
         x="1014.5"
         y="73.500099"
         width="92.999901"
         height="42"
         stroke="#000000"
         stroke-linejoin="round"
         stroke-miterlimit="10"
         fill="#ffffff"
         id="rect595" />
    </g>
    <g
       id="g601"
       transform="matrix(0.26458333,0,0,0.26458333,-55.324422,116.75964)">
      <path
         d="m 1020,84 26,1e-4"
         stroke="#ed7d31"
         stroke-width="2"
         stroke-linecap="round"
         stroke-linejoin="round"
         stroke-miterlimit="10"
         fill="none"
         fill-rule="evenodd"
         id="path599" />
    </g>
    <g
       id="g605"
       transform="matrix(0.26458333,0,0,0.26458333,-55.324422,116.75964)">
      <text
         font-family="Arial, Arial_MSFontService, sans-serif"
         font-weight="400"
         font-size="12px"
         transform="translate(1048.67,88)"
         id="text603">Calculado</text>
    </g>
    <g
       id="g609"
       transform="matrix(0.26458333,0,0,0.26458333,-55.324422,116.75964)">
      <path
         d="m 1020,105 h 26"
         stroke="#4472c4"
         stroke-width="2"
         stroke-linecap="round"
         stroke-linejoin="round"
         stroke-miterlimit="10"
         fill="none"
         fill-rule="evenodd"
         id="path607" />
    </g>
    <g
       id="g613"
       transform="matrix(0.26458333,0,0,0.26458333,-55.324422,116.75964)">
      <text
         font-family="Arial, Arial_MSFontService, sans-serif"
         font-weight="400"
         font-size="12px"
         transform="translate(1048.67,109)"
         id="text611">ANSYS</text>
    </g>
  </g>
</svg>
