<?xml version="1.0" encoding="UTF-8" standalone="no"?>
<!-- Created with Inkscape (http://www.inkscape.org/) -->

<svg
   width="140.57999mm"
   height="95.527168mm"
   viewBox="0 0 140.57998 95.527171"
   version="1.1"
   id="svg1173"
   sodipodi:docname="deslocamento1.svg"
   inkscape:version="1.2.1 (9c6d41e410, 2022-07-14)"
   xmlns:inkscape="http://www.inkscape.org/namespaces/inkscape"
   xmlns:sodipodi="http://sodipodi.sourceforge.net/DTD/sodipodi-0.dtd"
   xmlns="http://www.w3.org/2000/svg"
   xmlns:svg="http://www.w3.org/2000/svg">
  <sodipodi:namedview
     id="namedview1175"
     pagecolor="#ffffff"
     bordercolor="#000000"
     borderopacity="0.25"
     inkscape:showpageshadow="2"
     inkscape:pageopacity="0.0"
     inkscape:pagecheckerboard="0"
     inkscape:deskcolor="#d1d1d1"
     inkscape:document-units="mm"
     showgrid="false"
     inkscape:lockguides="true"
     inkscape:zoom="1.4912879"
     inkscape:cx="219.94412"
     inkscape:cy="220.61468"
     inkscape:window-width="1920"
     inkscape:window-height="1017"
     inkscape:window-x="1912"
     inkscape:window-y="-8"
     inkscape:window-maximized="1"
     inkscape:current-layer="layer1" />
  <defs
     id="defs1170">
    <clipPath
       clipPathUnits="userSpaceOnUse"
       id="clipPath1588">
      <g
         id="g1592"
         transform="matrix(3.7795276,0,0,3.7795276,801.33616,-426.57533)">
        <rect
           x="8.3777237"
           y="112.86472"
           width="150.01875"
           height="100.0125"
           id="rect1590"
           style="stroke-width:0.264583" />
      </g>
    </clipPath>
    <clipPath
       clipPathUnits="userSpaceOnUse"
       id="clipPath1594">
      <g
         id="g1598"
         transform="matrix(3.7795276,0,0,3.7795276,801.33616,-426.57533)">
        <rect
           x="8.3777237"
           y="112.86472"
           width="150.01875"
           height="100.0125"
           id="rect1596"
           style="stroke-width:0.264583" />
      </g>
    </clipPath>
    <clipPath
       clipPathUnits="userSpaceOnUse"
       id="clipPath1600">
      <g
         id="g1604"
         transform="matrix(3.7795276,0,0,3.7795276,801.33616,-426.57533)">
        <rect
           x="8.3777237"
           y="112.86472"
           width="150.01875"
           height="100.0125"
           id="rect1602"
           style="stroke-width:0.264583" />
      </g>
    </clipPath>
    <clipPath
       clipPathUnits="userSpaceOnUse"
       id="clipPath1606">
      <g
         id="g1610"
         transform="matrix(3.7795276,0,0,3.7795276,801.33616,-426.57533)">
        <rect
           x="8.3777237"
           y="112.86472"
           width="150.01875"
           height="100.0125"
           id="rect1608"
           style="stroke-width:0.264583" />
      </g>
    </clipPath>
    <clipPath
       clipPathUnits="userSpaceOnUse"
       id="clipPath1612">
      <g
         id="g1616"
         transform="matrix(3.7795276,0,0,3.7795276,801.33616,-426.57533)">
        <rect
           x="8.3777237"
           y="112.86472"
           width="150.01875"
           height="100.0125"
           id="rect1614"
           style="stroke-width:0.264583" />
      </g>
    </clipPath>
    <clipPath
       clipPathUnits="userSpaceOnUse"
       id="clipPath1618">
      <g
         id="g1622"
         transform="matrix(3.7795276,0,0,3.7795276,801.33616,-426.57533)">
        <rect
           x="8.3777237"
           y="112.86472"
           width="150.01875"
           height="100.0125"
           id="rect1620"
           style="stroke-width:0.264583" />
      </g>
    </clipPath>
    <clipPath
       clipPathUnits="userSpaceOnUse"
       id="clipPath1624">
      <g
         id="g1628"
         transform="matrix(3.7795276,0,0,3.7795276,801.33616,-426.57533)">
        <rect
           x="8.3777237"
           y="112.86472"
           width="150.01875"
           height="100.0125"
           id="rect1626"
           style="stroke-width:0.264583" />
      </g>
    </clipPath>
    <clipPath
       clipPathUnits="userSpaceOnUse"
       id="clipPath1630">
      <g
         id="g1634"
         transform="matrix(3.7795276,0,0,3.7795276,801.33616,-426.57533)">
        <rect
           x="8.3777237"
           y="112.86472"
           width="150.01875"
           height="100.0125"
           id="rect1632"
           style="stroke-width:0.264583" />
      </g>
    </clipPath>
    <clipPath
       clipPathUnits="userSpaceOnUse"
       id="clipPath1636">
      <g
         id="g1640"
         transform="matrix(3.7795276,0,0,3.7795276,801.33616,-426.57533)">
        <rect
           x="8.3777237"
           y="112.86472"
           width="150.01875"
           height="100.0125"
           id="rect1638"
           style="stroke-width:0.264583" />
      </g>
    </clipPath>
    <clipPath
       clipPathUnits="userSpaceOnUse"
       id="clipPath1642">
      <g
         id="g1646"
         transform="matrix(3.7795276,0,0,3.7795276,801.33616,-426.57533)">
        <rect
           x="8.3777237"
           y="112.86472"
           width="150.01875"
           height="100.0125"
           id="rect1644"
           style="stroke-width:0.264583" />
      </g>
    </clipPath>
    <clipPath
       clipPathUnits="userSpaceOnUse"
       id="clipPath1648">
      <g
         id="g1652"
         transform="matrix(3.7795276,0,0,3.7795276,801.33616,-426.57533)">
        <rect
           x="8.3777237"
           y="112.86472"
           width="150.01875"
           height="100.0125"
           id="rect1650"
           style="stroke-width:0.264583" />
      </g>
    </clipPath>
    <clipPath
       clipPathUnits="userSpaceOnUse"
       id="clipPath1654">
      <g
         id="g1658"
         transform="matrix(3.7795276,0,0,3.7795276,801.33616,-426.57533)">
        <rect
           x="8.3777237"
           y="112.86472"
           width="150.01875"
           height="100.0125"
           id="rect1656"
           style="stroke-width:0.264583" />
      </g>
    </clipPath>
    <clipPath
       clipPathUnits="userSpaceOnUse"
       id="clipPath1660">
      <g
         id="g1664">
        <rect
           x="8.3777237"
           y="112.86472"
           width="150.01875"
           height="100.0125"
           id="rect1662"
           style="stroke-width:0.264583" />
      </g>
    </clipPath>
    <clipPath
       id="clipPath4171">
      <path
         clip-rule="nonzero"
         d="m 240,14 h 5 v 7.710938 h -5 z m 0,0"
         id="path8986" />
    </clipPath>
  </defs>
  <g
     inkscape:label="Camada 1"
     inkscape:groupmode="layer"
     id="layer1"
     transform="translate(-13.764994,-120.63686)">
    <g
       id="g1303"
       transform="matrix(0.26458333,0,0,0.26458333,-212.02019,112.86472)"
       clip-path="url(#clipPath1654)">
      <path
         d="m 918.5,34.5001 h 457 m -457,32 h 457 m -457,33 h 457 M 918.5,132.5 h 457 m -457,33 h 457 m -457,33 h 457 m -457,33 h 457 m -457,33 h 457 m -457,33 h 457 m -457,33 h 457"
         stroke="#d9d9d9"
         stroke-linejoin="round"
         stroke-miterlimit="10"
         fill="none"
         id="path1301" />
    </g>
    <g
       id="g1307"
       transform="matrix(0.26458333,0,0,0.26458333,-212.02019,112.86472)"
       clip-path="url(#clipPath1648)">
      <path
         d="M 994.5,34.5001 V 363.5 m 76,-328.9999 V 363.5 m 76,-328.9999 V 363.5 m 77,-328.9999 V 363.5 m 76,-328.9999 V 363.5 m 76,-328.9999 V 363.5"
         stroke="#d9d9d9"
         stroke-linejoin="round"
         stroke-miterlimit="10"
         fill="none"
         id="path1305" />
    </g>
    <g
       id="g1311"
       transform="matrix(0.26458333,0,0,0.26458333,-212.02019,112.86472)"
       clip-path="url(#clipPath1642)">
      <rect
         x="918.5"
         y="34.500099"
         width="457"
         height="329"
         stroke="#000000"
         stroke-linejoin="round"
         stroke-miterlimit="10"
         fill="none"
         id="rect1309" />
    </g>
    <g
       id="g1315"
       transform="matrix(0.26458333,0,0,0.26458333,-212.02019,112.86472)"
       clip-path="url(#clipPath1636)">
      <path
         d="M 918.5,34.5001 V 363.5"
         stroke="#000000"
         stroke-linejoin="round"
         stroke-miterlimit="10"
         fill="none"
         fill-rule="evenodd"
         id="path1313" />
    </g>
    <g
       id="g1319"
       transform="matrix(0.26458333,0,0,0.26458333,-212.02019,112.86472)"
       clip-path="url(#clipPath1630)">
      <path
         d="m 918.5,34.5001 h 3 m -3,6 h 3 m -3,7 h 3 m -3,6 h 3 m -3,7 h 3 m -3,6 h 3 m -3,7 h 3 m -3,7 h 3 m -3,6 h 3 m -3,7 h 3 m -3,6 h 3 m -3,6.9999 h 3 m -3,7 h 3 m -3,6 h 3 m -3,7 h 3 m -3,6 h 3 m -3,7 h 3 m -3,6 h 3 m -3,7 h 3 m -3,7 h 3 m -3,6 h 3 m -3,7 h 3 m -3,6 h 3 m -3,7 h 3 m -3,7 h 3 m -3,6 h 3 m -3,7 h 3 m -3,6 h 3 m -3,7 h 3 m -3,7 h 3 m -3,6 h 3 m -3,7 h 3 m -3,6 h 3 m -3,7 h 3 m -3,6 h 3 m -3,7 h 3 m -3,7 h 3 m -3,6 h 3 m -3,7 h 3 m -3,6 h 3 m -3,7 h 3 m -3,7 h 3 m -3,6 h 3 m -3,7 h 3 m -3,6 h 3 m -3,7 h 3 m -3,6 h 3 m -3,7 h 3 m -3,7 h 3 m -3,6 h 3 m -3,7 h 3 m -6,-328.9999 h 7 m -7,32 h 7 m -7,33 h 7 m -7,32.9999 h 7 m -7,33 h 7 m -7,33 h 7 m -7,33 h 7 m -7,33 h 7 m -7,33 h 7 m -7,33 h 7 m -7,33 h 7"
         stroke="#000000"
         stroke-linejoin="round"
         stroke-miterlimit="10"
         fill="none"
         id="path1317" />
    </g>
    <g
       id="g1323"
       transform="matrix(0.26458333,0,0,0.26458333,-212.02019,112.86472)"
       clip-path="url(#clipPath1624)">
      <path
         d="m 918.5,363.5 h 457"
         stroke="#000000"
         stroke-linejoin="round"
         stroke-miterlimit="10"
         fill="none"
         fill-rule="evenodd"
         id="path1321" />
    </g>
    <g
       id="g1327"
       transform="matrix(0.26458333,0,0,0.26458333,-212.02019,112.86472)"
       clip-path="url(#clipPath1618)">
      <path
         d="m 918.5,363.5 v 3 m 15,-3 v 3 m 16,-3 v 3 m 15,-3 v 3 m 15,-3 v 3 m 15,-3 v 3 m 15,-3 v 3 m 16,-3 v 3 m 15,-3 v 3 m 15,-3 v 3 m 15,-3 v 3 m 16,-3 v 3 m 15,-3 v 3 m 15,-3 v 3 m 15,-3 v 3 m 15,-3 v 3 m 16,-3 v 3 m 15,-3 v 3 m 15,-3 v 3 m 15,-3 v 3 m 16,-3 v 3 m 15,-3 v 3 m 15,-3 v 3 m 15,-3 v 3 m 15,-3 v 3 m 16,-3 v 3 m 15,-3 v 3 m 15,-3 v 3 m 15,-3 v 3 m 16,-3 v 3 m 15,-3 v 3 m -457,-7 v 7 m 76,-7 v 7 m 76,-7 v 7 m 76,-7 v 7 m 77,-7 v 7 m 76,-7 v 7 m 76,-7 v 7"
         stroke="#000000"
         stroke-linejoin="round"
         stroke-miterlimit="10"
         fill="none"
         id="path1325" />
    </g>
    <g
       id="g1331"
       transform="matrix(0.26458333,0,0,0.26458333,-212.02019,112.86472)"
       clip-path="url(#clipPath1612)">
      <path
         d="m 919,363 h 7 l 8,-1 7,-2 8,-3 8,-2 7,-3 8,-3 8,-4 7,-3 8,-3 7,-3 8,-3 8,-4 7,-3 8,-3 7,-3 8,-3 8,-3 7,-3 8,-4 7,-3 8,-3 8,-3 7,-3 8,-4 8,-3 7,-3 8,-4 7,-3 8,-4 8,-3 7,-4 8,-4 7,-3 8,-4 8,-4 7,-4 8,-4 7,-4 8,-4 8,-4 7,-5 8,-4 7,-5 8,-5 8,-5 7,-5 8,-6 8,-7 7,-7 8,-8 7,-9 8,-10 8,-12 7,-12 8,-13 7,-15 8,-14 8,-15 7,-11"
         stroke="#ed7d31"
         stroke-width="2"
         stroke-linecap="round"
         stroke-linejoin="round"
         stroke-miterlimit="10"
         fill="none"
         id="path1329" />
    </g>
    <g
       id="g1335"
       transform="matrix(0.26458333,0,0,0.26458333,-212.02019,112.86472)"
       clip-path="url(#clipPath1606)">
      <path
         d="m 919,363 h 6 l 6,-1 7,-2 6,-2 6,-2 7,-3 6,-3 6,-3 7,-3 6,-3 6,-3 7,-3 6,-2 6,-3 7,-3 6,-3 6,-3 7,-3 6,-3 6,-2 7,-3 6,-3 7,-3 6,-3 6,-2 7,-3 6,-3 6,-3 7,-3 6,-3 6,-3 7,-3 6,-3 6,-3 7,-3 6,-3 6,-3 7,-3 6,-3 6,-4 7,-3 6,-3 6,-4 7,-3 6,-3 6,-4 7,-3 6,-4 6,-4 7,-3 6,-4 6,-4 7,-4 6,-4 6,-5 7,-4 6,-5 6,-6 7,-5 6,-7 6,-6 7,-8 6,-8 7,-8 6,-10 6,-10 7,-10 6,-11 6,-11 7,-10 6,-9 6,-6"
         stroke="#4472c4"
         stroke-width="2"
         stroke-linecap="round"
         stroke-linejoin="round"
         stroke-miterlimit="10"
         fill="none"
         id="path1333" />
    </g>
    <g
       id="g1339"
       transform="matrix(0.26458333,0,0,0.26458333,-212.02019,112.86472)">
      <text
         font-family="Arial, Arial_MSFontService, sans-serif"
         font-weight="400"
         font-size="12px"
         transform="translate(869,38)"
         id="text1337">-2.E-05</text>
    </g>
    <g
       id="g1343"
       transform="matrix(0.26458333,0,0,0.26458333,-212.02019,112.86472)">
      <text
         font-family="Arial, Arial_MSFontService, sans-serif"
         font-weight="400"
         font-size="12px"
         transform="translate(869,71)"
         id="text1341">-2.E-05</text>
    </g>
    <g
       id="g1347"
       transform="matrix(0.26458333,0,0,0.26458333,-212.02019,112.86472)">
      <text
         font-family="Arial, Arial_MSFontService, sans-serif"
         font-weight="400"
         font-size="12px"
         transform="translate(869,104)"
         id="text1345">-2.E-05</text>
    </g>
    <g
       id="g1351"
       transform="matrix(0.26458333,0,0,0.26458333,-212.02019,112.86472)">
      <text
         font-family="Arial, Arial_MSFontService, sans-serif"
         font-weight="400"
         font-size="12px"
         transform="translate(869,137)"
         id="text1349">-1.E-05</text>
    </g>
    <g
       id="g1355"
       transform="matrix(0.26458333,0,0,0.26458333,-212.02019,112.86472)">
      <text
         font-family="Arial, Arial_MSFontService, sans-serif"
         font-weight="400"
         font-size="12px"
         transform="translate(869,170)"
         id="text1353">-1.E-05</text>
    </g>
    <g
       id="g1359"
       transform="matrix(0.26458333,0,0,0.26458333,-212.02019,112.86472)">
      <text
         font-family="Arial, Arial_MSFontService, sans-serif"
         font-weight="400"
         font-size="12px"
         transform="translate(869,203)"
         id="text1357">-1.E-05</text>
    </g>
    <g
       id="g1363"
       transform="matrix(0.26458333,0,0,0.26458333,-212.02019,112.86472)">
      <text
         font-family="Arial, Arial_MSFontService, sans-serif"
         font-weight="400"
         font-size="12px"
         transform="translate(869,236)"
         id="text1361">-8.E-06</text>
    </g>
    <g
       id="g1367"
       transform="matrix(0.26458333,0,0,0.26458333,-212.02019,112.86472)">
      <text
         font-family="Arial, Arial_MSFontService, sans-serif"
         font-weight="400"
         font-size="12px"
         transform="translate(869,268)"
         id="text1365">-6.E-06</text>
    </g>
    <g
       id="g1371"
       transform="matrix(0.26458333,0,0,0.26458333,-212.02019,112.86472)">
      <text
         font-family="Arial, Arial_MSFontService, sans-serif"
         font-weight="400"
         font-size="12px"
         transform="translate(869,301)"
         id="text1369">-4.E-06</text>
    </g>
    <g
       id="g1375"
       transform="matrix(0.26458333,0,0,0.26458333,-212.02019,112.86472)">
      <text
         font-family="Arial, Arial_MSFontService, sans-serif"
         font-weight="400"
         font-size="12px"
         transform="translate(869,334)"
         id="text1373">-2.E-06</text>
    </g>
    <g
       id="g1379"
       transform="matrix(0.26458333,0,0,0.26458333,-212.02019,112.86472)">
      <text
         font-family="Arial, Arial_MSFontService, sans-serif"
         font-weight="400"
         font-size="12px"
         transform="translate(869.98,367)"
         id="text1377">0.E+00</text>
    </g>
    <g
       id="g1383"
       transform="matrix(0.26458333,0,0,0.26458333,-212.02019,112.86472)">
      <text
         font-family="Arial, Arial_MSFontService, sans-serif"
         font-weight="400"
         font-size="12px"
         transform="translate(915.33,353)"
         id="text1381">0</text>
    </g>
    <g
       id="g1387"
       transform="matrix(0.26458333,0,0,0.26458333,-212.02019,112.86472)">
      <text
         font-family="Arial, Arial_MSFontService, sans-serif"
         font-weight="400"
         font-size="12px"
         transform="translate(988.091,353)"
         id="text1385">50</text>
    </g>
    <g
       id="g1391"
       transform="matrix(0.26458333,0,0,0.26458333,-212.02019,112.86472)">
      <text
         font-family="Arial, Arial_MSFontService, sans-serif"
         font-weight="400"
         font-size="12px"
         transform="translate(1060.85,353)"
         id="text1389">100</text>
    </g>
    <g
       id="g1395"
       transform="matrix(0.26458333,0,0,0.26458333,-212.02019,112.86472)">
      <text
         font-family="Arial, Arial_MSFontService, sans-serif"
         font-weight="400"
         font-size="12px"
         transform="translate(1136.95,353)"
         id="text1393">150</text>
    </g>
    <g
       id="g1399"
       transform="matrix(0.26458333,0,0,0.26458333,-212.02019,112.86472)">
      <text
         font-family="Arial, Arial_MSFontService, sans-serif"
         font-weight="400"
         font-size="12px"
         transform="translate(1213.05,353)"
         id="text1397">200</text>
    </g>
    <g
       id="g1403"
       transform="matrix(0.26458333,0,0,0.26458333,-212.02019,112.86472)">
      <text
         font-family="Arial, Arial_MSFontService, sans-serif"
         font-weight="400"
         font-size="12px"
         transform="translate(1289.14,353)"
         id="text1401">250</text>
    </g>
    <g
       id="g1407"
       transform="matrix(0.26458333,0,0,0.26458333,-212.02019,112.86472)">
      <text
         font-family="Arial, Arial_MSFontService, sans-serif"
         font-weight="400"
         font-size="12px"
         transform="translate(1365.24,353)"
         id="text1405">300</text>
    </g>
    <g
       id="g1411"
       transform="matrix(0.26458333,0,0,0.26458333,-212.02019,112.86472)">
      <text
         font-family="Arial, Arial_MSFontService, sans-serif"
         font-weight="400"
         font-size="13px"
         transform="rotate(-90,560.8335,-301.8335)"
         id="text1409">Deslocamento radial</text>
    </g>
    <g
       id="g1419"
       transform="matrix(0.26458333,0,0,0.26458333,-212.02019,112.86472)"
       clip-path="url(#clipPath1600)">
      <rect
         x="944.5"
         y="73.500099"
         width="92.999901"
         height="42"
         stroke="#000000"
         stroke-linejoin="round"
         stroke-miterlimit="10"
         fill="#ffffff"
         id="rect1417" />
    </g>
    <g
       id="g1423"
       transform="matrix(0.26458333,0,0,0.26458333,-212.02019,112.86472)"
       clip-path="url(#clipPath1594)">
      <path
         d="m 950,84 26,1e-4"
         stroke="#ed7d31"
         stroke-width="2"
         stroke-linecap="round"
         stroke-linejoin="round"
         stroke-miterlimit="10"
         fill="none"
         fill-rule="evenodd"
         id="path1421" />
    </g>
    <g
       id="g1427"
       transform="matrix(0.26458333,0,0,0.26458333,-212.02019,112.86472)">
      <text
         font-family="Arial, Arial_MSFontService, sans-serif"
         font-weight="400"
         font-size="12px"
         transform="translate(978.665,88)"
         id="text1425">Calculado</text>
    </g>
    <g
       id="g1431"
       transform="matrix(0.26458333,0,0,0.26458333,-212.02019,112.86472)"
       clip-path="url(#clipPath1588)">
      <path
         d="m 950,105 h 26"
         stroke="#4472c4"
         stroke-width="2"
         stroke-linecap="round"
         stroke-linejoin="round"
         stroke-miterlimit="10"
         fill="none"
         fill-rule="evenodd"
         id="path1429" />
    </g>
    <g
       id="g1435"
       transform="matrix(0.26458333,0,0,0.26458333,-212.02019,112.86472)">
      <text
         font-family="Arial, Arial_MSFontService, sans-serif"
         font-weight="400"
         font-size="12px"
         transform="translate(978.665,109)"
         id="text1433">ANSYS</text>
    </g>
    <g
       inkscape:label=""
       transform="translate(88.748639,212.57426)"
       id="g1891">
      <g
         fill="#000000"
         fill-opacity="1"
         id="g19"
         transform="matrix(0.352778,0,0,0.352778,-81.4311,-4.06938)">
        <g
           id="use17"
           transform="translate(230.34399,19.129)">
          <path
             d="m 8.15625,-7.03125 c -0.546875,0.109375 -0.75,0.515625 -0.75,0.84375 0,0.421875 0.328125,0.5625 0.5625,0.5625 0.515625,0 0.875,-0.453125 0.875,-0.921875 0,-0.71875 -0.8125,-1.046875 -1.546875,-1.046875 -1.046875,0 -1.625,1.03125 -1.78125,1.359375 -0.40625,-1.296875 -1.46875,-1.359375 -1.78125,-1.359375 -1.75,0 -2.6875,2.25 -2.6875,2.640625 0,0.0625 0.078125,0.15625 0.1875,0.15625 0.140625,0 0.171875,-0.109375 0.21875,-0.171875 C 2.03125,-6.890625 3.1875,-7.25 3.6875,-7.25 c 0.765625,0 0.921875,0.71875 0.921875,1.140625 0,0.375 -0.09375,0.765625 -0.296875,1.59375 L 3.71875,-2.15625 c -0.25,1.03125 -0.75,1.984375 -1.671875,1.984375 -0.078125,0 -0.515625,0 -0.875,-0.21875 0.625,-0.125 0.75,-0.640625 0.75,-0.84375 0,-0.34375 -0.25,-0.5625 -0.578125,-0.5625 -0.40625,0 -0.859375,0.375 -0.859375,0.921875 0,0.71875 0.8125,1.046875 1.546875,1.046875 0.828125,0 1.40625,-0.65625 1.78125,-1.359375 0.265625,1.015625 1.125,1.359375 1.765625,1.359375 1.75,0 2.6875,-2.25 2.6875,-2.640625 0,-0.078125 -0.0625,-0.15625 -0.171875,-0.15625 -0.15625,0 -0.171875,0.09375 -0.21875,0.234375 -0.46875,1.515625 -1.46875,2.21875 -2.25,2.21875 -0.59375,0 -0.921875,-0.453125 -0.921875,-1.15625 0,-0.375 0.0625,-0.65625 0.34375,-1.78125 l 0.59375,-2.34375 C 5.90625,-6.484375 6.484375,-7.25 7.28125,-7.25 c 0.03125,0 0.515625,0 0.875,0.21875 z m 0,0"
             id="path31" />
        </g>
      </g>
      <g
         clip-path="url(#clipPath4171)"
         id="g25"
         transform="matrix(0.352778,0,0,0.352778,-81.4311,-4.06938)">
        <g
           fill="#000000"
           fill-opacity="1"
           id="g23">
          <g
             id="use21"
             transform="translate(239.923,21.711)">
            <path
               d="m 1.390625,-0.84375 1.15625,-1.125 c 1.703125,-1.5 2.34375,-2.09375 2.34375,-3.171875 0,-1.25 -0.96875,-2.125 -2.3125,-2.125 -1.21875,0 -2.03125,1 -2.03125,1.96875 0,0.625 0.546875,0.625 0.578125,0.625 0.1875,0 0.5625,-0.140625 0.5625,-0.578125 0,-0.296875 -0.1875,-0.578125 -0.578125,-0.578125 -0.078125,0 -0.109375,0 -0.140625,0.015625 0.25,-0.703125 0.84375,-1.109375 1.46875,-1.109375 1,0 1.46875,0.875 1.46875,1.78125 0,0.859375 -0.546875,1.734375 -1.140625,2.40625 l -2.09375,2.328125 c -0.125,0.125 -0.125,0.140625 -0.125,0.40625 H 4.59375 L 4.890625,-1.890625 H 4.625 C 4.5625,-1.578125 4.5,-1.09375 4.390625,-0.921875 4.3125,-0.84375 3.59375,-0.84375 3.34375,-0.84375 Z m 0,0"
               id="path35" />
          </g>
        </g>
      </g>
    </g>
  </g>
</svg>
