<?xml version="1.0" encoding="UTF-8" standalone="no"?>
<!-- Created with Inkscape (http://www.inkscape.org/) -->

<svg
   width="140.58162mm"
   height="89.368706mm"
   viewBox="0 0 140.58162 89.368708"
   version="1.1"
   id="svg1198"
   sodipodi:docname="deslocamento2.svg"
   inkscape:version="1.2.1 (9c6d41e410, 2022-07-14)"
   xmlns:inkscape="http://www.inkscape.org/namespaces/inkscape"
   xmlns:sodipodi="http://sodipodi.sourceforge.net/DTD/sodipodi-0.dtd"
   xmlns="http://www.w3.org/2000/svg"
   xmlns:svg="http://www.w3.org/2000/svg">
  <sodipodi:namedview
     id="namedview1200"
     pagecolor="#ffffff"
     bordercolor="#000000"
     borderopacity="0.25"
     inkscape:showpageshadow="2"
     inkscape:pageopacity="0.0"
     inkscape:pagecheckerboard="0"
     inkscape:deskcolor="#d1d1d1"
     inkscape:document-units="mm"
     showgrid="false"
     inkscape:zoom="1.4912879"
     inkscape:cx="198.48616"
     inkscape:cy="159.5936"
     inkscape:window-width="1920"
     inkscape:window-height="1017"
     inkscape:window-x="1912"
     inkscape:window-y="-8"
     inkscape:window-maximized="1"
     inkscape:current-layer="layer1" />
  <defs
     id="defs1195">
    <clipPath
       clipPathUnits="userSpaceOnUse"
       id="clipPath1659">
      <g
         id="g1663"
         transform="matrix(3.7795276,0,0,3.7795276,880.06516,-132.04268)">
        <rect
           x="5.5390105"
           y="134.15504"
           width="150.01875"
           height="100.0125"
           id="rect1661"
           style="stroke-width:0.264583" />
      </g>
    </clipPath>
    <clipPath
       clipPathUnits="userSpaceOnUse"
       id="clipPath1665">
      <g
         id="g1669"
         transform="matrix(3.7795276,0,0,3.7795276,880.06516,-132.04268)">
        <rect
           x="5.5390105"
           y="134.15504"
           width="150.01875"
           height="100.0125"
           id="rect1667"
           style="stroke-width:0.264583" />
      </g>
    </clipPath>
    <clipPath
       clipPathUnits="userSpaceOnUse"
       id="clipPath1671">
      <g
         id="g1675"
         transform="matrix(3.7795276,0,0,3.7795276,880.06516,-132.04268)">
        <rect
           x="5.5390105"
           y="134.15504"
           width="150.01875"
           height="100.0125"
           id="rect1673"
           style="stroke-width:0.264583" />
      </g>
    </clipPath>
    <clipPath
       clipPathUnits="userSpaceOnUse"
       id="clipPath1677">
      <g
         id="g1681"
         transform="matrix(3.7795276,0,0,3.7795276,880.06516,-132.04268)">
        <rect
           x="5.5390105"
           y="134.15504"
           width="150.01875"
           height="100.0125"
           id="rect1679"
           style="stroke-width:0.264583" />
      </g>
    </clipPath>
    <clipPath
       clipPathUnits="userSpaceOnUse"
       id="clipPath1683">
      <g
         id="g1687"
         transform="matrix(3.7795276,0,0,3.7795276,880.06516,-132.04268)">
        <rect
           x="5.5390105"
           y="134.15504"
           width="150.01875"
           height="100.0125"
           id="rect1685"
           style="stroke-width:0.264583" />
      </g>
    </clipPath>
    <clipPath
       clipPathUnits="userSpaceOnUse"
       id="clipPath1689">
      <g
         id="g1693"
         transform="matrix(3.7795276,0,0,3.7795276,880.06516,-132.04268)">
        <rect
           x="5.5390105"
           y="134.15504"
           width="150.01875"
           height="100.0125"
           id="rect1691"
           style="stroke-width:0.264583" />
      </g>
    </clipPath>
    <clipPath
       clipPathUnits="userSpaceOnUse"
       id="clipPath1695">
      <g
         id="g1699"
         transform="matrix(3.7795276,0,0,3.7795276,880.06516,-132.04268)">
        <rect
           x="5.5390105"
           y="134.15504"
           width="150.01875"
           height="100.0125"
           id="rect1697"
           style="stroke-width:0.264583" />
      </g>
    </clipPath>
    <clipPath
       clipPathUnits="userSpaceOnUse"
       id="clipPath1701">
      <g
         id="g1705"
         transform="matrix(3.7795276,0,0,3.7795276,880.06516,-132.04268)">
        <rect
           x="5.5390105"
           y="134.15504"
           width="150.01875"
           height="100.0125"
           id="rect1703"
           style="stroke-width:0.264583" />
      </g>
    </clipPath>
    <clipPath
       clipPathUnits="userSpaceOnUse"
       id="clipPath1707">
      <g
         id="g1711"
         transform="matrix(3.7795276,0,0,3.7795276,880.06516,-132.04268)">
        <rect
           x="5.5390105"
           y="134.15504"
           width="150.01875"
           height="100.0125"
           id="rect1709"
           style="stroke-width:0.264583" />
      </g>
    </clipPath>
    <clipPath
       clipPathUnits="userSpaceOnUse"
       id="clipPath1713">
      <g
         id="g1717"
         transform="matrix(3.7795276,0,0,3.7795276,880.06516,-132.04268)">
        <rect
           x="5.5390105"
           y="134.15504"
           width="150.01875"
           height="100.0125"
           id="rect1715"
           style="stroke-width:0.264583" />
      </g>
    </clipPath>
    <clipPath
       clipPathUnits="userSpaceOnUse"
       id="clipPath1719">
      <g
         id="g1723"
         transform="matrix(3.7795276,0,0,3.7795276,880.06516,-132.04268)">
        <rect
           x="5.5390105"
           y="134.15504"
           width="150.01875"
           height="100.0125"
           id="rect1721"
           style="stroke-width:0.264583" />
      </g>
    </clipPath>
    <clipPath
       clipPathUnits="userSpaceOnUse"
       id="clipPath1725">
      <g
         id="g1729"
         transform="matrix(3.7795276,0,0,3.7795276,880.06516,-132.04268)">
        <rect
           x="5.5390105"
           y="134.15504"
           width="150.01875"
           height="100.0125"
           id="rect1727"
           style="stroke-width:0.264583" />
      </g>
    </clipPath>
    <clipPath
       clipPathUnits="userSpaceOnUse"
       id="clipPath1731">
      <g
         id="g1735">
        <rect
           x="5.5390105"
           y="134.15504"
           width="150.01875"
           height="100.0125"
           id="rect1733"
           style="stroke-width:0.264583" />
      </g>
    </clipPath>
    <clipPath
       id="clipPath8425">
      <path
         clip-rule="nonzero"
         d="m 234,7 h 8 v 12.128906 h -8 z m 0,0"
         id="path6375" />
    </clipPath>
  </defs>
  <g
     inkscape:label="Camada 1"
     inkscape:groupmode="layer"
     id="layer1"
     transform="translate(-10.92628,-141.92718)">
    <g
       id="g1328"
       transform="matrix(0.26458333,0,0,0.26458333,-232.85057,34.936292)"
       clip-path="url(#clipPath1725)">
      <path
         d="m 986.5,409.5 h 460 m -460,54 h 460 m -460,55 h 460 m -460,55 h 460 m -460,110 h 460 m -460,55 h 460"
         stroke="#d9d9d9"
         stroke-linejoin="round"
         stroke-miterlimit="10"
         fill="none"
         id="path1326" />
    </g>
    <g
       id="g1332"
       transform="matrix(0.26458333,0,0,0.26458333,-232.85057,34.936292)"
       clip-path="url(#clipPath1719)">
      <path
         d="m 1037.5,409.5 v 329 m 51,-329 v 329 m 51,-329 v 329 m 52,-329 v 329 m 51,-329 v 329 m 51,-329 v 329 m 51,-329 v 329 m 51,-329 v 329 m 51,-329 v 329"
         stroke="#d9d9d9"
         stroke-linejoin="round"
         stroke-miterlimit="10"
         fill="none"
         id="path1330" />
    </g>
    <g
       id="g1336"
       transform="matrix(0.26458333,0,0,0.26458333,-232.85057,34.936292)"
       clip-path="url(#clipPath1713)">
      <rect
         x="986.5"
         y="409.5"
         width="460"
         height="329"
         stroke="#000000"
         stroke-linejoin="round"
         stroke-miterlimit="10"
         fill="none"
         id="rect1334" />
    </g>
    <g
       id="g1340"
       transform="matrix(0.26458333,0,0,0.26458333,-232.85057,34.936292)"
       clip-path="url(#clipPath1707)">
      <path
         d="m 986.5,409.5 v 329"
         stroke="#000000"
         stroke-linejoin="round"
         stroke-miterlimit="10"
         fill="none"
         fill-rule="evenodd"
         id="path1338" />
    </g>
    <g
       id="g1344"
       transform="matrix(0.26458333,0,0,0.26458333,-232.85057,34.936292)"
       clip-path="url(#clipPath1701)">
      <path
         d="m 986.5,409.5 h 3 m -3,10 h 3 m -3,11 h 3 m -3,11 h 3 m -3,11 h 3 m -3,11 h 3 m -3,11 h 3 m -3,11 h 3 m -3,11 h 3 m -3,11 h 3 m -3,11 h 3 m -3,11 h 3 m -3,11 h 3 m -3,11 h 3 m -3,11 h 3 m -3,11 h 3 m -3,11 h 3 m -3,11 h 3 m -3,11 h 3 m -3,11 h 3 m -3,11 h 3 m -3,11 h 3 m -3,11 h 3 m -3,11 h 3 m -3,11 h 3 m -3,11 h 3 m -3,11 h 3 m -3,11 h 3 m -3,11 h 3 m -3,11 h 3 m -3,11 h 3 m -6,-329 h 7 m -7,54 h 7 m -7,55 h 7 m -7,55 h 7 m -7,55 h 7 m -7,55 h 7 m -7,55 h 7"
         stroke="#000000"
         stroke-linejoin="round"
         stroke-miterlimit="10"
         fill="none"
         id="path1342" />
    </g>
    <g
       id="g1348"
       transform="matrix(0.26458333,0,0,0.26458333,-232.85057,34.936292)"
       clip-path="url(#clipPath1695)">
      <path
         d="m 986.5,628.5 h 460"
         stroke="#000000"
         stroke-linejoin="round"
         stroke-miterlimit="10"
         fill="none"
         fill-rule="evenodd"
         id="path1346" />
    </g>
    <g
       id="g1352"
       transform="matrix(0.26458333,0,0,0.26458333,-232.85057,34.936292)"
       clip-path="url(#clipPath1689)">
      <path
         d="m 986.5,628.5 v 3 m 10,-3 v 3 m 11,-3 v 3 m 10,-3 v 3 m 10,-3 v 3 m 10,-3 v 3 m 10,-3 v 3 m 11,-3 v 3 m 10,-3 v 3 m 10,-3 v 3 m 10,-3 v 3 m 11,-3 v 3 m 10,-3 v 3 m 10,-3 v 3 m 10,-3 v 3 m 10,-3 v 3 m 11,-3 v 3 m 10,-3 v 3 m 10,-3 v 3 m 10,-3 v 3 m 11,-3 v 3 m 10,-3 v 3 m 10,-3 v 3 m 10,-3 v 3 m 10,-3 v 3 m 11,-3 v 3 m 10,-3 v 3 m 10,-3 v 3 m 10,-3 v 3 m 11,-3 v 3 m 10,-3 v 3 m 10,-3 v 3 m 10,-3 v 3 m 10,-3 v 3 m 11,-3 v 3 m 10,-3 v 3 m 10,-3 v 3 m 10,-3 v 3 m 11,-3 v 3 m 10,-3 v 3 m 10,-3 v 3 m 10,-3 v 3 m 10,-3 v 3 m 11,-3 v 3 m 10,-3 v 3 m 10,-3 v 3 m -460,-7 v 8 m 51,-8 v 8 m 51,-8 v 8 m 51,-8 v 8 m 52,-8 v 8 m 51,-8 v 8 m 51,-8 v 8 m 51,-8 v 8 m 51,-8 v 8 m 51,-8 v 8"
         stroke="#000000"
         stroke-linejoin="round"
         stroke-miterlimit="10"
         fill="none"
         id="path1350" />
    </g>
    <g
       id="g1356"
       transform="matrix(0.26458333,0,0,0.26458333,-232.85057,34.936292)"
       clip-path="url(#clipPath1683)">
      <path
         d="m 987,627 h 14 l 14,-1 14,-1 14,-1 13,-1 13,-2 12,-1 13,-1 12,-1 h 12 12 l 11,1 11,1 11,2 11,3 11,3 10,4 10,5 10,5 9,5 10,6 9,5 9,6 9,5 9,5 8,5 8,4 9,3 8,2 8,2 h 7 l 8,-2 7,-2 7,-4 7,-6 7,-8 7,-9 6,-10 7,-12 6,-14 6,-15 6,-17 6,-18 6,-18 6,-19 6,-20 5,-19 5,-18 5,-17 6,-16 5,-11 5,-6"
         stroke="#ed7d31"
         stroke-width="2"
         stroke-linecap="round"
         stroke-linejoin="round"
         stroke-miterlimit="10"
         fill="none"
         id="path1354" />
    </g>
    <g
       id="g1360"
       transform="matrix(0.26458333,0,0,0.26458333,-232.85057,34.936292)"
       clip-path="url(#clipPath1677)">
      <path
         d="m 987,628 h 4 4 4 l 5,-1 h 4 4 l 4,-1 h 5 4 l 4,-1 5,-1 h 4 l 4,-1 h 4 l 5,-1 4,-1 h 4 l 4,-1 5,-1 h 4 l 4,-1 4,-1 h 5 l 4,-1 h 4 4 l 5,-1 h 4 4 l 4,-1 h 5 4 l 4,1 h 4 5 l 4,1 h 4 l 4,1 5,1 4,1 4,1 5,1 4,2 4,1 4,2 5,2 4,2 4,2 4,2 5,2 4,2 4,3 4,3 5,2 4,3 4,3 4,3 5,2 4,3 4,3 4,3 5,3 4,3 4,3 4,2 5,3 4,2 4,3 5,2 4,2 4,1 4,2 4,1 5,1 4,1 h 4 4 l 5,-1 4,-1 4,-2 4,-2 4,-2 5,-3 4,-4 4,-5 5,-5 4,-6 4,-6 5,-8 4,-8 4,-9 5,-10 4,-10 4,-12 5,-12 4,-13 4,-13 4,-13 5,-14 4,-14 4,-15 4,-14 5,-14 4,-14 4,-12 4,-11 4,-8 5,-5"
         stroke="#4472c4"
         stroke-width="2"
         stroke-linecap="round"
         stroke-linejoin="round"
         stroke-miterlimit="10"
         fill="none"
         id="path1358" />
    </g>
    <g
       id="g1364"
       transform="matrix(0.26458333,0,0,0.26458333,-232.85057,34.936292)">
      <text
         font-family="Arial, Arial_MSFontService, sans-serif"
         font-weight="400"
         font-size="12px"
         transform="translate(937,413)"
         id="text1362">-2.E-05</text>
    </g>
    <g
       id="g1368"
       transform="matrix(0.26458333,0,0,0.26458333,-232.85057,34.936292)">
      <text
         font-family="Arial, Arial_MSFontService, sans-serif"
         font-weight="400"
         font-size="12px"
         transform="translate(937,468)"
         id="text1366">-2.E-05</text>
    </g>
    <g
       id="g1372"
       transform="matrix(0.26458333,0,0,0.26458333,-232.85057,34.936292)">
      <text
         font-family="Arial, Arial_MSFontService, sans-serif"
         font-weight="400"
         font-size="12px"
         transform="translate(937,523)"
         id="text1370">-1.E-05</text>
    </g>
    <g
       id="g1376"
       transform="matrix(0.26458333,0,0,0.26458333,-232.85057,34.936292)">
      <text
         font-family="Arial, Arial_MSFontService, sans-serif"
         font-weight="400"
         font-size="12px"
         transform="translate(937,578)"
         id="text1374">-5.E-06</text>
    </g>
    <g
       id="g1380"
       transform="matrix(0.26458333,0,0,0.26458333,-232.85057,34.936292)">
      <text
         font-family="Arial, Arial_MSFontService, sans-serif"
         font-weight="400"
         font-size="12px"
         transform="translate(937.98,633)"
         id="text1378">0.E+00</text>
    </g>
    <g
       id="g1384"
       transform="matrix(0.26458333,0,0,0.26458333,-232.85057,34.936292)">
      <text
         font-family="Arial, Arial_MSFontService, sans-serif"
         font-weight="400"
         font-size="12px"
         transform="translate(940.993,687)"
         id="text1382">5.E-06</text>
    </g>
    <g
       id="g1388"
       transform="matrix(0.26458333,0,0,0.26458333,-232.85057,34.936292)">
      <text
         font-family="Arial, Arial_MSFontService, sans-serif"
         font-weight="400"
         font-size="12px"
         transform="translate(940.993,742)"
         id="text1386">1.E-05</text>
    </g>
    <g
       id="g1392"
       transform="matrix(0.26458333,0,0,0.26458333,-232.85057,34.936292)">
      <text
         font-family="Arial, Arial_MSFontService, sans-serif"
         font-weight="400"
         font-size="12px"
         transform="translate(983.33,618)"
         id="text1390">0</text>
    </g>
    <g
       id="g1396"
       transform="matrix(0.26458333,0,0,0.26458333,-232.85057,34.936292)">
      <text
         font-family="Arial, Arial_MSFontService, sans-serif"
         font-weight="400"
         font-size="12px"
         transform="translate(1031.1,618)"
         id="text1394">10</text>
    </g>
    <g
       id="g1400"
       transform="matrix(0.26458333,0,0,0.26458333,-232.85057,34.936292)">
      <text
         font-family="Arial, Arial_MSFontService, sans-serif"
         font-weight="400"
         font-size="12px"
         transform="translate(1082.2,618)"
         id="text1398">20</text>
    </g>
    <g
       id="g1404"
       transform="matrix(0.26458333,0,0,0.26458333,-232.85057,34.936292)">
      <text
         font-family="Arial, Arial_MSFontService, sans-serif"
         font-weight="400"
         font-size="12px"
         transform="translate(1133.3,618)"
         id="text1402">30</text>
    </g>
    <g
       id="g1408"
       transform="matrix(0.26458333,0,0,0.26458333,-232.85057,34.936292)">
      <text
         font-family="Arial, Arial_MSFontService, sans-serif"
         font-weight="400"
         font-size="12px"
         transform="translate(1184.4,618)"
         id="text1406">40</text>
    </g>
    <g
       id="g1412"
       transform="matrix(0.26458333,0,0,0.26458333,-232.85057,34.936292)">
      <text
         font-family="Arial, Arial_MSFontService, sans-serif"
         font-weight="400"
         font-size="12px"
         transform="translate(1235.51,618)"
         id="text1410">50</text>
    </g>
    <g
       id="g1416"
       transform="matrix(0.26458333,0,0,0.26458333,-232.85057,34.936292)">
      <text
         font-family="Arial, Arial_MSFontService, sans-serif"
         font-weight="400"
         font-size="12px"
         transform="translate(1286.61,618)"
         id="text1414">60</text>
    </g>
    <g
       id="g1420"
       transform="matrix(0.26458333,0,0,0.26458333,-232.85057,34.936292)">
      <text
         font-family="Arial, Arial_MSFontService, sans-serif"
         font-weight="400"
         font-size="12px"
         transform="translate(1337.71,618)"
         id="text1418">70</text>
    </g>
    <g
       id="g1424"
       transform="matrix(0.26458333,0,0,0.26458333,-232.85057,34.936292)">
      <text
         font-family="Arial, Arial_MSFontService, sans-serif"
         font-weight="400"
         font-size="12px"
         transform="translate(1388.81,618)"
         id="text1422">80</text>
    </g>
    <g
       id="g1428"
       transform="matrix(0.26458333,0,0,0.26458333,-232.85057,34.936292)">
      <text
         font-family="Arial, Arial_MSFontService, sans-serif"
         font-weight="400"
         font-size="12px"
         transform="translate(1439.92,618)"
         id="text1426">90</text>
    </g>
    <g
       id="g1432"
       transform="matrix(0.26458333,0,0,0.26458333,-232.85057,34.936292)">
      <text
         font-family="Arial, Arial_MSFontService, sans-serif"
         font-weight="400"
         font-size="13px"
         transform="rotate(-90,782.3335,-148.3335)"
         id="text1430">Deslocamento radial</text>
    </g>
    <g
       id="g1440"
       transform="matrix(0.26458333,0,0,0.26458333,-232.85057,34.936292)"
       clip-path="url(#clipPath1671)">
      <rect
         x="1024.5"
         y="468.5"
         width="94"
         height="42"
         stroke="#000000"
         stroke-linejoin="round"
         stroke-miterlimit="10"
         fill="#ffffff"
         id="rect1438" />
    </g>
    <g
       id="g1444"
       transform="matrix(0.26458333,0,0,0.26458333,-232.85057,34.936292)"
       clip-path="url(#clipPath1665)">
      <path
         d="m 1031,479 h 26"
         stroke="#ed7d31"
         stroke-width="2"
         stroke-linecap="round"
         stroke-linejoin="round"
         stroke-miterlimit="10"
         fill="none"
         fill-rule="evenodd"
         id="path1442" />
    </g>
    <g
       id="g1448"
       transform="matrix(0.26458333,0,0,0.26458333,-232.85057,34.936292)">
      <text
         font-family="Arial, Arial_MSFontService, sans-serif"
         font-weight="400"
         font-size="12px"
         transform="translate(1059.44,483)"
         id="text1446">Calculado</text>
    </g>
    <g
       id="g1452"
       transform="matrix(0.26458333,0,0,0.26458333,-232.85057,34.936292)"
       clip-path="url(#clipPath1659)">
      <path
         d="m 1031,500 h 26"
         stroke="#4472c4"
         stroke-width="2"
         stroke-linecap="round"
         stroke-linejoin="round"
         stroke-miterlimit="10"
         fill="none"
         fill-rule="evenodd"
         id="path1450" />
    </g>
    <g
       id="g1456"
       transform="matrix(0.26458333,0,0,0.26458333,-232.85057,34.936292)">
      <text
         font-family="Arial, Arial_MSFontService, sans-serif"
         font-weight="400"
         font-size="12px"
         transform="translate(1059.44,504)"
         id="text1454">ANSYS</text>
    </g>
    <g
       inkscape:label=""
       transform="translate(145.52286,203.70313)"
       id="g1955">
      <g
         clip-path="url(#clipPath8425)"
         id="g17"
         transform="matrix(0.352778,0,0,0.352778,-82.7742,-2.4705)">
        <g
           fill="#000000"
           fill-opacity="1"
           id="g15">
          <g
             id="use13"
             transform="translate(233.948,19.128)">
            <path
               d="M 7.625,-8.65625 C 7.625,-10.421875 7.078125,-12.125 5.671875,-12.125 3.25,-12.125 0.6875,-7.078125 0.6875,-3.28125 0.6875,-2.5 0.859375,0.171875 2.671875,0.171875 5.015625,0.171875 7.625,-4.75 7.625,-8.65625 Z m -5.21875,2.421875 c 0.265625,-1.015625 0.625,-2.46875 1.3125,-3.6875 0.5625,-1.03125 1.171875,-1.859375 1.921875,-1.859375 0.578125,0 0.953125,0.484375 0.953125,2.140625 0,0.625 -0.046875,1.484375 -0.546875,3.40625 z M 5.921875,-5.71875 C 5.5,-4.03125 5.125,-2.9375 4.515625,-1.859375 c -0.5,0.875 -1.109375,1.6875 -1.828125,1.6875 -0.53125,0 -0.96875,-0.40625 -0.96875,-2.125 0,-1.109375 0.28125,-2.28125 0.546875,-3.421875 z m 0,0"
               id="path23" />
          </g>
        </g>
      </g>
    </g>
  </g>
</svg>
