<?xml version="1.0" encoding="UTF-8" standalone="no"?>
<!-- Created with Inkscape (http://www.inkscape.org/) -->

<svg
   width="140.58162mm"
   height="94.39579mm"
   viewBox="0 0 140.58162 94.395793"
   version="1.1"
   id="svg3872"
   sodipodi:docname="deslocamento2.svg"
   inkscape:version="1.2.1 (9c6d41e410, 2022-07-14)"
   xmlns:inkscape="http://www.inkscape.org/namespaces/inkscape"
   xmlns:sodipodi="http://sodipodi.sourceforge.net/DTD/sodipodi-0.dtd"
   xmlns="http://www.w3.org/2000/svg"
   xmlns:svg="http://www.w3.org/2000/svg">
  <sodipodi:namedview
     id="namedview3874"
     pagecolor="#ffffff"
     bordercolor="#000000"
     borderopacity="0.25"
     inkscape:showpageshadow="2"
     inkscape:pageopacity="0.0"
     inkscape:pagecheckerboard="0"
     inkscape:deskcolor="#d1d1d1"
     inkscape:document-units="mm"
     showgrid="false"
     inkscape:zoom="1.4912879"
     inkscape:cx="158.25248"
     inkscape:cy="254.14275"
     inkscape:window-width="1920"
     inkscape:window-height="1017"
     inkscape:window-x="1912"
     inkscape:window-y="-8"
     inkscape:window-maximized="1"
     inkscape:current-layer="layer1" />
  <defs
     id="defs3869">
    <clipPath
       clipPathUnits="userSpaceOnUse"
       id="clipPath4271">
      <g
         id="g4275"
         transform="matrix(3.7795276,0,0,3.7795276,906.8876,-106.56135)">
        <rect
           x="-1.5577596"
           y="127.41311"
           width="150.01875"
           height="100.0125"
           id="rect4273"
           style="stroke-width:0.264583" />
      </g>
    </clipPath>
    <clipPath
       clipPathUnits="userSpaceOnUse"
       id="clipPath4277">
      <g
         id="g4281"
         transform="matrix(3.7795276,0,0,3.7795276,906.8876,-106.56135)">
        <rect
           x="-1.5577596"
           y="127.41311"
           width="150.01875"
           height="100.0125"
           id="rect4279"
           style="stroke-width:0.264583" />
      </g>
    </clipPath>
    <clipPath
       clipPathUnits="userSpaceOnUse"
       id="clipPath4283">
      <g
         id="g4287"
         transform="matrix(3.7795276,0,0,3.7795276,906.8876,-106.56135)">
        <rect
           x="-1.5577596"
           y="127.41311"
           width="150.01875"
           height="100.0125"
           id="rect4285"
           style="stroke-width:0.264583" />
      </g>
    </clipPath>
    <clipPath
       clipPathUnits="userSpaceOnUse"
       id="clipPath4289">
      <g
         id="g4293"
         transform="matrix(3.7795276,0,0,3.7795276,906.8876,-106.56135)">
        <rect
           x="-1.5577596"
           y="127.41311"
           width="150.01875"
           height="100.0125"
           id="rect4291"
           style="stroke-width:0.264583" />
      </g>
    </clipPath>
    <clipPath
       clipPathUnits="userSpaceOnUse"
       id="clipPath4295">
      <g
         id="g4299"
         transform="matrix(3.7795276,0,0,3.7795276,906.8876,-106.56135)">
        <rect
           x="-1.5577596"
           y="127.41311"
           width="150.01875"
           height="100.0125"
           id="rect4297"
           style="stroke-width:0.264583" />
      </g>
    </clipPath>
    <clipPath
       clipPathUnits="userSpaceOnUse"
       id="clipPath4301">
      <g
         id="g4305"
         transform="matrix(3.7795276,0,0,3.7795276,906.8876,-106.56135)">
        <rect
           x="-1.5577596"
           y="127.41311"
           width="150.01875"
           height="100.0125"
           id="rect4303"
           style="stroke-width:0.264583" />
      </g>
    </clipPath>
    <clipPath
       clipPathUnits="userSpaceOnUse"
       id="clipPath4307">
      <g
         id="g4311"
         transform="matrix(3.7795276,0,0,3.7795276,906.8876,-106.56135)">
        <rect
           x="-1.5577596"
           y="127.41311"
           width="150.01875"
           height="100.0125"
           id="rect4309"
           style="stroke-width:0.264583" />
      </g>
    </clipPath>
    <clipPath
       clipPathUnits="userSpaceOnUse"
       id="clipPath4313">
      <g
         id="g4317"
         transform="matrix(3.7795276,0,0,3.7795276,906.8876,-106.56135)">
        <rect
           x="-1.5577596"
           y="127.41311"
           width="150.01875"
           height="100.0125"
           id="rect4315"
           style="stroke-width:0.264583" />
      </g>
    </clipPath>
    <clipPath
       clipPathUnits="userSpaceOnUse"
       id="clipPath4319">
      <g
         id="g4323"
         transform="matrix(3.7795276,0,0,3.7795276,906.8876,-106.56135)">
        <rect
           x="-1.5577596"
           y="127.41311"
           width="150.01875"
           height="100.0125"
           id="rect4321"
           style="stroke-width:0.264583" />
      </g>
    </clipPath>
    <clipPath
       clipPathUnits="userSpaceOnUse"
       id="clipPath4325">
      <g
         id="g4329"
         transform="matrix(3.7795276,0,0,3.7795276,906.8876,-106.56135)">
        <rect
           x="-1.5577596"
           y="127.41311"
           width="150.01875"
           height="100.0125"
           id="rect4327"
           style="stroke-width:0.264583" />
      </g>
    </clipPath>
    <clipPath
       clipPathUnits="userSpaceOnUse"
       id="clipPath4331">
      <g
         id="g4335"
         transform="matrix(3.7795276,0,0,3.7795276,906.8876,-106.56135)">
        <rect
           x="-1.5577596"
           y="127.41311"
           width="150.01875"
           height="100.0125"
           id="rect4333"
           style="stroke-width:0.264583" />
      </g>
    </clipPath>
    <clipPath
       clipPathUnits="userSpaceOnUse"
       id="clipPath4337">
      <g
         id="g4341"
         transform="matrix(3.7795276,0,0,3.7795276,906.8876,-106.56135)">
        <rect
           x="-1.5577596"
           y="127.41311"
           width="150.01875"
           height="100.0125"
           id="rect4339"
           style="stroke-width:0.264583" />
      </g>
    </clipPath>
    <clipPath
       clipPathUnits="userSpaceOnUse"
       id="clipPath4343">
      <g
         id="g4347">
        <rect
           x="-1.5577596"
           y="127.41311"
           width="150.01875"
           height="100.0125"
           id="rect4345"
           style="stroke-width:0.264583" />
      </g>
    </clipPath>
    <clipPath
       id="clipPath5121">
      <path
         clip-rule="nonzero"
         d="m 234,7 h 8 v 12.128906 h -8 z m 0,0"
         id="path7743" />
    </clipPath>
  </defs>
  <g
     inkscape:label="Camada 1"
     inkscape:groupmode="layer"
     id="layer1"
     transform="translate(-3.8295104,-130.15816)">
    <g
       id="g4002"
       transform="matrix(0.26458333,0,0,0.26458333,-239.94734,28.194357)"
       clip-path="url(#clipPath4337)">
      <path
         d="m 993.5,389.5 h 453 m -453,58 h 453 m -453,58 h 453 m -453,59 h 453 m -453,116 h 453 m -453,58 h 453"
         stroke="#d9d9d9"
         stroke-linejoin="round"
         stroke-miterlimit="10"
         fill="none"
         id="path4000" />
    </g>
    <g
       id="g4006"
       transform="matrix(0.26458333,0,0,0.26458333,-239.94734,28.194357)"
       clip-path="url(#clipPath4331)">
      <path
         d="m 1043.5,389.5 v 349 m 51,-349 v 349 m 50,-349 v 349 m 50,-349 v 349 m 51,-349 v 349 m 50,-349 v 349 m 50,-349 v 349 m 51,-349 v 349 m 50,-349 v 349"
         stroke="#d9d9d9"
         stroke-linejoin="round"
         stroke-miterlimit="10"
         fill="none"
         id="path4004" />
    </g>
    <g
       id="g4010"
       transform="matrix(0.26458333,0,0,0.26458333,-239.94734,28.194357)"
       clip-path="url(#clipPath4325)">
      <rect
         x="993.5"
         y="389.5"
         width="453"
         height="349"
         stroke="#000000"
         stroke-linejoin="round"
         stroke-miterlimit="10"
         fill="none"
         id="rect4008" />
    </g>
    <g
       id="g4014"
       transform="matrix(0.26458333,0,0,0.26458333,-239.94734,28.194357)"
       clip-path="url(#clipPath4319)">
      <path
         d="m 993.5,389.5 v 349"
         stroke="#000000"
         stroke-linejoin="round"
         stroke-miterlimit="10"
         fill="none"
         fill-rule="evenodd"
         id="path4012" />
    </g>
    <g
       id="g4018"
       transform="matrix(0.26458333,0,0,0.26458333,-239.94734,28.194357)"
       clip-path="url(#clipPath4313)">
      <path
         d="m 993.5,389.5 h 3 m -3,12 h 3 m -3,11 h 3 m -3,12 h 3 m -3,12 h 3 m -3,11 h 3 m -3,12 h 3 m -3,12 h 3 m -3,11 h 3 m -3,12 h 3 m -3,11 h 3 m -3,12 h 3 m -3,12 h 3 m -3,11 h 3 m -3,12 h 3 m -3,12 h 3 m -3,11 h 3 m -3,12 h 3 m -3,11 h 3 m -3,12 h 3 m -3,12 h 3 m -3,11 h 3 m -3,12 h 3 m -3,11 h 3 m -3,12 h 3 m -3,12 h 3 m -3,11 h 3 m -3,12 h 3 m -3,12 h 3 m -3,11 h 3 m -3,12 h 3 m -7,-349 h 7 m -7,58 h 7 m -7,58 h 7 m -7,59 h 7 m -7,58 h 7 m -7,58 h 7 m -7,58 h 7"
         stroke="#000000"
         stroke-linejoin="round"
         stroke-miterlimit="10"
         fill="none"
         id="path4016" />
    </g>
    <g
       id="g4022"
       transform="matrix(0.26458333,0,0,0.26458333,-239.94734,28.194357)"
       clip-path="url(#clipPath4307)">
      <path
         d="m 993.5,622.5 h 453"
         stroke="#000000"
         stroke-linejoin="round"
         stroke-miterlimit="10"
         fill="none"
         fill-rule="evenodd"
         id="path4020" />
    </g>
    <g
       id="g4026"
       transform="matrix(0.26458333,0,0,0.26458333,-239.94734,28.194357)"
       clip-path="url(#clipPath4301)">
      <path
         d="m 993.5,622.5 v 2 m 10,-2 v 2 m 10,-2 v 2 m 10,-2 v 2 m 10,-2 v 2 m 10,-2 v 2 m 10,-2 v 2 m 10,-2 v 2 m 10,-2 v 2 m 10,-2 v 2 m 11,-2 v 2 m 10,-2 v 2 m 10,-2 v 2 m 10,-2 v 2 m 10,-2 v 2 m 10,-2 v 2 m 10,-2 v 2 m 10,-2 v 2 m 10,-2 v 2 m 10,-2 v 2 m 10,-2 v 2 m 10,-2 v 2 m 10,-2 v 2 m 11,-2 v 2 m 10,-2 v 2 m 10,-2 v 2 m 10,-2 v 2 m 10,-2 v 2 m 10,-2 v 2 m 10,-2 v 2 m 10,-2 v 2 m 10,-2 v 2 m 10,-2 v 2 m 10,-2 v 2 m 10,-2 v 2 m 10,-2 v 2 m 10,-2 v 2 m 11,-2 v 2 m 10,-2 v 2 m 10,-2 v 2 m 10,-2 v 2 m 10,-2 v 2 m 10,-2 v 2 m 10,-2 v 2 m 10,-2 v 2 m 10,-2 v 2 m -453,-6 v 7 m 50,-7 v 7 m 51,-7 v 7 m 50,-7 v 7 m 50,-7 v 7 m 51,-7 v 7 m 50,-7 v 7 m 50,-7 v 7 m 51,-7 v 7 m 50,-7 v 7"
         stroke="#000000"
         stroke-linejoin="round"
         stroke-miterlimit="10"
         fill="none"
         id="path4024" />
    </g>
    <g
       id="g4030"
       transform="matrix(0.26458333,0,0,0.26458333,-239.94734,28.194357)"
       clip-path="url(#clipPath4295)">
      <path
         d="m 993,619 14,-1 14,-1 14,-1 13,-1 12,-2 13,-2 12,-1 12,-1 11,-1 h 11 l 11,1 11,1 10,2 10,2 10,3 9,4 10,4 9,5 8,5 9,5 8,6 9,6 7,5 8,6 8,5 7,5 7,4 7,4 7,4 7,3 6,2 6,1 6,1 h 6 l 6,-1 6,-2 5,-3 5,-3 6,-5 5,-5 5,-6 4,-7 5,-8 5,-8 4,-9 4,-10 5,-10 4,-11 4,-11 4,-11 3,-12 4,-12 4,-12 3,-12 4,-12 3,-13 3,-11 3,-12 3,-11 3,-10 3,-10 3,-10 3,-8 3,-8 2,-6 3,-5 2,-4 3,-3"
         stroke="#ed7d31"
         stroke-width="2"
         stroke-linecap="round"
         stroke-linejoin="round"
         stroke-miterlimit="10"
         fill="none"
         id="path4028" />
    </g>
    <g
       id="g4034"
       transform="matrix(0.26458333,0,0,0.26458333,-239.94734,28.194357)"
       clip-path="url(#clipPath4289)">
      <path
         d="m 993,621 h 5 4 4 4 4 l 5,-1 h 4 l 4,-1 h 4 l 4,-1 h 5 l 4,-1 h 4 l 4,-1 4,-1 4,-1 h 5 l 4,-1 4,-1 h 4 l 4,-1 5,-1 h 4 l 4,-1 h 4 l 4,-1 h 5 4 l 4,-1 h 4 4 5 4 l 4,1 h 4 l 4,1 h 5 l 4,1 4,1 4,1 4,1 5,2 4,1 4,2 4,1 4,2 5,2 4,2 4,3 4,2 4,3 5,2 4,3 4,3 4,3 4,3 5,3 4,3 4,3 4,3 4,3 5,3 4,3 4,3 4,3 4,2 5,3 4,2 4,3 4,2 4,2 5,1 4,1 4,1 4,1 h 4 4 l 4,-1 5,-1 4,-1 4,-3 4,-2 4,-4 4,-4 5,-4 4,-6 4,-6 4,-7 5,-8 4,-9 4,-9 5,-11 4,-11 4,-12 4,-13 5,-13 4,-14 4,-14 4,-15 4,-15 5,-15 4,-16 4,-14 4,-15 4,-13 4,-11 4,-9 5,-5"
         stroke="#4472c4"
         stroke-width="2"
         stroke-linecap="round"
         stroke-linejoin="round"
         stroke-miterlimit="10"
         fill="none"
         id="path4032" />
    </g>
    <g
       id="g4038"
       transform="matrix(0.26458333,0,0,0.26458333,-239.94734,28.194357)">
      <text
         font-family="Arial, Arial_MSFontService, sans-serif"
         font-weight="400"
         font-size="12px"
         transform="translate(937,394)"
         id="text4036">-2.0E-05</text>
    </g>
    <g
       id="g4042"
       transform="matrix(0.26458333,0,0,0.26458333,-239.94734,28.194357)">
      <text
         font-family="Arial, Arial_MSFontService, sans-serif"
         font-weight="400"
         font-size="12px"
         transform="translate(937,452)"
         id="text4040">-1.5E-05</text>
    </g>
    <g
       id="g4046"
       transform="matrix(0.26458333,0,0,0.26458333,-239.94734,28.194357)">
      <text
         font-family="Arial, Arial_MSFontService, sans-serif"
         font-weight="400"
         font-size="12px"
         transform="translate(937,510)"
         id="text4044">-1.0E-05</text>
    </g>
    <g
       id="g4050"
       transform="matrix(0.26458333,0,0,0.26458333,-239.94734,28.194357)">
      <text
         font-family="Arial, Arial_MSFontService, sans-serif"
         font-weight="400"
         font-size="12px"
         transform="translate(937,568)"
         id="text4048">-5.0E-06</text>
    </g>
    <g
       id="g4054"
       transform="matrix(0.26458333,0,0,0.26458333,-239.94734,28.194357)">
      <text
         font-family="Arial, Arial_MSFontService, sans-serif"
         font-weight="400"
         font-size="12px"
         transform="translate(937.98,626)"
         id="text4052">0.0E+00</text>
    </g>
    <g
       id="g4058"
       transform="matrix(0.26458333,0,0,0.26458333,-239.94734,28.194357)">
      <text
         font-family="Arial, Arial_MSFontService, sans-serif"
         font-weight="400"
         font-size="12px"
         transform="translate(940.993,684)"
         id="text4056">5.0E-06</text>
    </g>
    <g
       id="g4062"
       transform="matrix(0.26458333,0,0,0.26458333,-239.94734,28.194357)">
      <text
         font-family="Arial, Arial_MSFontService, sans-serif"
         font-weight="400"
         font-size="12px"
         transform="translate(940.993,742)"
         id="text4060">1.0E-05</text>
    </g>
    <g
       id="g4066"
       transform="matrix(0.26458333,0,0,0.26458333,-239.94734,28.194357)">
      <text
         font-family="Arial, Arial_MSFontService, sans-serif"
         font-weight="400"
         font-size="12px"
         transform="translate(990.004,612)"
         id="text4064">0</text>
    </g>
    <g
       id="g4070"
       transform="matrix(0.26458333,0,0,0.26458333,-239.94734,28.194357)">
      <text
         font-family="Arial, Arial_MSFontService, sans-serif"
         font-weight="400"
         font-size="12px"
         transform="translate(1037.03,612)"
         id="text4068">10</text>
    </g>
    <g
       id="g4074"
       transform="matrix(0.26458333,0,0,0.26458333,-239.94734,28.194357)">
      <text
         font-family="Arial, Arial_MSFontService, sans-serif"
         font-weight="400"
         font-size="12px"
         transform="translate(1087.39,612)"
         id="text4072">20</text>
    </g>
    <g
       id="g4078"
       transform="matrix(0.26458333,0,0,0.26458333,-239.94734,28.194357)">
      <text
         font-family="Arial, Arial_MSFontService, sans-serif"
         font-weight="400"
         font-size="12px"
         transform="translate(1137.75,612)"
         id="text4076">30</text>
    </g>
    <g
       id="g4082"
       transform="matrix(0.26458333,0,0,0.26458333,-239.94734,28.194357)">
      <text
         font-family="Arial, Arial_MSFontService, sans-serif"
         font-weight="400"
         font-size="12px"
         transform="translate(1188.11,612)"
         id="text4080">40</text>
    </g>
    <g
       id="g4086"
       transform="matrix(0.26458333,0,0,0.26458333,-239.94734,28.194357)">
      <text
         font-family="Arial, Arial_MSFontService, sans-serif"
         font-weight="400"
         font-size="12px"
         transform="translate(1238.47,612)"
         id="text4084">50</text>
    </g>
    <g
       id="g4090"
       transform="matrix(0.26458333,0,0,0.26458333,-239.94734,28.194357)">
      <text
         font-family="Arial, Arial_MSFontService, sans-serif"
         font-weight="400"
         font-size="12px"
         transform="translate(1288.83,612)"
         id="text4088">60</text>
    </g>
    <g
       id="g4094"
       transform="matrix(0.26458333,0,0,0.26458333,-239.94734,28.194357)">
      <text
         font-family="Arial, Arial_MSFontService, sans-serif"
         font-weight="400"
         font-size="12px"
         transform="translate(1339.19,612)"
         id="text4092">70</text>
    </g>
    <g
       id="g4098"
       transform="matrix(0.26458333,0,0,0.26458333,-239.94734,28.194357)">
      <text
         font-family="Arial, Arial_MSFontService, sans-serif"
         font-weight="400"
         font-size="12px"
         transform="translate(1389.55,612)"
         id="text4096">80</text>
    </g>
    <g
       id="g4102"
       transform="matrix(0.26458333,0,0,0.26458333,-239.94734,28.194357)">
      <text
         font-family="Arial, Arial_MSFontService, sans-serif"
         font-weight="400"
         font-size="12px"
         transform="translate(1439.92,612)"
         id="text4100">90</text>
    </g>
    <g
       id="g4106"
       transform="matrix(0.26458333,0,0,0.26458333,-239.94734,28.194357)">
      <text
         font-family="Arial, Arial_MSFontService, sans-serif"
         font-weight="400"
         font-size="13px"
         transform="rotate(-90,777.8335,-152.8335)"
         id="text4104">Deslocamento radial</text>
    </g>
    <g
       id="g4110"
       transform="matrix(0.26458333,0,0,0.26458333,-239.94734,28.194357)"
       clip-path="url(#clipPath4283)">
      <rect
         x="1024.5"
         y="468.5"
         width="94"
         height="42"
         stroke="#000000"
         stroke-linejoin="round"
         stroke-miterlimit="10"
         fill="#ffffff"
         id="rect4108" />
    </g>
    <g
       id="g4114"
       transform="matrix(0.26458333,0,0,0.26458333,-239.94734,28.194357)"
       clip-path="url(#clipPath4277)">
      <path
         d="m 1031,479 h 26"
         stroke="#ed7d31"
         stroke-width="2"
         stroke-linecap="round"
         stroke-linejoin="round"
         stroke-miterlimit="10"
         fill="none"
         fill-rule="evenodd"
         id="path4112" />
    </g>
    <g
       id="g4118"
       transform="matrix(0.26458333,0,0,0.26458333,-239.94734,28.194357)">
      <text
         font-family="Arial, Arial_MSFontService, sans-serif"
         font-weight="400"
         font-size="12px"
         transform="translate(1059.44,483)"
         id="text4116">Calculado</text>
    </g>
    <g
       id="g4122"
       transform="matrix(0.26458333,0,0,0.26458333,-239.94734,28.194357)"
       clip-path="url(#clipPath4271)">
      <path
         d="m 1031,500 h 26"
         stroke="#4472c4"
         stroke-width="2"
         stroke-linecap="round"
         stroke-linejoin="round"
         stroke-miterlimit="10"
         fill="none"
         fill-rule="evenodd"
         id="path4120" />
    </g>
    <g
       id="g4126"
       transform="matrix(0.26458333,0,0,0.26458333,-239.94734,28.194357)">
      <text
         font-family="Arial, Arial_MSFontService, sans-serif"
         font-weight="400"
         font-size="12px"
         transform="translate(1059.44,504)"
         id="text4124">ANSYS</text>
    </g>
    <g
       inkscape:label=""
       transform="translate(139.1357,194.65471)"
       id="g4567">
      <g
         clip-path="url(#clipPath5121)"
         id="g17"
         transform="matrix(0.352778,0,0,0.352778,-82.7742,-2.4705)">
        <g
           fill="#000000"
           fill-opacity="1"
           id="g15">
          <g
             id="use13"
             transform="translate(233.948,19.128)">
            <path
               d="M 7.625,-8.65625 C 7.625,-10.421875 7.078125,-12.125 5.671875,-12.125 3.25,-12.125 0.6875,-7.078125 0.6875,-3.28125 0.6875,-2.5 0.859375,0.171875 2.671875,0.171875 5.015625,0.171875 7.625,-4.75 7.625,-8.65625 Z m -5.21875,2.421875 c 0.265625,-1.015625 0.625,-2.46875 1.3125,-3.6875 0.5625,-1.03125 1.171875,-1.859375 1.921875,-1.859375 0.578125,0 0.953125,0.484375 0.953125,2.140625 0,0.625 -0.046875,1.484375 -0.546875,3.40625 z M 5.921875,-5.71875 C 5.5,-4.03125 5.125,-2.9375 4.515625,-1.859375 c -0.5,0.875 -1.109375,1.6875 -1.828125,1.6875 -0.53125,0 -0.96875,-0.40625 -0.96875,-2.125 0,-1.109375 0.28125,-2.28125 0.546875,-3.421875 z m 0,0"
               id="path23" />
          </g>
        </g>
      </g>
    </g>
  </g>
</svg>
