<?xml version="1.0" encoding="UTF-8" standalone="no"?>
<!-- Created with Inkscape (http://www.inkscape.org/) -->

<svg
   width="140.57999mm"
   height="94.468445mm"
   viewBox="0 0 140.57998 94.468448"
   version="1.1"
   id="svg5"
   sodipodi:docname="deslocamento1.svg"
   inkscape:version="1.2.1 (9c6d41e410, 2022-07-14)"
   xmlns:inkscape="http://www.inkscape.org/namespaces/inkscape"
   xmlns:sodipodi="http://sodipodi.sourceforge.net/DTD/sodipodi-0.dtd"
   xmlns="http://www.w3.org/2000/svg"
   xmlns:svg="http://www.w3.org/2000/svg">
  <sodipodi:namedview
     id="namedview7"
     pagecolor="#ffffff"
     bordercolor="#000000"
     borderopacity="0.25"
     inkscape:showpageshadow="2"
     inkscape:pageopacity="0.0"
     inkscape:pagecheckerboard="0"
     inkscape:deskcolor="#d1d1d1"
     inkscape:document-units="mm"
     showgrid="false"
     inkscape:zoom="1.4912879"
     inkscape:cx="335.95123"
     inkscape:cy="176.35763"
     inkscape:window-width="1920"
     inkscape:window-height="1017"
     inkscape:window-x="1912"
     inkscape:window-y="-8"
     inkscape:window-maximized="1"
     inkscape:current-layer="layer1" />
  <defs
     id="defs2">
    <clipPath
       clipPathUnits="userSpaceOnUse"
       id="clipPath576">
      <g
         id="g580"
         transform="matrix(3.7795276,0,0,3.7795276,1158.3364,-324.64999)">
        <rect
           x="-67.557762"
           y="85.896973"
           width="150.01875"
           height="100.0125"
           id="rect578"
           style="stroke-width:0.264583" />
      </g>
    </clipPath>
    <clipPath
       clipPathUnits="userSpaceOnUse"
       id="clipPath582">
      <g
         id="g586"
         transform="matrix(3.7795276,0,0,3.7795276,1158.3364,-324.64999)">
        <rect
           x="-67.557762"
           y="85.896973"
           width="150.01875"
           height="100.0125"
           id="rect584"
           style="stroke-width:0.264583" />
      </g>
    </clipPath>
    <clipPath
       clipPathUnits="userSpaceOnUse"
       id="clipPath588">
      <g
         id="g592"
         transform="matrix(3.7795276,0,0,3.7795276,1158.3364,-324.64999)">
        <rect
           x="-67.557762"
           y="85.896973"
           width="150.01875"
           height="100.0125"
           id="rect590"
           style="stroke-width:0.264583" />
      </g>
    </clipPath>
    <clipPath
       clipPathUnits="userSpaceOnUse"
       id="clipPath594">
      <g
         id="g598"
         transform="matrix(3.7795276,0,0,3.7795276,1158.3364,-324.64999)">
        <rect
           x="-67.557762"
           y="85.896973"
           width="150.01875"
           height="100.0125"
           id="rect596"
           style="stroke-width:0.264583" />
      </g>
    </clipPath>
    <clipPath
       clipPathUnits="userSpaceOnUse"
       id="clipPath600">
      <g
         id="g604"
         transform="matrix(3.7795276,0,0,3.7795276,1158.3364,-324.64999)">
        <rect
           x="-67.557762"
           y="85.896973"
           width="150.01875"
           height="100.0125"
           id="rect602"
           style="stroke-width:0.264583" />
      </g>
    </clipPath>
    <clipPath
       clipPathUnits="userSpaceOnUse"
       id="clipPath606">
      <g
         id="g610"
         transform="matrix(3.7795276,0,0,3.7795276,1158.3364,-324.64999)">
        <rect
           x="-67.557762"
           y="85.896973"
           width="150.01875"
           height="100.0125"
           id="rect608"
           style="stroke-width:0.264583" />
      </g>
    </clipPath>
    <clipPath
       clipPathUnits="userSpaceOnUse"
       id="clipPath612">
      <g
         id="g616"
         transform="matrix(3.7795276,0,0,3.7795276,1158.3364,-324.64999)">
        <rect
           x="-67.557762"
           y="85.896973"
           width="150.01875"
           height="100.0125"
           id="rect614"
           style="stroke-width:0.264583" />
      </g>
    </clipPath>
    <clipPath
       clipPathUnits="userSpaceOnUse"
       id="clipPath618">
      <g
         id="g622"
         transform="matrix(3.7795276,0,0,3.7795276,1158.3364,-324.64999)">
        <rect
           x="-67.557762"
           y="85.896973"
           width="150.01875"
           height="100.0125"
           id="rect620"
           style="stroke-width:0.264583" />
      </g>
    </clipPath>
    <clipPath
       clipPathUnits="userSpaceOnUse"
       id="clipPath624">
      <g
         id="g628"
         transform="matrix(3.7795276,0,0,3.7795276,1158.3364,-324.64999)">
        <rect
           x="-67.557762"
           y="85.896973"
           width="150.01875"
           height="100.0125"
           id="rect626"
           style="stroke-width:0.264583" />
      </g>
    </clipPath>
    <clipPath
       clipPathUnits="userSpaceOnUse"
       id="clipPath630">
      <g
         id="g634"
         transform="matrix(3.7795276,0,0,3.7795276,1158.3364,-324.64999)">
        <rect
           x="-67.557762"
           y="85.896973"
           width="150.01875"
           height="100.0125"
           id="rect632"
           style="stroke-width:0.264583" />
      </g>
    </clipPath>
    <clipPath
       clipPathUnits="userSpaceOnUse"
       id="clipPath636">
      <g
         id="g640"
         transform="matrix(3.7795276,0,0,3.7795276,1158.3364,-324.64999)">
        <rect
           x="-67.557762"
           y="85.896973"
           width="150.01875"
           height="100.0125"
           id="rect638"
           style="stroke-width:0.264583" />
      </g>
    </clipPath>
    <clipPath
       clipPathUnits="userSpaceOnUse"
       id="clipPath642">
      <g
         id="g646">
        <rect
           x="-67.557762"
           y="85.896973"
           width="150.01875"
           height="100.0125"
           id="rect644"
           style="stroke-width:0.264583" />
      </g>
    </clipPath>
    <clipPath
       id="clipPath9793">
      <path
         clip-rule="nonzero"
         d="m 240,14 h 5 v 7.710938 h -5 z m 0,0"
         id="path1020" />
    </clipPath>
    <clipPath
       id="clip0">
      <rect
         x="903"
         y="0"
         width="567"
         height="378"
         id="rect942" />
    </clipPath>
    <clipPath
       clipPathUnits="userSpaceOnUse"
       id="clipPath1593">
      <g
         id="g1597"
         transform="matrix(3.7795276,0,0,3.7795276,1148.8013,-177.22489)">
        <rect
           x="-65.034912"
           y="46.890751"
           width="150.01875"
           height="100.0125"
           id="rect1595"
           style="stroke-width:0.264583" />
      </g>
    </clipPath>
    <clipPath
       clipPathUnits="userSpaceOnUse"
       id="clipPath1599">
      <g
         id="g1603"
         transform="matrix(3.7795276,0,0,3.7795276,1148.8013,-177.22489)">
        <rect
           x="-65.034912"
           y="46.890751"
           width="150.01875"
           height="100.0125"
           id="rect1601"
           style="stroke-width:0.264583" />
      </g>
    </clipPath>
    <clipPath
       clipPathUnits="userSpaceOnUse"
       id="clipPath1605">
      <g
         id="g1609"
         transform="matrix(3.7795276,0,0,3.7795276,1148.8013,-177.22489)">
        <rect
           x="-65.034912"
           y="46.890751"
           width="150.01875"
           height="100.0125"
           id="rect1607"
           style="stroke-width:0.264583" />
      </g>
    </clipPath>
    <clipPath
       clipPathUnits="userSpaceOnUse"
       id="clipPath1611">
      <g
         id="g1615"
         transform="matrix(3.7795276,0,0,3.7795276,1148.8013,-177.22489)">
        <rect
           x="-65.034912"
           y="46.890751"
           width="150.01875"
           height="100.0125"
           id="rect1613"
           style="stroke-width:0.264583" />
      </g>
    </clipPath>
    <clipPath
       clipPathUnits="userSpaceOnUse"
       id="clipPath1617">
      <g
         id="g1621"
         transform="matrix(3.7795276,0,0,3.7795276,1148.8013,-177.22489)">
        <rect
           x="-65.034912"
           y="46.890751"
           width="150.01875"
           height="100.0125"
           id="rect1619"
           style="stroke-width:0.264583" />
      </g>
    </clipPath>
    <clipPath
       clipPathUnits="userSpaceOnUse"
       id="clipPath1623">
      <g
         id="g1627"
         transform="matrix(3.7795276,0,0,3.7795276,1148.8013,-177.22489)">
        <rect
           x="-65.034912"
           y="46.890751"
           width="150.01875"
           height="100.0125"
           id="rect1625"
           style="stroke-width:0.264583" />
      </g>
    </clipPath>
    <clipPath
       clipPathUnits="userSpaceOnUse"
       id="clipPath1629">
      <g
         id="g1633"
         transform="matrix(3.7795276,0,0,3.7795276,1148.8013,-177.22489)">
        <rect
           x="-65.034912"
           y="46.890751"
           width="150.01875"
           height="100.0125"
           id="rect1631"
           style="stroke-width:0.264583" />
      </g>
    </clipPath>
    <clipPath
       clipPathUnits="userSpaceOnUse"
       id="clipPath1635">
      <g
         id="g1639"
         transform="matrix(3.7795276,0,0,3.7795276,1148.8013,-177.22489)">
        <rect
           x="-65.034912"
           y="46.890751"
           width="150.01875"
           height="100.0125"
           id="rect1637"
           style="stroke-width:0.264583" />
      </g>
    </clipPath>
    <clipPath
       clipPathUnits="userSpaceOnUse"
       id="clipPath1641">
      <g
         id="g1645"
         transform="matrix(3.7795276,0,0,3.7795276,1148.8013,-177.22489)">
        <rect
           x="-65.034912"
           y="46.890751"
           width="150.01875"
           height="100.0125"
           id="rect1643"
           style="stroke-width:0.264583" />
      </g>
    </clipPath>
    <clipPath
       clipPathUnits="userSpaceOnUse"
       id="clipPath1647">
      <g
         id="g1651"
         transform="matrix(3.7795276,0,0,3.7795276,1148.8013,-177.22489)">
        <rect
           x="-65.034912"
           y="46.890751"
           width="150.01875"
           height="100.0125"
           id="rect1649"
           style="stroke-width:0.264583" />
      </g>
    </clipPath>
    <clipPath
       clipPathUnits="userSpaceOnUse"
       id="clipPath1653">
      <g
         id="g1657"
         transform="matrix(3.7795276,0,0,3.7795276,1148.8013,-177.22489)">
        <rect
           x="-65.034912"
           y="46.890751"
           width="150.01875"
           height="100.0125"
           id="rect1655"
           style="stroke-width:0.264583" />
      </g>
    </clipPath>
    <clipPath
       clipPathUnits="userSpaceOnUse"
       id="clipPath1659">
      <g
         id="g1663"
         transform="matrix(3.7795276,0,0,3.7795276,1148.8013,-177.22489)">
        <rect
           x="-65.034912"
           y="46.890751"
           width="150.01875"
           height="100.0125"
           id="rect1661"
           style="stroke-width:0.264583" />
      </g>
    </clipPath>
    <clipPath
       clipPathUnits="userSpaceOnUse"
       id="clipPath1665">
      <g
         id="g1669">
        <rect
           x="-65.034912"
           y="46.890751"
           width="150.01875"
           height="100.0125"
           id="rect1667"
           style="stroke-width:0.264583" />
      </g>
    </clipPath>
    <clipPath
       id="clipPath1368">
      <path
         clip-rule="nonzero"
         d="m 240,14 h 5 v 7.710938 h -5 z m 0,0"
         id="path5579" />
    </clipPath>
  </defs>
  <g
     inkscape:label="Camada 1"
     inkscape:groupmode="layer"
     id="layer1"
     transform="translate(59.647643,-54.662886)">
    <g
       id="g1166"
       transform="matrix(0.26458333,0,0,0.26458333,-303.95366,46.890751)"
       clip-path="url(#clipPath1659)">
      <path
         d="m 995.5,34.5001 h 450 m -450,32 h 450 m -450,33 h 450 M 995.5,132.5 h 450 m -450,33 h 450 m -450,33 h 450 m -450,33 h 450 m -450,33 h 450 m -450,33 h 450 m -450,33 h 450"
         stroke="#d9d9d9"
         stroke-linejoin="round"
         stroke-miterlimit="10"
         fill="none"
         id="path1164" />
    </g>
    <g
       id="g1170"
       transform="matrix(0.26458333,0,0,0.26458333,-303.95366,46.890751)"
       clip-path="url(#clipPath1653)">
      <path
         d="M 1070.5,34.5001 V 363.5 m 75,-328.9999 V 363.5 m 75,-328.9999 V 363.5 m 75,-328.9999 V 363.5 m 75,-328.9999 V 363.5 m 75,-328.9999 V 363.5"
         stroke="#d9d9d9"
         stroke-linejoin="round"
         stroke-miterlimit="10"
         fill="none"
         id="path1168" />
    </g>
    <g
       id="g1174"
       transform="matrix(0.26458333,0,0,0.26458333,-303.95366,46.890751)"
       clip-path="url(#clipPath1647)">
      <rect
         x="995.5"
         y="34.500099"
         width="450"
         height="329"
         stroke="#000000"
         stroke-linejoin="round"
         stroke-miterlimit="10"
         fill="none"
         id="rect1172" />
    </g>
    <g
       id="g1178"
       transform="matrix(0.26458333,0,0,0.26458333,-303.95366,46.890751)"
       clip-path="url(#clipPath1641)">
      <path
         d="M 995.5,34.5001 V 363.5"
         stroke="#000000"
         stroke-linejoin="round"
         stroke-miterlimit="10"
         fill="none"
         fill-rule="evenodd"
         id="path1176" />
    </g>
    <g
       id="g1182"
       transform="matrix(0.26458333,0,0,0.26458333,-303.95366,46.890751)"
       clip-path="url(#clipPath1635)">
      <path
         d="m 995.5,34.5001 h 3 m -3,6 h 3 m -3,7 h 3 m -3,6 h 3 m -3,7 h 3 m -3,6 h 3 m -3,7 h 3 m -3,7 h 3 m -3,6 h 3 m -3,7 h 3 m -3,6 h 3 m -3,6.9999 h 3 m -3,7 h 3 m -3,6 h 3 m -3,7 h 3 m -3,6 h 3 m -3,7 h 3 m -3,6 h 3 m -3,7 h 3 m -3,7 h 3 m -3,6 h 3 m -3,7 h 3 m -3,6 h 3 m -3,7 h 3 m -3,7 h 3 m -3,6 h 3 m -3,7 h 3 m -3,6 h 3 m -3,7 h 3 m -3,7 h 3 m -3,6 h 3 m -3,7 h 3 m -3,6 h 3 m -3,7 h 3 m -3,6 h 3 m -3,7 h 3 m -3,7 h 3 m -3,6 h 3 m -3,7 h 3 m -3,6 h 3 m -3,7 h 3 m -3,7 h 3 m -3,6 h 3 m -3,7 h 3 m -3,6 h 3 m -3,7 h 3 m -3,6 h 3 m -3,7 h 3 m -3,7 h 3 m -3,6 h 3 m -3,7 h 3 m -7,-328.9999 h 7 m -7,32 h 7 m -7,33 h 7 m -7,32.9999 h 7 m -7,33 h 7 m -7,33 h 7 m -7,33 h 7 m -7,33 h 7 m -7,33 h 7 m -7,33 h 7 m -7,33 h 7"
         stroke="#000000"
         stroke-linejoin="round"
         stroke-miterlimit="10"
         fill="none"
         id="path1180" />
    </g>
    <g
       id="g1186"
       transform="matrix(0.26458333,0,0,0.26458333,-303.95366,46.890751)"
       clip-path="url(#clipPath1629)">
      <path
         d="m 995.5,363.5 h 450"
         stroke="#000000"
         stroke-linejoin="round"
         stroke-miterlimit="10"
         fill="none"
         fill-rule="evenodd"
         id="path1184" />
    </g>
    <g
       id="g1190"
       transform="matrix(0.26458333,0,0,0.26458333,-303.95366,46.890751)"
       clip-path="url(#clipPath1623)">
      <path
         d="m 995.5,363.5 v 3 m 15,-3 v 3 m 15,-3 v 3 m 15,-3 v 3 m 15,-3 v 3 m 15,-3 v 3 m 15,-3 v 3 m 15,-3 v 3 m 15,-3 v 3 m 15,-3 v 3 m 15,-3 v 3 m 15,-3 v 3 m 15,-3 v 3 m 15,-3 v 3 m 15,-3 v 3 m 15,-3 v 3 m 15,-3 v 3 m 15,-3 v 3 m 15,-3 v 3 m 15,-3 v 3 m 15,-3 v 3 m 15,-3 v 3 m 15,-3 v 3 m 15,-3 v 3 m 15,-3 v 3 m 15,-3 v 3 m 15,-3 v 3 m 15,-3 v 3 m 15,-3 v 3 m 15,-3 v 3 m 15,-3 v 3 m -450,-7 v 7 m 75,-7 v 7 m 75,-7 v 7 m 75,-7 v 7 m 75,-7 v 7 m 75,-7 v 7 m 75,-7 v 7"
         stroke="#000000"
         stroke-linejoin="round"
         stroke-miterlimit="10"
         fill="none"
         id="path1188" />
    </g>
    <g
       id="g1194"
       transform="matrix(0.26458333,0,0,0.26458333,-303.95366,46.890751)"
       clip-path="url(#clipPath1617)">
      <path
         d="m 995,363 h 8 l 7,-1 8,-2 7,-3 8,-2 7,-3 8,-3 7,-4 8,-3 7,-3 8,-3 7,-3 8,-4 7,-3 8,-3 7,-3 8,-3 7,-3 8,-3 7,-4 8,-3 7,-3 8,-3 7,-3 8,-4 7,-3 8,-3 7,-4 8,-3 7,-4 8,-3 7,-4 8,-4 7,-3 8,-4 7,-4 8,-4 7,-4 8,-4 7,-4 8,-4 7,-5 8,-4 7,-5 8,-5 7,-5 8,-5 7,-6 8,-7 7,-7 8,-8 7,-9 8,-10 7,-12 8,-12 7,-13 8,-15 7,-14 8,-15 7,-11"
         stroke="#ed7d31"
         stroke-width="2"
         stroke-linecap="round"
         stroke-linejoin="round"
         stroke-miterlimit="10"
         fill="none"
         id="path1192" />
    </g>
    <g
       id="g1198"
       transform="matrix(0.26458333,0,0,0.26458333,-303.95366,46.890751)"
       clip-path="url(#clipPath1611)">
      <path
         d="m 995,363 10,-1 9,-2 9,-3 10,-4 9,-4 10,-5 9,-4 9,-4 10,-5 9,-4 9,-4 10,-5 9,-4 10,-4 9,-4 9,-5 10,-4 9,-4 9,-4 10,-5 9,-4 10,-5 9,-4 9,-5 10,-5 9,-4 9,-5 10,-5 9,-5 10,-5 9,-6 9,-5 10,-5 9,-6 9,-6 10,-6 9,-7 10,-7 9,-8 9,-10 10,-10 9,-12 9,-13 10,-14 9,-16 10,-16 9,-16 9,-9"
         stroke="#4472c4"
         stroke-width="2"
         stroke-linecap="round"
         stroke-linejoin="round"
         stroke-miterlimit="10"
         stroke-dasharray="4, 4"
         fill="none"
         id="path1196" />
    </g>
    <g
       id="g1202"
       transform="matrix(0.26458333,0,0,0.26458333,-303.95366,46.890751)">
      <text
         font-family="Arial, Arial_MSFontService, sans-serif"
         font-weight="400"
         font-size="12px"
         transform="translate(939,38)"
         id="text1200">-2.0E-05</text>
    </g>
    <g
       id="g1206"
       transform="matrix(0.26458333,0,0,0.26458333,-303.95366,46.890751)">
      <text
         font-family="Arial, Arial_MSFontService, sans-serif"
         font-weight="400"
         font-size="12px"
         transform="translate(939,71)"
         id="text1204">-1.8E-05</text>
    </g>
    <g
       id="g1210"
       transform="matrix(0.26458333,0,0,0.26458333,-303.95366,46.890751)">
      <text
         font-family="Arial, Arial_MSFontService, sans-serif"
         font-weight="400"
         font-size="12px"
         transform="translate(939,104)"
         id="text1208">-1.6E-05</text>
    </g>
    <g
       id="g1214"
       transform="matrix(0.26458333,0,0,0.26458333,-303.95366,46.890751)">
      <text
         font-family="Arial, Arial_MSFontService, sans-serif"
         font-weight="400"
         font-size="12px"
         transform="translate(939,137)"
         id="text1212">-1.4E-05</text>
    </g>
    <g
       id="g1218"
       transform="matrix(0.26458333,0,0,0.26458333,-303.95366,46.890751)">
      <text
         font-family="Arial, Arial_MSFontService, sans-serif"
         font-weight="400"
         font-size="12px"
         transform="translate(939,170)"
         id="text1216">-1.2E-05</text>
    </g>
    <g
       id="g1222"
       transform="matrix(0.26458333,0,0,0.26458333,-303.95366,46.890751)">
      <text
         font-family="Arial, Arial_MSFontService, sans-serif"
         font-weight="400"
         font-size="12px"
         transform="translate(939,203)"
         id="text1220">-1.0E-05</text>
    </g>
    <g
       id="g1226"
       transform="matrix(0.26458333,0,0,0.26458333,-303.95366,46.890751)">
      <text
         font-family="Arial, Arial_MSFontService, sans-serif"
         font-weight="400"
         font-size="12px"
         transform="translate(939,236)"
         id="text1224">-8.0E-06</text>
    </g>
    <g
       id="g1230"
       transform="matrix(0.26458333,0,0,0.26458333,-303.95366,46.890751)">
      <text
         font-family="Arial, Arial_MSFontService, sans-serif"
         font-weight="400"
         font-size="12px"
         transform="translate(939,268)"
         id="text1228">-6.0E-06</text>
    </g>
    <g
       id="g1234"
       transform="matrix(0.26458333,0,0,0.26458333,-303.95366,46.890751)">
      <text
         font-family="Arial, Arial_MSFontService, sans-serif"
         font-weight="400"
         font-size="12px"
         transform="translate(939,301)"
         id="text1232">-4.0E-06</text>
    </g>
    <g
       id="g1238"
       transform="matrix(0.26458333,0,0,0.26458333,-303.95366,46.890751)">
      <text
         font-family="Arial, Arial_MSFontService, sans-serif"
         font-weight="400"
         font-size="12px"
         transform="translate(939,334)"
         id="text1236">-2.0E-06</text>
    </g>
    <g
       id="g1242"
       transform="matrix(0.26458333,0,0,0.26458333,-303.95366,46.890751)">
      <text
         font-family="Arial, Arial_MSFontService, sans-serif"
         font-weight="400"
         font-size="12px"
         transform="translate(939.98,367)"
         id="text1240">0.0E+00</text>
    </g>
    <g
       id="g1246"
       transform="matrix(0.26458333,0,0,0.26458333,-303.95366,46.890751)">
      <text
         font-family="Arial, Arial_MSFontService, sans-serif"
         font-weight="400"
         font-size="12px"
         transform="translate(992.004,353)"
         id="text1244">0</text>
    </g>
    <g
       id="g1250"
       transform="matrix(0.26458333,0,0,0.26458333,-303.95366,46.890751)">
      <text
         font-family="Arial, Arial_MSFontService, sans-serif"
         font-weight="400"
         font-size="12px"
         transform="translate(1063.65,353)"
         id="text1248">50</text>
    </g>
    <g
       id="g1254"
       transform="matrix(0.26458333,0,0,0.26458333,-303.95366,46.890751)">
      <text
         font-family="Arial, Arial_MSFontService, sans-serif"
         font-weight="400"
         font-size="12px"
         transform="translate(1135.3,353)"
         id="text1252">100</text>
    </g>
    <g
       id="g1258"
       transform="matrix(0.26458333,0,0,0.26458333,-303.95366,46.890751)">
      <text
         font-family="Arial, Arial_MSFontService, sans-serif"
         font-weight="400"
         font-size="12px"
         transform="translate(1210.29,353)"
         id="text1256">150</text>
    </g>
    <g
       id="g1262"
       transform="matrix(0.26458333,0,0,0.26458333,-303.95366,46.890751)">
      <text
         font-family="Arial, Arial_MSFontService, sans-serif"
         font-weight="400"
         font-size="12px"
         transform="translate(1285.27,353)"
         id="text1260">200</text>
    </g>
    <g
       id="g1266"
       transform="matrix(0.26458333,0,0,0.26458333,-303.95366,46.890751)">
      <text
         font-family="Arial, Arial_MSFontService, sans-serif"
         font-weight="400"
         font-size="12px"
         transform="translate(1360.26,353)"
         id="text1264">250</text>
    </g>
    <g
       id="g1270"
       transform="matrix(0.26458333,0,0,0.26458333,-303.95366,46.890751)">
      <text
         font-family="Arial, Arial_MSFontService, sans-serif"
         font-weight="400"
         font-size="12px"
         transform="translate(1435.24,353)"
         id="text1268">300</text>
    </g>
    <g
       id="g1274"
       transform="matrix(0.26458333,0,0,0.26458333,-303.95366,46.890751)">
      <text
         font-family="Arial, Arial_MSFontService, sans-serif"
         font-weight="400"
         font-size="13px"
         transform="rotate(-90,595.8335,-336.8335)"
         id="text1272">Deslocamento radial</text>
    </g>
    <g
       id="g1282"
       transform="matrix(0.26458333,0,0,0.26458333,-303.95366,46.890751)"
       clip-path="url(#clipPath1605)">
      <rect
         x="1014.5"
         y="73.500099"
         width="105"
         height="42"
         stroke="#000000"
         stroke-linejoin="round"
         stroke-miterlimit="10"
         fill="#ffffff"
         id="rect1280" />
    </g>
    <g
       id="g1286"
       transform="matrix(0.26458333,0,0,0.26458333,-303.95366,46.890751)"
       clip-path="url(#clipPath1599)">
      <path
         d="m 1022,84 34,1e-4"
         stroke="#ed7d31"
         stroke-width="2"
         stroke-linecap="round"
         stroke-linejoin="round"
         stroke-miterlimit="10"
         fill="none"
         fill-rule="evenodd"
         id="path1284" />
    </g>
    <g
       id="g1290"
       transform="matrix(0.26458333,0,0,0.26458333,-303.95366,46.890751)">
      <text
         font-family="Arial, Arial_MSFontService, sans-serif"
         font-weight="400"
         font-size="12px"
         transform="translate(1059.67,88)"
         id="text1288">Calculado</text>
    </g>
    <g
       id="g1294"
       transform="matrix(0.26458333,0,0,0.26458333,-303.95366,46.890751)"
       clip-path="url(#clipPath1593)">
      <path
         d="m 1022,105 h 34"
         stroke="#4472c4"
         stroke-width="2"
         stroke-linecap="round"
         stroke-linejoin="round"
         stroke-miterlimit="10"
         stroke-dasharray="4, 4"
         fill="none"
         fill-rule="evenodd"
         id="path1292" />
    </g>
    <g
       id="g1298"
       transform="matrix(0.26458333,0,0,0.26458333,-303.95366,46.890751)">
      <text
         font-family="Arial, Arial_MSFontService, sans-serif"
         font-weight="400"
         font-size="12px"
         transform="translate(1059.67,109)"
         id="text1296">ANSYS</text>
    </g>
    <g
       inkscape:label=""
       transform="translate(16.503379,145.54157)"
       id="g1976">
      <g
         fill="#000000"
         fill-opacity="1"
         id="g19"
         transform="matrix(0.352778,0,0,0.352778,-81.4311,-4.06938)">
        <g
           id="use17"
           transform="translate(230.34399,19.129)">
          <path
             d="m 8.15625,-7.03125 c -0.546875,0.109375 -0.75,0.515625 -0.75,0.84375 0,0.421875 0.328125,0.5625 0.5625,0.5625 0.515625,0 0.875,-0.453125 0.875,-0.921875 0,-0.71875 -0.8125,-1.046875 -1.546875,-1.046875 -1.046875,0 -1.625,1.03125 -1.78125,1.359375 -0.40625,-1.296875 -1.46875,-1.359375 -1.78125,-1.359375 -1.75,0 -2.6875,2.25 -2.6875,2.640625 0,0.0625 0.078125,0.15625 0.1875,0.15625 0.140625,0 0.171875,-0.109375 0.21875,-0.171875 C 2.03125,-6.890625 3.1875,-7.25 3.6875,-7.25 c 0.765625,0 0.921875,0.71875 0.921875,1.140625 0,0.375 -0.09375,0.765625 -0.296875,1.59375 L 3.71875,-2.15625 c -0.25,1.03125 -0.75,1.984375 -1.671875,1.984375 -0.078125,0 -0.515625,0 -0.875,-0.21875 0.625,-0.125 0.75,-0.640625 0.75,-0.84375 0,-0.34375 -0.25,-0.5625 -0.578125,-0.5625 -0.40625,0 -0.859375,0.375 -0.859375,0.921875 0,0.71875 0.8125,1.046875 1.546875,1.046875 0.828125,0 1.40625,-0.65625 1.78125,-1.359375 0.265625,1.015625 1.125,1.359375 1.765625,1.359375 1.75,0 2.6875,-2.25 2.6875,-2.640625 0,-0.078125 -0.0625,-0.15625 -0.171875,-0.15625 -0.15625,0 -0.171875,0.09375 -0.21875,0.234375 -0.46875,1.515625 -1.46875,2.21875 -2.25,2.21875 -0.59375,0 -0.921875,-0.453125 -0.921875,-1.15625 0,-0.375 0.0625,-0.65625 0.34375,-1.78125 l 0.59375,-2.34375 C 5.90625,-6.484375 6.484375,-7.25 7.28125,-7.25 c 0.03125,0 0.515625,0 0.875,0.21875 z m 0,0"
             id="path31" />
        </g>
      </g>
      <g
         clip-path="url(#clipPath1368)"
         id="g25"
         transform="matrix(0.352778,0,0,0.352778,-81.4311,-4.06938)">
        <g
           fill="#000000"
           fill-opacity="1"
           id="g23">
          <g
             id="use21"
             transform="translate(239.923,21.711)">
            <path
               d="m 1.390625,-0.84375 1.15625,-1.125 c 1.703125,-1.5 2.34375,-2.09375 2.34375,-3.171875 0,-1.25 -0.96875,-2.125 -2.3125,-2.125 -1.21875,0 -2.03125,1 -2.03125,1.96875 0,0.625 0.546875,0.625 0.578125,0.625 0.1875,0 0.5625,-0.140625 0.5625,-0.578125 0,-0.296875 -0.1875,-0.578125 -0.578125,-0.578125 -0.078125,0 -0.109375,0 -0.140625,0.015625 0.25,-0.703125 0.84375,-1.109375 1.46875,-1.109375 1,0 1.46875,0.875 1.46875,1.78125 0,0.859375 -0.546875,1.734375 -1.140625,2.40625 l -2.09375,2.328125 c -0.125,0.125 -0.125,0.140625 -0.125,0.40625 H 4.59375 L 4.890625,-1.890625 H 4.625 C 4.5625,-1.578125 4.5,-1.09375 4.390625,-0.921875 4.3125,-0.84375 3.59375,-0.84375 3.34375,-0.84375 Z m 0,0"
               id="path35" />
          </g>
        </g>
      </g>
    </g>
  </g>
</svg>
