<?xml version="1.0" encoding="UTF-8" standalone="no"?>
<!-- Created with Inkscape (http://www.inkscape.org/) -->

<svg
   width="140.58162mm"
   height="89.368706mm"
   viewBox="0 0 140.58162 89.368708"
   version="1.1"
   id="svg5"
   sodipodi:docname="deslocamento2.svg"
   inkscape:version="1.2.1 (9c6d41e410, 2022-07-14)"
   xmlns:inkscape="http://www.inkscape.org/namespaces/inkscape"
   xmlns:sodipodi="http://sodipodi.sourceforge.net/DTD/sodipodi-0.dtd"
   xmlns="http://www.w3.org/2000/svg"
   xmlns:svg="http://www.w3.org/2000/svg">
  <sodipodi:namedview
     id="namedview7"
     pagecolor="#ffffff"
     bordercolor="#000000"
     borderopacity="0.25"
     inkscape:showpageshadow="2"
     inkscape:pageopacity="0.0"
     inkscape:pagecheckerboard="0"
     inkscape:deskcolor="#d1d1d1"
     inkscape:document-units="mm"
     showgrid="false"
     inkscape:zoom="1.4912879"
     inkscape:cx="207.87402"
     inkscape:cy="130.75946"
     inkscape:window-width="1920"
     inkscape:window-height="1017"
     inkscape:window-x="1912"
     inkscape:window-y="-8"
     inkscape:window-maximized="1"
     inkscape:current-layer="layer1" />
  <defs
     id="defs2">
    <clipPath
       clipPathUnits="userSpaceOnUse"
       id="clipPath576">
      <g
         id="g580"
         transform="matrix(3.7795276,0,0,3.7795276,984.67273,-107.90247)">
        <rect
           x="-22.138411"
           y="127.76794"
           width="150.01875"
           height="100.0125"
           id="rect578"
           style="stroke-width:0.264583" />
      </g>
    </clipPath>
    <clipPath
       clipPathUnits="userSpaceOnUse"
       id="clipPath582">
      <g
         id="g586"
         transform="matrix(3.7795276,0,0,3.7795276,984.67273,-107.90247)">
        <rect
           x="-22.138411"
           y="127.76794"
           width="150.01875"
           height="100.0125"
           id="rect584"
           style="stroke-width:0.264583" />
      </g>
    </clipPath>
    <clipPath
       clipPathUnits="userSpaceOnUse"
       id="clipPath588">
      <g
         id="g592"
         transform="matrix(3.7795276,0,0,3.7795276,984.67273,-107.90247)">
        <rect
           x="-22.138411"
           y="127.76794"
           width="150.01875"
           height="100.0125"
           id="rect590"
           style="stroke-width:0.264583" />
      </g>
    </clipPath>
    <clipPath
       clipPathUnits="userSpaceOnUse"
       id="clipPath594">
      <g
         id="g598"
         transform="matrix(3.7795276,0,0,3.7795276,984.67273,-107.90247)">
        <rect
           x="-22.138411"
           y="127.76794"
           width="150.01875"
           height="100.0125"
           id="rect596"
           style="stroke-width:0.264583" />
      </g>
    </clipPath>
    <clipPath
       clipPathUnits="userSpaceOnUse"
       id="clipPath600">
      <g
         id="g604"
         transform="matrix(3.7795276,0,0,3.7795276,984.67273,-107.90247)">
        <rect
           x="-22.138411"
           y="127.76794"
           width="150.01875"
           height="100.0125"
           id="rect602"
           style="stroke-width:0.264583" />
      </g>
    </clipPath>
    <clipPath
       clipPathUnits="userSpaceOnUse"
       id="clipPath606">
      <g
         id="g610"
         transform="matrix(3.7795276,0,0,3.7795276,984.67273,-107.90247)">
        <rect
           x="-22.138411"
           y="127.76794"
           width="150.01875"
           height="100.0125"
           id="rect608"
           style="stroke-width:0.264583" />
      </g>
    </clipPath>
    <clipPath
       clipPathUnits="userSpaceOnUse"
       id="clipPath612">
      <g
         id="g616"
         transform="matrix(3.7795276,0,0,3.7795276,984.67273,-107.90247)">
        <rect
           x="-22.138411"
           y="127.76794"
           width="150.01875"
           height="100.0125"
           id="rect614"
           style="stroke-width:0.264583" />
      </g>
    </clipPath>
    <clipPath
       clipPathUnits="userSpaceOnUse"
       id="clipPath618">
      <g
         id="g622"
         transform="matrix(3.7795276,0,0,3.7795276,984.67273,-107.90247)">
        <rect
           x="-22.138411"
           y="127.76794"
           width="150.01875"
           height="100.0125"
           id="rect620"
           style="stroke-width:0.264583" />
      </g>
    </clipPath>
    <clipPath
       clipPathUnits="userSpaceOnUse"
       id="clipPath624">
      <g
         id="g628"
         transform="matrix(3.7795276,0,0,3.7795276,984.67273,-107.90247)">
        <rect
           x="-22.138411"
           y="127.76794"
           width="150.01875"
           height="100.0125"
           id="rect626"
           style="stroke-width:0.264583" />
      </g>
    </clipPath>
    <clipPath
       clipPathUnits="userSpaceOnUse"
       id="clipPath630">
      <g
         id="g634"
         transform="matrix(3.7795276,0,0,3.7795276,984.67273,-107.90247)">
        <rect
           x="-22.138411"
           y="127.76794"
           width="150.01875"
           height="100.0125"
           id="rect632"
           style="stroke-width:0.264583" />
      </g>
    </clipPath>
    <clipPath
       clipPathUnits="userSpaceOnUse"
       id="clipPath636">
      <g
         id="g640"
         transform="matrix(3.7795276,0,0,3.7795276,984.67273,-107.90247)">
        <rect
           x="-22.138411"
           y="127.76794"
           width="150.01875"
           height="100.0125"
           id="rect638"
           style="stroke-width:0.264583" />
      </g>
    </clipPath>
    <clipPath
       clipPathUnits="userSpaceOnUse"
       id="clipPath642">
      <g
         id="g646"
         transform="matrix(3.7795276,0,0,3.7795276,984.67273,-107.90247)">
        <rect
           x="-22.138411"
           y="127.76794"
           width="150.01875"
           height="100.0125"
           id="rect644"
           style="stroke-width:0.264583" />
      </g>
    </clipPath>
    <clipPath
       clipPathUnits="userSpaceOnUse"
       id="clipPath648">
      <g
         id="g652">
        <rect
           x="-22.138411"
           y="127.76794"
           width="150.01875"
           height="100.0125"
           id="rect650"
           style="stroke-width:0.264583" />
      </g>
    </clipPath>
    <clipPath
       id="clipPath4029">
      <path
         clip-rule="nonzero"
         d="m 234,7 h 8 v 12.128906 h -8 z m 0,0"
         id="path2076" />
    </clipPath>
  </defs>
  <g
     inkscape:label="Camada 1"
     inkscape:groupmode="layer"
     id="layer1"
     transform="translate(16.75114,-135.54008)">
    <g
       id="g141"
       transform="matrix(0.26458333,0,0,0.26458333,-260.52799,28.549195)"
       clip-path="url(#clipPath642)">
      <path
         d="m 993.5,409.5 h 453 m -453,54 h 453 m -453,55 h 453 m -453,55 h 453 m -453,110 h 453 m -453,55 h 453"
         stroke="#d9d9d9"
         stroke-linejoin="round"
         stroke-miterlimit="10"
         fill="none"
         id="path139" />
    </g>
    <g
       id="g145"
       transform="matrix(0.26458333,0,0,0.26458333,-260.52799,28.549195)"
       clip-path="url(#clipPath636)">
      <path
         d="m 1043.5,409.5 v 329 m 51,-329 v 329 m 50,-329 v 329 m 50,-329 v 329 m 51,-329 v 329 m 50,-329 v 329 m 50,-329 v 329 m 51,-329 v 329 m 50,-329 v 329"
         stroke="#d9d9d9"
         stroke-linejoin="round"
         stroke-miterlimit="10"
         fill="none"
         id="path143" />
    </g>
    <g
       id="g149"
       transform="matrix(0.26458333,0,0,0.26458333,-260.52799,28.549195)"
       clip-path="url(#clipPath630)">
      <rect
         x="993.5"
         y="409.5"
         width="453"
         height="329"
         stroke="#000000"
         stroke-linejoin="round"
         stroke-miterlimit="10"
         fill="none"
         id="rect147" />
    </g>
    <g
       id="g153"
       transform="matrix(0.26458333,0,0,0.26458333,-260.52799,28.549195)"
       clip-path="url(#clipPath624)">
      <path
         d="m 993.5,409.5 v 329"
         stroke="#000000"
         stroke-linejoin="round"
         stroke-miterlimit="10"
         fill="none"
         fill-rule="evenodd"
         id="path151" />
    </g>
    <g
       id="g157"
       transform="matrix(0.26458333,0,0,0.26458333,-260.52799,28.549195)"
       clip-path="url(#clipPath618)">
      <path
         d="m 993.5,409.5 h 3 m -3,10 h 3 m -3,11 h 3 m -3,11 h 3 m -3,11 h 3 m -3,11 h 3 m -3,11 h 3 m -3,11 h 3 m -3,11 h 3 m -3,11 h 3 m -3,11 h 3 m -3,11 h 3 m -3,11 h 3 m -3,11 h 3 m -3,11 h 3 m -3,11 h 3 m -3,11 h 3 m -3,11 h 3 m -3,11 h 3 m -3,11 h 3 m -3,11 h 3 m -3,11 h 3 m -3,11 h 3 m -3,11 h 3 m -3,11 h 3 m -3,11 h 3 m -3,11 h 3 m -3,11 h 3 m -3,11 h 3 m -3,11 h 3 m -3,11 h 3 m -7,-329 h 7 m -7,54 h 7 m -7,55 h 7 m -7,55 h 7 m -7,55 h 7 m -7,55 h 7 m -7,55 h 7"
         stroke="#000000"
         stroke-linejoin="round"
         stroke-miterlimit="10"
         fill="none"
         id="path155" />
    </g>
    <g
       id="g161"
       transform="matrix(0.26458333,0,0,0.26458333,-260.52799,28.549195)"
       clip-path="url(#clipPath612)">
      <path
         d="m 993.5,628.5 h 453"
         stroke="#000000"
         stroke-linejoin="round"
         stroke-miterlimit="10"
         fill="none"
         fill-rule="evenodd"
         id="path159" />
    </g>
    <g
       id="g165"
       transform="matrix(0.26458333,0,0,0.26458333,-260.52799,28.549195)"
       clip-path="url(#clipPath606)">
      <path
         d="m 993.5,628.5 v 3 m 10,-3 v 3 m 10,-3 v 3 m 10,-3 v 3 m 10,-3 v 3 m 10,-3 v 3 m 10,-3 v 3 m 10,-3 v 3 m 10,-3 v 3 m 10,-3 v 3 m 11,-3 v 3 m 10,-3 v 3 m 10,-3 v 3 m 10,-3 v 3 m 10,-3 v 3 m 10,-3 v 3 m 10,-3 v 3 m 10,-3 v 3 m 10,-3 v 3 m 10,-3 v 3 m 10,-3 v 3 m 10,-3 v 3 m 10,-3 v 3 m 11,-3 v 3 m 10,-3 v 3 m 10,-3 v 3 m 10,-3 v 3 m 10,-3 v 3 m 10,-3 v 3 m 10,-3 v 3 m 10,-3 v 3 m 10,-3 v 3 m 10,-3 v 3 m 10,-3 v 3 m 10,-3 v 3 m 10,-3 v 3 m 10,-3 v 3 m 11,-3 v 3 m 10,-3 v 3 m 10,-3 v 3 m 10,-3 v 3 m 10,-3 v 3 m 10,-3 v 3 m 10,-3 v 3 m 10,-3 v 3 m 10,-3 v 3 m -453,-7 v 8 m 50,-8 v 8 m 51,-8 v 8 m 50,-8 v 8 m 50,-8 v 8 m 51,-8 v 8 m 50,-8 v 8 m 50,-8 v 8 m 51,-8 v 8 m 50,-8 v 8"
         stroke="#000000"
         stroke-linejoin="round"
         stroke-miterlimit="10"
         fill="none"
         id="path163" />
    </g>
    <g
       id="g169"
       transform="matrix(0.26458333,0,0,0.26458333,-260.52799,28.549195)"
       clip-path="url(#clipPath600)">
      <path
         d="m 993,627 h 14 l 14,-1 14,-1 13,-1 13,-1 13,-2 13,-1 12,-1 12,-1 h 12 11 l 12,1 11,1 10,2 11,3 10,3 10,4 10,5 10,5 10,5 9,6 9,5 9,6 9,5 8,5 9,5 8,4 8,3 8,2 7,2 h 8 l 7,-2 8,-2 7,-4 7,-6 6,-8 7,-9 7,-10 6,-12 6,-14 6,-15 6,-17 6,-18 6,-18 5,-19 6,-20 5,-19 6,-18 5,-17 5,-16 5,-11 5,-6"
         stroke="#ed7d31"
         stroke-width="2"
         stroke-linecap="round"
         stroke-linejoin="round"
         stroke-miterlimit="10"
         fill="none"
         id="path167" />
    </g>
    <g
       id="g173"
       transform="matrix(0.26458333,0,0,0.26458333,-260.52799,28.549195)"
       clip-path="url(#clipPath594)">
      <path
         d="m 1447,429 -7,9 -6,16 -6,19 -7,21 -6,22 -6,21 -6,21 -7,20 -6,18 -6,17 -7,15 -6,14 -6,12 -7,10 -6,8 -6,7 -6,6 -7,4 -6,3 -6,2 -7,1 h -6 l -6,-1 -6,-2 -7,-2 -6,-3 -6,-4 -7,-3 -6,-4 -6,-4 -7,-4 -6,-5 -6,-4 -6,-4 -7,-5 -6,-4 -6,-4 -7,-3 -6,-4 -6,-3 -7,-3 -6,-3 -6,-2 -6,-3 -7,-1 -6,-2 -6,-1 -7,-1 -6,-1 h -6 l -6,-1 h -7 l -6,1 h -6 l -7,1 h -6 l -6,1 -7,1 -6,1 -6,1 -6,1 -7,1 -6,1 -6,1 -7,1 -6,1 h -6 l -6,1 h -7 l -6,1 h -6 -7 v 1"
         stroke="#4472c4"
         stroke-width="2"
         stroke-linecap="round"
         stroke-linejoin="round"
         stroke-miterlimit="10"
         stroke-dasharray="4, 4"
         fill="none"
         id="path171" />
    </g>
    <g
       id="g177"
       transform="matrix(0.26458333,0,0,0.26458333,-260.52799,28.549195)">
      <text
         font-family="Arial, Arial_MSFontService, sans-serif"
         font-weight="400"
         font-size="12px"
         transform="translate(937,413)"
         id="text175">-2.0E-05</text>
    </g>
    <g
       id="g181"
       transform="matrix(0.26458333,0,0,0.26458333,-260.52799,28.549195)">
      <text
         font-family="Arial, Arial_MSFontService, sans-serif"
         font-weight="400"
         font-size="12px"
         transform="translate(937,468)"
         id="text179">-1.5E-05</text>
    </g>
    <g
       id="g185"
       transform="matrix(0.26458333,0,0,0.26458333,-260.52799,28.549195)">
      <text
         font-family="Arial, Arial_MSFontService, sans-serif"
         font-weight="400"
         font-size="12px"
         transform="translate(937,523)"
         id="text183">-1.0E-05</text>
    </g>
    <g
       id="g189"
       transform="matrix(0.26458333,0,0,0.26458333,-260.52799,28.549195)">
      <text
         font-family="Arial, Arial_MSFontService, sans-serif"
         font-weight="400"
         font-size="12px"
         transform="translate(937,578)"
         id="text187">-5.0E-06</text>
    </g>
    <g
       id="g193"
       transform="matrix(0.26458333,0,0,0.26458333,-260.52799,28.549195)">
      <text
         font-family="Arial, Arial_MSFontService, sans-serif"
         font-weight="400"
         font-size="12px"
         transform="translate(937.98,633)"
         id="text191">0.0E+00</text>
    </g>
    <g
       id="g197"
       transform="matrix(0.26458333,0,0,0.26458333,-260.52799,28.549195)">
      <text
         font-family="Arial, Arial_MSFontService, sans-serif"
         font-weight="400"
         font-size="12px"
         transform="translate(940.993,687)"
         id="text195">5.0E-06</text>
    </g>
    <g
       id="g201"
       transform="matrix(0.26458333,0,0,0.26458333,-260.52799,28.549195)">
      <text
         font-family="Arial, Arial_MSFontService, sans-serif"
         font-weight="400"
         font-size="12px"
         transform="translate(940.993,742)"
         id="text199">1.0E-05</text>
    </g>
    <g
       id="g205"
       transform="matrix(0.26458333,0,0,0.26458333,-260.52799,28.549195)">
      <text
         font-family="Arial, Arial_MSFontService, sans-serif"
         font-weight="400"
         font-size="12px"
         transform="translate(990.004,618)"
         id="text203">0</text>
    </g>
    <g
       id="g209"
       transform="matrix(0.26458333,0,0,0.26458333,-260.52799,28.549195)">
      <text
         font-family="Arial, Arial_MSFontService, sans-serif"
         font-weight="400"
         font-size="12px"
         transform="translate(1037.03,618)"
         id="text207">10</text>
    </g>
    <g
       id="g213"
       transform="matrix(0.26458333,0,0,0.26458333,-260.52799,28.549195)">
      <text
         font-family="Arial, Arial_MSFontService, sans-serif"
         font-weight="400"
         font-size="12px"
         transform="translate(1087.39,618)"
         id="text211">20</text>
    </g>
    <g
       id="g217"
       transform="matrix(0.26458333,0,0,0.26458333,-260.52799,28.549195)">
      <text
         font-family="Arial, Arial_MSFontService, sans-serif"
         font-weight="400"
         font-size="12px"
         transform="translate(1137.75,618)"
         id="text215">30</text>
    </g>
    <g
       id="g221"
       transform="matrix(0.26458333,0,0,0.26458333,-260.52799,28.549195)">
      <text
         font-family="Arial, Arial_MSFontService, sans-serif"
         font-weight="400"
         font-size="12px"
         transform="translate(1188.11,618)"
         id="text219">40</text>
    </g>
    <g
       id="g225"
       transform="matrix(0.26458333,0,0,0.26458333,-260.52799,28.549195)">
      <text
         font-family="Arial, Arial_MSFontService, sans-serif"
         font-weight="400"
         font-size="12px"
         transform="translate(1238.47,618)"
         id="text223">50</text>
    </g>
    <g
       id="g229"
       transform="matrix(0.26458333,0,0,0.26458333,-260.52799,28.549195)">
      <text
         font-family="Arial, Arial_MSFontService, sans-serif"
         font-weight="400"
         font-size="12px"
         transform="translate(1288.83,618)"
         id="text227">60</text>
    </g>
    <g
       id="g233"
       transform="matrix(0.26458333,0,0,0.26458333,-260.52799,28.549195)">
      <text
         font-family="Arial, Arial_MSFontService, sans-serif"
         font-weight="400"
         font-size="12px"
         transform="translate(1339.19,618)"
         id="text231">70</text>
    </g>
    <g
       id="g237"
       transform="matrix(0.26458333,0,0,0.26458333,-260.52799,28.549195)">
      <text
         font-family="Arial, Arial_MSFontService, sans-serif"
         font-weight="400"
         font-size="12px"
         transform="translate(1389.55,618)"
         id="text235">80</text>
    </g>
    <g
       id="g241"
       transform="matrix(0.26458333,0,0,0.26458333,-260.52799,28.549195)">
      <text
         font-family="Arial, Arial_MSFontService, sans-serif"
         font-weight="400"
         font-size="12px"
         transform="translate(1439.92,618)"
         id="text239">90</text>
    </g>
    <g
       id="g245"
       transform="matrix(0.26458333,0,0,0.26458333,-260.52799,28.549195)">
      <text
         font-family="Arial, Arial_MSFontService, sans-serif"
         font-weight="400"
         font-size="13px"
         transform="rotate(-90,782.3335,-148.3335)"
         id="text243">Deslocamento radial</text>
    </g>
    <g
       id="g253"
       transform="matrix(0.26458333,0,0,0.26458333,-260.52799,28.549195)"
       clip-path="url(#clipPath588)">
      <rect
         x="1024.5"
         y="468.5"
         width="110"
         height="42"
         stroke="#000000"
         stroke-linejoin="round"
         stroke-miterlimit="10"
         fill="#ffffff"
         id="rect251" />
    </g>
    <g
       id="g257"
       transform="matrix(0.26458333,0,0,0.26458333,-260.52799,28.549195)"
       clip-path="url(#clipPath582)">
      <path
         d="m 1035,479 h 34"
         stroke="#ed7d31"
         stroke-width="2"
         stroke-linecap="round"
         stroke-linejoin="round"
         stroke-miterlimit="10"
         fill="none"
         fill-rule="evenodd"
         id="path255" />
    </g>
    <g
       id="g261"
       transform="matrix(0.26458333,0,0,0.26458333,-260.52799,28.549195)">
      <text
         font-family="Arial, Arial_MSFontService, sans-serif"
         font-weight="400"
         font-size="12px"
         transform="translate(1072.44,483)"
         id="text259">Calculado</text>
    </g>
    <g
       id="g265"
       transform="matrix(0.26458333,0,0,0.26458333,-260.52799,28.549195)"
       clip-path="url(#clipPath576)">
      <path
         d="m 1035,500 h 34"
         stroke="#4472c4"
         stroke-width="2"
         stroke-linecap="round"
         stroke-linejoin="round"
         stroke-miterlimit="10"
         stroke-dasharray="4, 4"
         fill="none"
         fill-rule="evenodd"
         id="path263" />
    </g>
    <g
       id="g269"
       transform="matrix(0.26458333,0,0,0.26458333,-260.52799,28.549195)">
      <text
         font-family="Arial, Arial_MSFontService, sans-serif"
         font-weight="400"
         font-size="12px"
         transform="translate(1072.44,504)"
         id="text267">ANSYS</text>
    </g>
    <g
       inkscape:label=""
       transform="translate(118.13517,196.43949)"
       id="g872">
      <g
         clip-path="url(#clipPath4029)"
         id="g17"
         transform="matrix(0.352778,0,0,0.352778,-82.7742,-2.4705)">
        <g
           fill="#000000"
           fill-opacity="1"
           id="g15">
          <g
             id="use13"
             transform="translate(233.948,19.128)">
            <path
               d="M 7.625,-8.65625 C 7.625,-10.421875 7.078125,-12.125 5.671875,-12.125 3.25,-12.125 0.6875,-7.078125 0.6875,-3.28125 0.6875,-2.5 0.859375,0.171875 2.671875,0.171875 5.015625,0.171875 7.625,-4.75 7.625,-8.65625 Z m -5.21875,2.421875 c 0.265625,-1.015625 0.625,-2.46875 1.3125,-3.6875 0.5625,-1.03125 1.171875,-1.859375 1.921875,-1.859375 0.578125,0 0.953125,0.484375 0.953125,2.140625 0,0.625 -0.046875,1.484375 -0.546875,3.40625 z M 5.921875,-5.71875 C 5.5,-4.03125 5.125,-2.9375 4.515625,-1.859375 c -0.5,0.875 -1.109375,1.6875 -1.828125,1.6875 -0.53125,0 -0.96875,-0.40625 -0.96875,-2.125 0,-1.109375 0.28125,-2.28125 0.546875,-3.421875 z m 0,0"
               id="path23" />
          </g>
        </g>
      </g>
    </g>
  </g>
</svg>
