<?xml version="1.0" encoding="UTF-8" standalone="no"?>
<!-- Created with Inkscape (http://www.inkscape.org/) -->

<svg
   width="140.57999mm"
   height="99.31131mm"
   viewBox="0 0 140.57998 99.311313"
   version="1.1"
   id="svg2840"
   sodipodi:docname="deslocamento1.svg"
   inkscape:version="1.2.1 (9c6d41e410, 2022-07-14)"
   xmlns:inkscape="http://www.inkscape.org/namespaces/inkscape"
   xmlns:sodipodi="http://sodipodi.sourceforge.net/DTD/sodipodi-0.dtd"
   xmlns="http://www.w3.org/2000/svg"
   xmlns:svg="http://www.w3.org/2000/svg">
  <sodipodi:namedview
     id="namedview2842"
     pagecolor="#ffffff"
     bordercolor="#000000"
     borderopacity="0.25"
     inkscape:showpageshadow="2"
     inkscape:pageopacity="0.0"
     inkscape:pagecheckerboard="0"
     inkscape:deskcolor="#d1d1d1"
     inkscape:document-units="mm"
     showgrid="false"
     inkscape:lockguides="true"
     inkscape:zoom="2.1089995"
     inkscape:cx="272.64112"
     inkscape:cy="225.69943"
     inkscape:window-width="1920"
     inkscape:window-height="1017"
     inkscape:window-x="1912"
     inkscape:window-y="-8"
     inkscape:window-maximized="1"
     inkscape:current-layer="layer1" />
  <defs
     id="defs2837">
    <clipPath
       clipPathUnits="userSpaceOnUse"
       id="clipPath3247">
      <g
         id="g3251"
         transform="matrix(3.7795276,0,0,3.7795276,438.15353,-617.01476)">
        <rect
           x="122.99062"
           y="163.25182"
           width="150.01875"
           height="100.0125"
           id="rect3249"
           style="stroke-width:0.264583" />
      </g>
    </clipPath>
    <clipPath
       clipPathUnits="userSpaceOnUse"
       id="clipPath3253">
      <g
         id="g3257"
         transform="matrix(3.7795276,0,0,3.7795276,438.15353,-617.01476)">
        <rect
           x="122.99062"
           y="163.25182"
           width="150.01875"
           height="100.0125"
           id="rect3255"
           style="stroke-width:0.264583" />
      </g>
    </clipPath>
    <clipPath
       clipPathUnits="userSpaceOnUse"
       id="clipPath3259">
      <g
         id="g3263"
         transform="matrix(3.7795276,0,0,3.7795276,438.15353,-617.01476)">
        <rect
           x="122.99062"
           y="163.25182"
           width="150.01875"
           height="100.0125"
           id="rect3261"
           style="stroke-width:0.264583" />
      </g>
    </clipPath>
    <clipPath
       clipPathUnits="userSpaceOnUse"
       id="clipPath3265">
      <g
         id="g3269"
         transform="matrix(3.7795276,0,0,3.7795276,438.15353,-617.01476)">
        <rect
           x="122.99062"
           y="163.25182"
           width="150.01875"
           height="100.0125"
           id="rect3267"
           style="stroke-width:0.264583" />
      </g>
    </clipPath>
    <clipPath
       clipPathUnits="userSpaceOnUse"
       id="clipPath3271">
      <g
         id="g3275"
         transform="matrix(3.7795276,0,0,3.7795276,438.15353,-617.01476)">
        <rect
           x="122.99062"
           y="163.25182"
           width="150.01875"
           height="100.0125"
           id="rect3273"
           style="stroke-width:0.264583" />
      </g>
    </clipPath>
    <clipPath
       clipPathUnits="userSpaceOnUse"
       id="clipPath3277">
      <g
         id="g3281"
         transform="matrix(3.7795276,0,0,3.7795276,438.15353,-617.01476)">
        <rect
           x="122.99062"
           y="163.25182"
           width="150.01875"
           height="100.0125"
           id="rect3279"
           style="stroke-width:0.264583" />
      </g>
    </clipPath>
    <clipPath
       clipPathUnits="userSpaceOnUse"
       id="clipPath3283">
      <g
         id="g3287"
         transform="matrix(3.7795276,0,0,3.7795276,438.15353,-617.01476)">
        <rect
           x="122.99062"
           y="163.25182"
           width="150.01875"
           height="100.0125"
           id="rect3285"
           style="stroke-width:0.264583" />
      </g>
    </clipPath>
    <clipPath
       clipPathUnits="userSpaceOnUse"
       id="clipPath3289">
      <g
         id="g3293"
         transform="matrix(3.7795276,0,0,3.7795276,438.15353,-617.01476)">
        <rect
           x="122.99062"
           y="163.25182"
           width="150.01875"
           height="100.0125"
           id="rect3291"
           style="stroke-width:0.264583" />
      </g>
    </clipPath>
    <clipPath
       clipPathUnits="userSpaceOnUse"
       id="clipPath3295">
      <g
         id="g3299"
         transform="matrix(3.7795276,0,0,3.7795276,438.15353,-617.01476)">
        <rect
           x="122.99062"
           y="163.25182"
           width="150.01875"
           height="100.0125"
           id="rect3297"
           style="stroke-width:0.264583" />
      </g>
    </clipPath>
    <clipPath
       clipPathUnits="userSpaceOnUse"
       id="clipPath3301">
      <g
         id="g3305"
         transform="matrix(3.7795276,0,0,3.7795276,438.15353,-617.01476)">
        <rect
           x="122.99062"
           y="163.25182"
           width="150.01875"
           height="100.0125"
           id="rect3303"
           style="stroke-width:0.264583" />
      </g>
    </clipPath>
    <clipPath
       clipPathUnits="userSpaceOnUse"
       id="clipPath3307">
      <g
         id="g3311"
         transform="matrix(3.7795276,0,0,3.7795276,438.15353,-617.01476)">
        <rect
           x="122.99062"
           y="163.25182"
           width="150.01875"
           height="100.0125"
           id="rect3309"
           style="stroke-width:0.264583" />
      </g>
    </clipPath>
    <clipPath
       clipPathUnits="userSpaceOnUse"
       id="clipPath3313">
      <g
         id="g3317"
         transform="matrix(3.7795276,0,0,3.7795276,438.15353,-617.01476)">
        <rect
           x="122.99062"
           y="163.25182"
           width="150.01875"
           height="100.0125"
           id="rect3315"
           style="stroke-width:0.264583" />
      </g>
    </clipPath>
    <clipPath
       clipPathUnits="userSpaceOnUse"
       id="clipPath3319">
      <g
         id="g3323">
        <rect
           x="122.99062"
           y="163.25182"
           width="150.01875"
           height="100.0125"
           id="rect3321"
           style="stroke-width:0.264583" />
      </g>
    </clipPath>
    <clipPath
       id="clipPath852">
      <path
         clip-rule="nonzero"
         d="m 240,14 h 5 v 7.710938 h -5 z m 0,0"
         id="path9189" />
    </clipPath>
  </defs>
  <g
     inkscape:label="Camada 1"
     inkscape:groupmode="layer"
     id="layer1"
     transform="translate(-128.3779,-165.99687)">
    <g
       id="g2970"
       transform="matrix(0.26458333,0,0,0.26458333,-115.92812,163.25182)"
       clip-path="url(#clipPath3313)">
      <path
         d="m 995.5,14.5001 h 450 m -450,35 h 450 m -450,35 h 450 M 995.5,119.5 h 450 m -450,35 h 450 m -450,35 h 450 m -450,34 h 450 m -450,35 h 450 m -450,35 h 450 m -450,35 h 450"
         stroke="#d9d9d9"
         stroke-linejoin="round"
         stroke-miterlimit="10"
         fill="none"
         id="path2968" />
    </g>
    <g
       id="g2974"
       transform="matrix(0.26458333,0,0,0.26458333,-115.92812,163.25182)"
       clip-path="url(#clipPath3307)">
      <path
         d="M 1070.5,14.5001 V 363.5 m 75,-348.9999 V 363.5 m 75,-348.9999 V 363.5 m 75,-348.9999 V 363.5 m 75,-348.9999 V 363.5 m 75,-348.9999 V 363.5"
         stroke="#d9d9d9"
         stroke-linejoin="round"
         stroke-miterlimit="10"
         fill="none"
         id="path2972" />
    </g>
    <g
       id="g2978"
       transform="matrix(0.26458333,0,0,0.26458333,-115.92812,163.25182)"
       clip-path="url(#clipPath3301)">
      <rect
         x="995.5"
         y="14.5001"
         width="450"
         height="349"
         stroke="#000000"
         stroke-linejoin="round"
         stroke-miterlimit="10"
         fill="none"
         id="rect2976" />
    </g>
    <g
       id="g2982"
       transform="matrix(0.26458333,0,0,0.26458333,-115.92812,163.25182)"
       clip-path="url(#clipPath3295)">
      <path
         d="M 995.5,14.5001 V 363.5"
         stroke="#000000"
         stroke-linejoin="round"
         stroke-miterlimit="10"
         fill="none"
         fill-rule="evenodd"
         id="path2980" />
    </g>
    <g
       id="g2986"
       transform="matrix(0.26458333,0,0,0.26458333,-115.92812,163.25182)"
       clip-path="url(#clipPath3289)">
      <path
         d="m 995.5,14.5001 h 3 m -3,7 h 3 m -3,7 h 3 m -3,7 h 3 m -3,7 h 3 m -3,7 h 3 m -3,7 h 3 m -3,7 h 3 m -3,7 h 3 m -3,6.9999 h 3 m -3,7.0001 h 3 m -3,7 h 3 m -3,7 h 3 m -3,6.9999 h 3 m -3,7 h 3 m -3,7 h 3 m -3,7 h 3 m -3,7 h 3 m -3,7 h 3 m -3,7 h 3 m -3,7 h 3 m -3,7 h 3 m -3,7 h 3 m -3,7 h 3 m -3,7 h 3 m -3,7 h 3 m -3,6 h 3 m -3,7 h 3 m -3,7 h 3 m -3,7 h 3 m -3,7 h 3 m -3,7 h 3 m -3,7 h 3 m -3,7 h 3 m -3,7 h 3 m -3,7 h 3 m -3,7 h 3 m -3,7 h 3 m -3,7 h 3 m -3,7 h 3 m -3,7 h 3 m -3,7 h 3 m -3,7 h 3 m -3,7 h 3 m -3,7 h 3 m -3,7 h 3 m -3,7 h 3 m -3,7 h 3 m -3,7 h 3 m -3,7 h 3 m -3,7 h 3 m -7,-348.9999 h 7 m -7,35 h 7 m -7,35 h 7 m -7,34.9999 h 7 m -7,35 h 7 m -7,35 h 7 m -7,34 h 7 m -7,35 h 7 m -7,35 h 7 m -7,35 h 7 m -7,35 h 7"
         stroke="#000000"
         stroke-linejoin="round"
         stroke-miterlimit="10"
         fill="none"
         id="path2984" />
    </g>
    <g
       id="g2990"
       transform="matrix(0.26458333,0,0,0.26458333,-115.92812,163.25182)"
       clip-path="url(#clipPath3283)">
      <path
         d="m 995.5,363.5 h 450"
         stroke="#000000"
         stroke-linejoin="round"
         stroke-miterlimit="10"
         fill="none"
         fill-rule="evenodd"
         id="path2988" />
    </g>
    <g
       id="g2994"
       transform="matrix(0.26458333,0,0,0.26458333,-115.92812,163.25182)"
       clip-path="url(#clipPath3277)">
      <path
         d="m 995.5,363.5 v 3 m 15,-3 v 3 m 15,-3 v 3 m 15,-3 v 3 m 15,-3 v 3 m 15,-3 v 3 m 15,-3 v 3 m 15,-3 v 3 m 15,-3 v 3 m 15,-3 v 3 m 15,-3 v 3 m 15,-3 v 3 m 15,-3 v 3 m 15,-3 v 3 m 15,-3 v 3 m 15,-3 v 3 m 15,-3 v 3 m 15,-3 v 3 m 15,-3 v 3 m 15,-3 v 3 m 15,-3 v 3 m 15,-3 v 3 m 15,-3 v 3 m 15,-3 v 3 m 15,-3 v 3 m 15,-3 v 3 m 15,-3 v 3 m 15,-3 v 3 m 15,-3 v 3 m 15,-3 v 3 m 15,-3 v 3 m -450,-7 v 7 m 75,-7 v 7 m 75,-7 v 7 m 75,-7 v 7 m 75,-7 v 7 m 75,-7 v 7 m 75,-7 v 7"
         stroke="#000000"
         stroke-linejoin="round"
         stroke-miterlimit="10"
         fill="none"
         id="path2992" />
    </g>
    <g
       id="g2998"
       transform="matrix(0.26458333,0,0,0.26458333,-115.92812,163.25182)"
       clip-path="url(#clipPath3271)">
      <path
         d="m 995,363 8,-3 7,-3 7,-4 8,-3 7,-3 7,-3 7,-3 7,-4 7,-3 7,-3 6,-3 7,-3 7,-3 7,-3 6,-3 7,-3 6,-3 7,-3 6,-3 6,-3 6,-3 7,-3 6,-3 6,-3 6,-3 6,-3 6,-3 6,-3 6,-2 6,-3 5,-3 6,-3 6,-3 5,-3 6,-3 6,-3 5,-3 6,-3 5,-3 5,-2 6,-3 5,-3 5,-3 5,-3 5,-3 6,-3 5,-3 5,-3 5,-3 5,-3 4,-3 5,-3 5,-3 5,-3 5,-3 4,-4 5,-3 5,-3 4,-4 5,-3 4,-4 5,-4 4,-4 5,-5 4,-4 4,-5 4,-5 5,-5 4,-5 4,-6 4,-6 4,-6 4,-7 5,-7 4,-7 4,-7 3,-7 4,-7 4,-7 4,-7 4,-6 4,-5 4,-4 3,-4"
         stroke="#ed7d31"
         stroke-width="2"
         stroke-linecap="round"
         stroke-linejoin="round"
         stroke-miterlimit="10"
         fill="none"
         id="path2996" />
    </g>
    <g
       id="g3002"
       transform="matrix(0.26458333,0,0,0.26458333,-115.92812,163.25182)"
       clip-path="url(#clipPath3265)">
      <path
         d="m 995,363 h 7 l 6,-1 6,-2 6,-2 7,-3 6,-3 6,-3 6,-3 7,-3 6,-3 6,-3 6,-3 7,-3 6,-3 6,-3 6,-3 7,-3 6,-3 6,-3 6,-3 7,-3 6,-3 6,-3 6,-3 7,-3 6,-3 6,-3 6,-3 7,-3 6,-3 6,-4 6,-3 7,-3 6,-3 6,-3 6,-4 7,-3 6,-3 6,-4 6,-3 7,-4 6,-3 6,-4 6,-3 7,-4 6,-4 6,-3 6,-4 7,-4 6,-4 6,-4 6,-4 7,-4 6,-5 6,-5 6,-4 7,-6 6,-5 6,-6 6,-7 7,-7 6,-8 6,-8 6,-9 7,-10 6,-11 6,-11 6,-11 7,-12 6,-11 6,-9 6,-7"
         stroke="#4472c4"
         stroke-width="2"
         stroke-linecap="round"
         stroke-linejoin="round"
         stroke-miterlimit="10"
         fill="none"
         id="path3000" />
    </g>
    <g
       id="g3006"
       transform="matrix(0.26458333,0,0,0.26458333,-115.92812,163.25182)">
      <text
         font-family="Arial, Arial_MSFontService, sans-serif"
         font-weight="400"
         font-size="12px"
         transform="translate(939,19)"
         id="text3004">-2.0E-05</text>
    </g>
    <g
       id="g3010"
       transform="matrix(0.26458333,0,0,0.26458333,-115.92812,163.25182)">
      <text
         font-family="Arial, Arial_MSFontService, sans-serif"
         font-weight="400"
         font-size="12px"
         transform="translate(939,53)"
         id="text3008">-1.8E-05</text>
    </g>
    <g
       id="g3014"
       transform="matrix(0.26458333,0,0,0.26458333,-115.92812,163.25182)">
      <text
         font-family="Arial, Arial_MSFontService, sans-serif"
         font-weight="400"
         font-size="12px"
         transform="translate(939,88)"
         id="text3012">-1.6E-05</text>
    </g>
    <g
       id="g3018"
       transform="matrix(0.26458333,0,0,0.26458333,-115.92812,163.25182)">
      <text
         font-family="Arial, Arial_MSFontService, sans-serif"
         font-weight="400"
         font-size="12px"
         transform="translate(939,123)"
         id="text3016">-1.4E-05</text>
    </g>
    <g
       id="g3022"
       transform="matrix(0.26458333,0,0,0.26458333,-115.92812,163.25182)">
      <text
         font-family="Arial, Arial_MSFontService, sans-serif"
         font-weight="400"
         font-size="12px"
         transform="translate(939,158)"
         id="text3020">-1.2E-05</text>
    </g>
    <g
       id="g3026"
       transform="matrix(0.26458333,0,0,0.26458333,-115.92812,163.25182)">
      <text
         font-family="Arial, Arial_MSFontService, sans-serif"
         font-weight="400"
         font-size="12px"
         transform="translate(939,193)"
         id="text3024">-1.0E-05</text>
    </g>
    <g
       id="g3030"
       transform="matrix(0.26458333,0,0,0.26458333,-115.92812,163.25182)">
      <text
         font-family="Arial, Arial_MSFontService, sans-serif"
         font-weight="400"
         font-size="12px"
         transform="translate(939,228)"
         id="text3028">-8.0E-06</text>
    </g>
    <g
       id="g3034"
       transform="matrix(0.26458333,0,0,0.26458333,-115.92812,163.25182)">
      <text
         font-family="Arial, Arial_MSFontService, sans-serif"
         font-weight="400"
         font-size="12px"
         transform="translate(939,263)"
         id="text3032">-6.0E-06</text>
    </g>
    <g
       id="g3038"
       transform="matrix(0.26458333,0,0,0.26458333,-115.92812,163.25182)">
      <text
         font-family="Arial, Arial_MSFontService, sans-serif"
         font-weight="400"
         font-size="12px"
         transform="translate(939,298)"
         id="text3036">-4.0E-06</text>
    </g>
    <g
       id="g3042"
       transform="matrix(0.26458333,0,0,0.26458333,-115.92812,163.25182)">
      <text
         font-family="Arial, Arial_MSFontService, sans-serif"
         font-weight="400"
         font-size="12px"
         transform="translate(939,332)"
         id="text3040">-2.0E-06</text>
    </g>
    <g
       id="g3046"
       transform="matrix(0.26458333,0,0,0.26458333,-115.92812,163.25182)">
      <text
         font-family="Arial, Arial_MSFontService, sans-serif"
         font-weight="400"
         font-size="12px"
         transform="translate(939.98,367)"
         id="text3044">0.0E+00</text>
    </g>
    <g
       id="g3050"
       transform="matrix(0.26458333,0,0,0.26458333,-115.92812,163.25182)">
      <text
         font-family="Arial, Arial_MSFontService, sans-serif"
         font-weight="400"
         font-size="12px"
         transform="translate(992.004,353)"
         id="text3048">0</text>
    </g>
    <g
       id="g3054"
       transform="matrix(0.26458333,0,0,0.26458333,-115.92812,163.25182)">
      <text
         font-family="Arial, Arial_MSFontService, sans-serif"
         font-weight="400"
         font-size="12px"
         transform="translate(1063.65,353)"
         id="text3052">50</text>
    </g>
    <g
       id="g3058"
       transform="matrix(0.26458333,0,0,0.26458333,-115.92812,163.25182)">
      <text
         font-family="Arial, Arial_MSFontService, sans-serif"
         font-weight="400"
         font-size="12px"
         transform="translate(1135.3,353)"
         id="text3056">100</text>
    </g>
    <g
       id="g3062"
       transform="matrix(0.26458333,0,0,0.26458333,-115.92812,163.25182)">
      <text
         font-family="Arial, Arial_MSFontService, sans-serif"
         font-weight="400"
         font-size="12px"
         transform="translate(1210.29,353)"
         id="text3060">150</text>
    </g>
    <g
       id="g3066"
       transform="matrix(0.26458333,0,0,0.26458333,-115.92812,163.25182)">
      <text
         font-family="Arial, Arial_MSFontService, sans-serif"
         font-weight="400"
         font-size="12px"
         transform="translate(1285.27,353)"
         id="text3064">200</text>
    </g>
    <g
       id="g3070"
       transform="matrix(0.26458333,0,0,0.26458333,-115.92812,163.25182)">
      <text
         font-family="Arial, Arial_MSFontService, sans-serif"
         font-weight="400"
         font-size="12px"
         transform="translate(1360.26,353)"
         id="text3068">250</text>
    </g>
    <g
       id="g3074"
       transform="matrix(0.26458333,0,0,0.26458333,-115.92812,163.25182)">
      <text
         font-family="Arial, Arial_MSFontService, sans-serif"
         font-weight="400"
         font-size="12px"
         transform="translate(1435.24,353)"
         id="text3072">300</text>
    </g>
    <g
       id="g3078"
       transform="matrix(0.26458333,0,0,0.26458333,-115.92812,163.25182)">
      <text
         font-family="Arial, Arial_MSFontService, sans-serif"
         font-weight="400"
         font-size="13px"
         transform="rotate(-90,591.3335,-341.3335)"
         id="text3076">Deslocamento radial</text>
    </g>
    <g
       id="g3082"
       transform="matrix(0.26458333,0,0,0.26458333,-115.92812,163.25182)"
       clip-path="url(#clipPath3259)">
      <rect
         x="1014.5"
         y="73.500099"
         width="92.999901"
         height="42"
         stroke="#000000"
         stroke-linejoin="round"
         stroke-miterlimit="10"
         fill="#ffffff"
         id="rect3080" />
    </g>
    <g
       id="g3086"
       transform="matrix(0.26458333,0,0,0.26458333,-115.92812,163.25182)"
       clip-path="url(#clipPath3253)">
      <path
         d="m 1020,84 26,1e-4"
         stroke="#ed7d31"
         stroke-width="2"
         stroke-linecap="round"
         stroke-linejoin="round"
         stroke-miterlimit="10"
         fill="none"
         fill-rule="evenodd"
         id="path3084" />
    </g>
    <g
       id="g3090"
       transform="matrix(0.26458333,0,0,0.26458333,-115.92812,163.25182)">
      <text
         font-family="Arial, Arial_MSFontService, sans-serif"
         font-weight="400"
         font-size="12px"
         transform="translate(1048.67,88)"
         id="text3088">Calculado</text>
    </g>
    <g
       id="g3094"
       transform="matrix(0.26458333,0,0,0.26458333,-115.92812,163.25182)"
       clip-path="url(#clipPath3247)">
      <path
         d="m 1020,105 h 26"
         stroke="#4472c4"
         stroke-width="2"
         stroke-linecap="round"
         stroke-linejoin="round"
         stroke-miterlimit="10"
         fill="none"
         fill-rule="evenodd"
         id="path3092" />
    </g>
    <g
       id="g3098"
       transform="matrix(0.26458333,0,0,0.26458333,-115.92812,163.25182)">
      <text
         font-family="Arial, Arial_MSFontService, sans-serif"
         font-weight="400"
         font-size="12px"
         transform="translate(1048.67,109)"
         id="text3096">ANSYS</text>
    </g>
    <g
       inkscape:label=""
       transform="translate(204.77945,261.71842)"
       id="g3550">
      <g
         fill="#000000"
         fill-opacity="1"
         id="g19"
         transform="matrix(0.352778,0,0,0.352778,-81.4311,-4.06938)">
        <g
           id="use17"
           transform="translate(230.34399,19.129)">
          <path
             d="m 8.15625,-7.03125 c -0.546875,0.109375 -0.75,0.515625 -0.75,0.84375 0,0.421875 0.328125,0.5625 0.5625,0.5625 0.515625,0 0.875,-0.453125 0.875,-0.921875 0,-0.71875 -0.8125,-1.046875 -1.546875,-1.046875 -1.046875,0 -1.625,1.03125 -1.78125,1.359375 -0.40625,-1.296875 -1.46875,-1.359375 -1.78125,-1.359375 -1.75,0 -2.6875,2.25 -2.6875,2.640625 0,0.0625 0.078125,0.15625 0.1875,0.15625 0.140625,0 0.171875,-0.109375 0.21875,-0.171875 C 2.03125,-6.890625 3.1875,-7.25 3.6875,-7.25 c 0.765625,0 0.921875,0.71875 0.921875,1.140625 0,0.375 -0.09375,0.765625 -0.296875,1.59375 L 3.71875,-2.15625 c -0.25,1.03125 -0.75,1.984375 -1.671875,1.984375 -0.078125,0 -0.515625,0 -0.875,-0.21875 0.625,-0.125 0.75,-0.640625 0.75,-0.84375 0,-0.34375 -0.25,-0.5625 -0.578125,-0.5625 -0.40625,0 -0.859375,0.375 -0.859375,0.921875 0,0.71875 0.8125,1.046875 1.546875,1.046875 0.828125,0 1.40625,-0.65625 1.78125,-1.359375 0.265625,1.015625 1.125,1.359375 1.765625,1.359375 1.75,0 2.6875,-2.25 2.6875,-2.640625 0,-0.078125 -0.0625,-0.15625 -0.171875,-0.15625 -0.15625,0 -0.171875,0.09375 -0.21875,0.234375 -0.46875,1.515625 -1.46875,2.21875 -2.25,2.21875 -0.59375,0 -0.921875,-0.453125 -0.921875,-1.15625 0,-0.375 0.0625,-0.65625 0.34375,-1.78125 l 0.59375,-2.34375 C 5.90625,-6.484375 6.484375,-7.25 7.28125,-7.25 c 0.03125,0 0.515625,0 0.875,0.21875 z m 0,0"
             id="path31" />
        </g>
      </g>
      <g
         clip-path="url(#clipPath852)"
         id="g25"
         transform="matrix(0.352778,0,0,0.352778,-81.4311,-4.06938)">
        <g
           fill="#000000"
           fill-opacity="1"
           id="g23">
          <g
             id="use21"
             transform="translate(239.923,21.711)">
            <path
               d="m 1.390625,-0.84375 1.15625,-1.125 c 1.703125,-1.5 2.34375,-2.09375 2.34375,-3.171875 0,-1.25 -0.96875,-2.125 -2.3125,-2.125 -1.21875,0 -2.03125,1 -2.03125,1.96875 0,0.625 0.546875,0.625 0.578125,0.625 0.1875,0 0.5625,-0.140625 0.5625,-0.578125 0,-0.296875 -0.1875,-0.578125 -0.578125,-0.578125 -0.078125,0 -0.109375,0 -0.140625,0.015625 0.25,-0.703125 0.84375,-1.109375 1.46875,-1.109375 1,0 1.46875,0.875 1.46875,1.78125 0,0.859375 -0.546875,1.734375 -1.140625,2.40625 l -2.09375,2.328125 c -0.125,0.125 -0.125,0.140625 -0.125,0.40625 H 4.59375 L 4.890625,-1.890625 H 4.625 C 4.5625,-1.578125 4.5,-1.09375 4.390625,-0.921875 4.3125,-0.84375 3.59375,-0.84375 3.34375,-0.84375 Z m 0,0"
               id="path35" />
          </g>
        </g>
      </g>
    </g>
  </g>
</svg>
