<?xml version="1.0" encoding="UTF-8" standalone="no"?>
<!-- Created with Inkscape (http://www.inkscape.org/) -->

<svg
   width="150.01875mm"
   height="74.347916mm"
   viewBox="0 0 150.01875 74.347916"
   version="1.1"
   id="svg5"
   inkscape:version="1.2.1 (9c6d41e410, 2022-07-14)"
   sodipodi:docname="static-sol.svg"
   xmlns:inkscape="http://www.inkscape.org/namespaces/inkscape"
   xmlns:sodipodi="http://sodipodi.sourceforge.net/DTD/sodipodi-0.dtd"
   xmlns="http://www.w3.org/2000/svg"
   xmlns:svg="http://www.w3.org/2000/svg">
  <sodipodi:namedview
     id="namedview7"
     pagecolor="#ffffff"
     bordercolor="#000000"
     borderopacity="0.25"
     inkscape:showpageshadow="2"
     inkscape:pageopacity="0.0"
     inkscape:pagecheckerboard="0"
     inkscape:deskcolor="#d1d1d1"
     inkscape:document-units="mm"
     showgrid="false"
     inkscape:zoom="1.4912879"
     inkscape:cx="162.27584"
     inkscape:cy="102.59588"
     inkscape:window-width="1920"
     inkscape:window-height="1017"
     inkscape:window-x="-8"
     inkscape:window-y="-8"
     inkscape:window-maximized="1"
     inkscape:current-layer="layer1" />
  <defs
     id="defs2">
    <clipPath
       id="clip1">
      <rect
         x="968"
         y="0"
         width="567"
         height="281"
         id="rect135" />
    </clipPath>
    <clipPath
       id="clip2">
      <rect
         x="968"
         y="0"
         width="567"
         height="281"
         id="rect138" />
    </clipPath>
    <clipPath
       id="clip3">
      <rect
         x="968"
         y="0"
         width="567"
         height="281"
         id="rect141" />
    </clipPath>
    <clipPath
       id="clip4">
      <rect
         x="968"
         y="0"
         width="567"
         height="281"
         id="rect144" />
    </clipPath>
    <clipPath
       id="clip5">
      <rect
         x="968"
         y="0"
         width="567"
         height="281"
         id="rect147" />
    </clipPath>
    <clipPath
       id="clip6">
      <rect
         x="968"
         y="0"
         width="567"
         height="281"
         id="rect150" />
    </clipPath>
    <clipPath
       id="clip7">
      <rect
         x="968"
         y="0"
         width="567"
         height="281"
         id="rect153" />
    </clipPath>
    <clipPath
       id="clip8">
      <rect
         x="1043"
         y="14"
         width="472"
         height="234"
         id="rect156" />
    </clipPath>
    <clipPath
       id="clip9">
      <rect
         x="968"
         y="0"
         width="567"
         height="281"
         id="rect159" />
    </clipPath>
    <clipPath
       id="clip10">
      <rect
         x="1043"
         y="14"
         width="472"
         height="234"
         id="rect162" />
    </clipPath>
    <clipPath
       id="clip11">
      <rect
         x="968"
         y="0"
         width="567"
         height="281"
         id="rect165" />
    </clipPath>
    <clipPath
       id="clip12">
      <rect
         x="968"
         y="0"
         width="567"
         height="281"
         id="rect168" />
    </clipPath>
    <clipPath
       id="clip13">
      <rect
         x="968"
         y="0"
         width="567"
         height="281"
         id="rect171" />
    </clipPath>
    <clipPath
       id="clip14">
      <rect
         x="968"
         y="0"
         width="567"
         height="281"
         id="rect174" />
    </clipPath>
    <clipPath
       id="clip15">
      <rect
         x="968"
         y="0"
         width="567"
         height="281"
         id="rect177" />
    </clipPath>
    <clipPath
       id="clip16">
      <rect
         x="968"
         y="0"
         width="567"
         height="281"
         id="rect180" />
    </clipPath>
    <clipPath
       id="clip17">
      <rect
         x="968"
         y="0"
         width="567"
         height="281"
         id="rect183" />
    </clipPath>
    <clipPath
       id="clip18">
      <rect
         x="968"
         y="0"
         width="567"
         height="281"
         id="rect186" />
    </clipPath>
    <clipPath
       id="clip19">
      <rect
         x="968"
         y="0"
         width="567"
         height="281"
         id="rect189" />
    </clipPath>
    <clipPath
       id="clip20">
      <rect
         x="968"
         y="0"
         width="567"
         height="281"
         id="rect192" />
    </clipPath>
    <clipPath
       id="clip21">
      <rect
         x="968"
         y="0"
         width="567"
         height="281"
         id="rect195" />
    </clipPath>
    <clipPath
       id="clip22">
      <rect
         x="968"
         y="0"
         width="567"
         height="281"
         id="rect198" />
    </clipPath>
    <clipPath
       id="clip23">
      <rect
         x="968"
         y="0"
         width="567"
         height="281"
         id="rect201" />
    </clipPath>
    <clipPath
       id="clip24">
      <rect
         x="968"
         y="0"
         width="567"
         height="281"
         id="rect204" />
    </clipPath>
    <clipPath
       id="clip25">
      <rect
         x="968"
         y="0"
         width="567"
         height="281"
         id="rect207" />
    </clipPath>
    <clipPath
       id="clip26">
      <rect
         x="968"
         y="0"
         width="567"
         height="281"
         id="rect210" />
    </clipPath>
    <clipPath
       id="clip27">
      <rect
         x="968"
         y="0"
         width="567"
         height="281"
         id="rect213" />
    </clipPath>
    <clipPath
       id="clip28">
      <rect
         x="968"
         y="0"
         width="567"
         height="281"
         id="rect216" />
    </clipPath>
    <clipPath
       id="clip29">
      <rect
         x="968"
         y="0"
         width="567"
         height="281"
         id="rect219" />
    </clipPath>
    <clipPath
       id="clip30">
      <rect
         x="968"
         y="0"
         width="567"
         height="281"
         id="rect222" />
    </clipPath>
    <clipPath
       id="clip31">
      <rect
         x="968"
         y="0"
         width="567"
         height="281"
         id="rect225" />
    </clipPath>
    <clipPath
       id="clip32">
      <rect
         x="968"
         y="0"
         width="567"
         height="281"
         id="rect228" />
    </clipPath>
    <clipPath
       id="clip33">
      <rect
         x="968"
         y="0"
         width="567"
         height="281"
         id="rect231" />
    </clipPath>
    <clipPath
       id="clip34">
      <rect
         x="968"
         y="0"
         width="567"
         height="281"
         id="rect234" />
    </clipPath>
    <clipPath
       id="clip35">
      <rect
         x="968"
         y="0"
         width="567"
         height="281"
         id="rect237" />
    </clipPath>
    <clipPath
       id="clip36">
      <rect
         x="968"
         y="0"
         width="567"
         height="281"
         id="rect240" />
    </clipPath>
    <clipPath
       id="clip37">
      <rect
         x="968"
         y="0"
         width="567"
         height="281"
         id="rect243" />
    </clipPath>
    <clipPath
       id="clip38">
      <rect
         x="968"
         y="0"
         width="567"
         height="281"
         id="rect246" />
    </clipPath>
    <clipPath
       id="clip39">
      <rect
         x="968"
         y="0"
         width="567"
         height="281"
         id="rect249" />
    </clipPath>
    <clipPath
       id="clip40">
      <rect
         x="968"
         y="0"
         width="567"
         height="281"
         id="rect252" />
    </clipPath>
    <clipPath
       clipPathUnits="userSpaceOnUse"
       id="clipPath578">
      <g
         id="g582"
         transform="matrix(3.7795276,0,0,3.7795276,1054.0138,-446.91176)">
        <rect
           x="-22.493244"
           y="118.2454"
           width="150.01875"
           height="74.347916"
           id="rect580"
           style="stroke-width:0.264583" />
      </g>
    </clipPath>
    <clipPath
       clipPathUnits="userSpaceOnUse"
       id="clipPath584">
      <g
         id="g588"
         transform="matrix(3.7795276,0,0,3.7795276,1054.0138,-446.91176)">
        <rect
           x="-22.493244"
           y="118.2454"
           width="150.01875"
           height="74.347916"
           id="rect586"
           style="stroke-width:0.264583" />
      </g>
    </clipPath>
    <clipPath
       clipPathUnits="userSpaceOnUse"
       id="clipPath590">
      <g
         id="g594"
         transform="matrix(3.7795276,0,0,3.7795276,1054.0138,-446.91176)">
        <rect
           x="-22.493244"
           y="118.2454"
           width="150.01875"
           height="74.347916"
           id="rect592"
           style="stroke-width:0.264583" />
      </g>
    </clipPath>
    <clipPath
       clipPathUnits="userSpaceOnUse"
       id="clipPath596">
      <g
         id="g600"
         transform="matrix(3.7795276,0,0,3.7795276,1054.0138,-446.91176)">
        <rect
           x="-22.493244"
           y="118.2454"
           width="150.01875"
           height="74.347916"
           id="rect598"
           style="stroke-width:0.264583" />
      </g>
    </clipPath>
    <clipPath
       clipPathUnits="userSpaceOnUse"
       id="clipPath602">
      <g
         id="g606"
         transform="matrix(3.7795276,0,0,3.7795276,1054.0138,-446.91176)">
        <rect
           x="-22.493244"
           y="118.2454"
           width="150.01875"
           height="74.347916"
           id="rect604"
           style="stroke-width:0.264583" />
      </g>
    </clipPath>
    <clipPath
       clipPathUnits="userSpaceOnUse"
       id="clipPath608">
      <g
         id="g612"
         transform="matrix(3.7795276,0,0,3.7795276,1054.0138,-446.91176)">
        <rect
           x="-22.493244"
           y="118.2454"
           width="150.01875"
           height="74.347916"
           id="rect610"
           style="stroke-width:0.264583" />
      </g>
    </clipPath>
    <clipPath
       clipPathUnits="userSpaceOnUse"
       id="clipPath614">
      <g
         id="g618"
         transform="matrix(3.7795276,0,0,3.7795276,1054.0138,-446.91176)">
        <rect
           x="-22.493244"
           y="118.2454"
           width="150.01875"
           height="74.347916"
           id="rect616"
           style="stroke-width:0.264583" />
      </g>
    </clipPath>
    <clipPath
       clipPathUnits="userSpaceOnUse"
       id="clipPath620">
      <g
         id="g624"
         transform="matrix(3.7795276,0,0,3.7795276,1054.0138,-446.91176)">
        <rect
           x="-22.493244"
           y="118.2454"
           width="150.01875"
           height="74.347916"
           id="rect622"
           style="stroke-width:0.264583" />
      </g>
    </clipPath>
    <clipPath
       clipPathUnits="userSpaceOnUse"
       id="clipPath626">
      <g
         id="g630"
         transform="matrix(3.7795276,0,0,3.7795276,1054.0138,-446.91176)">
        <rect
           x="-22.493244"
           y="118.2454"
           width="150.01875"
           height="74.347916"
           id="rect628"
           style="stroke-width:0.264583" />
      </g>
    </clipPath>
    <clipPath
       clipPathUnits="userSpaceOnUse"
       id="clipPath632">
      <g
         id="g636"
         transform="matrix(3.7795276,0,0,3.7795276,1054.0138,-446.91176)">
        <rect
           x="-22.493244"
           y="118.2454"
           width="150.01875"
           height="74.347916"
           id="rect634"
           style="stroke-width:0.264583" />
      </g>
    </clipPath>
    <clipPath
       clipPathUnits="userSpaceOnUse"
       id="clipPath638">
      <g
         id="g642"
         transform="matrix(3.7795276,0,0,3.7795276,1054.0138,-446.91176)">
        <rect
           x="-22.493244"
           y="118.2454"
           width="150.01875"
           height="74.347916"
           id="rect640"
           style="stroke-width:0.264583" />
      </g>
    </clipPath>
    <clipPath
       clipPathUnits="userSpaceOnUse"
       id="clipPath644">
      <g
         id="g648"
         transform="matrix(3.7795276,0,0,3.7795276,1054.0138,-446.91176)">
        <rect
           x="-22.493244"
           y="118.2454"
           width="150.01875"
           height="74.347916"
           id="rect646"
           style="stroke-width:0.264583" />
      </g>
    </clipPath>
    <clipPath
       clipPathUnits="userSpaceOnUse"
       id="clipPath650">
      <g
         id="g654"
         transform="matrix(3.7795276,0,0,3.7795276,1054.0138,-446.91176)">
        <rect
           x="-22.493244"
           y="118.2454"
           width="150.01875"
           height="74.347916"
           id="rect652"
           style="stroke-width:0.264583" />
      </g>
    </clipPath>
    <clipPath
       clipPathUnits="userSpaceOnUse"
       id="clipPath656">
      <g
         id="g660"
         transform="matrix(3.7795276,0,0,3.7795276,1054.0138,-446.91176)">
        <rect
           x="-22.493244"
           y="118.2454"
           width="150.01875"
           height="74.347916"
           id="rect658"
           style="stroke-width:0.264583" />
      </g>
    </clipPath>
    <clipPath
       clipPathUnits="userSpaceOnUse"
       id="clipPath662">
      <g
         id="g666"
         transform="matrix(3.7795276,0,0,3.7795276,1054.0138,-446.91176)">
        <rect
           x="-22.493244"
           y="118.2454"
           width="150.01875"
           height="74.347916"
           id="rect664"
           style="stroke-width:0.264583" />
      </g>
    </clipPath>
    <clipPath
       clipPathUnits="userSpaceOnUse"
       id="clipPath668">
      <g
         id="g672"
         transform="matrix(3.7795276,0,0,3.7795276,1054.0138,-446.91176)">
        <rect
           x="-22.493244"
           y="118.2454"
           width="150.01875"
           height="74.347916"
           id="rect670"
           style="stroke-width:0.264583" />
      </g>
    </clipPath>
    <clipPath
       clipPathUnits="userSpaceOnUse"
       id="clipPath674">
      <g
         id="g678">
        <rect
           x="-22.493244"
           y="118.2454"
           width="150.01875"
           height="74.347916"
           id="rect676"
           style="stroke-width:0.264583" />
      </g>
    </clipPath>
    <clipPath
       id="clipPath878">
      <path
         clip-rule="nonzero"
         d="m 231,7 h 15 v 12.128906 h -15 z m 0,0"
         id="path4285" />
    </clipPath>
  </defs>
  <g
     inkscape:label="Camada 1"
     inkscape:groupmode="layer"
     id="layer1"
     transform="translate(22.4932, -118.245)">
    <rect
       x="-22.493244"
       y="118.2454"
       width="150.01875"
       height="74.347916"
       fill="#ffffff"
       id="rect257"
       style="stroke-width:0.264583"
       clip-path="url(#clipPath674)" />
    <g
       clip-path="url(#clipPath668)"
       id="g261"
       transform="matrix(0.26458333,0,0,0.26458333,-278.87449,118.2454)">
      <path
         d="m 1043.5,247.5 h 471 m -471,-34 h 471 m -471,-33 h 471 m -471,-33 h 471 m -471,-33 h 471 m -471,-32.9999 h 471 m -471,-67 h 471"
         stroke="#d9d9d9"
         stroke-linejoin="round"
         stroke-miterlimit="10"
         fill="none"
         id="path259" />
    </g>
    <g
       clip-path="url(#clipPath662)"
       id="g265"
       transform="matrix(0.26458333,0,0,0.26458333,-278.87449,118.2454)">
      <path
         d="M 1085.5,14.5001 V 247.5 m 43,-232.9999 V 247.5 m 43,-232.9999 V 247.5 m 43,-232.9999 V 247.5 m 43,-232.9999 V 247.5 m 43,-232.9999 V 247.5 m 42,-232.9999 V 247.5 m 43,-232.9999 V 247.5 m 43,-232.9999 V 247.5 m 43,-232.9999 V 247.5 m 43,-232.9999 V 247.5"
         stroke="#d9d9d9"
         stroke-linejoin="round"
         stroke-miterlimit="10"
         fill="none"
         id="path263" />
    </g>
    <g
       clip-path="url(#clipPath656)"
       id="g269"
       transform="matrix(0.26458333,0,0,0.26458333,-278.87449,118.2454)">
      <rect
         x="1043.5"
         y="14.5001"
         width="471"
         height="233"
         stroke="#000000"
         stroke-linejoin="round"
         stroke-miterlimit="10"
         fill="none"
         id="rect267" />
    </g>
    <g
       clip-path="url(#clipPath650)"
       id="g273"
       transform="matrix(0.26458333,0,0,0.26458333,-278.87449,118.2454)">
      <path
         d="M 0,0 1.04987e-4,233"
         stroke="#000000"
         stroke-linejoin="round"
         stroke-miterlimit="10"
         fill="none"
         fill-rule="evenodd"
         transform="matrix(1,0,0,-1,1043.5,247.5)"
         id="path271" />
    </g>
    <g
       clip-path="url(#clipPath644)"
       id="g277"
       transform="matrix(0.26458333,0,0,0.26458333,-278.87449,118.2454)">
      <path
         d="m 1043.5,247.5 h 2 m -2,-7 h 2 m -2,-7 h 2 m -2,-6 h 2 m -2,-7 h 2 m -2,-7 h 2 m -2,-6 h 2 m -2,-7 h 2 m -2,-7 h 2 m -2,-6 h 2 m -2,-7 h 2 m -2,-6 h 2 m -2,-7 h 2 m -2,-7 h 2 m -2,-6 h 2 m -2,-7 h 2 m -2,-7 h 2 m -2,-6 h 2 m -2,-7 h 2 m -2,-7 h 2 m -2,-6 h 2 m -2,-7 h 2 m -2,-7 h 2 m -2,-5.9999 h 2 m -2,-7 h 2 m -2,-6 h 2 m -2,-7 h 2 m -2,-7 h 2 m -2,-6 h 2 m -2,-7 h 2 m -2,-7 h 2 m -2,-6 h 2 m -2,-7 h 2 m -2,-7 h 2 m -2,-6 h 2 m -2,-7 h 2 m -6,232.9999 h 7 m -7,-34 h 7 m -7,-33 h 7 m -7,-33 h 7 m -7,-33 h 7 m -7,-32.9999 h 7 m -7,-34 h 7 m -7,-33 h 7"
         stroke="#000000"
         stroke-linejoin="round"
         stroke-miterlimit="10"
         fill="none"
         id="path275" />
    </g>
    <g
       clip-path="url(#clipPath638)"
       id="g281"
       transform="matrix(0.26458333,0,0,0.26458333,-278.87449,118.2454)">
      <path
         d="m 1043.5,47.5001 471,10e-5"
         stroke="#000000"
         stroke-linejoin="round"
         stroke-miterlimit="10"
         fill="none"
         fill-rule="evenodd"
         id="path279" />
    </g>
    <g
       clip-path="url(#clipPath632)"
       id="g285"
       transform="matrix(0.26458333,0,0,0.26458333,-278.87449,118.2454)">
      <path
         d="m 1043.5,44.5001 v 7 m 42,-7 v 7 m 43,-7 v 7 m 43,-7 v 7 m 43,-7 v 7 m 43,-7 v 7 m 43,-7 v 7 m 42,-7 v 7 m 43,-7 v 7 m 43,-7 v 7 m 43,-7 v 7 m 43,-7 v 7"
         stroke="#000000"
         stroke-linejoin="round"
         stroke-miterlimit="10"
         fill="none"
         id="path283" />
    </g>
    <g
       clip-path="url(#clipPath626)"
       id="g289"
       transform="matrix(0.26458333,0,0,0.26458333,-278.87449,118.2454)">
      <path
         d="m 1043,247 43,-54 43,-60 43,-20 42,-21 43,-9 43,-6 43,-7 43,-7 43,-3 42,-2 43,-7"
         stroke="#ed7d31"
         stroke-width="2"
         stroke-linecap="round"
         stroke-linejoin="round"
         stroke-miterlimit="10"
         fill="none"
         id="path287" />
    </g>
    <g
       clip-path="url(#clipPath620)"
       id="g313"
       transform="matrix(0.26458333,0,0,0.26458333,-278.87449,118.2454)">
      <path
         d="m 1085.2,190.5 3,6 h -6 z"
         stroke="#ed7d31"
         stroke-linejoin="round"
         stroke-miterlimit="10"
         fill="#ffffff"
         fill-opacity="0"
         id="path291" />
      <path
         d="m 1128.2,129.5 3,6 h -6 z"
         stroke="#ed7d31"
         stroke-linejoin="round"
         stroke-miterlimit="10"
         fill="#ffffff"
         fill-opacity="0"
         id="path293" />
      <path
         d="m 1171.2,110.5 3,6 h -6 z"
         stroke="#ed7d31"
         stroke-linejoin="round"
         stroke-miterlimit="10"
         fill="#ffffff"
         fill-opacity="0"
         id="path295" />
      <path
         d="m 1214.2,88.5001 3,5.9998 h -6 z"
         stroke="#ed7d31"
         stroke-linejoin="round"
         stroke-miterlimit="10"
         fill="#ffffff"
         fill-opacity="0"
         id="path297" />
      <path
         d="m 1257.2,80.5001 3,5.9998 h -6 z"
         stroke="#ed7d31"
         stroke-linejoin="round"
         stroke-miterlimit="10"
         fill="#ffffff"
         fill-opacity="0"
         id="path299" />
      <path
         d="m 1300.2,73.5001 3,5.9998 h -6 z"
         stroke="#ed7d31"
         stroke-linejoin="round"
         stroke-miterlimit="10"
         fill="#ffffff"
         fill-opacity="0"
         id="path301" />
      <path
         d="m 1342.2,66.5001 3,5.9998 h -6 z"
         stroke="#ed7d31"
         stroke-linejoin="round"
         stroke-miterlimit="10"
         fill="#ffffff"
         fill-opacity="0"
         id="path303" />
      <path
         d="m 1385.2,60.5001 3,5.9998 h -6 z"
         stroke="#ed7d31"
         stroke-linejoin="round"
         stroke-miterlimit="10"
         fill="#ffffff"
         fill-opacity="0"
         id="path305" />
      <path
         d="m 1428.2,56.5001 3,5.9998 h -6 z"
         stroke="#ed7d31"
         stroke-linejoin="round"
         stroke-miterlimit="10"
         fill="#ffffff"
         fill-opacity="0"
         id="path307" />
      <path
         d="m 1471.2,54.5001 3,5.9998 h -6 z"
         stroke="#ed7d31"
         stroke-linejoin="round"
         stroke-miterlimit="10"
         fill="#ffffff"
         fill-opacity="0"
         id="path309" />
      <path
         d="m 1514.2,48.5001 3,5.9998 h -6 z"
         stroke="#ed7d31"
         stroke-linejoin="round"
         stroke-miterlimit="10"
         fill="#ffffff"
         fill-opacity="0"
         id="path311" />
    </g>
    <g
       clip-path="url(#clipPath614)"
       id="g317"
       transform="matrix(0.26458333,0,0,0.26458333,-278.87449,118.2454)">
      <path
         d="m 1043,197 43,-57 43,-33 43,-22 42,-15 43,-8 43,-5 43,-8 43,-1 43,-3 42,-4 43,-2"
         stroke="#4472c4"
         stroke-width="2"
         stroke-linecap="round"
         stroke-linejoin="round"
         stroke-miterlimit="10"
         fill="none"
         id="path315" />
    </g>
    <g
       clip-path="url(#clipPath608)"
       id="g343"
       transform="matrix(0.26458333,0,0,0.26458333,-278.87449,118.2454)">
      <path
         d="m 1040.2,194.5 h 6 v 6 h -6 z"
         stroke="#4472c4"
         stroke-width="1.33333"
         stroke-linejoin="round"
         stroke-miterlimit="10"
         fill="#4472c4"
         fill-opacity="0"
         id="path319" />
      <path
         d="m 1082.2,137.5 h 6 v 6 h -6 z"
         stroke="#4472c4"
         stroke-width="1.33333"
         stroke-linejoin="round"
         stroke-miterlimit="10"
         fill="#4472c4"
         fill-opacity="0"
         id="path321" />
      <path
         d="m 1125.2,103.5 h 6 v 6 h -6 z"
         stroke="#4472c4"
         stroke-width="1.33333"
         stroke-linejoin="round"
         stroke-miterlimit="10"
         fill="#4472c4"
         fill-opacity="0"
         id="path323" />
      <path
         d="m 1168.2,81.5001 h 6 v 5.9998 h -6 z"
         stroke="#4472c4"
         stroke-width="1.33333"
         stroke-linejoin="round"
         stroke-miterlimit="10"
         fill="#4472c4"
         fill-opacity="0"
         id="path325" />
      <path
         d="m 1211.2,67.5001 h 6 v 5.9998 h -6 z"
         stroke="#4472c4"
         stroke-width="1.33333"
         stroke-linejoin="round"
         stroke-miterlimit="10"
         fill="#4472c4"
         fill-opacity="0"
         id="path327" />
      <path
         d="m 1254.2,58.5001 h 6 v 5.9998 h -6 z"
         stroke="#4472c4"
         stroke-width="1.33333"
         stroke-linejoin="round"
         stroke-miterlimit="10"
         fill="#4472c4"
         fill-opacity="0"
         id="path329" />
      <path
         d="m 1297.2,54.5001 h 6 v 5.9998 h -6 z"
         stroke="#4472c4"
         stroke-width="1.33333"
         stroke-linejoin="round"
         stroke-miterlimit="10"
         fill="#4472c4"
         fill-opacity="0"
         id="path331" />
      <path
         d="m 1339.2,46.5001 h 6 v 5.9998 h -6 z"
         stroke="#4472c4"
         stroke-width="1.33333"
         stroke-linejoin="round"
         stroke-miterlimit="10"
         fill="#4472c4"
         fill-opacity="0"
         id="path333" />
      <path
         d="m 1382.2,45.5001 h 6 v 5.9998 h -6 z"
         stroke="#4472c4"
         stroke-width="1.33333"
         stroke-linejoin="round"
         stroke-miterlimit="10"
         fill="#4472c4"
         fill-opacity="0"
         id="path335" />
      <path
         d="m 1425.2,41.5001 h 6 v 5.9998 h -6 z"
         stroke="#4472c4"
         stroke-width="1.33333"
         stroke-linejoin="round"
         stroke-miterlimit="10"
         fill="#4472c4"
         fill-opacity="0"
         id="path337" />
      <path
         d="m 1468.2,38.5001 h 6 v 5.9998 h -6 z"
         stroke="#4472c4"
         stroke-width="1.33333"
         stroke-linejoin="round"
         stroke-miterlimit="10"
         fill="#4472c4"
         fill-opacity="0"
         id="path339" />
      <path
         d="m 1511.2,36.5001 h 6 v 5.9998 h -6 z"
         stroke="#4472c4"
         stroke-width="1.33333"
         stroke-linejoin="round"
         stroke-miterlimit="10"
         fill="#4472c4"
         fill-opacity="0"
         id="path341" />
    </g>
    <g
       clip-path="url(#clip12)"
       id="g347"
       transform="matrix(0.26458333,0,0,0.26458333,-278.87449,118.2454)">
      <text
         font-family="Arial, Arial_MSFontService, sans-serif"
         font-weight="400"
         font-size="12px"
         transform="translate(1004.7,251)"
         id="text345">-30%</text>
    </g>
    <g
       clip-path="url(#clip13)"
       id="g351"
       transform="matrix(0.26458333,0,0,0.26458333,-278.87449,118.2454)">
      <text
         font-family="Arial, Arial_MSFontService, sans-serif"
         font-weight="400"
         font-size="12px"
         transform="translate(1004.7,218)"
         id="text349">-25%</text>
    </g>
    <g
       clip-path="url(#clip14)"
       id="g355"
       transform="matrix(0.26458333,0,0,0.26458333,-278.87449,118.2454)">
      <text
         font-family="Arial, Arial_MSFontService, sans-serif"
         font-weight="400"
         font-size="12px"
         transform="translate(1004.7,185)"
         id="text353">-20%</text>
    </g>
    <g
       clip-path="url(#clip15)"
       id="g359"
       transform="matrix(0.26458333,0,0,0.26458333,-278.87449,118.2454)">
      <text
         font-family="Arial, Arial_MSFontService, sans-serif"
         font-weight="400"
         font-size="12px"
         transform="translate(1004.7,151)"
         id="text357">-15%</text>
    </g>
    <g
       clip-path="url(#clip16)"
       id="g363"
       transform="matrix(0.26458333,0,0,0.26458333,-278.87449,118.2454)">
      <text
         font-family="Arial, Arial_MSFontService, sans-serif"
         font-weight="400"
         font-size="12px"
         transform="translate(1004.7,118)"
         id="text361">-10%</text>
    </g>
    <g
       clip-path="url(#clip17)"
       id="g367"
       transform="matrix(0.26458333,0,0,0.26458333,-278.87449,118.2454)">
      <text
         font-family="Arial, Arial_MSFontService, sans-serif"
         font-weight="400"
         font-size="12px"
         transform="translate(1011.37,85)"
         id="text365">-5%</text>
    </g>
    <g
       clip-path="url(#clip18)"
       id="g371"
       transform="matrix(0.26458333,0,0,0.26458333,-278.87449,118.2454)">
      <text
         font-family="Arial, Arial_MSFontService, sans-serif"
         font-weight="400"
         font-size="12px"
         transform="translate(1015.36,52)"
         id="text369">0%</text>
    </g>
    <g
       clip-path="url(#clip19)"
       id="g375"
       transform="matrix(0.26458333,0,0,0.26458333,-278.87449,118.2454)">
      <text
         font-family="Arial, Arial_MSFontService, sans-serif"
         font-weight="400"
         font-size="12px"
         transform="translate(1015.36,19)"
         id="text373">5%</text>
    </g>
    <g
       clip-path="url(#clip20)"
       id="g379"
       transform="matrix(0.26458333,0,0,0.26458333,-278.87449,118.2454)">
      <text
         font-family="Arial, Arial_MSFontService, sans-serif"
         font-weight="400"
         font-size="12px"
         transform="translate(1039.69,66)"
         id="text377">5</text>
    </g>
    <g
       clip-path="url(#clip21)"
       id="g383"
       transform="matrix(0.26458333,0,0,0.26458333,-278.87449,118.2454)">
      <text
         font-family="Arial, Arial_MSFontService, sans-serif"
         font-weight="400"
         font-size="12px"
         transform="translate(1082.53,66)"
         id="text381">6</text>
    </g>
    <g
       clip-path="url(#clip22)"
       id="g387"
       transform="matrix(0.26458333,0,0,0.26458333,-278.87449,118.2454)">
      <text
         font-family="Arial, Arial_MSFontService, sans-serif"
         font-weight="400"
         font-size="12px"
         transform="translate(1125.37,66)"
         id="text385">7</text>
    </g>
    <g
       clip-path="url(#clip23)"
       id="g391"
       transform="matrix(0.26458333,0,0,0.26458333,-278.87449,118.2454)">
      <text
         font-family="Arial, Arial_MSFontService, sans-serif"
         font-weight="400"
         font-size="12px"
         transform="translate(1168.21,66)"
         id="text389">8</text>
    </g>
    <g
       clip-path="url(#clip24)"
       id="g395"
       transform="matrix(0.26458333,0,0,0.26458333,-278.87449,118.2454)">
      <text
         font-family="Arial, Arial_MSFontService, sans-serif"
         font-weight="400"
         font-size="12px"
         transform="translate(1211.05,66)"
         id="text393">9</text>
    </g>
    <g
       clip-path="url(#clip25)"
       id="g399"
       transform="matrix(0.26458333,0,0,0.26458333,-278.87449,118.2454)">
      <text
         font-family="Arial, Arial_MSFontService, sans-serif"
         font-weight="400"
         font-size="12px"
         transform="translate(1250.56,66)"
         id="text397">10</text>
    </g>
    <g
       clip-path="url(#clip26)"
       id="g403"
       transform="matrix(0.26458333,0,0,0.26458333,-278.87449,118.2454)">
      <text
         font-family="Arial, Arial_MSFontService, sans-serif"
         font-weight="400"
         font-size="12px"
         transform="translate(1293.4,66)"
         id="text401">11</text>
    </g>
    <g
       clip-path="url(#clip27)"
       id="g407"
       transform="matrix(0.26458333,0,0,0.26458333,-278.87449,118.2454)">
      <text
         font-family="Arial, Arial_MSFontService, sans-serif"
         font-weight="400"
         font-size="12px"
         transform="translate(1336.24,66)"
         id="text405">12</text>
    </g>
    <g
       clip-path="url(#clip28)"
       id="g411"
       transform="matrix(0.26458333,0,0,0.26458333,-278.87449,118.2454)">
      <text
         font-family="Arial, Arial_MSFontService, sans-serif"
         font-weight="400"
         font-size="12px"
         transform="translate(1379.09,66)"
         id="text409">13</text>
    </g>
    <g
       clip-path="url(#clip29)"
       id="g415"
       transform="matrix(0.26458333,0,0,0.26458333,-278.87449,118.2454)">
      <text
         font-family="Arial, Arial_MSFontService, sans-serif"
         font-weight="400"
         font-size="12px"
         transform="translate(1421.93,66)"
         id="text413">14</text>
    </g>
    <g
       clip-path="url(#clip30)"
       id="g419"
       transform="matrix(0.26458333,0,0,0.26458333,-278.87449,118.2454)">
      <text
         font-family="Arial, Arial_MSFontService, sans-serif"
         font-weight="400"
         font-size="12px"
         transform="translate(1464.77,66)"
         id="text417">15</text>
    </g>
    <g
       clip-path="url(#clip31)"
       id="g423"
       transform="matrix(0.26458333,0,0,0.26458333,-278.87449,118.2454)">
      <text
         font-family="Arial, Arial_MSFontService, sans-serif"
         font-weight="400"
         font-size="12px"
         transform="translate(1507.61,66)"
         id="text421">16</text>
    </g>
    <g
       clip-path="url(#clip32)"
       id="g427"
       transform="matrix(0.26458333,0,0,0.26458333,-278.87449,118.2454)">
      <text
         font-family="Arial, Arial_MSFontService, sans-serif"
         font-weight="400"
         font-size="13px"
         transform="rotate(-90,586.681,-411.681)"
         id="text425">Desvio relativo</text>
    </g>
    <g
       clip-path="url(#clipPath602)"
       id="g435"
       transform="matrix(0.26458333,0,0,0.26458333,-278.87449,118.2454)">
      <rect
         x="1372.5"
         y="148.5"
         width="131"
         height="43"
         stroke="#000000"
         stroke-linejoin="round"
         stroke-miterlimit="10"
         fill="#ffffff"
         id="rect433" />
    </g>
    <g
       clip-path="url(#clipPath596)"
       id="g439"
       transform="matrix(0.26458333,0,0,0.26458333,-278.87449,118.2454)">
      <path
         d="m 1379,159 h 25"
         stroke="#ed7d31"
         stroke-width="2"
         stroke-linecap="round"
         stroke-linejoin="round"
         stroke-miterlimit="10"
         fill="none"
         fill-rule="evenodd"
         id="path437" />
    </g>
    <g
       clip-path="url(#clipPath590)"
       id="g443"
       transform="matrix(0.26458333,0,0,0.26458333,-278.87449,118.2454)">
      <path
         d="m 1391.5,156.5 3,6 h -6 z"
         stroke="#ed7d31"
         stroke-linejoin="round"
         stroke-miterlimit="10"
         fill="#ffffff"
         fill-opacity="0"
         id="path441" />
    </g>
    <g
       clip-path="url(#clip37)"
       id="g447"
       transform="matrix(0.26458333,0,0,0.26458333,-278.87449,118.2454)">
      <text
         font-family="Arial, Arial_MSFontService, sans-serif"
         font-weight="400"
         font-size="12px"
         transform="translate(1406.86,163)"
         id="text445">Scordelis-Lo roof</text>
    </g>
    <g
       clip-path="url(#clipPath584)"
       id="g451"
       transform="matrix(0.26458333,0,0,0.26458333,-278.87449,118.2454)">
      <path
         d="m 1379,181 h 25"
         stroke="#4472c4"
         stroke-width="2"
         stroke-linecap="round"
         stroke-linejoin="round"
         stroke-miterlimit="10"
         fill="none"
         fill-rule="evenodd"
         id="path449" />
    </g>
    <g
       clip-path="url(#clipPath578)"
       id="g455"
       transform="matrix(0.26458333,0,0,0.26458333,-278.87449,118.2454)">
      <path
         d="m 1388.5,177.5 h 6 v 6 h -6 z"
         stroke="#4472c4"
         stroke-width="1.33333"
         stroke-linejoin="round"
         stroke-miterlimit="10"
         fill="#4472c4"
         fill-opacity="0"
         id="path453" />
    </g>
    <g
       clip-path="url(#clip40)"
       id="g459"
       transform="matrix(0.26458333,0,0,0.26458333,-278.87449,118.2454)">
      <text
         font-family="Arial, Arial_MSFontService, sans-serif"
         font-weight="400"
         font-size="12px"
         transform="translate(1406.86,184)"
         id="text457">Cilindro</text>
    </g>
    <g
       inkscape:label=""
       transform="translate(56.813169,185.13294)"
       id="g1154">
      <g
         clip-path="url(#clipPath878)"
         id="g17"
         transform="matrix(0.352778,0,0,0.352778,-81.583,-2.59728)">
        <g
           fill="#000000"
           fill-opacity="1"
           id="g15">
          <g
             id="use13"
             transform="translate(230.46201,19.128)">
            <path
               d="m 12.734375,-9.953125 c 0.203125,-0.734375 0.46875,-1.25 1.78125,-1.3125 0.04687,0 0.265625,-0.01563 0.265625,-0.3125 0,-0.1875 -0.15625,-0.1875 -0.234375,-0.1875 -0.34375,0 -1.21875,0.04687 -1.5625,0.04687 H 12.15625 c -0.234375,0 -0.546875,-0.04687 -0.796875,-0.04687 -0.09375,0 -0.3125,0 -0.3125,0.328125 0,0.171875 0.140625,0.171875 0.265625,0.171875 1.03125,0.03125 1.109375,0.4375 1.109375,0.75 0,0.15625 -0.03125,0.203125 -0.07813,0.4375 l -1.9375,7.765625 -3.6875,-9.15625 C 6.59375,-11.75 6.578125,-11.765625 6.203125,-11.765625 H 4.09375 c -0.34375,0 -0.5,0 -0.5,0.328125 0,0.171875 0.125,0.171875 0.453125,0.171875 0.078125,0 1.09375,0 1.09375,0.15625 0,0.03125 -0.03125,0.171875 -0.046875,0.234375 L 2.8125,-1.75 c -0.21875,0.84375 -0.625,1.203125 -1.765625,1.25 -0.078125,0 -0.25,0.015625 -0.25,0.328125 C 0.796875,0 0.96875,0 1.015625,0 c 0.34375,0 1.21875,-0.03125 1.5625,-0.03125 H 3.40625 C 3.65625,-0.03125 3.9375,0 4.1875,0 4.3125,0 4.5,0 4.5,-0.328125 4.5,-0.484375 4.328125,-0.5 4.25,-0.5 3.6875,-0.515625 3.140625,-0.625 3.140625,-1.234375 c 0,-0.140625 0.03125,-0.296875 0.0625,-0.4375 L 5.53125,-10.875 c 0.09375,0.171875 0.09375,0.203125 0.171875,0.359375 L 9.796875,-0.3125 C 9.890625,-0.109375 9.921875,0 10.078125,0 c 0.171875,0 0.1875,-0.046875 0.25,-0.34375 z m 0,0"
               id="path23" />
          </g>
        </g>
      </g>
    </g>
  </g>
</svg>
