<?xml version="1.0" encoding="UTF-8" standalone="no"?>
<!-- Created with Inkscape (http://www.inkscape.org/) -->

<svg
   width="187.85417mm"
   height="107.15625mm"
   viewBox="0 0 187.85417 107.15625"
   version="1.1"
   id="svg1"
   inkscape:version="1.3.2 (091e20e, 2023-11-25, custom)"
   sodipodi:docname="FSI-cavity3D.svg"
   xmlns:inkscape="http://www.inkscape.org/namespaces/inkscape"
   xmlns:sodipodi="http://sodipodi.sourceforge.net/DTD/sodipodi-0.dtd"
   xmlns="http://www.w3.org/2000/svg"
   xmlns:svg="http://www.w3.org/2000/svg">
  <sodipodi:namedview
     id="namedview1"
     pagecolor="#ffffff"
     bordercolor="#000000"
     borderopacity="0.25"
     inkscape:showpageshadow="2"
     inkscape:pageopacity="0.0"
     inkscape:pagecheckerboard="0"
     inkscape:deskcolor="#d1d1d1"
     inkscape:document-units="mm"
     inkscape:zoom="0.73139029"
     inkscape:cx="561.94347"
     inkscape:cy="58.10851"
     inkscape:window-width="1920"
     inkscape:window-height="1017"
     inkscape:window-x="1912"
     inkscape:window-y="-8"
     inkscape:window-maximized="1"
     inkscape:current-layer="layer1" />
  <defs
     id="defs1">
    <clipPath
       id="clip0">
      <rect
         x="638"
         y="0"
         width="710"
         height="405"
         id="rect1" />
    </clipPath>
    <clipPath
       id="clip1">
      <rect
         x="711"
         y="14"
         width="616"
         height="309"
         id="rect2" />
    </clipPath>
  </defs>
  <g
     inkscape:label="Camada 1"
     inkscape:groupmode="layer"
     id="layer1"
     transform="translate(43.920835,-133.08542)">
    <g
       clip-path="url(#clip0)"
       transform="matrix(0.26458333,0,0,0.26458333,-212.725,133.08542)"
       id="g48">
      <rect
         x="638"
         y="0"
         width="710"
         height="405"
         fill="#ffffff"
         id="rect3" />
      <g
         id="g3">
        <path
           d="m 711.5,322.5 h 615 m -615,-88 h 615 m -615,-44 h 615 m -615,-44 h 615 m -615,-44 h 615 m -615,-43.9999 h 615 m -615,-44 h 615"
           stroke="#d9d9d9"
           stroke-linejoin="round"
           stroke-miterlimit="10"
           fill="none"
           id="path3" />
      </g>
      <g
         id="g4">
        <path
           d="M 814.5,14.5001 V 322.5 M 916.5,14.5001 V 322.5 m 103,-307.9999 V 322.5 m 102,-307.9999 V 322.5 m 103,-307.9999 V 322.5 m 102,-307.9999 V 322.5"
           stroke="#d9d9d9"
           stroke-linejoin="round"
           stroke-miterlimit="10"
           fill="none"
           id="path4" />
      </g>
      <g
         id="g5">
        <rect
           x="711.5"
           y="14.5001"
           width="615"
           height="308"
           stroke="#000000"
           stroke-linejoin="round"
           stroke-miterlimit="10"
           fill="none"
           id="rect4" />
      </g>
      <g
         id="g6">
        <path
           d="M 0,0 1.04987e-4,308"
           stroke="#000000"
           stroke-linejoin="round"
           stroke-miterlimit="10"
           fill="none"
           fill-rule="evenodd"
           transform="matrix(1,0,0,-1,711.5,322.5)"
           id="path5" />
      </g>
      <g
         id="g7">
        <path
           d="m 711.5,322.5 h 3 m -3,-9 h 3 m -3,-9 h 3 m -3,-8 h 3 m -3,-9 h 3 m -3,-9 h 3 m -3,-9 h 3 m -3,-9 h 3 m -3,-8 h 3 m -3,-9 h 3 m -3,-9 h 3 m -3,-9 h 3 m -3,-9 h 3 m -3,-8 h 3 m -3,-9 h 3 m -3,-9 h 3 m -3,-9 h 3 m -3,-9 h 3 m -3,-8 h 3 m -3,-9 h 3 m -3,-9 h 3 m -3,-9 h 3 m -3,-9 h 3 m -3,-8 h 3 m -3,-9 h 3 m -3,-9 h 3 m -3,-8.9999 h 3 m -3,-8 h 3 m -3,-9.0001 h 3 m -3,-8.9999 h 3 m -3,-9 h 3 m -3,-9 h 3 m -3,-8 h 3 m -3,-9 h 3 m -3,-9 h 3 m -3,-9 h 3 m -6,307.9999 h 7 m -7,-44 h 7 m -7,-44 h 7 m -7,-44 h 7 m -7,-44 h 7 m -7,-44 h 7 m -7,-43.9999 h 7 m -7,-44 h 7"
           stroke="#000000"
           stroke-linejoin="round"
           stroke-miterlimit="10"
           fill="none"
           id="path6" />
      </g>
      <g
         id="g8">
        <path
           d="m 711.5,278.5 h 615"
           stroke="#000000"
           stroke-linejoin="round"
           stroke-miterlimit="10"
           fill="none"
           fill-rule="evenodd"
           id="path7" />
      </g>
      <g
         id="g9">
        <path
           d="m 711.5,275.5 v 3 m 21,-3 v 3 m 20,-3 v 3 m 21,-3 v 3 m 20,-3 v 3 m 21,-3 v 3 m 20,-3 v 3 m 21,-3 v 3 m 20,-3 v 3 m 21,-3 v 3 m 20,-3 v 3 m 21,-3 v 3 m 20,-3 v 3 m 21,-3 v 3 m 20,-3 v 3 m 21,-3 v 3 m 20,-3 v 3 m 21,-3 v 3 m 20,-3 v 3 m 21,-3 v 3 m 20,-3 v 3 m 21,-3 v 3 m 20,-3 v 3 m 21,-3 v 3 m 20,-3 v 3 m 21,-3 v 3 m 20,-3 v 3 m 21,-3 v 3 m 20,-3 v 3 m 21,-3 v 3 m 20,-3 v 3 m -615,-4 v 8 m 103,-8 v 8 m 102,-8 v 8 m 103,-8 v 8 m 102,-8 v 8 m 103,-8 v 8 m 102,-8 v 8"
           stroke="#000000"
           stroke-linejoin="round"
           stroke-miterlimit="10"
           fill="none"
           id="path8" />
      </g>
      <g
         clip-path="url(#clip1)"
         id="g10">
        <path
           d="m 714,279 8,1 12,2 h 11 l 15,-5 11,-14 11,-15 11,-25 6,-18 10,-23 9,-19 7,-20 6,-13 7,-5 8,15 3,20 6,15 9,9 13,-10 8,-17 7,-30 4,-23 5,-22 3,-17 5,-7 9,16 5,20 6,19 4,16 6,12 7,10 h 8 l 12,-16 10,-22 6,-18 9,-15 8,-11 16,2 14,14 7,22 8,14 6,11 10,9 14,-8 7,-18 7,-24 4,-13 5,-12 9,-9 13,13 10,15 9,23 11,16 10,9 7,2 10,-6 6,-13 8,-22 7,-19 6,-11 6,-7 14,11 10,21 10,20 7,15 9,9 8,4 8,-6 10,-15 5,-13 5,-18 3,-12 5,-8 5,-6 h 8 l 9,10 7,12"
           stroke="#000000"
           stroke-width="2"
           stroke-linecap="round"
           stroke-linejoin="round"
           stroke-miterlimit="10"
           stroke-dasharray="4, 4"
           fill="none"
           id="path9" />
      </g>
      <g
         id="g11">
        <path
           d="m 712,278 h 2 2 2 2 2 2 2 2 2 2 2 2 2 2 2 2 l 3,-1 h 2 l 2,-1 2,-1 2,-1 2,-1 2,-2 2,-1 2,-2 2,-3 2,-2 2,-3 2,-3 2,-4 2,-3 2,-3 2,-4 2,-4 2,-3 2,-4 3,-4 2,-3 2,-4 2,-4 2,-4 2,-4 2,-3 2,-4 2,-3 2,-4 2,-3 2,-2 2,-3 2,-3 2,-2 2,-3 2,-3 2,-3 2,-4 2,-3 3,-3 2,-3 2,-3 2,-2 2,-1 2,-1 h 2 2 l 2,1 2,2 2,1 2,2 2,2 2,2 2,1 2,2 h 2 l 2,1 h 2 2 l 3,-1 2,-1 2,-2 2,-2 2,-2 2,-3 2,-3 2,-3 2,-3 2,-3 2,-4 2,-3 2,-4 2,-3 2,-3 2,-4 2,-3 2,-3 2,-2 2,-2 3,-2 2,-1 h 2 l 2,1 2,1 2,2 2,3 2,3 2,4 2,4 2,3 2,4 2,4 2,4 2,4 2,3 2,3 2,3 2,3 2,3 3,2 2,2 2,1 2,1 2,1 h 2 2 l 2,-1 2,-1 2,-1 2,-2 2,-2 2,-3 2,-3 2,-3 2,-4 2,-4 2,-3 2,-4 2,-4 3,-3 2,-4 2,-3 2,-3 2,-3 2,-3 2,-2 2,-2 2,-1 2,-1 2,-1 2,1 2,1 2,1 2,3 2,2 2,3 2,4 2,4 2,3 3,4 2,4 2,3 2,4 2,3 2,3 2,3 2,3 2,2 2,3 2,2 2,1 2,1 2,1 2,1 h 2 2 l 2,-1 2,-1 2,-2 3,-2 2,-2 2,-3 2,-3 2,-3 2,-3 2,-4 2,-3 2,-4 2,-3 2,-3 2,-4 2,-3 2,-3 2,-3 2,-2 2,-2 2,-2 2,-2 2,-1 h 3 2 l 2,1 2,2 2,2 2,2 2,4 2,3 2,3 2,4 2,4 2,3 2,4 2,4 2,3 2,3 2,3 2,3 2,2 2,2 3,2 2,2 2,1 2,1 2,1 h 2 2 l 2,-1 2,-1 2,-2 2,-2 2,-2 2,-3 2,-3 2,-3 2,-3 2,-3 2,-4 2,-3 2,-4 3,-3 2,-4 2,-3 2,-3 2,-3 2,-2 2,-2 2,-2 2,-2 2,-1 h 2 2 l 2,1 2,2 2,2 2,2 2,3 2,4 2,3 2,4 3,4 2,3 2,4 2,4 2,3 2,3 2,3 2,3 2,2 2,2 2,2 2,2 2,1 2,1 2,1 h 2 2 l 2,-1 2,-1 2,-2 3,-2 2,-2 2,-3 2,-2 2,-4 2,-3 2,-3 2,-4 2,-3 2,-4 2,-3 2,-4 2,-3 2,-3 2,-3 2,-2 2,-2 2,-2 2,-2 2,-1 h 3 2 l 2,1"
           stroke="#e97132"
           stroke-width="2"
           stroke-linecap="round"
           stroke-linejoin="round"
           stroke-miterlimit="10"
           fill="none"
           id="path10" />
      </g>
      <g
         id="g12">
        <path
           d="m 712,278 h 2 2 2 2 2 2 2 2 2 2 2 2 2 2 2 2 l 3,-1 h 2 l 2,-1 2,-1 2,-1 2,-1 2,-2 2,-1 2,-2 2,-3 2,-2 2,-3 2,-3 2,-4 2,-3 2,-3 2,-4 2,-3 2,-4 2,-4 3,-4 2,-3 2,-4 2,-4 2,-4 2,-4 2,-3 2,-4 2,-3 2,-4 2,-3 2,-2 2,-3 2,-3 2,-2 2,-3 2,-3 2,-3 2,-4 2,-3 3,-3 2,-3 2,-2 2,-2 2,-2 2,-1 h 2 2 l 2,1 2,2 2,1 2,2 2,2 2,2 2,1 2,1 2,1 2,1 h 2 2 l 3,-1 2,-1 2,-2 2,-2 2,-2 2,-3 2,-3 2,-3 2,-3 2,-4 2,-3 2,-3 2,-4 2,-3 2,-3 2,-4 2,-3 2,-3 2,-2 2,-3 3,-1 2,-1 h 2 l 2,1 2,1 2,2 2,3 2,3 2,4 2,3 2,4 2,4 2,4 2,4 2,4 2,3 2,3 2,3 2,3 2,2 3,3 2,1 2,2 2,1 2,1 h 2 2 l 2,-1 2,-1 2,-2 2,-1 2,-3 2,-3 2,-3 2,-3 2,-3 2,-4 2,-4 2,-3 2,-4 3,-4 2,-3 2,-3 2,-4 2,-2 2,-3 2,-2 2,-2 2,-2 2,-1 h 2 2 l 2,2 2,1 2,2 2,3 2,3 2,4 2,4 2,3 3,4 2,4 2,3 2,4 2,3 2,3 2,3 2,3 2,2 2,3 2,1 2,2 2,1 2,1 2,1 h 2 l 2,-1 h 2 l 2,-2 2,-1 3,-2 2,-2 2,-3 2,-3 2,-3 2,-3 2,-4 2,-3 2,-4 2,-3 2,-4 2,-3 2,-3 2,-3 2,-3 2,-3 2,-2 2,-2 2,-1 2,-1 h 3 2 l 2,1 2,2 2,2 2,2 2,3 2,4 2,3 2,4 2,4 2,3 2,4 2,3 2,4 2,3 2,3 2,3 2,2 2,2 3,2 2,2 2,1 2,1 h 2 l 2,1 2,-1 h 2 l 2,-2 2,-1 2,-2 2,-2 2,-3 2,-3 2,-3 2,-3 2,-4 2,-3 2,-4 2,-3 3,-4 2,-3 2,-3 2,-3 2,-3 2,-2 2,-3 2,-2 2,-1 2,-1 h 2 2 l 2,1 2,2 2,2 2,2 2,3 2,4 2,3 2,4 3,4 2,3 2,4 2,3 2,4 2,3 2,3 2,3 2,2 2,2 2,2 2,2 2,1 2,1 h 2 l 2,1 2,-1 h 2 l 2,-2 2,-1 3,-2 2,-2 2,-3 2,-3 2,-3 2,-3 2,-4 2,-3 2,-4 2,-3 2,-4 2,-3 2,-3 2,-3 2,-3 2,-3 2,-2 2,-2 2,-1 2,-1 h 3 2 l 2,1"
           stroke="#196b24"
           stroke-width="2"
           stroke-linecap="round"
           stroke-linejoin="round"
           stroke-miterlimit="10"
           fill="none"
           id="path11" />
      </g>
      <g
         id="g13">
        <path
           d="m 712,278 h 2 2 2 2 2 2 2 2 2 2 2 2 2 2 2 2 3 2 2 l 2,-1 h 2 l 2,-1 2,-1 2,-1 2,-2 2,-1 2,-2 2,-2 2,-2 2,-3 2,-2 2,-3 2,-2 2,-3 2,-3 2,-2 3,-3 2,-3 2,-2 2,-3 2,-3 2,-2 2,-3 2,-3 2,-2 2,-3 2,-3 2,-2 2,-2 2,-2 2,-2 2,-2 2,-1 2,-2 2,-2 2,-1 3,-2 2,-2 2,-2 2,-2 2,-2 2,-2 2,-2 2,-2 2,-1 2,-2 2,-1 2,-1 2,-1 2,-1 2,-1 2,-1 h 2 l 2,-1 h 2 l 2,-1 h 3 l 2,-1 2,-1 2,-1 2,-1 2,-2 2,-1 2,-2 2,-1 2,-2 2,-2 2,-2 2,-2 2,-2 2,-2 2,-2 2,-2 2,-2 2,-1 2,-2 3,-2 2,-2 2,-1 2,-2 2,-1 h 2 l 2,-1 h 2 l 2,1 2,1 2,1 2,2 2,2 2,2 2,3 2,2 2,3 2,2 2,3 2,2 3,3 2,2 2,2 2,1 2,2 2,1 2,1 h 2 2 2 l 2,-1 2,-1 2,-1 2,-2 2,-2 2,-2 2,-2 2,-2 2,-3 2,-2 3,-3 2,-2 2,-3 2,-3 2,-2 2,-2 2,-3 2,-2 2,-2 2,-1 2,-2 2,-1 h 2 2 2 2 l 2,2 2,1 2,2 2,3 3,2 2,3 2,3 2,3 2,3 2,2 2,3 2,3 2,3 2,2 2,2 2,2 2,2 2,1 2,1 2,1 2,1 h 2 2 l 2,-1 3,-1 2,-1 2,-1 2,-2 2,-2 2,-2 2,-3 2,-2 2,-3 2,-2 2,-3 2,-3 2,-2 2,-3 2,-2 2,-2 2,-2 2,-2 2,-2 2,-2 3,-1 2,-1 h 2 2 2 l 2,1 2,1 2,2 2,2 2,2 2,3 2,2 2,3 2,3 2,3 2,3 2,2 2,3 2,3 2,2 3,2 2,2 2,2 2,1 2,1 2,1 2,1 h 2 2 l 2,-1 2,-1 2,-1 2,-1 2,-2 2,-2 2,-2 2,-3 2,-2 2,-3 2,-3 3,-2 2,-3 2,-2 2,-3 2,-2 2,-2 2,-2 2,-2 2,-2 2,-2 2,-1 2,-1 h 2 2 2 l 2,1 2,1 2,2 2,2 2,2 3,3 2,2 2,3 2,3 2,3 2,3 2,2 2,3 2,3 2,2 2,2 2,2 2,2 2,1 2,1 2,1 2,1 h 2 2 l 2,-1 3,-1 2,-1 2,-1 2,-2 2,-2 2,-2 2,-3 2,-2 2,-3 2,-3 2,-2 2,-3 2,-2 2,-3 2,-2 2,-2 2,-2 2,-2 2,-2 2,-2 3,-1 2,-1 h 2"
           stroke="#0f9ed5"
           stroke-width="2"
           stroke-linecap="round"
           stroke-linejoin="round"
           stroke-miterlimit="10"
           fill="none"
           id="path12" />
      </g>
      <g
         id="g14">
        <path
           d="m 712,278 h 2 2 2 2 2 2 2 2 2 2 2 2 2 2 2 2 3 2 2 l 2,-1 h 2 l 2,-1 2,-1 2,-1 2,-2 2,-1 2,-2 2,-2 2,-2 2,-3 2,-2 2,-3 2,-2 2,-3 2,-3 2,-2 3,-3 2,-3 2,-2 2,-3 2,-3 2,-2 2,-3 2,-3 2,-3 2,-2 2,-3 2,-2 2,-2 2,-2 2,-2 2,-2 2,-1 2,-2 2,-2 2,-1 3,-2 2,-2 2,-2 2,-2 2,-2 2,-2 2,-2 2,-2 2,-1 2,-2 2,-1 2,-1 2,-1 2,-1 2,-1 2,-1 h 2 l 2,-1 h 2 l 2,-1 h 3 l 2,-1 2,-1 2,-1 2,-1 2,-2 2,-1 2,-2 2,-1 2,-2 2,-2 2,-2 2,-2 2,-2 2,-2 2,-2 2,-2 2,-2 2,-2 2,-1 3,-2 2,-2 2,-1 2,-2 2,-1 2,-1 h 2 2 l 2,1 2,1 2,1 2,2 2,2 2,2 2,3 2,2 2,3 2,2 2,3 2,2 3,3 2,2 2,2 2,1 2,2 2,1 h 2 l 2,1 h 2 2 l 2,-1 2,-1 2,-1 2,-2 2,-2 2,-2 2,-2 2,-3 2,-2 2,-3 3,-2 2,-3 2,-3 2,-2 2,-2 2,-3 2,-2 2,-2 2,-2 2,-2 2,-1 2,-1 2,-1 h 2 2 l 2,1 2,1 2,2 2,2 2,2 3,3 2,3 2,3 2,3 2,3 2,2 2,3 2,3 2,2 2,3 2,2 2,2 2,2 2,1 2,1 2,1 2,1 h 2 2 l 2,-1 3,-1 2,-1 2,-2 2,-1 2,-2 2,-3 2,-2 2,-3 2,-2 2,-3 2,-3 2,-2 2,-3 2,-2 2,-3 2,-2 2,-2 2,-2 2,-2 2,-1 3,-1 2,-1 2,-1 h 2 l 2,1 2,1 2,1 2,2 2,2 2,2 2,3 2,2 2,3 2,3 2,3 2,3 2,2 2,3 2,3 2,2 3,2 2,2 2,2 2,1 2,1 2,1 h 2 l 2,1 2,-1 h 2 l 2,-1 2,-1 2,-2 2,-2 2,-2 2,-2 2,-2 2,-3 2,-2 2,-3 3,-3 2,-2 2,-3 2,-2 2,-3 2,-2 2,-2 2,-2 2,-1 2,-2 2,-1 2,-1 2,-1 h 2 l 2,1 2,1 2,1 2,2 2,2 2,2 3,3 2,2 2,3 2,3 2,3 2,3 2,2 2,3 2,2 2,3 2,2 2,2 2,2 2,1 2,1 2,1 h 2 l 2,1 2,-1 h 2 l 3,-1 2,-1 2,-2 2,-2 2,-2 2,-2 2,-2 2,-3 2,-2 2,-3 2,-3 2,-2 2,-3 2,-2 2,-2 2,-3 2,-2 2,-2 2,-1 2,-2 3,-1 2,-1 h 2"
           stroke="#a02b93"
           stroke-width="2"
           stroke-linecap="round"
           stroke-linejoin="round"
           stroke-miterlimit="10"
           fill="none"
           id="path13" />
      </g>
      <g
         id="g15">
        <path
           d="m 712,278 h 2 2 2 2 2 2 2 2 2 2 2 2 2 2 2 2 l 3,-1 h 2 l 2,-1 2,-1 2,-1 2,-2 2,-2 2,-2 2,-3 2,-3 2,-4 2,-4 2,-4 2,-4 2,-5 2,-5 2,-5 2,-5 2,-6 2,-5 3,-6 2,-6 2,-6 2,-6 2,-6 2,-6 2,-5 2,-5 2,-5 2,-5 2,-5 2,-6 2,-5 2,-6 2,-6 2,-5 2,-5 2,-4 2,-3 2,-1 3,1 2,2 2,4 2,4 2,5 2,6 2,5 2,5 2,5 2,5 2,4 2,3 2,3 2,3 2,2 2,1 h 2 2 l 2,-1 2,-1 3,-2 2,-3 2,-3 2,-4 2,-4 2,-5 2,-5 2,-6 2,-6 2,-5 2,-6 2,-6 2,-5 2,-6 2,-4 2,-5 2,-3 2,-3 2,-2 2,-1 3,1 2,2 2,3 2,4 2,5 2,5 2,6 2,6 2,6 2,6 2,5 2,6 2,5 2,5 2,5 2,4 2,4 2,3 2,4 2,3 3,2 2,2 2,2 2,1 2,1 h 2 2 l 2,-1 2,-2 2,-2 2,-3 2,-3 2,-4 2,-4 2,-5 2,-4 2,-6 2,-5 2,-5 2,-5 3,-5 2,-6 2,-5 2,-5 2,-4 2,-5 2,-4 2,-3 2,-3 2,-2 h 2 2 l 2,2 2,2 2,4 2,4 2,6 2,5 2,6 2,5 3,6 2,5 2,6 2,5 2,4 2,5 2,4 2,4 2,3 2,3 2,3 2,2 2,2 2,2 2,1 h 2 2 l 2,-1 2,-2 2,-2 3,-2 2,-3 2,-4 2,-4 2,-5 2,-4 2,-5 2,-5 2,-6 2,-5 2,-5 2,-5 2,-5 2,-5 2,-5 2,-4 2,-4 2,-4 2,-2 2,-2 3,-1 2,1 2,2 2,2 2,4 2,5 2,5 2,5 2,6 2,6 2,5 2,6 2,5 2,5 2,5 2,4 2,4 2,4 2,3 2,4 3,2 2,3 2,2 2,1 2,1 h 2 2 l 2,-1 2,-1 2,-2 2,-3 2,-3 2,-4 2,-4 2,-4 2,-5 2,-5 2,-5 2,-6 2,-5 3,-5 2,-5 2,-5 2,-5 2,-5 2,-4 2,-4 2,-4 2,-2 2,-2 2,-1 2,1 2,2 2,2 2,4 2,5 2,5 2,5 2,6 2,6 3,5 2,6 2,5 2,5 2,5 2,4 2,4 2,4 2,3 2,4 2,2 2,3 2,1 2,2 2,1 h 2 2 l 2,-1 2,-1 2,-2 3,-3 2,-3 2,-4 2,-4 2,-4 2,-5 2,-5 2,-5 2,-6 2,-5 2,-5 2,-5 2,-5 2,-5 2,-5 2,-4 2,-4 2,-4 2,-2 2,-2 3,-1 2,1 2,2"
           stroke="#f2aa84"
           stroke-width="2"
           stroke-linecap="round"
           stroke-linejoin="round"
           stroke-miterlimit="10"
           fill="none"
           id="path14" />
      </g>
      <g
         id="g16">
        <path
           d="m 712,278 h 2 2 2 2 2 2 2 2 2 2 2 2 2 2 2 2 l 3,-1 h 2 l 2,-1 2,-1 2,-1 2,-2 2,-2 2,-2 2,-3 2,-3 2,-4 2,-4 2,-4 2,-4 2,-5 2,-5 2,-5 2,-5 2,-6 2,-5 3,-6 2,-6 2,-6 2,-6 2,-6 2,-6 2,-5 2,-5 2,-5 2,-5 2,-5 2,-6 2,-5 2,-6 2,-6 2,-5 2,-6 2,-4 2,-2 2,-1 3,1 2,2 2,4 2,4 2,5 2,6 2,5 2,5 2,5 2,5 2,4 2,3 2,3 2,3 2,2 2,1 h 2 2 2 l 2,-2 3,-2 2,-3 2,-3 2,-4 2,-4 2,-5 2,-5 2,-6 2,-5 2,-6 2,-6 2,-6 2,-5 2,-5 2,-5 2,-5 2,-3 2,-3 2,-2 h 2 3 l 2,2 2,3 2,4 2,5 2,5 2,6 2,6 2,6 2,6 2,5 2,6 2,5 2,5 2,5 2,4 2,4 2,4 2,3 2,3 3,2 2,2 2,2 2,1 2,1 h 2 2 l 2,-1 2,-2 2,-2 2,-3 2,-3 2,-4 2,-4 2,-5 2,-4 2,-5 2,-6 2,-5 2,-5 3,-5 2,-6 2,-5 2,-4 2,-5 2,-5 2,-4 2,-3 2,-3 2,-2 h 2 2 l 2,2 2,2 2,4 2,4 2,6 2,5 2,6 2,5 3,6 2,5 2,6 2,5 2,4 2,5 2,4 2,4 2,3 2,3 2,3 2,2 2,2 2,2 2,1 h 2 2 l 2,-1 2,-1 2,-2 3,-3 2,-3 2,-4 2,-4 2,-4 2,-5 2,-5 2,-5 2,-6 2,-5 2,-5 2,-5 2,-5 2,-5 2,-5 2,-4 2,-4 2,-4 2,-2 2,-2 3,-1 2,1 2,2 2,2 2,4 2,5 2,5 2,5 2,6 2,6 2,5 2,6 2,5 2,5 2,5 2,4 2,4 2,4 2,3 2,4 3,2 2,3 2,2 2,1 2,1 h 2 2 l 2,-1 2,-1 2,-2 2,-3 2,-3 2,-4 2,-4 2,-4 2,-5 2,-5 2,-5 2,-5 2,-6 3,-5 2,-5 2,-5 2,-5 2,-5 2,-4 2,-4 2,-4 2,-2 2,-2 2,-1 2,1 2,2 2,2 2,4 2,5 2,5 2,5 2,6 2,6 3,5 2,6 2,5 2,5 2,5 2,4 2,4 2,4 2,3 2,4 2,2 2,3 2,2 2,1 2,1 h 2 2 l 2,-1 2,-1 2,-2 3,-3 2,-3 2,-4 2,-4 2,-4 2,-5 2,-5 2,-5 2,-6 2,-5 2,-5 2,-5 2,-5 2,-5 2,-5 2,-4 2,-4 2,-4 2,-2 2,-2 3,-1 2,1 2,2"
           stroke="#0d3a4e"
           stroke-width="2"
           stroke-linecap="round"
           stroke-linejoin="round"
           stroke-miterlimit="10"
           fill="none"
           id="path15" />
      </g>
      <g
         id="g17">
        <text
           font-family="Arial, Arial_MSFontService, sans-serif"
           font-weight="400"
           font-size="12px"
           transform="translate(674,326)"
           id="text16">-0.05</text>
      </g>
      <g
         id="g18">
        <text
           font-family="Arial, Arial_MSFontService, sans-serif"
           font-weight="400"
           font-size="12px"
           transform="translate(677.993,282)"
           id="text17">0.00</text>
      </g>
      <g
         id="g19">
        <text
           font-family="Arial, Arial_MSFontService, sans-serif"
           font-weight="400"
           font-size="12px"
           transform="translate(677.993,238)"
           id="text18">0.05</text>
      </g>
      <g
         id="g20">
        <text
           font-family="Arial, Arial_MSFontService, sans-serif"
           font-weight="400"
           font-size="12px"
           transform="translate(677.993,195)"
           id="text19">0.10</text>
      </g>
      <g
         id="g21">
        <text
           font-family="Arial, Arial_MSFontService, sans-serif"
           font-weight="400"
           font-size="12px"
           transform="translate(677.993,151)"
           id="text20">0.15</text>
      </g>
      <g
         id="g22">
        <text
           font-family="Arial, Arial_MSFontService, sans-serif"
           font-weight="400"
           font-size="12px"
           transform="translate(677.993,107)"
           id="text21">0.20</text>
      </g>
      <g
         id="g23">
        <text
           font-family="Arial, Arial_MSFontService, sans-serif"
           font-weight="400"
           font-size="12px"
           transform="translate(677.993,63)"
           id="text22">0.25</text>
      </g>
      <g
         id="g24">
        <text
           font-family="Arial, Arial_MSFontService, sans-serif"
           font-weight="400"
           font-size="12px"
           transform="translate(677.993,19)"
           id="text23">0.30</text>
      </g>
      <g
         id="g25">
        <text
           font-family="Arial, Arial_MSFontService, sans-serif"
           font-weight="400"
           font-size="12px"
           transform="translate(708.33,297)"
           id="text24">0</text>
      </g>
      <g
         id="g26">
        <text
           font-family="Arial, Arial_MSFontService, sans-serif"
           font-weight="400"
           font-size="12px"
           transform="translate(810.829,297)"
           id="text25">5</text>
      </g>
      <g
         id="g27">
        <text
           font-family="Arial, Arial_MSFontService, sans-serif"
           font-weight="400"
           font-size="12px"
           transform="translate(909.991,297)"
           id="text26">10</text>
      </g>
      <g
         id="g28">
        <text
           font-family="Arial, Arial_MSFontService, sans-serif"
           font-weight="400"
           font-size="12px"
           transform="translate(1012.49,297)"
           id="text27">15</text>
      </g>
      <g
         id="g29">
        <text
           font-family="Arial, Arial_MSFontService, sans-serif"
           font-weight="400"
           font-size="12px"
           transform="translate(1114.99,297)"
           id="text28">20</text>
      </g>
      <g
         id="g30">
        <text
           font-family="Arial, Arial_MSFontService, sans-serif"
           font-weight="400"
           font-size="12px"
           transform="translate(1217.49,297)"
           id="text29">25</text>
      </g>
      <g
         id="g31">
        <text
           font-family="Arial, Arial_MSFontService, sans-serif"
           font-weight="400"
           font-size="12px"
           transform="translate(1319.99,297)"
           id="text30">30</text>
      </g>
      <g
         id="g32">
        <text
           font-family="Arial, Arial_MSFontService, sans-serif"
           font-weight="400"
           font-size="13px"
           transform="rotate(-90,450.8335,-216.8335)"
           id="text31">Deslocamento vertical</text>
      </g>
      <g
         id="g33">
        <text
           font-family="Arial, Arial_MSFontService, sans-serif"
           font-weight="400"
           font-size="13px"
           transform="translate(998.417,337)"
           id="text32">Tempo</text>
      </g>
      <g
         id="g34">
        <path
           d="m 731,367 h 34"
           stroke="#000000"
           stroke-width="2"
           stroke-linecap="round"
           stroke-linejoin="round"
           stroke-miterlimit="10"
           stroke-dasharray="4, 4"
           fill="none"
           fill-rule="evenodd"
           id="path33" />
      </g>
      <g
         id="g35">
        <text
           font-family="Arial, Arial_MSFontService, sans-serif"
           font-weight="400"
           font-size="12px"
           transform="translate(768.779,371)"
           id="text34">Vázquez (2007)</text>
      </g>
      <g
         id="g36">
        <path
           d="m 865,367 h 33"
           stroke="#e97132"
           stroke-width="2"
           stroke-linecap="round"
           stroke-linejoin="round"
           stroke-miterlimit="10"
           fill="none"
           fill-rule="evenodd"
           id="path35" />
      </g>
      <g
         id="g37">
        <text
           font-family="Arial, Arial_MSFontService, sans-serif"
           font-weight="400"
           font-size="12px"
           transform="translate(902.139,371)"
           id="text36">SUPG/PSPG</text>
      </g>
      <g
         id="g38">
        <path
           d="m 998,367 h 34"
           stroke="#196b24"
           stroke-width="2"
           stroke-linecap="round"
           stroke-linejoin="round"
           stroke-miterlimit="10"
           fill="none"
           fill-rule="evenodd"
           id="path37" />
      </g>
      <g
         id="g39">
        <text
           font-family="Arial, Arial_MSFontService, sans-serif"
           font-weight="400"
           font-size="12px"
           transform="translate(1035.5,371)"
           id="text38">LES</text>
      </g>
      <g
         id="g40">
        <path
           d="m 1132,367 h 33"
           stroke="#0f9ed5"
           stroke-width="2"
           stroke-linecap="round"
           stroke-linejoin="round"
           stroke-miterlimit="10"
           fill="none"
           fill-rule="evenodd"
           id="path39" />
      </g>
      <g
         id="g41">
        <text
           font-family="Arial, Arial_MSFontService, sans-serif"
           font-weight="400"
           font-size="12px"
           transform="translate(1168.86,371)"
           id="text40">VMS</text>
      </g>
      <g
         id="g42">
        <path
           d="m 731,388 h 34"
           stroke="#a02b93"
           stroke-width="2"
           stroke-linecap="round"
           stroke-linejoin="round"
           stroke-miterlimit="10"
           fill="none"
           fill-rule="evenodd"
           id="path41" />
      </g>
      <g
         id="g43">
        <text
           font-family="Arial, Arial_MSFontService, sans-serif"
           font-weight="400"
           font-size="12px"
           transform="translate(768.779,392)"
           id="text42">LES-VMS</text>
      </g>
      <g
         id="g44">
        <path
           d="m 865,388 h 33"
           stroke="#f2aa84"
           stroke-width="2"
           stroke-linecap="round"
           stroke-linejoin="round"
           stroke-miterlimit="10"
           fill="none"
           fill-rule="evenodd"
           id="path43" />
      </g>
      <g
         id="g45">
        <text
           font-family="Arial, Arial_MSFontService, sans-serif"
           font-weight="400"
           font-size="12px"
           transform="translate(902.139,392)"
           id="text44">m1-LES</text>
      </g>
      <g
         id="g46">
        <path
           d="m 998,388 h 34"
           stroke="#0d3a4e"
           stroke-width="2"
           stroke-linecap="round"
           stroke-linejoin="round"
           stroke-miterlimit="10"
           fill="none"
           fill-rule="evenodd"
           id="path45" />
      </g>
      <g
         id="g47">
        <text
           font-family="Arial, Arial_MSFontService, sans-serif"
           font-weight="400"
           font-size="12px"
           transform="translate(1035.5,392)"
           id="text46">m1-SUPG/PSPG</text>
      </g>
    </g>
  </g>
</svg>
