<?xml version="1.0" encoding="UTF-8" standalone="no"?>
<!-- Created with Inkscape (http://www.inkscape.org/) -->

<svg
   width="196.58542mm"
   height="107.15625mm"
   viewBox="0 0 196.58542 107.15625"
   version="1.1"
   id="svg1"
   inkscape:version="1.3.2 (1:1.3.2+202311252150+091e20ef0f)"
   sodipodi:docname="vert_disp.svg"
   xmlns:inkscape="http://www.inkscape.org/namespaces/inkscape"
   xmlns:sodipodi="http://sodipodi.sourceforge.net/DTD/sodipodi-0.dtd"
   xmlns="http://www.w3.org/2000/svg"
   xmlns:svg="http://www.w3.org/2000/svg">
  <sodipodi:namedview
     id="namedview1"
     pagecolor="#ffffff"
     bordercolor="#000000"
     borderopacity="0.25"
     inkscape:showpageshadow="2"
     inkscape:pageopacity="0.0"
     inkscape:pagecheckerboard="0"
     inkscape:deskcolor="#d1d1d1"
     inkscape:document-units="mm"
     inkscape:zoom="1.4627806"
     inkscape:cx="353.43646"
     inkscape:cy="254.99381"
     inkscape:window-width="1920"
     inkscape:window-height="962"
     inkscape:window-x="0"
     inkscape:window-y="0"
     inkscape:window-maximized="1"
     inkscape:current-layer="layer1" />
  <defs
     id="defs1">
    <clipPath
       id="clip0">
      <rect
         x="313"
         y="402"
         width="743"
         height="405"
         id="rect1" />
    </clipPath>
    <clipPath
       id="clip1">
      <rect
         x="386"
         y="416"
         width="649"
         height="328"
         id="rect2" />
    </clipPath>
  </defs>
  <g
     inkscape:label="Camada 1"
     inkscape:groupmode="layer"
     id="layer1"
     transform="translate(37.041668,-129.11667)">
    <g
       clip-path="url(#clip0)"
       transform="matrix(0.26458333,0,0,0.26458333,-119.85625,22.754167)"
       id="g33">
      <rect
         x="313"
         y="402"
         width="743"
         height="405"
         fill="#ffffff"
         id="rect3" />
      <g
         id="g3">
        <path
           d="m 386.5,743.5 h 648 m -648,-93 h 648 m -648,-47 h 648 m -648,-47 h 648 m -648,-46 h 648 m -648,-47 h 648 m -648,-47 h 648"
           stroke="#d9d9d9"
           stroke-linejoin="round"
           stroke-miterlimit="10"
           fill="none"
           id="path3" />
      </g>
      <g
         id="g4">
        <path
           d="m 494.5,416.5 v 327 m 108,-327 v 327 m 108,-327 v 327 m 108,-327 v 327 m 108,-327 v 327 m 108,-327 v 327"
           stroke="#d9d9d9"
           stroke-linejoin="round"
           stroke-miterlimit="10"
           fill="none"
           id="path4" />
      </g>
      <g
         id="g5">
        <rect
           x="386.5"
           y="416.5"
           width="648"
           height="327"
           stroke="#000000"
           stroke-linejoin="round"
           stroke-miterlimit="10"
           fill="none"
           id="rect4" />
      </g>
      <g
         id="g6">
        <path
           d="M 0,0 1.04987e-4,327"
           stroke="#000000"
           stroke-linejoin="round"
           stroke-miterlimit="10"
           fill="none"
           fill-rule="evenodd"
           transform="matrix(1,0,0,-1,386.5,743.5)"
           id="path5" />
      </g>
      <g
         id="g7">
        <path
           d="m 386.5,743.5 h 3 m -3,-9 h 3 m -3,-9 h 3 m -3,-10 h 3 m -3,-9 h 3 m -3,-9 h 3 m -3,-10 h 3 m -3,-9 h 3 m -3,-10 h 3 m -3,-9 h 3 m -3,-9 h 3 m -3,-10 h 3 m -3,-9 h 3 m -3,-9 h 3 m -3,-10 h 3 m -3,-9 h 3 m -3,-9 h 3 m -3,-10 h 3 m -3,-9 h 3 m -3,-9 h 3 m -3,-10 h 3 m -3,-9 h 3 m -3,-9 h 3 m -3,-10 h 3 m -3,-9 h 3 m -3,-9 h 3 m -3,-10 h 3 m -3,-9 h 3 m -3,-9 h 3 m -3,-10 h 3 m -3,-9 h 3 m -3,-9 h 3 m -3,-10 h 3 m -3,-9 h 3 m -3,-9 h 3 m -3,-10 h 3 m -6,327 h 7 m -7,-46 h 7 m -7,-47 h 7 m -7,-47 h 7 m -7,-47 h 7 m -7,-46 h 7 m -7,-47 h 7 m -7,-47 h 7"
           stroke="#000000"
           stroke-linejoin="round"
           stroke-miterlimit="10"
           fill="none"
           id="path6" />
      </g>
      <g
         id="g8">
        <path
           d="m 386.5,697.5 h 648"
           stroke="#000000"
           stroke-linejoin="round"
           stroke-miterlimit="10"
           fill="none"
           fill-rule="evenodd"
           id="path7" />
      </g>
      <g
         id="g9">
        <path
           d="m 386.5,694.5 v 3 m 22,-3 v 3 m 21,-3 v 3 m 22,-3 v 3 m 22,-3 v 3 m 21,-3 v 3 m 22,-3 v 3 m 21,-3 v 3 m 22,-3 v 3 m 22,-3 v 3 m 21,-3 v 3 m 22,-3 v 3 m 21,-3 v 3 m 22,-3 v 3 m 22,-3 v 3 m 21,-3 v 3 m 22,-3 v 3 m 21,-3 v 3 m 22,-3 v 3 m 22,-3 v 3 m 21,-3 v 3 m 22,-3 v 3 m 21,-3 v 3 m 22,-3 v 3 m 22,-3 v 3 m 21,-3 v 3 m 22,-3 v 3 m 21,-3 v 3 m 22,-3 v 3 m 22,-3 v 3 m 21,-3 v 3 m -648,-4 v 7 m 108,-7 v 7 m 108,-7 v 7 m 108,-7 v 7 m 108,-7 v 7 m 108,-7 v 7 m 108,-7 v 7"
           stroke="#000000"
           stroke-linejoin="round"
           stroke-miterlimit="10"
           fill="none"
           id="path8" />
      </g>
      <g
         clip-path="url(#clip1)"
         id="g10">
        <path
           d="m 389,697 8,1 13,2 12,1 15,-5 12,-15 12,-17 12,-26 6,-19 10,-24 10,-20 7,-22 7,-14 6,-5 9,16 3,21 7,16 9,10 14,-11 8,-18 8,-32 4,-24 5,-24 4,-18 5,-7 9,17 5,21 7,21 4,16 6,13 8,10 h 8 l 13,-17 10,-22 7,-20 9,-16 9,-12 17,2 14,16 8,22 8,16 6,12 11,9 14,-9 8,-18 8,-26 3,-14 6,-12 9,-11 14,14 10,17 10,24 11,17 11,9 8,2 10,-6 6,-14 8,-23 8,-20 7,-12 6,-7 14,11 11,23 10,21 8,16 9,9 9,4 8,-6 10,-15 6,-14 5,-19 4,-13 5,-9 5,-7 8,1 10,10 7,13"
           stroke="#000000"
           stroke-width="2"
           stroke-linecap="round"
           stroke-linejoin="round"
           stroke-miterlimit="10"
           stroke-dasharray="4, 4"
           fill="none"
           id="path9" />
      </g>
      <g
         id="g11">
        <path
           d="m 387,697 h 2 2 2 2 2 3 2 2 2 2 2 3 2 2 l 2,-1 h 2 2 l 3,-1 2,-1 2,-1 2,-1 2,-2 2,-2 3,-3 2,-2 2,-4 2,-4 2,-4 2,-4 2,-5 3,-5 2,-5 2,-5 2,-6 2,-6 2,-6 3,-6 2,-6 2,-7 2,-6 2,-6 2,-6 3,-6 2,-6 2,-5 2,-5 2,-6 2,-5 3,-6 2,-6 2,-6 2,-7 2,-5 2,-4 2,-3 3,-1 2,1 2,3 2,4 2,4 2,6 3,5 2,6 2,5 2,6 2,4 2,5 3,4 2,3 2,2 2,2 2,2 h 2 3 l 2,-1 2,-1 2,-2 2,-3 2,-4 2,-4 3,-5 2,-5 2,-5 2,-6 2,-6 2,-6 3,-6 2,-6 2,-6 2,-6 2,-5 2,-5 3,-3 2,-3 2,-2 2,-1 2,1 2,2 3,3 2,4 2,5 2,6 2,6 2,6 2,7 3,6 2,6 2,6 2,5 2,6 2,4 3,5 2,4 2,4 2,4 2,3 2,2 3,3 2,1 2,2 2,1 h 2 l 2,-1 3,-1 2,-2 2,-2 2,-3 2,-3 2,-4 2,-5 3,-5 2,-5 2,-5 2,-6 2,-5 2,-6 3,-5 2,-6 2,-5 2,-5 2,-5 2,-5 3,-4 2,-4 2,-3 2,-2 2,-1 2,1 3,1 2,3 2,4 2,5 2,5 2,6 2,6 3,6 2,6 2,6 2,5 2,6 2,5 3,4 2,5 2,4 2,4 2,3 2,3 3,2 2,2 2,2 2,1 h 2 2 l 3,-1 2,-1 2,-2 2,-3 2,-4 2,-3 2,-5 3,-4 2,-6 2,-5 2,-5 2,-6 2,-6 3,-5 2,-6 2,-5 2,-5 2,-5 2,-5 3,-4 2,-4 2,-3 2,-1 2,-1 2,1 3,1 2,3 2,4 2,5 2,6 2,5 2,6 3,7 2,6 2,5 2,6 2,5 2,5 3,5 2,4 2,4 2,4 2,3 2,3 3,3 2,2 2,1 2,1 2,1 2,-1 3,-1 2,-1 2,-2 2,-3 2,-3 2,-4 2,-5 3,-4 2,-5 2,-6 2,-5 2,-6 2,-5 3,-6 2,-5 2,-6 2,-5 2,-5 2,-5 3,-4 2,-4 2,-2 2,-2 2,-1 2,1 3,1 2,3 2,4 2,5 2,6 2,5 2,6 3,7 2,5 2,6 2,6 2,5 2,5 3,5 2,4 2,4 2,4 2,3 2,3 3,3 2,2 2,1 2,1 h 2 2 l 3,-1 2,-1 2,-2 2,-3 2,-3 2,-4 2,-5 3,-4 2,-6 2,-5 2,-5 2,-6 2,-5 3,-6 2,-5 2,-6 2,-5 2,-5 2,-5 3,-4 2,-4 2,-2 2,-2 2,-1 2,1 3,1"
           stroke="#e97132"
           stroke-width="2"
           stroke-linecap="round"
           stroke-linejoin="round"
           stroke-miterlimit="10"
           fill="none"
           id="path10" />
      </g>
      <g
         id="g12">
        <text
           font-family="Arial, Arial_MSFontService, sans-serif"
           font-weight="400"
           font-size="12px"
           transform="translate(349,748)"
           id="text11">-0.05</text>
      </g>
      <g
         id="g13">
        <text
           font-family="Arial, Arial_MSFontService, sans-serif"
           font-weight="400"
           font-size="12px"
           transform="translate(352.993,701)"
           id="text12">0.00</text>
      </g>
      <g
         id="g14">
        <text
           font-family="Arial, Arial_MSFontService, sans-serif"
           font-weight="400"
           font-size="12px"
           transform="translate(352.993,654)"
           id="text13">0.05</text>
      </g>
      <g
         id="g15">
        <text
           font-family="Arial, Arial_MSFontService, sans-serif"
           font-weight="400"
           font-size="12px"
           transform="translate(352.993,608)"
           id="text14">0.10</text>
      </g>
      <g
         id="g16">
        <text
           font-family="Arial, Arial_MSFontService, sans-serif"
           font-weight="400"
           font-size="12px"
           transform="translate(352.993,561)"
           id="text15">0.15</text>
      </g>
      <g
         id="g17">
        <text
           font-family="Arial, Arial_MSFontService, sans-serif"
           font-weight="400"
           font-size="12px"
           transform="translate(352.993,514)"
           id="text16">0.20</text>
      </g>
      <g
         id="g18">
        <text
           font-family="Arial, Arial_MSFontService, sans-serif"
           font-weight="400"
           font-size="12px"
           transform="translate(352.993,467)"
           id="text17">0.25</text>
      </g>
      <g
         id="g19">
        <text
           font-family="Arial, Arial_MSFontService, sans-serif"
           font-weight="400"
           font-size="12px"
           transform="translate(352.993,421)"
           id="text18">0.30</text>
      </g>
      <g
         id="g20">
        <text
           font-family="Arial, Arial_MSFontService, sans-serif"
           font-weight="400"
           font-size="12px"
           transform="translate(383.33,715)"
           id="text19">0</text>
      </g>
      <g
         id="g21">
        <text
           font-family="Arial, Arial_MSFontService, sans-serif"
           font-weight="400"
           font-size="12px"
           transform="translate(491.329,715)"
           id="text20">5</text>
      </g>
      <g
         id="g22">
        <text
           font-family="Arial, Arial_MSFontService, sans-serif"
           font-weight="400"
           font-size="12px"
           transform="translate(595.991,715)"
           id="text21">10</text>
      </g>
      <g
         id="g23">
        <text
           font-family="Arial, Arial_MSFontService, sans-serif"
           font-weight="400"
           font-size="12px"
           transform="translate(703.99,715)"
           id="text22">15</text>
      </g>
      <g
         id="g24">
        <text
           font-family="Arial, Arial_MSFontService, sans-serif"
           font-weight="400"
           font-size="12px"
           transform="translate(811.989,715)"
           id="text23">20</text>
      </g>
      <g
         id="g25">
        <text
           font-family="Arial, Arial_MSFontService, sans-serif"
           font-weight="400"
           font-size="12px"
           transform="translate(919.988,715)"
           id="text24">25</text>
      </g>
      <g
         id="g26">
        <text
           font-family="Arial, Arial_MSFontService, sans-serif"
           font-weight="400"
           font-size="12px"
           transform="translate(1027.99,715)"
           id="text25">30</text>
      </g>
      <g
         id="g27">
        <text
           font-family="Arial, Arial_MSFontService, sans-serif"
           font-weight="400"
           font-size="13px"
           transform="rotate(-90,494.3335,151.6665)"
           id="text26">Deslocamento vertical</text>
      </g>
      <g
         id="g28">
        <text
           font-family="Arial, Arial_MSFontService, sans-serif"
           font-weight="400"
           font-size="13px"
           transform="translate(689.917,759)"
           id="text27">Tempo</text>
      </g>
      <g
         id="g29">
        <path
           d="m 586,788 h 34"
           stroke="#000000"
           stroke-width="2"
           stroke-linecap="round"
           stroke-linejoin="round"
           stroke-miterlimit="10"
           stroke-dasharray="4, 4"
           fill="none"
           fill-rule="evenodd"
           id="path28" />
      </g>
      <g
         id="g30">
        <text
           font-family="Arial, Arial_MSFontService, sans-serif"
           font-weight="400"
           font-size="12px"
           transform="translate(623.504,792)"
           id="text29">Vázquez (2007)</text>
      </g>
      <g
         id="g31">
        <path
           d="m 726,788 h 33"
           stroke="#e97132"
           stroke-width="2"
           stroke-linecap="round"
           stroke-linejoin="round"
           stroke-miterlimit="10"
           fill="none"
           fill-rule="evenodd"
           id="path30" />
      </g>
      <g
         id="g32">
        <text
           font-family="Arial, Arial_MSFontService, sans-serif"
           font-weight="400"
           font-size="12px"
           transform="translate(763.155,792)"
           id="text31"
           style="-inkscape-font-specification:'Arial, Arial_MSFontService, sans-serif, Normal';font-family:Arial, Arial_MSFontService, sans-serif;font-weight:normal;font-style:normal;font-stretch:normal;font-variant:normal;font-size:12px;font-variant-ligatures:normal;font-variant-caps:normal;font-variant-numeric:normal;font-variant-east-asian:normal"><tspan
             sodipodi:role="line"
             id="tspan1">SUPG/PSPG</tspan></text>
      </g>
    </g>
  </g>
</svg>
