<?xml version="1.0" encoding="UTF-8" standalone="no"?>
<!-- Created with Inkscape (http://www.inkscape.org/) -->

<svg
   width="70.541908mm"
   height="61.526718mm"
   viewBox="0 0 70.541909 61.526717"
   version="1.1"
   id="svg5"
   sodipodi:docname="cavidade.svg"
   inkscape:version="1.3.2 (1:1.3.2+202311252150+091e20ef0f)"
   xmlns:inkscape="http://www.inkscape.org/namespaces/inkscape"
   xmlns:sodipodi="http://sodipodi.sourceforge.net/DTD/sodipodi-0.dtd"
   xmlns:xlink="http://www.w3.org/1999/xlink"
   xmlns="http://www.w3.org/2000/svg"
   xmlns:svg="http://www.w3.org/2000/svg">
  <sodipodi:namedview
     id="namedview7"
     pagecolor="#ffffff"
     bordercolor="#000000"
     borderopacity="0.25"
     inkscape:showpageshadow="2"
     inkscape:pageopacity="0.0"
     inkscape:pagecheckerboard="0"
     inkscape:deskcolor="#d1d1d1"
     inkscape:document-units="mm"
     showgrid="false"
     inkscape:zoom="2.9825758"
     inkscape:cx="109.46914"
     inkscape:cy="91.866902"
     inkscape:window-width="1680"
     inkscape:window-height="932"
     inkscape:window-x="0"
     inkscape:window-y="0"
     inkscape:window-maximized="1"
     inkscape:current-layer="layer1">
    <inkscape:grid
       type="xygrid"
       id="grid186"
       spacingx="1.3229167"
       spacingy="1.3229167"
       originx="-45.844601"
       originy="-126.32757"
       units="mm"
       visible="false" />
  </sodipodi:namedview>
  <defs
     id="defs2">
    <linearGradient
       inkscape:collect="always"
       id="linearGradient1071">
      <stop
         style="stop-color:#000000;stop-opacity:0;"
         offset="0"
         id="stop1069" />
      <stop
         style="stop-color:#000000;stop-opacity:0.2;"
         offset="1"
         id="stop1067" />
    </linearGradient>
    <marker
       style="overflow:visible"
       id="TriangleStart"
       refX="3"
       refY="0"
       orient="auto-start-reverse"
       inkscape:stockid="TriangleStart"
       markerWidth="10"
       markerHeight="5"
       viewBox="0 0 5.3244081 6.1553851"
       inkscape:isstock="true"
       inkscape:collect="always"
       preserveAspectRatio="none">
      <path
         transform="scale(0.5)"
         style="fill:context-stroke;fill-rule:evenodd;stroke:context-stroke;stroke-width:1pt"
         d="M 5.77,0 -2.88,5 V -5 Z"
         id="path135" />
    </marker>
    <clipPath
       id="clipPath5403">
      <path
         clip-rule="nonzero"
         d="m 213,62 h 5 v 5.601563 h -5 z m 0,0"
         id="path691" />
    </clipPath>
    <clipPath
       id="clipPath9650">
      <path
         clip-rule="nonzero"
         d="m 230,12 h 5 v 5.789063 h -5 z m 0,0"
         id="path5154" />
    </clipPath>
    <clipPath
       id="clipPath8320">
      <path
         clip-rule="nonzero"
         d="m 213,12 h 5 v 4.238281 h -5 z m 0,0"
         id="path7832" />
    </clipPath>
    <clipPath
       id="clipPath6267">
      <path
         clip-rule="nonzero"
         d="m 213,12 h 5 v 5.789063 h -5 z m 0,0"
         id="path6916" />
    </clipPath>
    <clipPath
       id="clipPath8320-3">
      <path
         clip-rule="nonzero"
         d="m 213,12 h 5 v 4.238281 h -5 z m 0,0"
         id="path7832-6" />
    </clipPath>
    <clipPath
       id="clipPath6267-0">
      <path
         clip-rule="nonzero"
         d="m 213,12 h 5 v 5.789063 h -5 z m 0,0"
         id="path6916-0" />
    </clipPath>
    <clipPath
       id="clipPath8320-3-1">
      <path
         clip-rule="nonzero"
         d="m 213,12 h 5 v 4.238281 h -5 z m 0,0"
         id="path7832-6-4" />
    </clipPath>
    <clipPath
       id="clipPath6267-0-2">
      <path
         clip-rule="nonzero"
         d="m 213,12 h 5 v 5.789063 h -5 z m 0,0"
         id="path6916-0-2" />
    </clipPath>
    <clipPath
       id="clipPath9570">
      <path
         clip-rule="nonzero"
         d="m 213,12 h 5 v 4.238281 h -5 z m 0,0"
         id="path4610" />
    </clipPath>
    <clipPath
       id="clipPath4865">
      <path
         clip-rule="nonzero"
         d="m 213,12 h 5 v 5.789063 h -5 z m 0,0"
         id="path9685" />
    </clipPath>
    <clipPath
       id="clipPath8320-3-1-1">
      <path
         clip-rule="nonzero"
         d="m 213,12 h 5 v 4.238281 h -5 z m 0,0"
         id="path7832-6-4-8" />
    </clipPath>
    <clipPath
       id="clipPath6267-0-2-5">
      <path
         clip-rule="nonzero"
         d="m 213,12 h 5 v 5.789063 h -5 z m 0,0"
         id="path6916-0-2-7" />
    </clipPath>
    <clipPath
       id="clipPath8320-3-1-7">
      <path
         clip-rule="nonzero"
         d="m 213,12 h 5 v 4.238281 h -5 z m 0,0"
         id="path7832-6-4-7" />
    </clipPath>
    <clipPath
       id="clipPath6267-0-2-4">
      <path
         clip-rule="nonzero"
         d="m 213,12 h 5 v 5.789063 h -5 z m 0,0"
         id="path6916-0-2-5" />
    </clipPath>
    <clipPath
       id="clipPath8320-3-1-7-2">
      <path
         clip-rule="nonzero"
         d="m 213,12 h 5 v 4.238281 h -5 z m 0,0"
         id="path7832-6-4-7-6" />
    </clipPath>
    <clipPath
       id="clipPath6267-0-2-4-2">
      <path
         clip-rule="nonzero"
         d="m 213,12 h 5 v 5.789063 h -5 z m 0,0"
         id="path6916-0-2-5-5" />
    </clipPath>
    <clipPath
       id="clipPath586">
      <path
         clip-rule="nonzero"
         d="m 224,10 h 4 v 6.238281 h -4 z m 0,0"
         id="path6405" />
    </clipPath>
    <clipPath
       id="clipPath6946">
      <path
         clip-rule="nonzero"
         d="m 224,10 h 4 v 6.238281 h -4 z m 0,0"
         id="path2130" />
    </clipPath>
    <clipPath
       id="clipPath6513">
      <path
         clip-rule="nonzero"
         d="m 220,6 h 6 v 8.445313 h -6 z m 0,0"
         id="path5991" />
    </clipPath>
    <clipPath
       id="clipPath3824">
      <path
         clip-rule="nonzero"
         d="m 220,6 h 6 v 8.445313 h -6 z m 0,0"
         id="path7112" />
    </clipPath>
    <clipPath
       id="clipPath523">
      <path
         clip-rule="nonzero"
         d="m 228,10 h 8 v 9.726563 h -8 z m 0,0"
         id="path7353" />
    </clipPath>
    <clipPath
       id="clipPath1423">
      <path
         clip-rule="nonzero"
         d="m 245,0 h 5 v 35.425781 h -5 z m 0,0"
         id="path6868" />
    </clipPath>
    <clipPath
       id="clipPath3903">
      <path
         clip-rule="nonzero"
         d="m 257,0 h 4 v 35.425781 h -4 z m 0,0"
         id="path7546" />
    </clipPath>
    <clipPath
       id="clipPath2530">
      <path
         clip-rule="nonzero"
         d="m 251,0 h 5 v 35.425781 h -5 z m 0,0"
         id="path7356" />
    </clipPath>
    <clipPath
       id="clipPath4106">
      <path
         clip-rule="nonzero"
         d="m 263,0 h 4 v 35.425781 h -4 z m 0,0"
         id="path1067" />
    </clipPath>
    <clipPath
       id="clipPath2005">
      <path
         clip-rule="nonzero"
         d="m 227,10 h 10 v 6.9375 h -10 z m 0,0"
         id="path2777" />
    </clipPath>
    <clipPath
       id="clipPath705">
      <path
         clip-rule="nonzero"
         d="m 256,7 h 7 v 9.9375 h -7 z m 0,0"
         id="path4561" />
    </clipPath>
    <clipPath
       id="clipPath7545">
      <path
         clip-rule="nonzero"
         d="m 227,10 h 10 v 6.9375 h -10 z m 0,0"
         id="path7260" />
    </clipPath>
    <clipPath
       id="clipPath291">
      <path
         clip-rule="nonzero"
         d="m 256,7 h 7 v 9.9375 h -7 z m 0,0"
         id="path6971" />
    </clipPath>
    <clipPath
       id="clipPath1115">
      <path
         clip-rule="nonzero"
         d="m 227,10 h 10 v 6.9375 h -10 z m 0,0"
         id="path7568" />
    </clipPath>
    <clipPath
       id="clipPath5525">
      <path
         clip-rule="nonzero"
         d="m 256,7 h 7 v 9.9375 h -7 z m 0,0"
         id="path4300" />
    </clipPath>
    <clipPath
       id="clipPath1754">
      <path
         clip-rule="nonzero"
         d="m 241,6 h 11 v 14.523438 h -11 z m 0,0"
         id="path7041" />
    </clipPath>
    <clipPath
       id="clipPath6527">
      <path
         clip-rule="nonzero"
         d="m 259,6 h 11 v 14.523438 h -11 z m 0,0"
         id="path3826" />
    </clipPath>
    <clipPath
       id="clipPath7486">
      <path
         clip-rule="nonzero"
         d="m 247,12 h 4 v 7.089844 h -4 z m 0,0"
         id="path8892" />
    </clipPath>
    <clipPath
       id="clipPath1983">
      <path
         clip-rule="nonzero"
         d="m 246,12 h 5 v 7.089844 h -5 z m 0,0"
         id="path7102" />
    </clipPath>
    <clipPath
       id="clipPath6884">
      <path
         clip-rule="nonzero"
         d="m 242,7 h 6 v 9.9375 h -6 z m 0,0"
         id="path8630" />
    </clipPath>
    <clipPath
       id="clipPath8982">
      <path
         clip-rule="nonzero"
         d="m 242,7 h 6 v 9.9375 h -6 z m 0,0"
         id="path1899" />
    </clipPath>
    <radialGradient
       inkscape:collect="always"
       xlink:href="#linearGradient1071"
       id="radialGradient1073"
       cx="98.99543"
       cy="132.51498"
       fx="98.99543"
       fy="132.51498"
       r="19.827723"
       gradientTransform="matrix(-1.9866557,-1.5333428e-7,4.7939612e-8,-1.9866554,295.66526,395.77662)"
       gradientUnits="userSpaceOnUse" />
  </defs>
  <g
     inkscape:label="Camada 1"
     inkscape:groupmode="layer"
     id="layer1"
     transform="translate(-45.8446, -126.327)">
    <path
       style="fill:url(#radialGradient1073);stroke:#000000;stroke-width:0.264583;stroke-dasharray:none;stroke-opacity:1;fill-opacity:1"
       d="M 59.60457,171.90585 H 98.995433 V 132.51499 H 59.60457 Z"
       id="path1630" />
    <path
       style="fill:#000000;stroke:#000000;stroke-width:0.264583;stroke-dasharray:none;marker-end:url(#TriangleStart)"
       d="M 79.375002,158.75 V 138.90625"
       id="path572" />
    <path
       style="fill:#000000;stroke:#000000;stroke-width:0.264583;stroke-dasharray:none;marker-end:url(#TriangleStart)"
       d="M 72.760418,152.13542 H 92.604167"
       id="path574" />
    <path
       style="fill:#000000;stroke:#000000;stroke-width:0.264583;stroke-dasharray:none"
       d="m 101.86459,171.97917 h 13.22916"
       id="path1131" />
    <path
       style="fill:#000000;stroke:#000000;stroke-width:0.264583;stroke-dasharray:none"
       d="m 101.86459,132.29167 h 13.22916"
       id="path1133" />
    <path
       style="fill:#000000;stroke:#000000;stroke-width:0.264583;stroke-dasharray:none;marker-start:url(#TriangleStart);marker-end:url(#TriangleStart)"
       d="m 112.44792,171.97917 v -39.6875"
       id="path1135" />
    <path
       style="fill:#000000;stroke:#000000;stroke-width:0.264583;stroke-dasharray:none"
       d="m 59.531251,174.625 v 13.22917"
       id="path1137" />
    <path
       style="fill:#000000;stroke:#000000;stroke-width:0.264583;stroke-dasharray:none"
       d="m 99.218751,174.625 v 13.22917"
       id="path1139" />
    <path
       style="fill:#000000;stroke:#000000;stroke-width:0.264583;stroke-dasharray:none;marker-start:url(#TriangleStart);marker-end:url(#TriangleStart)"
       d="m 59.531251,185.20834 h 39.6875"
       id="path1141" />
    <path
       style="fill:none;stroke:#000000;stroke-width:0.264583;stroke-dasharray:none;marker-start:url(#TriangleStart)"
       d="m 79.375002,171.97917 3.96875,3.96875 h 3.968749"
       id="path1153" />
    <g
       inkscape:label=""
       transform="translate(87.251876,173.85914)"
       id="g2002">
      <g
         clip-path="url(#clipPath523)"
         id="g24"
         transform="matrix(0.352778,0,0,0.352778,-80.5009,-2.61223)">
        <g
           fill="#000000"
           fill-opacity="1"
           id="g22">
          <g
             id="use20"
             transform="translate(228.629,16.936001)">
            <path
               d="M 0.609375,1.828125 C 0.515625,2.25 0.453125,2.359375 -0.125,2.359375 c -0.171875,0 -0.3125,0 -0.3125,0.28125 0,0.03125 0,0.140625 0.171875,0.140625 0.171875,0 0.375,-0.03125 0.5625,-0.03125 h 0.625 c 0.296875,0 1.03125,0.03125 1.328125,0.03125 0.09375,0 0.265625,0 0.265625,-0.25 0,-0.171875 -0.109375,-0.171875 -0.34375,-0.171875 C 1.5,2.359375 1.46875,2.265625 1.46875,2.15625 c 0,-0.171875 0.640625,-2.640625 0.71875,-2.96875 0.171875,0.390625 0.546875,0.953125 1.296875,0.953125 1.625,0 3.375,-2.109375 3.375,-4.21875 0,-1.3125 -0.75,-2.25 -1.828125,-2.25 -0.921875,0 -1.6875,0.890625 -1.84375,1.09375 -0.125,-0.71875 -0.671875,-1.09375 -1.25,-1.09375 -0.421875,0 -0.75,0.203125 -1.015625,0.75 C 0.65625,-5.0625 0.453125,-4.1875 0.453125,-4.125 c 0,0.046875 0.0625,0.125 0.15625,0.125 0.125,0 0.140625,-0.015625 0.21875,-0.34375 0.21875,-0.84375 0.484375,-1.6875 1.0625,-1.6875 0.328125,0 0.453125,0.21875 0.453125,0.65625 0,0.34375 -0.046875,0.484375 -0.109375,0.734375 z M 3.09375,-4.46875 C 3.203125,-4.875 3.59375,-5.296875 3.828125,-5.5 3.984375,-5.640625 4.453125,-6.03125 5,-6.03125 c 0.640625,0 0.921875,0.625 0.921875,1.375 0,0.6875 -0.40625,2.296875 -0.765625,3.046875 -0.34375,0.78125 -1.015625,1.46875 -1.671875,1.46875 -0.96875,0 -1.125,-1.234375 -1.125,-1.296875 0,-0.046875 0.015625,-0.15625 0.03125,-0.21875 z m 0,0"
               id="path38" />
          </g>
        </g>
      </g>
      <g
         fill="#000000"
         fill-opacity="1"
         id="g28"
         transform="matrix(0.352778,0,0,0.352778,-80.5009,-2.61223)">
        <g
           id="use26"
           transform="translate(239.664,16.936001)">
          <path
             d="m 9.6875,-4.640625 c 0.203125,0 0.453125,0 0.453125,-0.265625 0,-0.265625 -0.25,-0.265625 -0.453125,-0.265625 H 1.234375 c -0.203125,0 -0.453125,0 -0.453125,0.25 0,0.28125 0.234375,0.28125 0.453125,0.28125 z m 0,2.65625 c 0.203125,0 0.453125,0 0.453125,-0.25 0,-0.28125 -0.25,-0.28125 -0.453125,-0.28125 H 1.234375 c -0.203125,0 -0.453125,0 -0.453125,0.265625 0,0.265625 0.234375,0.265625 0.453125,0.265625 z m 0,0"
             id="path42" />
        </g>
      </g>
      <g
         fill="#000000"
         fill-opacity="1"
         id="g32"
         transform="matrix(0.352778,0,0,0.352778,-80.5009,-2.61223)">
        <g
           id="use30"
           transform="translate(254.57831,16.936001)">
          <path
             d="m 6.421875,-4.59375 c 0,-1.1875 -0.0625,-2.34375 -0.578125,-3.4375 -0.59375,-1.1875 -1.625,-1.5 -2.328125,-1.5 -0.828125,0 -1.859375,0.40625 -2.375,1.59375 -0.40625,0.90625 -0.546875,1.796875 -0.546875,3.34375 0,1.390625 0.09375,2.4375 0.609375,3.453125 0.5625,1.09375 1.546875,1.4375 2.296875,1.4375 1.25,0 1.96875,-0.734375 2.375,-1.578125 0.515625,-1.078125 0.546875,-2.484375 0.546875,-3.3125 z M 3.5,0.015625 C 3.046875,0.015625 2.109375,-0.25 1.84375,-1.8125 1.671875,-2.671875 1.671875,-3.765625 1.671875,-4.765625 1.671875,-5.9375 1.671875,-7 1.90625,-7.84375 2.15625,-8.8125 2.890625,-9.25 3.5,-9.25 c 0.546875,0 1.375,0.328125 1.65625,1.5625 0.171875,0.8125 0.171875,1.953125 0.171875,2.921875 0,0.96875 0,2.046875 -0.15625,2.921875 C 4.90625,-0.265625 4,0.015625 3.5,0.015625 Z m 0,0"
             id="path46" />
        </g>
      </g>
    </g>
    <g
       inkscape:label=""
       transform="translate(73.085631,167.8509)"
       id="g2732">
      <g
         clip-path="url(#clipPath2005)"
         id="g2718"
         transform="matrix(0.352778,0,0,0.352778,-80.1508,-2.65633)">
        <g
           fill="#000000"
           fill-opacity="1"
           id="g26">
          <g
             id="use24"
             transform="translate(226.746,16.936001)">
            <path
               d="m 8.078125,-4.546875 c 0.09375,-0.40625 0.265625,-1.09375 0.265625,-1.1875 C 8.34375,-6.03125 8.125,-6.375 7.671875,-6.375 7.4375,-6.375 6.90625,-6.234375 6.734375,-5.609375 6.671875,-5.40625 6.03125,-2.8125 5.90625,-2.34375 c -0.078125,0.328125 -0.1875,0.75 -0.21875,1.015625 -0.25,0.34375 -0.8125,0.921875 -1.546875,0.921875 -0.84375,0 -0.859375,-0.71875 -0.859375,-1.046875 0,-0.875 0.453125,-1.984375 0.84375,-3.015625 0.15625,-0.375 0.1875,-0.484375 0.1875,-0.71875 0,-0.84375 -0.828125,-1.296875 -1.609375,-1.296875 -1.53125,0 -2.25,1.953125 -2.25,2.234375 0,0.203125 0.21875,0.203125 0.34375,0.203125 0.171875,0 0.28125,0 0.34375,-0.1875 0.46875,-1.59375 1.234375,-1.734375 1.46875,-1.734375 0.109375,0 0.25,0 0.25,0.296875 0,0.34375 -0.171875,0.734375 -0.234375,0.90625 C 2.015625,-3.25 1.75,-2.453125 1.75,-1.75 c 0,1.640625 1.4375,1.859375 2.28125,1.859375 0.421875,0 1.046875,-0.046875 1.828125,-0.78125 0.453125,0.703125 1.28125,0.78125 1.625,0.78125 0.53125,0 0.953125,-0.296875 1.25,-0.8125 C 9.09375,-1.28125 9.28125,-2.046875 9.28125,-2.125 c 0,-0.203125 -0.21875,-0.203125 -0.34375,-0.203125 -0.15625,0 -0.21875,0 -0.28125,0.078125 -0.03125,0.03125 -0.03125,0.0625 -0.125,0.40625 -0.28125,1.125 -0.59375,1.4375 -0.96875,1.4375 -0.21875,0 -0.328125,-0.140625 -0.328125,-0.53125 0,-0.234375 0.046875,-0.46875 0.203125,-1.046875 C 7.53125,-2.375 7.671875,-2.953125 7.75,-3.265625 Z m 0,0"
               id="path44" />
          </g>
        </g>
      </g>
      <g
         fill="#000000"
         fill-opacity="1"
         id="g2723"
         transform="matrix(0.352778,0,0,0.352778,-80.1508,-2.65633)">
        <g
           id="g2721"
           transform="translate(240.50101,16.936001)">
          <path
             d="m 9.6875,-4.640625 c 0.203125,0 0.453125,0 0.453125,-0.265625 0,-0.265625 -0.25,-0.265625 -0.453125,-0.265625 H 1.234375 c -0.203125,0 -0.453125,0 -0.453125,0.25 0,0.28125 0.234375,0.28125 0.453125,0.28125 z m 0,2.65625 c 0.203125,0 0.453125,0 0.453125,-0.25 0,-0.28125 -0.25,-0.28125 -0.453125,-0.28125 H 1.234375 c -0.203125,0 -0.453125,0 -0.453125,0.265625 0,0.265625 0.234375,0.265625 0.453125,0.265625 z m 0,0"
             id="path48" />
        </g>
      </g>
      <g
         clip-path="url(#clipPath705)"
         id="g2730"
         transform="matrix(0.352778,0,0,0.352778,-80.1508,-2.65633)">
        <g
           fill="#000000"
           fill-opacity="1"
           id="g2728">
          <g
             id="g2726"
             transform="translate(255.411,16.936001)">
            <path
               d="m 7.421875,-4.578125 c 0,-1.375 0,-4.828125 -3.390625,-4.828125 -3.40625,0 -3.40625,3.4375 -3.40625,4.828125 0,1.375 0,4.75 3.390625,4.75 3.390625,0 3.40625,-3.328125 3.40625,-4.75 z m -3.390625,4.28125 c -0.453125,0 -0.796875,-0.1875 -1.09375,-0.484375 C 2.578125,-1.140625 2.359375,-1.375 2.359375,-4.75 c 0,-1 0,-1.921875 0.109375,-2.671875 0.203125,-1.40625 1.234375,-1.515625 1.546875,-1.515625 0.453125,0 1.34375,0.21875 1.546875,1.421875 0.125,0.734375 0.125,1.890625 0.125,2.765625 0,3.390625 -0.203125,3.59375 -0.640625,4.015625 -0.28125,0.296875 -0.671875,0.4375 -1.015625,0.4375 z m 0,0"
               id="path52" />
          </g>
        </g>
      </g>
    </g>
    <g
       inkscape:label=""
       transform="translate(99.290405,149.96947)"
       id="g3051">
      <g
         clip-path="url(#clipPath7545)"
         id="g3035"
         transform="matrix(0.352778,0,0,0.352778,-80.1508,-2.65633)">
        <g
           fill="#000000"
           fill-opacity="1"
           id="g3033">
          <g
             id="g3031"
             transform="translate(226.746,16.936001)">
            <path
               d="m 8.078125,-4.546875 c 0.09375,-0.40625 0.265625,-1.09375 0.265625,-1.1875 C 8.34375,-6.03125 8.125,-6.375 7.671875,-6.375 7.4375,-6.375 6.90625,-6.234375 6.734375,-5.609375 6.671875,-5.40625 6.03125,-2.8125 5.90625,-2.34375 c -0.078125,0.328125 -0.1875,0.75 -0.21875,1.015625 -0.25,0.34375 -0.8125,0.921875 -1.546875,0.921875 -0.84375,0 -0.859375,-0.71875 -0.859375,-1.046875 0,-0.875 0.453125,-1.984375 0.84375,-3.015625 0.15625,-0.375 0.1875,-0.484375 0.1875,-0.71875 0,-0.84375 -0.828125,-1.296875 -1.609375,-1.296875 -1.53125,0 -2.25,1.953125 -2.25,2.234375 0,0.203125 0.21875,0.203125 0.34375,0.203125 0.171875,0 0.28125,0 0.34375,-0.1875 0.46875,-1.59375 1.234375,-1.734375 1.46875,-1.734375 0.109375,0 0.25,0 0.25,0.296875 0,0.34375 -0.171875,0.734375 -0.234375,0.90625 C 2.015625,-3.25 1.75,-2.453125 1.75,-1.75 c 0,1.640625 1.4375,1.859375 2.28125,1.859375 0.421875,0 1.046875,-0.046875 1.828125,-0.78125 0.453125,0.703125 1.28125,0.78125 1.625,0.78125 0.53125,0 0.953125,-0.296875 1.25,-0.8125 C 9.09375,-1.28125 9.28125,-2.046875 9.28125,-2.125 c 0,-0.203125 -0.21875,-0.203125 -0.34375,-0.203125 -0.15625,0 -0.21875,0 -0.28125,0.078125 -0.03125,0.03125 -0.03125,0.0625 -0.125,0.40625 -0.28125,1.125 -0.59375,1.4375 -0.96875,1.4375 -0.21875,0 -0.328125,-0.140625 -0.328125,-0.53125 0,-0.234375 0.046875,-0.46875 0.203125,-1.046875 C 7.53125,-2.375 7.671875,-2.953125 7.75,-3.265625 Z m 0,0"
               id="path3029" />
          </g>
        </g>
      </g>
      <g
         fill="#000000"
         fill-opacity="1"
         id="g3041"
         transform="matrix(0.352778,0,0,0.352778,-80.1508,-2.65633)">
        <g
           id="g3039"
           transform="translate(240.50101,16.936001)">
          <path
             d="m 9.6875,-4.640625 c 0.203125,0 0.453125,0 0.453125,-0.265625 0,-0.265625 -0.25,-0.265625 -0.453125,-0.265625 H 1.234375 c -0.203125,0 -0.453125,0 -0.453125,0.25 0,0.28125 0.234375,0.28125 0.453125,0.28125 z m 0,2.65625 c 0.203125,0 0.453125,0 0.453125,-0.25 0,-0.28125 -0.25,-0.28125 -0.453125,-0.28125 H 1.234375 c -0.203125,0 -0.453125,0 -0.453125,0.265625 0,0.265625 0.234375,0.265625 0.453125,0.265625 z m 0,0"
             id="path3037" />
        </g>
      </g>
      <g
         clip-path="url(#clipPath291)"
         id="g3049"
         transform="matrix(0.352778,0,0,0.352778,-80.1508,-2.65633)">
        <g
           fill="#000000"
           fill-opacity="1"
           id="g3047">
          <g
             id="g3045"
             transform="translate(255.411,16.936001)">
            <path
               d="m 7.421875,-4.578125 c 0,-1.375 0,-4.828125 -3.390625,-4.828125 -3.40625,0 -3.40625,3.4375 -3.40625,4.828125 0,1.375 0,4.75 3.390625,4.75 3.390625,0 3.40625,-3.328125 3.40625,-4.75 z m -3.390625,4.28125 c -0.453125,0 -0.796875,-0.1875 -1.09375,-0.484375 C 2.578125,-1.140625 2.359375,-1.375 2.359375,-4.75 c 0,-1 0,-1.921875 0.109375,-2.671875 0.203125,-1.40625 1.234375,-1.515625 1.546875,-1.515625 0.453125,0 1.34375,0.21875 1.546875,1.421875 0.125,0.734375 0.125,1.890625 0.125,2.765625 0,3.390625 -0.203125,3.59375 -0.640625,4.015625 -0.28125,0.296875 -0.671875,0.4375 -1.015625,0.4375 z m 0,0"
               id="path3043" />
          </g>
        </g>
      </g>
    </g>
    <g
       inkscape:label=""
       transform="translate(45.844572,150.75771)"
       id="g3402">
      <g
         clip-path="url(#clipPath1115)"
         id="g3386"
         transform="matrix(0.352778,0,0,0.352778,-80.1508,-2.65633)">
        <g
           fill="#000000"
           fill-opacity="1"
           id="g3384">
          <g
             id="g3382"
             transform="translate(226.746,16.936001)">
            <path
               d="m 8.078125,-4.546875 c 0.09375,-0.40625 0.265625,-1.09375 0.265625,-1.1875 C 8.34375,-6.03125 8.125,-6.375 7.671875,-6.375 7.4375,-6.375 6.90625,-6.234375 6.734375,-5.609375 6.671875,-5.40625 6.03125,-2.8125 5.90625,-2.34375 c -0.078125,0.328125 -0.1875,0.75 -0.21875,1.015625 -0.25,0.34375 -0.8125,0.921875 -1.546875,0.921875 -0.84375,0 -0.859375,-0.71875 -0.859375,-1.046875 0,-0.875 0.453125,-1.984375 0.84375,-3.015625 0.15625,-0.375 0.1875,-0.484375 0.1875,-0.71875 0,-0.84375 -0.828125,-1.296875 -1.609375,-1.296875 -1.53125,0 -2.25,1.953125 -2.25,2.234375 0,0.203125 0.21875,0.203125 0.34375,0.203125 0.171875,0 0.28125,0 0.34375,-0.1875 0.46875,-1.59375 1.234375,-1.734375 1.46875,-1.734375 0.109375,0 0.25,0 0.25,0.296875 0,0.34375 -0.171875,0.734375 -0.234375,0.90625 C 2.015625,-3.25 1.75,-2.453125 1.75,-1.75 c 0,1.640625 1.4375,1.859375 2.28125,1.859375 0.421875,0 1.046875,-0.046875 1.828125,-0.78125 0.453125,0.703125 1.28125,0.78125 1.625,0.78125 0.53125,0 0.953125,-0.296875 1.25,-0.8125 C 9.09375,-1.28125 9.28125,-2.046875 9.28125,-2.125 c 0,-0.203125 -0.21875,-0.203125 -0.34375,-0.203125 -0.15625,0 -0.21875,0 -0.28125,0.078125 -0.03125,0.03125 -0.03125,0.0625 -0.125,0.40625 -0.28125,1.125 -0.59375,1.4375 -0.96875,1.4375 -0.21875,0 -0.328125,-0.140625 -0.328125,-0.53125 0,-0.234375 0.046875,-0.46875 0.203125,-1.046875 C 7.53125,-2.375 7.671875,-2.953125 7.75,-3.265625 Z m 0,0"
               id="path3380" />
          </g>
        </g>
      </g>
      <g
         fill="#000000"
         fill-opacity="1"
         id="g3392"
         transform="matrix(0.352778,0,0,0.352778,-80.1508,-2.65633)">
        <g
           id="g3390"
           transform="translate(240.50101,16.936001)">
          <path
             d="m 9.6875,-4.640625 c 0.203125,0 0.453125,0 0.453125,-0.265625 0,-0.265625 -0.25,-0.265625 -0.453125,-0.265625 H 1.234375 c -0.203125,0 -0.453125,0 -0.453125,0.25 0,0.28125 0.234375,0.28125 0.453125,0.28125 z m 0,2.65625 c 0.203125,0 0.453125,0 0.453125,-0.25 0,-0.28125 -0.25,-0.28125 -0.453125,-0.28125 H 1.234375 c -0.203125,0 -0.453125,0 -0.453125,0.265625 0,0.265625 0.234375,0.265625 0.453125,0.265625 z m 0,0"
             id="path3388" />
        </g>
      </g>
      <g
         clip-path="url(#clipPath5525)"
         id="g3400"
         transform="matrix(0.352778,0,0,0.352778,-80.1508,-2.65633)">
        <g
           fill="#000000"
           fill-opacity="1"
           id="g3398">
          <g
             id="g3396"
             transform="translate(255.411,16.936001)">
            <path
               d="m 7.421875,-4.578125 c 0,-1.375 0,-4.828125 -3.390625,-4.828125 -3.40625,0 -3.40625,3.4375 -3.40625,4.828125 0,1.375 0,4.75 3.390625,4.75 3.390625,0 3.40625,-3.328125 3.40625,-4.75 z m -3.390625,4.28125 c -0.453125,0 -0.796875,-0.1875 -1.09375,-0.484375 C 2.578125,-1.140625 2.359375,-1.375 2.359375,-4.75 c 0,-1 0,-1.921875 0.109375,-2.671875 0.203125,-1.40625 1.234375,-1.515625 1.546875,-1.515625 0.453125,0 1.34375,0.21875 1.546875,1.421875 0.125,0.734375 0.125,1.890625 0.125,2.765625 0,3.390625 -0.203125,3.59375 -0.640625,4.015625 -0.28125,0.296875 -0.671875,0.4375 -1.015625,0.4375 z m 0,0"
               id="path3394" />
          </g>
        </g>
      </g>
    </g>
    <g
       inkscape:label=""
       transform="translate(68.863281,126.32745)"
       id="g4451">
      <g
         fill="#000000"
         fill-opacity="1"
         id="g42"
         transform="matrix(0.352778,0,0,0.352778,-74.7021,-1.50389)">
        <g
           id="use40"
           transform="translate(211.30099,16.936001)">
          <path
             d="m 8.078125,-4.546875 c 0.09375,-0.40625 0.265625,-1.09375 0.265625,-1.1875 C 8.34375,-6.03125 8.125,-6.375 7.671875,-6.375 7.4375,-6.375 6.90625,-6.234375 6.734375,-5.609375 6.671875,-5.40625 6.03125,-2.8125 5.90625,-2.34375 c -0.078125,0.328125 -0.1875,0.75 -0.21875,1.015625 -0.25,0.34375 -0.8125,0.921875 -1.546875,0.921875 -0.84375,0 -0.859375,-0.71875 -0.859375,-1.046875 0,-0.875 0.453125,-1.984375 0.84375,-3.015625 0.15625,-0.375 0.1875,-0.484375 0.1875,-0.71875 0,-0.84375 -0.828125,-1.296875 -1.609375,-1.296875 -1.53125,0 -2.25,1.953125 -2.25,2.234375 0,0.203125 0.21875,0.203125 0.34375,0.203125 0.171875,0 0.28125,0 0.34375,-0.1875 0.46875,-1.59375 1.234375,-1.734375 1.46875,-1.734375 0.109375,0 0.25,0 0.25,0.296875 0,0.34375 -0.171875,0.734375 -0.234375,0.90625 C 2.015625,-3.25 1.75,-2.453125 1.75,-1.75 c 0,1.640625 1.4375,1.859375 2.28125,1.859375 0.421875,0 1.046875,-0.046875 1.828125,-0.78125 0.453125,0.703125 1.28125,0.78125 1.625,0.78125 0.53125,0 0.953125,-0.296875 1.25,-0.8125 C 9.09375,-1.28125 9.28125,-2.046875 9.28125,-2.125 c 0,-0.203125 -0.21875,-0.203125 -0.34375,-0.203125 -0.15625,0 -0.21875,0 -0.28125,0.078125 -0.03125,0.03125 -0.03125,0.0625 -0.125,0.40625 -0.28125,1.125 -0.59375,1.4375 -0.96875,1.4375 -0.21875,0 -0.328125,-0.140625 -0.328125,-0.53125 0,-0.234375 0.046875,-0.46875 0.203125,-1.046875 C 7.53125,-2.375 7.671875,-2.953125 7.75,-3.265625 Z m 0,0"
             id="path76" />
        </g>
      </g>
      <g
         fill="#000000"
         fill-opacity="1"
         id="g46"
         transform="matrix(0.352778,0,0,0.352778,-74.7021,-1.50389)">
        <g
           id="use44"
           transform="translate(225.056,16.936001)">
          <path
             d="m 9.6875,-4.640625 c 0.203125,0 0.453125,0 0.453125,-0.265625 0,-0.265625 -0.25,-0.265625 -0.453125,-0.265625 H 1.234375 c -0.203125,0 -0.453125,0 -0.453125,0.25 0,0.28125 0.234375,0.28125 0.453125,0.28125 z m 0,2.65625 c 0.203125,0 0.453125,0 0.453125,-0.25 0,-0.28125 -0.25,-0.28125 -0.453125,-0.28125 H 1.234375 c -0.203125,0 -0.453125,0 -0.453125,0.265625 0,0.265625 0.234375,0.265625 0.453125,0.265625 z m 0,0"
             id="path80" />
        </g>
      </g>
      <g
         clip-path="url(#clipPath1754)"
         id="g54"
         transform="matrix(0.352778,0,0,0.352778,-74.7021,-1.50389)">
        <g
           fill="#000000"
           fill-opacity="1"
           id="g52">
          <g
             id="use48"
             transform="translate(239.97031,16.936001)">
            <path
               d="m 4.65625,3.484375 c 0,-0.046875 0,-0.078125 -0.234375,-0.3125 -1.4375,-1.453125 -2.234375,-3.8125 -2.234375,-6.75 0,-2.78125 0.671875,-5.171875 2.328125,-6.859375 0.140625,-0.140625 0.140625,-0.15625 0.140625,-0.203125 0,-0.09375 -0.0625,-0.109375 -0.125,-0.109375 -0.1875,0 -1.359375,1.03125 -2.0625,2.4375 -0.734375,1.4375 -1.0625,2.984375 -1.0625,4.734375 0,1.28125 0.203125,2.984375 0.953125,4.53125 0.84375,1.71875 2.015625,2.640625 2.171875,2.640625 0.0625,0 0.125,-0.015625 0.125,-0.109375 z m 0,0"
               id="path84" />
          </g>
          <g
             id="use50"
             transform="translate(245.43335,16.936001)">
            <path
               d="m 4.125,-9.1875 c 0,-0.34375 0,-0.34375 -0.28125,-0.34375 C 3.5,-9.15625 2.78125,-8.625 1.3125,-8.625 v 0.421875 c 0.328125,0 1.046875,0 1.828125,-0.375 v 7.46875 c 0,0.515625 -0.046875,0.6875 -1.296875,0.6875 H 1.390625 V 0 c 0.390625,-0.03125 1.78125,-0.03125 2.25,-0.03125 0.46875,0 1.859375,0 2.234375,0.03125 V -0.421875 H 5.4375 c -1.265625,0 -1.3125,-0.171875 -1.3125,-0.6875 z m 0,0"
               id="path88" />
          </g>
        </g>
      </g>
      <g
         fill="#000000"
         fill-opacity="1"
         id="g58"
         transform="matrix(0.352778,0,0,0.352778,-74.7021,-1.50389)">
        <g
           id="use56"
           transform="translate(252.453,16.936001)">
          <path
             d="m 2.796875,0.0625 c 0,-0.84375 -0.265625,-1.453125 -0.859375,-1.453125 -0.453125,0 -0.6875,0.375 -0.6875,0.6875 C 1.25,-0.390625 1.46875,0 1.953125,0 c 0.1875,0 0.34375,-0.0625 0.46875,-0.1875 0.03125,-0.03125 0.046875,-0.03125 0.0625,-0.03125 0.03125,0 0.03125,0.203125 0.03125,0.28125 0,0.46875 -0.09375,1.40625 -0.921875,2.328125 C 1.4375,2.5625 1.4375,2.59375 1.4375,2.625 c 0,0.078125 0.0625,0.140625 0.140625,0.140625 0.109375,0 1.21875,-1.0625 1.21875,-2.703125 z m 0,0"
             id="path92" />
        </g>
      </g>
      <g
         clip-path="url(#clipPath6527)"
         id="g66"
         transform="matrix(0.352778,0,0,0.352778,-74.7021,-1.50389)">
        <g
           fill="#000000"
           fill-opacity="1"
           id="g64">
          <g
             id="use60"
             transform="translate(258.746,16.936001)">
            <path
               d="m 6.421875,-4.59375 c 0,-1.1875 -0.0625,-2.34375 -0.578125,-3.4375 -0.59375,-1.1875 -1.625,-1.5 -2.328125,-1.5 -0.828125,0 -1.859375,0.40625 -2.375,1.59375 -0.40625,0.90625 -0.546875,1.796875 -0.546875,3.34375 0,1.390625 0.09375,2.4375 0.609375,3.453125 0.5625,1.09375 1.546875,1.4375 2.296875,1.4375 1.25,0 1.96875,-0.734375 2.375,-1.578125 0.515625,-1.078125 0.546875,-2.484375 0.546875,-3.3125 z M 3.5,0.015625 C 3.046875,0.015625 2.109375,-0.25 1.84375,-1.8125 1.671875,-2.671875 1.671875,-3.765625 1.671875,-4.765625 1.671875,-5.9375 1.671875,-7 1.90625,-7.84375 2.15625,-8.8125 2.890625,-9.25 3.5,-9.25 c 0.546875,0 1.375,0.328125 1.65625,1.5625 0.171875,0.8125 0.171875,1.953125 0.171875,2.921875 0,0.96875 0,2.046875 -0.15625,2.921875 C 4.90625,-0.265625 4,0.015625 3.5,0.015625 Z m 0,0"
               id="path96" />
          </g>
          <g
             id="use62"
             transform="translate(265.7699,16.936001)">
            <path
               d="M 4.046875,-3.578125 C 4.046875,-4.65625 3.90625,-6.4375 3.09375,-8.109375 2.25,-9.828125 1.078125,-10.75 0.921875,-10.75 c -0.0625,0 -0.140625,0.01563 -0.140625,0.109375 0,0.04687 0,0.0625 0.25,0.3125 1.4375,1.453125 2.234375,3.8125 2.234375,6.75 0,2.78125 -0.671875,5.171875 -2.328125,6.859375 -0.15625,0.125 -0.15625,0.15625 -0.15625,0.203125 0,0.09375 0.078125,0.109375 0.140625,0.109375 0.1875,0 1.359375,-1.03125 2.0625,-2.4375 0.734375,-1.453125 1.0625,-3 1.0625,-4.734375 z m 0,0"
               id="path100" />
          </g>
        </g>
      </g>
      <g
         fill="#000000"
         fill-opacity="1"
         id="g70"
         transform="matrix(0.352778,0,0,0.352778,-74.7021,-1.50389)">
        <g
           id="use68"
           transform="translate(271.23199,11.013)">
          <path
             d="m 6.640625,-6.75 h -6.09375 l -0.1875,2.25 h 0.25 C 0.75,-6.109375 0.890625,-6.4375 2.40625,-6.4375 c 0.171875,0 0.4375,0 0.53125,0.015625 0.21875,0.046875 0.21875,0.15625 0.21875,0.375 v 5.265625 c 0,0.328125 0,0.46875 -1.046875,0.46875 H 1.703125 V 0 C 2.109375,-0.03125 3.125,-0.03125 3.59375,-0.03125 c 0.453125,0 1.484375,0 1.890625,0.03125 v -0.3125 h -0.40625 c -1.046875,0 -1.046875,-0.140625 -1.046875,-0.46875 v -5.265625 c 0,-0.1875 0,-0.328125 0.1875,-0.375 0.109375,-0.015625 0.375,-0.015625 0.5625,-0.015625 1.515625,0 1.65625,0.328125 1.796875,1.9375 h 0.25 z m 0,0"
             id="path104" />
        </g>
      </g>
    </g>
    <g
       inkscape:label=""
       transform="translate(114.40765,150.09527)"
       id="g7292">
      <g
         clip-path="url(#clipPath6884)"
         id="g17"
         transform="matrix(0.352778,0,0,0.352778,-85.4799,-2.61223)">
        <g
           fill="#000000"
           fill-opacity="1"
           id="g15">
          <g
             id="use13"
             transform="translate(241.60201,16.936001)">
            <path
               d="M 6.3125,-2.40625 H 6 c -0.046875,0.234375 -0.15625,1.03125 -0.3125,1.265625 -0.09375,0.125 -0.90625,0.125 -1.34375,0.125 H 1.6875 c 0.390625,-0.328125 1.265625,-1.25 1.640625,-1.59375 2.1875,-2.015625 2.984375,-2.75 2.984375,-4.171875 0,-1.65625 -1.3125,-2.75 -2.96875,-2.75 -1.671875,0 -2.640625,1.40625 -2.640625,2.640625 0,0.734375 0.625,0.734375 0.671875,0.734375 0.296875,0 0.671875,-0.21875 0.671875,-0.671875 C 2.046875,-7.234375 1.78125,-7.5 1.375,-7.5 1.25,-7.5 1.21875,-7.5 1.171875,-7.484375 1.453125,-8.46875 2.21875,-9.125 3.15625,-9.125 4.375,-9.125 5.125,-8.109375 5.125,-6.78125 5.125,-5.5625 4.421875,-4.5 3.59375,-3.578125 L 0.703125,-0.34375 V 0 H 5.9375 Z m 0,0"
               id="path23" />
          </g>
        </g>
      </g>
    </g>
    <g
       inkscape:label=""
       transform="translate(78.559207,180.88117)"
       id="g7682">
      <g
         clip-path="url(#clipPath8982)"
         id="g7680"
         transform="matrix(0.352778,0,0,0.352778,-85.4799,-2.61223)">
        <g
           fill="#000000"
           fill-opacity="1"
           id="g7678">
          <g
             id="g7676"
             transform="translate(241.60201,16.936001)">
            <path
               d="M 6.3125,-2.40625 H 6 c -0.046875,0.234375 -0.15625,1.03125 -0.3125,1.265625 -0.09375,0.125 -0.90625,0.125 -1.34375,0.125 H 1.6875 c 0.390625,-0.328125 1.265625,-1.25 1.640625,-1.59375 2.1875,-2.015625 2.984375,-2.75 2.984375,-4.171875 0,-1.65625 -1.3125,-2.75 -2.96875,-2.75 -1.671875,0 -2.640625,1.40625 -2.640625,2.640625 0,0.734375 0.625,0.734375 0.671875,0.734375 0.296875,0 0.671875,-0.21875 0.671875,-0.671875 C 2.046875,-7.234375 1.78125,-7.5 1.375,-7.5 1.25,-7.5 1.21875,-7.5 1.171875,-7.484375 1.453125,-8.46875 2.21875,-9.125 3.15625,-9.125 4.375,-9.125 5.125,-8.109375 5.125,-6.78125 5.125,-5.5625 4.421875,-4.5 3.59375,-3.578125 L 0.703125,-0.34375 V 0 H 5.9375 Z m 0,0"
               id="path7674" />
          </g>
        </g>
      </g>
    </g>
    <g
       inkscape:label=""
       transform="translate(93.686447,151.16528)"
       id="g9">
      <g
         id="surface2"
         transform="matrix(0.352778,0,0,0.352778,-85.1368,-4.44531)">
        <g
           style="fill:#000000;fill-opacity:1"
           id="g5">
          <g
             id="use4"
             transform="translate(240.942,18.929001)">
            <path
               style="stroke:none"
               d="m 3.765625,1.609375 c -0.375,0.546875 -0.9375,1.03125 -1.640625,1.03125 -0.171875,0 -0.859375,-0.03125 -1.078125,-0.6875 C 1.09375,1.96875 1.15625,1.96875 1.1875,1.96875 c 0.4375,0 0.71875,-0.375 0.71875,-0.703125 C 1.90625,0.9375 1.640625,0.8125 1.421875,0.8125 1.1875,0.8125 0.6875,0.984375 0.6875,1.6875 c 0,0.734375 0.625,1.234375 1.4375,1.234375 1.4375,0 2.875,-1.3125 3.28125,-2.90625 l 1.40625,-5.59375 c 0.015625,-0.078125 0.046875,-0.15625 0.046875,-0.25 0,-0.203125 -0.171875,-0.359375 -0.390625,-0.359375 -0.125,0 -0.4375,0.0625 -0.546875,0.5 l -1.0625,4.203125 c -0.0625,0.265625 -0.0625,0.296875 -0.1875,0.453125 -0.28125,0.40625 -0.75,0.890625 -1.4375,0.890625 -0.8125,0 -0.875,-0.796875 -0.875,-1.171875 0,-0.828125 0.375,-1.921875 0.765625,-2.96875 0.15625,-0.40625 0.25,-0.609375 0.25,-0.890625 0,-0.609375 -0.4375,-1.15625 -1.140625,-1.15625 -1.3125,0 -1.84375,2.078125 -1.84375,2.203125 0,0.046875 0.046875,0.125 0.15625,0.125 C 0.671875,-4 0.6875,-4.0625 0.75,-4.265625 1.09375,-5.46875 1.640625,-6.03125 2.1875,-6.03125 c 0.140625,0 0.375,0 0.375,0.46875 0,0.375 -0.15625,0.78125 -0.375,1.328125 -0.703125,1.875 -0.703125,2.359375 -0.703125,2.703125 0,1.359375 0.984375,1.671875 1.703125,1.671875 0.40625,0 0.921875,-0.125 1.4375,-0.65625 L 4.640625,-0.5 c -0.21875,0.84375 -0.359375,1.40625 -0.875,2.109375 z m 0,0"
               id="path6" />
          </g>
        </g>
        <g
           style="fill:#000000;fill-opacity:1"
           id="g6">
          <g
             id="use5"
             transform="translate(247.791,21.080999)">
            <path
               style="stroke:none"
               d="m 2.9375,-6.375 c 0,-0.25 0,-0.265625 -0.234375,-0.265625 C 2.078125,-6 1.203125,-6 0.890625,-6 v 0.3125 c 0.203125,0 0.78125,0 1.296875,-0.265625 v 5.171875 c 0,0.359375 -0.03125,0.46875 -0.921875,0.46875 h -0.3125 V 0 c 0.34375,-0.03125 1.203125,-0.03125 1.609375,-0.03125 0.390625,0 1.265625,0 1.609375,0.03125 v -0.3125 h -0.3125 c -0.90625,0 -0.921875,-0.109375 -0.921875,-0.46875 z m 0,0"
               id="path7" />
          </g>
        </g>
      </g>
    </g>
    <g
       inkscape:label=""
       transform="translate(80.889773,137.00081)"
       id="g16">
      <g
         id="g14"
         transform="matrix(0.352778,0,0,0.352778,-85.1368,-4.44531)">
        <g
           style="fill:#000000;fill-opacity:1"
           id="g11">
          <g
             id="g10"
             transform="translate(240.942,18.929001)">
            <path
               style="stroke:none"
               d="m 3.765625,1.609375 c -0.375,0.546875 -0.9375,1.03125 -1.640625,1.03125 -0.171875,0 -0.859375,-0.03125 -1.078125,-0.6875 C 1.09375,1.96875 1.15625,1.96875 1.1875,1.96875 c 0.4375,0 0.71875,-0.375 0.71875,-0.703125 C 1.90625,0.9375 1.640625,0.8125 1.421875,0.8125 1.1875,0.8125 0.6875,0.984375 0.6875,1.6875 c 0,0.734375 0.625,1.234375 1.4375,1.234375 1.4375,0 2.875,-1.3125 3.28125,-2.90625 l 1.40625,-5.59375 c 0.015625,-0.078125 0.046875,-0.15625 0.046875,-0.25 0,-0.203125 -0.171875,-0.359375 -0.390625,-0.359375 -0.125,0 -0.4375,0.0625 -0.546875,0.5 l -1.0625,4.203125 c -0.0625,0.265625 -0.0625,0.296875 -0.1875,0.453125 -0.28125,0.40625 -0.75,0.890625 -1.4375,0.890625 -0.8125,0 -0.875,-0.796875 -0.875,-1.171875 0,-0.828125 0.375,-1.921875 0.765625,-2.96875 0.15625,-0.40625 0.25,-0.609375 0.25,-0.890625 0,-0.609375 -0.4375,-1.15625 -1.140625,-1.15625 -1.3125,0 -1.84375,2.078125 -1.84375,2.203125 0,0.046875 0.046875,0.125 0.15625,0.125 C 0.671875,-4 0.6875,-4.0625 0.75,-4.265625 1.09375,-5.46875 1.640625,-6.03125 2.1875,-6.03125 c 0.140625,0 0.375,0 0.375,0.46875 0,0.375 -0.15625,0.78125 -0.375,1.328125 -0.703125,1.875 -0.703125,2.359375 -0.703125,2.703125 0,1.359375 0.984375,1.671875 1.703125,1.671875 0.40625,0 0.921875,-0.125 1.4375,-0.65625 L 4.640625,-0.5 c -0.21875,0.84375 -0.359375,1.40625 -0.875,2.109375 z m 0,0"
               id="path9" />
          </g>
        </g>
        <g
           style="fill:#000000;fill-opacity:1"
           id="g13">
          <g
             id="g12"
             transform="translate(247.791,21.080999)">
            <path
               style="stroke:none"
               d="m 1.265625,-0.765625 1.0625,-1.03125 c 1.546875,-1.375 2.140625,-1.90625 2.140625,-2.90625 0,-1.140625 -0.890625,-1.9375 -2.109375,-1.9375 -1.125,0 -1.859375,0.921875 -1.859375,1.8125 0,0.546875 0.5,0.546875 0.53125,0.546875 0.171875,0 0.515625,-0.109375 0.515625,-0.53125 0,-0.25 -0.1875,-0.515625 -0.53125,-0.515625 -0.078125,0 -0.09375,0 -0.125,0.015625 0.21875,-0.65625 0.765625,-1.015625 1.34375,-1.015625 0.90625,0 1.328125,0.8125 1.328125,1.625 C 3.5625,-3.90625 3.078125,-3.125 2.515625,-2.5 l -1.90625,2.125 C 0.5,-0.265625 0.5,-0.234375 0.5,0 H 4.203125 L 4.46875,-1.734375 H 4.234375 C 4.171875,-1.4375 4.109375,-1 4,-0.84375 3.9375,-0.765625 3.28125,-0.765625 3.0625,-0.765625 Z m 0,0"
               id="path11" />
          </g>
        </g>
      </g>
    </g>
  </g>
</svg>
