<?xml version="1.0" encoding="UTF-8" standalone="no"?>
<!-- Created with Inkscape (http://www.inkscape.org/) -->

<svg
   width="144.71362mm"
   height="144.36328mm"
   viewBox="0 0 144.71362 144.36328"
   version="1.1"
   id="svg12989"
   inkscape:version="1.2.1 (9c6d41e410, 2022-07-14)"
   sodipodi:docname="Re400.svg"
   xmlns:inkscape="http://www.inkscape.org/namespaces/inkscape"
   xmlns:sodipodi="http://sodipodi.sourceforge.net/DTD/sodipodi-0.dtd"
   xmlns="http://www.w3.org/2000/svg"
   xmlns:svg="http://www.w3.org/2000/svg">
  <sodipodi:namedview
     id="namedview12991"
     pagecolor="#ffffff"
     bordercolor="#000000"
     borderopacity="0.25"
     inkscape:showpageshadow="2"
     inkscape:pageopacity="0.0"
     inkscape:pagecheckerboard="0"
     inkscape:deskcolor="#d1d1d1"
     inkscape:document-units="mm"
     showgrid="false"
     inkscape:zoom="1.0544998"
     inkscape:cx="305.35806"
     inkscape:cy="290.18498"
     inkscape:window-width="1920"
     inkscape:window-height="1017"
     inkscape:window-x="1912"
     inkscape:window-y="-8"
     inkscape:window-maximized="1"
     inkscape:current-layer="layer1" />
  <defs
     id="defs12986">
    <clipPath
       clipPathUnits="userSpaceOnUse"
       id="clipPath13568">
      <g
         id="g13572"
         transform="matrix(3.7795276,0,0,3.7795276,1672.8227,-161.75274)">
        <rect
           x="-159.23225"
           y="42.797077"
           width="152.39999"
           height="150.01875"
           id="rect13570"
           style="stroke-width:0.264583" />
      </g>
    </clipPath>
    <clipPath
       clipPathUnits="userSpaceOnUse"
       id="clipPath13574">
      <g
         id="g13578"
         transform="matrix(3.7795276,0,0,3.7795276,1672.8227,-161.75274)">
        <rect
           x="-159.23225"
           y="42.797077"
           width="152.39999"
           height="150.01875"
           id="rect13576"
           style="stroke-width:0.264583" />
      </g>
    </clipPath>
    <clipPath
       clipPathUnits="userSpaceOnUse"
       id="clipPath13580">
      <g
         id="g13584"
         transform="matrix(3.7795276,0,0,3.7795276,1672.8227,-161.75274)">
        <rect
           x="-159.23225"
           y="42.797077"
           width="152.39999"
           height="150.01875"
           id="rect13582"
           style="stroke-width:0.264583" />
      </g>
    </clipPath>
    <clipPath
       clipPathUnits="userSpaceOnUse"
       id="clipPath13586">
      <g
         id="g13590"
         transform="matrix(3.7795276,0,0,3.7795276,1672.8227,-161.75274)">
        <rect
           x="-159.23225"
           y="42.797077"
           width="152.39999"
           height="150.01875"
           id="rect13588"
           style="stroke-width:0.264583" />
      </g>
    </clipPath>
    <clipPath
       clipPathUnits="userSpaceOnUse"
       id="clipPath13592">
      <g
         id="g13596"
         transform="matrix(3.7795276,0,0,3.7795276,1672.8227,-161.75274)">
        <rect
           x="-159.23225"
           y="42.797077"
           width="152.39999"
           height="150.01875"
           id="rect13594"
           style="stroke-width:0.264583" />
      </g>
    </clipPath>
    <clipPath
       clipPathUnits="userSpaceOnUse"
       id="clipPath13598">
      <g
         id="g13602"
         transform="matrix(3.7795276,0,0,3.7795276,1672.8227,-161.75274)">
        <rect
           x="-159.23225"
           y="42.797077"
           width="152.39999"
           height="150.01875"
           id="rect13600"
           style="stroke-width:0.264583" />
      </g>
    </clipPath>
    <clipPath
       clipPathUnits="userSpaceOnUse"
       id="clipPath13604">
      <g
         id="g13608"
         transform="matrix(3.7795276,0,0,3.7795276,1672.8227,-161.75274)">
        <rect
           x="-159.23225"
           y="42.797077"
           width="152.39999"
           height="150.01875"
           id="rect13606"
           style="stroke-width:0.264583" />
      </g>
    </clipPath>
    <clipPath
       clipPathUnits="userSpaceOnUse"
       id="clipPath13610">
      <g
         id="g13614"
         transform="matrix(3.7795276,0,0,3.7795276,1672.8227,-161.75274)">
        <rect
           x="-159.23225"
           y="42.797077"
           width="152.39999"
           height="150.01875"
           id="rect13612"
           style="stroke-width:0.264583" />
      </g>
    </clipPath>
    <clipPath
       clipPathUnits="userSpaceOnUse"
       id="clipPath13616">
      <g
         id="g13620"
         transform="matrix(3.7795276,0,0,3.7795276,1672.8227,-161.75274)">
        <rect
           x="-159.23225"
           y="42.797077"
           width="152.39999"
           height="150.01875"
           id="rect13618"
           style="stroke-width:0.264583" />
      </g>
    </clipPath>
    <clipPath
       clipPathUnits="userSpaceOnUse"
       id="clipPath13622">
      <g
         id="g13626"
         transform="matrix(3.7795276,0,0,3.7795276,1672.8227,-161.75274)">
        <rect
           x="-159.23225"
           y="42.797077"
           width="152.39999"
           height="150.01875"
           id="rect13624"
           style="stroke-width:0.264583" />
      </g>
    </clipPath>
    <clipPath
       clipPathUnits="userSpaceOnUse"
       id="clipPath13628">
      <g
         id="g13632"
         transform="matrix(3.7795276,0,0,3.7795276,1672.8227,-161.75274)">
        <rect
           x="-159.23225"
           y="42.797077"
           width="152.39999"
           height="150.01875"
           id="rect13630"
           style="stroke-width:0.264583" />
      </g>
    </clipPath>
    <clipPath
       clipPathUnits="userSpaceOnUse"
       id="clipPath13634">
      <g
         id="g13638"
         transform="matrix(3.7795276,0,0,3.7795276,1672.8227,-161.75274)">
        <rect
           x="-159.23225"
           y="42.797077"
           width="152.39999"
           height="150.01875"
           id="rect13636"
           style="stroke-width:0.264583" />
      </g>
    </clipPath>
    <clipPath
       clipPathUnits="userSpaceOnUse"
       id="clipPath13640">
      <g
         id="g13644"
         transform="matrix(3.7795276,0,0,3.7795276,1672.8227,-161.75274)">
        <rect
           x="-159.23225"
           y="42.797077"
           width="152.39999"
           height="150.01875"
           id="rect13642"
           style="stroke-width:0.264583" />
      </g>
    </clipPath>
    <clipPath
       clipPathUnits="userSpaceOnUse"
       id="clipPath13646">
      <g
         id="g13650"
         transform="matrix(3.7795276,0,0,3.7795276,1672.8227,-161.75274)">
        <rect
           x="-159.23225"
           y="42.797077"
           width="152.39999"
           height="150.01875"
           id="rect13648"
           style="stroke-width:0.264583" />
      </g>
    </clipPath>
    <clipPath
       clipPathUnits="userSpaceOnUse"
       id="clipPath13652">
      <g
         id="g13656"
         transform="matrix(3.7795276,0,0,3.7795276,1672.8227,-161.75274)">
        <rect
           x="-159.23225"
           y="42.797077"
           width="152.39999"
           height="150.01875"
           id="rect13654"
           style="stroke-width:0.264583" />
      </g>
    </clipPath>
    <clipPath
       clipPathUnits="userSpaceOnUse"
       id="clipPath13658">
      <g
         id="g13662"
         transform="matrix(3.7795276,0,0,3.7795276,1672.8227,-161.75274)">
        <rect
           x="-159.23225"
           y="42.797077"
           width="152.39999"
           height="150.01875"
           id="rect13660"
           style="stroke-width:0.264583" />
      </g>
    </clipPath>
    <clipPath
       clipPathUnits="userSpaceOnUse"
       id="clipPath13664">
      <g
         id="g13668"
         transform="matrix(3.7795276,0,0,3.7795276,1672.8227,-161.75274)">
        <rect
           x="-159.23225"
           y="42.797077"
           width="152.39999"
           height="150.01875"
           id="rect13666"
           style="stroke-width:0.264583" />
      </g>
    </clipPath>
    <clipPath
       clipPathUnits="userSpaceOnUse"
       id="clipPath13670">
      <g
         id="g13674">
        <rect
           x="-159.23225"
           y="42.797077"
           width="152.39999"
           height="150.01875"
           id="rect13672"
           style="stroke-width:0.264583" />
      </g>
    </clipPath>
  </defs>
  <g
     inkscape:label="Camada 1"
     inkscape:groupmode="layer"
     id="layer1"
     transform="translate(155.25005,-45.54213)">
    <g
       id="g13119"
       transform="matrix(0.26458333,0,0,0.26458333,-442.601,42.797078)"
       clip-path="url(#clipPath13664)">
      <path
         d="m 1091.5,552.5 h 538 m -538,-54 h 538 m -538,-54 h 538 m -538,-54 h 538 m -538,-53 h 538 m -538,-108 h 538 m -538,-54 h 538 m -538,-53 h 538 m -538,-53.9999 h 538 m -538,-54 h 538"
         stroke="#d9d9d9"
         stroke-linejoin="round"
         stroke-miterlimit="10"
         fill="none"
         id="path13117" />
    </g>
    <g
       id="g13123"
       transform="matrix(0.26458333,0,0,0.26458333,-442.601,42.797078)"
       clip-path="url(#clipPath13658)">
      <path
         d="M 1091.5,14.5001 V 552.5 m 53,-537.9999 V 552.5 m 54,-537.9999 V 552.5 m 54,-537.9999 V 552.5 m 54,-537.9999 V 552.5 m 108,-537.9999 V 552.5 m 53,-537.9999 V 552.5 m 54,-537.9999 V 552.5 m 54,-537.9999 V 552.5 m 54,-537.9999 V 552.5"
         stroke="#d9d9d9"
         stroke-linejoin="round"
         stroke-miterlimit="10"
         fill="none"
         id="path13121" />
    </g>
    <g
       id="g13127"
       transform="matrix(0.26458333,0,0,0.26458333,-442.601,42.797078)"
       clip-path="url(#clipPath13652)">
      <rect
         x="1091.5"
         y="14.5001"
         width="538"
         height="538"
         stroke="#000000"
         stroke-width="1.33333"
         stroke-linejoin="round"
         stroke-miterlimit="10"
         fill="none"
         id="rect13125" />
    </g>
    <g
       id="g13131"
       transform="matrix(0.26458333,0,0,0.26458333,-442.601,42.797078)"
       clip-path="url(#clipPath13646)">
      <path
         d="M 0,0 1.04987e-4,538"
         stroke="#000000"
         stroke-linejoin="round"
         stroke-miterlimit="10"
         fill="none"
         fill-rule="evenodd"
         transform="matrix(1,0,0,-1,1360.5,552.5)"
         id="path13129" />
    </g>
    <g
       id="g13135"
       transform="matrix(0.26458333,0,0,0.26458333,-442.601,42.797078)"
       clip-path="url(#clipPath13640)">
      <path
         d="m 1360.5,552.5 h 2 m -2,-11 h 2 m -2,-11 h 2 m -2,-10 h 2 m -2,-11 h 2 m -2,-11 h 2 m -2,-11 h 2 m -2,-11 h 2 m -2,-10 h 2 m -2,-11 h 2 m -2,-11 h 2 m -2,-11 h 2 m -2,-10 h 2 m -2,-11 h 2 m -2,-11 h 2 m -2,-11 h 2 m -2,-10 h 2 m -2,-11 h 2 m -2,-11 h 2 m -2,-11 h 2 m -2,-10 h 2 m -2,-11 h 2 m -2,-11 h 2 m -2,-11 h 2 m -2,-10 h 2 m -2,-11 h 2 m -2,-11 h 2 m -2,-11 h 2 m -2,-10 h 2 m -2,-11 h 2 m -2,-11 h 2 m -2,-11 h 2 m -2,-10 h 2 m -2,-11 h 2 m -2,-11 h 2 m -2,-11 h 2 m -2,-10 h 2 m -2,-11 h 2 m -2,-11 h 2 m -2,-11 h 2 m -2,-10 h 2 m -2,-11 h 2 m -2,-11 h 2 m -2,-10.9999 h 2 m -2,-10 h 2 m -2,-11 h 2 m -2,-11 h 2 m -2,-11.0001 h 2 m -2,-9.9999 h 2 m -2,-11 h 2 m -2,-11 h 2 m -6,537.9999 h 7 m -7,-54 h 7 m -7,-54 h 7 m -7,-54 h 7 m -7,-53 h 7 m -7,-54 h 7 m -7,-54 h 7 m -7,-54 h 7 m -7,-53 h 7 m -7,-53.9999 h 7 m -7,-54 h 7"
         stroke="#000000"
         stroke-linejoin="round"
         stroke-miterlimit="10"
         fill="none"
         id="path13133" />
    </g>
    <g
       id="g13139"
       transform="matrix(0.26458333,0,0,0.26458333,-442.601,42.797078)"
       clip-path="url(#clipPath13634)">
      <path
         d="m 1091.5,283.5 h 538"
         stroke="#000000"
         stroke-linejoin="round"
         stroke-miterlimit="10"
         fill="none"
         fill-rule="evenodd"
         id="path13137" />
    </g>
    <g
       id="g13143"
       transform="matrix(0.26458333,0,0,0.26458333,-442.601,42.797078)"
       clip-path="url(#clipPath13628)">
      <path
         d="m 1091.5,280.5 v 3 m 10,-3 v 3 m 11,-3 v 3 m 11,-3 v 3 m 11,-3 v 3 m 10,-3 v 3 m 11,-3 v 3 m 11,-3 v 3 m 11,-3 v 3 m 10,-3 v 3 m 11,-3 v 3 m 11,-3 v 3 m 11,-3 v 3 m 10,-3 v 3 m 11,-3 v 3 m 11,-3 v 3 m 11,-3 v 3 m 11,-3 v 3 m 10,-3 v 3 m 11,-3 v 3 m 11,-3 v 3 m 11,-3 v 3 m 10,-3 v 3 m 11,-3 v 3 m 11,-3 v 3 m 11,-3 v 3 m 10,-3 v 3 m 11,-3 v 3 m 11,-3 v 3 m 11,-3 v 3 m 11,-3 v 3 m 10,-3 v 3 m 11,-3 v 3 m 11,-3 v 3 m 11,-3 v 3 m 10,-3 v 3 m 11,-3 v 3 m 11,-3 v 3 m 11,-3 v 3 m 10,-3 v 3 m 11,-3 v 3 m 11,-3 v 3 m 11,-3 v 3 m 11,-3 v 3 m 10,-3 v 3 m 11,-3 v 3 m 11,-3 v 3 m 11,-3 v 3 m 10,-3 v 3 m 11,-3 v 3 m 11,-3 v 3 m -538,-4 v 8 m 53,-8 v 8 m 54,-8 v 8 m 54,-8 v 8 m 54,-8 v 8 m 54,-8 v 8 m 54,-8 v 8 m 53,-8 v 8 m 54,-8 v 8 m 54,-8 v 8 m 54,-8 v 8"
         stroke="#000000"
         stroke-linejoin="round"
         stroke-miterlimit="10"
         fill="none"
         id="path13141" />
    </g>
    <g
       id="g13147"
       transform="matrix(0.26458333,0,0,0.26458333,-442.601,42.797078)"
       clip-path="url(#clipPath13622)">
      <path
         d="m 1360,552 -4,-6 -5,-7 -4,-7 -4,-7 -3,-6 -4,-7 -4,-7 -4,-6 -4,-7 -4,-7 -3,-7 -4,-6 -4,-7 -4,-7 -4,-7 -3,-6 -4,-7 -3,-7 -2,-6 -2,-7 -2,-7 -1,-7 -1,-6 v -7 l 1,-7 1,-6 2,-7 2,-7 2,-7 3,-6 3,-7 4,-7 3,-6 4,-7 4,-7 3,-7 4,-6 4,-7 4,-7 4,-7 3,-6 4,-7 4,-7 4,-6 3,-7 4,-7 4,-7 3,-6 4,-7 4,-7 3,-6 4,-7 4,-7 4,-7 3,-6 4,-7 4,-7 3,-6 4,-7 3,-7 4,-7 3,-6 4,-7 3,-7 3,-7 3,-6 3,-7 3,-7 3,-6 4,-7 4,-7 6,-7 7,-6 11,-7 15,-7 20,-6 26,-7 31,-7 36,-7 36,-6"
         stroke="#ed7d31"
         stroke-width="2"
         stroke-linecap="round"
         stroke-linejoin="round"
         stroke-miterlimit="10"
         fill="none"
         id="path13145" />
    </g>
    <g
       id="g13151"
       transform="matrix(0.26458333,0,0,0.26458333,-442.601,42.797078)"
       clip-path="url(#clipPath13616)">
      <path
         d="m 1091,283 7,-10 6,-10 7,-8 7,-6 7,-6 6,-5 7,-4 7,-4 7,-3 6,-2 7,-3 7,-2 6,-1 7,-2 7,-1 7,-1 6,-1 h 7 l 7,-1 7,1 h 6 l 7,1 7,1 7,1 6,2 7,2 7,2 6,3 7,3 7,3 7,3 6,3 7,4 7,3 7,4 6,4 7,4 7,4 6,3 7,4 7,4 7,4 6,4 7,4 7,3 7,4 6,4 7,4 7,4 6,3 7,4 7,4 7,5 6,4 7,4 7,5 7,4 6,5 7,6 7,5 7,6 6,6 7,5 7,6 6,5 7,5 7,3 7,2 6,1 7,-2 7,-4 7,-7 6,-9 7,-11 7,-12 6,-14 7,-13 7,-13 7,-12 6,-11"
         stroke="#ed7d31"
         stroke-width="2"
         stroke-linecap="round"
         stroke-linejoin="round"
         stroke-miterlimit="10"
         fill="none"
         id="path13149" />
    </g>
    <g
       id="g13155"
       transform="matrix(0.26458333,0,0,0.26458333,-442.601,42.797078)"
       clip-path="url(#clipPath13610)">
      <path
         d="m 1360,552 -5,-6 -4,-7 -4,-7 -5,-7 -4,-6 -4,-7 -4,-7 -4,-6 -4,-7 -4,-7 -4,-7 -5,-6 -4,-7 -4,-7 -4,-7 -4,-6 -3,-7 -3,-7 -3,-6 -2,-7 -1,-7 -1,-7 -1,-6 1,-7 v -7 l 2,-6 2,-7 2,-7 3,-7 3,-6 4,-7 3,-7 4,-6 4,-7 4,-7 4,-7 4,-6 4,-7 4,-7 3,-7 4,-6 4,-7 4,-7 3,-6 4,-7 4,-7 4,-7 3,-6 4,-7 4,-7 4,-6 4,-7 3,-7 4,-7 4,-6 4,-7 4,-7 4,-6 3,-7 4,-7 4,-7 3,-6 4,-7 3,-7 3,-7 4,-6 3,-7 3,-7 3,-6 4,-7 4,-7 6,-7 7,-6 11,-7 14,-7 20,-6 25,-7 31,-7 35,-7 36,-6"
         stroke="#4472c4"
         stroke-width="2"
         stroke-linecap="round"
         stroke-linejoin="round"
         stroke-miterlimit="10"
         fill="none"
         id="path13153" />
    </g>
    <g
       id="g13159"
       transform="matrix(0.26458333,0,0,0.26458333,-442.601,42.797078)"
       clip-path="url(#clipPath13604)">
      <path
         d="m 1091,283 7,-11 6,-10 7,-9 7,-7 7,-6 6,-5 7,-5 7,-3 7,-4 6,-2 7,-3 7,-2 6,-2 7,-1 7,-1 7,-1 6,-1 h 7 7 7 6 l 7,1 7,2 7,1 6,2 7,3 7,2 6,3 7,3 7,4 7,3 6,4 7,3 7,4 7,4 6,4 7,4 7,4 6,4 7,4 7,4 7,4 6,4 7,3 7,4 7,4 6,4 7,4 7,4 6,4 7,4 7,4 7,4 6,4 7,5 7,4 7,5 6,5 7,6 7,5 7,6 6,6 7,6 7,6 6,6 7,5 7,4 7,2 6,1 7,-2 7,-4 7,-7 6,-9 7,-12 7,-13 6,-14 7,-14 7,-14 7,-12 6,-12"
         stroke="#4472c4"
         stroke-width="2"
         stroke-linecap="round"
         stroke-linejoin="round"
         stroke-miterlimit="10"
         fill="none"
         id="path13157" />
    </g>
    <g
       id="g13163"
       transform="matrix(0.26458333,0,0,0.26458333,-442.601,42.797078)"
       clip-path="url(#clipPath13598)">
      <path
         d="m 1091,283 7,-11 6,-10 7,-9 7,-7 7,-6 6,-6 7,-4 7,-4 7,-3 6,-2 7,-3 7,-2 6,-2 7,-1 7,-1 7,-1 6,-1 7,-1 h 7 l 7,1 h 6 l 7,1 7,2 7,1 6,2 7,3 7,2 6,3 7,3 7,4 7,3 6,4 7,3 7,4 7,4 6,4 7,4 7,4 6,4 7,4 7,4 7,4 6,4 7,4 7,3 7,4 6,4 7,4 7,4 6,4 7,4 7,4 7,4 6,5 7,4 7,5 7,4 6,6 7,5 7,5 7,6 6,6 7,6 7,6 6,6 7,5 7,4 7,2 6,1 7,-2 7,-4 7,-7 6,-9 7,-12 7,-13 6,-14 7,-14 7,-14 7,-12 6,-12"
         stroke="#4472c4"
         stroke-width="2"
         stroke-linecap="round"
         stroke-linejoin="round"
         stroke-miterlimit="10"
         stroke-dasharray="4, 4"
         fill="none"
         id="path13161" />
    </g>
    <g
       id="g13167"
       transform="matrix(0.26458333,0,0,0.26458333,-442.601,42.797078)"
       clip-path="url(#clipPath13592)">
      <path
         d="m 1360,552 -5,-6 -4,-7 -4,-7 -5,-7 -4,-6 -4,-7 -4,-7 -4,-6 -4,-7 -4,-7 -4,-7 -5,-6 -4,-7 -4,-7 -4,-7 -4,-6 -3,-7 -3,-7 -3,-6 -2,-7 -2,-7 -1,-7 v -6 -7 l 1,-7 2,-6 2,-7 2,-7 3,-7 3,-6 3,-7 4,-7 4,-6 4,-7 4,-7 4,-7 4,-6 4,-7 3,-7 4,-7 4,-6 4,-7 4,-7 3,-6 4,-7 4,-7 4,-7 3,-6 4,-7 4,-7 4,-6 4,-7 3,-7 4,-7 4,-6 4,-7 4,-7 4,-6 3,-7 4,-7 4,-7 3,-6 4,-7 3,-7 3,-7 4,-6 3,-7 3,-7 3,-6 4,-7 4,-7 6,-7 7,-6 11,-7 15,-7 19,-6 26,-7 31,-7 35,-7 35,-6"
         stroke="#4472c4"
         stroke-width="2"
         stroke-linecap="round"
         stroke-linejoin="round"
         stroke-miterlimit="10"
         stroke-dasharray="4, 4"
         fill="none"
         id="path13165" />
    </g>
    <g
       id="g13171"
       transform="matrix(0.26458333,0,0,0.26458333,-442.601,42.797078)"
       clip-path="url(#clipPath13586)">
      <path
         d="m 1091,283 7,-10 6,-10 7,-8 7,-6 7,-6 6,-5 7,-4 7,-4 7,-3 6,-2 7,-3 7,-2 6,-1 7,-2 7,-1 7,-1 6,-1 h 7 l 7,-1 h 7 l 6,1 7,1 7,1 7,1 6,2 7,2 7,2 6,3 7,3 7,3 7,3 6,3 7,4 7,3 7,4 6,4 7,4 7,4 6,3 7,4 7,4 7,4 6,4 7,4 7,3 7,4 6,4 7,4 7,4 6,4 7,3 7,4 7,5 6,4 7,4 7,5 7,4 6,5 7,6 7,5 7,6 6,6 7,5 7,6 6,5 7,5 7,3 7,2 6,1 7,-2 7,-4 7,-7 6,-9 7,-11 7,-12 6,-14 7,-13 7,-13 7,-12 6,-11"
         stroke="#ed7d31"
         stroke-width="2"
         stroke-linecap="round"
         stroke-linejoin="round"
         stroke-miterlimit="10"
         stroke-dasharray="4, 4"
         fill="none"
         id="path13169" />
    </g>
    <g
       id="g13175"
       transform="matrix(0.26458333,0,0,0.26458333,-442.601,42.797078)"
       clip-path="url(#clipPath13580)">
      <path
         d="m 1360,552 -4,-6 -5,-7 -4,-7 -4,-7 -3,-6 -4,-7 -4,-7 -4,-6 -4,-7 -4,-7 -3,-7 -4,-6 -4,-7 -4,-7 -4,-7 -3,-6 -4,-7 -3,-7 -2,-6 -2,-7 -2,-7 -1,-7 -1,-6 v -7 l 1,-7 1,-6 1,-7 3,-7 2,-7 3,-6 3,-7 3,-7 4,-6 4,-7 4,-7 3,-7 4,-6 4,-7 4,-7 4,-7 3,-6 4,-7 4,-7 4,-6 3,-7 4,-7 4,-7 3,-6 4,-7 4,-7 3,-6 4,-7 4,-7 4,-7 3,-6 4,-7 4,-7 3,-6 4,-7 3,-7 4,-7 3,-6 4,-7 3,-7 3,-7 3,-6 3,-7 3,-7 3,-6 4,-7 4,-7 6,-7 7,-6 11,-7 15,-7 20,-6 26,-7 31,-7 36,-7 36,-6"
         stroke="#ed7d31"
         stroke-width="2"
         stroke-linecap="round"
         stroke-linejoin="round"
         stroke-miterlimit="10"
         stroke-dasharray="4, 4"
         fill="none"
         id="path13173" />
    </g>
    <g
       id="g13211"
       transform="matrix(0.26458333,0,0,0.26458333,-442.601,42.797078)"
       clip-path="url(#clipPath13574)">
      <path
         d="m 1629.5,11.5001 3,2.9998 -3,3 -3,-3 z"
         stroke="#000000"
         stroke-linejoin="round"
         stroke-miterlimit="10"
         id="path13177" />
      <path
         d="m 1564.5,24.5001 3,2.9998 -3,3 -3,-3 z"
         stroke="#000000"
         stroke-linejoin="round"
         stroke-miterlimit="10"
         id="path13179" />
      <path
         d="m 1544.5,28.5001 3,2.9998 -3,3 -3,-3 z"
         stroke="#000000"
         stroke-linejoin="round"
         stroke-miterlimit="10"
         id="path13181" />
      <path
         d="m 1526.5,32.5001 3,2.9998 -3,3 -3,-3 z"
         stroke="#000000"
         stroke-linejoin="round"
         stroke-miterlimit="10"
         id="path13183" />
      <path
         d="m 1510.5,36.5001 3,2.9998 -3,3 -3,-3 z"
         stroke="#000000"
         stroke-linejoin="round"
         stroke-miterlimit="10"
         id="path13185" />
      <path
         d="m 1438.5,91.5001 3,2.9998 -3,3 -3,-3 z"
         stroke="#000000"
         stroke-linejoin="round"
         stroke-miterlimit="10"
         id="path13187" />
      <path
         d="m 1403.5,154.5 3,3 -3,3 -3,-3 z"
         stroke="#000000"
         stroke-linejoin="round"
         stroke-miterlimit="10"
         id="path13189" />
      <path
         d="m 1365.5,217.5 3,3 -3,3 -3,-3 z"
         stroke="#000000"
         stroke-linejoin="round"
         stroke-miterlimit="10"
         id="path13191" />
      <path
         d="m 1329.5,280.5 3,3 -3,3 -3,-3 z"
         stroke="#000000"
         stroke-linejoin="round"
         stroke-miterlimit="10"
         id="path13193" />
      <path
         d="m 1314.5,305.5 3,3 -3,3 -3,-3 z"
         stroke="#000000"
         stroke-linejoin="round"
         stroke-miterlimit="10"
         id="path13195" />
      <path
         d="m 1272.5,398.5 3,3 -3,3 -3,-3 z"
         stroke="#000000"
         stroke-linejoin="round"
         stroke-miterlimit="10"
         id="path13197" />
      <path
         d="m 1286.5,456.5 3,3 -3,3 -3,-3 z"
         stroke="#000000"
         stroke-linejoin="round"
         stroke-miterlimit="10"
         id="path13199" />
      <path
         d="m 1320.5,494.5 3,3 -3,3 -3,-3 z"
         stroke="#000000"
         stroke-linejoin="round"
         stroke-miterlimit="10"
         id="path13201" />
      <path
         d="m 1332.5,511.5 3,3 -3,3 -3,-3 z"
         stroke="#000000"
         stroke-linejoin="round"
         stroke-miterlimit="10"
         id="path13203" />
      <path
         d="m 1335.5,515.5 3,3 -3,3 -3,-3 z"
         stroke="#000000"
         stroke-linejoin="round"
         stroke-miterlimit="10"
         id="path13205" />
      <path
         d="m 1338.5,519.5 3,3 -3,3 -3,-3 z"
         stroke="#000000"
         stroke-linejoin="round"
         stroke-miterlimit="10"
         id="path13207" />
      <path
         d="m 1360.5,549.5 3,3 -3,3 -3,-3 z"
         stroke="#000000"
         stroke-linejoin="round"
         stroke-miterlimit="10"
         id="path13209" />
    </g>
    <g
       id="g13245"
       transform="matrix(0.26458333,0,0,0.26458333,-442.601,42.797078)"
       clip-path="url(#clipPath13568)">
      <path
         d="m 1629.5,280.5 3,3 -3,3 -3,-3 z"
         stroke="#000000"
         stroke-linejoin="round"
         stroke-miterlimit="10"
         id="path13213" />
      <path
         d="m 1612.5,313.5 3,3 -3,3 -3,-3 z"
         stroke="#000000"
         stroke-linejoin="round"
         stroke-miterlimit="10"
         id="path13215" />
      <path
         d="m 1608.5,322.5 3,3 -3,3 -3,-3 z"
         stroke="#000000"
         stroke-linejoin="round"
         stroke-miterlimit="10"
         id="path13217" />
      <path
         d="m 1604.5,332.5 3,3 -3,3 -3,-3 z"
         stroke="#000000"
         stroke-linejoin="round"
         stroke-miterlimit="10"
         id="path13219" />
      <path
         d="m 1599.5,341.5 3,3 -3,3 -3,-3 z"
         stroke="#000000"
         stroke-linejoin="round"
         stroke-miterlimit="10"
         id="path13221" />
      <path
         d="m 1553.5,401.5 3,3 -3,3 -3,-3 z"
         stroke="#000000"
         stroke-linejoin="round"
         stroke-miterlimit="10"
         id="path13223" />
      <path
         d="m 1524.5,384.5 3,3 -3,3 -3,-3 z"
         stroke="#000000"
         stroke-linejoin="round"
         stroke-miterlimit="10"
         id="path13225" />
      <path
         d="m 1360.5,266.5 3,3 -3,3 -3,-3 z"
         stroke="#000000"
         stroke-linejoin="round"
         stroke-miterlimit="10"
         id="path13227" />
      <path
         d="m 1217.5,199.5 3,3 -3,3 -3,-3 z"
         stroke="#000000"
         stroke-linejoin="round"
         stroke-miterlimit="10"
         id="path13229" />
      <path
         d="m 1212.5,199.5 3,3 -3,3 -3,-3 z"
         stroke="#000000"
         stroke-linejoin="round"
         stroke-miterlimit="10"
         id="path13231" />
      <path
         d="m 1175.5,204.5 3,3 -3,3 -3,-3 z"
         stroke="#000000"
         stroke-linejoin="round"
         stroke-miterlimit="10"
         id="path13233" />
      <path
         d="m 1141.5,218.5 3,3 -3,3 -3,-3 z"
         stroke="#000000"
         stroke-linejoin="round"
         stroke-miterlimit="10"
         id="path13235" />
      <path
         d="m 1133.5,224.5 3,3 -3,3 -3,-3 z"
         stroke="#000000"
         stroke-linejoin="round"
         stroke-miterlimit="10"
         id="path13237" />
      <path
         d="m 1128.5,227.5 3,3 -3,3 -3,-3 z"
         stroke="#000000"
         stroke-linejoin="round"
         stroke-miterlimit="10"
         id="path13239" />
      <path
         d="m 1124.5,231.5 3,3 -3,3 -3,-3 z"
         stroke="#000000"
         stroke-linejoin="round"
         stroke-miterlimit="10"
         id="path13241" />
      <path
         d="m 1091.5,280.5 3,3 -3,3 -3,-3 z"
         stroke="#000000"
         stroke-linejoin="round"
         stroke-miterlimit="10"
         id="path13243" />
    </g>
    <g
       id="g13249"
       transform="matrix(0.26458333,0,0,0.26458333,-442.601,42.797078)">
      <text
         font-family="Arial, Arial_MSFontService, sans-serif"
         font-weight="400"
         font-size="12px"
         transform="translate(1339.2,556)"
         id="text13247">-1</text>
    </g>
    <g
       id="g13253"
       transform="matrix(0.26458333,0,0,0.26458333,-442.601,42.797078)">
      <text
         font-family="Arial, Arial_MSFontService, sans-serif"
         font-weight="400"
         font-size="12px"
         transform="translate(1329.19,502)"
         id="text13251">-0.8</text>
    </g>
    <g
       id="g13257"
       transform="matrix(0.26458333,0,0,0.26458333,-442.601,42.797078)">
      <text
         font-family="Arial, Arial_MSFontService, sans-serif"
         font-weight="400"
         font-size="12px"
         transform="translate(1329.19,449)"
         id="text13255">-0.6</text>
    </g>
    <g
       id="g13261"
       transform="matrix(0.26458333,0,0,0.26458333,-442.601,42.797078)">
      <text
         font-family="Arial, Arial_MSFontService, sans-serif"
         font-weight="400"
         font-size="12px"
         transform="translate(1329.19,395)"
         id="text13259">-0.4</text>
    </g>
    <g
       id="g13265"
       transform="matrix(0.26458333,0,0,0.26458333,-442.601,42.797078)">
      <text
         font-family="Arial, Arial_MSFontService, sans-serif"
         font-weight="400"
         font-size="12px"
         transform="translate(1329.19,341)"
         id="text13263">-0.2</text>
    </g>
    <g
       id="g13269"
       transform="matrix(0.26458333,0,0,0.26458333,-442.601,42.797078)">
      <text
         font-family="Arial, Arial_MSFontService, sans-serif"
         font-weight="400"
         font-size="12px"
         transform="translate(1343.19,287)"
         id="text13267">0</text>
    </g>
    <g
       id="g13273"
       transform="matrix(0.26458333,0,0,0.26458333,-442.601,42.797078)">
      <text
         font-family="Arial, Arial_MSFontService, sans-serif"
         font-weight="400"
         font-size="12px"
         transform="translate(1333.19,234)"
         id="text13271">0.2</text>
    </g>
    <g
       id="g13277"
       transform="matrix(0.26458333,0,0,0.26458333,-442.601,42.797078)">
      <text
         font-family="Arial, Arial_MSFontService, sans-serif"
         font-weight="400"
         font-size="12px"
         transform="translate(1333.19,180)"
         id="text13275">0.4</text>
    </g>
    <g
       id="g13281"
       transform="matrix(0.26458333,0,0,0.26458333,-442.601,42.797078)">
      <text
         font-family="Arial, Arial_MSFontService, sans-serif"
         font-weight="400"
         font-size="12px"
         transform="translate(1333.19,126)"
         id="text13279">0.6</text>
    </g>
    <g
       id="g13285"
       transform="matrix(0.26458333,0,0,0.26458333,-442.601,42.797078)">
      <text
         font-family="Arial, Arial_MSFontService, sans-serif"
         font-weight="400"
         font-size="12px"
         transform="translate(1333.19,72)"
         id="text13283">0.8</text>
    </g>
    <g
       id="g13289"
       transform="matrix(0.26458333,0,0,0.26458333,-442.601,42.797078)">
      <text
         font-family="Arial, Arial_MSFontService, sans-serif"
         font-weight="400"
         font-size="12px"
         transform="translate(1343.19,19)"
         id="text13287">1</text>
    </g>
    <g
       id="g13293"
       transform="matrix(0.26458333,0,0,0.26458333,-442.601,42.797078)">
      <text
         font-family="Arial, Arial_MSFontService, sans-serif"
         font-weight="400"
         font-size="12px"
         transform="translate(1085.67,302)"
         id="text13291">-1</text>
    </g>
    <g
       id="g13297"
       transform="matrix(0.26458333,0,0,0.26458333,-442.601,42.797078)">
      <text
         font-family="Arial, Arial_MSFontService, sans-serif"
         font-weight="400"
         font-size="12px"
         transform="translate(1134.5,302)"
         id="text13295">-0.8</text>
    </g>
    <g
       id="g13301"
       transform="matrix(0.26458333,0,0,0.26458333,-442.601,42.797078)">
      <text
         font-family="Arial, Arial_MSFontService, sans-serif"
         font-weight="400"
         font-size="12px"
         transform="translate(1188.34,302)"
         id="text13299">-0.6</text>
    </g>
    <g
       id="g13305"
       transform="matrix(0.26458333,0,0,0.26458333,-442.601,42.797078)">
      <text
         font-family="Arial, Arial_MSFontService, sans-serif"
         font-weight="400"
         font-size="12px"
         transform="translate(1242.18,302)"
         id="text13303">-0.4</text>
    </g>
    <g
       id="g13309"
       transform="matrix(0.26458333,0,0,0.26458333,-442.601,42.797078)">
      <text
         font-family="Arial, Arial_MSFontService, sans-serif"
         font-weight="400"
         font-size="12px"
         transform="translate(1296.01,302)"
         id="text13307">-0.2</text>
    </g>
    <g
       id="g13313"
       transform="matrix(0.26458333,0,0,0.26458333,-442.601,42.797078)">
      <text
         font-family="Arial, Arial_MSFontService, sans-serif"
         font-weight="400"
         font-size="12px"
         transform="translate(1356.85,302)"
         id="text13311">0</text>
    </g>
    <g
       id="g13317"
       transform="matrix(0.26458333,0,0,0.26458333,-442.601,42.797078)">
      <text
         font-family="Arial, Arial_MSFontService, sans-serif"
         font-weight="400"
         font-size="12px"
         transform="translate(1405.68,302)"
         id="text13315">0.2</text>
    </g>
    <g
       id="g13321"
       transform="matrix(0.26458333,0,0,0.26458333,-442.601,42.797078)">
      <text
         font-family="Arial, Arial_MSFontService, sans-serif"
         font-weight="400"
         font-size="12px"
         transform="translate(1459.52,302)"
         id="text13319">0.4</text>
    </g>
    <g
       id="g13325"
       transform="matrix(0.26458333,0,0,0.26458333,-442.601,42.797078)">
      <text
         font-family="Arial, Arial_MSFontService, sans-serif"
         font-weight="400"
         font-size="12px"
         transform="translate(1513.36,302)"
         id="text13323">0.6</text>
    </g>
    <g
       id="g13329"
       transform="matrix(0.26458333,0,0,0.26458333,-442.601,42.797078)">
      <text
         font-family="Arial, Arial_MSFontService, sans-serif"
         font-weight="400"
         font-size="12px"
         transform="translate(1567.2,302)"
         id="text13327">0.8</text>
    </g>
    <g
       id="g13333"
       transform="matrix(0.26458333,0,0,0.26458333,-442.601,42.797078)">
      <text
         font-family="Arial, Arial_MSFontService, sans-serif"
         font-weight="400"
         font-size="12px"
         transform="translate(1626.04,302)"
         id="text13331">1</text>
    </g>
  </g>
</svg>
