<?xml version="1.0" encoding="UTF-8" standalone="no"?>
<!-- Created with Inkscape (http://www.inkscape.org/) -->

<svg
   width="151.60625mm"
   height="150.01875mm"
   viewBox="0 0 151.60625 150.01875"
   version="1.1"
   id="svg1"
   inkscape:version="1.3.2 (091e20e, 2023-11-25, custom)"
   sodipodi:docname="res-m2.svg"
   xmlns:inkscape="http://www.inkscape.org/namespaces/inkscape"
   xmlns:sodipodi="http://sodipodi.sourceforge.net/DTD/sodipodi-0.dtd"
   xmlns="http://www.w3.org/2000/svg"
   xmlns:svg="http://www.w3.org/2000/svg">
  <sodipodi:namedview
     id="namedview1"
     pagecolor="#ffffff"
     bordercolor="#000000"
     borderopacity="0.25"
     inkscape:showpageshadow="2"
     inkscape:pageopacity="0.0"
     inkscape:pagecheckerboard="0"
     inkscape:deskcolor="#d1d1d1"
     inkscape:document-units="mm"
     inkscape:zoom="0.73139029"
     inkscape:cx="523.66022"
     inkscape:cy="218.07782"
     inkscape:window-width="1920"
     inkscape:window-height="1017"
     inkscape:window-x="-8"
     inkscape:window-y="-8"
     inkscape:window-maximized="1"
     inkscape:current-layer="layer1" />
  <defs
     id="defs1">
    <clipPath
       id="clip0">
      <rect
         x="1058"
         y="0"
         width="573"
         height="567"
         id="rect1" />
    </clipPath>
  </defs>
  <g
     inkscape:label="Camada 1"
     inkscape:groupmode="layer"
     id="layer1"
     transform="translate(33.602087,-90.752083)">
    <g
       clip-path="url(#clip0)"
       transform="matrix(0.26458333,0,0,0.26458333,-313.53125,90.752083)"
       id="g68">
      <rect
         x="1058"
         y="0"
         width="573"
         height="567"
         fill="#ffffff"
         id="rect2" />
      <g
         id="g2">
        <path
           d="m 1078.5,552.5 h 534 m -534,-54 h 534 m -534,-54 h 534 m -534,-54 h 534 m -534,-53 h 534 m -534,-108 h 534 m -534,-54 h 534 m -534,-53 h 534 m -534,-53.9999 h 534 m -534,-54 h 534"
           stroke="#d9d9d9"
           stroke-linejoin="round"
           stroke-miterlimit="10"
           fill="none"
           id="path2" />
      </g>
      <g
         id="g3">
        <path
           d="M 1078.5,14.5001 V 552.5 m 53,-537.9999 V 552.5 m 54,-537.9999 V 552.5 m 53,-537.9999 V 552.5 m 54,-537.9999 V 552.5 m 107,-537.9999 V 552.5 m 53,-537.9999 V 552.5 m 54,-537.9999 V 552.5 m 53,-537.9999 V 552.5 m 53,-537.9999 V 552.5"
           stroke="#d9d9d9"
           stroke-linejoin="round"
           stroke-miterlimit="10"
           fill="none"
           id="path3" />
      </g>
      <g
         id="g4">
        <rect
           x="1078.5"
           y="14.5001"
           width="534"
           height="538"
           stroke="#000000"
           stroke-width="1.33333"
           stroke-linejoin="round"
           stroke-miterlimit="10"
           fill="none"
           id="rect3" />
      </g>
      <g
         id="g5">
        <path
           d="M 0,0 1.04987e-4,538"
           stroke="#000000"
           stroke-linejoin="round"
           stroke-miterlimit="10"
           fill="none"
           fill-rule="evenodd"
           transform="matrix(1,0,0,-1,1345.5,552.5)"
           id="path4" />
      </g>
      <g
         id="g6">
        <path
           d="m 1345.5,552.5 h 3 m -3,-11 h 3 m -3,-11 h 3 m -3,-10 h 3 m -3,-11 h 3 m -3,-11 h 3 m -3,-11 h 3 m -3,-11 h 3 m -3,-10 h 3 m -3,-11 h 3 m -3,-11 h 3 m -3,-11 h 3 m -3,-10 h 3 m -3,-11 h 3 m -3,-11 h 3 m -3,-11 h 3 m -3,-10 h 3 m -3,-11 h 3 m -3,-11 h 3 m -3,-11 h 3 m -3,-10 h 3 m -3,-11 h 3 m -3,-11 h 3 m -3,-11 h 3 m -3,-10 h 3 m -3,-11 h 3 m -3,-11 h 3 m -3,-11 h 3 m -3,-10 h 3 m -3,-11 h 3 m -3,-11 h 3 m -3,-11 h 3 m -3,-10 h 3 m -3,-11 h 3 m -3,-11 h 3 m -3,-11 h 3 m -3,-10 h 3 m -3,-11 h 3 m -3,-11 h 3 m -3,-11 h 3 m -3,-10 h 3 m -3,-11 h 3 m -3,-11 h 3 m -3,-10.9999 h 3 m -3,-10 h 3 m -3,-11 h 3 m -3,-11 h 3 m -3,-11.0001 h 3 m -3,-9.9999 h 3 m -3,-11 h 3 m -3,-11 h 3 m -6,537.9999 h 7 m -7,-54 h 7 m -7,-54 h 7 m -7,-54 h 7 m -7,-53 h 7 m -7,-54 h 7 m -7,-54 h 7 m -7,-54 h 7 m -7,-53 h 7 m -7,-53.9999 h 7 m -7,-54 h 7"
           stroke="#000000"
           stroke-linejoin="round"
           stroke-miterlimit="10"
           fill="none"
           id="path5" />
      </g>
      <g
         id="g7">
        <path
           d="m 1078.5,283.5 h 534"
           stroke="#000000"
           stroke-linejoin="round"
           stroke-miterlimit="10"
           fill="none"
           fill-rule="evenodd"
           id="path6" />
      </g>
      <g
         id="g8">
        <path
           d="m 1078.5,280.5 v 3 m 11,-3 v 3 m 10,-3 v 3 m 11,-3 v 3 m 11,-3 v 3 m 10,-3 v 3 m 11,-3 v 3 m 11,-3 v 3 m 10,-3 v 3 m 11,-3 v 3 m 11,-3 v 3 m 10,-3 v 3 m 11,-3 v 3 m 11,-3 v 3 m 11,-3 v 3 m 10,-3 v 3 m 11,-3 v 3 m 11,-3 v 3 m 10,-3 v 3 m 11,-3 v 3 m 11,-3 v 3 m 10,-3 v 3 m 11,-3 v 3 m 11,-3 v 3 m 10,-3 v 3 m 11,-3 v 3 m 11,-3 v 3 m 11,-3 v 3 m 10,-3 v 3 m 11,-3 v 3 m 11,-3 v 3 m 10,-3 v 3 m 11,-3 v 3 m 11,-3 v 3 m 10,-3 v 3 m 11,-3 v 3 m 11,-3 v 3 m 10,-3 v 3 m 11,-3 v 3 m 11,-3 v 3 m 11,-3 v 3 m 10,-3 v 3 m 11,-3 v 3 m 11,-3 v 3 m 10,-3 v 3 m 11,-3 v 3 m 11,-3 v 3 m 10,-3 v 3 m 11,-3 v 3 m 11,-3 v 3 m 10,-3 v 3 m -534,-4 v 8 m 53,-8 v 8 m 54,-8 v 8 m 53,-8 v 8 m 54,-8 v 8 m 53,-8 v 8 m 54,-8 v 8 m 53,-8 v 8 m 54,-8 v 8 m 53,-8 v 8 m 53,-8 v 8"
           stroke="#000000"
           stroke-linejoin="round"
           stroke-miterlimit="10"
           fill="none"
           id="path7" />
      </g>
      <g
         id="g9">
        <path
           d="m 1346,552 -48,-33 -30,-34 -6,-34 14,-33 15,-34 16,-33 14,-34 19,-34 7,-33 26,-34 6,-33 32,-34 4,-34 43,-33 -16,-34 171,-33"
           stroke="#ed7d31"
           stroke-width="2"
           stroke-linecap="round"
           stroke-linejoin="round"
           stroke-miterlimit="10"
           stroke-dasharray="4, 4"
           fill="none"
           id="path8" />
      </g>
      <g
         id="g10">
        <path
           d="m 1078,283 34,-57 33,-23 34,-3 33,16 33,16 34,13 33,18 34,15 33,14 33,15 34,18 33,15 34,19 33,22 34,-9 33,-89"
           stroke="#ed7d31"
           stroke-width="2"
           stroke-linecap="round"
           stroke-linejoin="round"
           stroke-miterlimit="10"
           stroke-dasharray="4, 4"
           fill="none"
           id="path9" />
      </g>
      <g
         id="g11">
        <path
           d="m 1346,552 -50,-33 -30,-34 -7,-34 11,-33 16,-34 17,-33 15,-34 20,-34 11,-33 27,-34 8,-33 33,-34 5,-34 40,-33 -18,-34 169,-33"
           stroke="#a5a5a5"
           stroke-width="2"
           stroke-linecap="round"
           stroke-linejoin="round"
           stroke-miterlimit="10"
           stroke-dasharray="4, 4"
           fill="none"
           id="path10" />
      </g>
      <g
         id="g12">
        <path
           d="m 1078,283 34,-57 33,-24 34,-6 33,13 33,17 34,16 33,17 34,18 33,16 33,19 34,18 33,18 34,18 33,18 34,-11 33,-90"
           stroke="#a5a5a5"
           stroke-width="2"
           stroke-linecap="round"
           stroke-linejoin="round"
           stroke-miterlimit="10"
           stroke-dasharray="4, 4"
           fill="none"
           id="path11" />
      </g>
      <g
         id="g28">
        <path
           d="m 1616.35,18 -6,-6 m 0,6 6,-6"
           stroke="#000000"
           stroke-width="1.66667"
           stroke-linejoin="round"
           stroke-miterlimit="10"
           fill="none"
           id="path12" />
        <path
           d="m 1475.35,30 -6,-6 m 0,6 6,-6"
           stroke="#000000"
           stroke-width="1.66667"
           stroke-linejoin="round"
           stroke-miterlimit="10"
           fill="none"
           id="path13" />
        <path
           d="m 1476.35,34 -6,-6 m 0,6 6,-6"
           stroke="#000000"
           stroke-width="1.66667"
           stroke-linejoin="round"
           stroke-miterlimit="10"
           fill="none"
           id="path14" />
        <path
           d="m 1477.35,39 -6,-6 m 0,6 6,-6"
           stroke="#000000"
           stroke-width="1.66667"
           stroke-linejoin="round"
           stroke-miterlimit="10"
           fill="none"
           id="path15" />
        <path
           d="m 1476.35,43 -6,-6 m 0,6 6,-6"
           stroke="#000000"
           stroke-width="1.66667"
           stroke-linejoin="round"
           stroke-miterlimit="10"
           fill="none"
           id="path16" />
        <path
           d="m 1441.35,97 -6,-6 m 0,6 6,-6"
           stroke="#000000"
           stroke-width="1.66667"
           stroke-linejoin="round"
           stroke-miterlimit="10"
           fill="none"
           id="path17" />
        <path
           d="m 1404.35,160 -6,-6 m 0,6 6,-6"
           stroke="#000000"
           stroke-width="1.66667"
           stroke-linejoin="round"
           stroke-miterlimit="10"
           fill="none"
           id="path18" />
        <path
           d="m 1371.35,223 -6,-6 m 0,6 6,-6"
           stroke="#000000"
           stroke-width="1.66667"
           stroke-linejoin="round"
           stroke-miterlimit="10"
           fill="none"
           id="path19" />
        <path
           d="m 1340.35,286 -6,-6 m 0,6 6,-6"
           stroke="#000000"
           stroke-width="1.66667"
           stroke-linejoin="round"
           stroke-miterlimit="10"
           fill="none"
           id="path20" />
        <path
           d="m 1328.35,312 -6,-6 m 0,6 6,-6"
           stroke="#000000"
           stroke-width="1.66667"
           stroke-linejoin="round"
           stroke-miterlimit="10"
           fill="none"
           id="path21" />
        <path
           d="m 1287.35,404 -6,-6 m 0,6 6,-6"
           stroke="#000000"
           stroke-width="1.66667"
           stroke-linejoin="round"
           stroke-miterlimit="10"
           fill="none"
           id="path22" />
        <path
           d="m 1261.35,463 -6,-6 m 0,6 6,-6"
           stroke="#000000"
           stroke-width="1.66667"
           stroke-linejoin="round"
           stroke-miterlimit="10"
           fill="none"
           id="path23" />
        <path
           d="m 1247.35,501 -6,-6 m 0,6 6,-6"
           stroke="#000000"
           stroke-width="1.66667"
           stroke-linejoin="round"
           stroke-miterlimit="10"
           fill="none"
           id="path24" />
        <path
           d="m 1237.35,517 -6,-6 m 0,6 6,-6"
           stroke="#000000"
           stroke-width="1.66667"
           stroke-linejoin="round"
           stroke-miterlimit="10"
           fill="none"
           id="path25" />
        <path
           d="m 1235.35,522 -6,-6 m 0,6 6,-6"
           stroke="#000000"
           stroke-width="1.66667"
           stroke-linejoin="round"
           stroke-miterlimit="10"
           fill="none"
           id="path26" />
        <path
           d="m 1234.35,526 -6,-6 m 0,6 6,-6"
           stroke="#000000"
           stroke-width="1.66667"
           stroke-linejoin="round"
           stroke-miterlimit="10"
           fill="none"
           id="path27" />
        <path
           d="m 1349.35,555 -6,-6 m 0,6 6,-6"
           stroke="#000000"
           stroke-width="1.66667"
           stroke-linejoin="round"
           stroke-miterlimit="10"
           fill="none"
           id="path28" />
      </g>
      <g
         id="g45">
        <path
           d="m 1616.35,286 -6,-6 m 0,6 6,-6"
           stroke="#000000"
           stroke-width="1.66667"
           stroke-linejoin="round"
           stroke-miterlimit="10"
           fill="none"
           id="path29" />
        <path
           d="m 1599.35,432 -6,-6 m 0,6 6,-6"
           stroke="#000000"
           stroke-width="1.66667"
           stroke-linejoin="round"
           stroke-miterlimit="10"
           fill="none"
           id="path30" />
        <path
           d="m 1595.35,429 -6,-6 m 0,6 6,-6"
           stroke="#000000"
           stroke-width="1.66667"
           stroke-linejoin="round"
           stroke-miterlimit="10"
           fill="none"
           id="path31" />
        <path
           d="m 1591.35,418 -6,-6 m 0,6 6,-6"
           stroke="#000000"
           stroke-width="1.66667"
           stroke-linejoin="round"
           stroke-miterlimit="10"
           fill="none"
           id="path32" />
        <path
           d="m 1587.35,410 -6,-6 m 0,6 6,-6"
           stroke="#000000"
           stroke-width="1.66667"
           stroke-linejoin="round"
           stroke-miterlimit="10"
           fill="none"
           id="path33" />
        <path
           d="m 1566.35,398 -6,-6 m 0,6 6,-6"
           stroke="#000000"
           stroke-width="1.66667"
           stroke-linejoin="round"
           stroke-miterlimit="10"
           fill="none"
           id="path34" />
        <path
           d="m 1541.35,385 -6,-6 m 0,6 6,-6"
           stroke="#000000"
           stroke-width="1.66667"
           stroke-linejoin="round"
           stroke-miterlimit="10"
           fill="none"
           id="path35" />
        <path
           d="m 1512.35,369 -6,-6 m 0,6 6,-6"
           stroke="#000000"
           stroke-width="1.66667"
           stroke-linejoin="round"
           stroke-miterlimit="10"
           fill="none"
           id="path36" />
        <path
           d="m 1349.35,284 -6,-6 m 0,6 6,-6"
           stroke="#000000"
           stroke-width="1.66667"
           stroke-linejoin="round"
           stroke-miterlimit="10"
           fill="none"
           id="path37" />
        <path
           d="m 1207.35,213 -6,-6 m 0,6 6,-6"
           stroke="#000000"
           stroke-width="1.66667"
           stroke-linejoin="round"
           stroke-miterlimit="10"
           fill="none"
           id="path38" />
        <path
           d="m 1202.35,211 -6,-6 m 0,6 6,-6"
           stroke="#000000"
           stroke-width="1.66667"
           stroke-linejoin="round"
           stroke-miterlimit="10"
           fill="none"
           id="path39" />
        <path
           d="m 1165.35,192 -6,-6 m 0,6 6,-6"
           stroke="#000000"
           stroke-width="1.66667"
           stroke-linejoin="round"
           stroke-miterlimit="10"
           fill="none"
           id="path40" />
        <path
           d="m 1131.35,175 -6,-6 m 0,6 6,-6"
           stroke="#000000"
           stroke-width="1.66667"
           stroke-linejoin="round"
           stroke-miterlimit="10"
           fill="none"
           id="path41" />
        <path
           d="m 1123.35,171 -6,-6 m 0,6 6,-6"
           stroke="#000000"
           stroke-width="1.66667"
           stroke-linejoin="round"
           stroke-miterlimit="10"
           fill="none"
           id="path42" />
        <path
           d="m 1119.35,169 -6,-6 m 0,6 6,-6"
           stroke="#000000"
           stroke-width="1.66667"
           stroke-linejoin="round"
           stroke-miterlimit="10"
           fill="none"
           id="path43" />
        <path
           d="m 1115.35,168 -6,-6 m 0,6 6,-6"
           stroke="#000000"
           stroke-width="1.66667"
           stroke-linejoin="round"
           stroke-miterlimit="10"
           fill="none"
           id="path44" />
        <path
           d="m 1081.35,286 -6,-6 m 0,6 6,-6"
           stroke="#000000"
           stroke-width="1.66667"
           stroke-linejoin="round"
           stroke-miterlimit="10"
           fill="none"
           id="path45" />
      </g>
      <g
         id="g46">
        <text
           font-family="Arial, Arial_MSFontService, sans-serif"
           font-weight="400"
           font-size="12px"
           transform="translate(1324.66,556)"
           id="text45">-1</text>
      </g>
      <g
         id="g47">
        <text
           font-family="Arial, Arial_MSFontService, sans-serif"
           font-weight="400"
           font-size="12px"
           transform="translate(1314.66,502)"
           id="text46">-0.8</text>
      </g>
      <g
         id="g48">
        <text
           font-family="Arial, Arial_MSFontService, sans-serif"
           font-weight="400"
           font-size="12px"
           transform="translate(1314.66,449)"
           id="text47">-0.6</text>
      </g>
      <g
         id="g49">
        <text
           font-family="Arial, Arial_MSFontService, sans-serif"
           font-weight="400"
           font-size="12px"
           transform="translate(1314.66,395)"
           id="text48">-0.4</text>
      </g>
      <g
         id="g50">
        <text
           font-family="Arial, Arial_MSFontService, sans-serif"
           font-weight="400"
           font-size="12px"
           transform="translate(1314.66,341)"
           id="text49">-0.2</text>
      </g>
      <g
         id="g51">
        <text
           font-family="Arial, Arial_MSFontService, sans-serif"
           font-weight="400"
           font-size="12px"
           transform="translate(1328.66,287)"
           id="text50">0</text>
      </g>
      <g
         id="g52">
        <text
           font-family="Arial, Arial_MSFontService, sans-serif"
           font-weight="400"
           font-size="12px"
           transform="translate(1318.65,234)"
           id="text51">0.2</text>
      </g>
      <g
         id="g53">
        <text
           font-family="Arial, Arial_MSFontService, sans-serif"
           font-weight="400"
           font-size="12px"
           transform="translate(1318.65,180)"
           id="text52">0.4</text>
      </g>
      <g
         id="g54">
        <text
           font-family="Arial, Arial_MSFontService, sans-serif"
           font-weight="400"
           font-size="12px"
           transform="translate(1318.65,126)"
           id="text53">0.6</text>
      </g>
      <g
         id="g55">
        <text
           font-family="Arial, Arial_MSFontService, sans-serif"
           font-weight="400"
           font-size="12px"
           transform="translate(1318.65,72)"
           id="text54">0.8</text>
      </g>
      <g
         id="g56">
        <text
           font-family="Arial, Arial_MSFontService, sans-serif"
           font-weight="400"
           font-size="12px"
           transform="translate(1328.66,19)"
           id="text55">1</text>
      </g>
      <g
         id="g57">
        <text
           font-family="Arial, Arial_MSFontService, sans-serif"
           font-weight="400"
           font-size="12px"
           transform="translate(1073.02,302)"
           id="text56">-1</text>
      </g>
      <g
         id="g58">
        <text
           font-family="Arial, Arial_MSFontService, sans-serif"
           font-weight="400"
           font-size="12px"
           transform="translate(1121.48,302)"
           id="text57">-0.8</text>
      </g>
      <g
         id="g59">
        <text
           font-family="Arial, Arial_MSFontService, sans-serif"
           font-weight="400"
           font-size="12px"
           transform="translate(1174.94,302)"
           id="text58">-0.6</text>
      </g>
      <g
         id="g60">
        <text
           font-family="Arial, Arial_MSFontService, sans-serif"
           font-weight="400"
           font-size="12px"
           transform="translate(1228.39,302)"
           id="text59">-0.4</text>
      </g>
      <g
         id="g61">
        <text
           font-family="Arial, Arial_MSFontService, sans-serif"
           font-weight="400"
           font-size="12px"
           transform="translate(1281.85,302)"
           id="text60">-0.2</text>
      </g>
      <g
         id="g62">
        <text
           font-family="Arial, Arial_MSFontService, sans-serif"
           font-weight="400"
           font-size="12px"
           transform="translate(1342.31,302)"
           id="text61">0</text>
      </g>
      <g
         id="g63">
        <text
           font-family="Arial, Arial_MSFontService, sans-serif"
           font-weight="400"
           font-size="12px"
           transform="translate(1390.77,302)"
           id="text62">0.2</text>
      </g>
      <g
         id="g64">
        <text
           font-family="Arial, Arial_MSFontService, sans-serif"
           font-weight="400"
           font-size="12px"
           transform="translate(1444.23,302)"
           id="text63">0.4</text>
      </g>
      <g
         id="g65">
        <text
           font-family="Arial, Arial_MSFontService, sans-serif"
           font-weight="400"
           font-size="12px"
           transform="translate(1497.69,302)"
           id="text64">0.6</text>
      </g>
      <g
         id="g66">
        <text
           font-family="Arial, Arial_MSFontService, sans-serif"
           font-weight="400"
           font-size="12px"
           transform="translate(1551.15,302)"
           id="text65">0.8</text>
      </g>
      <g
         id="g67">
        <text
           font-family="Arial, Arial_MSFontService, sans-serif"
           font-weight="400"
           font-size="12px"
           transform="translate(1609.61,302)"
           id="text66">1</text>
      </g>
    </g>
  </g>
</svg>
