<?xml version="1.0" encoding="UTF-8" standalone="no"?>
<!-- Created with Inkscape (http://www.inkscape.org/) -->

<svg
   width="88.165321mm"
   height="68.415283mm"
   viewBox="0 0 88.165321 68.415283"
   version="1.1"
   id="svg28315"
   inkscape:version="1.3.2 (091e20e, 2023-11-25, custom)"
   sodipodi:docname="ALE.svg"
   xmlns:inkscape="http://www.inkscape.org/namespaces/inkscape"
   xmlns:sodipodi="http://sodipodi.sourceforge.net/DTD/sodipodi-0.dtd"
   xmlns:xlink="http://www.w3.org/1999/xlink"
   xmlns="http://www.w3.org/2000/svg"
   xmlns:svg="http://www.w3.org/2000/svg">
  <sodipodi:namedview
     id="namedview28317"
     pagecolor="#ffffff"
     bordercolor="#000000"
     borderopacity="0.25"
     inkscape:showpageshadow="2"
     inkscape:pageopacity="0.0"
     inkscape:pagecheckerboard="0"
     inkscape:deskcolor="#d1d1d1"
     inkscape:document-units="mm"
     showgrid="false"
     inkscape:lockguides="true"
     inkscape:zoom="2.1089995"
     inkscape:cx="112.84972"
     inkscape:cy="168.56334"
     inkscape:window-width="1920"
     inkscape:window-height="1017"
     inkscape:window-x="1912"
     inkscape:window-y="-8"
     inkscape:window-maximized="1"
     inkscape:current-layer="layer1" />
  <defs
     id="defs28312">
    <linearGradient
       inkscape:collect="always"
       id="linearGradient56291">
      <stop
         style="stop-color:#000000;stop-opacity:0;"
         offset="0"
         id="stop56289" />
      <stop
         style="stop-color:#000000;stop-opacity:0.30000001;"
         offset="1"
         id="stop56287" />
    </linearGradient>
    <linearGradient
       inkscape:collect="always"
       id="linearGradient55993">
      <stop
         style="stop-color:#000000;stop-opacity:0;"
         offset="0"
         id="stop55991" />
      <stop
         style="stop-color:#000000;stop-opacity:0.30000001;"
         offset="1"
         id="stop55989" />
    </linearGradient>
    <linearGradient
       inkscape:collect="always"
       id="linearGradient55575">
      <stop
         style="stop-color:#000000;stop-opacity:0;"
         offset="0"
         id="stop55573" />
      <stop
         style="stop-color:#000000;stop-opacity:0.30000001;"
         offset="1"
         id="stop55571" />
    </linearGradient>
    <marker
       style="overflow:visible"
       id="Arrow3"
       refX="0"
       refY="0"
       orient="auto-start-reverse"
       inkscape:stockid="Arrow3"
       markerWidth="1.8030457"
       markerHeight="3"
       viewBox="0 0 4.2071068 7"
       inkscape:isstock="true"
       inkscape:collect="always"
       preserveAspectRatio="xMidYMid"
       markerUnits="userSpaceOnUse">
      <path
         style="fill:none;stroke:context-stroke;stroke-width:1;stroke-linecap:round"
         d="M 3,-3 0,0 3,3"
         id="arrow3"
         transform="rotate(180,0.125,0)"
         sodipodi:nodetypes="ccc" />
    </marker>
    <marker
       style="overflow:visible"
       id="Arrow2"
       refX="0"
       refY="0"
       orient="auto-start-reverse"
       inkscape:stockid="Arrow2"
       markerWidth="2"
       markerHeight="1.3333334"
       viewBox="0 0 7.7 5.6"
       inkscape:isstock="true"
       inkscape:collect="always"
       preserveAspectRatio="xMidYMid"
       markerUnits="userSpaceOnUse">
      <path
         d="M -2,-4 9,0 -2,4 c 2,-2.33 2,-5.66 0,-8 z"
         style="fill:context-stroke;fill-rule:evenodd;stroke:none"
         id="arrow2L"
         transform="scale(0.7)" />
    </marker>
    <clipPath
       id="clipPath2145">
      <path
         clip-rule="nonzero"
         d="m 243,12 h 4 v 8.085938 h -4 z m 0,0"
         id="path5528" />
    </clipPath>
    <clipPath
       id="clipPath9585">
      <path
         clip-rule="nonzero"
         d="m 242,12 h 6 v 8.085938 h -6 z m 0,0"
         id="path5570" />
    </clipPath>
    <clipPath
       id="clipPath6401">
      <path
         clip-rule="nonzero"
         d="m 242,12 h 6 v 8.085938 h -6 z m 0,0"
         id="path1860" />
    </clipPath>
    <clipPath
       id="clipPath1017">
      <path
         clip-rule="nonzero"
         d="m 244,12 h 5 v 8.085938 h -5 z m 0,0"
         id="path4908" />
    </clipPath>
    <clipPath
       id="clipPath9300">
      <path
         clip-rule="nonzero"
         d="m 237,7 h 10 v 10.933594 h -10 z m 0,0"
         id="path102" />
    </clipPath>
    <clipPath
       id="clipPath2437">
      <path
         clip-rule="nonzero"
         d="m 237,7 h 10 v 10.933594 h -10 z m 0,0"
         id="path9155" />
    </clipPath>
    <clipPath
       id="clipPath7244">
      <path
         clip-rule="nonzero"
         d="m 239,7 h 6 v 10.933594 h -6 z m 0,0"
         id="path5061" />
    </clipPath>
    <clipPath
       id="clipPath52">
      <path
         clip-rule="nonzero"
         d="m 239,7 h 6 v 10.933594 h -6 z m 0,0"
         id="path8499" />
    </clipPath>
    <clipPath
       id="clipPath5300">
      <path
         clip-rule="nonzero"
         d="m 239,7 h 6 v 10.933594 h -6 z m 0,0"
         id="path4239" />
    </clipPath>
    <clipPath
       id="clipPath5093">
      <path
         clip-rule="nonzero"
         d="m 237,11 h 9 v 6.933594 h -9 z m 0,0"
         id="path7722" />
    </clipPath>
    <clipPath
       id="clipPath658">
      <path
         clip-rule="nonzero"
         d="m 237,11 h 9 v 9.722656 h -9 z m 0,0"
         id="path5028" />
    </clipPath>
    <clipPath
       id="clipPath365">
      <path
         clip-rule="nonzero"
         d="m 237,11 h 9 v 6.933594 h -9 z m 0,0"
         id="path33227" />
    </clipPath>
    <clipPath
       id="clipPath2197">
      <path
         clip-rule="nonzero"
         d="m 231,11 h 9 v 11.476563 h -9 z m 0,0"
         id="path7489" />
    </clipPath>
    <clipPath
       id="clipPath9719">
      <path
         clip-rule="nonzero"
         d="m 231,11 h 9 v 11.476563 h -9 z m 0,0"
         id="path6004" />
    </clipPath>
    <clipPath
       id="clipPath7858">
      <path
         clip-rule="nonzero"
         d="m 231,11 h 9 v 11.476563 h -9 z m 0,0"
         id="path7913" />
    </clipPath>
    <clipPath
       id="clipPath8694">
      <path
         clip-rule="nonzero"
         d="m 221,6 h 5 v 10.707031 h -5 z m 0,0"
         id="path1015" />
    </clipPath>
    <clipPath
       id="clipPath4191">
      <path
         clip-rule="nonzero"
         d="m 221,6 h 5 v 10.707031 h -5 z m 0,0"
         id="path6238" />
    </clipPath>
    <clipPath
       id="clipPath7790">
      <path
         clip-rule="nonzero"
         d="m 221,6 h 5 v 10.707031 h -5 z m 0,0"
         id="path7898" />
    </clipPath>
    <radialGradient
       inkscape:collect="always"
       xlink:href="#linearGradient55575"
       id="radialGradient55577"
       cx="192.04242"
       cy="193.95242"
       fx="192.04242"
       fy="193.95242"
       r="10.334818"
       gradientTransform="matrix(1,0,0,1.4843931,0,-96.930871)"
       gradientUnits="userSpaceOnUse" />
    <radialGradient
       inkscape:collect="always"
       xlink:href="#linearGradient55993"
       id="radialGradient55995"
       cx="217.59018"
       cy="213.46208"
       fx="217.59018"
       fy="213.46208"
       r="10.98774"
       gradientTransform="matrix(1,0,0,1.5303011,0,-116.27326)"
       gradientUnits="userSpaceOnUse" />
    <radialGradient
       inkscape:collect="always"
       xlink:href="#linearGradient56291"
       id="radialGradient56293"
       cx="250.79964"
       cy="200.76382"
       fx="250.79964"
       fy="200.76382"
       r="13.581602"
       gradientTransform="matrix(1,0,0,0.9687375,0,6.4739117)"
       gradientUnits="userSpaceOnUse" />
  </defs>
  <g
     inkscape:label="Camada 1"
     inkscape:groupmode="layer"
     id="layer1"
     transform="translate(-169.82882,-175.45614)">
    <path
       style="fill:none;stroke:#000000;stroke-width:0.264999;stroke-dasharray:none;stroke-dashoffset:0;marker-start:url(#Arrow3);marker-end:url(#Arrow3)"
       d="m 209.40548,180.37452 v 40 l 34.64102,20"
       id="path28975" />
    <path
       style="fill:none;stroke:#000000;stroke-width:0.264999;stroke-dasharray:none;stroke-dashoffset:0;marker-end:url(#Arrow3)"
       d="m 209.40548,220.37452 -34.64102,20"
       id="path28977"
       sodipodi:nodetypes="cc" />
    <path
       style="fill:url(#radialGradient55577);fill-opacity:1;stroke:#000000;stroke-width:0.264999;stroke-dasharray:none;stroke-dashoffset:0"
       d="m 185.58933,209.86523 c 4.01453,6.27272 17.71133,8.1995 16.18362,0 -1.00519,-5.39505 -6.50578,-12.3942 -6.27272,-17.56361 0.36047,-7.9956 -5.37706,-10.04513 -10.28727,-3.51273 -8.60552,11.44854 0.37637,21.07634 0.37637,21.07634 z"
       id="path30851"
       sodipodi:nodetypes="csssc" />
    <path
       style="fill:url(#radialGradient55995);fill-opacity:1;stroke:#000000;stroke-width:0.264999;stroke-dasharray:none;stroke-dashoffset:0"
       d="m 209.09197,229.75738 c 2.75999,5.39454 9.43574,9.01566 14.92908,3.26182 6.57503,-6.88682 5.14624,-13.78713 2.88545,-18.4418 -5.28498,-10.88105 -14.28433,-18.32512 -18.1909,-4.39091 -3.86626,13.79043 0.37637,19.57089 0.37637,19.57089 z"
       id="path30851-8"
       sodipodi:nodetypes="csssc" />
    <path
       style="fill:url(#radialGradient56293);fill-opacity:1;stroke:#000000;stroke-width:0.264999;stroke-dasharray:none;stroke-dashoffset:0"
       d="m 231.67376,213.44831 c 7.02544,11.41635 16.18463,5.89742 22.20543,0.12546 6.02025,-5.77142 4.24942,-12.40439 1.00364,-16.43453 -6.40271,-7.94992 -6.01229,1.74221 -15.80727,3.88908 -11.50169,2.52095 -7.4018,12.41999 -7.4018,12.41999 z"
       id="path30851-9"
       sodipodi:nodetypes="csssc" />
    <path
       style="fill:none;stroke:#000000;stroke-width:0.264999;stroke-dasharray:none;stroke-dashoffset:0;marker-end:url(#Arrow2)"
       d="M 209.40548,220.37452 191.94047,203.43887"
       id="path30953" />
    <path
       style="fill:none;stroke:#000000;stroke-width:0.264999;stroke-dasharray:none;stroke-dashoffset:0;marker-end:url(#Arrow2)"
       d="m 209.40548,220.37452 9.17836,0.78161"
       id="path30955" />
    <path
       style="fill:none;stroke:#000000;stroke-width:0.264999;stroke-dasharray:none;stroke-dashoffset:0;marker-end:url(#Arrow2)"
       d="m 209.40548,220.37452 34.3947,-12.26565"
       id="path30957" />
    <path
       style="fill:none;stroke:#000000;stroke-width:0.264999;stroke-linecap:butt;stroke-dasharray:none;stroke-dashoffset:0;marker-end:url(#Arrow2);paint-order:normal"
       d="m 195.50023,192.30162 c 30.65338,-11.34921 46.02496,5.05596 46.02496,5.05596"
       id="path32603"
       sodipodi:nodetypes="cc" />
    <path
       style="fill:none;stroke:#000000;stroke-width:0.264999;stroke-dasharray:none;stroke-dashoffset:0;marker-end:url(#Arrow2)"
       d="m 195.45341,215.44879 c -1.45756,11.15693 10.00146,12.61745 10.00146,12.61745"
       id="path32605"
       sodipodi:nodetypes="cc" />
    <path
       style="fill:none;stroke:#000000;stroke-width:0.264999;stroke-dasharray:none;stroke-dashoffset:0;marker-end:url(#Arrow2)"
       d="m 227.54259,227.93374 c 12.57629,3.22306 14.79403,-5.62755 14.79403,-5.62755"
       id="path32607"
       sodipodi:nodetypes="cc" />
    <g
       inkscape:label=""
       transform="translate(188.29966,187.31791)"
       id="g57715">
      <g
         fill="#000000"
         fill-opacity="1"
         id="g57705"
         transform="matrix(0.352778,0,0,0.352778,-82.6936,-2.76551)">
        <g
           id="g57703"
           transform="translate(233.782,17.933001)">
          <path
             d="M 9.5,-2.234375 H 9.1875 c -0.078125,0.375 -0.15625,0.75 -0.265625,1.046875 C 8.84375,-0.96875 8.8125,-0.84375 7.96875,-0.84375 h -1.125 c 0.171875,-0.8125 0.59375,-1.5 1.171875,-2.390625 0.671875,-1.046875 1.34375,-2.09375 1.34375,-3.28125 0,-1.96875 -1.90625,-3.578125 -4.296875,-3.578125 -2.40625,0 -4.28125,1.609375 -4.28125,3.578125 0,1.1875 0.640625,2.21875 1.3125,3.265625 0.609375,0.921875 1.03125,1.59375 1.1875,2.40625 h -1.125 c -0.84375,0 -0.875,-0.125 -0.953125,-0.328125 -0.109375,-0.3125 -0.1875,-0.71875 -0.25,-1.0625 H 0.625 L 1.09375,0 H 3.3125 C 3.625,0 3.65625,0 3.65625,-0.265625 3.65625,-1.28125 3.203125,-2.53125 2.90625,-3.25 2.5,-4.390625 2.109375,-5.4375 2.109375,-6.53125 c 0,-2.203125 1.53125,-3.28125 2.953125,-3.28125 1.421875,0 2.953125,1.078125 2.953125,3.28125 0,1.09375 -0.40625,2.171875 -0.796875,3.234375 -0.25,0.6875 -0.75,2 -0.75,3.03125 C 6.46875,0 6.515625,0 6.828125,0 H 9.03125 Z m 0,0"
             id="path57701" />
        </g>
      </g>
      <g
         clip-path="url(#clipPath1017)"
         id="g57713"
         transform="matrix(0.352778,0,0,0.352778,-82.6936,-2.76551)">
        <g
           fill="#000000"
           fill-opacity="1"
           id="g57711">
          <g
             id="g57709"
             transform="translate(243.927,20.084999)">
            <path
               d="m 5.015625,-3.484375 c 0,-0.875 -0.046875,-1.75 -0.4375,-2.5625 -0.5,-1.046875 -1.390625,-1.21875 -1.859375,-1.21875 -0.640625,0 -1.4375,0.28125 -1.890625,1.296875 -0.34375,0.75 -0.40625,1.609375 -0.40625,2.484375 0,0.8125 0.046875,1.796875 0.5,2.625 0.46875,0.875 1.265625,1.09375 1.796875,1.09375 0.578125,0 1.421875,-0.21875 1.890625,-1.265625 0.359375,-0.75 0.40625,-1.59375 0.40625,-2.453125 z M 2.71875,0 C 2.296875,0 1.640625,-0.265625 1.453125,-1.3125 c -0.125,-0.65625 -0.125,-1.671875 -0.125,-2.3125 0,-0.6875 0,-1.40625 0.09375,-2 C 1.625,-6.921875 2.4375,-7.03125 2.71875,-7.03125 c 0.359375,0 1.078125,0.203125 1.28125,1.28125 0.109375,0.609375 0.109375,1.4375 0.109375,2.125 0,0.828125 0,1.5625 -0.125,2.265625 C 3.828125,-0.328125 3.203125,0 2.71875,0 Z m 0,0"
               id="path57707" />
          </g>
        </g>
      </g>
    </g>
    <g
       inkscape:label=""
       transform="translate(249.33646,196.67173)"
       id="g59665">
      <g
         clip-path="url(#clipPath9300)"
         id="g17"
         transform="matrix(0.352778,0,0,0.352778,-83.7434,-2.76551)">
        <g
           fill="#000000"
           fill-opacity="1"
           id="g15">
          <g
             id="use13"
             transform="translate(236.758,17.933001)">
            <path
               d="M 9.5,-2.234375 H 9.1875 c -0.078125,0.375 -0.15625,0.75 -0.265625,1.046875 C 8.84375,-0.96875 8.8125,-0.84375 7.96875,-0.84375 h -1.125 c 0.171875,-0.8125 0.59375,-1.5 1.171875,-2.390625 0.671875,-1.046875 1.34375,-2.09375 1.34375,-3.28125 0,-1.96875 -1.90625,-3.578125 -4.296875,-3.578125 -2.40625,0 -4.28125,1.609375 -4.28125,3.578125 0,1.1875 0.640625,2.21875 1.3125,3.265625 0.609375,0.921875 1.03125,1.59375 1.1875,2.40625 h -1.125 c -0.84375,0 -0.875,-0.125 -0.953125,-0.328125 -0.109375,-0.3125 -0.1875,-0.71875 -0.25,-1.0625 H 0.625 L 1.09375,0 H 3.3125 C 3.625,0 3.65625,0 3.65625,-0.265625 3.65625,-1.28125 3.203125,-2.53125 2.90625,-3.25 2.5,-4.390625 2.109375,-5.4375 2.109375,-6.53125 c 0,-2.203125 1.53125,-3.28125 2.953125,-3.28125 1.421875,0 2.953125,1.078125 2.953125,3.28125 0,1.09375 -0.40625,2.171875 -0.796875,3.234375 -0.25,0.6875 -0.75,2 -0.75,3.03125 C 6.46875,0 6.515625,0 6.828125,0 H 9.03125 Z m 0,0"
               id="path23" />
          </g>
        </g>
      </g>
    </g>
    <g
       inkscape:label=""
       transform="translate(215.53807,229.64006)"
       id="g61631">
      <g
         fill="#000000"
         fill-opacity="1"
         id="g18"
         transform="matrix(0.352778,0,0,0.352778,-83.7434,-1.53595)">
        <g
           id="use16"
           transform="translate(238.319,14.307)">
          <path
             d="M 3.515625,-9.953125 1.640625,-8 1.859375,-7.78125 3.5,-9.265625 5.15625,-7.78125 5.375,-8 Z m 0,0"
             id="path30" />
        </g>
      </g>
      <g
         clip-path="url(#clipPath2437)"
         id="g24"
         transform="matrix(0.352778,0,0,0.352778,-83.7434,-1.53595)">
        <g
           fill="#000000"
           fill-opacity="1"
           id="g61628">
          <g
             id="g61626"
             transform="translate(236.758,17.933001)">
            <path
               d="M 9.5,-2.234375 H 9.1875 c -0.078125,0.375 -0.15625,0.75 -0.265625,1.046875 C 8.84375,-0.96875 8.8125,-0.84375 7.96875,-0.84375 h -1.125 c 0.171875,-0.8125 0.59375,-1.5 1.171875,-2.390625 0.671875,-1.046875 1.34375,-2.09375 1.34375,-3.28125 0,-1.96875 -1.90625,-3.578125 -4.296875,-3.578125 -2.40625,0 -4.28125,1.609375 -4.28125,3.578125 0,1.1875 0.640625,2.21875 1.3125,3.265625 0.609375,0.921875 1.03125,1.59375 1.1875,2.40625 h -1.125 c -0.84375,0 -0.875,-0.125 -0.953125,-0.328125 -0.109375,-0.3125 -0.1875,-0.71875 -0.25,-1.0625 H 0.625 L 1.09375,0 H 3.3125 C 3.625,0 3.65625,0 3.65625,-0.265625 3.65625,-1.28125 3.203125,-2.53125 2.90625,-3.25 2.5,-4.390625 2.109375,-5.4375 2.109375,-6.53125 c 0,-2.203125 1.53125,-3.28125 2.953125,-3.28125 1.421875,0 2.953125,1.078125 2.953125,3.28125 0,1.09375 -0.40625,2.171875 -0.796875,3.234375 -0.25,0.6875 -0.75,2 -0.75,3.03125 C 6.46875,0 6.515625,0 6.828125,0 H 9.03125 Z m 0,0"
               id="path34" />
          </g>
        </g>
      </g>
    </g>
    <g
       inkscape:label=""
       transform="translate(187.50581,198.98339)"
       id="g69694">
      <g
         clip-path="url(#clipPath5093)"
         id="g69692"
         transform="matrix(0.352778,0,0,0.352778,-83.9038,-4.07741)">
        <g
           fill="#000000"
           fill-opacity="1"
           id="g69690">
          <g
             id="g69688"
             transform="translate(237.57201,17.933001)">
            <path
               d="M 4.828125,-3.546875 6.5,-5.453125 C 6.65625,-5.640625 6.78125,-5.75 7.96875,-5.75 v -0.625 c -0.796875,0.03125 -0.828125,0.03125 -1.3125,0.03125 -0.421875,0 -1.03125,0 -1.4375,-0.03125 v 0.625 c 0.28125,0 0.578125,0.0625 0.578125,0.171875 0,0.03125 -0.078125,0.125 -0.109375,0.15625 L 4.453125,-4.015625 3.03125,-5.75 H 3.625 v -0.625 c -0.328125,0.03125 -1.296875,0.03125 -1.6875,0.03125 -0.4375,0 -1.203125,0 -1.609375,-0.03125 V -5.75 H 1.34375 l 2.234375,2.71875 -1.859375,2.109375 c -0.171875,0.203125 -0.265625,0.3125 -1.453125,0.3125 V 0 c 0.859375,-0.03125 0.875,-0.03125 1.328125,-0.03125 0.421875,0 1.015625,0 1.421875,0.03125 v -0.609375 c -0.28125,0 -0.578125,-0.078125 -0.578125,-0.171875 0,-0.015625 0,-0.03125 0.09375,-0.15625 l 1.4375,-1.609375 1.59375,1.9375 H 4.96875 V 0 c 0.34375,-0.03125 1.296875,-0.03125 1.703125,-0.03125 0.421875,0 1.1875,0 1.59375,0.03125 v -0.609375 h -1 z m 0,0"
               id="path69686" />
          </g>
        </g>
      </g>
    </g>
    <g
       inkscape:label=""
       transform="translate(245.96549,207.08232)"
       id="g71747">
      <g
         clip-path="url(#clipPath658)"
         id="g71745"
         transform="matrix(0.352778,0,0,0.352778,-83.8809,-4.07705)">
        <g
           fill="#000000"
           fill-opacity="1"
           id="g71743">
          <g
             id="g71741"
             transform="translate(237.46001,17.931999)">
            <path
               d="M 7.09375,-5.4375 C 7.1875,-5.640625 7.25,-5.75 8.15625,-5.75 v -0.625 c -0.484375,0.03125 -0.546875,0.03125 -1.125,0.03125 -0.390625,0 -0.421875,0 -1.234375,-0.03125 v 0.625 c 0.015625,0 0.6875,0 0.6875,0.1875 0,0.046875 -0.046875,0.125 -0.0625,0.171875 L 4.75,-1.78125 2.90625,-5.75 h 0.796875 v -0.625 c -0.34375,0.03125 -1.328125,0.03125 -1.71875,0.03125 -0.421875,0 -1.265625,0 -1.640625,-0.03125 V -5.75 H 1.265625 L 3.921875,0 c -0.078125,0.171875 -0.28125,0.59375 -0.34375,0.765625 -0.3125,0.640625 -0.765625,1.625 -1.765625,1.625 -0.0625,0 -0.234375,0 -0.390625,-0.078125 C 1.453125,2.296875 1.875,2.125 1.875,1.578125 c 0,-0.46875 -0.34375,-0.78125 -0.765625,-0.78125 -0.453125,0 -0.796875,0.3125 -0.796875,0.796875 0,0.671875 0.640625,1.28125 1.5,1.28125 1.171875,0 1.953125,-1.0625 2.234375,-1.703125 z m 0,0"
               id="path71739" />
          </g>
        </g>
      </g>
    </g>
    <g
       inkscape:label=""
       transform="translate(220.50581,219.06045)"
       id="g73820">
      <g
         fill="#000000"
         fill-opacity="1"
         id="g73810"
         transform="matrix(0.352778,0,0,0.352778,-83.9038,-2.74492)">
        <g
           id="g73808"
           transform="translate(238.319,17.733999)">
          <path
             d="M 3.515625,-9.953125 1.640625,-8 1.859375,-7.78125 3.5,-9.265625 5.15625,-7.78125 5.375,-8 Z m 0,0"
             id="path73806" />
        </g>
      </g>
      <g
         clip-path="url(#clipPath365)"
         id="g73818"
         transform="matrix(0.352778,0,0,0.352778,-83.9038,-2.74492)">
        <g
           fill="#000000"
           fill-opacity="1"
           id="g73816">
          <g
             id="g73814"
             transform="translate(237.57201,17.933001)">
            <path
               d="M 4.828125,-3.546875 6.5,-5.453125 C 6.65625,-5.640625 6.78125,-5.75 7.96875,-5.75 v -0.625 c -0.796875,0.03125 -0.828125,0.03125 -1.3125,0.03125 -0.421875,0 -1.03125,0 -1.4375,-0.03125 v 0.625 c 0.28125,0 0.578125,0.0625 0.578125,0.171875 0,0.03125 -0.078125,0.125 -0.109375,0.15625 L 4.453125,-4.015625 3.03125,-5.75 H 3.625 v -0.625 c -0.328125,0.03125 -1.296875,0.03125 -1.6875,0.03125 -0.4375,0 -1.203125,0 -1.609375,-0.03125 V -5.75 H 1.34375 l 2.234375,2.71875 -1.859375,2.109375 c -0.171875,0.203125 -0.265625,0.3125 -1.453125,0.3125 V 0 c 0.859375,-0.03125 0.875,-0.03125 1.328125,-0.03125 0.421875,0 1.015625,0 1.421875,0.03125 v -0.609375 c -0.28125,0 -0.578125,-0.078125 -0.578125,-0.171875 0,-0.015625 0,-0.03125 0.09375,-0.15625 l 1.4375,-1.609375 1.59375,1.9375 H 4.96875 V 0 c 0.34375,-0.03125 1.296875,-0.03125 1.703125,-0.03125 0.421875,0 1.1875,0 1.59375,0.03125 v -0.609375 h -1 z m 0,0"
               id="path73812" />
          </g>
        </g>
      </g>
    </g>
    <g
       inkscape:label=""
       transform="translate(188.29966,187.31791)"
       id="g29125">
      <g
         fill="#000000"
         fill-opacity="1"
         id="g29115"
         transform="matrix(0.352778,0,0,0.352778,-82.6936,-2.76551)">
        <g
           id="g29113"
           transform="translate(233.782,17.933001)">
          <path
             d="M 9.5,-2.234375 H 9.1875 c -0.078125,0.375 -0.15625,0.75 -0.265625,1.046875 C 8.84375,-0.96875 8.8125,-0.84375 7.96875,-0.84375 h -1.125 c 0.171875,-0.8125 0.59375,-1.5 1.171875,-2.390625 0.671875,-1.046875 1.34375,-2.09375 1.34375,-3.28125 0,-1.96875 -1.90625,-3.578125 -4.296875,-3.578125 -2.40625,0 -4.28125,1.609375 -4.28125,3.578125 0,1.1875 0.640625,2.21875 1.3125,3.265625 0.609375,0.921875 1.03125,1.59375 1.1875,2.40625 h -1.125 c -0.84375,0 -0.875,-0.125 -0.953125,-0.328125 -0.109375,-0.3125 -0.1875,-0.71875 -0.25,-1.0625 H 0.625 L 1.09375,0 H 3.3125 C 3.625,0 3.65625,0 3.65625,-0.265625 3.65625,-1.28125 3.203125,-2.53125 2.90625,-3.25 2.5,-4.390625 2.109375,-5.4375 2.109375,-6.53125 c 0,-2.203125 1.53125,-3.28125 2.953125,-3.28125 1.421875,0 2.953125,1.078125 2.953125,3.28125 0,1.09375 -0.40625,2.171875 -0.796875,3.234375 -0.25,0.6875 -0.75,2 -0.75,3.03125 C 6.46875,0 6.515625,0 6.828125,0 H 9.03125 Z m 0,0"
             id="path29111" />
        </g>
      </g>
      <g
         clip-path="url(#clipPath1017)"
         id="g29123"
         transform="matrix(0.352778,0,0,0.352778,-82.6936,-2.76551)">
        <g
           fill="#000000"
           fill-opacity="1"
           id="g29121">
          <g
             id="g29119"
             transform="translate(243.927,20.084999)">
            <path
               d="m 5.015625,-3.484375 c 0,-0.875 -0.046875,-1.75 -0.4375,-2.5625 -0.5,-1.046875 -1.390625,-1.21875 -1.859375,-1.21875 -0.640625,0 -1.4375,0.28125 -1.890625,1.296875 -0.34375,0.75 -0.40625,1.609375 -0.40625,2.484375 0,0.8125 0.046875,1.796875 0.5,2.625 0.46875,0.875 1.265625,1.09375 1.796875,1.09375 0.578125,0 1.421875,-0.21875 1.890625,-1.265625 0.359375,-0.75 0.40625,-1.59375 0.40625,-2.453125 z M 2.71875,0 C 2.296875,0 1.640625,-0.265625 1.453125,-1.3125 c -0.125,-0.65625 -0.125,-1.671875 -0.125,-2.3125 0,-0.6875 0,-1.40625 0.09375,-2 C 1.625,-6.921875 2.4375,-7.03125 2.71875,-7.03125 c 0.359375,0 1.078125,0.203125 1.28125,1.28125 0.109375,0.609375 0.109375,1.4375 0.109375,2.125 0,0.828125 0,1.5625 -0.125,2.265625 C 3.828125,-0.328125 3.203125,0 2.71875,0 Z m 0,0"
               id="path29117" />
          </g>
        </g>
      </g>
    </g>
    <g
       inkscape:label=""
       transform="translate(215.53807,229.64006)"
       id="g29151">
      <g
         fill="#000000"
         fill-opacity="1"
         id="g29141"
         transform="matrix(0.352778,0,0,0.352778,-83.7434,-1.53595)">
        <g
           id="g29139"
           transform="translate(238.319,14.307)">
          <path
             d="M 3.515625,-9.953125 1.640625,-8 1.859375,-7.78125 3.5,-9.265625 5.15625,-7.78125 5.375,-8 Z m 0,0"
             id="path29137" />
        </g>
      </g>
      <g
         clip-path="url(#clipPath2437)"
         id="g29149"
         transform="matrix(0.352778,0,0,0.352778,-83.7434,-1.53595)">
        <g
           fill="#000000"
           fill-opacity="1"
           id="g29147">
          <g
             id="g29145"
             transform="translate(236.758,17.933001)">
            <path
               d="M 9.5,-2.234375 H 9.1875 c -0.078125,0.375 -0.15625,0.75 -0.265625,1.046875 C 8.84375,-0.96875 8.8125,-0.84375 7.96875,-0.84375 h -1.125 c 0.171875,-0.8125 0.59375,-1.5 1.171875,-2.390625 0.671875,-1.046875 1.34375,-2.09375 1.34375,-3.28125 0,-1.96875 -1.90625,-3.578125 -4.296875,-3.578125 -2.40625,0 -4.28125,1.609375 -4.28125,3.578125 0,1.1875 0.640625,2.21875 1.3125,3.265625 0.609375,0.921875 1.03125,1.59375 1.1875,2.40625 h -1.125 c -0.84375,0 -0.875,-0.125 -0.953125,-0.328125 -0.109375,-0.3125 -0.1875,-0.71875 -0.25,-1.0625 H 0.625 L 1.09375,0 H 3.3125 C 3.625,0 3.65625,0 3.65625,-0.265625 3.65625,-1.28125 3.203125,-2.53125 2.90625,-3.25 2.5,-4.390625 2.109375,-5.4375 2.109375,-6.53125 c 0,-2.203125 1.53125,-3.28125 2.953125,-3.28125 1.421875,0 2.953125,1.078125 2.953125,3.28125 0,1.09375 -0.40625,2.171875 -0.796875,3.234375 -0.25,0.6875 -0.75,2 -0.75,3.03125 C 6.46875,0 6.515625,0 6.828125,0 H 9.03125 Z m 0,0"
               id="path29143" />
          </g>
        </g>
      </g>
    </g>
    <g
       inkscape:label=""
       transform="translate(187.50581,198.98339)"
       id="g29203">
      <g
         clip-path="url(#clipPath5093)"
         id="g29201"
         transform="matrix(0.352778,0,0,0.352778,-83.9038,-4.07741)">
        <g
           fill="#000000"
           fill-opacity="1"
           id="g29199">
          <g
             id="g29197"
             transform="translate(237.57201,17.933001)">
            <path
               d="M 4.828125,-3.546875 6.5,-5.453125 C 6.65625,-5.640625 6.78125,-5.75 7.96875,-5.75 v -0.625 c -0.796875,0.03125 -0.828125,0.03125 -1.3125,0.03125 -0.421875,0 -1.03125,0 -1.4375,-0.03125 v 0.625 c 0.28125,0 0.578125,0.0625 0.578125,0.171875 0,0.03125 -0.078125,0.125 -0.109375,0.15625 L 4.453125,-4.015625 3.03125,-5.75 H 3.625 v -0.625 c -0.328125,0.03125 -1.296875,0.03125 -1.6875,0.03125 -0.4375,0 -1.203125,0 -1.609375,-0.03125 V -5.75 H 1.34375 l 2.234375,2.71875 -1.859375,2.109375 c -0.171875,0.203125 -0.265625,0.3125 -1.453125,0.3125 V 0 c 0.859375,-0.03125 0.875,-0.03125 1.328125,-0.03125 0.421875,0 1.015625,0 1.421875,0.03125 v -0.609375 c -0.28125,0 -0.578125,-0.078125 -0.578125,-0.171875 0,-0.015625 0,-0.03125 0.09375,-0.15625 l 1.4375,-1.609375 1.59375,1.9375 H 4.96875 V 0 c 0.34375,-0.03125 1.296875,-0.03125 1.703125,-0.03125 0.421875,0 1.1875,0 1.59375,0.03125 v -0.609375 h -1 z m 0,0"
               id="path29195" />
          </g>
        </g>
      </g>
    </g>
    <g
       inkscape:label=""
       transform="translate(245.96549,207.08232)"
       id="g29213">
      <g
         clip-path="url(#clipPath658)"
         id="g29211"
         transform="matrix(0.352778,0,0,0.352778,-83.8809,-4.07705)">
        <g
           fill="#000000"
           fill-opacity="1"
           id="g29209">
          <g
             id="g29207"
             transform="translate(237.46001,17.931999)">
            <path
               d="M 7.09375,-5.4375 C 7.1875,-5.640625 7.25,-5.75 8.15625,-5.75 v -0.625 c -0.484375,0.03125 -0.546875,0.03125 -1.125,0.03125 -0.390625,0 -0.421875,0 -1.234375,-0.03125 v 0.625 c 0.015625,0 0.6875,0 0.6875,0.1875 0,0.046875 -0.046875,0.125 -0.0625,0.171875 L 4.75,-1.78125 2.90625,-5.75 h 0.796875 v -0.625 c -0.34375,0.03125 -1.328125,0.03125 -1.71875,0.03125 -0.421875,0 -1.265625,0 -1.640625,-0.03125 V -5.75 H 1.265625 L 3.921875,0 c -0.078125,0.171875 -0.28125,0.59375 -0.34375,0.765625 -0.3125,0.640625 -0.765625,1.625 -1.765625,1.625 -0.0625,0 -0.234375,0 -0.390625,-0.078125 C 1.453125,2.296875 1.875,2.125 1.875,1.578125 c 0,-0.46875 -0.34375,-0.78125 -0.765625,-0.78125 -0.453125,0 -0.796875,0.3125 -0.796875,0.796875 0,0.671875 0.640625,1.28125 1.5,1.28125 1.171875,0 1.953125,-1.0625 2.234375,-1.703125 z m 0,0"
               id="path29205" />
          </g>
        </g>
      </g>
    </g>
    <g
       inkscape:label=""
       transform="translate(220.50581,219.06045)"
       id="g29229">
      <g
         fill="#000000"
         fill-opacity="1"
         id="g29219"
         transform="matrix(0.352778,0,0,0.352778,-83.9038,-2.74492)">
        <g
           id="g29217"
           transform="translate(238.319,17.733999)">
          <path
             d="M 3.515625,-9.953125 1.640625,-8 1.859375,-7.78125 3.5,-9.265625 5.15625,-7.78125 5.375,-8 Z m 0,0"
             id="path29215" />
        </g>
      </g>
      <g
         clip-path="url(#clipPath365)"
         id="g29227"
         transform="matrix(0.352778,0,0,0.352778,-83.9038,-2.74492)">
        <g
           fill="#000000"
           fill-opacity="1"
           id="g29225">
          <g
             id="g29223"
             transform="translate(237.57201,17.933001)">
            <path
               d="M 4.828125,-3.546875 6.5,-5.453125 C 6.65625,-5.640625 6.78125,-5.75 7.96875,-5.75 v -0.625 c -0.796875,0.03125 -0.828125,0.03125 -1.3125,0.03125 -0.421875,0 -1.03125,0 -1.4375,-0.03125 v 0.625 c 0.28125,0 0.578125,0.0625 0.578125,0.171875 0,0.03125 -0.078125,0.125 -0.109375,0.15625 L 4.453125,-4.015625 3.03125,-5.75 H 3.625 v -0.625 c -0.328125,0.03125 -1.296875,0.03125 -1.6875,0.03125 -0.4375,0 -1.203125,0 -1.609375,-0.03125 V -5.75 H 1.34375 l 2.234375,2.71875 -1.859375,2.109375 c -0.171875,0.203125 -0.265625,0.3125 -1.453125,0.3125 V 0 c 0.859375,-0.03125 0.875,-0.03125 1.328125,-0.03125 0.421875,0 1.015625,0 1.421875,0.03125 v -0.609375 c -0.28125,0 -0.578125,-0.078125 -0.578125,-0.171875 0,-0.015625 0,-0.03125 0.09375,-0.15625 l 1.4375,-1.609375 1.59375,1.9375 H 4.96875 V 0 c 0.34375,-0.03125 1.296875,-0.03125 1.703125,-0.03125 0.421875,0 1.1875,0 1.59375,0.03125 v -0.609375 h -1 z m 0,0"
               id="path29221" />
          </g>
        </g>
      </g>
    </g>
    <g
       inkscape:label=""
       transform="translate(169.82877,240.01157)"
       id="g2803">
      <g
         clip-path="url(#clipPath2197)"
         id="g21"
         transform="matrix(0.352778,0,0,0.352778,-81.6655,-4.06938)">
        <g
           fill="#000000"
           fill-opacity="1"
           id="g19">
          <g
             id="use17"
             transform="translate(231.024,19.129)">
            <path
               d="m 4.53125,1.921875 c -0.46875,0.65625 -1.140625,1.25 -1.984375,1.25 -0.203125,0 -1.03125,-0.03125 -1.296875,-0.828125 0.0625,0.015625 0.140625,0.015625 0.171875,0.015625 0.53125,0 0.875,-0.453125 0.875,-0.84375 0,-0.390625 -0.328125,-0.53125 -0.59375,-0.53125 -0.28125,0 -0.875,0.203125 -0.875,1.046875 0,0.875 0.734375,1.484375 1.71875,1.484375 1.71875,0 3.46875,-1.59375 3.9375,-3.5 l 1.6875,-6.71875 c 0.03125,-0.078125 0.0625,-0.1875 0.0625,-0.28125 0,-0.265625 -0.203125,-0.4375 -0.46875,-0.4375 -0.15625,0 -0.515625,0.0625 -0.65625,0.59375 L 5.84375,-1.78125 C 5.75,-1.46875 5.75,-1.421875 5.609375,-1.234375 5.265625,-0.75 4.703125,-0.171875 3.875,-0.171875 c -0.96875,0 -1.046875,-0.953125 -1.046875,-1.40625 0,-0.984375 0.453125,-2.3125 0.921875,-3.546875 0.1875,-0.5 0.296875,-0.75 0.296875,-1.09375 0,-0.71875 -0.515625,-1.375 -1.359375,-1.375 -1.578125,0 -2.21875,2.5 -2.21875,2.640625 0,0.0625 0.0625,0.15625 0.1875,0.15625 0.15625,0 0.171875,-0.078125 0.234375,-0.3125 C 1.3125,-6.5625 1.96875,-7.25 2.640625,-7.25 c 0.15625,0 0.4375,0 0.4375,0.5625 0,0.453125 -0.1875,0.953125 -0.4375,1.609375 -0.84375,2.25 -0.84375,2.828125 -0.84375,3.234375 0,1.640625 1.171875,2.015625 2.03125,2.015625 0.5,0 1.109375,-0.15625 1.71875,-0.796875 L 5.5625,-0.609375 C 5.296875,0.40625 5.125,1.078125 4.53125,1.921875 Z m 0,0"
               id="path31" />
          </g>
        </g>
      </g>
      <g
         fill="#000000"
         fill-opacity="1"
         id="g25"
         transform="matrix(0.352778,0,0,0.352778,-81.6655,-4.06938)">
        <g
           id="g2800"
           transform="translate(239.243,21.711)">
          <path
             d="m 3.203125,-6.984375 c 0,-0.25 0,-0.28125 -0.25,-0.28125 C 2.28125,-6.5625 1.3125,-6.5625 0.96875,-6.5625 v 0.328125 c 0.21875,0 0.859375,0 1.4375,-0.28125 v 5.65625 c 0,0.390625 -0.046875,0.515625 -1.015625,0.515625 H 1.03125 V 0 c 0.390625,-0.03125 1.328125,-0.03125 1.765625,-0.03125 0.4375,0 1.390625,0 1.765625,0.03125 V -0.34375 H 4.21875 c -0.984375,0 -1.015625,-0.109375 -1.015625,-0.515625 z m 0,0"
             id="path35" />
        </g>
      </g>
    </g>
    <g
       inkscape:label=""
       transform="translate(245.71071,239.26421)"
       id="g3485">
      <g
         clip-path="url(#clipPath9719)"
         id="g3477"
         transform="matrix(0.352778,0,0,0.352778,-81.6655,-4.06938)">
        <g
           fill="#000000"
           fill-opacity="1"
           id="g3475">
          <g
             id="g3473"
             transform="translate(231.024,19.129)">
            <path
               d="m 4.53125,1.921875 c -0.46875,0.65625 -1.140625,1.25 -1.984375,1.25 -0.203125,0 -1.03125,-0.03125 -1.296875,-0.828125 0.0625,0.015625 0.140625,0.015625 0.171875,0.015625 0.53125,0 0.875,-0.453125 0.875,-0.84375 0,-0.390625 -0.328125,-0.53125 -0.59375,-0.53125 -0.28125,0 -0.875,0.203125 -0.875,1.046875 0,0.875 0.734375,1.484375 1.71875,1.484375 1.71875,0 3.46875,-1.59375 3.9375,-3.5 l 1.6875,-6.71875 c 0.03125,-0.078125 0.0625,-0.1875 0.0625,-0.28125 0,-0.265625 -0.203125,-0.4375 -0.46875,-0.4375 -0.15625,0 -0.515625,0.0625 -0.65625,0.59375 L 5.84375,-1.78125 C 5.75,-1.46875 5.75,-1.421875 5.609375,-1.234375 5.265625,-0.75 4.703125,-0.171875 3.875,-0.171875 c -0.96875,0 -1.046875,-0.953125 -1.046875,-1.40625 0,-0.984375 0.453125,-2.3125 0.921875,-3.546875 0.1875,-0.5 0.296875,-0.75 0.296875,-1.09375 0,-0.71875 -0.515625,-1.375 -1.359375,-1.375 -1.578125,0 -2.21875,2.5 -2.21875,2.640625 0,0.0625 0.0625,0.15625 0.1875,0.15625 0.15625,0 0.171875,-0.078125 0.234375,-0.3125 C 1.3125,-6.5625 1.96875,-7.25 2.640625,-7.25 c 0.15625,0 0.4375,0 0.4375,0.5625 0,0.453125 -0.1875,0.953125 -0.4375,1.609375 -0.84375,2.25 -0.84375,2.828125 -0.84375,3.234375 0,1.640625 1.171875,2.015625 2.03125,2.015625 0.5,0 1.109375,-0.15625 1.71875,-0.796875 L 5.5625,-0.609375 C 5.296875,0.40625 5.125,1.078125 4.53125,1.921875 Z m 0,0"
               id="path3471" />
          </g>
        </g>
      </g>
      <g
         fill="#000000"
         fill-opacity="1"
         id="g3483"
         transform="matrix(0.352778,0,0,0.352778,-81.6655,-4.06938)">
        <g
           id="g3481"
           transform="translate(239.243,21.711)">
          <path
             d="m 1.390625,-0.84375 1.15625,-1.125 c 1.703125,-1.5 2.34375,-2.09375 2.34375,-3.171875 0,-1.25 -0.96875,-2.125 -2.3125,-2.125 -1.21875,0 -2.03125,1 -2.03125,1.96875 0,0.625 0.546875,0.625 0.578125,0.625 0.1875,0 0.5625,-0.140625 0.5625,-0.578125 0,-0.296875 -0.1875,-0.578125 -0.578125,-0.578125 -0.078125,0 -0.109375,0 -0.140625,0.015625 0.25,-0.703125 0.84375,-1.109375 1.46875,-1.109375 1,0 1.46875,0.875 1.46875,1.78125 0,0.859375 -0.546875,1.734375 -1.140625,2.40625 l -2.09375,2.328125 c -0.125,0.125 -0.125,0.140625 -0.125,0.40625 H 4.59375 L 4.890625,-1.890625 H 4.625 C 4.5625,-1.578125 4.5,-1.09375 4.390625,-0.921875 4.3125,-0.84375 3.59375,-0.84375 3.34375,-0.84375 Z m 0,0"
             id="path3479" />
        </g>
      </g>
    </g>
    <g
       inkscape:label=""
       transform="translate(205.14181,175.45614)"
       id="g4187">
      <g
         clip-path="url(#clipPath7858)"
         id="g4179"
         transform="matrix(0.352778,0,0,0.352778,-81.6655,-4.06938)">
        <g
           fill="#000000"
           fill-opacity="1"
           id="g4177">
          <g
             id="g4175"
             transform="translate(231.024,19.129)">
            <path
               d="m 4.53125,1.921875 c -0.46875,0.65625 -1.140625,1.25 -1.984375,1.25 -0.203125,0 -1.03125,-0.03125 -1.296875,-0.828125 0.0625,0.015625 0.140625,0.015625 0.171875,0.015625 0.53125,0 0.875,-0.453125 0.875,-0.84375 0,-0.390625 -0.328125,-0.53125 -0.59375,-0.53125 -0.28125,0 -0.875,0.203125 -0.875,1.046875 0,0.875 0.734375,1.484375 1.71875,1.484375 1.71875,0 3.46875,-1.59375 3.9375,-3.5 l 1.6875,-6.71875 c 0.03125,-0.078125 0.0625,-0.1875 0.0625,-0.28125 0,-0.265625 -0.203125,-0.4375 -0.46875,-0.4375 -0.15625,0 -0.515625,0.0625 -0.65625,0.59375 L 5.84375,-1.78125 C 5.75,-1.46875 5.75,-1.421875 5.609375,-1.234375 5.265625,-0.75 4.703125,-0.171875 3.875,-0.171875 c -0.96875,0 -1.046875,-0.953125 -1.046875,-1.40625 0,-0.984375 0.453125,-2.3125 0.921875,-3.546875 0.1875,-0.5 0.296875,-0.75 0.296875,-1.09375 0,-0.71875 -0.515625,-1.375 -1.359375,-1.375 -1.578125,0 -2.21875,2.5 -2.21875,2.640625 0,0.0625 0.0625,0.15625 0.1875,0.15625 0.15625,0 0.171875,-0.078125 0.234375,-0.3125 C 1.3125,-6.5625 1.96875,-7.25 2.640625,-7.25 c 0.15625,0 0.4375,0 0.4375,0.5625 0,0.453125 -0.1875,0.953125 -0.4375,1.609375 -0.84375,2.25 -0.84375,2.828125 -0.84375,3.234375 0,1.640625 1.171875,2.015625 2.03125,2.015625 0.5,0 1.109375,-0.15625 1.71875,-0.796875 L 5.5625,-0.609375 C 5.296875,0.40625 5.125,1.078125 4.53125,1.921875 Z m 0,0"
               id="path4173" />
          </g>
        </g>
      </g>
      <g
         fill="#000000"
         fill-opacity="1"
         id="g4185"
         transform="matrix(0.352778,0,0,0.352778,-81.6655,-4.06938)">
        <g
           id="g4183"
           transform="translate(239.243,21.711)">
          <path
             d="M 3.15625,-3.84375 C 4.0625,-4.140625 4.6875,-4.890625 4.6875,-5.765625 c 0,-0.890625 -0.953125,-1.5 -2,-1.5 -1.109375,0 -1.9375,0.65625 -1.9375,1.484375 0,0.359375 0.25,0.5625 0.5625,0.5625 0.328125,0 0.546875,-0.234375 0.546875,-0.546875 0,-0.546875 -0.5,-0.546875 -0.671875,-0.546875 C 1.53125,-6.84375 2.25,-6.984375 2.640625,-6.984375 3.09375,-6.984375 3.6875,-6.75 3.6875,-5.765625 3.6875,-5.640625 3.671875,-5 3.375,-4.53125 3.046875,-4 2.6875,-3.96875 2.40625,-3.953125 c -0.078125,0 -0.34375,0.03125 -0.421875,0.03125 -0.09375,0 -0.15625,0.015625 -0.15625,0.125 0,0.125 0.0625,0.125 0.25,0.125 H 2.5625 c 0.890625,0 1.296875,0.734375 1.296875,1.8125 0,1.484375 -0.75,1.796875 -1.234375,1.796875 -0.46875,0 -1.28125,-0.1875 -1.671875,-0.828125 0.390625,0.046875 0.71875,-0.1875 0.71875,-0.609375 0,-0.390625 -0.28125,-0.609375 -0.609375,-0.609375 -0.25,0 -0.609375,0.15625 -0.609375,0.640625 0,0.984375 1.015625,1.703125 2.203125,1.703125 1.328125,0 2.328125,-0.984375 2.328125,-2.09375 0,-0.90625 -0.6875,-1.75 -1.828125,-1.984375 z m 0,0"
             id="path4181" />
        </g>
      </g>
    </g>
    <g
       inkscape:label=""
       transform="translate(218.73826,182.60748)"
       id="g873">
      <g
         clip-path="url(#clipPath8694)"
         id="g871"
         transform="matrix(0.352778,0,0,0.352778,-78.0851,-2.2244)">
        <g
           fill="#000000"
           fill-opacity="1"
           id="g869">
          <g
             id="g867"
             transform="translate(220.90601,14.446)">
            <path
               d="M 3.03125,-4.84375 C 2.796875,-5.625 1.796875,-5.953125 1.796875,-6.703125 c 0,-0.375 0.265625,-0.59375 0.671875,-0.59375 0.390625,0 0.734375,0.4375 0.921875,0.734375 h 0.1875 l 0.875,-0.984375 C 4.15625,-7.8125 3.734375,-8.140625 3.3125,-8.140625 c -1.25,0 -1.859375,1.015625 -2.125,1.921875 0.109375,0.484375 0.15625,0.90625 0.3125,1.375 H 0.625 l -0.1875,0.453125 v 0.09375 h 1.171875 v 4.078125 c 0,0.5 -0.046875,1.046875 -0.109375,1.5 C 1.4375,1.6875 1.125,2.4375 0.953125,2.84375 L 1.1875,2.890625 2.546875,0.40625 c 0.09375,-0.171875 0.171875,-0.375 0.21875,-0.546875 0.21875,-1.328125 0.21875,-2.75 0.21875,-4.15625 H 4.4375 L 4.625,-4.75 v -0.09375 z m 0,0"
               id="path865" />
          </g>
        </g>
      </g>
    </g>
    <g
       inkscape:label=""
       transform="translate(241.69642,226.01372)"
       id="g1497">
      <g
         fill="#000000"
         fill-opacity="1"
         id="g1489"
         transform="matrix(0.352778,0,0,0.352778,-78.0851,-1.06896)">
        <g
           id="g1487"
           transform="translate(220.302,11.327)">
          <path
             d="m 2.921875,-8.296875 -1.5625,1.625 0.1875,0.1875 1.375,-1.234375 1.375,1.234375 0.1875,-0.1875 z m 0,0"
             id="path1485" />
        </g>
      </g>
      <g
         clip-path="url(#clipPath4191)"
         id="g1495"
         transform="matrix(0.352778,0,0,0.352778,-78.0851,-1.06896)">
        <g
           fill="#000000"
           fill-opacity="1"
           id="g23">
          <g
             id="use21"
             transform="translate(220.90601,14.446)">
            <path
               d="M 3.03125,-4.84375 C 2.796875,-5.625 1.796875,-5.953125 1.796875,-6.703125 c 0,-0.375 0.265625,-0.59375 0.671875,-0.59375 0.390625,0 0.734375,0.4375 0.921875,0.734375 h 0.1875 l 0.875,-0.984375 C 4.15625,-7.8125 3.734375,-8.140625 3.3125,-8.140625 c -1.25,0 -1.859375,1.015625 -2.125,1.921875 0.109375,0.484375 0.15625,0.90625 0.3125,1.375 H 0.625 l -0.1875,0.453125 v 0.09375 h 1.171875 v 4.078125 c 0,0.5 -0.046875,1.046875 -0.109375,1.5 C 1.4375,1.6875 1.125,2.4375 0.953125,2.84375 L 1.1875,2.890625 2.546875,0.40625 c 0.09375,-0.171875 0.171875,-0.375 0.21875,-0.546875 0.21875,-1.328125 0.21875,-2.75 0.21875,-4.15625 H 4.4375 L 4.625,-4.75 v -0.09375 z m 0,0"
               id="path1491" />
          </g>
        </g>
      </g>
    </g>
    <g
       inkscape:label=""
       transform="translate(192.73335,220.29283)"
       id="g1979">
      <g
         fill="#000000"
         fill-opacity="1"
         id="g1969"
         transform="matrix(0.352778,0,0,0.352778,-78.0649,-1.19574)">
        <g
           id="g1967"
           transform="translate(220.302,11.327)">
          <path
             d="M 4.703125,-7.9375 C 4.34375,-7.59375 4.09375,-7.34375 3.71875,-7.34375 3.53125,-7.34375 3.375,-7.390625 3,-7.640625 2.765625,-7.78125 2.515625,-7.9375 2.25,-7.9375 c -0.4375,0 -0.703125,0.296875 -1.265625,0.921875 l 0.15625,0.171875 C 1.5,-7.203125 1.75,-7.4375 2.125,-7.4375 c 0.1875,0 0.34375,0.03125 0.71875,0.296875 0.234375,0.140625 0.484375,0.296875 0.75,0.296875 0.453125,0 0.703125,-0.296875 1.265625,-0.921875 z m 0,0"
             id="path1965" />
        </g>
      </g>
      <g
         clip-path="url(#clipPath7790)"
         id="g1977"
         transform="matrix(0.352778,0,0,0.352778,-78.0649,-1.19574)">
        <g
           fill="#000000"
           fill-opacity="1"
           id="g1975">
          <g
             id="g1973"
             transform="translate(220.90601,14.446)">
            <path
               d="M 3.03125,-4.84375 C 2.796875,-5.625 1.796875,-5.953125 1.796875,-6.703125 c 0,-0.375 0.265625,-0.59375 0.671875,-0.59375 0.390625,0 0.734375,0.4375 0.921875,0.734375 h 0.1875 l 0.875,-0.984375 C 4.15625,-7.8125 3.734375,-8.140625 3.3125,-8.140625 c -1.25,0 -1.859375,1.015625 -2.125,1.921875 0.109375,0.484375 0.15625,0.90625 0.3125,1.375 H 0.625 l -0.1875,0.453125 v 0.09375 h 1.171875 v 4.078125 c 0,0.5 -0.046875,1.046875 -0.109375,1.5 C 1.4375,1.6875 1.125,2.4375 0.953125,2.84375 L 1.1875,2.890625 2.546875,0.40625 c 0.09375,-0.171875 0.171875,-0.375 0.21875,-0.546875 0.21875,-1.328125 0.21875,-2.75 0.21875,-4.15625 H 4.4375 L 4.625,-4.75 v -0.09375 z m 0,0"
               id="path1971" />
          </g>
        </g>
      </g>
    </g>
  </g>
</svg>
