<?xml version="1.0" encoding="UTF-8" standalone="no"?>
<!-- Created with Inkscape (http://www.inkscape.org/) -->

<svg
   width="64.168785mm"
   height="53.857487mm"
   viewBox="0 0 64.168785 53.857487"
   version="1.1"
   id="svg59159"
   inkscape:version="1.2.1 (9c6d41e410, 2022-07-14)"
   sodipodi:docname="alpha-gen.svg"
   xmlns:inkscape="http://www.inkscape.org/namespaces/inkscape"
   xmlns:sodipodi="http://sodipodi.sourceforge.net/DTD/sodipodi-0.dtd"
   xmlns="http://www.w3.org/2000/svg"
   xmlns:svg="http://www.w3.org/2000/svg">
  <sodipodi:namedview
     id="namedview59161"
     pagecolor="#ffffff"
     bordercolor="#000000"
     borderopacity="0.25"
     inkscape:showpageshadow="2"
     inkscape:pageopacity="0.0"
     inkscape:pagecheckerboard="0"
     inkscape:deskcolor="#d1d1d1"
     inkscape:document-units="mm"
     showgrid="false"
     inkscape:zoom="0.74564394"
     inkscape:cx="-170.99314"
     inkscape:cy="182.39268"
     inkscape:window-width="1920"
     inkscape:window-height="1017"
     inkscape:window-x="1912"
     inkscape:window-y="-8"
     inkscape:window-maximized="1"
     inkscape:current-layer="layer1" />
  <defs
     id="defs59156">
    <marker
       style="overflow:visible"
       id="Arrow3-08-2-2"
       refX="0"
       refY="0"
       orient="auto-start-reverse"
       inkscape:stockid="Arrow3"
       markerWidth="1.8030457"
       markerHeight="3"
       viewBox="0 0 4.2071068 7"
       inkscape:isstock="true"
       inkscape:collect="always"
       preserveAspectRatio="xMidYMid"
       markerUnits="userSpaceOnUse">
      <path
         style="fill:none;stroke:context-stroke;stroke-width:1;stroke-linecap:round"
         d="M 3,-3 0,0 3,3"
         id="arrow3-2-0-3"
         transform="rotate(180,0.125,0)"
         sodipodi:nodetypes="ccc" />
    </marker>
    <clipPath
       id="clipPath7758-8-7">
      <path
         clip-rule="nonzero"
         d="m 221,6 h 4 v 8.445313 h -4 z m 0,0"
         id="path64802-15-9" />
    </clipPath>
    <clipPath
       id="clipPath9449-0-7">
      <path
         clip-rule="nonzero"
         d="m 220,6 h 7 v 10.769531 h -7 z m 0,0"
         id="path24627-2-8" />
    </clipPath>
    <marker
       style="overflow:visible"
       id="Arrow3"
       refX="0"
       refY="0"
       orient="auto-start-reverse"
       inkscape:stockid="Arrow3"
       markerWidth="1.5"
       markerHeight="1.5"
       viewBox="0 0 4.2071068 7"
       inkscape:isstock="true"
       inkscape:collect="always"
       preserveAspectRatio="xMidYMid"
       markerUnits="userSpaceOnUse">
      <path
         style="fill:none;stroke:context-stroke;stroke-width:1;stroke-linecap:round"
         d="M 3,-3 0,0 3,3"
         id="arrow3"
         transform="rotate(180,0.125,0)"
         sodipodi:nodetypes="ccc" />
    </marker>
    <clipPath
       id="clipPath5875">
      <path
         clip-rule="nonzero"
         d="m 219,9 h 8 v 5.445313 h -8 z m 0,0"
         id="path21409" />
    </clipPath>
    <clipPath
       id="clipPath5360">
      <path
         clip-rule="nonzero"
         d="m 221,6 h 5 v 8.445313 h -5 z m 0,0"
         id="path83648" />
    </clipPath>
    <clipPath
       id="clipPath1335">
      <path
         clip-rule="nonzero"
         d="m 217,6 h 7 v 10.769531 h -7 z m 0,0"
         id="path71959" />
    </clipPath>
    <clipPath
       id="clipPath18539">
      <path
         clip-rule="nonzero"
         d="m 224,12 h 5 v 4.769531 h -5 z m 0,0"
         id="path12439" />
    </clipPath>
    <clipPath
       id="clipPath778">
      <path
         clip-rule="nonzero"
         d="m 223,11 h 7 v 6.070313 h -7 z m 0,0"
         id="path94817" />
    </clipPath>
    <clipPath
       id="clipPath7492">
      <path
         clip-rule="nonzero"
         d="m 224,10 h 10 v 7.070313 h -10 z m 0,0"
         id="path82924" />
    </clipPath>
    <clipPath
       id="clipPath6753">
      <path
         clip-rule="nonzero"
         d="m 222,12 h 6 v 4.238281 h -6 z m 0,0"
         id="path45438" />
    </clipPath>
    <clipPath
       id="clipPath2550">
      <path
         clip-rule="nonzero"
         d="m 222,11 h 6 v 6.070313 h -6 z m 0,0"
         id="path50795" />
    </clipPath>
    <clipPath
       id="clipPath9871">
      <path
         clip-rule="nonzero"
         d="m 222,10 h 11 v 7.070313 h -11 z m 0,0"
         id="path38889" />
    </clipPath>
  </defs>
  <g
     inkscape:label="Camada 1"
     inkscape:groupmode="layer"
     id="layer1"
     transform="translate(-141.43174,-100.45835)">
    <path
       style="fill:none;stroke:#000000;stroke-width:0.3;stroke-dasharray:none;stroke-dashoffset:0.211667;stroke-opacity:1;marker-end:url(#Arrow3-08-2-2)"
       d="M 150.85774,149.02418 V 101.71804"
       id="path2512-4-3-9" />
    <path
       style="fill:none;stroke:#000000;stroke-width:0.3;stroke-dasharray:none;stroke-dashoffset:0.8;stroke-opacity:1;marker-end:url(#Arrow3-08-2-2)"
       d="m 142.92024,141.08668 h 60.85415"
       id="path3224-0-9-4" />
    <path
       style="fill:none;stroke:#000000;stroke-width:0.3"
       d="m 150.85774,141.08668 c 13.42204,-38.59611 52.73924,-36.1082 52.73924,-36.1082"
       id="path10625-7-2"
       sodipodi:nodetypes="cc" />
    <path
       style="fill:none;stroke:#000000;stroke-width:0.3;stroke-dasharray:0.3, 0.3;stroke-dashoffset:0"
       d="M 158.64838,141.08668 V 125.89666"
       id="path10627-5-3" />
    <path
       style="fill:none;stroke:#000000;stroke-width:0.3;stroke-dasharray:0.3, 0.3;stroke-dashoffset:0"
       d="M 166.88274,141.08668 V 117.20015"
       id="path10629-1-5" />
    <path
       style="fill:none;stroke:#000000;stroke-width:0.3;stroke-dasharray:0.3, 0.3;stroke-dashoffset:0"
       d="M 185.25357,141.08668 V 107.55774"
       id="path10631-2-4" />
    <path
       style="fill:none;stroke:#000000;stroke-width:0.3;stroke-dasharray:0.295135, 0.295135;stroke-dashoffset:0"
       d="m 158.6641,126.06532 h -7.80636"
       id="path11241-3-7" />
    <path
       style="fill:none;stroke:#000000;stroke-width:0.3;stroke-dasharray:0.295135, 0.295135;stroke-dashoffset:0"
       d="M 166.96855,117.22163 H 150.80196"
       id="path11243-7-9" />
    <path
       style="fill:none;stroke:#000000;stroke-width:0.3;stroke-dasharray:0.295135, 0.295135;stroke-dashoffset:0"
       d="M 185.26567,107.60077 H 150.84631"
       id="path11245-3-2" />
    <g
       inkscape:label=""
       transform="translate(204.33822,142.99634)"
       id="g16525-2-3">
      <g
         clip-path="url(#clipPath7758-8-7)"
         id="g16523-02-2"
         transform="matrix(0.352778,0,0,0.352778,-78.0982,-2.46142)">
        <g
           fill="#000000"
           fill-opacity="1"
           id="g16521-0-2">
          <g
             id="g16519-7-5"
             transform="translate(221.11501,14.446)">
            <path
               d="M 2.40625,-4.8125 H 3.5 c 0.234375,0 0.34375,0 0.34375,-0.203125 0,-0.140625 -0.0625,-0.140625 -0.3125,-0.140625 H 2.484375 l 0.4375,-1.734375 C 2.96875,-7.0625 2.96875,-7.09375 2.96875,-7.171875 c 0,-0.1875 -0.140625,-0.296875 -0.296875,-0.296875 -0.109375,0 -0.375,0.03125 -0.46875,0.421875 l -0.46875,1.890625 h -1.125 c -0.234375,0 -0.34375,0 -0.34375,0.234375 0,0.109375 0.078125,0.109375 0.3125,0.109375 h 1.0625 L 0.84375,-1.65625 c -0.09375,0.421875 -0.125,0.546875 -0.125,0.703125 0,0.5625 0.390625,1.078125 1.0625,1.078125 1.203125,0 1.859375,-1.75 1.859375,-1.828125 0,-0.078125 -0.0625,-0.109375 -0.125,-0.109375 -0.03125,0 -0.078125,0 -0.09375,0.046875 C 3.40625,-1.75 3.390625,-1.75 3.3125,-1.546875 c -0.25,0.59375 -0.796875,1.421875 -1.5,1.421875 -0.359375,0 -0.375,-0.296875 -0.375,-0.5625 0,0 0,-0.234375 0.03125,-0.375 z m 0,0"
               id="path16517-0-9" />
          </g>
        </g>
      </g>
    </g>
    <g
       inkscape:label=""
       transform="translate(145.64838,100.45835)"
       id="g69832-86-3">
      <g
         clip-path="url(#clipPath9449-0-7)"
         id="g69830-8-9"
         transform="matrix(0.352778,0,0,0.352778,-77.7263,-2.16892)">
        <g
           fill="#000000"
           fill-opacity="1"
           id="g69828-16-8">
          <g
             id="g69826-1-3"
             transform="translate(219.76401,14.445)">
            <path
               d="m 5.140625,-8.1875 c 0,-0.109375 -0.078125,-0.109375 -0.125,-0.109375 -0.109375,0 -0.109375,0.03125 -0.15625,0.234375 L 4.203125,-5.5 c -0.03125,0.15625 -0.046875,0.171875 -0.0625,0.1875 0,0.015625 -0.09375,0.03125 -0.109375,0.03125 C 2.0625,-5.109375 0.5625,-3.5 0.5625,-2.015625 c 0,1.296875 0.984375,2.09375 2.234375,2.15625 -0.09375,0.375 -0.171875,0.75 -0.28125,1.125 -0.15625,0.640625 -0.25,1.03125 -0.25,1.078125 0,0.015625 0,0.09375 0.109375,0.09375 0.046875,0 0.09375,0 0.109375,-0.046875 0.03125,-0.03125 0.09375,-0.3125 0.140625,-0.46875 l 0.453125,-1.78125 c 2.03125,-0.109375 3.59375,-1.78125 3.59375,-3.28125 0,-1.203125 -0.90625,-2.078125 -2.234375,-2.15625 z m -0.78125,3.125 C 5.15625,-5.015625 5.9375,-4.5625 5.9375,-3.390625 5.9375,-2.046875 5,-0.25 3.125,-0.109375 Z m -1.5,4.96875 C 2.265625,-0.125 1.296875,-0.4375 1.296875,-1.75 c 0,-1.515625 1.078125,-3.1875 2.796875,-3.296875 z m 0,0"
               id="path69824-0-3" />
          </g>
        </g>
      </g>
    </g>
    <path
       style="fill:none;stroke:#000000;stroke-width:0.2;stroke-dasharray:none;stroke-dashoffset:0"
       d="m 158.79524,143.73251 v 5.29167"
       id="path4613" />
    <path
       style="fill:none;stroke:#000000;stroke-width:0.2;stroke-dasharray:none;stroke-dashoffset:0"
       d="m 166.73274,143.73251 v 5.29167"
       id="path4615" />
    <path
       style="fill:none;stroke:#000000;stroke-width:0.2;stroke-dasharray:none;stroke-dashoffset:0"
       d="m 185.25358,143.73251 v 10.58333"
       id="path4617" />
    <path
       style="fill:none;stroke:#000000;stroke-width:0.2;stroke-dasharray:none;stroke-dashoffset:0"
       d="m 158.79524,143.73251 v 10.58333"
       id="path4619" />
    <path
       style="fill:none;stroke:#000000;stroke-width:0.2;stroke-dasharray:none;stroke-dashoffset:0;marker-start:url(#Arrow3);marker-end:url(#Arrow3)"
       d="m 158.79524,146.37834 h 7.9375"
       id="path4621" />
    <path
       style="fill:none;stroke:#000000;stroke-width:0.2;stroke-dasharray:none;stroke-dashoffset:0;marker-start:url(#Arrow3);marker-end:url(#Arrow3)"
       d="m 158.79524,151.67001 h 26.45834"
       id="path4623" />
    <g
       inkscape:label=""
       transform="translate(161.65748,143.40293)"
       id="g10452">
      <g
         clip-path="url(#clipPath5875)"
         id="g10450"
         transform="matrix(0.352778,0,0,0.352778,-77.5943,-3.23863)">
        <g
           fill="#000000"
           fill-opacity="1"
           id="g10448">
          <g
             id="g10446"
             transform="translate(219.468,14.446)">
            <path
               d="m 5.53125,-3.03125 c 0,-1.15625 -0.65625,-2.234375 -1.921875,-2.234375 -1.5625,0 -3.125,1.703125 -3.125,3.40625 0,1.03125 0.640625,1.984375 1.859375,1.984375 0.734375,0 1.625,-0.296875 2.46875,-1.015625 C 4.984375,-0.21875 5.359375,0.125 5.875,0.125 c 0.640625,0 0.96875,-0.671875 0.96875,-0.828125 0,-0.109375 -0.09375,-0.109375 -0.125,-0.109375 -0.09375,0 -0.109375,0.03125 -0.140625,0.125 C 6.46875,-0.375 6.1875,-0.125 5.90625,-0.125 c -0.375,0 -0.375,-0.765625 -0.375,-1.484375 1.21875,-1.46875 1.515625,-2.96875 1.515625,-2.984375 0,-0.109375 -0.109375,-0.109375 -0.140625,-0.109375 -0.109375,0 -0.109375,0.046875 -0.171875,0.25 -0.140625,0.53125 -0.453125,1.46875 -1.203125,2.4375 z m -0.75,1.859375 c -1.046875,0.9375 -2,1.046875 -2.421875,1.046875 -0.84375,0 -1.078125,-0.75 -1.078125,-1.3125 0,-0.515625 0.265625,-1.734375 0.625,-2.390625 0.5,-0.828125 1.171875,-1.203125 1.703125,-1.203125 1.15625,0 1.15625,1.515625 1.15625,2.515625 0,0.296875 -0.015625,0.609375 -0.015625,0.90625 0,0.25 0.015625,0.3125 0.03125,0.4375 z m 0,0"
               id="path10444" />
          </g>
        </g>
      </g>
    </g>
    <g
       inkscape:label=""
       transform="translate(170.89008,148.15997)"
       id="g15470">
      <g
         clip-path="url(#clipPath5360)"
         id="g15468"
         transform="matrix(0.352778,0,0,0.352778,-78.1035,-2.29054)">
        <g
           fill="#000000"
           fill-opacity="1"
           id="g15466">
          <g
             id="g15464"
             transform="translate(220.302,14.446)">
            <path
               d="m 3.4375,-7.65625 c 0,-0.28125 0,-0.296875 -0.234375,-0.296875 C 2.921875,-7.625 2.3125,-7.1875 1.09375,-7.1875 v 0.34375 c 0.265625,0 0.859375,0 1.53125,-0.296875 v 6.21875 c 0,0.4375 -0.046875,0.578125 -1.09375,0.578125 h -0.375 V 0 c 0.328125,-0.03125 1.484375,-0.03125 1.875,-0.03125 0.40625,0 1.546875,0 1.875,0.03125 v -0.34375 h -0.375 c -1.046875,0 -1.09375,-0.140625 -1.09375,-0.578125 z m 0,0"
               id="path15462" />
          </g>
        </g>
      </g>
    </g>
    <g
       inkscape:label=""
       transform="translate(145.86716,123.79809)"
       id="g23390">
      <g
         clip-path="url(#clipPath1335)"
         id="g23380"
         transform="matrix(0.352778,0,0,0.352778,-76.7322,-2.16892)">
        <g
           fill="#000000"
           fill-opacity="1"
           id="g23378">
          <g
             id="g23376"
             transform="translate(216.946,14.445)">
            <path
               d="m 5.140625,-8.1875 c 0,-0.109375 -0.078125,-0.109375 -0.125,-0.109375 -0.109375,0 -0.109375,0.03125 -0.15625,0.234375 L 4.203125,-5.5 c -0.03125,0.15625 -0.046875,0.171875 -0.0625,0.1875 0,0.015625 -0.09375,0.03125 -0.109375,0.03125 C 2.0625,-5.109375 0.5625,-3.5 0.5625,-2.015625 c 0,1.296875 0.984375,2.09375 2.234375,2.15625 -0.09375,0.375 -0.171875,0.75 -0.28125,1.125 -0.15625,0.640625 -0.25,1.03125 -0.25,1.078125 0,0.015625 0,0.09375 0.109375,0.09375 0.046875,0 0.09375,0 0.109375,-0.046875 0.03125,-0.03125 0.09375,-0.3125 0.140625,-0.46875 l 0.453125,-1.78125 c 2.03125,-0.109375 3.59375,-1.78125 3.59375,-3.28125 0,-1.203125 -0.90625,-2.078125 -2.234375,-2.15625 z m -0.78125,3.125 C 5.15625,-5.015625 5.9375,-4.5625 5.9375,-3.390625 5.9375,-2.046875 5,-0.25 3.125,-0.109375 Z m -1.5,4.96875 C 2.265625,-0.125 1.296875,-0.4375 1.296875,-1.75 c 0,-1.515625 1.078125,-3.1875 2.796875,-3.296875 z m 0,0"
               id="path23374" />
          </g>
        </g>
      </g>
      <g
         clip-path="url(#clipPath18539)"
         id="g23388"
         transform="matrix(0.352778,0,0,0.352778,-76.7322,-2.16892)">
        <g
           fill="#000000"
           fill-opacity="1"
           id="g23386">
          <g
             id="g23384"
             transform="translate(223.87399,16.239)">
            <path
               d="m 1.59375,-1.3125 c 0.03125,-0.109375 0.109375,-0.421875 0.125,-0.53125 0.109375,-0.4375 0.109375,-0.4375 0.296875,-0.703125 0.265625,-0.390625 0.640625,-0.75 1.171875,-0.75 0.28125,0 0.453125,0.171875 0.453125,0.546875 0,0.4375 -0.328125,1.34375 -0.484375,1.734375 -0.109375,0.265625 -0.109375,0.3125 -0.109375,0.421875 0,0.453125 0.375,0.671875 0.71875,0.671875 0.78125,0 1.109375,-1.109375 1.109375,-1.21875 C 4.875,-1.21875 4.8125,-1.25 4.75,-1.25 c -0.09375,0 -0.109375,0.0625 -0.125,0.140625 -0.1875,0.65625 -0.53125,0.96875 -0.828125,0.96875 -0.125,0 -0.1875,-0.078125 -0.1875,-0.265625 0,-0.1875 0.0625,-0.359375 0.140625,-0.5625 0.109375,-0.296875 0.46875,-1.21875 0.46875,-1.65625 0,-0.609375 -0.421875,-0.890625 -0.984375,-0.890625 -0.65625,0 -1.0625,0.390625 -1.296875,0.6875 -0.0625,-0.4375 -0.40625,-0.6875 -0.8125,-0.6875 -0.28125,0 -0.484375,0.1875 -0.609375,0.4375 -0.203125,0.375 -0.28125,0.765625 -0.28125,0.78125 0,0.078125 0.0625,0.109375 0.125,0.109375 0.109375,0 0.109375,-0.03125 0.171875,-0.25 0.09375,-0.390625 0.234375,-0.859375 0.5625,-0.859375 0.21875,0 0.265625,0.203125 0.265625,0.375 0,0.15625 -0.046875,0.296875 -0.109375,0.5625 -0.015625,0.0625 -0.140625,0.53125 -0.171875,0.640625 L 0.78125,-0.515625 c -0.03125,0.125 -0.078125,0.3125 -0.078125,0.34375 0,0.1875 0.15625,0.25 0.265625,0.25 0.140625,0 0.265625,-0.09375 0.3125,-0.1875 C 1.3125,-0.15625 1.375,-0.4375 1.40625,-0.59375 Z m 0,0"
               id="path23382" />
          </g>
        </g>
      </g>
    </g>
    <g
       inkscape:label=""
       transform="translate(141.43168,115.01583)"
       id="g28469">
      <g
         fill="#000000"
         fill-opacity="1"
         id="g28448"
         transform="matrix(0.352778,0,0,0.352778,-74.6109,-2.16892)">
        <g
           id="g28446"
           transform="translate(210.933,14.445)">
          <path
             d="m 5.140625,-8.1875 c 0,-0.109375 -0.078125,-0.109375 -0.125,-0.109375 -0.109375,0 -0.109375,0.03125 -0.15625,0.234375 L 4.203125,-5.5 c -0.03125,0.15625 -0.046875,0.171875 -0.0625,0.1875 0,0.015625 -0.09375,0.03125 -0.109375,0.03125 C 2.0625,-5.109375 0.5625,-3.5 0.5625,-2.015625 c 0,1.296875 0.984375,2.09375 2.234375,2.15625 -0.09375,0.375 -0.171875,0.75 -0.28125,1.125 -0.15625,0.640625 -0.25,1.03125 -0.25,1.078125 0,0.015625 0,0.09375 0.109375,0.09375 0.046875,0 0.09375,0 0.109375,-0.046875 0.03125,-0.03125 0.09375,-0.3125 0.140625,-0.46875 l 0.453125,-1.78125 c 2.03125,-0.109375 3.59375,-1.78125 3.59375,-3.28125 0,-1.203125 -0.90625,-2.078125 -2.234375,-2.15625 z m -0.78125,3.125 C 5.15625,-5.015625 5.9375,-4.5625 5.9375,-3.390625 5.9375,-2.046875 5,-0.25 3.125,-0.109375 Z m -1.5,4.96875 C 2.265625,-0.125 1.296875,-0.4375 1.296875,-1.75 c 0,-1.515625 1.078125,-3.1875 2.796875,-3.296875 z m 0,0"
             id="path28444" />
        </g>
      </g>
      <g
         fill="#000000"
         fill-opacity="1"
         id="g28454"
         transform="matrix(0.352778,0,0,0.352778,-74.6109,-2.16892)">
        <g
           id="g28452"
           transform="translate(217.862,16.239)">
          <path
             d="m 1.59375,-1.3125 c 0.03125,-0.109375 0.109375,-0.421875 0.125,-0.53125 0.109375,-0.4375 0.109375,-0.4375 0.296875,-0.703125 0.265625,-0.390625 0.640625,-0.75 1.171875,-0.75 0.28125,0 0.453125,0.171875 0.453125,0.546875 0,0.4375 -0.328125,1.34375 -0.484375,1.734375 -0.109375,0.265625 -0.109375,0.3125 -0.109375,0.421875 0,0.453125 0.375,0.671875 0.71875,0.671875 0.78125,0 1.109375,-1.109375 1.109375,-1.21875 C 4.875,-1.21875 4.8125,-1.25 4.75,-1.25 c -0.09375,0 -0.109375,0.0625 -0.125,0.140625 -0.1875,0.65625 -0.53125,0.96875 -0.828125,0.96875 -0.125,0 -0.1875,-0.078125 -0.1875,-0.265625 0,-0.1875 0.0625,-0.359375 0.140625,-0.5625 0.109375,-0.296875 0.46875,-1.21875 0.46875,-1.65625 0,-0.609375 -0.421875,-0.890625 -0.984375,-0.890625 -0.65625,0 -1.0625,0.390625 -1.296875,0.6875 -0.0625,-0.4375 -0.40625,-0.6875 -0.8125,-0.6875 -0.28125,0 -0.484375,0.1875 -0.609375,0.4375 -0.203125,0.375 -0.28125,0.765625 -0.28125,0.78125 0,0.078125 0.0625,0.109375 0.125,0.109375 0.109375,0 0.109375,-0.03125 0.171875,-0.25 0.09375,-0.390625 0.234375,-0.859375 0.5625,-0.859375 0.21875,0 0.265625,0.203125 0.265625,0.375 0,0.15625 -0.046875,0.296875 -0.109375,0.5625 -0.015625,0.0625 -0.140625,0.53125 -0.171875,0.640625 L 0.78125,-0.515625 c -0.03125,0.125 -0.078125,0.3125 -0.078125,0.34375 0,0.1875 0.15625,0.25 0.265625,0.25 0.140625,0 0.265625,-0.09375 0.3125,-0.1875 C 1.3125,-0.15625 1.375,-0.4375 1.40625,-0.59375 Z m 0,0"
             id="path28450" />
        </g>
      </g>
      <g
         clip-path="url(#clipPath778)"
         id="g28462"
         transform="matrix(0.352778,0,0,0.352778,-74.6109,-2.16892)">
        <g
           fill="#000000"
           fill-opacity="1"
           id="g28460">
          <g
             id="g28458"
             transform="translate(223,16.239)">
            <path
               d="M 3.46875,-1.8125 H 5.8125 c 0.109375,0 0.296875,0 0.296875,-0.171875 0,-0.1875 -0.1875,-0.1875 -0.296875,-0.1875 H 3.46875 V -4.53125 c 0,-0.109375 0,-0.28125 -0.171875,-0.28125 -0.1875,0 -0.1875,0.171875 -0.1875,0.28125 v 2.359375 H 0.75 c -0.109375,0 -0.28125,0 -0.28125,0.1875 0,0.171875 0.171875,0.171875 0.28125,0.171875 h 2.359375 v 2.359375 c 0,0.109375 0,0.28125 0.1875,0.28125 0.171875,0 0.171875,-0.171875 0.171875,-0.28125 z m 0,0"
               id="path28456" />
          </g>
        </g>
      </g>
      <g
         fill="#000000"
         fill-opacity="1"
         id="g28467"
         transform="matrix(0.352778,0,0,0.352778,-74.6109,-2.16892)">
        <g
           id="use38"
           transform="translate(229.586,16.239)">
          <path
             d="m 4.0625,-1.109375 c 0.75,-0.8125 1,-1.859375 1,-1.921875 0,-0.0625 -0.046875,-0.09375 -0.109375,-0.09375 -0.109375,0 -0.109375,0.03125 -0.15625,0.1875 C 4.5625,-2.125 4.09375,-1.5 4.0625,-1.5 4.046875,-1.5 4.046875,-1.703125 4.046875,-1.828125 4.03125,-3.234375 3.125,-3.515625 2.578125,-3.515625 c -1.125,0 -2.234375,1.09375 -2.234375,2.21875 0,0.78125 0.5625,1.375 1.40625,1.375 0.546875,0 1.140625,-0.203125 1.765625,-0.671875 0.1875,0.640625 0.640625,0.671875 0.78125,0.671875 0.453125,0 0.71875,-0.40625 0.71875,-0.5625 0,-0.09375 -0.09375,-0.09375 -0.109375,-0.09375 -0.09375,0 -0.109375,0.03125 -0.140625,0.078125 -0.125,0.34375 -0.390625,0.359375 -0.4375,0.359375 -0.109375,0 -0.234375,0 -0.265625,-0.96875 z m -0.59375,0.25 C 2.90625,-0.34375 2.234375,-0.140625 1.765625,-0.140625 1.359375,-0.140625 1,-0.375 1,-1.015625 1,-1.296875 1.125,-2.125 1.5,-2.65625 c 0.3125,-0.4375 0.75,-0.640625 1.078125,-0.640625 0.4375,0 0.6875,0.3125 0.78125,0.796875 0.125,0.546875 0.0625,1.1875 0.109375,1.640625 z m 0,0"
             id="path28464" />
        </g>
      </g>
    </g>
    <g
       inkscape:label=""
       transform="translate(141.60909,105.96745)"
       id="g33582">
      <g
         fill="#000000"
         fill-opacity="1"
         id="g33562"
         transform="matrix(0.352778,0,0,0.352778,-74.8236,-2.16892)">
        <g
           id="g33560"
           transform="translate(211.536,14.445)">
          <path
             d="m 5.140625,-8.1875 c 0,-0.109375 -0.078125,-0.109375 -0.125,-0.109375 -0.109375,0 -0.109375,0.03125 -0.15625,0.234375 L 4.203125,-5.5 c -0.03125,0.15625 -0.046875,0.171875 -0.0625,0.1875 0,0.015625 -0.09375,0.03125 -0.109375,0.03125 C 2.0625,-5.109375 0.5625,-3.5 0.5625,-2.015625 c 0,1.296875 0.984375,2.09375 2.234375,2.15625 -0.09375,0.375 -0.171875,0.75 -0.28125,1.125 -0.15625,0.640625 -0.25,1.03125 -0.25,1.078125 0,0.015625 0,0.09375 0.109375,0.09375 0.046875,0 0.09375,0 0.109375,-0.046875 0.03125,-0.03125 0.09375,-0.3125 0.140625,-0.46875 l 0.453125,-1.78125 c 2.03125,-0.109375 3.59375,-1.78125 3.59375,-3.28125 0,-1.203125 -0.90625,-2.078125 -2.234375,-2.15625 z m -0.78125,3.125 C 5.15625,-5.015625 5.9375,-4.5625 5.9375,-3.390625 5.9375,-2.046875 5,-0.25 3.125,-0.109375 Z m -1.5,4.96875 C 2.265625,-0.125 1.296875,-0.4375 1.296875,-1.75 c 0,-1.515625 1.078125,-3.1875 2.796875,-3.296875 z m 0,0"
             id="path33558" />
        </g>
      </g>
      <g
         fill="#000000"
         fill-opacity="1"
         id="g33568"
         transform="matrix(0.352778,0,0,0.352778,-74.8236,-2.16892)">
        <g
           id="g33566"
           transform="translate(218.464,16.239)">
          <path
             d="m 1.59375,-1.3125 c 0.03125,-0.109375 0.109375,-0.421875 0.125,-0.53125 0.109375,-0.4375 0.109375,-0.4375 0.296875,-0.703125 0.265625,-0.390625 0.640625,-0.75 1.171875,-0.75 0.28125,0 0.453125,0.171875 0.453125,0.546875 0,0.4375 -0.328125,1.34375 -0.484375,1.734375 -0.109375,0.265625 -0.109375,0.3125 -0.109375,0.421875 0,0.453125 0.375,0.671875 0.71875,0.671875 0.78125,0 1.109375,-1.109375 1.109375,-1.21875 C 4.875,-1.21875 4.8125,-1.25 4.75,-1.25 c -0.09375,0 -0.109375,0.0625 -0.125,0.140625 -0.1875,0.65625 -0.53125,0.96875 -0.828125,0.96875 -0.125,0 -0.1875,-0.078125 -0.1875,-0.265625 0,-0.1875 0.0625,-0.359375 0.140625,-0.5625 0.109375,-0.296875 0.46875,-1.21875 0.46875,-1.65625 0,-0.609375 -0.421875,-0.890625 -0.984375,-0.890625 -0.65625,0 -1.0625,0.390625 -1.296875,0.6875 -0.0625,-0.4375 -0.40625,-0.6875 -0.8125,-0.6875 -0.28125,0 -0.484375,0.1875 -0.609375,0.4375 -0.203125,0.375 -0.28125,0.765625 -0.28125,0.78125 0,0.078125 0.0625,0.109375 0.125,0.109375 0.109375,0 0.109375,-0.03125 0.171875,-0.25 0.09375,-0.390625 0.234375,-0.859375 0.5625,-0.859375 0.21875,0 0.265625,0.203125 0.265625,0.375 0,0.15625 -0.046875,0.296875 -0.109375,0.5625 -0.015625,0.0625 -0.140625,0.53125 -0.171875,0.640625 L 0.78125,-0.515625 c -0.03125,0.125 -0.078125,0.3125 -0.078125,0.34375 0,0.1875 0.15625,0.25 0.265625,0.25 0.140625,0 0.265625,-0.09375 0.3125,-0.1875 C 1.3125,-0.15625 1.375,-0.4375 1.40625,-0.59375 Z m 0,0"
             id="path33564" />
        </g>
      </g>
      <g
         clip-path="url(#clipPath7492)"
         id="g33580"
         transform="matrix(0.352778,0,0,0.352778,-74.8236,-2.16892)">
        <g
           fill="#000000"
           fill-opacity="1"
           id="g33578">
          <g
             id="g33572"
             transform="translate(223.60201,16.239)">
            <path
               d="M 3.46875,-1.8125 H 5.8125 c 0.109375,0 0.296875,0 0.296875,-0.171875 0,-0.1875 -0.1875,-0.1875 -0.296875,-0.1875 H 3.46875 V -4.53125 c 0,-0.109375 0,-0.28125 -0.171875,-0.28125 -0.1875,0 -0.1875,0.171875 -0.1875,0.28125 v 2.359375 H 0.75 c -0.109375,0 -0.28125,0 -0.28125,0.1875 0,0.171875 0.171875,0.171875 0.28125,0.171875 h 2.359375 v 2.359375 c 0,0.109375 0,0.28125 0.1875,0.28125 0.171875,0 0.171875,-0.171875 0.171875,-0.28125 z m 0,0"
               id="path33570" />
          </g>
          <g
             id="g33576"
             transform="translate(230.18849,16.239)">
            <path
               d="m 2.5,-5.078125 c 0,-0.21875 -0.015625,-0.21875 -0.234375,-0.21875 -0.328125,0.3125 -0.75,0.5 -1.5,0.5 v 0.265625 c 0.21875,0 0.640625,0 1.109375,-0.203125 v 4.078125 c 0,0.296875 -0.03125,0.390625 -0.78125,0.390625 H 0.8125 V 0 c 0.328125,-0.03125 1.015625,-0.03125 1.375,-0.03125 0.359375,0 1.046875,0 1.375,0.03125 V -0.265625 H 3.28125 c -0.75,0 -0.78125,-0.09375 -0.78125,-0.390625 z m 0,0"
               id="path33574" />
          </g>
        </g>
      </g>
    </g>
    <g
       inkscape:label=""
       transform="translate(155.00426,141.62874)"
       id="g41204">
      <g
         fill="#000000"
         fill-opacity="1"
         id="g41194"
         transform="matrix(0.352778,0,0,0.352778,-77.104,-2.46142)">
        <g
           id="g41192"
           transform="translate(218.297,14.446)">
          <path
             d="M 2.40625,-4.8125 H 3.5 c 0.234375,0 0.34375,0 0.34375,-0.203125 0,-0.140625 -0.0625,-0.140625 -0.3125,-0.140625 H 2.484375 l 0.4375,-1.734375 C 2.96875,-7.0625 2.96875,-7.09375 2.96875,-7.171875 c 0,-0.1875 -0.140625,-0.296875 -0.296875,-0.296875 -0.109375,0 -0.375,0.03125 -0.46875,0.421875 l -0.46875,1.890625 h -1.125 c -0.234375,0 -0.34375,0 -0.34375,0.234375 0,0.109375 0.078125,0.109375 0.3125,0.109375 h 1.0625 L 0.84375,-1.65625 c -0.09375,0.421875 -0.125,0.546875 -0.125,0.703125 0,0.5625 0.390625,1.078125 1.0625,1.078125 1.203125,0 1.859375,-1.75 1.859375,-1.828125 0,-0.078125 -0.0625,-0.109375 -0.125,-0.109375 -0.03125,0 -0.078125,0 -0.09375,0.046875 C 3.40625,-1.75 3.390625,-1.75 3.3125,-1.546875 c -0.25,0.59375 -0.796875,1.421875 -1.5,1.421875 -0.359375,0 -0.375,-0.296875 -0.375,-0.5625 0,0 0,-0.234375 0.03125,-0.375 z m 0,0"
             id="path41190" />
        </g>
      </g>
      <g
         clip-path="url(#clipPath6753)"
         id="g41202"
         transform="matrix(0.352778,0,0,0.352778,-77.104,-2.46142)">
        <g
           fill="#000000"
           fill-opacity="1"
           id="g41200">
          <g
             id="g41198"
             transform="translate(222.524,16.239)">
            <path
               d="m 1.59375,-1.3125 c 0.03125,-0.109375 0.109375,-0.421875 0.125,-0.53125 0.109375,-0.4375 0.109375,-0.4375 0.296875,-0.703125 0.265625,-0.390625 0.640625,-0.75 1.171875,-0.75 0.28125,0 0.453125,0.171875 0.453125,0.546875 0,0.4375 -0.328125,1.34375 -0.484375,1.734375 -0.109375,0.265625 -0.109375,0.3125 -0.109375,0.421875 0,0.453125 0.375,0.671875 0.71875,0.671875 0.78125,0 1.109375,-1.109375 1.109375,-1.21875 C 4.875,-1.21875 4.8125,-1.25 4.75,-1.25 c -0.09375,0 -0.109375,0.0625 -0.125,0.140625 -0.1875,0.65625 -0.53125,0.96875 -0.828125,0.96875 -0.125,0 -0.1875,-0.078125 -0.1875,-0.265625 0,-0.1875 0.0625,-0.359375 0.140625,-0.5625 0.109375,-0.296875 0.46875,-1.21875 0.46875,-1.65625 0,-0.609375 -0.421875,-0.890625 -0.984375,-0.890625 -0.65625,0 -1.0625,0.390625 -1.296875,0.6875 -0.0625,-0.4375 -0.40625,-0.6875 -0.8125,-0.6875 -0.28125,0 -0.484375,0.1875 -0.609375,0.4375 -0.203125,0.375 -0.28125,0.765625 -0.28125,0.78125 0,0.078125 0.0625,0.109375 0.125,0.109375 0.109375,0 0.109375,-0.03125 0.171875,-0.25 0.09375,-0.390625 0.234375,-0.859375 0.5625,-0.859375 0.21875,0 0.265625,0.203125 0.265625,0.375 0,0.15625 -0.046875,0.296875 -0.109375,0.5625 -0.015625,0.0625 -0.140625,0.53125 -0.171875,0.640625 L 0.78125,-0.515625 c -0.03125,0.125 -0.078125,0.3125 -0.078125,0.34375 0,0.1875 0.15625,0.25 0.265625,0.25 0.140625,0 0.265625,-0.09375 0.3125,-0.1875 C 1.3125,-0.15625 1.375,-0.4375 1.40625,-0.59375 Z m 0,0"
               id="path41196" />
          </g>
        </g>
      </g>
    </g>
    <g
       inkscape:label=""
       transform="translate(167.42361,142.16099)"
       id="g46363">
      <g
         fill="#000000"
         fill-opacity="1"
         id="g46341"
         transform="matrix(0.352778,0,0,0.352778,-74.9828,-2.46107)">
        <g
           id="g46339"
           transform="translate(212.284,14.445)">
          <path
             d="M 2.40625,-4.8125 H 3.5 c 0.234375,0 0.34375,0 0.34375,-0.203125 0,-0.140625 -0.0625,-0.140625 -0.3125,-0.140625 H 2.484375 l 0.4375,-1.734375 C 2.96875,-7.0625 2.96875,-7.09375 2.96875,-7.171875 c 0,-0.1875 -0.140625,-0.296875 -0.296875,-0.296875 -0.109375,0 -0.375,0.03125 -0.46875,0.421875 l -0.46875,1.890625 h -1.125 c -0.234375,0 -0.34375,0 -0.34375,0.234375 0,0.109375 0.078125,0.109375 0.3125,0.109375 h 1.0625 L 0.84375,-1.65625 c -0.09375,0.421875 -0.125,0.546875 -0.125,0.703125 0,0.5625 0.390625,1.078125 1.0625,1.078125 1.203125,0 1.859375,-1.75 1.859375,-1.828125 0,-0.078125 -0.0625,-0.109375 -0.125,-0.109375 -0.03125,0 -0.078125,0 -0.09375,0.046875 C 3.40625,-1.75 3.390625,-1.75 3.3125,-1.546875 c -0.25,0.59375 -0.796875,1.421875 -1.5,1.421875 -0.359375,0 -0.375,-0.296875 -0.375,-0.5625 0,0 0,-0.234375 0.03125,-0.375 z m 0,0"
             id="path46337" />
        </g>
      </g>
      <g
         fill="#000000"
         fill-opacity="1"
         id="g46347"
         transform="matrix(0.352778,0,0,0.352778,-74.9828,-2.46107)">
        <g
           id="g46345"
           transform="translate(216.511,16.239)">
          <path
             d="m 1.59375,-1.3125 c 0.03125,-0.109375 0.109375,-0.421875 0.125,-0.53125 0.109375,-0.4375 0.109375,-0.4375 0.296875,-0.703125 0.265625,-0.390625 0.640625,-0.75 1.171875,-0.75 0.28125,0 0.453125,0.171875 0.453125,0.546875 0,0.4375 -0.328125,1.34375 -0.484375,1.734375 -0.109375,0.265625 -0.109375,0.3125 -0.109375,0.421875 0,0.453125 0.375,0.671875 0.71875,0.671875 0.78125,0 1.109375,-1.109375 1.109375,-1.21875 C 4.875,-1.21875 4.8125,-1.25 4.75,-1.25 c -0.09375,0 -0.109375,0.0625 -0.125,0.140625 -0.1875,0.65625 -0.53125,0.96875 -0.828125,0.96875 -0.125,0 -0.1875,-0.078125 -0.1875,-0.265625 0,-0.1875 0.0625,-0.359375 0.140625,-0.5625 0.109375,-0.296875 0.46875,-1.21875 0.46875,-1.65625 0,-0.609375 -0.421875,-0.890625 -0.984375,-0.890625 -0.65625,0 -1.0625,0.390625 -1.296875,0.6875 -0.0625,-0.4375 -0.40625,-0.6875 -0.8125,-0.6875 -0.28125,0 -0.484375,0.1875 -0.609375,0.4375 -0.203125,0.375 -0.28125,0.765625 -0.28125,0.78125 0,0.078125 0.0625,0.109375 0.125,0.109375 0.109375,0 0.109375,-0.03125 0.171875,-0.25 0.09375,-0.390625 0.234375,-0.859375 0.5625,-0.859375 0.21875,0 0.265625,0.203125 0.265625,0.375 0,0.15625 -0.046875,0.296875 -0.109375,0.5625 -0.015625,0.0625 -0.140625,0.53125 -0.171875,0.640625 L 0.78125,-0.515625 c -0.03125,0.125 -0.078125,0.3125 -0.078125,0.34375 0,0.1875 0.15625,0.25 0.265625,0.25 0.140625,0 0.265625,-0.09375 0.3125,-0.1875 C 1.3125,-0.15625 1.375,-0.4375 1.40625,-0.59375 Z m 0,0"
             id="path46343" />
        </g>
      </g>
      <g
         clip-path="url(#clipPath2550)"
         id="g46355"
         transform="matrix(0.352778,0,0,0.352778,-74.9828,-2.46107)">
        <g
           fill="#000000"
           fill-opacity="1"
           id="g46353">
          <g
             id="g46351"
             transform="translate(221.649,16.239)">
            <path
               d="M 3.46875,-1.8125 H 5.8125 c 0.109375,0 0.296875,0 0.296875,-0.171875 0,-0.1875 -0.1875,-0.1875 -0.296875,-0.1875 H 3.46875 V -4.53125 c 0,-0.109375 0,-0.28125 -0.171875,-0.28125 -0.1875,0 -0.1875,0.171875 -0.1875,0.28125 v 2.359375 H 0.75 c -0.109375,0 -0.28125,0 -0.28125,0.1875 0,0.171875 0.171875,0.171875 0.28125,0.171875 h 2.359375 v 2.359375 c 0,0.109375 0,0.28125 0.1875,0.28125 0.171875,0 0.171875,-0.171875 0.171875,-0.28125 z m 0,0"
               id="path46349" />
          </g>
        </g>
      </g>
      <g
         fill="#000000"
         fill-opacity="1"
         id="g46361"
         transform="matrix(0.352778,0,0,0.352778,-74.9828,-2.46107)">
        <g
           id="g46359"
           transform="translate(228.23599,16.239)">
          <path
             d="m 4.0625,-1.109375 c 0.75,-0.8125 1,-1.859375 1,-1.921875 0,-0.0625 -0.046875,-0.09375 -0.109375,-0.09375 -0.109375,0 -0.109375,0.03125 -0.15625,0.1875 C 4.5625,-2.125 4.09375,-1.5 4.0625,-1.5 4.046875,-1.5 4.046875,-1.703125 4.046875,-1.828125 4.03125,-3.234375 3.125,-3.515625 2.578125,-3.515625 c -1.125,0 -2.234375,1.09375 -2.234375,2.21875 0,0.78125 0.5625,1.375 1.40625,1.375 0.546875,0 1.140625,-0.203125 1.765625,-0.671875 0.1875,0.640625 0.640625,0.671875 0.78125,0.671875 0.453125,0 0.71875,-0.40625 0.71875,-0.5625 0,-0.09375 -0.09375,-0.09375 -0.109375,-0.09375 -0.09375,0 -0.109375,0.03125 -0.140625,0.078125 -0.125,0.34375 -0.390625,0.359375 -0.4375,0.359375 -0.109375,0 -0.234375,0 -0.265625,-0.96875 z m -0.59375,0.25 C 2.90625,-0.34375 2.234375,-0.140625 1.765625,-0.140625 1.359375,-0.140625 1,-0.375 1,-1.015625 1,-1.296875 1.125,-2.125 1.5,-2.65625 c 0.3125,-0.4375 0.75,-0.640625 1.078125,-0.640625 0.4375,0 0.6875,0.3125 0.78125,0.796875 0.125,0.546875 0.0625,1.1875 0.109375,1.640625 z m 0,0"
             id="path46357" />
        </g>
      </g>
    </g>
    <g
       inkscape:label=""
       transform="translate(186.31877,141.80616)"
       id="g51558">
      <g
         fill="#000000"
         fill-opacity="1"
         id="g51538"
         transform="matrix(0.352778,0,0,0.352778,-75.1952,-2.46107)">
        <g
           id="g51536"
           transform="translate(212.886,14.445)">
          <path
             d="M 2.40625,-4.8125 H 3.5 c 0.234375,0 0.34375,0 0.34375,-0.203125 0,-0.140625 -0.0625,-0.140625 -0.3125,-0.140625 H 2.484375 l 0.4375,-1.734375 C 2.96875,-7.0625 2.96875,-7.09375 2.96875,-7.171875 c 0,-0.1875 -0.140625,-0.296875 -0.296875,-0.296875 -0.109375,0 -0.375,0.03125 -0.46875,0.421875 l -0.46875,1.890625 h -1.125 c -0.234375,0 -0.34375,0 -0.34375,0.234375 0,0.109375 0.078125,0.109375 0.3125,0.109375 h 1.0625 L 0.84375,-1.65625 c -0.09375,0.421875 -0.125,0.546875 -0.125,0.703125 0,0.5625 0.390625,1.078125 1.0625,1.078125 1.203125,0 1.859375,-1.75 1.859375,-1.828125 0,-0.078125 -0.0625,-0.109375 -0.125,-0.109375 -0.03125,0 -0.078125,0 -0.09375,0.046875 C 3.40625,-1.75 3.390625,-1.75 3.3125,-1.546875 c -0.25,0.59375 -0.796875,1.421875 -1.5,1.421875 -0.359375,0 -0.375,-0.296875 -0.375,-0.5625 0,0 0,-0.234375 0.03125,-0.375 z m 0,0"
             id="path51534" />
        </g>
      </g>
      <g
         fill="#000000"
         fill-opacity="1"
         id="g51544"
         transform="matrix(0.352778,0,0,0.352778,-75.1952,-2.46107)">
        <g
           id="g51542"
           transform="translate(217.11301,16.239)">
          <path
             d="m 1.59375,-1.3125 c 0.03125,-0.109375 0.109375,-0.421875 0.125,-0.53125 0.109375,-0.4375 0.109375,-0.4375 0.296875,-0.703125 0.265625,-0.390625 0.640625,-0.75 1.171875,-0.75 0.28125,0 0.453125,0.171875 0.453125,0.546875 0,0.4375 -0.328125,1.34375 -0.484375,1.734375 -0.109375,0.265625 -0.109375,0.3125 -0.109375,0.421875 0,0.453125 0.375,0.671875 0.71875,0.671875 0.78125,0 1.109375,-1.109375 1.109375,-1.21875 C 4.875,-1.21875 4.8125,-1.25 4.75,-1.25 c -0.09375,0 -0.109375,0.0625 -0.125,0.140625 -0.1875,0.65625 -0.53125,0.96875 -0.828125,0.96875 -0.125,0 -0.1875,-0.078125 -0.1875,-0.265625 0,-0.1875 0.0625,-0.359375 0.140625,-0.5625 0.109375,-0.296875 0.46875,-1.21875 0.46875,-1.65625 0,-0.609375 -0.421875,-0.890625 -0.984375,-0.890625 -0.65625,0 -1.0625,0.390625 -1.296875,0.6875 -0.0625,-0.4375 -0.40625,-0.6875 -0.8125,-0.6875 -0.28125,0 -0.484375,0.1875 -0.609375,0.4375 -0.203125,0.375 -0.28125,0.765625 -0.28125,0.78125 0,0.078125 0.0625,0.109375 0.125,0.109375 0.109375,0 0.109375,-0.03125 0.171875,-0.25 0.09375,-0.390625 0.234375,-0.859375 0.5625,-0.859375 0.21875,0 0.265625,0.203125 0.265625,0.375 0,0.15625 -0.046875,0.296875 -0.109375,0.5625 -0.015625,0.0625 -0.140625,0.53125 -0.171875,0.640625 L 0.78125,-0.515625 c -0.03125,0.125 -0.078125,0.3125 -0.078125,0.34375 0,0.1875 0.15625,0.25 0.265625,0.25 0.140625,0 0.265625,-0.09375 0.3125,-0.1875 C 1.3125,-0.15625 1.375,-0.4375 1.40625,-0.59375 Z m 0,0"
             id="path51540" />
        </g>
      </g>
      <g
         clip-path="url(#clipPath9871)"
         id="g51556"
         transform="matrix(0.352778,0,0,0.352778,-75.1952,-2.46107)">
        <g
           fill="#000000"
           fill-opacity="1"
           id="g51554">
          <g
             id="g51548"
             transform="translate(222.252,16.239)">
            <path
               d="M 3.46875,-1.8125 H 5.8125 c 0.109375,0 0.296875,0 0.296875,-0.171875 0,-0.1875 -0.1875,-0.1875 -0.296875,-0.1875 H 3.46875 V -4.53125 c 0,-0.109375 0,-0.28125 -0.171875,-0.28125 -0.1875,0 -0.1875,0.171875 -0.1875,0.28125 v 2.359375 H 0.75 c -0.109375,0 -0.28125,0 -0.28125,0.1875 0,0.171875 0.171875,0.171875 0.28125,0.171875 h 2.359375 v 2.359375 c 0,0.109375 0,0.28125 0.1875,0.28125 0.171875,0 0.171875,-0.171875 0.171875,-0.28125 z m 0,0"
               id="path51546" />
          </g>
          <g
             id="g51552"
             transform="translate(228.83849,16.239)">
            <path
               d="m 2.5,-5.078125 c 0,-0.21875 -0.015625,-0.21875 -0.234375,-0.21875 -0.328125,0.3125 -0.75,0.5 -1.5,0.5 v 0.265625 c 0.21875,0 0.640625,0 1.109375,-0.203125 v 4.078125 c 0,0.296875 -0.03125,0.390625 -0.78125,0.390625 H 0.8125 V 0 c 0.328125,-0.03125 1.015625,-0.03125 1.375,-0.03125 0.359375,0 1.046875,0 1.375,0.03125 V -0.265625 H 3.28125 c -0.75,0 -0.78125,-0.09375 -0.78125,-0.390625 z m 0,0"
               id="path51550" />
          </g>
        </g>
      </g>
    </g>
  </g>
</svg>
