<?xml version="1.0" encoding="UTF-8" standalone="no"?>
<!-- Created with Inkscape (http://www.inkscape.org/) -->

<svg
   width="109.56774mm"
   height="70.655205mm"
   viewBox="0 0 109.56774 70.655205"
   version="1.1"
   id="svg1"
   inkscape:version="1.3.2 (091e20e, 2023-11-25, custom)"
   sodipodi:docname="CorpoLivreSolido.svg"
   xmlns:inkscape="http://www.inkscape.org/namespaces/inkscape"
   xmlns:sodipodi="http://sodipodi.sourceforge.net/DTD/sodipodi-0.dtd"
   xmlns:xlink="http://www.w3.org/1999/xlink"
   xmlns="http://www.w3.org/2000/svg"
   xmlns:svg="http://www.w3.org/2000/svg">
  <sodipodi:namedview
     id="namedview1"
     pagecolor="#ffffff"
     bordercolor="#000000"
     borderopacity="0.25"
     inkscape:showpageshadow="2"
     inkscape:pageopacity="0.0"
     inkscape:pagecheckerboard="0"
     inkscape:deskcolor="#d1d1d1"
     inkscape:document-units="mm"
     showgrid="false"
     inkscape:zoom="2.1266375"
     inkscape:cx="147.65093"
     inkscape:cy="111.67865"
     inkscape:window-width="1920"
     inkscape:window-height="1017"
     inkscape:window-x="1912"
     inkscape:window-y="-8"
     inkscape:window-maximized="1"
     inkscape:current-layer="layer1">
    <inkscape:grid
       id="grid1"
       units="mm"
       originx="-43.527252"
       originy="-98.655228"
       spacingx="0.99999998"
       spacingy="1"
       empcolor="#0099e5"
       empopacity="0.30196078"
       color="#0099e5"
       opacity="0.14901961"
       empspacing="5"
       dotted="false"
       gridanglex="30"
       gridanglez="30"
       visible="false"
       enabled="false" />
    <inkscape:grid
       type="axonomgrid"
       id="grid2"
       units="mm"
       originx="-43.527252"
       originy="-98.655228"
       spacingx="0"
       spacingy="5"
       empcolor="#0099e5"
       empopacity="0.30196078"
       color="#0099e5"
       opacity="0.14901961"
       empspacing="5"
       dotted="false"
       gridanglex="30"
       gridanglez="30"
       visible="false" />
  </sodipodi:namedview>
  <defs
     id="defs1">
    <marker
       style="overflow:visible"
       id="Triangle"
       refX="3"
       refY="0"
       orient="auto-start-reverse"
       inkscape:stockid="Triangle arrow"
       markerWidth="3"
       markerHeight="1.5"
       viewBox="0 0 1 1"
       inkscape:isstock="true"
       inkscape:collect="always"
       preserveAspectRatio="none">
      <path
         transform="scale(0.5)"
         style="fill:context-stroke;fill-rule:evenodd;stroke:context-stroke;stroke-width:1pt"
         d="M 5.77,0 -2.88,5 V -5 Z"
         id="path135" />
    </marker>
    <radialGradient
       inkscape:collect="always"
       xlink:href="#linearGradient4704"
       id="radialGradient4706"
       cx="110.16003"
       cy="160.729"
       fx="110.16003"
       fy="160.729"
       r="30.44318"
       gradientTransform="matrix(1,0,0,0.90833994,-19.077368,-8.4965796)"
       gradientUnits="userSpaceOnUse" />
    <linearGradient
       inkscape:collect="always"
       id="linearGradient4704">
      <stop
         style="stop-color:#000000;stop-opacity:0;"
         offset="0"
         id="stop4702" />
      <stop
         style="stop-color:#000000;stop-opacity:0.2;"
         offset="1"
         id="stop4700" />
    </linearGradient>
    <clipPath
       id="clipPath7858">
      <path
         clip-rule="nonzero"
         d="m 231,11 h 9 v 11.476563 h -9 z m 0,0"
         id="path7913" />
    </clipPath>
    <clipPath
       id="clipPath9719">
      <path
         clip-rule="nonzero"
         d="m 231,11 h 9 v 11.476563 h -9 z m 0,0"
         id="path6004" />
    </clipPath>
    <clipPath
       id="clipPath2197">
      <path
         clip-rule="nonzero"
         d="m 231,11 h 9 v 11.476563 h -9 z m 0,0"
         id="path7489" />
    </clipPath>
    <clipPath
       id="clipPath4536">
      <path
         clip-rule="nonzero"
         d="m 252,24 h 8 v 10.09375 h -8 z m 0,0"
         id="path88135" />
    </clipPath>
    <clipPath
       id="clipPath4939">
      <path
         clip-rule="nonzero"
         d="m 252,24 h 8 v 10.09375 h -8 z m 0,0"
         id="path2833" />
    </clipPath>
    <clipPath
       id="clipPath5204">
      <path
         clip-rule="nonzero"
         d="m 252,24 h 8 v 10.09375 h -8 z m 0,0"
         id="path16714" />
    </clipPath>
    <clipPath
       id="clipPath1768">
      <path
         clip-rule="nonzero"
         d="m 235,6 h 15 v 13.527344 h -15 z m 0,0"
         id="path3992" />
    </clipPath>
    <clipPath
       id="clipPath9815">
      <path
         clip-rule="nonzero"
         d="m 249,12 h 6 v 7.527344 h -6 z m 0,0"
         id="path297" />
    </clipPath>
    <clipPath
       id="clipPath2677">
      <path
         clip-rule="nonzero"
         d="m 235,6 h 15 v 13.527344 h -15 z m 0,0"
         id="path4310" />
    </clipPath>
    <clipPath
       id="clipPath2973">
      <path
         clip-rule="nonzero"
         d="m 235,6 h 15 v 13.527344 h -15 z m 0,0"
         id="path9683" />
    </clipPath>
    <clipPath
       id="clipPath6656">
      <path
         clip-rule="nonzero"
         d="m 231,11 h 16 v 9.722656 h -16 z m 0,0"
         id="path4247" />
    </clipPath>
    <clipPath
       id="clipPath2508">
      <path
         clip-rule="nonzero"
         d="m 246,12 h 6 v 8.722656 h -6 z m 0,0"
         id="path8419" />
    </clipPath>
    <clipPath
       id="clipPath9817">
      <path
         clip-rule="nonzero"
         d="m 231,11 h 16 v 9.722656 h -16 z m 0,0"
         id="path6192" />
    </clipPath>
    <clipPath
       id="clipPath3377">
      <path
         clip-rule="nonzero"
         d="m 247,12 h 5 v 8.722656 h -5 z m 0,0"
         id="path8383" />
    </clipPath>
    <clipPath
       id="clipPath6249">
      <path
         clip-rule="nonzero"
         d="m 231,11 h 16 v 9.722656 h -16 z m 0,0"
         id="path1133" />
    </clipPath>
    <clipPath
       id="clipPath7512">
      <path
         clip-rule="nonzero"
         d="m 247,12 h 5 v 8.722656 h -5 z m 0,0"
         id="path1080" />
    </clipPath>
  </defs>
  <g
     inkscape:label="Camada 1"
     inkscape:groupmode="layer"
     id="layer1"
     transform="translate(-43.527252,-98.655234)">
    <path
       style="fill:url(#radialGradient4706);fill-opacity:1;stroke:#000000;stroke-width:0.264583"
       d="m 90.932672,157.5 -34.641019,-20 v -20 l 25.980759,-15 34.641018,20 v 20 z"
       id="path4698" />
    <path
       style="fill:none;stroke:#000000;stroke-width:0.3;stroke-dasharray:none;stroke-dashoffset:0;stroke-opacity:1"
       d="m 56.291653,117.5 34.641009,20 25.980768,-15 -34.641018,-20 -25.980759,15 v 20 l 34.641019,20 25.980758,-15 v -20"
       id="path12766" />
    <path
       style="fill:none;stroke:#000000;stroke-width:0.3;stroke-dasharray:none;stroke-dashoffset:0;stroke-opacity:1"
       d="m 90.932662,157.5 v -20"
       id="path12768" />
    <path
       style="fill:none;stroke:#000000;stroke-width:0.3;stroke-dasharray:1.79999, 0.3;stroke-dashoffset:0;stroke-opacity:1"
       d="m 56.291653,137.5 25.980759,-15 34.641018,20"
       id="path12770" />
    <path
       style="fill:none;stroke:#000000;stroke-width:0.3;stroke-dasharray:1.79999, 0.3;stroke-dashoffset:0;stroke-opacity:1"
       d="m 82.272412,122.5 v -20"
       id="path12772" />
    <path
       style="fill:none;stroke:#000000;stroke-width:0.3;stroke-dasharray:none;stroke-dashoffset:0;stroke-opacity:1;marker-end:url(#Triangle)"
       d="M 56.29165,117.5 V 102.49999"
       id="path13026" />
    <path
       style="fill:none;stroke:#000000;stroke-width:0.3;stroke-dasharray:none;stroke-dashoffset:0;stroke-opacity:1;marker-end:url(#Triangle)"
       d="m 90.932665,157.5 17.320495,10"
       id="path13028" />
    <g
       inkscape:label=""
       transform="translate(109.62233,165.45058)"
       id="g2803"
       style="stroke-width:0.3;stroke-dasharray:none">
      <g
         clip-path="url(#clipPath2197)"
         id="g21"
         transform="matrix(0.352778,0,0,0.352778,-81.6655,-4.06938)"
         style="stroke-width:0.850393;stroke-dasharray:none">
        <g
           fill="#000000"
           fill-opacity="1"
           id="g19"
           style="stroke-width:0.850393;stroke-dasharray:none">
          <g
             id="use17"
             transform="translate(231.024,19.129)"
             style="stroke-width:0.850393;stroke-dasharray:none">
            <path
               d="m 4.53125,1.921875 c -0.46875,0.65625 -1.140625,1.25 -1.984375,1.25 -0.203125,0 -1.03125,-0.03125 -1.296875,-0.828125 0.0625,0.015625 0.140625,0.015625 0.171875,0.015625 0.53125,0 0.875,-0.453125 0.875,-0.84375 0,-0.390625 -0.328125,-0.53125 -0.59375,-0.53125 -0.28125,0 -0.875,0.203125 -0.875,1.046875 0,0.875 0.734375,1.484375 1.71875,1.484375 1.71875,0 3.46875,-1.59375 3.9375,-3.5 l 1.6875,-6.71875 c 0.03125,-0.078125 0.0625,-0.1875 0.0625,-0.28125 0,-0.265625 -0.203125,-0.4375 -0.46875,-0.4375 -0.15625,0 -0.515625,0.0625 -0.65625,0.59375 L 5.84375,-1.78125 C 5.75,-1.46875 5.75,-1.421875 5.609375,-1.234375 5.265625,-0.75 4.703125,-0.171875 3.875,-0.171875 c -0.96875,0 -1.046875,-0.953125 -1.046875,-1.40625 0,-0.984375 0.453125,-2.3125 0.921875,-3.546875 0.1875,-0.5 0.296875,-0.75 0.296875,-1.09375 0,-0.71875 -0.515625,-1.375 -1.359375,-1.375 -1.578125,0 -2.21875,2.5 -2.21875,2.640625 0,0.0625 0.0625,0.15625 0.1875,0.15625 0.15625,0 0.171875,-0.078125 0.234375,-0.3125 C 1.3125,-6.5625 1.96875,-7.25 2.640625,-7.25 c 0.15625,0 0.4375,0 0.4375,0.5625 0,0.453125 -0.1875,0.953125 -0.4375,1.609375 -0.84375,2.25 -0.84375,2.828125 -0.84375,3.234375 0,1.640625 1.171875,2.015625 2.03125,2.015625 0.5,0 1.109375,-0.15625 1.71875,-0.796875 L 5.5625,-0.609375 C 5.296875,0.40625 5.125,1.078125 4.53125,1.921875 Z m 0,0"
               id="path31"
               style="stroke-width:0.850393;stroke-dasharray:none" />
          </g>
        </g>
      </g>
      <g
         fill="#000000"
         fill-opacity="1"
         id="g25"
         transform="matrix(0.352778,0,0,0.352778,-81.6655,-4.06938)"
         style="stroke-width:0.850393;stroke-dasharray:none">
        <g
           id="g2800"
           transform="translate(239.243,21.711)"
           style="stroke-width:0.850393;stroke-dasharray:none">
          <path
             d="m 3.203125,-6.984375 c 0,-0.25 0,-0.28125 -0.25,-0.28125 C 2.28125,-6.5625 1.3125,-6.5625 0.96875,-6.5625 v 0.328125 c 0.21875,0 0.859375,0 1.4375,-0.28125 v 5.65625 c 0,0.390625 -0.046875,0.515625 -1.015625,0.515625 H 1.03125 V 0 c 0.390625,-0.03125 1.328125,-0.03125 1.765625,-0.03125 0.4375,0 1.390625,0 1.765625,0.03125 V -0.34375 H 4.21875 c -0.984375,0 -1.015625,-0.109375 -1.015625,-0.515625 z m 0,0"
             id="path35"
             style="stroke-width:0.850393;stroke-dasharray:none" />
        </g>
      </g>
    </g>
    <g
       inkscape:label=""
       transform="translate(110.4326,104.24564)"
       id="g3485">
      <g
         clip-path="url(#clipPath9719)"
         id="g3477"
         transform="matrix(0.352778,0,0,0.352778,-81.6655,-4.06938)">
        <g
           fill="#000000"
           fill-opacity="1"
           id="g3475">
          <g
             id="g3473"
             transform="translate(231.024,19.129)">
            <path
               d="m 4.53125,1.921875 c -0.46875,0.65625 -1.140625,1.25 -1.984375,1.25 -0.203125,0 -1.03125,-0.03125 -1.296875,-0.828125 0.0625,0.015625 0.140625,0.015625 0.171875,0.015625 0.53125,0 0.875,-0.453125 0.875,-0.84375 0,-0.390625 -0.328125,-0.53125 -0.59375,-0.53125 -0.28125,0 -0.875,0.203125 -0.875,1.046875 0,0.875 0.734375,1.484375 1.71875,1.484375 1.71875,0 3.46875,-1.59375 3.9375,-3.5 l 1.6875,-6.71875 c 0.03125,-0.078125 0.0625,-0.1875 0.0625,-0.28125 0,-0.265625 -0.203125,-0.4375 -0.46875,-0.4375 -0.15625,0 -0.515625,0.0625 -0.65625,0.59375 L 5.84375,-1.78125 C 5.75,-1.46875 5.75,-1.421875 5.609375,-1.234375 5.265625,-0.75 4.703125,-0.171875 3.875,-0.171875 c -0.96875,0 -1.046875,-0.953125 -1.046875,-1.40625 0,-0.984375 0.453125,-2.3125 0.921875,-3.546875 0.1875,-0.5 0.296875,-0.75 0.296875,-1.09375 0,-0.71875 -0.515625,-1.375 -1.359375,-1.375 -1.578125,0 -2.21875,2.5 -2.21875,2.640625 0,0.0625 0.0625,0.15625 0.1875,0.15625 0.15625,0 0.171875,-0.078125 0.234375,-0.3125 C 1.3125,-6.5625 1.96875,-7.25 2.640625,-7.25 c 0.15625,0 0.4375,0 0.4375,0.5625 0,0.453125 -0.1875,0.953125 -0.4375,1.609375 -0.84375,2.25 -0.84375,2.828125 -0.84375,3.234375 0,1.640625 1.171875,2.015625 2.03125,2.015625 0.5,0 1.109375,-0.15625 1.71875,-0.796875 L 5.5625,-0.609375 C 5.296875,0.40625 5.125,1.078125 4.53125,1.921875 Z m 0,0"
               id="path3471" />
          </g>
        </g>
      </g>
      <g
         fill="#000000"
         fill-opacity="1"
         id="g3483"
         transform="matrix(0.352778,0,0,0.352778,-81.6655,-4.06938)">
        <g
           id="g3481"
           transform="translate(239.243,21.711)">
          <path
             d="m 1.390625,-0.84375 1.15625,-1.125 c 1.703125,-1.5 2.34375,-2.09375 2.34375,-3.171875 0,-1.25 -0.96875,-2.125 -2.3125,-2.125 -1.21875,0 -2.03125,1 -2.03125,1.96875 0,0.625 0.546875,0.625 0.578125,0.625 0.1875,0 0.5625,-0.140625 0.5625,-0.578125 0,-0.296875 -0.1875,-0.578125 -0.578125,-0.578125 -0.078125,0 -0.109375,0 -0.140625,0.015625 0.25,-0.703125 0.84375,-1.109375 1.46875,-1.109375 1,0 1.46875,0.875 1.46875,1.78125 0,0.859375 -0.546875,1.734375 -1.140625,2.40625 l -2.09375,2.328125 c -0.125,0.125 -0.125,0.140625 -0.125,0.40625 H 4.59375 L 4.890625,-1.890625 H 4.625 C 4.5625,-1.578125 4.5,-1.09375 4.390625,-0.921875 4.3125,-0.84375 3.59375,-0.84375 3.34375,-0.84375 Z m 0,0"
             id="path3479" />
        </g>
      </g>
    </g>
    <g
       inkscape:label=""
       transform="translate(59.26654,100.95644)"
       id="g4187">
      <g
         clip-path="url(#clipPath7858)"
         id="g4179"
         transform="matrix(0.352778,0,0,0.352778,-81.6655,-4.06938)">
        <g
           fill="#000000"
           fill-opacity="1"
           id="g4177">
          <g
             id="g4175"
             transform="translate(231.024,19.129)">
            <path
               d="m 4.53125,1.921875 c -0.46875,0.65625 -1.140625,1.25 -1.984375,1.25 -0.203125,0 -1.03125,-0.03125 -1.296875,-0.828125 0.0625,0.015625 0.140625,0.015625 0.171875,0.015625 0.53125,0 0.875,-0.453125 0.875,-0.84375 0,-0.390625 -0.328125,-0.53125 -0.59375,-0.53125 -0.28125,0 -0.875,0.203125 -0.875,1.046875 0,0.875 0.734375,1.484375 1.71875,1.484375 1.71875,0 3.46875,-1.59375 3.9375,-3.5 l 1.6875,-6.71875 c 0.03125,-0.078125 0.0625,-0.1875 0.0625,-0.28125 0,-0.265625 -0.203125,-0.4375 -0.46875,-0.4375 -0.15625,0 -0.515625,0.0625 -0.65625,0.59375 L 5.84375,-1.78125 C 5.75,-1.46875 5.75,-1.421875 5.609375,-1.234375 5.265625,-0.75 4.703125,-0.171875 3.875,-0.171875 c -0.96875,0 -1.046875,-0.953125 -1.046875,-1.40625 0,-0.984375 0.453125,-2.3125 0.921875,-3.546875 0.1875,-0.5 0.296875,-0.75 0.296875,-1.09375 0,-0.71875 -0.515625,-1.375 -1.359375,-1.375 -1.578125,0 -2.21875,2.5 -2.21875,2.640625 0,0.0625 0.0625,0.15625 0.1875,0.15625 0.15625,0 0.171875,-0.078125 0.234375,-0.3125 C 1.3125,-6.5625 1.96875,-7.25 2.640625,-7.25 c 0.15625,0 0.4375,0 0.4375,0.5625 0,0.453125 -0.1875,0.953125 -0.4375,1.609375 -0.84375,2.25 -0.84375,2.828125 -0.84375,3.234375 0,1.640625 1.171875,2.015625 2.03125,2.015625 0.5,0 1.109375,-0.15625 1.71875,-0.796875 L 5.5625,-0.609375 C 5.296875,0.40625 5.125,1.078125 4.53125,1.921875 Z m 0,0"
               id="path4173" />
          </g>
        </g>
      </g>
      <g
         fill="#000000"
         fill-opacity="1"
         id="g4185"
         transform="matrix(0.352778,0,0,0.352778,-81.6655,-4.06938)">
        <g
           id="g4183"
           transform="translate(239.243,21.711)">
          <path
             d="M 3.15625,-3.84375 C 4.0625,-4.140625 4.6875,-4.890625 4.6875,-5.765625 c 0,-0.890625 -0.953125,-1.5 -2,-1.5 -1.109375,0 -1.9375,0.65625 -1.9375,1.484375 0,0.359375 0.25,0.5625 0.5625,0.5625 0.328125,0 0.546875,-0.234375 0.546875,-0.546875 0,-0.546875 -0.5,-0.546875 -0.671875,-0.546875 C 1.53125,-6.84375 2.25,-6.984375 2.640625,-6.984375 3.09375,-6.984375 3.6875,-6.75 3.6875,-5.765625 3.6875,-5.640625 3.671875,-5 3.375,-4.53125 3.046875,-4 2.6875,-3.96875 2.40625,-3.953125 c -0.078125,0 -0.34375,0.03125 -0.421875,0.03125 -0.09375,0 -0.15625,0.015625 -0.15625,0.125 0,0.125 0.0625,0.125 0.25,0.125 H 2.5625 c 0.890625,0 1.296875,0.734375 1.296875,1.8125 0,1.484375 -0.75,1.796875 -1.234375,1.796875 -0.46875,0 -1.28125,-0.1875 -1.671875,-0.828125 0.390625,0.046875 0.71875,-0.1875 0.71875,-0.609375 0,-0.390625 -0.28125,-0.609375 -0.609375,-0.609375 -0.25,0 -0.609375,0.15625 -0.609375,0.640625 0,0.984375 1.015625,1.703125 2.203125,1.703125 1.328125,0 2.328125,-0.984375 2.328125,-2.09375 0,-0.90625 -0.6875,-1.75 -1.828125,-1.984375 z m 0,0"
             id="path4181" />
        </g>
      </g>
    </g>
    <path
       style="fill:none;fill-opacity:0.5;stroke:#000000;stroke-width:0.3;stroke-dasharray:none"
       d="m 56.291653,137.5 34.641019,20 -1e-5,-20 -34.641009,-20 z"
       id="path58598" />
    <path
       style="fill:#000000;fill-opacity:1;stroke:#000000;stroke-width:0.3;stroke-dasharray:1.8, 0.3;stroke-dashoffset:0;stroke-opacity:1"
       d="M 82.272409,122.49999 99.592917,112.5"
       id="path7" />
    <path
       style="fill:#000000;fill-opacity:1;stroke:#000000;stroke-width:0.3;stroke-dasharray:none;stroke-opacity:1;marker-end:url(#Triangle)"
       d="m 99.592917,112.5 8.660253,-5"
       id="path8" />
    <path
       style="fill:#000000;fill-opacity:1;stroke:#000000;stroke-width:0.3;stroke-dasharray:none;stroke-dashoffset:0;stroke-opacity:1;marker-end:url(#Triangle)"
       d="m 73.612157,112.5 25.98076,14.99999"
       id="path9" />
    <path
       style="fill:#000000;fill-opacity:1;stroke:#000000;stroke-width:0.3;stroke-dasharray:none;stroke-dashoffset:0;stroke-opacity:1;marker-end:url(#Triangle)"
       d="M 99.592917,147.49999 73.612157,132.5"
       id="path10" />
    <path
       style="fill:#000000;fill-opacity:1;stroke:#000000;stroke-width:0.3;stroke-dasharray:none;stroke-dashoffset:0;stroke-opacity:1;marker-end:url(#Triangle)"
       d="M 86.602537,144.99999 60.621777,130"
       id="path11" />
    <path
       style="fill:#000000;fill-opacity:1;stroke:#000000;stroke-width:0.3;stroke-dasharray:none;stroke-dashoffset:0;stroke-opacity:1;marker-end:url(#Triangle)"
       d="M 86.602537,115 112.5833,130"
       id="path12" />
    <path
       style="fill:#000000;fill-opacity:1;stroke:#000000;stroke-width:0.3;stroke-dasharray:none;stroke-dashoffset:0;stroke-opacity:1;marker-end:url(#Triangle)"
       d="m 103.92304,139.99999 17.32051,10"
       id="path13" />
    <path
       style="fill:#000000;fill-opacity:1;stroke:#000000;stroke-width:0.3;stroke-dasharray:none;stroke-dashoffset:0;stroke-opacity:1;marker-end:url(#Triangle)"
       d="M 69.282029,119.99999 51.961523,110"
       id="path14" />
    <path
       style="fill:#000000;fill-opacity:1;stroke:#000000;stroke-width:0.3;stroke-dasharray:none;stroke-dashoffset:0;stroke-opacity:1;marker-end:url(#Triangle)"
       d="m 73.612157,122.49999 25.98076,15"
       id="path15" />
    <g
       inkscape:label=""
       transform="translate(43.527241,107.37559)"
       id="g15">
      <g
         fill="#000000"
         fill-opacity="1"
         id="g3"
         transform="matrix(0.352778,0,0,0.352778,-81.2325,-4.83275)">
        <g
           id="use2"
           transform="translate(229.60899,21.121)">
          <path
             d="m 8.75,-6.484375 c 0.21875,0 0.796875,0 0.796875,-0.5625 0,-0.375 -0.328125,-0.375 -0.640625,-0.375 h -3.8125 c -2.578125,0 -4.4375,2.875 -4.4375,4.90625 0,1.46875 0.9375,2.6875 2.5,2.6875 2.03125,0 4.25,-2.1875 4.25,-4.765625 0,-0.671875 -0.15625,-1.328125 -0.578125,-1.890625 z m -5.578125,6.3125 c -0.875,0 -1.515625,-0.671875 -1.515625,-1.859375 0,-1.03125 0.609375,-4.453125 3.140625,-4.453125 0.75,0 1.578125,0.359375 1.578125,1.6875 C 6.375,-4.203125 6.09375,-2.75 5.5,-1.75 4.875,-0.734375 3.9375,-0.171875 3.171875,-0.171875 Z m 0,0"
             id="path4" />
        </g>
      </g>
      <g
         fill="#000000"
         fill-opacity="1"
         id="g4"
         transform="matrix(0.352778,0,0,0.352778,-81.2325,-4.83275)">
        <g
           id="use3"
           transform="translate(239.19,23.702999)">
          <path
             d="m 3.203125,-6.984375 c 0,-0.25 0,-0.28125 -0.25,-0.28125 C 2.28125,-6.5625 1.3125,-6.5625 0.96875,-6.5625 v 0.328125 c 0.21875,0 0.859375,0 1.4375,-0.28125 v 5.65625 c 0,0.390625 -0.046875,0.515625 -1.015625,0.515625 H 1.03125 V 0 c 0.390625,-0.03125 1.328125,-0.03125 1.765625,-0.03125 0.4375,0 1.390625,0 1.765625,0.03125 V -0.34375 H 4.21875 c -0.984375,0 -1.015625,-0.109375 -1.015625,-0.515625 z m 0,0"
             id="path5" />
        </g>
        <g
           id="use4"
           transform="translate(244.64455,23.702999)">
          <path
             d="m 3.203125,-6.984375 c 0,-0.25 0,-0.28125 -0.25,-0.28125 C 2.28125,-6.5625 1.3125,-6.5625 0.96875,-6.5625 v 0.328125 c 0.21875,0 0.859375,0 1.4375,-0.28125 v 5.65625 c 0,0.390625 -0.046875,0.515625 -1.015625,0.515625 H 1.03125 V 0 c 0.390625,-0.03125 1.328125,-0.03125 1.765625,-0.03125 0.4375,0 1.390625,0 1.765625,0.03125 V -0.34375 H 4.21875 c -0.984375,0 -1.015625,-0.109375 -1.015625,-0.515625 z m 0,0"
             id="path6" />
        </g>
      </g>
    </g>
    <g
       inkscape:label=""
       transform="translate(67.573253,127.99909)"
       id="g20">
      <g
         fill="#000000"
         fill-opacity="1"
         id="g17"
         transform="matrix(0.352778,0,0,0.352778,-81.2325,-4.83275)">
        <g
           id="g16"
           transform="translate(229.60899,21.121)">
          <path
             d="m 8.75,-6.484375 c 0.21875,0 0.796875,0 0.796875,-0.5625 0,-0.375 -0.328125,-0.375 -0.640625,-0.375 h -3.8125 c -2.578125,0 -4.4375,2.875 -4.4375,4.90625 0,1.46875 0.9375,2.6875 2.5,2.6875 2.03125,0 4.25,-2.1875 4.25,-4.765625 0,-0.671875 -0.15625,-1.328125 -0.578125,-1.890625 z m -5.578125,6.3125 c -0.875,0 -1.515625,-0.671875 -1.515625,-1.859375 0,-1.03125 0.609375,-4.453125 3.140625,-4.453125 0.75,0 1.578125,0.359375 1.578125,1.6875 C 6.375,-4.203125 6.09375,-2.75 5.5,-1.75 4.875,-0.734375 3.9375,-0.171875 3.171875,-0.171875 Z m 0,0"
             id="path16" />
        </g>
      </g>
      <g
         fill="#000000"
         fill-opacity="1"
         id="g5"
         transform="matrix(0.352778,0,0,0.352778,-81.2325,-4.83275)">
        <g
           id="g18"
           transform="translate(239.19,23.702999)">
          <path
             d="m 1.390625,-0.84375 1.15625,-1.125 c 1.703125,-1.5 2.34375,-2.09375 2.34375,-3.171875 0,-1.25 -0.96875,-2.125 -2.3125,-2.125 -1.21875,0 -2.03125,1 -2.03125,1.96875 0,0.625 0.546875,0.625 0.578125,0.625 0.1875,0 0.5625,-0.140625 0.5625,-0.578125 0,-0.296875 -0.1875,-0.578125 -0.578125,-0.578125 -0.078125,0 -0.109375,0 -0.140625,0.015625 0.25,-0.703125 0.84375,-1.109375 1.46875,-1.109375 1,0 1.46875,0.875 1.46875,1.78125 0,0.859375 -0.546875,1.734375 -1.140625,2.40625 l -2.09375,2.328125 c -0.125,0.125 -0.125,0.140625 -0.125,0.40625 H 4.59375 L 4.890625,-1.890625 H 4.625 C 4.5625,-1.578125 4.5,-1.09375 4.390625,-0.921875 4.3125,-0.84375 3.59375,-0.84375 3.34375,-0.84375 Z m 0,0"
             id="path17" />
        </g>
        <g
           id="use5"
           transform="translate(244.64455,23.702999)">
          <path
             d="m 3.203125,-6.984375 c 0,-0.25 0,-0.28125 -0.25,-0.28125 C 2.28125,-6.5625 1.3125,-6.5625 0.96875,-6.5625 v 0.328125 c 0.21875,0 0.859375,0 1.4375,-0.28125 v 5.65625 c 0,0.390625 -0.046875,0.515625 -1.015625,0.515625 H 1.03125 V 0 c 0.390625,-0.03125 1.328125,-0.03125 1.765625,-0.03125 0.4375,0 1.390625,0 1.765625,0.03125 V -0.34375 H 4.21875 c -0.984375,0 -1.015625,-0.109375 -1.015625,-0.515625 z m 0,0"
             id="path18" />
        </g>
      </g>
    </g>
    <g
       inkscape:label=""
       transform="translate(57.766469,124.66927)"
       id="g28">
      <g
         fill="#000000"
         fill-opacity="1"
         id="g23"
         transform="matrix(0.352778,0,0,0.352778,-81.2325,-4.83275)">
        <g
           id="g22"
           transform="translate(229.60899,21.121)">
          <path
             d="m 8.75,-6.484375 c 0.21875,0 0.796875,0 0.796875,-0.5625 0,-0.375 -0.328125,-0.375 -0.640625,-0.375 h -3.8125 c -2.578125,0 -4.4375,2.875 -4.4375,4.90625 0,1.46875 0.9375,2.6875 2.5,2.6875 2.03125,0 4.25,-2.1875 4.25,-4.765625 0,-0.671875 -0.15625,-1.328125 -0.578125,-1.890625 z m -5.578125,6.3125 c -0.875,0 -1.515625,-0.671875 -1.515625,-1.859375 0,-1.03125 0.609375,-4.453125 3.140625,-4.453125 0.75,0 1.578125,0.359375 1.578125,1.6875 C 6.375,-4.203125 6.09375,-2.75 5.5,-1.75 4.875,-0.734375 3.9375,-0.171875 3.171875,-0.171875 Z m 0,0"
             id="path20" />
        </g>
      </g>
      <g
         fill="#000000"
         fill-opacity="1"
         id="g27"
         transform="matrix(0.352778,0,0,0.352778,-81.2325,-4.83275)">
        <g
           id="g24"
           transform="translate(239.19,23.702999)">
          <path
             d="M 3.15625,-3.84375 C 4.0625,-4.140625 4.6875,-4.890625 4.6875,-5.765625 c 0,-0.890625 -0.953125,-1.5 -2,-1.5 -1.109375,0 -1.9375,0.65625 -1.9375,1.484375 0,0.359375 0.25,0.5625 0.5625,0.5625 0.328125,0 0.546875,-0.234375 0.546875,-0.546875 0,-0.546875 -0.5,-0.546875 -0.671875,-0.546875 C 1.53125,-6.84375 2.25,-6.984375 2.640625,-6.984375 3.09375,-6.984375 3.6875,-6.75 3.6875,-5.765625 3.6875,-5.640625 3.671875,-5 3.375,-4.53125 3.046875,-4 2.6875,-3.96875 2.40625,-3.953125 c -0.078125,0 -0.34375,0.03125 -0.421875,0.03125 -0.09375,0 -0.15625,0.015625 -0.15625,0.125 0,0.125 0.0625,0.125 0.25,0.125 H 2.5625 c 0.890625,0 1.296875,0.734375 1.296875,1.8125 0,1.484375 -0.75,1.796875 -1.234375,1.796875 -0.46875,0 -1.28125,-0.1875 -1.671875,-0.828125 0.390625,0.046875 0.71875,-0.1875 0.71875,-0.609375 0,-0.390625 -0.28125,-0.609375 -0.609375,-0.609375 -0.25,0 -0.609375,0.15625 -0.609375,0.640625 0,0.984375 1.015625,1.703125 2.203125,1.703125 1.328125,0 2.328125,-0.984375 2.328125,-2.09375 0,-0.90625 -0.6875,-1.75 -1.828125,-1.984375 z m 0,0"
             id="path23" />
        </g>
        <g
           id="g26"
           transform="translate(244.64455,23.702999)">
          <path
             d="m 3.203125,-6.984375 c 0,-0.25 0,-0.28125 -0.25,-0.28125 C 2.28125,-6.5625 1.3125,-6.5625 0.96875,-6.5625 v 0.328125 c 0.21875,0 0.859375,0 1.4375,-0.28125 v 5.65625 c 0,0.390625 -0.046875,0.515625 -1.015625,0.515625 H 1.03125 V 0 c 0.390625,-0.03125 1.328125,-0.03125 1.765625,-0.03125 0.4375,0 1.390625,0 1.765625,0.03125 V -0.34375 H 4.21875 c -0.984375,0 -1.015625,-0.109375 -1.015625,-0.515625 z m 0,0"
             id="path24" />
        </g>
      </g>
    </g>
    <g
       inkscape:label=""
       transform="translate(70.303813,98.655234)"
       id="g40">
      <g
         fill="#000000"
         fill-opacity="1"
         id="g8"
         transform="matrix(0.352778,0,0,0.352778,-67.7934,-0.928335)">
        <g
           id="use7"
           transform="translate(191.51401,26.59)">
          <path
             d="m 8.75,-6.484375 c 0.21875,0 0.796875,0 0.796875,-0.5625 0,-0.375 -0.328125,-0.375 -0.640625,-0.375 h -3.8125 c -2.578125,0 -4.4375,2.875 -4.4375,4.90625 0,1.46875 0.9375,2.6875 2.5,2.6875 2.03125,0 4.25,-2.1875 4.25,-4.765625 0,-0.671875 -0.15625,-1.328125 -0.578125,-1.890625 z m -5.578125,6.3125 c -0.875,0 -1.515625,-0.671875 -1.515625,-1.859375 0,-1.03125 0.609375,-4.453125 3.140625,-4.453125 0.75,0 1.578125,0.359375 1.578125,1.6875 C 6.375,-4.203125 6.09375,-2.75 5.5,-1.75 4.875,-0.734375 3.9375,-0.171875 3.171875,-0.171875 Z m 0,0"
             id="path28" />
        </g>
      </g>
      <g
         fill="#000000"
         fill-opacity="1"
         id="g9"
         transform="matrix(0.352778,0,0,0.352778,-67.7934,-0.928335)">
        <g
           id="use8"
           transform="translate(201.095,29.172001)">
          <path
             d="M 3.15625,-3.84375 C 4.0625,-4.140625 4.6875,-4.890625 4.6875,-5.765625 c 0,-0.890625 -0.953125,-1.5 -2,-1.5 -1.109375,0 -1.9375,0.65625 -1.9375,1.484375 0,0.359375 0.25,0.5625 0.5625,0.5625 0.328125,0 0.546875,-0.234375 0.546875,-0.546875 0,-0.546875 -0.5,-0.546875 -0.671875,-0.546875 C 1.53125,-6.84375 2.25,-6.984375 2.640625,-6.984375 3.09375,-6.984375 3.6875,-6.75 3.6875,-5.765625 3.6875,-5.640625 3.671875,-5 3.375,-4.53125 3.046875,-4 2.6875,-3.96875 2.40625,-3.953125 c -0.078125,0 -0.34375,0.03125 -0.421875,0.03125 -0.09375,0 -0.15625,0.015625 -0.15625,0.125 0,0.125 0.0625,0.125 0.25,0.125 H 2.5625 c 0.890625,0 1.296875,0.734375 1.296875,1.8125 0,1.484375 -0.75,1.796875 -1.234375,1.796875 -0.46875,0 -1.28125,-0.1875 -1.671875,-0.828125 0.390625,0.046875 0.71875,-0.1875 0.71875,-0.609375 0,-0.390625 -0.28125,-0.609375 -0.609375,-0.609375 -0.25,0 -0.609375,0.15625 -0.609375,0.640625 0,0.984375 1.015625,1.703125 2.203125,1.703125 1.328125,0 2.328125,-0.984375 2.328125,-2.09375 0,-0.90625 -0.6875,-1.75 -1.828125,-1.984375 z m 0,0"
             id="path21" />
        </g>
        <g
           id="use9"
           transform="translate(206.54955,29.172001)">
          <path
             d="m 3.203125,-6.984375 c 0,-0.25 0,-0.28125 -0.25,-0.28125 C 2.28125,-6.5625 1.3125,-6.5625 0.96875,-6.5625 v 0.328125 c 0.21875,0 0.859375,0 1.4375,-0.28125 v 5.65625 c 0,0.390625 -0.046875,0.515625 -1.015625,0.515625 H 1.03125 V 0 c 0.390625,-0.03125 1.328125,-0.03125 1.765625,-0.03125 0.4375,0 1.390625,0 1.765625,0.03125 V -0.34375 H 4.21875 c -0.984375,0 -1.015625,-0.109375 -1.015625,-0.515625 z m 0,0"
             id="path22" />
        </g>
      </g>
      <g
         fill="#000000"
         fill-opacity="1"
         id="g10"
         transform="matrix(0.352778,0,0,0.352778,-67.7934,-0.928335)">
        <g
           id="use10"
           transform="translate(216.328,26.59)">
          <path
             d="m 6.484375,-4 h 4.5625 c 0.25,0 0.546875,0 0.546875,-0.28125 0,-0.3125 -0.28125,-0.3125 -0.546875,-0.3125 h -4.5625 v -4.5625 c 0,-0.25 0,-0.53125 -0.28125,-0.53125 -0.3125,0 -0.3125,0.265625 -0.3125,0.53125 v 4.5625 h -4.5625 c -0.25,0 -0.53125,0 -0.53125,0.28125 C 0.796875,-4 1.0625,-4 1.328125,-4 h 4.5625 v 4.5625 c 0,0.25 0,0.546875 0.296875,0.546875 0.296875,0 0.296875,-0.28125 0.296875,-0.546875 z m 0,0"
             id="path29" />
        </g>
      </g>
      <g
         fill="#000000"
         fill-opacity="1"
         id="g11"
         transform="matrix(0.352778,0,0,0.352778,-67.7934,-0.928335)">
        <g
           id="use11"
           transform="translate(233.742,14.944)">
          <path
             d="m 7.8125,-5.75 c -0.09375,-0.96875 -0.703125,-2.125 -2.25,-2.125 -2.421875,0 -4.90625,2.46875 -4.90625,5.203125 0,1.046875 0.71875,3.03125 3.0625,3.03125 4.0625,0 5.796875,-5.921875 5.796875,-8.28125 0,-2.484375 -1.390625,-4.390625 -3.59375,-4.390625 -2.5,0 -3.234375,2.1875 -3.234375,2.65625 C 2.6875,-9.5 2.796875,-9.125 3.265625,-9.125 3.875,-9.125 4.125,-9.671875 4.125,-9.96875 4.125,-10.5 3.59375,-10.5 3.375,-10.5 c 0.703125,-1.28125 2.015625,-1.390625 2.484375,-1.390625 1.515625,0 2.46875,1.203125 2.46875,3.125 0,1.109375 -0.328125,2.375 -0.5,3.015625 z M 3.765625,-0.109375 C 2.15625,-0.109375 1.875,-1.375 1.875,-2.09375 c 0,-0.765625 0.484375,-2.53125 0.75,-3.171875 0.21875,-0.515625 1.203125,-2.265625 2.984375,-2.265625 1.578125,0 1.9375,1.359375 1.9375,2.296875 0,1.28125 -1.125,5.125 -3.78125,5.125 z m 0,0"
             id="path30" />
        </g>
      </g>
      <g
         fill="#000000"
         fill-opacity="1"
         id="g12"
         transform="matrix(0.352778,0,0,0.352778,-67.7934,-0.928335)">
        <g
           id="use12"
           transform="translate(243.57027,14.944)">
          <path
             d="m 8.75,-6.484375 c 0.21875,0 0.796875,0 0.796875,-0.5625 0,-0.375 -0.328125,-0.375 -0.640625,-0.375 h -3.8125 c -2.578125,0 -4.4375,2.875 -4.4375,4.90625 0,1.46875 0.9375,2.6875 2.5,2.6875 2.03125,0 4.25,-2.1875 4.25,-4.765625 0,-0.671875 -0.15625,-1.328125 -0.578125,-1.890625 z m -5.578125,6.3125 c -0.875,0 -1.515625,-0.671875 -1.515625,-1.859375 0,-1.03125 0.609375,-4.453125 3.140625,-4.453125 0.75,0 1.578125,0.359375 1.578125,1.6875 C 6.375,-4.203125 6.09375,-2.75 5.5,-1.75 4.875,-0.734375 3.9375,-0.171875 3.171875,-0.171875 Z m 0,0"
             id="path25" />
        </g>
      </g>
      <g
         fill="#000000"
         fill-opacity="1"
         id="g14"
         transform="matrix(0.352778,0,0,0.352778,-67.7934,-0.928335)">
        <g
           id="use13"
           transform="translate(253.158,17.525999)">
          <path
             d="M 3.15625,-3.84375 C 4.0625,-4.140625 4.6875,-4.890625 4.6875,-5.765625 c 0,-0.890625 -0.953125,-1.5 -2,-1.5 -1.109375,0 -1.9375,0.65625 -1.9375,1.484375 0,0.359375 0.25,0.5625 0.5625,0.5625 0.328125,0 0.546875,-0.234375 0.546875,-0.546875 0,-0.546875 -0.5,-0.546875 -0.671875,-0.546875 C 1.53125,-6.84375 2.25,-6.984375 2.640625,-6.984375 3.09375,-6.984375 3.6875,-6.75 3.6875,-5.765625 3.6875,-5.640625 3.671875,-5 3.375,-4.53125 3.046875,-4 2.6875,-3.96875 2.40625,-3.953125 c -0.078125,0 -0.34375,0.03125 -0.421875,0.03125 -0.09375,0 -0.15625,0.015625 -0.15625,0.125 0,0.125 0.0625,0.125 0.25,0.125 H 2.5625 c 0.890625,0 1.296875,0.734375 1.296875,1.8125 0,1.484375 -0.75,1.796875 -1.234375,1.796875 -0.46875,0 -1.28125,-0.1875 -1.671875,-0.828125 0.390625,0.046875 0.71875,-0.1875 0.71875,-0.609375 0,-0.390625 -0.28125,-0.609375 -0.609375,-0.609375 -0.25,0 -0.609375,0.15625 -0.609375,0.640625 0,0.984375 1.015625,1.703125 2.203125,1.703125 1.328125,0 2.328125,-0.984375 2.328125,-2.09375 0,-0.90625 -0.6875,-1.75 -1.828125,-1.984375 z m 0,0"
             id="path26" />
        </g>
        <g
           id="use14"
           transform="translate(258.61255,17.525999)">
          <path
             d="m 3.203125,-6.984375 c 0,-0.25 0,-0.28125 -0.25,-0.28125 C 2.28125,-6.5625 1.3125,-6.5625 0.96875,-6.5625 v 0.328125 c 0.21875,0 0.859375,0 1.4375,-0.28125 v 5.65625 c 0,0.390625 -0.046875,0.515625 -1.015625,0.515625 H 1.03125 V 0 c 0.390625,-0.03125 1.328125,-0.03125 1.765625,-0.03125 0.4375,0 1.390625,0 1.765625,0.03125 V -0.34375 H 4.21875 c -0.984375,0 -1.015625,-0.109375 -1.015625,-0.515625 z m 0,0"
             id="path27" />
        </g>
      </g>
      <path
         fill="none"
         stroke-width="0.638"
         stroke-linecap="butt"
         stroke-linejoin="miter"
         stroke="#000000"
         stroke-opacity="1"
         stroke-miterlimit="10"
         d="M 41.57193,19.653656 H 72.396148"
         id="path32"
         transform="scale(0.352778)" />
      <g
         fill="#000000"
         fill-opacity="1"
         id="g33"
         transform="matrix(0.352778,0,0,0.352778,-67.7934,-0.928335)">
        <g
           id="use15"
           transform="translate(237.14999,38.398998)">
          <path
             d="m 7.8125,-5.75 c -0.09375,-0.96875 -0.703125,-2.125 -2.25,-2.125 -2.421875,0 -4.90625,2.46875 -4.90625,5.203125 0,1.046875 0.71875,3.03125 3.0625,3.03125 4.0625,0 5.796875,-5.921875 5.796875,-8.28125 0,-2.484375 -1.390625,-4.390625 -3.59375,-4.390625 -2.5,0 -3.234375,2.1875 -3.234375,2.65625 C 2.6875,-9.5 2.796875,-9.125 3.265625,-9.125 3.875,-9.125 4.125,-9.671875 4.125,-9.96875 4.125,-10.5 3.59375,-10.5 3.375,-10.5 c 0.703125,-1.28125 2.015625,-1.390625 2.484375,-1.390625 1.515625,0 2.46875,1.203125 2.46875,3.125 0,1.109375 -0.328125,2.375 -0.5,3.015625 z M 3.765625,-0.109375 C 2.15625,-0.109375 1.875,-1.375 1.875,-2.09375 c 0,-0.765625 0.484375,-2.53125 0.75,-3.171875 0.21875,-0.515625 1.203125,-2.265625 2.984375,-2.265625 1.578125,0 1.9375,1.359375 1.9375,2.296875 0,1.28125 -1.125,5.125 -3.78125,5.125 z m 0,0"
             id="path33" />
        </g>
      </g>
      <g
         fill="#000000"
         fill-opacity="1"
         id="g34"
         transform="matrix(0.352778,0,0,0.352778,-67.7934,-0.928335)">
        <g
           id="use16"
           transform="translate(246.97827,38.398998)">
          <path
             d="m 4.53125,1.921875 c -0.46875,0.65625 -1.140625,1.25 -1.984375,1.25 -0.203125,0 -1.03125,-0.03125 -1.296875,-0.828125 0.0625,0.015625 0.140625,0.015625 0.171875,0.015625 0.53125,0 0.875,-0.453125 0.875,-0.84375 0,-0.390625 -0.328125,-0.53125 -0.59375,-0.53125 -0.28125,0 -0.875,0.203125 -0.875,1.046875 0,0.875 0.734375,1.484375 1.71875,1.484375 1.71875,0 3.46875,-1.59375 3.9375,-3.5 l 1.6875,-6.71875 c 0.03125,-0.078125 0.0625,-0.1875 0.0625,-0.28125 0,-0.265625 -0.203125,-0.4375 -0.46875,-0.4375 -0.15625,0 -0.515625,0.0625 -0.65625,0.59375 L 5.84375,-1.78125 C 5.75,-1.46875 5.75,-1.421875 5.609375,-1.234375 5.265625,-0.75 4.703125,-0.171875 3.875,-0.171875 c -0.96875,0 -1.046875,-0.953125 -1.046875,-1.40625 0,-0.984375 0.453125,-2.3125 0.921875,-3.546875 0.1875,-0.5 0.296875,-0.75 0.296875,-1.09375 0,-0.71875 -0.515625,-1.375 -1.359375,-1.375 -1.578125,0 -2.21875,2.5 -2.21875,2.640625 0,0.0625 0.0625,0.15625 0.1875,0.15625 0.15625,0 0.171875,-0.078125 0.234375,-0.3125 C 1.3125,-6.5625 1.96875,-7.25 2.640625,-7.25 c 0.15625,0 0.4375,0 0.4375,0.5625 0,0.453125 -0.1875,0.953125 -0.4375,1.609375 -0.84375,2.25 -0.84375,2.828125 -0.84375,3.234375 0,1.640625 1.171875,2.015625 2.03125,2.015625 0.5,0 1.109375,-0.15625 1.71875,-0.796875 L 5.5625,-0.609375 C 5.296875,0.40625 5.125,1.078125 4.53125,1.921875 Z m 0,0"
             id="path34" />
        </g>
      </g>
      <g
         fill="#000000"
         fill-opacity="1"
         id="g37"
         transform="matrix(0.352778,0,0,0.352778,-67.7934,-0.928335)">
        <g
           id="g36"
           transform="translate(255.20399,40.980999)">
          <path
             d="M 3.15625,-3.84375 C 4.0625,-4.140625 4.6875,-4.890625 4.6875,-5.765625 c 0,-0.890625 -0.953125,-1.5 -2,-1.5 -1.109375,0 -1.9375,0.65625 -1.9375,1.484375 0,0.359375 0.25,0.5625 0.5625,0.5625 0.328125,0 0.546875,-0.234375 0.546875,-0.546875 0,-0.546875 -0.5,-0.546875 -0.671875,-0.546875 C 1.53125,-6.84375 2.25,-6.984375 2.640625,-6.984375 3.09375,-6.984375 3.6875,-6.75 3.6875,-5.765625 3.6875,-5.640625 3.671875,-5 3.375,-4.53125 3.046875,-4 2.6875,-3.96875 2.40625,-3.953125 c -0.078125,0 -0.34375,0.03125 -0.421875,0.03125 -0.09375,0 -0.15625,0.015625 -0.15625,0.125 0,0.125 0.0625,0.125 0.25,0.125 H 2.5625 c 0.890625,0 1.296875,0.734375 1.296875,1.8125 0,1.484375 -0.75,1.796875 -1.234375,1.796875 -0.46875,0 -1.28125,-0.1875 -1.671875,-0.828125 0.390625,0.046875 0.71875,-0.1875 0.71875,-0.609375 0,-0.390625 -0.28125,-0.609375 -0.609375,-0.609375 -0.25,0 -0.609375,0.15625 -0.609375,0.640625 0,0.984375 1.015625,1.703125 2.203125,1.703125 1.328125,0 2.328125,-0.984375 2.328125,-2.09375 0,-0.90625 -0.6875,-1.75 -1.828125,-1.984375 z m 0,0"
             id="path36" />
        </g>
      </g>
      <g
         fill="#000000"
         fill-opacity="1"
         id="g38"
         transform="matrix(0.352778,0,0,0.352778,-67.7934,-0.928335)">
        <g
           id="use18"
           transform="translate(265.76001,26.59)">
          <path
             d="m 8.65625,-11.515625 c 0.015625,-0.07813 0.0625,-0.171875 0.0625,-0.265625 0,-0.171875 -0.171875,-0.171875 -0.21875,-0.171875 -0.015625,0 -0.859375,0.07813 -0.9375,0.09375 -0.296875,0.01563 -0.546875,0.04687 -0.859375,0.0625 -0.4375,0.03125 -0.5625,0.04687 -0.5625,0.359375 0,0.171875 0.140625,0.171875 0.390625,0.171875 0.84375,0 0.859375,0.15625 0.859375,0.328125 0,0.109375 -0.03125,0.25 -0.0625,0.296875 l -1.046875,4.1875 C 6.09375,-6.90625 5.625,-7.59375 4.734375,-7.59375 c -1.9375,0 -4.046875,2.515625 -4.046875,5.0625 0,1.703125 1,2.703125 2.171875,2.703125 0.953125,0 1.75,-0.734375 2.234375,-1.3125 0.171875,1.015625 0.984375,1.3125 1.5,1.3125 0.515625,0 0.9375,-0.3125 1.234375,-0.921875 C 8.109375,-1.34375 8.34375,-2.390625 8.34375,-2.46875 8.34375,-2.546875 8.28125,-2.625 8.171875,-2.625 8.03125,-2.625 8,-2.53125 7.9375,-2.265625 7.671875,-1.25 7.359375,-0.171875 6.640625,-0.171875 c -0.5,0 -0.53125,-0.453125 -0.53125,-0.796875 0,-0.0625 0,-0.421875 0.125,-0.90625 z M 5.1875,-2.046875 C 5.09375,-1.75 5.09375,-1.71875 4.859375,-1.390625 c -0.375,0.484375 -1.140625,1.21875 -1.953125,1.21875 -0.703125,0 -1.09375,-0.640625 -1.09375,-1.65625 0,-0.9375 0.53125,-2.875 0.859375,-3.59375 C 3.25,-6.625 4.0625,-7.25 4.734375,-7.25 c 1.140625,0 1.359375,1.40625 1.359375,1.546875 0,0.015625 -0.046875,0.25 -0.0625,0.28125 z m 0,0"
             id="path37" />
        </g>
        <g
           id="use19"
           transform="translate(274.5192,26.59)">
          <path
             d="m 4.53125,1.921875 c -0.46875,0.65625 -1.140625,1.25 -1.984375,1.25 -0.203125,0 -1.03125,-0.03125 -1.296875,-0.828125 0.0625,0.015625 0.140625,0.015625 0.171875,0.015625 0.53125,0 0.875,-0.453125 0.875,-0.84375 0,-0.390625 -0.328125,-0.53125 -0.59375,-0.53125 -0.28125,0 -0.875,0.203125 -0.875,1.046875 0,0.875 0.734375,1.484375 1.71875,1.484375 1.71875,0 3.46875,-1.59375 3.9375,-3.5 l 1.6875,-6.71875 c 0.03125,-0.078125 0.0625,-0.1875 0.0625,-0.28125 0,-0.265625 -0.203125,-0.4375 -0.46875,-0.4375 -0.15625,0 -0.515625,0.0625 -0.65625,0.59375 L 5.84375,-1.78125 C 5.75,-1.46875 5.75,-1.421875 5.609375,-1.234375 5.265625,-0.75 4.703125,-0.171875 3.875,-0.171875 c -0.96875,0 -1.046875,-0.953125 -1.046875,-1.40625 0,-0.984375 0.453125,-2.3125 0.921875,-3.546875 0.1875,-0.5 0.296875,-0.75 0.296875,-1.09375 0,-0.71875 -0.515625,-1.375 -1.359375,-1.375 -1.578125,0 -2.21875,2.5 -2.21875,2.640625 0,0.0625 0.0625,0.15625 0.1875,0.15625 0.15625,0 0.171875,-0.078125 0.234375,-0.3125 C 1.3125,-6.5625 1.96875,-7.25 2.640625,-7.25 c 0.15625,0 0.4375,0 0.4375,0.5625 0,0.453125 -0.1875,0.953125 -0.4375,1.609375 -0.84375,2.25 -0.84375,2.828125 -0.84375,3.234375 0,1.640625 1.171875,2.015625 2.03125,2.015625 0.5,0 1.109375,-0.15625 1.71875,-0.796875 L 5.5625,-0.609375 C 5.296875,0.40625 5.125,1.078125 4.53125,1.921875 Z m 0,0"
             id="path38" />
        </g>
      </g>
      <g
         fill="#000000"
         fill-opacity="1"
         id="g39"
         transform="matrix(0.352778,0,0,0.352778,-67.7934,-0.928335)">
        <g
           id="use20"
           transform="translate(282.73901,29.172001)">
          <path
             d="M 3.15625,-3.84375 C 4.0625,-4.140625 4.6875,-4.890625 4.6875,-5.765625 c 0,-0.890625 -0.953125,-1.5 -2,-1.5 -1.109375,0 -1.9375,0.65625 -1.9375,1.484375 0,0.359375 0.25,0.5625 0.5625,0.5625 0.328125,0 0.546875,-0.234375 0.546875,-0.546875 0,-0.546875 -0.5,-0.546875 -0.671875,-0.546875 C 1.53125,-6.84375 2.25,-6.984375 2.640625,-6.984375 3.09375,-6.984375 3.6875,-6.75 3.6875,-5.765625 3.6875,-5.640625 3.671875,-5 3.375,-4.53125 3.046875,-4 2.6875,-3.96875 2.40625,-3.953125 c -0.078125,0 -0.34375,0.03125 -0.421875,0.03125 -0.09375,0 -0.15625,0.015625 -0.15625,0.125 0,0.125 0.0625,0.125 0.25,0.125 H 2.5625 c 0.890625,0 1.296875,0.734375 1.296875,1.8125 0,1.484375 -0.75,1.796875 -1.234375,1.796875 -0.46875,0 -1.28125,-0.1875 -1.671875,-0.828125 0.390625,0.046875 0.71875,-0.1875 0.71875,-0.609375 0,-0.390625 -0.28125,-0.609375 -0.609375,-0.609375 -0.25,0 -0.609375,0.15625 -0.609375,0.640625 0,0.984375 1.015625,1.703125 2.203125,1.703125 1.328125,0 2.328125,-0.984375 2.328125,-2.09375 0,-0.90625 -0.6875,-1.75 -1.828125,-1.984375 z m 0,0"
             id="path39" />
        </g>
      </g>
    </g>
    <g
       inkscape:label=""
       transform="translate(104.66935,114.12118)"
       id="g66">
      <g
         fill="#000000"
         fill-opacity="1"
         id="g42"
         transform="matrix(0.352778,0,0,0.352778,-67.7934,-0.928335)">
        <g
           id="g41"
           transform="translate(191.51401,26.59)">
          <path
             d="m 8.75,-6.484375 c 0.21875,0 0.796875,0 0.796875,-0.5625 0,-0.375 -0.328125,-0.375 -0.640625,-0.375 h -3.8125 c -2.578125,0 -4.4375,2.875 -4.4375,4.90625 0,1.46875 0.9375,2.6875 2.5,2.6875 2.03125,0 4.25,-2.1875 4.25,-4.765625 0,-0.671875 -0.15625,-1.328125 -0.578125,-1.890625 z m -5.578125,6.3125 c -0.875,0 -1.515625,-0.671875 -1.515625,-1.859375 0,-1.03125 0.609375,-4.453125 3.140625,-4.453125 0.75,0 1.578125,0.359375 1.578125,1.6875 C 6.375,-4.203125 6.09375,-2.75 5.5,-1.75 4.875,-0.734375 3.9375,-0.171875 3.171875,-0.171875 Z m 0,0"
             id="path40" />
        </g>
      </g>
      <g
         fill="#000000"
         fill-opacity="1"
         id="g45"
         transform="matrix(0.352778,0,0,0.352778,-67.7934,-0.928335)">
        <g
           id="g43"
           transform="translate(201.095,29.172001)">
          <path
             d="m 1.390625,-0.84375 1.15625,-1.125 c 1.703125,-1.5 2.34375,-2.09375 2.34375,-3.171875 0,-1.25 -0.96875,-2.125 -2.3125,-2.125 -1.21875,0 -2.03125,1 -2.03125,1.96875 0,0.625 0.546875,0.625 0.578125,0.625 0.1875,0 0.5625,-0.140625 0.5625,-0.578125 0,-0.296875 -0.1875,-0.578125 -0.578125,-0.578125 -0.078125,0 -0.109375,0 -0.140625,0.015625 0.25,-0.703125 0.84375,-1.109375 1.46875,-1.109375 1,0 1.46875,0.875 1.46875,1.78125 0,0.859375 -0.546875,1.734375 -1.140625,2.40625 l -2.09375,2.328125 c -0.125,0.125 -0.125,0.140625 -0.125,0.40625 H 4.59375 L 4.890625,-1.890625 H 4.625 C 4.5625,-1.578125 4.5,-1.09375 4.390625,-0.921875 4.3125,-0.84375 3.59375,-0.84375 3.34375,-0.84375 Z m 0,0"
             id="path42" />
        </g>
        <g
           id="g44"
           transform="translate(206.54955,29.172001)">
          <path
             d="m 3.203125,-6.984375 c 0,-0.25 0,-0.28125 -0.25,-0.28125 C 2.28125,-6.5625 1.3125,-6.5625 0.96875,-6.5625 v 0.328125 c 0.21875,0 0.859375,0 1.4375,-0.28125 v 5.65625 c 0,0.390625 -0.046875,0.515625 -1.015625,0.515625 H 1.03125 V 0 c 0.390625,-0.03125 1.328125,-0.03125 1.765625,-0.03125 0.4375,0 1.390625,0 1.765625,0.03125 V -0.34375 H 4.21875 c -0.984375,0 -1.015625,-0.109375 -1.015625,-0.515625 z m 0,0"
             id="path43" />
        </g>
      </g>
      <g
         fill="#000000"
         fill-opacity="1"
         id="g47"
         transform="matrix(0.352778,0,0,0.352778,-67.7934,-0.928335)">
        <g
           id="g46"
           transform="translate(216.328,26.59)">
          <path
             d="m 6.484375,-4 h 4.5625 c 0.25,0 0.546875,0 0.546875,-0.28125 0,-0.3125 -0.28125,-0.3125 -0.546875,-0.3125 h -4.5625 v -4.5625 c 0,-0.25 0,-0.53125 -0.28125,-0.53125 -0.3125,0 -0.3125,0.265625 -0.3125,0.53125 v 4.5625 h -4.5625 c -0.25,0 -0.53125,0 -0.53125,0.28125 C 0.796875,-4 1.0625,-4 1.328125,-4 h 4.5625 v 4.5625 c 0,0.25 0,0.546875 0.296875,0.546875 0.296875,0 0.296875,-0.28125 0.296875,-0.546875 z m 0,0"
             id="path45" />
        </g>
      </g>
      <g
         fill="#000000"
         fill-opacity="1"
         id="g49"
         transform="matrix(0.352778,0,0,0.352778,-67.7934,-0.928335)">
        <g
           id="g48"
           transform="translate(233.742,14.944)">
          <path
             d="m 7.8125,-5.75 c -0.09375,-0.96875 -0.703125,-2.125 -2.25,-2.125 -2.421875,0 -4.90625,2.46875 -4.90625,5.203125 0,1.046875 0.71875,3.03125 3.0625,3.03125 4.0625,0 5.796875,-5.921875 5.796875,-8.28125 0,-2.484375 -1.390625,-4.390625 -3.59375,-4.390625 -2.5,0 -3.234375,2.1875 -3.234375,2.65625 C 2.6875,-9.5 2.796875,-9.125 3.265625,-9.125 3.875,-9.125 4.125,-9.671875 4.125,-9.96875 4.125,-10.5 3.59375,-10.5 3.375,-10.5 c 0.703125,-1.28125 2.015625,-1.390625 2.484375,-1.390625 1.515625,0 2.46875,1.203125 2.46875,3.125 0,1.109375 -0.328125,2.375 -0.5,3.015625 z M 3.765625,-0.109375 C 2.15625,-0.109375 1.875,-1.375 1.875,-2.09375 c 0,-0.765625 0.484375,-2.53125 0.75,-3.171875 0.21875,-0.515625 1.203125,-2.265625 2.984375,-2.265625 1.578125,0 1.9375,1.359375 1.9375,2.296875 0,1.28125 -1.125,5.125 -3.78125,5.125 z m 0,0"
             id="path47" />
        </g>
      </g>
      <g
         fill="#000000"
         fill-opacity="1"
         id="g51"
         transform="matrix(0.352778,0,0,0.352778,-67.7934,-0.928335)">
        <g
           id="g50"
           transform="translate(243.57027,14.944)">
          <path
             d="m 8.75,-6.484375 c 0.21875,0 0.796875,0 0.796875,-0.5625 0,-0.375 -0.328125,-0.375 -0.640625,-0.375 h -3.8125 c -2.578125,0 -4.4375,2.875 -4.4375,4.90625 0,1.46875 0.9375,2.6875 2.5,2.6875 2.03125,0 4.25,-2.1875 4.25,-4.765625 0,-0.671875 -0.15625,-1.328125 -0.578125,-1.890625 z m -5.578125,6.3125 c -0.875,0 -1.515625,-0.671875 -1.515625,-1.859375 0,-1.03125 0.609375,-4.453125 3.140625,-4.453125 0.75,0 1.578125,0.359375 1.578125,1.6875 C 6.375,-4.203125 6.09375,-2.75 5.5,-1.75 4.875,-0.734375 3.9375,-0.171875 3.171875,-0.171875 Z m 0,0"
             id="path49" />
        </g>
      </g>
      <g
         fill="#000000"
         fill-opacity="1"
         id="g54"
         transform="matrix(0.352778,0,0,0.352778,-67.7934,-0.928335)">
        <g
           id="g52"
           transform="translate(253.158,17.525999)">
          <path
             d="m 1.390625,-0.84375 1.15625,-1.125 c 1.703125,-1.5 2.34375,-2.09375 2.34375,-3.171875 0,-1.25 -0.96875,-2.125 -2.3125,-2.125 -1.21875,0 -2.03125,1 -2.03125,1.96875 0,0.625 0.546875,0.625 0.578125,0.625 0.1875,0 0.5625,-0.140625 0.5625,-0.578125 0,-0.296875 -0.1875,-0.578125 -0.578125,-0.578125 -0.078125,0 -0.109375,0 -0.140625,0.015625 0.25,-0.703125 0.84375,-1.109375 1.46875,-1.109375 1,0 1.46875,0.875 1.46875,1.78125 0,0.859375 -0.546875,1.734375 -1.140625,2.40625 l -2.09375,2.328125 c -0.125,0.125 -0.125,0.140625 -0.125,0.40625 H 4.59375 L 4.890625,-1.890625 H 4.625 C 4.5625,-1.578125 4.5,-1.09375 4.390625,-0.921875 4.3125,-0.84375 3.59375,-0.84375 3.34375,-0.84375 Z m 0,0"
             id="path51" />
        </g>
        <g
           id="g53"
           transform="translate(258.61255,17.525999)">
          <path
             d="m 3.203125,-6.984375 c 0,-0.25 0,-0.28125 -0.25,-0.28125 C 2.28125,-6.5625 1.3125,-6.5625 0.96875,-6.5625 v 0.328125 c 0.21875,0 0.859375,0 1.4375,-0.28125 v 5.65625 c 0,0.390625 -0.046875,0.515625 -1.015625,0.515625 H 1.03125 V 0 c 0.390625,-0.03125 1.328125,-0.03125 1.765625,-0.03125 0.4375,0 1.390625,0 1.765625,0.03125 V -0.34375 H 4.21875 c -0.984375,0 -1.015625,-0.109375 -1.015625,-0.515625 z m 0,0"
             id="path52" />
        </g>
      </g>
      <path
         fill="none"
         stroke-width="0.638"
         stroke-linecap="butt"
         stroke-linejoin="miter"
         stroke="#000000"
         stroke-opacity="1"
         stroke-miterlimit="10"
         d="M 41.57193,19.653656 H 72.396148"
         id="path54"
         transform="scale(0.352778)" />
      <g
         fill="#000000"
         fill-opacity="1"
         id="g56"
         transform="matrix(0.352778,0,0,0.352778,-67.7934,-0.928335)">
        <g
           id="g55"
           transform="translate(237.14999,38.398998)">
          <path
             d="m 7.8125,-5.75 c -0.09375,-0.96875 -0.703125,-2.125 -2.25,-2.125 -2.421875,0 -4.90625,2.46875 -4.90625,5.203125 0,1.046875 0.71875,3.03125 3.0625,3.03125 4.0625,0 5.796875,-5.921875 5.796875,-8.28125 0,-2.484375 -1.390625,-4.390625 -3.59375,-4.390625 -2.5,0 -3.234375,2.1875 -3.234375,2.65625 C 2.6875,-9.5 2.796875,-9.125 3.265625,-9.125 3.875,-9.125 4.125,-9.671875 4.125,-9.96875 4.125,-10.5 3.59375,-10.5 3.375,-10.5 c 0.703125,-1.28125 2.015625,-1.390625 2.484375,-1.390625 1.515625,0 2.46875,1.203125 2.46875,3.125 0,1.109375 -0.328125,2.375 -0.5,3.015625 z M 3.765625,-0.109375 C 2.15625,-0.109375 1.875,-1.375 1.875,-2.09375 c 0,-0.765625 0.484375,-2.53125 0.75,-3.171875 0.21875,-0.515625 1.203125,-2.265625 2.984375,-2.265625 1.578125,0 1.9375,1.359375 1.9375,2.296875 0,1.28125 -1.125,5.125 -3.78125,5.125 z m 0,0"
             id="path55" />
        </g>
      </g>
      <g
         fill="#000000"
         fill-opacity="1"
         id="g58"
         transform="matrix(0.352778,0,0,0.352778,-67.7934,-0.928335)">
        <g
           id="g57"
           transform="translate(246.97827,38.398998)">
          <path
             d="m 4.53125,1.921875 c -0.46875,0.65625 -1.140625,1.25 -1.984375,1.25 -0.203125,0 -1.03125,-0.03125 -1.296875,-0.828125 0.0625,0.015625 0.140625,0.015625 0.171875,0.015625 0.53125,0 0.875,-0.453125 0.875,-0.84375 0,-0.390625 -0.328125,-0.53125 -0.59375,-0.53125 -0.28125,0 -0.875,0.203125 -0.875,1.046875 0,0.875 0.734375,1.484375 1.71875,1.484375 1.71875,0 3.46875,-1.59375 3.9375,-3.5 l 1.6875,-6.71875 c 0.03125,-0.078125 0.0625,-0.1875 0.0625,-0.28125 0,-0.265625 -0.203125,-0.4375 -0.46875,-0.4375 -0.15625,0 -0.515625,0.0625 -0.65625,0.59375 L 5.84375,-1.78125 C 5.75,-1.46875 5.75,-1.421875 5.609375,-1.234375 5.265625,-0.75 4.703125,-0.171875 3.875,-0.171875 c -0.96875,0 -1.046875,-0.953125 -1.046875,-1.40625 0,-0.984375 0.453125,-2.3125 0.921875,-3.546875 0.1875,-0.5 0.296875,-0.75 0.296875,-1.09375 0,-0.71875 -0.515625,-1.375 -1.359375,-1.375 -1.578125,0 -2.21875,2.5 -2.21875,2.640625 0,0.0625 0.0625,0.15625 0.1875,0.15625 0.15625,0 0.171875,-0.078125 0.234375,-0.3125 C 1.3125,-6.5625 1.96875,-7.25 2.640625,-7.25 c 0.15625,0 0.4375,0 0.4375,0.5625 0,0.453125 -0.1875,0.953125 -0.4375,1.609375 -0.84375,2.25 -0.84375,2.828125 -0.84375,3.234375 0,1.640625 1.171875,2.015625 2.03125,2.015625 0.5,0 1.109375,-0.15625 1.71875,-0.796875 L 5.5625,-0.609375 C 5.296875,0.40625 5.125,1.078125 4.53125,1.921875 Z m 0,0"
             id="path56" />
        </g>
      </g>
      <g
         fill="#000000"
         fill-opacity="1"
         id="g60"
         transform="matrix(0.352778,0,0,0.352778,-67.7934,-0.928335)">
        <g
           id="g59"
           transform="translate(255.20399,40.980999)">
          <path
             d="m 1.390625,-0.84375 1.15625,-1.125 c 1.703125,-1.5 2.34375,-2.09375 2.34375,-3.171875 0,-1.25 -0.96875,-2.125 -2.3125,-2.125 -1.21875,0 -2.03125,1 -2.03125,1.96875 0,0.625 0.546875,0.625 0.578125,0.625 0.1875,0 0.5625,-0.140625 0.5625,-0.578125 0,-0.296875 -0.1875,-0.578125 -0.578125,-0.578125 -0.078125,0 -0.109375,0 -0.140625,0.015625 0.25,-0.703125 0.84375,-1.109375 1.46875,-1.109375 1,0 1.46875,0.875 1.46875,1.78125 0,0.859375 -0.546875,1.734375 -1.140625,2.40625 l -2.09375,2.328125 c -0.125,0.125 -0.125,0.140625 -0.125,0.40625 H 4.59375 L 4.890625,-1.890625 H 4.625 C 4.5625,-1.578125 4.5,-1.09375 4.390625,-0.921875 4.3125,-0.84375 3.59375,-0.84375 3.34375,-0.84375 Z m 0,0"
             id="path58" />
        </g>
      </g>
      <g
         fill="#000000"
         fill-opacity="1"
         id="g63"
         transform="matrix(0.352778,0,0,0.352778,-67.7934,-0.928335)">
        <g
           id="g61"
           transform="translate(265.76001,26.59)">
          <path
             d="m 8.65625,-11.515625 c 0.015625,-0.07813 0.0625,-0.171875 0.0625,-0.265625 0,-0.171875 -0.171875,-0.171875 -0.21875,-0.171875 -0.015625,0 -0.859375,0.07813 -0.9375,0.09375 -0.296875,0.01563 -0.546875,0.04687 -0.859375,0.0625 -0.4375,0.03125 -0.5625,0.04687 -0.5625,0.359375 0,0.171875 0.140625,0.171875 0.390625,0.171875 0.84375,0 0.859375,0.15625 0.859375,0.328125 0,0.109375 -0.03125,0.25 -0.0625,0.296875 l -1.046875,4.1875 C 6.09375,-6.90625 5.625,-7.59375 4.734375,-7.59375 c -1.9375,0 -4.046875,2.515625 -4.046875,5.0625 0,1.703125 1,2.703125 2.171875,2.703125 0.953125,0 1.75,-0.734375 2.234375,-1.3125 0.171875,1.015625 0.984375,1.3125 1.5,1.3125 0.515625,0 0.9375,-0.3125 1.234375,-0.921875 C 8.109375,-1.34375 8.34375,-2.390625 8.34375,-2.46875 8.34375,-2.546875 8.28125,-2.625 8.171875,-2.625 8.03125,-2.625 8,-2.53125 7.9375,-2.265625 7.671875,-1.25 7.359375,-0.171875 6.640625,-0.171875 c -0.5,0 -0.53125,-0.453125 -0.53125,-0.796875 0,-0.0625 0,-0.421875 0.125,-0.90625 z M 5.1875,-2.046875 C 5.09375,-1.75 5.09375,-1.71875 4.859375,-1.390625 c -0.375,0.484375 -1.140625,1.21875 -1.953125,1.21875 -0.703125,0 -1.09375,-0.640625 -1.09375,-1.65625 0,-0.9375 0.53125,-2.875 0.859375,-3.59375 C 3.25,-6.625 4.0625,-7.25 4.734375,-7.25 c 1.140625,0 1.359375,1.40625 1.359375,1.546875 0,0.015625 -0.046875,0.25 -0.0625,0.28125 z m 0,0"
             id="path60" />
        </g>
        <g
           id="g62"
           transform="translate(274.5192,26.59)">
          <path
             d="m 4.53125,1.921875 c -0.46875,0.65625 -1.140625,1.25 -1.984375,1.25 -0.203125,0 -1.03125,-0.03125 -1.296875,-0.828125 0.0625,0.015625 0.140625,0.015625 0.171875,0.015625 0.53125,0 0.875,-0.453125 0.875,-0.84375 0,-0.390625 -0.328125,-0.53125 -0.59375,-0.53125 -0.28125,0 -0.875,0.203125 -0.875,1.046875 0,0.875 0.734375,1.484375 1.71875,1.484375 1.71875,0 3.46875,-1.59375 3.9375,-3.5 l 1.6875,-6.71875 c 0.03125,-0.078125 0.0625,-0.1875 0.0625,-0.28125 0,-0.265625 -0.203125,-0.4375 -0.46875,-0.4375 -0.15625,0 -0.515625,0.0625 -0.65625,0.59375 L 5.84375,-1.78125 C 5.75,-1.46875 5.75,-1.421875 5.609375,-1.234375 5.265625,-0.75 4.703125,-0.171875 3.875,-0.171875 c -0.96875,0 -1.046875,-0.953125 -1.046875,-1.40625 0,-0.984375 0.453125,-2.3125 0.921875,-3.546875 0.1875,-0.5 0.296875,-0.75 0.296875,-1.09375 0,-0.71875 -0.515625,-1.375 -1.359375,-1.375 -1.578125,0 -2.21875,2.5 -2.21875,2.640625 0,0.0625 0.0625,0.15625 0.1875,0.15625 0.15625,0 0.171875,-0.078125 0.234375,-0.3125 C 1.3125,-6.5625 1.96875,-7.25 2.640625,-7.25 c 0.15625,0 0.4375,0 0.4375,0.5625 0,0.453125 -0.1875,0.953125 -0.4375,1.609375 -0.84375,2.25 -0.84375,2.828125 -0.84375,3.234375 0,1.640625 1.171875,2.015625 2.03125,2.015625 0.5,0 1.109375,-0.15625 1.71875,-0.796875 L 5.5625,-0.609375 C 5.296875,0.40625 5.125,1.078125 4.53125,1.921875 Z m 0,0"
             id="path61" />
        </g>
      </g>
      <g
         fill="#000000"
         fill-opacity="1"
         id="g65"
         transform="matrix(0.352778,0,0,0.352778,-67.7934,-0.928335)">
        <g
           id="g64"
           transform="translate(282.73901,29.172001)">
          <path
             d="m 1.390625,-0.84375 1.15625,-1.125 c 1.703125,-1.5 2.34375,-2.09375 2.34375,-3.171875 0,-1.25 -0.96875,-2.125 -2.3125,-2.125 -1.21875,0 -2.03125,1 -2.03125,1.96875 0,0.625 0.546875,0.625 0.578125,0.625 0.1875,0 0.5625,-0.140625 0.5625,-0.578125 0,-0.296875 -0.1875,-0.578125 -0.578125,-0.578125 -0.078125,0 -0.109375,0 -0.140625,0.015625 0.25,-0.703125 0.84375,-1.109375 1.46875,-1.109375 1,0 1.46875,0.875 1.46875,1.78125 0,0.859375 -0.546875,1.734375 -1.140625,2.40625 l -2.09375,2.328125 c -0.125,0.125 -0.125,0.140625 -0.125,0.40625 H 4.59375 L 4.890625,-1.890625 H 4.625 C 4.5625,-1.578125 4.5,-1.09375 4.390625,-0.921875 4.3125,-0.84375 3.59375,-0.84375 3.34375,-0.84375 Z m 0,0"
             id="path63" />
        </g>
      </g>
    </g>
    <g
       inkscape:label=""
       transform="translate(119.53474,147.16533)"
       id="g89">
      <g
         fill="#000000"
         fill-opacity="1"
         id="g7"
         transform="matrix(0.352778,0,0,0.352778,-67.7934,-0.928335)">
        <g
           id="use6"
           transform="translate(191.51401,26.59)">
          <path
             d="m 8.75,-6.484375 c 0.21875,0 0.796875,0 0.796875,-0.5625 0,-0.375 -0.328125,-0.375 -0.640625,-0.375 h -3.8125 c -2.578125,0 -4.4375,2.875 -4.4375,4.90625 0,1.46875 0.9375,2.6875 2.5,2.6875 2.03125,0 4.25,-2.1875 4.25,-4.765625 0,-0.671875 -0.15625,-1.328125 -0.578125,-1.890625 z m -5.578125,6.3125 c -0.875,0 -1.515625,-0.671875 -1.515625,-1.859375 0,-1.03125 0.609375,-4.453125 3.140625,-4.453125 0.75,0 1.578125,0.359375 1.578125,1.6875 C 6.375,-4.203125 6.09375,-2.75 5.5,-1.75 4.875,-0.734375 3.9375,-0.171875 3.171875,-0.171875 Z m 0,0"
             id="path19" />
        </g>
      </g>
      <g
         fill="#000000"
         fill-opacity="1"
         id="g69"
         transform="matrix(0.352778,0,0,0.352778,-67.7934,-0.928335)">
        <g
           id="g67"
           transform="translate(201.095,29.172001)">
          <path
             d="m 3.203125,-6.984375 c 0,-0.25 0,-0.28125 -0.25,-0.28125 C 2.28125,-6.5625 1.3125,-6.5625 0.96875,-6.5625 v 0.328125 c 0.21875,0 0.859375,0 1.4375,-0.28125 v 5.65625 c 0,0.390625 -0.046875,0.515625 -1.015625,0.515625 H 1.03125 V 0 c 0.390625,-0.03125 1.328125,-0.03125 1.765625,-0.03125 0.4375,0 1.390625,0 1.765625,0.03125 V -0.34375 H 4.21875 c -0.984375,0 -1.015625,-0.109375 -1.015625,-0.515625 z m 0,0"
             id="path66" />
        </g>
        <g
           id="g68"
           transform="translate(206.54955,29.172001)">
          <path
             d="m 3.203125,-6.984375 c 0,-0.25 0,-0.28125 -0.25,-0.28125 C 2.28125,-6.5625 1.3125,-6.5625 0.96875,-6.5625 v 0.328125 c 0.21875,0 0.859375,0 1.4375,-0.28125 v 5.65625 c 0,0.390625 -0.046875,0.515625 -1.015625,0.515625 H 1.03125 V 0 c 0.390625,-0.03125 1.328125,-0.03125 1.765625,-0.03125 0.4375,0 1.390625,0 1.765625,0.03125 V -0.34375 H 4.21875 c -0.984375,0 -1.015625,-0.109375 -1.015625,-0.515625 z m 0,0"
             id="path67" />
        </g>
      </g>
      <g
         fill="#000000"
         fill-opacity="1"
         id="g71"
         transform="matrix(0.352778,0,0,0.352778,-67.7934,-0.928335)">
        <g
           id="g70"
           transform="translate(216.328,26.59)">
          <path
             d="m 6.484375,-4 h 4.5625 c 0.25,0 0.546875,0 0.546875,-0.28125 0,-0.3125 -0.28125,-0.3125 -0.546875,-0.3125 h -4.5625 v -4.5625 c 0,-0.25 0,-0.53125 -0.28125,-0.53125 -0.3125,0 -0.3125,0.265625 -0.3125,0.53125 v 4.5625 h -4.5625 c -0.25,0 -0.53125,0 -0.53125,0.28125 C 0.796875,-4 1.0625,-4 1.328125,-4 h 4.5625 v 4.5625 c 0,0.25 0,0.546875 0.296875,0.546875 0.296875,0 0.296875,-0.28125 0.296875,-0.546875 z m 0,0"
             id="path69" />
        </g>
      </g>
      <g
         fill="#000000"
         fill-opacity="1"
         id="g73"
         transform="matrix(0.352778,0,0,0.352778,-67.7934,-0.928335)">
        <g
           id="g72"
           transform="translate(233.742,14.944)">
          <path
             d="m 7.8125,-5.75 c -0.09375,-0.96875 -0.703125,-2.125 -2.25,-2.125 -2.421875,0 -4.90625,2.46875 -4.90625,5.203125 0,1.046875 0.71875,3.03125 3.0625,3.03125 4.0625,0 5.796875,-5.921875 5.796875,-8.28125 0,-2.484375 -1.390625,-4.390625 -3.59375,-4.390625 -2.5,0 -3.234375,2.1875 -3.234375,2.65625 C 2.6875,-9.5 2.796875,-9.125 3.265625,-9.125 3.875,-9.125 4.125,-9.671875 4.125,-9.96875 4.125,-10.5 3.59375,-10.5 3.375,-10.5 c 0.703125,-1.28125 2.015625,-1.390625 2.484375,-1.390625 1.515625,0 2.46875,1.203125 2.46875,3.125 0,1.109375 -0.328125,2.375 -0.5,3.015625 z M 3.765625,-0.109375 C 2.15625,-0.109375 1.875,-1.375 1.875,-2.09375 c 0,-0.765625 0.484375,-2.53125 0.75,-3.171875 0.21875,-0.515625 1.203125,-2.265625 2.984375,-2.265625 1.578125,0 1.9375,1.359375 1.9375,2.296875 0,1.28125 -1.125,5.125 -3.78125,5.125 z m 0,0"
             id="path71" />
        </g>
      </g>
      <g
         fill="#000000"
         fill-opacity="1"
         id="g75"
         transform="matrix(0.352778,0,0,0.352778,-67.7934,-0.928335)">
        <g
           id="g74"
           transform="translate(243.57027,14.944)">
          <path
             d="m 8.75,-6.484375 c 0.21875,0 0.796875,0 0.796875,-0.5625 0,-0.375 -0.328125,-0.375 -0.640625,-0.375 h -3.8125 c -2.578125,0 -4.4375,2.875 -4.4375,4.90625 0,1.46875 0.9375,2.6875 2.5,2.6875 2.03125,0 4.25,-2.1875 4.25,-4.765625 0,-0.671875 -0.15625,-1.328125 -0.578125,-1.890625 z m -5.578125,6.3125 c -0.875,0 -1.515625,-0.671875 -1.515625,-1.859375 0,-1.03125 0.609375,-4.453125 3.140625,-4.453125 0.75,0 1.578125,0.359375 1.578125,1.6875 C 6.375,-4.203125 6.09375,-2.75 5.5,-1.75 4.875,-0.734375 3.9375,-0.171875 3.171875,-0.171875 Z m 0,0"
             id="path73" />
        </g>
      </g>
      <g
         fill="#000000"
         fill-opacity="1"
         id="g13"
         transform="matrix(0.352778,0,0,0.352778,-67.7934,-0.928335)">
        <g
           id="g76"
           transform="translate(253.158,17.525999)">
          <path
             d="m 3.203125,-6.984375 c 0,-0.25 0,-0.28125 -0.25,-0.28125 C 2.28125,-6.5625 1.3125,-6.5625 0.96875,-6.5625 v 0.328125 c 0.21875,0 0.859375,0 1.4375,-0.28125 v 5.65625 c 0,0.390625 -0.046875,0.515625 -1.015625,0.515625 H 1.03125 V 0 c 0.390625,-0.03125 1.328125,-0.03125 1.765625,-0.03125 0.4375,0 1.390625,0 1.765625,0.03125 V -0.34375 H 4.21875 c -0.984375,0 -1.015625,-0.109375 -1.015625,-0.515625 z m 0,0"
             id="path75" />
        </g>
        <g
           id="g77"
           transform="translate(258.61255,17.525999)">
          <path
             d="m 3.203125,-6.984375 c 0,-0.25 0,-0.28125 -0.25,-0.28125 C 2.28125,-6.5625 1.3125,-6.5625 0.96875,-6.5625 v 0.328125 c 0.21875,0 0.859375,0 1.4375,-0.28125 v 5.65625 c 0,0.390625 -0.046875,0.515625 -1.015625,0.515625 H 1.03125 V 0 c 0.390625,-0.03125 1.328125,-0.03125 1.765625,-0.03125 0.4375,0 1.390625,0 1.765625,0.03125 V -0.34375 H 4.21875 c -0.984375,0 -1.015625,-0.109375 -1.015625,-0.515625 z m 0,0"
             id="path76" />
        </g>
      </g>
      <path
         fill="none"
         stroke-width="0.638"
         stroke-linecap="butt"
         stroke-linejoin="miter"
         stroke="#000000"
         stroke-opacity="1"
         stroke-miterlimit="10"
         d="M 41.57193,19.653656 H 72.396148"
         id="path77"
         transform="scale(0.352778)" />
      <g
         fill="#000000"
         fill-opacity="1"
         id="g79"
         transform="matrix(0.352778,0,0,0.352778,-67.7934,-0.928335)">
        <g
           id="g78"
           transform="translate(237.14999,38.398998)">
          <path
             d="m 7.8125,-5.75 c -0.09375,-0.96875 -0.703125,-2.125 -2.25,-2.125 -2.421875,0 -4.90625,2.46875 -4.90625,5.203125 0,1.046875 0.71875,3.03125 3.0625,3.03125 4.0625,0 5.796875,-5.921875 5.796875,-8.28125 0,-2.484375 -1.390625,-4.390625 -3.59375,-4.390625 -2.5,0 -3.234375,2.1875 -3.234375,2.65625 C 2.6875,-9.5 2.796875,-9.125 3.265625,-9.125 3.875,-9.125 4.125,-9.671875 4.125,-9.96875 4.125,-10.5 3.59375,-10.5 3.375,-10.5 c 0.703125,-1.28125 2.015625,-1.390625 2.484375,-1.390625 1.515625,0 2.46875,1.203125 2.46875,3.125 0,1.109375 -0.328125,2.375 -0.5,3.015625 z M 3.765625,-0.109375 C 2.15625,-0.109375 1.875,-1.375 1.875,-2.09375 c 0,-0.765625 0.484375,-2.53125 0.75,-3.171875 0.21875,-0.515625 1.203125,-2.265625 2.984375,-2.265625 1.578125,0 1.9375,1.359375 1.9375,2.296875 0,1.28125 -1.125,5.125 -3.78125,5.125 z m 0,0"
             id="path78" />
        </g>
      </g>
      <g
         fill="#000000"
         fill-opacity="1"
         id="g81"
         transform="matrix(0.352778,0,0,0.352778,-67.7934,-0.928335)">
        <g
           id="g80"
           transform="translate(246.97827,38.398998)">
          <path
             d="m 4.53125,1.921875 c -0.46875,0.65625 -1.140625,1.25 -1.984375,1.25 -0.203125,0 -1.03125,-0.03125 -1.296875,-0.828125 0.0625,0.015625 0.140625,0.015625 0.171875,0.015625 0.53125,0 0.875,-0.453125 0.875,-0.84375 0,-0.390625 -0.328125,-0.53125 -0.59375,-0.53125 -0.28125,0 -0.875,0.203125 -0.875,1.046875 0,0.875 0.734375,1.484375 1.71875,1.484375 1.71875,0 3.46875,-1.59375 3.9375,-3.5 l 1.6875,-6.71875 c 0.03125,-0.078125 0.0625,-0.1875 0.0625,-0.28125 0,-0.265625 -0.203125,-0.4375 -0.46875,-0.4375 -0.15625,0 -0.515625,0.0625 -0.65625,0.59375 L 5.84375,-1.78125 C 5.75,-1.46875 5.75,-1.421875 5.609375,-1.234375 5.265625,-0.75 4.703125,-0.171875 3.875,-0.171875 c -0.96875,0 -1.046875,-0.953125 -1.046875,-1.40625 0,-0.984375 0.453125,-2.3125 0.921875,-3.546875 0.1875,-0.5 0.296875,-0.75 0.296875,-1.09375 0,-0.71875 -0.515625,-1.375 -1.359375,-1.375 -1.578125,0 -2.21875,2.5 -2.21875,2.640625 0,0.0625 0.0625,0.15625 0.1875,0.15625 0.15625,0 0.171875,-0.078125 0.234375,-0.3125 C 1.3125,-6.5625 1.96875,-7.25 2.640625,-7.25 c 0.15625,0 0.4375,0 0.4375,0.5625 0,0.453125 -0.1875,0.953125 -0.4375,1.609375 -0.84375,2.25 -0.84375,2.828125 -0.84375,3.234375 0,1.640625 1.171875,2.015625 2.03125,2.015625 0.5,0 1.109375,-0.15625 1.71875,-0.796875 L 5.5625,-0.609375 C 5.296875,0.40625 5.125,1.078125 4.53125,1.921875 Z m 0,0"
             id="path79" />
        </g>
      </g>
      <g
         fill="#000000"
         fill-opacity="1"
         id="g83"
         transform="matrix(0.352778,0,0,0.352778,-67.7934,-0.928335)">
        <g
           id="g82"
           transform="translate(255.20399,40.980999)">
          <path
             d="m 3.203125,-6.984375 c 0,-0.25 0,-0.28125 -0.25,-0.28125 C 2.28125,-6.5625 1.3125,-6.5625 0.96875,-6.5625 v 0.328125 c 0.21875,0 0.859375,0 1.4375,-0.28125 v 5.65625 c 0,0.390625 -0.046875,0.515625 -1.015625,0.515625 H 1.03125 V 0 c 0.390625,-0.03125 1.328125,-0.03125 1.765625,-0.03125 0.4375,0 1.390625,0 1.765625,0.03125 V -0.34375 H 4.21875 c -0.984375,0 -1.015625,-0.109375 -1.015625,-0.515625 z m 0,0"
             id="path81" />
        </g>
      </g>
      <g
         fill="#000000"
         fill-opacity="1"
         id="g86"
         transform="matrix(0.352778,0,0,0.352778,-67.7934,-0.928335)">
        <g
           id="g84"
           transform="translate(265.76001,26.59)">
          <path
             d="m 8.65625,-11.515625 c 0.015625,-0.07813 0.0625,-0.171875 0.0625,-0.265625 0,-0.171875 -0.171875,-0.171875 -0.21875,-0.171875 -0.015625,0 -0.859375,0.07813 -0.9375,0.09375 -0.296875,0.01563 -0.546875,0.04687 -0.859375,0.0625 -0.4375,0.03125 -0.5625,0.04687 -0.5625,0.359375 0,0.171875 0.140625,0.171875 0.390625,0.171875 0.84375,0 0.859375,0.15625 0.859375,0.328125 0,0.109375 -0.03125,0.25 -0.0625,0.296875 l -1.046875,4.1875 C 6.09375,-6.90625 5.625,-7.59375 4.734375,-7.59375 c -1.9375,0 -4.046875,2.515625 -4.046875,5.0625 0,1.703125 1,2.703125 2.171875,2.703125 0.953125,0 1.75,-0.734375 2.234375,-1.3125 0.171875,1.015625 0.984375,1.3125 1.5,1.3125 0.515625,0 0.9375,-0.3125 1.234375,-0.921875 C 8.109375,-1.34375 8.34375,-2.390625 8.34375,-2.46875 8.34375,-2.546875 8.28125,-2.625 8.171875,-2.625 8.03125,-2.625 8,-2.53125 7.9375,-2.265625 7.671875,-1.25 7.359375,-0.171875 6.640625,-0.171875 c -0.5,0 -0.53125,-0.453125 -0.53125,-0.796875 0,-0.0625 0,-0.421875 0.125,-0.90625 z M 5.1875,-2.046875 C 5.09375,-1.75 5.09375,-1.71875 4.859375,-1.390625 c -0.375,0.484375 -1.140625,1.21875 -1.953125,1.21875 -0.703125,0 -1.09375,-0.640625 -1.09375,-1.65625 0,-0.9375 0.53125,-2.875 0.859375,-3.59375 C 3.25,-6.625 4.0625,-7.25 4.734375,-7.25 c 1.140625,0 1.359375,1.40625 1.359375,1.546875 0,0.015625 -0.046875,0.25 -0.0625,0.28125 z m 0,0"
             id="path83" />
        </g>
        <g
           id="g85"
           transform="translate(274.5192,26.59)">
          <path
             d="m 4.53125,1.921875 c -0.46875,0.65625 -1.140625,1.25 -1.984375,1.25 -0.203125,0 -1.03125,-0.03125 -1.296875,-0.828125 0.0625,0.015625 0.140625,0.015625 0.171875,0.015625 0.53125,0 0.875,-0.453125 0.875,-0.84375 0,-0.390625 -0.328125,-0.53125 -0.59375,-0.53125 -0.28125,0 -0.875,0.203125 -0.875,1.046875 0,0.875 0.734375,1.484375 1.71875,1.484375 1.71875,0 3.46875,-1.59375 3.9375,-3.5 l 1.6875,-6.71875 c 0.03125,-0.078125 0.0625,-0.1875 0.0625,-0.28125 0,-0.265625 -0.203125,-0.4375 -0.46875,-0.4375 -0.15625,0 -0.515625,0.0625 -0.65625,0.59375 L 5.84375,-1.78125 C 5.75,-1.46875 5.75,-1.421875 5.609375,-1.234375 5.265625,-0.75 4.703125,-0.171875 3.875,-0.171875 c -0.96875,0 -1.046875,-0.953125 -1.046875,-1.40625 0,-0.984375 0.453125,-2.3125 0.921875,-3.546875 0.1875,-0.5 0.296875,-0.75 0.296875,-1.09375 0,-0.71875 -0.515625,-1.375 -1.359375,-1.375 -1.578125,0 -2.21875,2.5 -2.21875,2.640625 0,0.0625 0.0625,0.15625 0.1875,0.15625 0.15625,0 0.171875,-0.078125 0.234375,-0.3125 C 1.3125,-6.5625 1.96875,-7.25 2.640625,-7.25 c 0.15625,0 0.4375,0 0.4375,0.5625 0,0.453125 -0.1875,0.953125 -0.4375,1.609375 -0.84375,2.25 -0.84375,2.828125 -0.84375,3.234375 0,1.640625 1.171875,2.015625 2.03125,2.015625 0.5,0 1.109375,-0.15625 1.71875,-0.796875 L 5.5625,-0.609375 C 5.296875,0.40625 5.125,1.078125 4.53125,1.921875 Z m 0,0"
             id="path84" />
        </g>
      </g>
      <g
         fill="#000000"
         fill-opacity="1"
         id="g88"
         transform="matrix(0.352778,0,0,0.352778,-67.7934,-0.928335)">
        <g
           id="g87"
           transform="translate(282.73901,29.172001)">
          <path
             d="m 3.203125,-6.984375 c 0,-0.25 0,-0.28125 -0.25,-0.28125 C 2.28125,-6.5625 1.3125,-6.5625 0.96875,-6.5625 v 0.328125 c 0.21875,0 0.859375,0 1.4375,-0.28125 v 5.65625 c 0,0.390625 -0.046875,0.515625 -1.015625,0.515625 H 1.03125 V 0 c 0.390625,-0.03125 1.328125,-0.03125 1.765625,-0.03125 0.4375,0 1.390625,0 1.765625,0.03125 V -0.34375 H 4.21875 c -0.984375,0 -1.015625,-0.109375 -1.015625,-0.515625 z m 0,0"
             id="path86" />
        </g>
      </g>
    </g>
    <g
       inkscape:label=""
       transform="translate(100.7488,136.00144)"
       id="g94">
      <g
         fill="#000000"
         fill-opacity="1"
         id="g91"
         transform="matrix(0.352778,0,0,0.352778,-82.6158,-4.77211)">
        <g
           id="g90"
           transform="translate(233.49899,21.121)">
          <path
             d="m 6.734375,-6.46875 c -0.328125,0 -0.484375,0 -0.71875,0.203125 -0.109375,0.078125 -0.296875,0.34375 -0.296875,0.625 0,0.34375 0.25,0.546875 0.578125,0.546875 0.421875,0 0.890625,-0.34375 0.890625,-1.03125 0,-0.828125 -0.796875,-1.46875 -1.984375,-1.46875 -2.265625,0 -4.515625,2.46875 -4.515625,4.90625 0,1.5 0.9375,2.859375 2.6875,2.859375 2.34375,0 3.828125,-1.828125 3.828125,-2.046875 0,-0.109375 -0.109375,-0.1875 -0.171875,-0.1875 -0.0625,0 -0.078125,0.015625 -0.234375,0.171875 -1.09375,1.453125 -2.734375,1.71875 -3.390625,1.71875 -1.1875,0 -1.5625,-1.03125 -1.5625,-1.890625 0,-0.609375 0.296875,-2.28125 0.90625,-3.453125 C 3.203125,-6.3125 4.125,-7.25 5.21875,-7.25 c 0.21875,0 1.171875,0.03125 1.515625,0.78125 z m 0,0"
             id="path89" />
        </g>
      </g>
      <g
         fill="#000000"
         fill-opacity="1"
         id="g93"
         transform="matrix(0.352778,0,0,0.352778,-82.6158,-4.77211)">
        <g
           id="g92"
           transform="translate(240.754,23.702999)">
          <path
             d="m 3.203125,-6.984375 c 0,-0.25 0,-0.28125 -0.25,-0.28125 C 2.28125,-6.5625 1.3125,-6.5625 0.96875,-6.5625 v 0.328125 c 0.21875,0 0.859375,0 1.4375,-0.28125 v 5.65625 c 0,0.390625 -0.046875,0.515625 -1.015625,0.515625 H 1.03125 V 0 c 0.390625,-0.03125 1.328125,-0.03125 1.765625,-0.03125 0.4375,0 1.390625,0 1.765625,0.03125 V -0.34375 H 4.21875 c -0.984375,0 -1.015625,-0.109375 -1.015625,-0.515625 z m 0,0"
             id="path91" />
        </g>
      </g>
    </g>
  </g>
</svg>
