<?xml version="1.0" encoding="UTF-8" standalone="no"?>
<!-- Created with Inkscape (http://www.inkscape.org/) -->

<svg
   width="62.010311mm"
   height="62.010323mm"
   viewBox="0 0 62.010311 62.010323"
   version="1.1"
   id="svg8637"
   inkscape:version="1.2.1 (9c6d41e410, 2022-07-14)"
   sodipodi:docname="Dom.svg"
   xmlns:inkscape="http://www.inkscape.org/namespaces/inkscape"
   xmlns:sodipodi="http://sodipodi.sourceforge.net/DTD/sodipodi-0.dtd"
   xmlns:xlink="http://www.w3.org/1999/xlink"
   xmlns="http://www.w3.org/2000/svg"
   xmlns:svg="http://www.w3.org/2000/svg">
  <sodipodi:namedview
     id="namedview8639"
     pagecolor="#ffffff"
     bordercolor="#000000"
     borderopacity="0.25"
     inkscape:showpageshadow="2"
     inkscape:pageopacity="0.0"
     inkscape:pagecheckerboard="0"
     inkscape:deskcolor="#d1d1d1"
     inkscape:document-units="mm"
     showgrid="false"
     inkscape:lockguides="true"
     inkscape:zoom="2.8284271"
     inkscape:cx="129.75409"
     inkscape:cy="108.54089"
     inkscape:window-width="1920"
     inkscape:window-height="1017"
     inkscape:window-x="1912"
     inkscape:window-y="-8"
     inkscape:window-maximized="1"
     inkscape:current-layer="layer1" />
  <defs
     id="defs8634">
    <marker
       style="overflow:visible"
       id="marker68317"
       refX="0"
       refY="0"
       orient="auto-start-reverse"
       inkscape:stockid="TriangleStart"
       markerWidth="10"
       markerHeight="5"
       viewBox="0 0 5.3244081 6.1553851"
       inkscape:isstock="true"
       inkscape:collect="always"
       preserveAspectRatio="none">
      <path
         transform="scale(0.5)"
         style="fill:context-stroke;fill-rule:evenodd;stroke:context-stroke;stroke-width:1pt"
         d="M 5.77,0 -2.88,5 V -5 Z"
         id="path68315" />
    </marker>
    <marker
       style="overflow:visible"
       id="TriangleStart"
       refX="2"
       refY="0"
       orient="auto-start-reverse"
       inkscape:stockid="TriangleStart"
       markerWidth="15"
       markerHeight="7"
       viewBox="0 0 5.3244081 6.1553851"
       inkscape:isstock="true"
       inkscape:collect="always"
       preserveAspectRatio="none">
      <path
         transform="scale(0.5)"
         style="fill:context-stroke;fill-rule:evenodd;stroke:context-stroke;stroke-width:1pt"
         d="M 5.77,0 -2.88,5 V -5 Z"
         id="path135" />
    </marker>
    <linearGradient
       inkscape:collect="always"
       id="linearGradient67579">
      <stop
         style="stop-color:#000000;stop-opacity:0;"
         offset="0"
         id="stop67577" />
      <stop
         style="stop-color:#000000;stop-opacity:0.30000001;"
         offset="1"
         id="stop67575" />
    </linearGradient>
    <clipPath
       id="clipPath2360">
      <path
         clip-rule="nonzero"
         d="m 239,10 h 7 v 9.527344 h -7 z m 0,0"
         id="path39457" />
    </clipPath>
    <clipPath
       id="clipPath3328">
      <path
         clip-rule="nonzero"
         d="m 239,10 h 7 v 9.527344 h -7 z m 0,0"
         id="path56441" />
    </clipPath>
    <clipPath
       id="clipPath3114">
      <path
         clip-rule="nonzero"
         d="m 240,6 h 10 v 10.738281 h -10 z m 0,0"
         id="path55864" />
    </clipPath>
    <clipPath
       id="clipPath1623">
      <path
         clip-rule="nonzero"
         d="m 245,12 h 9 v 6.890625 h -9 z m 0,0"
         id="path22907" />
    </clipPath>
    <clipPath
       id="clipPath7500">
      <path
         clip-rule="nonzero"
         d="m 245,12 h 8 v 6.890625 h -8 z m 0,0"
         id="path1328" />
    </clipPath>
    <clipPath
       id="clipPath997">
      <path
         clip-rule="nonzero"
         d="m 241,10 h 8 v 6.738281 h -8 z m 0,0"
         id="path29527" />
    </clipPath>
    <clipPath
       id="clipPath7289">
      <path
         clip-rule="nonzero"
         d="m 217,10 h 9 v 6.738281 h -9 z m 0,0"
         id="path65416" />
    </clipPath>
    <clipPath
       id="clipPath63042">
      <path
         clip-rule="nonzero"
         d="m 236,10 h 9 v 6.738281 h -9 z m 0,0"
         id="path24547" />
    </clipPath>
    <clipPath
       id="clipPath61677">
      <path
         clip-rule="nonzero"
         d="m 264,6 h 9 v 10.738281 h -9 z m 0,0"
         id="path38497" />
    </clipPath>
    <clipPath
       id="clipPath3415">
      <path
         clip-rule="nonzero"
         d="m 255,10 h 8 v 9.527344 h -8 z m 0,0"
         id="path33560" />
    </clipPath>
    <radialGradient
       inkscape:collect="always"
       xlink:href="#linearGradient67579"
       id="radialGradient67607"
       cx="104.89651"
       cy="68.689644"
       fx="104.89651"
       fy="68.689644"
       r="81.301414"
       gradientTransform="matrix(1,0,0,0.802485,0,20.4418)"
       gradientUnits="userSpaceOnUse" />
  </defs>
  <g
     inkscape:label="Camada 1"
     inkscape:groupmode="layer"
     id="layer1"
     transform="translate(-212.78718,-189.33154)">
    <path
       style="fill:url(#radialGradient67607);fill-opacity:1;stroke:none;stroke-width:0.40093;stroke-dasharray:none;stroke-dashoffset:0;stroke-opacity:1"
       d="m 100.18267,38.294942 c -16.381791,-0.12805 -31.99664,9.120236 -41.19988,22.431934 -5.056681,7.513301 -9.338836,15.808439 -11.106689,24.752944 -1.865474,10.2015 0.82086,20.71778 5.954168,29.58075 8.183102,14.38945 21.514598,25.40083 36.535195,32.10418 22.273386,10.43945 46.175206,17.51575 70.574776,20.6881 12.21018,1.54967 25.63921,1.75107 36.35982,-5.20103 7.64061,-4.57427 12.45716,-13.1681 12.56771,-22.04944 0.45025,-15.74751 -7.48271,-30.75916 -18.83966,-41.294914 C 180.11167,88.277876 166.45711,80.060118 156.95837,67.657827 147.21901,56.91094 135.03866,48.388191 121.77004,42.57416 114.95241,39.644015 107.63368,37.95504 100.18267,38.294942 Z m -42.4927,42.138454 c 0.01703,3.789527 -0.03406,7.592938 0.02555,11.373785 -0.352758,-2.488486 -0.04194,-5.762288 -0.147084,-8.545357 0.102624,-0.76911 -0.190284,-2.528183 0.121534,-2.828428 z m 13.006898,7.133905 c 0.04017,0.359493 -0.292553,-0.512313 0,0 z m 85.548872,27.702149 c -0.33189,1.10701 -0.27104,2.29017 -0.067,3.41469 -0.45426,-1.06379 -0.49706,-2.586 0.067,-3.41469 z m 8.9072,0.40742 c 0.50896,0.93307 0.28667,2.06168 -0.0842,2.99001 0.22009,-0.94466 0.26562,-2.22014 0.0842,-2.99001 z"
       id="path67288"
       transform="matrix(0.26458333,0,0,0.26458333,212.78718,190.0775)" />
    <path
       style="fill:none;stroke:#000000;stroke-width:0.3;stroke-dasharray:none;stroke-dashoffset:0.8;stroke-opacity:1"
       d="m 233.95384,227.52936 c -4.50926,-2.68245 -10.41385,-9.37738 -8.09206,-16.2547 3.41363,-10.11143 12.05474,-12.77705 18.80644,-10.0242 6.7517,2.75285 10.45229,7.75807 10.45229,7.75807"
       id="path10968"
       sodipodi:nodetypes="cszc" />
    <path
       style="fill:none;stroke:#000000;stroke-width:0.3;stroke-dasharray:0.90000004,0.60000003;stroke-dashoffset:0;stroke-opacity:1"
       d="m 233.95384,227.52936 c 8.30581,4.69607 19.15744,7.12284 25.02706,7.15127 4.80854,0.0233 9.56425,-2.61869 9.28408,-8.14792 -0.34985,-6.90432 -5.41836,-10.77692 -8.97935,-13.65052 -3.46899,-2.79936 -4.16512,-3.87366 -4.16512,-3.87366"
       id="path10970"
       sodipodi:nodetypes="csssc" />
    <g
       inkscape:label=""
       transform="translate(214.59555,192.3796)"
       id="g14347">
      <g
         clip-path="url(#clipPath2360)"
         id="g21"
         transform="matrix(0.352778,0,0,0.352778,-84.4337,-3.67202)">
        <g
           fill="#000000"
           fill-opacity="1"
           id="g19">
          <g
             id="use17"
             transform="translate(238.94901,16.737)">
            <path
               d="m 3.765625,1.609375 c -0.375,0.546875 -0.9375,1.03125 -1.640625,1.03125 -0.171875,0 -0.859375,-0.03125 -1.078125,-0.6875 C 1.09375,1.96875 1.15625,1.96875 1.1875,1.96875 c 0.4375,0 0.71875,-0.375 0.71875,-0.703125 C 1.90625,0.9375 1.640625,0.8125 1.421875,0.8125 1.1875,0.8125 0.6875,0.984375 0.6875,1.6875 c 0,0.734375 0.625,1.234375 1.4375,1.234375 1.4375,0 2.875,-1.3125 3.28125,-2.90625 l 1.40625,-5.59375 c 0.015625,-0.078125 0.046875,-0.15625 0.046875,-0.25 0,-0.203125 -0.171875,-0.359375 -0.390625,-0.359375 -0.125,0 -0.4375,0.0625 -0.546875,0.5 l -1.0625,4.203125 c -0.0625,0.265625 -0.0625,0.296875 -0.1875,0.453125 -0.28125,0.40625 -0.75,0.890625 -1.4375,0.890625 -0.8125,0 -0.875,-0.796875 -0.875,-1.171875 0,-0.828125 0.375,-1.921875 0.765625,-2.96875 0.15625,-0.40625 0.25,-0.609375 0.25,-0.890625 0,-0.609375 -0.4375,-1.15625 -1.140625,-1.15625 -1.3125,0 -1.84375,2.078125 -1.84375,2.203125 0,0.046875 0.046875,0.125 0.15625,0.125 C 0.671875,-4 0.6875,-4.0625 0.75,-4.265625 1.09375,-5.46875 1.640625,-6.03125 2.1875,-6.03125 c 0.140625,0 0.375,0 0.375,0.46875 0,0.375 -0.15625,0.78125 -0.375,1.328125 -0.703125,1.875 -0.703125,2.359375 -0.703125,2.703125 0,1.359375 0.984375,1.671875 1.703125,1.671875 0.40625,0 0.921875,-0.125 1.4375,-0.65625 L 4.640625,-0.5 c -0.21875,0.84375 -0.359375,1.40625 -0.875,2.109375 z m 0,0"
               id="path31" />
          </g>
        </g>
      </g>
      <g
         fill="#000000"
         fill-opacity="1"
         id="g25"
         transform="matrix(0.352778,0,0,0.352778,-84.4337,-3.67202)">
        <g
           id="g14344"
           transform="translate(245.798,18.889)">
          <path
             d="m 2.9375,-6.375 c 0,-0.25 0,-0.265625 -0.234375,-0.265625 C 2.078125,-6 1.203125,-6 0.890625,-6 v 0.3125 c 0.203125,0 0.78125,0 1.296875,-0.265625 v 5.171875 c 0,0.359375 -0.03125,0.46875 -0.921875,0.46875 h -0.3125 V 0 c 0.34375,-0.03125 1.203125,-0.03125 1.609375,-0.03125 0.390625,0 1.265625,0 1.609375,0.03125 v -0.3125 h -0.3125 c -0.90625,0 -0.921875,-0.109375 -0.921875,-0.46875 z m 0,0"
             id="path35" />
        </g>
      </g>
    </g>
    <g
       inkscape:label=""
       transform="translate(269.15201,245.60539)"
       id="g16580">
      <g
         clip-path="url(#clipPath3328)"
         id="g16572"
         transform="matrix(0.352778,0,0,0.352778,-84.4337,-3.67202)">
        <g
           fill="#000000"
           fill-opacity="1"
           id="g16570">
          <g
             id="g16568"
             transform="translate(238.94901,16.737)">
            <path
               d="m 3.765625,1.609375 c -0.375,0.546875 -0.9375,1.03125 -1.640625,1.03125 -0.171875,0 -0.859375,-0.03125 -1.078125,-0.6875 C 1.09375,1.96875 1.15625,1.96875 1.1875,1.96875 c 0.4375,0 0.71875,-0.375 0.71875,-0.703125 C 1.90625,0.9375 1.640625,0.8125 1.421875,0.8125 1.1875,0.8125 0.6875,0.984375 0.6875,1.6875 c 0,0.734375 0.625,1.234375 1.4375,1.234375 1.4375,0 2.875,-1.3125 3.28125,-2.90625 l 1.40625,-5.59375 c 0.015625,-0.078125 0.046875,-0.15625 0.046875,-0.25 0,-0.203125 -0.171875,-0.359375 -0.390625,-0.359375 -0.125,0 -0.4375,0.0625 -0.546875,0.5 l -1.0625,4.203125 c -0.0625,0.265625 -0.0625,0.296875 -0.1875,0.453125 -0.28125,0.40625 -0.75,0.890625 -1.4375,0.890625 -0.8125,0 -0.875,-0.796875 -0.875,-1.171875 0,-0.828125 0.375,-1.921875 0.765625,-2.96875 0.15625,-0.40625 0.25,-0.609375 0.25,-0.890625 0,-0.609375 -0.4375,-1.15625 -1.140625,-1.15625 -1.3125,0 -1.84375,2.078125 -1.84375,2.203125 0,0.046875 0.046875,0.125 0.15625,0.125 C 0.671875,-4 0.6875,-4.0625 0.75,-4.265625 1.09375,-5.46875 1.640625,-6.03125 2.1875,-6.03125 c 0.140625,0 0.375,0 0.375,0.46875 0,0.375 -0.15625,0.78125 -0.375,1.328125 -0.703125,1.875 -0.703125,2.359375 -0.703125,2.703125 0,1.359375 0.984375,1.671875 1.703125,1.671875 0.40625,0 0.921875,-0.125 1.4375,-0.65625 L 4.640625,-0.5 c -0.21875,0.84375 -0.359375,1.40625 -0.875,2.109375 z m 0,0"
               id="path16566" />
          </g>
        </g>
      </g>
      <g
         fill="#000000"
         fill-opacity="1"
         id="g16578"
         transform="matrix(0.352778,0,0,0.352778,-84.4337,-3.67202)">
        <g
           id="g16576"
           transform="translate(245.798,18.889)">
          <path
             d="m 1.265625,-0.765625 1.0625,-1.03125 c 1.546875,-1.375 2.140625,-1.90625 2.140625,-2.90625 0,-1.140625 -0.890625,-1.9375 -2.109375,-1.9375 -1.125,0 -1.859375,0.921875 -1.859375,1.8125 0,0.546875 0.5,0.546875 0.53125,0.546875 0.171875,0 0.515625,-0.109375 0.515625,-0.53125 0,-0.25 -0.1875,-0.515625 -0.53125,-0.515625 -0.078125,0 -0.09375,0 -0.125,0.015625 0.21875,-0.65625 0.765625,-1.015625 1.34375,-1.015625 0.90625,0 1.328125,0.8125 1.328125,1.625 C 3.5625,-3.90625 3.078125,-3.125 2.515625,-2.5 l -1.90625,2.125 C 0.5,-0.265625 0.5,-0.234375 0.5,0 H 4.203125 L 4.46875,-1.734375 H 4.234375 C 4.171875,-1.4375 4.109375,-1 4,-0.84375 3.9375,-0.765625 3.28125,-0.765625 3.0625,-0.765625 Z m 0,0"
             id="path16574" />
        </g>
      </g>
    </g>
    <g
       inkscape:label=""
       transform="translate(253.71652,219.79088)"
       id="g18826">
      <g
         clip-path="url(#clipPath3114)"
         id="g18824"
         transform="matrix(0.352778,0,0,0.352778,-84.9016,-2.34359)">
        <g
           fill="#000000"
           fill-opacity="1"
           id="g18822">
          <g
             id="g18820"
             transform="translate(240.041,16.737)">
            <path
               d="M 9.5,-2.234375 H 9.1875 c -0.078125,0.375 -0.15625,0.75 -0.265625,1.046875 C 8.84375,-0.96875 8.8125,-0.84375 7.96875,-0.84375 h -1.125 c 0.171875,-0.8125 0.59375,-1.5 1.171875,-2.390625 0.671875,-1.046875 1.34375,-2.09375 1.34375,-3.28125 0,-1.96875 -1.90625,-3.578125 -4.296875,-3.578125 -2.40625,0 -4.28125,1.609375 -4.28125,3.578125 0,1.1875 0.640625,2.21875 1.3125,3.265625 0.609375,0.921875 1.03125,1.59375 1.1875,2.40625 h -1.125 c -0.84375,0 -0.875,-0.125 -0.953125,-0.328125 -0.109375,-0.3125 -0.1875,-0.71875 -0.25,-1.0625 H 0.625 L 1.09375,0 H 3.3125 C 3.625,0 3.65625,0 3.65625,-0.265625 3.65625,-1.28125 3.203125,-2.53125 2.90625,-3.25 2.5,-4.390625 2.109375,-5.4375 2.109375,-6.53125 c 0,-2.203125 1.53125,-3.28125 2.953125,-3.28125 1.421875,0 2.953125,1.078125 2.953125,3.28125 0,1.09375 -0.40625,2.171875 -0.796875,3.234375 -0.25,0.6875 -0.75,2 -0.75,3.03125 C 6.46875,0 6.515625,0 6.828125,0 H 9.03125 Z m 0,0"
               id="path18818" />
          </g>
        </g>
      </g>
    </g>
    <g
       inkscape:label=""
       transform="translate(227.36172,211.14471)"
       id="g21089">
      <g
         fill="#000000"
         fill-opacity="1"
         id="g21079"
         transform="matrix(0.352778,0,0,0.352778,-83.4407,-2.45935)">
        <g
           id="g21077"
           transform="translate(235.931,16.737)">
          <path
             d="M 7.796875,-9.765625 H 0.59375 v 0.40625 H 0.875 c 1.03125,0 1.078125,0.15625 1.078125,0.6875 v 7.578125 c 0,0.53125 -0.046875,0.671875 -1.078125,0.671875 H 0.59375 V 0 c 0.34375,-0.03125 1.609375,-0.03125 2.046875,-0.03125 0.5,0 1.765625,0 2.171875,0.03125 V -0.421875 H 4.390625 c -1.25,0 -1.28125,-0.171875 -1.28125,-0.6875 V -8.78125 c 0,-0.46875 0.03125,-0.578125 0.65625,-0.578125 H 5.3125 c 1.96875,0 2.34375,0.78125 2.546875,2.796875 h 0.3125 z m 0,0"
             id="path21075" />
        </g>
      </g>
      <g
         clip-path="url(#clipPath1623)"
         id="g21087"
         transform="matrix(0.352778,0,0,0.352778,-83.4407,-2.45935)">
        <g
           fill="#000000"
           fill-opacity="1"
           id="g21085">
          <g
             id="g21083"
             transform="translate(244.70799,18.889)">
            <path
               d="M 7.53125,-5.765625 C 7.640625,-6.15625 7.8125,-6.46875 8.609375,-6.5 c 0.046875,0 0.171875,-0.015625 0.171875,-0.203125 0,0 0,-0.109375 -0.125,-0.109375 -0.328125,0 -0.6875,0.03125 -1.015625,0.03125 -0.328125,0 -0.6875,-0.03125 -1.015625,-0.03125 -0.0625,0 -0.171875,0 -0.171875,0.203125 C 6.453125,-6.5 6.546875,-6.5 6.625,-6.5 c 0.578125,0.015625 0.6875,0.21875 0.6875,0.4375 0,0.03125 -0.03125,0.1875 -0.03125,0.203125 l -1.125,4.4375 L 3.953125,-6.625 C 3.875,-6.796875 3.875,-6.8125 3.640625,-6.8125 h -1.34375 c -0.1875,0 -0.28125,0 -0.28125,0.203125 0,0.109375 0.09375,0.109375 0.28125,0.109375 0.046875,0 0.671875,0 0.671875,0.09375 L 1.640625,-1.0625 c -0.109375,0.40625 -0.28125,0.71875 -1.078125,0.75 -0.0625,0 -0.171875,0.015625 -0.171875,0.203125 0,0.0625 0.046875,0.109375 0.125,0.109375 0.328125,0 0.671875,-0.03125 1,-0.03125 C 1.859375,-0.03125 2.21875,0 2.546875,0 2.59375,0 2.71875,0 2.71875,-0.203125 2.71875,-0.296875 2.625,-0.3125 2.515625,-0.3125 1.9375,-0.328125 1.859375,-0.546875 1.859375,-0.75 c 0,-0.0625 0.015625,-0.125 0.046875,-0.234375 l 1.3125,-5.25 C 3.265625,-6.1875 3.265625,-6.15625 3.3125,-6.0625 l 2.484375,5.875 C 5.859375,-0.015625 5.890625,0 5.984375,0 6.09375,0 6.09375,-0.03125 6.140625,-0.203125 Z m 0,0"
               id="path21081" />
          </g>
        </g>
      </g>
    </g>
    <g
       inkscape:label=""
       transform="translate(264.94482,212.24209)"
       id="g23375">
      <g
         fill="#000000"
         fill-opacity="1"
         id="g23365"
         transform="matrix(0.352778,0,0,0.352778,-83.5402,-2.45935)">
        <g
           id="g23363"
           transform="translate(236.213,16.737)">
          <path
             d="M 7.796875,-9.765625 H 0.59375 v 0.40625 H 0.875 c 1.03125,0 1.078125,0.15625 1.078125,0.6875 v 7.578125 c 0,0.53125 -0.046875,0.671875 -1.078125,0.671875 H 0.59375 V 0 c 0.34375,-0.03125 1.609375,-0.03125 2.046875,-0.03125 0.5,0 1.765625,0 2.171875,0.03125 V -0.421875 H 4.390625 c -1.25,0 -1.28125,-0.171875 -1.28125,-0.6875 V -8.78125 c 0,-0.46875 0.03125,-0.578125 0.65625,-0.578125 H 5.3125 c 1.96875,0 2.34375,0.78125 2.546875,2.796875 h 0.3125 z m 0,0"
             id="path23361" />
        </g>
      </g>
      <g
         clip-path="url(#clipPath7500)"
         id="g23373"
         transform="matrix(0.352778,0,0,0.352778,-83.5402,-2.45935)">
        <g
           fill="#000000"
           fill-opacity="1"
           id="g23371">
          <g
             id="g23369"
             transform="translate(244.99001,18.889)">
            <path
               d="m 1.578125,-0.78125 c -0.09375,0.390625 -0.109375,0.46875 -0.90625,0.46875 -0.15625,0 -0.265625,0 -0.265625,0.1875 C 0.40625,0 0.484375,0 0.671875,0 h 3.3125 c 2.0625,0 4.03125,-2.109375 4.03125,-4.28125 0,-1.40625 -0.84375,-2.53125 -2.34375,-2.53125 h -3.34375 c -0.1875,0 -0.296875,0 -0.296875,0.1875 0,0.125 0.078125,0.125 0.28125,0.125 0.125,0 0.3125,0.015625 0.421875,0.015625 0.171875,0.03125 0.21875,0.046875 0.21875,0.171875 0,0.03125 0,0.0625 -0.03125,0.1875 z M 3.734375,-6.125 C 3.828125,-6.46875 3.84375,-6.5 4.28125,-6.5 h 1.0625 c 0.96875,0 1.796875,0.53125 1.796875,1.84375 0,0.484375 -0.1875,2.125 -1.046875,3.21875 -0.28125,0.375 -1.0625,1.125 -2.296875,1.125 h -1.125 c -0.140625,0 -0.15625,0 -0.21875,0 -0.09375,-0.015625 -0.125,-0.03125 -0.125,-0.109375 0,-0.03125 0,-0.046875 0.046875,-0.21875 z m 0,0"
               id="path23367" />
          </g>
        </g>
      </g>
    </g>
    <g
       inkscape:label=""
       transform="translate(232.86974,192.64572)"
       id="g25675">
      <g
         clip-path="url(#clipPath997)"
         id="g25673"
         transform="matrix(0.352778,0,0,0.352778,-85.1294,-3.67202)">
        <g
           fill="#000000"
           fill-opacity="1"
           id="g25671">
          <g
             id="g25669"
             transform="translate(240.92101,16.737)">
            <path
               d="M 2.953125,-4.203125 C 2.984375,-4.28125 3.34375,-5 3.875,-5.46875 c 0.375,-0.34375 0.859375,-0.5625 1.421875,-0.5625 0.5625,0 0.765625,0.421875 0.765625,1 0,0.8125 -0.578125,2.453125 -0.875,3.21875 -0.125,0.34375 -0.203125,0.53125 -0.203125,0.796875 0,0.640625 0.453125,1.15625 1.140625,1.15625 1.328125,0 1.828125,-2.109375 1.828125,-2.1875 C 7.953125,-2.125 7.90625,-2.1875 7.8125,-2.1875 c -0.125,0 -0.140625,0.046875 -0.203125,0.296875 -0.34375,1.171875 -0.875,1.75 -1.4375,1.75 -0.140625,0 -0.375,-0.015625 -0.375,-0.46875 0,-0.359375 0.15625,-0.796875 0.234375,-1 C 6.328125,-2.390625 6.921875,-4 6.921875,-4.8125 c 0,-0.875 -0.5,-1.515625 -1.59375,-1.515625 -1.265625,0 -1.9375,0.90625 -2.203125,1.265625 C 3.078125,-5.875 2.5,-6.328125 1.859375,-6.328125 c -0.453125,0 -0.765625,0.28125 -1.015625,0.765625 -0.25,0.515625 -0.453125,1.375 -0.453125,1.4375 0,0.046875 0.046875,0.125 0.15625,0.125 0.109375,0 0.125,-0.015625 0.21875,-0.34375 0.21875,-0.875 0.484375,-1.6875 1.0625,-1.6875 0.328125,0 0.4375,0.21875 0.4375,0.65625 0,0.3125 -0.140625,0.875 -0.25,1.3125 L 1.625,-2.515625 c -0.0625,0.28125 -0.21875,0.921875 -0.296875,1.1875 -0.09375,0.359375 -0.25,1.046875 -0.25,1.109375 0,0.203125 0.15625,0.359375 0.375,0.359375 0.171875,0 0.375,-0.078125 0.484375,-0.296875 0.03125,-0.078125 0.15625,-0.578125 0.234375,-0.859375 l 0.3125,-1.296875 z m 0,0"
               id="path25667" />
          </g>
        </g>
      </g>
    </g>
    <path
       style="fill:none;stroke:#000000;stroke-width:0.3;stroke-dasharray:none;stroke-dashoffset:0;stroke-opacity:1;marker-end:url(#marker68317)"
       d="m 234.82144,200.98433 -4.16936,-7.62903"
       id="path26147" />
    <g
       inkscape:label=""
       transform="translate(241.51212,195.52456)"
       id="g4850">
      <g
         clip-path="url(#clipPath7289)"
         id="g4828"
         transform="matrix(0.352778,0,0,0.352778,-76.8406,-2.3932)">
        <g
           fill="#000000"
           fill-opacity="1"
           id="g36">
          <g
             id="g4825"
             transform="translate(217.269,16.737)">
            <path
               d="m 7.28125,-5.40625 c 0.1875,0 0.671875,0 0.671875,-0.453125 0,-0.328125 -0.28125,-0.328125 -0.53125,-0.328125 H 4.25 c -2.15625,0 -3.703125,2.40625 -3.703125,4.09375 0,1.21875 0.78125,2.234375 2.078125,2.234375 1.6875,0 3.546875,-1.8125 3.546875,-3.96875 0,-0.5625 -0.140625,-1.109375 -0.484375,-1.578125 z m -4.640625,5.265625 c -0.734375,0 -1.265625,-0.5625 -1.265625,-1.546875 0,-0.859375 0.515625,-3.71875 2.625,-3.71875 0.625,0 1.3125,0.296875 1.3125,1.40625 0,0.5 -0.234375,1.703125 -0.734375,2.53125 -0.515625,0.859375 -1.296875,1.328125 -1.9375,1.328125 z m 0,0"
               id="path64" />
          </g>
        </g>
      </g>
      <g
         fill="#000000"
         fill-opacity="1"
         id="g4833"
         transform="matrix(0.352778,0,0,0.352778,-76.8406,-2.3932)">
        <g
           id="g4831"
           transform="translate(228.95599,16.737)">
          <path
             d="M 2.75,-3.578125 C 2.75,-4 2.40625,-4.34375 2,-4.34375 c -0.421875,0 -0.765625,0.34375 -0.765625,0.765625 0,0.40625 0.34375,0.75 0.765625,0.75 0.40625,0 0.75,-0.34375 0.75,-0.75 z m 0,0"
             id="path68" />
        </g>
      </g>
      <g
         clip-path="url(#clipPath63042)"
         id="g48"
         transform="matrix(0.352778,0,0,0.352778,-76.8406,-2.3932)">
        <g
           fill="#000000"
           fill-opacity="1"
           id="g4838">
          <g
             id="g4836"
             transform="translate(236.129,16.737)">
            <path
               d="m 7.609375,-4.390625 c 0,-1.359375 -0.578125,-2.0625 -2.15625,-2.0625 -1.03125,0 -1.921875,0.5 -2.40625,1.578125 H 3.03125 V -6.453125 L 0.609375,-6.34375 v 0.625 c 0.875,0 0.984375,0 0.984375,0.5625 v 4.546875 H 0.609375 V 0 c 0.328125,-0.03125 1.359375,-0.03125 1.75,-0.03125 0.40625,0 1.453125,0 1.78125,0.03125 V -0.609375 H 3.15625 v -3.0625 c 0,-1.546875 1.140625,-2.3125 2.0625,-2.3125 0.53125,0 0.828125,0.34375 0.828125,1.4375 v 3.9375 H 5.0625 V 0 c 0.328125,-0.03125 1.359375,-0.03125 1.765625,-0.03125 0.40625,0 1.453125,0 1.78125,0.03125 v -0.609375 h -1 z m 0,0"
               id="path72" />
          </g>
        </g>
      </g>
      <g
         fill="#000000"
         fill-opacity="1"
         id="g52"
         transform="matrix(0.352778,0,0,0.352778,-76.8406,-2.3932)">
        <g
           id="use50"
           transform="translate(249.08099,16.737)">
          <path
             d="m 9.6875,-4.640625 c 0.203125,0 0.453125,0 0.453125,-0.265625 0,-0.265625 -0.25,-0.265625 -0.453125,-0.265625 H 1.234375 c -0.203125,0 -0.453125,0 -0.453125,0.25 0,0.28125 0.234375,0.28125 0.453125,0.28125 z m 0,2.65625 c 0.203125,0 0.453125,0 0.453125,-0.25 0,-0.28125 -0.25,-0.28125 -0.453125,-0.28125 H 1.234375 c -0.203125,0 -0.453125,0 -0.453125,0.265625 0,0.265625 0.234375,0.265625 0.453125,0.265625 z m 0,0"
             id="path76" />
        </g>
      </g>
      <g
         clip-path="url(#clipPath61677)"
         id="g58"
         transform="matrix(0.352778,0,0,0.352778,-76.8406,-2.3932)">
        <g
           fill="#000000"
           fill-opacity="1"
           id="g4847">
          <g
             id="g4845"
             transform="translate(263.991,16.737)">
            <path
               d="m 7.609375,-4.390625 c 0,-1.359375 -0.578125,-2.0625 -2.15625,-2.0625 C 4,-6.453125 3.296875,-5.4375 3.09375,-5 H 3.078125 v -4.953125 l -2.46875,0.109375 v 0.625 c 0.875,0 0.984375,0 0.984375,0.5625 v 8.046875 H 0.609375 V 0 c 0.328125,-0.03125 1.359375,-0.03125 1.75,-0.03125 0.40625,0 1.453125,0 1.78125,0.03125 V -0.609375 H 3.15625 v -3.0625 c 0,-1.546875 1.140625,-2.3125 2.0625,-2.3125 0.53125,0 0.828125,0.34375 0.828125,1.4375 v 3.9375 H 5.0625 V 0 c 0.328125,-0.03125 1.359375,-0.03125 1.765625,-0.03125 0.40625,0 1.453125,0 1.78125,0.03125 v -0.609375 h -1 z m 0,0"
               id="path80" />
          </g>
        </g>
      </g>
    </g>
    <g
       inkscape:label=""
       transform="translate(252.17575,236.42271)"
       id="g7294">
      <g
         fill="#000000"
         fill-opacity="1"
         id="g7280"
         transform="matrix(0.352778,0,0,0.352778,-80.3082,-3.59485)">
        <g
           id="g7278"
           transform="translate(227.036,16.737)">
          <path
             d="m 5.0625,-6.34375 v 0.625 c 0.890625,0 0.984375,0 0.984375,0.5625 v 2.796875 c 0,1.09375 -0.640625,1.96875 -1.765625,1.96875 -1.0625,0 -1.125,-0.359375 -1.125,-1.140625 V -6.453125 L 0.609375,-6.34375 v 0.625 c 0.875,0 0.984375,0 0.984375,0.5625 v 3.390625 c 0,1.4375 0.953125,1.859375 2.5,1.859375 0.34375,0 1.40625,0 2.015625,-1.171875 H 6.125 V 0.09375 L 8.609375,0 v -0.609375 c -0.890625,0 -1,0 -1,-0.5625 v -5.28125 z m 0,0"
             id="path38" />
        </g>
      </g>
      <g
         fill="#000000"
         fill-opacity="1"
         id="g7285"
         transform="matrix(0.352778,0,0,0.352778,-80.3082,-3.59485)">
        <g
           id="g7283"
           transform="translate(239.987,16.737)">
          <path
             d="m 9.6875,-4.640625 c 0.203125,0 0.453125,0 0.453125,-0.265625 0,-0.265625 -0.25,-0.265625 -0.453125,-0.265625 H 1.234375 c -0.203125,0 -0.453125,0 -0.453125,0.25 0,0.28125 0.234375,0.28125 0.453125,0.28125 z m 0,2.65625 c 0.203125,0 0.453125,0 0.453125,-0.25 0,-0.28125 -0.25,-0.28125 -0.453125,-0.28125 H 1.234375 c -0.203125,0 -0.453125,0 -0.453125,0.265625 0,0.265625 0.234375,0.265625 0.453125,0.265625 z m 0,0"
             id="path42" />
        </g>
      </g>
      <g
         clip-path="url(#clipPath3415)"
         id="g7292"
         transform="matrix(0.352778,0,0,0.352778,-80.3082,-3.59485)">
        <g
           fill="#000000"
           fill-opacity="1"
           id="g7290">
          <g
             id="g7288"
             transform="translate(254.89799,16.737)">
            <path
               d="m 1.859375,-2.609375 c 0.6875,0.375 1.5,0.375 1.71875,0.375 1.96875,0 2.765625,-1.109375 2.765625,-2.109375 0,-0.734375 -0.421875,-1.25 -0.59375,-1.390625 0.421875,-0.234375 0.765625,-0.296875 1,-0.3125 -0.03125,0.0625 -0.078125,0.125 -0.078125,0.3125 0,0.296875 0.203125,0.578125 0.578125,0.578125 0.359375,0 0.5625,-0.28125 0.5625,-0.578125 0,-0.34375 -0.25,-0.8125 -0.859375,-0.8125 -0.609375,0 -1.203125,0.3125 -1.5,0.5625 -0.59375,-0.34375 -1.15625,-0.46875 -1.875,-0.46875 -1.984375,0 -2.78125,1.109375 -2.78125,2.109375 0,0.4375 0.15625,1.03125 0.75,1.515625 -0.234375,0.28125 -0.5,0.78125 -0.5,1.296875 0,0.609375 0.328125,1.140625 0.625,1.375 C 1.328125,-0.078125 0.4375,0.265625 0.4375,1.078125 c 0,0.84375 0.9375,1.8125 3.578125,1.8125 2.375,0 3.59375,-0.78125 3.59375,-1.859375 0,-1.265625 -0.84375,-1.671875 -1.203125,-1.84375 -0.6875,-0.34375 -1.59375,-0.34375 -2.859375,-0.34375 -0.359375,0 -1,0 -1.0625,-0.015625 C 1.859375,-1.28125 1.6875,-1.828125 1.6875,-2.09375 c 0,-0.109375 0.015625,-0.328125 0.171875,-0.515625 z m 1.71875,-0.09375 c -1.25,0 -1.25,-0.984375 -1.25,-1.640625 0,-0.65625 0,-1.65625 1.25,-1.65625 1.234375,0 1.234375,1 1.234375,1.65625 0,0.65625 0,1.640625 -1.234375,1.640625 z M 4.375,0.15625 c 1.046875,0 2.046875,0.1875 2.046875,0.9375 0,0.5 -0.5,1.328125 -2.390625,1.328125 C 2.140625,2.421875 1.625,1.625 1.625,1.078125 1.625,0.15625 2.53125,0.15625 2.734375,0.15625 Z m 0,0"
               id="path46" />
          </g>
        </g>
      </g>
    </g>
    <path
       style="fill:none;stroke:#000000;stroke-width:0.26458333;stroke-dasharray:none;stroke-dashoffset:0.211667;stroke-opacity:1;marker-end:url(#TriangleStart)"
       d="M 220.72468,251.34186 V 190.48769"
       id="path9189" />
    <path
       style="fill:none;stroke:#000000;stroke-width:0.26458333;stroke-dasharray:none;stroke-dashoffset:0.8;stroke-opacity:1;marker-end:url(#TriangleStart)"
       d="m 212.78718,243.40436 h 60.85416"
       id="path9191" />
    <g
       inkscape:label=""
       transform="translate(232.86974,192.64572)"
       id="g9279">
      <g
         clip-path="url(#clipPath997)"
         id="g9277"
         transform="matrix(0.352778,0,0,0.352778,-85.1294,-3.67202)">
        <g
           fill="#000000"
           fill-opacity="1"
           id="g9275">
          <g
             id="g9273"
             transform="translate(240.92101,16.737)">
            <path
               d="M 2.953125,-4.203125 C 2.984375,-4.28125 3.34375,-5 3.875,-5.46875 c 0.375,-0.34375 0.859375,-0.5625 1.421875,-0.5625 0.5625,0 0.765625,0.421875 0.765625,1 0,0.8125 -0.578125,2.453125 -0.875,3.21875 -0.125,0.34375 -0.203125,0.53125 -0.203125,0.796875 0,0.640625 0.453125,1.15625 1.140625,1.15625 1.328125,0 1.828125,-2.109375 1.828125,-2.1875 C 7.953125,-2.125 7.90625,-2.1875 7.8125,-2.1875 c -0.125,0 -0.140625,0.046875 -0.203125,0.296875 -0.34375,1.171875 -0.875,1.75 -1.4375,1.75 -0.140625,0 -0.375,-0.015625 -0.375,-0.46875 0,-0.359375 0.15625,-0.796875 0.234375,-1 C 6.328125,-2.390625 6.921875,-4 6.921875,-4.8125 c 0,-0.875 -0.5,-1.515625 -1.59375,-1.515625 -1.265625,0 -1.9375,0.90625 -2.203125,1.265625 C 3.078125,-5.875 2.5,-6.328125 1.859375,-6.328125 c -0.453125,0 -0.765625,0.28125 -1.015625,0.765625 -0.25,0.515625 -0.453125,1.375 -0.453125,1.4375 0,0.046875 0.046875,0.125 0.15625,0.125 0.109375,0 0.125,-0.015625 0.21875,-0.34375 0.21875,-0.875 0.484375,-1.6875 1.0625,-1.6875 0.328125,0 0.4375,0.21875 0.4375,0.65625 0,0.3125 -0.140625,0.875 -0.25,1.3125 L 1.625,-2.515625 c -0.0625,0.28125 -0.21875,0.921875 -0.296875,1.1875 -0.09375,0.359375 -0.25,1.046875 -0.25,1.109375 0,0.203125 0.15625,0.359375 0.375,0.359375 0.171875,0 0.375,-0.078125 0.484375,-0.296875 0.03125,-0.078125 0.15625,-0.578125 0.234375,-0.859375 l 0.3125,-1.296875 z m 0,0"
               id="path9271" />
          </g>
        </g>
      </g>
    </g>
  </g>
</svg>
