<?xml version="1.0" encoding="UTF-8" standalone="no"?>
<!-- Created with Inkscape (http://www.inkscape.org/) -->

<svg
   width="109.92124mm"
   height="55.773502mm"
   viewBox="0 0 109.92124 55.773503"
   version="1.1"
   id="svg5"
   inkscape:version="1.2.1 (9c6d41e410, 2022-07-14)"
   sodipodi:docname="Dom_Comp.svg"
   xmlns:inkscape="http://www.inkscape.org/namespaces/inkscape"
   xmlns:sodipodi="http://sodipodi.sourceforge.net/DTD/sodipodi-0.dtd"
   xmlns:xlink="http://www.w3.org/1999/xlink"
   xmlns="http://www.w3.org/2000/svg"
   xmlns:svg="http://www.w3.org/2000/svg">
  <sodipodi:namedview
     id="namedview7"
     pagecolor="#ffffff"
     bordercolor="#000000"
     borderopacity="0.25"
     inkscape:showpageshadow="2"
     inkscape:pageopacity="0.0"
     inkscape:pagecheckerboard="0"
     inkscape:deskcolor="#d1d1d1"
     inkscape:document-units="mm"
     showgrid="false"
     inkscape:lockguides="false"
     inkscape:zoom="2.7100102"
     inkscape:cx="199.63024"
     inkscape:cy="112.1767"
     inkscape:window-width="1920"
     inkscape:window-height="1017"
     inkscape:window-x="1912"
     inkscape:window-y="-8"
     inkscape:window-maximized="1"
     inkscape:current-layer="layer1">
    <inkscape:grid
       type="xygrid"
       id="grid132"
       enabled="false"
       originx="-90.27121"
       originy="-115.44145" />
    <inkscape:grid
       type="axonomgrid"
       id="grid136"
       originx="-90.27121"
       originy="-115.44145" />
  </sodipodi:namedview>
  <defs
     id="defs2">
    <linearGradient
       inkscape:collect="always"
       id="linearGradient28188">
      <stop
         style="stop-color:#000000;stop-opacity:0.30000001;"
         offset="0"
         id="stop28184" />
      <stop
         style="stop-color:#000000;stop-opacity:0;"
         offset="1"
         id="stop28186" />
    </linearGradient>
    <linearGradient
       inkscape:collect="always"
       id="linearGradient25724">
      <stop
         style="stop-color:#000000;stop-opacity:0;"
         offset="0"
         id="stop25720" />
      <stop
         style="stop-color:#000000;stop-opacity:0.40000001;"
         offset="1"
         id="stop25722" />
    </linearGradient>
    <linearGradient
       inkscape:collect="always"
       id="linearGradient24006">
      <stop
         style="stop-color:#000000;stop-opacity:0;"
         offset="0"
         id="stop24002" />
      <stop
         style="stop-color:#000000;stop-opacity:0.30000001;"
         offset="1"
         id="stop24004" />
    </linearGradient>
    <linearGradient
       id="linearGradient22717">
      <stop
         style="stop-color:#000000;stop-opacity:0.5;"
         offset="0"
         id="stop23167" />
      <stop
         style="stop-color:#000000;stop-opacity:0;"
         offset="1"
         id="stop23169" />
    </linearGradient>
    <marker
       style="overflow:visible"
       id="TriangleStart"
       refX="0"
       refY="0"
       orient="auto-start-reverse"
       inkscape:stockid="TriangleStart"
       markerWidth="10"
       markerHeight="5"
       viewBox="0 0 5.3244081 6.1553851"
       inkscape:isstock="true"
       inkscape:collect="always"
       preserveAspectRatio="none">
      <path
         transform="scale(0.5)"
         style="fill:context-stroke;fill-rule:evenodd;stroke:context-stroke;stroke-width:1pt"
         d="M 5.77,0 -2.88,5 V -5 Z"
         id="path135" />
    </marker>
    <clipPath
       clipPathUnits="userSpaceOnUse"
       id="clipPath3891">
      <g
         id="g3895">
        <path
           d="M 982,719 H 19123 V 13556 H 982 V 719"
           id="path3893" />
      </g>
    </clipPath>
    <clipPath
       clipPathUnits="userSpaceOnUse"
       id="clipPath3885">
      <g
         id="g3889">
        <path
           d="M 982,719 H 19123 V 13556 H 982 V 719"
           id="path3887" />
      </g>
    </clipPath>
    <clipPath
       clipPathUnits="userSpaceOnUse"
       id="clipPath3879">
      <g
         id="g3883">
        <path
           d="M 982,719 H 19123 V 13556 H 982 V 719"
           id="path3881" />
      </g>
    </clipPath>
    <clipPath
       clipPathUnits="userSpaceOnUse"
       id="clipPath3873">
      <g
         id="g3877">
        <path
           d="M 982,719 H 19123 V 13556 H 982 V 719"
           id="path3875" />
      </g>
    </clipPath>
    <clipPath
       clipPathUnits="userSpaceOnUse"
       id="clipPath3867">
      <g
         id="g3871">
        <path
           d="M 982,719 H 19123 V 13556 H 982 V 719"
           id="path3869" />
      </g>
    </clipPath>
    <clipPath
       clipPathUnits="userSpaceOnUse"
       id="clipPath3861">
      <g
         id="g3865">
        <path
           d="M 982,719 H 19123 V 13556 H 982 V 719"
           id="path3863" />
      </g>
    </clipPath>
    <clipPath
       clipPathUnits="userSpaceOnUse"
       id="clipPath3855">
      <g
         id="g3859">
        <path
           d="M 982,719 H 19123 V 13556 H 982 V 719"
           id="path3857" />
      </g>
    </clipPath>
    <clipPath
       clipPathUnits="userSpaceOnUse"
       id="clipPath3849">
      <g
         id="g3853">
        <path
           d="M 982,719 H 19123 V 13556 H 982 V 719"
           id="path3851" />
      </g>
    </clipPath>
    <clipPath
       clipPathUnits="userSpaceOnUse"
       id="clipPath3843">
      <g
         id="g3847">
        <path
           d="M 982,719 H 19123 V 13556 H 982 V 719"
           id="path3845" />
      </g>
    </clipPath>
    <clipPath
       clipPathUnits="userSpaceOnUse"
       id="clipPath3837">
      <g
         id="g3841">
        <path
           d="M 982,719 H 19123 V 13556 H 982 V 719"
           id="path3839" />
      </g>
    </clipPath>
    <clipPath
       clipPathUnits="userSpaceOnUse"
       id="clipPath3831">
      <g
         id="g3835">
        <path
           d="M 982,719 H 19123 V 13556 H 982 V 719"
           id="path3833" />
      </g>
    </clipPath>
    <clipPath
       clipPathUnits="userSpaceOnUse"
       id="clipPath7564">
      <g
         id="g7568">
        <path
           d="M 982,719 H 19123 V 13556 H 982 V 719"
           id="path7566" />
      </g>
    </clipPath>
    <clipPath
       clipPathUnits="userSpaceOnUse"
       id="clipPath7558">
      <g
         id="g7562">
        <path
           d="M 982,719 H 19123 V 13556 H 982 V 719"
           id="path7560" />
      </g>
    </clipPath>
    <clipPath
       clipPathUnits="userSpaceOnUse"
       id="clipPath7552">
      <g
         id="g7556">
        <path
           d="M 982,719 H 19123 V 13556 H 982 V 719"
           id="path7554" />
      </g>
    </clipPath>
    <clipPath
       clipPathUnits="userSpaceOnUse"
       id="clipPath7546">
      <g
         id="g7550">
        <path
           d="M 982,719 H 19123 V 13556 H 982 V 719"
           id="path7548" />
      </g>
    </clipPath>
    <clipPath
       clipPathUnits="userSpaceOnUse"
       id="clipPath7540">
      <g
         id="g7544">
        <path
           d="M 982,719 H 19123 V 13556 H 982 V 719"
           id="path7542" />
      </g>
    </clipPath>
    <clipPath
       clipPathUnits="userSpaceOnUse"
       id="clipPath7534">
      <g
         id="g7538">
        <path
           d="M 982,719 H 19123 V 13556 H 982 V 719"
           id="path7536" />
      </g>
    </clipPath>
    <clipPath
       clipPathUnits="userSpaceOnUse"
       id="clipPath7528">
      <g
         id="g7532">
        <path
           d="M 982,719 H 19123 V 13556 H 982 V 719"
           id="path7530" />
      </g>
    </clipPath>
    <clipPath
       clipPathUnits="userSpaceOnUse"
       id="clipPath7522">
      <g
         id="g7526">
        <path
           d="M 982,719 H 19123 V 13556 H 982 V 719"
           id="path7524" />
      </g>
    </clipPath>
    <clipPath
       clipPathUnits="userSpaceOnUse"
       id="clipPath7516">
      <g
         id="g7520">
        <path
           d="M 982,719 H 19123 V 13556 H 982 V 719"
           id="path7518" />
      </g>
    </clipPath>
    <clipPath
       clipPathUnits="userSpaceOnUse"
       id="clipPath7510">
      <g
         id="g7514">
        <path
           d="M 982,719 H 19123 V 13556 H 982 V 719"
           id="path7512" />
      </g>
    </clipPath>
    <clipPath
       clipPathUnits="userSpaceOnUse"
       id="clipPath7504">
      <g
         id="g7508">
        <path
           d="M 982,719 H 19123 V 13556 H 982 V 719"
           id="path7506" />
      </g>
    </clipPath>
    <clipPath
       id="clipPath663">
      <path
         clip-rule="nonzero"
         d="m 218,9 h 6 v 7.769531 h -6 z m 0,0"
         id="path6307" />
    </clipPath>
    <clipPath
       id="clipPath8593">
      <path
         clip-rule="nonzero"
         d="m 224,10 h 4 v 6.769531 h -4 z m 0,0"
         id="path9816" />
    </clipPath>
    <clipPath
       id="clipPath1347">
      <path
         clip-rule="nonzero"
         d="m 218,9 h 6 v 7.769531 h -6 z m 0,0"
         id="path2744" />
    </clipPath>
    <clipPath
       id="clipPath224">
      <path
         clip-rule="nonzero"
         d="m 224,10 h 4 v 6.769531 h -4 z m 0,0"
         id="path4737" />
    </clipPath>
    <clipPath
       id="clipPath4486">
      <path
         clip-rule="nonzero"
         d="m 218,9 h 6 v 7.769531 h -6 z m 0,0"
         id="path9778" />
    </clipPath>
    <clipPath
       id="clipPath6233">
      <path
         clip-rule="nonzero"
         d="m 224,10 h 4 v 6.769531 h -4 z m 0,0"
         id="path9827" />
    </clipPath>
    <clipPath
       id="clipPath8532">
      <path
         clip-rule="nonzero"
         d="m 224,10 h 7 v 6.238281 h -7 z m 0,0"
         id="path5167" />
    </clipPath>
    <clipPath
       id="clipPath1903">
      <path
         clip-rule="nonzero"
         d="m 224,10 h 7 v 6.238281 h -7 z m 0,0"
         id="path661" />
    </clipPath>
    <clipPath
       id="clipPath858">
      <path
         clip-rule="nonzero"
         d="m 219,10 h 15 v 6.238281 h -15 z m 0,0"
         id="path1681" />
    </clipPath>
    <clipPath
       id="clipPath1910">
      <path
         clip-rule="nonzero"
         d="m 223,10 h 7 v 6.238281 h -7 z m 0,0"
         id="path1914" />
    </clipPath>
    <clipPath
       id="clipPath5424">
      <path
         clip-rule="nonzero"
         d="m 223,10 h 7 v 6.238281 h -7 z m 0,0"
         id="path7380" />
    </clipPath>
    <clipPath
       id="clipPath5100">
      <path
         clip-rule="nonzero"
         d="m 224,10 h 6 v 6.238281 h -6 z m 0,0"
         id="path9824" />
    </clipPath>
    <clipPath
       id="clipPath245">
      <path
         clip-rule="nonzero"
         d="m 224,10 h 7 v 6.238281 h -7 z m 0,0"
         id="path8404" />
    </clipPath>
    <clipPath
       id="clipPath7118">
      <path
         clip-rule="nonzero"
         d="m 224,10 h 6 v 6.238281 h -6 z m 0,0"
         id="path9385" />
    </clipPath>
    <radialGradient
       inkscape:collect="always"
       xlink:href="#linearGradient24006"
       id="radialGradient24008"
       cx="487.67673"
       cy="32.905006"
       fx="487.67673"
       fy="32.905006"
       r="134.51006"
       gradientTransform="matrix(-0.30255959,0.11469438,-0.0918974,-0.24242194,332.81592,78.101992)"
       gradientUnits="userSpaceOnUse" />
    <radialGradient
       inkscape:collect="always"
       xlink:href="#linearGradient25724"
       id="radialGradient25740"
       cx="325.51962"
       cy="103.07557"
       fx="325.51962"
       fy="103.07557"
       r="32.923409"
       gradientTransform="matrix(0.04985857,0.37536813,-0.54247855,0.07205514,184.10326,9.2986278)"
       gradientUnits="userSpaceOnUse" />
    <radialGradient
       inkscape:collect="always"
       xlink:href="#linearGradient28188"
       id="radialGradient35368"
       cx="278.60416"
       cy="154.23967"
       fx="278.60416"
       fy="154.23967"
       r="52.425442"
       gradientTransform="matrix(0.7004995,-0.1344206,0.11418773,0.59506098,-74.028711,95.639185)"
       gradientUnits="userSpaceOnUse" />
    <clipPath
       id="clipPath1434">
      <path
         clip-rule="nonzero"
         d="m 217,9 h 8 v 5.445313 h -8 z m 0,0"
         id="path6920" />
    </clipPath>
    <clipPath
       id="clipPath3383">
      <path
         clip-rule="nonzero"
         d="m 216,9 h 9 v 5.445313 h -9 z m 0,0"
         id="path2931" />
    </clipPath>
  </defs>
  <g
     inkscape:label="Camada 1"
     inkscape:groupmode="layer"
     id="layer1"
     transform="translate(-90.2712, -115.442)">
    <path
       style="fill:none;fill-opacity:1;stroke:#000000;stroke-width:0.10509;stroke-dasharray:none;stroke-dashoffset:0;stroke-opacity:1"
       d="m 133.40669,151.72886 c 1.56982,0.16452 2.23476,-0.80129 2.23476,-0.80129"
       id="path17997" />
    <path
       style="fill:url(#radialGradient24008);fill-opacity:1;stroke:none;stroke-width:0.0406253;stroke-dasharray:none;stroke-dashoffset:0;stroke-opacity:0.5"
       d="m 173.60008,115.57634 c -3.98298,-0.0354 -7.93239,0.82139 -11.61294,2.32125 -5.81648,2.30439 -11.3545,5.33623 -17.3832,7.08124 -0.33608,0.15801 -1.59091,0.48699 -1.63477,0.55052 0.47752,0.1412 1.82714,0.34198 2.38596,0.62613 3.04696,1.05808 5.35428,3.423 7.35085,5.84169 2.2545,2.79518 3.97959,6.0353 4.69678,9.56579 1.05944,4.74147 1.36906,9.6931 0.7803,14.52338 -0.42447,3.39596 -1.80029,6.77599 -4.40432,9.08168 -0.2683,0.37919 -1.2295,1.0363 -1.48035,1.17989 0.4113,0.0373 1.41471,-0.16224 1.80899,-0.0875 8.88585,-1.11138 17.83428,-1.94315 26.58365,-3.91833 3.37571,-0.87276 6.74286,-1.90592 9.87221,-3.46226 4.68945,-2.49208 8.11396,-7.21051 8.97575,-12.45793 0.95246,-4.19165 0.56655,-8.56392 -0.3364,-12.72707 -0.88788,-3.65454 -2.88682,-6.96555 -5.28611,-9.82608 -2.79633,-3.10271 -6.51211,-5.27342 -10.38979,-6.74398 -3.17574,-1.17005 -6.55068,-1.63429 -9.92661,-1.5484 z"
       id="path24000"
       sodipodi:nodetypes="cccccccccccccccccc" />
    <path
       id="path25708"
       style="fill:url(#radialGradient25740);fill-opacity:1;stroke:none;stroke-width:0.0287265;stroke-dasharray:none;stroke-dashoffset:0;stroke-opacity:0.5"
       d="m 143.07475,138.64498 c -0.33911,-0.004 -0.8589,0.0888 -0.86206,0.52053 -0.25177,-0.3648 -0.68493,0.10091 -0.97701,0.18144 -1.3375,0.69281 -2.60587,1.54436 -3.73314,2.54103 -0.0965,0.28508 -0.15571,0.26657 -0.40681,0.38218 -1.34909,1.33919 -2.13747,3.14498 -2.61944,4.95851 -0.065,0.32895 -0.14664,0.71295 0.0291,1.01272 -0.17066,0.23196 -0.0762,0.44256 0.1014,0.59482 -0.4361,0.17367 -0.0763,0.73024 0.0218,1.03243 0.65366,1.19535 2.10898,1.7737 3.42608,1.70278 2.17555,-0.0184 4.35747,0.0221 6.52828,-0.12398 0.21079,-0.0391 0.23497,-0.24396 0.41092,-0.0378 0.68948,0.14493 1.30844,-0.25453 1.77954,-0.71675 0.62124,-0.53394 1.19667,-1.26612 1.24548,-2.10549 -0.0262,-0.0878 -0.0964,-0.14273 -0.17816,-0.16789 0.58891,-0.35379 0.324,-1.20094 0.39326,-1.75984 -0.0116,-1.50987 -0.21899,-3.06128 -0.83989,-4.44496 -0.11134,-0.12517 -0.27296,-0.0987 -0.16462,-0.2927 -0.37524,-1.04055 -1.19782,-1.86753 -2.01928,-2.58454 -0.58353,-0.50816 -1.3777,-0.69439 -2.13545,-0.69253 z" />
    <path
       id="path28172"
       style="fill:url(#radialGradient35368);fill-opacity:1;stroke:none;stroke-width:0.0287265;stroke-dasharray:none;stroke-dashoffset:0;stroke-opacity:0.5"
       d="m 142.81121,125.59499 c -1.09174,-0.0191 -2.20782,0.38236 -2.90516,1.25081 -0.97833,1.02873 -1.5575,2.35915 -1.84481,3.73643 -0.84057,3.54383 -1.20721,7.18044 -1.43267,10.80945 0.06,0.11249 0.1462,0.24544 0.24672,0.36453 -0.43119,0.0634 -0.4281,1.05959 0.0895,0.76806 0.20957,-0.11005 0.30286,-0.32726 0.25861,-0.50369 0.0524,0.0175 0.10611,0.0294 0.16298,0.0271 1.16272,-0.86661 2.3017,-1.77523 3.59972,-2.43512 0.69172,-0.33948 1.38361,-0.73795 2.13259,-0.92118 0.17673,0.15867 0.45152,0.10285 0.61165,0.0554 0.7054,0.22255 1.40002,0.5364 1.91912,1.08784 2.00926,1.91926 2.57435,4.87519 2.44579,7.53197 -0.0314,1.25235 -0.43839,2.58021 -1.49834,3.3407 -0.2164,0.14667 -0.36038,0.41792 -0.53859,0.5665 -2.88353,0.16609 -5.77818,0.0827 -8.6625,0.21428 -0.40704,0.005 -0.35855,0.47236 -0.2537,0.74096 0.47711,3.10337 1.58742,6.17316 3.63668,8.59313 1.61917,1.94039 3.48582,3.76486 5.76433,4.90884 1.38901,0.56757 2.87353,1.20113 4.40473,1.01846 0.51206,-0.21863 1.12365,-0.20671 1.60139,-0.54515 1.78645,-1.05461 3.07088,-2.7809 4.08576,-4.55416 1.50502,-2.94128 1.8789,-6.31086 1.96551,-9.56972 0.0155,-4.57772 -0.46487,-9.21776 -1.97125,-13.56189 -1.42832,-3.77136 -3.92376,-7.08215 -6.88132,-9.79345 -1.91797,-1.68662 -4.31156,-3.1133 -6.93673,-3.13011 z m 9.15593,16.20597 c -0.18812,0.21292 0.27778,0.38155 0.006,0.50615 -0.27899,0.26134 -0.56723,0.5124 -0.85714,0.76149 0.13689,-0.40351 0.36788,-0.9189 0.43062,-1.2463 0.12413,0.11018 0.34969,0.0383 0.42036,-0.0213 z" />
    <path
       style="fill:none;fill-opacity:1;stroke:#000000;stroke-width:0.264583;stroke-dasharray:0.529168;stroke-dashoffset:0;stroke-opacity:1"
       d="m 145.77803,151.39226 c 0,0 -1.51686,-0.413 -2.11728,-0.79398 -0.60043,-0.38098 -0.96735,-0.59218 -1.43673,-1.39892 -0.46938,-0.80673 -0.77595,-2.17911 -0.9074,-3.47838 -0.13146,-1.29927 0.0784,-3.21451 0.22685,-4.23456 0.14846,-1.02004 0.21738,-1.43163 0.4537,-1.89043 0.23632,-0.45879 0.75618,-0.8696 0.75618,-0.8696"
       id="path17131"
       sodipodi:nodetypes="czzzzzc" />
    <path
       style="fill:none;fill-opacity:1;stroke:#000000;stroke-width:0.264583;stroke-dasharray:none;stroke-dashoffset:0;stroke-opacity:1"
       d="m 136.62836,142.84753 c 0,0 0.20005,-4.21949 0.4537,-6.27622 0.25364,-2.05673 0.66438,-4.62047 1.05864,-6.04937 0.39427,-1.42891 0.48129,-1.79727 0.98302,-2.57098 0.50173,-0.77372 1.03417,-1.55501 1.96605,-1.96605 0.93187,-0.41103 1.91213,-0.46087 3.32715,-0.15123 1.41501,0.30963 2.91331,0.98608 4.76387,2.45756 1.85057,1.47147 4.31051,4.35385 5.7091,6.72992 1.39858,2.37607 2.02658,4.07755 2.72221,7.22143 0.69563,3.14388 1.15541,8.25727 0.8696,11.56942 -0.28581,3.31214 -0.81617,5.94242 -2.04166,8.09103 -1.2255,2.14862 -2.88722,3.96455 -4.61264,4.57484 -1.72542,0.61028 -3.02174,0.045 -4.46142,-0.45371 -1.43967,-0.49862 -2.65435,-1.40793 -3.93208,-2.49536 -1.27774,-1.08743 -2.68023,-2.66507 -3.59182,-4.04551 -0.91158,-1.38045 -1.47426,-2.73525 -1.92823,-4.08333 -0.45397,-1.34808 -0.83179,-3.93209 -0.83179,-3.93209"
       id="path16959"
       sodipodi:nodetypes="czzzzzzzzzzzzzzzc" />
    <path
       style="fill:none;fill-opacity:1;stroke:#000000;stroke-width:0.264583;stroke-dasharray:none;stroke-dashoffset:0;stroke-opacity:1"
       d="m 142.1484,125.68244 c 0,0 2.94826,-0.73716 4.76388,-1.3611 1.81562,-0.62394 3.68962,-1.44294 6.08718,-2.45756 2.39756,-1.01462 6.08004,-2.8128 8.28007,-3.66743 2.20003,-0.85463 3.25869,-1.22001 4.8395,-1.62577 1.58082,-0.40575 2.6918,-0.6653 4.61265,-0.83178 1.92084,-0.16649 4.47769,-0.28232 6.88115,0.0378 2.40345,0.32013 4.82982,0.83028 7.41047,1.96605 2.58066,1.13577 5.66478,2.96708 7.78857,4.99073 2.12379,2.02364 3.75153,4.61246 4.83949,6.80554 1.08797,2.19308 1.46694,3.64228 1.89043,6.04937 0.42349,2.40708 0.6992,5.57259 0.37809,8.31788 -0.32111,2.74528 -0.964,5.57917 -2.26852,7.93979 -1.30451,2.36062 -2.8939,4.17748 -5.29319,5.89814 -2.39929,1.72066 -5.54443,2.77663 -8.99844,3.85647 -3.454,1.07985 -8.09311,1.78206 -11.68285,2.38194 -3.58974,0.59987 -6.3834,0.84996 -9.83022,1.28549 -3.44682,0.43554 -10.85105,1.3233 -10.85105,1.3233"
       id="path17123"
       sodipodi:nodetypes="czzzzzzzzzzzzzzzzc" />
    <path
       style="fill:none;fill-opacity:1;stroke:#000000;stroke-width:0.264583;stroke-dasharray:0.529168;stroke-dashoffset:0;stroke-opacity:1"
       d="m 150.0882,166.66692 c 0,0 -7.69407,0.57263 -11.9475,0.86959 -4.25343,0.29696 -9.67412,0.82994 -13.57328,0.90741 -3.89915,0.0774 -6.99858,0.17968 -9.79241,-0.26466 -2.79382,-0.44434 -5.1135,-0.96489 -6.88115,-2.04166 -1.76766,-1.07676 -2.85404,-2.4394 -3.62962,-3.78085 -0.77558,-1.34146 -0.91686,-2.37041 -1.13426,-3.89428 -0.21741,-1.52388 -0.20445,-3.01113 0,-5.17978 0.20445,-2.16864 0.79977,-5.27436 1.47453,-7.75075 0.67476,-2.4764 1.47761,-5.03581 2.53318,-7.0702 1.05557,-2.03439 2.04596,-3.65677 3.59181,-5.10416 1.54585,-1.44739 3.24955,-2.41661 5.52005,-3.36496 2.2705,-0.94835 4.94539,-1.4251 8.05322,-2.00385 3.10783,-0.57875 7.67538,-0.94943 10.58639,-1.3233 2.91101,-0.37387 6.88116,-0.90741 6.88116,-0.90741"
       id="path17125"
       sodipodi:nodetypes="czzzzzzzzzzzzzc" />
    <path
       style="fill:none;fill-opacity:1;stroke:#000000;stroke-width:0.264583;stroke-dasharray:none;stroke-dashoffset:0;stroke-opacity:1"
       d="m 145.85364,151.39226 c -2.88367,0.0519 -6.33661,0.11735 -7.90784,0.14418 -1.57123,0.0268 -2.80682,-0.85253 -3.17588,-1.4791 -0.36905,-0.62657 -0.40681,-1.45292 -0.33446,-2.21907 0.0724,-0.76615 0.36432,-1.68987 0.75617,-2.57098 0.39185,-0.88112 0.82316,-1.74306 1.62577,-2.6466 0.80261,-0.90354 2.22208,-1.9203 3.25153,-2.57099 1.02946,-0.65069 2.83565,-1.39891 2.83565,-1.39891"
       id="path17127"
       sodipodi:nodetypes="czzzzzzc" />
    <path
       style="fill:none;fill-opacity:1;stroke:#000000;stroke-width:0.264583;stroke-dasharray:none;stroke-dashoffset:0;stroke-opacity:1"
       d="m 145.77803,151.39226 c 0,0 1.33582,-0.8716 1.777,-1.62576 0.44117,-0.75417 0.59013,-1.60183 0.64274,-2.76003 0.0526,-1.15821 -0.18858,-2.953 -0.56713,-4.08332 -0.37854,-1.13032 -0.9071,-1.98313 -1.47453,-2.6466 -0.56742,-0.66347 -1.15467,-1.11192 -1.73919,-1.36111 -0.58453,-0.24919 -1.58796,-0.22685 -1.58796,-0.22685"
       id="path17129"
       sodipodi:nodetypes="czzzzzc" />
    <path
       style="fill:none;fill-opacity:1;stroke:#000000;stroke-width:0.264583;stroke-dasharray:0.529168;stroke-dashoffset:0;stroke-opacity:1"
       d="m 145.85364,151.39226 c 0,0 2.48086,-0.15844 3.74305,-0.34027 1.26219,-0.18183 2.74079,-0.25874 3.81866,-0.75618 1.07788,-0.49744 1.8739,-1.11455 2.53318,-2.00385 0.65928,-0.8893 1.13923,-2.10089 1.24768,-3.17591 0.10845,-1.07503 -0.0102,-1.91778 -0.52932,-3.02469 -0.51914,-1.10692 -1.47724,-2.43419 -2.76002,-3.25154 -1.28279,-0.81734 -3.32039,-1.16345 -4.68826,-1.28549 -1.36788,-0.12204 -2.30948,0.11442 -3.36497,0.30247 -1.05548,0.18806 -2.94906,0.79398 -2.94906,0.79398"
       id="path17133"
       sodipodi:nodetypes="czzzzzzzzc" />
    <path
       style="fill:none;fill-opacity:1;stroke:#000000;stroke-width:0.264583;stroke-dasharray:none;stroke-dashoffset:0;stroke-opacity:1"
       d="m 148.04654,148.36758 c 0,0 -1.54402,0.36371 -2.57098,0.49151 -1.02696,0.1278 -2.50656,0.33801 -3.62963,0.41589 -1.12306,0.0779 -2.11654,0.0902 -3.10029,0.0756 -0.98375,-0.0145 -2.11748,-0.0344 -2.79784,-0.15124 -0.68035,-0.1168 -1.03243,-0.19185 -1.28549,-0.37808 -0.25307,-0.18624 -0.30247,-0.4537 -0.30247,-0.4537"
       id="path17135"
       sodipodi:nodetypes="czzzzzc" />
    <path
       style="fill:none;fill-opacity:1;stroke:#000000;stroke-width:0.264583;stroke-dasharray:0.529168;stroke-dashoffset:0;stroke-opacity:1"
       d="m 134.43546,148.481 c 0,0 0.3357,-0.74252 0.83178,-1.28549 0.49609,-0.54296 1.41061,-1.22795 2.26852,-1.777 0.8579,-0.54905 1.82575,-1.04029 2.87345,-1.47453 1.04771,-0.43424 2.08609,-0.75271 3.40277,-1.09645 1.31668,-0.34373 3.21541,-0.73282 4.49922,-0.90741 1.28382,-0.17459 2.11361,-0.23941 3.17592,-0.22685 1.06231,0.0126 2.35501,0.0906 3.17592,0.30247 0.8209,0.21183 1.30296,0.35942 1.73919,0.75617 0.43623,0.39674 0.83774,0.87746 0.79398,1.43673 -0.0438,0.55926 -0.60886,0.98523 -1.05864,1.36111 -0.44978,0.37587 -0.84237,0.51296 -1.58796,0.83178 -0.74558,0.31883 -1.82788,0.65218 -2.91126,0.98303 -1.08338,0.33085 -3.59181,0.98302 -3.59181,0.98302"
       id="path17137"
       sodipodi:nodetypes="czzzzzzzzzzzzc" />
    <path
       d="m 3364,1638 -30,32"
       style="fill:none;stroke:#000000;stroke-width:2.77952;stroke-linecap:round;stroke-linejoin:round;stroke-miterlimit:10;stroke-dasharray:none;stroke-opacity:1;marker-end:url(#TriangleStart)"
       id="path7349"
       clip-path="url(#clipPath7516)"
       transform="matrix(0.07561711,0,0,-0.07561711,-116.53773,266.55712)" />
    <path
       d="m 3570,1677 -25,-36"
       style="fill:none;stroke:#000000;stroke-width:2.77952;stroke-linecap:round;stroke-linejoin:round;stroke-miterlimit:10;stroke-dasharray:none;stroke-opacity:1;marker-end:url(#TriangleStart)"
       id="path7351"
       clip-path="url(#clipPath7510)"
       transform="matrix(0.07561711,0,0,-0.07561711,-116.53773,266.55712)" />
    <g
       inkscape:label=""
       transform="translate(100.70717,168.53749)"
       id="g12105">
      <g
         clip-path="url(#clipPath663)"
         id="g24"
         transform="matrix(0.352778,0,0,0.352778,-77.0241,-3.23828)">
        <g
           fill="#000000"
           fill-opacity="1"
           id="g22">
          <g
             id="use20"
             transform="translate(218.008,14.445)">
            <path
               d="m 3.140625,1.34375 c -0.3125,0.453125 -0.78125,0.859375 -1.375,0.859375 C 1.625,2.203125 1.046875,2.171875 0.875,1.625 c 0.03125,0.015625 0.09375,0.015625 0.109375,0.015625 0.359375,0 0.609375,-0.3125 0.609375,-0.59375 C 1.59375,0.78125 1.359375,0.6875 1.1875,0.6875 c -0.203125,0 -0.609375,0.140625 -0.609375,0.71875 0,0.609375 0.515625,1.03125 1.1875,1.03125 C 2.96875,2.4375 4.171875,1.34375 4.5,0.015625 L 5.671875,-4.65625 C 5.6875,-4.703125 5.71875,-4.78125 5.71875,-4.859375 5.71875,-5.03125 5.5625,-5.15625 5.390625,-5.15625 5.28125,-5.15625 5.03125,-5.109375 4.9375,-4.75 L 4.046875,-1.234375 C 4,-1.015625 4,-0.984375 3.890625,-0.859375 3.65625,-0.53125 3.265625,-0.125 2.6875,-0.125 c -0.671875,0 -0.734375,-0.65625 -0.734375,-0.96875 0,-0.6875 0.328125,-1.609375 0.65625,-2.46875 0.125,-0.34375 0.203125,-0.515625 0.203125,-0.75 0,-0.5 -0.359375,-0.953125 -0.953125,-0.953125 -1.09375,0 -1.53125,1.734375 -1.53125,1.828125 0,0.046875 0.046875,0.109375 0.125,0.109375 0.109375,0 0.125,-0.046875 0.171875,-0.21875 0.28125,-1 0.734375,-1.484375 1.203125,-1.484375 0.109375,0 0.3125,0 0.3125,0.390625 0,0.3125 -0.125,0.65625 -0.3125,1.109375 C 1.25,-1.953125 1.25,-1.5625 1.25,-1.28125 1.25,-0.140625 2.0625,0.125 2.65625,0.125 3,0.125 3.4375,0.015625 3.84375,-0.4375 l 0.015625,0.015625 C 3.6875,0.28125 3.5625,0.75 3.140625,1.34375 Z m 0,0"
               id="path36" />
          </g>
        </g>
      </g>
      <g
         clip-path="url(#clipPath8593)"
         id="g30"
         transform="matrix(0.352778,0,0,0.352778,-77.0241,-3.23828)">
        <g
           fill="#000000"
           fill-opacity="1"
           id="g28">
          <g
             id="use26"
             transform="translate(223.716,16.239)">
            <path
               d="m 2.5,-5.078125 c 0,-0.21875 -0.015625,-0.21875 -0.234375,-0.21875 -0.328125,0.3125 -0.75,0.5 -1.5,0.5 v 0.265625 c 0.21875,0 0.640625,0 1.109375,-0.203125 v 4.078125 c 0,0.296875 -0.03125,0.390625 -0.78125,0.390625 H 0.8125 V 0 c 0.328125,-0.03125 1.015625,-0.03125 1.375,-0.03125 0.359375,0 1.046875,0 1.375,0.03125 V -0.265625 H 3.28125 c -0.75,0 -0.78125,-0.09375 -0.78125,-0.390625 z m 0,0"
               id="path40" />
          </g>
        </g>
      </g>
    </g>
    <g
       inkscape:label=""
       transform="translate(98.359946,153.90282)"
       id="g12362">
      <g
         clip-path="url(#clipPath1347)"
         id="g12352"
         transform="matrix(0.352778,0,0,0.352778,-77.0241,-3.23828)">
        <g
           fill="#000000"
           fill-opacity="1"
           id="g12350">
          <g
             id="g12348"
             transform="translate(218.008,14.445)">
            <path
               d="m 3.140625,1.34375 c -0.3125,0.453125 -0.78125,0.859375 -1.375,0.859375 C 1.625,2.203125 1.046875,2.171875 0.875,1.625 c 0.03125,0.015625 0.09375,0.015625 0.109375,0.015625 0.359375,0 0.609375,-0.3125 0.609375,-0.59375 C 1.59375,0.78125 1.359375,0.6875 1.1875,0.6875 c -0.203125,0 -0.609375,0.140625 -0.609375,0.71875 0,0.609375 0.515625,1.03125 1.1875,1.03125 C 2.96875,2.4375 4.171875,1.34375 4.5,0.015625 L 5.671875,-4.65625 C 5.6875,-4.703125 5.71875,-4.78125 5.71875,-4.859375 5.71875,-5.03125 5.5625,-5.15625 5.390625,-5.15625 5.28125,-5.15625 5.03125,-5.109375 4.9375,-4.75 L 4.046875,-1.234375 C 4,-1.015625 4,-0.984375 3.890625,-0.859375 3.65625,-0.53125 3.265625,-0.125 2.6875,-0.125 c -0.671875,0 -0.734375,-0.65625 -0.734375,-0.96875 0,-0.6875 0.328125,-1.609375 0.65625,-2.46875 0.125,-0.34375 0.203125,-0.515625 0.203125,-0.75 0,-0.5 -0.359375,-0.953125 -0.953125,-0.953125 -1.09375,0 -1.53125,1.734375 -1.53125,1.828125 0,0.046875 0.046875,0.109375 0.125,0.109375 0.109375,0 0.125,-0.046875 0.171875,-0.21875 0.28125,-1 0.734375,-1.484375 1.203125,-1.484375 0.109375,0 0.3125,0 0.3125,0.390625 0,0.3125 -0.125,0.65625 -0.3125,1.109375 C 1.25,-1.953125 1.25,-1.5625 1.25,-1.28125 1.25,-0.140625 2.0625,0.125 2.65625,0.125 3,0.125 3.4375,0.015625 3.84375,-0.4375 l 0.015625,0.015625 C 3.6875,0.28125 3.5625,0.75 3.140625,1.34375 Z m 0,0"
               id="path12346" />
          </g>
        </g>
      </g>
      <g
         clip-path="url(#clipPath224)"
         id="g12360"
         transform="matrix(0.352778,0,0,0.352778,-77.0241,-3.23828)">
        <g
           fill="#000000"
           fill-opacity="1"
           id="g12358">
          <g
             id="g12356"
             transform="translate(223.716,16.239)">
            <path
               d="m 2.25,-1.625 c 0.125,-0.125 0.453125,-0.390625 0.59375,-0.5 0.484375,-0.453125 0.953125,-0.890625 0.953125,-1.609375 0,-0.953125 -0.796875,-1.5625 -1.78125,-1.5625 -0.96875,0 -1.59375,0.71875 -1.59375,1.4375 0,0.390625 0.3125,0.4375 0.421875,0.4375 0.171875,0 0.421875,-0.109375 0.421875,-0.421875 0,-0.40625 -0.40625,-0.40625 -0.5,-0.40625 C 1,-4.84375 1.53125,-5.03125 1.921875,-5.03125 c 0.734375,0 1.125,0.625 1.125,1.296875 0,0.828125 -0.578125,1.4375 -1.53125,2.390625 l -1,1.046875 C 0.421875,-0.21875 0.421875,-0.203125 0.421875,0 H 3.5625 l 0.234375,-1.421875 h -0.25 C 3.53125,-1.265625 3.46875,-0.875 3.375,-0.71875 c -0.046875,0.0625 -0.65625,0.0625 -0.78125,0.0625 H 1.171875 Z m 0,0"
               id="path12354" />
          </g>
        </g>
      </g>
    </g>
    <g
       inkscape:label=""
       transform="translate(92.601261,149.3503)"
       id="g12631">
      <g
         clip-path="url(#clipPath4486)"
         id="g12621"
         transform="matrix(0.352778,0,0,0.352778,-77.0241,-3.23828)">
        <g
           fill="#000000"
           fill-opacity="1"
           id="g12619">
          <g
             id="g12617"
             transform="translate(218.008,14.445)">
            <path
               d="m 3.140625,1.34375 c -0.3125,0.453125 -0.78125,0.859375 -1.375,0.859375 C 1.625,2.203125 1.046875,2.171875 0.875,1.625 c 0.03125,0.015625 0.09375,0.015625 0.109375,0.015625 0.359375,0 0.609375,-0.3125 0.609375,-0.59375 C 1.59375,0.78125 1.359375,0.6875 1.1875,0.6875 c -0.203125,0 -0.609375,0.140625 -0.609375,0.71875 0,0.609375 0.515625,1.03125 1.1875,1.03125 C 2.96875,2.4375 4.171875,1.34375 4.5,0.015625 L 5.671875,-4.65625 C 5.6875,-4.703125 5.71875,-4.78125 5.71875,-4.859375 5.71875,-5.03125 5.5625,-5.15625 5.390625,-5.15625 5.28125,-5.15625 5.03125,-5.109375 4.9375,-4.75 L 4.046875,-1.234375 C 4,-1.015625 4,-0.984375 3.890625,-0.859375 3.65625,-0.53125 3.265625,-0.125 2.6875,-0.125 c -0.671875,0 -0.734375,-0.65625 -0.734375,-0.96875 0,-0.6875 0.328125,-1.609375 0.65625,-2.46875 0.125,-0.34375 0.203125,-0.515625 0.203125,-0.75 0,-0.5 -0.359375,-0.953125 -0.953125,-0.953125 -1.09375,0 -1.53125,1.734375 -1.53125,1.828125 0,0.046875 0.046875,0.109375 0.125,0.109375 0.109375,0 0.125,-0.046875 0.171875,-0.21875 0.28125,-1 0.734375,-1.484375 1.203125,-1.484375 0.109375,0 0.3125,0 0.3125,0.390625 0,0.3125 -0.125,0.65625 -0.3125,1.109375 C 1.25,-1.953125 1.25,-1.5625 1.25,-1.28125 1.25,-0.140625 2.0625,0.125 2.65625,0.125 3,0.125 3.4375,0.015625 3.84375,-0.4375 l 0.015625,0.015625 C 3.6875,0.28125 3.5625,0.75 3.140625,1.34375 Z m 0,0"
               id="path12615" />
          </g>
        </g>
      </g>
      <g
         clip-path="url(#clipPath6233)"
         id="g12629"
         transform="matrix(0.352778,0,0,0.352778,-77.0241,-3.23828)">
        <g
           fill="#000000"
           fill-opacity="1"
           id="g12627">
          <g
             id="g12625"
             transform="translate(223.716,16.239)">
            <path
               d="m 2.015625,-2.65625 c 0.625,0 1.03125,0.453125 1.03125,1.296875 0,1 -0.5625,1.28125 -0.984375,1.28125 -0.4375,0 -1.046875,-0.15625 -1.328125,-0.578125 0.296875,0 0.5,-0.1875 0.5,-0.4375 0,-0.265625 -0.1875,-0.4375 -0.453125,-0.4375 -0.203125,0 -0.4375,0.125 -0.4375,0.453125 0,0.75 0.8125,1.25 1.734375,1.25 C 3.125,0.171875 3.875,-0.5625 3.875,-1.359375 3.875,-2.03125 3.34375,-2.625 2.53125,-2.8125 c 0.625,-0.21875 1.109375,-0.75 1.109375,-1.390625 0,-0.640625 -0.71875,-1.09375 -1.546875,-1.09375 -0.859375,0 -1.5,0.453125 -1.5,1.0625 0,0.296875 0.1875,0.421875 0.40625,0.421875 0.25,0 0.40625,-0.171875 0.40625,-0.40625 0,-0.296875 -0.265625,-0.40625 -0.4375,-0.40625 0.34375,-0.4375 0.953125,-0.46875 1.09375,-0.46875 0.203125,0 0.8125,0.0625 0.8125,0.890625 0,0.546875 -0.234375,0.890625 -0.34375,1.015625 -0.234375,0.25 -0.421875,0.265625 -0.90625,0.296875 -0.15625,0 -0.21875,0.015625 -0.21875,0.125 0,0.109375 0.078125,0.109375 0.21875,0.109375 z m 0,0"
               id="path12623" />
          </g>
        </g>
      </g>
    </g>
    <g
       inkscape:label=""
       transform="translate(109.69448,142.42775)"
       id="g12915">
      <g
         fill="#000000"
         fill-opacity="1"
         id="g19"
         transform="matrix(0.352778,0,0,0.352778,-76.2057,-2.12518)">
        <g
           id="use17"
           transform="translate(215.485,14.446)">
          <path
             d="m 7.90625,-1.859375 h -0.25 c -0.0625,0.3125 -0.125,0.609375 -0.21875,0.875 -0.0625,0.1875 -0.09375,0.28125 -0.796875,0.28125 h -0.9375 C 5.84375,-1.375 6.1875,-1.953125 6.6875,-2.6875 c 0.5625,-0.875 1.109375,-1.75 1.109375,-2.734375 0,-1.65625 -1.578125,-3 -3.578125,-3 -2,0 -3.578125,1.359375 -3.578125,3 0,0.96875 0.546875,1.84375 1.109375,2.703125 0.5,0.78125 0.859375,1.34375 0.984375,2.015625 h -0.9375 C 1.09375,-0.703125 1.0625,-0.796875 1,-0.984375 c -0.09375,-0.25 -0.15625,-0.59375 -0.21875,-0.875 h -0.25 L 0.90625,0 h 1.859375 c 0.265625,0 0.28125,0 0.28125,-0.21875 0,-0.84375 -0.375,-1.890625 -0.625,-2.5 C 2.078125,-3.65625 1.75,-4.53125 1.75,-5.4375 c 0,-1.84375 1.28125,-2.734375 2.46875,-2.734375 1.1875,0 2.46875,0.890625 2.46875,2.734375 0,0.90625 -0.34375,1.796875 -0.671875,2.6875 -0.203125,0.578125 -0.625,1.671875 -0.625,2.515625 C 5.390625,0 5.421875,0 5.6875,0 h 1.84375 z m 0,0"
             id="path31" />
        </g>
      </g>
      <g
         clip-path="url(#clipPath8532)"
         id="g25"
         transform="matrix(0.352778,0,0,0.352778,-76.2057,-2.12518)">
        <g
           fill="#000000"
           fill-opacity="1"
           id="g23">
          <g
             id="use21"
             transform="translate(223.939,16.239)">
            <path
               d="M 2.515625,-2.578125 H 3.34375 c 0.65625,0 0.6875,0.125 0.6875,0.359375 0,0.046875 0,0.125 -0.0625,0.34375 0,0.03125 -0.015625,0.09375 -0.015625,0.109375 0,0.015625 0,0.109375 0.125,0.109375 0.09375,0 0.125,-0.078125 0.140625,-0.171875 L 4.640625,-3.53125 c 0.015625,-0.015625 0.03125,-0.125 0.03125,-0.140625 0,-0.03125 -0.015625,-0.109375 -0.125,-0.109375 -0.09375,0 -0.109375,0.078125 -0.125,0.171875 -0.171875,0.625 -0.34375,0.765625 -1.0625,0.765625 H 2.59375 l 0.5,-2.015625 C 3.15625,-5.140625 3.171875,-5.15625 3.5,-5.15625 h 1.171875 c 0.953125,0 1.21875,0.203125 1.21875,0.890625 0,0.15625 -0.046875,0.375 -0.046875,0.515625 0,0.09375 0.0625,0.140625 0.125,0.140625 0.109375,0 0.125,-0.078125 0.140625,-0.203125 L 6.25,-5.171875 c 0,-0.046875 0,-0.09375 0,-0.140625 0,-0.109375 -0.09375,-0.109375 -0.234375,-0.109375 h -4.09375 c -0.140625,0 -0.234375,0 -0.234375,0.140625 0,0.125 0.09375,0.125 0.21875,0.125 0.0625,0 0.171875,0 0.3125,0.015625 0.15625,0.015625 0.1875,0.03125 0.1875,0.109375 0,0.046875 0,0.078125 -0.03125,0.15625 l -1.0625,4.25 c -0.0625,0.296875 -0.078125,0.359375 -0.671875,0.359375 -0.15625,0 -0.25,0 -0.25,0.15625 C 0.390625,-0.078125 0.421875,0 0.515625,0 0.6875,0 0.875,-0.03125 1.046875,-0.03125 H 2.15625 C 2.296875,-0.015625 2.59375,0 2.734375,0 c 0.0625,0 0.171875,0 0.171875,-0.15625 0,-0.109375 -0.09375,-0.109375 -0.265625,-0.109375 -0.15625,0 -0.21875,0 -0.40625,-0.015625 -0.21875,-0.015625 -0.25,-0.046875 -0.25,-0.140625 0,-0.015625 0,-0.0625 0.046875,-0.171875 z m 0,0"
               id="path35" />
          </g>
        </g>
      </g>
    </g>
    <g
       id="g17989"
       transform="translate(-11.52056,6.8342302)">
      <g
         inkscape:label=""
         transform="translate(136.88926,143.4237)"
         id="g13549">
        <g
           fill="#000000"
           fill-opacity="1"
           id="g13539"
           transform="matrix(0.352778,0,0,0.352778,-75.0148,-2.2244)">
          <g
             id="use23"
             transform="translate(212.15601,14.446)">
            <path
               d="M 6.5,-8.140625 H 0.484375 v 0.34375 h 0.25 c 0.859375,0 0.890625,0.125 0.890625,0.5625 v 6.328125 c 0,0.4375 -0.03125,0.5625 -0.890625,0.5625 h -0.25 V 0 c 0.296875,-0.03125 1.359375,-0.03125 1.71875,-0.03125 0.421875,0 1.46875,0 1.8125,0.03125 V -0.34375 H 3.65625 c -1.03125,0 -1.0625,-0.140625 -1.0625,-0.578125 V -7.3125 c 0,-0.390625 0.03125,-0.484375 0.546875,-0.484375 h 1.28125 c 1.65625,0 1.96875,0.65625 2.125,2.328125 H 6.8125 Z m 0,0"
               id="path41" />
          </g>
        </g>
        <g
           clip-path="url(#clipPath858)"
           id="g35"
           transform="matrix(0.352778,0,0,0.352778,-75.0148,-2.2244)">
          <g
             fill="#000000"
             fill-opacity="1"
             id="g33">
            <g
               id="use27"
               transform="translate(219.47,16.239)">
              <path
                 d="m 1.890625,-4.796875 c 0,-0.296875 0.015625,-0.375 0.65625,-0.375 h 0.1875 V -5.4375 c -0.640625,0.015625 -0.65625,0.015625 -1.21875,0.015625 -0.546875,0 -0.5625,0 -1.203125,-0.015625 v 0.265625 H 0.5 c 0.625,0 0.65625,0.078125 0.65625,0.375 v 4.15625 c 0,0.296875 -0.03125,0.375 -0.65625,0.375 H 0.3125 V 0 c 0.640625,-0.03125 0.65625,-0.03125 1.203125,-0.03125 0.5625,0 0.578125,0 1.21875,0.03125 v -0.265625 h -0.1875 c -0.640625,0 -0.65625,-0.078125 -0.65625,-0.375 z m 0,0"
                 id="path45" />
            </g>
            <g
               id="use29"
               transform="translate(222.51936,16.239)">
              <path
                 d="M 4.9375,-5.421875 H 0.34375 v 0.265625 h 0.1875 c 0.609375,0 0.625,0.09375 0.625,0.390625 v 4.125 c 0,0.296875 -0.015625,0.375 -0.625,0.375 H 0.34375 V 0 c 0.6875,-0.03125 0.703125,-0.03125 1.234375,-0.03125 0.375,0 0.953125,0 1.3125,0.03125 v -0.265625 h -0.25 c -0.75,0 -0.75,-0.109375 -0.75,-0.390625 V -2.578125 H 2.625 c 0.78125,0 0.875,0.25 0.875,0.921875 h 0.25 v -2.125 H 3.5 c 0,0.6875 -0.09375,0.9375 -0.875,0.9375 H 1.890625 v -1.984375 c 0,-0.265625 0.015625,-0.328125 0.375,-0.328125 h 1.0625 c 1.296875,0 1.453125,0.5 1.59375,1.546875 H 5.15625 Z m 0,0"
                 id="path49" />
            </g>
            <g
               id="use31"
               transform="translate(228.04344,16.239)">
              <path
                 d="m 5.515625,-2.078125 h -0.25 c -0.203125,1.203125 -0.375,1.8125 -1.8125,1.8125 h -1.1875 c -0.359375,0 -0.375,-0.046875 -0.375,-0.328125 V -2.6875 H 2.65625 c 0.796875,0 0.90625,0.234375 0.90625,0.9375 h 0.25 v -2.125 h -0.25 c 0,0.6875 -0.109375,0.921875 -0.90625,0.921875 H 1.890625 v -1.875 c 0,-0.265625 0.015625,-0.328125 0.375,-0.328125 H 3.40625 c 1.3125,0 1.484375,0.484375 1.625,1.546875 h 0.25 l -0.234375,-1.8125 H 0.34375 v 0.265625 h 0.1875 c 0.609375,0 0.625,0.09375 0.625,0.390625 v 4.125 c 0,0.296875 -0.015625,0.375 -0.625,0.375 H 0.34375 V 0 h 4.8125 z m 0,0"
                 id="path53" />
            </g>
          </g>
        </g>
      </g>
    </g>
    <g
       inkscape:label=""
       transform="translate(142.01096,144.08716)"
       id="g16229">
      <g
         fill="#000000"
         fill-opacity="1"
         id="g16219"
         transform="matrix(0.352778,0,0,0.352778,-76.3712,-2.12518)">
        <g
           id="g16217"
           transform="translate(215.95399,14.446)">
          <path
             d="m 7.90625,-1.859375 h -0.25 c -0.0625,0.3125 -0.125,0.609375 -0.21875,0.875 -0.0625,0.1875 -0.09375,0.28125 -0.796875,0.28125 h -0.9375 C 5.84375,-1.375 6.1875,-1.953125 6.6875,-2.6875 c 0.5625,-0.875 1.109375,-1.75 1.109375,-2.734375 0,-1.65625 -1.578125,-3 -3.578125,-3 -2,0 -3.578125,1.359375 -3.578125,3 0,0.96875 0.546875,1.84375 1.109375,2.703125 0.5,0.78125 0.859375,1.34375 0.984375,2.015625 h -0.9375 C 1.09375,-0.703125 1.0625,-0.796875 1,-0.984375 c -0.09375,-0.25 -0.15625,-0.59375 -0.21875,-0.875 h -0.25 L 0.90625,0 h 1.859375 c 0.265625,0 0.28125,0 0.28125,-0.21875 0,-0.84375 -0.375,-1.890625 -0.625,-2.5 C 2.078125,-3.65625 1.75,-4.53125 1.75,-5.4375 c 0,-1.84375 1.28125,-2.734375 2.46875,-2.734375 1.1875,0 2.46875,0.890625 2.46875,2.734375 0,0.90625 -0.34375,1.796875 -0.671875,2.6875 -0.203125,0.578125 -0.625,1.671875 -0.625,2.515625 C 5.390625,0 5.421875,0 5.6875,0 h 1.84375 z m 0,0"
             id="path16215" />
        </g>
      </g>
      <g
         clip-path="url(#clipPath7118)"
         id="g16227"
         transform="matrix(0.352778,0,0,0.352778,-76.3712,-2.12518)">
        <g
           fill="#000000"
           fill-opacity="1"
           id="g16225">
          <g
             id="g16223"
             transform="translate(224.409,16.239)">
            <path
               d="m 5.34375,-5.390625 c 0.015625,-0.03125 0.03125,-0.078125 0.03125,-0.125 0,-0.046875 -0.046875,-0.09375 -0.109375,-0.09375 -0.046875,0 -0.0625,0.015625 -0.15625,0.109375 C 5.015625,-5.390625 4.8125,-5.140625 4.71875,-5.046875 4.421875,-5.5 3.90625,-5.609375 3.5,-5.609375 c -1.09375,0 -2.046875,0.9375 -2.046875,1.84375 0,0.453125 0.25,0.734375 0.28125,0.78125 0.265625,0.28125 0.5,0.34375 1.078125,0.484375 0.265625,0.0625 0.28125,0.0625 0.515625,0.125 0.234375,0.0625 0.75,0.1875 0.75,0.84375 0,0.6875 -0.6875,1.4375 -1.53125,1.4375 -0.515625,0 -1.46875,-0.15625 -1.46875,-1.15625 0,-0.015625 0,-0.1875 0.046875,-0.375 l 0.015625,-0.078125 c 0,-0.09375 -0.09375,-0.109375 -0.125,-0.109375 -0.09375,0 -0.109375,0.03125 -0.140625,0.21875 l -0.328125,1.296875 c -0.03125,0.125 -0.09375,0.34375 -0.09375,0.359375 0,0.0625 0.046875,0.109375 0.109375,0.109375 0.046875,0 0.0625,-0.015625 0.140625,-0.109375 L 1.09375,-0.390625 c 0.1875,0.234375 0.640625,0.5625 1.4375,0.5625 1.15625,0 2.109375,-1.046875 2.109375,-2 0,-0.375 -0.125,-0.65625 -0.34375,-0.875 C 4.0625,-2.96875 3.796875,-3.03125 3.421875,-3.125 3.203125,-3.1875 2.890625,-3.265625 2.703125,-3.3125 2.46875,-3.359375 2.015625,-3.515625 2.015625,-4.078125 2.015625,-4.703125 2.6875,-5.375 3.5,-5.375 c 0.71875,0 1.203125,0.375 1.203125,1.234375 0,0.203125 -0.03125,0.359375 -0.03125,0.390625 0,0.09375 0.078125,0.109375 0.140625,0.109375 0.09375,0 0.09375,-0.03125 0.125,-0.15625 z m 0,0"
               id="path16221" />
          </g>
        </g>
      </g>
    </g>
    <path
       style="fill:none;fill-opacity:0.5;stroke:#000000;stroke-width:0.264583;stroke-dasharray:none;stroke-dashoffset:0;stroke-opacity:1;marker-start:url(#TriangleStart);marker-end:url(#TriangleStart)"
       d="m 99.59289,167.50018 -8.660254,-5 8.660254,-5"
       id="path48447" />
    <path
       style="fill:none;fill-opacity:0.5;stroke:#000000;stroke-width:0.264583;stroke-dasharray:none;stroke-dashoffset:0;stroke-opacity:1;marker-end:url(#TriangleStart)"
       d="m 90.932636,162.50018 v -10"
       id="path48449" />
    <g
       inkscape:label=""
       transform="translate(130.69377,137.19079)"
       id="g894">
      <g
         clip-path="url(#clipPath1434)"
         id="g21"
         transform="matrix(0.352778,0,0,0.352778,-76.6004,-2.11468)">
        <g
           fill="#000000"
           fill-opacity="1"
           id="g885">
          <g
             id="g883"
             transform="translate(216.75999,14.446)">
            <path
               d="M 3.34375,-4.5 C 3.171875,-5.09375 2.515625,-5.40625 1.875,-5.40625 c -0.4375,0 -0.78125,0.25 -1.03125,0.6875 -0.3125,0.46875 -0.46875,1.125 -0.46875,1.1875 0,0.15625 0.1875,0.15625 0.296875,0.15625 0.125,0 0.171875,0 0.234375,-0.0625 C 0.9375,-3.453125 0.9375,-3.484375 1,-3.78125 c 0.25,-0.921875 0.5,-1.1875 0.8125,-1.1875 0.1875,0 0.28125,0.109375 0.28125,0.4375 0,0.203125 -0.046875,0.390625 -0.171875,0.875 C 1.84375,-3.328125 1.71875,-2.84375 1.65625,-2.578125 L 1.234375,-0.90625 c -0.046875,0.171875 -0.09375,0.390625 -0.09375,0.46875 0,0.265625 0.1875,0.53125 0.5625,0.53125 0.609375,0 0.765625,-0.546875 0.84375,-0.90625 C 2.671875,-1.25 2.765625,-1.640625 2.875,-2.15625 2.921875,-2.3125 3.234375,-3.53125 3.25,-3.578125 3.265625,-3.640625 3.59375,-4.1875 4,-4.5 c 0.328125,-0.265625 0.71875,-0.46875 1.21875,-0.46875 0.3125,0 0.609375,0.109375 0.609375,0.703125 0,0.6875 -0.53125,2.078125 -0.765625,2.671875 -0.125,0.328125 -0.15625,0.40625 -0.15625,0.609375 0,0.703125 0.6875,1.078125 1.34375,1.078125 1.265625,0 1.859375,-1.625 1.859375,-1.859375 0,-0.171875 -0.171875,-0.171875 -0.28125,-0.171875 -0.140625,0 -0.21875,0 -0.28125,0.15625 -0.390625,1.328125 -1.03125,1.453125 -1.21875,1.453125 -0.09375,0 -0.203125,0 -0.203125,-0.25 0,-0.28125 0.109375,-0.578125 0.234375,-0.875 0.1875,-0.5 0.734375,-1.890625 0.734375,-2.5625 0,-1.09375 -0.90625,-1.390625 -1.78125,-1.390625 -0.25,0 -1.109375,0 -1.96875,0.90625 z m 0,0"
               id="path881" />
          </g>
        </g>
      </g>
      <g
         fill="#000000"
         fill-opacity="1"
         id="g892"
         transform="matrix(0.352778,0,0,0.352778,-76.6004,-2.11468)">
        <g
           id="g890"
           transform="translate(225.283,9.5100002)">
          <path
             d="m 3.21875,-3 c -0.1875,0.03125 -0.359375,0.171875 -0.359375,0.375 0,0.140625 0.09375,0.25 0.265625,0.25 0.125,0 0.375,-0.09375 0.375,-0.453125 0,-0.484375 -0.515625,-0.6875 -1.015625,-0.6875 -1.0625,0 -1.40625,0.765625 -1.40625,1.171875 0,0.078125 0,0.359375 0.296875,0.578125 0.1875,0.140625 0.328125,0.171875 0.734375,0.25 0.28125,0.0625 0.734375,0.140625 0.734375,0.546875 0,0.21875 -0.15625,0.46875 -0.375,0.625 -0.296875,0.1875 -0.6875,0.203125 -0.8125,0.203125 -0.1875,0 -0.734375,-0.03125 -0.9375,-0.359375 0.40625,-0.015625 0.46875,-0.34375 0.46875,-0.4375 0,-0.234375 -0.21875,-0.296875 -0.3125,-0.296875 -0.125,0 -0.453125,0.109375 -0.453125,0.546875 0,0.46875 0.5,0.765625 1.234375,0.765625 1.390625,0 1.6875,-0.984375 1.6875,-1.3125 0,-0.71875 -0.78125,-0.875 -1.078125,-0.921875 C 1.875,-2.234375 1.5625,-2.28125 1.5625,-2.625 c 0,-0.140625 0.140625,-0.671875 0.921875,-0.671875 0.296875,0 0.609375,0.09375 0.734375,0.296875 z m 0,0"
             id="path888" />
        </g>
      </g>
    </g>
    <g
       inkscape:label=""
       transform="translate(149.24081,142.53158)"
       id="g1404">
      <g
         clip-path="url(#clipPath3383)"
         id="g1396"
         transform="matrix(0.352778,0,0,0.352778,-76.4184,-1.37605)">
        <g
           fill="#000000"
           fill-opacity="1"
           id="g1394">
          <g
             id="g1392"
             transform="translate(216.244,14.446)">
            <path
               d="M 3.34375,-4.5 C 3.171875,-5.09375 2.515625,-5.40625 1.875,-5.40625 c -0.4375,0 -0.78125,0.25 -1.03125,0.6875 -0.3125,0.46875 -0.46875,1.125 -0.46875,1.1875 0,0.15625 0.1875,0.15625 0.296875,0.15625 0.125,0 0.171875,0 0.234375,-0.0625 C 0.9375,-3.453125 0.9375,-3.484375 1,-3.78125 c 0.25,-0.921875 0.5,-1.1875 0.8125,-1.1875 0.1875,0 0.28125,0.109375 0.28125,0.4375 0,0.203125 -0.046875,0.390625 -0.171875,0.875 C 1.84375,-3.328125 1.71875,-2.84375 1.65625,-2.578125 L 1.234375,-0.90625 c -0.046875,0.171875 -0.09375,0.390625 -0.09375,0.46875 0,0.265625 0.1875,0.53125 0.5625,0.53125 0.609375,0 0.765625,-0.546875 0.84375,-0.90625 C 2.671875,-1.25 2.765625,-1.640625 2.875,-2.15625 2.921875,-2.3125 3.234375,-3.53125 3.25,-3.578125 3.265625,-3.640625 3.59375,-4.1875 4,-4.5 c 0.328125,-0.265625 0.71875,-0.46875 1.21875,-0.46875 0.3125,0 0.609375,0.109375 0.609375,0.703125 0,0.6875 -0.53125,2.078125 -0.765625,2.671875 -0.125,0.328125 -0.15625,0.40625 -0.15625,0.609375 0,0.703125 0.6875,1.078125 1.34375,1.078125 1.265625,0 1.859375,-1.625 1.859375,-1.859375 0,-0.171875 -0.171875,-0.171875 -0.28125,-0.171875 -0.140625,0 -0.21875,0 -0.28125,0.15625 -0.390625,1.328125 -1.03125,1.453125 -1.21875,1.453125 -0.09375,0 -0.203125,0 -0.203125,-0.25 0,-0.28125 0.109375,-0.578125 0.234375,-0.875 0.1875,-0.5 0.734375,-1.890625 0.734375,-2.5625 0,-1.09375 -0.90625,-1.390625 -1.78125,-1.390625 -0.25,0 -1.109375,0 -1.96875,0.90625 z m 0,0"
               id="path1390" />
          </g>
        </g>
      </g>
      <g
         fill="#000000"
         fill-opacity="1"
         id="g1402"
         transform="matrix(0.352778,0,0,0.352778,-76.4184,-1.37605)">
        <g
           id="g1400"
           transform="translate(224.76801,9.5100002)">
          <path
             d="m 3.046875,-3.171875 h 0.75 c 0.15625,0 0.25,0 0.25,-0.15625 C 4.046875,-3.4375 3.9375,-3.4375 3.8125,-3.4375 H 3.09375 c 0.140625,-0.71875 0.21875,-1.171875 0.296875,-1.53125 0.03125,-0.125 0.046875,-0.21875 0.171875,-0.3125 0.109375,-0.09375 0.171875,-0.109375 0.25,-0.109375 0.125,0 0.25,0.03125 0.359375,0.09375 -0.046875,0.015625 -0.09375,0.03125 -0.125,0.0625 -0.140625,0.078125 -0.234375,0.21875 -0.234375,0.375 0,0.1875 0.140625,0.296875 0.3125,0.296875 0.234375,0 0.453125,-0.203125 0.453125,-0.484375 0,-0.375 -0.390625,-0.5625 -0.765625,-0.5625 -0.28125,0 -0.78125,0.125 -1.03125,0.859375 C 2.703125,-4.5625 2.703125,-4.546875 2.5,-3.4375 H 1.890625 c -0.15625,0 -0.25,0 -0.25,0.15625 0,0.109375 0.109375,0.109375 0.234375,0.109375 H 2.453125 L 1.875,-0.078125 C 1.71875,0.71875 1.609375,1.40625 1.171875,1.40625 c -0.015625,0 -0.1875,0 -0.328125,-0.09375 0.359375,-0.09375 0.359375,-0.421875 0.359375,-0.4375 0,-0.1875 -0.140625,-0.296875 -0.3125,-0.296875 -0.21875,0 -0.453125,0.1875 -0.453125,0.484375 0,0.34375 0.34375,0.5625 0.734375,0.5625 0.5,0 0.828125,-0.515625 0.9375,-0.703125 0.28125,-0.53125 0.46875,-1.53125 0.484375,-1.609375 z m 0,0"
             id="path1398" />
        </g>
      </g>
    </g>
  </g>
</svg>
