<?xml version="1.0" encoding="UTF-8" standalone="no"?>
<!-- Created with Inkscape (http://www.inkscape.org/) -->

<svg
   version="1.1"
   id="svg1"
   width="769.12305"
   height="308.81866"
   viewBox="0 0 769.12304 308.81867"
   sodipodi:docname="EnergForcExt.svg"
   inkscape:version="1.3.2 (091e20e, 2023-11-25, custom)"
   xmlns:inkscape="http://www.inkscape.org/namespaces/inkscape"
   xmlns:sodipodi="http://sodipodi.sourceforge.net/DTD/sodipodi-0.dtd"
   xmlns:xlink="http://www.w3.org/1999/xlink"
   xmlns="http://www.w3.org/2000/svg"
   xmlns:svg="http://www.w3.org/2000/svg">
  <sodipodi:namedview
     id="namedview1"
     pagecolor="#ffffff"
     bordercolor="#000000"
     borderopacity="0.25"
     inkscape:showpageshadow="2"
     inkscape:pageopacity="0.0"
     inkscape:pagecheckerboard="0"
     inkscape:deskcolor="#d1d1d1"
     inkscape:zoom="1.0342067"
     inkscape:cx="322.95285"
     inkscape:cy="97.175931"
     inkscape:window-width="1920"
     inkscape:window-height="1017"
     inkscape:window-x="1912"
     inkscape:window-y="-8"
     inkscape:window-maximized="1"
     inkscape:current-layer="layer-oc1">
    <inkscape:page
       x="0"
       y="0"
       inkscape:label="[1] Layout1"
       id="page1"
       width="769.12305"
       height="308.81866"
       margin="0"
       bleed="0" />
  </sodipodi:namedview>
  <defs
     id="defs1">
    <marker
       style="overflow:visible"
       id="marker39"
       refX="3"
       refY="0"
       orient="auto-start-reverse"
       inkscape:stockid="Triangle arrow"
       markerWidth="1"
       markerHeight="1"
       viewBox="0 0 1 1"
       inkscape:isstock="true"
       inkscape:collect="always"
       preserveAspectRatio="xMidYMid">
      <path
         transform="scale(0.5)"
         style="fill:context-stroke;fill-rule:evenodd;stroke:context-stroke;stroke-width:1pt"
         d="M 5.77,0 -2.88,5 V -5 Z"
         id="path39" />
    </marker>
    <linearGradient
       id="linearGradient37"
       inkscape:collect="always">
      <stop
         style="stop-color:#000000;stop-opacity:0;"
         offset="0"
         id="stop38" />
      <stop
         style="stop-color:#000000;stop-opacity:0.34999999;"
         offset="1"
         id="stop37" />
    </linearGradient>
    <marker
       style="overflow:visible"
       id="Triangle"
       refX="3"
       refY="0"
       orient="auto-start-reverse"
       inkscape:stockid="Triangle arrow"
       markerWidth="5"
       markerHeight="2"
       viewBox="0 0 1 1"
       inkscape:isstock="true"
       inkscape:collect="always"
       preserveAspectRatio="none">
      <path
         transform="scale(0.5)"
         style="fill:context-stroke;fill-rule:evenodd;stroke:context-stroke;stroke-width:1pt"
         d="M 5.77,0 -2.88,5 V -5 Z"
         id="path135" />
    </marker>
    <clipPath
       clipPathUnits="userSpaceOnUse"
       id="clipPath31">
      <path
         d="M 0,0 H 19866 V 14031 H 0 V 0"
         transform="translate(0,-2.0833333e-4)"
         id="path31" />
    </clipPath>
    <clipPath
       clipPathUnits="userSpaceOnUse"
       id="clipPath33">
      <path
         d="M 0,0 H 19866 V 14031 H 0 V 0"
         transform="translate(0,-2.0833333e-4)"
         id="path33" />
    </clipPath>
    <radialGradient
       inkscape:collect="always"
       xlink:href="#linearGradient37"
       id="radialGradient38"
       cx="1352.64"
       cy="701.24994"
       fx="1352.64"
       fy="701.24994"
       r="196.90096"
       gradientTransform="matrix(-1.2457698,0.00129957,-0.00113262,-1.0857751,3038.5124,1515.0405)"
       gradientUnits="userSpaceOnUse" />
  </defs>
  <g
     id="layer-oc1"
     inkscape:groupmode="layer"
     inkscape:label="0"
     transform="translate(-983.31116,-638.28448)">
    <path
       id="path1"
       d="M 1289.3744,940.94775 H 989.46655 v -299.9079"
       style="fill:none;stroke:#000000;stroke-width:1;stroke-linecap:round;stroke-linejoin:round;stroke-miterlimit:10;stroke-dasharray:none;stroke-opacity:1;marker-start:url(#Triangle);marker-end:url(#Triangle)" />
    <path
       id="path2"
       d="m 1069.2908,872.90327 -2.7804,-2.63398 -2.7802,-2.70715 -1.3902,-1.31698 -1.3901,-1.31699 -1.3903,-1.39016 -1.3169,-1.31699 -1.317,-1.39016 -1.317,-1.39015 -1.3169,-1.39016 -1.2438,-1.46332 -1.2439,-1.39016 -1.2438,-1.46332 -1.2438,-1.46333 -0.5854,-0.73165 -0.5854,-0.73167 -0.5122,-0.73165 -0.5852,-0.80484 -0.5854,-0.73165 -0.5121,-0.80484 -0.5853,-0.73165 -0.5122,-0.80483 -0.5121,-0.80482 -0.5122,-0.73167 -0.5122,-0.80482 -0.5121,-0.80483 -0.5122,-0.80484 -0.439,-0.87798 -0.4389,-0.80484 -0.5122,-0.80482 -0.4391,-0.878 -0.439,-0.80482 -0.3657,-0.878 -0.4391,-0.87798 -0.3658,-0.878 -0.439,-0.878 -0.3659,-0.87798 -0.3657,-0.878 -0.2927,-0.87799 -0.3659,-0.95116 -0.2927,-0.878 -0.3658,-0.95115 -0.2926,-0.95117 -0.2927,-0.95116 -0.2195,-0.95115 -0.2927,-0.95117 -0.2195,-0.95115 -0.2195,-0.95116 -0.2927,-1.02433 -0.1462,-0.95115 -0.2195,-1.02433 -0.2195,-0.95117 -0.1464,-1.02431 -0.1463,-1.02433 -0.2195,-1.02433 -0.1464,-0.95115 -0.073,-1.02433 -0.1464,-1.02433 -0.073,-1.02432 -0.1464,-1.02433 -0.073,-1.0975 -0.073,-1.02433 -0.073,-1.02431 v -1.02433 l -0.073,-1.02433 v -1.09748 l -0.073,-1.02433 v -1.0975 -1.02431 l 0.073,-1.02433 v -1.0975 l 0.073,-1.02433 v -1.09748 l 0.073,-1.02433 0.073,-1.0975 0.073,-1.02431 0.073,-1.0975 0.1463,-1.02433 0.073,-1.09749 0.1462,-1.02432 0.1464,-1.0975 0.1463,-1.02433 0.1464,-1.09748 0.1463,-1.02433 0.1463,-1.02433 0.2196,-1.09748 0.2195,-1.02433 0.1463,-1.09749 0.2195,-1.02433 0.2194,-1.02432 0.2195,-1.02433 0.2927,-1.02433 0.2195,-1.02432 0.2927,-1.09749 0.2927,-1.02433 0.2194,-0.95115 0.2927,-1.02433 0.3658,-1.02433 0.2927,-1.02432 0.2927,-1.02433 0.3659,-0.95116 0.2925,-1.02432 0.3659,-0.95116 0.3658,-1.02433 0.3659,-0.95115 0.3657,-0.95117 0.3659,-0.95116 0.439,-0.95115 0.3659,-0.95117 0.439,-0.95116 0.4389,-0.95115 0.3659,-0.878 0.439,-0.95115 0.4389,-0.878 0.5122,-0.95117 0.439,-0.87798 0.4391,-0.878 0.5122,-0.87799 0.512,-0.878 0.4391,-0.80482 0.5122,-0.87799 0.5121,-0.80484 0.5853,-0.80482 0.5121,-0.878 0.5122,-0.80482 0.5854,-0.73167 0.5122,-0.80482 0.5852,-0.80483 0.5854,-0.73165 0.5122,-0.73167 0.5852,-0.73166 0.6586,-0.73166 0.5852,-0.73166 0.5854,-0.6585 0.6585,-0.73166 0.5853,-0.6585 0.6585,-0.65849 0.5854,-0.6585 0.6584,-0.65849 0.6586,-0.58532 0.6584,-0.58534 0.6585,-0.58532 0.7318,-0.58534 0.6584,-0.58532 0.6585,-0.51216 0.7316,-0.58534 0.6586,-0.51216 0.7317,-0.51216 0.7316,-0.439 0.7317,-0.51216 0.7316,-0.43899 0.7317,-0.43901 0.7316,-0.43899 0.7317,-0.36583 0.8049,-0.43899 0.7316,-0.36584 0.7317,-0.36583 0.8048,-0.36583 0.8048,-0.29266 0.7316,-0.36584 0.8049,-0.29266 0.8048,-0.29266 0.8049,-0.29267 0.8047,-0.21949 0.8049,-0.29266 0.878,-0.21951 0.8048,-0.2195 0.8048,-0.2195 0.8781,-0.21949 0.8047,-0.2195 0.8781,-0.14633 0.8779,-0.2195 0.8049,-0.14634 0.8779,-0.14633 0.8781,-0.14633 0.8779,-0.0732 0.8781,-0.14633 0.8779,-0.0732 0.8781,-0.14633 0.8779,-0.0732 0.9511,-0.0732 0.8781,-0.0732 h 0.8779 l 0.9512,-0.0732 h 0.878 l 0.9512,-0.0732 h 0.8779 0.9513 0.9511 0.878 l 0.9511,0.0732 h 0.9513 l 1.9022,0.0732 1.9023,0.0732 1.9024,0.14633 1.9023,0.2195 1.9755,0.14633 1.9023,0.21949 1.9754,0.2195 1.9755,0.29268 1.9755,0.29266 2.0487,0.29266 1.9755,0.29266 1.9754,0.36584 2.0487,0.36583 1.9755,0.36583 2.0487,0.36582 2.0485,0.36584 4.0242,0.80482 4.0974,0.80484 8.1946,1.60965 4.0972,0.87799 4.0974,0.73166 2.0486,0.439 1.9754,0.36582 2.0487,0.36585 2.0487,0.36582 2.0487,0.29266 1.9755,0.36583 2.0485,0.29266 1.9755,0.29268 1.9755,0.2195 1.9755,0.29266 1.9755,0.21949 1.9754,0.14633 1.9755,0.2195 1.9756,0.14633 1.9023,0.0732 1.9755,0.14634 h 1.9023 l 1.9024,0.0732 h 1.9023 1.9022 1.8292 l 1.9023,-0.0732 1.9023,-0.0732 1.8292,-0.0732 1.8292,-0.14633 1.9023,-0.14633 1.8292,-0.14633 1.829,-0.2195 1.8292,-0.14633 1.8292,-0.2195 1.8291,-0.21949 1.8292,-0.29268 1.8291,-0.21949 1.8292,-0.29267 1.8292,-0.29266 1.8291,-0.29266 1.8292,-0.36584 1.829,-0.29266 1.8292,-0.36583 1.8292,-0.36583 1.756,-0.36582 1.8291,-0.36585 1.8292,-0.43899 1.8292,-0.36583 3.6583,-0.80483 3.7315,-0.87798 3.6582,-0.878 3.7315,-0.878 3.7315,-0.95115 3.8047,-0.95117 3.8045,-0.87798 1.9023,-0.51218 1.9756,-0.43899 1.9023,-0.51216 1.9755,-0.439 1.9755,-0.43899 1.9022,-0.51216 2.0487,-0.43901 1.9755,-0.43899 1.9755,-0.43899 2.0487,-0.439 2.0487,-0.439 1.9754,-0.439 2.0486,-0.43899 2.0487,-0.36584 2.0487,-0.43899 2.1217,-0.36583 2.0487,-0.43899 2.0487,-0.36584 2.1218,-0.36583 2.0486,-0.29266 2.1218,-0.36583 2.0487,-0.29268 2.1217,-0.29266 2.0487,-0.29266 2.1219,-0.29266 2.0486,-0.29266 2.1219,-0.2195 2.0487,-0.21951 2.1217,-0.14633 2.0487,-0.2195 2.1218,-0.14633 2.0486,-0.14633 2.0487,-0.0732 2.0486,-0.14634 h 2.0487 l 2.0487,-0.0732 h 2.0486 2.0486 1.9755 l 1.9755,0.0732 2.0486,0.14634 1.9755,0.0732 1.9755,0.14633 1.9024,0.2195 1.9755,0.2195 0.9511,0.14633 0.9512,0.0732 0.9511,0.14635 0.9511,0.14633 0.9512,0.14633 0.9513,0.2195 0.9511,0.14633 0.9511,0.14633 0.878,0.21949 0.9512,0.2195 0.878,0.14633 0.9511,0.21951 0.8781,0.2195 0.9511,0.29266 0.8779,0.2195 0.8781,0.21949 0.9511,0.29266 0.878,0.29268 0.878,0.2195 0.878,0.29266 0.878,0.36582 0.8048,0.29267 0.878,0.29267 0.878,0.36583 0.8048,0.29266 0.8781,0.36583 0.8047,0.36584 0.8781,0.36583 0.8048,0.36582 0.8048,0.439 0.8048,0.36584 0.8049,0.43899 0.8048,0.43899 0.8048,0.439 0.7316,0.439 0.8049,0.43899 0.7316,0.51216 0.8049,0.43901 0.7317,0.51216 0.7316,0.51216 0.8049,0.51217 0.7316,0.51216 0.6585,0.58532 0.7316,0.51217 0.7317,0.58532 0.7316,0.58534 0.6586,0.58532 0.6585,0.58533 0.7316,0.6585 0.6585,0.58532 0.6586,0.65851 0.6584,0.65849 0.6585,0.6585 0.5853,0.65849 0.6585,0.73165 0.5854,0.73167 0.6584,0.65849 0.5854,0.73167 0.5854,0.73165 0.5852,0.80484 0.5854,0.73165 0.5854,0.80483 0.5852,0.80482 0.5122,0.73167 0.5854,0.878 0.5121,0.80482 0.5122,0.80483 0.5122,0.87799 0.5121,0.80483 0.5121,0.87799 0.5121,0.878 0.4391,0.87798 0.5122,0.878 0.439,0.878 0.439,0.87799 0.4389,0.95116 0.439,0.87799 0.4391,0.95116 0.4389,0.95117 0.439,0.95115 0.3659,0.95116 0.3658,0.95117 0.4389,0.95115 0.3659,0.95116 0.3658,1.02433 0.3659,0.95115 0.3659,1.02433 0.2925,1.02433 0.3659,0.95115 0.2927,1.02433 0.3658,1.02433 0.2927,1.02432 0.2927,1.02433 0.2926,1.02433 0.2195,1.02431 0.2927,1.02433 0.2926,1.02433 0.2196,1.09749 0.2195,1.02433 0.2925,1.02433 0.2196,1.09749 0.2195,1.02432 0.1463,1.09749 0.2195,1.02433 0.2195,1.09748 0.1464,1.02433 0.1463,1.0975 0.1464,1.09749 0.2195,1.02432 0.073,1.0975 0.1465,1.09749 0.1462,1.02432 0.073,1.09749 0.1463,1.0975 0.073,1.09749 0.073,1.02432 0.073,1.0975 0.073,1.09749 0.073,1.09748 0.073,1.02433 v 1.0975 l 0.073,1.09749 v 1.02432 1.0975 1.09749 1.02432 l -0.073,1.09749 v 1.02433 1.0975 l -0.073,1.02431 -0.073,1.0975 -0.073,1.02433 -0.073,1.02432 -0.073,1.09749 -0.073,1.02433 -0.1463,1.02432 -0.073,1.02433 -0.1462,1.02433 -0.1465,1.02431 -0.1462,1.02433 -0.1463,1.02433 -0.1464,1.02433 -0.2195,0.95115 -0.1463,1.02433 -0.2195,0.95115 -0.1464,1.02433 -0.2195,0.95117 -0.2194,0.95115 -0.2927,1.02433 -0.2195,0.95116 -0.2195,0.95115 -0.2927,0.95117 -0.2927,0.878 -0.2195,0.95115 -0.2926,0.95116 -0.3658,0.87799 -0.2927,0.878 -0.2927,0.95116 -0.3657,0.87799 -0.2927,0.878 -0.3659,0.87798 -0.3658,0.80484 -0.3659,0.87799 -0.3657,0.80482 -0.4391,0.878 -0.3658,0.80482 -0.439,0.80484 -0.4391,0.80482 -0.3657,0.73167 -0.439,0.80482 -0.5122,0.73166 -0.4389,0.80482 -0.4391,0.73167 -0.5122,0.73166 -0.5122,0.6585 -0.5121,0.73165 -0.5121,0.65851 -0.5122,0.73165 -0.5121,0.6585 -0.5122,0.65849 -0.5854,0.58533 -0.5854,0.6585 -0.5852,0.58532 -0.5122,0.6585 -0.6584,0.58533 -0.5854,0.58534 -0.5854,0.51215 -0.6584,0.58533 -0.5854,0.51217 -0.6584,0.51216 -0.6585,0.58532 -0.6586,0.43901 -0.6584,0.51215 -0.6585,0.51216 -0.7316,0.43901 -0.6586,0.51216 -0.7317,0.43899 -0.6584,0.43901 -0.7317,0.43899 -0.7316,0.43899 -0.7317,0.36583 -0.7316,0.43901 -0.7317,0.36582 -0.8048,0.439 -0.7317,0.36582 -0.8049,0.36584 -0.8048,0.36583 -0.7317,0.29266 -0.8048,0.36583 -0.8048,0.29268 -0.8048,0.36582 -0.8049,0.29266 -0.8779,0.29267 -0.8049,0.29266 -0.878,0.29267 -0.8048,0.29266 -0.878,0.29267 -0.8048,0.29266 -0.878,0.21949 -0.878,0.29268 -0.878,0.2195 -0.878,0.21949 -0.878,0.2195 -0.9512,0.29266 -1.756,0.36583 -1.829,0.439 -1.9024,0.36583 -1.8291,0.36583 -1.9024,0.36583 -1.9023,0.29267 -1.9755,0.29266 -1.9755,0.29267 -1.9022,0.29266 -2.0487,0.21949 -1.9755,0.2195 -1.9755,0.29268 -2.0487,0.14633 -2.0487,0.21949 -2.0485,0.2195 -2.1219,0.14633 -2.0487,0.2195 -2.1217,0.14633 -2.0487,0.14634 -4.2437,0.29266 -4.2436,0.29267 -4.3167,0.36582 -4.3169,0.29266 -4.2437,0.36585 -4.3167,0.29266 -2.1949,0.21949 -2.1219,0.2195 -2.195,0.2195 -2.1218,0.21949 -2.1951,0.21951 -2.1217,0.29266 -2.1218,0.29267 -2.1219,0.29266 -2.1949,0.29266 -2.1218,0.36584 -2.1219,0.29266 -2.0487,0.36583 -2.1217,0.36583 -2.1219,0.439 -2.1218,0.36583 -2.0487,0.43899 -2.1217,0.439 -2.0487,0.439 -2.0487,0.43899 -2.1217,0.439 -2.0487,0.51217 -2.0487,0.51216 -2.0486,0.43899 -2.0487,0.51217 -2.0486,0.51216 -2.0486,0.51216 -4.0242,1.09749 -4.0241,1.0975 -4.0242,1.09748 -3.951,1.0975 -3.9509,1.17066 -3.951,1.09749 -3.9509,1.17065 -3.8778,1.09749 -3.8779,1.17067 -3.8777,1.09749 -3.8047,1.09748 -3.8046,1.0975 -1.9024,0.51217 -1.9023,0.51216 -1.9022,0.51216 -1.8292,0.51217 -1.9023,0.51216 -1.9024,0.43899 -1.8291,0.51217 -1.9024,0.43899 -1.8291,0.439 -1.8292,0.43899 -1.8292,0.439 -1.9023,0.439 -1.829,0.36582 -1.8292,0.43901 -1.8292,0.36583 -1.8291,0.36583 -1.756,0.29266 -1.8292,0.36582 -1.8291,0.29268 -1.756,0.29266 -1.8292,0.29266 -1.756,0.2195 -1.8292,0.29266 -1.7558,0.21951 -1.756,0.14633 -1.756,0.2195 -1.756,0.14633 -1.756,0.14633 -1.756,0.0732 -1.756,0.0732 -1.756,0.0732 -1.756,0.0732 h -1.6828 -1.756 l -1.756,-0.0732 -1.6828,-0.0732 -1.6828,-0.0732 -1.756,-0.14633 -1.6828,-0.14633 -1.6829,-0.14634 -1.6828,-0.21949 -1.6828,-0.21951 -1.6828,-0.29266 -1.6828,-0.29267 -1.6829,-0.29266 -1.6828,-0.36582 -1.6828,-0.43901 -1.6097,-0.43899 -1.6828,-0.439 -1.6828,-0.51217 -0.8049,-0.21949 -0.8048,-0.29267 -0.8047,-0.29266 -0.8049,-0.29266 -0.8781,-0.29268 -0.8047,-0.29266 -0.8049,-0.36582 -0.8048,-0.29267 -0.8049,-0.36582 -0.8047,-0.29268 -0.8049,-0.36583 -0.8048,-0.36582 -1.6096,-0.73167 -1.6097,-0.80482 -1.6096,-0.80483 -1.6097,-0.87799 -1.6096,-0.878 -1.6097,-0.87798 -1.6096,-0.95117 -1.5365,-0.95116 -1.6098,-1.02432 -1.6096,-1.02433 -1.5365,-1.02433 -1.6096,-1.09748 -1.5365,-1.02433 -1.6097,-1.0975 -1.5365,-1.17066 -1.6096,-1.09748 -1.5365,-1.17066 -1.5365,-1.17066 -1.6096,-1.17066 -1.5365,-1.17066 -1.5365,-1.17065 -1.6096,-1.24383 -3.0731,-2.41448 -3.1461,-2.41448 -3.073,-2.48765"
       style="fill:url(#radialGradient38);fill-opacity:1;stroke:#000000;stroke-width:2;stroke-linecap:round;stroke-linejoin:round;stroke-miterlimit:10;stroke-dasharray:none;stroke-opacity:1" />
    <path
       id="path3"
       d="m 1256.7424,710.84033 2.4876,-0.58534 2.5609,-0.65849 2.4876,-0.58532 2.634,-0.6585 2.5608,-0.58533 2.6339,-0.58533 2.634,-0.65849 2.634,-0.58534 2.634,-0.58532 2.7071,-0.65849 2.7071,-0.58534 2.7804,-0.51216 2.7071,-0.58532 2.7804,-0.51217 2.7803,-0.58533 2.7803,-0.439 2.7802,-0.51216 2.8536,-0.43899 2.7803,-0.439 2.8534,-0.439 2.8536,-0.36583 2.8534,-0.36583 2.8536,-0.36582 2.8534,-0.29268 2.9266,-0.2195 2.8535,-0.21949 2.9266,-0.2195 2.8535,-0.14633 2.9267,-0.0732 2.8534,-0.0732 h 2.9266 2.8536 l 2.9266,0.0732 1.3901,0.0732 1.4635,0.0732 1.4633,0.0732 1.3901,0.14633 1.4633,0.14634 1.4633,0.0732 1.3902,0.14633 1.4633,0.2195 1.3901,0.14633 1.4633,0.21951 1.3903,0.2195 1.3901,0.21949 1.4633,0.29266 1.3901,0.2195 1.3902,0.29266 1.3901,0.29268 1.3903,0.36583 1.3901,0.36582 1.3901,0.29266 1.3902,0.43901 1.3171,0.36583 1.3901,0.43899 1.317,0.43899 1.3901,0.51218 1.317,0.43899 1.3169,0.51216 1.3903,0.58533 1.3169,0.51216 1.317,0.58534 1.317,0.65849 1.2438,0.58532 1.3171,0.6585 1.2437,0.73166 1.317,0.6585 1.2438,0.73166 1.2439,0.80483 1.2438,0.73165 1.1706,0.878 1.2438,0.80482 1.1708,0.878 1.1706,0.878 1.1706,0.95115 1.0976,0.95117 1.1706,1.02433 1.0975,0.95115 1.0975,1.02433 1.0975,1.02433 1.0244,1.09748 1.0243,1.09749 1.0242,1.0975 1.0243,1.17066 0.9512,1.17065 0.9513,1.17066 0.9511,1.17066 0.9511,1.17066 0.878,1.24381 0.9512,1.24383 0.8048,1.31699 0.878,1.24383 0.8049,1.31699 0.8047,1.31699 0.8049,1.31699"
       style="fill:none;stroke:#000000;stroke-width:1;stroke-linecap:round;stroke-linejoin:round;stroke-miterlimit:10;stroke-dasharray:none;stroke-opacity:1" />
    <path
       id="path4"
       d="m 1069.2908,872.90327 3.2193,17.7062"
       style="fill:none;stroke:#000000;stroke-width:1;stroke-linecap:round;stroke-linejoin:round;stroke-miterlimit:10;stroke-dasharray:none;stroke-opacity:1" />
    <path
       id="path5"
       d="m 1075.1441,877.5859 3.2924,17.63304"
       style="fill:none;stroke:#000000;stroke-width:1;stroke-linecap:round;stroke-linejoin:round;stroke-miterlimit:10;stroke-dasharray:none;stroke-opacity:1" />
    <path
       id="path6"
       d="m 1081.0706,882.19536 3.2924,17.63304"
       style="fill:none;stroke:#000000;stroke-width:1;stroke-linecap:round;stroke-linejoin:round;stroke-miterlimit:10;stroke-dasharray:none;stroke-opacity:1" />
    <path
       id="path7"
       d="m 1087.0701,886.6585 3.2925,17.7062"
       style="fill:none;stroke:#000000;stroke-width:1;stroke-linecap:round;stroke-linejoin:round;stroke-miterlimit:10;stroke-dasharray:none;stroke-opacity:1" />
    <path
       id="path8"
       d="m 1093.2162,891.04847 3.2193,17.63303"
       style="fill:none;stroke:#000000;stroke-width:1;stroke-linecap:round;stroke-linejoin:round;stroke-miterlimit:10;stroke-dasharray:none;stroke-opacity:1" />
    <path
       id="path9"
       d="m 1063.8765,867.70847 3.2193,17.7062"
       style="fill:none;stroke:#000000;stroke-width:1;stroke-linecap:round;stroke-linejoin:round;stroke-miterlimit:10;stroke-dasharray:none;stroke-opacity:1" />
    <path
       id="path10"
       d="m 1058.5354,862.44052 3.2193,17.7062"
       style="fill:none;stroke:#000000;stroke-width:1;stroke-linecap:round;stroke-linejoin:round;stroke-miterlimit:10;stroke-dasharray:none;stroke-opacity:1" />
    <path
       id="path11"
       d="m 1053.4137,857.02622 3.2193,17.7062"
       style="fill:none;stroke:#000000;stroke-width:1;stroke-linecap:round;stroke-linejoin:round;stroke-miterlimit:10;stroke-dasharray:none;stroke-opacity:1" />
    <path
       id="path12"
       d="m 1260.3276,725.40038 -3.5852,-14.56005"
       style="fill:none;stroke:#000000;stroke-width:1;stroke-linecap:round;stroke-linejoin:round;stroke-miterlimit:10;stroke-dasharray:none;stroke-opacity:1;marker-start:url(#marker39)" />
    <path
       id="path13"
       d="m 1274.8876,721.88841 -3.4388,-14.63323"
       style="fill:none;stroke:#000000;stroke-width:1;stroke-linecap:round;stroke-linejoin:round;stroke-miterlimit:10;stroke-dasharray:none;stroke-opacity:1;marker-start:url(#marker39)" />
    <path
       id="path14"
       d="m 1289.5208,718.59594 -3.073,-14.7064"
       style="fill:none;stroke:#000000;stroke-width:1;stroke-linecap:round;stroke-linejoin:round;stroke-miterlimit:10;stroke-dasharray:none;stroke-opacity:1;marker-start:url(#marker39)" />
    <path
       id="path15"
       d="m 1304.3003,715.81562 -2.5607,-14.77956"
       style="fill:none;stroke:#000000;stroke-width:1;stroke-linecap:round;stroke-linejoin:round;stroke-miterlimit:10;stroke-dasharray:none;stroke-opacity:1;marker-start:url(#marker39)" />
    <path
       id="path16"
       d="m 1319.153,713.69381 -1.756,-14.92589"
       style="fill:none;stroke:#000000;stroke-width:1;stroke-linecap:round;stroke-linejoin:round;stroke-miterlimit:10;stroke-dasharray:none;stroke-opacity:1;marker-start:url(#marker39)" />
    <path
       id="path17"
       d="M 1334.0789,712.44998 V 697.45093"
       style="fill:none;stroke:#000000;stroke-width:1;stroke-linecap:round;stroke-linejoin:round;stroke-miterlimit:10;stroke-dasharray:none;stroke-opacity:1;marker-start:url(#marker39)" />
    <path
       id="path18"
       d="m 1349.0781,712.44998 0.7316,-14.99905"
       style="fill:none;stroke:#000000;stroke-width:1;stroke-linecap:round;stroke-linejoin:round;stroke-miterlimit:10;stroke-dasharray:none;stroke-opacity:1;marker-start:url(#marker39)" />
    <path
       id="path19"
       d="m 1364.0038,714.20597 2.7073,-14.77956"
       style="fill:none;stroke:#000000;stroke-width:1;stroke-linecap:round;stroke-linejoin:round;stroke-miterlimit:10;stroke-dasharray:none;stroke-opacity:1;marker-start:url(#marker39)" />
    <path
       id="path20"
       d="m 1378.4176,718.23011 5.4142,-14.0479"
       style="fill:none;stroke:#000000;stroke-width:1;stroke-linecap:round;stroke-linejoin:round;stroke-miterlimit:10;stroke-dasharray:none;stroke-opacity:1;marker-start:url(#marker39)" />
    <path
       id="path21"
       d="m 1391.7339,725.10772 8.6336,-12.21874"
       style="fill:none;stroke:#000000;stroke-width:1;stroke-linecap:round;stroke-linejoin:round;stroke-miterlimit:10;stroke-dasharray:none;stroke-opacity:1;marker-start:url(#marker39)" />
    <path
       id="path22"
       d="m 1402.9282,735.13148 11.1214,-9.7311"
       style="fill:none;stroke:#000000;stroke-width:1;stroke-linecap:round;stroke-linejoin:round;stroke-miterlimit:10;stroke-dasharray:none;stroke-opacity:1;marker-start:url(#marker39)" />
    <path
       id="path23"
       d="m 1411.4155,747.49655 12.4383,-8.34093"
       style="fill:none;stroke:#000000;stroke-width:1;stroke-linecap:round;stroke-linejoin:round;stroke-miterlimit:10;stroke-dasharray:none;stroke-opacity:1;marker-start:url(#marker39)" />
    <path
       id="path24"
       d="m 1371.54,714.16938 c 0,-4.14189 -3.3576,-7.49952 -7.4995,-7.49952 -4.1419,0 -7.4995,3.35763 -7.4995,7.49952 0,4.1419 3.3576,7.49953 7.4995,7.49953 4.1419,0 7.4995,-3.35763 7.4995,-7.49953"
       style="fill:none;stroke:#000000;stroke-width:1;stroke-linecap:round;stroke-linejoin:round;stroke-miterlimit:10;stroke-dasharray:2, 2;stroke-dashoffset:0;stroke-opacity:1" />
    <path
       id="path26"
       d="M 1711.3235,779.39698 1564.1132,751.59385"
       style="fill:none;stroke:#000000;stroke-width:2;stroke-linecap:round;stroke-linejoin:round;stroke-miterlimit:10;stroke-dasharray:none;stroke-opacity:1" />
    <path
       id="path27"
       d="m 1712.7136,765.45884 c 0,-41.39853 -33.5602,-74.9587 -74.9587,-74.9587 -41.3985,0 -74.9586,33.56017 -74.9586,74.9587 0,41.39855 33.5601,74.95867 74.9586,74.95867 41.3985,0 74.9587,-33.56012 74.9587,-74.95867"
       style="fill:none;stroke:#000000;stroke-width:1;stroke-linecap:round;stroke-linejoin:round;stroke-miterlimit:10;stroke-dasharray:2, 2;stroke-dashoffset:0;stroke-opacity:1" />
    <path
       id="path28"
       d="M 1602.7449,831.78392 1360.8577,721.01042"
       style="fill:none;stroke:#000000;stroke-width:1;stroke-linecap:round;stroke-linejoin:round;stroke-miterlimit:10;stroke-dasharray:2, 2;stroke-dashoffset:0;stroke-opacity:1" />
    <path
       id="path29"
       d="m 1633.2551,690.71964 -269.7634,16.02338"
       style="fill:none;stroke:#000000;stroke-width:1;stroke-linecap:round;stroke-linejoin:round;stroke-miterlimit:10;stroke-dasharray:2, 2;stroke-dashoffset:0;stroke-opacity:1" />
    <path
       style="fill:#000000;stroke:#000000;stroke-width:1;stroke-dasharray:none;marker-end:url(#Triangle)"
       d="m 1637.7184,765.49541 c -10e-5,0 -10e-5,-89.99432 -10e-5,-89.99432"
       id="path34" />
    <path
       style="fill:#000000;stroke:#000000;stroke-width:1;stroke-dasharray:none;marker-end:url(#Triangle)"
       d="m 1637.7184,765.49541 h 89.9942"
       id="path35" />
    <g
       inkscape:label=""
       transform="translate(1375.0818,815.70933)"
       id="g43">
      <g
         fill="#000000"
         fill-opacity="1"
         id="g42"
         transform="matrix(1.33333,0,0,1.33333,-281.431,-17.8078)">
        <g
           id="g41"
           transform="translate(210.183,30.684)">
          <path
             d="M 15.640625,-3.625 H 15.1875 c -0.21875,1.140625 -0.296875,1.4375 -0.421875,1.84375 -0.125,0.375 -0.1875,0.5625 -1.625,0.5625 H 11.125 c 0.28125,-1.4375 0.875,-2.5 1.90625,-4.15625 1.296875,-2.109375 2.359375,-3.8125 2.359375,-5.875 0,-3.34375 -3.171875,-6.078125 -7.109375,-6.078125 -4.046875,0 -7.140625,2.75 -7.140625,6.078125 0,2.0625 1.09375,3.8125 2.296875,5.765625 1.09375,1.765625 1.6875,2.828125 1.96875,4.265625 H 3.390625 c -1.40625,0 -1.484375,-0.1875 -1.609375,-0.546875 C 1.640625,-2.15625 1.59375,-2.484375 1.34375,-3.625 H 0.890625 L 1.609375,0 h 3.75 c 0.515625,0 0.53125,-0.03125 0.53125,-0.390625 0,-1.765625 -0.90625,-4.0625 -1.328125,-5.140625 -0.796875,-1.921875 -1.546875,-3.8125 -1.546875,-5.75 0,-3.6875 2.65625,-5.640625 5.234375,-5.640625 2.703125,0 5.25,2.03125 5.25,5.640625 0,1.90625 -0.65625,3.625 -1.578125,5.875 C 11.515625,-4.390625 10.625,-2.125 10.625,-0.390625 10.625,0 10.65625,0 11.171875,0 h 3.75 z m 0,0"
             id="path41" />
        </g>
      </g>
    </g>
    <g
       inkscape:label=""
       transform="translate(1300.5564,918.26718)"
       id="g44">
      <g
         fill="#000000"
         fill-opacity="1"
         id="g3"
         transform="matrix(1.33333,0,0,1.33333,-278.687,-26.3508)">
        <g
           id="use2"
           transform="translate(208.343,30.684999)">
          <path
             d="M 6.515625,2.78125 C 5.84375,3.71875 4.875,4.5625 3.671875,4.5625 3.375,4.5625 2.1875,4.515625 1.8125,3.375 1.890625,3.390625 2,3.390625 2.0625,3.390625 2.796875,3.390625 3.296875,2.75 3.296875,2.1875 3.296875,1.609375 2.828125,1.40625 2.453125,1.40625 2.0625,1.40625 1.1875,1.703125 1.1875,2.921875 1.1875,4.1875 2.25,5.0625 3.671875,5.0625 c 2.46875,0 4.984375,-2.28125 5.671875,-5.03125 l 2.421875,-9.671875 c 0.03125,-0.125 0.07813,-0.265625 0.07813,-0.421875 0,-0.375 -0.296875,-0.625 -0.671875,-0.625 -0.21875,0 -0.734375,0.109375 -0.9375,0.84375 l -1.82813,7.296875 c -0.125,0.4375 -0.125,0.484375 -0.328125,0.765625 -0.5,0.6875 -1.3125,1.53125 -2.5,1.53125 C 4.1875,-0.25 4.0625,-1.609375 4.0625,-2.28125 c 0,-1.40625 0.671875,-3.3125 1.34375,-5.109375 0.265625,-0.71875 0.421875,-1.0625 0.421875,-1.5625 0,-1.03125 -0.75,-1.96875 -1.96875,-1.96875 -2.265625,0 -3.1875,3.59375 -3.1875,3.78125 0,0.109375 0.09375,0.234375 0.265625,0.234375 0.234375,0 0.25,-0.109375 0.34375,-0.453125 0.609375,-2.078125 1.546875,-3.078125 2.515625,-3.078125 0.21875,0 0.640625,0 0.640625,0.828125 0,0.640625 -0.28125,1.359375 -0.640625,2.296875 -1.21875,3.25 -1.21875,4.0625 -1.21875,4.65625 0,2.359375 1.6875,2.90625 2.921875,2.90625 0.71875,0 1.609375,-0.21875 2.484375,-1.140625 L 8,-0.875 C 7.625,0.59375 7.390625,1.5625 6.515625,2.78125 Z m 0,0"
             id="path43" />
        </g>
      </g>
      <g
         fill="#000000"
         fill-opacity="1"
         id="g4"
         transform="matrix(1.33333,0,0,1.33333,-278.687,-26.3508)">
        <g
           id="use3"
           transform="translate(220.177,34.403)">
          <path
             d="m 4.578125,-11 c 0,-0.359375 -0.015625,-0.375 -0.25,-0.375 -0.671875,0.796875 -1.6875,1.0625 -2.65625,1.09375 -0.046875,0 -0.140625,0 -0.15625,0.03125 C 1.5,-10.203125 1.5,-10.171875 1.5,-9.8125 c 0.53125,0 1.421875,-0.109375 2.109375,-0.515625 V -1.25 c 0,0.59375 -0.03125,0.796875 -1.515625,0.796875 H 1.578125 V 0 c 0.828125,-0.015625 1.6875,-0.03125 2.515625,-0.03125 0.828125,0 1.6875,0.015625 2.515625,0.03125 V -0.453125 H 6.09375 c -1.484375,0 -1.515625,-0.1875 -1.515625,-0.796875 z m 0,0"
             id="path44" />
        </g>
      </g>
    </g>
    <g
       inkscape:label=""
       transform="translate(1004.506,647.51446)"
       id="g49">
      <g
         fill="#000000"
         fill-opacity="1"
         id="g46"
         transform="matrix(1.33333,0,0,1.33333,-278.687,-26.3508)">
        <g
           id="g45"
           transform="translate(208.343,30.684999)">
          <path
             d="M 6.515625,2.78125 C 5.84375,3.71875 4.875,4.5625 3.671875,4.5625 3.375,4.5625 2.1875,4.515625 1.8125,3.375 1.890625,3.390625 2,3.390625 2.0625,3.390625 2.796875,3.390625 3.296875,2.75 3.296875,2.1875 3.296875,1.609375 2.828125,1.40625 2.453125,1.40625 2.0625,1.40625 1.1875,1.703125 1.1875,2.921875 1.1875,4.1875 2.25,5.0625 3.671875,5.0625 c 2.46875,0 4.984375,-2.28125 5.671875,-5.03125 l 2.421875,-9.671875 c 0.03125,-0.125 0.07813,-0.265625 0.07813,-0.421875 0,-0.375 -0.296875,-0.625 -0.671875,-0.625 -0.21875,0 -0.734375,0.109375 -0.9375,0.84375 l -1.82813,7.296875 c -0.125,0.4375 -0.125,0.484375 -0.328125,0.765625 -0.5,0.6875 -1.3125,1.53125 -2.5,1.53125 C 4.1875,-0.25 4.0625,-1.609375 4.0625,-2.28125 c 0,-1.40625 0.671875,-3.3125 1.34375,-5.109375 0.265625,-0.71875 0.421875,-1.0625 0.421875,-1.5625 0,-1.03125 -0.75,-1.96875 -1.96875,-1.96875 -2.265625,0 -3.1875,3.59375 -3.1875,3.78125 0,0.109375 0.09375,0.234375 0.265625,0.234375 0.234375,0 0.25,-0.109375 0.34375,-0.453125 0.609375,-2.078125 1.546875,-3.078125 2.515625,-3.078125 0.21875,0 0.640625,0 0.640625,0.828125 0,0.640625 -0.28125,1.359375 -0.640625,2.296875 -1.21875,3.25 -1.21875,4.0625 -1.21875,4.65625 0,2.359375 1.6875,2.90625 2.921875,2.90625 0.71875,0 1.609375,-0.21875 2.484375,-1.140625 L 8,-0.875 C 7.625,0.59375 7.390625,1.5625 6.515625,2.78125 Z m 0,0"
             id="path45" />
        </g>
      </g>
      <g
         fill="#000000"
         fill-opacity="1"
         id="g48"
         transform="matrix(1.33333,0,0,1.33333,-278.687,-26.3508)">
        <g
           id="g47"
           transform="translate(220.177,34.403)">
          <path
             d="M 7.1875,-2.671875 H 6.875 c -0.171875,1.21875 -0.3125,1.4375 -0.390625,1.53125 C 6.40625,-1 5.171875,-1 4.921875,-1 H 1.625 c 0.609375,-0.671875 1.8125,-1.890625 3.28125,-3.3125 1.046875,-0.984375 2.28125,-2.15625 2.28125,-3.859375 0,-2.03125 -1.625,-3.203125 -3.4375,-3.203125 -1.890625,0 -3.046875,1.65625 -3.046875,3.21875 0,0.671875 0.5,0.75 0.703125,0.75 0.171875,0 0.6875,-0.09375 0.6875,-0.703125 0,-0.53125 -0.4375,-0.6875 -0.6875,-0.6875 -0.09375,0 -0.203125,0.015625 -0.265625,0.046875 0.328125,-1.453125 1.328125,-2.1875 2.375,-2.1875 1.5,0 2.46875,1.1875 2.46875,2.765625 0,1.484375 -0.875,2.78125 -1.859375,3.90625 l -3.421875,3.875 V 0 h 6.0625 z m 0,0"
             id="path46" />
        </g>
      </g>
    </g>
    <g
       inkscape:label=""
       transform="translate(1732.6668,758.27693)"
       id="g54">
      <g
         fill="#000000"
         fill-opacity="1"
         id="g51"
         transform="matrix(1.33333,0,0,1.33333,-280.567,-20.2662)">
        <g
           id="g50"
           transform="translate(209.87801,30.684)">
          <path
             d="m 4.984375,-9.96875 h 2.28125 c 0.46875,0 0.71875,0 0.71875,-0.4375 0,-0.28125 -0.15625,-0.28125 -0.65625,-0.28125 H 5.15625 l 0.921875,-3.609375 c 0.09375,-0.34375 0.09375,-0.390625 0.09375,-0.578125 0,-0.390625 -0.328125,-0.609375 -0.640625,-0.609375 -0.203125,0 -0.765625,0.07813 -0.96875,0.859375 l -0.96875,3.9375 H 1.265625 c -0.5,0 -0.71875,0 -0.71875,0.484375 0,0.234375 0.171875,0.234375 0.640625,0.234375 h 2.203125 l -1.625,6.546875 c -0.203125,0.875 -0.28125,1.125 -0.28125,1.4375 0,1.171875 0.8125,2.234375 2.203125,2.234375 2.5,0 3.84375,-3.625 3.84375,-3.796875 0,-0.140625 -0.09375,-0.21875 -0.25,-0.21875 -0.046875,0 -0.140625,0 -0.1875,0.09375 C 7.0625,-3.640625 7.03125,-3.625 6.859375,-3.21875 6.34375,-1.984375 5.203125,-0.25 3.765625,-0.25 c -0.75,0 -0.796875,-0.625 -0.796875,-1.15625 0,-0.03125 0,-0.5 0.078125,-0.796875 z m 0,0"
             id="path49" />
        </g>
      </g>
      <g
         fill="#000000"
         fill-opacity="1"
         id="g53"
         transform="matrix(1.33333,0,0,1.33333,-280.567,-20.2662)">
        <g
           id="g52"
           transform="translate(218.642,34.402)">
          <path
             d="m 4.578125,-11 c 0,-0.359375 -0.015625,-0.375 -0.25,-0.375 -0.671875,0.796875 -1.6875,1.0625 -2.65625,1.09375 -0.046875,0 -0.140625,0 -0.15625,0.03125 C 1.5,-10.203125 1.5,-10.171875 1.5,-9.8125 c 0.53125,0 1.421875,-0.109375 2.109375,-0.515625 V -1.25 c 0,0.59375 -0.03125,0.796875 -1.515625,0.796875 H 1.578125 V 0 c 0.828125,-0.015625 1.6875,-0.03125 2.515625,-0.03125 0.828125,0 1.6875,0.015625 2.515625,0.03125 V -0.453125 H 6.09375 c -1.484375,0 -1.515625,-0.1875 -1.515625,-0.796875 z m 0,0"
             id="path51" />
        </g>
      </g>
    </g>
    <g
       inkscape:label=""
       transform="translate(1643.0996,654.35165)"
       id="g59">
      <g
         fill="#000000"
         fill-opacity="1"
         id="g56"
         transform="matrix(1.33333,0,0,1.33333,-280.567,-20.2662)">
        <g
           id="g55"
           transform="translate(209.87801,30.684)">
          <path
             d="m 4.984375,-9.96875 h 2.28125 c 0.46875,0 0.71875,0 0.71875,-0.4375 0,-0.28125 -0.15625,-0.28125 -0.65625,-0.28125 H 5.15625 l 0.921875,-3.609375 c 0.09375,-0.34375 0.09375,-0.390625 0.09375,-0.578125 0,-0.390625 -0.328125,-0.609375 -0.640625,-0.609375 -0.203125,0 -0.765625,0.07813 -0.96875,0.859375 l -0.96875,3.9375 H 1.265625 c -0.5,0 -0.71875,0 -0.71875,0.484375 0,0.234375 0.171875,0.234375 0.640625,0.234375 h 2.203125 l -1.625,6.546875 c -0.203125,0.875 -0.28125,1.125 -0.28125,1.4375 0,1.171875 0.8125,2.234375 2.203125,2.234375 2.5,0 3.84375,-3.625 3.84375,-3.796875 0,-0.140625 -0.09375,-0.21875 -0.25,-0.21875 -0.046875,0 -0.140625,0 -0.1875,0.09375 C 7.0625,-3.640625 7.03125,-3.625 6.859375,-3.21875 6.34375,-1.984375 5.203125,-0.25 3.765625,-0.25 c -0.75,0 -0.796875,-0.625 -0.796875,-1.15625 0,-0.03125 0,-0.5 0.078125,-0.796875 z m 0,0"
             id="path54" />
        </g>
      </g>
      <g
         fill="#000000"
         fill-opacity="1"
         id="g58"
         transform="matrix(1.33333,0,0,1.33333,-280.567,-20.2662)">
        <g
           id="g57"
           transform="translate(218.642,34.402)">
          <path
             d="M 7.1875,-2.671875 H 6.875 c -0.171875,1.21875 -0.3125,1.4375 -0.390625,1.53125 C 6.40625,-1 5.171875,-1 4.921875,-1 H 1.625 c 0.609375,-0.671875 1.8125,-1.890625 3.28125,-3.3125 1.046875,-0.984375 2.28125,-2.15625 2.28125,-3.859375 0,-2.03125 -1.625,-3.203125 -3.4375,-3.203125 -1.890625,0 -3.046875,1.65625 -3.046875,3.21875 0,0.671875 0.5,0.75 0.703125,0.75 0.171875,0 0.6875,-0.09375 0.6875,-0.703125 0,-0.53125 -0.4375,-0.6875 -0.6875,-0.6875 -0.09375,0 -0.203125,0.015625 -0.265625,0.046875 0.328125,-1.453125 1.328125,-2.1875 2.375,-2.1875 1.5,0 2.46875,1.1875 2.46875,2.765625 0,1.484375 -0.875,2.78125 -1.859375,3.90625 l -3.421875,3.875 V 0 h 6.0625 z m 0,0"
             id="path56" />
        </g>
      </g>
    </g>
    <g
       inkscape:label=""
       transform="translate(1360.1415,666.93205)"
       id="g62">
      <g
         fill="#000000"
         fill-opacity="1"
         id="g61"
         transform="matrix(1.33333,0,0,1.33333,-285.247,-19.662)">
        <g
           id="g60"
           transform="translate(213.31,30.684)">
          <path
             d="m 6.25,-9.84375 h 2.203125 c 0.5,0 0.546875,0 0.671875,-0.125 0.140625,-0.09375 0.21875,-0.4375 0.21875,-0.59375 C 9.34375,-11 8.921875,-11 8.53125,-11 H 6.546875 l 0.78125,-3.203125 C 7.4375,-14.59375 7.4375,-14.75 7.4375,-14.84375 c 0,-0.796875 -0.640625,-1.09375 -1.171875,-1.09375 -0.375,0 -1.03125,0.171875 -1.4375,0.875 -0.09375,0.1875 -0.390625,1.328125 -0.5625,2.03125 L 3.765625,-11 H 1.53125 c -0.484375,0 -0.90625,0 -0.90625,0.71875 0,0.4375 0.390625,0.4375 0.84375,0.4375 h 2 L 2.0625,-4.1875 C 1.890625,-3.546875 1.640625,-2.5 1.640625,-2.234375 c 0,1.609375 1.578125,2.4375 3.125,2.4375 2.9375,0 4.625,-3.453125 4.625,-3.875 0,-0.34375 -0.375,-0.34375 -0.59375,-0.34375 -0.421875,0 -0.453125,0.03125 -0.625,0.390625 -0.9375,2.140625 -2.328125,2.9375 -3.296875,2.9375 -0.21875,0 -0.59375,0 -0.59375,-0.921875 0,-0.46875 0.078125,-0.75 0.15625,-1.0625 z m 0,0"
             id="path59" />
        </g>
      </g>
    </g>
  </g>
</svg>
