<?xml version="1.0" encoding="UTF-8" standalone="no"?>
<!-- Created with Inkscape (http://www.inkscape.org/) -->

<svg
   width="72.772438mm"
   height="54.95644mm"
   viewBox="0 0 72.772436 54.95644"
   version="1.1"
   id="svg5"
   xml:space="preserve"
   sodipodi:docname="EnergiaEspectral.svg"
   inkscape:version="1.2.1 (9c6d41e410, 2022-07-14)"
   xmlns:inkscape="http://www.inkscape.org/namespaces/inkscape"
   xmlns:sodipodi="http://sodipodi.sourceforge.net/DTD/sodipodi-0.dtd"
   xmlns="http://www.w3.org/2000/svg"
   xmlns:svg="http://www.w3.org/2000/svg"><sodipodi:namedview
     id="namedview7"
     pagecolor="#ffffff"
     bordercolor="#000000"
     borderopacity="0.25"
     inkscape:showpageshadow="2"
     inkscape:pageopacity="0.0"
     inkscape:pagecheckerboard="0"
     inkscape:deskcolor="#d1d1d1"
     inkscape:document-units="mm"
     showgrid="false"
     inkscape:zoom="2.9825758"
     inkscape:cx="162.1082"
     inkscape:cy="92.537464"
     inkscape:window-width="1920"
     inkscape:window-height="1017"
     inkscape:window-x="1912"
     inkscape:window-y="-8"
     inkscape:window-maximized="1"
     inkscape:current-layer="layer1"><inkscape:grid
       type="xygrid"
       id="grid356"
       originx="-63.604772"
       originy="-46.029023" /></sodipodi:namedview><defs
     id="defs2"><marker
   style="overflow:visible"
   id="TriangleStart"
   refX="2"
   refY="0"
   orient="auto-start-reverse"
   inkscape:stockid="TriangleStart"
   markerWidth="15"
   markerHeight="7"
   viewBox="0 0 5.3244081 6.1553851"
   inkscape:isstock="true"
   inkscape:collect="always"
   preserveAspectRatio="none"><path
     transform="scale(0.5)"
     style="fill:context-stroke;fill-rule:evenodd;stroke:context-stroke;stroke-width:1pt"
     d="M 5.77,0 -2.88,5 V -5 Z"
     id="path135" /></marker><marker
   style="overflow:visible"
   id="Arrow2"
   refX="5"
   refY="0"
   orient="auto-start-reverse"
   inkscape:stockid="Arrow2"
   markerWidth="7.6999998"
   markerHeight="5.5999999"
   viewBox="0 0 7.7 5.6"
   inkscape:isstock="true"
   inkscape:collect="always"
   preserveAspectRatio="xMidYMid"><path
     transform="scale(0.7)"
     d="M -2,-4 9,0 -2,4 c 2,-2.33 2,-5.66 0,-8 z"
     style="fill:context-stroke;fill-rule:evenodd;stroke:none"
     id="arrow2L" /></marker><clipPath
   id="clipPath7172">
      <path
   clip-rule="nonzero"
   d="m 227,5 h 3 v 12.433594 h -3 z m 0,0"
   id="path230" />
    </clipPath>
    <clipPath
   id="clipPath6992">
      <path
   clip-rule="nonzero"
   d="m 237,5 h 4 v 12.433594 h -4 z m 0,0"
   id="path5360" />
    </clipPath>
  <clipPath
   id="clipPath6174">
      <path
   clip-rule="nonzero"
   d="m 221,6 h 5 v 8.445313 h -5 z m 0,0"
   id="path2647" />
    </clipPath>
  <clipPath
   id="clipPath8934">
      <path
   clip-rule="nonzero"
   d="m 225,5 h 6 v 12.433594 h -6 z m 0,0"
   id="path4424" />
    </clipPath>
  <clipPath
   id="clipPath5492">
      <path
   clip-rule="nonzero"
   d="m 214,6 h 10 v 8.445313 h -10 z m 0,0"
   id="path9167" />
    </clipPath>
    <clipPath
   id="clipPath4300">
      <path
   clip-rule="nonzero"
   d="m 226,6 h 6 v 8.445313 h -6 z m 0,0"
   id="path3839" />
    </clipPath>
  <clipPath
   id="clipPath8130">
      <path
   clip-rule="nonzero"
   d="m 214,6 h 10 v 8.445313 h -10 z m 0,0"
   id="path4843" />
    </clipPath>
    <clipPath
   id="clipPath227">
      <path
   clip-rule="nonzero"
   d="m 226,6 h 6 v 8.445313 h -6 z m 0,0"
   id="path8517" />
    </clipPath>
  </defs><g
     inkscape:label="Camada 1"
     inkscape:groupmode="layer"
     id="layer1"
     transform="translate(-63.604782,-46.029019)"><path
       style="fill:none;stroke:#000000;stroke-width:0.238125;stroke-dasharray:none;marker-end:url(#TriangleStart)"
       d="M 74.083332,95.249999 H 134.9375"
       id="path916" /><path
       style="fill:none;stroke:#000000;stroke-width:0.238125;stroke-dasharray:none;marker-end:url(#TriangleStart)"
       d="m 78.052082,99.218749 v -47.625"
       id="path918" /><path
       style="fill:none;stroke:#000000;stroke-width:0.238125;stroke-dasharray:none"
       d="m 84.533601,61.120295 c 6.090055,-4.013104 13.229168,1.322917 13.229168,1.322917 0,0 20.061761,14.367711 23.901211,17.197917 2.02486,1.492608 4.98118,8.994287 4.98118,8.994287"
       id="path1646"
       sodipodi:nodetypes="ccsc" /><path
       style="fill:none;stroke:#000000;stroke-width:0.238125;stroke-dasharray:none"
       d="M 88.884463,55.074494 132.47988,86.312646"
       id="path1744" /><path
       style="fill:none;stroke:#000000;stroke-width:0.238125;stroke-dasharray:none"
       d="m 103.90763,65.800848 h 13.04726 v 9.346353"
       id="path1748" /><path
       style="fill:none;stroke:#000000;stroke-width:0.238125;stroke-dasharray:0.47625, 0.238125;stroke-dashoffset:0"
       d="M 97.895832,100.54167 V 58.208333"
       id="path1750" /><path
       style="fill:none;stroke:#000000;stroke-width:0.238125;stroke-dasharray:0.47625, 0.238125;stroke-dashoffset:0"
       d="M 121.70833,100.54167 V 75.406249"
       id="path1752" /><path
       style="fill:none;stroke:#000000;stroke-width:0.238125;stroke-dasharray:none;stroke-dashoffset:0"
       d="M 109.37903,97.137094 V 93.145159"
       id="path1875" /><g
       inkscape:label=""
       transform="translate(63.604742,52.327939)"
       id="g2289"><g
   fill="#000000"
   fill-opacity="1"
   id="g36"
   transform="matrix(0.352778,0,0,0.352778,-72.4128,-1.93225)">
    <g
   id="use32"
   transform="translate(204.87399,14.446)">
      <path
   d="M 2.0625,-8.296875 0.390625,-8.15625 v 0.34375 c 0.8125,0 0.90625,0.078125 0.90625,0.671875 v 6.25 c 0,0.546875 -0.125,0.546875 -0.90625,0.546875 V 0 c 0.34375,-0.03125 0.921875,-0.03125 1.28125,-0.03125 0.359375,0 0.953125,0 1.296875,0.03125 v -0.34375 c -0.765625,0 -0.90625,0 -0.90625,-0.546875 z m 0,0"
   id="path62" />
    </g>
    <g
   id="use34"
   transform="translate(208.12581,14.446)">
      <path
   d="m 5.3125,-2.90625 c 0,-1.109375 0,-1.4375 -0.265625,-1.828125 -0.34375,-0.46875 -0.90625,-0.53125 -1.3125,-0.53125 -1.171875,0 -1.625,0.984375 -1.71875,1.21875 v -1.21875 l -1.640625,0.125 v 0.34375 c 0.8125,0 0.921875,0.09375 0.921875,0.671875 v 3.234375 c 0,0.546875 -0.140625,0.546875 -0.921875,0.546875 V 0 c 0.3125,-0.03125 0.96875,-0.03125 1.296875,-0.03125 0.34375,0 1,0 1.296875,0.03125 v -0.34375 c -0.75,0 -0.90625,0 -0.90625,-0.546875 v -2.21875 c 0,-1.25 0.828125,-1.921875 1.578125,-1.921875 0.734375,0 0.90625,0.609375 0.90625,1.34375 v 2.796875 c 0,0.546875 -0.140625,0.546875 -0.90625,0.546875 V 0 c 0.296875,-0.03125 0.953125,-0.03125 1.28125,-0.03125 0.34375,0 1,0 1.3125,0.03125 v -0.34375 c -0.609375,0 -0.90625,0 -0.921875,-0.359375 z m 0,0"
   id="path66" />
    </g>
  </g>
  <g
   fill="#000000"
   fill-opacity="1"
   id="g40"
   transform="matrix(0.352778,0,0,0.352778,-72.4128,-1.93225)">
    <g
   id="use38"
   transform="translate(216.62199,14.446)">
      <path
   d="m 8.3125,-2.765625 c 0,-0.046875 0.046875,-0.125 0.046875,-0.171875 0,-0.0625 -0.046875,-0.125 -0.125,-0.125 C 8.1875,-3.0625 8.15625,-3.046875 8.125,-3.015625 8.109375,-3 8.109375,-2.96875 8,-2.734375 7.296875,-1.0625 6.78125,-0.34375 4.859375,-0.34375 H 3.125 c -0.171875,0 -0.203125,0 -0.265625,-0.015625 C 2.71875,-0.375 2.71875,-0.390625 2.71875,-0.484375 c 0,-0.09375 0.015625,-0.15625 0.046875,-0.265625 l 0.8125,-3.296875 h 1.1875 c 0.9375,0 1,0.203125 1,0.5625 0,0.109375 0,0.21875 -0.078125,0.578125 -0.015625,0.046875 -0.03125,0.09375 -0.03125,0.140625 0,0.078125 0.0625,0.109375 0.125,0.109375 0.109375,0 0.125,-0.078125 0.171875,-0.25 l 0.6875,-2.765625 c 0,-0.0625 -0.046875,-0.125 -0.125,-0.125 -0.109375,0 -0.125,0.046875 -0.171875,0.21875 C 6.109375,-4.65625 5.875,-4.40625 4.8125,-4.40625 H 3.671875 L 4.40625,-7.34375 C 4.515625,-7.75 4.546875,-7.796875 5.03125,-7.796875 h 1.703125 c 1.484375,0 1.78125,0.390625 1.78125,1.3125 0,0 0,0.34375 -0.046875,0.734375 -0.015625,0.046875 -0.03125,0.125 -0.03125,0.140625 0,0.09375 0.0625,0.140625 0.140625,0.140625 0.078125,0 0.125,-0.046875 0.140625,-0.265625 l 0.265625,-2.09375 C 8.984375,-7.859375 9,-7.984375 9,-8.015625 c 0,-0.125 -0.109375,-0.125 -0.328125,-0.125 H 2.84375 c -0.21875,0 -0.34375,0 -0.34375,0.21875 0,0.125 0.078125,0.125 0.28125,0.125 0.75,0 0.75,0.09375 0.75,0.21875 0,0.0625 -0.015625,0.109375 -0.046875,0.234375 l -1.625,6.453125 C 1.75,-0.46875 1.734375,-0.34375 0.890625,-0.34375 c -0.21875,0 -0.34375,0 -0.34375,0.21875 C 0.546875,0 0.625,0 0.859375,0 h 6 C 7.125,0 7.140625,-0.015625 7.21875,-0.203125 Z m 0,0"
   id="path70" />
    </g>
  </g>
  <g
   clip-path="url(#clipPath7172)"
   id="g46"
   transform="matrix(0.352778,0,0,0.352778,-72.4128,-1.93225)">
    <g
   fill="#000000"
   fill-opacity="1"
   id="g44">
      <g
   id="use42"
   transform="translate(225.98801,14.446)">
        <path
   d="m 3.890625,2.90625 c 0,-0.03125 0,-0.0625 -0.203125,-0.265625 C 2.484375,1.4375 1.8125,-0.53125 1.8125,-2.96875 c 0,-2.328125 0.5625,-4.328125 1.953125,-5.734375 0.125,-0.109375 0.125,-0.125 0.125,-0.171875 0,-0.0625 -0.0625,-0.09375 -0.109375,-0.09375 -0.15625,0 -1.140625,0.859375 -1.71875,2.03125 -0.609375,1.21875 -0.890625,2.484375 -0.890625,3.96875 0,1.0625 0.171875,2.484375 0.78125,3.75 C 2.671875,2.21875 3.640625,3 3.78125,3 3.828125,3 3.890625,2.96875 3.890625,2.90625 Z m 0,0"
   id="path74" />
      </g>
    </g>
  </g>
  <g
   fill="#000000"
   fill-opacity="1"
   id="g50"
   transform="matrix(0.352778,0,0,0.352778,-72.4128,-1.93225)">
    <g
   id="use48"
   transform="translate(230.53999,14.446)">
      <path
   d="m 3.359375,-8 c 0.015625,-0.046875 0.03125,-0.109375 0.03125,-0.171875 0,-0.125 -0.109375,-0.125 -0.140625,-0.125 -0.015625,0 -0.4375,0.03125 -0.65625,0.0625 C 2.390625,-8.21875 2.21875,-8.203125 2,-8.1875 c -0.296875,0.03125 -0.375,0.03125 -0.375,0.25 0,0.125 0.125,0.125 0.234375,0.125 0.609375,0 0.609375,0.109375 0.609375,0.21875 0,0.046875 0,0.078125 -0.046875,0.296875 L 0.703125,-0.46875 C 0.65625,-0.28125 0.65625,-0.265625 0.65625,-0.1875 c 0,0.265625 0.203125,0.3125 0.328125,0.3125 0.328125,0 0.40625,-0.265625 0.5,-0.640625 L 2.046875,-2.75 c 0.859375,0.09375 1.375,0.453125 1.375,1.03125 0,0.0625 0,0.109375 -0.046875,0.296875 -0.046875,0.171875 -0.046875,0.328125 -0.046875,0.375 0,0.703125 0.46875,1.171875 1.078125,1.171875 0.546875,0 0.828125,-0.5 0.921875,-0.671875 0.25,-0.4375 0.40625,-1.109375 0.40625,-1.15625 0,-0.0625 -0.046875,-0.109375 -0.109375,-0.109375 -0.109375,0 -0.125,0.046875 -0.171875,0.234375 C 5.28125,-0.953125 5.03125,-0.125 4.421875,-0.125 4.1875,-0.125 4.03125,-0.234375 4.03125,-0.6875 c 0,-0.234375 0.046875,-0.5 0.09375,-0.671875 0.046875,-0.21875 0.046875,-0.234375 0.046875,-0.375 0,-0.703125 -0.640625,-1.09375 -1.734375,-1.234375 0.4375,-0.265625 0.859375,-0.734375 1.03125,-0.921875 0.671875,-0.765625 1.140625,-1.140625 1.6875,-1.140625 0.28125,0 0.359375,0.078125 0.4375,0.140625 -0.4375,0.046875 -0.609375,0.359375 -0.609375,0.59375 0,0.296875 0.234375,0.390625 0.390625,0.390625 0.328125,0 0.609375,-0.28125 0.609375,-0.65625 0,-0.34375 -0.265625,-0.703125 -0.8125,-0.703125 -0.65625,0 -1.1875,0.453125 -2.046875,1.421875 -0.109375,0.140625 -0.5625,0.59375 -1,0.765625 z m 0,0"
   id="path78" />
    </g>
  </g>
  <g
   clip-path="url(#clipPath6992)"
   id="g56"
   transform="matrix(0.352778,0,0,0.352778,-72.4128,-1.93225)">
    <g
   fill="#000000"
   fill-opacity="1"
   id="g54">
      <g
   id="use52"
   transform="translate(237.03,14.446)">
        <path
   d="M 3.375,-2.96875 C 3.375,-3.890625 3.25,-5.359375 2.578125,-6.75 1.875,-8.1875 0.890625,-8.96875 0.765625,-8.96875 c -0.046875,0 -0.109375,0.03125 -0.109375,0.09375 0,0.046875 0,0.0625 0.203125,0.265625 1.203125,1.203125 1.859375,3.1875 1.859375,5.625 0,2.3125 -0.5625,4.3125 -1.9375,5.71875 C 0.65625,2.84375 0.65625,2.875 0.65625,2.90625 0.65625,2.96875 0.71875,3 0.765625,3 0.921875,3 1.90625,2.140625 2.484375,0.96875 3.09375,-0.25 3.375,-1.546875 3.375,-2.96875 Z m 0,0"
   id="path82" />
      </g>
    </g>
  </g>
</g><g
       inkscape:label=""
       transform="translate(110.62087,62.27421)"
       id="g2399"><g
   clip-path="url(#clipPath6174)"
   id="g17"
   transform="matrix(0.352778,0,0,0.352778,-78.1035,-2.29054)">
    <g
   fill="#000000"
   fill-opacity="1"
   id="g15">
      <g
   id="use13"
   transform="translate(220.302,14.446)">
        <path
   d="m 3.4375,-7.65625 c 0,-0.28125 0,-0.296875 -0.234375,-0.296875 C 2.921875,-7.625 2.3125,-7.1875 1.09375,-7.1875 v 0.34375 c 0.265625,0 0.859375,0 1.53125,-0.296875 v 6.21875 c 0,0.4375 -0.046875,0.578125 -1.09375,0.578125 h -0.375 V 0 c 0.328125,-0.03125 1.484375,-0.03125 1.875,-0.03125 0.40625,0 1.546875,0 1.875,0.03125 v -0.34375 h -0.375 c -1.046875,0 -1.09375,-0.140625 -1.09375,-0.578125 z m 0,0"
   id="path23" />
      </g>
    </g>
  </g>
</g><g
       inkscape:label=""
       transform="translate(117.62894,68.572596)"
       id="g2518"><g
   fill="#000000"
   fill-opacity="1"
   id="g26"
   transform="matrix(0.352778,0,0,0.352778,-74.36,-1.93225)">
    <g
   id="use24"
   transform="translate(209.8,14.446)">
      <path
   d="m 7.875,-2.75 c 0.203125,0 0.421875,0 0.421875,-0.234375 0,-0.25 -0.21875,-0.25 -0.421875,-0.25 H 1.40625 c -0.203125,0 -0.421875,0 -0.421875,0.25 0,0.234375 0.21875,0.234375 0.421875,0.234375 z m 0,0"
   id="path46" />
    </g>
  </g>
  <g
   fill="#000000"
   fill-opacity="1"
   id="g30"
   transform="matrix(0.352778,0,0,0.352778,-74.36,-1.93225)">
    <g
   id="use28"
   transform="translate(219.09801,14.446)">
      <path
   d="m 1.53125,-6.84375 c 0.515625,0.15625 0.9375,0.171875 1.0625,0.171875 1.34375,0 2.21875,-0.984375 2.21875,-1.15625 0,-0.046875 -0.03125,-0.109375 -0.109375,-0.109375 -0.015625,0 -0.046875,0 -0.15625,0.046875 C 3.890625,-7.609375 3.3125,-7.5625 3,-7.5625 c -0.78125,0 -1.34375,-0.25 -1.578125,-0.34375 C 1.34375,-7.9375 1.3125,-7.9375 1.296875,-7.9375 c -0.09375,0 -0.09375,0.078125 -0.09375,0.265625 V -4.125 c 0,0.21875 0,0.28125 0.140625,0.28125 0.0625,0 0.078125,0 0.203125,-0.15625 C 1.875,-4.484375 2.4375,-4.765625 3.03125,-4.765625 c 0.640625,0 0.953125,0.578125 1.046875,0.78125 0.203125,0.46875 0.21875,1.0625 0.21875,1.515625 0,0.453125 0,1.125 -0.34375,1.671875 -0.265625,0.421875 -0.71875,0.71875 -1.25,0.71875 -0.796875,0 -1.5625,-0.53125 -1.78125,-1.40625 0.0625,0.03125 0.125,0.03125 0.1875,0.03125 0.203125,0 0.53125,-0.109375 0.53125,-0.515625 0,-0.34375 -0.234375,-0.53125 -0.53125,-0.53125 -0.21875,0 -0.53125,0.109375 -0.53125,0.578125 0,1.015625 0.828125,2.171875 2.140625,2.171875 1.359375,0 2.546875,-1.140625 2.546875,-2.65625 0,-1.421875 -0.96875,-2.609375 -2.21875,-2.609375 -0.6875,0 -1.203125,0.3125 -1.515625,0.640625 z m 0,0"
   id="path50" />
    </g>
  </g>
  <g
   clip-path="url(#clipPath8934)"
   id="g2511"
   transform="matrix(0.352778,0,0,0.352778,-74.36,-1.93225)">
    <g
   fill="#000000"
   fill-opacity="1"
   id="g34">
      <g
   id="g2508"
   transform="translate(224.951,14.446)">
        <path
   d="m 5.125,-8.515625 c 0,-0.015625 0.078125,-0.203125 0.078125,-0.21875 0,-0.140625 -0.125,-0.234375 -0.21875,-0.234375 -0.0625,0 -0.171875,0 -0.265625,0.265625 l -4,11.25 c 0,0.015625 -0.078125,0.1875 -0.078125,0.21875 0,0.140625 0.125,0.21875 0.21875,0.21875 0.078125,0 0.1875,-0.015625 0.265625,-0.265625 z m 0,0"
   id="path54" />
      </g>
    </g>
  </g>
  <g
   fill="#000000"
   fill-opacity="1"
   id="g2516"
   transform="matrix(0.352778,0,0,0.352778,-74.36,-1.93225)">
    <g
   id="g2514"
   transform="translate(230.804,14.446)">
      <path
   d="m 2.203125,-4.296875 c -0.203125,0.015625 -0.25,0.03125 -0.25,0.140625 0,0.109375 0.0625,0.109375 0.265625,0.109375 h 0.546875 c 1.03125,0 1.484375,0.84375 1.484375,1.984375 0,1.578125 -0.8125,1.984375 -1.40625,1.984375 -0.578125,0 -1.546875,-0.265625 -1.90625,-1.0625 0.390625,0.0625 0.734375,-0.15625 0.734375,-0.578125 0,-0.34375 -0.25,-0.59375 -0.578125,-0.59375 -0.296875,0 -0.609375,0.171875 -0.609375,0.625 0,1.0625 1.0625,1.9375 2.390625,1.9375 1.421875,0 2.484375,-1.09375 2.484375,-2.296875 C 5.359375,-3.140625 4.46875,-4 3.328125,-4.203125 4.359375,-4.5 5.03125,-5.375 5.03125,-6.3125 c 0,-0.9375 -0.984375,-1.640625 -2.140625,-1.640625 -1.1875,0 -2.078125,0.734375 -2.078125,1.609375 0,0.46875 0.375,0.578125 0.546875,0.578125 0.25,0 0.546875,-0.1875 0.546875,-0.546875 0,-0.375 -0.296875,-0.546875 -0.5625,-0.546875 -0.0625,0 -0.09375,0 -0.125,0.015625 0.453125,-0.8125 1.578125,-0.8125 1.640625,-0.8125 0.390625,0 1.171875,0.171875 1.171875,1.34375 0,0.234375 -0.03125,0.890625 -0.390625,1.40625 C 3.28125,-4.375 2.875,-4.34375 2.5625,-4.328125 Z m 0,0"
   id="path58" />
    </g>
  </g>
</g><g
       inkscape:label=""
       transform="translate(106.89506,97.403242)"
       id="g2682"><g
   clip-path="url(#clipPath5492)"
   id="g32"
   transform="matrix(0.352778,0,0,0.352778,-75.6711,-1.51377)">
    <g
   fill="#000000"
   fill-opacity="1"
   id="g2668">
      <g
   id="use26"
   transform="translate(214.11,14.446)">
        <path
   d="M 2.0625,-8.296875 0.390625,-8.15625 v 0.34375 c 0.8125,0 0.90625,0.078125 0.90625,0.671875 v 6.25 c 0,0.546875 -0.125,0.546875 -0.90625,0.546875 V 0 c 0.34375,-0.03125 0.921875,-0.03125 1.28125,-0.03125 0.359375,0 0.953125,0 1.296875,0.03125 v -0.34375 c -0.765625,0 -0.90625,0 -0.90625,-0.546875 z m 0,0"
   id="path48" />
      </g>
      <g
   id="g2666"
   transform="translate(217.36182,14.446)">
        <path
   d="m 5.3125,-2.90625 c 0,-1.109375 0,-1.4375 -0.265625,-1.828125 -0.34375,-0.46875 -0.90625,-0.53125 -1.3125,-0.53125 -1.171875,0 -1.625,0.984375 -1.71875,1.21875 v -1.21875 l -1.640625,0.125 v 0.34375 c 0.8125,0 0.921875,0.09375 0.921875,0.671875 v 3.234375 c 0,0.546875 -0.140625,0.546875 -0.921875,0.546875 V 0 c 0.3125,-0.03125 0.96875,-0.03125 1.296875,-0.03125 0.34375,0 1,0 1.296875,0.03125 v -0.34375 c -0.75,0 -0.90625,0 -0.90625,-0.546875 v -2.21875 c 0,-1.25 0.828125,-1.921875 1.578125,-1.921875 0.734375,0 0.90625,0.609375 0.90625,1.34375 v 2.796875 c 0,0.546875 -0.140625,0.546875 -0.90625,0.546875 V 0 c 0.296875,-0.03125 0.953125,-0.03125 1.28125,-0.03125 0.34375,0 1,0 1.3125,0.03125 v -0.34375 c -0.609375,0 -0.90625,0 -0.921875,-0.359375 z m 0,0"
   id="path52" />
      </g>
    </g>
  </g>
  <g
   fill="#000000"
   fill-opacity="1"
   id="g2674"
   transform="matrix(0.352778,0,0,0.352778,-75.6711,-1.51377)">
    <g
   id="g2672"
   transform="translate(226.17599,11.291)">
      <path
   d="M 5.03125,-6.65625 V -7 H 0.8125 v 0.34375 z m 0,0"
   id="path56" />
    </g>
  </g>
  <g
   clip-path="url(#clipPath4300)"
   id="g42"
   transform="matrix(0.352778,0,0,0.352778,-75.6711,-1.51377)">
    <g
   fill="#000000"
   fill-opacity="1"
   id="g2679">
      <g
   id="g2677"
   transform="translate(225.85699,14.446)">
        <path
   d="m 3.359375,-8 c 0.015625,-0.046875 0.03125,-0.109375 0.03125,-0.171875 0,-0.125 -0.109375,-0.125 -0.140625,-0.125 -0.015625,0 -0.4375,0.03125 -0.65625,0.0625 C 2.390625,-8.21875 2.21875,-8.203125 2,-8.1875 c -0.296875,0.03125 -0.375,0.03125 -0.375,0.25 0,0.125 0.125,0.125 0.234375,0.125 0.609375,0 0.609375,0.109375 0.609375,0.21875 0,0.046875 0,0.078125 -0.046875,0.296875 L 0.703125,-0.46875 C 0.65625,-0.28125 0.65625,-0.265625 0.65625,-0.1875 c 0,0.265625 0.203125,0.3125 0.328125,0.3125 0.328125,0 0.40625,-0.265625 0.5,-0.640625 L 2.046875,-2.75 c 0.859375,0.09375 1.375,0.453125 1.375,1.03125 0,0.0625 0,0.109375 -0.046875,0.296875 -0.046875,0.171875 -0.046875,0.328125 -0.046875,0.375 0,0.703125 0.46875,1.171875 1.078125,1.171875 0.546875,0 0.828125,-0.5 0.921875,-0.671875 0.25,-0.4375 0.40625,-1.109375 0.40625,-1.15625 0,-0.0625 -0.046875,-0.109375 -0.109375,-0.109375 -0.109375,0 -0.125,0.046875 -0.171875,0.234375 C 5.28125,-0.953125 5.03125,-0.125 4.421875,-0.125 4.1875,-0.125 4.03125,-0.234375 4.03125,-0.6875 c 0,-0.234375 0.046875,-0.5 0.09375,-0.671875 0.046875,-0.21875 0.046875,-0.234375 0.046875,-0.375 0,-0.703125 -0.640625,-1.09375 -1.734375,-1.234375 0.4375,-0.265625 0.859375,-0.734375 1.03125,-0.921875 0.671875,-0.765625 1.140625,-1.140625 1.6875,-1.140625 0.28125,0 0.359375,0.078125 0.4375,0.140625 -0.4375,0.046875 -0.609375,0.359375 -0.609375,0.59375 0,0.296875 0.234375,0.390625 0.390625,0.390625 0.328125,0 0.609375,-0.28125 0.609375,-0.65625 0,-0.34375 -0.265625,-0.703125 -0.8125,-0.703125 -0.65625,0 -1.1875,0.453125 -2.046875,1.421875 -0.109375,0.140625 -0.5625,0.59375 -1,0.765625 z m 0,0"
   id="path60" />
      </g>
    </g>
  </g>
</g><g
       inkscape:label=""
       transform="translate(129.1612,96.617555)"
       id="g2875"><g
   clip-path="url(#clipPath8130)"
   id="g29"
   transform="matrix(0.352778,0,0,0.352778,-75.6711,-2.16927)">
    <g
   fill="#000000"
   fill-opacity="1"
   id="g27">
      <g
   id="use23"
   transform="translate(214.11,14.446)">
        <path
   d="M 2.0625,-8.296875 0.390625,-8.15625 v 0.34375 c 0.8125,0 0.90625,0.078125 0.90625,0.671875 v 6.25 c 0,0.546875 -0.125,0.546875 -0.90625,0.546875 V 0 c 0.34375,-0.03125 0.921875,-0.03125 1.28125,-0.03125 0.359375,0 0.953125,0 1.296875,0.03125 v -0.34375 c -0.765625,0 -0.90625,0 -0.90625,-0.546875 z m 0,0"
   id="path41" />
      </g>
      <g
   id="use25"
   transform="translate(217.36182,14.446)">
        <path
   d="m 5.3125,-2.90625 c 0,-1.109375 0,-1.4375 -0.265625,-1.828125 -0.34375,-0.46875 -0.90625,-0.53125 -1.3125,-0.53125 -1.171875,0 -1.625,0.984375 -1.71875,1.21875 v -1.21875 l -1.640625,0.125 v 0.34375 c 0.8125,0 0.921875,0.09375 0.921875,0.671875 v 3.234375 c 0,0.546875 -0.140625,0.546875 -0.921875,0.546875 V 0 c 0.3125,-0.03125 0.96875,-0.03125 1.296875,-0.03125 0.34375,0 1,0 1.296875,0.03125 v -0.34375 c -0.75,0 -0.90625,0 -0.90625,-0.546875 v -2.21875 c 0,-1.25 0.828125,-1.921875 1.578125,-1.921875 0.734375,0 0.90625,0.609375 0.90625,1.34375 v 2.796875 c 0,0.546875 -0.140625,0.546875 -0.90625,0.546875 V 0 c 0.296875,-0.03125 0.953125,-0.03125 1.28125,-0.03125 0.34375,0 1,0 1.3125,0.03125 v -0.34375 c -0.609375,0 -0.90625,0 -0.921875,-0.359375 z m 0,0"
   id="path45" />
      </g>
    </g>
  </g>
  <g
   clip-path="url(#clipPath227)"
   id="g35"
   transform="matrix(0.352778,0,0,0.352778,-75.6711,-2.16927)">
    <g
   fill="#000000"
   fill-opacity="1"
   id="g33">
      <g
   id="use31"
   transform="translate(225.85699,14.446)">
        <path
   d="m 3.359375,-8 c 0.015625,-0.046875 0.03125,-0.109375 0.03125,-0.171875 0,-0.125 -0.109375,-0.125 -0.140625,-0.125 -0.015625,0 -0.4375,0.03125 -0.65625,0.0625 C 2.390625,-8.21875 2.21875,-8.203125 2,-8.1875 c -0.296875,0.03125 -0.375,0.03125 -0.375,0.25 0,0.125 0.125,0.125 0.234375,0.125 0.609375,0 0.609375,0.109375 0.609375,0.21875 0,0.046875 0,0.078125 -0.046875,0.296875 L 0.703125,-0.46875 C 0.65625,-0.28125 0.65625,-0.265625 0.65625,-0.1875 c 0,0.265625 0.203125,0.3125 0.328125,0.3125 0.328125,0 0.40625,-0.265625 0.5,-0.640625 L 2.046875,-2.75 c 0.859375,0.09375 1.375,0.453125 1.375,1.03125 0,0.0625 0,0.109375 -0.046875,0.296875 -0.046875,0.171875 -0.046875,0.328125 -0.046875,0.375 0,0.703125 0.46875,1.171875 1.078125,1.171875 0.546875,0 0.828125,-0.5 0.921875,-0.671875 0.25,-0.4375 0.40625,-1.109375 0.40625,-1.15625 0,-0.0625 -0.046875,-0.109375 -0.109375,-0.109375 -0.109375,0 -0.125,0.046875 -0.171875,0.234375 C 5.28125,-0.953125 5.03125,-0.125 4.421875,-0.125 4.1875,-0.125 4.03125,-0.234375 4.03125,-0.6875 c 0,-0.234375 0.046875,-0.5 0.09375,-0.671875 0.046875,-0.21875 0.046875,-0.234375 0.046875,-0.375 0,-0.703125 -0.640625,-1.09375 -1.734375,-1.234375 0.4375,-0.265625 0.859375,-0.734375 1.03125,-0.921875 0.671875,-0.765625 1.140625,-1.140625 1.6875,-1.140625 0.28125,0 0.359375,0.078125 0.4375,0.140625 -0.4375,0.046875 -0.609375,0.359375 -0.609375,0.59375 0,0.296875 0.234375,0.390625 0.390625,0.390625 0.328125,0 0.609375,-0.28125 0.609375,-0.65625 0,-0.34375 -0.265625,-0.703125 -0.8125,-0.703125 -0.65625,0 -1.1875,0.453125 -2.046875,1.421875 -0.109375,0.140625 -0.5625,0.59375 -1,0.765625 z m 0,0"
   id="path49" />
      </g>
    </g>
  </g>
</g><path
       style="fill:none;stroke:#000000;stroke-width:0.238125;stroke-dasharray:none;stroke-dashoffset:0"
       d="m 109.46592,57.838708 v -7.54032"
       id="path10877" /><path
       style="fill:none;stroke:#000000;stroke-width:0.238125;stroke-dasharray:none;stroke-dashoffset:0;marker-start:url(#Arrow2);marker-end:url(#Arrow2)"
       d="m 102.99193,53.225806 h 12.68549"
       id="path10879" /><text
       xml:space="preserve"
       style="font-size:4.23333px;font-family:Arial;-inkscape-font-specification:'Arial, Normal';fill:#000000;fill-opacity:1;stroke-width:0.238125;stroke-dasharray:none"
       x="117.474"
       y="49.059322"
       id="text70981"><tspan
         sodipodi:role="line"
         id="tspan70979"
         style="fill:#000000;fill-opacity:1;stroke-width:0.238125"
         x="117.474"
         y="49.059322">Pequenas</tspan><tspan
         sodipodi:role="line"
         style="fill:#000000;fill-opacity:1;stroke-width:0.238125"
         x="117.474"
         y="54.350983"
         id="tspan71033">escalas</tspan></text><text
       xml:space="preserve"
       style="font-size:4.23333px;font-family:Arial;-inkscape-font-specification:'Arial, Normal';fill:#000000;fill-opacity:1;stroke-width:0.238125;stroke-dasharray:none"
       x="86.60894"
       y="49.111"
       id="text71037"><tspan
         sodipodi:role="line"
         id="tspan71035"
         style="fill:#000000;fill-opacity:1;stroke-width:0.238125"
         x="86.60894"
         y="49.111">Grandes</tspan><tspan
         sodipodi:role="line"
         style="fill:#000000;fill-opacity:1;stroke-width:0.238125"
         x="86.60894"
         y="54.402664"
         id="tspan71039">escalas</tspan></text></g></svg>
