<?xml version="1.0" encoding="UTF-8" standalone="no"?>
<!-- Created with Inkscape (http://www.inkscape.org/) -->

<svg
   width="95.285248mm"
   height="70.924377mm"
   viewBox="0 0 95.285244 70.924377"
   version="1.1"
   id="svg15211"
   inkscape:version="1.3.2 (091e20e, 2023-11-25, custom)"
   sodipodi:docname="EqFor.svg"
   xmlns:inkscape="http://www.inkscape.org/namespaces/inkscape"
   xmlns:sodipodi="http://sodipodi.sourceforge.net/DTD/sodipodi-0.dtd"
   xmlns:xlink="http://www.w3.org/1999/xlink"
   xmlns="http://www.w3.org/2000/svg"
   xmlns:svg="http://www.w3.org/2000/svg">
  <sodipodi:namedview
     id="namedview15213"
     pagecolor="#ffffff"
     bordercolor="#000000"
     borderopacity="0.25"
     inkscape:showpageshadow="2"
     inkscape:pageopacity="0.0"
     inkscape:pagecheckerboard="0"
     inkscape:deskcolor="#d1d1d1"
     inkscape:document-units="mm"
     showgrid="false"
     inkscape:lockguides="true"
     inkscape:zoom="2.1089995"
     inkscape:cx="187.76676"
     inkscape:cy="145.32957"
     inkscape:window-width="1920"
     inkscape:window-height="1017"
     inkscape:window-x="1912"
     inkscape:window-y="-8"
     inkscape:window-maximized="1"
     inkscape:current-layer="layer1">
    <inkscape:grid
       id="grid1"
       units="mm"
       originx="-17.762915"
       originy="-17.768734"
       spacingx="0.99999998"
       spacingy="0.99999999"
       empcolor="#0099e5"
       empopacity="0.30196078"
       color="#0099e5"
       opacity="0.14901961"
       empspacing="5"
       dotted="false"
       gridanglex="30"
       gridanglez="30"
       visible="false"
       enabled="false" />
    <inkscape:grid
       type="axonomgrid"
       id="grid2"
       units="mm"
       originx="-17.762915"
       originy="-17.768734"
       spacingx="0"
       spacingy="4.9999999"
       empcolor="#0099e5"
       empopacity="0.30196078"
       color="#0099e5"
       opacity="0.14901961"
       empspacing="5"
       dotted="false"
       gridanglex="30"
       gridanglez="30"
       visible="false" />
  </sodipodi:namedview>
  <defs
     id="defs15208">
    <linearGradient
       inkscape:collect="always"
       id="linearGradient13450">
      <stop
         style="stop-color:#000000;stop-opacity:0;"
         offset="0"
         id="stop13448" />
      <stop
         style="stop-color:#000000;stop-opacity:0.2;"
         offset="1"
         id="stop13446" />
    </linearGradient>
    <marker
       style="overflow:visible"
       id="marker91561"
       refX="3"
       refY="0"
       orient="auto-start-reverse"
       inkscape:stockid="TriangleStart"
       markerWidth="12"
       markerHeight="6"
       viewBox="0 0 5.3244081 6.1553851"
       inkscape:isstock="true"
       inkscape:collect="always"
       preserveAspectRatio="none">
      <path
         transform="scale(0.5)"
         style="fill:context-stroke;fill-rule:evenodd;stroke:context-stroke;stroke-width:1pt"
         d="M 5.77,0 -2.88,5 V -5 Z"
         id="path91559" />
    </marker>
    <marker
       style="overflow:visible"
       id="TriangleStart"
       refX="3"
       refY="0"
       orient="auto-start-reverse"
       inkscape:stockid="TriangleStart"
       markerWidth="15"
       markerHeight="7"
       viewBox="0 0 5.3244081 6.1553851"
       inkscape:isstock="true"
       inkscape:collect="always"
       preserveAspectRatio="none">
      <path
         transform="scale(0.5)"
         style="fill:context-stroke;fill-rule:evenodd;stroke:context-stroke;stroke-width:1pt"
         d="M 5.77,0 -2.88,5 V -5 Z"
         id="path88970" />
    </marker>
    <clipPath
       id="clipPath7464-7">
      <path
         clip-rule="nonzero"
         d="m 243,12 h 4 v 8.085938 h -4 z m 0,0"
         id="path6319-4" />
    </clipPath>
    <clipPath
       id="clipPath3168-7">
      <path
         clip-rule="nonzero"
         d="m 242,12 h 6 v 8.085938 h -6 z m 0,0"
         id="path7085-7" />
    </clipPath>
    <clipPath
       id="clipPath3244-2">
      <path
         clip-rule="nonzero"
         d="m 242,12 h 6 v 8.085938 h -6 z m 0,0"
         id="path3827-6" />
    </clipPath>
    <clipPath
       id="clipPath6298">
      <path
         clip-rule="nonzero"
         d="m 241,12 h 10 v 8.085938 h -10 z m 0,0"
         id="path624" />
    </clipPath>
    <clipPath
       id="clipPath5946">
      <path
         clip-rule="nonzero"
         d="m 240,12 h 11 v 8.085938 h -11 z m 0,0"
         id="path1184" />
    </clipPath>
    <clipPath
       id="clipPath6578">
      <path
         clip-rule="nonzero"
         d="m 240,12 h 11 v 8.085938 h -11 z m 0,0"
         id="path3940" />
    </clipPath>
    <clipPath
       id="clipPath6808">
      <path
         clip-rule="nonzero"
         d="m 248,24 h 7 v 9.296875 h -7 z m 0,0"
         id="path1318" />
    </clipPath>
    <clipPath
       id="clipPath5998">
      <path
         clip-rule="nonzero"
         d="m 248,24 h 7 v 9.296875 h -7 z m 0,0"
         id="path490" />
    </clipPath>
    <clipPath
       id="clipPath7327">
      <path
         clip-rule="nonzero"
         d="m 248,24 h 7 v 9.296875 h -7 z m 0,0"
         id="path7193" />
    </clipPath>
    <clipPath
       id="clipPath1281">
      <path
         clip-rule="nonzero"
         d="m 242,12 h 5 v 8.085938 h -5 z m 0,0"
         id="path886" />
    </clipPath>
    <clipPath
       id="clipPath2197">
      <path
         clip-rule="nonzero"
         d="m 231,11 h 9 v 11.476563 h -9 z m 0,0"
         id="path7489" />
    </clipPath>
    <clipPath
       id="clipPath9719">
      <path
         clip-rule="nonzero"
         d="m 231,11 h 9 v 11.476563 h -9 z m 0,0"
         id="path6004" />
    </clipPath>
    <clipPath
       id="clipPath7858">
      <path
         clip-rule="nonzero"
         d="m 231,11 h 9 v 11.476563 h -9 z m 0,0"
         id="path7913" />
    </clipPath>
    <radialGradient
       inkscape:collect="always"
       xlink:href="#linearGradient13450"
       id="radialGradient13452"
       cx="98.551819"
       cy="163.82617"
       fx="98.551819"
       fy="163.82617"
       r="30.31089"
       gradientTransform="matrix(1,0,0,0.90726468,6.3823306,17.194595)"
       gradientUnits="userSpaceOnUse" />
  </defs>
  <g
     inkscape:label="Camada 1"
     inkscape:groupmode="layer"
     id="layer1"
     transform="translate(-57.612664,-126.09702)">
    <path
       style="fill:url(#radialGradient13452);fill-opacity:1;stroke-width:0.238125"
       d="m 104.80166,185.82829 -34.641019,-20 v -20 l 25.980758,-15 34.641021,20 v 20 z"
       id="path71774" />
    <path
       style="fill:none;stroke:#000000;stroke-width:0.264999;stroke-dasharray:none;stroke-dashoffset:0;stroke-opacity:1"
       d="m 70.160641,145.82829 34.641009,20 25.98077,-15 -34.641019,-20 -25.98076,15 v 20 l 34.641019,20 25.98076,-15 v -20"
       id="path12766-1" />
    <path
       style="fill:none;stroke:#000000;stroke-width:0.264999;stroke-dasharray:none;stroke-dashoffset:0;stroke-opacity:1"
       d="m 104.80165,185.82829 v -20"
       id="path12768-3" />
    <path
       style="fill:none;stroke:#000000;stroke-width:0.264999;stroke-dasharray:1.06;stroke-dashoffset:0;stroke-opacity:1"
       d="m 70.160641,165.82829 25.98076,-15 34.641019,20"
       id="path12770-1" />
    <path
       style="fill:none;stroke:#000000;stroke-width:0.264999;stroke-dasharray:1.06;stroke-dashoffset:0;stroke-opacity:1"
       d="m 96.141401,150.82829 v -20"
       id="path12772-4" />
    <path
       style="fill:none;stroke:#000000;stroke-width:0.264999;stroke-dasharray:none;stroke-dashoffset:0;stroke-opacity:1;marker-end:url(#TriangleStart)"
       d="m 117.92453,168.32829 17.32051,10"
       id="path12776-0" />
    <path
       style="fill:none;stroke:#000000;stroke-width:0.264999;stroke-dasharray:none;stroke-dashoffset:0;stroke-opacity:1;marker-end:url(#TriangleStart)"
       d="m 74.623261,143.32829 -8.79275,-5"
       id="path12780-3"
       sodipodi:nodetypes="cc" />
    <path
       style="fill:none;stroke:#000000;stroke-width:0.264999;stroke-dasharray:none;stroke-dashoffset:0;stroke-opacity:1;marker-end:url(#marker91561)"
       d="m 70.160641,145.82829 v -15"
       id="path13026-06" />
    <path
       style="fill:none;stroke:#000000;stroke-width:0.264999;stroke-dasharray:none;stroke-dashoffset:0;stroke-opacity:1;marker-end:url(#marker91561)"
       d="m 104.80166,185.82829 17.3205,10"
       id="path13028-17" />
    <path
       style="fill:none;stroke:#000000;stroke-width:0.265;stroke-dasharray:none;marker-end:url(#TriangleStart)"
       d="m 91.943761,143.32829 17.320509,10"
       id="path8199" />
    <path
       style="fill:none;stroke:#000000;stroke-width:0.265;stroke-dasharray:1.06, 0.53;stroke-dashoffset:0;marker-end:url(#TriangleStart)"
       d="m 109.26427,173.32829 -17.320509,-10"
       id="path8201" />
    <path
       style="fill:none;stroke:#000000;stroke-width:0.265;stroke-dasharray:none;marker-start:url(#TriangleStart)"
       d="m 78.953381,160.82829 17.32051,10"
       id="path8203" />
    <path
       style="fill:none;stroke:#000000;stroke-width:0.265;stroke-dasharray:1.06;stroke-dashoffset:0;marker-end:url(#TriangleStart)"
       d="m 100.60402,158.32829 12.99038,7.5"
       id="path8211" />
    <path
       style="fill:none;stroke:#000000;stroke-width:0.264999;stroke-dasharray:1.06;stroke-dashoffset:0;marker-start:url(#TriangleStart)"
       d="m 122.25466,155.82829 -17.32051,-10"
       id="path9053" />
    <g
       inkscape:label=""
       transform="translate(57.612621,135.66361)"
       id="g11775">
      <g
         fill="#000000"
         fill-opacity="1"
         id="g11762"
         transform="matrix(0.352778,0,0,0.352778,-82.085,-4.14355)">
        <g
           id="g11760"
           transform="translate(232.13499,17.933001)">
          <path
             d="m 7.28125,-5.40625 c 0.1875,0 0.671875,0 0.671875,-0.453125 0,-0.328125 -0.28125,-0.328125 -0.53125,-0.328125 H 4.25 c -2.15625,0 -3.703125,2.40625 -3.703125,4.09375 0,1.21875 0.78125,2.234375 2.078125,2.234375 1.6875,0 3.546875,-1.8125 3.546875,-3.96875 0,-0.5625 -0.140625,-1.109375 -0.484375,-1.578125 z m -4.640625,5.265625 c -0.734375,0 -1.265625,-0.5625 -1.265625,-1.546875 0,-0.859375 0.515625,-3.71875 2.625,-3.71875 0.625,0 1.3125,0.296875 1.3125,1.40625 0,0.5 -0.234375,1.703125 -0.734375,2.53125 -0.515625,0.859375 -1.296875,1.328125 -1.9375,1.328125 z m 0,0"
             id="path33" />
        </g>
      </g>
      <g
         clip-path="url(#clipPath6298)"
         id="g11773"
         transform="matrix(0.352778,0,0,0.352778,-82.085,-4.14355)">
        <g
           fill="#000000"
           fill-opacity="1"
           id="g11771">
          <g
             id="g11765"
             transform="translate(240.119,20.084999)">
            <path
               d="m 3.203125,-6.984375 c 0,-0.25 0,-0.28125 -0.25,-0.28125 C 2.28125,-6.5625 1.3125,-6.5625 0.96875,-6.5625 v 0.328125 c 0.21875,0 0.859375,0 1.4375,-0.28125 v 5.65625 c 0,0.390625 -0.046875,0.515625 -1.015625,0.515625 H 1.03125 V 0 c 0.390625,-0.03125 1.328125,-0.03125 1.765625,-0.03125 0.4375,0 1.390625,0 1.765625,0.03125 V -0.34375 H 4.21875 c -0.984375,0 -1.015625,-0.109375 -1.015625,-0.515625 z m 0,0"
               id="path37" />
          </g>
          <g
             id="g11769"
             transform="translate(245.57355,20.084999)">
            <path
               d="m 3.203125,-6.984375 c 0,-0.25 0,-0.28125 -0.25,-0.28125 C 2.28125,-6.5625 1.3125,-6.5625 0.96875,-6.5625 v 0.328125 c 0.21875,0 0.859375,0 1.4375,-0.28125 v 5.65625 c 0,0.390625 -0.046875,0.515625 -1.015625,0.515625 H 1.03125 V 0 c 0.390625,-0.03125 1.328125,-0.03125 1.765625,-0.03125 0.4375,0 1.390625,0 1.765625,0.03125 V -0.34375 H 4.21875 c -0.984375,0 -1.015625,-0.109375 -1.015625,-0.515625 z m 0,0"
               id="path11767" />
          </g>
        </g>
      </g>
    </g>
    <g
       inkscape:label=""
       transform="translate(72.04259,157.98483)"
       id="g14098">
      <g
         fill="#000000"
         fill-opacity="1"
         id="g22"
         transform="matrix(0.352778,0,0,0.352778,-82.085,-4.14355)">
        <g
           id="use20"
           transform="translate(232.13499,17.933001)">
          <path
             d="m 7.28125,-5.40625 c 0.1875,0 0.671875,0 0.671875,-0.453125 0,-0.328125 -0.28125,-0.328125 -0.53125,-0.328125 H 4.25 c -2.15625,0 -3.703125,2.40625 -3.703125,4.09375 0,1.21875 0.78125,2.234375 2.078125,2.234375 1.6875,0 3.546875,-1.8125 3.546875,-3.96875 0,-0.5625 -0.140625,-1.109375 -0.484375,-1.578125 z m -4.640625,5.265625 c -0.734375,0 -1.265625,-0.5625 -1.265625,-1.546875 0,-0.859375 0.515625,-3.71875 2.625,-3.71875 0.625,0 1.3125,0.296875 1.3125,1.40625 0,0.5 -0.234375,1.703125 -0.734375,2.53125 -0.515625,0.859375 -1.296875,1.328125 -1.9375,1.328125 z m 0,0"
             id="path36" />
        </g>
      </g>
      <g
         clip-path="url(#clipPath5946)"
         id="g30"
         transform="matrix(0.352778,0,0,0.352778,-82.085,-4.14355)">
        <g
           fill="#000000"
           fill-opacity="1"
           id="g28">
          <g
             id="use24"
             transform="translate(240.119,20.084999)">
            <path
               d="m 1.390625,-0.84375 1.15625,-1.125 c 1.703125,-1.5 2.34375,-2.09375 2.34375,-3.171875 0,-1.25 -0.96875,-2.125 -2.3125,-2.125 -1.21875,0 -2.03125,1 -2.03125,1.96875 0,0.625 0.546875,0.625 0.578125,0.625 0.1875,0 0.5625,-0.140625 0.5625,-0.578125 0,-0.296875 -0.1875,-0.578125 -0.578125,-0.578125 -0.078125,0 -0.109375,0 -0.140625,0.015625 0.25,-0.703125 0.84375,-1.109375 1.46875,-1.109375 1,0 1.46875,0.875 1.46875,1.78125 0,0.859375 -0.546875,1.734375 -1.140625,2.40625 l -2.09375,2.328125 c -0.125,0.125 -0.125,0.140625 -0.125,0.40625 H 4.59375 L 4.890625,-1.890625 H 4.625 C 4.5625,-1.578125 4.5,-1.09375 4.390625,-0.921875 4.3125,-0.84375 3.59375,-0.84375 3.34375,-0.84375 Z m 0,0"
               id="path40" />
          </g>
          <g
             id="use26"
             transform="translate(245.57355,20.084999)">
            <path
               d="m 3.203125,-6.984375 c 0,-0.25 0,-0.28125 -0.25,-0.28125 C 2.28125,-6.5625 1.3125,-6.5625 0.96875,-6.5625 v 0.328125 c 0.21875,0 0.859375,0 1.4375,-0.28125 v 5.65625 c 0,0.390625 -0.046875,0.515625 -1.015625,0.515625 H 1.03125 V 0 c 0.390625,-0.03125 1.328125,-0.03125 1.765625,-0.03125 0.4375,0 1.390625,0 1.765625,0.03125 V -0.34375 H 4.21875 c -0.984375,0 -1.015625,-0.109375 -1.015625,-0.515625 z m 0,0"
               id="path44" />
          </g>
        </g>
      </g>
    </g>
    <g
       inkscape:label=""
       transform="translate(86.652176,159.46157)"
       id="g15632">
      <g
         fill="#000000"
         fill-opacity="1"
         id="g15618"
         transform="matrix(0.352778,0,0,0.352778,-82.085,-4.14355)">
        <g
           id="g15616"
           transform="translate(232.13499,17.933001)">
          <path
             d="m 7.28125,-5.40625 c 0.1875,0 0.671875,0 0.671875,-0.453125 0,-0.328125 -0.28125,-0.328125 -0.53125,-0.328125 H 4.25 c -2.15625,0 -3.703125,2.40625 -3.703125,4.09375 0,1.21875 0.78125,2.234375 2.078125,2.234375 1.6875,0 3.546875,-1.8125 3.546875,-3.96875 0,-0.5625 -0.140625,-1.109375 -0.484375,-1.578125 z m -4.640625,5.265625 c -0.734375,0 -1.265625,-0.5625 -1.265625,-1.546875 0,-0.859375 0.515625,-3.71875 2.625,-3.71875 0.625,0 1.3125,0.296875 1.3125,1.40625 0,0.5 -0.234375,1.703125 -0.734375,2.53125 -0.515625,0.859375 -1.296875,1.328125 -1.9375,1.328125 z m 0,0"
             id="path15614" />
        </g>
      </g>
      <g
         clip-path="url(#clipPath6578)"
         id="g15630"
         transform="matrix(0.352778,0,0,0.352778,-82.085,-4.14355)">
        <g
           fill="#000000"
           fill-opacity="1"
           id="g15628">
          <g
             id="g15622"
             transform="translate(240.119,20.084999)">
            <path
               d="M 3.15625,-3.84375 C 4.0625,-4.140625 4.6875,-4.890625 4.6875,-5.765625 c 0,-0.890625 -0.953125,-1.5 -2,-1.5 -1.109375,0 -1.9375,0.65625 -1.9375,1.484375 0,0.359375 0.25,0.5625 0.5625,0.5625 0.328125,0 0.546875,-0.234375 0.546875,-0.546875 0,-0.546875 -0.5,-0.546875 -0.671875,-0.546875 C 1.53125,-6.84375 2.25,-6.984375 2.640625,-6.984375 3.09375,-6.984375 3.6875,-6.75 3.6875,-5.765625 3.6875,-5.640625 3.671875,-5 3.375,-4.53125 3.046875,-4 2.6875,-3.96875 2.40625,-3.953125 c -0.078125,0 -0.34375,0.03125 -0.421875,0.03125 -0.09375,0 -0.15625,0.015625 -0.15625,0.125 0,0.125 0.0625,0.125 0.25,0.125 H 2.5625 c 0.890625,0 1.296875,0.734375 1.296875,1.8125 0,1.484375 -0.75,1.796875 -1.234375,1.796875 -0.46875,0 -1.28125,-0.1875 -1.671875,-0.828125 0.390625,0.046875 0.71875,-0.1875 0.71875,-0.609375 0,-0.390625 -0.28125,-0.609375 -0.609375,-0.609375 -0.25,0 -0.609375,0.15625 -0.609375,0.640625 0,0.984375 1.015625,1.703125 2.203125,1.703125 1.328125,0 2.328125,-0.984375 2.328125,-2.09375 0,-0.90625 -0.6875,-1.75 -1.828125,-1.984375 z m 0,0"
               id="path15620" />
          </g>
          <g
             id="g15626"
             transform="translate(245.57355,20.084999)">
            <path
               d="m 3.203125,-6.984375 c 0,-0.25 0,-0.28125 -0.25,-0.28125 C 2.28125,-6.5625 1.3125,-6.5625 0.96875,-6.5625 v 0.328125 c 0.21875,0 0.859375,0 1.4375,-0.28125 v 5.65625 c 0,0.390625 -0.046875,0.515625 -1.015625,0.515625 H 1.03125 V 0 c 0.390625,-0.03125 1.328125,-0.03125 1.765625,-0.03125 0.4375,0 1.390625,0 1.765625,0.03125 V -0.34375 H 4.21875 c -0.984375,0 -1.015625,-0.109375 -1.015625,-0.515625 z m 0,0"
               id="path15624" />
          </g>
        </g>
      </g>
    </g>
    <g
       inkscape:label=""
       transform="translate(116.56004,180.71677)"
       id="g18035">
      <g
         fill="#000000"
         fill-opacity="1"
         id="g32"
         transform="matrix(0.352778,0,0,0.352778,-70.1999,-0.250119)">
        <g
           id="use30"
           transform="translate(198.44501,20.665001)">
          <path
             d="m 7.28125,-5.40625 c 0.1875,0 0.671875,0 0.671875,-0.453125 0,-0.328125 -0.28125,-0.328125 -0.53125,-0.328125 H 4.25 c -2.15625,0 -3.703125,2.40625 -3.703125,4.09375 0,1.21875 0.78125,2.234375 2.078125,2.234375 1.6875,0 3.546875,-1.8125 3.546875,-3.96875 0,-0.5625 -0.140625,-1.109375 -0.484375,-1.578125 z m -4.640625,5.265625 c -0.734375,0 -1.265625,-0.5625 -1.265625,-1.546875 0,-0.859375 0.515625,-3.71875 2.625,-3.71875 0.625,0 1.3125,0.296875 1.3125,1.40625 0,0.5 -0.234375,1.703125 -0.734375,2.53125 -0.515625,0.859375 -1.296875,1.328125 -1.9375,1.328125 z m 0,0"
             id="path88" />
        </g>
      </g>
      <g
         fill="#000000"
         fill-opacity="1"
         id="g38"
         transform="matrix(0.352778,0,0,0.352778,-70.1999,-0.250119)">
        <g
           id="use34"
           transform="translate(206.429,22.816999)">
          <path
             d="m 3.203125,-6.984375 c 0,-0.25 0,-0.28125 -0.25,-0.28125 C 2.28125,-6.5625 1.3125,-6.5625 0.96875,-6.5625 v 0.328125 c 0.21875,0 0.859375,0 1.4375,-0.28125 v 5.65625 c 0,0.390625 -0.046875,0.515625 -1.015625,0.515625 H 1.03125 V 0 c 0.390625,-0.03125 1.328125,-0.03125 1.765625,-0.03125 0.4375,0 1.390625,0 1.765625,0.03125 V -0.34375 H 4.21875 c -0.984375,0 -1.015625,-0.109375 -1.015625,-0.515625 z m 0,0"
             id="path92" />
        </g>
        <g
           id="use36"
           transform="translate(211.88354,22.816999)">
          <path
             d="m 3.203125,-6.984375 c 0,-0.25 0,-0.28125 -0.25,-0.28125 C 2.28125,-6.5625 1.3125,-6.5625 0.96875,-6.5625 v 0.328125 c 0.21875,0 0.859375,0 1.4375,-0.28125 v 5.65625 c 0,0.390625 -0.046875,0.515625 -1.015625,0.515625 H 1.03125 V 0 c 0.390625,-0.03125 1.328125,-0.03125 1.765625,-0.03125 0.4375,0 1.390625,0 1.765625,0.03125 V -0.34375 H 4.21875 c -0.984375,0 -1.015625,-0.109375 -1.015625,-0.515625 z m 0,0"
             id="path96" />
        </g>
      </g>
      <g
         fill="#000000"
         fill-opacity="1"
         id="g42"
         transform="matrix(0.352778,0,0,0.352778,-70.1999,-0.250119)">
        <g
           id="use40"
           transform="translate(221.024,20.665001)">
          <path
             d="M 5.71875,-3.3125 H 9.6875 c 0.203125,0 0.453125,0 0.453125,-0.265625 0,-0.265625 -0.25,-0.265625 -0.453125,-0.265625 H 5.71875 v -3.953125 c 0,-0.203125 0,-0.46875 -0.25,-0.46875 -0.28125,0 -0.28125,0.25 -0.28125,0.46875 V -3.84375 H 1.234375 c -0.203125,0 -0.453125,0 -0.453125,0.265625 0,0.265625 0.234375,0.265625 0.453125,0.265625 H 5.1875 v 3.953125 c 0,0.203125 0,0.46875 0.265625,0.46875 0.265625,0 0.265625,-0.25 0.265625,-0.46875 z m 0,0"
             id="path100" />
        </g>
      </g>
      <g
         fill="#000000"
         fill-opacity="1"
         id="g46"
         transform="matrix(0.352778,0,0,0.352778,-70.1999,-0.250119)">
        <g
           id="use44"
           transform="translate(236.33299,10.959)">
          <path
             d="M 6.515625,-4.796875 C 6.421875,-5.59375 5.921875,-6.5625 4.640625,-6.5625 c -2.03125,0 -4.09375,2.0625 -4.09375,4.34375 0,0.875 0.59375,2.515625 2.546875,2.515625 3.390625,0 4.84375,-4.9375 4.84375,-6.890625 0,-2.0625 -1.171875,-3.65625 -3,-3.65625 -2.078125,0 -2.703125,1.8125 -2.703125,2.203125 0,0.125 0.09375,0.4375 0.484375,0.4375 0.515625,0 0.71875,-0.453125 0.71875,-0.703125 C 3.4375,-8.75 3,-8.75 2.8125,-8.75 3.40625,-9.8125 4.484375,-9.90625 4.875,-9.90625 c 1.265625,0 2.0625,1 2.0625,2.609375 0,0.90625 -0.265625,1.96875 -0.40625,2.5 z m -3.375,4.703125 c -1.34375,0 -1.578125,-1.046875 -1.578125,-1.65625 0,-0.625 0.40625,-2.109375 0.625,-2.640625 0.171875,-0.421875 1,-1.875 2.484375,-1.875 1.3125,0 1.609375,1.125 1.609375,1.90625 0,1.0625 -0.9375,4.265625 -3.140625,4.265625 z m 0,0"
             id="path104" />
        </g>
      </g>
      <g
         fill="#000000"
         fill-opacity="1"
         id="g50"
         transform="matrix(0.352778,0,0,0.352778,-70.1999,-0.250119)">
        <g
           id="use48"
           transform="translate(244.52324,10.959)">
          <path
             d="m 7.28125,-5.40625 c 0.1875,0 0.671875,0 0.671875,-0.453125 0,-0.328125 -0.28125,-0.328125 -0.53125,-0.328125 H 4.25 c -2.15625,0 -3.703125,2.40625 -3.703125,4.09375 0,1.21875 0.78125,2.234375 2.078125,2.234375 1.6875,0 3.546875,-1.8125 3.546875,-3.96875 0,-0.5625 -0.140625,-1.109375 -0.484375,-1.578125 z m -4.640625,5.265625 c -0.734375,0 -1.265625,-0.5625 -1.265625,-1.546875 0,-0.859375 0.515625,-3.71875 2.625,-3.71875 0.625,0 1.3125,0.296875 1.3125,1.40625 0,0.5 -0.234375,1.703125 -0.734375,2.53125 -0.515625,0.859375 -1.296875,1.328125 -1.9375,1.328125 z m 0,0"
             id="path108" />
        </g>
      </g>
      <g
         fill="#000000"
         fill-opacity="1"
         id="g56"
         transform="matrix(0.352778,0,0,0.352778,-70.1999,-0.250119)">
        <g
           id="use52"
           transform="translate(252.513,13.111)">
          <path
             d="m 3.203125,-6.984375 c 0,-0.25 0,-0.28125 -0.25,-0.28125 C 2.28125,-6.5625 1.3125,-6.5625 0.96875,-6.5625 v 0.328125 c 0.21875,0 0.859375,0 1.4375,-0.28125 v 5.65625 c 0,0.390625 -0.046875,0.515625 -1.015625,0.515625 H 1.03125 V 0 c 0.390625,-0.03125 1.328125,-0.03125 1.765625,-0.03125 0.4375,0 1.390625,0 1.765625,0.03125 V -0.34375 H 4.21875 c -0.984375,0 -1.015625,-0.109375 -1.015625,-0.515625 z m 0,0"
             id="path112" />
        </g>
        <g
           id="use54"
           transform="translate(257.96756,13.111)">
          <path
             d="m 3.203125,-6.984375 c 0,-0.25 0,-0.28125 -0.25,-0.28125 C 2.28125,-6.5625 1.3125,-6.5625 0.96875,-6.5625 v 0.328125 c 0.21875,0 0.859375,0 1.4375,-0.28125 v 5.65625 c 0,0.390625 -0.046875,0.515625 -1.015625,0.515625 H 1.03125 V 0 c 0.390625,-0.03125 1.328125,-0.03125 1.765625,-0.03125 0.4375,0 1.390625,0 1.765625,0.03125 V -0.34375 H 4.21875 c -0.984375,0 -1.015625,-0.109375 -1.015625,-0.515625 z m 0,0"
             id="path116" />
        </g>
      </g>
      <path
         fill="none"
         stroke-width="0.598"
         stroke-linecap="butt"
         stroke-linejoin="miter"
         stroke="#000000"
         stroke-opacity="1"
         stroke-miterlimit="10"
         d="M 37.340149,16.369125 H 64.929993"
         id="path58"
         transform="scale(0.352778)" />
      <g
         fill="#000000"
         fill-opacity="1"
         id="g62"
         transform="matrix(0.352778,0,0,0.352778,-70.1999,-0.250119)">
        <g
           id="use60"
           transform="translate(239.62801,30.504999)">
          <path
             d="M 6.515625,-4.796875 C 6.421875,-5.59375 5.921875,-6.5625 4.640625,-6.5625 c -2.03125,0 -4.09375,2.0625 -4.09375,4.34375 0,0.875 0.59375,2.515625 2.546875,2.515625 3.390625,0 4.84375,-4.9375 4.84375,-6.890625 0,-2.0625 -1.171875,-3.65625 -3,-3.65625 -2.078125,0 -2.703125,1.8125 -2.703125,2.203125 0,0.125 0.09375,0.4375 0.484375,0.4375 0.515625,0 0.71875,-0.453125 0.71875,-0.703125 C 3.4375,-8.75 3,-8.75 2.8125,-8.75 3.40625,-9.8125 4.484375,-9.90625 4.875,-9.90625 c 1.265625,0 2.0625,1 2.0625,2.609375 0,0.90625 -0.265625,1.96875 -0.40625,2.5 z m -3.375,4.703125 c -1.34375,0 -1.578125,-1.046875 -1.578125,-1.65625 0,-0.625 0.40625,-2.109375 0.625,-2.640625 0.171875,-0.421875 1,-1.875 2.484375,-1.875 1.3125,0 1.609375,1.125 1.609375,1.90625 0,1.0625 -0.9375,4.265625 -3.140625,4.265625 z m 0,0"
             id="path120" />
        </g>
      </g>
      <g
         clip-path="url(#clipPath6808)"
         id="g68"
         transform="matrix(0.352778,0,0,0.352778,-70.1999,-0.250119)">
        <g
           fill="#000000"
           fill-opacity="1"
           id="g66">
          <g
             id="use64"
             transform="translate(247.81825,30.504999)">
            <path
               d="m 3.765625,1.609375 c -0.375,0.546875 -0.9375,1.03125 -1.640625,1.03125 -0.171875,0 -0.859375,-0.03125 -1.078125,-0.6875 C 1.09375,1.96875 1.15625,1.96875 1.1875,1.96875 c 0.4375,0 0.71875,-0.375 0.71875,-0.703125 C 1.90625,0.9375 1.640625,0.8125 1.421875,0.8125 1.1875,0.8125 0.6875,0.984375 0.6875,1.6875 c 0,0.734375 0.625,1.234375 1.4375,1.234375 1.4375,0 2.875,-1.3125 3.28125,-2.90625 l 1.40625,-5.59375 c 0.015625,-0.078125 0.046875,-0.15625 0.046875,-0.25 0,-0.203125 -0.171875,-0.359375 -0.390625,-0.359375 -0.125,0 -0.4375,0.0625 -0.546875,0.5 l -1.0625,4.203125 c -0.0625,0.265625 -0.0625,0.296875 -0.1875,0.453125 -0.28125,0.40625 -0.75,0.890625 -1.4375,0.890625 -0.8125,0 -0.875,-0.796875 -0.875,-1.171875 0,-0.828125 0.375,-1.921875 0.765625,-2.96875 0.15625,-0.40625 0.25,-0.609375 0.25,-0.890625 0,-0.609375 -0.4375,-1.15625 -1.140625,-1.15625 -1.3125,0 -1.84375,2.078125 -1.84375,2.203125 0,0.046875 0.046875,0.125 0.15625,0.125 C 0.671875,-4 0.6875,-4.0625 0.75,-4.265625 1.09375,-5.46875 1.640625,-6.03125 2.1875,-6.03125 c 0.140625,0 0.375,0 0.375,0.46875 0,0.375 -0.15625,0.78125 -0.375,1.328125 -0.703125,1.875 -0.703125,2.359375 -0.703125,2.703125 0,1.359375 0.984375,1.671875 1.703125,1.671875 0.40625,0 0.921875,-0.125 1.4375,-0.65625 L 4.640625,-0.5 c -0.21875,0.84375 -0.359375,1.40625 -0.875,2.109375 z m 0,0"
               id="path124" />
          </g>
        </g>
      </g>
      <g
         fill="#000000"
         fill-opacity="1"
         id="g72"
         transform="matrix(0.352778,0,0,0.352778,-70.1999,-0.250119)">
        <g
           id="use70"
           transform="translate(254.673,32.657001)">
          <path
             d="m 3.203125,-6.984375 c 0,-0.25 0,-0.28125 -0.25,-0.28125 C 2.28125,-6.5625 1.3125,-6.5625 0.96875,-6.5625 v 0.328125 c 0.21875,0 0.859375,0 1.4375,-0.28125 v 5.65625 c 0,0.390625 -0.046875,0.515625 -1.015625,0.515625 H 1.03125 V 0 c 0.390625,-0.03125 1.328125,-0.03125 1.765625,-0.03125 0.4375,0 1.390625,0 1.765625,0.03125 V -0.34375 H 4.21875 c -0.984375,0 -1.015625,-0.109375 -1.015625,-0.515625 z m 0,0"
             id="path128" />
        </g>
      </g>
      <g
         fill="#000000"
         fill-opacity="1"
         id="g78"
         transform="matrix(0.352778,0,0,0.352778,-70.1999,-0.250119)">
        <g
           id="use74"
           transform="translate(265.116,20.665001)">
          <path
             d="m 7.21875,-9.59375 c 0.015625,-0.0625 0.046875,-0.140625 0.046875,-0.21875 0,-0.140625 -0.15625,-0.140625 -0.1875,-0.140625 0,0 -0.703125,0.0625 -0.78125,0.0625 -0.25,0.015625 -0.453125,0.046875 -0.71875,0.0625 C 5.21875,-9.796875 5.125,-9.78125 5.125,-9.53125 c 0,0.15625 0.109375,0.15625 0.3125,0.15625 0.703125,0 0.71875,0.125 0.71875,0.265625 0,0.09375 -0.03125,0.203125 -0.046875,0.25 L 5.234375,-5.375 C 5.078125,-5.75 4.6875,-6.328125 3.9375,-6.328125 c -1.609375,0 -3.359375,2.09375 -3.359375,4.21875 0,1.421875 0.828125,2.25 1.796875,2.25 0.796875,0 1.46875,-0.609375 1.875,-1.09375 0.140625,0.859375 0.8125,1.09375 1.25,1.09375 0.421875,0 0.765625,-0.25 1.03125,-0.765625 C 6.75,-1.125 6.953125,-2 6.953125,-2.046875 6.953125,-2.125 6.90625,-2.1875 6.8125,-2.1875 c -0.125,0 -0.140625,0.078125 -0.203125,0.296875 -0.21875,0.84375 -0.484375,1.75 -1.078125,1.75 -0.40625,0 -0.4375,-0.375 -0.4375,-0.65625 0,-0.0625 0,-0.359375 0.09375,-0.765625 z M 4.3125,-1.703125 C 4.25,-1.46875 4.25,-1.4375 4.046875,-1.15625 c -0.3125,0.390625 -0.953125,1.015625 -1.625,1.015625 -0.578125,0 -0.921875,-0.53125 -0.921875,-1.375 0,-0.796875 0.453125,-2.40625 0.71875,-3 0.5,-1 1.171875,-1.515625 1.71875,-1.515625 0.953125,0 1.140625,1.171875 1.140625,1.28125 0,0.015625 -0.046875,0.203125 -0.0625,0.234375 z m 0,0"
             id="path132" />
        </g>
        <g
           id="use76"
           transform="translate(272.41534,20.665001)">
          <path
             d="m 3.765625,1.609375 c -0.375,0.546875 -0.9375,1.03125 -1.640625,1.03125 -0.171875,0 -0.859375,-0.03125 -1.078125,-0.6875 C 1.09375,1.96875 1.15625,1.96875 1.1875,1.96875 c 0.4375,0 0.71875,-0.375 0.71875,-0.703125 C 1.90625,0.9375 1.640625,0.8125 1.421875,0.8125 1.1875,0.8125 0.6875,0.984375 0.6875,1.6875 c 0,0.734375 0.625,1.234375 1.4375,1.234375 1.4375,0 2.875,-1.3125 3.28125,-2.90625 l 1.40625,-5.59375 c 0.015625,-0.078125 0.046875,-0.15625 0.046875,-0.25 0,-0.203125 -0.171875,-0.359375 -0.390625,-0.359375 -0.125,0 -0.4375,0.0625 -0.546875,0.5 l -1.0625,4.203125 c -0.0625,0.265625 -0.0625,0.296875 -0.1875,0.453125 -0.28125,0.40625 -0.75,0.890625 -1.4375,0.890625 -0.8125,0 -0.875,-0.796875 -0.875,-1.171875 0,-0.828125 0.375,-1.921875 0.765625,-2.96875 0.15625,-0.40625 0.25,-0.609375 0.25,-0.890625 0,-0.609375 -0.4375,-1.15625 -1.140625,-1.15625 -1.3125,0 -1.84375,2.078125 -1.84375,2.203125 0,0.046875 0.046875,0.125 0.15625,0.125 C 0.671875,-4 0.6875,-4.0625 0.75,-4.265625 1.09375,-5.46875 1.640625,-6.03125 2.1875,-6.03125 c 0.140625,0 0.375,0 0.375,0.46875 0,0.375 -0.15625,0.78125 -0.375,1.328125 -0.703125,1.875 -0.703125,2.359375 -0.703125,2.703125 0,1.359375 0.984375,1.671875 1.703125,1.671875 0.40625,0 0.921875,-0.125 1.4375,-0.65625 L 4.640625,-0.5 c -0.21875,0.84375 -0.359375,1.40625 -0.875,2.109375 z m 0,0"
             id="path136" />
        </g>
      </g>
      <g
         fill="#000000"
         fill-opacity="1"
         id="g82"
         transform="matrix(0.352778,0,0,0.352778,-70.1999,-0.250119)">
        <g
           id="use80"
           transform="translate(279.26401,22.816999)">
          <path
             d="m 3.203125,-6.984375 c 0,-0.25 0,-0.28125 -0.25,-0.28125 C 2.28125,-6.5625 1.3125,-6.5625 0.96875,-6.5625 v 0.328125 c 0.21875,0 0.859375,0 1.4375,-0.28125 v 5.65625 c 0,0.390625 -0.046875,0.515625 -1.015625,0.515625 H 1.03125 V 0 c 0.390625,-0.03125 1.328125,-0.03125 1.765625,-0.03125 0.4375,0 1.390625,0 1.765625,0.03125 V -0.34375 H 4.21875 c -0.984375,0 -1.015625,-0.109375 -1.015625,-0.515625 z m 0,0"
             id="path140" />
        </g>
      </g>
    </g>
    <g
       inkscape:label=""
       transform="translate(122.85431,152.0077)"
       id="g20580">
      <g
         fill="#000000"
         fill-opacity="1"
         id="g20521"
         transform="matrix(0.352778,0,0,0.352778,-70.1999,-0.250119)">
        <g
           id="g20519"
           transform="translate(198.44501,20.665001)">
          <path
             d="m 7.28125,-5.40625 c 0.1875,0 0.671875,0 0.671875,-0.453125 0,-0.328125 -0.28125,-0.328125 -0.53125,-0.328125 H 4.25 c -2.15625,0 -3.703125,2.40625 -3.703125,4.09375 0,1.21875 0.78125,2.234375 2.078125,2.234375 1.6875,0 3.546875,-1.8125 3.546875,-3.96875 0,-0.5625 -0.140625,-1.109375 -0.484375,-1.578125 z m -4.640625,5.265625 c -0.734375,0 -1.265625,-0.5625 -1.265625,-1.546875 0,-0.859375 0.515625,-3.71875 2.625,-3.71875 0.625,0 1.3125,0.296875 1.3125,1.40625 0,0.5 -0.234375,1.703125 -0.734375,2.53125 -0.515625,0.859375 -1.296875,1.328125 -1.9375,1.328125 z m 0,0"
             id="path20517" />
        </g>
      </g>
      <g
         fill="#000000"
         fill-opacity="1"
         id="g20529"
         transform="matrix(0.352778,0,0,0.352778,-70.1999,-0.250119)">
        <g
           id="g20524"
           transform="translate(206.429,22.816999)">
          <path
             d="m 1.390625,-0.84375 1.15625,-1.125 c 1.703125,-1.5 2.34375,-2.09375 2.34375,-3.171875 0,-1.25 -0.96875,-2.125 -2.3125,-2.125 -1.21875,0 -2.03125,1 -2.03125,1.96875 0,0.625 0.546875,0.625 0.578125,0.625 0.1875,0 0.5625,-0.140625 0.5625,-0.578125 0,-0.296875 -0.1875,-0.578125 -0.578125,-0.578125 -0.078125,0 -0.109375,0 -0.140625,0.015625 0.25,-0.703125 0.84375,-1.109375 1.46875,-1.109375 1,0 1.46875,0.875 1.46875,1.78125 0,0.859375 -0.546875,1.734375 -1.140625,2.40625 l -2.09375,2.328125 c -0.125,0.125 -0.125,0.140625 -0.125,0.40625 H 4.59375 L 4.890625,-1.890625 H 4.625 C 4.5625,-1.578125 4.5,-1.09375 4.390625,-0.921875 4.3125,-0.84375 3.59375,-0.84375 3.34375,-0.84375 Z m 0,0"
             id="path95" />
        </g>
        <g
           id="g20527"
           transform="translate(211.88354,22.816999)">
          <path
             d="m 3.203125,-6.984375 c 0,-0.25 0,-0.28125 -0.25,-0.28125 C 2.28125,-6.5625 1.3125,-6.5625 0.96875,-6.5625 v 0.328125 c 0.21875,0 0.859375,0 1.4375,-0.28125 v 5.65625 c 0,0.390625 -0.046875,0.515625 -1.015625,0.515625 H 1.03125 V 0 c 0.390625,-0.03125 1.328125,-0.03125 1.765625,-0.03125 0.4375,0 1.390625,0 1.765625,0.03125 V -0.34375 H 4.21875 c -0.984375,0 -1.015625,-0.109375 -1.015625,-0.515625 z m 0,0"
             id="path99" />
        </g>
      </g>
      <g
         fill="#000000"
         fill-opacity="1"
         id="g20534"
         transform="matrix(0.352778,0,0,0.352778,-70.1999,-0.250119)">
        <g
           id="g20532"
           transform="translate(221.024,20.665001)">
          <path
             d="M 5.71875,-3.3125 H 9.6875 c 0.203125,0 0.453125,0 0.453125,-0.265625 0,-0.265625 -0.25,-0.265625 -0.453125,-0.265625 H 5.71875 v -3.953125 c 0,-0.203125 0,-0.46875 -0.25,-0.46875 -0.28125,0 -0.28125,0.25 -0.28125,0.46875 V -3.84375 H 1.234375 c -0.203125,0 -0.453125,0 -0.453125,0.265625 0,0.265625 0.234375,0.265625 0.453125,0.265625 H 5.1875 v 3.953125 c 0,0.203125 0,0.46875 0.265625,0.46875 0.265625,0 0.265625,-0.25 0.265625,-0.46875 z m 0,0"
             id="path103" />
        </g>
      </g>
      <g
         fill="#000000"
         fill-opacity="1"
         id="g20539"
         transform="matrix(0.352778,0,0,0.352778,-70.1999,-0.250119)">
        <g
           id="g20537"
           transform="translate(236.33299,10.959)">
          <path
             d="M 6.515625,-4.796875 C 6.421875,-5.59375 5.921875,-6.5625 4.640625,-6.5625 c -2.03125,0 -4.09375,2.0625 -4.09375,4.34375 0,0.875 0.59375,2.515625 2.546875,2.515625 3.390625,0 4.84375,-4.9375 4.84375,-6.890625 0,-2.0625 -1.171875,-3.65625 -3,-3.65625 -2.078125,0 -2.703125,1.8125 -2.703125,2.203125 0,0.125 0.09375,0.4375 0.484375,0.4375 0.515625,0 0.71875,-0.453125 0.71875,-0.703125 C 3.4375,-8.75 3,-8.75 2.8125,-8.75 3.40625,-9.8125 4.484375,-9.90625 4.875,-9.90625 c 1.265625,0 2.0625,1 2.0625,2.609375 0,0.90625 -0.265625,1.96875 -0.40625,2.5 z m -3.375,4.703125 c -1.34375,0 -1.578125,-1.046875 -1.578125,-1.65625 0,-0.625 0.40625,-2.109375 0.625,-2.640625 0.171875,-0.421875 1,-1.875 2.484375,-1.875 1.3125,0 1.609375,1.125 1.609375,1.90625 0,1.0625 -0.9375,4.265625 -3.140625,4.265625 z m 0,0"
             id="path107" />
        </g>
      </g>
      <g
         fill="#000000"
         fill-opacity="1"
         id="g20544"
         transform="matrix(0.352778,0,0,0.352778,-70.1999,-0.250119)">
        <g
           id="g20542"
           transform="translate(244.52324,10.959)">
          <path
             d="m 7.28125,-5.40625 c 0.1875,0 0.671875,0 0.671875,-0.453125 0,-0.328125 -0.28125,-0.328125 -0.53125,-0.328125 H 4.25 c -2.15625,0 -3.703125,2.40625 -3.703125,4.09375 0,1.21875 0.78125,2.234375 2.078125,2.234375 1.6875,0 3.546875,-1.8125 3.546875,-3.96875 0,-0.5625 -0.140625,-1.109375 -0.484375,-1.578125 z m -4.640625,5.265625 c -0.734375,0 -1.265625,-0.5625 -1.265625,-1.546875 0,-0.859375 0.515625,-3.71875 2.625,-3.71875 0.625,0 1.3125,0.296875 1.3125,1.40625 0,0.5 -0.234375,1.703125 -0.734375,2.53125 -0.515625,0.859375 -1.296875,1.328125 -1.9375,1.328125 z m 0,0"
             id="path111" />
        </g>
      </g>
      <g
         fill="#000000"
         fill-opacity="1"
         id="g59"
         transform="matrix(0.352778,0,0,0.352778,-70.1999,-0.250119)">
        <g
           id="g20547"
           transform="translate(252.513,13.111)">
          <path
             d="m 1.390625,-0.84375 1.15625,-1.125 c 1.703125,-1.5 2.34375,-2.09375 2.34375,-3.171875 0,-1.25 -0.96875,-2.125 -2.3125,-2.125 -1.21875,0 -2.03125,1 -2.03125,1.96875 0,0.625 0.546875,0.625 0.578125,0.625 0.1875,0 0.5625,-0.140625 0.5625,-0.578125 0,-0.296875 -0.1875,-0.578125 -0.578125,-0.578125 -0.078125,0 -0.109375,0 -0.140625,0.015625 0.25,-0.703125 0.84375,-1.109375 1.46875,-1.109375 1,0 1.46875,0.875 1.46875,1.78125 0,0.859375 -0.546875,1.734375 -1.140625,2.40625 l -2.09375,2.328125 c -0.125,0.125 -0.125,0.140625 -0.125,0.40625 H 4.59375 L 4.890625,-1.890625 H 4.625 C 4.5625,-1.578125 4.5,-1.09375 4.390625,-0.921875 4.3125,-0.84375 3.59375,-0.84375 3.34375,-0.84375 Z m 0,0"
             id="path115" />
        </g>
        <g
           id="use57"
           transform="translate(257.96756,13.111)">
          <path
             d="m 3.203125,-6.984375 c 0,-0.25 0,-0.28125 -0.25,-0.28125 C 2.28125,-6.5625 1.3125,-6.5625 0.96875,-6.5625 v 0.328125 c 0.21875,0 0.859375,0 1.4375,-0.28125 v 5.65625 c 0,0.390625 -0.046875,0.515625 -1.015625,0.515625 H 1.03125 V 0 c 0.390625,-0.03125 1.328125,-0.03125 1.765625,-0.03125 0.4375,0 1.390625,0 1.765625,0.03125 V -0.34375 H 4.21875 c -0.984375,0 -1.015625,-0.109375 -1.015625,-0.515625 z m 0,0"
             id="path119" />
        </g>
      </g>
      <path
         fill="none"
         stroke-width="0.598"
         stroke-linecap="butt"
         stroke-linejoin="miter"
         stroke="#000000"
         stroke-opacity="1"
         stroke-miterlimit="10"
         d="M 37.340149,16.369125 H 64.929993"
         id="path61"
         transform="scale(0.352778)" />
      <g
         fill="#000000"
         fill-opacity="1"
         id="g20556"
         transform="matrix(0.352778,0,0,0.352778,-70.1999,-0.250119)">
        <g
           id="g20554"
           transform="translate(239.62801,30.504999)">
          <path
             d="M 6.515625,-4.796875 C 6.421875,-5.59375 5.921875,-6.5625 4.640625,-6.5625 c -2.03125,0 -4.09375,2.0625 -4.09375,4.34375 0,0.875 0.59375,2.515625 2.546875,2.515625 3.390625,0 4.84375,-4.9375 4.84375,-6.890625 0,-2.0625 -1.171875,-3.65625 -3,-3.65625 -2.078125,0 -2.703125,1.8125 -2.703125,2.203125 0,0.125 0.09375,0.4375 0.484375,0.4375 0.515625,0 0.71875,-0.453125 0.71875,-0.703125 C 3.4375,-8.75 3,-8.75 2.8125,-8.75 3.40625,-9.8125 4.484375,-9.90625 4.875,-9.90625 c 1.265625,0 2.0625,1 2.0625,2.609375 0,0.90625 -0.265625,1.96875 -0.40625,2.5 z m -3.375,4.703125 c -1.34375,0 -1.578125,-1.046875 -1.578125,-1.65625 0,-0.625 0.40625,-2.109375 0.625,-2.640625 0.171875,-0.421875 1,-1.875 2.484375,-1.875 1.3125,0 1.609375,1.125 1.609375,1.90625 0,1.0625 -0.9375,4.265625 -3.140625,4.265625 z m 0,0"
             id="path123" />
        </g>
      </g>
      <g
         clip-path="url(#clipPath5998)"
         id="g71"
         transform="matrix(0.352778,0,0,0.352778,-70.1999,-0.250119)">
        <g
           fill="#000000"
           fill-opacity="1"
           id="g20561">
          <g
             id="g20559"
             transform="translate(247.81825,30.504999)">
            <path
               d="m 3.765625,1.609375 c -0.375,0.546875 -0.9375,1.03125 -1.640625,1.03125 -0.171875,0 -0.859375,-0.03125 -1.078125,-0.6875 C 1.09375,1.96875 1.15625,1.96875 1.1875,1.96875 c 0.4375,0 0.71875,-0.375 0.71875,-0.703125 C 1.90625,0.9375 1.640625,0.8125 1.421875,0.8125 1.1875,0.8125 0.6875,0.984375 0.6875,1.6875 c 0,0.734375 0.625,1.234375 1.4375,1.234375 1.4375,0 2.875,-1.3125 3.28125,-2.90625 l 1.40625,-5.59375 c 0.015625,-0.078125 0.046875,-0.15625 0.046875,-0.25 0,-0.203125 -0.171875,-0.359375 -0.390625,-0.359375 -0.125,0 -0.4375,0.0625 -0.546875,0.5 l -1.0625,4.203125 c -0.0625,0.265625 -0.0625,0.296875 -0.1875,0.453125 -0.28125,0.40625 -0.75,0.890625 -1.4375,0.890625 -0.8125,0 -0.875,-0.796875 -0.875,-1.171875 0,-0.828125 0.375,-1.921875 0.765625,-2.96875 0.15625,-0.40625 0.25,-0.609375 0.25,-0.890625 0,-0.609375 -0.4375,-1.15625 -1.140625,-1.15625 -1.3125,0 -1.84375,2.078125 -1.84375,2.203125 0,0.046875 0.046875,0.125 0.15625,0.125 C 0.671875,-4 0.6875,-4.0625 0.75,-4.265625 1.09375,-5.46875 1.640625,-6.03125 2.1875,-6.03125 c 0.140625,0 0.375,0 0.375,0.46875 0,0.375 -0.15625,0.78125 -0.375,1.328125 -0.703125,1.875 -0.703125,2.359375 -0.703125,2.703125 0,1.359375 0.984375,1.671875 1.703125,1.671875 0.40625,0 0.921875,-0.125 1.4375,-0.65625 L 4.640625,-0.5 c -0.21875,0.84375 -0.359375,1.40625 -0.875,2.109375 z m 0,0"
               id="path127" />
          </g>
        </g>
      </g>
      <g
         fill="#000000"
         fill-opacity="1"
         id="g75"
         transform="matrix(0.352778,0,0,0.352778,-70.1999,-0.250119)">
        <g
           id="use73"
           transform="translate(254.673,32.657001)">
          <path
             d="m 1.390625,-0.84375 1.15625,-1.125 c 1.703125,-1.5 2.34375,-2.09375 2.34375,-3.171875 0,-1.25 -0.96875,-2.125 -2.3125,-2.125 -1.21875,0 -2.03125,1 -2.03125,1.96875 0,0.625 0.546875,0.625 0.578125,0.625 0.1875,0 0.5625,-0.140625 0.5625,-0.578125 0,-0.296875 -0.1875,-0.578125 -0.578125,-0.578125 -0.078125,0 -0.109375,0 -0.140625,0.015625 0.25,-0.703125 0.84375,-1.109375 1.46875,-1.109375 1,0 1.46875,0.875 1.46875,1.78125 0,0.859375 -0.546875,1.734375 -1.140625,2.40625 l -2.09375,2.328125 c -0.125,0.125 -0.125,0.140625 -0.125,0.40625 H 4.59375 L 4.890625,-1.890625 H 4.625 C 4.5625,-1.578125 4.5,-1.09375 4.390625,-0.921875 4.3125,-0.84375 3.59375,-0.84375 3.34375,-0.84375 Z m 0,0"
             id="path131" />
        </g>
      </g>
      <g
         fill="#000000"
         fill-opacity="1"
         id="g20573"
         transform="matrix(0.352778,0,0,0.352778,-70.1999,-0.250119)">
        <g
           id="g20568"
           transform="translate(265.116,20.665001)">
          <path
             d="m 7.21875,-9.59375 c 0.015625,-0.0625 0.046875,-0.140625 0.046875,-0.21875 0,-0.140625 -0.15625,-0.140625 -0.1875,-0.140625 0,0 -0.703125,0.0625 -0.78125,0.0625 -0.25,0.015625 -0.453125,0.046875 -0.71875,0.0625 C 5.21875,-9.796875 5.125,-9.78125 5.125,-9.53125 c 0,0.15625 0.109375,0.15625 0.3125,0.15625 0.703125,0 0.71875,0.125 0.71875,0.265625 0,0.09375 -0.03125,0.203125 -0.046875,0.25 L 5.234375,-5.375 C 5.078125,-5.75 4.6875,-6.328125 3.9375,-6.328125 c -1.609375,0 -3.359375,2.09375 -3.359375,4.21875 0,1.421875 0.828125,2.25 1.796875,2.25 0.796875,0 1.46875,-0.609375 1.875,-1.09375 0.140625,0.859375 0.8125,1.09375 1.25,1.09375 0.421875,0 0.765625,-0.25 1.03125,-0.765625 C 6.75,-1.125 6.953125,-2 6.953125,-2.046875 6.953125,-2.125 6.90625,-2.1875 6.8125,-2.1875 c -0.125,0 -0.140625,0.078125 -0.203125,0.296875 -0.21875,0.84375 -0.484375,1.75 -1.078125,1.75 -0.40625,0 -0.4375,-0.375 -0.4375,-0.65625 0,-0.0625 0,-0.359375 0.09375,-0.765625 z M 4.3125,-1.703125 C 4.25,-1.46875 4.25,-1.4375 4.046875,-1.15625 c -0.3125,0.390625 -0.953125,1.015625 -1.625,1.015625 -0.578125,0 -0.921875,-0.53125 -0.921875,-1.375 0,-0.796875 0.453125,-2.40625 0.71875,-3 0.5,-1 1.171875,-1.515625 1.71875,-1.515625 0.953125,0 1.140625,1.171875 1.140625,1.28125 0,0.015625 -0.046875,0.203125 -0.0625,0.234375 z m 0,0"
             id="path135" />
        </g>
        <g
           id="g20571"
           transform="translate(272.41534,20.665001)">
          <path
             d="m 3.765625,1.609375 c -0.375,0.546875 -0.9375,1.03125 -1.640625,1.03125 -0.171875,0 -0.859375,-0.03125 -1.078125,-0.6875 C 1.09375,1.96875 1.15625,1.96875 1.1875,1.96875 c 0.4375,0 0.71875,-0.375 0.71875,-0.703125 C 1.90625,0.9375 1.640625,0.8125 1.421875,0.8125 1.1875,0.8125 0.6875,0.984375 0.6875,1.6875 c 0,0.734375 0.625,1.234375 1.4375,1.234375 1.4375,0 2.875,-1.3125 3.28125,-2.90625 l 1.40625,-5.59375 c 0.015625,-0.078125 0.046875,-0.15625 0.046875,-0.25 0,-0.203125 -0.171875,-0.359375 -0.390625,-0.359375 -0.125,0 -0.4375,0.0625 -0.546875,0.5 l -1.0625,4.203125 c -0.0625,0.265625 -0.0625,0.296875 -0.1875,0.453125 -0.28125,0.40625 -0.75,0.890625 -1.4375,0.890625 -0.8125,0 -0.875,-0.796875 -0.875,-1.171875 0,-0.828125 0.375,-1.921875 0.765625,-2.96875 0.15625,-0.40625 0.25,-0.609375 0.25,-0.890625 0,-0.609375 -0.4375,-1.15625 -1.140625,-1.15625 -1.3125,0 -1.84375,2.078125 -1.84375,2.203125 0,0.046875 0.046875,0.125 0.15625,0.125 C 0.671875,-4 0.6875,-4.0625 0.75,-4.265625 1.09375,-5.46875 1.640625,-6.03125 2.1875,-6.03125 c 0.140625,0 0.375,0 0.375,0.46875 0,0.375 -0.15625,0.78125 -0.375,1.328125 -0.703125,1.875 -0.703125,2.359375 -0.703125,2.703125 0,1.359375 0.984375,1.671875 1.703125,1.671875 0.40625,0 0.921875,-0.125 1.4375,-0.65625 L 4.640625,-0.5 c -0.21875,0.84375 -0.359375,1.40625 -0.875,2.109375 z m 0,0"
             id="path139" />
        </g>
      </g>
      <g
         fill="#000000"
         fill-opacity="1"
         id="g20578"
         transform="matrix(0.352778,0,0,0.352778,-70.1999,-0.250119)">
        <g
           id="g20576"
           transform="translate(279.26401,22.816999)">
          <path
             d="m 1.390625,-0.84375 1.15625,-1.125 c 1.703125,-1.5 2.34375,-2.09375 2.34375,-3.171875 0,-1.25 -0.96875,-2.125 -2.3125,-2.125 -1.21875,0 -2.03125,1 -2.03125,1.96875 0,0.625 0.546875,0.625 0.578125,0.625 0.1875,0 0.5625,-0.140625 0.5625,-0.578125 0,-0.296875 -0.1875,-0.578125 -0.578125,-0.578125 -0.078125,0 -0.109375,0 -0.140625,0.015625 0.25,-0.703125 0.84375,-1.109375 1.46875,-1.109375 1,0 1.46875,0.875 1.46875,1.78125 0,0.859375 -0.546875,1.734375 -1.140625,2.40625 l -2.09375,2.328125 c -0.125,0.125 -0.125,0.140625 -0.125,0.40625 H 4.59375 L 4.890625,-1.890625 H 4.625 C 4.5625,-1.578125 4.5,-1.09375 4.390625,-0.921875 4.3125,-0.84375 3.59375,-0.84375 3.34375,-0.84375 Z m 0,0"
             id="path143" />
        </g>
      </g>
    </g>
    <g
       inkscape:label=""
       transform="translate(77.833221,131.95459)"
       id="g22410">
      <g
         fill="#000000"
         fill-opacity="1"
         id="g22332"
         transform="matrix(0.352778,0,0,0.352778,-70.1999,-0.250119)">
        <g
           id="g22330"
           transform="translate(198.44501,20.665001)">
          <path
             d="m 7.28125,-5.40625 c 0.1875,0 0.671875,0 0.671875,-0.453125 0,-0.328125 -0.28125,-0.328125 -0.53125,-0.328125 H 4.25 c -2.15625,0 -3.703125,2.40625 -3.703125,4.09375 0,1.21875 0.78125,2.234375 2.078125,2.234375 1.6875,0 3.546875,-1.8125 3.546875,-3.96875 0,-0.5625 -0.140625,-1.109375 -0.484375,-1.578125 z m -4.640625,5.265625 c -0.734375,0 -1.265625,-0.5625 -1.265625,-1.546875 0,-0.859375 0.515625,-3.71875 2.625,-3.71875 0.625,0 1.3125,0.296875 1.3125,1.40625 0,0.5 -0.234375,1.703125 -0.734375,2.53125 -0.515625,0.859375 -1.296875,1.328125 -1.9375,1.328125 z m 0,0"
             id="path22328" />
        </g>
      </g>
      <g
         fill="#000000"
         fill-opacity="1"
         id="g22342"
         transform="matrix(0.352778,0,0,0.352778,-70.1999,-0.250119)">
        <g
           id="g22336"
           transform="translate(206.429,22.816999)">
          <path
             d="M 3.15625,-3.84375 C 4.0625,-4.140625 4.6875,-4.890625 4.6875,-5.765625 c 0,-0.890625 -0.953125,-1.5 -2,-1.5 -1.109375,0 -1.9375,0.65625 -1.9375,1.484375 0,0.359375 0.25,0.5625 0.5625,0.5625 0.328125,0 0.546875,-0.234375 0.546875,-0.546875 0,-0.546875 -0.5,-0.546875 -0.671875,-0.546875 C 1.53125,-6.84375 2.25,-6.984375 2.640625,-6.984375 3.09375,-6.984375 3.6875,-6.75 3.6875,-5.765625 3.6875,-5.640625 3.671875,-5 3.375,-4.53125 3.046875,-4 2.6875,-3.96875 2.40625,-3.953125 c -0.078125,0 -0.34375,0.03125 -0.421875,0.03125 -0.09375,0 -0.15625,0.015625 -0.15625,0.125 0,0.125 0.0625,0.125 0.25,0.125 H 2.5625 c 0.890625,0 1.296875,0.734375 1.296875,1.8125 0,1.484375 -0.75,1.796875 -1.234375,1.796875 -0.46875,0 -1.28125,-0.1875 -1.671875,-0.828125 0.390625,0.046875 0.71875,-0.1875 0.71875,-0.609375 0,-0.390625 -0.28125,-0.609375 -0.609375,-0.609375 -0.25,0 -0.609375,0.15625 -0.609375,0.640625 0,0.984375 1.015625,1.703125 2.203125,1.703125 1.328125,0 2.328125,-0.984375 2.328125,-2.09375 0,-0.90625 -0.6875,-1.75 -1.828125,-1.984375 z m 0,0"
             id="path22334" />
        </g>
        <g
           id="g22340"
           transform="translate(211.88354,22.816999)">
          <path
             d="m 3.203125,-6.984375 c 0,-0.25 0,-0.28125 -0.25,-0.28125 C 2.28125,-6.5625 1.3125,-6.5625 0.96875,-6.5625 v 0.328125 c 0.21875,0 0.859375,0 1.4375,-0.28125 v 5.65625 c 0,0.390625 -0.046875,0.515625 -1.015625,0.515625 H 1.03125 V 0 c 0.390625,-0.03125 1.328125,-0.03125 1.765625,-0.03125 0.4375,0 1.390625,0 1.765625,0.03125 V -0.34375 H 4.21875 c -0.984375,0 -1.015625,-0.109375 -1.015625,-0.515625 z m 0,0"
             id="path22338" />
        </g>
      </g>
      <g
         fill="#000000"
         fill-opacity="1"
         id="g22348"
         transform="matrix(0.352778,0,0,0.352778,-70.1999,-0.250119)">
        <g
           id="g22346"
           transform="translate(221.024,20.665001)">
          <path
             d="M 5.71875,-3.3125 H 9.6875 c 0.203125,0 0.453125,0 0.453125,-0.265625 0,-0.265625 -0.25,-0.265625 -0.453125,-0.265625 H 5.71875 v -3.953125 c 0,-0.203125 0,-0.46875 -0.25,-0.46875 -0.28125,0 -0.28125,0.25 -0.28125,0.46875 V -3.84375 H 1.234375 c -0.203125,0 -0.453125,0 -0.453125,0.265625 0,0.265625 0.234375,0.265625 0.453125,0.265625 H 5.1875 v 3.953125 c 0,0.203125 0,0.46875 0.265625,0.46875 0.265625,0 0.265625,-0.25 0.265625,-0.46875 z m 0,0"
             id="path22344" />
        </g>
      </g>
      <g
         fill="#000000"
         fill-opacity="1"
         id="g22354"
         transform="matrix(0.352778,0,0,0.352778,-70.1999,-0.250119)">
        <g
           id="g22352"
           transform="translate(236.33299,10.959)">
          <path
             d="M 6.515625,-4.796875 C 6.421875,-5.59375 5.921875,-6.5625 4.640625,-6.5625 c -2.03125,0 -4.09375,2.0625 -4.09375,4.34375 0,0.875 0.59375,2.515625 2.546875,2.515625 3.390625,0 4.84375,-4.9375 4.84375,-6.890625 0,-2.0625 -1.171875,-3.65625 -3,-3.65625 -2.078125,0 -2.703125,1.8125 -2.703125,2.203125 0,0.125 0.09375,0.4375 0.484375,0.4375 0.515625,0 0.71875,-0.453125 0.71875,-0.703125 C 3.4375,-8.75 3,-8.75 2.8125,-8.75 3.40625,-9.8125 4.484375,-9.90625 4.875,-9.90625 c 1.265625,0 2.0625,1 2.0625,2.609375 0,0.90625 -0.265625,1.96875 -0.40625,2.5 z m -3.375,4.703125 c -1.34375,0 -1.578125,-1.046875 -1.578125,-1.65625 0,-0.625 0.40625,-2.109375 0.625,-2.640625 0.171875,-0.421875 1,-1.875 2.484375,-1.875 1.3125,0 1.609375,1.125 1.609375,1.90625 0,1.0625 -0.9375,4.265625 -3.140625,4.265625 z m 0,0"
             id="path22350" />
        </g>
      </g>
      <g
         fill="#000000"
         fill-opacity="1"
         id="g22360"
         transform="matrix(0.352778,0,0,0.352778,-70.1999,-0.250119)">
        <g
           id="g22358"
           transform="translate(244.52324,10.959)">
          <path
             d="m 7.28125,-5.40625 c 0.1875,0 0.671875,0 0.671875,-0.453125 0,-0.328125 -0.28125,-0.328125 -0.53125,-0.328125 H 4.25 c -2.15625,0 -3.703125,2.40625 -3.703125,4.09375 0,1.21875 0.78125,2.234375 2.078125,2.234375 1.6875,0 3.546875,-1.8125 3.546875,-3.96875 0,-0.5625 -0.140625,-1.109375 -0.484375,-1.578125 z m -4.640625,5.265625 c -0.734375,0 -1.265625,-0.5625 -1.265625,-1.546875 0,-0.859375 0.515625,-3.71875 2.625,-3.71875 0.625,0 1.3125,0.296875 1.3125,1.40625 0,0.5 -0.234375,1.703125 -0.734375,2.53125 -0.515625,0.859375 -1.296875,1.328125 -1.9375,1.328125 z m 0,0"
             id="path22356" />
        </g>
      </g>
      <g
         fill="#000000"
         fill-opacity="1"
         id="g22370"
         transform="matrix(0.352778,0,0,0.352778,-70.1999,-0.250119)">
        <g
           id="g22364"
           transform="translate(252.513,13.111)">
          <path
             d="M 3.15625,-3.84375 C 4.0625,-4.140625 4.6875,-4.890625 4.6875,-5.765625 c 0,-0.890625 -0.953125,-1.5 -2,-1.5 -1.109375,0 -1.9375,0.65625 -1.9375,1.484375 0,0.359375 0.25,0.5625 0.5625,0.5625 0.328125,0 0.546875,-0.234375 0.546875,-0.546875 0,-0.546875 -0.5,-0.546875 -0.671875,-0.546875 C 1.53125,-6.84375 2.25,-6.984375 2.640625,-6.984375 3.09375,-6.984375 3.6875,-6.75 3.6875,-5.765625 3.6875,-5.640625 3.671875,-5 3.375,-4.53125 3.046875,-4 2.6875,-3.96875 2.40625,-3.953125 c -0.078125,0 -0.34375,0.03125 -0.421875,0.03125 -0.09375,0 -0.15625,0.015625 -0.15625,0.125 0,0.125 0.0625,0.125 0.25,0.125 H 2.5625 c 0.890625,0 1.296875,0.734375 1.296875,1.8125 0,1.484375 -0.75,1.796875 -1.234375,1.796875 -0.46875,0 -1.28125,-0.1875 -1.671875,-0.828125 0.390625,0.046875 0.71875,-0.1875 0.71875,-0.609375 0,-0.390625 -0.28125,-0.609375 -0.609375,-0.609375 -0.25,0 -0.609375,0.15625 -0.609375,0.640625 0,0.984375 1.015625,1.703125 2.203125,1.703125 1.328125,0 2.328125,-0.984375 2.328125,-2.09375 0,-0.90625 -0.6875,-1.75 -1.828125,-1.984375 z m 0,0"
             id="path22362" />
        </g>
        <g
           id="g22368"
           transform="translate(257.96756,13.111)">
          <path
             d="m 3.203125,-6.984375 c 0,-0.25 0,-0.28125 -0.25,-0.28125 C 2.28125,-6.5625 1.3125,-6.5625 0.96875,-6.5625 v 0.328125 c 0.21875,0 0.859375,0 1.4375,-0.28125 v 5.65625 c 0,0.390625 -0.046875,0.515625 -1.015625,0.515625 H 1.03125 V 0 c 0.390625,-0.03125 1.328125,-0.03125 1.765625,-0.03125 0.4375,0 1.390625,0 1.765625,0.03125 V -0.34375 H 4.21875 c -0.984375,0 -1.015625,-0.109375 -1.015625,-0.515625 z m 0,0"
             id="path22366" />
        </g>
      </g>
      <path
         fill="none"
         stroke-width="0.598"
         stroke-linecap="butt"
         stroke-linejoin="miter"
         stroke="#000000"
         stroke-opacity="1"
         stroke-miterlimit="10"
         d="M 37.340149,16.369125 H 64.929993"
         id="path22372"
         transform="scale(0.352778)" />
      <g
         fill="#000000"
         fill-opacity="1"
         id="g22378"
         transform="matrix(0.352778,0,0,0.352778,-70.1999,-0.250119)">
        <g
           id="g22376"
           transform="translate(239.62801,30.504999)">
          <path
             d="M 6.515625,-4.796875 C 6.421875,-5.59375 5.921875,-6.5625 4.640625,-6.5625 c -2.03125,0 -4.09375,2.0625 -4.09375,4.34375 0,0.875 0.59375,2.515625 2.546875,2.515625 3.390625,0 4.84375,-4.9375 4.84375,-6.890625 0,-2.0625 -1.171875,-3.65625 -3,-3.65625 -2.078125,0 -2.703125,1.8125 -2.703125,2.203125 0,0.125 0.09375,0.4375 0.484375,0.4375 0.515625,0 0.71875,-0.453125 0.71875,-0.703125 C 3.4375,-8.75 3,-8.75 2.8125,-8.75 3.40625,-9.8125 4.484375,-9.90625 4.875,-9.90625 c 1.265625,0 2.0625,1 2.0625,2.609375 0,0.90625 -0.265625,1.96875 -0.40625,2.5 z m -3.375,4.703125 c -1.34375,0 -1.578125,-1.046875 -1.578125,-1.65625 0,-0.625 0.40625,-2.109375 0.625,-2.640625 0.171875,-0.421875 1,-1.875 2.484375,-1.875 1.3125,0 1.609375,1.125 1.609375,1.90625 0,1.0625 -0.9375,4.265625 -3.140625,4.265625 z m 0,0"
             id="path22374" />
        </g>
      </g>
      <g
         clip-path="url(#clipPath7327)"
         id="g22386"
         transform="matrix(0.352778,0,0,0.352778,-70.1999,-0.250119)">
        <g
           fill="#000000"
           fill-opacity="1"
           id="g22384">
          <g
             id="g22382"
             transform="translate(247.81825,30.504999)">
            <path
               d="m 3.765625,1.609375 c -0.375,0.546875 -0.9375,1.03125 -1.640625,1.03125 -0.171875,0 -0.859375,-0.03125 -1.078125,-0.6875 C 1.09375,1.96875 1.15625,1.96875 1.1875,1.96875 c 0.4375,0 0.71875,-0.375 0.71875,-0.703125 C 1.90625,0.9375 1.640625,0.8125 1.421875,0.8125 1.1875,0.8125 0.6875,0.984375 0.6875,1.6875 c 0,0.734375 0.625,1.234375 1.4375,1.234375 1.4375,0 2.875,-1.3125 3.28125,-2.90625 l 1.40625,-5.59375 c 0.015625,-0.078125 0.046875,-0.15625 0.046875,-0.25 0,-0.203125 -0.171875,-0.359375 -0.390625,-0.359375 -0.125,0 -0.4375,0.0625 -0.546875,0.5 l -1.0625,4.203125 c -0.0625,0.265625 -0.0625,0.296875 -0.1875,0.453125 -0.28125,0.40625 -0.75,0.890625 -1.4375,0.890625 -0.8125,0 -0.875,-0.796875 -0.875,-1.171875 0,-0.828125 0.375,-1.921875 0.765625,-2.96875 0.15625,-0.40625 0.25,-0.609375 0.25,-0.890625 0,-0.609375 -0.4375,-1.15625 -1.140625,-1.15625 -1.3125,0 -1.84375,2.078125 -1.84375,2.203125 0,0.046875 0.046875,0.125 0.15625,0.125 C 0.671875,-4 0.6875,-4.0625 0.75,-4.265625 1.09375,-5.46875 1.640625,-6.03125 2.1875,-6.03125 c 0.140625,0 0.375,0 0.375,0.46875 0,0.375 -0.15625,0.78125 -0.375,1.328125 -0.703125,1.875 -0.703125,2.359375 -0.703125,2.703125 0,1.359375 0.984375,1.671875 1.703125,1.671875 0.40625,0 0.921875,-0.125 1.4375,-0.65625 L 4.640625,-0.5 c -0.21875,0.84375 -0.359375,1.40625 -0.875,2.109375 z m 0,0"
               id="path22380" />
          </g>
        </g>
      </g>
      <g
         fill="#000000"
         fill-opacity="1"
         id="g22392"
         transform="matrix(0.352778,0,0,0.352778,-70.1999,-0.250119)">
        <g
           id="g22390"
           transform="translate(254.673,32.657001)">
          <path
             d="M 3.15625,-3.84375 C 4.0625,-4.140625 4.6875,-4.890625 4.6875,-5.765625 c 0,-0.890625 -0.953125,-1.5 -2,-1.5 -1.109375,0 -1.9375,0.65625 -1.9375,1.484375 0,0.359375 0.25,0.5625 0.5625,0.5625 0.328125,0 0.546875,-0.234375 0.546875,-0.546875 0,-0.546875 -0.5,-0.546875 -0.671875,-0.546875 C 1.53125,-6.84375 2.25,-6.984375 2.640625,-6.984375 3.09375,-6.984375 3.6875,-6.75 3.6875,-5.765625 3.6875,-5.640625 3.671875,-5 3.375,-4.53125 3.046875,-4 2.6875,-3.96875 2.40625,-3.953125 c -0.078125,0 -0.34375,0.03125 -0.421875,0.03125 -0.09375,0 -0.15625,0.015625 -0.15625,0.125 0,0.125 0.0625,0.125 0.25,0.125 H 2.5625 c 0.890625,0 1.296875,0.734375 1.296875,1.8125 0,1.484375 -0.75,1.796875 -1.234375,1.796875 -0.46875,0 -1.28125,-0.1875 -1.671875,-0.828125 0.390625,0.046875 0.71875,-0.1875 0.71875,-0.609375 0,-0.390625 -0.28125,-0.609375 -0.609375,-0.609375 -0.25,0 -0.609375,0.15625 -0.609375,0.640625 0,0.984375 1.015625,1.703125 2.203125,1.703125 1.328125,0 2.328125,-0.984375 2.328125,-2.09375 0,-0.90625 -0.6875,-1.75 -1.828125,-1.984375 z m 0,0"
             id="path22388" />
        </g>
      </g>
      <g
         fill="#000000"
         fill-opacity="1"
         id="g22402"
         transform="matrix(0.352778,0,0,0.352778,-70.1999,-0.250119)">
        <g
           id="g22396"
           transform="translate(265.116,20.665001)">
          <path
             d="m 7.21875,-9.59375 c 0.015625,-0.0625 0.046875,-0.140625 0.046875,-0.21875 0,-0.140625 -0.15625,-0.140625 -0.1875,-0.140625 0,0 -0.703125,0.0625 -0.78125,0.0625 -0.25,0.015625 -0.453125,0.046875 -0.71875,0.0625 C 5.21875,-9.796875 5.125,-9.78125 5.125,-9.53125 c 0,0.15625 0.109375,0.15625 0.3125,0.15625 0.703125,0 0.71875,0.125 0.71875,0.265625 0,0.09375 -0.03125,0.203125 -0.046875,0.25 L 5.234375,-5.375 C 5.078125,-5.75 4.6875,-6.328125 3.9375,-6.328125 c -1.609375,0 -3.359375,2.09375 -3.359375,4.21875 0,1.421875 0.828125,2.25 1.796875,2.25 0.796875,0 1.46875,-0.609375 1.875,-1.09375 0.140625,0.859375 0.8125,1.09375 1.25,1.09375 0.421875,0 0.765625,-0.25 1.03125,-0.765625 C 6.75,-1.125 6.953125,-2 6.953125,-2.046875 6.953125,-2.125 6.90625,-2.1875 6.8125,-2.1875 c -0.125,0 -0.140625,0.078125 -0.203125,0.296875 -0.21875,0.84375 -0.484375,1.75 -1.078125,1.75 -0.40625,0 -0.4375,-0.375 -0.4375,-0.65625 0,-0.0625 0,-0.359375 0.09375,-0.765625 z M 4.3125,-1.703125 C 4.25,-1.46875 4.25,-1.4375 4.046875,-1.15625 c -0.3125,0.390625 -0.953125,1.015625 -1.625,1.015625 -0.578125,0 -0.921875,-0.53125 -0.921875,-1.375 0,-0.796875 0.453125,-2.40625 0.71875,-3 0.5,-1 1.171875,-1.515625 1.71875,-1.515625 0.953125,0 1.140625,1.171875 1.140625,1.28125 0,0.015625 -0.046875,0.203125 -0.0625,0.234375 z m 0,0"
             id="path22394" />
        </g>
        <g
           id="g22400"
           transform="translate(272.41534,20.665001)">
          <path
             d="m 3.765625,1.609375 c -0.375,0.546875 -0.9375,1.03125 -1.640625,1.03125 -0.171875,0 -0.859375,-0.03125 -1.078125,-0.6875 C 1.09375,1.96875 1.15625,1.96875 1.1875,1.96875 c 0.4375,0 0.71875,-0.375 0.71875,-0.703125 C 1.90625,0.9375 1.640625,0.8125 1.421875,0.8125 1.1875,0.8125 0.6875,0.984375 0.6875,1.6875 c 0,0.734375 0.625,1.234375 1.4375,1.234375 1.4375,0 2.875,-1.3125 3.28125,-2.90625 l 1.40625,-5.59375 c 0.015625,-0.078125 0.046875,-0.15625 0.046875,-0.25 0,-0.203125 -0.171875,-0.359375 -0.390625,-0.359375 -0.125,0 -0.4375,0.0625 -0.546875,0.5 l -1.0625,4.203125 c -0.0625,0.265625 -0.0625,0.296875 -0.1875,0.453125 -0.28125,0.40625 -0.75,0.890625 -1.4375,0.890625 -0.8125,0 -0.875,-0.796875 -0.875,-1.171875 0,-0.828125 0.375,-1.921875 0.765625,-2.96875 0.15625,-0.40625 0.25,-0.609375 0.25,-0.890625 0,-0.609375 -0.4375,-1.15625 -1.140625,-1.15625 -1.3125,0 -1.84375,2.078125 -1.84375,2.203125 0,0.046875 0.046875,0.125 0.15625,0.125 C 0.671875,-4 0.6875,-4.0625 0.75,-4.265625 1.09375,-5.46875 1.640625,-6.03125 2.1875,-6.03125 c 0.140625,0 0.375,0 0.375,0.46875 0,0.375 -0.15625,0.78125 -0.375,1.328125 -0.703125,1.875 -0.703125,2.359375 -0.703125,2.703125 0,1.359375 0.984375,1.671875 1.703125,1.671875 0.40625,0 0.921875,-0.125 1.4375,-0.65625 L 4.640625,-0.5 c -0.21875,0.84375 -0.359375,1.40625 -0.875,2.109375 z m 0,0"
             id="path22398" />
        </g>
      </g>
      <g
         fill="#000000"
         fill-opacity="1"
         id="g22408"
         transform="matrix(0.352778,0,0,0.352778,-70.1999,-0.250119)">
        <g
           id="g22406"
           transform="translate(279.26401,22.816999)">
          <path
             d="M 3.15625,-3.84375 C 4.0625,-4.140625 4.6875,-4.890625 4.6875,-5.765625 c 0,-0.890625 -0.953125,-1.5 -2,-1.5 -1.109375,0 -1.9375,0.65625 -1.9375,1.484375 0,0.359375 0.25,0.5625 0.5625,0.5625 0.328125,0 0.546875,-0.234375 0.546875,-0.546875 0,-0.546875 -0.5,-0.546875 -0.671875,-0.546875 C 1.53125,-6.84375 2.25,-6.984375 2.640625,-6.984375 3.09375,-6.984375 3.6875,-6.75 3.6875,-5.765625 3.6875,-5.640625 3.671875,-5 3.375,-4.53125 3.046875,-4 2.6875,-3.96875 2.40625,-3.953125 c -0.078125,0 -0.34375,0.03125 -0.421875,0.03125 -0.09375,0 -0.15625,0.015625 -0.15625,0.125 0,0.125 0.0625,0.125 0.25,0.125 H 2.5625 c 0.890625,0 1.296875,0.734375 1.296875,1.8125 0,1.484375 -0.75,1.796875 -1.234375,1.796875 -0.46875,0 -1.28125,-0.1875 -1.671875,-0.828125 0.390625,0.046875 0.71875,-0.1875 0.71875,-0.609375 0,-0.390625 -0.28125,-0.609375 -0.609375,-0.609375 -0.25,0 -0.609375,0.15625 -0.609375,0.640625 0,0.984375 1.015625,1.703125 2.203125,1.703125 1.328125,0 2.328125,-0.984375 2.328125,-2.09375 0,-0.90625 -0.6875,-1.75 -1.828125,-1.984375 z m 0,0"
             id="path22404" />
        </g>
      </g>
    </g>
    <g
       inkscape:label=""
       transform="translate(111.99652,168.87249)"
       id="g25082">
      <g
         fill="#000000"
         fill-opacity="1"
         id="g25072"
         transform="matrix(0.352778,0,0,0.352778,-83.4002,-4.09394)">
        <g
           id="g25070"
           transform="translate(235.832,17.933001)">
          <path
             d="m 5.609375,-5.390625 c -0.28125,0 -0.40625,0 -0.609375,0.171875 -0.078125,0.0625 -0.234375,0.28125 -0.234375,0.515625 0,0.28125 0.21875,0.453125 0.484375,0.453125 0.34375,0 0.734375,-0.28125 0.734375,-0.859375 0,-0.6875 -0.65625,-1.21875 -1.65625,-1.21875 -1.875,0 -3.75,2.046875 -3.75,4.09375 0,1.25 0.765625,2.375 2.234375,2.375 C 4.765625,0.140625 6,-1.375 6,-1.5625 6,-1.65625 5.90625,-1.71875 5.859375,-1.71875 c -0.046875,0 -0.0625,0.015625 -0.1875,0.140625 -0.921875,1.21875 -2.28125,1.4375 -2.828125,1.4375 -1,0 -1.3125,-0.859375 -1.3125,-1.578125 0,-0.5 0.25,-1.890625 0.765625,-2.875 0.375,-0.671875 1.140625,-1.4375 2.046875,-1.4375 0.1875,0 0.984375,0.015625 1.265625,0.640625 z m 0,0"
             id="path25068" />
        </g>
      </g>
      <g
         clip-path="url(#clipPath1281)"
         id="g25080"
         transform="matrix(0.352778,0,0,0.352778,-83.4002,-4.09394)">
        <g
           fill="#000000"
           fill-opacity="1"
           id="g25078">
          <g
             id="g25076"
             transform="translate(241.877,20.084999)">
            <path
               d="m 3.203125,-6.984375 c 0,-0.25 0,-0.28125 -0.25,-0.28125 C 2.28125,-6.5625 1.3125,-6.5625 0.96875,-6.5625 v 0.328125 c 0.21875,0 0.859375,0 1.4375,-0.28125 v 5.65625 c 0,0.390625 -0.046875,0.515625 -1.015625,0.515625 H 1.03125 V 0 c 0.390625,-0.03125 1.328125,-0.03125 1.765625,-0.03125 0.4375,0 1.390625,0 1.765625,0.03125 V -0.34375 H 4.21875 c -0.984375,0 -1.015625,-0.109375 -1.015625,-0.515625 z m 0,0"
               id="path25074" />
          </g>
        </g>
      </g>
    </g>
    <path
       style="fill:none;stroke:#000000;stroke-width:0.264999;stroke-dasharray:1.06;stroke-dashoffset:0"
       d="m 83.283511,148.32829 -8.66025,-5"
       id="path25606" />
    <g
       inkscape:label=""
       transform="translate(124.39643,193.16154)"
       id="g2803">
      <g
         clip-path="url(#clipPath2197)"
         id="g21"
         transform="matrix(0.352778,0,0,0.352778,-81.6655,-4.06938)">
        <g
           fill="#000000"
           fill-opacity="1"
           id="g19">
          <g
             id="use17"
             transform="translate(231.024,19.129)">
            <path
               d="m 4.53125,1.921875 c -0.46875,0.65625 -1.140625,1.25 -1.984375,1.25 -0.203125,0 -1.03125,-0.03125 -1.296875,-0.828125 0.0625,0.015625 0.140625,0.015625 0.171875,0.015625 0.53125,0 0.875,-0.453125 0.875,-0.84375 0,-0.390625 -0.328125,-0.53125 -0.59375,-0.53125 -0.28125,0 -0.875,0.203125 -0.875,1.046875 0,0.875 0.734375,1.484375 1.71875,1.484375 1.71875,0 3.46875,-1.59375 3.9375,-3.5 l 1.6875,-6.71875 c 0.03125,-0.078125 0.0625,-0.1875 0.0625,-0.28125 0,-0.265625 -0.203125,-0.4375 -0.46875,-0.4375 -0.15625,0 -0.515625,0.0625 -0.65625,0.59375 L 5.84375,-1.78125 C 5.75,-1.46875 5.75,-1.421875 5.609375,-1.234375 5.265625,-0.75 4.703125,-0.171875 3.875,-0.171875 c -0.96875,0 -1.046875,-0.953125 -1.046875,-1.40625 0,-0.984375 0.453125,-2.3125 0.921875,-3.546875 0.1875,-0.5 0.296875,-0.75 0.296875,-1.09375 0,-0.71875 -0.515625,-1.375 -1.359375,-1.375 -1.578125,0 -2.21875,2.5 -2.21875,2.640625 0,0.0625 0.0625,0.15625 0.1875,0.15625 0.15625,0 0.171875,-0.078125 0.234375,-0.3125 C 1.3125,-6.5625 1.96875,-7.25 2.640625,-7.25 c 0.15625,0 0.4375,0 0.4375,0.5625 0,0.453125 -0.1875,0.953125 -0.4375,1.609375 -0.84375,2.25 -0.84375,2.828125 -0.84375,3.234375 0,1.640625 1.171875,2.015625 2.03125,2.015625 0.5,0 1.109375,-0.15625 1.71875,-0.796875 L 5.5625,-0.609375 C 5.296875,0.40625 5.125,1.078125 4.53125,1.921875 Z m 0,0"
               id="path31" />
          </g>
        </g>
      </g>
      <g
         fill="#000000"
         fill-opacity="1"
         id="g25"
         transform="matrix(0.352778,0,0,0.352778,-81.6655,-4.06938)">
        <g
           id="g2800"
           transform="translate(239.243,21.711)">
          <path
             d="m 3.203125,-6.984375 c 0,-0.25 0,-0.28125 -0.25,-0.28125 C 2.28125,-6.5625 1.3125,-6.5625 0.96875,-6.5625 v 0.328125 c 0.21875,0 0.859375,0 1.4375,-0.28125 v 5.65625 c 0,0.390625 -0.046875,0.515625 -1.015625,0.515625 H 1.03125 V 0 c 0.390625,-0.03125 1.328125,-0.03125 1.765625,-0.03125 0.4375,0 1.390625,0 1.765625,0.03125 V -0.34375 H 4.21875 c -0.984375,0 -1.015625,-0.109375 -1.015625,-0.515625 z m 0,0"
             id="path35" />
        </g>
      </g>
    </g>
    <g
       inkscape:label=""
       transform="translate(128.39099,131.2214)"
       id="g3485">
      <g
         clip-path="url(#clipPath9719)"
         id="g3477"
         transform="matrix(0.352778,0,0,0.352778,-81.6655,-4.06938)">
        <g
           fill="#000000"
           fill-opacity="1"
           id="g3475">
          <g
             id="g3473"
             transform="translate(231.024,19.129)">
            <path
               d="m 4.53125,1.921875 c -0.46875,0.65625 -1.140625,1.25 -1.984375,1.25 -0.203125,0 -1.03125,-0.03125 -1.296875,-0.828125 0.0625,0.015625 0.140625,0.015625 0.171875,0.015625 0.53125,0 0.875,-0.453125 0.875,-0.84375 0,-0.390625 -0.328125,-0.53125 -0.59375,-0.53125 -0.28125,0 -0.875,0.203125 -0.875,1.046875 0,0.875 0.734375,1.484375 1.71875,1.484375 1.71875,0 3.46875,-1.59375 3.9375,-3.5 l 1.6875,-6.71875 c 0.03125,-0.078125 0.0625,-0.1875 0.0625,-0.28125 0,-0.265625 -0.203125,-0.4375 -0.46875,-0.4375 -0.15625,0 -0.515625,0.0625 -0.65625,0.59375 L 5.84375,-1.78125 C 5.75,-1.46875 5.75,-1.421875 5.609375,-1.234375 5.265625,-0.75 4.703125,-0.171875 3.875,-0.171875 c -0.96875,0 -1.046875,-0.953125 -1.046875,-1.40625 0,-0.984375 0.453125,-2.3125 0.921875,-3.546875 0.1875,-0.5 0.296875,-0.75 0.296875,-1.09375 0,-0.71875 -0.515625,-1.375 -1.359375,-1.375 -1.578125,0 -2.21875,2.5 -2.21875,2.640625 0,0.0625 0.0625,0.15625 0.1875,0.15625 0.15625,0 0.171875,-0.078125 0.234375,-0.3125 C 1.3125,-6.5625 1.96875,-7.25 2.640625,-7.25 c 0.15625,0 0.4375,0 0.4375,0.5625 0,0.453125 -0.1875,0.953125 -0.4375,1.609375 -0.84375,2.25 -0.84375,2.828125 -0.84375,3.234375 0,1.640625 1.171875,2.015625 2.03125,2.015625 0.5,0 1.109375,-0.15625 1.71875,-0.796875 L 5.5625,-0.609375 C 5.296875,0.40625 5.125,1.078125 4.53125,1.921875 Z m 0,0"
               id="path3471" />
          </g>
        </g>
      </g>
      <g
         fill="#000000"
         fill-opacity="1"
         id="g3483"
         transform="matrix(0.352778,0,0,0.352778,-81.6655,-4.06938)">
        <g
           id="g3481"
           transform="translate(239.243,21.711)">
          <path
             d="m 1.390625,-0.84375 1.15625,-1.125 c 1.703125,-1.5 2.34375,-2.09375 2.34375,-3.171875 0,-1.25 -0.96875,-2.125 -2.3125,-2.125 -1.21875,0 -2.03125,1 -2.03125,1.96875 0,0.625 0.546875,0.625 0.578125,0.625 0.1875,0 0.5625,-0.140625 0.5625,-0.578125 0,-0.296875 -0.1875,-0.578125 -0.578125,-0.578125 -0.078125,0 -0.109375,0 -0.140625,0.015625 0.25,-0.703125 0.84375,-1.109375 1.46875,-1.109375 1,0 1.46875,0.875 1.46875,1.78125 0,0.859375 -0.546875,1.734375 -1.140625,2.40625 l -2.09375,2.328125 c -0.125,0.125 -0.125,0.140625 -0.125,0.40625 H 4.59375 L 4.890625,-1.890625 H 4.625 C 4.5625,-1.578125 4.5,-1.09375 4.390625,-0.921875 4.3125,-0.84375 3.59375,-0.84375 3.34375,-0.84375 Z m 0,0"
             id="path3479" />
        </g>
      </g>
    </g>
    <g
       inkscape:label=""
       transform="translate(65.493205,126.09702)"
       id="g4187">
      <g
         clip-path="url(#clipPath7858)"
         id="g4179"
         transform="matrix(0.352778,0,0,0.352778,-81.6655,-4.06938)">
        <g
           fill="#000000"
           fill-opacity="1"
           id="g4177">
          <g
             id="g4175"
             transform="translate(231.024,19.129)">
            <path
               d="m 4.53125,1.921875 c -0.46875,0.65625 -1.140625,1.25 -1.984375,1.25 -0.203125,0 -1.03125,-0.03125 -1.296875,-0.828125 0.0625,0.015625 0.140625,0.015625 0.171875,0.015625 0.53125,0 0.875,-0.453125 0.875,-0.84375 0,-0.390625 -0.328125,-0.53125 -0.59375,-0.53125 -0.28125,0 -0.875,0.203125 -0.875,1.046875 0,0.875 0.734375,1.484375 1.71875,1.484375 1.71875,0 3.46875,-1.59375 3.9375,-3.5 l 1.6875,-6.71875 c 0.03125,-0.078125 0.0625,-0.1875 0.0625,-0.28125 0,-0.265625 -0.203125,-0.4375 -0.46875,-0.4375 -0.15625,0 -0.515625,0.0625 -0.65625,0.59375 L 5.84375,-1.78125 C 5.75,-1.46875 5.75,-1.421875 5.609375,-1.234375 5.265625,-0.75 4.703125,-0.171875 3.875,-0.171875 c -0.96875,0 -1.046875,-0.953125 -1.046875,-1.40625 0,-0.984375 0.453125,-2.3125 0.921875,-3.546875 0.1875,-0.5 0.296875,-0.75 0.296875,-1.09375 0,-0.71875 -0.515625,-1.375 -1.359375,-1.375 -1.578125,0 -2.21875,2.5 -2.21875,2.640625 0,0.0625 0.0625,0.15625 0.1875,0.15625 0.15625,0 0.171875,-0.078125 0.234375,-0.3125 C 1.3125,-6.5625 1.96875,-7.25 2.640625,-7.25 c 0.15625,0 0.4375,0 0.4375,0.5625 0,0.453125 -0.1875,0.953125 -0.4375,1.609375 -0.84375,2.25 -0.84375,2.828125 -0.84375,3.234375 0,1.640625 1.171875,2.015625 2.03125,2.015625 0.5,0 1.109375,-0.15625 1.71875,-0.796875 L 5.5625,-0.609375 C 5.296875,0.40625 5.125,1.078125 4.53125,1.921875 Z m 0,0"
               id="path4173" />
          </g>
        </g>
      </g>
      <g
         fill="#000000"
         fill-opacity="1"
         id="g4185"
         transform="matrix(0.352778,0,0,0.352778,-81.6655,-4.06938)">
        <g
           id="g4183"
           transform="translate(239.243,21.711)">
          <path
             d="M 3.15625,-3.84375 C 4.0625,-4.140625 4.6875,-4.890625 4.6875,-5.765625 c 0,-0.890625 -0.953125,-1.5 -2,-1.5 -1.109375,0 -1.9375,0.65625 -1.9375,1.484375 0,0.359375 0.25,0.5625 0.5625,0.5625 0.328125,0 0.546875,-0.234375 0.546875,-0.546875 0,-0.546875 -0.5,-0.546875 -0.671875,-0.546875 C 1.53125,-6.84375 2.25,-6.984375 2.640625,-6.984375 3.09375,-6.984375 3.6875,-6.75 3.6875,-5.765625 3.6875,-5.640625 3.671875,-5 3.375,-4.53125 3.046875,-4 2.6875,-3.96875 2.40625,-3.953125 c -0.078125,0 -0.34375,0.03125 -0.421875,0.03125 -0.09375,0 -0.15625,0.015625 -0.15625,0.125 0,0.125 0.0625,0.125 0.25,0.125 H 2.5625 c 0.890625,0 1.296875,0.734375 1.296875,1.8125 0,1.484375 -0.75,1.796875 -1.234375,1.796875 -0.46875,0 -1.28125,-0.1875 -1.671875,-0.828125 0.390625,0.046875 0.71875,-0.1875 0.71875,-0.609375 0,-0.390625 -0.28125,-0.609375 -0.609375,-0.609375 -0.25,0 -0.609375,0.15625 -0.609375,0.640625 0,0.984375 1.015625,1.703125 2.203125,1.703125 1.328125,0 2.328125,-0.984375 2.328125,-2.09375 0,-0.90625 -0.6875,-1.75 -1.828125,-1.984375 z m 0,0"
             id="path4181" />
        </g>
      </g>
    </g>
    <path
       style="fill:#000000;stroke:#000000;stroke-width:0.3;stroke-dasharray:1.2"
       d="m 96.141399,150.82829 17.320511,-10"
       id="path2" />
    <path
       style="fill:#000000;stroke:#000000;stroke-width:0.3;stroke-dasharray:none;marker-end:url(#marker91561)"
       d="m 113.46191,140.82829 12.99038,-7.5"
       id="path3" />
  </g>
</svg>
