<?xml version="1.0" encoding="UTF-8" standalone="no"?>
<!-- Created with Inkscape (http://www.inkscape.org/) -->

<svg
   version="1.1"
   id="svg132"
   width="262.21432"
   height="227.11984"
   viewBox="0 0 262.21431 227.11985"
   sodipodi:docname="filtros2.svg"
   inkscape:version="1.2.1 (9c6d41e410, 2022-07-14)"
   xmlns:inkscape="http://www.inkscape.org/namespaces/inkscape"
   xmlns:sodipodi="http://sodipodi.sourceforge.net/DTD/sodipodi-0.dtd"
   xmlns="http://www.w3.org/2000/svg"
   xmlns:svg="http://www.w3.org/2000/svg">
  <defs
     id="defs136">
    <marker
       style="overflow:visible"
       id="Arrow1"
       refX="0"
       refY="0"
       orient="auto-start-reverse"
       inkscape:stockid="Arrow1"
       markerWidth="4.0606604"
       markerHeight="6.7071066"
       viewBox="0 0 4.0606602 6.7071068"
       inkscape:isstock="true"
       inkscape:collect="always"
       preserveAspectRatio="xMidYMid">
      <path
         style="fill:none;stroke:context-stroke;stroke-width:1;stroke-linecap:butt"
         d="M 3,-3 0,0 3,3"
         id="path5057"
         transform="rotate(180,0.125,0)"
         sodipodi:nodetypes="ccc" />
    </marker>
    <clipPath
       clipPathUnits="userSpaceOnUse"
       id="clipPath202">
      <path
         d="M 982,719 H 19123 V 13556 H 982 V 719"
         id="path200" />
    </clipPath>
    <clipPath
       clipPathUnits="userSpaceOnUse"
       id="clipPath214">
      <path
         d="M 982,719 H 19123 V 13556 H 982 V 719"
         id="path212" />
    </clipPath>
    <clipPath
       clipPathUnits="userSpaceOnUse"
       id="clipPath230">
      <path
         d="M 0,0 H 19866 V 14031 H 0 V 0"
         id="path228" />
    </clipPath>
    <clipPath
       id="clipPath7842">
      <path
         clip-rule="nonzero"
         d="m 246,14 h 5 v 5.089844 h -5 z m 0,0"
         id="path9389" />
    </clipPath>
    <clipPath
       id="clipPath740">
      <path
         clip-rule="nonzero"
         d="m 252,14 h 5 v 5.089844 h -5 z m 0,0"
         id="path5898" />
    </clipPath>
    <clipPath
       id="clipPath5148">
      <path
         clip-rule="nonzero"
         d="m 250,6 h 6 v 14.523438 h -6 z m 0,0"
         id="path5294" />
    </clipPath>
    <clipPath
       id="clipPath3041">
      <path
         clip-rule="nonzero"
         d="m 244,6 h 7 v 14.523438 h -7 z m 0,0"
         id="path3561" />
    </clipPath>
    <clipPath
       clipPathUnits="userSpaceOnUse"
       id="clipPath2019">
      <g
         id="g2023">
        <path
           d="M 2140.1304,7704.8699 H 8048.4406 V 11885.73 H 2140.1304 V 7704.8699"
           id="path2021"
           style="stroke-width:0.325688" />
      </g>
    </clipPath>
    <clipPath
       clipPathUnits="userSpaceOnUse"
       id="clipPath2025">
      <g
         id="g2029">
        <path
           d="M 2140.1304,7704.8699 H 8048.4406 V 11885.73 H 2140.1304 V 7704.8699"
           id="path2027"
           style="stroke-width:0.325688" />
      </g>
    </clipPath>
    <clipPath
       clipPathUnits="userSpaceOnUse"
       id="clipPath2031">
      <g
         id="g2035">
        <path
           d="M 2140.1304,7704.8699 H 8048.4406 V 11885.73 H 2140.1304 V 7704.8699"
           id="path2033"
           style="stroke-width:0.325688" />
      </g>
    </clipPath>
    <clipPath
       clipPathUnits="userSpaceOnUse"
       id="clipPath2037">
      <g
         id="g2041">
        <path
           d="M 2140.1304,7704.8699 H 8048.4406 V 11885.73 H 2140.1304 V 7704.8699"
           id="path2039"
           style="stroke-width:0.325688" />
      </g>
    </clipPath>
    <clipPath
       clipPathUnits="userSpaceOnUse"
       id="clipPath2043">
      <g
         id="g2047">
        <path
           d="M 2140.1304,7704.8699 H 8048.4406 V 11885.73 H 2140.1304 V 7704.8699"
           id="path2045"
           style="stroke-width:0.325688" />
      </g>
    </clipPath>
    <clipPath
       clipPathUnits="userSpaceOnUse"
       id="clipPath2049">
      <g
         id="g2053">
        <path
           d="M 2140.1304,7704.8699 H 8048.4406 V 11885.73 H 2140.1304 V 7704.8699"
           id="path2051"
           style="stroke-width:0.325688" />
      </g>
    </clipPath>
    <clipPath
       clipPathUnits="userSpaceOnUse"
       id="clipPath2055">
      <g
         id="g2059">
        <path
           d="M 2140.1304,7704.8699 H 8048.4406 V 11885.73 H 2140.1304 V 7704.8699"
           id="path2057"
           style="stroke-width:0.325688" />
      </g>
    </clipPath>
    <clipPath
       clipPathUnits="userSpaceOnUse"
       id="clipPath2061">
      <g
         id="g2065">
        <path
           d="M 2140.1304,7704.8699 H 8048.4406 V 11885.73 H 2140.1304 V 7704.8699"
           id="path2063"
           style="stroke-width:0.325688" />
      </g>
    </clipPath>
    <clipPath
       clipPathUnits="userSpaceOnUse"
       id="clipPath2067">
      <g
         id="g2071">
        <path
           d="M 2140.1304,7704.8699 H 8048.4406 V 11885.73 H 2140.1304 V 7704.8699"
           id="path2069"
           style="stroke-width:0.325688" />
      </g>
    </clipPath>
    <clipPath
       clipPathUnits="userSpaceOnUse"
       id="clipPath2073">
      <g
         id="g2077">
        <path
           d="M 2140.1304,7704.8699 H 8048.4406 V 11885.73 H 2140.1304 V 7704.8699"
           id="path2075"
           style="stroke-width:0.325688" />
      </g>
    </clipPath>
    <clipPath
       clipPathUnits="userSpaceOnUse"
       id="clipPath2079">
      <g
         id="g2083">
        <path
           d="M 2140.1304,7704.8699 H 8048.4406 V 11885.73 H 2140.1304 V 7704.8699"
           id="path2081"
           style="stroke-width:0.325688" />
      </g>
    </clipPath>
    <clipPath
       clipPathUnits="userSpaceOnUse"
       id="clipPath2085">
      <g
         id="g2089">
        <path
           d="M 2140.1304,7704.8699 H 8048.4406 V 11885.73 H 2140.1304 V 7704.8699"
           id="path2087"
           style="stroke-width:0.325688" />
      </g>
    </clipPath>
    <clipPath
       clipPathUnits="userSpaceOnUse"
       id="clipPath2091">
      <g
         id="g2095">
        <path
           d="M 2140.1304,7704.8699 H 8048.4406 V 11885.73 H 2140.1304 V 7704.8699"
           id="path2093"
           style="stroke-width:0.325688" />
      </g>
    </clipPath>
    <clipPath
       clipPathUnits="userSpaceOnUse"
       id="clipPath2097">
      <g
         id="g2101">
        <path
           d="M 2140.1304,7704.8699 H 8048.4406 V 11885.73 H 2140.1304 V 7704.8699"
           id="path2099"
           style="stroke-width:0.325688" />
      </g>
    </clipPath>
    <clipPath
       clipPathUnits="userSpaceOnUse"
       id="clipPath2103">
      <g
         id="g2107">
        <path
           d="M 2140.1304,7704.8699 H 8048.4406 V 11885.73 H 2140.1304 V 7704.8699"
           id="path2105"
           style="stroke-width:0.325688" />
      </g>
    </clipPath>
    <clipPath
       clipPathUnits="userSpaceOnUse"
       id="clipPath2109">
      <g
         id="g2113">
        <path
           d="M 2140.1304,7704.8699 H 8048.4406 V 11885.73 H 2140.1304 V 7704.8699"
           id="path2111"
           style="stroke-width:0.325688" />
      </g>
    </clipPath>
    <clipPath
       clipPathUnits="userSpaceOnUse"
       id="clipPath2115">
      <g
         id="g2119">
        <path
           d="M 2140.1304,7704.8699 H 8048.4406 V 11885.73 H 2140.1304 V 7704.8699"
           id="path2117"
           style="stroke-width:0.325688" />
      </g>
    </clipPath>
    <clipPath
       clipPathUnits="userSpaceOnUse"
       id="clipPath2121">
      <g
         id="g2125">
        <path
           d="M 2140.1304,7704.8699 H 8048.4406 V 11885.73 H 2140.1304 V 7704.8699"
           id="path2123"
           style="stroke-width:0.325688" />
      </g>
    </clipPath>
    <clipPath
       clipPathUnits="userSpaceOnUse"
       id="clipPath2127">
      <g
         id="g2131">
        <path
           d="M 2140.1304,7704.8699 H 8048.4406 V 11885.73 H 2140.1304 V 7704.8699"
           id="path2129"
           style="stroke-width:0.325688" />
      </g>
    </clipPath>
    <clipPath
       clipPathUnits="userSpaceOnUse"
       id="clipPath2133">
      <g
         id="g2137">
        <path
           d="M 2140.1304,7704.8699 H 8048.4406 V 11885.73 H 2140.1304 V 7704.8699"
           id="path2135"
           style="stroke-width:0.325688" />
      </g>
    </clipPath>
    <clipPath
       clipPathUnits="userSpaceOnUse"
       id="clipPath2139">
      <g
         id="g2143">
        <path
           d="M 2140.1304,7704.8699 H 8048.4406 V 11885.73 H 2140.1304 V 7704.8699"
           id="path2141"
           style="stroke-width:0.325688" />
      </g>
    </clipPath>
    <clipPath
       clipPathUnits="userSpaceOnUse"
       id="clipPath2145">
      <g
         id="g2149">
        <path
           d="M 2140.1304,7704.8699 H 8048.4406 V 11885.73 H 2140.1304 V 7704.8699"
           id="path2147"
           style="stroke-width:0.325688" />
      </g>
    </clipPath>
    <clipPath
       clipPathUnits="userSpaceOnUse"
       id="clipPath2151">
      <g
         id="g2155">
        <path
           d="M 2140.1304,7704.8699 H 8048.4406 V 11885.73 H 2140.1304 V 7704.8699"
           id="path2153"
           style="stroke-width:0.325688" />
      </g>
    </clipPath>
    <clipPath
       id="clipPath3138">
      <path
         clip-rule="nonzero"
         d="m 241,10 h 8 v 9.726563 h -8 z m 0,0"
         id="path5438" />
    </clipPath>
    <clipPath
       id="clipPath5291">
      <path
         clip-rule="nonzero"
         d="m 241,10 h 8 v 9.726563 h -8 z m 0,0"
         id="path8301" />
    </clipPath>
    <clipPath
       id="clipPath6367">
      <path
         clip-rule="nonzero"
         d="m 241,6 h 9 v 12.332031 h -9 z m 0,0"
         id="path1412" />
    </clipPath>
    <clipPath
       id="clipPath3777">
      <path
         clip-rule="nonzero"
         d="m 240,7 h 10 v 9.9375 h -10 z m 0,0"
         id="path9218" />
    </clipPath>
    <clipPath
       id="clipPath2274">
      <path
         clip-rule="nonzero"
         d="m 236,7 h 10 v 9.9375 h -10 z m 0,0"
         id="path5473" />
    </clipPath>
    <clipPath
       id="clipPath1887">
      <path
         clip-rule="nonzero"
         d="m 237,10 h 8 v 9.726563 h -8 z m 0,0"
         id="path7167" />
    </clipPath>
    <clipPath
       id="clipPath2346">
      <path
         clip-rule="nonzero"
         d="m 244,11 h 9 v 8.726563 h -9 z m 0,0"
         id="path2520" />
    </clipPath>
    <clipPath
       id="clipPath2625">
      <path
         clip-rule="nonzero"
         d="m 237,10 h 8 v 9.726563 h -8 z m 0,0"
         id="path8711" />
    </clipPath>
    <clipPath
       id="clipPath4517">
      <path
         clip-rule="nonzero"
         d="m 244,11 h 9 v 8.726563 h -9 z m 0,0"
         id="path6551" />
    </clipPath>
    <clipPath
       id="clipPath3516">
      <path
         clip-rule="nonzero"
         d="m 237,10 h 8 v 9.726563 h -8 z m 0,0"
         id="path317" />
    </clipPath>
    <clipPath
       id="clipPath2979">
      <path
         clip-rule="nonzero"
         d="m 244,11 h 9 v 8.726563 h -9 z m 0,0"
         id="path9342" />
    </clipPath>
    <clipPath
       id="clipPath4344">
      <path
         clip-rule="nonzero"
         d="m 237,10 h 8 v 9.726563 h -8 z m 0,0"
         id="path9102" />
    </clipPath>
    <clipPath
       id="clipPath9581">
      <path
         clip-rule="nonzero"
         d="m 244,11 h 9 v 8.726563 h -9 z m 0,0"
         id="path7295" />
    </clipPath>
    <clipPath
       id="clipPath2478">
      <path
         clip-rule="nonzero"
         d="m 237,10 h 8 v 9.726563 h -8 z m 0,0"
         id="path5307" />
    </clipPath>
    <clipPath
       id="clipPath9257">
      <path
         clip-rule="nonzero"
         d="m 244,11 h 9 v 8.726563 h -9 z m 0,0"
         id="path5770" />
    </clipPath>
    <clipPath
       id="clipPath3653">
      <path
         clip-rule="nonzero"
         d="m 237,10 h 8 v 9.726563 h -8 z m 0,0"
         id="path4149" />
    </clipPath>
    <clipPath
       id="clipPath7973">
      <path
         clip-rule="nonzero"
         d="m 244,11 h 9 v 8.726563 h -9 z m 0,0"
         id="path5973" />
    </clipPath>
    <clipPath
       id="clipPath6965">
      <path
         clip-rule="nonzero"
         d="m 242,6 h 7 v 10.9375 h -7 z m 0,0"
         id="path6305" />
    </clipPath>
    <clipPath
       id="clipPath8409">
      <path
         clip-rule="nonzero"
         d="m 242,6 h 7 v 10.9375 h -7 z m 0,0"
         id="path5505" />
    </clipPath>
    <clipPath
       id="clipPath5527">
      <path
         clip-rule="nonzero"
         d="m 242,6 h 7 v 10.9375 h -7 z m 0,0"
         id="path4414" />
    </clipPath>
    <clipPath
       id="clipPath1930">
      <path
         clip-rule="nonzero"
         d="m 247,6 h 4 v 14.523438 h -4 z m 0,0"
         id="path3033" />
    </clipPath>
    <clipPath
       id="clipPath7101">
      <path
         clip-rule="nonzero"
         d="m 259,6 h 5 v 14.523438 h -5 z m 0,0"
         id="path9629" />
    </clipPath>
  </defs>
  <sodipodi:namedview
     id="namedview134"
     pagecolor="#ffffff"
     bordercolor="#000000"
     borderopacity="0.25"
     inkscape:showpageshadow="2"
     inkscape:pageopacity="0.0"
     inkscape:pagecheckerboard="0"
     inkscape:deskcolor="#d1d1d1"
     showgrid="false"
     inkscape:zoom="2.0507777"
     inkscape:cx="157.01361"
     inkscape:cy="116.54115"
     inkscape:window-width="1920"
     inkscape:window-height="1017"
     inkscape:window-x="1912"
     inkscape:window-y="-8"
     inkscape:window-maximized="1"
     inkscape:current-layer="g140">
    <inkscape:page
       x="0"
       y="0"
       id="page138"
       width="262.21432"
       height="227.11984" />
    <inkscape:grid
       type="xygrid"
       id="grid394"
       originx="-260.26035"
       originy="0.52497376" />
  </sodipodi:namedview>
  <g
     id="g140"
     inkscape:groupmode="layer"
     inkscape:label="Page 1"
     transform="matrix(0.16,0,0,-0.16,-692.18053,1773.1616)">
    <path
       d="M 5074.5814,9297.4854 H 7448.5229"
       style="fill:none;stroke:#000000;stroke-width:9.10403;stroke-linecap:round;stroke-linejoin:round;stroke-miterlimit:10;stroke-dasharray:none;stroke-opacity:1;marker-end:url(#Arrow1)"
       id="path186"
       clip-path="url(#clipPath2043)"
       transform="matrix(0.6865092,0,0,0.6865092,845.50651,3473.9006)" />
    <path
       d="M 6261.3893,11078.023 V 8704.0814"
       style="fill:none;stroke:#000000;stroke-width:9.775;stroke-linecap:round;stroke-linejoin:round;stroke-miterlimit:10;stroke-dasharray:none;stroke-opacity:1"
       id="path170"
       clip-path="url(#clipPath2091)"
       transform="matrix(0.6865092,0,0,0.59549821,845.50651,4482.4068)" />
    <path
       d="M 5074.5814,10484.619 H 7448.5229"
       style="fill:none;stroke:#000000;stroke-width:9.10403;stroke-linecap:round;stroke-linejoin:round;stroke-miterlimit:10;stroke-dasharray:none;stroke-opacity:1;marker-end:url(#Arrow1)"
       id="path172"
       clip-path="url(#clipPath2085)"
       transform="matrix(0.6865092,0,0,0.6865092,845.50651,3473.9006)" />
    <path
       d="m 5074.5814,10479.734 13.6789,-3.257 15.9587,-3.908 15.9587,-3.583 15.6331,-3.257 15.9587,-2.931 15.9587,-2.28 15.9588,-1.628 15.9587,-0.977 15.9587,-0.652 15.9587,0.652 15.6331,0.977 15.9587,1.954 15.9587,2.605 15.9587,3.257 15.9587,3.908 15.9588,4.56 15.9587,4.885 15.633,5.211 15.9588,5.211 15.9587,5.211 15.9587,5.211 15.9587,4.886 15.9587,4.559 15.9588,4.234 15.633,3.257 15.9587,2.606 15.9588,1.628 15.9587,0.652 15.9587,-0.326 15.9587,-1.629 15.9587,-2.605 15.6331,-3.583 15.9587,-4.559 15.9587,-5.537 15.9587,-6.514 15.9588,-7.165 15.9587,-7.491 15.9587,-8.142 31.5918,-16.61 15.9587,-7.817 15.9587,-7.49 15.9587,-6.84 15.9588,-5.862 15.9587,-4.886 15.633,-3.256 15.9588,-1.955 15.9587,-0.325 15.9587,1.628 15.9587,3.583 15.9587,5.536 15.9588,7.491 15.633,9.445 15.9587,11.399 15.9588,13.354 15.9587,15.307 15.9587,16.936 15.9587,18.238 15.9587,19.216 15.6331,20.518 15.9587,20.844 15.9587,21.496 15.9587,21.495 15.9588,21.17 15.9587,20.518 15.9587,19.541 15.9587,18.565 15.6331,16.935 15.9587,15.308 15.9587,13.027 15.9587,11.074 15.9588,8.468 15.9587,5.862 15.9587,3.583 15.6331,0.651 15.9587,-2.28 15.9587,-4.559 15.9587,-7.491 15.9587,-9.771 15.9588,-12.376 15.9587,-14.005 15.633,-16.284 15.9587,-17.913 15.9588,-19.216 15.9587,-20.192 15.9587,-20.844 15.9587,-21.17 15.9588,-21.495 15.633,-21.17 15.9587,-20.844 15.9587,-19.867 15.9588,-18.89 15.9587,-17.262 15.9587,-15.958 15.9587,-14.331 15.6331,-12.376 15.9587,-10.422 15.9587,-8.468 15.9587,-6.513 15.9588,-4.56 15.9587,-2.28 15.9587,-0.651 15.633,0.977 15.9588,2.931 15.9587,4.234 15.9587,5.211 15.9587,6.514 15.9588,7.165 15.9587,7.816 15.633,8.143 15.9587,8.142 15.9588,8.142 15.9587,7.816 15.9587,7.491 15.9587,6.84 15.9588,5.862 15.633,5.211 15.9587,3.908 15.9587,3.257 15.9588,1.954 15.9587,0.652 h 15.9587 l 15.9587,-1.303 15.6331,-1.954 15.9587,-2.931 15.9587,-3.909 15.9587,-4.233 15.9588,-4.886 15.9587,-4.885 15.9587,-5.537 15.633,-5.211 15.9588,-5.211 15.9587,-4.885 15.9587,-4.885 15.9587,-3.909 15.9588,-3.582 15.9587,-2.932 15.633,-2.279 15.9587,-1.629 15.9588,-0.651 h 15.9587 l 15.9587,0.651 15.9587,1.303 15.9588,2.28 15.633,2.605 15.9587,2.932 15.9587,3.582 15.9588,3.583 15.9587,3.908 5.211,1.303"
       style="fill:none;stroke:#000000;stroke-width:9.10403;stroke-linecap:round;stroke-linejoin:round;stroke-miterlimit:10;stroke-dasharray:none;stroke-opacity:1"
       id="path174"
       clip-path="url(#clipPath2079)"
       transform="matrix(0.6865092,0,0,0.6865092,845.50651,3473.9006)" />
    <path
       d="m 5074.5814,9890.8893 h 449.1241 l 4.5596,0.3257 h 46.2477 4.5597 18.5642 4.5596 9.445 4.5596 9.1193 4.8853 4.5596 4.5597 4.5596 4.5597 l 4.8853,0.3257 h 4.5596 4.5596 4.5597 4.5596 4.8853 l 4.5597,0.3257 h 4.5596 4.5596 4.5597 4.8853 l 4.5596,0.3257 h 4.5597 4.5596 l 4.5596,0.3257 h 4.8854 l 4.5596,0.3257 h 4.5596 l 4.5597,0.3257 h 4.5596 l 4.8853,0.3256 4.5597,0.3257 h 4.5596 l 4.5596,0.3257 4.5597,0.3257 4.8853,0.3257 4.5596,0.3257 4.5597,0.3257 4.5596,0.3257 4.5596,0.3256 4.8854,0.3257 4.5596,0.6514 4.5596,0.3257 4.5597,0.6514 4.5596,0.3257 4.8853,0.6513 4.5597,0.6514 4.5596,0.6514 4.5596,0.6514 4.5597,0.977 4.8853,0.6514 4.5596,0.9771 4.5597,0.6514 4.5596,0.977 4.5596,0.9771 4.8854,1.3027 4.5596,0.9771 4.5596,1.3028 4.5597,1.3027 4.5596,1.3028 4.8853,1.3027 4.5597,1.6285 4.5596,1.3027 4.5596,1.6284 4.5597,1.6285 4.5596,1.9541 4.8853,1.9541 4.5597,1.9542 4.5596,1.9541 4.5596,1.9541 4.5597,2.2799 4.8853,2.2798 4.5596,2.6055 4.5597,2.2798 4.5596,2.6055 4.5596,2.9312 4.8854,2.6055 4.5596,2.9312 4.5596,2.9312 4.5597,3.2569 4.5596,3.2569 4.8853,3.2568 4.5596,3.5826 4.5597,3.2569 4.5596,3.5826 4.5597,3.9082 4.8853,3.9083 4.5596,3.9082 4.5596,3.9083 4.5597,3.9083 4.5596,4.2339 4.8853,4.2343 4.5597,4.559 4.5596,4.234 4.5596,4.56 4.5597,4.559 4.8853,4.886 4.5596,4.559 4.5597,4.886 4.5596,4.885 4.5596,4.885 4.8854,4.886 4.5596,4.885 4.5596,4.885 4.5597,4.886 4.5596,5.211 4.8853,4.885 4.5597,5.211 4.5596,4.885 4.5596,4.886 4.5597,4.885 4.8853,4.885 4.5596,4.886 4.5597,4.885 4.5596,4.885 4.5596,4.56 4.8854,4.56 4.5596,4.559 4.5596,4.56 4.5597,4.234 4.5596,4.234 4.8853,3.908 4.5597,3.908 4.5596,3.909 4.5596,3.582 4.5597,3.583 4.8853,3.257 4.5596,3.256 4.5597,2.932 4.5596,2.931 4.5596,2.605 4.8854,2.28 4.5596,2.28 4.5596,1.954 4.5597,1.954 4.5596,1.629 4.5596,1.302 4.8854,0.977 4.5596,0.978 4.5596,0.651 4.5597,0.651 h 4.5596 l 4.8853,0.326 v -0.326 h 4.5597 l 4.5596,-0.651 4.5596,-0.651 4.5597,-0.652 4.8853,-1.303 4.5596,-1.302 4.5597,-1.629 4.5596,-1.628 4.5596,-1.954 4.8854,-2.28 4.5596,-2.28 4.5596,-2.605 4.5597,-2.932 4.5596,-2.931 4.8853,-3.257 4.5597,-3.257 4.5596,-3.582 4.5596,-3.583 4.5597,-3.582 4.8853,-4.234 4.5596,-3.909 4.5596,-4.233 4.5597,-4.234 4.5596,-4.56 4.8853,-4.234 4.5597,-4.56 4.5596,-4.885 4.5596,-4.56 4.5597,-4.885 4.8853,-4.885 4.5596,-4.886 4.5597,-4.885 4.5596,-5.211 4.5596,-4.885 4.8854,-4.886 4.5596,-5.211 4.5596,-4.885 4.5597,-4.885 4.5596,-5.211 4.8853,-4.886 4.5597,-4.885 4.5596,-4.885 4.5596,-4.886 4.5597,-4.559 4.8853,-4.885 4.5596,-4.56 4.5597,-4.56 4.5596,-4.559 4.5596,-4.56 4.8854,-4.234 4.5596,-4.2339 4.5596,-4.234 4.5597,-4.2339 4.5596,-3.9083 4.8853,-3.9082 4.5597,-3.9083 4.5596,-3.5826 4.5596,-3.9082 4.5597,-3.2569 4.8853,-3.5826 4.5596,-3.2569 4.5597,-3.2568 4.5596,-3.2569 4.5596,-2.9312 4.8854,-2.9312 4.5596,-2.6055 4.5596,-2.9312 4.5597,-2.6055 4.5596,-2.6055 4.8853,-2.2798 4.5597,-2.2799 4.5596,-2.2798 4.5596,-2.2798 4.5597,-1.9541 4.5596,-1.9542 4.8853,-1.9541 4.5597,-1.6284 4.5596,-1.6285 4.5596,-1.6284 4.5597,-1.6284 4.8853,-1.6285 4.5596,-1.3027 4.5597,-1.3028 4.5596,-1.3027 4.5596,-0.9771 4.8854,-1.3028 4.5596,-0.977 4.5596,-0.9771 4.5597,-0.9771 4.5596,-0.977 9.445,-1.6285 4.5596,-0.6513 4.5596,-0.9771 4.5597,-0.6514 4.8853,-0.6514 4.5596,-0.3256 4.5596,-0.6514 4.5597,-0.6514 4.5596,-0.3257 4.8853,-0.6514 4.5597,-0.3257 4.5596,-0.3256 4.5596,-0.3257 4.5597,-0.3257 4.8853,-0.3257 4.5596,-0.3257 9.1193,-0.6514 h 4.5596 l 4.8854,-0.3257 4.5596,-0.3256 h 4.5596 l 4.5597,-0.3257 h 4.5596 l 4.8853,-0.3257 h 4.5597 l 4.5596,-0.3257 h 4.5596 4.5597 l 4.8853,-0.3257 h 4.5596 4.5597 4.5596 4.5596 l 4.8854,-0.3257 h 4.5596 4.5596 4.5597 4.5596 4.8853 l 4.5597,-0.3257 h 4.5596 4.5596 4.5597 4.8853 4.5596 9.1193 4.5596 9.445 4.5596 18.5643 4.5596 46.2477 l 4.5597,-0.3257 h 449.7754"
       style="fill:none;stroke:#000000;stroke-width:9.10403;stroke-linecap:round;stroke-linejoin:round;stroke-miterlimit:10;stroke-dasharray:none;stroke-opacity:1"
       id="path176"
       clip-path="url(#clipPath2073)"
       transform="matrix(0.6865092,0,0,0.6865092,845.50651,3473.9006)" />
    <path
       d="M 5074.5814,9297.4854 H 6110.5957"
       style="fill:none;stroke:#000000;stroke-width:9.10403;stroke-linecap:round;stroke-linejoin:round;stroke-miterlimit:10;stroke-dasharray:none;stroke-opacity:1"
       id="path178"
       clip-path="url(#clipPath2067)"
       transform="matrix(0.6865092,0,0,0.6865092,845.50651,3473.9006)" />
    <path
       d="m 6110.9213,9594.1874 h 300.936"
       style="fill:none;stroke:#000000;stroke-width:9.10403;stroke-linecap:round;stroke-linejoin:round;stroke-miterlimit:10;stroke-dasharray:none;stroke-opacity:1"
       id="path180"
       clip-path="url(#clipPath2061)"
       transform="matrix(0.6865092,0,0,0.6865092,845.50651,3473.9006)" />
    <path
       d="M 6412.5086,9297.4854 H 7448.5229"
       style="fill:none;stroke:#000000;stroke-width:9.10403;stroke-linecap:round;stroke-linejoin:round;stroke-miterlimit:10;stroke-dasharray:none;stroke-opacity:1"
       id="path182"
       clip-path="url(#clipPath2055)"
       transform="matrix(0.6865092,0,0,0.6865092,845.50651,3473.9006)" />
    <path
       d="M 5074.5814,9890.8893 H 7448.5229"
       style="fill:none;stroke:#000000;stroke-width:9.10403;stroke-linecap:round;stroke-linejoin:round;stroke-miterlimit:10;stroke-dasharray:none;stroke-opacity:1;marker-end:url(#Arrow1)"
       id="path184"
       clip-path="url(#clipPath2049)"
       transform="matrix(0.6865092,0,0,0.6865092,845.50651,3473.9006)" />
    <path
       d="m 6110.5957,9297.4854 v 296.702"
       style="fill:none;stroke:#000000;stroke-width:9.10403;stroke-linecap:round;stroke-linejoin:round;stroke-miterlimit:10;stroke-dasharray:none;stroke-opacity:1"
       id="path188"
       clip-path="url(#clipPath2037)"
       transform="matrix(0.6865092,0,0,0.6865092,845.50651,3473.9006)" />
    <path
       d="m 6412.183,9297.4854 v 296.702"
       style="fill:none;stroke:#000000;stroke-width:9.10403;stroke-linecap:round;stroke-linejoin:round;stroke-miterlimit:10;stroke-dasharray:none;stroke-opacity:1"
       id="path190"
       clip-path="url(#clipPath2031)"
       transform="matrix(0.6865092,0,0,0.6865092,845.50651,3473.9006)" />
    <g
       inkscape:label=""
       transform="matrix(6.2499853,0,0,-6.2499853,5250.9126,9828.8423)"
       id="g1204"
       style="stroke-width:19.1901;stroke-dasharray:none">
      <g
         fill="#000000"
         fill-opacity="1"
         id="g19"
         transform="matrix(1.33333,0,0,1.33333,-319.783,-9.3105)">
        <g
           id="use17"
           transform="translate(239.056,16.936001)">
          <path
             d="m 4.03125,-9.59375 c 0.015625,-0.0625 0.046875,-0.140625 0.046875,-0.21875 0,-0.140625 -0.140625,-0.140625 -0.171875,-0.140625 -0.015625,0 -0.53125,0.046875 -0.796875,0.0625 C 2.875,-9.875 2.65625,-9.84375 2.390625,-9.828125 c -0.34375,0.03125 -0.4375,0.046875 -0.4375,0.296875 0,0.15625 0.140625,0.15625 0.28125,0.15625 0.734375,0 0.734375,0.125 0.734375,0.265625 0,0.0625 0,0.09375 -0.078125,0.34375 L 0.84375,-0.5625 c -0.0625,0.21875 -0.0625,0.25 -0.0625,0.328125 0,0.328125 0.25,0.375 0.390625,0.375 0.40625,0 0.484375,-0.3125 0.609375,-0.75 l 0.671875,-2.6875 c 1.03125,0.109375 1.65625,0.546875 1.65625,1.234375 0,0.078125 0,0.140625 -0.046875,0.359375 C 4,-1.484375 4,-1.3125 4,-1.25 c 0,0.828125 0.546875,1.390625 1.28125,1.390625 0.65625,0 1,-0.59375 1.109375,-0.796875 0.3125,-0.53125 0.5,-1.34375 0.5,-1.390625 0,-0.078125 -0.0625,-0.140625 -0.15625,-0.140625 -0.125,0 -0.140625,0.0625 -0.1875,0.296875 -0.203125,0.75 -0.515625,1.75 -1.234375,1.75 -0.296875,0 -0.484375,-0.140625 -0.484375,-0.6875 0,-0.28125 0.0625,-0.59375 0.125,-0.8125 C 5,-1.890625 5,-1.90625 5,-2.078125 c 0,-0.84375 -0.75,-1.328125 -2.078125,-1.5 0.515625,-0.3125 1.03125,-0.875 1.234375,-1.078125 0.828125,-0.921875 1.375,-1.375 2.046875,-1.375 0.328125,0 0.40625,0.078125 0.515625,0.171875 C 6.1875,-5.8125 5.984375,-5.4375 5.984375,-5.15625 c 0,0.34375 0.265625,0.46875 0.46875,0.46875 0.390625,0 0.734375,-0.328125 0.734375,-0.796875 0,-0.40625 -0.328125,-0.84375 -0.984375,-0.84375 -0.78125,0 -1.421875,0.5625 -2.4375,1.703125 -0.15625,0.171875 -0.6875,0.71875 -1.21875,0.921875 z m 0,0"
             id="path31" />
        </g>
      </g>
      <g
         clip-path="url(#clipPath7842)"
         id="g25"
         transform="matrix(1.33333,0,0,1.33333,-319.783,-9.3105)">
        <g
           fill="#000000"
           fill-opacity="1"
           id="g23">
          <g
             id="use21"
             transform="translate(246.362,19.087999)">
            <path
               d="m 3.953125,-3.78125 c -0.171875,0 -0.296875,0 -0.4375,0.125 -0.171875,0.15625 -0.1875,0.328125 -0.1875,0.390625 0,0.25 0.1875,0.359375 0.375,0.359375 0.28125,0 0.546875,-0.25 0.546875,-0.640625 0,-0.484375 -0.46875,-0.859375 -1.171875,-0.859375 -1.34375,0 -2.671875,1.421875 -2.671875,2.828125 0,0.90625 0.578125,1.6875 1.625,1.6875 1.421875,0 2.25,-1.0625 2.25,-1.171875 0,-0.0625 -0.046875,-0.140625 -0.109375,-0.140625 -0.0625,0 -0.078125,0.03125 -0.140625,0.109375 -0.78125,0.984375 -1.875,0.984375 -1.984375,0.984375 -0.625,0 -0.90625,-0.484375 -0.90625,-1.09375 0,-0.40625 0.203125,-1.375 0.546875,-1.984375 0.3125,-0.578125 0.859375,-1 1.40625,-1 0.328125,0 0.71875,0.125 0.859375,0.40625 z m 0,0"
               id="path35" />
          </g>
        </g>
      </g>
    </g>
    <g
       inkscape:label=""
       transform="matrix(6.2499853,0,0,-6.2499853,4905.345,9843.9821)"
       id="g1377"
       style="stroke-width:19.1901;stroke-dasharray:none">
      <g
         fill="#000000"
         fill-opacity="1"
         id="g1368"
         transform="matrix(1.33333,0,0,1.33333,-312.886,-9.3105)">
        <g
           id="g1366"
           transform="translate(233.47701,16.936001)">
          <path
             d="m 9.453125,-3.296875 c 0.25,0 0.5,0 0.5,-0.28125 0,-0.296875 -0.25,-0.296875 -0.5,-0.296875 H 1.6875 c -0.234375,0 -0.5,0 -0.5,0.296875 0,0.28125 0.265625,0.28125 0.5,0.28125 z m 0,0"
             id="path39" />
        </g>
      </g>
      <g
         fill="#000000"
         fill-opacity="1"
         id="g27"
         transform="matrix(1.33333,0,0,1.33333,-312.886,-9.3105)">
        <g
           id="use25"
           transform="translate(244.63499,16.936001)">
          <path
             d="m 4.03125,-9.59375 c 0.015625,-0.0625 0.046875,-0.140625 0.046875,-0.21875 0,-0.140625 -0.140625,-0.140625 -0.171875,-0.140625 -0.015625,0 -0.53125,0.046875 -0.796875,0.0625 C 2.875,-9.875 2.65625,-9.84375 2.390625,-9.828125 c -0.34375,0.03125 -0.4375,0.046875 -0.4375,0.296875 0,0.15625 0.140625,0.15625 0.28125,0.15625 0.734375,0 0.734375,0.125 0.734375,0.265625 0,0.0625 0,0.09375 -0.078125,0.34375 L 0.84375,-0.5625 c -0.0625,0.21875 -0.0625,0.25 -0.0625,0.328125 0,0.328125 0.25,0.375 0.390625,0.375 0.40625,0 0.484375,-0.3125 0.609375,-0.75 l 0.671875,-2.6875 c 1.03125,0.109375 1.65625,0.546875 1.65625,1.234375 0,0.078125 0,0.140625 -0.046875,0.359375 C 4,-1.484375 4,-1.3125 4,-1.25 c 0,0.828125 0.546875,1.390625 1.28125,1.390625 0.65625,0 1,-0.59375 1.109375,-0.796875 0.3125,-0.53125 0.5,-1.34375 0.5,-1.390625 0,-0.078125 -0.0625,-0.140625 -0.15625,-0.140625 -0.125,0 -0.140625,0.0625 -0.1875,0.296875 -0.203125,0.75 -0.515625,1.75 -1.234375,1.75 -0.296875,0 -0.484375,-0.140625 -0.484375,-0.6875 0,-0.28125 0.0625,-0.59375 0.125,-0.8125 C 5,-1.890625 5,-1.90625 5,-2.078125 c 0,-0.84375 -0.75,-1.328125 -2.078125,-1.5 0.515625,-0.3125 1.03125,-0.875 1.234375,-1.078125 0.828125,-0.921875 1.375,-1.375 2.046875,-1.375 0.328125,0 0.40625,0.078125 0.515625,0.171875 C 6.1875,-5.8125 5.984375,-5.4375 5.984375,-5.15625 c 0,0.34375 0.265625,0.46875 0.46875,0.46875 0.390625,0 0.734375,-0.328125 0.734375,-0.796875 0,-0.40625 -0.328125,-0.84375 -0.984375,-0.84375 -0.78125,0 -1.421875,0.5625 -2.4375,1.703125 -0.15625,0.171875 -0.6875,0.71875 -1.21875,0.921875 z m 0,0"
             id="path43" />
        </g>
      </g>
      <g
         clip-path="url(#clipPath740)"
         id="g33"
         transform="matrix(1.33333,0,0,1.33333,-312.886,-9.3105)">
        <g
           fill="#000000"
           fill-opacity="1"
           id="g31">
          <g
             id="use29"
             transform="translate(251.94099,19.087999)">
            <path
               d="m 3.953125,-3.78125 c -0.171875,0 -0.296875,0 -0.4375,0.125 -0.171875,0.15625 -0.1875,0.328125 -0.1875,0.390625 0,0.25 0.1875,0.359375 0.375,0.359375 0.28125,0 0.546875,-0.25 0.546875,-0.640625 0,-0.484375 -0.46875,-0.859375 -1.171875,-0.859375 -1.34375,0 -2.671875,1.421875 -2.671875,2.828125 0,0.90625 0.578125,1.6875 1.625,1.6875 1.421875,0 2.25,-1.0625 2.25,-1.171875 0,-0.0625 -0.046875,-0.140625 -0.109375,-0.140625 -0.0625,0 -0.078125,0.03125 -0.140625,0.109375 -0.78125,0.984375 -1.875,0.984375 -1.984375,0.984375 -0.625,0 -0.90625,-0.484375 -0.90625,-1.09375 0,-0.40625 0.203125,-1.375 0.546875,-1.984375 0.3125,-0.578125 0.859375,-1 1.40625,-1 0.328125,0 0.71875,0.125 0.859375,0.40625 z m 0,0"
               id="path47" />
          </g>
        </g>
      </g>
    </g>
    <g
       inkscape:label=""
       transform="matrix(6.25,0,0,-6.25,5887.2548,9828.2627)"
       id="g6671">
      <g
         clip-path="url(#clipPath6965)"
         id="g17"
         transform="matrix(1.33333,0,0,1.33333,-322.668,-9.3105)">
        <g
           fill="#000000"
           fill-opacity="1"
           id="g15">
          <g
             id="use13"
             transform="translate(241.22,16.936001)">
            <path
               d="m 4.03125,-9.59375 c 0.015625,-0.0625 0.046875,-0.140625 0.046875,-0.21875 0,-0.140625 -0.140625,-0.140625 -0.171875,-0.140625 -0.015625,0 -0.53125,0.046875 -0.796875,0.0625 C 2.875,-9.875 2.65625,-9.84375 2.390625,-9.828125 c -0.34375,0.03125 -0.4375,0.046875 -0.4375,0.296875 0,0.15625 0.140625,0.15625 0.28125,0.15625 0.734375,0 0.734375,0.125 0.734375,0.265625 0,0.0625 0,0.09375 -0.078125,0.34375 L 0.84375,-0.5625 c -0.0625,0.21875 -0.0625,0.25 -0.0625,0.328125 0,0.328125 0.25,0.375 0.390625,0.375 0.40625,0 0.484375,-0.3125 0.609375,-0.75 l 0.671875,-2.6875 c 1.03125,0.109375 1.65625,0.546875 1.65625,1.234375 0,0.078125 0,0.140625 -0.046875,0.359375 C 4,-1.484375 4,-1.3125 4,-1.25 c 0,0.828125 0.546875,1.390625 1.28125,1.390625 0.65625,0 1,-0.59375 1.109375,-0.796875 0.3125,-0.53125 0.5,-1.34375 0.5,-1.390625 0,-0.078125 -0.0625,-0.140625 -0.15625,-0.140625 -0.125,0 -0.140625,0.0625 -0.1875,0.296875 -0.203125,0.75 -0.515625,1.75 -1.234375,1.75 -0.296875,0 -0.484375,-0.140625 -0.484375,-0.6875 0,-0.28125 0.0625,-0.59375 0.125,-0.8125 C 5,-1.890625 5,-1.90625 5,-2.078125 c 0,-0.84375 -0.75,-1.328125 -2.078125,-1.5 0.515625,-0.3125 1.03125,-0.875 1.234375,-1.078125 0.828125,-0.921875 1.375,-1.375 2.046875,-1.375 0.328125,0 0.40625,0.078125 0.515625,0.171875 C 6.1875,-5.8125 5.984375,-5.4375 5.984375,-5.15625 c 0,0.34375 0.265625,0.46875 0.46875,0.46875 0.390625,0 0.734375,-0.328125 0.734375,-0.796875 0,-0.40625 -0.328125,-0.84375 -0.984375,-0.84375 -0.78125,0 -1.421875,0.5625 -2.4375,1.703125 -0.15625,0.171875 -0.6875,0.71875 -1.21875,0.921875 z m 0,0"
               id="path23" />
          </g>
        </g>
      </g>
    </g>
    <g
       inkscape:label=""
       transform="matrix(6.25,0,0,-6.25,5887.2548,10242.535)"
       id="g7289">
      <g
         clip-path="url(#clipPath8409)"
         id="g7287"
         transform="matrix(1.33333,0,0,1.33333,-322.668,-9.3105)">
        <g
           fill="#000000"
           fill-opacity="1"
           id="g7285">
          <g
             id="g7283"
             transform="translate(241.22,16.936001)">
            <path
               d="m 4.03125,-9.59375 c 0.015625,-0.0625 0.046875,-0.140625 0.046875,-0.21875 0,-0.140625 -0.140625,-0.140625 -0.171875,-0.140625 -0.015625,0 -0.53125,0.046875 -0.796875,0.0625 C 2.875,-9.875 2.65625,-9.84375 2.390625,-9.828125 c -0.34375,0.03125 -0.4375,0.046875 -0.4375,0.296875 0,0.15625 0.140625,0.15625 0.28125,0.15625 0.734375,0 0.734375,0.125 0.734375,0.265625 0,0.0625 0,0.09375 -0.078125,0.34375 L 0.84375,-0.5625 c -0.0625,0.21875 -0.0625,0.25 -0.0625,0.328125 0,0.328125 0.25,0.375 0.390625,0.375 0.40625,0 0.484375,-0.3125 0.609375,-0.75 l 0.671875,-2.6875 c 1.03125,0.109375 1.65625,0.546875 1.65625,1.234375 0,0.078125 0,0.140625 -0.046875,0.359375 C 4,-1.484375 4,-1.3125 4,-1.25 c 0,0.828125 0.546875,1.390625 1.28125,1.390625 0.65625,0 1,-0.59375 1.109375,-0.796875 0.3125,-0.53125 0.5,-1.34375 0.5,-1.390625 0,-0.078125 -0.0625,-0.140625 -0.15625,-0.140625 -0.125,0 -0.140625,0.0625 -0.1875,0.296875 -0.203125,0.75 -0.515625,1.75 -1.234375,1.75 -0.296875,0 -0.484375,-0.140625 -0.484375,-0.6875 0,-0.28125 0.0625,-0.59375 0.125,-0.8125 C 5,-1.890625 5,-1.90625 5,-2.078125 c 0,-0.84375 -0.75,-1.328125 -2.078125,-1.5 0.515625,-0.3125 1.03125,-0.875 1.234375,-1.078125 0.828125,-0.921875 1.375,-1.375 2.046875,-1.375 0.328125,0 0.40625,0.078125 0.515625,0.171875 C 6.1875,-5.8125 5.984375,-5.4375 5.984375,-5.15625 c 0,0.34375 0.265625,0.46875 0.46875,0.46875 0.390625,0 0.734375,-0.328125 0.734375,-0.796875 0,-0.40625 -0.328125,-0.84375 -0.984375,-0.84375 -0.78125,0 -1.421875,0.5625 -2.4375,1.703125 -0.15625,0.171875 -0.6875,0.71875 -1.21875,0.921875 z m 0,0"
               id="path7281" />
          </g>
        </g>
      </g>
    </g>
    <g
       inkscape:label=""
       transform="matrix(6.25,0,0,-6.25,5887.2548,10631.888)"
       id="g7808">
      <g
         clip-path="url(#clipPath5527)"
         id="g7806"
         transform="matrix(1.33333,0,0,1.33333,-322.668,-9.3105)">
        <g
           fill="#000000"
           fill-opacity="1"
           id="g7804">
          <g
             id="g7802"
             transform="translate(241.22,16.936001)">
            <path
               d="m 4.03125,-9.59375 c 0.015625,-0.0625 0.046875,-0.140625 0.046875,-0.21875 0,-0.140625 -0.140625,-0.140625 -0.171875,-0.140625 -0.015625,0 -0.53125,0.046875 -0.796875,0.0625 C 2.875,-9.875 2.65625,-9.84375 2.390625,-9.828125 c -0.34375,0.03125 -0.4375,0.046875 -0.4375,0.296875 0,0.15625 0.140625,0.15625 0.28125,0.15625 0.734375,0 0.734375,0.125 0.734375,0.265625 0,0.0625 0,0.09375 -0.078125,0.34375 L 0.84375,-0.5625 c -0.0625,0.21875 -0.0625,0.25 -0.0625,0.328125 0,0.328125 0.25,0.375 0.390625,0.375 0.40625,0 0.484375,-0.3125 0.609375,-0.75 l 0.671875,-2.6875 c 1.03125,0.109375 1.65625,0.546875 1.65625,1.234375 0,0.078125 0,0.140625 -0.046875,0.359375 C 4,-1.484375 4,-1.3125 4,-1.25 c 0,0.828125 0.546875,1.390625 1.28125,1.390625 0.65625,0 1,-0.59375 1.109375,-0.796875 0.3125,-0.53125 0.5,-1.34375 0.5,-1.390625 0,-0.078125 -0.0625,-0.140625 -0.15625,-0.140625 -0.125,0 -0.140625,0.0625 -0.1875,0.296875 -0.203125,0.75 -0.515625,1.75 -1.234375,1.75 -0.296875,0 -0.484375,-0.140625 -0.484375,-0.6875 0,-0.28125 0.0625,-0.59375 0.125,-0.8125 C 5,-1.890625 5,-1.90625 5,-2.078125 c 0,-0.84375 -0.75,-1.328125 -2.078125,-1.5 0.515625,-0.3125 1.03125,-0.875 1.234375,-1.078125 0.828125,-0.921875 1.375,-1.375 2.046875,-1.375 0.328125,0 0.40625,0.078125 0.515625,0.171875 C 6.1875,-5.8125 5.984375,-5.4375 5.984375,-5.15625 c 0,0.34375 0.265625,0.46875 0.46875,0.46875 0.390625,0 0.734375,-0.328125 0.734375,-0.796875 0,-0.40625 -0.328125,-0.84375 -0.984375,-0.84375 -0.78125,0 -1.421875,0.5625 -2.4375,1.703125 -0.15625,0.171875 -0.6875,0.71875 -1.21875,0.921875 z m 0,0"
               id="path7800" />
          </g>
        </g>
      </g>
    </g>
    <g
       inkscape:label=""
       transform="matrix(6.25,0,0,-6.25,4326.1349,11082.25)"
       id="g6004">
      <g
         fill="#000000"
         fill-opacity="1"
         id="g5988"
         transform="matrix(1.33333,0,0,1.33333,-302.336,-5.59382)">
        <g
           id="use31"
           transform="translate(225.799,16.936001)">
          <path
             d="m 9.640625,-8.6875 -0.0625,-0.328125 c -0.21875,0.203125 -0.4375,0.3125 -0.640625,0.3125 -0.625,0 -1.15625,-0.640625 -1.453125,-1.21875 l -0.96875,0.90625 c 0.125,0.578125 0.796875,1.109375 1.46875,1.34375 -0.40625,0.40625 -1.0625,0.921875 -1.53125,1.234375 L 5.71875,-6.046875 c -0.140625,-0.59375 -0.375,-1.59375 -0.375,-1.96875 0,-0.53125 0.375,-0.96875 0.765625,-1.296875 L 5.96875,-9.46875 4.359375,-8.390625 3.90625,-8.625 c -0.859375,0.421875 -1.609375,0.90625 -2.328125,1.421875 -0.40625,0.84375 -0.625,1.6875 -0.625,2.625 0,1.359375 0.21875,2.734375 1.203125,3.71875 0.734375,0.75 2.078125,1.21875 3.3125,1.21875 0.453125,0 0.734375,-0.09375 1.1875,-0.25 L 8.859375,-1.375 c 0.8125,-0.796875 1.34375,-1.84375 1.34375,-2.96875 0,-0.640625 -0.328125,-1.265625 -0.8125,-1.65625 -0.234375,-0.203125 -0.8125,-0.53125 -1.625,-0.53125 -0.21875,0 -0.421875,0.015625 -0.65625,0.046875 z M 3.375,-3.0625 c 0.6875,-0.109375 1.34375,-0.328125 1.859375,-0.828125 0.453125,-0.453125 0.53125,-1.15625 0.53125,-1.796875 0.25,-0.046875 0.484375,-0.078125 0.71875,-0.078125 1.15625,0 2.46875,0.875 2.46875,2.109375 0,0.84375 -0.25,1.84375 -1,2.46875 -0.640625,0.53125 -1.265625,0.625 -2,0.625 C 4.90625,-0.5625 4.03125,-1.09375 3.28125,-1.84375 2.390625,-2.71875 2.09375,-4 2.09375,-5.265625 2.09375,-6.5 2.59375,-8 4.078125,-8.09375 4.046875,-7.9375 4.03125,-7.78125 4.03125,-7.640625 c 0,0.84375 0.421875,1.671875 0.421875,2.65625 0,0.859375 -0.578125,1.53125 -1.3125,1.703125 z m 0,0"
             id="path59" />
        </g>
      </g>
      <g
         fill="#000000"
         fill-opacity="1"
         id="g37"
         transform="matrix(1.33333,0,0,1.33333,-302.336,-5.59382)">
        <g
           id="use35"
           transform="translate(237.067,11.013)">
          <path
             d="m 8.28125,-6.4375 c 0,-0.453125 -0.78125,-0.375 -1.078125,-0.375 H 3.4375 c -0.5,0 -1.390625,0.28125 -1.546875,0.828125 C 1.90625,-5.9375 1.9375,-5.921875 2,-5.921875 c 0.21875,0 0.515625,-0.171875 0.65625,-0.328125 0.296875,0 0.609375,-0.015625 0.90625,-0.015625 h 0.625 c 0,0 -0.046875,0.171875 -0.046875,0.1875 -0.375,1.828125 -0.96875,3.359375 -1.40625,4.34375 -0.0625,0.125 -0.59375,1.375 -0.734375,1.5 -0.4375,0 -0.78125,-0.25 -0.953125,-0.640625 -0.03125,-0.046875 -0.03125,-0.09375 -0.09375,-0.09375 -0.234375,0 -0.78125,0.328125 -0.78125,0.484375 0,0.03125 0,0.046875 0.015625,0.0625 0.1875,0.46875 0.625,0.734375 1.125,0.734375 0.5,0 1.09375,-0.359375 1.40625,-0.734375 0.328125,-0.375 0.984375,-2.015625 1.25,-2.609375 H 5.890625 C 5.875,-3.015625 5.875,-3.015625 5.875,-3 c 0,0.046875 0.0625,0.0625 0.09375,0.0625 0.21875,0 0.796875,-0.265625 0.796875,-0.578125 0,-0.078125 -0.078125,-0.0625 -0.203125,-0.0625 H 4.171875 c 0.265625,-0.890625 0.609375,-1.78125 0.78125,-2.6875 h 1.3125 c 0.25,0 0.953125,-0.046875 1.125,0.171875 0.03125,0.046875 0,0.15625 0.03125,0.203125 C 7.4375,-5.875 7.46875,-5.859375 7.5,-5.859375 c 0.234375,0 0.78125,-0.296875 0.78125,-0.578125 z m 0,0"
             id="path63" />
        </g>
      </g>
      <g
         clip-path="url(#clipPath1930)"
         id="g43"
         transform="matrix(1.33333,0,0,1.33333,-302.336,-5.59382)">
        <g
           fill="#000000"
           fill-opacity="1"
           id="g41">
          <g
             id="use39"
             transform="translate(245.715,16.936001)">
            <path
               d="m 4.65625,3.484375 c 0,-0.046875 0,-0.078125 -0.234375,-0.3125 -1.4375,-1.453125 -2.234375,-3.8125 -2.234375,-6.75 0,-2.78125 0.671875,-5.171875 2.328125,-6.859375 0.140625,-0.140625 0.140625,-0.15625 0.140625,-0.203125 0,-0.09375 -0.0625,-0.109375 -0.125,-0.109375 -0.1875,0 -1.359375,1.03125 -2.0625,2.4375 -0.734375,1.4375 -1.0625,2.984375 -1.0625,4.734375 0,1.28125 0.203125,2.984375 0.953125,4.53125 0.84375,1.71875 2.015625,2.640625 2.171875,2.640625 0.0625,0 0.125,-0.015625 0.125,-0.109375 z m 0,0"
               id="path67" />
          </g>
        </g>
      </g>
      <g
         fill="#000000"
         fill-opacity="1"
         id="g47"
         transform="matrix(1.33333,0,0,1.33333,-302.336,-5.59382)">
        <g
           id="use45"
           transform="translate(251.17799,16.936001)">
          <path
             d="m 4.03125,-9.59375 c 0.015625,-0.0625 0.046875,-0.140625 0.046875,-0.21875 0,-0.140625 -0.140625,-0.140625 -0.171875,-0.140625 -0.015625,0 -0.53125,0.046875 -0.796875,0.0625 C 2.875,-9.875 2.65625,-9.84375 2.390625,-9.828125 c -0.34375,0.03125 -0.4375,0.046875 -0.4375,0.296875 0,0.15625 0.140625,0.15625 0.28125,0.15625 0.734375,0 0.734375,0.125 0.734375,0.265625 0,0.0625 0,0.09375 -0.078125,0.34375 L 0.84375,-0.5625 c -0.0625,0.21875 -0.0625,0.25 -0.0625,0.328125 0,0.328125 0.25,0.375 0.390625,0.375 0.40625,0 0.484375,-0.3125 0.609375,-0.75 l 0.671875,-2.6875 c 1.03125,0.109375 1.65625,0.546875 1.65625,1.234375 0,0.078125 0,0.140625 -0.046875,0.359375 C 4,-1.484375 4,-1.3125 4,-1.25 c 0,0.828125 0.546875,1.390625 1.28125,1.390625 0.65625,0 1,-0.59375 1.109375,-0.796875 0.3125,-0.53125 0.5,-1.34375 0.5,-1.390625 0,-0.078125 -0.0625,-0.140625 -0.15625,-0.140625 -0.125,0 -0.140625,0.0625 -0.1875,0.296875 -0.203125,0.75 -0.515625,1.75 -1.234375,1.75 -0.296875,0 -0.484375,-0.140625 -0.484375,-0.6875 0,-0.28125 0.0625,-0.59375 0.125,-0.8125 C 5,-1.890625 5,-1.90625 5,-2.078125 c 0,-0.84375 -0.75,-1.328125 -2.078125,-1.5 0.515625,-0.3125 1.03125,-0.875 1.234375,-1.078125 0.828125,-0.921875 1.375,-1.375 2.046875,-1.375 0.328125,0 0.40625,0.078125 0.515625,0.171875 C 6.1875,-5.8125 5.984375,-5.4375 5.984375,-5.15625 c 0,0.34375 0.265625,0.46875 0.46875,0.46875 0.390625,0 0.734375,-0.328125 0.734375,-0.796875 0,-0.40625 -0.328125,-0.84375 -0.984375,-0.84375 -0.78125,0 -1.421875,0.5625 -2.4375,1.703125 -0.15625,0.171875 -0.6875,0.71875 -1.21875,0.921875 z m 0,0"
             id="path71" />
        </g>
      </g>
      <g
         clip-path="url(#clipPath7101)"
         id="g53"
         transform="matrix(1.33333,0,0,1.33333,-302.336,-5.59382)">
        <g
           fill="#000000"
           fill-opacity="1"
           id="g51">
          <g
             id="use49"
             transform="translate(258.965,16.936001)">
            <path
               d="M 4.046875,-3.578125 C 4.046875,-4.65625 3.90625,-6.4375 3.09375,-8.109375 2.25,-9.828125 1.078125,-10.75 0.921875,-10.75 c -0.0625,0 -0.140625,0.01563 -0.140625,0.109375 0,0.04687 0,0.0625 0.25,0.3125 1.4375,1.453125 2.234375,3.8125 2.234375,6.75 0,2.78125 -0.671875,5.171875 -2.328125,6.859375 -0.15625,0.125 -0.15625,0.15625 -0.15625,0.203125 0,0.09375 0.078125,0.109375 0.140625,0.109375 0.1875,0 1.359375,-1.03125 2.0625,-2.4375 0.734375,-1.453125 1.0625,-3 1.0625,-4.734375 z m 0,0"
               id="path75" />
          </g>
        </g>
      </g>
    </g>
  </g>
</svg>
