<?xml version="1.0" encoding="UTF-8" standalone="no"?>
<!-- Created with Inkscape (http://www.inkscape.org/) -->

<svg
   width="69.36351mm"
   height="66.654091mm"
   viewBox="0 0 69.36351 66.654091"
   version="1.1"
   id="svg96351"
   inkscape:version="1.2.1 (9c6d41e410, 2022-07-14)"
   sodipodi:docname="funcaoforma.svg"
   xmlns:inkscape="http://www.inkscape.org/namespaces/inkscape"
   xmlns:sodipodi="http://sodipodi.sourceforge.net/DTD/sodipodi-0.dtd"
   xmlns="http://www.w3.org/2000/svg"
   xmlns:svg="http://www.w3.org/2000/svg">
  <sodipodi:namedview
     id="namedview96353"
     pagecolor="#ffffff"
     bordercolor="#000000"
     borderopacity="0.25"
     inkscape:showpageshadow="2"
     inkscape:pageopacity="0.0"
     inkscape:pagecheckerboard="0"
     inkscape:deskcolor="#d1d1d1"
     inkscape:document-units="mm"
     showgrid="false"
     inkscape:zoom="0.74564394"
     inkscape:cx="-444.58217"
     inkscape:cy="-97.901956"
     inkscape:window-width="1920"
     inkscape:window-height="1017"
     inkscape:window-x="1912"
     inkscape:window-y="-8"
     inkscape:window-maximized="1"
     inkscape:current-layer="layer1" />
  <defs
     id="defs96348">
    <marker
       style="overflow:visible"
       id="Arrow3-08-2-2-9"
       refX="0"
       refY="0"
       orient="auto-start-reverse"
       inkscape:stockid="Arrow3"
       markerWidth="1.8030457"
       markerHeight="3"
       viewBox="0 0 4.2071068 7"
       inkscape:isstock="true"
       inkscape:collect="always"
       preserveAspectRatio="xMidYMid"
       markerUnits="userSpaceOnUse">
      <path
         style="fill:none;stroke:context-stroke;stroke-width:1;stroke-linecap:round"
         d="M 3,-3 0,0 3,3"
         id="arrow3-2-0-3-7"
         transform="rotate(180,0.125,0)"
         sodipodi:nodetypes="ccc" />
    </marker>
    <marker
       style="overflow:visible"
       id="Arrow3-0"
       refX="0"
       refY="0"
       orient="auto-start-reverse"
       inkscape:stockid="Arrow3"
       markerWidth="1.8030457"
       markerHeight="3"
       viewBox="0 0 4.2071068 7"
       inkscape:isstock="true"
       inkscape:collect="always"
       preserveAspectRatio="xMidYMid"
       markerUnits="userSpaceOnUse">
      <path
         style="fill:none;stroke:context-stroke;stroke-width:1;stroke-linecap:round"
         d="M 3,-3 0,0 3,3"
         id="arrow3-4"
         transform="rotate(180,0.125,0)"
         sodipodi:nodetypes="ccc" />
    </marker>
    <marker
       style="overflow:visible"
       id="Arrow2"
       refX="0"
       refY="0"
       orient="auto-start-reverse"
       inkscape:stockid="Arrow2"
       markerWidth="1.8333334"
       markerHeight="1.3333334"
       viewBox="0 0 7.7 5.6"
       inkscape:isstock="true"
       inkscape:collect="always"
       preserveAspectRatio="xMidYMid"
       markerUnits="userSpaceOnUse">
      <path
         d="M -2,-4 9,0 -2,4 c 2,-2.33 2,-5.66 0,-8 z"
         style="fill:context-stroke;fill-rule:evenodd;stroke:none"
         id="arrow2L"
         transform="scale(0.7)" />
    </marker>
    <clipPath
       id="clipPath239">
      <path
         clip-rule="nonzero"
         d="m 224,10 h 4 v 6.238281 h -4 z m 0,0"
         id="path33152" />
    </clipPath>
    <clipPath
       id="clipPath9730">
      <path
         clip-rule="nonzero"
         d="m 224,10 h 4 v 6.238281 h -4 z m 0,0"
         id="path93908" />
    </clipPath>
    <clipPath
       id="clipPath9190">
      <path
         clip-rule="nonzero"
         d="m 220,5 h 4 v 12.433594 h -4 z m 0,0"
         id="path39449" />
    </clipPath>
    <clipPath
       id="clipPath39749">
      <path
         clip-rule="nonzero"
         d="m 230,5 h 3 v 12.433594 h -3 z m 0,0"
         id="path27463" />
    </clipPath>
    <clipPath
       id="clipPath9964">
      <path
         clip-rule="nonzero"
         d="m 221,6 h 5 v 8.445313 h -5 z m 0,0"
         id="path19219" />
    </clipPath>
    <clipPath
       id="clipPath4882">
      <path
         clip-rule="nonzero"
         d="m 220,6 h 6 v 8.445313 h -6 z m 0,0"
         id="path51650" />
    </clipPath>
    <clipPath
       id="clipPath3850">
      <path
         clip-rule="nonzero"
         d="m 220,6 h 6 v 8.445313 h -6 z m 0,0"
         id="path14837" />
    </clipPath>
    <clipPath
       id="clipPath5541">
      <path
         clip-rule="nonzero"
         d="m 220,6 h 6 v 8.445313 h -6 z m 0,0"
         id="path31817" />
    </clipPath>
    <clipPath
       id="clipPath121">
      <path
         clip-rule="nonzero"
         d="m 218,6 h 6 v 10.769531 h -6 z m 0,0"
         id="path79920" />
    </clipPath>
    <clipPath
       id="clipPath49035">
      <path
         clip-rule="nonzero"
         d="m 224,10 h 3 v 6.769531 h -3 z m 0,0"
         id="path82128" />
    </clipPath>
    <clipPath
       id="clipPath4813">
      <path
         clip-rule="nonzero"
         d="m 218,6 h 6 v 10.769531 h -6 z m 0,0"
         id="path2148" />
    </clipPath>
    <clipPath
       id="clipPath40173">
      <path
         clip-rule="nonzero"
         d="m 223,10 h 5 v 6.769531 h -5 z m 0,0"
         id="path55974" />
    </clipPath>
    <clipPath
       id="clipPath8994">
      <path
         clip-rule="nonzero"
         d="m 218,6 h 6 v 10.769531 h -6 z m 0,0"
         id="path59273" />
    </clipPath>
    <clipPath
       id="clipPath4640">
      <path
         clip-rule="nonzero"
         d="m 223,10 h 5 v 6.769531 h -5 z m 0,0"
         id="path46408" />
    </clipPath>
    <clipPath
       id="clipPath6686">
      <path
         clip-rule="nonzero"
         d="m 218,6 h 6 v 10.769531 h -6 z m 0,0"
         id="path21627" />
    </clipPath>
    <clipPath
       id="clipPath47511">
      <path
         clip-rule="nonzero"
         d="m 223,10 h 5 v 6.769531 h -5 z m 0,0"
         id="path57035" />
    </clipPath>
    <clipPath
       id="clipPath7283">
      <path
         clip-rule="nonzero"
         d="m 220,6 h 6 v 8.445313 h -6 z m 0,0"
         id="path71609" />
    </clipPath>
    <clipPath
       id="clipPath7541">
      <path
         clip-rule="nonzero"
         d="m 221,6 h 5 v 8.445313 h -5 z m 0,0"
         id="path88832" />
    </clipPath>
    <clipPath
       id="clipPath6016">
      <path
         clip-rule="nonzero"
         d="m 220,6 h 6 v 10.769531 h -6 z m 0,0"
         id="path19944" />
    </clipPath>
  </defs>
  <g
     inkscape:label="Camada 1"
     inkscape:groupmode="layer"
     id="layer1"
     transform="translate(-214.06018,-174.60844)">
    <path
       style="fill:none;stroke:#000000;stroke-width:0.3;stroke-dasharray:none;stroke-dashoffset:0.211667;stroke-opacity:1;marker-end:url(#Arrow3-08-2-2-9)"
       d="M 227.43102,222.32477 V 175.01863"
       id="path2512-4-3-9-1" />
    <path
       style="fill:none;stroke:#000000;stroke-width:0.3;stroke-dasharray:none;stroke-dashoffset:0.8;stroke-opacity:1;marker-end:url(#Arrow3-08-2-2-9)"
       d="m 219.49352,214.38727 h 60.85414"
       id="path3224-0-9-4-9" />
    <path
       style="fill:none;stroke:#000000;stroke-width:0.2"
       d="m 237.04471,208.41367 c 7.71775,-21.46774 31.66936,-22 31.66936,-22"
       id="path6951" />
    <path
       style="fill:none;stroke:#000000;stroke-width:0.3;stroke-dasharray:none"
       d="m 237.04471,208.41367 c 7.71775,-21.46774 31.66936,-22 31.66936,-22"
       id="path6953" />
    <path
       style="fill:none;stroke:#000000;stroke-width:0.33541;stroke-dasharray:none;marker-end:url(#Arrow3-0)"
       d="m 214.06018,235.6032 h 66.14583"
       id="path6955" />
    <circle
       style="fill:#000000;fill-opacity:1;stroke:#000000;stroke-width:0.146421;stroke-dasharray:none"
       id="path8193"
       cx="237.04599"
       cy="208.46481"
       r="0.64567411" />
    <circle
       style="fill:#000000;fill-opacity:1;stroke:#000000;stroke-width:0.146421;stroke-dasharray:none"
       id="path8193-7"
       cx="268.86496"
       cy="186.5105"
       r="0.64567411" />
    <circle
       style="fill:#000000;fill-opacity:1;stroke:#000000;stroke-width:0.146421;stroke-dasharray:none"
       id="path8193-7-7"
       cx="243.52316"
       cy="197.67593"
       r="0.64567411" />
    <circle
       style="fill:#000000;fill-opacity:1;stroke:#000000;stroke-width:0.146421;stroke-dasharray:none"
       id="path8193-7-7-9"
       cx="253.62225"
       cy="190.33685"
       r="0.64567411" />
    <circle
       style="fill:#000000;fill-opacity:1;stroke:#000000;stroke-width:0.146421;stroke-dasharray:none"
       id="path8193-8"
       cx="227.26488"
       cy="235.62305"
       r="0.64567411" />
    <circle
       style="fill:#000000;fill-opacity:1;stroke:#000000;stroke-width:0.146421;stroke-dasharray:none"
       id="path8193-8-8"
       cx="240.46005"
       cy="235.55884"
       r="0.64567411" />
    <circle
       style="fill:#000000;fill-opacity:1;stroke:#000000;stroke-width:0.146421;stroke-dasharray:none"
       id="path8193-8-8-1"
       cx="253.72214"
       cy="235.60315"
       r="0.64567411" />
    <circle
       style="fill:#000000;fill-opacity:1;stroke:#000000;stroke-width:0.146421;stroke-dasharray:none"
       id="path8193-8-8-1-5"
       cx="266.98425"
       cy="235.60315"
       r="0.64567411" />
    <path
       style="fill:none;fill-opacity:1;stroke:#000000;stroke-width:0.3;stroke-dasharray:none;marker-end:url(#Arrow2)"
       d="m 256.56084,228.19592 c 15.16936,-16.14514 -2.39516,-32.02418 -2.39516,-32.02418"
       id="path8406"
       sodipodi:nodetypes="cc" />
    <g
       inkscape:label=""
       transform="translate(278.20556,217.1955)"
       id="g14843">
      <g
         fill="#000000"
         fill-opacity="1"
         id="g14833"
         transform="matrix(0.352778,0,0,0.352778,-76.8576,-3.23863)">
        <g
           id="g14831"
           transform="translate(217.536,14.446)">
          <path
             d="m 5.671875,-4.875 c -0.390625,0.0625 -0.53125,0.359375 -0.53125,0.578125 0,0.296875 0.21875,0.390625 0.390625,0.390625 0.359375,0 0.609375,-0.3125 0.609375,-0.640625 0,-0.5 -0.578125,-0.71875 -1.078125,-0.71875 -0.71875,0 -1.125,0.71875 -1.234375,0.9375 -0.28125,-0.890625 -1.015625,-0.9375 -1.234375,-0.9375 -1.21875,0 -1.859375,1.5625 -1.859375,1.828125 0,0.046875 0.046875,0.109375 0.125,0.109375 0.09375,0 0.125,-0.078125 0.140625,-0.125 0.40625,-1.328125 1.21875,-1.578125 1.5625,-1.578125 0.53125,0 0.640625,0.5 0.640625,0.78125 0,0.265625 -0.078125,0.546875 -0.21875,1.125 L 2.578125,-1.5 c -0.171875,0.71875 -0.515625,1.375 -1.15625,1.375 -0.0625,0 -0.359375,0 -0.609375,-0.15625 C 1.25,-0.359375 1.34375,-0.71875 1.34375,-0.859375 1.34375,-1.09375 1.15625,-1.25 0.9375,-1.25 c -0.296875,0 -0.609375,0.265625 -0.609375,0.640625 0,0.5 0.5625,0.734375 1.078125,0.734375 0.578125,0 0.984375,-0.453125 1.234375,-0.953125 C 2.828125,-0.125 3.4375,0.125 3.875,0.125 5.09375,0.125 5.734375,-1.453125 5.734375,-1.703125 5.734375,-1.765625 5.6875,-1.8125 5.625,-1.8125 5.515625,-1.8125 5.5,-1.75 5.46875,-1.65625 5.140625,-0.609375 4.453125,-0.125 3.90625,-0.125 3.484375,-0.125 3.265625,-0.4375 3.265625,-0.921875 3.265625,-1.1875 3.3125,-1.375 3.5,-2.15625 L 3.921875,-3.796875 C 4.09375,-4.5 4.5,-5.03125 5.0625,-5.03125 c 0.015625,0 0.359375,0 0.609375,0.15625 z m 0,0"
             id="path14829" />
        </g>
      </g>
      <g
         clip-path="url(#clipPath239)"
         id="g14841"
         transform="matrix(0.352778,0,0,0.352778,-76.8576,-3.23863)">
        <g
           fill="#000000"
           fill-opacity="1"
           id="g14839">
          <g
             id="g14837"
             transform="translate(224.188,16.239)">
            <path
               d="m 2.5,-5.078125 c 0,-0.21875 -0.015625,-0.21875 -0.234375,-0.21875 -0.328125,0.3125 -0.75,0.5 -1.5,0.5 v 0.265625 c 0.21875,0 0.640625,0 1.109375,-0.203125 v 4.078125 c 0,0.296875 -0.03125,0.390625 -0.78125,0.390625 H 0.8125 V 0 c 0.328125,-0.03125 1.015625,-0.03125 1.375,-0.03125 0.359375,0 1.046875,0 1.375,0.03125 V -0.265625 H 3.28125 c -0.75,0 -0.78125,-0.09375 -0.78125,-0.390625 z m 0,0"
               id="path14835" />
          </g>
        </g>
      </g>
    </g>
    <g
       inkscape:label=""
       transform="translate(221.7862,177.27615)"
       id="g20208">
      <g
         fill="#000000"
         fill-opacity="1"
         id="g20198"
         transform="matrix(0.352778,0,0,0.352778,-76.8576,-3.23863)">
        <g
           id="g20196"
           transform="translate(217.536,14.446)">
          <path
             d="m 5.671875,-4.875 c -0.390625,0.0625 -0.53125,0.359375 -0.53125,0.578125 0,0.296875 0.21875,0.390625 0.390625,0.390625 0.359375,0 0.609375,-0.3125 0.609375,-0.640625 0,-0.5 -0.578125,-0.71875 -1.078125,-0.71875 -0.71875,0 -1.125,0.71875 -1.234375,0.9375 -0.28125,-0.890625 -1.015625,-0.9375 -1.234375,-0.9375 -1.21875,0 -1.859375,1.5625 -1.859375,1.828125 0,0.046875 0.046875,0.109375 0.125,0.109375 0.09375,0 0.125,-0.078125 0.140625,-0.125 0.40625,-1.328125 1.21875,-1.578125 1.5625,-1.578125 0.53125,0 0.640625,0.5 0.640625,0.78125 0,0.265625 -0.078125,0.546875 -0.21875,1.125 L 2.578125,-1.5 c -0.171875,0.71875 -0.515625,1.375 -1.15625,1.375 -0.0625,0 -0.359375,0 -0.609375,-0.15625 C 1.25,-0.359375 1.34375,-0.71875 1.34375,-0.859375 1.34375,-1.09375 1.15625,-1.25 0.9375,-1.25 c -0.296875,0 -0.609375,0.265625 -0.609375,0.640625 0,0.5 0.5625,0.734375 1.078125,0.734375 0.578125,0 0.984375,-0.453125 1.234375,-0.953125 C 2.828125,-0.125 3.4375,0.125 3.875,0.125 5.09375,0.125 5.734375,-1.453125 5.734375,-1.703125 5.734375,-1.765625 5.6875,-1.8125 5.625,-1.8125 5.515625,-1.8125 5.5,-1.75 5.46875,-1.65625 5.140625,-0.609375 4.453125,-0.125 3.90625,-0.125 3.484375,-0.125 3.265625,-0.4375 3.265625,-0.921875 3.265625,-1.1875 3.3125,-1.375 3.5,-2.15625 L 3.921875,-3.796875 C 4.09375,-4.5 4.5,-5.03125 5.0625,-5.03125 c 0.015625,0 0.359375,0 0.609375,0.15625 z m 0,0"
             id="path20194" />
        </g>
      </g>
      <g
         clip-path="url(#clipPath9730)"
         id="g20206"
         transform="matrix(0.352778,0,0,0.352778,-76.8576,-3.23863)">
        <g
           fill="#000000"
           fill-opacity="1"
           id="g20204">
          <g
             id="g20202"
             transform="translate(224.188,16.239)">
            <path
               d="m 2.25,-1.625 c 0.125,-0.125 0.453125,-0.390625 0.59375,-0.5 0.484375,-0.453125 0.953125,-0.890625 0.953125,-1.609375 0,-0.953125 -0.796875,-1.5625 -1.78125,-1.5625 -0.96875,0 -1.59375,0.71875 -1.59375,1.4375 0,0.390625 0.3125,0.4375 0.421875,0.4375 0.171875,0 0.421875,-0.109375 0.421875,-0.421875 0,-0.40625 -0.40625,-0.40625 -0.5,-0.40625 C 1,-4.84375 1.53125,-5.03125 1.921875,-5.03125 c 0.734375,0 1.125,0.625 1.125,1.296875 0,0.828125 -0.578125,1.4375 -1.53125,2.390625 l -1,1.046875 C 0.421875,-0.21875 0.421875,-0.203125 0.421875,0 H 3.5625 l 0.234375,-1.421875 h -0.25 C 3.53125,-1.265625 3.46875,-0.875 3.375,-0.71875 c -0.046875,0.0625 -0.65625,0.0625 -0.78125,0.0625 H 1.171875 Z m 0,0"
               id="path20200" />
          </g>
        </g>
      </g>
    </g>
    <g
       inkscape:label=""
       transform="translate(263.21362,206.1955)"
       id="g25608">
      <g
         fill="#000000"
         fill-opacity="1"
         id="g25585"
         transform="matrix(0.352778,0,0,0.352778,-74.9655,-1.93225)">
        <g
           id="g25583"
           transform="translate(212.282,14.446)">
          <path
             d="m 4.03125,-2.953125 1.390625,-1.59375 c 0.125,-0.15625 0.234375,-0.25 1.21875,-0.25 V -5.3125 c -0.671875,0.03125 -0.6875,0.03125 -1.09375,0.03125 -0.34375,0 -0.859375,0 -1.203125,-0.03125 v 0.515625 c 0.234375,0 0.484375,0.0625 0.484375,0.140625 0,0.03125 -0.0625,0.109375 -0.078125,0.140625 L 3.703125,-3.34375 2.515625,-4.796875 H 3.03125 V -5.3125 C 2.75,-5.28125 1.9375,-5.28125 1.609375,-5.28125 c -0.359375,0 -1,0 -1.328125,-0.03125 v 0.515625 H 1.125 l 1.859375,2.28125 -1.546875,1.75 c -0.140625,0.171875 -0.234375,0.25 -1.21875,0.25 V 0 c 0.71875,-0.03125 0.734375,-0.03125 1.109375,-0.03125 0.34375,0 0.84375,0 1.1875,0.03125 v -0.515625 c -0.234375,0 -0.484375,-0.0625 -0.484375,-0.140625 0,-0.015625 0,-0.03125 0.078125,-0.125 L 3.3125,-2.125 4.640625,-0.515625 h -0.5 V 0 c 0.28125,-0.03125 1.078125,-0.03125 1.421875,-0.03125 0.359375,0 0.984375,0 1.328125,0.03125 v -0.515625 h -0.84375 z m 0,0"
             id="path25581" />
        </g>
      </g>
      <g
         clip-path="url(#clipPath9190)"
         id="g25593"
         transform="matrix(0.352778,0,0,0.352778,-74.9655,-1.93225)">
        <g
           fill="#000000"
           fill-opacity="1"
           id="g25591">
          <g
             id="g25589"
             transform="translate(219.38,14.446)">
            <path
               d="m 3.890625,2.90625 c 0,-0.03125 0,-0.0625 -0.203125,-0.265625 C 2.484375,1.4375 1.8125,-0.53125 1.8125,-2.96875 c 0,-2.328125 0.5625,-4.328125 1.953125,-5.734375 0.125,-0.109375 0.125,-0.125 0.125,-0.171875 0,-0.0625 -0.0625,-0.09375 -0.109375,-0.09375 -0.15625,0 -1.140625,0.859375 -1.71875,2.03125 -0.609375,1.21875 -0.890625,2.484375 -0.890625,3.96875 0,1.0625 0.171875,2.484375 0.78125,3.75 C 2.671875,2.21875 3.640625,3 3.78125,3 3.828125,3 3.890625,2.96875 3.890625,2.90625 Z m 0,0"
               id="path25587" />
          </g>
        </g>
      </g>
      <g
         fill="#000000"
         fill-opacity="1"
         id="g25598"
         transform="matrix(0.352778,0,0,0.352778,-74.9655,-1.93225)">
        <g
           id="g25596"
           transform="translate(223.93201,14.446)">
          <path
             d="m 3.125,0.0625 -1.265625,-0.5 c -0.3125,-0.125 -1.015625,-0.40625 -1.015625,-1.125 0,-1.03125 1.25,-2.078125 1.5,-2.078125 0.015625,0 0.125,0.03125 0.171875,0.046875 0.3125,0.09375 0.625,0.09375 0.84375,0.09375 0.375,0 1.078125,0 1.078125,-0.34375 C 4.4375,-4.109375 4,-4.140625 3.484375,-4.140625 3.25,-4.140625 2.921875,-4.140625 2.5,-4 2.21875,-4.25 2.09375,-4.625 2.09375,-4.984375 c 0,-0.65625 0.421875,-1.59375 1.375,-2.03125 0.21875,0.25 0.5,0.25 0.75,0.25 0.296875,0 1.03125,0 1.03125,-0.34375 0,-0.296875 -0.578125,-0.296875 -0.953125,-0.296875 -0.25,0 -0.421875,0 -0.765625,0.0625 -0.046875,-0.15625 -0.0625,-0.171875 -0.0625,-0.4375 0,-0.21875 0.046875,-0.375 0.046875,-0.421875 0,-0.0625 -0.0625,-0.109375 -0.125,-0.109375 -0.1875,0 -0.1875,0.4375 -0.1875,0.53125 0,0.171875 0.015625,0.328125 0.078125,0.484375 -1.421875,0.421875 -2.0625,1.4375 -2.0625,2.21875 0,0.71875 0.484375,1.109375 0.796875,1.28125 -1.234375,0.671875 -1.75,1.890625 -1.75,2.546875 0,1.03125 0.9375,1.40625 1.375,1.578125 l 1.078125,0.4375 C 3.015625,0.875 3.5,1.078125 3.578125,1.125 c 0.125,0.078125 0.21875,0.21875 0.21875,0.421875 0,0.25 -0.1875,0.65625 -0.609375,0.65625 -0.171875,0 -0.5625,-0.046875 -1,-0.375 C 2.109375,1.75 2.09375,1.75 2.046875,1.75 c -0.0625,0 -0.125,0.046875 -0.125,0.109375 0,0.140625 0.625,0.578125 1.265625,0.578125 0.765625,0 1.234375,-0.734375 1.234375,-1.25 0,-0.375 -0.203125,-0.671875 -0.578125,-0.84375 z m 0.609375,-7.171875 c 0.203125,-0.0625 0.40625,-0.0625 0.5625,-0.0625 0.40625,0 0.4375,0.015625 0.671875,0.078125 C 4.828125,-7.046875 4.734375,-7 4.234375,-7 4,-7 3.859375,-7 3.734375,-7.109375 Z M 2.78125,-3.84375 c 0.296875,-0.0625 0.546875,-0.0625 0.703125,-0.0625 0.390625,0 0.40625,0.015625 0.671875,0.0625 -0.125,0.0625 -0.234375,0.109375 -0.75,0.109375 -0.28125,0 -0.40625,0 -0.625,-0.109375 z m 0,0"
             id="path59" />
        </g>
      </g>
      <g
         clip-path="url(#clipPath39749)"
         id="g25606"
         transform="matrix(0.352778,0,0,0.352778,-74.9655,-1.93225)">
        <g
           fill="#000000"
           fill-opacity="1"
           id="g25604">
          <g
             id="g25602"
             transform="translate(229.623,14.446)">
            <path
               d="M 3.375,-2.96875 C 3.375,-3.890625 3.25,-5.359375 2.578125,-6.75 1.875,-8.1875 0.890625,-8.96875 0.765625,-8.96875 c -0.046875,0 -0.109375,0.03125 -0.109375,0.09375 0,0.046875 0,0.0625 0.203125,0.265625 1.203125,1.203125 1.859375,3.1875 1.859375,5.625 0,2.3125 -0.5625,4.3125 -1.9375,5.71875 C 0.65625,2.84375 0.65625,2.875 0.65625,2.90625 0.65625,2.96875 0.71875,3 0.765625,3 0.921875,3 1.90625,2.140625 2.484375,0.96875 3.09375,-0.25 3.375,-1.546875 3.375,-2.96875 Z m 0,0"
               id="path25600" />
          </g>
        </g>
      </g>
    </g>
    <g
       inkscape:label=""
       transform="translate(233.6733,206.99389)"
       id="g31034">
      <g
         clip-path="url(#clipPath9964)"
         id="g31032"
         transform="matrix(0.352778,0,0,0.352778,-78.1035,-2.29054)">
        <g
           fill="#000000"
           fill-opacity="1"
           id="g31030">
          <g
             id="g31028"
             transform="translate(220.302,14.446)">
            <path
               d="m 3.4375,-7.65625 c 0,-0.28125 0,-0.296875 -0.234375,-0.296875 C 2.921875,-7.625 2.3125,-7.1875 1.09375,-7.1875 v 0.34375 c 0.265625,0 0.859375,0 1.53125,-0.296875 v 6.21875 c 0,0.4375 -0.046875,0.578125 -1.09375,0.578125 h -0.375 V 0 c 0.328125,-0.03125 1.484375,-0.03125 1.875,-0.03125 0.40625,0 1.546875,0 1.875,0.03125 v -0.34375 h -0.375 c -1.046875,0 -1.09375,-0.140625 -1.09375,-0.578125 z m 0,0"
               id="path31026" />
          </g>
        </g>
      </g>
    </g>
    <g
       inkscape:label=""
       transform="translate(240.32653,194.66324)"
       id="g36462">
      <g
         clip-path="url(#clipPath4882)"
         id="g36460"
         transform="matrix(0.352778,0,0,0.352778,-77.9216,-2.29054)">
        <g
           fill="#000000"
           fill-opacity="1"
           id="g36458">
          <g
             id="g36456"
             transform="translate(220.302,14.446)">
            <path
               d="M 5.265625,-2.015625 H 5 c -0.046875,0.203125 -0.140625,0.875 -0.25,1.0625 C 4.65625,-0.84375 3.984375,-0.84375 3.625,-0.84375 H 1.40625 c 0.328125,-0.28125 1.0625,-1.046875 1.359375,-1.328125 1.828125,-1.671875 2.5,-2.296875 2.5,-3.484375 0,-1.375 -1.09375,-2.296875 -2.484375,-2.296875 -1.375,0 -2.203125,1.1875 -2.203125,2.21875 0,0.609375 0.53125,0.609375 0.5625,0.609375 0.265625,0 0.5625,-0.1875 0.5625,-0.5625 0,-0.34375 -0.21875,-0.5625 -0.5625,-0.5625 -0.09375,0 -0.125,0 -0.15625,0.015625 0.21875,-0.8125 0.875,-1.375 1.640625,-1.375 1.015625,0 1.640625,0.859375 1.640625,1.953125 C 4.265625,-4.640625 3.6875,-3.75 3,-2.984375 L 0.578125,-0.28125 V 0 h 4.375 z m 0,0"
               id="path36454" />
          </g>
        </g>
      </g>
    </g>
    <g
       inkscape:label=""
       transform="translate(251.23782,186.32453)"
       id="g41904">
      <g
         clip-path="url(#clipPath3850)"
         id="g41902"
         transform="matrix(0.352778,0,0,0.352778,-77.8885,-2.29054)">
        <g
           fill="#000000"
           fill-opacity="1"
           id="g41900">
          <g
             id="g41898"
             transform="translate(220.302,14.446)">
            <path
               d="m 2.203125,-4.296875 c -0.203125,0.015625 -0.25,0.03125 -0.25,0.140625 0,0.109375 0.0625,0.109375 0.265625,0.109375 h 0.546875 c 1.03125,0 1.484375,0.84375 1.484375,1.984375 0,1.578125 -0.8125,1.984375 -1.40625,1.984375 -0.578125,0 -1.546875,-0.265625 -1.90625,-1.0625 0.390625,0.0625 0.734375,-0.15625 0.734375,-0.578125 0,-0.34375 -0.25,-0.59375 -0.578125,-0.59375 -0.296875,0 -0.609375,0.171875 -0.609375,0.625 0,1.0625 1.0625,1.9375 2.390625,1.9375 1.421875,0 2.484375,-1.09375 2.484375,-2.296875 C 5.359375,-3.140625 4.46875,-4 3.328125,-4.203125 4.359375,-4.5 5.03125,-5.375 5.03125,-6.3125 c 0,-0.9375 -0.984375,-1.640625 -2.140625,-1.640625 -1.1875,0 -2.078125,0.734375 -2.078125,1.609375 0,0.46875 0.375,0.578125 0.546875,0.578125 0.25,0 0.546875,-0.1875 0.546875,-0.546875 0,-0.375 -0.296875,-0.546875 -0.5625,-0.546875 -0.0625,0 -0.09375,0 -0.125,0.015625 0.453125,-0.8125 1.578125,-0.8125 1.640625,-0.8125 0.390625,0 1.171875,0.171875 1.171875,1.34375 0,0.234375 -0.03125,0.890625 -0.390625,1.40625 C 3.28125,-4.375 2.875,-4.34375 2.5625,-4.328125 Z m 0,0"
               id="path41896" />
          </g>
        </g>
      </g>
    </g>
    <g
       inkscape:label=""
       transform="translate(267.5604,182.15518)"
       id="g47360">
      <g
         clip-path="url(#clipPath5541)"
         id="g47358"
         transform="matrix(0.352778,0,0,0.352778,-77.8334,-2.25196)">
        <g
           fill="#000000"
           fill-opacity="1"
           id="g47356">
          <g
             id="g47354"
             transform="translate(220.302,14.446)">
            <path
               d="m 4.3125,-7.78125 c 0,-0.234375 0,-0.28125 -0.171875,-0.28125 -0.09375,0 -0.125,0 -0.21875,0.140625 L 0.328125,-2.34375 V -2 H 3.46875 v 1.09375 c 0,0.4375 -0.03125,0.5625 -0.90625,0.5625 H 2.328125 V 0 c 0.28125,-0.03125 1.21875,-0.03125 1.5625,-0.03125 0.328125,0 1.28125,0 1.5625,0.03125 V -0.34375 H 5.21875 c -0.875,0 -0.90625,-0.125 -0.90625,-0.5625 V -2 H 5.515625 V -2.34375 H 4.3125 Z m -0.78125,0.9375 v 4.5 H 0.625 Z m 0,0"
               id="path47352" />
          </g>
        </g>
      </g>
    </g>
    <g
       inkscape:label=""
       transform="translate(225.68943,237.42131)"
       id="g52840">
      <g
         clip-path="url(#clipPath121)"
         id="g52830"
         transform="matrix(0.352778,0,0,0.352778,-77.1072,-2.16341)">
        <g
           fill="#000000"
           fill-opacity="1"
           id="g52828">
          <g
             id="g52826"
             transform="translate(218.306,14.445)">
            <path
               d="m 3.125,0.0625 -1.265625,-0.5 c -0.3125,-0.125 -1.015625,-0.40625 -1.015625,-1.125 0,-1.03125 1.25,-2.078125 1.5,-2.078125 0.015625,0 0.125,0.03125 0.171875,0.046875 0.3125,0.09375 0.625,0.09375 0.84375,0.09375 0.375,0 1.078125,0 1.078125,-0.34375 C 4.4375,-4.109375 4,-4.140625 3.484375,-4.140625 3.25,-4.140625 2.921875,-4.140625 2.5,-4 2.21875,-4.25 2.09375,-4.625 2.09375,-4.984375 c 0,-0.65625 0.421875,-1.59375 1.375,-2.03125 0.21875,0.25 0.5,0.25 0.75,0.25 0.296875,0 1.03125,0 1.03125,-0.34375 0,-0.296875 -0.578125,-0.296875 -0.953125,-0.296875 -0.25,0 -0.421875,0 -0.765625,0.0625 -0.046875,-0.15625 -0.0625,-0.171875 -0.0625,-0.4375 0,-0.21875 0.046875,-0.375 0.046875,-0.421875 0,-0.0625 -0.0625,-0.109375 -0.125,-0.109375 -0.1875,0 -0.1875,0.4375 -0.1875,0.53125 0,0.171875 0.015625,0.328125 0.078125,0.484375 -1.421875,0.421875 -2.0625,1.4375 -2.0625,2.21875 0,0.71875 0.484375,1.109375 0.796875,1.28125 -1.234375,0.671875 -1.75,1.890625 -1.75,2.546875 0,1.03125 0.9375,1.40625 1.375,1.578125 l 1.078125,0.4375 C 3.015625,0.875 3.5,1.078125 3.578125,1.125 c 0.125,0.078125 0.21875,0.21875 0.21875,0.421875 0,0.25 -0.1875,0.65625 -0.609375,0.65625 -0.171875,0 -0.5625,-0.046875 -1,-0.375 C 2.109375,1.75 2.09375,1.75 2.046875,1.75 c -0.0625,0 -0.125,0.046875 -0.125,0.109375 0,0.140625 0.625,0.578125 1.265625,0.578125 0.765625,0 1.234375,-0.734375 1.234375,-1.25 0,-0.375 -0.203125,-0.671875 -0.578125,-0.84375 z m 0.609375,-7.171875 c 0.203125,-0.0625 0.40625,-0.0625 0.5625,-0.0625 0.40625,0 0.4375,0.015625 0.671875,0.078125 C 4.828125,-7.046875 4.734375,-7 4.234375,-7 4,-7 3.859375,-7 3.734375,-7.109375 Z M 2.78125,-3.84375 c 0.296875,-0.0625 0.546875,-0.0625 0.703125,-0.0625 0.390625,0 0.40625,0.015625 0.671875,0.0625 -0.125,0.0625 -0.234375,0.109375 -0.75,0.109375 -0.28125,0 -0.40625,0 -0.625,-0.109375 z m 0,0"
               id="path52824" />
          </g>
        </g>
      </g>
      <g
         clip-path="url(#clipPath49035)"
         id="g52838"
         transform="matrix(0.352778,0,0,0.352778,-77.1072,-2.16341)">
        <g
           fill="#000000"
           fill-opacity="1"
           id="g52836">
          <g
             id="g52834"
             transform="translate(223.41901,16.239)">
            <path
               d="m 2.5,-5.078125 c 0,-0.21875 -0.015625,-0.21875 -0.234375,-0.21875 -0.328125,0.3125 -0.75,0.5 -1.5,0.5 v 0.265625 c 0.21875,0 0.640625,0 1.109375,-0.203125 v 4.078125 c 0,0.296875 -0.03125,0.390625 -0.78125,0.390625 H 0.8125 V 0 c 0.328125,-0.03125 1.015625,-0.03125 1.375,-0.03125 0.359375,0 1.046875,0 1.375,0.03125 V -0.265625 H 3.28125 c -0.75,0 -0.78125,-0.09375 -0.78125,-0.390625 z m 0,0"
               id="path52832" />
          </g>
        </g>
      </g>
    </g>
    <g
       inkscape:label=""
       transform="translate(239.08459,237.15518)"
       id="g58352">
      <g
         clip-path="url(#clipPath4813)"
         id="g58342"
         transform="matrix(0.352778,0,0,0.352778,-77.1072,-2.16341)">
        <g
           fill="#000000"
           fill-opacity="1"
           id="g58340">
          <g
             id="g58338"
             transform="translate(218.306,14.445)">
            <path
               d="m 3.125,0.0625 -1.265625,-0.5 c -0.3125,-0.125 -1.015625,-0.40625 -1.015625,-1.125 0,-1.03125 1.25,-2.078125 1.5,-2.078125 0.015625,0 0.125,0.03125 0.171875,0.046875 0.3125,0.09375 0.625,0.09375 0.84375,0.09375 0.375,0 1.078125,0 1.078125,-0.34375 C 4.4375,-4.109375 4,-4.140625 3.484375,-4.140625 3.25,-4.140625 2.921875,-4.140625 2.5,-4 2.21875,-4.25 2.09375,-4.625 2.09375,-4.984375 c 0,-0.65625 0.421875,-1.59375 1.375,-2.03125 0.21875,0.25 0.5,0.25 0.75,0.25 0.296875,0 1.03125,0 1.03125,-0.34375 0,-0.296875 -0.578125,-0.296875 -0.953125,-0.296875 -0.25,0 -0.421875,0 -0.765625,0.0625 -0.046875,-0.15625 -0.0625,-0.171875 -0.0625,-0.4375 0,-0.21875 0.046875,-0.375 0.046875,-0.421875 0,-0.0625 -0.0625,-0.109375 -0.125,-0.109375 -0.1875,0 -0.1875,0.4375 -0.1875,0.53125 0,0.171875 0.015625,0.328125 0.078125,0.484375 -1.421875,0.421875 -2.0625,1.4375 -2.0625,2.21875 0,0.71875 0.484375,1.109375 0.796875,1.28125 -1.234375,0.671875 -1.75,1.890625 -1.75,2.546875 0,1.03125 0.9375,1.40625 1.375,1.578125 l 1.078125,0.4375 C 3.015625,0.875 3.5,1.078125 3.578125,1.125 c 0.125,0.078125 0.21875,0.21875 0.21875,0.421875 0,0.25 -0.1875,0.65625 -0.609375,0.65625 -0.171875,0 -0.5625,-0.046875 -1,-0.375 C 2.109375,1.75 2.09375,1.75 2.046875,1.75 c -0.0625,0 -0.125,0.046875 -0.125,0.109375 0,0.140625 0.625,0.578125 1.265625,0.578125 0.765625,0 1.234375,-0.734375 1.234375,-1.25 0,-0.375 -0.203125,-0.671875 -0.578125,-0.84375 z m 0.609375,-7.171875 c 0.203125,-0.0625 0.40625,-0.0625 0.5625,-0.0625 0.40625,0 0.4375,0.015625 0.671875,0.078125 C 4.828125,-7.046875 4.734375,-7 4.234375,-7 4,-7 3.859375,-7 3.734375,-7.109375 Z M 2.78125,-3.84375 c 0.296875,-0.0625 0.546875,-0.0625 0.703125,-0.0625 0.390625,0 0.40625,0.015625 0.671875,0.0625 -0.125,0.0625 -0.234375,0.109375 -0.75,0.109375 -0.28125,0 -0.40625,0 -0.625,-0.109375 z m 0,0"
               id="path58336" />
          </g>
        </g>
      </g>
      <g
         clip-path="url(#clipPath40173)"
         id="g58350"
         transform="matrix(0.352778,0,0,0.352778,-77.1072,-2.16341)">
        <g
           fill="#000000"
           fill-opacity="1"
           id="g58348">
          <g
             id="g58346"
             transform="translate(223.41901,16.239)">
            <path
               d="m 2.25,-1.625 c 0.125,-0.125 0.453125,-0.390625 0.59375,-0.5 0.484375,-0.453125 0.953125,-0.890625 0.953125,-1.609375 0,-0.953125 -0.796875,-1.5625 -1.78125,-1.5625 -0.96875,0 -1.59375,0.71875 -1.59375,1.4375 0,0.390625 0.3125,0.4375 0.421875,0.4375 0.171875,0 0.421875,-0.109375 0.421875,-0.421875 0,-0.40625 -0.40625,-0.40625 -0.5,-0.40625 C 1,-4.84375 1.53125,-5.03125 1.921875,-5.03125 c 0.734375,0 1.125,0.625 1.125,1.296875 0,0.828125 -0.578125,1.4375 -1.53125,2.390625 l -1,1.046875 C 0.421875,-0.21875 0.421875,-0.203125 0.421875,0 H 3.5625 l 0.234375,-1.421875 h -0.25 C 3.53125,-1.265625 3.46875,-0.875 3.375,-0.71875 c -0.046875,0.0625 -0.65625,0.0625 -0.78125,0.0625 H 1.171875 Z m 0,0"
               id="path58344" />
          </g>
        </g>
      </g>
    </g>
    <g
       inkscape:label=""
       transform="translate(252.47975,237.51002)"
       id="g63890">
      <g
         clip-path="url(#clipPath8994)"
         id="g63880"
         transform="matrix(0.352778,0,0,0.352778,-77.1072,-2.16341)">
        <g
           fill="#000000"
           fill-opacity="1"
           id="g63878">
          <g
             id="g63876"
             transform="translate(218.306,14.445)">
            <path
               d="m 3.125,0.0625 -1.265625,-0.5 c -0.3125,-0.125 -1.015625,-0.40625 -1.015625,-1.125 0,-1.03125 1.25,-2.078125 1.5,-2.078125 0.015625,0 0.125,0.03125 0.171875,0.046875 0.3125,0.09375 0.625,0.09375 0.84375,0.09375 0.375,0 1.078125,0 1.078125,-0.34375 C 4.4375,-4.109375 4,-4.140625 3.484375,-4.140625 3.25,-4.140625 2.921875,-4.140625 2.5,-4 2.21875,-4.25 2.09375,-4.625 2.09375,-4.984375 c 0,-0.65625 0.421875,-1.59375 1.375,-2.03125 0.21875,0.25 0.5,0.25 0.75,0.25 0.296875,0 1.03125,0 1.03125,-0.34375 0,-0.296875 -0.578125,-0.296875 -0.953125,-0.296875 -0.25,0 -0.421875,0 -0.765625,0.0625 -0.046875,-0.15625 -0.0625,-0.171875 -0.0625,-0.4375 0,-0.21875 0.046875,-0.375 0.046875,-0.421875 0,-0.0625 -0.0625,-0.109375 -0.125,-0.109375 -0.1875,0 -0.1875,0.4375 -0.1875,0.53125 0,0.171875 0.015625,0.328125 0.078125,0.484375 -1.421875,0.421875 -2.0625,1.4375 -2.0625,2.21875 0,0.71875 0.484375,1.109375 0.796875,1.28125 -1.234375,0.671875 -1.75,1.890625 -1.75,2.546875 0,1.03125 0.9375,1.40625 1.375,1.578125 l 1.078125,0.4375 C 3.015625,0.875 3.5,1.078125 3.578125,1.125 c 0.125,0.078125 0.21875,0.21875 0.21875,0.421875 0,0.25 -0.1875,0.65625 -0.609375,0.65625 -0.171875,0 -0.5625,-0.046875 -1,-0.375 C 2.109375,1.75 2.09375,1.75 2.046875,1.75 c -0.0625,0 -0.125,0.046875 -0.125,0.109375 0,0.140625 0.625,0.578125 1.265625,0.578125 0.765625,0 1.234375,-0.734375 1.234375,-1.25 0,-0.375 -0.203125,-0.671875 -0.578125,-0.84375 z m 0.609375,-7.171875 c 0.203125,-0.0625 0.40625,-0.0625 0.5625,-0.0625 0.40625,0 0.4375,0.015625 0.671875,0.078125 C 4.828125,-7.046875 4.734375,-7 4.234375,-7 4,-7 3.859375,-7 3.734375,-7.109375 Z M 2.78125,-3.84375 c 0.296875,-0.0625 0.546875,-0.0625 0.703125,-0.0625 0.390625,0 0.40625,0.015625 0.671875,0.0625 -0.125,0.0625 -0.234375,0.109375 -0.75,0.109375 -0.28125,0 -0.40625,0 -0.625,-0.109375 z m 0,0"
               id="path63874" />
          </g>
        </g>
      </g>
      <g
         clip-path="url(#clipPath4640)"
         id="g63888"
         transform="matrix(0.352778,0,0,0.352778,-77.1072,-2.16341)">
        <g
           fill="#000000"
           fill-opacity="1"
           id="g63886">
          <g
             id="g63884"
             transform="translate(223.41901,16.239)">
            <path
               d="m 2.015625,-2.65625 c 0.625,0 1.03125,0.453125 1.03125,1.296875 0,1 -0.5625,1.28125 -0.984375,1.28125 -0.4375,0 -1.046875,-0.15625 -1.328125,-0.578125 0.296875,0 0.5,-0.1875 0.5,-0.4375 0,-0.265625 -0.1875,-0.4375 -0.453125,-0.4375 -0.203125,0 -0.4375,0.125 -0.4375,0.453125 0,0.75 0.8125,1.25 1.734375,1.25 C 3.125,0.171875 3.875,-0.5625 3.875,-1.359375 3.875,-2.03125 3.34375,-2.625 2.53125,-2.8125 c 0.625,-0.21875 1.109375,-0.75 1.109375,-1.390625 0,-0.640625 -0.71875,-1.09375 -1.546875,-1.09375 -0.859375,0 -1.5,0.453125 -1.5,1.0625 0,0.296875 0.1875,0.421875 0.40625,0.421875 0.25,0 0.40625,-0.171875 0.40625,-0.40625 0,-0.296875 -0.265625,-0.40625 -0.4375,-0.40625 0.34375,-0.4375 0.953125,-0.46875 1.09375,-0.46875 0.203125,0 0.8125,0.0625 0.8125,0.890625 0,0.546875 -0.234375,0.890625 -0.34375,1.015625 -0.234375,0.25 -0.421875,0.265625 -0.90625,0.296875 -0.15625,0 -0.21875,0.015625 -0.21875,0.125 0,0.109375 0.078125,0.109375 0.21875,0.109375 z m 0,0"
               id="path63882" />
          </g>
        </g>
      </g>
    </g>
    <g
       inkscape:label=""
       transform="translate(265.60878,236.97776)"
       id="g69454">
      <g
         clip-path="url(#clipPath6686)"
         id="g69444"
         transform="matrix(0.352778,0,0,0.352778,-77.1072,-2.16341)">
        <g
           fill="#000000"
           fill-opacity="1"
           id="g69442">
          <g
             id="g69440"
             transform="translate(218.306,14.445)">
            <path
               d="m 3.125,0.0625 -1.265625,-0.5 c -0.3125,-0.125 -1.015625,-0.40625 -1.015625,-1.125 0,-1.03125 1.25,-2.078125 1.5,-2.078125 0.015625,0 0.125,0.03125 0.171875,0.046875 0.3125,0.09375 0.625,0.09375 0.84375,0.09375 0.375,0 1.078125,0 1.078125,-0.34375 C 4.4375,-4.109375 4,-4.140625 3.484375,-4.140625 3.25,-4.140625 2.921875,-4.140625 2.5,-4 2.21875,-4.25 2.09375,-4.625 2.09375,-4.984375 c 0,-0.65625 0.421875,-1.59375 1.375,-2.03125 0.21875,0.25 0.5,0.25 0.75,0.25 0.296875,0 1.03125,0 1.03125,-0.34375 0,-0.296875 -0.578125,-0.296875 -0.953125,-0.296875 -0.25,0 -0.421875,0 -0.765625,0.0625 -0.046875,-0.15625 -0.0625,-0.171875 -0.0625,-0.4375 0,-0.21875 0.046875,-0.375 0.046875,-0.421875 0,-0.0625 -0.0625,-0.109375 -0.125,-0.109375 -0.1875,0 -0.1875,0.4375 -0.1875,0.53125 0,0.171875 0.015625,0.328125 0.078125,0.484375 -1.421875,0.421875 -2.0625,1.4375 -2.0625,2.21875 0,0.71875 0.484375,1.109375 0.796875,1.28125 -1.234375,0.671875 -1.75,1.890625 -1.75,2.546875 0,1.03125 0.9375,1.40625 1.375,1.578125 l 1.078125,0.4375 C 3.015625,0.875 3.5,1.078125 3.578125,1.125 c 0.125,0.078125 0.21875,0.21875 0.21875,0.421875 0,0.25 -0.1875,0.65625 -0.609375,0.65625 -0.171875,0 -0.5625,-0.046875 -1,-0.375 C 2.109375,1.75 2.09375,1.75 2.046875,1.75 c -0.0625,0 -0.125,0.046875 -0.125,0.109375 0,0.140625 0.625,0.578125 1.265625,0.578125 0.765625,0 1.234375,-0.734375 1.234375,-1.25 0,-0.375 -0.203125,-0.671875 -0.578125,-0.84375 z m 0.609375,-7.171875 c 0.203125,-0.0625 0.40625,-0.0625 0.5625,-0.0625 0.40625,0 0.4375,0.015625 0.671875,0.078125 C 4.828125,-7.046875 4.734375,-7 4.234375,-7 4,-7 3.859375,-7 3.734375,-7.109375 Z M 2.78125,-3.84375 c 0.296875,-0.0625 0.546875,-0.0625 0.703125,-0.0625 0.390625,0 0.40625,0.015625 0.671875,0.0625 -0.125,0.0625 -0.234375,0.109375 -0.75,0.109375 -0.28125,0 -0.40625,0 -0.625,-0.109375 z m 0,0"
               id="path69438" />
          </g>
        </g>
      </g>
      <g
         clip-path="url(#clipPath47511)"
         id="g69452"
         transform="matrix(0.352778,0,0,0.352778,-77.1072,-2.16341)">
        <g
           fill="#000000"
           fill-opacity="1"
           id="g69450">
          <g
             id="g69448"
             transform="translate(223.41901,16.239)">
            <path
               d="m 3.140625,-5.15625 c 0,-0.15625 0,-0.21875 -0.171875,-0.21875 -0.09375,0 -0.109375,0 -0.1875,0.109375 L 0.234375,-1.5625 v 0.25 h 2.25 v 0.671875 c 0,0.296875 -0.015625,0.375 -0.640625,0.375 H 1.671875 V 0 c 0.671875,-0.03125 0.6875,-0.03125 1.140625,-0.03125 0.453125,0 0.46875,0 1.140625,0.03125 V -0.265625 H 3.78125 c -0.625,0 -0.640625,-0.078125 -0.640625,-0.375 V -1.3125 h 0.84375 v -0.25 h -0.84375 z m -0.59375,0.640625 V -1.5625 h -2.03125 z m 0,0"
               id="path69446" />
          </g>
        </g>
      </g>
    </g>
    <g
       inkscape:label=""
       transform="translate(224.5362,231.21163)"
       id="g75033">
      <g
         fill="#000000"
         fill-opacity="1"
         id="g16"
         transform="matrix(0.352778,0,0,0.352778,-76.4248,-2.29054)">
        <g
           id="use14"
           transform="translate(215.653,14.446)">
          <path
             d="m 7.875,-2.75 c 0.203125,0 0.421875,0 0.421875,-0.234375 0,-0.25 -0.21875,-0.25 -0.421875,-0.25 H 1.40625 c -0.203125,0 -0.421875,0 -0.421875,0.25 0,0.234375 0.21875,0.234375 0.421875,0.234375 z m 0,0"
             id="path26" />
        </g>
      </g>
      <g
         fill="#000000"
         fill-opacity="1"
         id="g75031"
         transform="matrix(0.352778,0,0,0.352778,-76.4248,-2.29054)">
        <g
           id="g75029"
           transform="translate(224.951,14.446)">
          <path
             d="m 3.4375,-7.65625 c 0,-0.28125 0,-0.296875 -0.234375,-0.296875 C 2.921875,-7.625 2.3125,-7.1875 1.09375,-7.1875 v 0.34375 c 0.265625,0 0.859375,0 1.53125,-0.296875 v 6.21875 c 0,0.4375 -0.046875,0.578125 -1.09375,0.578125 h -0.375 V 0 c 0.328125,-0.03125 1.484375,-0.03125 1.875,-0.03125 0.40625,0 1.546875,0 1.875,0.03125 v -0.34375 h -0.375 c -1.046875,0 -1.09375,-0.140625 -1.09375,-0.578125 z m 0,0"
             id="path75027" />
        </g>
      </g>
    </g>
    <g
       inkscape:label=""
       transform="translate(246.27007,230.9455)"
       id="g80621">
      <g
         clip-path="url(#clipPath7283)"
         id="g80619"
         transform="matrix(0.352778,0,0,0.352778,-77.8885,-2.29054)">
        <g
           fill="#000000"
           fill-opacity="1"
           id="g80617">
          <g
             id="g80615"
             transform="translate(220.302,14.446)">
            <path
               d="m 5.359375,-3.828125 c 0,-0.984375 -0.0625,-1.953125 -0.5,-2.859375 -0.484375,-1 -1.34375,-1.265625 -1.9375,-1.265625 -0.6875,0 -1.53125,0.34375 -1.984375,1.34375 -0.328125,0.75 -0.453125,1.5 -0.453125,2.78125 0,1.15625 0.09375,2.03125 0.515625,2.890625 0.46875,0.90625 1.296875,1.1875 1.921875,1.1875 1.03125,0 1.625,-0.625 1.984375,-1.3125 0.421875,-0.890625 0.453125,-2.0625 0.453125,-2.765625 z m -2.4375,3.84375 C 2.53125,0.015625 1.75,-0.203125 1.53125,-1.5 c -0.125,-0.71875 -0.125,-1.625 -0.125,-2.46875 0,-0.984375 0,-1.859375 0.1875,-2.5625 0.203125,-0.8125 0.8125,-1.171875 1.328125,-1.171875 0.453125,0 1.140625,0.265625 1.375,1.296875 0.15625,0.6875 0.15625,1.625 0.15625,2.4375 0,0.796875 0,1.703125 -0.140625,2.4375 -0.21875,1.3125 -0.984375,1.546875 -1.390625,1.546875 z m 0,0"
               id="path80613" />
          </g>
        </g>
      </g>
    </g>
    <g
       inkscape:label=""
       transform="translate(266.31846,231.12292)"
       id="g86223">
      <g
         clip-path="url(#clipPath7541)"
         id="g86221"
         transform="matrix(0.352778,0,0,0.352778,-78.1035,-2.29054)">
        <g
           fill="#000000"
           fill-opacity="1"
           id="g86219">
          <g
             id="g86217"
             transform="translate(220.302,14.446)">
            <path
               d="m 3.4375,-7.65625 c 0,-0.28125 0,-0.296875 -0.234375,-0.296875 C 2.921875,-7.625 2.3125,-7.1875 1.09375,-7.1875 v 0.34375 c 0.265625,0 0.859375,0 1.53125,-0.296875 v 6.21875 c 0,0.4375 -0.046875,0.578125 -1.09375,0.578125 h -0.375 V 0 c 0.328125,-0.03125 1.484375,-0.03125 1.875,-0.03125 0.40625,0 1.546875,0 1.875,0.03125 v -0.34375 h -0.375 c -1.046875,0 -1.09375,-0.140625 -1.09375,-0.578125 z m 0,0"
               id="path86215" />
          </g>
        </g>
      </g>
    </g>
    <g
       inkscape:label=""
       transform="translate(281.66523,234.22776)"
       id="g92807">
      <g
         clip-path="url(#clipPath6016)"
         id="g92805"
         transform="matrix(0.352778,0,0,0.352778,-77.8399,-2.16341)">
        <g
           fill="#000000"
           fill-opacity="1"
           id="g92803">
          <g
             id="g92801"
             transform="translate(220.383,14.445)">
            <path
               d="m 3.125,0.0625 -1.265625,-0.5 c -0.3125,-0.125 -1.015625,-0.40625 -1.015625,-1.125 0,-1.03125 1.25,-2.078125 1.5,-2.078125 0.015625,0 0.125,0.03125 0.171875,0.046875 0.3125,0.09375 0.625,0.09375 0.84375,0.09375 0.375,0 1.078125,0 1.078125,-0.34375 C 4.4375,-4.109375 4,-4.140625 3.484375,-4.140625 3.25,-4.140625 2.921875,-4.140625 2.5,-4 2.21875,-4.25 2.09375,-4.625 2.09375,-4.984375 c 0,-0.65625 0.421875,-1.59375 1.375,-2.03125 0.21875,0.25 0.5,0.25 0.75,0.25 0.296875,0 1.03125,0 1.03125,-0.34375 0,-0.296875 -0.578125,-0.296875 -0.953125,-0.296875 -0.25,0 -0.421875,0 -0.765625,0.0625 -0.046875,-0.15625 -0.0625,-0.171875 -0.0625,-0.4375 0,-0.21875 0.046875,-0.375 0.046875,-0.421875 0,-0.0625 -0.0625,-0.109375 -0.125,-0.109375 -0.1875,0 -0.1875,0.4375 -0.1875,0.53125 0,0.171875 0.015625,0.328125 0.078125,0.484375 -1.421875,0.421875 -2.0625,1.4375 -2.0625,2.21875 0,0.71875 0.484375,1.109375 0.796875,1.28125 -1.234375,0.671875 -1.75,1.890625 -1.75,2.546875 0,1.03125 0.9375,1.40625 1.375,1.578125 l 1.078125,0.4375 C 3.015625,0.875 3.5,1.078125 3.578125,1.125 c 0.125,0.078125 0.21875,0.21875 0.21875,0.421875 0,0.25 -0.1875,0.65625 -0.609375,0.65625 -0.171875,0 -0.5625,-0.046875 -1,-0.375 C 2.109375,1.75 2.09375,1.75 2.046875,1.75 c -0.0625,0 -0.125,0.046875 -0.125,0.109375 0,0.140625 0.625,0.578125 1.265625,0.578125 0.765625,0 1.234375,-0.734375 1.234375,-1.25 0,-0.375 -0.203125,-0.671875 -0.578125,-0.84375 z m 0.609375,-7.171875 c 0.203125,-0.0625 0.40625,-0.0625 0.5625,-0.0625 0.40625,0 0.4375,0.015625 0.671875,0.078125 C 4.828125,-7.046875 4.734375,-7 4.234375,-7 4,-7 3.859375,-7 3.734375,-7.109375 Z M 2.78125,-3.84375 c 0.296875,-0.0625 0.546875,-0.0625 0.703125,-0.0625 0.390625,0 0.40625,0.015625 0.671875,0.0625 -0.125,0.0625 -0.234375,0.109375 -0.75,0.109375 -0.28125,0 -0.40625,0 -0.625,-0.109375 z m 0,0"
               id="path92799" />
          </g>
        </g>
      </g>
    </g>
  </g>
</svg>
