<?xml version="1.0" encoding="UTF-8" standalone="no"?>
<!-- Created with Inkscape (http://www.inkscape.org/) -->

<svg
   width="64.456238mm"
   height="33.056168mm"
   viewBox="0 0 64.456238 33.056167"
   version="1.1"
   id="svg47896"
   inkscape:version="1.2.1 (9c6d41e410, 2022-07-14)"
   sodipodi:docname="Nanson.svg"
   xmlns:inkscape="http://www.inkscape.org/namespaces/inkscape"
   xmlns:sodipodi="http://sodipodi.sourceforge.net/DTD/sodipodi-0.dtd"
   xmlns:xlink="http://www.w3.org/1999/xlink"
   xmlns="http://www.w3.org/2000/svg"
   xmlns:svg="http://www.w3.org/2000/svg">
  <sodipodi:namedview
     id="namedview47898"
     pagecolor="#ffffff"
     bordercolor="#000000"
     borderopacity="0.25"
     inkscape:showpageshadow="2"
     inkscape:pageopacity="0.0"
     inkscape:pagecheckerboard="0"
     inkscape:deskcolor="#d1d1d1"
     inkscape:document-units="mm"
     showgrid="false"
     inkscape:lockguides="true"
     inkscape:zoom="2.1089995"
     inkscape:cx="58.795652"
     inkscape:cy="95.305855"
     inkscape:window-width="1920"
     inkscape:window-height="1017"
     inkscape:window-x="1912"
     inkscape:window-y="-8"
     inkscape:window-maximized="1"
     inkscape:current-layer="layer1" />
  <defs
     id="defs47893">
    <linearGradient
       inkscape:collect="always"
       id="linearGradient82578">
      <stop
         style="stop-color:#000000;stop-opacity:0;"
         offset="0"
         id="stop82576" />
      <stop
         style="stop-color:#000000;stop-opacity:0.2;"
         offset="1"
         id="stop82574" />
    </linearGradient>
    <linearGradient
       inkscape:collect="always"
       id="linearGradient82496">
      <stop
         style="stop-color:#000000;stop-opacity:0;"
         offset="0"
         id="stop82494" />
      <stop
         style="stop-color:#000000;stop-opacity:0.2;"
         offset="1"
         id="stop82492" />
    </linearGradient>
    <linearGradient
       inkscape:collect="always"
       id="linearGradient82150">
      <stop
         style="stop-color:#000000;stop-opacity:0.30000001;"
         offset="0"
         id="stop82146" />
      <stop
         style="stop-color:#000000;stop-opacity:0;"
         offset="1"
         id="stop82148" />
    </linearGradient>
    <linearGradient
       inkscape:collect="always"
       id="linearGradient81105">
      <stop
         style="stop-color:#000000;stop-opacity:0.30000001;"
         offset="0"
         id="stop81101" />
      <stop
         style="stop-color:#000000;stop-opacity:0;"
         offset="1"
         id="stop81103" />
    </linearGradient>
    <linearGradient
       inkscape:collect="always"
       id="linearGradient79582">
      <stop
         style="stop-color:#000000;stop-opacity:0;"
         offset="0"
         id="stop79580" />
      <stop
         style="stop-color:#000000;stop-opacity:0.30000001;"
         offset="1"
         id="stop79578" />
    </linearGradient>
    <linearGradient
       inkscape:collect="always"
       id="linearGradient79500">
      <stop
         style="stop-color:#000000;stop-opacity:0;"
         offset="0"
         id="stop79498" />
      <stop
         style="stop-color:#000000;stop-opacity:0.30000001;"
         offset="1"
         id="stop79496" />
    </linearGradient>
    <marker
       style="overflow:visible"
       id="TriangleStart"
       refX="2"
       refY="0"
       orient="auto-start-reverse"
       inkscape:stockid="TriangleStart"
       markerWidth="10"
       markerHeight="5"
       viewBox="0 0 5.3244081 6.1553851"
       inkscape:isstock="true"
       inkscape:collect="always"
       preserveAspectRatio="none">
      <path
         transform="scale(0.5)"
         style="fill:context-stroke;fill-rule:evenodd;stroke:context-stroke;stroke-width:1pt"
         d="M 5.77,0 -2.88,5 V -5 Z"
         id="path135" />
    </marker>
    <marker
       style="overflow:visible"
       id="marker3961-4"
       refX="6"
       refY="0"
       orient="auto-start-reverse"
       inkscape:stockid="Arrow2"
       markerWidth="7.6999998"
       markerHeight="5.5999999"
       viewBox="0 0 7.7 5.6"
       inkscape:isstock="true"
       inkscape:collect="always"
       preserveAspectRatio="xMidYMid">
      <path
         transform="scale(0.7)"
         d="M -2,-4 9,0 -2,4 c 2,-2.33 2,-5.66 0,-8 z"
         style="fill:context-stroke;fill-rule:evenodd;stroke:none"
         id="path3959-5" />
    </marker>
    <clipPath
       id="clipPath1570">
      <path
         clip-rule="nonzero"
         d="m 219,9 h 8 v 5.445313 h -8 z m 0,0"
         id="path33081" />
    </clipPath>
    <clipPath
       id="clipPath1285">
      <path
         clip-rule="nonzero"
         d="m 218,6 h 11 v 8.445313 h -11 z m 0,0"
         id="path76578" />
    </clipPath>
    <clipPath
       id="clipPath4272">
      <path
         clip-rule="nonzero"
         d="m 219,9 h 8 v 5.445313 h -8 z m 0,0"
         id="path8262" />
    </clipPath>
    <clipPath
       id="clipPath497">
      <path
         clip-rule="nonzero"
         d="m 219,9 h 8 v 5.445313 h -8 z m 0,0"
         id="path19080" />
    </clipPath>
    <clipPath
       id="clipPath1682">
      <path
         clip-rule="nonzero"
         d="m 221,6 h 5 v 8.445313 h -5 z m 0,0"
         id="path81838" />
    </clipPath>
    <clipPath
       id="clipPath9575">
      <path
         clip-rule="nonzero"
         d="m 228,10 h 5 v 6.238281 h -5 z m 0,0"
         id="path97593" />
    </clipPath>
    <clipPath
       id="clipPath1918">
      <path
         clip-rule="nonzero"
         d="m 216,5 h 15 v 9.445313 h -15 z m 0,0"
         id="path57302" />
    </clipPath>
    <clipPath
       id="clipPath9644">
      <path
         clip-rule="nonzero"
         d="m 221,6 h 5 v 10.707031 h -5 z m 0,0"
         id="path8422" />
    </clipPath>
    <clipPath
       id="clipPath5656">
      <path
         clip-rule="nonzero"
         d="m 219,9 h 9 v 5.445313 h -9 z m 0,0"
         id="path1974" />
    </clipPath>
    <clipPath
       id="clipPath4208">
      <path
         clip-rule="nonzero"
         d="m 225,10 h 5 v 6.238281 h -5 z m 0,0"
         id="path1329" />
    </clipPath>
    <clipPath
       id="clipPath7943">
      <path
         clip-rule="nonzero"
         d="m 224,12 h 5 v 5.402344 h -5 z m 0,0"
         id="path2707" />
    </clipPath>
    <clipPath
       id="clipPath4622">
      <path
         clip-rule="nonzero"
         d="m 216,6 h 8 v 8.445313 h -8 z m 0,0"
         id="path5475" />
    </clipPath>
    <clipPath
       id="clipPath286">
      <path
         clip-rule="nonzero"
         d="m 227,10 h 5 v 6.238281 h -5 z m 0,0"
         id="path4156" />
    </clipPath>
    <clipPath
       id="clipPath403">
      <path
         clip-rule="nonzero"
         d="m 216,6 h 14 v 8.445313 h -14 z m 0,0"
         id="path7259" />
    </clipPath>
    <clipPath
       clipPathUnits="userSpaceOnUse"
       id="clipPath78749">
      <g
         id="g78753">
        <path
           d="M 161.34701,245.25848 H 294.23437 V 151.22424 H 161.34701 v 94.03424"
           id="path78751"
           style="stroke-width:0.00732525" />
      </g>
    </clipPath>
    <clipPath
       clipPathUnits="userSpaceOnUse"
       id="clipPath78755">
      <g
         id="g78759">
        <path
           d="M 161.34701,245.25848 H 294.23437 V 151.22424 H 161.34701 v 94.03424"
           id="path78757"
           style="stroke-width:0.00732525" />
      </g>
    </clipPath>
    <clipPath
       clipPathUnits="userSpaceOnUse"
       id="clipPath78761">
      <g
         id="g78765">
        <path
           d="M 161.34701,245.25848 H 294.23437 V 151.22424 H 161.34701 v 94.03424"
           id="path78763"
           style="stroke-width:0.00732525" />
      </g>
    </clipPath>
    <clipPath
       clipPathUnits="userSpaceOnUse"
       id="clipPath78767">
      <g
         id="g78771">
        <path
           d="M 161.34701,245.25848 H 294.23437 V 151.22424 H 161.34701 v 94.03424"
           id="path78769"
           style="stroke-width:0.00732525" />
      </g>
    </clipPath>
    <clipPath
       clipPathUnits="userSpaceOnUse"
       id="clipPath78773">
      <g
         id="g78777">
        <path
           d="M 161.34701,245.25848 H 294.23437 V 151.22424 H 161.34701 v 94.03424"
           id="path78775"
           style="stroke-width:0.00732525" />
      </g>
    </clipPath>
    <clipPath
       clipPathUnits="userSpaceOnUse"
       id="clipPath78779">
      <g
         id="g78783">
        <path
           d="M 161.34701,245.25848 H 294.23437 V 151.22424 H 161.34701 v 94.03424"
           id="path78781"
           style="stroke-width:0.00732525" />
      </g>
    </clipPath>
    <clipPath
       clipPathUnits="userSpaceOnUse"
       id="clipPath78785">
      <g
         id="g78789">
        <path
           d="M 161.34701,245.25848 H 294.23437 V 151.22424 H 161.34701 v 94.03424"
           id="path78787"
           style="stroke-width:0.00732525" />
      </g>
    </clipPath>
    <clipPath
       clipPathUnits="userSpaceOnUse"
       id="clipPath78791">
      <g
         id="g78795">
        <path
           d="M 161.34701,245.25848 H 294.23437 V 151.22424 H 161.34701 v 94.03424"
           id="path78793"
           style="stroke-width:0.00732525" />
      </g>
    </clipPath>
    <clipPath
       clipPathUnits="userSpaceOnUse"
       id="clipPath78797">
      <g
         id="g78801"
         transform="matrix(-136.32158,7.2475244,7.2475244,136.32158,33991.272,-27317.862)">
        <path
           d="M 161.34701,245.25848 H 294.23437 V 151.22424 H 161.34701 v 94.03424"
           id="path78799"
           style="stroke-width:0.00732525" />
      </g>
    </clipPath>
    <clipPath
       clipPathUnits="userSpaceOnUse"
       id="clipPath78803">
      <g
         id="g78807"
         transform="matrix(-136.32158,7.2475244,7.2475244,136.32158,33531.574,-29428.433)">
        <path
           d="M 161.34701,245.25848 H 294.23437 V 151.22424 H 161.34701 v 94.03424"
           id="path78805"
           style="stroke-width:0.00732525" />
      </g>
    </clipPath>
    <clipPath
       clipPathUnits="userSpaceOnUse"
       id="clipPath78809">
      <g
         id="g78813"
         transform="matrix(-132.41017,-33.220649,-33.220649,132.41017,35808.17,-16947.265)">
        <path
           d="M 161.34701,245.25848 H 294.23437 V 151.22424 H 161.34701 v 94.03424"
           id="path78811"
           style="stroke-width:0.00732525" />
      </g>
    </clipPath>
    <clipPath
       clipPathUnits="userSpaceOnUse"
       id="clipPath78815">
      <g
         id="g78819"
         transform="matrix(-132.41017,-33.220649,-33.220649,132.41017,35442.54,-19106.137)">
        <path
           d="M 161.34701,245.25848 H 294.23437 V 151.22424 H 161.34701 v 94.03424"
           id="path78817"
           style="stroke-width:0.00732525" />
      </g>
    </clipPath>
    <radialGradient
       inkscape:collect="always"
       xlink:href="#linearGradient79500"
       id="radialGradient79502"
       cx="0"
       cy="0"
       fx="0"
       fy="0"
       r="1585.5597"
       gradientTransform="scale(1,0.36741579)"
       gradientUnits="userSpaceOnUse" />
    <radialGradient
       inkscape:collect="always"
       xlink:href="#linearGradient79582"
       id="radialGradient79584"
       cx="0"
       cy="0"
       fx="0"
       fy="0"
       r="1585.5597"
       gradientTransform="scale(1,0.3674158)"
       gradientUnits="userSpaceOnUse" />
    <linearGradient
       inkscape:collect="always"
       xlink:href="#linearGradient81105"
       id="linearGradient81107"
       x1="13.223622"
       y1="56.915508"
       x2="95.916481"
       y2="81.634277"
       gradientUnits="userSpaceOnUse" />
    <linearGradient
       inkscape:collect="always"
       xlink:href="#linearGradient82150"
       id="linearGradient82152"
       x1="152.3157"
       y1="75.881973"
       x2="237.214"
       y2="83.655815"
       gradientUnits="userSpaceOnUse" />
    <radialGradient
       inkscape:collect="always"
       xlink:href="#linearGradient82496"
       id="radialGradient82498"
       cx="0"
       cy="0"
       fx="0"
       fy="0"
       r="1585.5597"
       gradientTransform="scale(1,0.36741579)"
       gradientUnits="userSpaceOnUse" />
    <radialGradient
       inkscape:collect="always"
       xlink:href="#linearGradient82578"
       id="radialGradient82580"
       cx="0"
       cy="0"
       fx="0"
       fy="0"
       r="1585.5597"
       gradientTransform="scale(1,0.3674158)"
       gradientUnits="userSpaceOnUse" />
  </defs>
  <g
     inkscape:label="Camada 1"
     inkscape:groupmode="layer"
     id="layer1"
     transform="translate(-206.42931,-173.49482)">
    <path
       id="path82083"
       style="fill:url(#linearGradient82152);fill-opacity:1;stroke-width:0.237079;stroke-dasharray:none"
       d="M 241.47657 52.339844 C 241.41763 52.340099 241.35809 52.346196 241.29883 52.361329 C 239.69112 53.296911 238.49164 54.877267 236.81836 55.771485 C 228.90697 60.618055 219.56532 62.762005 210.43164 64.093751 C 206.22295 64.680167 201.98867 64.936084 197.75586 65.158204 C 197.33516 65.341935 197.09355 65.650785 196.93555 66.015626 C 196.46807 65.024368 194.78235 65.515543 193.85352 65.277345 C 183.60619 64.933727 173.10241 64.153673 163.63281 59.757813 C 160.99441 58.571086 158.74935 56.6912 157.03125 54.38086 C 156.65641 54.020641 156.05446 54.163163 155.79102 54.585938 C 152.78912 71.376317 150.26979 88.264466 147.44531 105.08594 C 147.44724 105.89659 148.08754 106.04456 148.66406 105.83789 C 147.7871 106.90978 147.1015 108.11596 146.77149 109.51758 C 146.31199 112.17211 147.77503 114.64147 149.76172 116.27735 C 154.93641 120.47677 161.67717 121.97216 168.08203 123.17774 C 176.75746 124.78733 185.63038 124.32855 194.39844 124.05274 C 202.98257 123.40378 211.53678 121.7089 219.63086 118.74805 C 224.59918 116.74536 230.02903 114.30651 232.78321 109.4375 C 233.84571 107.65304 233.66688 105.54496 232.76758 103.77344 C 234.03445 104.50022 234.24347 102.64656 234.32227 101.78516 C 237.06549 85.574828 239.6924 69.337444 242.28711 53.107423 C 242.26952 52.682216 241.88908 52.338059 241.47657 52.339844 z M 189.36133 68.808595 C 190.44261 69.391637 189.5677 70.974995 189.39258 71.882813 C 189.08583 72.652054 188.8597 73.678498 188.68164 74.361329 C 187.72054 73.993906 188.80287 72.801328 188.80469 72.138673 C 189.1511 71.109052 189.56913 69.76659 189.36133 68.808595 z M 184.54492 68.857423 C 184.91587 69.162295 185.88045 69.15302 185.22656 69.720704 C 184.35148 71.199344 184.32993 73.045001 183.58203 74.517579 C 183.00089 74.384697 183.80395 73.077159 183.70508 72.603517 C 183.99973 71.405831 184.31864 69.923303 184.54492 68.857423 z M 190.4961 78.429688 L 190.55274 78.660157 L 190.58985 78.816407 C 191.08772 80.938221 191.59487 83.070887 192.06836 85.191407 C 190.48742 85.155877 190.62957 86.15679 189.42578 85.191407 C 187.95498 85.496284 189.38435 83.562132 189.33985 82.773439 C 189.72619 81.325415 190.11502 79.879109 190.4961 78.429688 z M 192.83985 92.119142 C 193.2766 93.057563 194.53273 92.804719 195.56446 92.82422 C 194.80695 92.847471 194.04904 92.873938 193.29297 92.919923 C 192.85697 93.056676 192.61332 93.340989 192.45508 93.689454 C 192.38191 93.433595 192.24328 93.197196 192.0293 92.986329 C 192.38658 92.817804 192.66173 92.503044 192.83985 92.119142 z M 190.23633 92.677736 C 190.39553 92.679537 190.53768 92.814221 190.76172 92.937501 C 190.56947 93.044718 190.42523 93.191172 190.32813 93.375001 C 190.32748 93.349687 190.3288 93.324139 190.32813 93.298829 C 190.31159 93.048401 190.1166 92.932634 189.90235 92.85547 C 190.03687 92.730813 190.14138 92.676661 190.23633 92.677736 z M 190.30469 99.572267 C 190.37634 99.712728 190.47011 99.843131 190.5918 99.958986 C 190.94469 100.04617 191.19244 99.982542 191.3711 99.826173 C 190.97008 102.28632 190.57728 104.7478 190.14649 107.20313 C 190.16227 104.66616 190.24698 102.11642 190.30469 99.572267 z M 216.33203 106.35352 C 216.84772 106.86746 217.74317 107.17329 218.28516 107.34961 C 217.63809 107.20045 216.52743 106.91973 216.33203 106.35352 z M 210.6875 107.09961 C 210.67008 107.16082 210.6576 107.2327 210.64063 107.29492 C 210.61849 107.2512 210.59345 107.20852 210.56641 107.16602 C 210.60671 107.14417 210.64672 107.1321 210.6875 107.09961 z M 209.51953 111.84961 C 209.51282 111.87034 209.50679 111.89552 209.5 111.91602 C 209.4902 111.91245 209.4805 111.91537 209.47071 111.91211 C 209.48679 111.89092 209.50406 111.87133 209.51953 111.84961 z "
       transform="matrix(0.26458333,0,0,0.26458333,206.42931,173.49482)" />
    <path
       id="path81008"
       style="fill:url(#linearGradient81107);fill-opacity:1;stroke-width:0.16764;stroke-dasharray:none"
       d="M 24.433594 32.509766 C 24.327238 32.517516 24.221355 32.545843 24.119141 32.597657 C 23.116831 33.77698 22.722566 35.390857 21.990235 36.75 C 15.444729 51.383924 9.0197324 66.076358 2.6367188 80.779298 C 2.5764249 81.395882 3.0039852 81.65397 3.484375 81.654298 C 1.7231209 82.980963 0.30048347 84.889049 0.44921876 87.179689 C 0.66709944 90.934945 3.4837475 93.860814 6.1132813 96.26172 C 12.850079 102.01506 21.099788 105.64425 29.382813 108.57227 C 40.128896 112.21268 51.395947 114.52883 62.759766 114.76172 C 68.956865 114.65095 75.508226 114.44886 81.06836 111.38672 C 83.614678 110.03039 85.710068 107.24215 85.134767 104.23633 C 85.654188 104.59988 86.451421 104.06977 86.523439 103.38477 C 93.441382 87.69315 100.34218 71.993601 107.14063 56.250001 C 107.25774 55.779966 106.93436 55.280951 106.46875 55.250001 C 106.40224 55.245579 106.33114 55.251507 106.25977 55.267579 C 104.10612 56.156838 102.08919 57.245835 99.794923 57.707032 C 94.807428 58.968647 89.663046 58.817738 84.525392 58.810548 C 77.126308 58.550031 69.738314 57.149567 62.507813 55.431641 C 61.9334 55.287747 61.124952 55.117441 60.66211 55.498048 C 60.378344 54.404725 58.766132 54.526718 57.908204 54.126954 C 48.735043 51.164589 39.557821 47.597118 31.919922 41.572266 C 29.097005 39.29196 26.259984 36.574255 25.208985 32.962891 C 25.064143 32.653772 24.752662 32.486515 24.433594 32.509766 z M 51.541016 61.263673 L 51.542969 61.375001 C 51.559269 63.59121 51.569254 65.834335 51.501954 68.056641 C 50.813413 67.514813 49.889894 68.254079 49.546876 67.705079 C 49.220132 67.283423 47.90646 67.528673 48.572266 66.810548 C 49.55548 64.958321 50.530432 63.101144 51.541016 61.263673 z M 30.732422 61.894532 C 31.057299 62.175911 31.885942 62.420195 31.308594 62.85547 C 30.516385 64.326087 30.492965 66.05981 29.773438 67.513673 C 29.362277 67.482213 29.902696 66.473518 29.875 66.103516 C 30.149666 64.71731 30.700375 63.321898 30.732422 61.894532 z M 35.679688 61.955079 L 35.744141 62.000001 C 36.535496 62.716916 35.818107 63.915501 35.636719 64.779298 C 35.322863 65.605209 35.023032 66.703505 34.861329 67.425782 C 34.187947 66.696287 35.078818 65.620529 35.222657 64.810548 C 35.46895 63.887995 35.845701 62.921782 35.679688 61.955079 z M 46.642579 80.833985 C 46.80319 80.841995 46.955594 80.927254 47.146485 81.117189 C 46.96221 81.131038 46.77874 81.150469 46.638672 81.189454 C 46.611493 81.23488 46.587977 81.281907 46.562501 81.328126 C 46.514726 81.126998 46.408153 80.983887 46.275391 80.867189 C 46.4137 80.845875 46.536231 80.828682 46.642579 80.833985 z M 49.429688 81.31836 C 49.45876 81.444876 49.505139 81.557343 49.574219 81.652345 C 49.294246 81.6889 49.080428 81.87693 48.896485 82.111329 C 48.902713 82.087137 48.909921 82.063292 48.916016 82.039064 C 48.896452 81.866301 48.826238 81.730752 48.736329 81.611329 C 49.007028 81.604797 49.24979 81.52177 49.429688 81.31836 z M 44.822266 88.775392 C 44.83301 88.806816 44.844688 88.83784 44.857422 88.869142 C 45.175714 89.202745 45.492338 89.221332 45.769532 89.078126 C 45.011093 90.804011 44.248469 92.527656 43.468751 94.244142 C 43.891017 92.41672 44.358655 90.596444 44.822266 88.775392 z "
       transform="matrix(0.26458333,0,0,0.26458333,206.42931,173.49482)" />
    <path
       style="fill:none;stroke:#000000;stroke-width:0.26458333;stroke-dasharray:none;marker-end:url(#marker3961-4)"
       d="m 229.80931,180.08898 c 14.99194,-5.85483 22.53225,3.10484 22.53225,3.10484"
       id="path26440"
       sodipodi:nodetypes="cc" />
    <g
       inkscape:label=""
       transform="translate(240.63977,173.49482)"
       id="g14951">
      <g
         clip-path="url(#clipPath9644)"
         id="g17"
         transform="matrix(0.352778,0,0,0.352778,-78.0851,-2.2244)">
        <g
           fill="#000000"
           fill-opacity="1"
           id="g15">
          <g
             id="use13"
             transform="translate(220.90601,14.446)">
            <path
               d="M 3.03125,-4.84375 C 2.796875,-5.625 1.796875,-5.953125 1.796875,-6.703125 c 0,-0.375 0.265625,-0.59375 0.671875,-0.59375 0.390625,0 0.734375,0.4375 0.921875,0.734375 h 0.1875 l 0.875,-0.984375 C 4.15625,-7.8125 3.734375,-8.140625 3.3125,-8.140625 c -1.25,0 -1.859375,1.015625 -2.125,1.921875 0.109375,0.484375 0.15625,0.90625 0.3125,1.375 H 0.625 l -0.1875,0.453125 v 0.09375 h 1.171875 v 4.078125 c 0,0.5 -0.046875,1.046875 -0.109375,1.5 C 1.4375,1.6875 1.125,2.4375 0.953125,2.84375 L 1.1875,2.890625 2.546875,0.40625 c 0.09375,-0.171875 0.171875,-0.375 0.21875,-0.546875 0.21875,-1.328125 0.21875,-2.75 0.21875,-4.15625 H 4.4375 L 4.625,-4.75 v -0.09375 z m 0,0"
               id="path23" />
          </g>
        </g>
      </g>
    </g>
    <g
       inkscape:label=""
       transform="translate(254.47858,191.46678)"
       id="g15196">
      <g
         clip-path="url(#clipPath5656)"
         id="g15194"
         transform="matrix(0.352778,0,0,0.352778,-77.379,-3.18902)">
        <g
           fill="#000000"
           fill-opacity="1"
           id="g15192">
          <g
             id="g15190"
             transform="translate(218.967,14.446)">
            <path
               d="M 3.34375,-4.5 C 3.171875,-5.09375 2.515625,-5.40625 1.875,-5.40625 c -0.4375,0 -0.78125,0.25 -1.03125,0.6875 -0.3125,0.46875 -0.46875,1.125 -0.46875,1.1875 0,0.15625 0.1875,0.15625 0.296875,0.15625 0.125,0 0.171875,0 0.234375,-0.0625 C 0.9375,-3.453125 0.9375,-3.484375 1,-3.78125 c 0.25,-0.921875 0.5,-1.1875 0.8125,-1.1875 0.1875,0 0.28125,0.109375 0.28125,0.4375 0,0.203125 -0.046875,0.390625 -0.171875,0.875 C 1.84375,-3.328125 1.71875,-2.84375 1.65625,-2.578125 L 1.234375,-0.90625 c -0.046875,0.171875 -0.09375,0.390625 -0.09375,0.46875 0,0.265625 0.1875,0.53125 0.5625,0.53125 0.609375,0 0.765625,-0.546875 0.84375,-0.90625 C 2.671875,-1.25 2.765625,-1.640625 2.875,-2.15625 2.921875,-2.3125 3.234375,-3.53125 3.25,-3.578125 3.265625,-3.640625 3.59375,-4.1875 4,-4.5 c 0.328125,-0.265625 0.71875,-0.46875 1.21875,-0.46875 0.3125,0 0.609375,0.109375 0.609375,0.703125 0,0.6875 -0.53125,2.078125 -0.765625,2.671875 -0.125,0.328125 -0.15625,0.40625 -0.15625,0.609375 0,0.703125 0.6875,1.078125 1.34375,1.078125 1.265625,0 1.859375,-1.625 1.859375,-1.859375 0,-0.171875 -0.171875,-0.171875 -0.28125,-0.171875 -0.140625,0 -0.21875,0 -0.28125,0.15625 -0.390625,1.328125 -1.03125,1.453125 -1.21875,1.453125 -0.09375,0 -0.203125,0 -0.203125,-0.25 0,-0.28125 0.109375,-0.578125 0.234375,-0.875 0.1875,-0.5 0.734375,-1.890625 0.734375,-2.5625 0,-1.09375 -0.90625,-1.390625 -1.78125,-1.390625 -0.25,0 -1.109375,0 -1.96875,0.90625 z m 0,0"
               id="path15188" />
          </g>
        </g>
      </g>
    </g>
    <g
       inkscape:label=""
       transform="translate(213.79307,189.62693)"
       id="g15398">
      <g
         fill="#000000"
         fill-opacity="1"
         id="g19"
         transform="matrix(0.352778,0,0,0.352778,-76.544,-3.18902)">
        <g
           id="use17"
           transform="translate(216.60001,14.446)">
          <path
             d="M 3.34375,-4.5 C 3.171875,-5.09375 2.515625,-5.40625 1.875,-5.40625 c -0.4375,0 -0.78125,0.25 -1.03125,0.6875 -0.3125,0.46875 -0.46875,1.125 -0.46875,1.1875 0,0.15625 0.1875,0.15625 0.296875,0.15625 0.125,0 0.171875,0 0.234375,-0.0625 C 0.9375,-3.453125 0.9375,-3.484375 1,-3.78125 c 0.25,-0.921875 0.5,-1.1875 0.8125,-1.1875 0.1875,0 0.28125,0.109375 0.28125,0.4375 0,0.203125 -0.046875,0.390625 -0.171875,0.875 C 1.84375,-3.328125 1.71875,-2.84375 1.65625,-2.578125 L 1.234375,-0.90625 c -0.046875,0.171875 -0.09375,0.390625 -0.09375,0.46875 0,0.265625 0.1875,0.53125 0.5625,0.53125 0.609375,0 0.765625,-0.546875 0.84375,-0.90625 C 2.671875,-1.25 2.765625,-1.640625 2.875,-2.15625 2.921875,-2.3125 3.234375,-3.53125 3.25,-3.578125 3.265625,-3.640625 3.59375,-4.1875 4,-4.5 c 0.328125,-0.265625 0.71875,-0.46875 1.21875,-0.46875 0.3125,0 0.609375,0.109375 0.609375,0.703125 0,0.6875 -0.53125,2.078125 -0.765625,2.671875 -0.125,0.328125 -0.15625,0.40625 -0.15625,0.609375 0,0.703125 0.6875,1.078125 1.34375,1.078125 1.265625,0 1.859375,-1.625 1.859375,-1.859375 0,-0.171875 -0.171875,-0.171875 -0.28125,-0.171875 -0.140625,0 -0.21875,0 -0.28125,0.15625 -0.390625,1.328125 -1.03125,1.453125 -1.21875,1.453125 -0.09375,0 -0.203125,0 -0.203125,-0.25 0,-0.28125 0.109375,-0.578125 0.234375,-0.875 0.1875,-0.5 0.734375,-1.890625 0.734375,-2.5625 0,-1.09375 -0.90625,-1.390625 -1.78125,-1.390625 -0.25,0 -1.109375,0 -1.96875,0.90625 z m 0,0"
             id="path31" />
        </g>
      </g>
      <g
         clip-path="url(#clipPath4208)"
         id="g25"
         transform="matrix(0.352778,0,0,0.352778,-76.544,-3.18902)">
        <g
           fill="#000000"
           fill-opacity="1"
           id="g23">
          <g
             id="use21"
             transform="translate(225.12399,16.239)">
            <path
               d="m 3.890625,-2.546875 c 0,-0.84375 -0.078125,-1.359375 -0.34375,-1.875 -0.34375,-0.703125 -1,-0.875 -1.4375,-0.875 -1,0 -1.375,0.75 -1.484375,0.96875 -0.28125,0.578125 -0.296875,1.375 -0.296875,1.78125 0,0.53125 0.015625,1.328125 0.40625,1.96875 0.359375,0.59375 0.953125,0.75 1.375,0.75 0.390625,0 1.0625,-0.125 1.46875,-0.90625 0.296875,-0.578125 0.3125,-1.296875 0.3125,-1.8125 z M 2.109375,-0.0625 C 1.84375,-0.0625 1.296875,-0.1875 1.125,-1.015625 1.03125,-1.46875 1.03125,-2.21875 1.03125,-2.640625 1.03125,-3.1875 1.03125,-3.75 1.125,-4.1875 1.296875,-5 1.90625,-5.078125 2.109375,-5.078125 c 0.265625,0 0.828125,0.140625 0.984375,0.859375 0.09375,0.4375 0.09375,1.046875 0.09375,1.578125 0,0.46875 0,1.1875 -0.09375,1.640625 -0.171875,0.828125 -0.71875,0.9375 -0.984375,0.9375 z m 0,0"
               id="path35" />
          </g>
        </g>
      </g>
    </g>
    <g
       inkscape:label=""
       transform="translate(225.24266,181.97753)"
       id="g15628">
      <g
         fill="#000000"
         fill-opacity="1"
         id="g15619"
         transform="matrix(0.352778,0,0,0.352778,-76.4768,-1.30127)">
        <g
           id="g15617"
           transform="translate(216.19099,14.445)">
          <path
             d="m 3.78125,-7.875 c 0.046875,-0.171875 0.046875,-0.1875 0.046875,-0.203125 0,-0.15625 -0.140625,-0.21875 -0.265625,-0.21875 -0.046875,0 -0.0625,0 -0.078125,0.015625 L 1.9375,-8.21875 c -0.171875,0.015625 -0.390625,0.03125 -0.390625,0.359375 0,0.21875 0.21875,0.21875 0.3125,0.21875 0.140625,0 0.359375,0 0.5,0.03125 l -1.71875,6.890625 c 0,0.046875 -0.046875,0.234375 -0.046875,0.28125 0,0.28125 0.234375,0.53125 0.578125,0.53125 0.078125,0 0.609375,0 0.78125,-0.671875 L 2.671875,-3.40625 C 2.71875,-3.640625 2.71875,-3.65625 2.90625,-3.890625 3.09375,-4.15625 3.6875,-4.96875 4.6875,-4.96875 c 0.3125,0 0.59375,0.109375 0.59375,0.703125 0,0.6875 -0.53125,2.09375 -0.75,2.671875 -0.125,0.328125 -0.171875,0.40625 -0.171875,0.609375 0,0.703125 0.703125,1.078125 1.359375,1.078125 1.265625,0 1.859375,-1.625 1.859375,-1.859375 0,-0.171875 -0.171875,-0.171875 -0.28125,-0.171875 -0.15625,0 -0.234375,0 -0.28125,0.15625 -0.375,1.328125 -1.046875,1.453125 -1.234375,1.453125 -0.078125,0 -0.203125,0 -0.203125,-0.25 0,-0.265625 0.140625,-0.59375 0.203125,-0.78125 0.234375,-0.59375 0.78125,-1.984375 0.78125,-2.65625 0,-1.09375 -0.921875,-1.390625 -1.78125,-1.390625 -0.265625,0 -0.984375,0 -1.8125,0.75 z m 0,0"
             id="path39" />
        </g>
      </g>
      <g
         fill="#000000"
         fill-opacity="1"
         id="g27"
         transform="matrix(0.352778,0,0,0.352778,-76.4768,-1.30127)">
        <g
           id="use25"
           transform="translate(224.172,9.2980003)">
          <path
             d="m 5.34375,-5.390625 c 0.015625,-0.03125 0.03125,-0.078125 0.03125,-0.125 0,-0.046875 -0.046875,-0.09375 -0.109375,-0.09375 -0.046875,0 -0.0625,0.015625 -0.15625,0.109375 C 5.015625,-5.390625 4.8125,-5.140625 4.71875,-5.046875 4.421875,-5.5 3.90625,-5.609375 3.5,-5.609375 c -1.09375,0 -2.046875,0.9375 -2.046875,1.84375 0,0.453125 0.25,0.734375 0.28125,0.78125 0.265625,0.28125 0.5,0.34375 1.078125,0.484375 0.265625,0.0625 0.28125,0.0625 0.515625,0.125 0.234375,0.0625 0.75,0.1875 0.75,0.84375 0,0.6875 -0.6875,1.4375 -1.53125,1.4375 -0.515625,0 -1.46875,-0.15625 -1.46875,-1.15625 0,-0.015625 0,-0.1875 0.046875,-0.375 l 0.015625,-0.078125 c 0,-0.09375 -0.09375,-0.109375 -0.125,-0.109375 -0.09375,0 -0.109375,0.03125 -0.140625,0.21875 l -0.328125,1.296875 c -0.03125,0.125 -0.09375,0.34375 -0.09375,0.359375 0,0.0625 0.046875,0.109375 0.109375,0.109375 0.046875,0 0.0625,-0.015625 0.140625,-0.109375 L 1.09375,-0.390625 c 0.1875,0.234375 0.640625,0.5625 1.4375,0.5625 1.15625,0 2.109375,-1.046875 2.109375,-2 0,-0.375 -0.125,-0.65625 -0.34375,-0.875 C 4.0625,-2.96875 3.796875,-3.03125 3.421875,-3.125 3.203125,-3.1875 2.890625,-3.265625 2.703125,-3.3125 2.46875,-3.359375 2.015625,-3.515625 2.015625,-4.078125 2.015625,-4.703125 2.6875,-5.375 3.5,-5.375 c 0.71875,0 1.203125,0.375 1.203125,1.234375 0,0.203125 -0.03125,0.359375 -0.03125,0.390625 0,0.09375 0.078125,0.109375 0.140625,0.109375 0.09375,0 0.09375,-0.03125 0.125,-0.15625 z m 0,0"
             id="path43" />
        </g>
      </g>
      <g
         clip-path="url(#clipPath7943)"
         id="g33"
         transform="matrix(0.352778,0,0,0.352778,-76.4768,-1.30127)">
        <g
           fill="#000000"
           fill-opacity="1"
           id="g31">
          <g
             id="use29"
             transform="translate(224.172,17.400999)">
            <path
               d="m 3.890625,-2.546875 c 0,-0.84375 -0.078125,-1.359375 -0.34375,-1.875 -0.34375,-0.703125 -1,-0.875 -1.4375,-0.875 -1,0 -1.375,0.75 -1.484375,0.96875 -0.28125,0.578125 -0.296875,1.375 -0.296875,1.78125 0,0.53125 0.015625,1.328125 0.40625,1.96875 0.359375,0.59375 0.953125,0.75 1.375,0.75 0.390625,0 1.0625,-0.125 1.46875,-0.90625 0.296875,-0.578125 0.3125,-1.296875 0.3125,-1.8125 z M 2.109375,-0.0625 C 1.84375,-0.0625 1.296875,-0.1875 1.125,-1.015625 1.03125,-1.46875 1.03125,-2.21875 1.03125,-2.640625 1.03125,-3.1875 1.03125,-3.75 1.125,-4.1875 1.296875,-5 1.90625,-5.078125 2.109375,-5.078125 c 0.265625,0 0.828125,0.140625 0.984375,0.859375 0.09375,0.4375 0.09375,1.046875 0.09375,1.578125 0,0.46875 0,1.1875 -0.09375,1.640625 -0.171875,0.828125 -0.71875,0.9375 -0.984375,0.9375 z m 0,0"
               id="path47" />
          </g>
        </g>
      </g>
    </g>
    <g
       inkscape:label=""
       transform="translate(260.02639,183.27504)"
       id="g15887">
      <g
         clip-path="url(#clipPath4622)"
         id="g21"
         transform="matrix(0.352778,0,0,0.352778,-76.4768,-1.30162)">
        <g
           fill="#000000"
           fill-opacity="1"
           id="g15879">
          <g
             id="g15877"
             transform="translate(216.19099,14.446)">
            <path
               d="m 3.78125,-7.875 c 0.046875,-0.171875 0.046875,-0.1875 0.046875,-0.203125 0,-0.15625 -0.140625,-0.21875 -0.265625,-0.21875 -0.046875,0 -0.0625,0 -0.078125,0.015625 L 1.9375,-8.21875 c -0.171875,0.015625 -0.390625,0.03125 -0.390625,0.359375 0,0.21875 0.21875,0.21875 0.3125,0.21875 0.140625,0 0.359375,0 0.5,0.03125 l -1.71875,6.890625 c 0,0.046875 -0.046875,0.234375 -0.046875,0.28125 0,0.28125 0.234375,0.53125 0.578125,0.53125 0.078125,0 0.609375,0 0.78125,-0.671875 L 2.671875,-3.40625 C 2.71875,-3.640625 2.71875,-3.65625 2.90625,-3.890625 3.09375,-4.15625 3.6875,-4.96875 4.6875,-4.96875 c 0.3125,0 0.59375,0.109375 0.59375,0.703125 0,0.6875 -0.53125,2.09375 -0.75,2.671875 -0.125,0.328125 -0.171875,0.40625 -0.171875,0.609375 0,0.703125 0.703125,1.078125 1.359375,1.078125 1.265625,0 1.859375,-1.625 1.859375,-1.859375 0,-0.171875 -0.171875,-0.171875 -0.28125,-0.171875 -0.15625,0 -0.234375,0 -0.28125,0.15625 -0.375,1.328125 -1.046875,1.453125 -1.234375,1.453125 -0.078125,0 -0.203125,0 -0.203125,-0.25 0,-0.265625 0.140625,-0.59375 0.203125,-0.78125 0.234375,-0.59375 0.78125,-1.984375 0.78125,-2.65625 0,-1.09375 -0.921875,-1.390625 -1.78125,-1.390625 -0.265625,0 -0.984375,0 -1.8125,0.75 z m 0,0"
               id="path15875" />
          </g>
        </g>
      </g>
      <g
         fill="#000000"
         fill-opacity="1"
         id="g15885"
         transform="matrix(0.352778,0,0,0.352778,-76.4768,-1.30162)">
        <g
           id="use23"
           transform="translate(224.172,9.2989998)">
          <path
             d="m 5.34375,-5.390625 c 0.015625,-0.03125 0.03125,-0.078125 0.03125,-0.125 0,-0.046875 -0.046875,-0.09375 -0.109375,-0.09375 -0.046875,0 -0.0625,0.015625 -0.15625,0.109375 C 5.015625,-5.390625 4.8125,-5.140625 4.71875,-5.046875 4.421875,-5.5 3.90625,-5.609375 3.5,-5.609375 c -1.09375,0 -2.046875,0.9375 -2.046875,1.84375 0,0.453125 0.25,0.734375 0.28125,0.78125 0.265625,0.28125 0.5,0.34375 1.078125,0.484375 0.265625,0.0625 0.28125,0.0625 0.515625,0.125 0.234375,0.0625 0.75,0.1875 0.75,0.84375 0,0.6875 -0.6875,1.4375 -1.53125,1.4375 -0.515625,0 -1.46875,-0.15625 -1.46875,-1.15625 0,-0.015625 0,-0.1875 0.046875,-0.375 l 0.015625,-0.078125 c 0,-0.09375 -0.09375,-0.109375 -0.125,-0.109375 -0.09375,0 -0.109375,0.03125 -0.140625,0.21875 l -0.328125,1.296875 c -0.03125,0.125 -0.09375,0.34375 -0.09375,0.359375 0,0.0625 0.046875,0.109375 0.109375,0.109375 0.046875,0 0.0625,-0.015625 0.140625,-0.109375 L 1.09375,-0.390625 c 0.1875,0.234375 0.640625,0.5625 1.4375,0.5625 1.15625,0 2.109375,-1.046875 2.109375,-2 0,-0.375 -0.125,-0.65625 -0.34375,-0.875 C 4.0625,-2.96875 3.796875,-3.03125 3.421875,-3.125 3.203125,-3.1875 2.890625,-3.265625 2.703125,-3.3125 2.46875,-3.359375 2.015625,-3.515625 2.015625,-4.078125 2.015625,-4.703125 2.6875,-5.375 3.5,-5.375 c 0.71875,0 1.203125,0.375 1.203125,1.234375 0,0.203125 -0.03125,0.359375 -0.03125,0.390625 0,0.09375 0.078125,0.109375 0.140625,0.109375 0.09375,0 0.09375,-0.03125 0.125,-0.15625 z m 0,0"
             id="path15882" />
        </g>
      </g>
    </g>
    <g
       inkscape:label=""
       transform="translate(219.91079,199.65329)"
       id="g16160">
      <g
         fill="#000000"
         fill-opacity="1"
         id="g24"
         transform="matrix(0.352778,0,0,0.352778,-75.7433,-2.12518)">
        <g
           id="use20"
           transform="translate(214.22099,14.446)">
          <path
             d="m 6.015625,-8 c 0.015625,-0.046875 0.03125,-0.109375 0.03125,-0.171875 0,-0.125 -0.125,-0.125 -0.140625,-0.125 -0.015625,0 -0.59375,0.046875 -0.65625,0.0625 -0.203125,0.015625 -0.390625,0.03125 -0.59375,0.046875 -0.3125,0.03125 -0.390625,0.03125 -0.390625,0.25 0,0.125 0.09375,0.125 0.265625,0.125 0.578125,0 0.59375,0.109375 0.59375,0.21875 0,0.078125 -0.015625,0.171875 -0.03125,0.203125 l -0.734375,2.90625 c -0.125,-0.3125 -0.453125,-0.78125 -1.078125,-0.78125 -1.34375,0 -2.796875,1.734375 -2.796875,3.515625 0,1.171875 0.6875,1.875 1.5,1.875 0.65625,0 1.21875,-0.515625 1.546875,-0.90625 0.125,0.703125 0.6875,0.90625 1.046875,0.90625 0.359375,0 0.640625,-0.21875 0.859375,-0.65625 0.1875,-0.40625 0.359375,-1.125 0.359375,-1.171875 0,-0.0625 -0.046875,-0.109375 -0.125,-0.109375 C 5.5625,-1.8125 5.5625,-1.75 5.515625,-1.578125 5.328125,-0.875 5.109375,-0.125 4.609375,-0.125 4.265625,-0.125 4.25,-0.4375 4.25,-0.671875 c 0,-0.046875 0,-0.296875 0.078125,-0.625 z M 3.59375,-1.421875 C 3.53125,-1.21875 3.53125,-1.1875 3.375,-0.96875 3.109375,-0.640625 2.578125,-0.125 2.015625,-0.125 1.53125,-0.125 1.25,-0.5625 1.25,-1.265625 c 0,-0.65625 0.375,-2 0.609375,-2.5 0.40625,-0.84375 0.96875,-1.265625 1.421875,-1.265625 0.796875,0 0.953125,0.984375 0.953125,1.078125 0,0.015625 -0.03125,0.15625 -0.046875,0.1875 z m 0,0"
             id="path36" />
        </g>
        <g
           id="use22"
           transform="translate(220.3038,14.446)">
          <path
             d="m 7.59375,-8.3125 c 0,-0.109375 -0.09375,-0.109375 -0.109375,-0.109375 -0.046875,0 -0.0625,0.015625 -0.203125,0.203125 C 7.203125,-8.140625 6.71875,-7.515625 6.703125,-7.5 6.3125,-8.28125 5.515625,-8.421875 5.015625,-8.421875 3.5,-8.421875 2.125,-7.03125 2.125,-5.671875 2.125,-4.78125 2.671875,-4.25 3.25,-4.046875 3.375,-4 4.09375,-3.8125 4.453125,-3.734375 5.0625,-3.5625 5.21875,-3.515625 5.46875,-3.25 5.515625,-3.1875 5.75,-2.921875 5.75,-2.359375 5.75,-1.25 4.71875,-0.09375 3.53125,-0.09375 c -0.984375,0 -2.078125,-0.421875 -2.078125,-1.765625 0,-0.21875 0.046875,-0.5 0.09375,-0.625 0,-0.03125 0,-0.09375 0,-0.125 0,-0.046875 -0.015625,-0.109375 -0.109375,-0.109375 -0.109375,0 -0.125,0.03125 -0.171875,0.234375 L 0.65625,-0.03125 c 0,0 -0.046875,0.15625 -0.046875,0.171875 C 0.609375,0.25 0.703125,0.25 0.734375,0.25 0.78125,0.25 0.78125,0.234375 0.9375,0.0625 L 1.484375,-0.65625 C 1.765625,-0.234375 2.390625,0.25 3.5,0.25 c 1.546875,0 2.953125,-1.5 2.953125,-2.984375 0,-0.5 -0.125,-0.953125 -0.578125,-1.390625 -0.25,-0.25 -0.453125,-0.3125 -1.5625,-0.59375 -0.796875,-0.21875 -0.90625,-0.25 -1.125,-0.4375 -0.203125,-0.203125 -0.359375,-0.5 -0.359375,-0.90625 0,-1 1.015625,-2.03125 2.15625,-2.03125 1.171875,0 1.71875,0.71875 1.71875,1.859375 0,0.3125 -0.0625,0.625 -0.0625,0.671875 0,0.109375 0.09375,0.109375 0.140625,0.109375 0.109375,0 0.109375,-0.03125 0.15625,-0.21875 z m 0,0"
             id="path40" />
        </g>
      </g>
      <g
         clip-path="url(#clipPath286)"
         id="g30"
         transform="matrix(0.352778,0,0,0.352778,-75.7433,-2.12518)">
        <g
           fill="#000000"
           fill-opacity="1"
           id="g28">
          <g
             id="use26"
             transform="translate(227.50301,16.239)">
            <path
               d="m 3.890625,-2.546875 c 0,-0.84375 -0.078125,-1.359375 -0.34375,-1.875 -0.34375,-0.703125 -1,-0.875 -1.4375,-0.875 -1,0 -1.375,0.75 -1.484375,0.96875 -0.28125,0.578125 -0.296875,1.375 -0.296875,1.78125 0,0.53125 0.015625,1.328125 0.40625,1.96875 0.359375,0.59375 0.953125,0.75 1.375,0.75 0.390625,0 1.0625,-0.125 1.46875,-0.90625 0.296875,-0.578125 0.3125,-1.296875 0.3125,-1.8125 z M 2.109375,-0.0625 C 1.84375,-0.0625 1.296875,-0.1875 1.125,-1.015625 1.03125,-1.46875 1.03125,-2.21875 1.03125,-2.640625 1.03125,-3.1875 1.03125,-3.75 1.125,-4.1875 1.296875,-5 1.90625,-5.078125 2.109375,-5.078125 c 0.265625,0 0.828125,0.140625 0.984375,0.859375 0.09375,0.4375 0.09375,1.046875 0.09375,1.578125 0,0.46875 0,1.1875 -0.09375,1.640625 -0.171875,0.828125 -0.71875,0.9375 -0.984375,0.9375 z m 0,0"
               id="path44" />
          </g>
        </g>
      </g>
    </g>
    <g
       inkscape:label=""
       transform="translate(260.70501,200.4297)"
       id="g16456">
      <g
         clip-path="url(#clipPath403)"
         id="g22"
         transform="matrix(0.352778,0,0,0.352778,-76.4552,-2.12518)">
        <g
           fill="#000000"
           fill-opacity="1"
           id="g20">
          <g
             id="use16"
             transform="translate(216.239,14.446)">
            <path
               d="m 6.015625,-8 c 0.015625,-0.046875 0.03125,-0.109375 0.03125,-0.171875 0,-0.125 -0.125,-0.125 -0.140625,-0.125 -0.015625,0 -0.59375,0.046875 -0.65625,0.0625 -0.203125,0.015625 -0.390625,0.03125 -0.59375,0.046875 -0.3125,0.03125 -0.390625,0.03125 -0.390625,0.25 0,0.125 0.09375,0.125 0.265625,0.125 0.578125,0 0.59375,0.109375 0.59375,0.21875 0,0.078125 -0.015625,0.171875 -0.03125,0.203125 l -0.734375,2.90625 c -0.125,-0.3125 -0.453125,-0.78125 -1.078125,-0.78125 -1.34375,0 -2.796875,1.734375 -2.796875,3.515625 0,1.171875 0.6875,1.875 1.5,1.875 0.65625,0 1.21875,-0.515625 1.546875,-0.90625 0.125,0.703125 0.6875,0.90625 1.046875,0.90625 0.359375,0 0.640625,-0.21875 0.859375,-0.65625 0.1875,-0.40625 0.359375,-1.125 0.359375,-1.171875 0,-0.0625 -0.046875,-0.109375 -0.125,-0.109375 C 5.5625,-1.8125 5.5625,-1.75 5.515625,-1.578125 5.328125,-0.875 5.109375,-0.125 4.609375,-0.125 4.265625,-0.125 4.25,-0.4375 4.25,-0.671875 c 0,-0.046875 0,-0.296875 0.078125,-0.625 z M 3.59375,-1.421875 C 3.53125,-1.21875 3.53125,-1.1875 3.375,-0.96875 3.109375,-0.640625 2.578125,-0.125 2.015625,-0.125 1.53125,-0.125 1.25,-0.5625 1.25,-1.265625 c 0,-0.65625 0.375,-2 0.609375,-2.5 0.40625,-0.84375 0.96875,-1.265625 1.421875,-1.265625 0.796875,0 0.953125,0.984375 0.953125,1.078125 0,0.015625 -0.03125,0.15625 -0.046875,0.1875 z m 0,0"
               id="path28" />
          </g>
          <g
             id="use18"
             transform="translate(222.32181,14.446)">
            <path
               d="m 7.59375,-8.3125 c 0,-0.109375 -0.09375,-0.109375 -0.109375,-0.109375 -0.046875,0 -0.0625,0.015625 -0.203125,0.203125 C 7.203125,-8.140625 6.71875,-7.515625 6.703125,-7.5 6.3125,-8.28125 5.515625,-8.421875 5.015625,-8.421875 3.5,-8.421875 2.125,-7.03125 2.125,-5.671875 2.125,-4.78125 2.671875,-4.25 3.25,-4.046875 3.375,-4 4.09375,-3.8125 4.453125,-3.734375 5.0625,-3.5625 5.21875,-3.515625 5.46875,-3.25 5.515625,-3.1875 5.75,-2.921875 5.75,-2.359375 5.75,-1.25 4.71875,-0.09375 3.53125,-0.09375 c -0.984375,0 -2.078125,-0.421875 -2.078125,-1.765625 0,-0.21875 0.046875,-0.5 0.09375,-0.625 0,-0.03125 0,-0.09375 0,-0.125 0,-0.046875 -0.015625,-0.109375 -0.109375,-0.109375 -0.109375,0 -0.125,0.03125 -0.171875,0.234375 L 0.65625,-0.03125 c 0,0 -0.046875,0.15625 -0.046875,0.171875 C 0.609375,0.25 0.703125,0.25 0.734375,0.25 0.78125,0.25 0.78125,0.234375 0.9375,0.0625 L 1.484375,-0.65625 C 1.765625,-0.234375 2.390625,0.25 3.5,0.25 c 1.546875,0 2.953125,-1.5 2.953125,-2.984375 0,-0.5 -0.125,-0.953125 -0.578125,-1.390625 -0.25,-0.25 -0.453125,-0.3125 -1.5625,-0.59375 -0.796875,-0.21875 -0.90625,-0.25 -1.125,-0.4375 -0.203125,-0.203125 -0.359375,-0.5 -0.359375,-0.90625 0,-1 1.015625,-2.03125 2.15625,-2.03125 1.171875,0 1.71875,0.71875 1.71875,1.859375 0,0.3125 -0.0625,0.625 -0.0625,0.671875 0,0.109375 0.09375,0.109375 0.140625,0.109375 0.109375,0 0.109375,-0.03125 0.15625,-0.21875 z m 0,0"
               id="path32" />
          </g>
        </g>
      </g>
    </g>
    <g
       id="g78166"
       transform="matrix(-0.00710505,-0.0017826,-0.0017826,0.00710505,217.76242,198.92993)"
       style="stroke-width:36.11932158;stroke-dasharray:none;fill:url(#radialGradient82498);fill-opacity:1"
       clip-path="url(#clipPath78815)">
      <path
         d="M 1567.5,0 C 1567.5,311.76477 865.70636,564.5 0,564.5 -865.70636,564.5 -1567.5,311.76477 -1567.5,0 c 0,-311.76477 701.79364,-564.5 1567.5,-564.5 865.70636,0 1567.5,252.73523 1567.5,564.5"
         style="fill:url(#radialGradient82498);stroke:#000000;stroke-width:36.11932158;stroke-linecap:round;stroke-linejoin:round;stroke-miterlimit:10;stroke-dasharray:none;stroke-opacity:1;fill-opacity:1"
         id="path78168" />
    </g>
    <g
       id="g78170"
       transform="matrix(-0.00710505,-0.0017826,-0.0017826,0.00710505,224.20864,184.24281)"
       style="stroke-width:36.11932158;stroke-dasharray:none"
       clip-path="url(#clipPath78809)">
      <path
         d="M 1567.5,0 C 1567.5,311.76477 865.70636,564.5 0,564.5 -865.70636,564.5 -1567.5,311.76477 -1567.5,0 c 0,-311.76477 701.79364,-564.5 1567.5,-564.5 865.70636,0 1567.5,252.73523 1567.5,564.5"
         style="fill:url(#radialGradient79502);stroke:#000000;stroke-width:36.11932158;stroke-linecap:round;stroke-linejoin:round;stroke-miterlimit:10;stroke-dasharray:none;stroke-opacity:1;fill-opacity:1"
         id="path78172" />
    </g>
    <g
       id="g78174"
       transform="matrix(-0.00731492,3.8889705e-4,3.8889705e-4,0.00731492,256.72541,202.2263)"
       style="stroke-width:36.11935616;stroke-dasharray:none;fill:url(#radialGradient82580);fill-opacity:1"
       clip-path="url(#clipPath78803)">
      <path
         d="M 1567.5,0 C 1567.5,311.76477 865.70636,564.5 0,564.5 -865.70636,564.5 -1567.5,311.76477 -1567.5,0 c 0,-311.76477 701.79364,-564.5 1567.5,-564.5 865.70636,0 1567.5,252.73523 1567.5,564.5"
         style="fill:url(#radialGradient82580);stroke:#000000;stroke-width:36.11935616;stroke-linecap:round;stroke-linejoin:round;stroke-miterlimit:10;stroke-dasharray:none;stroke-opacity:1;fill-opacity:1"
         id="path78176" />
    </g>
    <g
       id="g78178"
       transform="matrix(-0.00731492,3.8889705e-4,3.8889705e-4,0.00731492,259.26727,186.60887)"
       style="stroke-width:36.11935616;stroke-dasharray:none"
       clip-path="url(#clipPath78797)">
      <path
         d="M 1567.5,0 C 1567.5,311.76477 865.70636,564.5 0,564.5 -865.70636,564.5 -1567.5,311.76477 -1567.5,0 c 0,-311.76477 701.79364,-564.5 1567.5,-564.5 865.70636,0 1567.5,252.73523 1567.5,564.5"
         style="fill:url(#radialGradient79584);stroke:#000000;stroke-width:36.11935616;stroke-linecap:round;stroke-linejoin:round;stroke-miterlimit:10;stroke-dasharray:none;stroke-opacity:1;fill-opacity:1"
         id="path78180" />
    </g>
    <path
       d="m 213.15117,181.21381 -6.44622,14.67981"
       style="fill:none;stroke:#000000;stroke-width:0.26458333;stroke-linecap:round;stroke-linejoin:round;stroke-miterlimit:10;stroke-dasharray:none;stroke-opacity:1"
       id="path78182"
       clip-path="url(#clipPath78791)" />
    <path
       d="m 235.33936,187.05936 -6.45355,14.6798"
       style="fill:none;stroke:#000000;stroke-width:0.26458333;stroke-linecap:round;stroke-linejoin:round;stroke-miterlimit:10;stroke-dasharray:none;stroke-opacity:1"
       id="path78184"
       clip-path="url(#clipPath78785)" />
    <path
       d="m 245.26507,202.58157 2.54919,-15.68336"
       style="fill:none;stroke:#000000;stroke-width:0.26458333;stroke-linecap:round;stroke-linejoin:round;stroke-miterlimit:10;stroke-dasharray:none;stroke-opacity:1"
       id="path78186"
       clip-path="url(#clipPath78779)" />
    <path
       d="m 268.1638,201.94427 2.54186,-15.61011"
       style="fill:none;stroke:#000000;stroke-width:0.26458333;stroke-linecap:round;stroke-linejoin:round;stroke-miterlimit:10;stroke-dasharray:none;stroke-opacity:1"
       id="path78188"
       clip-path="url(#clipPath78773)" />
    <path
       d="m 256.69978,202.36181 2.54919,-15.68336"
       style="fill:none;stroke:#000000;stroke-width:0.26458333;stroke-linecap:round;stroke-linejoin:round;stroke-miterlimit:10;stroke-dasharray:none;stroke-opacity:1;marker-end:url(#TriangleStart)"
       id="path78190"
       clip-path="url(#clipPath78767)" />
    <path
       d="m 224.20498,184.26112 -6.45355,14.68712"
       style="fill:none;stroke:#000000;stroke-width:0.26458333;stroke-linecap:round;stroke-linejoin:round;stroke-miterlimit:10;stroke-dasharray:none;stroke-opacity:1;marker-start:url(#TriangleStart)"
       id="path78192"
       clip-path="url(#clipPath78761)" />
    <path
       d="m 217.75876,198.93359 2.30012,-9.18586"
       style="fill:none;stroke:#000000;stroke-width:0.26458333;stroke-linecap:round;stroke-linejoin:round;stroke-miterlimit:10;stroke-dasharray:none;stroke-opacity:1;marker-end:url(#TriangleStart)"
       id="path78194"
       clip-path="url(#clipPath78755)" />
    <path
       d="m 256.69978,202.36181 0.13186,-8.01382"
       style="fill:none;stroke:#000000;stroke-width:0.26458333;stroke-linecap:round;stroke-linejoin:round;stroke-miterlimit:10;stroke-dasharray:none;stroke-opacity:1;marker-end:url(#TriangleStart)"
       id="path78196"
       clip-path="url(#clipPath78749)" />
    <path
       id="path80917"
       style="fill:none;fill-opacity:0.2;stroke-width:0.16764;stroke-dasharray:none"
       d="M 106.46875 55.250001 C 106.40224 55.245579 106.33114 55.251507 106.25977 55.267579 C 104.10612 56.156842 102.08919 57.245835 99.794923 57.707032 C 94.807408 58.968651 89.663066 58.817738 84.525392 58.810548 C 77.12628 58.550031 69.738342 57.149571 62.507813 55.431641 C 61.758535 55.243943 60.605331 55.00272 60.34961 56.011719 C 56.639728 64.303452 52.946653 72.607719 49.402344 80.970704 C 49.378778 81.259983 49.448192 81.479027 49.574219 81.652345 C 49.294242 81.6889 49.080428 81.87693 48.896485 82.111329 C 48.902713 82.087137 48.909921 82.063292 48.916016 82.039064 C 48.803271 81.043483 47.338934 80.994549 46.638672 81.189454 C 46.611493 81.23488 46.587977 81.281907 46.562501 81.328126 C 46.330985 80.353461 44.914663 80.544244 44.125001 80.212892 C 36.5416 78.518189 28.79312 77.435869 21.009766 77.50586 C 15.421635 77.646711 9.5497984 78.104169 4.5859376 80.910157 C 2.3584498 82.206445 0.27022287 84.423013 0.44921876 87.179689 C 0.66710032 90.934961 3.4837367 93.860806 6.1132813 96.26172 C 12.850107 102.0151 21.099756 105.64425 29.382813 108.57227 C 40.12894 112.21272 51.395899 114.52883 62.759766 114.76172 C 68.956889 114.65095 75.508202 114.44886 81.06836 111.38672 C 83.614686 110.03039 85.710072 107.24215 85.134767 104.23633 C 85.654192 104.59988 86.451421 104.06977 86.523439 103.38477 C 93.44141 87.693098 100.34218 71.993665 107.14063 56.250001 C 107.25774 55.779966 106.93436 55.280951 106.46875 55.250001 z M 44.822266 88.775392 C 44.83301 88.806816 44.844688 88.83784 44.857422 88.869142 C 45.175714 89.202749 45.492338 89.221332 45.769532 89.078126 C 45.011089 90.804019 44.248473 92.527648 43.468751 94.244142 C 43.891021 92.416712 44.358651 90.596452 44.822266 88.775392 z M 54.738282 103.75586 C 55.40263 103.75539 55.675759 104.84172 56.406251 104.41992 C 56.034262 105.88976 55.659923 107.35804 55.304688 108.83203 C 54.271027 108.35521 53.274343 110.24138 52.187501 109.29883 C 51.304835 108.31918 51.67138 106.69769 52.187501 105.60938 C 52.724077 104.69942 53.632468 103.8145 54.738282 103.75586 z M 70.931642 106.13086 C 72.171945 106.13786 72.506044 107.50892 72.464845 108.50977 C 72.506135 109.60516 72.644958 111.07062 71.648438 111.79297 C 70.959657 111.71097 69.858605 112.19271 69.550782 111.2832 C 68.896051 109.92891 69.129944 108.27439 69.490235 106.86719 C 69.76707 106.35765 70.364427 106.08869 70.931642 106.13086 z "
       transform="matrix(0.26458333,0,0,0.26458333,206.42931,173.49482)" />
  </g>
</svg>
