<?xml version="1.0" encoding="UTF-8" standalone="no"?>
<!-- Created with Inkscape (http://www.inkscape.org/) -->

<svg
   width="248.97292mm"
   height="106.89166mm"
   viewBox="0 0 248.97292 106.89167"
   version="1.1"
   id="svg1"
   inkscape:version="1.3.2 (091e20e, 2023-11-25, custom)"
   sodipodi:docname="Cd.svg"
   xmlns:inkscape="http://www.inkscape.org/namespaces/inkscape"
   xmlns:sodipodi="http://sodipodi.sourceforge.net/DTD/sodipodi-0.dtd"
   xmlns="http://www.w3.org/2000/svg"
   xmlns:svg="http://www.w3.org/2000/svg">
  <sodipodi:namedview
     id="namedview1"
     pagecolor="#ffffff"
     bordercolor="#000000"
     borderopacity="0.25"
     inkscape:showpageshadow="2"
     inkscape:pageopacity="0.0"
     inkscape:pagecheckerboard="0"
     inkscape:deskcolor="#d1d1d1"
     inkscape:document-units="mm"
     inkscape:zoom="1.0343421"
     inkscape:cx="475.66469"
     inkscape:cy="206.41141"
     inkscape:window-width="1920"
     inkscape:window-height="1017"
     inkscape:window-x="-8"
     inkscape:window-y="-8"
     inkscape:window-maximized="1"
     inkscape:current-layer="layer1" />
  <defs
     id="defs1">
    <clipPath
       id="clip0">
      <rect
         x="727"
         y="0"
         width="928"
         height="380"
         id="rect1" />
    </clipPath>
    <clipPath
       id="clip1">
      <rect
         x="769"
         y="14"
         width="862"
         height="308"
         id="rect2" />
    </clipPath>
    <clipPath
       id="clip2">
      <rect
         x="769"
         y="14"
         width="862"
         height="308"
         id="rect3" />
    </clipPath>
    <clipPath
       id="clip3">
      <rect
         x="769"
         y="14"
         width="862"
         height="308"
         id="rect4" />
    </clipPath>
    <clipPath
       id="clip4">
      <rect
         x="769"
         y="14"
         width="862"
         height="308"
         id="rect5" />
    </clipPath>
    <clipPath
       id="clip5">
      <rect
         x="769"
         y="14"
         width="862"
         height="308"
         id="rect6" />
    </clipPath>
    <clipPath
       id="clip0-1">
      <rect
         x="727"
         y="0"
         width="928"
         height="380"
         id="rect1-0" />
    </clipPath>
    <clipPath
       id="clip1-9">
      <rect
         x="769"
         y="14"
         width="862"
         height="308"
         id="rect2-1" />
    </clipPath>
    <clipPath
       id="clip2-2">
      <rect
         x="769"
         y="14"
         width="862"
         height="308"
         id="rect3-0" />
    </clipPath>
    <clipPath
       id="clip3-2">
      <rect
         x="769"
         y="14"
         width="862"
         height="308"
         id="rect4-9" />
    </clipPath>
    <clipPath
       id="clip4-8">
      <rect
         x="769"
         y="14"
         width="862"
         height="308"
         id="rect5-7" />
    </clipPath>
    <clipPath
       id="clip5-9">
      <rect
         x="769"
         y="14"
         width="862"
         height="308"
         id="rect6-3" />
    </clipPath>
    <clipPath
       id="clip6">
      <rect
         x="1240"
         y="119"
         width="356"
         height="168"
         id="rect7" />
    </clipPath>
    <clipPath
       id="clip7">
      <rect
         x="1240"
         y="119"
         width="356"
         height="168"
         id="rect8" />
    </clipPath>
    <clipPath
       id="clip8">
      <rect
         x="1240"
         y="119"
         width="356"
         height="168"
         id="rect9" />
    </clipPath>
    <clipPath
       id="clip9">
      <rect
         x="1240"
         y="119"
         width="356"
         height="168"
         id="rect10" />
    </clipPath>
    <clipPath
       id="clip10">
      <rect
         x="1240"
         y="119"
         width="356"
         height="168"
         id="rect11" />
    </clipPath>
    <clipPath
       id="clip0-2">
      <rect
         x="727"
         y="0"
         width="941"
         height="404"
         id="rect1-2" />
    </clipPath>
    <clipPath
       id="clip1-2">
      <rect
         x="797"
         y="14"
         width="847"
         height="304"
         id="rect2-16" />
    </clipPath>
    <clipPath
       id="clip2-3">
      <rect
         x="797"
         y="14"
         width="847"
         height="304"
         id="rect3-05" />
    </clipPath>
    <clipPath
       id="clip3-8">
      <rect
         x="797"
         y="14"
         width="847"
         height="304"
         id="rect4-8" />
    </clipPath>
    <clipPath
       id="clip4-5">
      <rect
         x="797"
         y="14"
         width="847"
         height="304"
         id="rect5-76" />
    </clipPath>
    <clipPath
       id="clip5-7">
      <rect
         x="797"
         y="14"
         width="847"
         height="304"
         id="rect6-2" />
    </clipPath>
  </defs>
  <g
     inkscape:label="Camada 1"
     inkscape:groupmode="layer"
     id="layer1"
     transform="translate(272.25624,-195.2625)">
    <g
       clip-path="url(#clip0-2)"
       transform="matrix(0.26458333,0,0,0.26458333,-464.60832,195.2625)"
       id="g49">
      <rect
         x="727"
         y="0"
         width="941"
         height="404"
         fill="#ffffff"
         id="rect7-1" />
      <g
         id="g7">
        <path
           d="m 797.5,267.5 h 846 m -846,-51 h 846 m -846,-50 h 846 m -846,-51 h 846 m -846,-49.9999 h 846 m -846,-51 h 846"
           stroke="#d9d9d9"
           stroke-linejoin="round"
           stroke-miterlimit="10"
           fill="none"
           id="path7" />
      </g>
      <g
         id="g8">
        <path
           d="M 881.5,14.5001 V 317.5 m 85,-302.9999 V 317.5 m 85,-302.9999 V 317.5 m 84,-302.9999 V 317.5 m 85,-302.9999 V 317.5 m 84,-302.9999 V 317.5 m 85,-302.9999 V 317.5 m 85,-302.9999 V 317.5 m 84,-302.9999 V 317.5 m 85,-302.9999 V 317.5"
           stroke="#d9d9d9"
           stroke-linejoin="round"
           stroke-miterlimit="10"
           fill="none"
           id="path8" />
      </g>
      <g
         id="g9">
        <rect
           x="797.5"
           y="14.5001"
           width="846"
           height="303"
           stroke="#000000"
           stroke-linejoin="round"
           stroke-miterlimit="10"
           fill="none"
           id="rect8-1" />
      </g>
      <g
         id="g10">
        <path
           d="M 0,0 1.04987e-4,303"
           stroke="#000000"
           stroke-linejoin="round"
           stroke-miterlimit="10"
           fill="none"
           fill-rule="evenodd"
           transform="matrix(1,0,0,-1,797.5,317.5)"
           id="path9" />
      </g>
      <g
         id="g11">
        <path
           d="m 797.5,317.5 h 2 m -2,-10 h 2 m -2,-10 h 2 m -2,-10 h 2 m -2,-10 h 2 m -2,-10 h 2 m -2,-10 h 2 m -2,-11 h 2 m -2,-10 h 2 m -2,-10 h 2 m -2,-10 h 2 m -2,-10 h 2 m -2,-10 h 2 m -2,-10 h 2 m -2,-10 h 2 m -2,-10 h 2 m -2,-10 h 2 m -2,-11 h 2 m -2,-10 h 2 m -2,-10 h 2 m -2,-10 h 2 m -2,-10 h 2 m -2,-9.9999 h 2 m -2,-10 h 2 M 797.5,75.5 h 2 m -2,-9.9999 h 2 m -2,-10 h 2 m -2,-11 h 2 m -2,-10 h 2 m -2,-10 h 2 m -2,-10 h 2 m -6,302.9999 h 7 m -7,-50 h 7 m -7,-51 h 7 m -7,-50 h 7 m -7,-51 h 7 m -7,-49.9999 h 7 m -7,-51 h 7"
           stroke="#000000"
           stroke-linejoin="round"
           stroke-miterlimit="10"
           fill="none"
           id="path10" />
      </g>
      <g
         id="g12">
        <path
           d="m 797.5,317.5 h 846"
           stroke="#000000"
           stroke-linejoin="round"
           stroke-miterlimit="10"
           fill="none"
           fill-rule="evenodd"
           id="path11" />
      </g>
      <g
         id="g13">
        <path
           d="m 797.5,314.5 v 3 m 17,-3 v 3 m 17,-3 v 3 m 16,-3 v 3 m 17,-3 v 3 m 17,-3 v 3 m 17,-3 v 3 m 17,-3 v 3 m 17,-3 v 3 m 17,-3 v 3 m 17,-3 v 3 m 17,-3 v 3 m 17,-3 v 3 m 17,-3 v 3 m 17,-3 v 3 m 17,-3 v 3 m 16,-3 v 3 m 17,-3 v 3 m 17,-3 v 3 m 17,-3 v 3 m 17,-3 v 3 m 17,-3 v 3 m 17,-3 v 3 m 17,-3 v 3 m 17,-3 v 3 m 17,-3 v 3 m 17,-3 v 3 m 17,-3 v 3 m 17,-3 v 3 m 17,-3 v 3 m 16,-3 v 3 m 17,-3 v 3 m 17,-3 v 3 m 17,-3 v 3 m 17,-3 v 3 m 17,-3 v 3 m 17,-3 v 3 m 17,-3 v 3 m 17,-3 v 3 m 17,-3 v 3 m 17,-3 v 3 m 17,-3 v 3 m 17,-3 v 3 m 17,-3 v 3 m 16,-3 v 3 m 17,-3 v 3 m 17,-3 v 3 m 17,-3 v 3 m 17,-3 v 3 m 17,-3 v 3 m 17,-3 v 3 m -846,-3 v 7 m 84,-7 v 7 m 85,-7 v 7 m 85,-7 v 7 m 84,-7 v 7 m 85,-7 v 7 m 84,-7 v 7 m 85,-7 v 7 m 85,-7 v 7 m 84,-7 v 7 m 85,-7 v 7"
           stroke="#000000"
           stroke-linejoin="round"
           stroke-miterlimit="10"
           fill="none"
           id="path12" />
      </g>
      <g
         clip-path="url(#clip1-2)"
         id="g14">
        <path
           d="m 799,-83 v 18 h 1 v -8 l 1,-12 v -14 -12 l 1,-9 v -7 l 1,-4 v -1 1 l 1,3 v 5 l 1,6 v 8 l 1,8 v 8 9 l 1,9 v 9 l 1,9 v 9 l 1,9 v 8 8 l 1,8 v 7.99999 L 811,0 v 7 l 1,7 v 7 6 l 1,6 v 6 l 1,6 v 5 5 l 1,5 v 5 l 1,5 v 5 l 1,4 v 5 4 l 1,4 v 4 l 1,4 v 4 l 1,4 v 3 4 l 1,3 v 3 l 1,4 v 3 l 1,3 v 3 3 l 1,3 v 2 l 1,3 v 3 2 l 1,3 v 2 l 1,3 v 2 l 1,3 v 2 2 l 1,2 v 2 l 1,2 v 2 l 1,2 v 2 2 l 1,2 v 2 l 1,2 v 2 l 1,1 v 2 2 l 1,1 v 2 l 1,1 v 2 l 1,1 v 2 1 l 1,2 v 1 l 1,2 v 1 1 l 1,2 v 1 l 1,1 v 1 l 1,2 v 1 1 l 1,1 v 1 l 1,1 v 1 l 1,1 v 2 1 l 1,1 v 1 l 1,1 v 1 l 1,1 v 1 0 l 1,1 v 1 l 1,1 v 1 1 l 1,1 v 1 h 1 v 1 l 1,1 v 1 1 h 1 v 1 l 1,1 v 1 h 1 v 1 1 h 1 v 1 l 1,1 v 0 l 1,1 v 1 0 l 1,1 v 0 l 1,1 v 1 0 l 1,1 v 0 l 1,1 v 1 h 1 v 1 0 l 1,1 v 0 l 1,1 v 0 l 1,1 v 0 1 h 1 v 1 h 1 v 1 h 1 v 0 1 h 1 v 1 h 1 v 1 0 l 1,1 v 0 h 1 v 1 h 1 v 1 0 h 1 v 1 h 1 v 1 h 1 v 0 1 h 1 v 1 h 1 v 0 l 1,1 v 0 0 l 1,1 v 0 h 1 v 1 0 h 1 v 1 h 1 v 0 l 1,1 v 0 0 l 1,1 v 0 h 1 v 1 h 1 v 0 1 h 1 v 0 l 1,1 v 0 h 1 v 0 1 h 1 v 0 l 1,1 v 0 0 h 1 v 1 h 1 v 0 h 1 v 1 0 h 1 v 0 l 1,1 v 0 h 1 v 0 1 h 1 v 0 h 1 v 1 h 1 v 0 0 l 1,1 v 0 h 1 v 0 0 l 1,1 v 0 h 1 v 0 l 1,1 v 0 0 h 1 v 0 l 1,1 v 0 h 1 v 0 0 l 1,1 v 0 h 1 v 0 h 1 v 1 0 h 1 v 0 h 1 v 0 1 h 1 v 0 h 1 v 0 l 1,1 v 0 0 h 1 v 0 h 1 v 1 h 1 v 0 0 h 1 v 0 l 1,1 v 0 h 1 v 0 0 h 1 v 0 l 1,1 v 0 0 h 1 v 0 h 1 v 1 h 1 v 0 0 h 1 v 0 h 1 v 1 h 1 v 0 0 h 1 v 0 h 1 v 0 l 1,1 v 0 0 h 1 v 0 h 1 v 0 0 l 1,1 v 0 h 1 v 0 h 1 v 0 0 h 1 v 1 h 1 v 0 h 1 v 0 0 h 1 v 0 h 1 v 0 l 1,1 v 0 0 h 1 v 0 h 1 v 0 0 h 1 v 0 l 1,1 v 0 h 1 v 0 0 h 1 v 0 h 1 v 0 h 1 v 0 0 l 1,1 v 0 h 1 v 0 h 1 v 0 0 h 1 v 0 h 1 v 0 h 1 v 0 0 l 1,1 v 0 h 1 v 0 0 h 1 v 0 h 1 v 0 h 1 v 0 0 h 1 v 0 h 1 v 1 h 1 v 0 0 h 1 v 0 h 1 v 0 h 1 v 0 0 h 1 v 0 h 1 v 0 0 h 1 v 0 h 1 v 0 h 1 v 0 0 h 1 v 0 h 1 v 0 h 1 v 0 0 h 1 v 0 h 1 v 0 h 1 v 0 0 h 1 v 0 h 1 v 0 0 h 1 v 0 h 1 v 0 h 1 v 0 0 l 1,-1 v 0 h 1 v 0 h 1 v 0 0 h 1 v 0 h 1 v 0 l 1,-1 v 0 0 h 1 v 0 h 1 v 0 0 h 1 v -1 h 1 v 0 h 1 v 0 0 h 1 v -1 h 1 v 0 h 1 v 0 -1 h 1 v 0 h 1 v 0 l 1,-1 v 0 0 h 1 v -1 h 1 v 0 0 l 1,-1 v 0 h 1 v 0 l 1,-1 v 0 0 l 1,-1 v 0 h 1 v -1 h 1 v 0 -1 h 1 v 0 l 1,-1 v 0 l 1,-1 v 0 -1 h 1 v 0 l 1,-1 v 0 -1 h 1 v -1 l 1,-1 v 0 l 1,-1 v 0 -1 h 1 v -1 h 1 v -1 l 1,-1 v 0 -1 h 1 v -1 h 1 v -1 l 1,-1 v 0 -1 h 1 v -1 l 1,-1 v 0 -1 l 1,-1 v -1 h 1 v -1 l 1,-1 v -1 0 l 1,-1 v -1 l 1,-1 v 0 l 1,-1 v -1 -1 l 1,-1 v -1 l 1,-1 v -1 h 1 v -1 -1 l 1,-1 v -1 l 1,-1 v -1 -1 l 1,-1 v 0 l 1,-1 v -1 l 1,-1 v -1 -1 h 1 v -1 l 1,-1 v -1 l 1,-1 v -1 -1 h 1 v -1 l 1,-1 v -1 l 1,-1 v -1 -1 l 1,-1 v -1 l 1,-1 v -1 -1 l 1,-1 v -2 l 1,-1 v -1 l 1,-1 v -1 -1 l 1,-1 v -1 l 1,-1 v -1 l 1,-1 v 0 -1 l 1,-1 v -1 h 1 v -1 l 1,-1 v -1 0 l 1,-1 v -1 l 1,-1 v -1 -1 l 1,-1 v -1 l 1,-1 v -1 l 1,-1 v -1 -1 l 1,-2 v -1 l 1,-1 v -1 l 1,-1 v -1 -1 l 1,-1 v -1 l 1,-1 v -1 h 1 v -1 -1 h 1 v -1 l 1,-1 v 0 -1 h 1 v -1 l 1,-1 v 0 l 1,-1 v -1 -1 h 1 v -1 l 1,-1 v -2 l 1,-1 v -1 -1 l 1,-1 v -2 l 1,-1 v -1 l 1,-1 v -1 -1 l 1,-1 v -1 l 1,-1 v 0 l 1,-1 v 0 -1 h 1 v 0 h 1 v -1 0 h 1 v -1 h 1 v 0 l 1,-1 v -1 -1 h 1 v -2 l 1,-1 v -1 l 1,-1 v -2 -1 l 1,-1 v -2 l 1,-1 v -1 l 1,-1 v -1 -1 h 1 v -1 h 1 v -1 0 h 1 v 0 h 1 v 1 h 1 v 0 0 h 1 v -1 h 1 v -1 h 1 v -1 -1 l 1,-1 v -1 l 1,-2 v -1 l 1,-2 v -1 -2 l 1,-1 v -1 l 1,-1 v -1 -1 h 1 v -1 h 1 v 0 h 1 v 0 1 h 1 v 1 h 1 v 0 l 1,1 v 0 0 h 1 v -1 h 1 v -1 l 1,-1 v -1 -1 l 1,-2 v -2 l 1,-1 v -2 -1 l 1,-2 v -1 l 1,-1 v -1 l 1,-1 v 0 0 h 1 v 0 l 1,1 v 0 l 1,1 v 1 1 h 1 v 1 l 1,1 v 0 h 1 v 0 0 l 1,-1 v -1 l 1,-1 v -1 -1 l 1,-2 v -2 l 1,-1 v -2 l 1,-1 v -2 -1 l 1,-1 v -1 h 1 v -1 l 1,1 v 0 0 l 1,1 v 1 l 1,1 v 1 l 1,1 v 1 1 l 1,1 v 0 l 1,1 v 0 -1 h 1 v -1 l 1,-2 v -1 l 1,-1 v -2 -2 l 1,-2 v -1 l 1,-2 v -1 l 1,-1 v -1 -1 h 1 v 0 h 1 v 1 l 1,1 v 1 1 l 1,2 v 1 l 1,1 v 1 1 l 1,1 v 1 h 1 v 0 l 1,-1 v -1 -1 l 1,-1 v -2 l 1,-1 v -2 l 1,-2 v -2 -1 l 1,-2 v -1 l 1,-1 v -1 h 1 v 0 0 l 1,1 v 1 l 1,1 v 2 1 l 1,1 v 2 l 1,1 v 2 h 1 v 1 1 h 1 v -1 h 1 v -1 l 1,-2 v -1 -2 l 1,-2 v -1 l 1,-2 v -2 l 1,-2 v -1 -1 l 1,-1 v 0 h 1 v 0 1 l 1,1 v 1 l 1,2 v 1 l 1,2 v 1 2 l 1,1 v 1 l 1,1 v 1 h 1 v 0 -1 l 1,-1 v -1 l 1,-1 v -2 l 1,-2 v -1 -2 l 1,-2 v -2 l 1,-1 v -1 -1 l 1,-1 v 0 l 1,1 v 0 l 1,1 v 1 2 l 1,2 v 1 l 1,2 v 2 l 1,1 v 1 1 l 1,1 v 0 h 1 v 0 l 1,-1 v -1 -1 l 1,-2 v -2 l 1,-1 v -2 -2 l 1,-2 v -1 l 1,-2 v -1 h 1 v 0 0 l 1,1 v 0 l 1,2 v 1 l 1,2 v 2 1 l 1,2 v 2 l 1,1 v 1 l 1,1 v 1 0 h 1 v -1 l 1,-1 v -2 l 1,-1 v -2 -2 l 1,-2 v -2 l 1,-1 v -2 -1 l 1,-1 v -1 h 1 v 0 l 1,1 v 1 1 l 1,1 v 2 l 1,2 v 2 l 1,1 v 2 2 l 1,1 v 1 h 1 v 1 l 1,-1 v 0 -1 l 1,-1 v -2 l 1,-2 v -2 -1 l 1,-2 v -2 l 1,-2 v -1 l 1,-1 v -1 0 h 1 v 0 l 1,1 v 1 l 1,2 v 1 2 l 1,2 v 2 l 1,2 v 1 l 1,2 v 1 0 l 1,1 v 0 l 1,-1 v -1 -1 l 1,-1 v -2 l 1,-2 v -2 l 1,-2 v -2 -1 l 1,-2 v -1 l 1,-1 v 0 h 1 v 0 1 l 1,1 v 2 l 1,1 v 2 l 1,2 v 2 2 l 1,1 v 2 l 1,1 v 1 0 h 1 v 0 l 1,-1 v -1 l 1,-2 v -1 -2 l 1,-2 v -2 l 1,-2 v -2 l 1,-1 v -1 -1 l 1,-1 v 0 l 1,1 v 0 l 1,1 v 2 1 l 1,2 v 2 l 1,2 v 2 1 l 1,2 v 1 l 1,1 v 1 h 1 v -1 0 l 1,-1 v -2 l 1,-1 v -2 l 1,-2 v -2 -2 l 1,-2 v -1 l 1,-1 v -1 l 1,-1 v 0 0 l 1,1 v 1 l 1,1 v 2 1 l 1,2 v 2 l 1,2 v 2 l 1,1 v 2 1 h 1 v 0 h 1 v 0 l 1,-1 v -2 -1 l 1,-2 v -2 l 1,-2 v -2 l 1,-2 v -1 -2 l 1,-1 v 0 h 1 v 0 0 l 1,1 v 1 l 1,2 v 2 l 1,2 v 1 2 l 1,2 v 2 l 1,1 v 1 l 1,1 v 0 0 h 1 v -1 l 1,-2 v -1 l 1,-2 v -2 -2 l 1,-2 v -1 l 1,-2 v -1 -2 h 1 v -1 h 1 v 1 l 1,1 v 1 1 l 1,2 v 2 l 1,2 v 2 l 1,2 v 1 2 l 1,1 v 1 h 1 v 0 l 1,-1 v 0 -1 l 1,-2 v -2 l 1,-1 v -2 -2 l 1,-2 v -2 l 1,-1 v -2 h 1 v -1 0 l 1,1 v 0 l 1,1 v 2 l 1,2 v 1 2 l 1,2 v 2 l 1,2 v 1 l 1,2 v 0 1 h 1 v 0 l 1,-1 v -1 -2 l 1,-1 v -2 l 1,-2 v -2 l 1,-2 v -2 -1 l 1,-1 v -1 l 1,-1 v 0 h 1 v 1 1 l 1,2 v 1 l 1,2 v 2 l 1,2 v 2 1 l 1,2 v 1 l 1,1 v 1 0 h 1 v -1 l 1,-1 v -1 l 1,-2 v -2 -2 l 1,-2 v -2 l 1,-1 v -2 l 1,-1 v -1 -1 h 1 v 0 l 1,1 v 1 l 1,1 v 2 1 l 1,2 v 2 l 1,2 v 2 l 1,2 v 1 1 l 1,1 v 0 h 1 v -1 -1 l 1,-1 v -2 l 1,-2 v -1 l 1,-2 v -2 -2 l 1,-2 v -1 l 1,-1 v -1 h 1 v 0 1 l 1,1 v 1 l 1,1 v 2 l 1,2 v 2 2 l 1,2 v 1 l 1,2 v 1 0 l 1,1 v 0 l 1,-1 v -1 l 1,-1 v -1 -2 l 1,-2 v -2 l 1,-2 v -2 l 1,-1 v -2 -1 l 1,-1 v 0 h 1 v 0 l 1,1 v 1 2 l 1,2 v 1 l 1,2 v 2 2 l 1,2 v 1 l 1,1 v 1 l 1,1 v 0 -1 l 1,-1 v -1 l 1,-1 v -2 l 1,-2 v -2 -2 l 1,-1 v -2 l 1,-2 v -1 l 1,-1 v 0 0 h 1 v 1 l 1,1 v 2 1 l 1,2 v 2 l 1,2 v 2 l 1,2 v 1 1 l 1,1 v 1 h 1 v -1 h 1 v -1 -2 l 1,-1 v -2 l 1,-2 v -2 l 1,-2 v -2 -1 l 1,-2 v 0 l 1,-1 v 0 0 l 1,1 v 1 l 1,1 v 2 l 1,2 v 2 2 l 1,1 v 2 l 1,2 v 1 l 1,1 v 1 0 l 1,-1 v 0 l 1,-1 v -2 l 1,-1 v -2 -2 l 1,-2 v -2 l 1,-1 v -2 -1 l 1,-1 v -1 h 1 v 0 l 1,1 v 1 1 l 1,2 v 1 l 1,2 v 2 l 1,2 v 2 1 l 1,2 v 1 h 1 v 1 l 1,-1 v 0 -1 l 1,-1 v -2 l 1,-2 v -1 -2 l 1,-2 v -2 l 1,-2 v -1 l 1,-1 v -1 0 h 1 v 0 l 1,1 v 2 l 1,1 v 2 2 l 1,2 v 2 l 1,1 v 2 l 1,2 v 1 0 l 1,1 v 0 l 1,-1 v -1 -1 l 1,-2 v -1 l 1,-2 v -2 l 1,-2 v -2 -1 l 1,-2 v -1 l 1,-1 v 0 h 1 v 0 1 l 1,1 v 2 l 1,2 v 1 l 1,2 v 2 2 l 1,2 v 1 l 1,1 v 1 1 h 1 v -1 l 1,-1 v -1 l 1,-1 v -2 -2 l 1,-2 v -2 l 1,-1 v -2 l 1,-2 v -1 -1 h 1 v 0 h 1 v 1 l 1,1 v 1 2 l 1,2 v 2 l 1,2 v 2 1 l 1,2 v 1 l 1,1 v 1 h 1 v -1 0 l 1,-1 v -2 l 1,-2 v -1 l 1,-2 v -2 -2 l 1,-2 v -1 l 1,-2 v -1 h 1 v 0 0 l 1,1 v 1 l 1,1 v 2 2 l 1,1 v 2 l 1,2 v 2 l 1,2 v 1 1 h 1 v 1 l 1,-1 v 0 l 1,-1 v -2 -1 l 1,-2 v -2 l 1,-2 v -2 l 1,-1 v -2 -1 l 1,-1 v -1 h 1 v 0 l 1,1 v 1 1 l 1,1 v 2 l 1,2 v 2 2 l 1,2 v 1 l 1,2 v 1 h 1 v 1 0 l 1,-1 v -1 l 1,-1 v -2 l 1,-2 v -1 -2 l 1,-2 v -2 l 1,-2 v -1 l 1,-1 v -1 0 h 1 v 0 l 1,1 v 2 1 l 1,2 v 2 l 1,2 v 2 l 1,1 v 2 1 l 1,2 v 0 l 1,1 v 0 l 1,-1 v -1 -1 l 1,-1 v -2 l 1,-2 v -2 l 1,-2 v -2 -1 l 1,-2 v -1 l 1,-1 v 0 0 h 1 v 1 l 1,1 v 2 l 1,1 v 2 2 l 1,2 v 2 l 1,2 v 1 l 1,1 v 1 1 h 1 v -1 l 1,-1 v -1 l 1,-1 v -2 -2 l 1,-2 v -2 l 1,-1 v -2 -2 l 1,-1 v -1 h 1 v 0 h 1 v 1 1 l 1,1 v 2 l 1,2 v 2 l 1,2 v 2 1 l 1,2 v 1 l 1,1 v 0 l 1,1 v -1 0 l 1,-1 v -2 l 1,-1 v -2 -2 l 1,-2 v -2 l 1,-2 v -1 l 1,-2 v 0 -1 h 1 v 0 l 1,1 v 1 l 1,1 v 2 2 l 1,1 v 2 l 1,2 v 2 l 1,2 v 1 1 h 1 v 1 l 1,-1 v 0 -1 l 1,-2 v -1 l 1,-2 v -2 l 1,-2 v -2 -1 l 1,-2 v -1 l 1,-1 v -1 h 1 v 0 1 l 1,1 v 1 l 1,1 v 2 l 1,2 v 2 2 l 1,2 v 1 l 1,2 v 1 0 l 1,1 v -1 h 1 v -1 l 1,-1 v -2 -1 l 1,-2 v -2 l 1,-2 v -2 l 1,-2 v -1 -1 l 1,-1 v 0 h 1 v 0 l 1,1 v 2 1 l 1,2 v 2 l 1,2 v 1 2 l 1,2 v 1 l 1,2 v 0 l 1,1 v 0 -1 l 1,-1 v -1 l 1,-1 v -2 l 1,-2 v -2 -2 l 1,-2 v -1 l 1,-2 v -1 l 1,-1 v 0 0 h 1 v 1 l 1,1 v 2 1 l 1,2 v 2 l 1,2 v 2 l 1,2 v 1 1 l 1,1 v 1 h 1 v -1 l 1,-1 v -1 -1 l 1,-2 v -2 l 1,-2 v -1 l 1,-2 v -2 -2 l 1,-1 v -1 h 1 v 0 0 l 1,1 v 1 l 1,1 v 2 l 1,2 v 2 2 l 1,2 v 1 l 1,2 v 1 l 1,1 v 1 0 l 1,-1 v 0 l 1,-1 v -2 l 1,-1 v -2 -2 l 1,-2 v -2 l 1,-2 v -1 -2 h 1 v -1 h 1 v 0 l 1,1 v 1 1 l 1,2 v 1 l 1,2 v 2 l 1,2 v 2 2 l 1,1 v 1 h 1 v 1 l 1,-1 v 0 -1 l 1,-1 v -2 l 1,-2 v -2 l 1,-2 v -2 -1 l 1,-2 v -1 l 1,-1 v -1 0 h 1 v 1 h 1 v 2 l 1,1 v 2 2 l 1,2 v 2 l 1,2 v 1 l 1,2 v 1 0 l 1,1 v 0 l 1,-1 v -1 l 1,-1 v -2 -1 l 1,-2 v -2 l 1,-2 v -2 -2 l 1,-1 v -1 l 1,-1 v 0 h 1 v 0 1 l 1,1 v 2 l 1,2 v 2 l 1,2 v 1 2 l 1,2 v 1 l 1,1 v 1 l 1,1 v 0 -1 l 1,-1 v -1 l 1,-1 v -2 -2 l 1,-2 v -2 l 1,-2 v -1 l 1,-2 v -1 -1 h 1 v 0 h 1 v 1 l 1,1 v 2 1 l 1,2 v 2 l 1,2 v 2 l 1,2 v 1 1 l 1,1 v 1 h 1 v -1 -1 l 1,-1 v -1 l 1,-2 v -2 l 1,-1 v -2 -2 l 1,-2 v -2 l 1,-1 v -1 h 1 v 0 0 l 1,1 v 1 l 1,1 v 2 l 1,2 v 2 2 l 1,2 v 1 l 1,2 v 1 1 h 1 v 1 l 1,-1 v 0 l 1,-1 v -2 -1 l 1,-2 v -2 l 1,-2 v -2 l 1,-2 v -1 -2 h 1 v -1 h 1 v 0 l 1,1 v 1 1 l 1,2 v 1 l 1,2 v 2 2 l 1,2 v 2 l 1,1 v 1 h 1 v 1 -1 h 1 v -1 l 1,-1 v -2"
           stroke="#70ad47"
           stroke-width="2"
           stroke-linecap="round"
           stroke-linejoin="round"
           stroke-miterlimit="10"
           fill="none"
           id="path13" />
      </g>
      <g
         clip-path="url(#clip2-3)"
         id="g15">
        <path
           d="m 799,-89 v 17 h 1 v -9 l 1,-12 v -14 -11 l 1,-10 v -7 l 1,-3 v -2 2 l 1,4 v 5 l 1,7 v 7 l 1,9 v 9 9 l 1,9 v 9 l 1,9 v 9 l 1,9 v 9 8 l 1,8 v 7 l 1,8 v 7 l 1,7 v 6 7 l 1,6 v 6 l 1,5 v 6 5 l 1,5 v 5 l 1,5 v 5 l 1,5 v 4 4 l 1,4 v 4 l 1,4 v 4 l 1,4 v 4 3 l 1,3 v 4 l 1,3 v 3 l 1,3 v 3 3 l 1,3 v 3 l 1,3 v 2 3 l 1,3 v 2 l 1,2 v 3 l 1,2 v 2 3 l 1,2 v 2 l 1,2 v 2 l 1,2 v 2 2 l 1,2 v 2 l 1,2 v 1 l 1,2 v 2 1 l 1,2 v 2 l 1,1 v 2 l 1,1 v 2 1 l 1,2 v 1 l 1,2 v 1 1 l 1,2 v 1 l 1,1 v 1 l 1,2 v 1 1 l 1,1 v 1 l 1,1 v 1 l 1,2 v 1 1 l 1,1 v 1 l 1,1 v 1 l 1,1 v 1 1 h 1 v 1 l 1,1 v 1 1 l 1,1 v 1 l 1,1 v 0 l 1,1 v 1 1 h 1 v 1 l 1,1 v 1 h 1 v 1 1 h 1 v 1 l 1,1 v 0 l 1,1 v 1 0 l 1,1 v 1 h 1 v 1 0 l 1,1 v 1 h 1 v 1 h 1 v 1 0 l 1,1 v 0 l 1,1 v 0 l 1,1 v 0 1 h 1 v 1 h 1 v 1 h 1 v 1 0 l 1,1 v 0 h 1 v 1 0 l 1,1 v 0 l 1,1 v 0 h 1 v 1 0 l 1,1 v 0 h 1 v 1 h 1 v 1 0 h 1 v 1 h 1 v 0 l 1,1 v 0 1 h 1 v 0 l 1,1 v 0 0 l 1,1 v 0 h 1 v 1 h 1 v 0 1 h 1 v 0 l 1,1 v 0 h 1 v 0 1 h 1 v 0 l 1,1 v 0 h 1 v 0 1 h 1 v 0 l 1,1 v 0 0 h 1 v 1 h 1 v 0 h 1 v 1 0 h 1 v 0 l 1,1 v 0 h 1 v 0 1 h 1 v 0 h 1 v 1 h 1 v 0 0 l 1,1 v 0 h 1 v 0 0 l 1,1 v 0 h 1 v 0 h 1 v 1 0 h 1 v 0 h 1 v 1 h 1 v 0 0 h 1 v 1 h 1 v 0 h 1 v 0 0 l 1,1 v 0 h 1 v 0 0 h 1 v 1 h 1 v 0 h 1 v 0 0 l 1,1 v 0 h 1 v 0 h 1 v 0 0 h 1 v 1 h 1 v 0 h 1 v 0 0 h 1 v 0 l 1,1 v 0 0 h 1 v 0 h 1 v 0 h 1 v 0 0 l 1,1 v 0 h 1 v 0 h 1 v 0 0 h 1 v 0 h 1 v 0 h 1 v 0 0 h 1 v 1 h 1 v 0 0 h 1 v 0 h 1 v 0 h 1 v 0 0 h 1 v 0 h 1 v 0 h 1 v 0 0 h 1 v 0 h 1 v -1 h 1 v 0 0 h 1 v 0 h 1 v 0 0 h 1 v 0 h 1 v 0 h 1 v -1 0 h 1 v 0 h 1 v 0 h 1 v -1 0 h 1 v 0 h 1 v 0 l 1,-1 v 0 0 h 1 v -1 h 1 v 0 h 1 v -1 0 h 1 v -1 h 1 v 0 0 l 1,-1 v 0 h 1 v -1 h 1 v -1 0 h 1 v -1 h 1 v 0 l 1,-1 v 0 -1 h 1 v 0 l 1,-1 v 0 l 1,-1 v 0 -1 h 1 v -1 h 1 v -1 -1 h 1 v -1 h 1 v -1 l 1,-1 v 0 -1 h 1 v -1 l 1,-1 v 0 l 1,-1 v -1 0 l 1,-1 v -1 l 1,-1 v 0 l 1,-1 v -1 0 l 1,-1 v -1 h 1 v -1 -1 l 1,-1 v 0 l 1,-1 v -1 l 1,-1 v 0 -1 l 1,-1 v -1 l 1,-1 v 0 l 1,-1 v -1 -1 l 1,-1 v -1 l 1,-1 v -1 l 1,-1 v -1 -1 l 1,-1 v -1 h 1 v -1 -1 l 1,-1 v -1 l 1,-1 v -1 l 1,-1 v 0 -1 l 1,-1 v -1 l 1,-1 v -1 h 1 v -1 -1 l 1,-1 v -1 l 1,-1 v -1 l 1,-1 v -1 -1 l 1,-1 v -1 l 1,-1 v -1 -1 l 1,-1 v -1 l 1,-1 v -1 l 1,-1 v -1 -1 l 1,-1 v -1 l 1,-1 v -1 l 1,-1 v 0 -1 l 1,-1 v -1 h 1 v -1 l 1,-1 v 0 -1 l 1,-1 v -1 h 1 v -1 -1 l 1,-1 v -1 l 1,-1 v -1 l 1,-1 v -1 -1 l 1,-2 v -1 l 1,-1 v -1 l 1,-1 v -1 -1 l 1,-1 v -1 l 1,-1 v 0 l 1,-1 v -1 0 l 1,-1 v 0 l 1,-1 v 0 -1 h 1 v -1 h 1 v -1 h 1 v -1 -1 l 1,-1 v -1 l 1,-1 v -1 l 1,-1 v -1 -2 l 1,-1 v -1 l 1,-1 v -1 l 1,-1 v -1 -1 l 1,-1 v -1 h 1 v -1 0 l 1,-1 v 0 h 1 v 0 h 1 v 0 -1 h 1 v 0 l 1,-1 v 0 l 1,-1 v 0 -1 l 1,-1 v -1 l 1,-2 v -1 l 1,-1 v -2 -1 l 1,-1 v -1 l 1,-2 v -1 -1 h 1 v -1 l 1,-1 v 0 h 1 v 0 0 h 1 v 0 h 1 v 1 h 1 v 0 0 h 1 v -1 h 1 v -1 l 1,-1 v -1 -1 l 1,-1 v -1 l 1,-2 v -1 -2 l 1,-1 v -1 l 1,-2 v -1 l 1,-1 v 0 -1 h 1 v 0 h 1 v 0 l 1,1 v 0 1 h 1 v 1 h 1 v 1 h 1 v 0 0 l 1,-1 v 0 l 1,-1 v -1 -1 l 1,-2 v -1 l 1,-2 v -1 l 1,-2 v -1 -2 l 1,-1 v -1 l 1,-1 v 0 l 1,-1 v 0 0 l 1,1 v 0 l 1,1 v 1 l 1,1 v 0 1 l 1,1 v 1 h 1 v 0 h 1 v 0 -1 l 1,-1 v -1 l 1,-1 v -2 -1 l 1,-2 v -2 l 1,-1 v -2 l 1,-1 v -1 -1 l 1,-1 v 0 h 1 v 0 h 1 v 1 1 l 1,1 v 1 l 1,1 v 1 l 1,1 v 1 1 h 1 v 1 l 1,-1 v 0 -1 l 1,-1 v -1 l 1,-1 v -2 l 1,-2 v -2 -1 l 1,-2 v -1 l 1,-2 v -1 h 1 v -1 0 h 1 v 1 l 1,1 v 1 l 1,1 v 1 1 l 1,2 v 1 l 1,1 v 1 1 h 1 v 0 h 1 v -1 l 1,-1 v -1 -1 l 1,-2 v -2 l 1,-1 v -2 l 1,-2 v -2 -1 l 1,-1 v -1 h 1 v 0 h 1 v 0 1 l 1,1 v 2 l 1,1 v 2 1 l 1,2 v 1 l 1,1 v 1 h 1 v 1 0 l 1,-1 v -1 l 1,-1 v -1 l 1,-2 v -1 -2 l 1,-2 v -2 l 1,-2 v -1 l 1,-1 v -1 -1 h 1 v 0 l 1,1 v 1 1 l 1,1 v 2 l 1,1 v 2 l 1,1 v 2 1 l 1,1 v 1 h 1 v 0 h 1 v -1 -1 l 1,-1 v -2 l 1,-1 v -2 l 1,-2 v -2 -2 l 1,-1 v -1 l 1,-1 v -1 0 h 1 v 0 l 1,1 v 1 l 1,2 v 1 2 l 1,2 v 2 l 1,1 v 2 l 1,1 v 1 0 h 1 v 0 l 1,-1 v -1 l 1,-1 v -1 -2 l 1,-2 v -2 l 1,-2 v -1 -2 l 1,-1 v -1 l 1,-1 v 0 h 1 v 0 1 l 1,1 v 1 l 1,2 v 2 l 1,1 v 2 2 l 1,1 v 2 l 1,1 v 0 h 1 v 0 0 l 1,-1 v -1 l 1,-2 v -1 -2 l 1,-2 v -2 l 1,-2 v -1 l 1,-2 v -1 -1 h 1 v 0 h 1 v 1 l 1,1 v 2 1 l 1,2 v 2 l 1,2 v 1 l 1,2 v 1 1 l 1,1 v 0 h 1 v 0 -1 l 1,-1 v -1 l 1,-2 v -2 l 1,-2 v -2 -2 l 1,-1 v -2 l 1,-1 v -1 h 1 v 0 0 l 1,1 v 1 l 1,1 v 2 l 1,2 v 1 2 l 1,2 v 2 l 1,1 v 1 1 h 1 v 1 l 1,-1 v -1 l 1,-1 v -1 -2 l 1,-1 v -2 l 1,-2 v -2 l 1,-2 v -1 -2 h 1 v -1 h 1 v 0 l 1,1 v 1 1 l 1,2 v 2 l 1,1 v 2 2 l 1,2 v 1 l 1,2 v 0 l 1,1 v 0 0 l 1,-1 v -1 l 1,-1 v -2 l 1,-2 v -1 -2 l 1,-2 v -2 l 1,-2 v -1 l 1,-1 v 0 -1 l 1,1 v 0 l 1,1 v 1 l 1,2 v 2 1 l 1,2 v 2 l 1,2 v 2 1 l 1,1 v 0 l 1,1 v -1 h 1 v -1 -1 l 1,-2 v -2 l 1,-2 v -2 l 1,-1 v -2 -2 l 1,-1 v -1 l 1,-1 v 0 h 1 v 1 1 l 1,1 v 1 l 1,2 v 2 2 l 1,2 v 1 l 1,2 v 1 l 1,1 v 1 0 h 1 v 0 l 1,-1 v -1 l 1,-2 v -2 -1 l 1,-2 v -2 l 1,-2 v -2 l 1,-1 v -1 -1 h 1 v 0 h 1 v 1 1 l 1,2 v 1 l 1,2 v 2 l 1,2 v 2 1 l 1,2 v 1 l 1,1 v 0 h 1 v 0 -1 l 1,-1 v -2 l 1,-2 v -1 l 1,-2 v -2 -2 l 1,-2 v -1 l 1,-1 v -1 -1 h 1 v 1 l 1,1 v 1 l 1,1 v 2 2 l 1,2 v 2 l 1,1 v 2 l 1,2 v 1 1 h 1 v 0 h 1 v -1 l 1,-1 v -2 -1 l 1,-2 v -2 l 1,-2 v -2 -2 l 1,-1 v -1 l 1,-1 v -1 h 1 v 1 0 l 1,1 v 2 l 1,1 v 2 l 1,2 v 2 2 l 1,2 v 1 l 1,1 v 1 l 1,1 v 0 0 l 1,-1 v -1 l 1,-2 v -1 -2 l 1,-2 v -2 l 1,-2 v -1 l 1,-2 v -1 -1 l 1,-1 v 0 l 1,1 v 0 l 1,1 v 2 1 l 1,2 v 2 l 1,2 v 2 l 1,1 v 2 1 l 1,1 v 1 h 1 v 0 -1 l 1,-1 v -1 l 1,-2 v -2 l 1,-2 v -1 -2 l 1,-2 v -2 l 1,-1 v -1 l 1,-1 v 0 0 l 1,1 v 1 l 1,1 v 2 l 1,1 v 2 2 l 1,2 v 2 l 1,2 v 1 1 h 1 v 1 h 1 v -1 l 1,-1 v -1 -2 l 1,-1 v -2 l 1,-2 v -2 l 1,-2 v -2 -1 l 1,-1 v -1 h 1 v 0 l 1,1 v 1 1 l 1,1 v 2 l 1,2 v 2 2 l 1,2 v 1 l 1,2 v 1 h 1 v 1 0 l 1,-1 v -1 l 1,-1 v -1 l 1,-2 v -2 -2 l 1,-2 v -2 l 1,-1 v -2 l 1,-1 v -1 0 h 1 v 1 h 1 v 2 1 l 1,2 v 2 l 1,2 v 1 l 1,2 v 2 1 l 1,2 v 0 l 1,1 v 0 l 1,-1 v -1 -1 l 1,-1 v -2 l 1,-2 v -2 l 1,-2 v -1 -2 l 1,-2 v -1 h 1 v -1 0 h 1 v 1 l 1,1 v 2 l 1,1 v 2 2 l 1,2 v 2 l 1,2 v 1 l 1,1 v 1 1 h 1 v -1 h 1 v -1 l 1,-2 v -1 -2 l 1,-2 v -2 l 1,-2 v -2 l 1,-1 v -1 -1 l 1,-1 v 0 h 1 v 1 1 l 1,1 v 2 l 1,2 v 2 l 1,2 v 2 1 l 1,2 v 1 l 1,1 v 0 l 1,1 v -1 0 l 1,-1 v -2 l 1,-1 v -2 l 1,-2 v -2 -2 l 1,-2 v -1 l 1,-1 v -1 -1 h 1 v 0 l 1,1 v 1 l 1,1 v 2 2 l 1,2 v 1 l 1,2 v 2 l 1,2 v 1 1 l 1,1 v 0 h 1 v -1 l 1,-1 v -1 -2 l 1,-2 v -2 l 1,-1 v -2 -2 l 1,-2 v -1 l 1,-1 v -1 h 1 v 0 1 l 1,1 v 1 l 1,1 v 2 l 1,2 v 2 2 l 1,2 v 1 l 1,2 v 1 h 1 v 1 -1 h 1 v -1 l 1,-1 v -2 -2 l 1,-1 v -2 l 1,-2 v -2 l 1,-2 v -1 -1 l 1,-1 v 0 h 1 v 1 h 1 v 2 1 l 1,2 v 2 l 1,2 v 2 l 1,2 v 1 2 l 1,1 v 0 l 1,1 v 0 -1 l 1,-1 v -1 l 1,-1 v -2 l 1,-2 v -2 -2 l 1,-2 v -1 l 1,-2 v -1 l 1,-1 v 0 0 l 1,1 v 0 l 1,1 v 2 l 1,2 v 1 2 l 1,2 v 2 l 1,2 v 1 1 l 1,1 v 0 l 1,1 v -1 l 1,-1 v -1 -1 l 1,-2 v -2 l 1,-2 v -2 l 1,-1 v -2 -2 l 1,-1 v -1 h 1 v 0 h 1 v 1 1 l 1,2 v 1 l 1,2 v 2 2 l 1,2 v 2 l 1,1 v 1 l 1,1 v 1 0 l 1,-1 v 0 l 1,-1 v -2 l 1,-1 v -2 -2 l 1,-2 v -2 l 1,-2 v -1 l 1,-1 v -1 -1 h 1 v 0 l 1,1 v 1 1 l 1,2 v 2 l 1,2 v 2 l 1,1 v 2 2 l 1,1 v 1 h 1 v 1 l 1,-1 v 0 -1 l 1,-2 v -1 l 1,-2 v -2 l 1,-2 v -2 -2 l 1,-1 v -1 l 1,-1 v -1 0 h 1 v 1 l 1,1 v 1 l 1,2 v 2 1 l 1,2 v 2 l 1,2 v 2 l 1,1 v 1 0 l 1,1 v 0 l 1,-1 v -1 l 1,-1 v -2 -2 l 1,-2 v -1 l 1,-2 v -2 -2 l 1,-1 v -1 l 1,-1 v 0 h 1 v 1 1 l 1,1 v 1 l 1,2 v 2 l 1,2 v 2 2 l 1,1 v 2 l 1,1 v 0 l 1,1 v -1 0 l 1,-1 v -1 l 1,-2 v -1 -2 l 1,-2 v -2 l 1,-2 v -2 l 1,-1 v -1 -1 h 1 v 0 l 1,1 v 0 l 1,2 v 1 2 l 1,2 v 2 l 1,2 v 1 l 1,2 v 2 1 h 1 v 1 h 1 v -1 l 1,-1 v -1 -1 l 1,-2 v -2 l 1,-2 v -2 -2 l 1,-1 v -2 l 1,-1 v -1 h 1 v 0 1 h 1 v 1 l 1,2 v 2 l 1,1 v 2 2 l 1,2 v 2 l 1,1 v 1 l 1,1 v 0 1 l 1,-1 v -1 l 1,-1 v -1 -2 l 1,-2 v -2 l 1,-2 v -1 l 1,-2 v -2 -1 l 1,-1 v 0 h 1 v 0 l 1,1 v 1 2 l 1,1 v 2 l 1,2 v 2 l 1,2 v 2 1 l 1,1 v 1 l 1,1 v 0 -1 h 1 v -1 l 1,-2 v -1 l 1,-2 v -2 -2 l 1,-2 v -2 l 1,-1 v -1 l 1,-1 v -1 0 h 1 v 1 l 1,1 v 1 l 1,2 v 2 2 l 1,2 v 1 l 1,2 v 2 1 l 1,1 v 0 l 1,1 v -1 h 1 v -1 -2 l 1,-1 v -2 l 1,-2 v -2 l 1,-2 v -2 -1 l 1,-1 v -1 l 1,-1 v 0 h 1 v 1 1 l 1,1 v 2 l 1,1 v 2 2 l 1,2 v 2 l 1,2 v 1 l 1,1 v 0 1 h 1 v -1 l 1,-1 v -1 l 1,-2 v -2 -2 l 1,-1 v -2 l 1,-2 v -2 l 1,-1 v -1 -1 h 1 v 0 l 1,1 v 1 1 l 1,1 v 2 l 1,2 v 2 l 1,2 v 2 1 l 1,2 v 1 h 1 v 1 l 1,-1 v 0 -1 l 1,-1 v -2 l 1,-1 v -2 l 1,-2 v -2 -2 l 1,-2 v -1 l 1,-1 v -1 0 h 1 v 1 h 1 v 2 l 1,1 v 2 2 l 1,2 v 2 l 1,1 v 2 l 1,1 v 2 0 l 1,1 v 0 l 1,-1 v -1 l 1,-1 v -1 -2 l 1,-2 v -2 l 1,-2 v -2 -1 l 1,-2 v -1 l 1,-1 v 0 h 1 v 0 1 l 1,1 v 2 l 1,1 v 2 l 1,2 v 2 2 l 1,2 v 1 l 1,1 v 1 h 1 v 1 -1 l 1,-1 v -1 l 1,-1 v -2 -2 l 1,-2 v -1 l 1,-2 v -2 l 1,-2 v -1 -1 h 1 v 0 h 1 v 1 l 1,1 v 2 1 l 1,2 v 2 l 1,2 v 2 l 1,2 v 1 1 l 1,1 v 1 h 1 v -1 0 l 1,-1 v -2 l 1,-1 v -2 l 1,-2 v -2 -2 l 1,-2 v -1 l 1,-1 v -1 l 1,-1 v 0 0 l 1,1 v 1 l 1,1 v 2 l 1,2 v 2 2 l 1,1 v 2 l 1,2 v 1 1 h 1 v 1 l 1,-1 v 0 l 1,-1 v -2 -1 l 1,-2 v -2 l 1,-2 v -2 l 1,-1 v -2 -1 l 1,-1 v -1 h 1 v 0 l 1,1 v 1 1 l 1,2 v 1 l 1,2 v 2 l 1,2 v 2 2 l 1,1 v 1 h 1 v 1 0 l 1,-1 v -1 l 1,-1 v -2 l 1,-2 v -1 -2 l 1,-2 v -2 l 1,-2 v -1 l 1,-1 v -1 0 h 1 v 1 l 1,1 v 1 l 1,1 v 2 2 l 1,2 v 2 l 1,2 v 1 2 l 1,1 v 0 l 1,1 v -1 h 1 v -1 -1 l 1,-2 v -1 l 1,-2 v -2 l 1,-2 v -2 -2 l 1,-1 v -1 l 1,-1 v 0 h 1 v 1 0 l 1,2 v 1 l 1,2 v 2 2 l 1,1 v 2 l 1,2 v 1 l 1,2 v 0 1 h 1 v -1 l 1,-1 v -1 l 1,-1 v -2 -2 l 1,-2 v -2 l 1,-1 v -2 l 1,-2 v -1 -1 h 1 v 0 h 1 v 1 1 l 1,2 v 1 l 1,2 v 2 l 1,2 v 2 2 l 1,1 v 1 l 1,1 v 0 l 1,1 v -1 -1 l 1,-1 v -1 l 1,-2 v -2 l 1,-2 v -1 -2 l 1,-2 v -1 l 1,-2 v -1 0 h 1 v 0 l 1,1 v 1 l 1,2 v 1 2 l 1,2 v 2 l 1,2 v 1 l 1,2 v 1 1 l 1,1 v 0 l 1,-1 v 0 l 1,-1 v -2 -1 l 1,-2 v -2 l 1,-2 v -2 -2 l 1,-1 v -1 l 1,-1 v -1 h 1 v 0 1 l 1,1 v 1 l 1,2 v 2"
           stroke="#ed7d31"
           stroke-width="2"
           stroke-linecap="round"
           stroke-linejoin="round"
           stroke-miterlimit="10"
           fill="none"
           id="path14" />
      </g>
      <g
         clip-path="url(#clip3-8)"
         id="g16">
        <path
           d="m 799,-86 v 17 h 1 v -9 l 1,-12 v -14 -12 l 1,-9 v -7 l 1,-4 v -1 1 l 1,4 v 5 l 1,7 v 8 l 1,8 v 9 9 l 1,9 v 9 l 1,10 v 9 l 1,8 v 9 8 l 1,8 v 6.99999 L 811,-1 v 7 l 1,7 v 6 7 l 1,6 v 6 l 1,5 v 6 5 l 1,5 v 5 l 1,5 v 5 l 1,4 v 5 4 l 1,4 v 4 l 1,4 v 4 l 1,4 v 3 4 l 1,3 v 4 l 1,3 v 3 l 1,3 v 3 3 l 1,3 v 3 l 1,2 v 3 3 l 1,2 v 3 l 1,2 v 3 l 1,2 v 2 2 l 1,3 v 2 l 1,2 v 2 l 1,2 v 2 2 l 1,2 v 1 l 1,2 v 2 l 1,2 v 1 2 l 1,2 v 1 l 1,2 v 1 l 1,2 v 2 1 l 1,1 v 2 l 1,1 v 2 1 l 1,1 v 1 l 1,2 v 1 l 1,1 v 1 2 l 1,1 v 1 l 1,1 v 1 l 1,1 v 1 1 l 1,1 v 1 l 1,1 v 1 l 1,1 v 1 1 l 1,1 v 1 l 1,1 v 1 1 h 1 v 1 l 1,1 v 1 l 1,1 v 1 0 l 1,1 v 1 l 1,1 v 0 l 1,1 v 1 0 l 1,1 v 1 h 1 v 1 l 1,1 v 0 1 l 1,1 v 0 l 1,1 v 0 1 l 1,1 v 0 l 1,1 v 0 l 1,1 v 0 1 h 1 v 1 h 1 v 1 h 1 v 1 0 l 1,1 v 0 l 1,1 v 0 l 1,1 v 0 1 h 1 v 1 h 1 v 0 1 h 1 v 1 h 1 v 1 h 1 v 0 1 h 1 v 1 h 1 v 0 l 1,1 v 0 1 h 1 v 0 l 1,1 v 0 h 1 v 1 0 h 1 v 1 h 1 v 1 0 h 1 v 1 h 1 v 0 l 1,1 v 0 0 h 1 v 1 h 1 v 0 l 1,1 v 0 0 l 1,1 v 0 h 1 v 1 h 1 v 0 0 l 1,1 v 0 h 1 v 0 1 h 1 v 0 l 1,1 v 0 h 1 v 0 1 h 1 v 0 h 1 v 1 h 1 v 0 0 l 1,1 v 0 h 1 v 0 h 1 v 1 0 h 1 v 0 l 1,1 v 0 0 h 1 v 0 l 1,1 v 0 h 1 v 0 0 l 1,1 v 0 h 1 v 0 h 1 v 1 0 h 1 v 0 h 1 v 0 l 1,1 v 0 0 h 1 v 0 h 1 v 1 0 h 1 v 0 h 1 v 0 l 1,1 v 0 0 h 1 v 0 h 1 v 0 l 1,1 v 0 0 h 1 v 0 h 1 v 0 h 1 v 1 0 h 1 v 0 h 1 v 0 0 h 1 v 0 l 1,1 v 0 h 1 v 0 0 h 1 v 0 h 1 v 0 h 1 v 0 0 h 1 v 1 h 1 v 0 h 1 v 0 0 h 1 v 0 h 1 v 0 0 h 1 v 0 h 1 v 0 h 1 v 0 0 h 1 v 0 h 1 v 0 h 1 v 0 0 h 1 v 0 h 1 v 0 h 1 v 0 -1 h 1 v 0 h 1 v 0 0 h 1 v 0 h 1 v 0 h 1 v -1 0 h 1 v 0 h 1 v 0 h 1 v -1 0 h 1 v 0 h 1 v -1 h 1 v 0 0 l 1,-1 v 0 h 1 v 0 l 1,-1 v 0 0 l 1,-1 v 0 h 1 v -1 0 h 1 v -1 h 1 v 0 l 1,-1 v 0 -1 h 1 v 0 l 1,-1 v 0 l 1,-1 v 0 0 l 1,-1 v 0 l 1,-1 v 0 l 1,-1 v 0 -1 h 1 v -1 l 1,-1 v 0 -1 h 1 v -1 l 1,-1 v 0 l 1,-1 v 0 -1 l 1,-1 v -1 h 1 v -1 l 1,-1 v 0 -1 l 1,-1 v 0 l 1,-1 v -1 l 1,-1 v 0 -1 l 1,-1 v -1 h 1 v -1 -1 h 1 v -1 l 1,-1 v -1 l 1,-1 v 0 -1 l 1,-1 v -1 l 1,-1 v -1 l 1,-1 v 0 -1 l 1,-1 v -1 l 1,-1 v -1 l 1,-1 v -1 -1 l 1,-1 v -1 l 1,-1 v -1 -1 l 1,-1 v -1 l 1,-1 v 0 l 1,-1 v -1 -1 l 1,-1 v -1 l 1,-1 v 0 l 1,-1 v -1 -1 l 1,-1 v -1 l 1,-1 v 0 l 1,-1 v -1 -1 l 1,-1 v -1 l 1,-2 v -1 -1 l 1,-1 v -1 l 1,-1 v -1 l 1,-1 v -1 -1 l 1,-1 v -1 l 1,-1 v -1 l 1,-1 v -1 0 l 1,-1 v -1 h 1 v -1 l 1,-1 v 0 -1 l 1,-1 v -1 h 1 v -1 -1 l 1,-1 v -1 l 1,-1 v -1 l 1,-1 v -1 -2 l 1,-1 v -1 l 1,-1 v -1 l 1,-1 v -1 -1 l 1,-1 v -1 l 1,-1 v -1 h 1 v -1 -1 h 1 v 0 l 1,-1 v 0 -1 h 1 v -1 h 1 v -1 h 1 v -1 -1 l 1,-1 v -1 l 1,-1 v -1 l 1,-1 v -1 -2 l 1,-1 v -1 l 1,-1 v -2 l 1,-1 v -1 -1 h 1 v -1 l 1,-1 v 0 0 l 1,-1 v 0 h 1 v 0 h 1 v 0 0 l 1,-1 v 0 h 1 v -1 h 1 v -1 -1 l 1,-1 v -1 l 1,-1 v -2 l 1,-1 v -2 -1 l 1,-1 v -2 l 1,-1 v -1 -1 h 1 v -1 h 1 v -1 h 1 v 0 0 l 1,1 v 0 h 1 v 0 h 1 v 1 0 l 1,-1 v 0 h 1 v -1 l 1,-1 v -1 -1 l 1,-2 v -1 l 1,-1 v -2 -1 l 1,-2 v -1 l 1,-1 v -1 l 1,-1 v -1 0 l 1,-1 v 0 l 1,1 v 0 h 1 v 1 1 h 1 v 1 h 1 v 1 h 1 v 0 0 l 1,-1 v 0 l 1,-1 v -1 -2 l 1,-1 v -2 l 1,-1 v -2 l 1,-2 v -1 -1 l 1,-2 v -1 h 1 v -1 h 1 v 0 0 l 1,1 v 1 h 1 v 1 l 1,1 v 1 1 l 1,1 v 0 l 1,1 v 0 l 1,-1 v 0 -1 l 1,-1 v -1 l 1,-1 v -2 -2 l 1,-1 v -2 l 1,-2 v -1 l 1,-2 v -1 0 l 1,-1 v 0 h 1 v 0 l 1,1 v 1 1 l 1,1 v 1 l 1,2 v 1 l 1,1 v 1 0 h 1 v 0 h 1 v 0 -1 l 1,-2 v -1 l 1,-2 v -1 l 1,-2 v -2 -2 l 1,-1 v -2 l 1,-1 v -1 h 1 v 0 0 h 1 v 1 l 1,1 v 1 l 1,1 v 2 1 l 1,1 v 2 l 1,1 v 1 0 h 1 v 0 h 1 v -1 l 1,-1 v -2 -1 l 1,-2 v -2 l 1,-1 v -2 l 1,-2 v -1 -2 l 1,-1 v 0 h 1 v 0 h 1 v 1 1 l 1,1 v 2 l 1,1 v 2 1 l 1,2 v 1 l 1,1 v 1 h 1 v 0 0 l 1,-1 v -1 l 1,-1 v -2 l 1,-2 v -2 -1 l 1,-2 v -2 l 1,-2 v -1 l 1,-1 v -1 0 h 1 v 1 h 1 v 2 1 l 1,1 v 2 l 1,2 v 1 l 1,2 v 1 1 l 1,1 v 1 h 1 v 0 l 1,-1 v -1 -1 l 1,-2 v -1 l 1,-2 v -2 l 1,-2 v -2 -1 l 1,-2 v -1 l 1,-1 v 0 0 l 1,1 v 0 l 1,1 v 2 l 1,1 v 2 2 l 1,2 v 1 l 1,2 v 1 l 1,1 v 1 0 h 1 v -1 l 1,-1 v -1 l 1,-1 v -2 -2 l 1,-2 v -2 l 1,-2 v -1 -2 l 1,-1 v -1 h 1 v 0 h 1 v 1 1 l 1,2 v 1 l 1,2 v 2 l 1,1 v 2 2 l 1,1 v 1 l 1,1 v 0 h 1 v 0 -1 l 1,-1 v -2 l 1,-2 v -1 -2 l 1,-2 v -2 l 1,-2 v -1 l 1,-1 v -1 -1 h 1 v 1 h 1 v 2 l 1,1 v 2 1 l 1,2 v 2 l 1,2 v 2 l 1,1 v 1 1 h 1 v 0 h 1 v -1 -1 l 1,-2 v -1 l 1,-2 v -2 l 1,-2 v -2 -2 l 1,-1 v -1 l 1,-1 v -1 h 1 v 1 0 l 1,1 v 2 l 1,1 v 2 l 1,2 v 2 2 l 1,1 v 2 l 1,1 v 1 0 h 1 v 0 l 1,-1 v -1 l 1,-1 v -2 -2 l 1,-2 v -1 l 1,-2 v -2 l 1,-2 v -1 -1 h 1 v -1 l 1,1 v 0 l 1,2 v 1 1 l 1,2 v 2 l 1,2 v 2 2 l 1,1 v 1 l 1,1 v 1 h 1 v 0 -1 l 1,-1 v -1 l 1,-2 v -2 l 1,-2 v -2 -2 l 1,-1 v -2 l 1,-1 v -1 l 1,-1 v 0 0 l 1,1 v 1 l 1,1 v 2 l 1,1 v 2 2 l 1,2 v 2 l 1,1 v 2 1 h 1 v 0 h 1 v 0 l 1,-1 v -2 -1 l 1,-2 v -2 l 1,-2 v -2 l 1,-2 v -1 -2 l 1,-1 v 0 h 1 v 0 h 1 v 1 2 l 1,1 v 2 l 1,2 v 2 2 l 1,2 v 1 l 1,1 v 1 l 1,1 v 0 0 h 1 v -1 l 1,-2 v -1 l 1,-2 v -2 -2 l 1,-2 v -2 l 1,-1 v -2 l 1,-1 v 0 -1 l 1,1 v 0 l 1,1 v 1 2 l 1,1 v 2 l 1,2 v 2 l 1,2 v 2 1 l 1,1 v 1 h 1 v 0 l 1,-1 v 0 -2 l 1,-1 v -2 l 1,-2 v -2 l 1,-2 v -2 -1 l 1,-2 v -1 h 1 v -1 0 l 1,1 v 1 l 1,1 v 1 l 1,2 v 2 2 l 1,2 v 2 l 1,1 v 2 l 1,1 v 1 0 h 1 v -1 h 1 v -2 l 1,-1 v -2 -2 l 1,-2 v -2 l 1,-1 v -2 -2 l 1,-1 v -1 h 1 v 0 l 1,1 v 0 2 l 1,1 v 2 l 1,2 v 1 l 1,2 v 2 2 l 1,1 v 2 h 1 v 1 h 1 v -1 0 l 1,-2 v -1 l 1,-2 v -2 -2 l 1,-2 v -1 l 1,-2 v -2 l 1,-1 v -1 0 h 1 v 0 l 1,1 v 1 l 1,2 v 1 2 l 1,2 v 2 l 1,2 v 2 l 1,1 v 1 1 l 1,1 v 0 l 1,-1 v 0 -1 l 1,-2 v -1 l 1,-2 v -2 l 1,-2 v -2 -2 l 1,-1 v -2 l 1,-1 v 0 h 1 v 0 1 l 1,1 v 1 l 1,2 v 2 l 1,2 v 2 2 l 1,1 v 2 l 1,1 v 1 1 h 1 v -1 h 1 v -1 l 1,-2 v -1 -2 l 1,-2 v -2 l 1,-2 v -2 l 1,-1 v -2 -1 h 1 v 0 h 1 v 1 l 1,1 v 1 2 l 1,2 v 2 l 1,2 v 2 1 l 1,2 v 1 l 1,1 v 1 h 1 v 0 -1 l 1,-1 v -2 l 1,-1 v -2 l 1,-2 v -2 -2 l 1,-2 v -1 l 1,-2 v 0 l 1,-1 v 0 0 l 1,1 v 1 l 1,1 v 2 1 l 1,2 v 2 l 1,2 v 2 l 1,2 v 1 1 h 1 v 1 l 1,-1 v 0 l 1,-1 v -1 -2 l 1,-2 v -2 l 1,-2 v -2 l 1,-2 v -1 -1 l 1,-1 v -1 h 1 v 0 1 l 1,1 v 1 l 1,1 v 2 l 1,2 v 2 2 l 1,2 v 2 l 1,1 v 1 h 1 v 1 0 l 1,-1 v -1 l 1,-1 v -2 l 1,-2 v -2 -1 l 1,-2 v -2 l 1,-2 v -1 l 1,-1 v -1 0 h 1 v 0 l 1,1 v 2 1 l 1,2 v 2 l 1,2 v 2 l 1,2 v 1 2 l 1,1 v 0 l 1,1 v -1 h 1 v -1 -1 l 1,-2 v -2 l 1,-1 v -2 l 1,-2 v -2 -2 l 1,-1 v -1 l 1,-1 v 0 0 h 1 v 1 l 1,2 v 1 l 1,2 v 2 2 l 1,2 v 1 l 1,2 v 2 l 1,1 v 0 1 h 1 v -1 l 1,-1 v -1 l 1,-1 v -2 -2 l 1,-2 v -2 l 1,-2 v -2 -1 l 1,-1 v -1 h 1 v 0 h 1 v 1 1 l 1,2 v 1 l 1,2 v 2 l 1,2 v 2 2 l 1,1 v 1 l 1,1 v 0 l 1,1 v -1 -1 l 1,-1 v -1 l 1,-2 v -2 -2 l 1,-2 v -2 l 1,-1 v -2 l 1,-1 v -1 0 h 1 v 0 l 1,1 v 1 l 1,2 v 1 2 l 1,2 v 2 l 1,2 v 2 l 1,1 v 1 1 l 1,1 v 0 l 1,-1 v 0 -2 l 1,-1 v -2 l 1,-2 v -2 l 1,-2 v -1 -2 l 1,-2 v -1 l 1,-1 v 0 h 1 v 0 1 l 1,1 v 1 l 1,2 v 2 l 1,2 v 2 2 l 1,1 v 2 l 1,1 v 1 0 l 1,1 v -1 l 1,-1 v -1 l 1,-1 v -2 -2 l 1,-1 v -2 l 1,-2 v -2 l 1,-2 v -1 -1 h 1 v 0 h 1 v 1 l 1,1 v 1 2 l 1,2 v 2 l 1,2 v 2 1 l 1,2 v 1 l 1,1 v 1 h 1 v -1 0 l 1,-1 v -2 l 1,-1 v -2 l 1,-2 v -2 -2 l 1,-2 v -1 l 1,-2 v -1 h 1 v 0 0 l 1,1 v 1 l 1,1 v 2 1 l 1,2 v 2 l 1,2 v 2 l 1,2 v 1 1 h 1 v 1 l 1,-1 v 0 l 1,-1 v -2 -1 l 1,-2 v -2 l 1,-2 v -2 l 1,-2 v -1 -2 l 1,-1 v 0 h 1 v 0 1 l 1,1 v 1 l 1,1 v 2 l 1,2 v 2 2 l 1,2 v 2 l 1,1 v 1 h 1 v 1 0 l 1,-1 v -1 l 1,-1 v -2 l 1,-2 v -2 -2 l 1,-2 v -1 l 1,-2 v -1 -1 l 1,-1 v 0 h 1 v 0 l 1,1 v 2 1 l 1,2 v 2 l 1,2 v 2 l 1,2 v 1 2 l 1,1 v 0 h 1 v 0 h 1 v -1 -1 l 1,-2 v -2 l 1,-2 v -2 -1 l 1,-2 v -2 l 1,-1 v -1 l 1,-1 v 0 0 h 1 v 1 l 1,2 v 1 l 1,2 v 2 2 l 1,2 v 2 l 1,1 v 2 l 1,1 v 0 1 h 1 v -1 l 1,-1 v -1 l 1,-2 v -1 -2 l 1,-2 v -2 l 1,-2 v -2 -1 l 1,-1 v -1 h 1 v 0 h 1 v 1 1 l 1,2 v 2 l 1,1 v 2 l 1,2 v 2 2 l 1,1 v 1 l 1,1 v 0 h 1 v 0 -1 l 1,-1 v -1 l 1,-2 v -2 -2 l 1,-2 v -2 l 1,-2 v -1 l 1,-1 v -1 0 h 1 v 0 l 1,1 v 1 l 1,2 v 1 2 l 1,2 v 2 l 1,2 v 2 l 1,1 v 1 1 l 1,1 v 0 l 1,-1 v -1 -1 l 1,-1 v -2 l 1,-2 v -2 l 1,-2 v -2 -1 l 1,-2 v -1 l 1,-1 v 0 h 1 v 0 1 l 1,1 v 1 l 1,2 v 2 l 1,2 v 2 2 l 1,1 v 2 l 1,1 v 1 0 l 1,1 v -1 l 1,-1 v -1 l 1,-1 v -2 -2 l 1,-2 v -2 l 1,-1 v -2 l 1,-2 v -1 -1 h 1 v 0 h 1 v 1 l 1,1 v 1 2 l 1,2 v 2 l 1,2 v 2 1 l 1,2 v 1 l 1,1 v 1 h 1 v -1 0 l 1,-1 v -2 l 1,-1 v -2 l 1,-2 v -2 -2 l 1,-2 v -1 l 1,-2 v -1 h 1 v 0 0 l 1,1 v 1 l 1,1 v 2 2 l 1,1 v 2 l 1,2 v 2 l 1,2 v 1 1 h 1 v 1 l 1,-1 v 0 l 1,-1 v -2 -1 l 1,-2 v -2 l 1,-2 v -2 l 1,-2 v -1 -2 l 1,-1 v 0 h 1 v 0 1 l 1,1 v 1 l 1,2 v 1 l 1,2 v 2 2 l 1,2 v 2 l 1,1 v 1 h 1 v 1 -1 h 1 v -1 l 1,-1 v -2 l 1,-2 v -2 -2 l 1,-2 v -2 l 1,-1 v -1 -1 l 1,-1 v 0 h 1 v 0 l 1,1 v 2 1 l 1,2 v 2 l 1,2 v 2 l 1,2 v 1 2 l 1,1 v 0 h 1 v 0 h 1 v -1 -1 l 1,-2 v -2 l 1,-2 v -2 -2 l 1,-1 v -2 l 1,-1 v -1 l 1,-1 v 0 0 h 1 v 1 l 1,2 v 1 l 1,2 v 2 2 l 1,2 v 2 l 1,1 v 2 l 1,1 v 0 1 h 1 v -1 l 1,-1 v -1 -2 l 1,-1 v -2 l 1,-2 v -2 l 1,-2 v -2 -1 l 1,-1 v -1 h 1 v 0 h 1 v 1 1 l 1,2 v 2 l 1,2 v 2 l 1,1 v 2 2 l 1,1 v 1 l 1,1 v 0 0 h 1 v -1 l 1,-1 v -2 l 1,-1 v -2 -2 l 1,-2 v -2 l 1,-2 v -1 l 1,-1 v -1 0 h 1 v 0 l 1,1 v 1 l 1,2 v 2 1 l 1,2 v 2 l 1,2 v 2 l 1,1 v 1 1 l 1,1 v 0 l 1,-1 v -1 -1 l 1,-1 v -2 l 1,-2 v -2 l 1,-2 v -2 -1 l 1,-2 v -1 l 1,-1 v 0 h 1 v 0 1 l 1,1 v 2 l 1,1 v 2 l 1,2 v 2 2 l 1,2 v 1 l 1,1 v 1 0 h 1 v 0 l 1,-1 v -1 l 1,-1 v -2 -2 l 1,-2 v -2 l 1,-2 v -1 l 1,-2 v -1 -1 h 1 v 0 h 1 v 1 l 1,1 v 1 2 l 1,2 v 2 l 1,2 v 2 2 l 1,1 v 1 l 1,1 v 1 h 1 v -1 0 l 1,-1 v -2 l 1,-2 v -1 l 1,-2 v -2 -2 l 1,-2 v -2 l 1,-1 v -1 h 1 v 0 0 l 1,1 v 1 l 1,1 v 2 2 l 1,2 v 2 l 1,1 v 2 l 1,2 v 1 1 h 1 v 1 l 1,-1 v 0 l 1,-2 v -1 -2 l 1,-1 v -2 l 1,-2 v -2 l 1,-2 v -1 -2 l 1,-1 v 0 h 1 v 0 1 l 1,1 v 1 l 1,2 v 2 l 1,1 v 2 2 l 1,2 v 2 l 1,1 v 1 l 1,1 v 0 -1 h 1 v -1 l 1,-2 v -1 l 1,-2 v -2 -2 l 1,-2 v -2 l 1,-1 v -2 -1 h 1 v 0 h 1 v 1 l 1,1 v 1 1 l 1,2 v 2 l 1,2 v 2"
           stroke="#a5a5a5"
           stroke-width="2"
           stroke-linecap="round"
           stroke-linejoin="round"
           stroke-miterlimit="10"
           fill="none"
           id="path15" />
      </g>
      <g
         clip-path="url(#clip4-5)"
         id="g17">
        <path
           d="m 799,-82 v 17 l 1,1 v -9 l 1,-12 v -13 -12 l 1,-10 v -7 l 1,-4 v -1 1 l 1,3 v 5 l 1,7 v 7 l 1,8 v 9 9 l 1,9 v 9 l 1,9 v 9 l 1,8 v 9 8 l 1,7 v 7.99999 L 811,0 v 7 l 1,7 v 7 6 l 1,6 v 6 l 1,6 v 5 5 l 1,5 v 5 l 1,5 v 5 l 1,4 v 5 4 l 1,4 v 4 l 1,4 v 4 l 1,3 v 4 3 l 1,4 v 3 l 1,3 v 4 l 1,3 v 3 2 l 1,3 v 3 l 1,3 v 2 3 l 1,3 v 2 l 1,2 v 3 l 1,2 v 2 3 l 1,2 v 2 l 1,2 v 2 l 1,2 v 2 2 l 1,2 v 1 l 1,2 v 2 l 1,2 v 1 2 l 1,2 v 1 l 1,2 v 1 l 1,2 v 1 2 l 1,1 v 2 l 1,1 v 1 2 l 1,1 v 1 l 1,1 v 2 l 1,1 v 1 1 l 1,1 v 1 l 1,2 v 1 l 1,1 v 1 1 l 1,1 v 1 l 1,1 v 1 l 1,1 v 1 1 l 1,1 v 0 l 1,1 v 1 1 l 1,1 v 1 l 1,1 v 0 l 1,1 v 1 1 h 1 v 1 l 1,1 v 1 h 1 v 1 1 h 1 v 1 l 1,1 v 0 l 1,1 v 1 0 l 1,1 v 0 l 1,1 v 1 0 l 1,1 v 0 l 1,1 v 0 l 1,1 v 1 0 l 1,1 v 0 l 1,1 v 0 l 1,1 v 0 1 h 1 v 0 l 1,1 v 0 l 1,1 v 0 1 h 1 v 1 h 1 v 0 1 h 1 v 1 h 1 v 1 h 1 v 0 1 h 1 v 1 h 1 v 0 l 1,1 v 0 0 l 1,1 v 0 l 1,1 v 0 h 1 v 1 0 h 1 v 1 h 1 v 0 1 h 1 v 0 l 1,1 v 0 h 1 v 1 0 h 1 v 1 h 1 v 0 l 1,1 v 0 0 h 1 v 1 h 1 v 0 l 1,1 v 0 0 h 1 v 1 h 1 v 0 0 l 1,1 v 0 h 1 v 1 h 1 v 0 0 l 1,1 v 0 h 1 v 0 l 1,1 v 0 0 h 1 v 0 l 1,1 v 0 h 1 v 0 1 h 1 v 0 h 1 v 0 1 h 1 v 0 h 1 v 0 l 1,1 v 0 0 h 1 v 0 l 1,1 v 0 h 1 v 0 0 l 1,1 v 0 h 1 v 0 h 1 v 1 0 h 1 v 0 h 1 v 0 1 h 1 v 0 h 1 v 0 h 1 v 1 0 h 1 v 0 h 1 v 0 h 1 v 1 0 h 1 v 0 h 1 v 0 h 1 v 1 0 h 1 v 0 h 1 v 0 0 l 1,1 v 0 h 1 v 0 h 1 v 0 0 h 1 v 1 h 1 v 0 h 1 v 0 0 h 1 v 0 h 1 v 1 h 1 v 0 0 h 1 v 0 h 1 v 0 0 h 1 v 1 h 1 v 0 h 1 v 0 0 h 1 v 0 h 1 v 0 h 1 v 0 0 l 1,1 v 0 h 1 v 0 h 1 v 0 0 h 1 v 0 h 1 v 0 0 h 1 v 0 h 1 v 0 h 1 v 0 0 h 1 v 0 h 1 v 0 h 1 v 0 0 h 1 v 0 h 1 v 0 h 1 v 0 0 h 1 v 0 h 1 v 0 h 1 v 0 0 h 1 v 0 h 1 v 0 0 h 1 v 0 h 1 v 0 h 1 v -1 0 h 1 v 0 h 1 v 0 h 1 v 0 0 h 1 v -1 h 1 v 0 h 1 v 0 0 h 1 v -1 h 1 v 0 0 h 1 v 0 l 1,-1 v 0 h 1 v 0 0 l 1,-1 v 0 h 1 v 0 l 1,-1 v 0 0 l 1,-1 v 0 h 1 v -1 h 1 v 0 -1 h 1 v 0 l 1,-1 v 0 -1 h 1 v 0 l 1,-1 v 0 l 1,-1 v 0 0 l 1,-1 v 0 l 1,-1 v 0 l 1,-1 v 0 -1 h 1 v -1 h 1 v -1 h 1 v -1 0 l 1,-1 v 0 l 1,-1 v -1 0 l 1,-1 v -1 h 1 v -1 l 1,-1 v 0 -1 l 1,-1 v -1 h 1 v -1 l 1,-1 v -1 0 l 1,-1 v -1 l 1,-1 v 0 l 1,-1 v -1 -1 h 1 v -1 l 1,-1 v 0 -1 l 1,-1 v -1 l 1,-1 v 0 l 1,-1 v -1 -1 l 1,-1 v 0 l 1,-1 v -1 l 1,-1 v -1 -1 l 1,-1 v -1 l 1,-1 v -1 l 1,-1 v -1 -1 l 1,-1 v -1 l 1,-1 v -1 -1 l 1,-1 v -1 l 1,-1 v -1 l 1,-1 v 0 -1 l 1,-1 v -1 h 1 v -1 l 1,-1 v -1 -1 h 1 v -1 l 1,-1 v -1 l 1,-1 v -1 -1 l 1,-1 v -1 l 1,-1 v -2 -1 l 1,-1 v -1 l 1,-1 v -1 l 1,-1 v -1 -1 l 1,-1 v -1 l 1,-1 v -1 l 1,-1 v -1 0 l 1,-1 v -1 h 1 v -1 l 1,-1 v 0 -1 l 1,-1 v 0 l 1,-1 v -1 -1 l 1,-1 v -1 l 1,-1 v -1 l 1,-1 v -1 -1 l 1,-2 v -1 l 1,-1 v -1 l 1,-1 v -1 -1 l 1,-1 v -1 l 1,-1 v -1 l 1,-1 v 0 -1 h 1 v -1 h 1 v 0 -1 h 1 v 0 l 1,-1 v 0 l 1,-1 v 0 -1 l 1,-1 v -1 l 1,-1 v -1 l 1,-1 v -2 -1 l 1,-1 v -2 l 1,-1 v -1 l 1,-1 v -1 -1 l 1,-1 v -1 h 1 v -1 0 h 1 v 0 h 1 v 0 h 1 v 0 -1 h 1 v 0 h 1 v -1 h 1 v -1 -1 l 1,-1 v -1 l 1,-1 v -1 l 1,-2 v -1 -1 l 1,-2 v -1 l 1,-1 v -2 0 l 1,-1 v -1 h 1 v -1 h 1 v 0 0 l 1,1 v 0 h 1 v 1 h 1 v 0 0 h 1 v 0 h 1 v -1 h 1 v -1 -2 l 1,-1 v -1 l 1,-2 v -1 l 1,-2 v -1 -2 l 1,-1 v -1 l 1,-1 v -1 0 l 1,-1 v 0 h 1 v 1 h 1 v 1 1 h 1 v 1 l 1,1 v 0 h 1 v 1 0 l 1,-1 v 0 l 1,-1 v -1 l 1,-1 v -1 -2 l 1,-2 v -1 l 1,-2 v -1 -2 l 1,-1 v -1 l 1,-1 v -1 h 1 v 0 0 l 1,1 v 0 l 1,1 v 1 l 1,1 v 1 1 l 1,1 v 0 l 1,1 v 0 h 1 v 0 -1 h 1 v -1 l 1,-2 v -1 -2 l 1,-1 v -2 l 1,-2 v -1 l 1,-2 v -1 -1 l 1,-1 v 0 h 1 v 0 h 1 v 1 1 l 1,1 v 1 l 1,1 v 2 l 1,1 v 1 1 h 1 v 1 h 1 v -1 0 l 1,-1 v -1 l 1,-2 v -1 l 1,-2 v -2 -2 l 1,-1 v -2 l 1,-1 v -1 l 1,-1 v -1 0 h 1 v 1 h 1 v 1 l 1,2 v 1 1 l 1,2 v 1 l 1,1 v 2 0 l 1,1 v 0 h 1 v 0 l 1,-1 v -1 -2 l 1,-1 v -2 l 1,-2 v -1 l 1,-2 v -2 -1 l 1,-2 v -1 h 1 v 0 h 1 v 0 1 l 1,1 v 1 l 1,2 v 1 2 l 1,1 v 2 l 1,1 v 1 l 1,1 v 0 0 h 1 v -1 l 1,-1 v -1 l 1,-1 v -2 -2 l 1,-2 v -2 l 1,-1 v -2 l 1,-1 v -1 -1 h 1 v 0 h 1 v 1 1 l 1,1 v 1 l 1,2 v 2 l 1,1 v 2 1 l 1,2 v 1 h 1 v 0 h 1 v 0 -1 l 1,-1 v -2 l 1,-1 v -2 l 1,-2 v -2 -2 l 1,-1 v -2 l 1,-1 v -1 0 h 1 v 0 l 1,1 v 1 l 1,1 v 1 2 l 1,2 v 2 l 1,1 v 2 l 1,1 v 1 1 h 1 v 0 h 1 v -1 l 1,-1 v -1 -2 l 1,-1 v -2 l 1,-2 v -2 -2 l 1,-1 v -1 l 1,-1 v -1 h 1 v 0 1 l 1,1 v 1 l 1,1 v 2 l 1,2 v 1 2 l 1,2 v 1 l 1,2 v 0 l 1,1 v 0 0 l 1,-1 v -1 l 1,-1 v -1 -2 l 1,-2 v -2 l 1,-2 v -2 l 1,-1 v -1 -1 l 1,-1 v 0 h 1 v 0 l 1,1 v 1 2 l 1,1 v 2 l 1,2 v 2 l 1,1 v 2 1 l 1,1 v 1 h 1 v 0 0 l 1,-1 v -1 l 1,-2 v -2 l 1,-1 v -2 -2 l 1,-2 v -2 l 1,-1 v -1 l 1,-1 v 0 0 h 1 v 1 l 1,1 v 1 l 1,2 v 2 1 l 1,2 v 2 l 1,2 v 1 l 1,1 v 1 0 h 1 v 0 l 1,-1 v -1 -1 l 1,-2 v -1 l 1,-2 v -2 l 1,-2 v -2 -1 l 1,-2 v 0 l 1,-1 v 0 h 1 v 1 1 l 1,1 v 2 l 1,1 v 2 l 1,2 v 2 2 l 1,1 v 1 l 1,1 v 1 0 h 1 v -1 l 1,-1 v -1 l 1,-2 v -1 -2 l 1,-2 v -2 l 1,-2 v -1 l 1,-2 v -1 0 l 1,-1 v 1 h 1 v 1 l 1,1 v 2 2 l 1,1 v 2 l 1,2 v 2 1 l 1,2 v 1 h 1 v 1 h 1 v -1 -1 l 1,-1 v -2 l 1,-1 v -2 l 1,-2 v -2 -2 l 1,-1 v -2 l 1,-1 v 0 l 1,-1 v 0 1 l 1,1 v 1 l 1,1 v 2 2 l 1,2 v 1 l 1,2 v 2 l 1,1 v 1 1 h 1 v 0 h 1 v -1 l 1,-1 v -1 -2 l 1,-2 v -2 l 1,-2 v -1 l 1,-2 v -2 -1 l 1,-1 v 0 h 1 v 0 1 l 1,1 v 2 l 1,1 v 2 l 1,2 v 2 2 l 1,1 v 2 l 1,1 v 1 h 1 v 0 0 l 1,-1 v -1 l 1,-1 v -2 l 1,-1 v -2 -2 l 1,-2 v -2 l 1,-1 v -2 -1 h 1 v 0 h 1 v 1 l 1,1 v 1 2 l 1,1 v 2 l 1,2 v 2 l 1,2 v 1 1 l 1,1 v 1 h 1 v 0 l 1,-1 v -1 -1 l 1,-1 v -2 l 1,-2 v -2 -2 l 1,-2 v -1 l 1,-1 v -1 l 1,-1 v 0 0 h 1 v 1 l 1,1 v 2 l 1,2 v 2 1 l 1,2 v 2 l 1,2 v 1 l 1,1 v 1 0 h 1 v 0 l 1,-1 v -2 -1 l 1,-2 v -2 l 1,-1 v -2 l 1,-2 v -2 -1 l 1,-1 v -1 h 1 v 0 h 1 v 1 1 l 1,1 v 2 l 1,2 v 2 l 1,2 v 2 1 l 1,2 v 1 l 1,1 v 0 0 h 1 v -1 l 1,-1 v -2 l 1,-1 v -2 -2 l 1,-2 v -2 l 1,-1 v -2 l 1,-1 v -1 0 h 1 v 0 l 1,1 v 1 l 1,1 v 2 1 l 1,2 v 2 l 1,2 v 2 1 l 1,1 v 1 l 1,1 v 0 h 1 v -1 -1 l 1,-1 v -2 l 1,-2 v -2 l 1,-1 v -2 -2 l 1,-2 v -1 l 1,-1 v 0 l 1,-1 v 1 0 l 1,1 v 2 l 1,1 v 2 2 l 1,2 v 2 l 1,1 v 2 l 1,1 v 1 1 h 1 v 0 l 1,-1 v -1 l 1,-1 v -1 -2 l 1,-2 v -2 l 1,-2 v -2 l 1,-1 v -2 -1 h 1 v -1 l 1,1 v 0 l 1,1 v 1 2 l 1,1 v 2 l 1,2 v 2 2 l 1,1 v 2 l 1,1 v 1 h 1 v 0 -1 h 1 v -2 l 1,-1 v -2 l 1,-2 v -1 -2 l 1,-2 v -2 l 1,-1 v -1 l 1,-1 v -1 0 l 1,1 v 1 l 1,1 v 1 2 l 1,2 v 2 l 1,2 v 1 l 1,2 v 1 2 h 1 v 1 h 1 v 0 l 1,-1 v -1 -2 l 1,-1 v -2 l 1,-2 v -2 l 1,-2 v -1 -2 l 1,-1 v -1 l 1,-1 v 0 1 h 1 v 1 l 1,2 v 1 l 1,2 v 2 2 l 1,2 v 2 l 1,1 v 1 l 1,1 v 1 0 h 1 v -1 l 1,-1 v -1 l 1,-2 v -2 -1 l 1,-2 v -2 l 1,-2 v -2 -1 l 1,-1 v 0 l 1,-1 v 1 h 1 v 1 1 l 1,2 v 2 l 1,2 v 1 l 1,2 v 2 2 l 1,1 v 1 l 1,1 v 0 h 1 v -1 -1 l 1,-1 v -1 l 1,-2 v -2 -2 l 1,-2 v -2 l 1,-1 v -2 l 1,-1 v 0 -1 h 1 v 1 l 1,1 v 1 l 1,2 v 1 2 l 1,2 v 2 l 1,2 v 1 l 1,2 v 1 1 h 1 v 0 l 1,-1 v 0 -2 l 1,-1 v -2 l 1,-1 v -2 l 1,-2 v -2 -2 l 1,-1 v -1 l 1,-1 v -1 h 1 v 1 1 l 1,1 v 1 l 1,2 v 2 l 1,1 v 2 2 l 1,2 v 1 l 1,2 v 0 1 h 1 v 0 l 1,-1 v -1 l 1,-2 v -1 -2 l 1,-2 v -2 l 1,-2 v -1 l 1,-2 v -1 -1 l 1,-1 v 0 l 1,1 v 0 l 1,1 v 2 1 l 1,2 v 2 l 1,2 v 2 1 l 1,2 v 1 l 1,1 v 1 h 1 v 0 -1 l 1,-1 v -1 l 1,-2 v -1 l 1,-2 v -2 -2 l 1,-2 v -1 l 1,-2 v -1 h 1 v -1 1 h 1 v 1 l 1,1 v 2 2 l 1,1 v 2 l 1,2 v 2 l 1,2 v 1 1 l 1,1 v 0 h 1 v -1 l 1,-1 v -1 -1 l 1,-2 v -2 l 1,-2 v -2 l 1,-2 v -1 -2 l 1,-1 v 0 l 1,-1 v 0 1 l 1,1 v 1 l 1,1 v 2 l 1,2 v 2 2 l 1,2 v 1 l 1,2 v 1 h 1 v 1 0 l 1,-1 v 0 l 1,-1 v -2 l 1,-2 v -1 -2 l 1,-2 v -2 l 1,-2 v -1 -1 l 1,-1 v -1 h 1 v 1 l 1,1 v 1 1 l 1,2 v 1 l 1,2 v 2 l 1,2 v 2 1 l 1,1 v 1 l 1,1 v 0 h 1 v -1 -1 l 1,-2 v -1 l 1,-2 v -2 l 1,-2 v -2 -1 l 1,-2 v -1 l 1,-1 v -1 0 l 1,1 v 0 l 1,1 v 2 l 1,1 v 2 2 l 1,2 v 2 l 1,1 v 2 l 1,1 v 1 1 h 1 v 0 l 1,-1 v -1 l 1,-1 v -2 -1 l 1,-2 v -2 l 1,-2 v -2 -1 l 1,-2 v -1 h 1 v -1 l 1,1 v 0 1 l 1,1 v 2 l 1,1 v 2 l 1,2 v 2 2 l 1,2 v 1 l 1,1 v 1 h 1 v 0 -1 l 1,-1 v -1 l 1,-1 v -2 -2 l 1,-2 v -2 l 1,-1 v -2 l 1,-1 v -2 0 l 1,-1 v 0 l 1,1 v 1 l 1,1 v 1 2 l 1,2 v 2 l 1,2 v 1 l 1,2 v 2 1 h 1 v 1 h 1 v -1 0 l 1,-1 v -2 l 1,-1 v -2 l 1,-2 v -2 -2 l 1,-2 v -1 l 1,-1 v -1 l 1,-1 v 0 1 h 1 v 2 l 1,1 v 2 l 1,1 v 2 2 l 1,2 v 2 l 1,1 v 1 1 l 1,1 v 0 h 1 v -1 l 1,-1 v -1 -2 l 1,-2 v -2 l 1,-2 v -1 l 1,-2 v -2 -1 l 1,-1 v 0 l 1,-1 v 1 h 1 v 1 2 l 1,1 v 2 l 1,2 v 2 1 l 1,2 v 2 l 1,1 v 1 l 1,1 v 0 0 l 1,-1 v -1 l 1,-1 v -2 l 1,-1 v -2 -2 l 1,-2 v -2 l 1,-1 v -2 l 1,-1 v 0 -1 h 1 v 1 l 1,1 v 1 2 l 1,1 v 2 l 1,2 v 2 l 1,2 v 1 2 l 1,1 v 1 h 1 v 0 l 1,-1 v 0 -2 l 1,-1 v -2 l 1,-2 v -2 l 1,-1 v -2 -2 l 1,-1 v -1 l 1,-1 v -1 0 l 1,1 v 1 l 1,1 v 1 l 1,2 v 2 2 l 1,2 v 1 l 1,2 v 1 l 1,2 v 0 1 h 1 v 0 l 1,-1 v -1 l 1,-2 v -1 -2 l 1,-2 v -2 l 1,-2 v -1 -2 l 1,-1 v -1 l 1,-1 v 0 l 1,1 v 0 1 l 1,2 v 1 l 1,2 v 2 l 1,2 v 2 2 l 1,1 v 1 l 1,1 v 1 h 1 v 0 -1 l 1,-1 v -1 l 1,-2 v -2 -2 l 1,-1 v -2 l 1,-2 v -2 l 1,-1 v -1 0 l 1,-1 v 1 h 1 v 1 l 1,1 v 2 2 l 1,2 v 1 l 1,2 v 2 l 1,2 v 1 1 l 1,1 v 0 h 1 v -1 -1 l 1,-1 v -1 l 1,-2 v -2 l 1,-2 v -2 -2 l 1,-1 v -2 l 1,-1 v 0 l 1,-1 v 0 1 l 1,1 v 1 l 1,2 v 1 l 1,2 v 2 2 l 1,2 v 1 l 1,2 v 1 l 1,1 v 0 0 l 1,-1 v 0 l 1,-2 v -1 -2 l 1,-2 v -1 l 1,-2 v -2 l 1,-2 v -1 -1 l 1,-1 v -1 h 1 v 1 l 1,1 v 1 1 l 1,2 v 2 l 1,1 v 2 l 1,2 v 2 1 l 1,2 v 0 l 1,1 v 0 0 l 1,-1 v -1 l 1,-2 v -1 l 1,-2 v -2 -2 l 1,-2 v -1 l 1,-2 v -1 l 1,-1 v -1 0 l 1,1 v 0 l 1,1 v 2 l 1,1 v 2 2 l 1,2 v 2 l 1,1 v 2 1 l 1,1 v 1 h 1 v 0 l 1,-1 v -1 -1 l 1,-2 v -2 l 1,-1 v -2 l 1,-2 v -2 -2 l 1,-1 v -1 h 1 v -1 l 1,1 v 0 1 l 1,1 v 2 l 1,2 v 1 2 l 1,2 v 2 l 1,2 v 1 l 1,1 v 1 0 h 1 v -1 l 1,-1 v -1 l 1,-1 v -2 -2 l 1,-2 v -2 l 1,-2 v -1 l 1,-2 v -1 0 l 1,-1 v 0 l 1,1 v 1 1 l 1,1 v 2 l 1,2 v 2 l 1,2 v 2 1 l 1,2 v 1 l 1,1 v 0 h 1 v -1 0 l 1,-2 v -1 l 1,-2 v -1 l 1,-2 v -2 -2 l 1,-2 v -1 l 1,-1 v -1 -1 h 1 v 1 l 1,1 v 1 l 1,1 v 2 1 l 1,2 v 2 l 1,2 v 2"
           stroke="#ffc000"
           stroke-width="2"
           stroke-linecap="round"
           stroke-linejoin="round"
           stroke-miterlimit="10"
           fill="none"
           id="path16" />
      </g>
      <g
         clip-path="url(#clip5-7)"
         id="g18">
        <path
           d="m 799,-85 v 16 h 1 v -8 l 1,-13 v -14 -11 l 1,-10 v -7 l 1,-4 v -1 2 l 1,4 v 5 l 1,6 v 8 l 1,9 v 8 9 l 1,10 v 9 l 1,9 v 9 l 1,8 v 9 8 l 1,8 v 8 l 1,7 v 7 l 1,7 v 6 7 l 1,6 v 6 l 1,5 v 6 5 l 1,5 v 5 l 1,5 v 5 l 1,4 v 5 4 l 1,4 v 4 l 1,4 v 4 l 1,4 v 3 4 l 1,3 v 3 l 1,4 v 3 l 1,3 v 3 3 l 1,3 v 2 l 1,3 v 3 2 l 1,3 v 2 l 1,3 v 2 l 1,2 v 3 2 l 1,2 v 2 l 1,2 v 2 l 1,2 v 2 2 l 1,2 v 2 l 1,2 v 1 l 1,2 v 2 2 l 1,1 v 2 l 1,1 v 2 l 1,1 v 2 1 l 1,2 v 1 l 1,2 v 1 1 l 1,2 v 1 l 1,1 v 1 l 1,1 v 2 1 l 1,1 v 1 l 1,1 v 1 l 1,1 v 1 2 l 1,1 v 1 l 1,1 v 0 l 1,1 v 1 1 l 1,1 v 1 l 1,1 v 1 1 l 1,1 v 0 l 1,1 v 1 l 1,1 v 1 0 l 1,1 v 1 l 1,1 v 0 l 1,1 v 1 0 l 1,1 v 1 h 1 v 1 l 1,1 v 0 1 l 1,1 v 0 l 1,1 v 0 1 l 1,1 v 0 l 1,1 v 0 l 1,1 v 0 1 h 1 v 1 h 1 v 1 h 1 v 1 0 l 1,1 v 0 l 1,1 v 0 l 1,1 v 0 0 l 1,1 v 0 l 1,1 v 0 1 h 1 v 0 l 1,1 v 0 l 1,1 v 0 0 l 1,1 v 0 l 1,1 v 0 h 1 v 1 0 l 1,1 v 0 h 1 v 1 h 1 v 0 1 h 1 v 0 l 1,1 v 0 0 l 1,1 v 0 h 1 v 1 h 1 v 0 1 h 1 v 0 l 1,1 v 0 h 1 v 1 0 h 1 v 0 l 1,1 v 0 h 1 v 1 0 h 1 v 0 l 1,1 v 0 0 h 1 v 1 h 1 v 0 l 1,1 v 0 0 h 1 v 0 l 1,1 v 0 h 1 v 0 1 h 1 v 0 h 1 v 1 h 1 v 0 0 l 1,1 v 0 h 1 v 0 0 l 1,1 v 0 h 1 v 0 h 1 v 1 0 h 1 v 0 h 1 v 1 h 1 v 0 0 h 1 v 0 l 1,1 v 0 h 1 v 0 0 l 1,1 v 0 h 1 v 0 0 h 1 v 1 h 1 v 0 h 1 v 0 0 h 1 v 1 h 1 v 0 h 1 v 0 0 l 1,1 v 0 h 1 v 0 h 1 v 0 0 h 1 v 1 h 1 v 0 0 h 1 v 0 h 1 v 0 l 1,1 v 0 0 h 1 v 0 h 1 v 0 h 1 v 0 0 l 1,1 v 0 h 1 v 0 h 1 v 0 0 h 1 v 0 h 1 v 0 0 h 1 v 1 h 1 v 0 h 1 v 0 0 h 1 v 0 h 1 v 0 h 1 v 0 0 h 1 v 0 h 1 v 0 h 1 v 0 0 h 1 v 0 h 1 v 0 0 h 1 v 0 h 1 v 0 h 1 v 0 0 h 1 v 0 h 1 v 0 h 1 v 0 0 h 1 v 0 h 1 v 0 l 1,-1 v 0 0 h 1 v 0 h 1 v 0 h 1 v 0 -1 h 1 v 0 h 1 v 0 0 h 1 v -1 h 1 v 0 h 1 v 0 -1 h 1 v 0 h 1 v 0 l 1,-1 v 0 0 h 1 v -1 h 1 v 0 h 1 v -1 0 h 1 v -1 h 1 v 0 -1 h 1 v 0 l 1,-1 v 0 l 1,-1 v 0 0 l 1,-1 v 0 l 1,-1 v 0 l 1,-1 v 0 0 l 1,-1 v 0 l 1,-1 v 0 l 1,-1 v 0 -1 h 1 v -1 h 1 v -1 0 l 1,-1 v -1 h 1 v -1 h 1 v -1 -1 h 1 v -1 l 1,-1 v 0 l 1,-1 v -1 0 l 1,-1 v -1 l 1,-1 v 0 l 1,-1 v -1 -1 h 1 v -1 l 1,-1 v -1 -1 h 1 v -1 l 1,-1 v -1 h 1 v -1 -1 l 1,-1 v 0 l 1,-1 v -1 l 1,-1 v -1 0 l 1,-1 v -1 l 1,-1 v -1 l 1,-1 v -1 -1 l 1,-1 v -1 l 1,-1 v -1 -1 l 1,-1 v -1 l 1,-1 v 0 l 1,-1 v -1 -1 l 1,-1 v -1 l 1,-1 v -1 l 1,-1 v -1 0 l 1,-1 v -1 l 1,-1 v -1 h 1 v -1 -1 l 1,-1 v -1 l 1,-1 v -1 -1 l 1,-1 v -1 l 1,-1 v -1 l 1,-1 v -1 -1 l 1,-1 v -1 l 1,-1 v -1 l 1,-1 v -1 -1 l 1,-1 v -1 l 1,-1 v -1 l 1,-1 v -1 0 l 1,-1 v -1 h 1 v -1 -1 h 1 v -1 l 1,-1 v 0 l 1,-1 v -1 -1 l 1,-1 v -1 l 1,-1 v -1 l 1,-1 v -1 -1 l 1,-1 v -2 l 1,-1 v -1 l 1,-1 v -1 -1 l 1,-1 v -1 l 1,-1 v 0 -1 h 1 v -1 h 1 v -1 h 1 v 0 -1 h 1 v 0 l 1,-1 v -1 h 1 v -1 -1 l 1,-1 v -1 l 1,-1 v -1 l 1,-1 v -1 -2 l 1,-1 v -1 l 1,-1 v -2 -1 l 1,-1 v 0 l 1,-1 v -1 h 1 v -1 0 h 1 v 0 h 1 v 0 h 1 v 0 0 l 1,-1 v 0 h 1 v -1 h 1 v -1 -1 l 1,-1 v -1 l 1,-2 v -1 -1 l 1,-2 v -1 l 1,-1 v -2 l 1,-1 v -1 -1 h 1 v -1 h 1 v 0 h 1 v 0 0 h 1 v 1 h 1 v 0 l 1,1 v 0 0 h 1 v -1 h 1 v -1 -1 l 1,-1 v -1 l 1,-2 v -1 l 1,-2 v -1 -2 l 1,-1 v -1 l 1,-2 v -1 h 1 v -1 0 h 1 v 0 h 1 v 1 h 1 v 1 1 h 1 v 1 h 1 v 1 h 1 v 0 0 l 1,-1 v -1 l 1,-1 v -1 -1 l 1,-2 v -1 l 1,-2 v -1 l 1,-2 v -1 -2 l 1,-1 v -1 h 1 v -1 h 1 v 1 0 l 1,1 v 0 l 1,1 v 1 l 1,1 v 1 1 l 1,1 v 0 l 1,1 v 0 -1 h 1 v -1 l 1,-1 v -1 l 1,-2 v -1 -2 l 1,-2 v -2 l 1,-1 v -2 l 1,-1 v -1 0 l 1,-1 v 0 h 1 v 1 h 1 v 1 2 l 1,1 v 1 l 1,1 v 1 1 l 1,1 v 1 h 1 v 0 l 1,-1 v 0 -1 l 1,-1 v -2 l 1,-1 v -2 l 1,-2 v -2 -1 l 1,-2 v -1 l 1,-1 v -1 h 1 v -1 1 h 1 v 1 l 1,1 v 1 2 l 1,1 v 1 l 1,2 v 1 l 1,1 v 1 0 l 1,1 v -1 h 1 v -1 l 1,-1 v -2 -1 l 1,-2 v -2 l 1,-2 v -1 l 1,-2 v -1 -2 l 1,-1 v 0 h 1 v 0 0 l 1,1 v 1 l 1,2 v 1 l 1,2 v 1 2 l 1,1 v 1 l 1,1 v 1 h 1 v 0 0 l 1,-1 v -1 l 1,-1 v -2 l 1,-2 v -1 -2 l 1,-2 v -2 l 1,-1 v -1 -1 l 1,-1 v 0 h 1 v 0 l 1,1 v 1 2 l 1,1 v 2 l 1,2 v 1 l 1,2 v 1 1 l 1,1 v 1 h 1 v -1 h 1 v -1 -2 l 1,-1 v -2 l 1,-2 v -1 -2 l 1,-2 v -2 l 1,-1 v -1 l 1,-1 v 0 0 l 1,1 v 0 l 1,1 v 2 l 1,1 v 2 2 l 1,2 v 1 l 1,2 v 1 l 1,1 v 0 1 l 1,-1 v 0 l 1,-1 v -1 -2 l 1,-1 v -2 l 1,-2 v -2 l 1,-2 v -1 -2 l 1,-1 v -1 h 1 v 0 h 1 v 1 1 l 1,2 v 1 l 1,2 v 2 l 1,2 v 1 2 l 1,1 v 1 l 1,1 v 0 0 h 1 v -1 l 1,-1 v -2 l 1,-1 v -2 -2 l 1,-2 v -2 l 1,-1 v -2 l 1,-1 v -1 0 h 1 v 0 l 1,1 v 1 l 1,1 v 2 1 l 1,2 v 2 l 1,2 v 1 2 l 1,1 v 1 h 1 v 0 h 1 v -1 -1 l 1,-1 v -2 l 1,-2 v -2 l 1,-2 v -1 -2 l 1,-2 v -1 l 1,-1 v 0 h 1 v 0 1 l 1,1 v 1 l 1,1 v 2 2 l 1,2 v 2 l 1,1 v 2 l 1,1 v 1 1 h 1 v -1 h 1 v -1 l 1,-2 v -1 -2 l 1,-2 v -2 l 1,-2 v -2 l 1,-1 v -1 -1 l 1,-1 v 0 h 1 v 1 l 1,1 v 1 1 l 1,2 v 2 l 1,2 v 2 1 l 1,2 v 1 l 1,1 v 1 h 1 v 0 -1 l 1,-1 v -1 l 1,-1 v -2 l 1,-2 v -2 -2 l 1,-2 v -1 l 1,-2 v -1 h 1 v -1 1 h 1 v 1 l 1,1 v 2 2 l 1,1 v 2 l 1,2 v 2 l 1,2 v 1 1 l 1,1 v 0 h 1 v -1 l 1,-1 v -1 -1 l 1,-2 v -2 l 1,-2 v -2 l 1,-2 v -1 -2 l 1,-1 v -1 h 1 v 0 1 h 1 v 2 l 1,1 v 2 l 1,2 v 2 1 l 1,2 v 2 l 1,1 v 1 l 1,1 v 0 0 h 1 v -1 l 1,-1 v -1 l 1,-2 v -2 -2 l 1,-2 v -2 l 1,-1 v -2 -1 l 1,-1 v 0 h 1 v 0 l 1,1 v 1 2 l 1,1 v 2 l 1,2 v 2 l 1,2 v 2 1 l 1,1 v 1 h 1 v 0 h 1 v -1 -1 l 1,-1 v -2 l 1,-2 v -2 -2 l 1,-1 v -2 l 1,-2 v -1 l 1,-1 v 0 0 h 1 v 1 l 1,1 v 1 l 1,2 v 2 1 l 1,2 v 2 l 1,2 v 1 l 1,2 v 1 0 h 1 v 0 l 1,-1 v -1 -1 l 1,-2 v -2 l 1,-2 v -1 l 1,-2 v -2 -2 l 1,-1 v -1 h 1 v 0 h 1 v 0 2 l 1,1 v 1 l 1,2 v 2 l 1,2 v 2 2 l 1,1 v 2 h 1 v 1 0 h 1 v -1 l 1,-1 v -1 l 1,-1 v -2 -2 l 1,-2 v -2 l 1,-2 v -1 l 1,-2 v -1 0 l 1,-1 v 1 h 1 v 1 l 1,1 v 2 2 l 1,2 v 2 l 1,1 v 2 2 l 1,1 v 1 l 1,1 v 0 h 1 v -1 -1 l 1,-1 v -1 l 1,-2 v -2 l 1,-2 v -2 -2 l 1,-1 v -2 l 1,-1 v 0 l 1,-1 v 1 0 l 1,1 v 1 l 1,2 v 1 2 l 1,2 v 2 l 1,2 v 2 l 1,1 v 1 1 h 1 v 0 h 1 v -1 l 1,-1 v -2 -2 l 1,-2 v -2 l 1,-1 v -2 l 1,-2 v -1 -1 l 1,-1 v -1 h 1 v 1 1 l 1,1 v 1 l 1,2 v 2 l 1,2 v 2 1 l 1,2 v 2 l 1,1 v 1 h 1 v 0 -1 h 1 v -1 l 1,-2 v -2 l 1,-1 v -2 -2 l 1,-2 v -2 l 1,-1 v -1 -1 l 1,-1 v 0 l 1,1 v 1 l 1,1 v 1 2 l 1,2 v 1 l 1,2 v 2 l 1,2 v 2 1 h 1 v 1 h 1 v 0 l 1,-1 v -1 -2 l 1,-1 v -2 l 1,-2 v -2 l 1,-2 v -1 -2 l 1,-1 v -1 l 1,-1 v 0 1 h 1 v 1 l 1,2 v 1 l 1,2 v 2 2 l 1,2 v 2 l 1,1 v 1 l 1,1 v 1 0 h 1 v -1 l 1,-1 v -1 l 1,-2 v -2 -2 l 1,-2 v -1 l 1,-2 v -2 -1 l 1,-1 v -1 h 1 v 1 h 1 v 1 1 l 1,2 v 2 l 1,2 v 2 l 1,2 v 1 2 l 1,1 v 1 l 1,1 v 0 h 1 v -1 -1 l 1,-1 v -2 l 1,-1 v -2 -2 l 1,-2 v -2 l 1,-1 v -2 l 1,-1 v 0 -1 h 1 v 1 l 1,1 v 1 l 1,2 v 1 2 l 1,2 v 2 l 1,2 v 2 l 1,1 v 1 1 h 1 v 0 l 1,-1 v -1 -1 l 1,-1 v -2 l 1,-2 v -2 l 1,-2 v -2 -1 l 1,-2 v -1 h 1 v -1 h 1 v 1 1 l 1,1 v 1 l 1,2 v 2 l 1,2 v 2 2 l 1,1 v 2 l 1,1 v 1 0 h 1 v -1 h 1 v -1 l 1,-2 v -2 -2 l 1,-1 v -2 l 1,-2 v -2 l 1,-1 v -2 0 l 1,-1 v 0 l 1,1 v 0 l 1,2 v 1 2 l 1,2 v 2 l 1,1 v 2 2 l 1,1 v 2 h 1 v 1 h 1 v -1 0 l 1,-1 v -2 l 1,-1 v -2 l 1,-2 v -2 -2 l 1,-2 v -1 l 1,-1 v -1 l 1,-1 v 0 1 h 1 v 2 l 1,1 v 2 1 l 1,2 v 2 l 1,2 v 2 l 1,1 v 2 0 l 1,1 v 0 h 1 v -1 l 1,-1 v -1 -2 l 1,-2 v -2 l 1,-2 v -2 l 1,-1 v -2 -1 l 1,-1 v -1 h 1 v 1 0 l 1,1 v 2 l 1,1 v 2 l 1,2 v 2 2 l 1,1 v 2 l 1,1 v 1 l 1,1 v 0 0 l 1,-1 v -1 l 1,-1 v -2 l 1,-2 v -2 -1 l 1,-2 v -2 l 1,-2 v -1 -1 l 1,-1 v 0 h 1 v 1 l 1,1 v 1 2 l 1,2 v 2 l 1,2 v 1 l 1,2 v 2 1 l 1,1 v 1 h 1 v 0 l 1,-1 v -1 -1 l 1,-1 v -2 l 1,-2 v -2 -2 l 1,-2 v -1 l 1,-2 v -1 h 1 v -1 0 l 1,1 v 1 l 1,1 v 2 l 1,1 v 2 2 l 1,2 v 2 l 1,1 v 2 l 1,1 v 1 0 h 1 v -1 l 1,-1 v -1 -1 l 1,-2 v -2 l 1,-2 v -2 l 1,-2 v -1 -2 l 1,-1 v 0 l 1,-1 v 0 l 1,1 v 1 1 l 1,1 v 2 l 1,2 v 2 l 1,2 v 2 1 l 1,2 v 1 l 1,1 v 0 h 1 v -1 0 l 1,-1 v -2 l 1,-2 v -1 -2 l 1,-2 v -2 l 1,-2 v -1 l 1,-1 v -1 -1 h 1 v 1 h 1 v 2 l 1,1 v 2 1 l 1,2 v 2 l 1,2 v 2 l 1,1 v 2 0 l 1,1 v 0 l 1,-1 v 0 -1 l 1,-2 v -1 l 1,-2 v -2 l 1,-2 v -2 -2 l 1,-1 v -1 l 1,-1 v -1 h 1 v 1 0 l 1,1 v 2 l 1,1 v 2 l 1,2 v 2 2 l 1,2 v 1 l 1,1 v 1 1 h 1 v 0 l 1,-1 v -1 l 1,-1 v -2 -2 l 1,-2 v -2 l 1,-2 v -1 l 1,-2 v -1 -1 l 1,-1 v 0 l 1,1 v 0 l 1,1 v 1 2 l 1,2 v 2 l 1,2 v 2 1 l 1,2 v 1 l 1,1 v 1 h 1 v 0 -1 l 1,-1 v -1 l 1,-2 v -2 l 1,-1 v -2 -2 l 1,-2 v -2 l 1,-1 v -1 l 1,-1 v 0 0 l 1,1 v 1 l 1,1 v 2 2 l 1,1 v 2 l 1,2 v 2 l 1,2 v 1 1 l 1,1 v 0 h 1 v -1 l 1,-1 v -1 -1 l 1,-2 v -2 l 1,-2 v -2 l 1,-2 v -1 -2 l 1,-1 v 0 l 1,-1 v 0 1 l 1,1 v 1 l 1,1 v 2 l 1,2 v 2 2 l 1,2 v 1 l 1,2 v 1 l 1,1 v 0 0 l 1,-1 v -1 l 1,-1 v -1 l 1,-2 v -2 -2 l 1,-2 v -1 l 1,-2 v -2 -1 h 1 v -1 h 1 v 1 l 1,1 v 1 1 l 1,2 v 2 l 1,2 v 2 l 1,2 v 1 2 l 1,1 v 1 h 1 v 0 h 1 v -1 -1 l 1,-2 v -1 l 1,-2 v -2 -2 l 1,-2 v -2 l 1,-1 v -1 l 1,-1 v -1 0 l 1,1 v 0 l 1,1 v 2 l 1,2 v 1 2 l 1,2 v 2 l 1,2 v 1 l 1,1 v 1 1 h 1 v -1 h 1 v -1 -2 l 1,-1 v -2 l 1,-2 v -2 l 1,-2 v -2 -1 l 1,-1 v -1 l 1,-1 v 0 l 1,1 v 0 1 l 1,2 v 1 l 1,2 v 2 l 1,2 v 2 2 l 1,1 v 1 l 1,1 v 1 0 h 1 v -1 l 1,-1 v -1 l 1,-2 v -2 -2 l 1,-2 v -1 l 1,-2 v -2 l 1,-1 v -1 -1 h 1 v 1 h 1 v 1 l 1,1 v 2 2 l 1,2 v 2 l 1,1 v 2 2 l 1,1 v 1 l 1,1 v 0 h 1 v -1 -1 l 1,-1 v -2 l 1,-1 v -2 l 1,-2 v -2 -2 l 1,-2 v -1 l 1,-1 v -1 h 1 v 0 1 l 1,1 v 1 l 1,2 v 2 l 1,1 v 2 2 l 1,2 v 2 l 1,1 v 1 1 h 1 v 0 l 1,-1 v -1 l 1,-1 v -1 -2 l 1,-2 v -2 l 1,-2 v -2 l 1,-1 v -2 -1 h 1 v -1 h 1 v 1 l 1,1 v 1 1 l 1,2 v 2 l 1,2 v 2 2 l 1,1 v 2 l 1,1 v 0 l 1,1 v 0 -1 h 1 v -2 l 1,-1 v -2 l 1,-2 v -2 -2 l 1,-1 v -2 l 1,-1 v -2 h 1 v -1 0 l 1,1 v 1 l 1,1 v 1 2 l 1,2 v 2 l 1,2 v 1 l 1,2 v 2 1 h 1 v 1 h 1 v 0 l 1,-1 v -1 -2 l 1,-1 v -2 l 1,-2 v -2 l 1,-2 v -2 -1 l 1,-1 v -1 l 1,-1 v 0 1 h 1 v 1 l 1,2 v 1 l 1,2 v 2 2 l 1,2 v 2 l 1,1 v 1 l 1,1 v 1 0 h 1 v -1 l 1,-1 v -2 l 1,-1 v -2 -2 l 1,-2 v -2 l 1,-1 v -2 -1 l 1,-1 v -1 h 1 v 1 h 1 v 1 2 l 1,1 v 2 l 1,2 v 2 l 1,2 v 2 1 l 1,1 v 1 l 1,1 v 0 h 1 v -1 -1 l 1,-1 v -2 l 1,-2 v -2 -1 l 1,-2 v -2 l 1,-2 v -1 l 1,-1 v -1 0 h 1 v 1 l 1,1 v 1"
           stroke="#5b9bd5"
           stroke-width="2"
           stroke-linecap="round"
           stroke-linejoin="round"
           stroke-miterlimit="10"
           fill="none"
           id="path17" />
      </g>
      <g
         id="g19">
        <text
           font-family="Arial, Arial_MSFontService, sans-serif"
           font-weight="400"
           font-size="12px"
           transform="translate(763.471,322)"
           id="text18">1.10</text>
      </g>
      <g
         id="g20">
        <text
           font-family="Arial, Arial_MSFontService, sans-serif"
           font-weight="400"
           font-size="12px"
           transform="translate(763.471,271)"
           id="text19">1.15</text>
      </g>
      <g
         id="g21">
        <text
           font-family="Arial, Arial_MSFontService, sans-serif"
           font-weight="400"
           font-size="12px"
           transform="translate(763.471,221)"
           id="text20">1.20</text>
      </g>
      <g
         id="g22">
        <text
           font-family="Arial, Arial_MSFontService, sans-serif"
           font-weight="400"
           font-size="12px"
           transform="translate(763.471,170)"
           id="text21">1.25</text>
      </g>
      <g
         id="g23">
        <text
           font-family="Arial, Arial_MSFontService, sans-serif"
           font-weight="400"
           font-size="12px"
           transform="translate(763.471,120)"
           id="text22">1.30</text>
      </g>
      <g
         id="g24">
        <text
           font-family="Arial, Arial_MSFontService, sans-serif"
           font-weight="400"
           font-size="12px"
           transform="translate(763.471,69)"
           id="text23">1.35</text>
      </g>
      <g
         id="g25">
        <text
           font-family="Arial, Arial_MSFontService, sans-serif"
           font-weight="400"
           font-size="12px"
           transform="translate(763.471,19)"
           id="text24">1.40</text>
      </g>
      <g
         id="g26">
        <text
           font-family="Arial, Arial_MSFontService, sans-serif"
           font-weight="400"
           font-size="12px"
           transform="translate(793.807,336)"
           id="text25">0</text>
      </g>
      <g
         id="g27">
        <text
           font-family="Arial, Arial_MSFontService, sans-serif"
           font-weight="400"
           font-size="12px"
           transform="translate(875.112,336)"
           id="text26">20</text>
      </g>
      <g
         id="g28">
        <text
           font-family="Arial, Arial_MSFontService, sans-serif"
           font-weight="400"
           font-size="12px"
           transform="translate(959.754,336)"
           id="text27">40</text>
      </g>
      <g
         id="g29">
        <text
           font-family="Arial, Arial_MSFontService, sans-serif"
           font-weight="400"
           font-size="12px"
           transform="translate(1044.4,336)"
           id="text28">60</text>
      </g>
      <g
         id="g30">
        <text
           font-family="Arial, Arial_MSFontService, sans-serif"
           font-weight="400"
           font-size="12px"
           transform="translate(1129.04,336)"
           id="text29">80</text>
      </g>
      <g
         id="g31">
        <text
           font-family="Arial, Arial_MSFontService, sans-serif"
           font-weight="400"
           font-size="12px"
           transform="translate(1210.34,336)"
           id="text30">100</text>
      </g>
      <g
         id="g32">
        <text
           font-family="Arial, Arial_MSFontService, sans-serif"
           font-weight="400"
           font-size="12px"
           transform="translate(1294.98,336)"
           id="text31">120</text>
      </g>
      <g
         id="g33">
        <text
           font-family="Arial, Arial_MSFontService, sans-serif"
           font-weight="400"
           font-size="12px"
           transform="translate(1379.62,336)"
           id="text32">140</text>
      </g>
      <g
         id="g34">
        <text
           font-family="Arial, Arial_MSFontService, sans-serif"
           font-weight="400"
           font-size="12px"
           transform="translate(1464.27,336)"
           id="text33">160</text>
      </g>
      <g
         id="g35">
        <text
           font-family="Arial, Arial_MSFontService, sans-serif"
           font-weight="400"
           font-size="12px"
           transform="translate(1548.91,336)"
           id="text34">180</text>
      </g>
      <g
         id="g36">
        <text
           font-family="Arial, Arial_MSFontService, sans-serif"
           font-weight="400"
           font-size="12px"
           transform="translate(1633.55,336)"
           id="text35">200</text>
      </g>
      <g
         id="g37">
        <text
           font-family="Arial, Arial_MSFontService, sans-serif"
           font-weight="400"
           font-size="13px"
           transform="rotate(-90,494.0685,-263.0685)"
           id="text36">Coeficiente de arrasto</text>
      </g>
      <g
         id="g38">
        <text
           font-family="Arial, Arial_MSFontService, sans-serif"
           font-weight="400"
           font-size="13px"
           transform="translate(1199.6,355)"
           id="text37">Tempo</text>
      </g>
      <g
         id="g39">
        <path
           d="m 942,385 h 26"
           stroke="#70ad47"
           stroke-width="2"
           stroke-linecap="round"
           stroke-linejoin="round"
           stroke-miterlimit="10"
           fill="none"
           fill-rule="evenodd"
           id="path38" />
      </g>
      <g
         id="g40">
        <text
           font-family="Arial, Arial_MSFontService, sans-serif"
           font-weight="400"
           font-size="12px"
           transform="translate(970.373,389)"
           id="text39">DNS-P2P1</text>
      </g>
      <g
         id="g41">
        <path
           d="m 1048,385 h 26"
           stroke="#ed7d31"
           stroke-width="2"
           stroke-linecap="round"
           stroke-linejoin="round"
           stroke-miterlimit="10"
           fill="none"
           fill-rule="evenodd"
           id="path40" />
      </g>
      <g
         id="g42">
        <text
           font-family="Arial, Arial_MSFontService, sans-serif"
           font-weight="400"
           font-size="12px"
           transform="translate(1076.36,389)"
           id="text41">DNS-Qua</text>
      </g>
      <g
         id="g43">
        <path
           d="m 1147,385 h 26"
           stroke="#a5a5a5"
           stroke-width="2"
           stroke-linecap="round"
           stroke-linejoin="round"
           stroke-miterlimit="10"
           fill="none"
           fill-rule="evenodd"
           id="path42" />
      </g>
      <g
         id="g44">
        <text
           font-family="Arial, Arial_MSFontService, sans-serif"
           font-weight="400"
           font-size="12px"
           transform="translate(1175.67,389)"
           id="text43">VMS-Qua</text>
      </g>
      <g
         id="g45">
        <path
           d="m 1247,385 h 26"
           stroke="#ffc000"
           stroke-width="2"
           stroke-linecap="round"
           stroke-linejoin="round"
           stroke-miterlimit="10"
           fill="none"
           fill-rule="evenodd"
           id="path44" />
      </g>
      <g
         id="g46">
        <text
           font-family="Arial, Arial_MSFontService, sans-serif"
           font-weight="400"
           font-size="12px"
           transform="translate(1275.64,389)"
           id="text45">LES-P2P1</text>
      </g>
      <g
         id="g47">
        <path
           d="m 1351,385 h 25"
           stroke="#5b9bd5"
           stroke-width="2"
           stroke-linecap="round"
           stroke-linejoin="round"
           stroke-miterlimit="10"
           fill="none"
           fill-rule="evenodd"
           id="path46" />
      </g>
      <g
         id="g48">
        <text
           font-family="Arial, Arial_MSFontService, sans-serif"
           font-weight="400"
           font-size="12px"
           transform="translate(1378.97,389)"
           id="text47">LES-VMS-Qua</text>
      </g>
    </g>
  </g>
</svg>
