<?xml version="1.0" encoding="UTF-8" standalone="no"?>
<!-- Created with Inkscape (http://www.inkscape.org/) -->

<svg
   width="160.76871mm"
   height="67.828804mm"
   viewBox="0 0 160.76871 67.828804"
   version="1.1"
   id="svg5"
   inkscape:version="1.2.1 (9c6d41e410, 2022-07-14)"
   sodipodi:docname="res1.svg"
   xmlns:inkscape="http://www.inkscape.org/namespaces/inkscape"
   xmlns:sodipodi="http://sodipodi.sourceforge.net/DTD/sodipodi-0.dtd"
   xmlns="http://www.w3.org/2000/svg"
   xmlns:svg="http://www.w3.org/2000/svg">
  <sodipodi:namedview
     id="namedview7"
     pagecolor="#ffffff"
     bordercolor="#000000"
     borderopacity="0.25"
     inkscape:showpageshadow="2"
     inkscape:pageopacity="0.0"
     inkscape:pagecheckerboard="0"
     inkscape:deskcolor="#d1d1d1"
     inkscape:document-units="mm"
     showgrid="false"
     inkscape:zoom="1.4912879"
     inkscape:cx="295.71755"
     inkscape:cy="124.05385"
     inkscape:window-width="1920"
     inkscape:window-height="1017"
     inkscape:window-x="1912"
     inkscape:window-y="-8"
     inkscape:window-maximized="1"
     inkscape:current-layer="layer1" />
  <defs
     id="defs2">
    <clipPath
       clipPathUnits="userSpaceOnUse"
       id="clipPath912">
      <g
         id="g916"
         transform="matrix(3.7795276,0,0,3.7795276,368.85255,-53.633353)">
        <rect
           x="-12.396403"
           y="14.190491"
           width="174.88959"
           height="74.877083"
           id="rect914"
           style="stroke-width:0.264583" />
      </g>
    </clipPath>
    <clipPath
       clipPathUnits="userSpaceOnUse"
       id="clipPath918">
      <g
         id="g922"
         transform="matrix(3.7795276,0,0,3.7795276,368.85255,-53.633353)">
        <rect
           x="-12.396403"
           y="14.190491"
           width="174.88959"
           height="74.877083"
           id="rect920"
           style="stroke-width:0.264583" />
      </g>
    </clipPath>
    <clipPath
       clipPathUnits="userSpaceOnUse"
       id="clipPath924">
      <g
         id="g928"
         transform="matrix(3.7795276,0,0,3.7795276,368.85255,-53.633353)">
        <rect
           x="-12.396403"
           y="14.190491"
           width="174.88959"
           height="74.877083"
           id="rect926"
           style="stroke-width:0.264583" />
      </g>
    </clipPath>
    <clipPath
       clipPathUnits="userSpaceOnUse"
       id="clipPath930">
      <g
         id="g934"
         transform="matrix(3.7795276,0,0,3.7795276,368.85255,-53.633353)">
        <rect
           x="-12.396403"
           y="14.190491"
           width="174.88959"
           height="74.877083"
           id="rect932"
           style="stroke-width:0.264583" />
      </g>
    </clipPath>
    <clipPath
       clipPathUnits="userSpaceOnUse"
       id="clipPath936">
      <g
         id="g940"
         transform="matrix(3.7795276,0,0,3.7795276,368.85255,-53.633353)">
        <rect
           x="-12.396403"
           y="14.190491"
           width="174.88959"
           height="74.877083"
           id="rect938"
           style="stroke-width:0.264583" />
      </g>
    </clipPath>
    <clipPath
       clipPathUnits="userSpaceOnUse"
       id="clipPath942">
      <g
         id="g946"
         transform="matrix(3.7795276,0,0,3.7795276,368.85255,-53.633353)">
        <rect
           x="-12.396403"
           y="14.190491"
           width="174.88959"
           height="74.877083"
           id="rect944"
           style="stroke-width:0.264583" />
      </g>
    </clipPath>
    <clipPath
       clipPathUnits="userSpaceOnUse"
       id="clipPath948">
      <g
         id="g952"
         transform="matrix(3.7795276,0,0,3.7795276,368.85255,-53.633353)">
        <rect
           x="-12.396403"
           y="14.190491"
           width="174.88959"
           height="74.877083"
           id="rect950"
           style="stroke-width:0.264583" />
      </g>
    </clipPath>
    <clipPath
       clipPathUnits="userSpaceOnUse"
       id="clipPath954">
      <g
         id="g958"
         transform="matrix(3.7795276,0,0,3.7795276,368.85255,-53.633353)">
        <rect
           x="-12.396403"
           y="14.190491"
           width="174.88959"
           height="74.877083"
           id="rect956"
           style="stroke-width:0.264583" />
      </g>
    </clipPath>
    <clipPath
       clipPathUnits="userSpaceOnUse"
       id="clipPath960">
      <g
         id="g964"
         transform="matrix(3.7795276,0,0,3.7795276,368.85255,-53.633353)">
        <rect
           x="-12.396403"
           y="14.190491"
           width="174.88959"
           height="74.877083"
           id="rect962"
           style="stroke-width:0.264583" />
      </g>
    </clipPath>
    <clipPath
       clipPathUnits="userSpaceOnUse"
       id="clipPath966">
      <g
         id="g970"
         transform="matrix(3.7795276,0,0,3.7795276,368.85255,-53.633353)">
        <rect
           x="-12.396403"
           y="14.190491"
           width="174.88959"
           height="74.877083"
           id="rect968"
           style="stroke-width:0.264583" />
      </g>
    </clipPath>
    <clipPath
       clipPathUnits="userSpaceOnUse"
       id="clipPath972">
      <g
         id="g976"
         transform="matrix(3.7795276,0,0,3.7795276,368.85255,-53.633353)">
        <rect
           x="-12.396403"
           y="14.190491"
           width="174.88959"
           height="74.877083"
           id="rect974"
           style="stroke-width:0.264583" />
      </g>
    </clipPath>
    <clipPath
       clipPathUnits="userSpaceOnUse"
       id="clipPath978">
      <g
         id="g982">
        <rect
           x="-12.396403"
           y="14.190491"
           width="174.88959"
           height="74.877083"
           id="rect980"
           style="stroke-width:0.264583" />
      </g>
    </clipPath>
  </defs>
  <g
     inkscape:label="Camada 1"
     inkscape:groupmode="layer"
     id="layer1"
     transform="translate(7.088427,-16.935543)">
    <g
       id="g651"
       transform="matrix(0.26458333,0,0,0.26458333,-97.592236,14.190491)"
       clip-path="url(#clipPath972)">
      <path
         d="m 391.5,200.5 h 468 m -468,-27 h 468 m -468,-26 h 468 m -468,-27 h 468 m -468,-25.9999 h 468 m -468,-27 h 468 m -468,-26 h 468 m -468,-27 h 468"
         stroke="#d9d9d9"
         stroke-linejoin="round"
         stroke-miterlimit="10"
         fill="none"
         id="path649" />
    </g>
    <g
       id="g655"
       transform="matrix(0.26458333,0,0,0.26458333,-97.592236,14.190491)"
       clip-path="url(#clipPath966)">
      <path
         d="M 460.5,14.5001 V 226.5 m 70,-211.9999 V 226.5 m 69,-211.9999 V 226.5 m 70,-211.9999 V 226.5 m 69,-211.9999 V 226.5 m 69,-211.9999 V 226.5"
         stroke="#d9d9d9"
         stroke-linejoin="round"
         stroke-miterlimit="10"
         fill="none"
         id="path653" />
    </g>
    <g
       id="g659"
       transform="matrix(0.26458333,0,0,0.26458333,-97.592236,14.190491)"
       clip-path="url(#clipPath960)">
      <rect
         x="391.5"
         y="14.5001"
         width="468"
         height="212"
         stroke="#000000"
         stroke-linejoin="round"
         stroke-miterlimit="10"
         fill="none"
         id="rect657" />
    </g>
    <g
       id="g663"
       transform="matrix(0.26458333,0,0,0.26458333,-97.592236,14.190491)"
       clip-path="url(#clipPath954)">
      <path
         d="M 0,0 1.04987e-4,212"
         stroke="#000000"
         stroke-linejoin="round"
         stroke-miterlimit="10"
         fill="none"
         fill-rule="evenodd"
         transform="matrix(1,0,0,-1,391.5,226.5)"
         id="path661" />
    </g>
    <g
       id="g667"
       transform="matrix(0.26458333,0,0,0.26458333,-97.592236,14.190491)"
       clip-path="url(#clipPath948)">
      <path
         d="m 391.5,226.5 h 3 m -3,-5 h 3 m -3,-5 h 3 m -3,-6 h 3 m -3,-5 h 3 m -3,-5 h 3 m -3,-5 h 3 m -3,-6 h 3 m -3,-5 h 3 m -3,-5 h 3 m -3,-6 h 3 m -3,-5 h 3 m -3,-5 h 3 m -3,-6 h 3 m -3,-5 h 3 m -3,-5 h 3 m -3,-6 h 3 m -3,-5 h 3 m -3,-5 h 3 m -3,-5 h 3 m -3,-6 h 3 m -3,-5 h 3 m -3,-5 h 3 m -3,-6 h 3 m -3,-4.9999 h 3 m -3,-5 h 3 m -3,-6 h 3 m -3,-5 h 3 m -3,-5.0001 h 3 m -3,-4.9999 h 3 m -3,-6 h 3 m -3,-5 h 3 m -3,-5 h 3 m -3,-6 h 3 m -3,-5.0001 h 3 m -3,-4.9999 h 3 m -3,-6 h 3 m -3,-5 h 3 m -3,-5 h 3 m -3,-6 h 3 m -3,-5 h 3 m -7,211.9999 h 8 m -8,-26 h 8 m -8,-27 h 8 m -8,-26 h 8 m -8,-27 h 8 m -8,-25.9999 h 8 m -8,-27 h 8 m -8,-26 h 8 m -8,-27 h 8"
         stroke="#000000"
         stroke-linejoin="round"
         stroke-miterlimit="10"
         fill="none"
         id="path665" />
    </g>
    <g
       id="g671"
       transform="matrix(0.26458333,0,0,0.26458333,-97.592236,14.190491)"
       clip-path="url(#clipPath942)">
      <path
         d="m 391.5,226.5 h 468"
         stroke="#000000"
         stroke-linejoin="round"
         stroke-miterlimit="10"
         fill="none"
         fill-rule="evenodd"
         id="path669" />
    </g>
    <g
       id="g675"
       transform="matrix(0.26458333,0,0,0.26458333,-97.592236,14.190491)"
       clip-path="url(#clipPath936)">
      <path
         d="m 391.5,224.5 v 2 m 14,-2 v 2 m 14,-2 v 2 m 14,-2 v 2 m 14,-2 v 2 m 13,-2 v 2 m 14,-2 v 2 m 14,-2 v 2 m 14,-2 v 2 m 14,-2 v 2 m 14,-2 v 2 m 14,-2 v 2 m 14,-2 v 2 m 13,-2 v 2 m 14,-2 v 2 m 14,-2 v 2 m 14,-2 v 2 m 14,-2 v 2 m 14,-2 v 2 m 14,-2 v 2 m 14,-2 v 2 m 13,-2 v 2 m 14,-2 v 2 m 14,-2 v 2 m 14,-2 v 2 m 14,-2 v 2 m 14,-2 v 2 m 14,-2 v 2 m 14,-2 v 2 m 13,-2 v 2 m 14,-2 v 2 m 14,-2 v 2 m 14,-2 v 2 m 14,-2 v 2 m -458,-3 v 7 m 69,-7 v 7 m 70,-7 v 7 m 69,-7 v 7 m 70,-7 v 7 m 69,-7 v 7 m 69,-7 v 7"
         stroke="#000000"
         stroke-linejoin="round"
         stroke-miterlimit="10"
         fill="none"
         id="path673" />
    </g>
    <g
       id="g679"
       transform="matrix(0.26458333,0,0,0.26458333,-97.592236,14.190491)"
       clip-path="url(#clipPath930)">
      <path
         d="m 392,227 v 0 -1 0 h 1 v 0 -1 0 l 1,-1 v 0 0 -1 h 1 v -1 -1 0 l 1,-1 v 0 -1 -1 0 l 1,-1 v 0 -1 -1 l 1,-1 v 0 -1 -1 l 1,-1 v -1 -1 -1 0 l 1,-1 v -1 -1 0 l 1,-1 v -1 0 -1 l 1,-1 v -1 0 -1 l 1,-1 v 0 -1 -1 -1 l 1,-1 v -1 -1 -1 l 1,-1 v -1 -1 -1 l 1,-1 v -1 -1 -2 l 1,-1 v -1 -1 -1 -2 l 1,-1 v -1 -2 -1 l 1,-2 v -1 -2 -1 l 1,-2 v -2 -2 -1 l 1,-2 v -2 -2 -2 -1 l 1,-2 v -2 -2 -1 l 1,-2 v -1 -2 -2 l 1,-2 v -1 -2 -1 -2 l 1,-2 v -1 -2 -1 l 1,-2 v -2 -1 -2 l 1,-1 v -2 -1 -2 l 1,-1 v -1 -1 -2 -1 l 1,-1 v -1 -1 -2 l 1,-1 v -1 -2 -1 l 1,-1 v -2 -1 -1 l 1,-2 v -1 -2 -1 -1 l 1,-2 v -1 -2 -1 l 1,-2 v -1 -1 -2 l 1,-1 v -1 -2 -1 l 1,-2 v -1 -2 -1 -2 l 1,-1 v -2 -1 -2 l 1,-1 v -2 -1 -1 l 1,-2 v -1 -1 -1 -1 l 1,-1 v -1 -1 -1 l 1,-1 v 0 -1 -1 l 1,-1 v -1 0 -1 l 1,-1 v 0 -1 0 -1 h 1 v -1 0 0 l 1,-1 v 0 0 0 h 1 v 0 -1 0 h 1 v 0 0 0 0 l 1,-1 v 0 0 0 l 1,-1 v 0 0 0 h 1 v -1 0 0 h 1 v 0 0 0 0 h 1 v 0 0 0 h 1 v 0 0 0 h 1 v 0 0 0 1 h 1 v 0 1 0 l 1,1 v 0 1 0 l 1,1 v 1 1 1 l 1,1 v 1 1 1 1 l 1,1 v 1 1 1 l 1,1 v 1 1 1 l 1,1 v 2 1 1 l 1,1 v 2 1 1 2 l 1,1 v 1 2 1 l 1,1 v 2 1 1 l 1,1 v 2 1 1 1 l 1,1 v 1 1 1 l 1,1 v 2 1 1 l 1,1 v 2 1 1 l 1,1 v 2 1 1 2 l 1,1 v 1 2 1 l 1,1 v 2 1 2 l 1,1 v 1 2 2 l 1,1 v 2 2 1 2 l 1,2 v 2 2 1 l 1,2 v 2 2 2 l 1,2 v 1 2 2 l 1,2 v 1 2 2 1 l 1,2 v 2 1 2 l 1,2 v 1 2 1 l 1,2 v 2 1 1 2 l 1,1 v 1 2 1 l 1,1 v 1 1 2 l 1,1 v 1 1 1 l 1,1 v 0 2 1 1 l 1,1 v 1 1 1 l 1,1 v 1 1 1 l 1,1 v 1 1 1 l 1,1 v 1 1 1 1 l 1,1 v 1 1 1 l 1,1 v 1 1 1 l 1,1 v 1 1 1 l 1,1 v 1 1 1 1 l 1,1 v 0 1 1 h 1 v 1 0 1 h 1 v 0 1 0 0 h 1 v 1 0 0 h 1 v 0 0 0 h 1 v 0 0 0 l 1,-1 v 0 0 -1 0 l 1,-1 v 0 -1 0 h 1 v -1 0 -1 h 1 v -1 0 -1 h 1 v 0 -1 0 0 l 1,-1 v 0 -1 0 l 1,-1 v -1 0 -1 h 1 v -1 0 -1 h 1 v -1 -1 0 -1 h 1 v -1 -1 0 l 1,-1 v -1 0 -1 l 1,-1 v -1 -1 -1 -2 l 1,-1 v -1 -1 -2 l 1,-1 v -1 -2 -1 l 1,-1 v -2 -1 -2 l 1,-1 v -2 -1 -2 -1 l 1,-2 v -1 -2 -2 l 1,-1 v -2 -2 -2 l 1,-1 v -2 -2 -1 l 1,-2 v -2 -1 -2 -1 l 1,-2 v -1 -1 -2 l 1,-1 v -2 -1 -1 l 1,-2 v -1 -1 -2 -1 l 1,-1 v -2 -1 -2 l 1,-1 v -2 -1 -1 l 1,-2 v -1 -1 -2 l 1,-1 v -1 -2 -1 -1 l 1,-2 v -1 -2 -1 l 1,-2 v -1 -2 -2 l 1,-1 v -2 -2 -1 l 1,-2 v -2 -2 -1 -2 l 1,-1 v -2 -2 -1 l 1,-2 v -1 -2 -1 l 1,-2 v -1 -2 -1 l 1,-1 v -2 -1 -1 -2 l 1,-1 v -1 -2 -1 l 1,-1 v -1 -1 -1 l 1,-1 v -1 0 -1 -1 h 1 v -1 -1 0 l 1,-1 v 0 -1 -1 h 1 v -1 0 -1 h 1 v -1 -1 0 -1 h 1 v -1 0 -1 h 1 v 0 -1 0 h 1 v -1 0 -1 h 1 v -1 0 -1 0 l 1,-1 v 0 -1 0 h 1 v -1 0 0 l 1,-1 v 0 0 0 h 1 v 0 0 0 0 h 1 v 0 1 0 h 1 v 0 1 0 h 1 v 1 0 1 1 h 1 v 1 1 0 l 1,1 v 1 1 1 l 1,1 v 1 1 1 l 1,1 v 1 1 1 1 l 1,1 v 1 1 1 l 1,1 v 1 1 1 l 1,1 v 1 1 1 l 1,1 v 1 1 1 1 l 1,2 v 1 1 1 l 1,1 v 1 1 1 l 1,1 v 1 1 1 l 1,1 v 1 1 1 1 l 1,2 v 1 1 2 l 1,1 v 2 1 2 l 1,1 v 2 1 2 2 l 1,1 v 2 2 1 l 1,2 v 1 2 2 l 1,2 v 1 2 2 l 1,2 v 2 2 2 1 l 1,2 v 2 2 2 l 1,1 v 2 2 1 l 1,2 v 1 2 1 l 1,2 v 1 2 1 1 l 1,2 v 1 1 2 l 1,1 v 1 2 1 l 1,1 v 2 1 1 1 l 1,1 v 2 1 1 l 1,1 v 1 1 1 l 1,1 v 2 1 1 l 1,1 v 1 2 1 1 l 1,2 v 1 2 1 l 1,1 v 1 2 1 l 1,1 v 2 1 1 l 1,1 v 1 1 2 1 l 1,1 v 1 1 1 l 1,1 v 1 1 1 l 1,1 v 1 0 1 l 1,1 v 0 1 0 1 h 1 v 1 0 0 h 1 v 1 0 0 h 1 v 0 0 0 0 h 1 v 0 0 0 h 1 v 0 0 0 h 1 v 0 0 -1 h 1 v 0 0 0 -1 h 1 v 0 0 0 l 1,-1 v 0 0 0 h 1 v 0 0 0 l 1,-1 v 0 0 0 -1 h 1 v 0 -1 0 l 1,-1 v 0 -1 -1 h 1 v -1 -1 0 l 1,-1 v -1 -1 0 -1 l 1,-1 v -1 -1 -1 l 1,-1 v -1 -2 -1 l 1,-1 v -2 -1 -1 -2 l 1,-1 v -2 -1 -2 l 1,-1 v -2 -1 -2 l 1,-1 v -1 -2 -1 l 1,-2 v -1 -1 -2 -1 l 1,-2 v -1 -2 -1 l 1,-1 v -2 -1 -2 l 1,-1 v -1 -2 -1 l 1,-1 v -2 -1 -1 -1 l 1,-2 v -1 -1 -1 l 1,-2 v -1 -1 -1 l 1,-2 v -1 -2 -1 -2 l 1,-1 v -2 -1 -2 l 1,-2 v -1 -2 -1 l 1,-2 v -2 -1 -2 l 1,-2 v -1 -2 -2 -1 l 1,-2 v -2 -1 -2 l 1,-2 v -2 -2 -1 l 1,-2 v -2 -2 -1 l 1,-2 v -2 -1 -2 -1 l 1,-2 v -1 -1 -2 l 1,-1 v -1 -1 -2 l 1,-1 v -1 -1 -1 l 1,-1 v -1 -1 -1 -1 l 1,-1 v -1 -1 -1 l 1,-1 v -1 0 -1 l 1,-1 v -1 0 -1 -1 h 1 v -1 -1 -1 l 1,-1 v 0 -1 -1 l 1,-1 v -1 0 -1 l 1,-1 v -1 -1 -1 0 l 1,-1 v -1 0 -1 l 1,-1 v 0 -1 0 l 1,-1 v -1 0 -1 h 1 v -1 0 -1 0 h 1 v -1 0 0 h 1 v 0 0 0 h 1 v 0 0 0 l 1,1 v 0 1 0 0 l 1,1 v 0 1 0 l 1,1 v 0 1 1 h 1 v 1 0 1 1 l 1,1 v 0 1 1 l 1,1 v 1 0 1 l 1,1 v 1 1 0 l 1,1 v 1 1 0 1 l 1,1 v 0 1 1 h 1 v 1 1 1 l 1,1 v 0 1 1 l 1,1 v 1 1 1 1 l 1,1 v 1 2 1 l 1,1 v 1 1 1 l 1,1 v 2 1 1 2 l 1,1 v 2 1 2 l 1,2 v 1 2 2 l 1,1 v 2 2 2 l 1,2 v 1 2 2 1 l 1,2 v 2 1 2 l 1,2 v 1 2 2 l 1,1 v 2 2 1 l 1,2 v 1 2 2 1 l 1,2 v 1 2 1 l 1,1 v 2 1 1 l 1,2 v 1 1 1 l 1,1 v 2 1 1 2 l 1,1 v 1 2 1 l 1,1 v 2 1 2 l 1,1 v 2 1 1 2 l 1,1 v 2 1 1 l 1,2 v 1 2 1 l 1,1 v 2 1 2 l 1,2 v 1 2 1 2 l 1,1 v 1 2 1 l 1,1 v 2 1 1 l 1,1 v 1 1 1 l 1,1 v 1 1 1 1 l 1,1 v 0 1 1 l 1,1 v 0 1 0 l 1,1 v 0 1 0 l 1,1 v 0 0 1 0 h 1 v 0 0 0 l 1,1 v 0 0 0 h 1 v 0 1 0 0 h 1 v 1 0 0 h 1 v 0 1 0 h 1 v 0 0 0 h 1 v 0 0 0 0 h 1 v 0 0 0 h 1 v 0 0 0 h 1 v 0 -1 0 h 1 v -1 0 -1 0 l 1,-1 v -1 -1 0 l 1,-1 v -1 -1 -1 l 1,-1 v -1 -1 -1 l 1,-1 v -1 -1 -1 -1 l 1,-1 v -2 -1 -1 l 1,-1 v -2 -1 -1 l 1,-2 v -1 -1 -2 -1 l 1,-1 v -1 -2 -1 l 1,-1 v -1 -2 -1 l 1,-1 v -1 -1 -1 l 1,-1 v -1 -2 -1 -1 l 1,-1 v -1 -2 -1 l 1,-1 v -1 -2 -1 l 1,-1 v -2 -1 -1 l 1,-2 v -1 -1 -2 -1 l 1,-1 v -2 -1 -2 l 1,-1 v -2 -2 -1 l 1,-2 v -2 -2 -2 l 1,-1 v -2 -2 -2 -2 l 1,-2 v -1 -2 -2 l 1,-2 v -1 -2 -2 l 1,-1 v -2 -2 -1 -2 l 1,-2 v -1 -2 -2 l 1,-1 v -2 -1 -2 l 1,-1 v -2 -1 -1 l 1,-2 v -1 -1 -1 -1 l 1,-1 v -2 -1 -1 l 1,-1 v -1 -1 -1 l 1,-1 v -1 -1 -1 l 1,-1 v -1 -1 -1 -1 l 1,-1 v -1 -1 -1 l 1,-1 v -1 -1 -1 l 1,-1 v -1 -1 -1 -1 l 1,-1 v -1 -1 -1 l 1,-1 v -2 -1 -1 l 1,-1 v -1 -1 -1 h 1 v -1 -1 -1 0 l 1,-1 v -1 0 -1 h 1 v -1 0 0 l 1,-1 v 0 0 0 l 1,-1 v 0 0 0 0 h 1 v 0 0 0 h 1 v 1 0 0 l 1,1 v 0 1 0 h 1 v 1 0 1 0 l 1,1 v 0 0 1 h 1 v 1 0 0 l 1,1 v 0 1 0 1 h 1 v 1 0 1 h 1 v 1 0 1 h 1 v 1 1 0 l 1,1 v 0 1 0 1 l 1,1 v 1 0 1 l 1,1 v 1 1 1 l 1,1 v 1 1 1 l 1,2 v 1 1 2 1 l 1,1 v 2 1 1 l 1,2 v 1 2 1 l 1,2 v 1 2 2 l 1,1 v 2 1 2 2 l 1,2 v 1 2 2 l 1,1 v 2 1 2 l 1,2 v 1 1 2 1 l 1,2 v 1 2 1 l 1,1 v 2 1 1 l 1,2 v 1 2 1 l 1,1 v 2 1 2 1 l 1,1 v 2 1 1 l 1,2 v 1 1 2 l 1,1 v 1 2 1 l 1,2 v 1 2 1 2 l 1,2 v 1 2 2 l 1,1 v 2 2 1 l 1,2 v 2 1 2 1 l 1,2 v 2 1 2 l 1,1 v 2 1 2 l 1,1 v 1 2 1 l 1,2 v 1 1 2 1 l 1,1 v 1 1 1 l 1,1 v 1 1 1 h 1 v 1 1 0 l 1,1 v 1 0 1 1 h 1 v 1 0 1 l 1,1 v 0 1 0 l 1,1 v 0 1 0 l 1,1 v 0 1 0 0 l 1,1 v 0 1 0 l 1,1 v 0 1 0 l 1,1 v 0 1 0 1 h 1 v 0 1 0 h 1 v 1 0 0 h 1 v 0 0 0 h 1 v 0 0 0 -1 h 1 v 0 0 0 l 1,-1 v 0 -1 0 l 1,-1 v 0 -1 -1 h 1 v -1 -1 -1 -1 l 1,-1 v -1 -1 -1 l 1,-1 v -1 -1 -1 l 1,-1 v -1 -1 -1 h 1 v -1 -1 -1 -1 l 1,-1 v -1 -1 -1 l 1,-2 v -1 -1 -1 l 1,-1 v -1 -1 -1 -1 l 1,-1 v -1 -1 -1 l 1,-1 v -1 -1 -1 l 1,-1 v -1 -1 -1 l 1,-1 v -1 -2 -1 -1 l 1,-2 v -1 -2 -1 l 1,-2 v -1 -2 -1 l 1,-2 v -2 -1 -2 l 1,-1 v -2 -2 -1 -2 l 1,-2 v -1 -2 -2 l 1,-2 v -2 -2 -1 l 1,-2 v -2 -2 -2 l 1,-2 v -1 -2 -2 -1 l 1,-2 v -2 -1 -2 l 1,-1 v -2 -1 -1 l 1,-2 v -1 -2 -1 -1 l 1,-2 v -1 -1 -2 l 1,-1 v -1 -2 -1 l 1,-1 v -1 -1 -2 l 1,-1 v -1 -1 -1 -1 l 1,-1 v -2 -1 -1 l 1,-1 v -1 -2 -1 l 1,-1 v -2 -1 -1 l 1,-2 v -1 -1 -2 -1 l 1,-1 v -1 -2 -1 l 1,-1 v -1 -1 -2 l 1,-1 v -1 -1 -1 -1 l 1,-1 v -1 -1 -1 l 1,-1 v -1 -1 -1 h 1 v -1 -1 0 l 1,-1 v 0 -1 0 0 l 1,-1 v 0 0 0 h 1 v -1 0 0 h 1 v 0 0 0 h 1 v 0 0 0 0 h 1 v 0 0 1 h 1 v 0 0 0 h 1 v 1 0 0 h 1 v 0 0 1 0 h 1 v 0 0 0 h 1 v 0 1 0 h 1 v 1 0 0 1 h 1 v 1 0 1 h 1 v 1 1 0 l 1,1 v 1 0 1 l 1,1 v 1 1 1 1 l 1,1 v 1 1 1 l 1,1 v 2 1 1 l 1,2 v 1 2 1 l 1,1 v 2 1 2 1 l 1,2 v 1 1 2 l 1,1 v 2 1 2 l 1,1 v 1 2 1 l 1,2 v 1 2 1 1 l 1,2 v 1 2 1 l 1,1 v 1 2 1 l 1,1 v 1 2 1 1 l 1,1 v 2 1 1 l 1,2 v 1 1 2 l 1,1 v 2 1 2 l 1,2 v 1 2 1 2 l 1,1 v 2 2 1 l 1,2 v 1 2 2 l 1,2 v 1 2 2 l 1,1 v 2 2 2 2 l 1,1 v 2 2 2 l 1,1 v 2 2 1 l 1,2 v 1 1 2 1 l 1,2 v 1 1 1 l 1,2 v 1"
         stroke="#ed7d31"
         stroke-width="2"
         stroke-linecap="round"
         stroke-linejoin="round"
         stroke-miterlimit="10"
         fill="none"
         id="path677" />
    </g>
    <g
       id="g683"
       transform="matrix(0.26458333,0,0,0.26458333,-97.592236,14.190491)"
       clip-path="url(#clipPath924)">
      <path
         d="m 392,227 v 0 -1 0 h 1 v 0 -1 0 l 1,-1 v 0 0 -1 h 1 v -1 -1 0 l 1,-1 v 0 -1 -1 0 l 1,-1 v 0 -1 -1 l 1,-1 v 0 -1 -1 l 1,-1 v -1 -1 -1 h 1 v -1 -1 -1 0 l 1,-1 v -1 0 -1 l 1,-1 v -1 0 -1 l 1,-1 v 0 -1 -1 -1 l 1,-1 v -1 -1 -1 l 1,-1 v -1 -1 -1 l 1,-1 v -1 -1 -1 l 1,-2 v -1 -1 -1 -2 l 1,-1 v -1 -2 -1 l 1,-2 v -1 -2 -1 l 1,-2 v -2 -2 -1 l 1,-2 v -2 -2 -2 -1 l 1,-2 v -2 -1 -2 l 1,-2 v -1 -2 -2 l 1,-2 v -1 -2 -1 -2 l 1,-2 v -1 -2 -1 l 1,-2 v -2 -1 -2 l 1,-1 v -2 -1 -1 l 1,-2 v -1 -1 -1 -2 l 1,-1 v -1 -1 -2 l 1,-1 v -1 -1 -2 l 1,-1 v -1 -2 -1 l 1,-2 v -1 -1 -2 -1 l 1,-2 v -1 -2 -1 l 1,-1 v -2 -1 -2 l 1,-1 v -1 -2 -1 l 1,-2 v -1 -2 -1 -2 l 1,-1 v -2 -1 -2 l 1,-1 v -2 -1 -1 l 1,-2 v -1 -1 -1 -1 l 1,-1 v -1 -1 -1 l 1,-1 v 0 -1 -1 l 1,-1 v -1 0 -1 l 1,-1 v 0 -1 0 -1 h 1 v 0 -1 0 l 1,-1 v 0 0 0 h 1 v 0 0 0 l 1,-1 v 0 0 0 0 l 1,-1 v 0 0 0 l 1,-1 v 0 0 0 h 1 v -1 0 0 h 1 v 0 0 0 0 h 1 v 0 0 0 h 1 v 0 0 0 h 1 v 0 0 0 1 h 1 v 0 1 0 l 1,1 v 0 1 1 h 1 v 1 1 1 l 1,1 v 1 1 1 1 l 1,1 v 1 1 1 l 1,1 v 1 1 2 l 1,1 v 1 1 2 l 1,1 v 1 1 2 1 l 1,1 v 2 1 2 l 1,1 v 1 1 2 l 1,1 v 1 1 1 l 1,1 v 1 1 1 2 l 1,1 v 1 1 1 l 1,2 v 1 1 1 l 1,2 v 1 1 2 1 l 1,1 v 2 1 1 l 1,2 v 1 1 2 l 1,1 v 2 1 2 l 1,2 v 1 2 2 2 l 1,1 v 2 2 2 l 1,2 v 2 1 2 l 1,2 v 2 2 1 l 1,2 v 2 1 2 2 l 1,1 v 2 2 1 l 1,2 v 2 1 2 l 1,1 v 2 1 2 l 1,1 v 1 2 1 1 l 1,1 v 1 1 2 l 1,1 v 1 0 1 l 1,2 v 1 1 1 1 l 1,1 v 1 1 1 l 1,1 v 1 1 1 l 1,1 v 1 1 1 l 1,1 v 1 1 1 1 l 1,1 v 1 1 1 l 1,1 v 1 1 2 l 1,1 v 1 1 1 l 1,1 v 1 1 0 1 l 1,1 v 1 0 1 h 1 v 1 0 1 h 1 v 0 1 0 0 l 1,1 v 0 0 0 h 1 v 0 0 0 h 1 v 0 0 -1 h 1 v 0 -1 0 0 l 1,-1 v 0 -1 0 l 1,-1 v 0 -1 0 h 1 v -1 0 0 l 1,-1 v 0 0 -1 0 l 1,-1 v 0 -1 0 l 1,-1 v -1 0 -1 h 1 v -1 0 -1 h 1 v -1 0 -1 -1 h 1 v -1 0 -1 l 1,-1 v -1 0 -1 l 1,-1 v -1 -2 -1 -1 l 1,-1 v -1 -2 -1 l 1,-1 v -2 -1 -1 l 1,-2 v -1 -2 -1 l 1,-2 v -1 -1 -2 -2 l 1,-1 v -2 -1 -2 l 1,-2 v -2 -2 -1 l 1,-2 v -2 -1 -2 l 1,-1 v -2 -1 -2 -1 l 1,-2 v -1 -2 -1 l 1,-1 v -2 -1 -1 l 1,-2 v -1 -1 -2 l 1,-1 v -2 -1 -2 -1 l 1,-1 v -2 -1 -1 l 1,-2 v -1 -1 -2 l 1,-1 v -1 -2 -1 -1 l 1,-2 v -1 -2 -1 l 1,-2 v -2 -1 -2 l 1,-2 v -2 -1 -2 l 1,-2 v -1 -2 -2 -1 l 1,-2 v -1 -2 -1 l 1,-2 v -1 -2 -2 l 1,-1 v -1 -2 -1 l 1,-2 v -1 -2 -1 -1 l 1,-2 v -1 -1 -1 l 1,-1 v -1 -1 -1 h 1 v -1 -1 -1 h 1 v -1 -1 0 -1 l 1,-1 v 0 -1 0 l 1,-1 v -1 0 -1 l 1,-1 v 0 -1 0 -1 h 1 v 0 -1 0 l 1,-1 v 0 0 -1 h 1 v -1 -1 0 l 1,-1 v 0 0 -1 0 l 1,-1 v -1 0 0 l 1,-1 v 0 0 -1 h 1 v 0 0 0 h 1 v 0 0 0 0 h 1 v 0 1 0 h 1 v 1 0 0 l 1,1 v 0 1 0 l 1,1 v 1 0 1 1 l 1,1 v 1 1 1 l 1,1 v 1 1 1 l 1,1 v 1 1 1 1 l 1,1 v 1 1 1 l 1,1 v 1 1 1 l 1,1 v 1 1 1 l 1,1 v 1 1 1 1 l 1,1 v 1 1 1 l 1,1 v 1 1 1 l 1,1 v 1 1 1 l 1,1 v 1 1 1 2 l 1,1 v 1 2 1 l 1,2 v 1 2 2 l 1,1 v 2 1 2 1 l 1,2 v 1 2 2 l 1,1 v 2 2 2 l 1,2 v 2 1 2 l 1,2 v 2 2 2 2 l 1,1 v 2 2 2 l 1,1 v 2 1 2 l 1,1 v 2 1 2 l 1,1 v 1 2 1 2 l 1,1 v 2 1 1 l 1,2 v 1 1 1 l 1,2 v 1 1 1 l 1,1 v 2 1 1 1 l 1,1 v 1 1 1 l 1,2 v 1 1 2 l 1,1 v 1 2 1 1 l 1,2 v 1 1 2 l 1,1 v 1 2 1 l 1,1 v 1 1 1 l 1,2 v 1 1 1 1 l 1,1 v 2 1 1 l 1,1 v 1 1 1 h 1 v 1 1 1 h 1 v 1 0 1 0 h 1 v 0 1 0 h 1 v 0 0 1 h 1 v 0 0 0 h 1 v 0 0 0 0 h 1 v 0 0 0 h 1 v -1 0 0 h 1 v 0 -1 0 0 h 1 v 0 0 0 h 1 v 0 0 0 h 1 v -1 0 0 h 1 v -1 0 0 -1 h 1 v 0 -1 0 l 1,-1 v -1 0 -1 h 1 v -1 -1 0 l 1,-1 v -1 0 -1 -1 l 1,-1 v -1 -1 -2 l 1,-1 v -1 -1 -2 l 1,-1 v -1 -2 -1 l 1,-2 v -1 -2 -1 -2 l 1,-1 v -1 -2 -1 l 1,-1 v -2 -1 -2 l 1,-1 v -1 -2 -1 -2 l 1,-1 v -2 -1 -2 l 1,-1 v -1 -2 -1 l 1,-1 v -2 -1 -1 l 1,-1 v -2 -1 -1 -1 l 1,-1 v -2 -1 -1 l 1,-2 v -1 -1 -2 l 1,-1 v -2 -1 -2 l 1,-1 v -2 -1 -2 -2 l 1,-1 v -2 -1 -2 l 1,-2 v -1 -2 -1 l 1,-2 v -2 -1 -2 l 1,-2 v -2 -2 -2 -2 l 1,-1 v -2 -2 -2 l 1,-1 v -2 -2 -1 l 1,-2 v -1 -2 -1 -2 l 1,-1 v -1 -2 -1 l 1,-1 v -1 -1 -2 l 1,-1 v -1 -1 -2 l 1,-1 v -1 -1 -1 -1 h 1 v -1 -1 -1 l 1,-1 v 0 -1 -1 l 1,-1 v 0 -1 -1 l 1,-1 v 0 -1 -1 -1 l 1,-1 v -1 -1 -1 h 1 v -1 -1 -1 l 1,-1 v 0 -1 -1 0 l 1,-1 v -1 -1 0 l 1,-1 v -1 0 -1 h 1 v -1 -1 0 l 1,-1 v 0 -1 0 -1 h 1 v 0 0 0 h 1 v 0 0 0 h 1 v 1 0 0 h 1 v 1 0 1 0 h 1 v 1 0 1 h 1 v 1 0 1 l 1,1 v 0 1 1 l 1,1 v 1 0 1 1 l 1,1 v 1 0 1 l 1,1 v 0 1 1 h 1 v 1 1 0 1 h 1 v 1 1 1 h 1 v 1 1 1 l 1,1 v 1 1 1 l 1,1 v 1 1 1 1 l 1,1 v 1 1 1 l 1,1 v 1 1 2 l 1,1 v 1 2 1 l 1,2 v 1 2 2 1 l 1,2 v 2 2 1 l 1,2 v 2 1 2 l 1,2 v 1 2 2 l 1,2 v 1 2 1 2 l 1,2 v 1 2 2 l 1,2 v 1 2 2 l 1,1 v 2 1 2 1 l 1,1 v 2 1 1 l 1,1 v 2 1 1 l 1,2 v 1 1 1 l 1,2 v 1 1 2 1 l 1,2 v 1 2 1 l 1,1 v 2 1 1 l 1,2 v 1 1 2 l 1,1 v 2 1 2 1 l 1,2 v 1 2 1 l 1,2 v 1 2 2 l 1,1 v 2 1 2 l 1,1 v 2 1 1 1 l 1,1 v 2 1 1 l 1,1 v 1 1 1 l 1,1 v 1 1 1 0 l 1,1 v 1 1 0 l 1,1 v 1 0 1 h 1 v 0 1 0 h 1 v 0 1 0 0 h 1 v 1 0 0 h 1 v 1 0 0 l 1,1 v 0 0 0 l 1,1 v 0 0 0 1 h 1 v 0 0 0 h 1 v 0 0 0 h 1 v 1 0 0 h 1 v 0 0 0 0 h 1 v 0 0 0 l 1,-1 v 0 0 -1 h 1 v -1 -1 0 -1 l 1,-1 v -1 0 -1 l 1,-1 v -1 -1 -1 h 1 v -1 -1 -1 l 1,-2 v -1 -1 -1 -1 l 1,-1 v -2 -1 -1 l 1,-2 v -1 -1 -2 l 1,-1 v -1 -2 -1 l 1,-1 v -1 -1 -1 -1 l 1,-1 v -1 -2 -1 l 1,-1 v -1 -1 -1 l 1,-1 v -2 -1 -1 -1 l 1,-2 v -1 -1 -1 l 1,-2 v -1 -1 -1 l 1,-2 v -1 -1 -1 l 1,-2 v -1 -1 -2 -1 l 1,-2 v -2 -1 -2 l 1,-2 v -1 -2 -2 l 1,-2 v -2 -1 -2 l 1,-2 v -2 -2 -1 -2 l 1,-2 v -1 -2 -2 l 1,-2 v -1 -2 -2 l 1,-2 v -2 -1 -2 l 1,-2 v -1 -2 -1 -2 l 1,-1 v -2 -1 -2 l 1,-1 v -1 -1 -2 l 1,-1 v -1 -1 -1 -1 l 1,-1 v -1 -1 -2 l 1,-1 v -1 -1 -1 l 1,-1 v -1 -1 -1 l 1,-1 v -1 -2 -1 -1 l 1,-1 v -1 0 -1 l 1,-1 v -1 -1 -2 l 1,-1 v -1 -1 -1 l 1,-1 v -2 -1 -1 -1 l 1,-1 v -1 -1 -1 l 1,-1 v -1 -1 0 l 1,-1 v -1 -1 0 l 1,-1 v 0 -1 0 -1 h 1 v -1 0 -1 h 1 v 0 -1 0 h 1 v 0 0 0 0 l 1,1 v 0 0 0 l 1,1 v 0 0 1 h 1 v 0 1 0 h 1 v 1 0 0 0 l 1,1 v 0 1 0 h 1 v 1 0 1 h 1 v 1 0 1 h 1 v 1 0 1 0 h 1 v 1 0 1 h 1 v 1 0 1 h 1 v 1 0 1 l 1,1 v 1 1 1 1 l 1,1 v 1 1 1 l 1,1 v 1 1 2 l 1,1 v 1 1 2 1 l 1,1 v 2 1 1 l 1,2 v 2 1 2 l 1,2 v 1 2 2 l 1,1 v 2 2 1 2 l 1,1 v 2 2 1 l 1,2 v 1 2 1 l 1,1 v 2 1 1 l 1,2 v 1 2 1 2 l 1,1 v 2 1 1 l 1,2 v 1 1 2 l 1,1 v 1 2 1 l 1,1 v 2 1 1 1 l 1,2 v 1 2 1 l 1,2 v 1 2 2 l 1,1 v 2 2 1 2 l 1,2 v 1 2 1 l 1,2 v 2 1 2 l 1,2 v 1 2 1 l 1,2 v 2 1 2 1 l 1,2 v 1 2 2 l 1,1 v 1 2 1 l 1,1 v 1 1 2 l 1,1 v 1 0 1 1 l 1,1 v 1 1 0 l 1,1 v 1 1 0 l 1,1 v 1 1 0 l 1,1 v 1 0 1 0 l 1,1 v 0 1 0 l 1,1 v 0 1 0 l 1,1 v 0 1 0 1 h 1 v 1 0 1 l 1,1 v 0 1 1 h 1 v 1 0 0 l 1,1 v 0 0 0 1 h 1 v 0 0 0 h 1 v 0 1 0 l 1,-1 v 0 0 0 h 1 v 0 -1 0 0 l 1,-1 v 0 -1 -1 h 1 v -1 -1 -1 l 1,-1 v -1 -1 0 -1 l 1,-1 v -1 -1 -1 l 1,-1 v -1 -1 0 l 1,-1 v -1 -1 -1 l 1,-1 v -1 -1 -1 -1 l 1,-1 v -1 -1 -1 l 1,-1 v -1 -1 -1 l 1,-1 v -1 -1 -1 l 1,-1 v 0 -1 -1 -1 l 1,-1 v -1 -1 -2 l 1,-1 v -1 -1 -2 l 1,-1 v -1 -2 -1 l 1,-2 v -1 -1 -2 -1 l 1,-2 v -1 -2 -1 l 1,-2 v -2 -1 -2 l 1,-2 v -1 -2 -2 -2 l 1,-2 v -2 -2 -2 l 1,-1 v -2 -2 -2 l 1,-2 v -1 -2 -1 l 1,-2 v -2 -1 -2 -1 l 1,-2 v -1 -2 -1 l 1,-2 v -1 -2 -1 l 1,-2 v -1 -1 -2 l 1,-1 v -2 -1 -1 -1 l 1,-1 v -1 -2 -1 l 1,-1 v -1 -1 -1 l 1,-2 v -1 -1 -1 l 1,-2 v -1 -1 -2 -1 l 1,-1 v -2 -1 -2 l 1,-1 v -1 -2 -1 l 1,-1 v -1 -1 -2 -1 l 1,-1 v -1 -2 -1 l 1,-1 v -2 -1 -1 l 1,-1 v -1 -2 -1 l 1,-1 v -1 -1 -1 -1 h 1 v -1 -1 0 l 1,-1 v 0 -1 0 h 1 v -1 0 -1 h 1 v 0 -1 0 0 h 1 v 0 0 -1 h 1 v 0 0 0 h 1 v 1 0 0 h 1 v 0 0 0 1 h 1 v 0 0 0 h 1 v 0 0 0 h 1 v 0 0 0 0 h 1 v 0 0 1 h 1 v 0 0 1 h 1 v 1 0 1 h 1 v 0 1 0 1 h 1 v 1 0 1 l 1,1 v 1 1 1 l 1,1 v 1 1 1 l 1,1 v 1 1 2 1 l 1,2 v 1 1 2 l 1,1 v 1 1 2 l 1,1 v 1 2 1 l 1,2 v 1 2 1 2 l 1,1 v 1 2 1 l 1,2 v 1 2 1 l 1,1 v 2 1 1 1 l 1,2 v 1 1 1 l 1,1 v 1 2 1 l 1,1 v 2 1 1 l 1,2 v 1 1 2 1 l 1,2 v 1 2 1 l 1,2 v 1 2 1 l 1,2 v 1 2 1 l 1,2 v 2 1 2 2 l 1,2 v 2 1 2 l 1,2 v 2 2 2 l 1,1 v 2 2 2 1 l 1,2 v 2 1 2 l 1,1 v 2 1 1 l 1,2 v 1 2 1 l 1,1 v 2 1 2 1 l 1,1 v 1 1"
         stroke="#4472c4"
         stroke-width="2"
         stroke-linecap="round"
         stroke-linejoin="round"
         stroke-miterlimit="10"
         stroke-dasharray="4, 4"
         fill="none"
         id="path681" />
    </g>
    <g
       id="g687"
       transform="matrix(0.26458333,0,0,0.26458333,-97.592236,14.190491)">
      <text
         font-family="Arial, Arial_MSFontService, sans-serif"
         font-weight="400"
         font-size="12px"
         transform="translate(357.86,231)"
         id="text685">0.00</text>
    </g>
    <g
       id="g691"
       transform="matrix(0.26458333,0,0,0.26458333,-97.592236,14.190491)">
      <text
         font-family="Arial, Arial_MSFontService, sans-serif"
         font-weight="400"
         font-size="12px"
         transform="translate(357.86,204)"
         id="text689">0.01</text>
    </g>
    <g
       id="g695"
       transform="matrix(0.26458333,0,0,0.26458333,-97.592236,14.190491)">
      <text
         font-family="Arial, Arial_MSFontService, sans-serif"
         font-weight="400"
         font-size="12px"
         transform="translate(357.86,178)"
         id="text693">0.01</text>
    </g>
    <g
       id="g699"
       transform="matrix(0.26458333,0,0,0.26458333,-97.592236,14.190491)">
      <text
         font-family="Arial, Arial_MSFontService, sans-serif"
         font-weight="400"
         font-size="12px"
         transform="translate(357.86,151)"
         id="text697">0.02</text>
    </g>
    <g
       id="g703"
       transform="matrix(0.26458333,0,0,0.26458333,-97.592236,14.190491)">
      <text
         font-family="Arial, Arial_MSFontService, sans-serif"
         font-weight="400"
         font-size="12px"
         transform="translate(357.86,125)"
         id="text701">0.02</text>
    </g>
    <g
       id="g707"
       transform="matrix(0.26458333,0,0,0.26458333,-97.592236,14.190491)">
      <text
         font-family="Arial, Arial_MSFontService, sans-serif"
         font-weight="400"
         font-size="12px"
         transform="translate(357.86,98)"
         id="text705">0.03</text>
    </g>
    <g
       id="g711"
       transform="matrix(0.26458333,0,0,0.26458333,-97.592236,14.190491)">
      <text
         font-family="Arial, Arial_MSFontService, sans-serif"
         font-weight="400"
         font-size="12px"
         transform="translate(357.86,72)"
         id="text709">0.03</text>
    </g>
    <g
       id="g715"
       transform="matrix(0.26458333,0,0,0.26458333,-97.592236,14.190491)">
      <text
         font-family="Arial, Arial_MSFontService, sans-serif"
         font-weight="400"
         font-size="12px"
         transform="translate(357.86,45)"
         id="text713">0.04</text>
    </g>
    <g
       id="g719"
       transform="matrix(0.26458333,0,0,0.26458333,-97.592236,14.190491)">
      <text
         font-family="Arial, Arial_MSFontService, sans-serif"
         font-weight="400"
         font-size="12px"
         transform="translate(357.86,19)"
         id="text717">0.04</text>
    </g>
    <g
       id="g723"
       transform="matrix(0.26458333,0,0,0.26458333,-97.592236,14.190491)">
      <text
         font-family="Arial, Arial_MSFontService, sans-serif"
         font-weight="400"
         font-size="12px"
         transform="translate(388.196,245)"
         id="text721">0</text>
    </g>
    <g
       id="g727"
       transform="matrix(0.26458333,0,0,0.26458333,-97.592236,14.190491)">
      <text
         font-family="Arial, Arial_MSFontService, sans-serif"
         font-weight="400"
         font-size="12px"
         transform="translate(450.912,245)"
         id="text725">100</text>
    </g>
    <g
       id="g731"
       transform="matrix(0.26458333,0,0,0.26458333,-97.592236,14.190491)">
      <text
         font-family="Arial, Arial_MSFontService, sans-serif"
         font-weight="400"
         font-size="12px"
         transform="translate(520.3,245)"
         id="text729">200</text>
    </g>
    <g
       id="g735"
       transform="matrix(0.26458333,0,0,0.26458333,-97.592236,14.190491)">
      <text
         font-family="Arial, Arial_MSFontService, sans-serif"
         font-weight="400"
         font-size="12px"
         transform="translate(589.689,245)"
         id="text733">300</text>
    </g>
    <g
       id="g739"
       transform="matrix(0.26458333,0,0,0.26458333,-97.592236,14.190491)">
      <text
         font-family="Arial, Arial_MSFontService, sans-serif"
         font-weight="400"
         font-size="12px"
         transform="translate(659.078,245)"
         id="text737">400</text>
    </g>
    <g
       id="g743"
       transform="matrix(0.26458333,0,0,0.26458333,-97.592236,14.190491)">
      <text
         font-family="Arial, Arial_MSFontService, sans-serif"
         font-weight="400"
         font-size="12px"
         transform="translate(728.466,245)"
         id="text741">500</text>
    </g>
    <g
       id="g747"
       transform="matrix(0.26458333,0,0,0.26458333,-97.592236,14.190491)">
      <text
         font-family="Arial, Arial_MSFontService, sans-serif"
         font-weight="400"
         font-size="12px"
         transform="translate(797.855,245)"
         id="text745">600</text>
    </g>
    <g
       id="g751"
       transform="matrix(0.26458333,0,0,0.26458333,-97.592236,14.190491)">
      <text
         font-family="Arial, Arial_MSFontService, sans-serif"
         font-weight="400"
         font-size="13px"
         transform="rotate(-90,276.763,-74.763)"
         id="text749">Deslocamento vertical (dm)</text>
    </g>
    <g
       id="g755"
       transform="matrix(0.26458333,0,0,0.26458333,-97.592236,14.190491)">
      <text
         font-family="Arial, Arial_MSFontService, sans-serif"
         font-weight="400"
         font-size="13px"
         transform="translate(589.793,264)"
         id="text753">Tempo (ms)</text>
    </g>
    <g
       id="g759"
       transform="matrix(0.26458333,0,0,0.26458333,-102.7374,14.190491)"
       clip-path="url(#clipPath918)">
      <path
         d="m 892,131 h 33"
         stroke="#ed7d31"
         stroke-width="2"
         stroke-linecap="round"
         stroke-linejoin="round"
         stroke-miterlimit="10"
         fill="none"
         fill-rule="evenodd"
         id="path757" />
    </g>
    <g
       id="g763"
       transform="matrix(0.26458333,0,0,0.26458333,-102.7374,14.190491)">
      <text
         font-family="Arial, Arial_MSFontService, sans-serif"
         font-weight="400"
         font-size="12px"
         transform="translate(929.083,135)"
         id="text761">ANSYS</text>
    </g>
    <g
       id="g767"
       transform="matrix(0.26458333,0,0,0.26458333,-102.7374,14.190491)"
       clip-path="url(#clipPath912)">
      <path
         d="m 892,152 h 33"
         stroke="#4472c4"
         stroke-width="2"
         stroke-linecap="round"
         stroke-linejoin="round"
         stroke-miterlimit="10"
         stroke-dasharray="4, 4"
         fill="none"
         fill-rule="evenodd"
         id="path765" />
    </g>
    <g
       id="g771"
       transform="matrix(0.26458333,0,0,0.26458333,-102.7374,14.190491)">
      <text
         font-family="Arial, Arial_MSFontService, sans-serif"
         font-weight="400"
         font-size="12px"
         transform="translate(929.083,156)"
         id="text769">u3</text>
    </g>
  </g>
</svg>
