<?xml version="1.0" encoding="UTF-8" standalone="no"?>
<!-- Created with Inkscape (http://www.inkscape.org/) -->

<svg
   width="213.03191mm"
   height="84.158554mm"
   viewBox="0 0 213.0319 84.158554"
   version="1.1"
   id="svg1089"
   inkscape:version="1.2.1 (9c6d41e410, 2022-07-14)"
   sodipodi:docname="res2.svg"
   xmlns:inkscape="http://www.inkscape.org/namespaces/inkscape"
   xmlns:sodipodi="http://sodipodi.sourceforge.net/DTD/sodipodi-0.dtd"
   xmlns="http://www.w3.org/2000/svg"
   xmlns:svg="http://www.w3.org/2000/svg">
  <sodipodi:namedview
     id="namedview1091"
     pagecolor="#ffffff"
     bordercolor="#000000"
     borderopacity="0.25"
     inkscape:showpageshadow="2"
     inkscape:pageopacity="0.0"
     inkscape:pagecheckerboard="0"
     inkscape:deskcolor="#d1d1d1"
     inkscape:document-units="mm"
     showgrid="false"
     inkscape:zoom="1.4912879"
     inkscape:cx="423.1242"
     inkscape:cy="115.33655"
     inkscape:window-width="1920"
     inkscape:window-height="1017"
     inkscape:window-x="1912"
     inkscape:window-y="-8"
     inkscape:window-maximized="1"
     inkscape:current-layer="layer1" />
  <defs
     id="defs1086">
    <clipPath
       clipPathUnits="userSpaceOnUse"
       id="clipPath1536">
      <g
         id="g1540"
         transform="matrix(3.7795276,0,0,3.7795276,448.47636,-464.68748)">
        <rect
           x="-22.880205"
           y="122.94856"
           width="199.76042"
           height="74.877083"
           id="rect1538"
           style="stroke-width:0.264583" />
      </g>
    </clipPath>
    <clipPath
       clipPathUnits="userSpaceOnUse"
       id="clipPath1542">
      <g
         id="g1546"
         transform="matrix(3.7795276,0,0,3.7795276,448.47636,-464.68748)">
        <rect
           x="-22.880205"
           y="122.94856"
           width="199.76042"
           height="74.877083"
           id="rect1544"
           style="stroke-width:0.264583" />
      </g>
    </clipPath>
    <clipPath
       clipPathUnits="userSpaceOnUse"
       id="clipPath1548">
      <g
         id="g1552"
         transform="matrix(3.7795276,0,0,3.7795276,448.47636,-464.68748)">
        <rect
           x="-22.880205"
           y="122.94856"
           width="199.76042"
           height="74.877083"
           id="rect1550"
           style="stroke-width:0.264583" />
      </g>
    </clipPath>
    <clipPath
       clipPathUnits="userSpaceOnUse"
       id="clipPath1554">
      <g
         id="g1558"
         transform="matrix(3.7795276,0,0,3.7795276,448.47636,-464.68748)">
        <rect
           x="-22.880205"
           y="122.94856"
           width="199.76042"
           height="74.877083"
           id="rect1556"
           style="stroke-width:0.264583" />
      </g>
    </clipPath>
    <clipPath
       clipPathUnits="userSpaceOnUse"
       id="clipPath1560">
      <g
         id="g1564"
         transform="matrix(3.7795276,0,0,3.7795276,448.47636,-464.68748)">
        <rect
           x="-22.880205"
           y="122.94856"
           width="199.76042"
           height="74.877083"
           id="rect1562"
           style="stroke-width:0.264583" />
      </g>
    </clipPath>
    <clipPath
       clipPathUnits="userSpaceOnUse"
       id="clipPath1566">
      <g
         id="g1570"
         transform="matrix(3.7795276,0,0,3.7795276,448.47636,-464.68748)">
        <rect
           x="-22.880205"
           y="122.94856"
           width="199.76042"
           height="74.877083"
           id="rect1568"
           style="stroke-width:0.264583" />
      </g>
    </clipPath>
    <clipPath
       clipPathUnits="userSpaceOnUse"
       id="clipPath1572">
      <g
         id="g1576"
         transform="matrix(3.7795276,0,0,3.7795276,448.47636,-464.68748)">
        <rect
           x="-22.880205"
           y="122.94856"
           width="199.76042"
           height="74.877083"
           id="rect1574"
           style="stroke-width:0.264583" />
      </g>
    </clipPath>
    <clipPath
       clipPathUnits="userSpaceOnUse"
       id="clipPath1578">
      <g
         id="g1582"
         transform="matrix(3.7795276,0,0,3.7795276,448.47636,-464.68748)">
        <rect
           x="-22.880205"
           y="122.94856"
           width="199.76042"
           height="74.877083"
           id="rect1580"
           style="stroke-width:0.264583" />
      </g>
    </clipPath>
    <clipPath
       clipPathUnits="userSpaceOnUse"
       id="clipPath1584">
      <g
         id="g1588"
         transform="matrix(3.7795276,0,0,3.7795276,448.47636,-464.68748)">
        <rect
           x="-22.880205"
           y="122.94856"
           width="199.76042"
           height="74.877083"
           id="rect1586"
           style="stroke-width:0.264583" />
      </g>
    </clipPath>
    <clipPath
       clipPathUnits="userSpaceOnUse"
       id="clipPath1590">
      <g
         id="g1594"
         transform="matrix(3.7795276,0,0,3.7795276,448.47636,-464.68748)">
        <rect
           x="-22.880205"
           y="122.94856"
           width="199.76042"
           height="74.877083"
           id="rect1592"
           style="stroke-width:0.264583" />
      </g>
    </clipPath>
    <clipPath
       clipPathUnits="userSpaceOnUse"
       id="clipPath1596">
      <g
         id="g1600"
         transform="matrix(3.7795276,0,0,3.7795276,448.47636,-464.68748)">
        <rect
           x="-22.880205"
           y="122.94856"
           width="199.76042"
           height="74.877083"
           id="rect1598"
           style="stroke-width:0.264583" />
      </g>
    </clipPath>
    <clipPath
       clipPathUnits="userSpaceOnUse"
       id="clipPath1602">
      <g
         id="g1606"
         transform="matrix(3.7795276,0,0,3.7795276,448.47636,-464.68748)">
        <rect
           x="-22.880205"
           y="122.94856"
           width="199.76042"
           height="74.877083"
           id="rect1604"
           style="stroke-width:0.264583" />
      </g>
    </clipPath>
    <clipPath
       clipPathUnits="userSpaceOnUse"
       id="clipPath1608">
      <g
         id="g1612"
         transform="matrix(3.7795276,0,0,3.7795276,448.47636,-464.68748)">
        <rect
           x="-22.880205"
           y="122.94856"
           width="199.76042"
           height="74.877083"
           id="rect1610"
           style="stroke-width:0.264583" />
      </g>
    </clipPath>
    <clipPath
       clipPathUnits="userSpaceOnUse"
       id="clipPath1614">
      <g
         id="g1618">
        <rect
           x="-22.880205"
           y="122.94856"
           width="199.76042"
           height="74.877083"
           id="rect1616"
           style="stroke-width:0.264583" />
      </g>
    </clipPath>
    <clipPath
       clipPathUnits="userSpaceOnUse"
       id="clipPath749">
      <g
         id="g753"
         transform="matrix(3.7795276,0,0,3.7795276,1470.0991,-504.90143)">
        <rect
           x="-130.73038"
           y="133.5885"
           width="237.59583"
           height="91.016663"
           id="rect751"
           style="stroke-width:0.264583" />
      </g>
    </clipPath>
    <clipPath
       clipPathUnits="userSpaceOnUse"
       id="clipPath755">
      <g
         id="g759"
         transform="matrix(3.7795276,0,0,3.7795276,1470.0991,-504.90143)">
        <rect
           x="-130.73038"
           y="133.5885"
           width="237.59583"
           height="91.016663"
           id="rect757"
           style="stroke-width:0.264583" />
      </g>
    </clipPath>
    <clipPath
       clipPathUnits="userSpaceOnUse"
       id="clipPath761">
      <g
         id="g765"
         transform="matrix(3.7795276,0,0,3.7795276,1470.0991,-504.90143)">
        <rect
           x="-130.73038"
           y="133.5885"
           width="237.59583"
           height="91.016663"
           id="rect763"
           style="stroke-width:0.264583" />
      </g>
    </clipPath>
    <clipPath
       clipPathUnits="userSpaceOnUse"
       id="clipPath767">
      <g
         id="g771"
         transform="matrix(3.7795276,0,0,3.7795276,1470.0991,-504.90143)">
        <rect
           x="-130.73038"
           y="133.5885"
           width="237.59583"
           height="91.016663"
           id="rect769"
           style="stroke-width:0.264583" />
      </g>
    </clipPath>
    <clipPath
       clipPathUnits="userSpaceOnUse"
       id="clipPath773">
      <g
         id="g777"
         transform="matrix(3.7795276,0,0,3.7795276,1470.0991,-504.90143)">
        <rect
           x="-130.73038"
           y="133.5885"
           width="237.59583"
           height="91.016663"
           id="rect775"
           style="stroke-width:0.264583" />
      </g>
    </clipPath>
    <clipPath
       clipPathUnits="userSpaceOnUse"
       id="clipPath779">
      <g
         id="g783"
         transform="matrix(3.7795276,0,0,3.7795276,1470.0991,-504.90143)">
        <rect
           x="-130.73038"
           y="133.5885"
           width="237.59583"
           height="91.016663"
           id="rect781"
           style="stroke-width:0.264583" />
      </g>
    </clipPath>
    <clipPath
       clipPathUnits="userSpaceOnUse"
       id="clipPath785">
      <g
         id="g789"
         transform="matrix(3.7795276,0,0,3.7795276,1470.0991,-504.90143)">
        <rect
           x="-130.73038"
           y="133.5885"
           width="237.59583"
           height="91.016663"
           id="rect787"
           style="stroke-width:0.264583" />
      </g>
    </clipPath>
    <clipPath
       clipPathUnits="userSpaceOnUse"
       id="clipPath791">
      <g
         id="g795"
         transform="matrix(3.7795276,0,0,3.7795276,1470.0991,-504.90143)">
        <rect
           x="-130.73038"
           y="133.5885"
           width="237.59583"
           height="91.016663"
           id="rect793"
           style="stroke-width:0.264583" />
      </g>
    </clipPath>
    <clipPath
       clipPathUnits="userSpaceOnUse"
       id="clipPath797">
      <g
         id="g801"
         transform="matrix(3.7795276,0,0,3.7795276,1470.0991,-504.90143)">
        <rect
           x="-130.73038"
           y="133.5885"
           width="237.59583"
           height="91.016663"
           id="rect799"
           style="stroke-width:0.264583" />
      </g>
    </clipPath>
    <clipPath
       clipPathUnits="userSpaceOnUse"
       id="clipPath803">
      <g
         id="g807"
         transform="matrix(3.7795276,0,0,3.7795276,1470.0991,-504.90143)">
        <rect
           x="-130.73038"
           y="133.5885"
           width="237.59583"
           height="91.016663"
           id="rect805"
           style="stroke-width:0.264583" />
      </g>
    </clipPath>
    <clipPath
       clipPathUnits="userSpaceOnUse"
       id="clipPath809">
      <g
         id="g813"
         transform="matrix(3.7795276,0,0,3.7795276,1470.0991,-504.90143)">
        <rect
           x="-130.73038"
           y="133.5885"
           width="237.59583"
           height="91.016663"
           id="rect811"
           style="stroke-width:0.264583" />
      </g>
    </clipPath>
    <clipPath
       clipPathUnits="userSpaceOnUse"
       id="clipPath815">
      <g
         id="g819"
         transform="matrix(3.7795276,0,0,3.7795276,1470.0991,-504.90143)">
        <rect
           x="-130.73038"
           y="133.5885"
           width="237.59583"
           height="91.016663"
           id="rect817"
           style="stroke-width:0.264583" />
      </g>
    </clipPath>
    <clipPath
       clipPathUnits="userSpaceOnUse"
       id="clipPath821">
      <g
         id="g825"
         transform="matrix(3.7795276,0,0,3.7795276,1470.0991,-504.90143)">
        <rect
           x="-130.73038"
           y="133.5885"
           width="237.59583"
           height="91.016663"
           id="rect823"
           style="stroke-width:0.264583" />
      </g>
    </clipPath>
    <clipPath
       clipPathUnits="userSpaceOnUse"
       id="clipPath827">
      <g
         id="g831"
         transform="matrix(3.7795276,0,0,3.7795276,1470.0991,-504.90143)">
        <rect
           x="-130.73038"
           y="133.5885"
           width="237.59583"
           height="91.016663"
           id="rect829"
           style="stroke-width:0.264583" />
      </g>
    </clipPath>
    <clipPath
       clipPathUnits="userSpaceOnUse"
       id="clipPath833">
      <g
         id="g837">
        <rect
           x="-130.73038"
           y="133.5885"
           width="237.59583"
           height="91.016663"
           id="rect835"
           style="stroke-width:0.264583" />
      </g>
    </clipPath>
  </defs>
  <g
     inkscape:label="Camada 1"
     inkscape:groupmode="layer"
     id="layer1"
     transform="translate(125.3843,-136.14338)">
    <g
       id="g416"
       transform="matrix(0.26458333,0,0,0.26458333,-388.96371,133.5885)"
       clip-path="url(#clipPath827)">
      <rect
         x="1042"
         y="15"
         width="609"
         height="270"
         fill="#ffffff"
         id="rect414" />
    </g>
    <g
       id="g420"
       transform="matrix(0.26458333,0,0,0.26458333,-388.96371,133.5885)"
       clip-path="url(#clipPath821)">
      <path
         d="m 1042.5,251.5 h 609 m -609,-34 h 609 m -609,-34 h 609 m -609,-34 h 609 m -609,-33 h 609 m -609,-33.9999 h 609 m -609,-34 h 609 m -609,-34 h 609"
         stroke="#d9d9d9"
         stroke-linejoin="round"
         stroke-miterlimit="10"
         fill="none"
         id="path418" />
    </g>
    <g
       id="g424"
       transform="matrix(0.26458333,0,0,0.26458333,-388.96371,133.5885)"
       clip-path="url(#clipPath815)">
      <path
         d="M 1102.5,14.5001 V 285.5 m 61,-270.9999 V 285.5 m 61,-270.9999 V 285.5 m 61,-270.9999 V 285.5 m 61,-270.9999 V 285.5 m 61,-270.9999 V 285.5 m 61,-270.9999 V 285.5 m 61,-270.9999 V 285.5 m 61,-270.9999 V 285.5 m 61,-270.9999 V 285.5"
         stroke="#d9d9d9"
         stroke-linejoin="round"
         stroke-miterlimit="10"
         fill="none"
         id="path422" />
    </g>
    <g
       id="g428"
       transform="matrix(0.26458333,0,0,0.26458333,-388.96371,133.5885)"
       clip-path="url(#clipPath809)">
      <rect
         x="1042.5"
         y="14.5001"
         width="609"
         height="271"
         stroke="#000000"
         stroke-linejoin="round"
         stroke-miterlimit="10"
         fill="none"
         id="rect426" />
    </g>
    <g
       id="g432"
       transform="matrix(0.26458333,0,0,0.26458333,-388.96371,133.5885)"
       clip-path="url(#clipPath803)">
      <path
         d="M 0,0 1.04987e-4,271"
         stroke="#000000"
         stroke-linejoin="round"
         stroke-miterlimit="10"
         fill="none"
         fill-rule="evenodd"
         transform="matrix(1,0,0,-1,1042.5,285.5)"
         id="path430" />
    </g>
    <g
       id="g436"
       transform="matrix(0.26458333,0,0,0.26458333,-388.96371,133.5885)"
       clip-path="url(#clipPath797)">
      <path
         d="m 1042.5,285.5 h 3 m -3,-7 h 3 m -3,-7 h 3 m -3,-7 h 3 m -3,-6 h 3 m -3,-7 h 3 m -3,-7 h 3 m -3,-7 h 3 m -3,-7 h 3 m -3,-6 h 3 m -3,-7 h 3 m -3,-7 h 3 m -3,-7 h 3 m -3,-6 h 3 m -3,-7 h 3 m -3,-7 h 3 m -3,-7 h 3 m -3,-6 h 3 m -3,-7 h 3 m -3,-7 h 3 m -3,-7 h 3 m -3,-6 h 3 m -3,-7 h 3 m -3,-7 h 3 m -3,-7 h 3 m -3,-6 h 3 m -3,-7 h 3 m -3,-7 h 3 m -3,-6.9999 h 3 m -3,-6 h 3 m -3,-7 h 3 m -3,-7.0001 h 3 m -3,-6.9999 h 3 m -3,-7 h 3 m -3,-6 h 3 m -3,-7 h 3 m -3,-7 h 3 m -3,-7 h 3 m -3,-6 h 3 m -3,-7 h 3 m -3,-7 h 3 m -8,270.9999 h 9 m -9,-34 h 9 m -9,-34 h 9 m -9,-34 h 9 m -9,-34 h 9 m -9,-33 h 9 m -9,-33.9999 h 9 m -9,-34 h 9 m -9,-34 h 9"
         stroke="#000000"
         stroke-linejoin="round"
         stroke-miterlimit="10"
         fill="none"
         id="path434" />
    </g>
    <g
       id="g440"
       transform="matrix(0.26458333,0,0,0.26458333,-388.96371,133.5885)"
       clip-path="url(#clipPath791)">
      <path
         d="m 1042.5,285.5 h 609"
         stroke="#000000"
         stroke-linejoin="round"
         stroke-miterlimit="10"
         fill="none"
         fill-rule="evenodd"
         id="path438" />
    </g>
    <g
       id="g444"
       transform="matrix(0.26458333,0,0,0.26458333,-388.96371,133.5885)"
       clip-path="url(#clipPath785)">
      <path
         d="m 1042.5,282.5 v 3 m 12,-3 v 3 m 12,-3 v 3 m 12,-3 v 3 m 12,-3 v 3 m 12,-3 v 3 m 13,-3 v 3 m 12,-3 v 3 m 12,-3 v 3 m 12,-3 v 3 m 12,-3 v 3 m 13,-3 v 3 m 12,-3 v 3 m 12,-3 v 3 m 12,-3 v 3 m 12,-3 v 3 m 12,-3 v 3 m 13,-3 v 3 m 12,-3 v 3 m 12,-3 v 3 m 12,-3 v 3 m 12,-3 v 3 m 13,-3 v 3 m 12,-3 v 3 m 12,-3 v 3 m 12,-3 v 3 m 12,-3 v 3 m 13,-3 v 3 m 12,-3 v 3 m 12,-3 v 3 m 12,-3 v 3 m 12,-3 v 3 m 12,-3 v 3 m 13,-3 v 3 m 12,-3 v 3 m 12,-3 v 3 m 12,-3 v 3 m 12,-3 v 3 m 13,-3 v 3 m 12,-3 v 3 m 12,-3 v 3 m 12,-3 v 3 m 12,-3 v 3 m 12,-3 v 3 m 13,-3 v 3 m 12,-3 v 3 m 12,-3 v 3 m 12,-3 v 3 m 12,-3 v 3 m 13,-3 v 3 m 12,-3 v 3 m -609,-4 v 8 m 60,-8 v 8 m 61,-8 v 8 m 61,-8 v 8 m 61,-8 v 8 m 61,-8 v 8 m 61,-8 v 8 m 61,-8 v 8 m 61,-8 v 8 m 61,-8 v 8 m 61,-8 v 8"
         stroke="#000000"
         stroke-linejoin="round"
         stroke-miterlimit="10"
         fill="none"
         id="path442" />
    </g>
    <g
       id="g448"
       transform="matrix(0.26458333,0,0,0.26458333,-388.96371,133.5885)"
       clip-path="url(#clipPath779)">
      <path
         d="m 1045,283 3,-3 3,-5 3,-6 3,-6 3,-7 3,-7 3,-8 3,-8 3,-8 4,-8 3,-8 3,-7 3,-8 3,-7 3,-7 3,-6 3,-6 3,-6 3,-6 3,-6 3,-5 3,-3 3,-4 3,-5 3,-7 3,-8 3,-7 3,-7 3,-6 3,-4 3,-2 4,-2 3,-1 3,-2 3,-2 3,-4 3,-7 3,-8 3,-8 3,-9 3,-9 3,-7 3,-5 3,-3 3,2 3,4 3,5 3,6 3,9 3,12 3,13 3,14 4,13 3,12 3,10 3,8 3,8 3,6 3,6 3,7 3,7 3,7 3,8 3,8 3,8 3,7 3,6 3,6 3,5 3,3 h 3 3 l 3,-2 3,-1 4,-1 3,-1 3,-1 3,1 h 3 3 l 3,1 3,2 3,2 3,3 3,4 3,4 3,4 3,4 3,3 3,2 h 3 3 l 3,-1 3,-3 3,-4 4,-6 3,-8 3,-9 3,-10 3,-10 3,-10 3,-9 3,-10 3,-10 3,-11 3,-11 3,-12 3,-12 3,-13 3,-12 3,-11 3,-9 3,-7 3,-7 3,-5 3,-4 3,-1 4,1 3,1 3,2 3,4 3,4 3,6 3,7 3,7 3,6 3,3 3,2 3,-1 3,-1 3,-2 3,-2 h 3 l 3,1 3,3 3,3 3,3 3,4 3,6 4,8 3,9 3,9 3,10 3,11 3,11 3,12 3,12 3,10 3,10 3,9 3,7 3,6 3,6 3,5 3,5 3,5 3,5 3,6 3,6 3,5 4,2 3,2 h 3 l 3,-1 3,-2 3,-3 3,-4 3,-6 3,-6 3,-7 3,-8 3,-7 3,-7 3,-7 3,-6 3,-6 3,-6 3,-5 3,-4 3,-4 3,-3 3,-2 4,-1 h 3 l 3,-1 3,-3 3,-4 3,-5 3,-7 3,-7 3,-8 3,-9 3,-9 3,-9 3,-9 3,-8 3,-8 3,-7 3,-8"
         stroke="#ed7d31"
         stroke-width="2"
         stroke-linecap="round"
         stroke-linejoin="round"
         stroke-miterlimit="10"
         fill="none"
         id="path446" />
    </g>
    <g
       id="g452"
       transform="matrix(0.26458333,0,0,0.26458333,-388.96371,133.5885)"
       clip-path="url(#clipPath773)">
      <path
         d="m 1045,284 3,-2 3,-4 3,-5 3,-5 3,-7 3,-7 3,-7 3,-8 3,-8 4,-8 3,-8 3,-8 3,-8 3,-7 3,-7 3,-7 3,-7 3,-6 3,-6 3,-5 3,-5 3,-4 3,-5 3,-5 3,-7 3,-7 3,-7 3,-6 3,-6 3,-4 3,-3 4,-3 3,-1 3,-2 3,-3 3,-4 3,-6 3,-6 3,-9 3,-9 3,-8 3,-8 3,-5 3,-4 3,-1 3,1 3,3 3,6 3,9 3,12 3,12 3,13 4,13 3,11 3,10 3,9 3,9 3,7 3,8 3,7 3,8 3,8 3,8 3,8 3,8 3,7 3,7 3,5 3,3 3,3 3,1 3,1 h 3 3 4 l 3,-1 h 3 l 3,-2 3,-1 h 3 3 l 3,1 3,3 3,4 3,4 3,5 3,4 3,4 3,4 3,2 3,2 3,-1 3,-2 3,-3 3,-5 4,-6 3,-7 3,-8 3,-7 3,-8 3,-8 3,-9 3,-10 3,-11 3,-12 3,-12 3,-12 3,-12 3,-12 3,-11 3,-11 3,-9 3,-9 3,-7 3,-6 3,-5 3,-4 4,-3 h 3 l 3,2 3,4 3,6 3,7 3,7 3,5 3,4 3,3 3,1 3,1 h 3 3 3 3 3 l 3,1 3,1 3,3 3,4 3,5 4,7 3,8 3,10 3,11 3,12 3,11 3,10 3,9 3,9 3,9 3,8 3,8 3,9 3,7 3,8 3,7 3,7 3,6 3,5 3,5 3,3 4,3 3,2 h 3 l 3,-1 3,-1 3,-2 3,-3 3,-3 3,-5 3,-5 3,-6 3,-8 3,-8 3,-9 3,-8 3,-7 3,-6 3,-5 3,-3 3,-3 3,-1 3,-2 4,-1 3,-2 3,-3 3,-3 3,-5 3,-6 3,-6 3,-7 3,-7 3,-7 3,-7 3,-7 3,-8 3,-8 3,-9 3,-9 3,-9"
         stroke="#4472c4"
         stroke-width="2"
         stroke-linecap="round"
         stroke-linejoin="round"
         stroke-miterlimit="10"
         stroke-dasharray="4, 4"
         fill="none"
         id="path450" />
    </g>
    <g
       id="g456"
       transform="matrix(0.26458333,0,0,0.26458333,-388.96371,133.5885)"
       clip-path="url(#clipPath767)">
      <path
         d="m 1044,283 5,-3 4,-4 2,-7 5,-15 10,-26 7,-17 10,-22 8,-20 10,-21 9,-16 12,-19 8,-16 5,-9 10,-5 8,-11 7,-14 5,-14 3,-13 4,-3 4,-2 5,1 4,5 1,9 3,11 5,10 3,20 3,19 5,12 11,28 9,19 5,19 5,14 7,13 7,11 7,4 h 10 l 7,-3 h 9 l 6,4 11,7 4,6 12,8 10,-4 6,-9 7,-17 3,-14 7,-16 11,-42 8,-32 6,-28 2,-11 4,-12 5,-6 7,-7 9,1 8,10 6,9 3,9 6,8 9,2 9,-3 6,4 7,6 6,15 9,23 5,12 7,28 3,14 4,17 5,14 8,15 7,10 7,11 10,10 8,3 7,-1 4,-5 5,-13 6,-15 9,-19 11,-18 10,-14 12,-11 9,-9 5,-8 7,-12 3,-14 3,-9 4,-15 6,-12 4,-13 5,-16 4,-4"
         stroke="#767171"
         stroke-width="2"
         stroke-linecap="round"
         stroke-linejoin="round"
         stroke-miterlimit="10"
         stroke-dasharray="6, 8"
         fill="none"
         id="path454" />
    </g>
    <g
       id="g460"
       transform="matrix(0.26458333,0,0,0.26458333,-388.96371,133.5885)">
      <text
         font-family="Arial, Arial_MSFontService, sans-serif"
         font-weight="400"
         font-size="13px"
         transform="translate(1012,289)"
         id="text458">0.0</text>
    </g>
    <g
       id="g464"
       transform="matrix(0.26458333,0,0,0.26458333,-388.96371,133.5885)">
      <text
         font-family="Arial, Arial_MSFontService, sans-serif"
         font-weight="400"
         font-size="13px"
         transform="translate(1012,255)"
         id="text462">0.1</text>
    </g>
    <g
       id="g468"
       transform="matrix(0.26458333,0,0,0.26458333,-388.96371,133.5885)">
      <text
         font-family="Arial, Arial_MSFontService, sans-serif"
         font-weight="400"
         font-size="13px"
         transform="translate(1012,222)"
         id="text466">0.2</text>
    </g>
    <g
       id="g472"
       transform="matrix(0.26458333,0,0,0.26458333,-388.96371,133.5885)">
      <text
         font-family="Arial, Arial_MSFontService, sans-serif"
         font-weight="400"
         font-size="13px"
         transform="translate(1012,188)"
         id="text470">0.3</text>
    </g>
    <g
       id="g476"
       transform="matrix(0.26458333,0,0,0.26458333,-388.96371,133.5885)">
      <text
         font-family="Arial, Arial_MSFontService, sans-serif"
         font-weight="400"
         font-size="13px"
         transform="translate(1012,154)"
         id="text474">0.4</text>
    </g>
    <g
       id="g480"
       transform="matrix(0.26458333,0,0,0.26458333,-388.96371,133.5885)">
      <text
         font-family="Arial, Arial_MSFontService, sans-serif"
         font-weight="400"
         font-size="13px"
         transform="translate(1012,120)"
         id="text478">0.5</text>
    </g>
    <g
       id="g484"
       transform="matrix(0.26458333,0,0,0.26458333,-388.96371,133.5885)">
      <text
         font-family="Arial, Arial_MSFontService, sans-serif"
         font-weight="400"
         font-size="13px"
         transform="translate(1012,86)"
         id="text482">0.6</text>
    </g>
    <g
       id="g488"
       transform="matrix(0.26458333,0,0,0.26458333,-388.96371,133.5885)">
      <text
         font-family="Arial, Arial_MSFontService, sans-serif"
         font-weight="400"
         font-size="13px"
         transform="translate(1012,53)"
         id="text486">0.7</text>
    </g>
    <g
       id="g492"
       transform="matrix(0.26458333,0,0,0.26458333,-388.96371,133.5885)">
      <text
         font-family="Arial, Arial_MSFontService, sans-serif"
         font-weight="400"
         font-size="13px"
         transform="translate(1012,19)"
         id="text490">0.8</text>
    </g>
    <g
       id="g496"
       transform="matrix(0.26458333,0,0,0.26458333,-388.96371,133.5885)">
      <text
         font-family="Arial, Arial_MSFontService, sans-serif"
         font-weight="400"
         font-size="13px"
         transform="translate(1032.74,305)"
         id="text494">0.0</text>
    </g>
    <g
       id="g500"
       transform="matrix(0.26458333,0,0,0.26458333,-388.96371,133.5885)">
      <text
         font-family="Arial, Arial_MSFontService, sans-serif"
         font-weight="400"
         font-size="13px"
         transform="translate(1093.67,305)"
         id="text498">0.5</text>
    </g>
    <g
       id="g504"
       transform="matrix(0.26458333,0,0,0.26458333,-388.96371,133.5885)">
      <text
         font-family="Arial, Arial_MSFontService, sans-serif"
         font-weight="400"
         font-size="13px"
         transform="translate(1154.6,305)"
         id="text502">1.0</text>
    </g>
    <g
       id="g508"
       transform="matrix(0.26458333,0,0,0.26458333,-388.96371,133.5885)">
      <text
         font-family="Arial, Arial_MSFontService, sans-serif"
         font-weight="400"
         font-size="13px"
         transform="translate(1215.52,305)"
         id="text506">1.5</text>
    </g>
    <g
       id="g512"
       transform="matrix(0.26458333,0,0,0.26458333,-388.96371,133.5885)">
      <text
         font-family="Arial, Arial_MSFontService, sans-serif"
         font-weight="400"
         font-size="13px"
         transform="translate(1276.45,305)"
         id="text510">2.0</text>
    </g>
    <g
       id="g516"
       transform="matrix(0.26458333,0,0,0.26458333,-388.96371,133.5885)">
      <text
         font-family="Arial, Arial_MSFontService, sans-serif"
         font-weight="400"
         font-size="13px"
         transform="translate(1337.38,305)"
         id="text514">2.5</text>
    </g>
    <g
       id="g520"
       transform="matrix(0.26458333,0,0,0.26458333,-388.96371,133.5885)">
      <text
         font-family="Arial, Arial_MSFontService, sans-serif"
         font-weight="400"
         font-size="13px"
         transform="translate(1398.3,305)"
         id="text518">3.0</text>
    </g>
    <g
       id="g524"
       transform="matrix(0.26458333,0,0,0.26458333,-388.96371,133.5885)">
      <text
         font-family="Arial, Arial_MSFontService, sans-serif"
         font-weight="400"
         font-size="13px"
         transform="translate(1459.23,305)"
         id="text522">3.5</text>
    </g>
    <g
       id="g528"
       transform="matrix(0.26458333,0,0,0.26458333,-388.96371,133.5885)">
      <text
         font-family="Arial, Arial_MSFontService, sans-serif"
         font-weight="400"
         font-size="13px"
         transform="translate(1520.16,305)"
         id="text526">4.0</text>
    </g>
    <g
       id="g532"
       transform="matrix(0.26458333,0,0,0.26458333,-388.96371,133.5885)">
      <text
         font-family="Arial, Arial_MSFontService, sans-serif"
         font-weight="400"
         font-size="13px"
         transform="translate(1581.09,305)"
         id="text530">4.5</text>
    </g>
    <g
       id="g536"
       transform="matrix(0.26458333,0,0,0.26458333,-388.96371,133.5885)">
      <text
         font-family="Arial, Arial_MSFontService, sans-serif"
         font-weight="400"
         font-size="13px"
         transform="translate(1642.01,305)"
         id="text534">5.0</text>
    </g>
    <g
       id="g540"
       transform="matrix(0.26458333,0,0,0.26458333,-388.96371,133.5885)">
      <text
         font-family="Arial, Arial_MSFontService, sans-serif"
         font-weight="400"
         font-size="13px"
         transform="rotate(-90,616.335,-389.335)"
         id="text538">Deslocamento vertical (in)</text>
    </g>
    <g
       id="g544"
       transform="matrix(0.26458333,0,0,0.26458333,-388.96371,133.5885)">
      <text
         font-family="Arial, Arial_MSFontService, sans-serif"
         font-weight="400"
         font-size="13px"
         transform="translate(1310.72,325)"
         id="text542">Tempo (ms)</text>
    </g>
    <g
       id="g548"
       transform="matrix(0.26458333,0,0,0.26458333,-388.96371,133.5885)"
       clip-path="url(#clipPath761)">
      <path
         d="m 1685,145 h 34"
         stroke="#ed7d31"
         stroke-width="2"
         stroke-linecap="round"
         stroke-linejoin="round"
         stroke-miterlimit="10"
         fill="none"
         fill-rule="evenodd"
         id="path546" />
    </g>
    <g
       id="g552"
       transform="matrix(0.26458333,0,0,0.26458333,-388.96371,133.5885)">
      <text
         font-family="Arial, Arial_MSFontService, sans-serif"
         font-weight="400"
         font-size="13px"
         transform="translate(1722.35,149)"
         id="text550">Autor</text>
    </g>
    <g
       id="g556"
       transform="matrix(0.26458333,0,0,0.26458333,-388.96371,133.5885)"
       clip-path="url(#clipPath755)">
      <path
         d="m 1685,175 h 34"
         stroke="#4472c4"
         stroke-width="2"
         stroke-linecap="round"
         stroke-linejoin="round"
         stroke-miterlimit="10"
         stroke-dasharray="4, 4"
         fill="none"
         fill-rule="evenodd"
         id="path554" />
    </g>
    <g
       id="g560"
       transform="matrix(0.26458333,0,0,0.26458333,-388.96371,133.5885)">
      <text
         font-family="Arial, Arial_MSFontService, sans-serif"
         font-weight="400"
         font-size="13px"
         transform="translate(1722.35,179)"
         id="text558">ANSYS</text>
    </g>
    <g
       id="g564"
       transform="matrix(0.26458333,0,0,0.26458333,-388.96371,133.5885)"
       clip-path="url(#clipPath749)">
      <path
         d="m 1685,204 h 34"
         stroke="#767171"
         stroke-width="2"
         stroke-linecap="round"
         stroke-linejoin="round"
         stroke-miterlimit="10"
         stroke-dasharray="6, 8"
         fill="none"
         fill-rule="evenodd"
         id="path562" />
    </g>
    <g
       id="g568"
       transform="matrix(0.26458333,0,0,0.26458333,-388.96371,133.5885)">
      <text
         font-family="Arial, Arial_MSFontService, sans-serif"
         font-weight="400"
         font-size="13px"
         transform="translate(1722.35,208)"
         id="text566">Mondkar,</text>
    </g>
    <g
       id="g572"
       transform="matrix(0.26458333,0,0,0.26458333,-388.96371,133.5885)">
      <text
         font-family="Arial, Arial_MSFontService, sans-serif"
         font-weight="400"
         font-size="13px"
         transform="translate(1722.35,224)"
         id="text570">Powell (1977)</text>
    </g>
  </g>
</svg>
