<?xml version="1.0" encoding="UTF-8" standalone="no"?>
<!-- Created with Inkscape (http://www.inkscape.org/) -->

<svg
   width="170.61131mm"
   height="67.828804mm"
   viewBox="0 0 170.61131 67.828804"
   version="1.1"
   id="svg1089"
   inkscape:version="1.2.1 (9c6d41e410, 2022-07-14)"
   sodipodi:docname="res2.svg"
   xmlns:inkscape="http://www.inkscape.org/namespaces/inkscape"
   xmlns:sodipodi="http://sodipodi.sourceforge.net/DTD/sodipodi-0.dtd"
   xmlns="http://www.w3.org/2000/svg"
   xmlns:svg="http://www.w3.org/2000/svg">
  <sodipodi:namedview
     id="namedview1091"
     pagecolor="#ffffff"
     bordercolor="#000000"
     borderopacity="0.25"
     inkscape:showpageshadow="2"
     inkscape:pageopacity="0.0"
     inkscape:pagecheckerboard="0"
     inkscape:deskcolor="#d1d1d1"
     inkscape:document-units="mm"
     showgrid="false"
     inkscape:zoom="1.4912879"
     inkscape:cx="358.07976"
     inkscape:cy="125.39497"
     inkscape:window-width="1920"
     inkscape:window-height="1017"
     inkscape:window-x="1912"
     inkscape:window-y="-8"
     inkscape:window-maximized="1"
     inkscape:current-layer="layer1" />
  <defs
     id="defs1086">
    <clipPath
       clipPathUnits="userSpaceOnUse"
       id="clipPath1536">
      <g
         id="g1540"
         transform="matrix(3.7795276,0,0,3.7795276,448.47636,-464.68748)">
        <rect
           x="-22.880205"
           y="122.94856"
           width="199.76042"
           height="74.877083"
           id="rect1538"
           style="stroke-width:0.264583" />
      </g>
    </clipPath>
    <clipPath
       clipPathUnits="userSpaceOnUse"
       id="clipPath1542">
      <g
         id="g1546"
         transform="matrix(3.7795276,0,0,3.7795276,448.47636,-464.68748)">
        <rect
           x="-22.880205"
           y="122.94856"
           width="199.76042"
           height="74.877083"
           id="rect1544"
           style="stroke-width:0.264583" />
      </g>
    </clipPath>
    <clipPath
       clipPathUnits="userSpaceOnUse"
       id="clipPath1548">
      <g
         id="g1552"
         transform="matrix(3.7795276,0,0,3.7795276,448.47636,-464.68748)">
        <rect
           x="-22.880205"
           y="122.94856"
           width="199.76042"
           height="74.877083"
           id="rect1550"
           style="stroke-width:0.264583" />
      </g>
    </clipPath>
    <clipPath
       clipPathUnits="userSpaceOnUse"
       id="clipPath1554">
      <g
         id="g1558"
         transform="matrix(3.7795276,0,0,3.7795276,448.47636,-464.68748)">
        <rect
           x="-22.880205"
           y="122.94856"
           width="199.76042"
           height="74.877083"
           id="rect1556"
           style="stroke-width:0.264583" />
      </g>
    </clipPath>
    <clipPath
       clipPathUnits="userSpaceOnUse"
       id="clipPath1560">
      <g
         id="g1564"
         transform="matrix(3.7795276,0,0,3.7795276,448.47636,-464.68748)">
        <rect
           x="-22.880205"
           y="122.94856"
           width="199.76042"
           height="74.877083"
           id="rect1562"
           style="stroke-width:0.264583" />
      </g>
    </clipPath>
    <clipPath
       clipPathUnits="userSpaceOnUse"
       id="clipPath1566">
      <g
         id="g1570"
         transform="matrix(3.7795276,0,0,3.7795276,448.47636,-464.68748)">
        <rect
           x="-22.880205"
           y="122.94856"
           width="199.76042"
           height="74.877083"
           id="rect1568"
           style="stroke-width:0.264583" />
      </g>
    </clipPath>
    <clipPath
       clipPathUnits="userSpaceOnUse"
       id="clipPath1572">
      <g
         id="g1576"
         transform="matrix(3.7795276,0,0,3.7795276,448.47636,-464.68748)">
        <rect
           x="-22.880205"
           y="122.94856"
           width="199.76042"
           height="74.877083"
           id="rect1574"
           style="stroke-width:0.264583" />
      </g>
    </clipPath>
    <clipPath
       clipPathUnits="userSpaceOnUse"
       id="clipPath1578">
      <g
         id="g1582"
         transform="matrix(3.7795276,0,0,3.7795276,448.47636,-464.68748)">
        <rect
           x="-22.880205"
           y="122.94856"
           width="199.76042"
           height="74.877083"
           id="rect1580"
           style="stroke-width:0.264583" />
      </g>
    </clipPath>
    <clipPath
       clipPathUnits="userSpaceOnUse"
       id="clipPath1584">
      <g
         id="g1588"
         transform="matrix(3.7795276,0,0,3.7795276,448.47636,-464.68748)">
        <rect
           x="-22.880205"
           y="122.94856"
           width="199.76042"
           height="74.877083"
           id="rect1586"
           style="stroke-width:0.264583" />
      </g>
    </clipPath>
    <clipPath
       clipPathUnits="userSpaceOnUse"
       id="clipPath1590">
      <g
         id="g1594"
         transform="matrix(3.7795276,0,0,3.7795276,448.47636,-464.68748)">
        <rect
           x="-22.880205"
           y="122.94856"
           width="199.76042"
           height="74.877083"
           id="rect1592"
           style="stroke-width:0.264583" />
      </g>
    </clipPath>
    <clipPath
       clipPathUnits="userSpaceOnUse"
       id="clipPath1596">
      <g
         id="g1600"
         transform="matrix(3.7795276,0,0,3.7795276,448.47636,-464.68748)">
        <rect
           x="-22.880205"
           y="122.94856"
           width="199.76042"
           height="74.877083"
           id="rect1598"
           style="stroke-width:0.264583" />
      </g>
    </clipPath>
    <clipPath
       clipPathUnits="userSpaceOnUse"
       id="clipPath1602">
      <g
         id="g1606"
         transform="matrix(3.7795276,0,0,3.7795276,448.47636,-464.68748)">
        <rect
           x="-22.880205"
           y="122.94856"
           width="199.76042"
           height="74.877083"
           id="rect1604"
           style="stroke-width:0.264583" />
      </g>
    </clipPath>
    <clipPath
       clipPathUnits="userSpaceOnUse"
       id="clipPath1608">
      <g
         id="g1612"
         transform="matrix(3.7795276,0,0,3.7795276,448.47636,-464.68748)">
        <rect
           x="-22.880205"
           y="122.94856"
           width="199.76042"
           height="74.877083"
           id="rect1610"
           style="stroke-width:0.264583" />
      </g>
    </clipPath>
    <clipPath
       clipPathUnits="userSpaceOnUse"
       id="clipPath1614">
      <g
         id="g1618">
        <rect
           x="-22.880205"
           y="122.94856"
           width="199.76042"
           height="74.877083"
           id="rect1616"
           style="stroke-width:0.264583" />
      </g>
    </clipPath>
  </defs>
  <g
     inkscape:label="Camada 1"
     inkscape:groupmode="layer"
     id="layer1"
     transform="translate(17.60988,-125.69361)">
    <g
       id="g1219"
       transform="matrix(0.26458333,0,0,0.26458333,-118.65937,122.94856)"
       clip-path="url(#clipPath1608)">
      <path
         d="m 446.5,200.5 h 453 m -453,-27 h 453 m -453,-26 h 453 m -453,-27 h 453 m -453,-25.9999 h 453 m -453,-27 h 453 m -453,-26 h 453 m -453,-27 h 453"
         stroke="#d9d9d9"
         stroke-linejoin="round"
         stroke-miterlimit="10"
         fill="none"
         id="path1217" />
    </g>
    <g
       id="g1223"
       transform="matrix(0.26458333,0,0,0.26458333,-118.65937,122.94856)"
       clip-path="url(#clipPath1602)">
      <path
         d="M 491.5,14.5001 V 226.5 m 45,-211.9999 V 226.5 m 46,-211.9999 V 226.5 m 45,-211.9999 V 226.5 m 45,-211.9999 V 226.5 m 46,-211.9999 V 226.5 m 45,-211.9999 V 226.5 m 46,-211.9999 V 226.5 m 45,-211.9999 V 226.5 m 45,-211.9999 V 226.5"
         stroke="#d9d9d9"
         stroke-linejoin="round"
         stroke-miterlimit="10"
         fill="none"
         id="path1221" />
    </g>
    <g
       id="g1227"
       transform="matrix(0.26458333,0,0,0.26458333,-118.65937,122.94856)"
       clip-path="url(#clipPath1596)">
      <rect
         x="446.5"
         y="14.5001"
         width="453"
         height="212"
         stroke="#000000"
         stroke-linejoin="round"
         stroke-miterlimit="10"
         fill="none"
         id="rect1225" />
    </g>
    <g
       id="g1231"
       transform="matrix(0.26458333,0,0,0.26458333,-118.65937,122.94856)"
       clip-path="url(#clipPath1590)">
      <path
         d="M 0,0 1.04987e-4,212"
         stroke="#000000"
         stroke-linejoin="round"
         stroke-miterlimit="10"
         fill="none"
         fill-rule="evenodd"
         transform="matrix(1,0,0,-1,446.5,226.5)"
         id="path1229" />
    </g>
    <g
       id="g1235"
       transform="matrix(0.26458333,0,0,0.26458333,-118.65937,122.94856)"
       clip-path="url(#clipPath1584)">
      <path
         d="m 446.5,226.5 h 2 m -2,-5 h 2 m -2,-5 h 2 m -2,-6 h 2 m -2,-5 h 2 m -2,-5 h 2 m -2,-5 h 2 m -2,-6 h 2 m -2,-5 h 2 m -2,-5 h 2 m -2,-6 h 2 m -2,-5 h 2 m -2,-5 h 2 m -2,-6 h 2 m -2,-5 h 2 m -2,-5 h 2 m -2,-6 h 2 m -2,-5 h 2 m -2,-5 h 2 m -2,-5 h 2 m -2,-6 h 2 m -2,-5 h 2 m -2,-5 h 2 m -2,-6 h 2 m -2,-4.9999 h 2 m -2,-5 h 2 m -2,-6 h 2 m -2,-5 h 2 m -2,-5.0001 h 2 m -2,-4.9999 h 2 m -2,-6 h 2 m -2,-5 h 2 m -2,-5 h 2 m -2,-6 h 2 m -2,-5.0001 h 2 m -2,-4.9999 h 2 m -2,-6 h 2 m -2,-5 h 2 m -2,-5 h 2 m -2,-6 h 2 m -2,-5 h 2 m -6,211.9999 h 7 m -7,-26 h 7 m -7,-27 h 7 m -7,-26 h 7 m -7,-27 h 7 m -7,-25.9999 h 7 m -7,-27 h 7 m -7,-26 h 7 m -7,-27 h 7"
         stroke="#000000"
         stroke-linejoin="round"
         stroke-miterlimit="10"
         fill="none"
         id="path1233" />
    </g>
    <g
       id="g1239"
       transform="matrix(0.26458333,0,0,0.26458333,-118.65937,122.94856)"
       clip-path="url(#clipPath1578)">
      <path
         d="m 446.5,226.5 h 453"
         stroke="#000000"
         stroke-linejoin="round"
         stroke-miterlimit="10"
         fill="none"
         fill-rule="evenodd"
         id="path1237" />
    </g>
    <g
       id="g1243"
       transform="matrix(0.26458333,0,0,0.26458333,-118.65937,122.94856)"
       clip-path="url(#clipPath1572)">
      <path
         d="m 446.5,224.5 v 2 m 9,-2 v 2 m 9,-2 v 2 m 9,-2 v 2 m 9,-2 v 2 m 9,-2 v 2 m 9,-2 v 2 m 9,-2 v 2 m 9,-2 v 2 m 9,-2 v 2 m 9,-2 v 2 m 10,-2 v 2 m 9,-2 v 2 m 9,-2 v 2 m 9,-2 v 2 m 9,-2 v 2 m 9,-2 v 2 m 9,-2 v 2 m 9,-2 v 2 m 9,-2 v 2 m 9,-2 v 2 m 9,-2 v 2 m 9,-2 v 2 m 9,-2 v 2 m 9,-2 v 2 m 9,-2 v 2 m 10,-2 v 2 m 9,-2 v 2 m 9,-2 v 2 m 9,-2 v 2 m 9,-2 v 2 m 9,-2 v 2 m 9,-2 v 2 m 9,-2 v 2 m 9,-2 v 2 m 9,-2 v 2 m 9,-2 v 2 m 9,-2 v 2 m 9,-2 v 2 m 9,-2 v 2 m 10,-2 v 2 m 9,-2 v 2 m 9,-2 v 2 m 9,-2 v 2 m 9,-2 v 2 m 9,-2 v 2 m 9,-2 v 2 m 9,-2 v 2 m 9,-2 v 2 m 9,-2 v 2 m 9,-2 v 2 m -453,-3 v 7 m 45,-7 v 7 m 45,-7 v 7 m 46,-7 v 7 m 45,-7 v 7 m 45,-7 v 7 m 46,-7 v 7 m 45,-7 v 7 m 46,-7 v 7 m 45,-7 v 7 m 45,-7 v 7"
         stroke="#000000"
         stroke-linejoin="round"
         stroke-miterlimit="10"
         fill="none"
         id="path1241" />
    </g>
    <g
       id="g1247"
       transform="matrix(0.26458333,0,0,0.26458333,-118.65937,122.94856)"
       clip-path="url(#clipPath1566)">
      <path
         d="m 449,226 2,-2 2,-3 2,-4 3,-5 2,-5 2,-6 2,-5 3,-7 2,-6 2,-6 2,-6 3,-6 2,-6 2,-6 3,-6 2,-5 2,-5 2,-5 3,-4 2,-5 2,-4 2,-3 3,-3 2,-4 2,-4 2,-6 3,-6 2,-5 2,-5 3,-4 2,-3 2,-2 2,-1 3,-1 2,-2 2,-2 2,-4 3,-6 2,-6 2,-7 2,-7 3,-6 2,-5 2,-3 3,-1 2,2 2,3 2,4 3,6 2,8 2,10 2,10 3,10 2,10 2,9 2,7 3,7 2,6 2,5 3,5 2,5 2,6 2,6 3,6 2,6 2,6 2,5 3,5 2,4 2,3 3,2 h 2 l 2,-1 2,-1 3,-1 h 2 l 2,-1 h 2 3 2 l 2,1 2,1 3,2 2,2 2,2 3,3 2,3 2,3 2,3 3,2 2,1 h 2 2 l 3,-2 2,-2 2,-4 2,-5 3,-6 2,-7 2,-8 3,-8 2,-7 2,-8 2,-8 3,-8 2,-8 2,-9 2,-9 3,-10 2,-10 2,-9 2,-8 3,-7 2,-6 2,-5 3,-4 2,-2 h 2 2 l 3,1 2,2 2,3 2,4 3,5 2,5 2,5 2,4 3,2 2,1 h 2 l 3,-2 2,-1 2,-1 h 2 l 3,1 2,2 2,2 2,3 3,4 2,5 2,6 2,7 3,7 2,8 2,9 3,9 2,9 2,9 2,8 3,8 2,6 2,6 2,5 3,4 2,4 2,4 3,4 2,4 2,5 2,4 3,3 2,2 2,1 h 2 l 3,-1 2,-1 2,-3 2,-3 3,-4 2,-6 2,-5 3,-6 2,-5 2,-6 2,-5 3,-5 2,-4 2,-4 2,-4 3,-4 2,-3 2,-2 2,-1 3,-1 2,-1 2,-2 3,-2 2,-3 2,-4 2,-5 3,-6 2,-6 2,-6 2,-8 3,-7 2,-7 2,-6 2,-6 3,-6"
         stroke="#ed7d31"
         stroke-width="2"
         stroke-linecap="round"
         stroke-linejoin="round"
         stroke-miterlimit="10"
         fill="none"
         id="path1245" />
    </g>
    <g
       id="g1251"
       transform="matrix(0.26458333,0,0,0.26458333,-118.65937,122.94856)"
       clip-path="url(#clipPath1560)">
      <path
         d="m 449,226 2,-2 2,-3 2,-4 3,-5 2,-5 2,-6 2,-6 3,-6 2,-6 2,-6 2,-6 3,-7 2,-6 2,-5 3,-6 2,-5 2,-5 2,-4 3,-5 2,-5 2,-4 2,-3 3,-3 2,-4 2,-4 2,-6 3,-6 2,-6 2,-5 3,-3 2,-3 2,-2 2,-1 3,-1 2,-1 2,-3 2,-4 3,-6 2,-6 2,-7 2,-7 3,-6 2,-5 2,-3 3,-1 2,3 2,3 2,5 3,6 2,8 2,10 2,10 3,10 2,10 2,9 2,7 3,6 2,6 2,5 3,5 2,5 2,6 2,6 3,6 2,6 2,6 2,5 3,5 2,4 2,3 3,2 h 2 l 2,-1 2,-1 3,-1 2,-1 2,-1 h 2 3 l 2,1 h 2 l 2,1 3,2 2,2 2,3 3,3 2,3 2,3 2,3 3,2 2,1 h 2 l 2,-1 3,-1 2,-3 2,-4 2,-6 3,-6 2,-7 2,-8 3,-8 2,-8 2,-7 2,-8 3,-8 2,-9 2,-9 2,-9 3,-10 2,-10 2,-9 2,-8 3,-6 2,-6 2,-4 3,-4 2,-2 h 2 l 2,1 3,1 2,2 2,3 2,5 3,5 2,5 2,5 2,4 3,2 h 2 l 2,-1 3,-1 2,-2 h 2 2 l 3,1 2,3 2,2 2,3 3,4 2,5 2,7 2,7 3,8 2,8 2,9 3,9 2,9 2,9 2,8 3,7 2,6 2,5 2,5 3,4 2,4 2,4 3,4 2,4 2,5 2,4 3,3 2,2 h 2 2 l 3,-1 2,-2 2,-3 2,-3 3,-5 2,-5 2,-6 3,-6 2,-6 2,-5 2,-5 3,-5 2,-5 2,-4 2,-3 3,-4 2,-2 2,-3 2,-1 h 3 2 l 2,-2 3,-3 2,-3 2,-5 2,-5 3,-6 2,-7 2,-7 2,-7 3,-7 2,-7 2,-6 2,-6 3,-6"
         stroke="#4472c4"
         stroke-width="2"
         stroke-linecap="round"
         stroke-linejoin="round"
         stroke-miterlimit="10"
         stroke-dasharray="4, 4"
         fill="none"
         id="path1249" />
    </g>
    <g
       id="g1255"
       transform="matrix(0.26458333,0,0,0.26458333,-118.65937,122.94856)"
       clip-path="url(#clipPath1554)">
      <path
         d="m 448,225 3,-2 4,-3 1,-5 4,-12 7,-21 5,-13 7,-17 7,-16 7,-17 7,-12 8,-15 6,-13 5,-7 7,-4 6,-8 5,-11 4,-11 2,-10 3,-3 3,-2 4,1 3,4 v 7 l 3,9 3,8 3,15 2,15 3,10 9,22 7,15 3,14 4,12 5,10 5,9 5,2 h 8 l 5,-2 h 7 l 4,3 8,6 4,5 9,6 7,-3 4,-7 5,-14 3,-11 5,-12 8,-33 6,-26 4,-21 2,-9 3,-9 3,-5 6,-5 7,1 6,7 4,7 3,7 4,6 7,2 6,-2 5,3 5,4 4,12 7,18 4,10 5,22 2,10 3,14 4,11 6,12 5,8 6,8 7,8 5,3 6,-2 3,-4 4,-9 4,-12 7,-15 8,-14 8,-11 8,-9 7,-7 4,-6 5,-10 2,-10 3,-8 2,-11 5,-9 3,-11 4,-12 2,-4"
         stroke="#a5a5a5"
         stroke-width="2"
         stroke-linecap="round"
         stroke-linejoin="round"
         stroke-miterlimit="10"
         stroke-dasharray="0, 4"
         fill="none"
         id="path1253" />
    </g>
    <g
       id="g1259"
       transform="matrix(0.26458333,0,0,0.26458333,-118.65937,122.94856)">
      <text
         font-family="Arial, Arial_MSFontService, sans-serif"
         font-weight="400"
         font-size="12px"
         transform="translate(397.559,231)"
         id="text1257">0.E+00</text>
    </g>
    <g
       id="g1263"
       transform="matrix(0.26458333,0,0,0.26458333,-118.65937,122.94856)">
      <text
         font-family="Arial, Arial_MSFontService, sans-serif"
         font-weight="400"
         font-size="12px"
         transform="translate(400.572,204)"
         id="text1261">1.E-01</text>
    </g>
    <g
       id="g1267"
       transform="matrix(0.26458333,0,0,0.26458333,-118.65937,122.94856)">
      <text
         font-family="Arial, Arial_MSFontService, sans-serif"
         font-weight="400"
         font-size="12px"
         transform="translate(400.572,178)"
         id="text1265">2.E-01</text>
    </g>
    <g
       id="g1271"
       transform="matrix(0.26458333,0,0,0.26458333,-118.65937,122.94856)">
      <text
         font-family="Arial, Arial_MSFontService, sans-serif"
         font-weight="400"
         font-size="12px"
         transform="translate(400.572,151)"
         id="text1269">3.E-01</text>
    </g>
    <g
       id="g1275"
       transform="matrix(0.26458333,0,0,0.26458333,-118.65937,122.94856)">
      <text
         font-family="Arial, Arial_MSFontService, sans-serif"
         font-weight="400"
         font-size="12px"
         transform="translate(400.572,125)"
         id="text1273">4.E-01</text>
    </g>
    <g
       id="g1279"
       transform="matrix(0.26458333,0,0,0.26458333,-118.65937,122.94856)">
      <text
         font-family="Arial, Arial_MSFontService, sans-serif"
         font-weight="400"
         font-size="12px"
         transform="translate(400.572,98)"
         id="text1277">5.E-01</text>
    </g>
    <g
       id="g1283"
       transform="matrix(0.26458333,0,0,0.26458333,-118.65937,122.94856)">
      <text
         font-family="Arial, Arial_MSFontService, sans-serif"
         font-weight="400"
         font-size="12px"
         transform="translate(400.572,72)"
         id="text1281">6.E-01</text>
    </g>
    <g
       id="g1287"
       transform="matrix(0.26458333,0,0,0.26458333,-118.65937,122.94856)">
      <text
         font-family="Arial, Arial_MSFontService, sans-serif"
         font-weight="400"
         font-size="12px"
         transform="translate(400.572,45)"
         id="text1285">7.E-01</text>
    </g>
    <g
       id="g1291"
       transform="matrix(0.26458333,0,0,0.26458333,-118.65937,122.94856)">
      <text
         font-family="Arial, Arial_MSFontService, sans-serif"
         font-weight="400"
         font-size="12px"
         transform="translate(400.572,19)"
         id="text1289">8.E-01</text>
    </g>
    <g
       id="g1295"
       transform="matrix(0.26458333,0,0,0.26458333,-118.65937,122.94856)">
      <text
         font-family="Arial, Arial_MSFontService, sans-serif"
         font-weight="400"
         font-size="12px"
         transform="translate(434.569,245)"
         id="text1293">0.00</text>
    </g>
    <g
       id="g1299"
       transform="matrix(0.26458333,0,0,0.26458333,-118.65937,122.94856)">
      <text
         font-family="Arial, Arial_MSFontService, sans-serif"
         font-weight="400"
         font-size="12px"
         transform="translate(479.917,245)"
         id="text1297">0.50</text>
    </g>
    <g
       id="g1303"
       transform="matrix(0.26458333,0,0,0.26458333,-118.65937,122.94856)">
      <text
         font-family="Arial, Arial_MSFontService, sans-serif"
         font-weight="400"
         font-size="12px"
         transform="translate(525.266,245)"
         id="text1301">1.00</text>
    </g>
    <g
       id="g1307"
       transform="matrix(0.26458333,0,0,0.26458333,-118.65937,122.94856)">
      <text
         font-family="Arial, Arial_MSFontService, sans-serif"
         font-weight="400"
         font-size="12px"
         transform="translate(570.615,245)"
         id="text1305">1.50</text>
    </g>
    <g
       id="g1311"
       transform="matrix(0.26458333,0,0,0.26458333,-118.65937,122.94856)">
      <text
         font-family="Arial, Arial_MSFontService, sans-serif"
         font-weight="400"
         font-size="12px"
         transform="translate(615.964,245)"
         id="text1309">2.00</text>
    </g>
    <g
       id="g1315"
       transform="matrix(0.26458333,0,0,0.26458333,-118.65937,122.94856)">
      <text
         font-family="Arial, Arial_MSFontService, sans-serif"
         font-weight="400"
         font-size="12px"
         transform="translate(661.313,245)"
         id="text1313">2.50</text>
    </g>
    <g
       id="g1319"
       transform="matrix(0.26458333,0,0,0.26458333,-118.65937,122.94856)">
      <text
         font-family="Arial, Arial_MSFontService, sans-serif"
         font-weight="400"
         font-size="12px"
         transform="translate(706.661,245)"
         id="text1317">3.00</text>
    </g>
    <g
       id="g1323"
       transform="matrix(0.26458333,0,0,0.26458333,-118.65937,122.94856)">
      <text
         font-family="Arial, Arial_MSFontService, sans-serif"
         font-weight="400"
         font-size="12px"
         transform="translate(752.01,245)"
         id="text1321">3.50</text>
    </g>
    <g
       id="g1327"
       transform="matrix(0.26458333,0,0,0.26458333,-118.65937,122.94856)">
      <text
         font-family="Arial, Arial_MSFontService, sans-serif"
         font-weight="400"
         font-size="12px"
         transform="translate(797.359,245)"
         id="text1325">4.00</text>
    </g>
    <g
       id="g1331"
       transform="matrix(0.26458333,0,0,0.26458333,-118.65937,122.94856)">
      <text
         font-family="Arial, Arial_MSFontService, sans-serif"
         font-weight="400"
         font-size="12px"
         transform="translate(842.708,245)"
         id="text1329">4.50</text>
    </g>
    <g
       id="g1335"
       transform="matrix(0.26458333,0,0,0.26458333,-118.65937,122.94856)">
      <text
         font-family="Arial, Arial_MSFontService, sans-serif"
         font-weight="400"
         font-size="12px"
         transform="translate(888.056,245)"
         id="text1333">5.00</text>
    </g>
    <g
       id="g1339"
       transform="matrix(0.26458333,0,0,0.26458333,-118.65937,122.94856)">
      <text
         font-family="Arial, Arial_MSFontService, sans-serif"
         font-weight="400"
         font-size="13px"
         transform="rotate(-90,288.6125,-102.6125)"
         id="text1337">Deslocamento vertical</text>
    </g>
    <g
       id="g1343"
       transform="matrix(0.26458333,0,0,0.26458333,-118.65937,122.94856)">
      <text
         font-family="Arial, Arial_MSFontService, sans-serif"
         font-weight="400"
         font-size="13px"
         transform="translate(637.063,264)"
         id="text1341">Tempo (ms)</text>
    </g>
    <g
       id="g1347"
       transform="matrix(0.26458333,0,0,0.26458333,-123.09485,122.94856)"
       clip-path="url(#clipPath1548)">
      <path
         d="m 933,120 h 34"
         stroke="#ed7d31"
         stroke-width="2"
         stroke-linecap="round"
         stroke-linejoin="round"
         stroke-miterlimit="10"
         fill="none"
         fill-rule="evenodd"
         id="path1345" />
    </g>
    <g
       id="g1351"
       transform="matrix(0.26458333,0,0,0.26458333,-123.09485,122.94856)">
      <text
         font-family="Arial, Arial_MSFontService, sans-serif"
         font-weight="400"
         font-size="12px"
         transform="translate(970.576,124)"
         id="text1349">ANSYS</text>
    </g>
    <g
       id="g1355"
       transform="matrix(0.26458333,0,0,0.26458333,-123.09485,122.94856)"
       clip-path="url(#clipPath1542)">
      <path
         d="m 933,142 h 34"
         stroke="#4472c4"
         stroke-width="2"
         stroke-linecap="round"
         stroke-linejoin="round"
         stroke-miterlimit="10"
         stroke-dasharray="4, 4"
         fill="none"
         fill-rule="evenodd"
         id="path1353" />
    </g>
    <g
       id="g1359"
       transform="matrix(0.26458333,0,0,0.26458333,-123.09485,122.94856)">
      <text
         font-family="Arial, Arial_MSFontService, sans-serif"
         font-weight="400"
         font-size="12px"
         transform="translate(970.576,146)"
         id="text1357">u3</text>
    </g>
    <g
       id="g1363"
       transform="matrix(0.26458333,0,0,0.26458333,-123.09485,122.94856)"
       clip-path="url(#clipPath1536)">
      <path
         d="m 933,163 h 34"
         stroke="#a5a5a5"
         stroke-width="2"
         stroke-linecap="round"
         stroke-linejoin="round"
         stroke-miterlimit="10"
         stroke-dasharray="0, 4"
         fill="none"
         fill-rule="evenodd"
         id="path1361" />
    </g>
    <g
       id="g1367"
       transform="matrix(0.26458333,0,0,0.26458333,-123.09485,122.94856)">
      <text
         font-family="Arial, Arial_MSFontService, sans-serif"
         font-weight="400"
         font-size="12px"
         transform="translate(970.576,167)"
         id="text1365"
         style="font-style:normal;font-variant:normal;font-weight:normal;font-stretch:normal;font-size:12px;font-family:Arial, Arial_MSFontService, sans-serif;-inkscape-font-specification:'Arial, Arial_MSFontService, sans-serif, Normal';font-variant-ligatures:normal;font-variant-caps:normal;font-variant-numeric:normal;font-variant-east-asian:normal"><tspan
           sodipodi:role="line"
           id="tspan1620"
           x="0"
           y="0">Mondkar e</tspan><tspan
           sodipodi:role="line"
           id="tspan1622"
           x="0"
           y="15">Powell (1977)</tspan></text>
    </g>
  </g>
</svg>
