<?xml version="1.0" encoding="UTF-8" standalone="no"?>
<!-- Created with Inkscape (http://www.inkscape.org/) -->

<svg
   version="1.1"
   id="svg132"
   width="315.96835"
   height="160.51906"
   viewBox="0 0 315.96835 160.51908"
   sodipodi:docname="Drawing1-Layout1.svg"
   inkscape:version="1.2.1 (9c6d41e410, 2022-07-14)"
   xmlns:inkscape="http://www.inkscape.org/namespaces/inkscape"
   xmlns:sodipodi="http://sodipodi.sourceforge.net/DTD/sodipodi-0.dtd"
   xmlns="http://www.w3.org/2000/svg"
   xmlns:svg="http://www.w3.org/2000/svg">
  <defs
     id="defs136">
    <marker
       style="overflow:visible"
       id="TriangleStart"
       refX="3"
       refY="0"
       orient="auto-start-reverse"
       inkscape:stockid="TriangleStart"
       markerWidth="10"
       markerHeight="5"
       viewBox="0 0 5.3244081 6.1553851"
       inkscape:isstock="true"
       inkscape:collect="always"
       preserveAspectRatio="none">
      <path
         transform="scale(0.5)"
         style="fill:context-stroke;fill-rule:evenodd;stroke:context-stroke;stroke-width:1pt"
         d="M 5.77,0 -2.88,5 V -5 Z"
         id="path135" />
    </marker>
    <clipPath
       clipPathUnits="userSpaceOnUse"
       id="clipPath272">
      <path
         d="M 0,0 H 19866 V 14031 H 0 V 0"
         id="path270" />
    </clipPath>
    <clipPath
       clipPathUnits="userSpaceOnUse"
       id="clipPath532">
      <g
         id="g536">
        <path
           d="M 982,719 H 19123 V 13556 H 982 V 719"
           id="path534" />
      </g>
    </clipPath>
    <clipPath
       clipPathUnits="userSpaceOnUse"
       id="clipPath538">
      <g
         id="g542">
        <path
           d="M 982,719 H 19123 V 13556 H 982 V 719"
           id="path540" />
      </g>
    </clipPath>
    <clipPath
       clipPathUnits="userSpaceOnUse"
       id="clipPath544">
      <g
         id="g548">
        <path
           d="M 982,719 H 19123 V 13556 H 982 V 719"
           id="path546" />
      </g>
    </clipPath>
    <clipPath
       clipPathUnits="userSpaceOnUse"
       id="clipPath550">
      <g
         id="g554">
        <path
           d="M 982,719 H 19123 V 13556 H 982 V 719"
           id="path552" />
      </g>
    </clipPath>
    <clipPath
       clipPathUnits="userSpaceOnUse"
       id="clipPath556">
      <g
         id="g560">
        <path
           d="M 982,719 H 19123 V 13556 H 982 V 719"
           id="path558" />
      </g>
    </clipPath>
    <clipPath
       clipPathUnits="userSpaceOnUse"
       id="clipPath562">
      <g
         id="g566">
        <path
           d="M 982,719 H 19123 V 13556 H 982 V 719"
           id="path564" />
      </g>
    </clipPath>
    <clipPath
       clipPathUnits="userSpaceOnUse"
       id="clipPath568">
      <g
         id="g572">
        <path
           d="M 982,719 H 19123 V 13556 H 982 V 719"
           id="path570" />
      </g>
    </clipPath>
    <clipPath
       clipPathUnits="userSpaceOnUse"
       id="clipPath574">
      <g
         id="g578">
        <path
           d="M 982,719 H 19123 V 13556 H 982 V 719"
           id="path576" />
      </g>
    </clipPath>
    <clipPath
       clipPathUnits="userSpaceOnUse"
       id="clipPath580">
      <g
         id="g584">
        <path
           d="M 982,719 H 19123 V 13556 H 982 V 719"
           id="path582" />
      </g>
    </clipPath>
    <clipPath
       clipPathUnits="userSpaceOnUse"
       id="clipPath586">
      <g
         id="g590">
        <path
           d="M 982,719 H 19123 V 13556 H 982 V 719"
           id="path588" />
      </g>
    </clipPath>
    <clipPath
       clipPathUnits="userSpaceOnUse"
       id="clipPath592">
      <g
         id="g596">
        <path
           d="M 982,719 H 19123 V 13556 H 982 V 719"
           id="path594" />
      </g>
    </clipPath>
    <clipPath
       clipPathUnits="userSpaceOnUse"
       id="clipPath598">
      <g
         id="g602">
        <path
           d="M 982,719 H 19123 V 13556 H 982 V 719"
           id="path600" />
      </g>
    </clipPath>
    <clipPath
       clipPathUnits="userSpaceOnUse"
       id="clipPath604">
      <g
         id="g608">
        <path
           d="M 982,719 H 19123 V 13556 H 982 V 719"
           id="path606" />
      </g>
    </clipPath>
    <clipPath
       clipPathUnits="userSpaceOnUse"
       id="clipPath610">
      <g
         id="g614">
        <path
           d="M 982,719 H 19123 V 13556 H 982 V 719"
           id="path612" />
      </g>
    </clipPath>
    <clipPath
       clipPathUnits="userSpaceOnUse"
       id="clipPath616">
      <g
         id="g620">
        <path
           d="M 982,719 H 19123 V 13556 H 982 V 719"
           id="path618" />
      </g>
    </clipPath>
    <clipPath
       clipPathUnits="userSpaceOnUse"
       id="clipPath622">
      <g
         id="g626">
        <path
           d="M 982,719 H 19123 V 13556 H 982 V 719"
           id="path624" />
      </g>
    </clipPath>
    <clipPath
       clipPathUnits="userSpaceOnUse"
       id="clipPath628">
      <g
         id="g632">
        <path
           d="M 982,719 H 19123 V 13556 H 982 V 719"
           id="path630" />
      </g>
    </clipPath>
    <clipPath
       clipPathUnits="userSpaceOnUse"
       id="clipPath634">
      <g
         id="g638">
        <path
           d="M 982,719 H 19123 V 13556 H 982 V 719"
           id="path636" />
      </g>
    </clipPath>
    <clipPath
       clipPathUnits="userSpaceOnUse"
       id="clipPath640">
      <g
         id="g644">
        <path
           d="M 982,719 H 19123 V 13556 H 982 V 719"
           id="path642" />
      </g>
    </clipPath>
    <clipPath
       clipPathUnits="userSpaceOnUse"
       id="clipPath646">
      <g
         id="g650">
        <path
           d="M 982,719 H 19123 V 13556 H 982 V 719"
           id="path648" />
      </g>
    </clipPath>
    <clipPath
       clipPathUnits="userSpaceOnUse"
       id="clipPath652">
      <g
         id="g656">
        <path
           d="M 982,719 H 19123 V 13556 H 982 V 719"
           id="path654" />
      </g>
    </clipPath>
    <clipPath
       clipPathUnits="userSpaceOnUse"
       id="clipPath658">
      <g
         id="g662">
        <path
           d="M 982,719 H 19123 V 13556 H 982 V 719"
           id="path660" />
      </g>
    </clipPath>
    <clipPath
       clipPathUnits="userSpaceOnUse"
       id="clipPath664">
      <g
         id="g668">
        <path
           d="M 982,719 H 19123 V 13556 H 982 V 719"
           id="path666" />
      </g>
    </clipPath>
    <clipPath
       clipPathUnits="userSpaceOnUse"
       id="clipPath670">
      <g
         id="g674">
        <path
           d="M 982,719 H 19123 V 13556 H 982 V 719"
           id="path672" />
      </g>
    </clipPath>
    <clipPath
       clipPathUnits="userSpaceOnUse"
       id="clipPath676">
      <g
         id="g680">
        <path
           d="M 982,719 H 19123 V 13556 H 982 V 719"
           id="path678" />
      </g>
    </clipPath>
    <clipPath
       clipPathUnits="userSpaceOnUse"
       id="clipPath682">
      <g
         id="g686">
        <path
           d="M 982,719 H 19123 V 13556 H 982 V 719"
           id="path684" />
      </g>
    </clipPath>
    <clipPath
       clipPathUnits="userSpaceOnUse"
       id="clipPath688">
      <g
         id="g692">
        <path
           d="M 982,719 H 19123 V 13556 H 982 V 719"
           id="path690" />
      </g>
    </clipPath>
    <clipPath
       clipPathUnits="userSpaceOnUse"
       id="clipPath694">
      <g
         id="g698">
        <path
           d="M 982,719 H 19123 V 13556 H 982 V 719"
           id="path696" />
      </g>
    </clipPath>
    <clipPath
       clipPathUnits="userSpaceOnUse"
       id="clipPath700">
      <g
         id="g704">
        <path
           d="M 982,719 H 19123 V 13556 H 982 V 719"
           id="path702" />
      </g>
    </clipPath>
    <clipPath
       clipPathUnits="userSpaceOnUse"
       id="clipPath719">
      <g
         id="g723">
        <path
           d="M 982,719 H 19123 V 13556 H 982 V 719"
           id="path721" />
      </g>
    </clipPath>
    <clipPath
       clipPathUnits="userSpaceOnUse"
       id="clipPath725">
      <g
         id="g729">
        <path
           d="M 982,719 H 19123 V 13556 H 982 V 719"
           id="path727" />
      </g>
    </clipPath>
    <clipPath
       clipPathUnits="userSpaceOnUse"
       id="clipPath731">
      <g
         id="g735">
        <path
           d="M 982,719 H 19123 V 13556 H 982 V 719"
           id="path733" />
      </g>
    </clipPath>
    <clipPath
       clipPathUnits="userSpaceOnUse"
       id="clipPath737">
      <g
         id="g741">
        <path
           d="M 982,719 H 19123 V 13556 H 982 V 719"
           id="path739" />
      </g>
    </clipPath>
    <clipPath
       clipPathUnits="userSpaceOnUse"
       id="clipPath743">
      <g
         id="g747">
        <path
           d="M 982,719 H 19123 V 13556 H 982 V 719"
           id="path745" />
      </g>
    </clipPath>
    <clipPath
       clipPathUnits="userSpaceOnUse"
       id="clipPath749">
      <g
         id="g753">
        <path
           d="M 982,719 H 19123 V 13556 H 982 V 719"
           id="path751" />
      </g>
    </clipPath>
    <clipPath
       clipPathUnits="userSpaceOnUse"
       id="clipPath755">
      <g
         id="g759">
        <path
           d="M 982,719 H 19123 V 13556 H 982 V 719"
           id="path757" />
      </g>
    </clipPath>
    <clipPath
       clipPathUnits="userSpaceOnUse"
       id="clipPath761">
      <g
         id="g765">
        <path
           d="M 982,719 H 19123 V 13556 H 982 V 719"
           id="path763" />
      </g>
    </clipPath>
    <clipPath
       clipPathUnits="userSpaceOnUse"
       id="clipPath767">
      <g
         id="g771">
        <path
           d="M 982,719 H 19123 V 13556 H 982 V 719"
           id="path769" />
      </g>
    </clipPath>
    <clipPath
       id="clipPath651">
      <path
         clip-rule="nonzero"
         d="m 209,5 h 4 v 12.433594 h -4 z m 0,0"
         id="path9292" />
    </clipPath>
    <clipPath
       id="clipPath3763">
      <path
         clip-rule="nonzero"
         d="m 245,5 h 10 v 12.433594 h -10 z m 0,0"
         id="path7824" />
    </clipPath>
    <clipPath
       id="clipPath9495">
      <path
         clip-rule="nonzero"
         d="m 107,3 h 3 v 8.457031 h -3 z m 0,0"
         id="path8020" />
    </clipPath>
    <clipPath
       id="clipPath3735">
      <path
         clip-rule="nonzero"
         d="m 123,8 h 2 v 3.457031 h -2 z m 0,0"
         id="path4749" />
    </clipPath>
    <clipPath
       id="clipPath7328">
      <path
         clip-rule="nonzero"
         d="m 131,8 h 2 v 3.457031 h -2 z m 0,0"
         id="path9110" />
    </clipPath>
    <clipPath
       id="clipPath6192">
      <path
         clip-rule="nonzero"
         d="m 135,3 h 7 v 8.457031 h -7 z m 0,0"
         id="path8511" />
    </clipPath>
    <clipPath
       id="clipPath8690">
      <path
         clip-rule="nonzero"
         d="m 112,6 h 3 v 4.570313 h -3 z m 0,0"
         id="path5858" />
    </clipPath>
    <clipPath
       id="clipPath5162">
      <path
         clip-rule="nonzero"
         d="m 112,6 h 3 v 4.570313 h -3 z m 0,0"
         id="path6635" />
    </clipPath>
    <clipPath
       id="clipPath2509">
      <path
         clip-rule="nonzero"
         d="m 125,8 h 2 v 3.015625 h -2 z m 0,0"
         id="path2793" />
    </clipPath>
    <clipPath
       id="clipPath7080">
      <path
         clip-rule="nonzero"
         d="m 118,15 h 4 v 14.6875 h -4 z m 0,0"
         id="path4386" />
    </clipPath>
    <clipPath
       id="clipPath6924">
      <path
         clip-rule="nonzero"
         d="m 134,15 h 3 v 14.6875 h -3 z m 0,0"
         id="path1146" />
    </clipPath>
  </defs>
  <sodipodi:namedview
     id="namedview134"
     pagecolor="#ffffff"
     bordercolor="#000000"
     borderopacity="0.25"
     inkscape:showpageshadow="2"
     inkscape:pageopacity="0.0"
     inkscape:pagecheckerboard="0"
     inkscape:deskcolor="#d1d1d1"
     showgrid="false"
     inkscape:zoom="2.9002377"
     inkscape:cx="175.84766"
     inkscape:cy="115.50777"
     inkscape:window-width="1920"
     inkscape:window-height="1017"
     inkscape:window-x="1912"
     inkscape:window-y="-8"
     inkscape:window-maximized="1"
     inkscape:current-layer="g140">
    <inkscape:page
       x="0"
       y="0"
       id="page138"
       width="315.96835"
       height="160.51907" />
    <inkscape:grid
       type="xygrid"
       id="grid3282"
       originx="74.989214"
       originy="5.5155912" />
  </sodipodi:namedview>
  <g
     id="g140"
     inkscape:groupmode="layer"
     inkscape:label="Page 1"
     transform="matrix(0.16,0,0,-0.16,-768.87611,1612.8991)">
    <path
       style="fill:#000000;fill-opacity:0.1;stroke:#000000;stroke-width:4.6875;stroke-dasharray:none"
       d="m 5305.4115,10014.875 h 1312.5 v -749.9999 h -1312.5 z"
       id="path4986" />
    <path
       style="fill:#000000;fill-opacity:1;stroke:none;stroke-width:6.25;stroke-dasharray:none"
       d="m 5711.6615,9608.6251 v 62.5 h -62.5 v -62.5 z"
       id="path4996" />
    <path
       style="fill:none;fill-opacity:0.2;stroke:#000000;stroke-width:6.25;stroke-dasharray:none"
       d="m 5711.6615,9639.8751 h 250"
       id="path4998" />
    <path
       style="fill:none;fill-opacity:0.2;stroke:#000000;stroke-width:3.125;stroke-dasharray:none"
       d="m 5274.1615,9264.8751 h -93.75"
       id="path5000" />
    <path
       style="fill:none;fill-opacity:0.2;stroke:#000000;stroke-width:3.125;stroke-dasharray:none"
       d="m 5274.1615,10014.875 h -93.75"
       id="path5002" />
    <path
       style="fill:none;fill-opacity:0.2;stroke:#000000;stroke-width:3.125;stroke-dasharray:none;marker-start:url(#TriangleStart);marker-end:url(#TriangleStart)"
       d="M 5211.6615,10014.875 V 9264.8751"
       id="path5004" />
    <path
       style="fill:none;fill-opacity:0.2;stroke:#000000;stroke-width:3.125;stroke-dasharray:none"
       d="m 5305.4115,9233.6251 v -93.75"
       id="path5006" />
    <path
       style="fill:none;fill-opacity:0.2;stroke:#000000;stroke-width:3.125;stroke-dasharray:none"
       d="m 6617.9115,9233.6251 v -93.75"
       id="path5008" />
    <path
       style="fill:none;fill-opacity:0.2;stroke:#000000;stroke-width:3.125;stroke-dasharray:none;marker-start:url(#TriangleStart);marker-end:url(#TriangleStart)"
       d="m 5305.4115,9171.1251 h 1312.5"
       id="path5010" />
    <path
       style="fill:none;fill-opacity:0.2;stroke:#000000;stroke-width:3.125;stroke-dasharray:none"
       d="m 5711.6615,9702.3751 v 93.75"
       id="path5012" />
    <path
       style="fill:none;fill-opacity:0.2;stroke:#000000;stroke-width:3.125;stroke-dasharray:none"
       d="m 5961.6615,9671.1251 v 125"
       id="path5016" />
    <path
       style="fill:none;fill-opacity:0.2;stroke:#000000;stroke-width:3.125;stroke-dasharray:none"
       d="m 5617.9115,9608.6251 h -93.75"
       id="path5018" />
    <path
       style="fill:none;fill-opacity:0.2;stroke:#000000;stroke-width:3.125;stroke-dasharray:none"
       d="m 5617.9115,9671.1251 h -93.75"
       id="path5020" />
    <path
       style="fill:none;fill-opacity:0.2;stroke:#000000;stroke-width:3.125;stroke-dasharray:none;marker-start:url(#TriangleStart);marker-end:url(#TriangleStart)"
       d="m 5555.4115,9608.6251 v 62.5"
       id="path5022" />
    <path
       style="fill:none;fill-opacity:0.2;stroke:#000000;stroke-width:3.125;stroke-dasharray:none"
       d="m 5649.1615,9577.3751 v -93.75"
       id="path5024" />
    <path
       style="fill:none;fill-opacity:0.2;stroke:#000000;stroke-width:3.125;stroke-dasharray:none"
       d="m 5711.6615,9577.3751 v -93.75"
       id="path5026" />
    <path
       style="fill:none;fill-opacity:0.2;stroke:#000000;stroke-width:3.125;stroke-dasharray:none;marker-start:url(#TriangleStart);marker-end:url(#TriangleStart)"
       d="m 5649.1615,9514.8751 h 62.5"
       id="path5028" />
    <path
       style="fill:none;fill-opacity:0.2;stroke:#000000;stroke-width:3.125;stroke-dasharray:none;marker-start:url(#TriangleStart);marker-end:url(#TriangleStart)"
       d="m 5305.4115,9764.8751 h 406.25"
       id="path6061" />
    <path
       style="fill:none;fill-opacity:0.2;stroke:#000000;stroke-width:3.125;stroke-dasharray:none;marker-start:url(#TriangleStart);marker-end:url(#TriangleStart)"
       d="m 5711.6615,9764.8751 h 250"
       id="path6063" />
    <text
       xml:space="preserve"
       style="font-style:normal;font-variant:normal;font-weight:normal;font-stretch:normal;font-size:66.6667px;font-family:Arial;-inkscape-font-specification:'Arial, Normal';font-variant-ligatures:normal;font-variant-caps:normal;font-variant-numeric:normal;font-variant-east-asian:normal;fill:#000000;fill-opacity:1;stroke:none;stroke-width:4.6875;stroke-dasharray:none"
       x="5109.7734"
       y="-9608.625"
       id="text6203"
       transform="scale(1,-1)"><tspan
         sodipodi:role="line"
         id="tspan6201"
         style="font-style:normal;font-variant:normal;font-weight:normal;font-stretch:normal;font-size:66.6667px;font-family:Arial;-inkscape-font-specification:'Arial, Normal';font-variant-ligatures:normal;font-variant-caps:normal;font-variant-numeric:normal;font-variant-east-asian:normal;fill:#000000;fill-opacity:1;stroke:none;stroke-width:4.6875"
         x="5109.7734"
         y="-9608.625">12</tspan></text>
    <text
       xml:space="preserve"
       style="font-style:normal;font-variant:normal;font-weight:normal;font-stretch:normal;font-size:66.6669px;font-family:Arial;-inkscape-font-specification:'Arial, Normal';font-variant-ligatures:normal;font-variant-caps:normal;font-variant-numeric:normal;font-variant-east-asian:normal;fill:#000000;fill-opacity:1;stroke:none;stroke-width:4.6875;stroke-dasharray:none"
       x="5480.5742"
       y="-9614.875"
       id="text6363"
       transform="scale(1,-1)"><tspan
         sodipodi:role="line"
         id="tspan6361"
         style="stroke-width:4.6875"
         x="5480.5742"
         y="-9614.875">1</tspan></text>
    <text
       xml:space="preserve"
       style="font-style:normal;font-variant:normal;font-weight:normal;font-stretch:normal;font-size:66.6669px;font-family:Arial;-inkscape-font-specification:'Arial, Normal';font-variant-ligatures:normal;font-variant-caps:normal;font-variant-numeric:normal;font-variant-east-asian:normal;fill:#000000;fill-opacity:1;stroke:none;stroke-width:4.6875;stroke-dasharray:none"
       x="5661.8242"
       y="-9423.208"
       id="text6417"
       transform="scale(1,-1)"><tspan
         sodipodi:role="line"
         id="tspan6415"
         style="stroke-width:4.6875"
         x="5661.8242"
         y="-9423.208">1</tspan></text>
    <text
       xml:space="preserve"
       style="font-style:normal;font-variant:normal;font-weight:normal;font-stretch:normal;font-size:66.6669px;font-family:Arial;-inkscape-font-specification:'Arial, Normal';font-variant-ligatures:normal;font-variant-caps:normal;font-variant-numeric:normal;font-variant-east-asian:normal;fill:#000000;fill-opacity:1;stroke:none;stroke-width:4.6875;stroke-dasharray:none"
       x="5834.0571"
       y="-9796.125"
       id="text6421"
       transform="scale(1,-1)"><tspan
         sodipodi:role="line"
         id="tspan6419"
         style="stroke-width:4.6875"
         x="5834.0571"
         y="-9796.125">4</tspan></text>
    <text
       xml:space="preserve"
       style="font-style:normal;font-variant:normal;font-weight:normal;font-stretch:normal;font-size:66.6669px;font-family:Arial;-inkscape-font-specification:'Arial, Normal';font-variant-ligatures:normal;font-variant-caps:normal;font-variant-numeric:normal;font-variant-east-asian:normal;fill:#000000;fill-opacity:1;stroke:none;stroke-width:4.6875;stroke-dasharray:none"
       x="5467.9116"
       y="-9796.125"
       id="text6425"
       transform="scale(1,-1)"><tspan
         sodipodi:role="line"
         id="tspan6423"
         style="stroke-width:4.6875"
         x="5467.9116"
         y="-9796.125">6,5</tspan></text>
    <text
       xml:space="preserve"
       style="font-style:normal;font-variant:normal;font-weight:normal;font-stretch:normal;font-size:66.6669px;font-family:Arial;-inkscape-font-specification:'Arial, Normal';font-variant-ligatures:normal;font-variant-caps:normal;font-variant-numeric:normal;font-variant-east-asian:normal;fill:#000000;fill-opacity:1;stroke:none;stroke-width:4.6875;stroke-dasharray:none"
       x="5962.2471"
       y="-9185.708"
       id="text6429"
       transform="scale(1,-1)"><tspan
         sodipodi:role="line"
         id="tspan6427"
         style="stroke-width:4.6875"
         x="5962.2471"
         y="-9185.708">21</tspan></text>
    <path
       style="fill:none;fill-opacity:1;stroke:#000000;stroke-width:3.125;stroke-dasharray:none;stroke-opacity:1;marker-start:url(#TriangleStart)"
       d="m 5711.6615,9608.6248 93.75,-93.75 h 93.75"
       id="path6604" />
    <text
       xml:space="preserve"
       style="font-style:normal;font-variant:normal;font-weight:normal;font-stretch:normal;font-size:66.6669px;font-family:Arial;-inkscape-font-specification:'Arial, Normal';font-variant-ligatures:normal;font-variant-caps:normal;font-variant-numeric:normal;font-variant-east-asian:normal;fill:#000000;fill-opacity:1;stroke:none;stroke-width:3.125;stroke-dasharray:none;stroke-opacity:1"
       x="5899.1616"
       y="-9514.875"
       id="text6626"
       transform="scale(1,-1)"><tspan
         sodipodi:role="line"
         id="tspan6624"
         style="fill:#000000;fill-opacity:1;stroke:none;stroke-width:3.125"
         x="5899.1616"
         y="-9514.875">Prisma</tspan><tspan
         sodipodi:role="line"
         style="fill:#000000;fill-opacity:1;stroke:none;stroke-width:3.125"
         x="5899.1616"
         y="-9431.541"
         id="tspan6628">rígido</tspan></text>
    <path
       style="fill:none;fill-opacity:1;stroke:#000000;stroke-width:3.125;stroke-dasharray:none;stroke-opacity:1;marker-start:url(#TriangleStart)"
       d="m 5899.1615,9639.8748 93.75,93.75 h 93.75"
       id="path6630" />
    <text
       xml:space="preserve"
       style="font-style:normal;font-variant:normal;font-weight:normal;font-stretch:normal;font-size:66.6669px;font-family:Arial;-inkscape-font-specification:'Arial, Normal';font-variant-ligatures:normal;font-variant-caps:normal;font-variant-numeric:normal;font-variant-east-asian:normal;fill:#000000;fill-opacity:1;stroke:none;stroke-width:3.125;stroke-dasharray:none;stroke-opacity:1"
       x="6086.6616"
       y="-9733.625"
       id="text6652"
       transform="scale(1,-1)"><tspan
         sodipodi:role="line"
         id="tspan6650"
         style="fill:#000000;fill-opacity:1;stroke:none;stroke-width:3.125"
         x="6086.6616"
         y="-9733.625">Painel</tspan><tspan
         sodipodi:role="line"
         style="fill:#000000;fill-opacity:1;stroke:none;stroke-width:3.125"
         x="6086.6616"
         y="-9650.291"
         id="tspan6654">flexível</tspan></text>
    <text
       xml:space="preserve"
       style="font-style:normal;font-variant:normal;font-weight:normal;font-stretch:normal;font-size:66.6669px;font-family:Arial;-inkscape-font-specification:'Arial, Normal';font-variant-ligatures:normal;font-variant-caps:normal;font-variant-numeric:normal;font-variant-east-asian:normal;fill:#000000;fill-opacity:1;stroke:none;stroke-width:3.125;stroke-dasharray:none;stroke-opacity:1"
       x="6151.6987"
       y="-9078.1562"
       id="text6658"
       transform="scale(1,-1)"><tspan
         sodipodi:role="line"
         id="tspan6656"
         style="stroke-width:3.125"
         x="6151.6987"
         y="-9078.1562">medidas em cm</tspan></text>
    <g
       inkscape:label=""
       transform="matrix(6.25,0,0,-6.25,5896.8777,10080.619)"
       id="g11210">
      <g
         fill="#000000"
         fill-opacity="1"
         id="g26"
         transform="matrix(1.33333,0,0,1.33333,-142.666,-5.55617)">
        <g
           id="use24"
           transform="translate(106.765,9.4639997)">
          <path
             d="m 2.984375,-0.875 c -0.03125,0.15625 -0.40625,0.734375 -0.9375,0.734375 -0.390625,0 -0.53125,-0.296875 -0.53125,-0.640625 0,-0.484375 0.28125,-1.1875 0.453125,-1.640625 C 2.046875,-2.625 2.078125,-2.6875 2.078125,-2.84375 c 0,-0.4375 -0.359375,-0.671875 -0.71875,-0.671875 -0.796875,0 -1.125,1.125 -1.125,1.21875 0,0.078125 0.0625,0.109375 0.125,0.109375 0.109375,0 0.109375,-0.046875 0.140625,-0.125 0.203125,-0.71875 0.546875,-0.984375 0.828125,-0.984375 0.125,0 0.1875,0.078125 0.1875,0.265625 0,0.1875 -0.0625,0.375 -0.171875,0.65625 -0.328125,0.84375 -0.40625,1.1875 -0.40625,1.46875 0,0.78125 0.59375,0.984375 1.0625,0.984375 0.59375,0 0.96875,-0.46875 1,-0.515625 0.125,0.375 0.484375,0.515625 0.765625,0.515625 0.375,0 0.5625,-0.3125 0.609375,-0.4375 0.171875,-0.28125 0.28125,-0.75 0.28125,-0.78125 C 4.65625,-1.1875 4.625,-1.25 4.53125,-1.25 4.4375,-1.25 4.421875,-1.203125 4.359375,-1 c -0.09375,0.40625 -0.234375,0.859375 -0.5625,0.859375 -0.1875,0 -0.265625,-0.15625 -0.265625,-0.375 0,-0.140625 0.078125,-0.40625 0.125,-0.609375 0.046875,-0.203125 0.171875,-0.671875 0.203125,-0.8125 l 0.15625,-0.609375 C 4.0625,-2.765625 4.15625,-3.140625 4.15625,-3.1875 c 0,-0.203125 -0.15625,-0.25 -0.25,-0.25 -0.109375,0 -0.28125,0.078125 -0.34375,0.265625 z m 0,0"
             id="path46" />
        </g>
      </g>
      <g
         clip-path="url(#clipPath8690)"
         id="g32"
         transform="matrix(1.33333,0,0,1.33333,-142.666,-5.55617)">
        <g
           fill="#000000"
           fill-opacity="1"
           id="g30">
          <g
             id="use28"
             transform="translate(111.668,10.571)">
            <path
               d="M 3.21875,-1.125 H 3 C 2.984375,-1.03125 2.921875,-0.640625 2.84375,-0.578125 2.796875,-0.53125 2.3125,-0.53125 2.21875,-0.53125 H 1.109375 L 1.875,-1.15625 C 2.078125,-1.328125 2.609375,-1.703125 2.796875,-1.890625 2.96875,-2.0625 3.21875,-2.375 3.21875,-2.796875 c 0,-0.75 -0.671875,-1.1875 -1.484375,-1.1875 -0.765625,0 -1.296875,0.515625 -1.296875,1.078125 0,0.296875 0.25,0.34375 0.3125,0.34375 0.15625,0 0.328125,-0.109375 0.328125,-0.328125 C 1.078125,-3.015625 1,-3.21875 0.734375,-3.21875 0.875,-3.515625 1.234375,-3.75 1.65625,-3.75 c 0.625,0 0.953125,0.46875 0.953125,0.953125 0,0.421875 -0.28125,0.859375 -0.6875,1.25 L 0.5,-0.25 C 0.4375,-0.1875 0.4375,-0.1875 0.4375,0 h 2.59375 z m 0,0"
               id="path50" />
          </g>
        </g>
      </g>
      <g
         fill="#000000"
         fill-opacity="1"
         id="g36"
         transform="matrix(1.33333,0,0,1.33333,-142.666,-5.55617)">
        <g
           id="use34"
           transform="translate(118.172,9.4639997)">
          <path
             d="m 5.828125,-2.65625 c 0.109375,0 0.28125,0 0.28125,-0.1875 0,-0.171875 -0.203125,-0.171875 -0.3125,-0.171875 H 0.78125 c -0.125,0 -0.3125,0 -0.3125,0.171875 0,0.1875 0.15625,0.1875 0.28125,0.1875 z m -0.03125,1.6875 c 0.109375,0 0.3125,0 0.3125,-0.171875 0,-0.1875 -0.171875,-0.1875 -0.28125,-0.1875 H 0.75 c -0.125,0 -0.28125,0 -0.28125,0.1875 0,0.171875 0.1875,0.171875 0.3125,0.171875 z m 0,0"
             id="path54" />
        </g>
      </g>
      <g
         fill="#000000"
         fill-opacity="1"
         id="g40"
         transform="matrix(1.33333,0,0,1.33333,-142.666,-5.55617)">
        <g
           id="use38"
           transform="translate(127.10967,9.4639997)">
          <path
             d="m 3.890625,-2.546875 c 0,-0.84375 -0.078125,-1.359375 -0.34375,-1.875 -0.34375,-0.703125 -1,-0.875 -1.4375,-0.875 -1,0 -1.375,0.75 -1.484375,0.96875 -0.28125,0.578125 -0.296875,1.375 -0.296875,1.78125 0,0.53125 0.015625,1.328125 0.40625,1.96875 0.359375,0.59375 0.953125,0.75 1.375,0.75 0.390625,0 1.0625,-0.125 1.46875,-0.90625 0.296875,-0.578125 0.3125,-1.296875 0.3125,-1.8125 z M 2.109375,-0.0625 C 1.84375,-0.0625 1.296875,-0.1875 1.125,-1.015625 1.03125,-1.46875 1.03125,-2.21875 1.03125,-2.640625 1.03125,-3.1875 1.03125,-3.75 1.125,-4.1875 1.296875,-5 1.90625,-5.078125 2.109375,-5.078125 c 0.265625,0 0.828125,0.140625 0.984375,0.859375 0.09375,0.4375 0.09375,1.046875 0.09375,1.578125 0,0.46875 0,1.1875 -0.09375,1.640625 -0.171875,0.828125 -0.71875,0.9375 -0.984375,0.9375 z m 0,0"
             id="path58" />
        </g>
      </g>
    </g>
    <g
       inkscape:label=""
       transform="matrix(6.25,0,0,-6.25,5864.2598,9343.3577)"
       id="g11724">
      <g
         fill="#000000"
         fill-opacity="1"
         id="g11702"
         transform="matrix(1.33333,0,0,1.33333,-142.666,-5.55617)">
        <g
           id="g11700"
           transform="translate(106.765,9.4639997)">
          <path
             d="m 2.984375,-0.875 c -0.03125,0.15625 -0.40625,0.734375 -0.9375,0.734375 -0.390625,0 -0.53125,-0.296875 -0.53125,-0.640625 0,-0.484375 0.28125,-1.1875 0.453125,-1.640625 C 2.046875,-2.625 2.078125,-2.6875 2.078125,-2.84375 c 0,-0.4375 -0.359375,-0.671875 -0.71875,-0.671875 -0.796875,0 -1.125,1.125 -1.125,1.21875 0,0.078125 0.0625,0.109375 0.125,0.109375 0.109375,0 0.109375,-0.046875 0.140625,-0.125 0.203125,-0.71875 0.546875,-0.984375 0.828125,-0.984375 0.125,0 0.1875,0.078125 0.1875,0.265625 0,0.1875 -0.0625,0.375 -0.171875,0.65625 -0.328125,0.84375 -0.40625,1.1875 -0.40625,1.46875 0,0.78125 0.59375,0.984375 1.0625,0.984375 0.59375,0 0.96875,-0.46875 1,-0.515625 0.125,0.375 0.484375,0.515625 0.765625,0.515625 0.375,0 0.5625,-0.3125 0.609375,-0.4375 0.171875,-0.28125 0.28125,-0.75 0.28125,-0.78125 C 4.65625,-1.1875 4.625,-1.25 4.53125,-1.25 4.4375,-1.25 4.421875,-1.203125 4.359375,-1 c -0.09375,0.40625 -0.234375,0.859375 -0.5625,0.859375 -0.1875,0 -0.265625,-0.15625 -0.265625,-0.375 0,-0.140625 0.078125,-0.40625 0.125,-0.609375 0.046875,-0.203125 0.171875,-0.671875 0.203125,-0.8125 l 0.15625,-0.609375 C 4.0625,-2.765625 4.15625,-3.140625 4.15625,-3.1875 c 0,-0.203125 -0.15625,-0.25 -0.25,-0.25 -0.109375,0 -0.28125,0.078125 -0.34375,0.265625 z m 0,0"
             id="path11698" />
        </g>
      </g>
      <g
         clip-path="url(#clipPath5162)"
         id="g11710"
         transform="matrix(1.33333,0,0,1.33333,-142.666,-5.55617)">
        <g
           fill="#000000"
           fill-opacity="1"
           id="g11708">
          <g
             id="g11706"
             transform="translate(111.668,10.571)">
            <path
               d="M 3.21875,-1.125 H 3 C 2.984375,-1.03125 2.921875,-0.640625 2.84375,-0.578125 2.796875,-0.53125 2.3125,-0.53125 2.21875,-0.53125 H 1.109375 L 1.875,-1.15625 C 2.078125,-1.328125 2.609375,-1.703125 2.796875,-1.890625 2.96875,-2.0625 3.21875,-2.375 3.21875,-2.796875 c 0,-0.75 -0.671875,-1.1875 -1.484375,-1.1875 -0.765625,0 -1.296875,0.515625 -1.296875,1.078125 0,0.296875 0.25,0.34375 0.3125,0.34375 0.15625,0 0.328125,-0.109375 0.328125,-0.328125 C 1.078125,-3.015625 1,-3.21875 0.734375,-3.21875 0.875,-3.515625 1.234375,-3.75 1.65625,-3.75 c 0.625,0 0.953125,0.46875 0.953125,0.953125 0,0.421875 -0.28125,0.859375 -0.6875,1.25 L 0.5,-0.25 C 0.4375,-0.1875 0.4375,-0.1875 0.4375,0 h 2.59375 z m 0,0"
               id="path11704" />
          </g>
        </g>
      </g>
      <g
         fill="#000000"
         fill-opacity="1"
         id="g11716"
         transform="matrix(1.33333,0,0,1.33333,-142.666,-5.55617)">
        <g
           id="g11714"
           transform="translate(118.172,9.4639997)">
          <path
             d="m 5.828125,-2.65625 c 0.109375,0 0.28125,0 0.28125,-0.1875 0,-0.171875 -0.203125,-0.171875 -0.3125,-0.171875 H 0.78125 c -0.125,0 -0.3125,0 -0.3125,0.171875 0,0.1875 0.15625,0.1875 0.28125,0.1875 z m -0.03125,1.6875 c 0.109375,0 0.3125,0 0.3125,-0.171875 0,-0.1875 -0.171875,-0.1875 -0.28125,-0.1875 H 0.75 c -0.125,0 -0.28125,0 -0.28125,0.1875 0,0.171875 0.1875,0.171875 0.3125,0.171875 z m 0,0"
             id="path11712" />
        </g>
      </g>
      <g
         fill="#000000"
         fill-opacity="1"
         id="g11722"
         transform="matrix(1.33333,0,0,1.33333,-142.666,-5.55617)">
        <g
           id="g11720"
           transform="translate(127.10967,9.4639997)">
          <path
             d="m 3.890625,-2.546875 c 0,-0.84375 -0.078125,-1.359375 -0.34375,-1.875 -0.34375,-0.703125 -1,-0.875 -1.4375,-0.875 -1,0 -1.375,0.75 -1.484375,0.96875 -0.28125,0.578125 -0.296875,1.375 -0.296875,1.78125 0,0.53125 0.015625,1.328125 0.40625,1.96875 0.359375,0.59375 0.953125,0.75 1.375,0.75 0.390625,0 1.0625,-0.125 1.46875,-0.90625 0.296875,-0.578125 0.3125,-1.296875 0.3125,-1.8125 z M 2.109375,-0.0625 C 1.84375,-0.0625 1.296875,-0.1875 1.125,-1.015625 1.03125,-1.46875 1.03125,-2.21875 1.03125,-2.640625 1.03125,-3.1875 1.03125,-3.75 1.125,-4.1875 1.296875,-5 1.90625,-5.078125 2.109375,-5.078125 c 0.265625,0 0.828125,0.140625 0.984375,0.859375 0.09375,0.4375 0.09375,1.046875 0.09375,1.578125 0,0.46875 0,1.1875 -0.09375,1.640625 -0.171875,0.828125 -0.71875,0.9375 -0.984375,0.9375 z m 0,0"
             id="path11718" />
        </g>
      </g>
    </g>
    <g
       inkscape:label=""
       transform="matrix(6.25,0,0,-6.25,6086.6646,9637.5877)"
       id="g12271">
      <g
         fill="#000000"
         fill-opacity="1"
         id="g12246"
         transform="matrix(1.33333,0,0,1.33333,-134.819,-5.24367)">
        <g
           id="use30"
           transform="translate(100.661,9.4639997)">
          <path
             d="m 2.328125,-5.296875 c 0,-0.015625 0.03125,-0.109375 0.03125,-0.125 0,-0.03125 -0.03125,-0.109375 -0.125,-0.109375 -0.03125,0 -0.28125,0.03125 -0.46875,0.046875 l -0.4375,0.03125 C 1.140625,-5.4375 1.0625,-5.4375 1.0625,-5.296875 c 0,0.125 0.109375,0.125 0.21875,0.125 0.375,0 0.375,0.046875 0.375,0.109375 0,0.03125 0,0.046875 -0.03125,0.1875 l -1.140625,4.53125 c -0.03125,0.125 -0.03125,0.171875 -0.03125,0.171875 0,0.140625 0.109375,0.25 0.265625,0.25 0.125,0 0.234375,-0.078125 0.296875,-0.1875 0.03125,-0.046875 0.09375,-0.296875 0.125,-0.453125 l 0.1875,-0.71875 c 0.03125,-0.109375 0.109375,-0.421875 0.125,-0.53125 0.125,-0.46875 0.125,-0.484375 0.296875,-0.734375 0.28125,-0.390625 0.65625,-0.75 1.1875,-0.75 0.28125,0 0.453125,0.171875 0.453125,0.546875 0,0.4375 -0.34375,1.34375 -0.484375,1.734375 -0.109375,0.265625 -0.109375,0.3125 -0.109375,0.421875 0,0.453125 0.375,0.671875 0.71875,0.671875 0.78125,0 1.109375,-1.109375 1.109375,-1.21875 C 4.625,-1.21875 4.5625,-1.25 4.5,-1.25 c -0.09375,0 -0.109375,0.0625 -0.140625,0.140625 -0.1875,0.65625 -0.515625,0.96875 -0.828125,0.96875 -0.125,0 -0.1875,-0.078125 -0.1875,-0.265625 0,-0.1875 0.0625,-0.359375 0.140625,-0.5625 0.125,-0.296875 0.46875,-1.21875 0.46875,-1.65625 0,-0.609375 -0.40625,-0.890625 -0.984375,-0.890625 -0.4375,0 -0.859375,0.1875 -1.234375,0.609375 z m 0,0"
             id="path62" />
        </g>
      </g>
      <g
         fill="#000000"
         fill-opacity="1"
         id="g12251"
         transform="matrix(1.33333,0,0,1.33333,-134.819,-5.24367)">
        <g
           id="g12249"
           transform="translate(105.541,10.571)">
          <path
             d="m 3.296875,-1.90625 c 0,-0.4375 0,-2.078125 -1.46875,-2.078125 -1.46875,0 -1.46875,1.640625 -1.46875,2.078125 0,0.421875 0,2.03125 1.46875,2.03125 1.46875,0 1.46875,-1.609375 1.46875,-2.03125 z m -1.46875,1.84375 c -0.25,0 -0.65625,-0.125 -0.8125,-0.625 -0.09375,-0.34375 -0.09375,-0.921875 -0.09375,-1.296875 0,-0.40625 0,-0.859375 0.09375,-1.1875 0.140625,-0.53125 0.59375,-0.609375 0.8125,-0.609375 0.265625,0 0.671875,0.125 0.796875,0.578125 0.09375,0.3125 0.09375,0.75 0.09375,1.21875 0,0.375 0,0.984375 -0.09375,1.3125 C 2.453125,-0.140625 2.015625,-0.0625 1.828125,-0.0625 Z m 0,0"
             id="path66" />
        </g>
      </g>
      <g
         fill="#000000"
         fill-opacity="1"
         id="g12256"
         transform="matrix(1.33333,0,0,1.33333,-134.819,-5.24367)">
        <g
           id="g12254"
           transform="translate(112.044,9.4639997)">
          <path
             d="m 5.828125,-2.65625 c 0.109375,0 0.28125,0 0.28125,-0.1875 0,-0.171875 -0.203125,-0.171875 -0.3125,-0.171875 H 0.78125 c -0.125,0 -0.3125,0 -0.3125,0.171875 0,0.1875 0.15625,0.1875 0.28125,0.1875 z m -0.03125,1.6875 c 0.109375,0 0.3125,0 0.3125,-0.171875 0,-0.1875 -0.171875,-0.1875 -0.28125,-0.1875 H 0.75 c -0.125,0 -0.28125,0 -0.28125,0.1875 0,0.171875 0.1875,0.171875 0.3125,0.171875 z m 0,0"
             id="path70" />
        </g>
      </g>
      <g
         fill="#000000"
         fill-opacity="1"
         id="g44"
         transform="matrix(1.33333,0,0,1.33333,-134.819,-5.24367)">
        <g
           id="use42"
           transform="translate(120.98167,9.4639997)">
          <path
             d="m 3.890625,-2.546875 c 0,-0.84375 -0.078125,-1.359375 -0.34375,-1.875 -0.34375,-0.703125 -1,-0.875 -1.4375,-0.875 -1,0 -1.375,0.75 -1.484375,0.96875 -0.28125,0.578125 -0.296875,1.375 -0.296875,1.78125 0,0.53125 0.015625,1.328125 0.40625,1.96875 0.359375,0.59375 0.953125,0.75 1.375,0.75 0.390625,0 1.0625,-0.125 1.46875,-0.90625 0.296875,-0.578125 0.3125,-1.296875 0.3125,-1.8125 z M 2.109375,-0.0625 C 1.84375,-0.0625 1.296875,-0.1875 1.125,-1.015625 1.03125,-1.46875 1.03125,-2.21875 1.03125,-2.640625 1.03125,-3.1875 1.03125,-3.75 1.125,-4.1875 1.296875,-5 1.90625,-5.078125 2.109375,-5.078125 c 0.265625,0 0.828125,0.140625 0.984375,0.859375 0.09375,0.4375 0.09375,1.046875 0.09375,1.578125 0,0.46875 0,1.1875 -0.09375,1.640625 -0.171875,0.828125 -0.71875,0.9375 -0.984375,0.9375 z m 0,0"
             id="path74" />
        </g>
      </g>
      <g
         clip-path="url(#clipPath2509)"
         id="g50"
         transform="matrix(1.33333,0,0,1.33333,-134.819,-5.24367)">
        <g
           fill="#000000"
           fill-opacity="1"
           id="g48">
          <g
             id="use46"
             transform="translate(125.217,9.4639997)">
            <path
               d="m 1.484375,-0.125 c 0,0.515625 -0.109375,0.984375 -0.59375,1.46875 C 0.859375,1.375 0.84375,1.390625 0.84375,1.421875 c 0,0.0625 0.0625,0.109375 0.109375,0.109375 0.09375,0 0.765625,-0.625 0.765625,-1.5625 0,-0.5 -0.203125,-0.859375 -0.546875,-0.859375 -0.28125,0 -0.4375,0.234375 -0.4375,0.4375 C 0.734375,-0.21875 0.890625,0 1.171875,0 1.375,0 1.484375,-0.109375 1.484375,-0.125 Z m 0,0"
               id="path78" />
          </g>
        </g>
      </g>
      <g
         fill="#000000"
         fill-opacity="1"
         id="g56"
         transform="matrix(1.33333,0,0,1.33333,-134.819,-5.24367)">
        <g
           id="use52"
           transform="translate(128.981,9.4639997)">
          <path
             d="m 3.890625,-2.546875 c 0,-0.84375 -0.078125,-1.359375 -0.34375,-1.875 -0.34375,-0.703125 -1,-0.875 -1.4375,-0.875 -1,0 -1.375,0.75 -1.484375,0.96875 -0.28125,0.578125 -0.296875,1.375 -0.296875,1.78125 0,0.53125 0.015625,1.328125 0.40625,1.96875 0.359375,0.59375 0.953125,0.75 1.375,0.75 0.390625,0 1.0625,-0.125 1.46875,-0.90625 0.296875,-0.578125 0.3125,-1.296875 0.3125,-1.8125 z M 2.109375,-0.0625 C 1.84375,-0.0625 1.296875,-0.1875 1.125,-1.015625 1.03125,-1.46875 1.03125,-2.21875 1.03125,-2.640625 1.03125,-3.1875 1.03125,-3.75 1.125,-4.1875 1.296875,-5 1.90625,-5.078125 2.109375,-5.078125 c 0.265625,0 0.828125,0.140625 0.984375,0.859375 0.09375,0.4375 0.09375,1.046875 0.09375,1.578125 0,0.46875 0,1.1875 -0.09375,1.640625 -0.171875,0.828125 -0.71875,0.9375 -0.984375,0.9375 z m 0,0"
             id="path82" />
        </g>
        <g
           id="g12268"
           transform="translate(133.21552,9.4639997)">
          <path
             d="m 1.09375,-2.640625 c 0,-0.65625 0.0625,-1.234375 0.34375,-1.71875 0.25,-0.40625 0.65625,-0.734375 1.15625,-0.734375 0.15625,0 0.515625,0.03125 0.703125,0.296875 C 2.9375,-4.765625 2.90625,-4.5 2.90625,-4.421875 c 0,0.25 0.1875,0.375 0.375,0.375 0.140625,0 0.375,-0.078125 0.375,-0.390625 0,-0.46875 -0.359375,-0.859375 -1.078125,-0.859375 -1.109375,0 -2.234375,1.046875 -2.234375,2.765625 0,2.171875 1.015625,2.703125 1.78125,2.703125 0.390625,0 0.796875,-0.109375 1.15625,-0.453125 C 3.609375,-0.59375 3.875,-0.921875 3.875,-1.625 c 0,-1.03125 -0.796875,-1.765625 -1.671875,-1.765625 -0.578125,0 -0.921875,0.359375 -1.109375,0.75 z m 1.03125,2.5625 c -0.421875,0 -0.6875,-0.28125 -0.796875,-0.515625 C 1.140625,-0.953125 1.125,-1.484375 1.125,-1.796875 c 0,-0.78125 0.421875,-1.375 1.046875,-1.375 0.390625,0 0.640625,0.203125 0.78125,0.484375 C 3.125,-2.390625 3.125,-2.03125 3.125,-1.625 c 0,0.40625 0,0.75 -0.15625,1.046875 -0.21875,0.359375 -0.484375,0.5 -0.84375,0.5 z m 0,0"
             id="path86" />
        </g>
      </g>
    </g>
    <text
       xml:space="preserve"
       style="font-style:normal;font-variant:normal;font-weight:normal;font-stretch:normal;font-size:66.6669px;font-family:Arial;-inkscape-font-specification:'Arial, Normal';font-variant-ligatures:normal;font-variant-caps:normal;font-variant-numeric:normal;font-variant-east-asian:normal;fill:#000000;fill-opacity:1;stroke:none;stroke-width:3.125;stroke-dasharray:none;stroke-opacity:1"
       x="6620.0234"
       y="-9612.0342"
       id="text12678"
       transform="scale(1,-1)"><tspan
         sodipodi:role="line"
         id="tspan12676"
         style="stroke-width:3.125"
         x="6620.0234"
         y="-9612.0342">saída</tspan></text>
    <g
       inkscape:label=""
       transform="matrix(6.25,0,0,-6.25,4805.4788,10009.316)"
       id="g14669">
      <g
         fill="#000000"
         fill-opacity="1"
         id="g46"
         transform="matrix(1.33333,0,0,1.33333,-131.669,-1.34833)">
        <g
           id="use44"
           transform="translate(98.486,17.334999)">
          <path
             d="m 4.8125,-2.578125 c 0.046875,-0.1875 0.140625,-0.515625 0.140625,-0.578125 0,-0.21875 -0.171875,-0.375 -0.40625,-0.375 -0.328125,0 -0.5,0.21875 -0.578125,0.515625 L 3.4375,-0.875 C 3.40625,-0.75 3.03125,-0.265625 2.515625,-0.265625 2,-0.265625 2,-0.6875 2,-0.84375 2,-1.3125 2.234375,-1.890625 2.46875,-2.453125 2.546875,-2.65625 2.578125,-2.734375 2.578125,-2.875 c 0,-0.5 -0.515625,-0.734375 -0.96875,-0.734375 -0.890625,0 -1.34375,1.046875 -1.34375,1.25 0,0.140625 0.125,0.140625 0.234375,0.140625 0.140625,0 0.171875,0 0.21875,-0.140625 0.234375,-0.734375 0.625,-0.921875 0.828125,-0.921875 0.0625,0 0.140625,0 0.140625,0.1875 0,0.171875 -0.0625,0.34375 -0.140625,0.484375 C 1.1875,-1.703125 1.09375,-1.359375 1.09375,-1 c 0,0.828125 0.671875,1.078125 1.359375,1.078125 0.171875,0 0.578125,0 1.0625,-0.4375 C 3.78125,0.03125 4.3125,0.078125 4.5,0.078125 c 0.828125,0 1.0625,-1.234375 1.0625,-1.25 0,-0.15625 -0.140625,-0.15625 -0.21875,-0.15625 -0.1875,0 -0.203125,0.046875 -0.234375,0.21875 -0.125,0.46875 -0.28125,0.84375 -0.5625,0.84375 -0.203125,0 -0.203125,-0.203125 -0.203125,-0.3125 0,-0.140625 0.078125,-0.4375 0.140625,-0.65625 z m 0,0"
             id="path92" />
        </g>
      </g>
      <g
         fill="#000000"
         fill-opacity="1"
         id="g14630"
         transform="matrix(1.33333,0,0,1.33333,-131.669,-1.34833)">
        <g
           id="use48"
           transform="translate(106.687,17.334999)">
          <path
             d="m 5.828125,-2.65625 c 0.109375,0 0.28125,0 0.28125,-0.1875 0,-0.171875 -0.203125,-0.171875 -0.3125,-0.171875 H 0.78125 c -0.125,0 -0.3125,0 -0.3125,0.171875 0,0.1875 0.15625,0.1875 0.28125,0.1875 z m -0.03125,1.6875 c 0.109375,0 0.3125,0 0.3125,-0.171875 0,-0.1875 -0.171875,-0.1875 -0.28125,-0.1875 H 0.75 c -0.125,0 -0.28125,0 -0.28125,0.1875 0,0.171875 0.1875,0.171875 0.3125,0.171875 z m 0,0"
             id="path96" />
        </g>
      </g>
      <g
         fill="#000000"
         fill-opacity="1"
         id="g54"
         transform="matrix(1.33333,0,0,1.33333,-131.669,-1.34833)">
        <g
           id="g14633"
           transform="translate(115.626,1.355)">
          <path
             d="M 2.75,13.984375 H 3.359375 V 0.265625 H 5.59375 V -0.34375 H 2.75 Z m 0,0"
             id="path100" />
        </g>
      </g>
      <g
         clip-path="url(#clipPath7080)"
         id="g60"
         transform="matrix(1.33333,0,0,1.33333,-131.669,-1.34833)">
        <g
           fill="#000000"
           fill-opacity="1"
           id="g58">
          <g
             id="use56"
             transform="translate(115.626,15.701)">
            <path
               d="m 2.75,13.984375 h 2.84375 v -0.625 H 3.359375 V -0.359375 H 2.75 Z m 0,0"
               id="path14636" />
          </g>
        </g>
      </g>
      <g
         fill="#000000"
         fill-opacity="1"
         id="g64"
         transform="matrix(1.33333,0,0,1.33333,-131.669,-1.34833)">
        <g
           id="use62"
           transform="translate(121.271,7.7709999)">
          <path
             d="m 2.984375,-0.875 c -0.03125,0.15625 -0.40625,0.734375 -0.9375,0.734375 -0.390625,0 -0.53125,-0.296875 -0.53125,-0.640625 0,-0.484375 0.28125,-1.1875 0.453125,-1.640625 C 2.046875,-2.625 2.078125,-2.6875 2.078125,-2.84375 c 0,-0.4375 -0.359375,-0.671875 -0.71875,-0.671875 -0.796875,0 -1.125,1.125 -1.125,1.21875 0,0.078125 0.0625,0.109375 0.125,0.109375 0.109375,0 0.109375,-0.046875 0.140625,-0.125 0.203125,-0.71875 0.546875,-0.984375 0.828125,-0.984375 0.125,0 0.1875,0.078125 0.1875,0.265625 0,0.1875 -0.0625,0.375 -0.171875,0.65625 -0.328125,0.84375 -0.40625,1.1875 -0.40625,1.46875 0,0.78125 0.59375,0.984375 1.0625,0.984375 0.59375,0 0.96875,-0.46875 1,-0.515625 0.125,0.375 0.484375,0.515625 0.765625,0.515625 0.375,0 0.5625,-0.3125 0.609375,-0.4375 0.171875,-0.28125 0.28125,-0.75 0.28125,-0.78125 C 4.65625,-1.1875 4.625,-1.25 4.53125,-1.25 4.4375,-1.25 4.421875,-1.203125 4.359375,-1 c -0.09375,0.40625 -0.234375,0.859375 -0.5625,0.859375 -0.1875,0 -0.265625,-0.15625 -0.265625,-0.375 0,-0.140625 0.078125,-0.40625 0.125,-0.609375 0.046875,-0.203125 0.171875,-0.671875 0.203125,-0.8125 l 0.15625,-0.609375 C 4.0625,-2.765625 4.15625,-3.140625 4.15625,-3.1875 c 0,-0.203125 -0.15625,-0.25 -0.25,-0.25 -0.109375,0 -0.28125,0.078125 -0.34375,0.265625 z m 0,0"
             id="path14641" />
        </g>
      </g>
      <g
         fill="#000000"
         fill-opacity="1"
         id="g68"
         transform="matrix(1.33333,0,0,1.33333,-131.669,-1.34833)">
        <g
           id="use66"
           transform="translate(126.174,8.7670002)">
          <path
             d="m 3.484375,-1.890625 c -0.625,-0.671875 -1.265625,-0.75 -1.578125,-0.75 -0.765625,0 -1.34375,0.625 -1.34375,1.359375 0,0.6875 0.546875,1.34375 1.328125,1.34375 0.734375,0 1.34375,-0.484375 1.703125,-1 l 0.21875,0.25 c 0.640625,0.671875 1.265625,0.75 1.578125,0.75 C 6.171875,0.0625 6.75,-0.5625 6.75,-1.296875 6.75,-2 6.203125,-2.640625 5.421875,-2.640625 c -0.734375,0 -1.34375,0.484375 -1.71875,1 z m 0.421875,0.46875 C 4.25,-1.890625 4.765625,-2.375 5.46875,-2.375 c 0.640625,0 1.078125,0.515625 1.078125,1.078125 0,0.578125 -0.5,1 -1.046875,1 -0.46875,0 -0.890625,-0.28125 -1.59375,-1.125 z M 3.390625,-1.15625 C 3.046875,-0.6875 2.546875,-0.203125 1.84375,-0.203125 1.1875,-0.203125 0.75,-0.71875 0.75,-1.28125 c 0,-0.578125 0.5,-1 1.0625,-1 0.46875,0 0.875,0.28125 1.578125,1.125 z m 0,0"
             id="path14645" />
        </g>
      </g>
      <g
         fill="#000000"
         fill-opacity="1"
         id="g72"
         transform="matrix(1.33333,0,0,1.33333,-131.669,-1.34833)">
        <g
           id="use70"
           transform="translate(125.508,17.235001)">
          <path
             d="m 3.890625,-2.546875 c 0,-0.84375 -0.078125,-1.359375 -0.34375,-1.875 -0.34375,-0.703125 -1,-0.875 -1.4375,-0.875 -1,0 -1.375,0.75 -1.484375,0.96875 -0.28125,0.578125 -0.296875,1.375 -0.296875,1.78125 0,0.53125 0.015625,1.328125 0.40625,1.96875 0.359375,0.59375 0.953125,0.75 1.375,0.75 0.390625,0 1.0625,-0.125 1.46875,-0.90625 0.296875,-0.578125 0.3125,-1.296875 0.3125,-1.8125 z M 2.109375,-0.0625 C 1.84375,-0.0625 1.296875,-0.1875 1.125,-1.015625 1.03125,-1.46875 1.03125,-2.21875 1.03125,-2.640625 1.03125,-3.1875 1.03125,-3.75 1.125,-4.1875 1.296875,-5 1.90625,-5.078125 2.109375,-5.078125 c 0.265625,0 0.828125,0.140625 0.984375,0.859375 0.09375,0.4375 0.09375,1.046875 0.09375,1.578125 0,0.46875 0,1.1875 -0.09375,1.640625 -0.171875,0.828125 -0.71875,0.9375 -0.984375,0.9375 z m 0,0"
             id="path14649" />
        </g>
      </g>
      <g
         fill="#000000"
         fill-opacity="1"
         id="g76"
         transform="matrix(1.33333,0,0,1.33333,-131.669,-1.34833)">
        <g
           id="use74"
           transform="translate(125.508,26.700001)">
          <path
             d="m 3.890625,-2.546875 c 0,-0.84375 -0.078125,-1.359375 -0.34375,-1.875 -0.34375,-0.703125 -1,-0.875 -1.4375,-0.875 -1,0 -1.375,0.75 -1.484375,0.96875 -0.28125,0.578125 -0.296875,1.375 -0.296875,1.78125 0,0.53125 0.015625,1.328125 0.40625,1.96875 0.359375,0.59375 0.953125,0.75 1.375,0.75 0.390625,0 1.0625,-0.125 1.46875,-0.90625 0.296875,-0.578125 0.3125,-1.296875 0.3125,-1.8125 z M 2.109375,-0.0625 C 1.84375,-0.0625 1.296875,-0.1875 1.125,-1.015625 1.03125,-1.46875 1.03125,-2.21875 1.03125,-2.640625 1.03125,-3.1875 1.03125,-3.75 1.125,-4.1875 1.296875,-5 1.90625,-5.078125 2.109375,-5.078125 c 0.265625,0 0.828125,0.140625 0.984375,0.859375 0.09375,0.4375 0.09375,1.046875 0.09375,1.578125 0,0.46875 0,1.1875 -0.09375,1.640625 -0.171875,0.828125 -0.71875,0.9375 -0.984375,0.9375 z m 0,0"
             id="path14653" />
        </g>
      </g>
      <g
         fill="#000000"
         fill-opacity="1"
         id="g14660"
         transform="matrix(1.33333,0,0,1.33333,-131.669,-1.34833)">
        <g
           id="use78"
           transform="translate(133.978,1.355)">
          <path
             d="m 2.265625,13.984375 h 0.625 V -0.34375 h -2.84375 v 0.609375 h 2.21875 z m 0,0"
             id="path14657" />
        </g>
      </g>
      <g
         clip-path="url(#clipPath6924)"
         id="g14667"
         transform="matrix(1.33333,0,0,1.33333,-131.669,-1.34833)">
        <g
           fill="#000000"
           fill-opacity="1"
           id="g84">
          <g
             id="g14664"
             transform="translate(133.978,15.701)">
            <path
               d="m 2.265625,13.359375 h -2.21875 v 0.625 h 2.84375 v -14.34375 h -0.625 z m 0,0"
               id="path14662" />
          </g>
        </g>
      </g>
    </g>
    <path
       style="fill:none;fill-opacity:1;stroke:#000000;stroke-width:3.125;stroke-dasharray:none;stroke-opacity:1;marker-start:url(#TriangleStart)"
       d="m 5305.4083,9827.3967 -62.5,62.5 h -93.75"
       id="path15218" />
  </g>
</svg>
