<?xml version="1.0" encoding="UTF-8" standalone="no"?>
<!-- Created with Inkscape (http://www.inkscape.org/) -->

<svg
   width="233.89166mm"
   height="112.44791mm"
   viewBox="0 0 233.89166 112.44791"
   version="1.1"
   id="svg5"
   inkscape:version="1.2.1 (9c6d41e410, 2022-07-14)"
   sodipodi:docname="resultados.svg"
   xmlns:inkscape="http://www.inkscape.org/namespaces/inkscape"
   xmlns:sodipodi="http://sodipodi.sourceforge.net/DTD/sodipodi-0.dtd"
   xmlns="http://www.w3.org/2000/svg"
   xmlns:svg="http://www.w3.org/2000/svg">
  <sodipodi:namedview
     id="namedview7"
     pagecolor="#ffffff"
     bordercolor="#000000"
     borderopacity="0.25"
     inkscape:showpageshadow="2"
     inkscape:pageopacity="0.0"
     inkscape:pagecheckerboard="0"
     inkscape:deskcolor="#d1d1d1"
     inkscape:document-units="mm"
     showgrid="false"
     inkscape:zoom="1.0544998"
     inkscape:cx="458.03708"
     inkscape:cy="162.1622"
     inkscape:window-width="1920"
     inkscape:window-height="1017"
     inkscape:window-x="1912"
     inkscape:window-y="-8"
     inkscape:window-maximized="1"
     inkscape:current-layer="layer1" />
  <defs
     id="defs2">
    <clipPath
       id="clip0">
      <rect
         x="688"
         y="0"
         width="884"
         height="425"
         id="rect132" />
    </clipPath>
    <clipPath
       id="clip1">
      <rect
         x="754"
         y="14"
         width="797"
         height="348"
         id="rect135" />
    </clipPath>
  </defs>
  <g
     inkscape:label="Camada 1"
     inkscape:groupmode="layer"
     id="layer1"
     transform="translate(67.623249,-141.06636)">
    <g
       clip-path="url(#clip0)"
       transform="matrix(0.26458333,0,0,0.26458333,-249.65658,141.06636)"
       id="g282">
      <rect
         x="688"
         y="0"
         width="884"
         height="425"
         fill="#ffffff"
         id="rect140" />
      <g
         id="g144">
        <path
           d="m 754.5,361.5 h 796 m -796,-34 h 796 m -796,-35 h 796 m -796,-35 h 796 m -796,-35 h 796 m -796,-69 h 796 m -796,-35 h 796 m -796,-33.9999 h 796 m -796,-35 h 796 m -796,-35 h 796"
           stroke="#d9d9d9"
           stroke-linejoin="round"
           stroke-miterlimit="10"
           fill="none"
           id="path142" />
      </g>
      <g
         id="g148">
        <path
           d="M 854.5,14.5001 V 361.5 m 99,-346.9999 V 361.5 m 100,-346.9999 V 361.5 m 99,-346.9999 V 361.5 m 100,-346.9999 V 361.5 m 99,-346.9999 V 361.5 m 100,-346.9999 V 361.5 m 99,-346.9999 V 361.5"
           stroke="#d9d9d9"
           stroke-linejoin="round"
           stroke-miterlimit="10"
           fill="none"
           id="path146" />
      </g>
      <g
         id="g152">
        <rect
           x="754.5"
           y="14.5001"
           width="796"
           height="347"
           stroke="#000000"
           stroke-linejoin="round"
           stroke-miterlimit="10"
           fill="none"
           id="rect150" />
      </g>
      <g
         id="g156">
        <path
           d="M 0,0 1.04987e-4,347"
           stroke="#000000"
           stroke-linejoin="round"
           stroke-miterlimit="10"
           fill="none"
           fill-rule="evenodd"
           transform="matrix(1,0,0,-1,754.5,361.5)"
           id="path154" />
      </g>
      <g
         id="g160">
        <path
           d="m 754.5,361.5 h 3 m -3,-7 h 3 m -3,-7 h 3 m -3,-7 h 3 m -3,-7 h 3 m -3,-6 h 3 m -3,-7 h 3 m -3,-7 h 3 m -3,-7 h 3 m -3,-7 h 3 m -3,-7 h 3 m -3,-7 h 3 m -3,-7 h 3 m -3,-7 h 3 m -3,-7 h 3 m -3,-7 h 3 m -3,-7 h 3 m -3,-7 h 3 m -3,-7 h 3 m -3,-7 h 3 m -3,-7 h 3 m -3,-7 h 3 m -3,-6 h 3 m -3,-7 h 3 m -3,-7 h 3 m -3,-7 h 3 m -3,-7 h 3 m -3,-7 h 3 m -3,-7 h 3 m -3,-7 h 3 m -3,-7 h 3 m -3,-7 h 3 m -3,-7 h 3 m -3,-7 h 3 m -3,-7 h 3 m -3,-7 h 3 m -3,-7 h 3 m -3,-7 h 3 m -3,-6.9999 h 3 m -3,-6 h 3 m -3,-7 h 3 m -3,-7.0001 h 3 m -3,-6.9999 h 3 m -3,-7 h 3 m -3,-7 h 3 m -3,-7 h 3 m -3,-7 h 3 m -3,-7 h 3 m -3,-7 h 3 m -3,-7 h 3 m -3,-7 h 3 m -6,346.9999 h 7 m -7,-34 h 7 m -7,-35 h 7 m -7,-35 h 7 m -7,-35 h 7 m -7,-34 h 7 m -7,-35 h 7 m -7,-35 h 7 m -7,-33.9999 h 7 m -7,-35 h 7 m -7,-35 h 7"
           stroke="#000000"
           stroke-linejoin="round"
           stroke-miterlimit="10"
           fill="none"
           id="path158" />
      </g>
      <g
         id="g164">
        <path
           d="m 754.5,188.5 h 796"
           stroke="#000000"
           stroke-linejoin="round"
           stroke-miterlimit="10"
           fill="none"
           fill-rule="evenodd"
           id="path162" />
      </g>
      <g
         id="g168">
        <path
           d="m 754.5,185.5 v 3 m 20,-3 v 3 m 20,-3 v 3 m 20,-3 v 3 m 20,-3 v 3 m 20,-3 v 3 m 20,-3 v 3 m 20,-3 v 3 m 20,-3 v 3 m 20,-3 v 3 m 19,-3 v 3 m 20,-3 v 3 m 20,-3 v 3 m 20,-3 v 3 m 20,-3 v 3 m 20,-3 v 3 m 20,-3 v 3 m 20,-3 v 3 m 20,-3 v 3 m 19,-3 v 3 m 20,-3 v 3 m 20,-3 v 3 m 20,-3 v 3 m 20,-3 v 3 m 20,-3 v 3 m 20,-3 v 3 m 20,-3 v 3 m 20,-3 v 3 m 19,-3 v 3 m 20,-3 v 3 m 20,-3 v 3 m 20,-3 v 3 m 20,-3 v 3 m 20,-3 v 3 m 20,-3 v 3 m 20,-3 v 3 m 20,-3 v 3 m 19,-3 v 3 m 20,-3 v 3 m 20,-3 v 3 m 20,-3 v 3 m -796,-4 v 7 m 100,-7 v 7 m 99,-7 v 7 m 100,-7 v 7 m 99,-7 v 7 m 100,-7 v 7 m 99,-7 v 7 m 100,-7 v 7 m 99,-7 v 7"
           stroke="#000000"
           stroke-linejoin="round"
           stroke-miterlimit="10"
           fill="none"
           id="path166" />
      </g>
      <g
         id="g172">
        <path
           d="m 755,188 v 0 0 h 1 v 0 0 0 h 1 v 0 0 0 h 1 v 0 0 0 h 1 v 0 0 0 h 1 v 0 0 0 h 1 v 0 0 0 h 1 v 0 0 0 h 1 v 0 0 0 h 1 v 0 0 0 h 1 v 0 0 0 h 1 v 0 0 0 h 1 v 0 0 0 h 1 v 0 0 0 h 1 v 0 0 0 h 1 v 0 0 0 h 1 v 0 0 0 h 1 v 0 0 0 h 1 v 0 0 0 h 1 v 0 0 0 l 1,-1 v 0 0 0 h 1 v 0 0 0 h 1 v 0 0 0 h 1 v 0 0 0 h 1 v 0 0 0 h 1 v 0 0 0 h 1 v 0 0 0 h 1 v 0 0 0 h 1 v 0 0 0 h 1 v 0 0 0 h 1 v 0 1 0 h 1 v 0 0 0 h 1 v 0 0 0 h 1 v 0 0 0 h 1 v 0 0 0 h 1 v 0 1 0 h 1 v 0 0 0 h 1 v 0 0 0 l 1,1 v 0 0 0 h 1 v 0 0 1 h 1 v 0 0 0 h 1 v 1 0 0 h 1 v 0 1 0 h 1 v 0 0 0 l 1,1 v 0 0 0 h 1 v 0 1 0 0 h 1 v 0 0 0 h 1 v 0 0 0 h 1 v 0 0 1 h 1 v 0 0 0 h 1 v -1 0 0 h 1 v 0 0 0 h 1 v 0 0 0 h 1 v 0 0 0 h 1 v 0 0 0 h 1 v -1 0 0 h 1 v 0 0 0 h 1 v 0 0 -1 h 1 v 0 0 0 l 1,-1 v 0 0 0 l 1,-1 v 0 0 -1 h 1 v -1 0 0 l 1,-1 v 0 -1 0 l 1,-1 v 0 -1 -1 h 1 v -1 0 -1 h 1 v -1 -1 0 l 1,-1 v 0 -1 0 l 1,-1 v 0 -1 0 h 1 v -1 0 0 l 1,-1 v 0 0 0 h 1 v -1 0 0 h 1 v 0 0 0 h 1 v 0 -1 0 h 1 v 0 0 -1 h 1 v 0 0 -1 h 1 v 0 -1 0 l 1,-1 v 0 0 -1 h 1 v -1 0 0 l 1,-1 v 0 0 -1 h 1 v 0 0 0 h 1 v 0 0 0 l 1,1 v 0 0 1 h 1 v 1 0 1 l 1,1 v 0 1 1 l 1,1 v 1 0 1 l 1,1 v 1 0 1 l 1,1 v 0 1 0 l 1,1 v 0 0 1 h 1 v 0 0 0 h 1 v 0 0 0 l 1,-1 v 0 0 0 h 1 v 0 0 0 0 h 1 v 0 0 1 h 1 v 0 1 1 l 1,1 v 0 1 1 l 1,2 v 1 1 1 l 1,2 v 1 1 1 l 1,2 v 1 1 1 l 1,1 v 1 1 1 l 1,1 v 0 1 0 l 1,1 v 0 0 -1 h 1 v 0 -1 0 l 1,-1 v -1 -1 -1 h 1 v -1 -1 -1 l 1,-1 v -1 -1 -1 h 1 v -1 0 -1 h 1 v 0 0 0 h 1 v 1 0 1 h 1 v 1 1 1 l 1,1 v 1 1 1 l 1,1 v 1 1 0 l 1,1 v 1 0 1 h 1 v 0 0 -1 h 1 v -1 0 -1 l 1,-1 v -2 -1 -2 l 1,-1 v -2 -2 -2 l 1,-2 v -2 -2 -2 l 1,-2 v -2 -2 -1 l 1,-2 v -1 -2 -1 l 1,-1 v 0 -1 0 h 1 v 0 0 0 l 1,1 v 1 1 1 l 1,1 v 1 1 2 l 1,1 v 1 2 1 l 1,1 v 1 1 1 l 1,1 v 0 0 1 l 1,-1 v 0 0 -1 l 1,-1 v -1 -1 -2 l 1,-1 v -2 -2 -2 l 1,-2 v -2 -2 -2 l 1,-2 v -2 -2 -1 l 1,-2 v -1 -1 -1 l 1,-1 v -1 0 0 l 1,1 v 0 1 1 l 1,1 v 2 1 2 l 1,2 v 3 2 2 l 1,3 v 2 3 3 l 1,2 v 2 3 2 2 l 1,1 v 2 1 1 l 1,1 v 0 0 0 h 1 v -1 0 -2 l 1,-1 v -1 -2 -2 l 1,-2 v -2 -2 -2 l 1,-2 v -2 -2 -1 l 1,-2 v -1 -2 -1 h 1 v -1 0 0 l 1,1 v 1 1 1 l 1,2 v 2 2 2 l 1,3 v 3 3 3 l 1,3 v 3 3 4 l 1,3 v 3 2 3 l 1,2 v 2 2 1 l 1,2 v 0 1 0 h 1 v -1 0 -2 l 1,-1 v -2 -2 -2 l 1,-3 v -2 -3 -3 l 1,-3 v -3 -3 -3 l 1,-3 v -3 -2 -2 l 1,-2 v -2 -1 -2 h 1 v -1 0 1 h 1 v 1 2 1 l 1,2 v 3 2 3 l 1,3 v 3 3 3 l 1,3 v 3 3 3 l 1,2 v 2 2 2 l 1,1 v 1 1 0 h 1 v 0 -1 -2 l 1,-1 v -2 -3 -2 l 1,-3 v -4 -3 -4 l 1,-4 v -4 -4 -4 l 1,-5 v -3 -4 -4 l 1,-3 v -3 -3 -2 l 1,-2 v -1 -1 -1 h 1 v 0 0 1 l 1,2 v 1 3 2 l 1,3 v 3 3 4 l 1,3 v 4 4 3 l 1,4 v 3 3 3 l 1,2 v 3 1 2 l 1,1 v 0 1 -1 h 1 v -2 -1 -2 l 1,-2 v -3 -3 -4 l 1,-4 v -4 -4 -4 -5 l 1,-4 v -4 -4 -4 l 1,-4 v -3 -3 -3 l 1,-2 v -2 -1 -1 h 1 v 0 0 1 l 1,2 v 2 2 3 l 1,3 v 4 3 5 l 1,4 v 5 5 4 l 1,5 v 5 4 4 l 1,4 v 4 3 3 l 1,2 v 2 1 1 h 1 v 0 0 -2 l 1,-1 v -2 -3 -3 l 1,-3 v -4 -4 -4 l 1,-4 v -5 -5 -4 l 1,-5 v -4 -4 -4 l 1,-3 v -3 -2 -2 l 1,-1 v -1 -1 0 l 1,1 v 1 1 2 l 1,3 v 3 3 4 l 1,5 v 4 5 6 l 1,5 v 6 5 6 l 1,5 v 5 4 5 l 1,3 v 3 3 3 l 1,1 v 1 1 0 h 1 v -1 -1 -2 l 1,-3 v -3 -3 -4 l 1,-4 v -5 -5 -5 l 1,-6 v -5 -6 -5 l 1,-5 v -4 -5 -4 l 1,-3 v -3 -2 -2 l 1,-1 v -1 0 0 l 1,1 v 2 2 2 l 1,3 v 4 4 5 l 1,5 v 5 6 6 l 1,5 v 6 6 5 l 1,5 v 5 4 4 l 1,3 v 3 2 1 l 1,1 v 1 0 -1 l 1,-1 v -2 -2 -3 l 1,-4 v -4 -5 -5 l 1,-5 v -6 -6 -7 l 1,-6 v -6 -6 -6 l 1,-6 v -5 -4 -4 l 1,-4 v -3 -2 -2 l 1,-1 v 0 0 0 l 1,2 v 1 3 3 3 l 1,5 v 4 5 6 l 1,6 v 6 7 6 l 1,6 v 6 6 5 l 1,4 v 5 3 3 l 1,2 v 2 1 1 h 1 v -1 -1 -2 l 1,-2 v -3 -4 -4 l 1,-5 v -5 -6 -7 l 1,-6 v -7 -7 -7 l 1,-7 v -7 -6 -5 l 1,-5 v -5 -3 -4 l 1,-2 v -2 -2 0 l 1,-1 v 1 1 1 l 1,3 v 2 4 4 l 1,5 v 5 6 7 l 1,7 v 7 7 7 l 1,7 v 6 6 6 l 1,5 v 5 3 4 l 1,2 v 2 1 1 h 1 v -1 -1 -2 l 1,-2 v -3 -4 -5 l 1,-5 v -6 -6 -7 l 1,-7 v -8 -7 -8 l 1,-7 v -6 -7 -5 l 1,-5 v -5 -3 -3 l 1,-3 v -2 -1 0 h 1 v 0 2 2 l 1,2 v 4 4 4 l 1,6 v 6 6 8 l 1,7 v 8 8 8 l 1,8 v 7 7 6 l 1,6 v 4 5 3 l 1,3 v 2 2 0 l 1,1 v -1 -1 -1 l 1,-3 v -3 -4 -4 l 1,-5 v -6 -7 -7 l 1,-8 v -8 -8 -8 l 1,-7 v -8 -7 -6 l 1,-5 v -5 -4 -3 l 1,-3 v -2 -1 -1 h 1 v 0 2 1 l 1,3 v 3 4 5 l 1,5 v 7 7 7 l 1,8 v 9 9 8 l 1,9 v 8 7 7 l 1,6 v 5 4 4 3 l 1,3 v 1 1 1 h 1 v -1 -1 -2 l 1,-3 v -4 -4 -5 l 1,-6 v -7 -7 -8 l 1,-9 v -9 -9 -8 l 1,-9 v -7 -8 -6 l 1,-6 v -4 -5 -3 l 1,-3 v -2 -1 -1 h 1 v 1 1 2 l 1,2 v 4 4 5 l 1,6 v 6 8 8 l 1,8 v 10 9 9 l 1,9 v 8 7 7 l 1,6 v 5 4 4 l 1,3 v 2 2 1 h 1 v 0 -1 -2 l 1,-2 v -3 -4 -5 l 1,-5 v -7 -7 -8 l 1,-9 v -9 -10 -10 l 1,-9 v -9 -9 -7 l 1,-7 v -6 -5 -4 l 1,-4 v -3 -2 -2 l 1,-1 v 0 0 1 l 1,2 v 2 3 4 l 1,5 v 6 6 8 l 1,8 v 9 10 10 l 1,10 v 9 9 8 l 1,7 v 7 5 5 l 1,4 v 3 3 1 l 1,2 v 0 0 0 l 1,-1 v -2 -3 -4 l 1,-4 v -6 -6 -8 l 1,-8 v -9 -10 -10 l 1,-11 v -10 -10 -9 l 1,-8 v -7 -7 -5 l 1,-5 v -4 -3 -2 l 1,-2 v -1 -1 0 h 1 v 1 2 3 l 1,3 v 5 5 7 l 1,7 v 8 10 10 l 1,10 v 11 10 10 l 1,10 v 8 8 6 l 1,6 v 4 4 3 l 1,3 v 2 1 1 h 1 v 0 -1 -2 l 1,-3 v -3 -5 -6 -6 l 1,-8 v -9 -10 -10 l 1,-11 v -11 -10 -11 l 1,-9 v -8 -7 -7 l 1,-5 v -5 -3 -3 l 1,-3 v -2 -1 -1 h 1 v 0 1 2 l 1,3 v 4 4 6 l 1,7 v 8 9 10 l 1,10 v 12 11 11 l 1,11 v 10 9 7 l 1,7 v 6 5 4 l 1,3 v 3 3 1 l 1,2 v 0 0 0 l 1,-2 v -2 -4 -4 l 1,-5 v -7 -7 -9 l 1,-10 v -11 -11 -12 l 1,-11 v -11 -10 -9 l 1,-8 v -6 -6 -5 l 1,-4 v -4 -3 -2 l 1,-2 v -1 -1 0 h 1 v 2 2 3 l 1,4 v 5 7 8 l 1,8 v 10 11 12 l 1,12 v 12 11 11 l 1,10 v 8 7 6 l 1,6 v 4 4 3 l 1,3 v 2 2 1 l 1,1 v 0 -1 -2 l 1,-2 v -4 -5 -5 l 1,-8 v -8 -10 -10 l 1,-12 v -12 -12 -12 l 1,-11 v -11 -9 -8 l 1,-6 v -6 -5 -4 l 1,-4 v -3 -3 -2 l 1,-2 v -1 -1 0 l 1,1 v 3 3 4 l 1,5 v 7 8 9 l 1,10 v 12 12 12 l 1,12 v 12 11 10 l 1,8 v 7 6 6 l 1,4 v 4 3 3 l 1,3 v 2 2 1 h 1 v -1 -1 -3 l 1,-3 v -5 -6 -7 l 1,-9 v -10 -11 -12 l 1,-13 v -13 -12 -12 -11 l 1,-9 v -8 -7 -6 l 1,-5 v -5 -4 -4 l 1,-3 v -3 -2 -2 l 1,-1 v -1 1 1 l 1,3 v 4 5 6 l 1,7 v 9 10 12 l 1,12 v 13 13 12 l 1,11 v 11 9 8 l 1,6 v 6 5 5 l 1,4 v 4 3 3 l 1,3 v 1 1 1 l 1,-1 v -2 -3 -4 l 1,-6 v -6 -9 -9 l 1,-11 v -12 -13 -13 l 1,-13 v -12 -11 -11 l 1,-8 v -8 -7 -5 l 1,-5 v -5 -4 -4 l 1,-4 v -3 -3 -2 l 1,-1 v 0 1 2 l 1,3 v 4 5 7 l 1,8 v 10 10 12 l 1,13 v 13 13 13 l 1,11 v 10 9 8 l 1,7 v 6 6 5 l 1,5 v 4 4 4 l 1,3 v 2 1 0 h 1 v -2 -3 -4 l 1,-6 v -6 -9 -9 l 1,-11 v -12 -13 -13 l 1,-13 v -12 -12 -10 l 1,-9 v -7 -7 -6 l 1,-6 v -5 -5 -5 l 1,-4 v -4 -3 -2 l 1,-1 v 0 0 2 l 1,3 v 4 6 6 l 1,8 v 10 11 12 l 1,13 v 13 13 13 l 1,11 v 11 9 8 l 1,7 v 7 6 6 l 1,6 v 5 5 4 l 1,3 v 3 2 0 h 1 v -1 -3 -4 l 1,-5 v -6 -8 -9 l 1,-10 v -12 -12 -13 l 1,-13 v -12 -12 -11 l 1,-9 v -8 -8 -7 -7 l 1,-6 v -6 -6 -5 l 1,-5 v -4 -3 -2 l 1,-1 v 1 1 2 l 1,4 v 5 6 7 l 1,9 v 10 11 13 l 1,12 v 13 13 12 l 1,11 v 9 9 8 l 1,8 v 7 7 7 l 1,6 v 5 6 4 l 1,3 v 2 2 0 l 1,-1 v -2 -3 -4 l 1,-6 v -6 -9 -9 l 1,-11 v -11 -13 -12 l 1,-13 v -12 -11 -11 l 1,-9 v -9 -8 -8 l 1,-8 v -8 -7 -6 l 1,-6 v -5 -4 -3 l 1,-2 v 0 0 1 l 1,3 v 3 5 6 l 1,8 v 8 10 11 l 1,12 v 12 12 12 l 1,11 v 11 10 10 l 1,8 v 9 9 8 l 1,7 v 7 7 5 l 1,4 v 4 2 1 h 1 v -1 -2 -3 l 1,-4 v -6 -6 -8 l 1,-9 v -11 -11 -11 l 1,-12 v -12 -12 -11 l 1,-11 v -10 -10 -10 l 1,-9 v -9 -9 -7 l 1,-8 v -6 -5 -4 l 1,-3 v -2 0 0 l 1,1 v 2 4 4 l 1,5 v 7 8 9 l 1,10 v 11 11 11 l 1,11 v 11 12 10 l 1,11 v 11 10 11 l 1,9 v 9 8 7 l 1,6 v 5 4 2 l 1,2 v 0 0 -2 l 1,-3 v -3 -5 -6 l 1,-7 v -8 -9 -9 l 1,-10 v -11 -11 -11 l 1,-12 v -11 -11 -12 l 1,-11 v -11 -11 -10 -9 l 1,-8 v -6 -6 -4 l 1,-4 v -2 -1 0 l 1,1 v 2 2 4 l 1,5 v 5 7 8 l 1,8 v 9 9 10 l 1,11 v 11 12 12 l 1,12 v 13 12 12 l 1,12 v 10 10 8 l 1,6 v 6 4 3 l 1,3 v 1 0 -1 l 1,-1 v -3 -3 -5 l 1,-5 v -6 -7 -8 l 1,-8 v -9 -9 -10 l 1,-11 v -12 -13 -13 l 1,-13 v -14 -13 -11 l 1,-11 v -9 -8 -7 l 1,-5 v -4 -3 -2 l 1,-1 v 0 1 1 l 1,3 v 3 4 5 l 1,6 v 6 7 7 l 1,9 v 9 10 12 l 1,12 v 14 14 14 l 1,15 v 13 12 11 l 1,10 v 8 6 6 l 1,4 v 3 2 1 l 1,1 v -1 -1 -2 l 1,-3 v -3 -4 -5 l 1,-5 v -6 -7 -7 l 1,-9 v -9 -12 -12 l 1,-14 v -15 -15 -15 l 1,-15 v -13 -12 -9 l 1,-9 v -7 -5 -5 l 1,-3 v -2 -2 -1 h 1 v 1 1 2 l 1,3 v 3 4 5 l 1,5 v 6 7 8 l 1,10 v 11 13 14 l 1,15 v 16 16 15 l 1,13 v 12 10 9 l 1,7 v 5 5 4 l 1,2 v 2 1 1 h 1 v -1 -1 -2 l 1,-2 v -4 -3 -5 l 1,-5 v -7 -8 -9 l 1,-11 v -12 -14 -15 l 1,-16 v -17 -15 -15 -12 l 1,-12 v -9 -8 -6 l 1,-6 v -4 -3 -3 l 1,-2 v -2 -1 0 h 1 v 1 2 2 l 1,3 v 4 5 5 l 1,7 v 9 10 11 l 1,13 v 15 16 16 l 1,15 v 15 14 12 l 1,10 v 9 7 6 l 1,6 v 4 3 3 l 1,3 v 1 2 0 h 1 v -1 -2 -3 l 1,-3 v -4 -6 -6 l 1,-8 v -9 -11 -12 l 1,-14 v -15 -16 -16 l 1,-15 v -14 -13 -11 l 1,-10 v -9 -7 -6 l 1,-6 v -4 -4 -3 l 1,-3 v -2 -1 0 h 1 v 1 2 3 l 1,3 v 5 5 7 l 1,8 v 9 11 12 l 1,14 v 14 16 15 l 1,15 v 13 13 12 l 1,10 v 9 8 7 l 1,6 v 5 5 3 l 1,3 v 2 1 1 l 1,-1 v -1 -2 -3 l 1,-4 v -4 -6 -7 l 1,-8 v -9 -11 -12 l 1,-13 v -14 -15 -14 l 1,-15 v -14 -13 -11 l 1,-11 v -10 -8 -7 l 1,-7 v -5 -4 -4 l 1,-2 v -2 -1 0 l 1,1 v 1 2 3 l 1,4 v 5 6 7 l 1,8 v 9 10 11 l 1,13 v 13 14 15 l 1,15 v 14 14 13 l 1,12 v 10 10 7 l 1,7 v 5 5 3 l 1,3 v 1 1 0 h 1 v -1 -3 -2 l 1,-4 v -4 -6 -6 l 1,-7 v -8 -9 -11 -11 l 1,-13 v -14 -15 -15 l 1,-15 v -15 -14 -13 l 1,-11 v -10 -8 -7 l 1,-5 v -4 -4 -2 l 1,-2 v -1 0 0 l 1,2 v 2 2 4 l 1,4 v 5 5 7 l 1,7 v 9 10 11 l 1,13 v 14 15 16 l 1,16 v 16 15 13 l 1,12 v 9 9 6 l 1,6 v 4 3 3 l 1,2 v 1 0 0 l 1,-1 v -2 -2 -3 l 1,-3 v -4 -5 -6 l 1,-6 v -8 -9 -11 l 1,-12 v -14 -16 -16 l 1,-17 v -17 -15 -14 l 1,-13 v -10 -9 -7 l 1,-6 v -5 -4 -3 l 1,-2 v -1 -1 -1 l 1,1 v 1 1 2 l 1,3 v 3 5 5 l 1,6 v 7 8 10 l 1,12 v 14 15 17 l 1,17 v 17 16 14 l 1,13 v 11 9 8 l 1,6 v 5 5 3 l 1,3 v 2 1 1 h 1 v -1 -1 -1 l 1,-3 v -3 -3 -5 l 1,-5 v -7 -8 -10 l 1,-11 v -13 -15 -16 l 1,-17 v -17 -16 -16 l 1,-13 v -12 -10 -9 l 1,-7 v -6 -5 -4 l 1,-3 v -3 -2 -2 h 1 v 0 0 1 l 1,2 v 2 4 4 l 1,4 v 6 8 8 l 1,10 v 12 14 14 l 1,16 v 17 16 16 l 1,15 v 13 11 10 l 1,9 v 7 6 5 l 1,5 v 3 3 2 l 1,1 v 0 0 -1 -1 l 1,-2 v -3 -4 -4 l 1,-6 v -6 -8 -9 l 1,-10 v -12 -14 -15 l 1,-15 v -17 -16 -15 l 1,-14 v -13 -12 -10 l 1,-8 v -7 -6 -5 l 1,-4 v -3 -2 -2 l 1,-1 v 0 1 1 l 1,2 v 2 3 4 l 1,5 v 6 6 8 l 1,9 v 11 11 14 l 1,14 v 16 16 17 l 1,16 v 14 14 12 l 1,10 v 8 7 6 l 1,5 v 4 2 2 l 1,2 v 0 0 0 l 1,-1 v -2 -3 -3 l 1,-4 v -4 -6 -6 l 1,-8 v -8 -10 -12 l 1,-13 v -14 -16 -17 l 1,-17 v -16 -16 -13 l 1,-12 v -10 -9 -6 l 1,-6 v -4 -4 -2 l 1,-2 v -1 -1 0 l 1,1 v 1 2 2 l 1,3 v 4 5 5 l 1,6 v 7 9 10 l 1,11 v 14 15 16 l 1,18 v 17 17 15 l 1,14 v 12 10 8 l 1,6 v 5 5 3 l 1,2 v 2 1 1 h 1 v -1 -1 -2 l 1,-2 v -3 -3 -4 l 1,-5 v -6 -7 -8 l 1,-10 v -12 -13 -16 l 1,-16 v -18 -18 -17 l 1,-15 v -14 -12 -10 l 1,-8 v -7 -5 -4 l 1,-4 v -3 -2 -1 l 1,-1 v 0 0 1 l 1,1 v 2 3 3 l 1,4 v 4 6 7 l 1,8 v 10 12 13 l 1,16 v 16 18 17 17 l 1,16 v 13 12 10 l 1,9 v 6 6 5 l 1,3 v 3 3 1 l 1,1 v 1 0 -1 l 1,-1 v -2 -3 -3 l 1,-4 v -5 -5 -7 l 1,-9 v -9 -12 -13 l 1,-15 v -16 -18 -17 l 1,-17 v -15 -14 -13 l 1,-10 v -9 -8 -6 l 1,-5 v -4 -3 -3 l 1,-1 v -2 0 0 h 1 v 2 1 3 l 1,3 v 3 5 5 l 1,7 v 8 9 11 l 1,12 v 14 16 16 l 1,17 v 17 17 14 l 1,14 v 11 10 8 l 1,7 v 6 4 4 l 1,3 v 2 1 1 h 1 v -1 -1 -1 l 1,-3 v -2 -4 -4 l 1,-5 v -7 -7 -8 l 1,-10 v -12 -13 -15 l 1,-16 v -17 -17 -17 l 1,-16 v -14 -12 -11 l 1,-9 v -7 -6 -4 l 1,-4 v -3 -2 -1 l 1,-1 v 0 0 1 l 1,2 v 2 3 3 l 1,4 v 5 5 7 l 1,8 v 9 11 12 l 1,15 v 16 17 18 l 1,17 v 17 15 13 l 1,12 v 9 8 6 l 1,5 v 4 3 2 l 1,2 v 1 0 0 h 1 v -2 -1 -2 l 1,-3 v -3 -5 -4 l 1,-6 v -7 -8 -10 l 1,-12 v -13 -16 -17 l 1,-18 v -18 -17 -16 l 1,-14 v -13 -10 -8 l 1,-7 v -6 -4 -3 l 1,-3 v -2 -2 -1 h 1 v 0 1 1 2 l 1,3 v 3 3 5 l 1,5 v 7 7 10 l 1,11 v 12 15 17 l 1,17 v 19 17 17 l 1,15 v 13 10 10 l 1,7 v 6 5 4 l 1,3 v 2 2 1 h 1 v 0 0 -1 l 1,-2 v -2 -2 -4 l 1,-4 v -5 -6 -7 l 1,-9 v -10 -12 -14 l 1,-15 v -17 -18 -18 l 1,-17 v -16 -14 -13 l 1,-10 v -9 -7 -5 l 1,-5 v -4 -3 -2 l 1,-2 v -1 0 0 h 1 v 2 1 2 l 1,3 v 4 4 5 l 1,6 v 8 9 10 l 1,13 v 14 15 17 l 1,18 v 18 16 16 l 1,13 v 12 10 9 l 1,6 v 6 4 4 l 1,2 v 3 1 1 h 1 v -1 -1 -1 l 1,-2 v -3 -3 -4 l 1,-5 v -6 -7 -8 l 1,-9 v -12 -13 -14 l 1,-17 v -17 -18 -18 l 1,-16 V 122 109 98 l 1,-9 v -8 -6 -5 l 1,-4 v -3 -2 -1 l 1,-1 v -1 1 0 l 1,1 v 2 2 3 l 1,3 v 4 5 6 l 1,7 v 8 9 12 l 1,13 v 15 17 18 l 1,18 v 18 17 15 l 1,13 v 11 9 7 l 1,6 v 5 4 3 l 1,2 v 1 1 1 h 1 v -1 -1 -1 l 1,-3 v -2 -4 -4 l 1,-4 v -6 -7 -8 l 1,-10 v -12 -14 -15 l 1,-18 v -18 -18 -18 -16 l 1,-14 V 109 99 90 l 1,-6 v -6 -4 -3 l 1,-3 v -2 -1 -1 h 1 v 0 1 1 l 1,2 v 3 3 3 l 1,5 v 5 6 8 l 1,9 v 11 13 14 l 1,17 v 18 18 18 l 1,18 v 15 14 11 l 1,10 v 8 6 5 l 1,4 v 3 3 2 l 1,1 v 1 0 0 l 1,-1 v -1 -2 -2 l 1,-3 v -4 -4 -5 l 1,-6 v -8 -9 -10 l 1,-13 v -15 -16 -17 l 1,-19 v -18 -17 -16 l 1,-14 v -12 -9 -9 l 1,-6 v -6 -4 -3 l 1,-3 v -2 -2 -1 h 1 v 0 1 1 l 1,2 v 2 3 4 l 1,5 v 5 6 8 l 1,9 v 11 13 15 l 1,16 v 17 19 17 l 1,17 v 15 14 11 l 1,9 v 8 6 5 l 1,4 v 3 2 2 l 1,1 v 0 0 0 l 1,-1 v -2 -2 -3 l 1,-3 v -4 -5 -6 l 1,-7 v -8 -9 -12 l 1,-13 v -15 -17 -18 l 1,-18 v -19 -17 -15 l 1,-14 V 95 85 78 l 1,-6 v -5 -4 -3 l 1,-2 v -2 -1 -1 h 1 v 1 0 2 l 1,1 v 3 2 4 l 1,4 v 5 6 7 l 1,9 v 11 12 15 l 1,16 v 18 18 18 l 1,18 v 16 14 12 l 1,9 v 8 7 5 l 1,4 v 3 3 2 l 1,1 v 0 1 -1 -1 l 1,-1 v -2 -3 -3 l 1,-4 v -4 -6 -6 l 1,-8 v -10 -11 -13 l 1,-15 v -17 -19 -18 l 1,-18 v -17 -15 -13 l 1,-11 v -9 -7 -6 l 1,-4 v -4 -2 -2 l 1,-2 v -1 0 0 l 1,1 v 1 1 2 l 1,3 v 3 4 4 l 1,6 v 6 8 9 l 1,12 v 13 15 17 l 1,18 v 19 18 18 l 1,16 v 14 12 9 l 1,8 v 6 6 4 l 1,3 v 3 2 1"
           stroke="#4472c4"
           stroke-width="2"
           stroke-linecap="round"
           stroke-linejoin="round"
           stroke-miterlimit="10"
           fill="none"
           id="path170" />
      </g>
      <g
         clip-path="url(#clip1)"
         id="g176">
        <path
           d="m 1649.5,325.5 h -17 -68 l -68,-1 -133,-7 -81,-5 -64,-3 -75,-9 -60,-13 -72,-20 -70,-19 -55,-16 -13,-8 -52,-22 -41,-9 -26,-5 v -1 l 100,-33 53,-16 14,-2 56,-18 71,-18.9999 58,-16 15,-2 139,-16 64,-5 131,-6 153,-4 69,-2"
           stroke="#000000"
           stroke-width="1.33333"
           stroke-linecap="round"
           stroke-linejoin="round"
           stroke-miterlimit="10"
           stroke-dasharray="2.66667, 2.66667"
           fill="none"
           id="path174" />
      </g>
      <g
         id="g180">
        <text
           font-family="Arial, Arial_MSFontService, sans-serif"
           font-weight="400"
           font-size="12px"
           transform="translate(724,366)"
           id="text178">-1.0</text>
      </g>
      <g
         id="g184">
        <text
           font-family="Arial, Arial_MSFontService, sans-serif"
           font-weight="400"
           font-size="12px"
           transform="translate(724,331)"
           id="text182">-0.8</text>
      </g>
      <g
         id="g188">
        <text
           font-family="Arial, Arial_MSFontService, sans-serif"
           font-weight="400"
           font-size="12px"
           transform="translate(724,296)"
           id="text186">-0.6</text>
      </g>
      <g
         id="g192">
        <text
           font-family="Arial, Arial_MSFontService, sans-serif"
           font-weight="400"
           font-size="12px"
           transform="translate(724,262)"
           id="text190">-0.4</text>
      </g>
      <g
         id="g196">
        <text
           font-family="Arial, Arial_MSFontService, sans-serif"
           font-weight="400"
           font-size="12px"
           transform="translate(724,227)"
           id="text194">-0.2</text>
      </g>
      <g
         id="g200">
        <text
           font-family="Arial, Arial_MSFontService, sans-serif"
           font-weight="400"
           font-size="12px"
           transform="translate(727.993,192)"
           id="text198">0.0</text>
      </g>
      <g
         id="g204">
        <text
           font-family="Arial, Arial_MSFontService, sans-serif"
           font-weight="400"
           font-size="12px"
           transform="translate(727.993,157)"
           id="text202">0.2</text>
      </g>
      <g
         id="g208">
        <text
           font-family="Arial, Arial_MSFontService, sans-serif"
           font-weight="400"
           font-size="12px"
           transform="translate(727.993,123)"
           id="text206">0.4</text>
      </g>
      <g
         id="g212">
        <text
           font-family="Arial, Arial_MSFontService, sans-serif"
           font-weight="400"
           font-size="12px"
           transform="translate(727.993,88)"
           id="text210">0.6</text>
      </g>
      <g
         id="g216">
        <text
           font-family="Arial, Arial_MSFontService, sans-serif"
           font-weight="400"
           font-size="12px"
           transform="translate(727.993,53)"
           id="text214">0.8</text>
      </g>
      <g
         id="g220">
        <text
           font-family="Arial, Arial_MSFontService, sans-serif"
           font-weight="400"
           font-size="12px"
           transform="translate(727.993,19)"
           id="text218">1.0</text>
      </g>
      <g
         id="g224">
        <text
           font-family="Arial, Arial_MSFontService, sans-serif"
           font-weight="400"
           font-size="12px"
           transform="translate(751.657,206)"
           id="text222">0</text>
      </g>
      <g
         id="g228">
        <text
           font-family="Arial, Arial_MSFontService, sans-serif"
           font-weight="400"
           font-size="12px"
           transform="translate(851.115,206)"
           id="text226">2</text>
      </g>
      <g
         id="g232">
        <text
           font-family="Arial, Arial_MSFontService, sans-serif"
           font-weight="400"
           font-size="12px"
           transform="translate(950.573,206)"
           id="text230">4</text>
      </g>
      <g
         id="g236">
        <text
           font-family="Arial, Arial_MSFontService, sans-serif"
           font-weight="400"
           font-size="12px"
           transform="translate(1050.03,206)"
           id="text234">6</text>
      </g>
      <g
         id="g240">
        <text
           font-family="Arial, Arial_MSFontService, sans-serif"
           font-weight="400"
           font-size="12px"
           transform="translate(1149.49,206)"
           id="text238">8</text>
      </g>
      <g
         id="g244">
        <text
           font-family="Arial, Arial_MSFontService, sans-serif"
           font-weight="400"
           font-size="12px"
           transform="translate(1245.61,206)"
           id="text242">10</text>
      </g>
      <g
         id="g248">
        <text
           font-family="Arial, Arial_MSFontService, sans-serif"
           font-weight="400"
           font-size="12px"
           transform="translate(1345.07,206)"
           id="text246">12</text>
      </g>
      <g
         id="g252">
        <text
           font-family="Arial, Arial_MSFontService, sans-serif"
           font-weight="400"
           font-size="12px"
           transform="translate(1444.53,206)"
           id="text250">14</text>
      </g>
      <g
         id="g256">
        <text
           font-family="Arial, Arial_MSFontService, sans-serif"
           font-weight="400"
           font-size="12px"
           transform="translate(1543.99,206)"
           id="text254">16</text>
      </g>
      <g
         id="g260">
        <text
           font-family="Arial, Arial_MSFontService, sans-serif"
           font-weight="400"
           font-size="13px"
           transform="rotate(-90,493.3335,-224.3335)"
           id="text258">Deslocamento vertical (cm)</text>
      </g>
      <g
         id="g264">
        <text
           font-family="Arial, Arial_MSFontService, sans-serif"
           font-weight="400"
           font-size="13px"
           transform="translate(1122.45,377)"
           id="text262">Tempo (s)</text>
      </g>
      <g
         id="g268">
        <path
           d="m 986,406 h 33"
           stroke="#4472c4"
           stroke-width="2"
           stroke-linecap="round"
           stroke-linejoin="round"
           stroke-miterlimit="10"
           fill="none"
           fill-rule="evenodd"
           id="path266" />
      </g>
      <g
         id="g272">
        <text
           font-family="Arial, Arial_MSFontService, sans-serif"
           font-weight="400"
           font-size="12px"
           transform="translate(1023.12,410)"
           id="text270">Autor</text>
      </g>
      <g
         id="g276">
        <path
           d="m 1075.5,406.5 h 33"
           stroke="#000000"
           stroke-width="1.33333"
           stroke-linecap="round"
           stroke-linejoin="round"
           stroke-miterlimit="10"
           stroke-dasharray="2.66667, 2.66667"
           fill="none"
           fill-rule="evenodd"
           id="path274" />
      </g>
      <g
         id="g280">
        <text
           font-family="Arial, Arial_MSFontService, sans-serif"
           font-weight="400"
           font-size="12px"
           transform="translate(1112.48,410)"
           id="text278">Envoltória - Hübner et al (2004)</text>
      </g>
    </g>
  </g>
</svg>
