<?xml version="1.0" encoding="UTF-8" standalone="no"?>
<!-- Created with Inkscape (http://www.inkscape.org/) -->

<svg
   width="253.73541mm"
   height="115.09375mm"
   viewBox="0 0 253.73541 115.09375"
   version="1.1"
   id="svg1"
   inkscape:version="1.3.2 (091e20e, 2023-11-25, custom)"
   sodipodi:docname="disp_y.svg"
   xmlns:inkscape="http://www.inkscape.org/namespaces/inkscape"
   xmlns:sodipodi="http://sodipodi.sourceforge.net/DTD/sodipodi-0.dtd"
   xmlns="http://www.w3.org/2000/svg"
   xmlns:svg="http://www.w3.org/2000/svg">
  <sodipodi:namedview
     id="namedview1"
     pagecolor="#ffffff"
     bordercolor="#000000"
     borderopacity="0.25"
     inkscape:showpageshadow="2"
     inkscape:pageopacity="0.0"
     inkscape:pagecheckerboard="0"
     inkscape:deskcolor="#d1d1d1"
     inkscape:document-units="mm"
     inkscape:zoom="1.0343421"
     inkscape:cx="756.03615"
     inkscape:cy="133.90154"
     inkscape:window-width="1920"
     inkscape:window-height="1017"
     inkscape:window-x="1912"
     inkscape:window-y="-8"
     inkscape:window-maximized="1"
     inkscape:current-layer="layer1" />
  <defs
     id="defs1">
    <clipPath
       id="clip0">
      <rect
         x="328"
         y="0"
         width="959"
         height="433"
         id="rect1" />
    </clipPath>
    <clipPath
       id="clip0-8">
      <rect
         x="332"
         y="0"
         width="959"
         height="435"
         id="rect1-6" />
    </clipPath>
  </defs>
  <g
     inkscape:label="Camada 1"
     inkscape:groupmode="layer"
     id="layer1"
     transform="translate(155.575,-113.77083)">
    <g
       clip-path="url(#clip0-8)"
       transform="matrix(0.26458333,0,0,0.26458333,-243.41667,113.77083)"
       id="g45">
      <rect
         x="332"
         y="0"
         width="959"
         height="435"
         fill="#ffffff"
         id="rect2" />
      <g
         id="g2">
        <path
           d="m 405.5,371.5 h 867 m -867,-51 h 867 m -867,-51 h 867 m -867,-102 h 867 m -867,-51 h 867 m -867,-51 h 867 m -867,-51 h 867"
           stroke="#d9d9d9"
           stroke-linejoin="round"
           stroke-miterlimit="10"
           fill="none"
           id="path2" />
      </g>
      <g
         id="g3">
        <path
           d="m 492.5,14.5 v 357 m 87,-357 v 357 m 86,-357 v 357 m 87,-357 v 357 m 87,-357 v 357 m 87,-357 v 357 m 86,-357 v 357 m 87,-357 v 357 m 87,-357 v 357 m 86,-357 v 357"
           stroke="#d9d9d9"
           stroke-linejoin="round"
           stroke-miterlimit="10"
           fill="none"
           id="path3" />
      </g>
      <g
         id="g4">
        <rect
           x="405.5"
           y="14.5001"
           width="867"
           height="357"
           stroke="#000000"
           stroke-linejoin="round"
           stroke-miterlimit="10"
           fill="none"
           id="rect3" />
      </g>
      <g
         id="g5">
        <path
           d="M 0,0 1.04987e-4,357"
           stroke="#000000"
           stroke-linejoin="round"
           stroke-miterlimit="10"
           fill="none"
           fill-rule="evenodd"
           transform="matrix(1,0,0,-1,405.5,371.5)"
           id="path4" />
      </g>
      <g
         id="g6">
        <path
           d="m 405.5,371.5 h 3 m -3,-10 h 3 m -3,-10 h 3 m -3,-10 h 3 m -3,-11 h 3 m -3,-10 h 3 m -3,-10 h 3 m -3,-10 h 3 m -3,-10 h 3 m -3,-11 h 3 m -3,-10 h 3 m -3,-10 h 3 m -3,-10 h 3 m -3,-10 h 3 m -3,-11 h 3 m -3,-10 h 3 m -3,-10 h 3 m -3,-10 h 3 m -3,-10 h 3 m -3,-11 h 3 m -3,-10 h 3 m -3,-10 h 3 m -3,-10 h 3 m -3,-10 h 3 m -3,-11 h 3 m -3,-10 h 3 m -3,-10 h 3 m -3,-10 h 3 m -3,-10 h 3 m -3,-11 h 3 m -3,-10 h 3 m -3,-10 h 3 m -3,-10 h 3 m -3,-10 h 3 m -3,-11 h 3 m -3,-10 h 3 m -6,357 h 7 m -7,-51 h 7 m -7,-51 h 7 m -7,-51 h 7 m -7,-51 h 7 m -7,-51 h 7 m -7,-51 h 7 m -7,-51 h 7"
           stroke="#000000"
           stroke-linejoin="round"
           stroke-miterlimit="10"
           fill="none"
           id="path5" />
      </g>
      <g
         id="g7">
        <path
           d="m 405.5,218.5 h 867"
           stroke="#000000"
           stroke-linejoin="round"
           stroke-miterlimit="10"
           fill="none"
           fill-rule="evenodd"
           id="path6" />
      </g>
      <g
         id="g8">
        <path
           d="m 405.5,215.5 v 3 m 18,-3 v 3 m 17,-3 v 3 m 17,-3 v 3 m 18,-3 v 3 m 17,-3 v 3 m 17,-3 v 3 m 18,-3 v 3 m 17,-3 v 3 m 17,-3 v 3 m 18,-3 v 3 m 17,-3 v 3 m 17,-3 v 3 m 18,-3 v 3 m 17,-3 v 3 m 17,-3 v 3 m 18,-3 v 3 m 17,-3 v 3 m 17,-3 v 3 m 18,-3 v 3 m 17,-3 v 3 m 17,-3 v 3 m 18,-3 v 3 m 17,-3 v 3 m 17,-3 v 3 m 18,-3 v 3 m 17,-3 v 3 m 18,-3 v 3 m 17,-3 v 3 m 17,-3 v 3 m 18,-3 v 3 m 17,-3 v 3 m 17,-3 v 3 m 18,-3 v 3 m 17,-3 v 3 m 17,-3 v 3 m 18,-3 v 3 m 17,-3 v 3 m 17,-3 v 3 m 18,-3 v 3 m 17,-3 v 3 m 17,-3 v 3 m 18,-3 v 3 m 17,-3 v 3 m 17,-3 v 3 m 18,-3 v 3 m 17,-3 v 3 m 17,-3 v 3 m 18,-3 v 3 m 17,-3 v 3 m 17,-3 v 3 m -867,-3 v 7 m 87,-7 v 7 m 87,-7 v 7 m 86,-7 v 7 m 87,-7 v 7 m 87,-7 v 7 m 87,-7 v 7 m 86,-7 v 7 m 87,-7 v 7 m 87,-7 v 7 m 86,-7 v 7"
           stroke="#000000"
           stroke-linejoin="round"
           stroke-miterlimit="10"
           fill="none"
           id="path7" />
      </g>
      <g
         id="g9">
        <path
           d="m 405,219 54,-1 h 16 13 l 14,-1 14,-1 11,1 12,1 h 9 l 10,-1 8,-2 9,-2 h 7 l 8,3 5,3 5,3 6,3 6,2 h 5 l 5,-3 4,-4 4,-3 5,-4 8,-1 5,2 5,4 3,5 4,4 5,3 4,3 6,-2 3,-5 4,-6 4,-6 3,-6 3,-3 3,-2 h 3 l 4,4 2,4 3,8 2,8 4,9 2,11 2,5 3,5 2,3 3,-1 2,-3 2,-5 2,-10 2,-10 2,-14 2,-19 3,-18 2,-16 3,-16 2,-5 2,-4 3,4 3,10 2,13 1,20 4,22 v 17 l 2,16 2,20 1,18 1,19 2,21 3,13 1,9 3,4 3,-4 v -10 l 3,-17 1,-16 1,-21 2,-28 2,-22 2,-30 1,-26 1,-23 2,-24 1,-15 1,-10 2,-6 3,-3 2,6 2,13 4,22 6,59 1,35 2,28 3,38 3,29 3,12 3,2 2,-3 2,-11 4,-23 3,-40 3,-39 3,-39 4,-36 1,-18 3,-14 3,-3 3,6 3,9 3,34 3,26 3,41 4,42 3,34 2,27 3,10 2,3 5,-7 2,-22 2,-21 3,-30 2,-27 v -24 l 3,-31 1,-24 2,-29 2,-25 1,-8 3,-5 3,3 3,10 v 15 l 5,38 4,46 2,35 3,49 4,43 3,11 1,4 2,-3 3,-8 2,-12 4,-34 3,-36 2,-34 3,-39 2,-31 2,-17 3,-14 2,-7 3,7 3,15 3,27 4,27 3,32 3,39 2,33 3,25 2,14 3,6 4,-5 4,-20 3,-27 2,-27 3,-31 1,-31 3,-28 2,-31 1,-18 2,-13 2,-7 2,-1 3,12 3,14 4,29 1,28 2,29 4,37 1,32 2,28 3,21 2,15 2,10 2,1 3,-6 2,-13 2,-21 3,-37 2,-35 2,-41 3,-33 3,-42 2,-17 2,-6 4,6 5,26 4,36 3,41 3,37 3,40 2,20 2,13 3,10 5,-5 2,-11 2,-17 3,-26 3,-33 3,-32 2,-30 3,-29 4,-30 2,-6 5,9 3,23 5,41 3,33 3,44 3,35 2,27 3,19 4,9 4,-8 4,-31 2,-33 2,-34 2,-35 3,-42 1,-35 4,-23 2,-17 3,-5 3,11 4,37 4,50 3,40 4,55 3,32 2,18 2,9 3,1 3,-11 3,-23 5,-47 3,-37 2,-39 3,-32 3,-20 1,-10 2,-5 5,7 6,36 3,31 4,42 3,36 2,20"
           stroke="#000000"
           stroke-width="1.66667"
           stroke-linecap="round"
           stroke-linejoin="round"
           stroke-miterlimit="10"
           stroke-dasharray="3.33333, 3.33333"
           fill="none"
           id="path8" />
      </g>
      <g
         id="g10">
        <path
           d="m 406,219 v 0 0 h 1 v 0 0 0 h 1 v 0 0 h 1 v 0 0 0 h 1 v 0 0 h 1 v 0 0 0 h 1 v 0 0 h 1 v 0 0 0 h 1 v 0 0 h 1 v 0 0 0 h 1 v 0 0 h 1 v 0 0 0 h 1 v 0 0 h 1 v 0 0 0 h 1 v 0 0 h 1 v 0 0 0 h 1 v 0 0 h 1 v 0 0 0 h 1 v 0 0 h 1 v 0 0 0 h 1 v 0 0 h 1 v 0 0 0 h 1 v 0 0 h 1 v 0 0 0 h 1 v 0 1 h 1 v 0 0 0 h 1 v 0 0 h 1 v 0 0 0 h 1 v 0 0 h 1 v 0 0 0 h 1 v 0 0 h 1 v 0 0 0 h 1 v 0 0 h 1 v 0 0 0 h 1 v 0 0 h 1 v 0 0 0 h 1 v 0 -1 h 1 v 0 0 0 h 1 v 0 0 h 1 v 0 0 0 h 1 v 0 0 h 1 v 0 0 0 h 1 v -1 0 h 1 v 0 0 0 h 1 v 0 0 h 1 v 0 0 0 h 1 v 0 0 h 1 v 0 0 0 h 1 v 0 -1 h 1 v 0 0 0 h 1 v 0 0 h 1 v 0 0 0 h 1 v 0 0 h 1 v 0 0 -1 h 1 v 0 0 h 1 v 0 0 0 h 1 v 0 0 l 1,-1 v 0 0 0 h 1 v 0 0 h 1 v 0 0 -1 h 1 v 0 0 h 1 v 0 0 0 h 1 v 0 0 h 1 v 0 0 0 h 1 v 0 0 h 1 v 0 0 0 h 1 v 0 0 h 1 v 0 1 h 1 v 0 0 0 h 1 v 0 0 l 1,1 v 0 0 0 h 1 v 0 1 h 1 v 0 0 0 h 1 v 0 1 h 1 v 0 0 0 h 1 v 0 0 l 1,1 v 0 0 0 h 1 v 0 0 h 1 v 0 0 0 h 1 v 0 0 h 1 v 0 0 -1 h 1 v 0 0 h 1 v 0 0 -1 h 1 v 0 0 l 1,-1 v 0 0 0 l 1,-1 v 0 0 l 1,-1 v 0 0 -1 h 1 v 0 -1 h 1 v 0 -1 0 l 1,-1 v 0 0 l 1,-1 v 0 0 0 l 1,-1 v 0 0 l 1,-1 v 0 0 0 l 1,-1 v 0 0 h 1 v 0 -1 0 h 1 v 0 0 h 1 v 0 0 0 h 1 v 0 0 h 1 v 0 0 0 h 1 v 1 0 h 1 v 0 1 0 h 1 v 0 1 h 1 v 1 0 0 l 1,1 v 0 1 h 1 v 0 1 0 l 1,1 v 0 1 h 1 v 1 0 1 h 1 v 1 0 l 1,1 v 0 0 1 h 1 v 1 0 h 1 v 1 0 0 l 1,1 v 0 0 h 1 v 1 0 0 h 1 v 0 0 h 1 v 0 0 0 h 1 v 0 0 h 1 v 0 -1 0 h 1 v 0 -1 h 1 v 0 -1 0 l 1,-1 v 0 0 l 1,-1 v 0 -1 0 l 1,-1 v 0 -1 h 1 v -1 0 -1 h 1 v -1 0 l 1,-1 v 0 -1 0 l 1,-1 v 0 -1 h 1 v 0 -1 0 l 1,-1 v 0 0 h 1 v -1 0 0 h 1 v 0 0 h 1 v 0 0 0 h 1 v 0 0 h 1 v 1 0 0 l 1,1 v 0 0 l 1,1 v 0 1 0 h 1 v 1 0 l 1,1 v 1 0 1 h 1 v 1 0 l 1,1 v 0 1 0 l 1,1 v 0 1 h 1 v 0 1 0 h 1 v 1 0 h 1 v 0 0 0 h 1 v 0 0 h 1 v 0 0 0 l 1,-1 v 0 0 l 1,-1 v 0 -1 0 l 1,-1 v 0 -1 h 1 v -1 0 l 1,-1 v 0 -1 -1 h 1 v -1 0 l 1,-1 v 0 -1 0 l 1,-1 v 0 0 l 1,-1 v 0 0 0 h 1 v 0 0 h 1 v 0 0 0 h 1 v 1 0 h 1 v 1 0 1 l 1,1 v 0 1 l 1,1 v 0 1 1 l 1,1 v 1 0 l 1,1 v 1 1 1 l 1,1 v 1 0 l 1,1 v 1 1 0 l 1,1 v 1 0 l 1,1 v 0 1 0 h 1 v 1 0 h 1 v 0 0 0 h 1 v -1 0 h 1 v -1 0 -1 h 1 v -1 0 l 1,-1 v -1 -1 0 l 1,-1 v -1 -1 l 1,-1 v -1 -1 -1 l 1,-1 v -1 -1 l 1,-1 v 0 -1 -1 l 1,-1 v -1 -1 h 1 v -1 -1 0 l 1,-1 v 0 -1 h 1 v 0 0 0 h 1 v 0 0 h 1 v 0 0 1 h 1 v 1 0 l 1,1 v 0 1 0 l 1,1 v 1 1 l 1,1 v 0 1 1 l 1,1 v 1 1 l 1,1 v 1 1 0 l 1,1 v 1 1 l 1,1 v 1 0 1 l 1,1 v 0 1 h 1 v 1 0 0 l 1,1 v 0 0 h 1 v 0 0 0 h 1 v 0 0 l 1,-1 v 0 0 -1 h 1 v 0 -1 h 1 v -1 0 -1 l 1,-1 v 0 -1 l 1,-1 v 0 -1 -1 h 1 v -1 -1 h 1 v -1 -1 0 l 1,-1 v 0 -1 h 1 v -1 0 -1 h 1 v 0 0 l 1,-1 v 0 0 0 h 1 v 0 1 h 1 v 0 0 1 h 1 v 0 1 h 1 v 1 0 1 l 1,1 v 0 1 l 1,1 v 0 1 1 h 1 v 1 1 h 1 v 1 1 1 h 1 v 1 0 l 1,1 v 1 0 1 h 1 v 1 0 h 1 v 1 0 0 l 1,1 v 0 0 h 1 v 0 0 0 l 1,-1 v 0 0 l 1,-1 v 0 0 -1 h 1 v -1 0 l 1,-1 v -1 0 -1 l 1,-1 v 0 -1 l 1,-1 v 0 -1 -1 l 1,-1 v 0 -1 l 1,-1 v -1 -1 -1 l 1,-1 v 0 -1 l 1,-1 v -1 -1 l 1,-1 v 0 -1 0 l 1,-1 v 0 -1 h 1 v 0 0 -1 h 1 v 0 1 h 1 v 0 0 0 l 1,1 v 0 0 l 1,1 v 0 1 0 l 1,1 v 1 0 l 1,1 v 1 0 1 l 1,1 v 1 1 l 1,1 v 1 1 1 l 1,1 v 1 1 h 1 v 1 1 1 l 1,1 v 0 1 l 1,1 v 0 1 0 h 1 v 1 0 h 1 v 0 0 0 h 1 v 0 0 l 1,-1 v 0 0 0 l 1,-1 v 0 -1 h 1 v -1 0 -1 l 1,-1 v -1 0 l 1,-1 v -1 -1 -1 l 1,-1 v -1 -1 l 1,-1 v -1 -1 -1 l 1,-1 v 0 -1 l 1,-1 v 0 -1 0 l 1,-1 v 0 0 h 1 v 0 0 0 h 1 v 0 0 h 1 v 1 0 0 l 1,1 v 0 1 l 1,1 v 0 1 1 l 1,1 v 1 1 l 1,1 v 1 1 2 l 1,1 v 1 1 l 1,2 v 1 1 1 l 1,1 v 1 1 l 1,1 v 1 1 0 l 1,1 v 1 0 h 1 v 1 0 0 h 1 v 0 0 h 1 v 0 0 0 l 1,-1 v 0 -1 h 1 v -1 -1 -1 l 1,-1 v -1 -1 l 1,-1 v -1 -1 -2 l 1,-1 v -1 -2 l 1,-1 v -2 -1 -1 l 1,-2 v -1 -2 l 1,-1 v -1 -2 -1 l 1,-1 v -1 -1 l 1,-1 v -1 -1 -1 h 1 v -1 0 l 1,-1 v 0 0 0 h 1 v 0 0 h 1 v 1 0 1 l 1,1 v 0 1 l 1,1 v 1 1 2 l 1,1 v 1 2 l 1,1 v 1 2 1 l 1,1 v 2 1 l 1,2 v 1 1 1 l 1,2 v 1 1 l 1,1 v 1 1 1 l 1,1 v 0 1 l 1,1 v 0 1 0 h 1 v 0 0 h 1 v 0 0 -1 h 1 v -1 -1 l 1,-1 v 0 -1 -1 l 1,-1 v -2 -1 l 1,-1 v -1 -1 -2 l 1,-1 v -1 -2 l 1,-1 v -1 -1 -2 l 1,-1 v -1 -1 l 1,-1 v -1 -1 -1 l 1,-1 v -1 -1 h 1 v -1 0 0 h 1 v 0 0 h 1 v 0 1 h 1 v 1 1 1 l 1,1 v 1 1 l 1,1 v 1 2 1 l 1,1 v 2 1 l 1,2 v 1 2 1 l 1,2 v 2 1 l 1,2 v 1 2 1 l 1,2 v 1 1 l 1,2 v 1 1 1 l 1,1 v 1 0 l 1,1 v 0 0 1 h 1 v 0 -1 h 1 v 0 -1 -1 h 1 v -1 -1 l 1,-1 v -1 -1 -2 l 1,-1 v -1 -2 l 1,-1 v -1 -2 -1 l 1,-2 v -2 -1 l 1,-2 v -1 -2 -2 l 1,-1 v -2 -2 l 1,-1 v -2 -1 -2 l 1,-1 v -1 -1 l 1,-2 v 0 -1 -1 l 1,-1 v 0 -1 h 1 v 0 0 0 h 1 v 1 0 l 1,1 v 0 1 1 l 1,1 v 1 1 l 1,1 v 1 1 1 l 1,2 v 1 1 l 1,2 v 1 1 2 l 1,1 v 2 1 l 1,2 v 1 1 2 l 1,1 v 1 1 l 1,1 v 1 1 1 h 1 v 1 0 h 1 v 0 1 0 l 1,-1 v 0 0 h 1 v -1 0 -1 l 1,-1 v -1 0 l 1,-1 v -1 -1 -1 l 1,-1 v -1 -2 l 1,-1 v -1 -1 -2 l 1,-1 v -1 -2 l 1,-1 v -1 -1 -2 l 1,-1 v -1 -1 l 1,-1 v -1 -1 0 l 1,-1 v 0 -1 h 1 v 0 0 0 h 1 v 0 1 h 1 v 1 0 1 l 1,1 v 1 1 l 1,1 v 1 2 1 l 1,1 v 1 2 l 1,1 v 2 1 2 l 1,1 v 2 1 l 1,2 v 2 1 2 l 1,1 v 2 1 l 1,1 v 2 1 1 l 1,1 v 1 1 l 1,1 v 0 1 0 h 1 v 0 0 h 1 v 0 0 0 l 1,-1 v 0 -1 l 1,-1 v 0 -1 -1 l 1,-1 v -1 -1 l 1,-1 v -1 -2 -1 l 1,-1 v -2 -1 l 1,-1 v -2 -1 -2 l 1,-1 v -1 -2 l 1,-1 v -2 -1 -1 l 1,-1 v -2 -1 l 1,-1 v -1 -1 -1 l 1,-1 v 0 -1 l 1,-1 v 0 -1 0 h 1 v 0 0 h 1 v 0 0 0 l 1,1 v 0 1 h 1 v 1 1 1 h 1 v 1 1 l 1,1 v 1 1 l 1,1 v 1 1 1 l 1,1 v 1 1 l 1,1 v 1 1 1 l 1,1 v 1 0 l 1,1 v 1 0 1 h 1 v 0 1 h 1 v 0 0 0 h 1 v 0 0 l 1,-1 v 0 -1 0 l 1,-1 v 0 -1 h 1 v -1 -1 -1 h 1 v -1 -1 l 1,-1 v -1 -1 -1 l 1,-1 v -1 -1 l 1,-1 v -1 -1 -1 h 1 v -1 -1 l 1,-1 v 0 -1 -1 h 1 v -1 0 h 1 v 0 0 0 h 1 v 0 0 l 1,1 v 0 1 0 l 1,1 v 1 0 l 1,1 v 1 1 1 l 1,1 v 2 1 l 1,1 v 1 1 2 l 1,1 v 1 2 l 1,1 v 1 2 1 l 1,1 v 2 1 l 1,1 v 1 1 1 l 1,2 v 1 0 l 1,1 v 1 1 0 l 1,1 v 0 1 h 1 v 0 0 0 h 1 v 0 0 h 1 v -1 0 -1 h 1 v -1 -1 h 1 v -1 -1 -1 l 1,-1 v -1 -1 l 1,-1 v -1 -1 -1 l 1,-1 v -1 -1 l 1,-1 v -2 -1 -1 l 1,-1 v -1 -1 l 1,-1 v -1 -1 -1 l 1,-1 v -1 -1 l 1,-1 v 0 -1 -1 h 1 v -1 0 l 1,-1 v 0 0 0 l 1,-1 v 0 0 l 1,1 v 0 0 0 h 1 v 1 0 l 1,1 v 0 1 0 l 1,1 v 1 0 l 1,1 v 1 0 1 l 1,1 v 1 0 l 1,1 v 1 0 1 l 1,1 v 0 1 h 1 v 1 0 0 h 1 v 1 0 h 1 v 0 0 0 h 1 v 0 0 l 1,-1 v 0 0 -1 h 1 v -1 0 l 1,-1 v 0 -1 -1 h 1 v -1 -1 l 1,-1 v 0 -1 -1 l 1,-1 v -1 -1 h 1 v -1 -1 -1 l 1,-1 v -1 0 l 1,-1 v -1 0 -1 h 1 v -1 0 h 1 v 0 0 0 h 1 v 0 0 l 1,1 v 0 1 0 l 1,1 v 1 0 l 1,1 v 1 1 1 l 1,1 v 1 2 l 1,1 v 1 1 1 l 1,2 v 1 1 l 1,2 v 1 2 1 l 1,1 v 2 1 l 1,2 v 1 1 l 1,2 v 1 1 1 l 1,1 v 1 1 l 1,1 v 0 1 1 h 1 v 0 1 h 1 v 0 0 0 h 1 v 0 -1 h 1 v 0 -1 -1 h 1 v -1 -1 h 1 v -1 -1 -1 l 1,-1 v -1 -1 l 1,-1 v -1 -2 -1 l 1,-1 v -1 -1 l 1,-1 v -2 -1 -1 l 1,-1 v -1 -2 l 1,-1 v -1 -1 -1 l 1,-1 v -1 0 l 1,-1 v -1 -1 0 l 1,-1 v 0 0 l 1,-1 v 0 0 0 h 1 v 0 0 h 1 v 0 1 0 h 1 v 1 0 l 1,1 v 0 1 1 h 1 v 1 1 h 1 v 1 1 1 h 1 v 1 1 h 1 v 1 0 1 h 1 v 0 1 h 1 v 0 0 0 h 1 v 0 0 h 1 v 0 -1 0 h 1 v -1 0 l 1,-1 v -1 0 -1 l 1,-1 v 0 -1 l 1,-1 v -1 -1 -1 l 1,-1 v -1 -1 l 1,-1 v -1 -1 -1 l 1,-1 v -1 -1 l 1,-1 v -1 -1 -1 l 1,-1 v -1 0 l 1,-1 v 0 -1 0 h 1 v 0 0 h 1 v 0 0 1 h 1 v 1 0 l 1,1 v 1 1 1 l 1,1 v 1 1 l 1,2 v 1 1 2 l 1,1 v 2 1 l 1,2 v 1 2 2 l 1,1 v 2 2 l 1,1 v 2 2 1 l 1,2 v 2 1 l 1,2 v 1 1 2 l 1,1 v 1 1 l 1,1 v 1 1 1 h 1 v 1 0 h 1 v 0 0 0 h 1 v 0 0 l 1,-1 v 0 -1 -1 h 1 v -1 -1 l 1,-1 v -1 -1 -1 l 1,-1 v -1 -1 l 1,-2 v -1 -1 -1 l 1,-1 v -2 -1 l 1,-1 v -1 -2 -1 l 1,-1 v -1 -1 l 1,-1 v -1 -1 -1 l 1,-1 v -1 -1 h 1 v -1 -1 0 l 1,-1 v 0 0 h 1 v 0 0 0 h 1 v 0 0 h 1 v 1 0 1 h 1 v 1 0 l 1,1 v 0 1 1 h 1 v 1 0 l 1,1 v 1 0 1 h 1 v 1 0 h 1 v 1 0 0 h 1 v 0 0 h 1 v -1 0 h 1 v -1 0 -1 h 1 v -1 -1 h 1 v -1 -1 -1 l 1,-1 v -1 -1 l 1,-1 v -1 -1 -1 l 1,-1 v -2 -1 l 1,-1 v -1 -2 -1 l 1,-1 v -2 -1 l 1,-1 v -1 -1 -2 l 1,-1 v -1 -1 h 1 v -1 -1 0 l 1,-1 v 0 0 h 1 v 0 0 1 h 1 v 1 0 l 1,1 v 1 1 1 l 1,1 v 1 1 l 1,1 v 2 1 2 l 1,1 v 2 1 l 1,2 v 2 2 1 l 1,2 v 2 2 l 1,2 v 2 1 2 l 1,2 v 2 2 l 1,1 v 2 2 1 l 1,2 v 2 1 l 1,1 v 2 1 1 l 1,1 v 1 1 h 1 v 1 0 1 h 1 v 0 0 h 1 v 0 -1 0 h 1 v -1 0 l 1,-1 v -1 -1 0 l 1,-1 v -1 -1 l 1,-1 v -1 -1 -1 l 1,-1 v -1 -1 l 1,-1 v -1 -1 -1 l 1,-1 v -1 -1 l 1,-1 v -1 -1 -1 l 1,-1 v 0 -1 l 1,-1 v 0 -1 -1 h 1 v 0 -1 h 1 v 0 0 0 h 1 v 0 0 h 1 v 0 0 1 h 1 v 0 1 h 1 v 0 1 0 l 1,1 v 0 0 l 1,1 v 0 0 1 h 1 v 0 0 h 1 v 0 0 0 h 1 v 0 -1 h 1 v 0 -1 -1 h 1 v -1 -1 l 1,-1 v -1 -1 -1 l 1,-1 v -1 -1 l 1,-2 v -1 -1 -1 l 1,-2 v -1 -1 l 1,-1 v -2 -1 -2 l 1,-1 v -1 -2 l 1,-1 v -2 -1 -1 l 1,-2 v -1 -1 l 1,-2 v -1 -1 -1 l 1,-1 v -1 0 l 1,-1 v 0 -1 0 h 1 v 0 0 h 1 v 1 0 0 l 1,1 v 1 1 l 1,1 v 1 1 1 l 1,1 v 1 2 l 1,1 v 2 1 2 l 1,2 v 1 2 l 1,2 v 2 1 2 l 1,2 v 2 2 l 1,2 v 2 1 2 l 1,2 v 2 2 l 1,2 v 1 2 2 l 1,1 v 2 1 l 1,2 v 1 1 2 l 1,1 v 1 1 h 1 v 1 1 0 l 1,1 v 0 0 h 1 v 0 0 h 1 v 0 0 -1 h 1 v 0 -1 h 1 v -1 -1 0 l 1,-1 v 0 -1 l 1,-1 v 0 -1 0 l 1,-1 v -1 0 l 1,-1 v -1 0 -1 h 1 v -1 0 l 1,-1 v 0 -1 0 h 1 v -1 0 h 1 v -1 0 0 h 1 v 0 0 h 1 v 0 0 0 h 1 v 0 1 h 1 v 0 0 0 h 1 v 1 0 h 1 v 0 0 0 h 1 v 0 0 h 1 v 0 0 -1 h 1 v -1 0 l 1,-1 v 0 -1 -1 l 1,-1 v -1 -1 l 1,-1 v -2 -1 -1 l 1,-1 v -2 -1 l 1,-2 v -1 -2 -1 l 1,-1 v -2 -2 l 1,-1 v -2 -1 -2 l 1,-1 v -2 -1 l 1,-2 v -2 -1 -2 l 1,-1 v -2 -1 l 1,-2 v -1 -2 -1 l 1,-2 v -1 -1 l 1,-1 v -1 -1 0 l 1,-1 v 0 -1 h 1 v 0 0 0 h 1 v 0 1 h 1 v 1 1 1 h 1 v 1 1 l 1,2 v 1 1 2 l 1,1 v 1 2 l 1,2 v 1 2 1 l 1,2 v 2 2 l 1,2 v 1 2 2 l 1,2 v 2 2 l 1,2 v 1 2 2 l 1,2 v 2 2 l 1,2 v 2 1 2 l 1,2 v 2 1 l 1,2 v 1 2 1 l 1,1 v 1 1 l 1,1 v 1 1 1 h 1 v 1 0 l 1,1 v 0 0 1 h 1 v 0 0 h 1 v 0 0 0 h 1 v 0 0 h 1 v 0 0 0 h 1 v 0 0 l 1,-1 v 0 0 0 h 1 v 0 0 h 1 v 0 0 -1 h 1 v 0 0 h 1 v 0 0 0 h 1 v 0 0 h 1 v 0 0 0 h 1 v 0 0 h 1 v 0 0 0 h 1 v 0 0 h 1 v 0 0 0 l 1,-1 v 0 0 l 1,-1 v 0 -1 -1 h 1 v -1 -1 l 1,-1 v -1 -2 -1 l 1,-1 v -2 -1 l 1,-2 v -1 -2 -1 l 1,-2 v -2 -1 l 1,-2 v -2 -2 -1 l 1,-2 v -2 -2 l 1,-2 v -2 -2 -2 l 1,-1 v -2 -2 l 1,-2 v -2 -2 l 1,-2 v -2 -2 -2 l 1,-2 v -2 -2 l 1,-2 v -2 -1 -2 l 1,-1 v -2 -1 l 1,-1 v -1 -1 -1 l 1,-1 v 0 -1 h 1 v -1 0 0 h 1 v 1 0 l 1,1 v 0 1 1 l 1,1 v 1 1 l 1,1 v 1 2 1 l 1,2 v 1 2 l 1,2 v 1 2 2 l 1,2 v 2 2 l 1,2 v 2 2 2 l 1,2 v 2 2 l 1,3 v 2 2 3 l 1,2 v 2 3 l 1,2 v 2 3 2 l 1,2 v 2 2 l 1,3 v 2 1 2 l 1,2 v 2 1 l 1,2 v 1 2 1 l 1,1 v 1 1 l 1,1 v 1 1 1 l 1,1 v 1 1 l 1,1 v 0 1 1 l 1,1 v 0 1 l 1,1 v 0 1 0 l 1,1 v 1 0 l 1,1 v 0 1 0 l 1,1 v 0 1 h 1 v 0 1 0 l 1,1 v 0 0 h 1 v 1 0 0 h 1 v 0 0 h 1 v 0 0 0 h 1 v 0 0 l 1,-1 v 0 0 0 l 1,-1 v 0 -1 h 1 v -1 -1 0 l 1,-1 v -1 -1 l 1,-2 v -1 -1 -2 l 1,-1 v -2 -2 l 1,-1 v -2 -2 -2 l 1,-2 v -2 -3 l 1,-2 v -2 -3 -2 l 1,-3 v -2 -3 l 1,-3 v -2 -3 -3 l 1,-3 v -3 -2 l 1,-3 v -3 -3 -3 l 1,-3 v -3 -3 l 1,-3 v -3 -3 -3 l 1,-3 v -2 -3 l 1,-3 v -2 -3 -2 l 1,-3 v -2 -2 l 1,-2 v -2 -2 -2 l 1,-2 v -1 -1 l 1,-2 v -1 0 -1 l 1,-1 v 0 0 h 1 v 0 0 1 l 1,1 v 0 1 l 1,1 v 1 2 1 l 1,2 v 1 2 l 1,2 v 2 2 2 l 1,2 v 2 3 l 1,2 v 3 2 3 l 1,2 v 3 3 l 1,3 v 3 3 3 l 1,3 v 3 3 l 1,3 v 3 4 3 l 1,3 v 3 3 l 1,3 v 4 3 3 l 1,3 v 3 3 l 1,3 v 2 3 3 l 1,3 v 2 3 l 1,2 v 3 2 2 l 1,3 v 2 2 l 1,2 v 2 2 2 l 1,2 v 2 1 l 1,2 v 2 2 2 l 1,1 v 2 2 l 1,1 v 2 1 l 1,2 v 1 1 1 l 1,2 v 1 0 l 1,1 v 1 1 0 l 1,1 v 0 0 l 1,1 v 0 0 -1 h 1 v 0 -1 h 1 v -1 -1 -1 l 1,-1 v -1 -2 l 1,-1 v -2 -1 -2 l 1,-2 v -2 -1 l 1,-2 v -3 -2 -2 l 1,-2 v -3 -3 l 1,-2 v -3 -3 -3 l 1,-4 v -3 -3 l 1,-4 v -4 -4 -3 l 1,-4 v -4 -5 l 1,-4 v -4 -4 -4 l 1,-5 v -4 -4 l 1,-5 v -4 -4 -5 l 1,-4 v -4 -5 l 1,-4 v -4 -4 -4 l 1,-4 v -4 -4 l 1,-4 v -4 -3 -4 l 1,-3 v -3 -4 l 1,-3 v -3 -2 -3 l 1,-3 v -2 -2 l 1,-3 v -2 -1 -2 l 1,-2 v -1 -1 l 1,-1 v -1 -1 0 h 1 v 0 0 h 1 v 1 1 0 l 1,2 v 1 1 l 1,2 v 2 2 2 l 1,2 v 2 3 l 1,2 v 3 2 3 l 1,3 v 3 3 l 1,3 v 3 4 3 l 1,3 v 4 3 l 1,4 v 4 3 4 l 1,4 v 4 4 l 1,3 v 4 4 4 l 1,5 v 4 4 l 1,4 v 4 4 5 l 1,4 v 4 5 l 1,4 v 4 4 5 l 1,4 v 4 4 l 1,4 v 4 4 4 l 1,3 v 4 4 l 1,3 v 4 3 3 l 1,4 v 3 3 l 1,3 v 3 3 2 l 1,3 v 3 2 l 1,3 v 2 2 2 l 1,2 v 1 2 l 1,1 v 1 1 1 h 1 v 1 0 h 1 v 0 -1 0 l 1,-1 v -1 -1 l 1,-2 v -1 -2 -2 l 1,-2 v -2 -2 l 1,-3 v -2 -3 -3 l 1,-3 v -3 -3 l 1,-3 v -3 -4 -3 l 1,-4 v -4 -4 l 1,-3 v -4 -4 -4 l 1,-4 v -4 -5 l 1,-4 v -4 -5 -4 l 1,-5 v -4 -5 l 1,-5"
           stroke="#4e95d9"
           stroke-width="2"
           stroke-linecap="round"
           stroke-linejoin="round"
           stroke-miterlimit="10"
           fill="none"
           id="path9" />
      </g>
      <g
         id="g11">
        <path
           d="m 406,219 v 0 0 h 1 v 0 0 0 h 1 v 0 0 h 1 v 0 0 0 h 1 v 0 0 h 1 v 0 0 0 h 1 v 0 0 h 1 v 0 0 0 h 1 v 0 0 h 1 v 0 0 0 h 1 v 0 0 h 1 v 0 0 0 h 1 v 0 0 h 1 v 0 0 0 h 1 v 0 0 h 1 v 0 0 0 h 1 v 0 0 h 1 v 0 0 0 h 1 v 0 0 h 1 v 0 0 0 h 1 v 0 0 h 1 v 0 0 0 h 1 v 0 0 h 1 v 0 0 0 h 1 v 0 0 h 1 v 1 0 0 h 1 v 0 0 h 1 v 0 0 0 h 1 v 0 0 h 1 v 0 0 0 h 1 v 0 0 h 1 v 0 0 0 h 1 v 0 0 h 1 v 0 0 0 h 1 v 0 0 h 1 v 0 0 0 h 1 v -1 0 h 1 v 0 0 0 h 1 v 0 0 h 1 v 0 0 0 h 1 v 0 0 h 1 v 0 0 0 l 1,-1 v 0 0 h 1 v 0 0 0 h 1 v 0 0 h 1 v 0 0 0 h 1 v 0 0 h 1 v 0 -1 0 h 1 v 0 0 h 1 v 0 0 0 h 1 v 0 0 h 1 v 0 0 0 h 1 v 0 -1 h 1 v 0 0 0 h 1 v 0 0 h 1 v 0 0 0 h 1 v -1 0 h 1 v 0 0 0 h 1 v 0 0 h 1 v 0 0 0 l 1,-1 v 0 0 h 1 v 0 0 0 h 1 v 0 0 h 1 v 0 0 0 h 1 v 0 0 h 1 v 0 0 0 h 1 v 0 0 l 1,1 v 0 0 h 1 v 0 0 0 h 1 v 0 0 l 1,1 v 0 0 0 h 1 v 0 0 h 1 v 0 0 1 h 1 v 0 0 h 1 v 0 0 0 h 1 v 0 0 h 1 v 0 0 0 h 1 v 0 0 h 1 v 0 0 0 h 1 v 0 -1 h 1 v 0 0 0 h 1 v -1 0 h 1 v 0 -1 0 h 1 v 0 -1 h 1 v 0 -1 0 h 1 v 0 -1 h 1 v 0 -1 0 h 1 v -1 0 h 1 v -1 0 0 l 1,-1 v 0 0 l 1,-1 v 0 0 0 l 1,-1 v 0 0 h 1 v 0 -1 0 h 1 v 0 0 l 1,-1 v 0 0 0 h 1 v 0 0 h 1 v 0 0 0 h 1 v 0 0 h 1 v 0 0 0 h 1 v 1 0 h 1 v 0 0 0 l 1,1 v 0 0 h 1 v 0 1 0 h 1 v 0 1 h 1 v 0 0 1 h 1 v 0 1 h 1 v 0 0 1 h 1 v 0 0 l 1,1 v 0 0 0 l 1,1 v 0 0 h 1 v 0 1 0 h 1 v 0 0 h 1 v 1 0 0 h 1 v 0 0 h 1 v 0 1 0 h 1 v 0 0 h 1 v 0 0 0 h 1 v 0 0 h 1 v 0 0 0 h 1 v 0 0 h 1 v 0 0 0 h 1 v 0 0 h 1 v 0 0 0 h 1 v 0 0 l 1,1 v 0 0 0 h 1 v 0 0 l 1,1 v 0 0 0 l 1,1 v 0 0 l 1,1 v 0 1 0 h 1 v 1 1 h 1 v 1 0 1 l 1,1 v 0 1 l 1,1 v 0 1 1 l 1,1 v 0 1 l 1,1 v 1 1 0 l 1,1 v 1 0 l 1,1 v 1 0 1 l 1,1 v 0 1 h 1 v 1 0 0 l 1,1 v 0 0 h 1 v 0 0 0 h 1 v 0 0 h 1 v -1 0 0 l 1,-1 v 0 -1 h 1 v -1 -1 0 l 1,-1 v -1 -1 l 1,-1 v -1 0 -1 l 1,-1 v -1 -1 l 1,-1 v -1 -1 l 1,-1 v -1 -1 -1 h 1 v -1 -1 l 1,-1 v 0 -1 0 l 1,-1 v 0 -1 h 1 v -1 0 0 h 1 v 0 0 h 1 v 0 0 1 h 1 v 0 1 h 1 v 1 0 1 h 1 v 1 1 l 1,1 v 0 1 1 l 1,1 v 1 0 l 1,1 v 1 1 0 l 1,1 v 1 0 l 1,1 v 1 0 1 h 1 v 0 1 h 1 v 0 0 0 h 1 v 0 0 h 1 v -1 0 -1 h 1 v -1 0 l 1,-1 v -1 -1 -1 h 1 v -1 -1 l 1,-1 v -1 -2 -1 l 1,-1 v -1 -1 l 1,-1 v -1 -1 -1 l 1,-1 v -1 -1 l 1,-1 v -1 -1 0 l 1,-1 v 0 -1 h 1 v -1 0 0 h 1 v 0 0 h 1 v 0 1 0 l 1,1 v 0 1 l 1,1 v 0 1 1 l 1,1 v 1 1 l 1,1 v 2 1 1 l 1,1 v 2 1 l 1,1 v 2 1 1 l 1,2 v 1 1 l 1,1 v 2 1 1 l 1,1 v 1 1 h 1 v 1 1 0 l 1,1 v 0 0 h 1 v 0 0 0 h 1 v 0 -1 h 1 v -1 -1 0 l 1,-1 v -1 -1 l 1,-1 v -1 -1 -1 l 1,-1 v -2 -1 l 1,-1 v -2 -1 -1 l 1,-2 v -1 -2 l 1,-1 v -1 -2 -1 l 1,-2 v -1 -1 l 1,-2 v -1 -1 -1 l 1,-1 v -1 -1 l 1,-1 v 0 -1 0 l 1,-1 v 0 0 h 1 v 0 0 0 h 1 v 0 0 l 1,1 v 0 1 0 l 1,1 v 1 0 l 1,1 v 1 0 1 l 1,1 v 1 1 l 1,1 v 1 1 1 l 1,1 v 0 1 l 1,1 v 1 1 0 l 1,1 v 1 0 l 1,1 v 0 0 1 h 1 v 0 0 h 1 v 0 0 0 l 1,-1 v 0 0 l 1,-1 v 0 -1 0 l 1,-1 v 0 -1 l 1,-1 v -1 0 -1 l 1,-1 v -1 -1 l 1,-1 v -1 -1 0 l 1,-1 v -1 -1 l 1,-1 v -1 -1 0 l 1,-1 v -1 0 l 1,-1 v 0 0 -1 h 1 v 0 0 h 1 v 0 0 l 1,1 v 0 1 0 l 1,1 v 0 1 l 1,1 v 1 0 1 l 1,1 v 1 1 l 1,1 v 1 2 1 l 1,1 v 1 1 l 1,2 v 1 1 2 l 1,1 v 1 1 l 1,2 v 1 1 1 l 1,1 v 1 1 l 1,1 v 1 1 1 h 1 v 1 0 l 1,1 v 0 1 0 h 1 v 0 0 h 1 v -1 0 0 l 1,-1 v 0 -1 h 1 v -1 -1 -1 l 1,-1 v 0 -1 l 1,-1 v -1 -1 -1 l 1,-1 v -2 -1 l 1,-1 v -1 -1 -1 l 1,-1 v -1 -1 l 1,-2 v -1 -1 -1 l 1,-1 v -1 -1 l 1,-1 v -1 -1 -1 l 1,-1 v 0 -1 l 1,-1 v 0 -1 0 h 1 v -1 0 h 1 v 0 0 0 h 1 v 0 1 h 1 v 0 1 0 h 1 v 1 0 l 1,1 v 0 1 0 l 1,1 v 1 0 l 1,1 v 0 1 1 h 1 v 1 0 l 1,1 v 0 1 0 h 1 v 1 0 h 1 v 0 0 0 h 1 v 0 0 h 1 v 0 0 -1 h 1 v 0 -1 h 1 v -1 0 -1 h 1 v -1 -1 h 1 v -1 -1 -1 h 1 v -1 -1 l 1,-1 v -1 -1 0 l 1,-1 v -1 -1 h 1 v -1 -1 0 l 1,-1 v 0 0 l 1,-1 v 0 0 0 h 1 v 1 0 h 1 v 1 0 1 h 1 v 1 1 l 1,1 v 0 1 1 l 1,1 v 1 1 l 1,1 v 2 1 1 l 1,1 v 2 1 l 1,1 v 2 1 1 l 1,2 v 1 2 l 1,1 v 2 1 2 l 1,1 v 1 2 l 1,1 v 1 1 1 l 1,1 v 1 1 l 1,1 v 0 1 0 l 1,1 v 0 0 h 1 v 0 0 0 h 1 v 0 -1 h 1 v -1 0 -1 l 1,-1 v -1 0 l 1,-1 v -1 -1 -1 l 1,-2 v -1 -1 l 1,-1 v -1 -2 -1 l 1,-1 v -1 -2 l 1,-1 v -1 -1 -2 l 1,-1 v -1 -1 l 1,-2 v -1 -1 -1 l 1,-1 v -1 -1 l 1,-1 v 0 -1 -1 h 1 v -1 0 l 1,-1 v 0 0 h 1 v 0 0 0 h 1 v 0 0 l 1,1 v 0 0 1 h 1 v 1 0 l 1,1 v 0 1 1 h 1 v 1 0 l 1,1 v 0 1 0 l 1,1 v 0 0 h 1 v 1 0 0 h 1 v 0 0 h 1 v 0 0 -1 h 1 v 0 -1 h 1 v -1 0 -1 h 1 v -1 -1 l 1,-1 v -1 0 -1 l 1,-1 v -1 -1 l 1,-1 v -1 -1 -1 l 1,-1 v -1 -1 l 1,-1 v -1 -1 -1 l 1,-1 v -1 0 l 1,-1 v 0 -1 0 h 1 v 0 0 h 1 v 0 0 1 h 1 v 1 0 l 1,1 v 1 1 1 l 1,1 v 1 1 l 1,2 v 1 1 2 l 1,1 v 2 1 l 1,2 v 1 2 2 l 1,2 v 1 2 l 1,2 v 2 2 2 l 1,1 v 2 2 l 1,2 v 2 1 2 l 1,1 v 2 1 l 1,2 v 1 1 1 l 1,1 v 1 1 l 1,1 v 0 1 0 h 1 v 1 0 h 1 v -1 0 0 l 1,-1 v 0 -1 l 1,-1 v -1 0 -1 l 1,-1 v -1 -2 l 1,-1 v -1 -1 -1 l 1,-2 v -1 -1 l 1,-2 v -1 -1 -2 l 1,-1 v -2 -1 l 1,-1 v -2 -1 -1 l 1,-1 v -2 -1 l 1,-1 v -1 -1 -1 l 1,-1 v -1 0 l 1,-1 v -1 0 -1 h 1 v 0 0 l 1,-1 v 0 0 0 h 1 v 1 0 h 1 v 0 1 0 l 1,1 v 0 0 l 1,1 v 0 1 0 h 1 v 1 0 h 1 v 0 1 0 h 1 v 0 0 h 1 v -1 0 0 l 1,-1 v 0 0 l 1,-1 v -1 0 -1 l 1,-1 v -1 0 l 1,-1 v -1 -1 -1 l 1,-1 v -1 -2 l 1,-1 v -1 -1 -1 l 1,-1 v -2 -1 l 1,-1 v -1 -2 -1 l 1,-1 v -1 -1 l 1,-1 v -1 -1 -1 l 1,-1 v 0 -1 h 1 v -1 0 0 h 1 v 0 1 h 1 v 1 0 1 l 1,1 v 1 1 l 1,1 v 1 1 2 l 1,1 v 2 1 l 1,2 v 1 2 2 l 1,2 v 2 1 l 1,2 v 2 2 l 1,2 v 3 2 2 l 1,2 v 2 2 l 1,2 v 2 2 2 l 1,2 v 2 2 l 1,2 v 2 2 1 l 1,2 v 2 1 l 1,1 v 1 2 1 h 1 v 1 1 h 1 v 1 0 0 h 1 v 0 0 h 1 v 0 -1 0 l 1,-1 v -1 0 l 1,-1 v -1 -1 -1 l 1,-1 v 0 -1 l 1,-2 v -1 -1 -1 l 1,-1 v -1 -1 l 1,-1 v -1 -2 -1 l 1,-1 v -1 -1 l 1,-1 v -1 -2 -1 l 1,-1 v -1 -1 l 1,-1 v 0 -1 -1 l 1,-1 v 0 -1 h 1 v -1 0 -1 h 1 v 0 0 h 1 v -1 0 0 h 1 v 0 0 h 1 v 0 0 0 h 1 v 0 0 h 1 v 0 -1 0 h 1 v -1 0 h 1 v -1 -1 0 l 1,-1 v -1 -1 l 1,-1 v -1 -1 -1 l 1,-1 v -1 -1 l 1,-1 v -2 -1 -1 l 1,-2 v -1 -1 l 1,-2 v -1 -1 -2 l 1,-1 v -2 -1 l 1,-1 v -2 -1 -2 l 1,-1 v -1 -1 l 1,-2 v -1 -1 -1 l 1,-1 v -1 -1 h 1 v -1 -1 0 h 1 v 0 0 h 1 v 0 1 1 h 1 v 1 1 l 1,1 v 1 1 1 l 1,2 v 1 2 l 1,1 v 2 2 1 l 1,2 v 2 2 l 1,2 v 2 2 2 l 1,2 v 2 2 l 1,3 v 2 2 2 l 1,3 v 2 2 l 1,3 v 2 2 3 l 1,2 v 2 2 l 1,2 v 2 3 2 l 1,2 v 1 2 l 1,2 v 2 1 2 l 1,1 v 2 1 l 1,1 v 1 1 0 l 1,1 v 1 0 h 1 v 1 0 0 h 1 v 0 0 h 1 v -1 0 0 l 1,-1 v 0 -1 h 1 v -1 0 -1 h 1 v -1 -1 h 1 v -1 -1 -1 l 1,-1 v -1 -1 l 1,-1 v -1 -1 -1 l 1,-1 v 0 -1 l 1,-1 v -1 -1 -1 l 1,-1 v -1 -1 l 1,-1 v 0 -1 -1 l 1,-1 v 0 -1 l 1,-1 v 0 -1 -1 h 1 v -1 0 l 1,-1 v -1 0 -1 l 1,-1 v 0 -1 l 1,-1 v -1 -1 l 1,-1 v -1 -1 -1 l 1,-1 v -1 -1 l 1,-2 v -1 -1 -2 l 1,-1 v -2 -2 l 1,-1 v -2 -2 -1 l 1,-2 v -2 -2 l 1,-1 v -2 -2 -1 l 1,-2 v -2 -2 l 1,-1 v -2 -2 -1 l 1,-2 v -2 -1 l 1,-2 v -1 -2 -1 l 1,-2 v -1 -2 l 1,-1 v -1 -1 -1 l 1,-1 v -1 0 l 1,-1 v 0 0 0 h 1 v 1 0 h 1 v 1 1 1 l 1,1 v 1 1 l 1,1 v 2 1 2 l 1,1 v 2 2 l 1,2 v 2 2 2 l 1,2 v 2 2 l 1,3 v 2 2 3 l 1,2 v 3 2 l 1,3 v 2 3 2 l 1,3 v 3 2 l 1,3 v 3 3 3 l 1,2 v 3 3 l 1,3 v 3 2 3 l 1,3 v 2 3 l 1,2 v 3 2 2 l 1,2 v 2 2 l 1,2 v 1 2 1 l 1,2 v 1 1 l 1,1 v 1 1 1 l 1,1 v 1 0 l 1,1 v 1 0 0 l 1,1 v 0 0 h 1 v 0 0 0 h 1 v -1 0 h 1 v -1 -1 0 l 1,-1 v -1 -1 h 1 v -1 -1 -2 l 1,-1 v -1 -1 l 1,-1 v -2 -1 -1 l 1,-2 v -1 -2 l 1,-1 v -1 -2 -1 l 1,-2 v -1 -2 l 1,-1 v -2 -1 -2 l 1,-1 v -2 -1 l 1,-2 v -1 -2 -1 l 1,-2 v -2 -1 l 1,-2 v -2 -2 -2 l 1,-2 v -2 -2 l 1,-2 v -3 -2 -2 l 1,-3 v -2 -2 l 1,-3 v -2 -3 -2 l 1,-3 v -2 -3 l 1,-3 v -2 -3 -2 l 1,-3 v -2 -3 l 1,-2 v -3 -2 -3 l 1,-2 v -3 -2 l 1,-3 v -2 -2 -2 l 1,-3 v -2 -2 l 1,-1 v -2 -2 -1 l 1,-2 v -1 -1 l 1,-1 v -1 -1 0 h 1 v -1 0 h 1 v 1 0 1 l 1,1 v 1 1 l 1,1 v 2 1 2 l 1,2 v 1 2 l 1,2 v 3 2 2 l 1,3 v 2 3 l 1,3 v 3 2 3 l 1,4 v 3 3 l 1,3 v 4 3 4 l 1,3 v 4 3 l 1,4 v 4 4 4 l 1,4 v 4 4 l 1,4 v 3 4 l 1,4 v 4 4 4 l 1,4 v 3 4 l 1,3 v 4 3 3 l 1,4 v 3 3 l 1,3 v 2 3 3 l 1,2 v 3 2 l 1,2 v 2 2 2 l 1,1 v 2 1 l 1,2 v 1 1 1 l 1,1 v 1 1 h 1 v 1 0 1 h 1 v 0 -1 h 1 v 0 -1 -1 h 1 v -1 -2 l 1,-1 v -1 -2 -1 l 1,-2 v -2 -2 l 1,-2 v -2 -2 -3 l 1,-2 v -3 -2 l 1,-3 v -3 -3 -2 l 1,-3 v -3 -3 l 1,-4 v -3 -3 -3 l 1,-3 v -4 -3 l 1,-3 v -4 -3 -4 l 1,-4 v -3 -4 l 1,-4 v -3 -4 -4 l 1,-4 v -4 -4 l 1,-4 v -4 -4 -4 l 1,-4 v -4 -4 l 1,-4 v -4 -4 -3 l 1,-4 v -4 -3 l 1,-4 v -3 -4 -3 l 1,-3 v -3 -3 l 1,-3 v -3 -3 -3 l 1,-2 v -3 -2 l 1,-2 v -3 -2 -1 l 1,-2 v -2 -1 l 1,-1 v -2 0 -1 l 1,-1 v 0 -1 h 1 v 0 1 0 l 1,1 v 0 1 l 1,2 v 1 1 2 l 1,2 v 2 2 l 1,2 v 3 3 2 l 1,3 v 3 3 l 1,3 v 3 4 3 l 1,3 v 4 4 l 1,3 v 4 4 4 l 1,4 v 4 4 l 1,4 v 4 4 5 l 1,4 v 4 5 l 1,4 v 5 4 5 l 1,4 v 5 4 l 1,5 v 4 5 4 l 1,5 v 4 4 l 1,5 v 4 4 4 l 1,4 v 4 4 l 1,4 v 3 4 3 l 1,4 v 3 3 l 1,3 v 3 3 3 l 1,2 v 3 2 l 1,2 v 3 2 2 l 1,1 v 2 2 l 1,1 v 1 1 1 l 1,1 v 0 0 l 1,1 v 0 -1 0 l 1,-1 v 0 -1 l 1,-1 v -2 -1 -2 l 1,-1 v -2 -2 l 1,-3 v -2 -2 -3 l 1,-3 v -3 -3 l 1,-3 v -3 -4 -3 l 1,-3 v -4 -4 l 1,-3 v -4 -4 -4 l 1,-4 v -4 -4 l 1,-4 v -4 -4 -4 l 1,-4 v -5 -4 l 1,-5 v -4 -5 -4 l 1,-4 v -5 -4 l 1,-5 v -4 -5 -4 l 1,-4 v -4 -5 l 1,-4 v -4 -4 l 1,-3 v -4 -4 -4 l 1,-3 v -4 -3 l 1,-3 v -4 -3 -3 l 1,-3 v -3 -2 l 1,-3 v -3 -2 -3 l 1,-2 v -2 -3 l 1,-2 v -2 -1 -2 l 1,-2 v -2 -1 l 1,-1 v -2 -1 -1 l 1,-1 v 0 -1 h 1 v 0 0 0 l 1,1 v 0 1 l 1,1 v 1 2 1 l 1,2 v 1 2 l 1,2 v 2 2 3 l 1,2 v 2 3 l 1,3 v 2 3 3 l 1,3 v 3 3 l 1,3 v 3 4 3 l 1,3 v 4 3 l 1,4 v 4 3 4 l 1,4 v 4 4 l 1,4 v 4 4 4 l 1,5 v 4 4 l 1,5 v 4 4 5 l 1,4 v 4 4 l 1,4 v 4 4 4 l 1,4 v 4 4 l 1,3 v 4 3 4 l 1,3 v 3 4 l 1,3 v 3 3 3 l 1,3 v 3 3 l 1,3 v 2 3 3 l 1,2 v 3 2 l 1,2 v 2 2 2 l 1,1 v 2 1 l 1,2 v 1 1 0 l 1,1 v 0 0 h 1 v 0 -1 0 l 1,-1 v -1 -2 l 1,-1 v -2 -1 -2 l 1,-2 v -2 -2 l 1,-3 v -2 -3 -2 l 1,-3 v -2 -3 l 1,-3 v -3 -3 -3 l 1,-3 v -3 -4 l 1,-3 v -4 -3 -4 l 1,-3 v -4 -4 l 1,-4 v -4 -4 -4 l 1,-4 v -4 -4 l 1,-5 v -4 -4 -5 l 1,-4 v -5 -4 l 1,-4 v -5 -4 -4 l 1,-4 v -4 -4 l 1,-4 v -4 -4 -3 l 1,-4 v -3 -4 l 1,-3 v -3 -3 -4 l 1,-3 v -3 -2 l 1,-3 v -3 -3 -3 l 1,-2 v -3 -2 l 1,-3 v -2 -3 -2 l 1,-2 v -2 -2 l 1,-2 v -1 -2 -1 l 1,-1 v -1 -1 l 1,-1 v 0 -1 0 h 1 v 1 0 l 1,1 v 1 1 1 l 1,1 v 2 2 l 1,1 v 2 2 3 l 1,2 v 2 3 l 1,2 v 3 2 3 l 1,3 v 2 3 l 1,3 v 3 3 3 l 1,4 v 3 3 l 1,4 v 3 4 4 l 1,3 v 4 4 l 1,4 v 4 5 4 l 1,4 v 4 5 l 1,4 v 5 4 4 l 1,5 v 4 5 l 1,4 v 4 4 l 1,4 v 4 4 4 l 1,4 v 3 4 l 1,3 v 4 3 3 l 1,3 v 4 3 l 1,3 v 2 3 3 l 1,3 v 3 3 l 1,2 v 3 2 3 l 1,2 v 2 3 l 1,2 v 2 1 2 l 1,1 v 1 1 l 1,1 v 1 0 1 h 1 v -1 0 l 1,-1 v 0 -1 -2 l 1,-1 v -1 -2 l 1,-2 v -2 -2 -2 l 1,-2 v -3 -2 l 1,-3 v -3 -2 -3 l 1,-3 v -3 -3 l 1,-3 v -3 -3 -3 l 1,-3 v -3 -4 l 1,-3 v -3 -4 -4 l 1,-4 v -3 -4 l 1,-5 v -4 -4 -4 l 1,-5 v -4 -5 l 1,-4 v -5 -4 -5 l 1,-5 v -4 -5 l 1,-4 v -4 -4 -5 l 1,-4 v -4 -3 l 1,-4 v -4 -3 -4 l 1,-3 v -3 -4 l 1,-3 v -3 -3 -3 l 1,-3 v -3 -2 l 1,-3 v -3 -2 -3 l 1,-3 v -2 -2 l 1,-3 v -2 -2 -2 l 1,-2 v -1 -2 l 1,-1 v -2 -1 -1 l 1,-1 v 0 0 l 1,-1 v 1 0 0 l 1,1 v 1 1 l 1,2 v 1 2 2 l 1,2 v 2 2 l 1,2 v 3 2 3 l 1,2 v 3 3 l 1,2 v 3 3 3 l 1,3 v 3 3 l 1,3 v 3 3 4 l 1,3 v 4 3 l 1,4 v 4 3 4 l 1,4 v 4 5 l 1,4 v 4 5 4 l 1,4 v 5 4 l 1,5 v 4 5 4 l 1,4 v 5 4 l 1,4 v 4 4 4 l 1,3 v 4 3 l 1,4 v 3 3 3 l 1,3 v 3 3 l 1,3 v 3 3 3 l 1,2 v 3 3 l 1,2 v 3 2 3 l 1,2 v 3 2 l 1,2 v 2 2 1 l 1,2 v 1 1 l 1,1 v 1 1 0 h 1 v 0 0 l 1,-1 v -1 -1 -1 l 1,-1 v -2 -1 l 1,-2 v -2 -2 -3 l 1,-2 v -2 -3 l 1,-3 v -2 -3 -3 l 1,-3 v -2 -3 l 1,-3 v -3 -3 -4 l 1,-3 v -3 -3 l 1,-4 v -3 -4 -3 l 1,-4 v -4 -4 l 1,-4 v -4 -4 -5 l 1,-4 v -4 -5 l 1,-5 v -4 -5 -4 l 1,-5 v -5 -4 l 1,-5 v -4 -4 -4 l 1,-4 v -4 -4 l 1,-4 v -4 -3 l 1,-4 v -3 -3 -3 l 1,-3 v -3 -3 l 1,-3 v -3 -3 -2 l 1,-3 v -3 -2 l 1,-3 v -2 -2 -3 l 1,-2 v -2 -2 l 1,-2 v -2 -2 -2 l 1,-1 v -2 -1 l 1,-1 v -1 0 -1 h 1 v 0 0 l 1,1 v 0 1 1 l 1,1 v 2 1 l 1,2 v 2 2 2 l 1,2 v 3 2 l 1,3 v 2 3 3 l 1,2 v 3 3 l 1,3 v 3 3 3 l 1,3 v 3 3 l 1,3 v 3 4 3 l 1,4 v 3 4 l 1,4 v 4 4 4 l 1,4 v 5 4 l 1,4 v 5 4 5 l 1,4 v 5 4 l 1,5 v 4 4 5 l 1,4 v 4 4 l 1,4 v 4 3 4 l 1,3 v 4 3 l 1,3 v 3 3 3 l 1,3 v 3 3 l 1,2 v 3 3 2 l 1,3 v 3 2 l 1,3 v 2 2 3 l 1,2 v 2 2 l 1,1 v 2 1 2 l 1,1 v 1 0 l 1,1 v 0 0 0 l 1,-1 v 0 -1 l 1,-1 v -2 -1 -2 l 1,-2 v -2 -2 l 1,-2 v -2 -3 -2 l 1,-3 v -3 -2 l 1,-3 v -3 -3 -3 l 1,-3 v -3 -3 l 1,-3 v -3 -3 -3 l 1,-4 v -3 -4 l 1,-3 v -4 -4 -3 l 1,-4 v -4 -5 l 1,-4 v -4 -5 -4 l 1,-5 v -4 -5 l 1,-5 v -4 -5 -4 l 1,-5 v -4 -5 l 1,-4 v -4 -4 -4 l 1,-4 v -3 -4 l 1,-3 v -4 -3 -3 l 1,-3 v -3 -3 l 1,-3 v -3 -3 -2 l 1,-3 v -2 -3 l 1,-3 v -2 -2 -3 l 1,-2 v -2 -2 l 1,-3 v -2 -1 -2 l 1,-2 v -1 -1 l 1,-1 v -1 -1 -1 h 1 v 0 0 h 1 v 1 1 0 l 1,2 v 1 2 l 1,1 v 2 2 2 l 1,3 v 2 3 l 1,2"
           stroke="#e97132"
           stroke-width="2"
           stroke-linecap="round"
           stroke-linejoin="round"
           stroke-miterlimit="10"
           fill="none"
           id="path10" />
      </g>
      <g
         id="g12">
        <path
           d="m 406,219 v 0 0 h 1 v 0 0 0 h 1 v 0 0 h 1 v 0 0 0 h 1 v 0 0 h 1 v 0 0 0 h 1 v 0 0 h 1 v 0 0 0 h 1 v 0 0 h 1 v 0 0 0 h 1 v 0 0 h 1 v 0 0 0 h 1 v 0 0 h 1 v 0 0 0 h 1 v 0 0 h 1 v 0 0 0 h 1 v 0 0 h 1 v 0 0 0 h 1 v 0 0 h 1 v 0 0 0 h 1 v 0 0 h 1 v 0 0 0 h 1 v 0 0 h 1 v 0 0 0 h 1 v 0 0 h 1 v 0 0 0 h 1 v 0 0 h 1 v 0 0 0 h 1 v 0 0 h 1 v 0 0 0 h 1 v 0 0 h 1 v 0 0 0 h 1 v 0 0 h 1 v 0 0 0 h 1 v 0 0 h 1 v 0 0 0 h 1 v 0 0 h 1 v -1 0 0 h 1 v 0 0 h 1 v 0 0 0 h 1 v 0 0 h 1 v 0 0 0 l 1,-1 v 0 0 h 1 v 0 0 0 h 1 v 0 0 h 1 v 0 0 0 h 1 v 0 0 h 1 v 0 0 0 h 1 v 0 0 h 1 v 0 0 0 h 1 v -1 0 h 1 v 0 0 0 h 1 v 0 0 h 1 v 0 0 0 h 1 v 0 0 h 1 v 0 0 -1 h 1 v 0 0 h 1 v 0 0 0 h 1 v 0 0 h 1 v 0 0 -1 h 1 v 0 0 h 1 v 0 0 0 h 1 v 0 0 h 1 v 0 0 0 h 1 v 0 0 l 1,1 v 0 0 0 h 1 v 0 0 h 1 v 0 1 h 1 v 0 0 0 h 1 v 1 0 h 1 v 0 0 0 l 1,1 v 0 0 h 1 v 0 1 0 h 1 v 0 0 h 1 v 0 1 0 h 1 v 0 0 h 1 v 0 0 0 l 1,1 v 0 0 h 1 v 0 0 0 h 1 v 0 0 h 1 v 0 -1 0 h 1 v 0 0 h 1 v 0 0 -1 h 1 v 0 0 h 1 v -1 0 0 h 1 v 0 -1 h 1 v 0 -1 0 h 1 v 0 -1 h 1 v 0 -1 0 h 1 v 0 -1 h 1 v 0 0 -1 h 1 v 0 -1 h 1 v 0 0 0 l 1,-1 v 0 0 h 1 v 0 0 -1 h 1 v 0 0 h 1 v 0 0 0 h 1 v 0 0 h 1 v 1 0 0 h 1 v 0 1 h 1 v 0 1 0 h 1 v 1 0 l 1,1 v 0 1 0 l 1,1 v 0 1 l 1,1 v 0 1 1 h 1 v 1 1 l 1,1 v 0 1 1 l 1,1 v 1 0 l 1,1 v 1 1 1 h 1 v 1 1 l 1,1 v 1 0 1 l 1,1 v 0 1 l 1,1 v 0 1 0 l 1,1 v 1 0 h 1 v 1 0 1 h 1 v 0 1 h 1 v 0 0 0 h 1 v 0 0 l 1,1 v -1 0 0 h 1 v 0 0 h 1 v -1 0 0 h 1 v -1 0 h 1 v -1 0 -1 h 1 v -1 0 l 1,-1 v 0 -1 -1 h 1 v -1 -1 h 1 v -1 -1 0 l 1,-1 v 0 -1 l 1,-1 v 0 -1 -1 h 1 v -1 -1 h 1 v -1 0 -1 h 1 v -1 0 l 1,-1 v 0 -1 0 h 1 v -1 0 h 1 v 0 -1 0 h 1 v 0 0 h 1 v 0 0 0 h 1 v 0 0 h 1 v 0 0 0 h 1 v 1 0 h 1 v 0 0 0 l 1,1 v 0 0 h 1 v 0 0 0 h 1 v 1 0 h 1 v 0 0 0 h 1 v 0 0 h 1 v 0 -1 0 h 1 v 0 0 h 1 v -1 0 h 1 v 0 0 0 l 1,-1 v 0 0 h 1 v 0 0 -1 h 1 v 0 0 h 1 v 0 0 0 h 1 v 1 0 h 1 v 0 1 0 h 1 v 1 0 h 1 v 1 1 0 l 1,1 v 0 1 l 1,1 v 0 1 1 l 1,1 v 1 0 l 1,1 v 1 1 1 l 1,1 v 1 1 h 1 v 1 1 1 l 1,1 v 1 0 l 1,1 v 1 0 1 h 1 v 1 0 l 1,1 v 0 0 0 l 1,1 v 0 0 h 1 v 0 0 -1 h 1 v 0 -1 h 1 v 0 -1 0 l 1,-1 v -1 0 l 1,-1 v -1 -1 -1 l 1,-1 v -1 -1 l 1,-1 v -1 -1 -1 l 1,-1 v -1 -1 l 1,-1 v -2 -1 -1 l 1,-1 v -1 -2 l 1,-1 v -1 -1 -1 l 1,-1 v -2 -1 l 1,-1 v -1 -1 -1 l 1,-1 v -1 -1 l 1,-1 v 0 -1 -1 l 1,-1 v 0 -1 l 1,-1 v 0 0 -1 h 1 v -1 0 h 1 v 0 0 -1 h 1 v 0 0 h 1 v 0 0 0 h 1 v 0 0 h 1 v 0 0 1 h 1 v 0 0 h 1 v 1 0 0 h 1 v 1 0 h 1 v 1 0 0 l 1,1 v 0 0 h 1 v 1 0 0 h 1 v 1 0 h 1 v 0 0 1 h 1 v 0 0 h 1 v 0 1 0 h 1 v 0 0 h 1 v 1 0 0 h 1 v 0 0 l 1,1 v 0 0 0 l 1,1 v 0 0 h 1 v 1 0 1 h 1 v 1 0 l 1,1 v 1 0 1 l 1,1 v 0 1 l 1,1 v 1 1 0 l 1,1 v 1 1 l 1,1 v 1 1 1 h 1 v 1 1 l 1,1 v 1 2 1 l 1,1 v 1 1 l 1,2 v 1 1 1 l 1,2 v 1 1 l 1,1 v 1 1 0 l 1,1 v 1 0 l 1,1 v 0 0 0 h 1 v 1 0 h 1 v 0 -1 0 h 1 v 0 0 l 1,-1 v 0 -1 0 l 1,-1 v -1 -1 l 1,-1 v -1 -1 -1 l 1,-2 v -1 -2 l 1,-1 v -2 -2 l 1,-2 v -2 -2 -2 l 1,-2 v -2 -2 l 1,-2 v -2 -2 -2 l 1,-3 v -2 -2 l 1,-2 v -2 -2 -2 l 1,-2 v -1 -2 l 1,-2 v -1 -2 -1 l 1,-2 v -1 -1 l 1,-1 v -1 -1 -1 h 1 v -1 0 l 1,-1 v 0 0 0 h 1 v 0 0 h 1 v 0 0 1 h 1 v 0 1 h 1 v 1 0 1 l 1,1 v 0 1 l 1,1 v 0 1 1 h 1 v 1 1 h 1 v 1 0 1 h 1 v 1 0 l 1,1 v 0 0 0 h 1 v 0 0 l 1,-1 v 0 0 -1 h 1 v -1 0 l 1,-1 v 0 -1 0 h 1 v -1 0 l 1,-1 v 0 0 0 h 1 v 0 0 h 1 v 0 0 0 l 1,1 v 0 1 h 1 v 1 1 1 l 1,1 v 1 1 l 1,1 v 1 2 1 l 1,2 v 1 2 l 1,2 v 2 2 2 l 1,2 v 2 2 l 1,3 v 2 2 3 l 1,2 v 3 3 l 1,2 v 3 3 2 l 1,3 v 2 3 l 1,2 v 3 2 2 l 1,2 v 2 2 l 1,2 v 1 2 1 l 1,1 v 1 1 h 1 v 1 0 0 h 1 v -1 0 l 1,-1 v 0 -1 -1 l 1,-1 v -1 -2 l 1,-1 v -2 -2 -1 l 1,-2 v -2 -2 l 1,-2 v -2 -3 -2 l 1,-2 v -3 -2 l 1,-3 v -3 -2 -3 l 1,-3 v -2 -3 l 1,-3 v -3 -3 -3 l 1,-2 v -3 -3 l 1,-2 v -3 -3 -2 l 1,-2 v -3 -2 l 1,-2 v -1 -2 -2 l 1,-1 v -2 -1 l 1,-1 v -1 -1 -1 l 1,-1 v -1 0 l 1,-1 v 0 -1 0 l 1,-1 v 0 -1 h 1 v 0 -1 0 h 1 v -1 0 l 1,-1 v 0 -1 0 l 1,-1 v 0 -1 h 1 v -1 0 -1 h 1 v -1 0 l 1,-1 v -1 0 -1 h 1 v -1 -1 h 1 v -1 0 -1 l 1,-1 v 0 -1 h 1 v -1 0 -1 h 1 v -1 0 h 1 v 0 -1 0 h 1 v 0 1 h 1 v 0 1 0 l 1,1 v 1 1 l 1,1 v 1 1 l 1,1 v 2 2 1 l 1,2 v 2 2 l 1,3 v 2 3 2 l 1,3 v 3 3 l 1,3 v 3 3 3 l 1,3 v 4 3 l 1,4 v 3 4 3 l 1,4 v 4 3 l 1,4 v 4 3 4 l 1,4 v 3 4 l 1,3 v 4 3 3 l 1,4 v 3 3 l 1,3 v 3 2 3 l 1,2 v 3 2 l 1,1 v 2 2 1 l 1,1 v 1 1 h 1 v 0 0 0 h 1 v 0 -1 l 1,-1 v -1 -1 -1 l 1,-1 v -2 -1 l 1,-2 v -2 -2 -2 l 1,-2 v -2 -2 l 1,-2 v -3 -2 -3 l 1,-2 v -3 -3 l 1,-3 v -2 -3 -3 l 1,-3 v -4 -3 l 1,-3 v -3 -3 -4 l 1,-3 v -4 -3 l 1,-4 v -3 -4 -3 l 1,-4 v -3 -4 l 1,-3 v -3 -4 -3 l 1,-3 v -4 -3 l 1,-3 v -3 -3 -3 l 1,-3 v -3 -2 l 1,-3 v -3 -3 -2 l 1,-3 v -2 -3 l 1,-2 v -3 -2 -3 l 1,-2 v -2 -2 l 1,-2 v -2 -2 -2 l 1,-1 v -2 -1 l 1,-2 v -1 -1 -1 l 1,-1 v -1 -1 h 1 v -1 0 0 h 1 v 1 0 l 1,1 v 1 1 1 l 1,1 v 2 1 l 1,2 v 2 2 2 l 1,2 v 3 2 l 1,3 v 2 3 3 l 1,3 v 3 3 l 1,4 v 3 3 4 l 1,4 v 3 4 l 1,4 v 4 4 4 l 1,4 v 5 4 l 1,4 v 5 4 5 l 1,4 v 5 4 l 1,5 v 4 5 4 l 1,5 v 4 4 l 1,5 v 4 4 4 l 1,4 v 4 4 l 1,3 v 4 3 4 l 1,3 v 3 3 l 1,3 v 3 3 3 l 1,2 v 3 2 l 1,3 v 2 2 2 l 1,3 v 1 2 l 1,2 v 2 1 1 l 1,1 v 1 1 l 1,1 v 0 1 0 h 1 v -1 0 l 1,-1 v 0 -1 -2 l 1,-1 v -1 -2 l 1,-2 v -2 -2 -2 l 1,-3 v -2 -3 l 1,-3 v -2 -3 -3 l 1,-4 v -3 -3 l 1,-3 v -4 -3 -4 l 1,-3 v -4 -4 l 1,-4 v -4 -4 -4 l 1,-4 v -5 -4 l 1,-5 v -4 -5 l 1,-5 v -4 -5 -5 l 1,-5 v -5 -5 l 1,-5 v -5 -5 -5 l 1,-5 v -5 -4 l 1,-5 v -5 -4 -4 l 1,-5 v -4 -4 l 1,-4 v -4 -3 -4 l 1,-4 v -3 -3 l 1,-3 v -3 -3 -3 l 1,-3 v -2 -3 l 1,-2 v -2 -2 -2 l 1,-2 v -1 -2 l 1,-1 v -1 -1 -1 h 1 v 0 -1 l 1,1 v 0 0 1 l 1,1 v 1 2 l 1,1 v 2 2 2 l 1,2 v 3 2 l 1,3 v 3 3 3 l 1,3 v 3 3 l 1,3 v 4 3 4 l 1,3 v 4 3 l 1,4 v 3 4 4 l 1,4 v 3 4 l 1,4 v 4 3 4 l 1,4 v 4 4 l 1,4 v 5 4 4 l 1,4 v 4 5 l 1,4 v 4 4 5 l 1,4 v 4 4 l 1,4 v 4 4 4 l 1,3 v 4 4 l 1,3 v 4 3 3 l 1,4 v 3 3 l 1,3 v 3 3 3 l 1,3 v 3 3 l 1,3 v 2 3 3 l 1,2 v 2 3 l 1,2 v 2 2 2 l 1,1 v 2 1 l 1,1 v 1 1 1 h 1 v 0 0 h 1 v -1 0 -1 l 1,-1 v -1 -2 l 1,-2 v -1 -2 -2 l 1,-2 v -3 -2 l 1,-3 v -2 -3 -3 l 1,-2 v -3 -3 l 1,-3 v -3 -4 -3 l 1,-3 v -4 -3 l 1,-4 v -3 -4 -4 l 1,-4 v -4 -4 l 1,-4 v -4 -4 -5 l 1,-4 v -4 -5 l 1,-4 v -5 -4 -5 l 1,-4 v -5 -4 l 1,-5 v -4 -4 -5 l 1,-4 v -4 -4 l 1,-4 v -3 -4 -4 l 1,-3 v -3 -4 l 1,-3 v -3 -3 -3 l 1,-3 v -3 -3 l 1,-3 v -2 -3 -3 l 1,-2 v -3 -2 l 1,-3 v -2 -2 -3 l 1,-2 v -2 -2 l 1,-1 v -2 -2 -1 l 1,-1 v -1 -1 l 1,-1 v 0 0 0 h 1 v 0 1 h 1 v 1 1 2 l 1,1 v 2 1 l 1,2 v 2 2 2 l 1,2 v 2 2 l 1,3 v 2 2 3 l 1,2 v 3 3 l 1,2 v 3 3 3 l 1,3 v 3 3 l 1,4 v 3 4 3 l 1,4 v 4 4 l 1,4 v 4 4 l 1,4 v 4 5 4 l 1,5 v 4 5 l 1,4 v 5 4 4 l 1,5 v 4 4 l 1,4 v 4 4 4 l 1,3 v 4 3 l 1,4 v 3 3 4 l 1,3 v 3 3 l 1,4 v 3 3 3 l 1,3 v 3 3 l 1,3 v 3 2 3 l 1,3 v 2 2 l 1,3 v 2 2 2 l 1,1 v 2 1 l 1,1 v 1 1 0 h 1 v 0 0 h 1 v -1 -1 -1 l 1,-1 v -1 -2 l 1,-2 v -2 -1 -3 l 1,-2 v -2 -2 l 1,-3 v -2 -2 -3 l 1,-2 v -3 -3 l 1,-2 v -3 -3 -3 l 1,-3 v -3 -3 l 1,-3 v -3 -4 -3 l 1,-4 v -3 -4 l 1,-4 v -4 -4 -4 l 1,-5 v -4 -4 l 1,-5 v -4 -5 -4 l 1,-5 v -4 -4 l 1,-5 v -4 -4 -4 l 1,-4 v -4 -4 l 1,-4 v -3 -4 -3 l 1,-4 v -3 -3 l 1,-3 v -3 -4 -3 l 1,-3 v -3 -3 l 1,-3 v -3 -3 -2 l 1,-3 v -3 -3 l 1,-3 v -2 -3 -3 l 1,-2 v -2 -2 l 1,-2 v -2 -2 -1 l 1,-2 v -1 -1 l 1,-1 v 0 0 0 h 1 v 0 1 l 1,1 v 1 1 1 l 1,2 v 2 1 l 1,2 v 2 2 2 l 1,3 v 2 2 l 1,3 v 2 2 3 l 1,2 v 3 3 l 1,3 v 3 3 3 l 1,3 v 3 4 l 1,3 v 4 3 4 l 1,4 v 4 5 l 1,4 v 4 5 4 l 1,5 v 5 4 l 1,5 v 5 4 5 l 1,4 v 5 4 l 1,5 v 4 4 4 l 1,4 v 4 3 l 1,4 v 3 4 3 l 1,3 v 4 3 l 1,3 v 3 3 3 l 1,3 v 3 3 l 1,3 v 2 3 3 l 1,3 v 3 2 l 1,3 v 2 3 2 l 1,2 v 1 2 l 1,1 v 2 1 0 l 1,1 v 0 0 h 1 v 0 -1 0 l 1,-1 v -2 -1 l 1,-1 v -2 -2 -2 l 1,-2 v -2 -2 l 1,-2 v -2 -3 -2 l 1,-3 v -2 -3 l 1,-2 v -3 -2 -3 l 1,-2 v -3 -3 l 1,-3 v -3 -3 -3 l 1,-3 v -4 -3 l 1,-4 v -4 -4 l 1,-4 v -4 -4 -5 l 1,-4 v -5 -5 l 1,-4 v -5 -5 -4 l 1,-5 v -5 -4 l 1,-5 v -4 -4 -4 l 1,-4 v -4 -4 l 1,-4 v -3 -4 -4 l 1,-3 v -3 -3 l 1,-4 v -3 -3 -3 l 1,-3 v -3 -3 l 1,-3 v -3 -3 -3 l 1,-3 v -3 -3 l 1,-2 v -3 -2 -2 l 1,-3 v -2 -2 l 1,-1 v -2 -1 -1 l 1,-1 v -1 0 h 1 v 0 0 1 l 1,1 v 1 1 l 1,2 v 1 2 2 l 1,2 v 2 3 l 1,2 v 2 3 2 l 1,3 v 2 3 l 1,2 v 3 3 2 l 1,3 v 3 3 l 1,3 v 3 3 3 l 1,3 v 3 4 l 1,3 v 4 4 4 l 1,3 v 5 4 l 1,4 v 4 5 4 l 1,5 v 4 5 l 1,4 v 5 4 5 l 1,4 v 4 4 l 1,4 v 4 4 4 l 1,3 v 4 3 l 1,4 v 3 3 3 l 1,3 v 3 3 l 1,3 v 3 3 3 l 1,3 v 3 3 l 1,3 v 3 3 3 l 1,3 v 2 3 l 1,2 v 3 2 2 l 1,2 v 1 2 l 1,1 v 1 1 1 h 1 v 0 0 l 1,-1 v 0 -1 -1 l 1,-2 v -1 -2 l 1,-2 v -2 -2 -2 l 1,-2 v -2 -3 l 1,-2 v -3 -2 -3 l 1,-2 v -3 -2 l 1,-3 v -3 -3 -2 l 1,-3 v -3 -3 l 1,-3 v -4 -3 -4 l 1,-3 v -4 -4 l 1,-4 v -4 -4 -4 l 1,-5 v -4 -5 l 1,-5 v -5 -4 -5 l 1,-5 v -5 -4 l 1,-5 v -4 -5 -4 l 1,-4 v -4 -4 l 1,-4 v -3 -4 -3 l 1,-4 v -3 -3 l 1,-3 v -3 -3 -3 l 1,-3 v -3 -3 l 1,-3 v -2 -3 -3 l 1,-3 v -3 -2 l 1,-3 v -2 -3 -2 l 1,-3 v -2 -2 l 1,-2 v -1 -2 -1 l 1,-2 v -1 0 l 1,-1 v 0 0 0 h 1 v 1 1 l 1,1 v 1 2 1 l 1,2 v 2 2 l 1,2 v 3 2 2 l 1,3 v 2 2 l 1,3 v 2 3 2 l 1,3 v 2 3 l 1,3 v 2 3 3 l 1,3 v 3 3 l 1,3 v 4 3 l 1,4 v 4 4 4 l 1,4 v 4 5 l 1,4 v 5 4 5 l 1,4 v 5 5 l 1,4 v 5 4 5 l 1,4 v 4 4 l 1,4 v 4 4 3 l 1,4 v 3 4 l 1,3 v 3 3 3 l 1,3 v 3 3 l 1,3 v 3 3 3 l 1,3 v 3 3 l 1,3 v 3 3 2 l 1,3 v 3 2 l 1,2 v 2 2 2 l 1,2 v 1 1 l 1,1 v 0 1 0 h 1 v -1 0 l 1,-1 v -1 -2 -1 l 1,-2 v -2 -2 l 1,-2 v -2 -2 -2 l 1,-3 v -2 -3 l 1,-2 v -3 -3 -2 l 1,-3 v -2 -3 l 1,-3 v -3 -2 -3 l 1,-3 v -3 -3 l 1,-3 v -4 -3 -4 l 1,-3 v -4 -4 l 1,-4 v -5 -4 -4 l 1,-5 v -5 -4 l 1,-5 v -5 -4 -5 l 1,-5 v -4 -5 l 1,-4 v -5 -4 -4 l 1,-4 v -4 -3 l 1,-4 v -3 -4 -3 l 1,-3 v -3 -3 l 1,-3 v -3 -3 -3 l 1,-3 v -3 -3 l 1,-3 v -2 -3 -3 l 1,-3 v -3 -2 l 1,-3 v -2 -3 -2 l 1,-2 v -2 -2 l 1,-2 v -1 -2 -1 l 1,-1 v 0 -1 h 1 v 0 0 1 l 1,1 v 1 1 l 1,1 v 2 2 2 l 1,2 v 2 2 l 1,3 v 2 2 3 l 1,2 v 3 2 l 1,3 v 3 2 3 l 1,2 v 3 3 l 1,3 v 2 3 4 l 1,3 v 3 3 l 1,4 v 4 3 4 l 1,4 v 4 4 l 1,5 v 4 5 4 l 1,5 v 4 5 l 1,5 v 4 5 4 l 1,5 v 4 4 l 1,4 v 4 4 4 l 1,4 v 3 4 l 1,3 v 3 3 3 l 1,3 v 3 3 l 1,3 v 3 3 3 l 1,3 v 3 3 l 1,3 v 3 2 3 l 1,3 v 3 2 l 1,3 v 2 2 2 l 1,2 v 2 1 l 1,1 v 1 1 0 l 1,1 v 0 -1 h 1 v -1 -1 -1 l 1,-2 v -1 -2 l 1,-2 v -2 -2 -2 l 1,-2 v -3 -2 l 1,-3 v -2 -3 -2 l 1,-3 v -3 -2 l 1,-3 v -3 -2 -3 l 1,-3 v -3 -3 l 1,-3 v -3 -3 l 1,-4 v -3 -4 -4 l 1,-4 v -4 -4 l 1,-4 v -5 -4 -5 l 1,-5 v -4 -5 l 1,-5 v -5 -4 -5 l 1,-5 v -4 -5 l 1,-4 v -4 -4 -4 l 1,-4 v -3 -4 l 1,-3 v -4 -3 -3 l 1,-3 v -3 -3 l 1,-3 v -3 -3 -2 l 1,-3 v -3 -3 l 1,-3 v -3 -2 -3 l 1,-3 v -2 -3 l 1,-2 v -2 -3 -2 l 1,-2 v -1 -2 l 1,-1 v -1 -1 -1 l 1,-1 v 0 0 h 1 v 1 1 1 l 1,1 v 1 2 l 1,1 v 2 2 3 l 1,2 v 2 3 l 1,2 v 2 3 2 l 1,3 v 3 2 l 1,3 v 2 3 2 l 1,3 v 3 3 l 1,3 v 3 3 3 l 1,3 v 4 3 l 1,4 v 4 4 4 l 1,4 v 4 5 l 1,4 v 5 4 5 l 1,4 v 5 5 l 1,4 v 5 4 4 l 1,5 v 4 4 l 1,4 v 4 3 4 l 1,3 v 4 3 l 1,3 v 3 3 3 l 1,3 v 3 3 l 1,3 v 3 3 3 l 1,3 v 3 3 l 1,2 v 3 3 3 l 1,2 v 3 2 l 1,3 v 2 2 1 l 1,2 v 1 1 l 1,1 v 0 1 0 h 1 v -1 0 l 1,-1 v -1 -2 -1 l 1,-2 v -2 -2 l 1,-2 v -2 -3 -2 l 1,-2 v -3 -2 l 1,-3 v -3 -2 -3 l 1,-3 v -2 -3 l 1,-3 v -2 -3 -3 l 1,-3 v -3 -3 l 1,-4 v -3 -3 -4 l 1,-4 v -4 -4 l 1,-4 v -4 -4 -5 l 1,-5 v -4 -5 l 1,-5 v -5 -4 -5 l 1,-5 v -4 -5 l 1,-4 v -5 -4 -4 l 1,-4 v -4 -3 l 1,-4 v -3 -4 -3 l 1,-3 v -3 -3 l 1,-3 v -3 -3 -3 l 1,-3 v -2 -3 l 1,-3 v -3 -3 -2 l 1,-3 v -3 -2 l 1,-3 v -2 -2 -3 l 1,-2 v -2 -2 l 1,-1 v -2 -1 -1 l 1,-1 v 0 -1 h 1 v 0 1 0 l 1,1 v 1 2 l 1,1 v 2 2 2 l 1,2 v 2 2 l 1,3 v 2 3 2 l 1,3 v 2 3 l 1,2 v 3 2 3 l 1,3 v 2 3 l 1,3 v 3 3 3 l 1,3 v 3 4 l 1,3 v 4 3 l 1,4 v 4 4 5 l 1,4 v 4 5 l 1,4 v 5 5 4 l 1,5 v 5 4 l 1,5 v 4 4 5 l 1,4 v 4 4 l 1,3 v 4 4 3 l 1,3 v 3 4 l 1,3 v 3 3 2 l 1,3 v 3 3 l 1,3 v 3 3 3 l 1,3 v 3 2 l 1,3 v 3 3 2 l 1,3 v 2 2 l 1,2 v 2 1 2 l 1,1 v 1 0 l 1,1 v 0 0 -1 h 1 v -1 -1 l 1,-1 v -2 -1 -2 l 1,-2 v -2 -3 l 1,-2 v -2 -3 -2 l 1,-3 v -2 -3 l 1,-2 v -3 -3 -2 l 1,-3 v -3 -3 l 1,-2 v -3 -3 -3 l 1,-3 v -4 -3 l 1,-3 v -4 -4 -3 l 1,-4 v -4 -5 l 1,-4 v -4 -5 -5 l 1,-4 v -5 -5 l 1,-5 v -4 -5 -5 l 1,-4 v -5 -4 l 1,-4 v -5 -4 -3 l 1,-4 v -4 -3 l 1,-4 v -3 -3 -3 l 1,-3 v -3 -3 l 1,-3 v -3 -3 -3 l 1,-2 v -3 -3 l 1,-3 v -2 -3 -3 l 1,-2 v -3 -2 l 1,-3 v -2 -2 -2 l 1,-2 v -2 -1 l 1,-2 v -1 -1 0 l 1,-1 v 0 0 h 1 v 1 1 1 l 1,1 v 1 2 l 1,2 v 2 2 2 l 1,2 v 3 2 l 1,3 v 2 3 2 l 1,3 v 2 3 l 1,2 v 3 3 2 l 1,3 v 3 3 l 1,3 v 3 3 3 l 1,3 v 4 4 l 1,3 v 4 4 4 l 1,4 v 5 4 l 1,4 v 5 5 4 l 1,5 v 5 4 l 1,5 v 4 5 4 l 1,4 v 4 4 l 1,4 v 4 4 3 l 1,4 v 3 3 l 1,4 v 3 3 3 l 1,3 v 2 3 l 1,3 v 3 3 3 l 1,3 v 3 3 l 1,2 v 3 3 3 l 1,2 v 3 2 l 1,2"
           stroke="#4ea72e"
           stroke-width="2"
           stroke-linecap="round"
           stroke-linejoin="round"
           stroke-miterlimit="10"
           fill="none"
           id="path11" />
      </g>
      <g
         id="g13">
        <path
           d="m 406,219 v 0 0 h 1 v 0 0 0 h 1 v 0 0 h 1 v 0 0 0 h 1 v 0 0 h 1 v 0 0 0 h 1 v 0 0 h 1 v 0 0 0 h 1 v 0 0 h 1 v 0 0 0 h 1 v 0 0 h 1 v 0 0 0 h 1 v 0 0 h 1 v 0 0 0 h 1 v 0 0 h 1 v 0 0 0 h 1 v 0 0 h 1 v 0 0 0 h 1 v 0 0 h 1 v 0 0 0 h 1 v 0 0 h 1 v 0 0 0 h 1 v 0 0 h 1 v 0 0 0 h 1 v 0 0 h 1 v 0 0 0 h 1 v 0 0 h 1 v 0 0 0 h 1 v 0 0 h 1 v 0 0 0 h 1 v 0 0 h 1 v 0 0 0 h 1 v 0 0 h 1 v 0 0 0 h 1 v 0 0 h 1 v 0 0 0 h 1 v 0 0 h 1 v 0 0 -1 h 1 v 0 0 h 1 v 0 0 0 h 1 v 0 0 h 1 v 0 0 0 h 1 v 0 -1 h 1 v 0 0 0 h 1 v 0 0 h 1 v 0 0 0 h 1 v 0 0 h 1 v 0 0 0 h 1 v 0 0 l 1,-1 v 0 0 0 h 1 v 0 0 h 1 v 0 0 0 h 1 v 0 0 h 1 v 0 0 0 h 1 v 0 0 l 1,-1 v 0 0 0 h 1 v 0 0 h 1 v 0 0 0 h 1 v 0 0 h 1 v 0 0 0 l 1,-1 v 0 0 h 1 v 0 0 0 h 1 v 0 0 h 1 v 0 0 1 h 1 v 0 0 h 1 v 0 0 0 h 1 v 0 0 l 1,1 v 0 0 h 1 v 0 0 0 l 1,1 v 0 0 h 1 v 0 0 0 l 1,1 v 0 0 h 1 v 0 0 1 h 1 v 0 0 h 1 v 0 0 0 h 1 v 1 0 h 1 v 0 0 0 h 1 v 0 0 h 1 v 0 0 0 h 1 v -1 0 h 1 v 0 0 0 h 1 v 0 -1 h 1 v 0 0 0 l 1,-1 v 0 0 h 1 v -1 0 0 h 1 v -1 0 h 1 v 0 -1 0 h 1 v -1 0 h 1 v 0 -1 0 h 1 v 0 -1 h 1 v 0 0 -1 h 1 v 0 0 h 1 v 0 -1 0 h 1 v 0 0 h 1 v 0 0 -1 h 1 v 0 0 h 1 v 0 0 0 h 1 v 0 1 h 1 v 0 0 0 h 1 v 0 0 l 1,1 v 0 0 0 h 1 v 1 0 h 1 v 0 1 0 h 1 v 1 0 h 1 v 1 0 0 l 1,1 v 0 0 l 1,1 v 0 1 0 l 1,1 v 0 0 l 1,1 v 0 1 0 l 1,1 v 0 1 h 1 v 0 1 0 l 1,1 v 0 1 h 1 v 1 0 1 h 1 v 0 1 h 1 v 1 0 0 l 1,1 v 0 1 h 1 v 0 1 0 h 1 v 0 1 h 1 v 0 0 0 l 1,1 v 0 0 h 1 v 0 0 0 h 1 v 0 0 h 1 v 0 0 0 h 1 v 0 0 h 1 v 0 0 0 l 1,-1 v 0 0 h 1 v 0 0 0 h 1 v 0 0 h 1 v 0 0 0 h 1 v 0 0 h 1 v 0 0 0 h 1 v 1 0 h 1 v 0 1 0 l 1,1 v 0 0 l 1,1 v 0 1 0 l 1,1 v 0 1 h 1 v 1 1 0 l 1,1 v 0 1 h 1 v 1 0 1 l 1,1 v 0 0 l 1,1 v 0 1 0 h 1 v 1 0 h 1 v 0 0 1 h 1 v 0 0 l 1,-1 v 0 0 0 h 1 v -1 0 h 1 v -1 0 -1 h 1 v -1 -1 h 1 v -1 -1 l 1,-1 v 0 -1 -1 l 1,-1 v -1 0 l 1,-1 v -1 -1 0 l 1,-1 v -1 -1 h 1 v -1 -1 0 l 1,-1 v 0 -1 h 1 v -1 0 0 h 1 v -1 0 h 1 v 0 0 0 h 1 v 0 1 h 1 v 0 0 1 h 1 v 0 1 h 1 v 1 0 1 h 1 v 1 1 h 1 v 1 1 0 l 1,1 v 0 1 l 1,1 v 0 1 0 l 1,1 v 1 0 l 1,1 v 0 0 1 h 1 v 0 1 h 1 v 0 0 1 h 1 v 0 0 h 1 v 0 0 0 h 1 v 0 0 h 1 v -1 0 0 h 1 v -1 0 h 1 v -1 0 -1 h 1 v -1 0 h 1 v -1 0 -1 h 1 v -1 0 h 1 v -1 0 0 l 1,-1 v 0 0 l 1,-1 v 0 0 0 l 1,-1 v 0 0 h 1 v 0 -1 0 h 1 v 0 0 h 1 v 0 0 0 h 1 v 0 0 h 1 v 0 0 0 h 1 v 0 0 h 1 v 0 0 0 h 1 v 0 0 h 1 v 1 0 0 h 1 v 0 0 h 1 v 0 0 0 h 1 v 0 0 h 1 v 0 0 0 h 1 v 0 0 l 1,-1 v 0 0 0 h 1 v -1 0 h 1 v -1 0 0 l 1,-1 v 0 -1 h 1 v -1 0 -1 h 1 v -1 0 l 1,-1 v -1 0 -1 l 1,-1 v 0 -1 l 1,-1 v -1 0 -1 l 1,-1 v -1 -1 l 1,-1 v -1 -1 -1 l 1,-1 v -1 0 l 1,-1 v -1 0 -1 l 1,-1 v 0 -1 h 1 v 0 -1 0 h 1 v 0 0 l 1,-1 v 0 0 0 h 1 v 0 0 l 1,1 v 0 0 0 l 1,1 v 0 1 l 1,1 v 0 1 1 l 1,1 v 1 1 l 1,1 v 2 1 1 l 1,1 v 2 1 l 1,1 v 1 1 1 l 1,2 v 1 0 l 1,1 v 1 1 1 l 1,1 v 0 1 l 1,1 v 0 1 0 l 1,1 v 0 1 h 1 v 0 0 0 h 1 v 0 0 h 1 v 0 -1 l 1,-1 v 0 -1 -1 l 1,-1 v -1 -1 l 1,-1 v -1 -1 -1 l 1,-1 v -1 -1 l 1,-1 v -1 -1 -1 l 1,-1 v 0 -1 l 1,-1 v 0 -1 -1 h 1 v 0 -1 h 1 v -1 0 0 h 1 v 0 0 h 1 v 0 0 1 h 1 v 1 1 h 1 v 1 1 2 l 1,1 v 1 1 l 1,1 v 2 1 1 l 1,1 v 1 1 l 1,1 v 1 1 1 h 1 v 1 1 h 1 v 1 0 1 h 1 v 0 0 l 1,1 v 0 0 0 h 1 v -1 0 l 1,-1 v 0 -1 -1 l 1,-1 v -1 -1 l 1,-2 v -1 -2 -1 l 1,-2 v -2 -2 l 1,-2 v -2 -2 -2 l 1,-2 v -2 -2 l 1,-1 v -2 -2 -2 l 1,-1 v -2 -2 l 1,-1 v -2 -1 -1 l 1,-2 v -1 -1 l 1,-1 v -1 -1 -1 h 1 v -1 0 h 1 v 0 0 1 h 1 v 1 1 l 1,1 v 1 1 1 l 1,2 v 1 2 l 1,2 v 1 2 2 l 1,1 v 2 2 l 1,2 v 1 2 2 l 1,2 v 2 2 l 1,1 v 2 2 2 l 1,2 v 2 1 l 1,2 v 1 2 1 l 1,1 v 1 1 h 1 v 1 0 0 h 1 v 0 0 h 1 v -1 -1 0 l 1,-1 v -1 -1 l 1,-1 v -1 -1 -1 l 1,-1 v -2 -1 l 1,-1 v -1 -1 -2 l 1,-1 v -1 -1 l 1,-1 v -2 -1 -1 l 1,-1 v -1 -1 l 1,-1 v -1 -1 0 l 1,-1 v 0 0 h 1 v 0 0 1 h 1 v 1 1 l 1,1 v 1 1 1 l 1,1 v 1 2 l 1,1 v 1 2 1 l 1,2 v 1 2 l 1,1 v 2 1 2 l 1,2 v 1 2 l 1,1 v 2 1 2 l 1,1 v 1 1 l 1,1 v 1 1 1 h 1 v 0 0 h 1 v 0 0 -1 l 1,-1 v -1 -1 l 1,-1 v -1 -1 -2 l 1,-1 v -2 -1 l 1,-2 v -2 -1 -2 l 1,-2 v -2 -1 l 1,-2 v -2 -2 -2 l 1,-2 v -2 -3 l 1,-2 v -2 -2 -2 l 1,-3 v -2 -2 l 1,-2 v -2 -2 l 1,-2 v -1 -2 -1 l 1,-1 v -1 -1 l 1,-1 v 0 -1 0 h 1 v 0 0 h 1 v 0 0 1 h 1 v 1 0 l 1,1 v 1 1 1 l 1,1 v 1 2 l 1,1 v 1 2 1 l 1,2 v 1 2 l 1,2 v 1 2 1 l 1,2 v 1 1 l 1,2 v 1 1 1 l 1,1 v 1 1 l 1,1 v 1 0 1 l 1,1 v 0 1 h 1 v 1 0 1 h 1 v 0 0 h 1 v 0 0 -1 h 1 v 0 -1 l 1,-1 v 0 -1 -1 h 1 v -1 -1 h 1 v -1 -1 0 l 1,-1 v 0 -1 h 1 v 0 -1 0 h 1 v 0 0 h 1 v 1 0 0 l 1,1 v 0 1 h 1 v 1 1 1 h 1 v 1 1 l 1,1 v 1 2 1 l 1,1 v 1 1 l 1,2 v 1 1 2 l 1,1 v 1 2 l 1,1 v 1 1 1 l 1,2 v 1 1 l 1,1 v 1 0 1 l 1,1 v 1 0 l 1,1 v 0 0 1 h 1 v 0 0 h 1 v -1 0 -1 h 1 v -1 -1 h 1 v -1 -1 -2 l 1,-1 v -1 -1 l 1,-2 v -1 -2 -1 l 1,-1 v -2 -2 l 1,-1 v -2 -1 -2 l 1,-1 v -2 -1 l 1,-2 v -1 -2 -1 l 1,-2 v -1 -2 l 1,-1 v -1 -2 -1 l 1,-2 v -1 -2 l 1,-1 v -1 -2 -1 l 1,-1 v -1 -1 l 1,-1 v -1 -1 -1 l 1,-1 v 0 -1 l 1,-1 v 0 0 -1 h 1 v 0 0 l 1,-1 v 0 0 1 h 1 v 0 0 h 1 v 1 0 0 l 1,1 v 0 1 h 1 v 1 0 1 l 1,1 v 0 1 h 1 v 1 0 1 l 1,1 v 0 1 l 1,1 v 0 1 1 l 1,1 v 1 0 l 1,1 v 1 1 1 h 1 v 1 1 l 1,1 v 1 0 1 l 1,1 v 0 1 h 1 v 1 0 1 h 1 v 1 0 l 1,1 v 0 0 1 h 1 v 1 0 h 1 v 1 0 1 h 1 v 1 0 l 1,1 v 1 0 1 l 1,1 v 0 1 l 1,1 v 1 0 l 1,1 v 1 1 1 l 1,1 v 0 1 l 1,1 v 1 1 1 l 1,1 v 1 1 l 1,1 v 1 1 1 l 1,1 v 0 1 l 1,1 v 1 1 1 l 1,1 v 0 1 l 1,1 v 1 0 1 l 1,1 v 1 0 l 1,1 v 0 1 0 l 1,1 v 0 0 h 1 v 0 0 0 l 1,-1 v 0 -1 h 1 v -1 -1 0 l 1,-1 v -1 -1 l 1,-1 v -1 -1 -1 l 1,-1 v -2 -1 l 1,-1 v -2 -1 -1 l 1,-2 v -1 -2 l 1,-2 v -1 -2 -2 l 1,-2 v -2 -2 l 1,-2 v -2 -2 -2 l 1,-2 v -3 -2 l 1,-2 v -2 -2 -3 l 1,-2 v -2 -2 l 1,-2 v -2 -2 -2 l 1,-2 v -2 -1 l 1,-2 v -2 -1 -1 l 1,-2 v -1 -1 l 1,-1 v -1 0 -1 h 1 v -1 0 l 1,-1 v 0 0 0 h 1 v 0 1 h 1 v 0 1 0 l 1,1 v 1 0 l 1,1 v 1 1 1 l 1,1 v 1 1 l 1,2 v 1 1 2 l 1,1 v 2 1 l 1,2 v 1 2 1 l 1,2 v 1 1 l 1,2 v 1 1 2 l 1,1 v 1 1 l 1,1 v 1 1 1 l 1,1 v 0 1 l 1,1 v 0 1 1 h 1 v 1 0 l 1,1 v 0 1 1 h 1 v 1 0 l 1,1 v 1 0 1 l 1,1 v 1 1 l 1,1 v 1 1 1 l 1,1 v 1 1 l 1,2 v 1 1 1 l 1,2 v 1 2 l 1,1 v 2 1 2 l 1,1 v 2 1 l 1,2 v 2 2 1 l 1,2 v 2 1 l 1,2 v 2 1 2 l 1,2 v 1 2 l 1,1 v 1 2 1 l 1,1 v 1 0 l 1,1 v 1 0 0 h 1 v 0 0 h 1 v 0 -1 -1 h 1 v -1 -1 l 1,-2 v -1 -1 -2 l 1,-1 v -2 -2 l 1,-2 v -2 -2 -2 l 1,-2 v -2 -3 l 1,-2 v -3 -2 -3 l 1,-3 v -3 -3 l 1,-3 v -3 -3 -3 l 1,-3 v -4 -3 l 1,-3 v -4 -3 -3 l 1,-3 v -4 -3 l 1,-3 v -3 -3 -4 l 1,-2 v -3 -3 l 1,-3 v -2 -3 l 1,-2 v -2 -3 -2 l 1,-1 v -2 -2 l 1,-1 v -2 -1 -1 l 1,-1 v -1 0 l 1,-1 v 0 -1 0 h 1 v -1 0 h 1 v 1 0 0 h 1 v 1 0 l 1,1 v 0 1 1 l 1,1 v 1 1 l 1,1 v 1 1 2 l 1,1 v 1 2 l 1,1 v 2 1 2 l 1,1 v 2 2 l 1,1 v 2 2 1 l 1,2 v 2 1 l 1,2 v 2 1 2 l 1,1 v 2 2 l 1,1 v 2 1 2 l 1,2 v 1 2 l 1,2 v 2 1 2 l 1,2 v 2 2 l 1,2 v 2 3 2 l 1,2 v 3 2 l 1,3 v 2 3 2 l 1,3 v 3 3 l 1,2 v 3 3 3 l 1,3 v 3 3 l 1,2 v 3 3 3 l 1,3 v 2 3 l 1,3 v 3 2 3 l 1,2 v 3 2 l 1,2 v 2 3 2 l 1,1 v 2 2 l 1,1 v 1 2 1 h 1 v 1 0 l 1,1 v 0 0 -1 h 1 v -1 0 l 1,-1 v -1 -2 -1 l 1,-2 v -1 -2 l 1,-2 v -2 -3 -2 l 1,-2 v -3 -3 l 1,-3 v -3 -3 -3 l 1,-3 v -4 -3 l 1,-3 v -4 -4 -3 l 1,-4 v -4 -4 l 1,-4 v -4 -4 -4 l 1,-5 v -4 -4 l 1,-5 v -4 -5 -4 l 1,-4 v -5 -4 l 1,-5 v -4 -4 -4 l 1,-4 v -5 -4 l 1,-3 v -4 -4 -4 l 1,-3 v -3 -4 l 1,-3 v -3 -3 -3 l 1,-2 v -3 -2 l 1,-2 v -2 -2 -2 l 1,-2 v -1 -2 l 1,-1 v -1 -1 0 l 1,-1 v 0 0 h 1 v 0 0 0 l 1,1 v 0 1 l 1,1 v 1 1 1 l 1,2 v 2 1 l 1,2 v 2 2 3 l 1,2 v 2 3 l 1,2 v 3 3 3 l 1,3 v 3 3 l 1,3 v 3 3 3 l 1,4 v 3 4 l 1,3 v 4 3 4 l 1,4 v 3 4 l 1,4 v 4 3 4 l 1,4 v 4 4 l 1,4 v 4 4 4 l 1,4 v 3 4 l 1,4 v 4 4 4 l 1,4 v 4 4 l 1,4 v 4 3 4 l 1,3 v 4 3 l 1,4 v 3 3 l 1,3 v 4 2 3 l 1,3 v 3 2 l 1,3 v 2 3 2 l 1,2 v 2 2 l 1,1 v 2 1 1 l 1,1 v 1 1 h 1 v 0 0 0 h 1 v 0 -1 l 1,-1 v -1 -1 -1 l 1,-2 v -1 -2 l 1,-2 v -2 -2 -2 l 1,-3 v -3 -2 l 1,-3 v -3 -3 -3 l 1,-3 v -4 -3 l 1,-4 v -3 -4 -3 l 1,-4 v -4 -4 l 1,-4 v -4 -4 -4 l 1,-4 v -4 -4 l 1,-5 v -4 -4 -5 l 1,-4 v -5 -4 l 1,-5 v -4 -5 -4 l 1,-5 v -4 -4 l 1,-5 v -4 -4 -4 l 1,-4 v -4 -4 l 1,-4 v -3 -4 -4 l 1,-3 v -3 -4 l 1,-3 v -3 -3 -3 l 1,-3 v -3 -3 l 1,-3 v -2 -3 -2 l 1,-3 v -2 -2 l 1,-2 v -1 -2 -2 l 1,-1 v -1 -1 l 1,-1 v -1 -1 0 h 1 v 0 0 h 1 v 1 1 1 l 1,1 v 1 2 l 1,1 v 2 2 2 l 1,2 v 2 3 l 1,2 v 3 3 2 l 1,3 v 3 3 l 1,3 v 3 3 4 l 1,3 v 4 3 l 1,4 v 3 4 4 l 1,4 v 3 4 l 1,4 v 5 4 4 l 1,4 v 4 5 l 1,4 v 5 4 4 l 1,5 v 4 4 l 1,5 v 4 4 4 l 1,4 v 4 4 l 1,4 v 4 4 3 l 1,4 v 3 4 l 1,3 v 3 4 3 l 1,3 v 3 3 l 1,3 v 3 3 2 l 1,3 v 3 2 l 1,3 v 2 3 2 l 1,2 v 2 2 l 1,1 v 2 1 1 l 1,1 v 1 1 h 1 v 0 0 0 h 1 v -1 0 l 1,-1 v -1 -2 -1 l 1,-2 v -2 -1 l 1,-2 v -2 -3 -2 l 1,-2 v -3 -2 l 1,-3 v -3 -2 -3 l 1,-3 v -3 -3 l 1,-3 v -3 -4 -3 l 1,-3 v -4 -4 l 1,-3 v -4 -4 -4 l 1,-4 v -4 -4 l 1,-4 v -4 -5 -4 l 1,-4 v -5 -4 l 1,-5 v -4 -5 -4 l 1,-5 v -4 -4 l 1,-5 v -4 -4 -4 l 1,-3 v -4 -4 l 1,-3 v -4 -3 -4 l 1,-3 v -3 -3 l 1,-4 v -3 -3 l 1,-3 v -3 -2 -3 l 1,-3 v -3 -2 l 1,-3 v -2 -3 -2 l 1,-2 v -2 -2 l 1,-2 v -2 -2 -1 l 1,-1 v -1 -1 l 1,-1 v -1 0 0 h 1 v 0 0 l 1,1 v 1 1 1 l 1,2 v 1 2 l 1,2 v 2 2 2 l 1,2 v 2 3 l 1,2 v 3 2 3 l 1,2 v 3 3 l 1,3 v 3 3 3 l 1,3 v 3 3 l 1,4 v 3 4 3 l 1,4 v 4 4 l 1,4 v 4 4 4 l 1,5 v 4 4 l 1,5 v 4 5 4 l 1,4 v 5 4 l 1,4 v 4 5 4 l 1,4 v 3 4 l 1,4 v 4 3 3 l 1,4 v 3 3 l 1,4 v 3 3 3 l 1,3 v 3 3 l 1,3 v 2 3 3 l 1,3 v 3 2 l 1,3 v 2 3 2 l 1,2 v 2 2 l 1,2 v 1 2 1 l 1,1 v 0 1 h 1 v 0 0 0 l 1,-1 v -1 -1 l 1,-1 v -1 -1 -2 l 1,-2 v -2 -2 l 1,-2 v -2 -2 -3 l 1,-2 v -3 -2 l 1,-3 v -3 -3 -2 l 1,-3 v -3 -3 l 1,-3 v -3 -4 -3 l 1,-3 v -4 -3 l 1,-4 v -4 -4 -4 l 1,-4 v -4 -4 l 1,-5 v -4 -5 -4 l 1,-5 v -5 -4 l 1,-5 v -4 -5 -4 l 1,-5 v -4 -4 l 1,-4 v -4 -4 -4 l 1,-4 v -4 -3 l 1,-4 v -3 -3 -3 l 1,-4 v -3 -3 l 1,-3 v -3 -3 -3 l 1,-2 v -3 -3 l 1,-3 v -2 -3 -2 l 1,-3 v -2 -2 l 1,-2 v -2 -2 -2 l 1,-1 v -2 -1 l 1,-1 v -1 -1 0 h 1 v 0 0 h 1 v 1 1 1 l 1,1 v 1 2 l 1,1 v 2 2 2 l 1,3 v 2 2 l 1,3 v 2 3 2 l 1,3 v 2 3 l 1,3 v 2 3 3 l 1,3 v 3 3 l 1,3 v 4 3 3 l 1,4 v 4 3 l 1,4 v 4 4 5 l 1,4 v 4 4 l 1,5 v 4 5 4 l 1,5 v 4 5 l 1,4 v 5 4 4 l 1,4 v 4 4 l 1,4 v 4 4 3 l 1,4 v 3 3 l 1,3 v 4 3 l 1,3 v 3 3 3 l 1,3 v 2 3 l 1,3 v 3 3 2 l 1,3 v 3 2 l 1,3 v 2 2 2 l 1,2 v 2 2 l 1,1 v 1 1 1 h 1 v 1 0 h 1 v -1 0 -1 l 1,-1 v -1 -2 l 1,-1 v -2 -2 -2 l 1,-2 v -2 -2 l 1,-3 v -2 -3 -2 l 1,-3 v -2 -3 l 1,-3 v -3 -3 -3 l 1,-3 v -3 -3 l 1,-3 v -3 -3 -4 l 1,-3 v -4 -3 l 1,-4 v -4 -4 -4 l 1,-5 v -4 -4 l 1,-5 v -5 -4 -5 l 1,-5 v -4 -5 l 1,-4 v -5 -4 -5 l 1,-4 v -4 -4 l 1,-4 v -4 -4 -3 l 1,-4 v -3 -4 l 1,-3 v -3 -3 -3 l 1,-3 v -3 -3 l 1,-3 v -3 -3 -2 l 1,-3 v -3 -2 l 1,-3 v -2 -3 -2 l 1,-3 v -2 -2 l 1,-2 v -2 -1 -2 l 1,-1 v -1 -1 l 1,-1 v 0 -1 0 h 1 v 1 0 l 1,1 v 1 1 2 l 1,1 v 2 2 l 1,2 v 2 2 3 l 1,2 v 3 2 l 1,3 v 2 3 2 l 1,3 v 3 3 l 1,2 v 3 3 3 l 1,3 v 3 3 l 1,4 v 3 4 3 l 1,4 v 4 4 l 1,4 v 4 4 4 l 1,5 v 4 5 l 1,4 v 5 4 5 l 1,4 v 5 4 l 1,4 v 5 4 4 l 1,4 v 4 3 l 1,4 v 4 3 3 l 1,4 v 3 3 l 1,3 v 3 3 3 l 1,3 v 3 2 l 1,3 v 3 3 3 l 1,2 v 3 3 l 1,2 v 3 2 2 l 1,3 v 2 1 l 1,2 v 1 2 1 l 1,1 v 0 1 h 1 v 0 -1 0 l 1,-1 v -1 -1 l 1,-1 v -2 -1 -2 l 1,-2 v -2 -3 l 1,-2 v -2 -3 -2 l 1,-3 v -3 -2 l 1,-3 v -3 -3 -2 l 1,-3 v -3 -3 l 1,-3 v -3 -4 -3 l 1,-3 v -4 -3 l 1,-4 v -4 -4 -4 l 1,-4 v -4 -4 l 1,-5 v -4 -5 -4 l 1,-5 v -5 -4 l 1,-5 v -5 -4 -5 l 1,-4 v -5 -4 l 1,-4 v -4 -4 -4 l 1,-3 v -4 -3 l 1,-3 v -4 -3 -3 l 1,-3 v -3 -3 l 1,-3 v -2 -3 l 1,-3 v -3 -2 -3 l 1,-3 v -2 -3 l 1,-2 v -2 -3 -2 l 1,-2 v -2 -2 l 1,-2 v -1 -1 -2 l 1,-1 v 0 -1 h 1 v -1 0 1 h 1 v 1 1 l 1,1 v 1 2 2 l 1,2 v 2 2 l 1,2 v 2 3 2 l 1,3 v 2 3 l 1,2 v 3 3 2 l 1,3 v 3 3 l 1,3 v 3 3 3 l 1,3 v 3 3 l 1,4 v 3 4 4 l 1,4 v 4 4 l 1,4 v 4 5 4 l 1,4 v 5 4 l 1,5 v 5 4 5 l 1,4 v 4 5 l 1,4 v 4 4 4 l 1,4 v 4 3 l 1,4 v 3 3 3 l 1,4 v 3 3 l 1,2 v 3 3 3 l 1,3 v 3 2 l 1,3 v 3 3 2 l 1,3 v 3 2 l 1,2 v 3 2 2 l 1,2 v 2 1 l 1,1 v 1 1 1 l 1,1 v 0 0 l 1,-1 v 0 -1 -1 l 1,-1 v -1 -1 l 1,-2 v -2 -2 -2 l 1,-2 v -3 -2 l 1,-3 v -2 -3 -2 l 1,-3 v -3 -3 l 1,-2 v -3 -3 -3 l 1,-3 v -3 -3 l 1,-3 v -3 -4 -3 l 1,-4 v -3 -4 l 1,-4 v -4 -4 -4 l 1,-4 v -5 -4 l 1,-5 v -4 -5 -5 l 1,-4 v -5 -5 l 1,-4 v -5 -4 -5 l 1,-4 v -4 -4 l 1,-4 v -4 -4 -3 l 1,-4 v -3 -3 l 1,-3 v -3 -3 -3 l 1,-3 v -3 -3 l 1,-3 v -2 -3 -3 l 1,-3 v -2 -3 l 1,-2 v -3 -2 -2 l 1,-3 v -2 -2 l 1,-2 v -1 -2 -1 l 1,-2 v -1 0 l 1,-1 v -1 0 0 l 1,1 v 0 1 l 1,1 v 1 1 2 l 1,1 v 2 2 l 1,2 v 3 2 2 l 1,3 v 2 3 l 1,3 v 2 3 3 l 1,2 v 3 3 l 1,3"
           stroke="#d86ecc"
           stroke-width="2"
           stroke-linecap="round"
           stroke-linejoin="round"
           stroke-miterlimit="10"
           fill="none"
           id="path12" />
      </g>
      <g
         id="g14">
        <text
           font-family="Arial, Arial_MSFontService, sans-serif"
           font-weight="400"
           font-size="12px"
           transform="translate(368,376)"
           id="text13">-1.50</text>
      </g>
      <g
         id="g15">
        <text
           font-family="Arial, Arial_MSFontService, sans-serif"
           font-weight="400"
           font-size="12px"
           transform="translate(368,325)"
           id="text14">-1.00</text>
      </g>
      <g
         id="g16">
        <text
           font-family="Arial, Arial_MSFontService, sans-serif"
           font-weight="400"
           font-size="12px"
           transform="translate(368,274)"
           id="text15">-0.50</text>
      </g>
      <g
         id="g17">
        <text
           font-family="Arial, Arial_MSFontService, sans-serif"
           font-weight="400"
           font-size="12px"
           transform="translate(371.993,223)"
           id="text16">0.00</text>
      </g>
      <g
         id="g18">
        <text
           font-family="Arial, Arial_MSFontService, sans-serif"
           font-weight="400"
           font-size="12px"
           transform="translate(371.993,172)"
           id="text17">0.50</text>
      </g>
      <g
         id="g19">
        <text
           font-family="Arial, Arial_MSFontService, sans-serif"
           font-weight="400"
           font-size="12px"
           transform="translate(371.993,121)"
           id="text18">1.00</text>
      </g>
      <g
         id="g20">
        <text
           font-family="Arial, Arial_MSFontService, sans-serif"
           font-weight="400"
           font-size="12px"
           transform="translate(371.993,70)"
           id="text19">1.50</text>
      </g>
      <g
         id="g21">
        <text
           font-family="Arial, Arial_MSFontService, sans-serif"
           font-weight="400"
           font-size="12px"
           transform="translate(371.993,19)"
           id="text20">2.00</text>
      </g>
      <g
         id="g22">
        <text
           font-family="Arial, Arial_MSFontService, sans-serif"
           font-weight="400"
           font-size="12px"
           transform="translate(402.33,237)"
           id="text21">0</text>
      </g>
      <g
         id="g23">
        <text
           font-family="Arial, Arial_MSFontService, sans-serif"
           font-weight="400"
           font-size="12px"
           transform="translate(484.06,237)"
           id="text22">0.5</text>
      </g>
      <g
         id="g24">
        <text
           font-family="Arial, Arial_MSFontService, sans-serif"
           font-weight="400"
           font-size="12px"
           transform="translate(575.796,237)"
           id="text23">1</text>
      </g>
      <g
         id="g25">
        <text
           font-family="Arial, Arial_MSFontService, sans-serif"
           font-weight="400"
           font-size="12px"
           transform="translate(657.526,237)"
           id="text24">1.5</text>
      </g>
      <g
         id="g26">
        <text
           font-family="Arial, Arial_MSFontService, sans-serif"
           font-weight="400"
           font-size="12px"
           transform="translate(749.262,237)"
           id="text25">2</text>
      </g>
      <g
         id="g27">
        <text
           font-family="Arial, Arial_MSFontService, sans-serif"
           font-weight="400"
           font-size="12px"
           transform="translate(830.992,237)"
           id="text26">2.5</text>
      </g>
      <g
         id="g28">
        <text
           font-family="Arial, Arial_MSFontService, sans-serif"
           font-weight="400"
           font-size="12px"
           transform="translate(922.728,237)"
           id="text27">3</text>
      </g>
      <g
         id="g29">
        <text
           font-family="Arial, Arial_MSFontService, sans-serif"
           font-weight="400"
           font-size="12px"
           transform="translate(1004.46,237)"
           id="text28">3.5</text>
      </g>
      <g
         id="g30">
        <text
           font-family="Arial, Arial_MSFontService, sans-serif"
           font-weight="400"
           font-size="12px"
           transform="translate(1096.19,237)"
           id="text29">4</text>
      </g>
      <g
         id="g31">
        <text
           font-family="Arial, Arial_MSFontService, sans-serif"
           font-weight="400"
           font-size="12px"
           transform="translate(1177.92,237)"
           id="text30">4.5</text>
      </g>
      <g
         id="g32">
        <text
           font-family="Arial, Arial_MSFontService, sans-serif"
           font-weight="400"
           font-size="12px"
           transform="translate(1269.66,237)"
           id="text31">5</text>
      </g>
      <g
         id="g33">
        <text
           font-family="Arial, Arial_MSFontService, sans-serif"
           font-weight="400"
           font-size="13px"
           transform="rotate(-90,310.3335,-51.3335)"
           id="text32">Deslocamento vertical</text>
      </g>
      <g
         id="g34">
        <text
           font-family="Arial, Arial_MSFontService, sans-serif"
           font-weight="400"
           font-size="13px"
           transform="translate(818.585,387)"
           id="text33">Tempo</text>
      </g>
      <g
         id="g35">
        <path
           d="m 520,416 h 33"
           stroke="#000000"
           stroke-width="1.66667"
           stroke-linecap="round"
           stroke-linejoin="round"
           stroke-miterlimit="10"
           stroke-dasharray="3.33333, 3.33333"
           fill="none"
           fill-rule="evenodd"
           id="path34" />
      </g>
      <g
         id="g36">
        <text
           font-family="Arial, Arial_MSFontService, sans-serif"
           font-weight="400"
           font-size="12px"
           transform="translate(556.982,420)"
           id="text35">Wall (1999)</text>
      </g>
      <g
         id="g37">
        <path
           d="m 641,416 h 33"
           stroke="#4e95d9"
           stroke-width="2"
           stroke-linecap="round"
           stroke-linejoin="round"
           stroke-miterlimit="10"
           fill="none"
           fill-rule="evenodd"
           id="path36" />
      </g>
      <g
         id="g38">
        <text
           font-family="Arial, Arial_MSFontService, sans-serif"
           font-weight="400"
           font-size="12px"
           transform="translate(677.801,420)"
           id="text37">SUPG/PSPG</text>
      </g>
      <g
         id="g39">
        <path
           d="m 771,416 h 33"
           stroke="#e97132"
           stroke-width="2"
           stroke-linecap="round"
           stroke-linejoin="round"
           stroke-miterlimit="10"
           fill="none"
           fill-rule="evenodd"
           id="path38" />
      </g>
      <g
         id="g40">
        <text
           font-family="Arial, Arial_MSFontService, sans-serif"
           font-weight="400"
           font-size="12px"
           transform="translate(807.973,420)"
           id="text39">SUPG/PSPG+LES</text>
      </g>
      <g
         id="g41">
        <path
           d="m 931,416 h 33"
           stroke="#4ea72e"
           stroke-width="2"
           stroke-linecap="round"
           stroke-linejoin="round"
           stroke-miterlimit="10"
           fill="none"
           fill-rule="evenodd"
           id="path40" />
      </g>
      <g
         id="g42">
        <text
           font-family="Arial, Arial_MSFontService, sans-serif"
           font-weight="400"
           font-size="12px"
           transform="translate(967.838,420)"
           id="text41">VMS</text>
      </g>
      <g
         id="g43">
        <path
           d="m 1016,416 h 34"
           stroke="#d86ecc"
           stroke-width="2"
           stroke-linecap="round"
           stroke-linejoin="round"
           stroke-miterlimit="10"
           fill="none"
           fill-rule="evenodd"
           id="path42" />
      </g>
      <g
         id="g44">
        <text
           font-family="Arial, Arial_MSFontService, sans-serif"
           font-weight="400"
           font-size="12px"
           transform="translate(1053.32,420)"
           id="text43">VMS+LES</text>
      </g>
    </g>
  </g>
</svg>
