<?xml version="1.0" encoding="UTF-8" standalone="no"?>
<!-- Created with Inkscape (http://www.inkscape.org/) -->

<svg
   width="206.60275mm"
   height="91.600998mm"
   viewBox="0 0 206.60275 91.600995"
   version="1.1"
   id="svg5"
   inkscape:version="1.2.1 (9c6d41e410, 2022-07-14)"
   sodipodi:docname="L2.svg"
   xml:space="preserve"
   xmlns:inkscape="http://www.inkscape.org/namespaces/inkscape"
   xmlns:sodipodi="http://sodipodi.sourceforge.net/DTD/sodipodi-0.dtd"
   xmlns="http://www.w3.org/2000/svg"
   xmlns:svg="http://www.w3.org/2000/svg"><sodipodi:namedview
     id="namedview7"
     pagecolor="#ffffff"
     bordercolor="#000000"
     borderopacity="0.25"
     inkscape:showpageshadow="2"
     inkscape:pageopacity="0.0"
     inkscape:pagecheckerboard="0"
     inkscape:deskcolor="#d1d1d1"
     inkscape:document-units="mm"
     showgrid="false"
     inkscape:zoom="1.087256"
     inkscape:cx="355.02218"
     inkscape:cy="183.02957"
     inkscape:window-width="1920"
     inkscape:window-height="1017"
     inkscape:window-x="1912"
     inkscape:window-y="-8"
     inkscape:window-maximized="1"
     inkscape:current-layer="g2201" /><defs
     id="defs2"><clipPath
       id="clip0"><rect
         x="388"
         y="0"
         width="812"
         height="402"
         id="rect132" /></clipPath><clipPath
       id="clip1"><rect
         x="388"
         y="0"
         width="812"
         height="402"
         id="rect135" /></clipPath><clipPath
       id="clip2"><rect
         x="388"
         y="0"
         width="812"
         height="402"
         id="rect138" /></clipPath><clipPath
       id="clip3"><rect
         x="388"
         y="0"
         width="812"
         height="402"
         id="rect141" /></clipPath><clipPath
       id="clip4"><rect
         x="388"
         y="0"
         width="812"
         height="402"
         id="rect144" /></clipPath><clipPath
       id="clip5"><rect
         x="388"
         y="0"
         width="812"
         height="402"
         id="rect147" /></clipPath><clipPath
       id="clip6"><rect
         x="388"
         y="0"
         width="812"
         height="402"
         id="rect150" /></clipPath><clipPath
       id="clip7"><rect
         x="388"
         y="0"
         width="812"
         height="402"
         id="rect153" /></clipPath><clipPath
       id="clip8"><rect
         x="430"
         y="14"
         width="741"
         height="303"
         id="rect156" /></clipPath><clipPath
       id="clip9"><rect
         x="430"
         y="14"
         width="741"
         height="303"
         id="rect159" /></clipPath><clipPath
       id="clip10"><rect
         x="430"
         y="14"
         width="741"
         height="303"
         id="rect162" /></clipPath><clipPath
       id="clip11"><rect
         x="388"
         y="0"
         width="812"
         height="402"
         id="rect165" /></clipPath><clipPath
       id="clip12"><rect
         x="388"
         y="0"
         width="812"
         height="402"
         id="rect168" /></clipPath><clipPath
       id="clip13"><rect
         x="388"
         y="0"
         width="812"
         height="402"
         id="rect171" /></clipPath><clipPath
       id="clip14"><rect
         x="388"
         y="0"
         width="812"
         height="402"
         id="rect174" /></clipPath><clipPath
       id="clip15"><rect
         x="388"
         y="0"
         width="812"
         height="402"
         id="rect177" /></clipPath><clipPath
       id="clip16"><rect
         x="388"
         y="0"
         width="812"
         height="402"
         id="rect180" /></clipPath><clipPath
       id="clip17"><rect
         x="388"
         y="0"
         width="812"
         height="402"
         id="rect183" /></clipPath><clipPath
       id="clip18"><rect
         x="388"
         y="0"
         width="812"
         height="402"
         id="rect186" /></clipPath><clipPath
       id="clip19"><rect
         x="388"
         y="0"
         width="812"
         height="402"
         id="rect189" /></clipPath><clipPath
       id="clip20"><rect
         x="388"
         y="0"
         width="812"
         height="402"
         id="rect192" /></clipPath><clipPath
       id="clip21"><rect
         x="388"
         y="0"
         width="812"
         height="402"
         id="rect195" /></clipPath><clipPath
       id="clip22"><rect
         x="388"
         y="0"
         width="812"
         height="402"
         id="rect198" /></clipPath><clipPath
       id="clip23"><rect
         x="388"
         y="0"
         width="812"
         height="402"
         id="rect201" /></clipPath><clipPath
       id="clip24"><rect
         x="388"
         y="0"
         width="812"
         height="402"
         id="rect204" /></clipPath><clipPath
       id="clip25"><rect
         x="388"
         y="0"
         width="812"
         height="402"
         id="rect207" /></clipPath><clipPath
       id="clip26"><rect
         x="388"
         y="0"
         width="812"
         height="402"
         id="rect210" /></clipPath><clipPath
       id="clip27"><rect
         x="388"
         y="0"
         width="812"
         height="402"
         id="rect213" /></clipPath><clipPath
       id="clip28"><rect
         x="388"
         y="0"
         width="812"
         height="402"
         id="rect216" /></clipPath><clipPath
       id="clip29"><rect
         x="388"
         y="0"
         width="812"
         height="402"
         id="rect219" /></clipPath><clipPath
       id="clip30"><rect
         x="388"
         y="0"
         width="812"
         height="402"
         id="rect222" /></clipPath><clipPath
       id="clip31"><rect
         x="388"
         y="0"
         width="812"
         height="402"
         id="rect225" /></clipPath><clipPath
       id="clip32"><rect
         x="388"
         y="0"
         width="812"
         height="402"
         id="rect228" /></clipPath><clipPath
       id="clip33"><rect
         x="388"
         y="0"
         width="812"
         height="402"
         id="rect231" /></clipPath><clipPath
       id="clip34"><rect
         x="388"
         y="0"
         width="812"
         height="402"
         id="rect234" /></clipPath><clipPath
       id="clip1-2"><rect
         x="395"
         y="0"
         width="812"
         height="402"
         id="rect3213" /></clipPath><clipPath
       id="clip2-3"><rect
         x="395"
         y="0"
         width="812"
         height="402"
         id="rect3216" /></clipPath><clipPath
       id="clip3-8"><rect
         x="395"
         y="0"
         width="812"
         height="402"
         id="rect3219" /></clipPath><clipPath
       id="clip4-8"><rect
         x="395"
         y="0"
         width="812"
         height="402"
         id="rect3222" /></clipPath><clipPath
       id="clip5-8"><rect
         x="395"
         y="0"
         width="812"
         height="402"
         id="rect3225" /></clipPath><clipPath
       id="clip6-0"><rect
         x="395"
         y="0"
         width="812"
         height="402"
         id="rect3228" /></clipPath><clipPath
       id="clip7-1"><rect
         x="395"
         y="0"
         width="812"
         height="402"
         id="rect3231" /></clipPath><clipPath
       id="clip8-0"><rect
         x="457"
         y="14"
         width="727"
         height="325"
         id="rect3234" /></clipPath><clipPath
       id="clip9-2"><rect
         x="457"
         y="14"
         width="727"
         height="325"
         id="rect3237" /></clipPath><clipPath
       id="clip10-7"><rect
         x="457"
         y="14"
         width="727"
         height="325"
         id="rect3240" /></clipPath><clipPath
       id="clip11-4"><rect
         x="395"
         y="0"
         width="812"
         height="402"
         id="rect3243" /></clipPath><clipPath
       id="clip12-0"><rect
         x="395"
         y="0"
         width="812"
         height="402"
         id="rect3246" /></clipPath><clipPath
       id="clip13-1"><rect
         x="395"
         y="0"
         width="812"
         height="402"
         id="rect3249" /></clipPath><clipPath
       id="clip14-5"><rect
         x="395"
         y="0"
         width="812"
         height="402"
         id="rect3252" /></clipPath><clipPath
       id="clip15-2"><rect
         x="395"
         y="0"
         width="812"
         height="402"
         id="rect3255" /></clipPath><clipPath
       id="clip16-0"><rect
         x="395"
         y="0"
         width="812"
         height="402"
         id="rect3258" /></clipPath><clipPath
       id="clip17-1"><rect
         x="395"
         y="0"
         width="812"
         height="402"
         id="rect3261" /></clipPath><clipPath
       id="clip18-7"><rect
         x="395"
         y="0"
         width="812"
         height="402"
         id="rect3264" /></clipPath><clipPath
       id="clip19-8"><rect
         x="395"
         y="0"
         width="812"
         height="402"
         id="rect3267" /></clipPath><clipPath
       id="clip20-2"><rect
         x="395"
         y="0"
         width="812"
         height="402"
         id="rect3270" /></clipPath><clipPath
       id="clip21-8"><rect
         x="395"
         y="0"
         width="812"
         height="402"
         id="rect3273" /></clipPath><clipPath
       id="clip22-8"><rect
         x="395"
         y="0"
         width="812"
         height="402"
         id="rect3276" /></clipPath><clipPath
       id="clip23-9"><rect
         x="395"
         y="0"
         width="812"
         height="402"
         id="rect3279" /></clipPath><clipPath
       id="clip24-6"><rect
         x="395"
         y="0"
         width="812"
         height="402"
         id="rect3282" /></clipPath><clipPath
       id="clip25-6"><rect
         x="395"
         y="0"
         width="812"
         height="402"
         id="rect3285" /></clipPath><clipPath
       id="clip26-7"><rect
         x="395"
         y="0"
         width="812"
         height="402"
         id="rect3288" /></clipPath><clipPath
       id="clip27-0"><rect
         x="395"
         y="0"
         width="812"
         height="402"
         id="rect3291" /></clipPath><clipPath
       id="clip28-9"><rect
         x="395"
         y="0"
         width="812"
         height="402"
         id="rect3294" /></clipPath><clipPath
       id="clip29-1"><rect
         x="395"
         y="0"
         width="812"
         height="402"
         id="rect3297" /></clipPath><clipPath
       id="clip30-1"><rect
         x="395"
         y="0"
         width="812"
         height="402"
         id="rect3300" /></clipPath><clipPath
       id="clip31-3"><rect
         x="395"
         y="0"
         width="812"
         height="402"
         id="rect3303" /></clipPath><clipPath
       id="clip32-5"><rect
         x="395"
         y="0"
         width="812"
         height="402"
         id="rect3306" /></clipPath><clipPath
       id="clip33-9"><rect
         x="395"
         y="0"
         width="812"
         height="402"
         id="rect3309" /></clipPath><clipPath
       clipPathUnits="userSpaceOnUse"
       id="clipPath3661"><g
         id="g3665"
         transform="matrix(3.7795276,0,0,3.7795276,962.91308,55.144712)"><rect
           x="-150.26033"
           y="-14.590371"
           width="214.84166"
           height="106.3625"
           id="rect3663"
           style="stroke-width:0.264583" /></g></clipPath><clipPath
       clipPathUnits="userSpaceOnUse"
       id="clipPath3667"><g
         id="g3671"
         transform="matrix(3.7795276,0,0,3.7795276,962.91308,55.144712)"><rect
           x="-150.26033"
           y="-14.590371"
           width="214.84166"
           height="106.3625"
           id="rect3669"
           style="stroke-width:0.264583" /></g></clipPath><clipPath
       clipPathUnits="userSpaceOnUse"
       id="clipPath3673"><g
         id="g3677"
         transform="matrix(3.7795276,0,0,3.7795276,962.91308,55.144712)"><rect
           x="-150.26033"
           y="-14.590371"
           width="214.84166"
           height="106.3625"
           id="rect3675"
           style="stroke-width:0.264583" /></g></clipPath><clipPath
       clipPathUnits="userSpaceOnUse"
       id="clipPath3679"><g
         id="g3683"
         transform="matrix(3.7795276,0,0,3.7795276,962.91308,55.144712)"><rect
           x="-150.26033"
           y="-14.590371"
           width="214.84166"
           height="106.3625"
           id="rect3681"
           style="stroke-width:0.264583" /></g></clipPath><clipPath
       clipPathUnits="userSpaceOnUse"
       id="clipPath3685"><g
         id="g3689"
         transform="matrix(3.7795276,0,0,3.7795276,962.91308,55.144712)"><rect
           x="-150.26033"
           y="-14.590371"
           width="214.84166"
           height="106.3625"
           id="rect3687"
           style="stroke-width:0.264583" /></g></clipPath><clipPath
       clipPathUnits="userSpaceOnUse"
       id="clipPath3691"><g
         id="g3695"
         transform="matrix(3.7795276,0,0,3.7795276,962.91308,55.144712)"><rect
           x="-150.26033"
           y="-14.590371"
           width="214.84166"
           height="106.3625"
           id="rect3693"
           style="stroke-width:0.264583" /></g></clipPath><clipPath
       clipPathUnits="userSpaceOnUse"
       id="clipPath3697"><g
         id="g3701"
         transform="matrix(3.7795276,0,0,3.7795276,962.91308,55.144712)"><rect
           x="-150.26033"
           y="-14.590371"
           width="214.84166"
           height="106.3625"
           id="rect3699"
           style="stroke-width:0.264583" /></g></clipPath><clipPath
       clipPathUnits="userSpaceOnUse"
       id="clipPath3703"><g
         id="g3707"
         transform="matrix(3.7795276,0,0,3.7795276,962.91308,55.144712)"><rect
           x="-150.26033"
           y="-14.590371"
           width="214.84166"
           height="106.3625"
           id="rect3705"
           style="stroke-width:0.264583" /></g></clipPath><clipPath
       clipPathUnits="userSpaceOnUse"
       id="clipPath3709"><g
         id="g3713"
         transform="matrix(3.7795276,0,0,3.7795276,962.91308,55.144712)"><rect
           x="-150.26033"
           y="-14.590371"
           width="214.84166"
           height="106.3625"
           id="rect3711"
           style="stroke-width:0.264583" /></g></clipPath><clipPath
       clipPathUnits="userSpaceOnUse"
       id="clipPath3715"><g
         id="g3719"
         transform="matrix(3.7795276,0,0,3.7795276,962.91308,55.144712)"><rect
           x="-150.26033"
           y="-14.590371"
           width="214.84166"
           height="106.3625"
           id="rect3717"
           style="stroke-width:0.264583" /></g></clipPath><clipPath
       clipPathUnits="userSpaceOnUse"
       id="clipPath3721"><g
         id="g3725"
         transform="matrix(3.7795276,0,0,3.7795276,962.91308,55.144712)"><rect
           x="-150.26033"
           y="-14.590371"
           width="214.84166"
           height="106.3625"
           id="rect3723"
           style="stroke-width:0.264583" /></g></clipPath><clipPath
       clipPathUnits="userSpaceOnUse"
       id="clipPath3727"><g
         id="g3731"
         transform="matrix(3.7795276,0,0,3.7795276,962.91308,55.144712)"><rect
           x="-150.26033"
           y="-14.590371"
           width="214.84166"
           height="106.3625"
           id="rect3729"
           style="stroke-width:0.264583" /></g></clipPath><clipPath
       clipPathUnits="userSpaceOnUse"
       id="clipPath3733"><g
         id="g3737"
         transform="matrix(3.7795276,0,0,3.7795276,962.91308,55.144712)"><rect
           x="-150.26033"
           y="-14.590371"
           width="214.84166"
           height="106.3625"
           id="rect3735"
           style="stroke-width:0.264583" /></g></clipPath><clipPath
       clipPathUnits="userSpaceOnUse"
       id="clipPath3739"><g
         id="g3743"><rect
           x="-150.26033"
           y="-14.590371"
           width="214.84166"
           height="106.3625"
           id="rect3741"
           style="stroke-width:0.264583" /></g></clipPath><clipPath
       clipPathUnits="userSpaceOnUse"
       id="clipPath1441"><g
         id="g1445"
         transform="matrix(3.7795276,0,0,3.7795276,124.07409,1279.0287)"><rect
           x="74.857483"
           y="-120.12843"
           width="214.84166"
           height="106.3625"
           id="rect1443"
           style="stroke-width:0.264583" /></g></clipPath><clipPath
       id="clip29-5"><rect
         x="407"
         y="825"
         width="812"
         height="402"
         id="rect1065" /></clipPath><clipPath
       clipPathUnits="userSpaceOnUse"
       id="clipPath1435"><g
         id="g1439"
         transform="matrix(3.7795276,0,0,3.7795276,124.07409,1279.0287)"><rect
           x="74.857483"
           y="-120.12843"
           width="214.84166"
           height="106.3625"
           id="rect1437"
           style="stroke-width:0.264583" /></g></clipPath><clipPath
       id="clip31-1"><rect
         x="407"
         y="825"
         width="812"
         height="402"
         id="rect1071" /></clipPath><clipPath
       clipPathUnits="userSpaceOnUse"
       id="clipPath1429"><g
         id="g1433"
         transform="matrix(3.7795276,0,0,3.7795276,124.07409,1279.0287)"><rect
           x="74.857483"
           y="-120.12843"
           width="214.84166"
           height="106.3625"
           id="rect1431"
           style="stroke-width:0.264583" /></g></clipPath><clipPath
       id="clip33-6"><rect
         x="407"
         y="825"
         width="812"
         height="402"
         id="rect1077" /></clipPath><clipPath
       id="clip1-0"><rect
         x="395"
         y="0"
         width="812"
         height="402"
         id="rect552" /></clipPath><clipPath
       id="clip2-7"><rect
         x="395"
         y="0"
         width="812"
         height="402"
         id="rect555" /></clipPath><clipPath
       id="clip3-1"><rect
         x="395"
         y="0"
         width="812"
         height="402"
         id="rect558" /></clipPath><clipPath
       id="clip4-4"><rect
         x="395"
         y="0"
         width="812"
         height="402"
         id="rect561" /></clipPath><clipPath
       id="clip5-4"><rect
         x="395"
         y="0"
         width="812"
         height="402"
         id="rect564" /></clipPath><clipPath
       id="clip6-2"><rect
         x="395"
         y="0"
         width="812"
         height="402"
         id="rect567" /></clipPath><clipPath
       id="clip7-0"><rect
         x="395"
         y="0"
         width="812"
         height="402"
         id="rect570" /></clipPath><clipPath
       id="clip8-3"><rect
         x="395"
         y="0"
         width="812"
         height="402"
         id="rect573" /></clipPath><clipPath
       id="clip9-6"><rect
         x="457"
         y="14"
         width="727"
         height="325"
         id="rect576" /></clipPath><clipPath
       id="clip10-0"><rect
         x="457"
         y="14"
         width="727"
         height="325"
         id="rect579" /></clipPath><clipPath
       id="clip11-48"><rect
         x="457"
         y="14"
         width="727"
         height="325"
         id="rect582" /></clipPath><clipPath
       id="clip12-5"><rect
         x="395"
         y="0"
         width="812"
         height="402"
         id="rect585" /></clipPath><clipPath
       id="clip13-0"><rect
         x="395"
         y="0"
         width="812"
         height="402"
         id="rect588" /></clipPath><clipPath
       id="clip14-50"><rect
         x="395"
         y="0"
         width="812"
         height="402"
         id="rect591" /></clipPath><clipPath
       id="clip15-0"><rect
         x="395"
         y="0"
         width="812"
         height="402"
         id="rect594" /></clipPath><clipPath
       id="clip16-5"><rect
         x="395"
         y="0"
         width="812"
         height="402"
         id="rect597" /></clipPath><clipPath
       id="clip17-13"><rect
         x="395"
         y="0"
         width="812"
         height="402"
         id="rect600" /></clipPath><clipPath
       id="clip18-3"><rect
         x="395"
         y="0"
         width="812"
         height="402"
         id="rect603" /></clipPath><clipPath
       id="clip19-7"><rect
         x="395"
         y="0"
         width="812"
         height="402"
         id="rect606" /></clipPath><clipPath
       id="clip20-1"><rect
         x="395"
         y="0"
         width="812"
         height="402"
         id="rect609" /></clipPath><clipPath
       id="clip21-4"><rect
         x="395"
         y="0"
         width="812"
         height="402"
         id="rect612" /></clipPath><clipPath
       id="clip22-0"><rect
         x="395"
         y="0"
         width="812"
         height="402"
         id="rect615" /></clipPath><clipPath
       id="clip23-6"><rect
         x="395"
         y="0"
         width="812"
         height="402"
         id="rect618" /></clipPath><clipPath
       id="clip24-1"><rect
         x="395"
         y="0"
         width="812"
         height="402"
         id="rect621" /></clipPath><clipPath
       id="clip25-3"><rect
         x="395"
         y="0"
         width="812"
         height="402"
         id="rect624" /></clipPath><clipPath
       id="clip26-8"><rect
         x="395"
         y="0"
         width="812"
         height="402"
         id="rect627" /></clipPath><clipPath
       id="clip27-5"><rect
         x="395"
         y="0"
         width="812"
         height="402"
         id="rect630" /></clipPath><clipPath
       id="clip28-96"><rect
         x="395"
         y="0"
         width="812"
         height="402"
         id="rect633" /></clipPath><clipPath
       id="clip29-6"><rect
         x="395"
         y="0"
         width="812"
         height="402"
         id="rect636" /></clipPath><clipPath
       id="clip30-4"><rect
         x="395"
         y="0"
         width="812"
         height="402"
         id="rect639" /></clipPath><clipPath
       id="clip31-5"><rect
         x="395"
         y="0"
         width="812"
         height="402"
         id="rect642" /></clipPath><clipPath
       id="clip32-1"><rect
         x="395"
         y="0"
         width="812"
         height="402"
         id="rect645" /></clipPath><clipPath
       id="clip33-2"><rect
         x="395"
         y="0"
         width="812"
         height="402"
         id="rect648" /></clipPath><clipPath
       id="clip34-2"><rect
         x="395"
         y="0"
         width="812"
         height="402"
         id="rect651" /></clipPath><clipPath
       clipPathUnits="userSpaceOnUse"
       id="clipPath1099"><g
         id="g1103"
         transform="matrix(3.7795276,0,0,3.7795276,47.269381,263.36057)"><rect
           x="92.003723"
           y="-69.680817"
           width="214.84166"
           height="106.3625"
           id="rect1101"
           style="stroke-width:0.264583" /></g></clipPath><clipPath
       clipPathUnits="userSpaceOnUse"
       id="clipPath1105"><g
         id="g1109"
         transform="matrix(3.7795276,0,0,3.7795276,47.269381,263.36057)"><rect
           x="92.003723"
           y="-69.680817"
           width="214.84166"
           height="106.3625"
           id="rect1107"
           style="stroke-width:0.264583" /></g></clipPath><clipPath
       clipPathUnits="userSpaceOnUse"
       id="clipPath1111"><g
         id="g1115"
         transform="matrix(3.7795276,0,0,3.7795276,47.269381,263.36057)"><rect
           x="92.003723"
           y="-69.680817"
           width="214.84166"
           height="106.3625"
           id="rect1113"
           style="stroke-width:0.264583" /></g></clipPath><clipPath
       clipPathUnits="userSpaceOnUse"
       id="clipPath1117"><g
         id="g1121"
         transform="matrix(3.7795276,0,0,3.7795276,47.269381,263.36057)"><rect
           x="92.003723"
           y="-69.680817"
           width="214.84166"
           height="106.3625"
           id="rect1119"
           style="stroke-width:0.264583" /></g></clipPath><clipPath
       clipPathUnits="userSpaceOnUse"
       id="clipPath1123"><g
         id="g1127"
         transform="matrix(3.7795276,0,0,3.7795276,47.269381,263.36057)"><rect
           x="92.003723"
           y="-69.680817"
           width="214.84166"
           height="106.3625"
           id="rect1125"
           style="stroke-width:0.264583" /></g></clipPath><clipPath
       clipPathUnits="userSpaceOnUse"
       id="clipPath1129"><g
         id="g1133"
         transform="matrix(3.7795276,0,0,3.7795276,47.269381,263.36057)"><rect
           x="92.003723"
           y="-69.680817"
           width="214.84166"
           height="106.3625"
           id="rect1131"
           style="stroke-width:0.264583" /></g></clipPath><clipPath
       clipPathUnits="userSpaceOnUse"
       id="clipPath1135"><g
         id="g1139"
         transform="matrix(3.7795276,0,0,3.7795276,47.269381,263.36057)"><rect
           x="92.003723"
           y="-69.680817"
           width="214.84166"
           height="106.3625"
           id="rect1137"
           style="stroke-width:0.264583" /></g></clipPath><clipPath
       clipPathUnits="userSpaceOnUse"
       id="clipPath1141"><g
         id="g1145"
         transform="matrix(3.7795276,0,0,3.7795276,47.269381,263.36057)"><rect
           x="92.003723"
           y="-69.680817"
           width="214.84166"
           height="106.3625"
           id="rect1143"
           style="stroke-width:0.264583" /></g></clipPath><clipPath
       clipPathUnits="userSpaceOnUse"
       id="clipPath1147"><g
         id="g1151"
         transform="matrix(3.7795276,0,0,3.7795276,47.269381,263.36057)"><rect
           x="92.003723"
           y="-69.680817"
           width="214.84166"
           height="106.3625"
           id="rect1149"
           style="stroke-width:0.264583" /></g></clipPath><clipPath
       clipPathUnits="userSpaceOnUse"
       id="clipPath1153"><g
         id="g1157"
         transform="matrix(3.7795276,0,0,3.7795276,47.269381,263.36057)"><rect
           x="92.003723"
           y="-69.680817"
           width="214.84166"
           height="106.3625"
           id="rect1155"
           style="stroke-width:0.264583" /></g></clipPath><clipPath
       clipPathUnits="userSpaceOnUse"
       id="clipPath1159"><g
         id="g1163"
         transform="matrix(3.7795276,0,0,3.7795276,47.269381,263.36057)"><rect
           x="92.003723"
           y="-69.680817"
           width="214.84166"
           height="106.3625"
           id="rect1161"
           style="stroke-width:0.264583" /></g></clipPath><clipPath
       clipPathUnits="userSpaceOnUse"
       id="clipPath1165"><g
         id="g1169"
         transform="matrix(3.7795276,0,0,3.7795276,47.269381,263.36057)"><rect
           x="92.003723"
           y="-69.680817"
           width="214.84166"
           height="106.3625"
           id="rect1167"
           style="stroke-width:0.264583" /></g></clipPath><clipPath
       clipPathUnits="userSpaceOnUse"
       id="clipPath1171"><g
         id="g1175"
         transform="matrix(3.7795276,0,0,3.7795276,47.269381,263.36057)"><rect
           x="92.003723"
           y="-69.680817"
           width="214.84166"
           height="106.3625"
           id="rect1173"
           style="stroke-width:0.264583" /></g></clipPath><clipPath
       clipPathUnits="userSpaceOnUse"
       id="clipPath1177"><g
         id="g1181"
         transform="matrix(3.7795276,0,0,3.7795276,47.269381,263.36057)"><rect
           x="92.003723"
           y="-69.680817"
           width="214.84166"
           height="106.3625"
           id="rect1179"
           style="stroke-width:0.264583" /></g></clipPath><clipPath
       clipPathUnits="userSpaceOnUse"
       id="clipPath1183"><g
         id="g1187"><rect
           x="92.003723"
           y="-69.680817"
           width="214.84166"
           height="106.3625"
           id="rect1185"
           style="stroke-width:0.264583" /></g></clipPath></defs><g
     inkscape:label="Camada 1"
     inkscape:groupmode="layer"
     id="layer1"
     transform="translate(174.44794,26.662164)"><g
       id="g2201"
       transform="translate(-270.64215,40.273601)"><g
         clip-path="url(#clipPath1177)"
         id="g660"
         transform="matrix(0.26458333,0,0,0.26458333,-12.50669,-69.680817)"><path
           d="m 457.5,338.5 h 726 m -726,-24 h 726 m -726,-14 h 726 m -726,-11 h 726 m -726,-7 h 726 m -726,-7 h 726 m -726,-5 h 726 m -726,-5 h 726 m -726,-4 h 726 m -726,-4 h 726 m -726,-24 h 726 m -726,-14 h 726 m -726,-11 h 726 m -726,-7 h 726 m -726,-7 h 726 m -726,-5 h 726 m -726,-5 h 726 m -726,-4 h 726 m -726,-4 h 726 m -726,-24 h 726 m -726,-14 h 726 m -726,-11 h 726 m -726,-7 h 726 m -726,-7 h 726 m -726,-5 h 726 m -726,-5 h 726 m -726,-3.9999 h 726 m -726,-4 h 726 m -726,-24 h 726 m -726,-14 h 726 M 457.5,46.5 h 726 m -726,-6.9999 h 726 m -726,-7 h 726 m -726,-5 h 726 m -726,-5 h 726 m -726,-4 h 726"
           stroke="#f2f2f2"
           stroke-linejoin="round"
           stroke-miterlimit="10"
           fill="none"
           id="path658" /></g><g
         clip-path="url(#clipPath1171)"
         id="g664"
         transform="matrix(0.26458333,0,0,0.26458333,-12.50669,-69.680817)"><path
           d="m 457.5,338.5 h 726 m -726,-81 h 726 m -726,-81 h 726 m -726,-80.9999 h 726"
           stroke="#d9d9d9"
           stroke-linejoin="round"
           stroke-miterlimit="10"
           fill="none"
           id="path662" /></g><g
         clip-path="url(#clipPath1165)"
         id="g668"
         transform="matrix(0.26458333,0,0,0.26458333,-12.50669,-69.680817)"><path
           d="M 530.5,14.5001 V 338.5 m 72,-323.9999 V 338.5 m 73,-323.9999 V 338.5 m 73,-323.9999 V 338.5 m 72,-323.9999 V 338.5 m 73,-323.9999 V 338.5 m 73,-323.9999 V 338.5 m 72,-323.9999 V 338.5 m 73,-323.9999 V 338.5 m 72,-323.9999 V 338.5"
           stroke="#d9d9d9"
           stroke-linejoin="round"
           stroke-miterlimit="10"
           fill="none"
           id="path666" /></g><g
         clip-path="url(#clipPath1159)"
         id="g672"
         transform="matrix(0.26458333,0,0,0.26458333,-12.50669,-69.680817)"><rect
           x="457.5"
           y="14.5001"
           width="726"
           height="324"
           stroke="#000000"
           stroke-linejoin="round"
           stroke-miterlimit="10"
           fill="none"
           id="rect670" /></g><g
         clip-path="url(#clipPath1153)"
         id="g676"
         transform="matrix(0.26458333,0,0,0.26458333,-12.50669,-69.680817)"><path
           d="M 0,0 1.04987e-4,324"
           stroke="#000000"
           stroke-linejoin="round"
           stroke-miterlimit="10"
           fill="none"
           fill-rule="evenodd"
           transform="matrix(1,0,0,-1,457.5,338.5)"
           id="path674" /></g><g
         clip-path="url(#clipPath1147)"
         id="g680"
         transform="matrix(0.26458333,0,0,0.26458333,-12.50669,-69.680817)"><path
           d="m 457.5,338.5 h 3 m -3,-24 h 3 m -3,-14 h 3 m -3,-11 h 3 m -3,-7 h 3 m -3,-7 h 3 m -3,-5 h 3 m -3,-5 h 3 m -3,-4 h 3 m -3,-4 h 3 m -3,-24 h 3 m -3,-14 h 3 m -3,-11 h 3 m -3,-7 h 3 m -3,-7 h 3 m -3,-5 h 3 m -3,-5 h 3 m -3,-4 h 3 m -3,-4 h 3 m -3,-24 h 3 m -3,-14 h 3 m -3,-11 h 3 m -3,-7 h 3 m -3,-7 h 3 m -3,-5 h 3 m -3,-5 h 3 m -3,-3.9999 h 3 m -3,-4 h 3 m -3,-24 h 3 m -3,-14 h 3 M 457.5,46.5 h 3 m -3,-6.9999 h 3 m -3,-7 h 3 m -3,-5 h 3 m -3,-5 h 3 m -3,-4 h 3 m -3,-4 h 3 m -7,323.9999 h 7 m -7,-81 h 7 m -7,-81 h 7 m -7,-80.9999 h 7 m -7,-81 h 7"
           stroke="#000000"
           stroke-linejoin="round"
           stroke-miterlimit="10"
           fill="none"
           id="path678" /></g><g
         clip-path="url(#clipPath1141)"
         id="g684"
         transform="matrix(0.26458333,0,0,0.26458333,-12.50669,-69.680817)"><path
           d="m 457.5,14.5001 726,10e-5"
           stroke="#000000"
           stroke-linejoin="round"
           stroke-miterlimit="10"
           fill="none"
           fill-rule="evenodd"
           id="path682" /></g><g
         clip-path="url(#clipPath1135)"
         id="g688"
         transform="matrix(0.26458333,0,0,0.26458333,-12.50669,-69.680817)"><path
           d="m 457.5,11.5001 v 3 m 14,-3 v 3 m 15,-3 v 3 m 14,-3 v 3 m 15,-3 v 3 m 15,-3 v 3 m 14,-3 v 3 m 15,-3 v 3 m 14,-3 v 3 m 15,-3 v 3 m 14,-3 v 3 m 15,-3 v 3 m 14,-3 v 3 m 15,-3 v 3 m 14,-3 v 3 m 15,-3 v 3 m 14,-3 v 3 m 15,-3 v 3 m 14,-3 v 3 m 15,-3 v 3 m 15,-3 v 3 m 14,-3 v 3 m 15,-3 v 3 m 14,-3 v 3 m 15,-3 v 3 m 14,-3 v 3 m 15,-3 v 3 m 14,-3 v 3 m 15,-3 v 3 m 14,-3 v 3 m 15,-3 v 3 m 14,-3 v 3 m 15,-3 v 3 m 14,-3 v 3 m 15,-3 v 3 m 15,-3 v 3 m 14,-3 v 3 m 15,-3 v 3 m 14,-3 v 3 m 15,-3 v 3 m 14,-3 v 3 m 15,-3 v 3 m 14,-3 v 3 m 15,-3 v 3 m 14,-3 v 3 m 15,-3 v 3 m 14,-3 v 3 m 15,-3 v 3 m 14,-3 v 3 m 15,-3 v 3 m 14,-3 v 3 m -726,-3 v 7 m 73,-7 v 7 m 72,-7 v 7 m 73,-7 v 7 m 73,-7 v 7 m 72,-7 v 7 m 73,-7 v 7 m 73,-7 v 7 m 72,-7 v 7 m 73,-7 v 7 m 72,-7 v 7"
           stroke="#000000"
           stroke-linejoin="round"
           stroke-miterlimit="10"
           fill="none"
           id="path686" /></g><g
         clip-path="url(#clipPath1129)"
         id="g692"
         transform="matrix(0.26458333,0,0,0.26458333,-12.50669,-69.680817)"><path
           d="m 457,70 4,1 h 4 l 3,1 h 4 l 4,1 h 3 4 l 3,1 h 4 l 4,1 h 3 l 4,1 h 4 l 3,1 h 4 l 3,1 h 4 l 4,1 h 3 l 4,1 h 4 l 3,1 h 4 l 4,1 3,1 h 4 l 3,1 h 4 l 4,1 h 3 l 4,1 h 4 l 3,1 4,1 h 4 l 3,1 4,1 h 3 l 4,1 h 4 l 3,1 h 4 l 4,1 3,1 h 4 l 3,1 4,1 h 4 l 3,1 h 4 l 4,1 3,1 h 4 l 4,1 3,1 h 4 l 3,1 4,1 h 4 l 3,1 4,1 h 4 l 3,1 4,1 h 4 l 3,1 4,1 h 3 l 4,1 4,1 h 3 l 4,1 4,1 h 3 l 4,1 3,1 4,1 h 4 l 3,1 4,1 h 4 l 3,1 4,1 h 4 l 3,1 4,1 3,1 h 4 l 4,1 3,1 4,1 h 4 l 3,1 4,1 h 4 l 3,1 4,1 3,1 h 4 l 4,1 3,1 4,1 h 4 l 3,1 4,1 3,1 h 4 l 4,1 3,1 4,1 h 4 l 3,1 4,1 4,1 h 3 l 4,1 3,1 4,1 h 4 l 3,1 4,1 4,1 h 3 l 4,1 4,1 3,1 h 4 l 3,1 4,1 4,1 3,1 h 4 l 4,1 3,1 4,1 3,1 h 4 l 4,1 3,1 4,1 h 4 l 3,1 4,1 4,1 3,1 h 4 l 3,1 4,1 4,1 3,1 h 4 l 4,1 3,1 4,1 4,1 h 3 l 4,1 3,1 4,1 4,1 h 3 l 4,1 4,1 3,1 4,1 h 3 l 4,1 4,1 3,1 4,1 h 4 l 3,1 4,1 4,1 3,1 4,1 h 3 l 4,1 4,1 3,1 4,1 h 4 l 3,1 4,1 3,1 4,1 4,1 h 3 l 4,1 4,1 3,1 4,1 4,1 h 3 l 4,1 3,1 4,1 4,1 3,1"
           stroke="#ffc000"
           stroke-width="2"
           stroke-linecap="round"
           stroke-linejoin="round"
           stroke-miterlimit="10"
           fill="none"
           id="path690" /></g><g
         clip-path="url(#clipPath1123)"
         id="g696"
         transform="matrix(0.26458333,0,0,0.26458333,-12.50669,-69.680817)"><path
           d="m 457,123 4,2 4,2 3,2 4,2 4,2 3,2 4,1 3,2 4,1 4,2 3,2 4,1 4,1 3,2 4,1 3,1 4,1 4,2 3,1 4,1 4,1 3,1 4,1 4,1 3,1 4,1 3,1 4,1 4,1 3,1 4,1 4,1 3,1 4,1 4,1 3,1 h 4 l 3,1 4,1 4,1 3,1 4,1 h 4 l 3,1 4,1 3,1 4,1 h 4 l 3,1 4,1 4,1 h 3 l 4,1 4,1 3,1 h 4 l 3,1 4,1 4,1 h 3 l 4,1 4,1 3,1 h 4 l 4,1 3,1 4,1 h 3 l 4,1 4,1 3,1 h 4 l 4,1 3,1 4,1 h 3 l 4,1 4,1 3,1 h 4 l 4,1 3,1 4,1 h 4 l 3,1 4,1 3,1 h 4 l 4,1 3,1 h 4 l 4,1 3,1 4,1 h 4 l 3,1 4,1 3,1 h 4 l 4,1 3,1 4,1 h 4 l 3,1 4,1 3,1 4,1 h 4 l 3,1 4,1 4,1 h 3 l 4,1 4,1 3,1 h 4 l 3,1 4,1 4,1 3,1 h 4 l 4,1 3,1 h 4 l 4,1 3,1 4,1 3,1 h 4 l 4,1 3,1 4,1 h 4 l 3,1 4,1 3,1 4,1 h 4 l 3,1 4,1 4,1 h 3 l 4,1 4,1 3,1 h 4 l 3,1 4,1 4,1 3,1 h 4 l 4,1 3,1 4,1 4,1 h 3 l 4,1 3,1 4,1 h 4 l 3,1 4,1 4,1 3,1 h 4 l 3,1 4,1 4,1 h 3 l 4,1 4,1 3,1 4,1 h 4 l 3,1 4,1 3,1 4,1 h 4 l 3,1 4,1 4,1 3,1 h 4 l 3,1 4,1 4,1 h 3 l 4,1 4,1 3,1 4,1 h 4 l 3,1 4,1 3,1 4,1 h 4 l 3,1"
           stroke="#ed7d31"
           stroke-width="2"
           stroke-linecap="round"
           stroke-linejoin="round"
           stroke-miterlimit="10"
           fill="none"
           id="path694" /></g><g
         clip-path="url(#clipPath1117)"
         id="g700"
         transform="matrix(0.26458333,0,0,0.26458333,-12.50669,-69.680817)"><path
           d="m 457,122 4,2 4,2 3,2 4,1 4,2 3,2 4,1 3,2 4,1 4,2 3,1 4,2 4,1 3,1 4,2 3,1 4,1 4,1 3,2 4,1 4,1 3,1 4,1 4,1 3,2 4,1 3,1 4,1 4,1 3,1 4,1 4,1 3,1 4,1 4,1 3,1 h 4 l 3,2 h 4 l 4,1 3,1 4,1 4,1 3,1 4,1 3,1 h 4 l 4,1 3,1 4,1 4,1 3,1 4,1 h 4 l 3,1 4,1 3,1 4,1 4,1 h 3 l 4,1 4,1 3,1 4,1 4,1 h 3 l 4,1 3,1 4,1 4,1 3,1 h 4 l 4,1 3,1 4,1 3,1 h 4 l 4,1 3,1 4,1 4,1 h 3 l 4,1 4,1 3,1 4,1 h 3 l 4,1 4,1 3,1 4,1 h 4 l 3,1 4,1 4,1 3,1 4,1 h 3 l 4,1 4,1 3,1 4,1 h 4 l 3,1 4,1 3,1 4,1 h 4 l 3,1 4,1 4,1 3,1 h 4 l 4,1 3,1 4,1 3,1 h 4 l 4,1 3,1 4,1 4,1 3,1 h 4 l 4,1 3,1 4,1 h 3 l 4,1 4,1 3,1 4,1 h 4 l 3,1 4,1 3,1 4,1 h 4 l 3,1 4,1 4,1 3,1 4,1 h 4 l 3,1 4,1 3,1 4,1 4,1 h 3 l 4,1 4,1 3,1 4,1 h 4 l 3,1 4,1 3,1 4,1 h 4 l 3,1 4,1 4,1 3,1 4,1 h 3 l 4,1 4,1 3,1 4,1 h 4 l 3,1 4,1 4,1 3,1 h 4 l 3,1 4,1 4,1 3,1 4,1 h 4 l 3,1 4,1 3,1 4,1 h 4 l 3,1 4,1 4,1 3,1 4,1 h 4 l 3,1 4,1 3,1 4,1 h 4 l 3,1"
           stroke="#4472c4"
           stroke-width="2"
           stroke-linecap="round"
           stroke-linejoin="round"
           stroke-miterlimit="10"
           fill="none"
           id="path698" /></g><g
         clip-path="url(#clip12-5)"
         id="g704"
         transform="matrix(0.26458333,0,0,0.26458333,-12.50669,-69.680817)"><text
           font-family="Arial, Arial_MSFontService, sans-serif"
           font-weight="400"
           font-size="12px"
           transform="translate(410.34,343)"
           id="text702">0.0001</text></g><g
         clip-path="url(#clip13-0)"
         id="g708"
         transform="matrix(0.26458333,0,0,0.26458333,-12.50669,-69.680817)"><text
           font-family="Arial, Arial_MSFontService, sans-serif"
           font-weight="400"
           font-size="12px"
           transform="translate(417.013,262)"
           id="text706">0.001</text></g><g
         clip-path="url(#clip14-50)"
         id="g712"
         transform="matrix(0.26458333,0,0,0.26458333,-12.50669,-69.680817)"><text
           font-family="Arial, Arial_MSFontService, sans-serif"
           font-weight="400"
           font-size="12px"
           transform="translate(423.687,181)"
           id="text710">0.01</text></g><g
         clip-path="url(#clip15-0)"
         id="g716"
         transform="matrix(0.26458333,0,0,0.26458333,-12.50669,-69.680817)"><text
           font-family="Arial, Arial_MSFontService, sans-serif"
           font-weight="400"
           font-size="12px"
           transform="translate(430.36,100)"
           id="text714">0.1</text></g><g
         clip-path="url(#clip16-5)"
         id="g720"
         transform="matrix(0.26458333,0,0,0.26458333,-12.50669,-69.680817)"><text
           font-family="Arial, Arial_MSFontService, sans-serif"
           font-weight="400"
           font-size="12px"
           transform="translate(440.367,19)"
           id="text718">1</text></g><g
         clip-path="url(#clip17-13)"
         id="g724"
         transform="matrix(0.26458333,0,0,0.26458333,-12.50669,-69.680817)"><text
           font-family="Arial, Arial_MSFontService, sans-serif"
           font-weight="400"
           font-size="12px"
           transform="translate(454.024,33)"
           id="text722">0</text></g><g
         clip-path="url(#clip18-3)"
         id="g728"
         transform="matrix(0.26458333,0,0,0.26458333,-12.50669,-69.680817)"><text
           font-family="Arial, Arial_MSFontService, sans-serif"
           font-weight="400"
           font-size="12px"
           transform="translate(518.347,33)"
           id="text726">0.02</text></g><g
         clip-path="url(#clip19-7)"
         id="g732"
         transform="matrix(0.26458333,0,0,0.26458333,-12.50669,-69.680817)"><text
           font-family="Arial, Arial_MSFontService, sans-serif"
           font-weight="400"
           font-size="12px"
           transform="translate(591.01,33)"
           id="text730">0.04</text></g><g
         clip-path="url(#clip20-1)"
         id="g736"
         transform="matrix(0.26458333,0,0,0.26458333,-12.50669,-69.680817)"><text
           font-family="Arial, Arial_MSFontService, sans-serif"
           font-weight="400"
           font-size="12px"
           transform="translate(663.673,33)"
           id="text734">0.06</text></g><g
         clip-path="url(#clip21-4)"
         id="g740"
         transform="matrix(0.26458333,0,0,0.26458333,-12.50669,-69.680817)"><text
           font-family="Arial, Arial_MSFontService, sans-serif"
           font-weight="400"
           font-size="12px"
           transform="translate(736.337,33)"
           id="text738">0.08</text></g><g
         clip-path="url(#clip22-0)"
         id="g744"
         transform="matrix(0.26458333,0,0,0.26458333,-12.50669,-69.680817)"><text
           font-family="Arial, Arial_MSFontService, sans-serif"
           font-weight="400"
           font-size="12px"
           transform="translate(812.337,33)"
           id="text742">0.1</text></g><g
         clip-path="url(#clip23-6)"
         id="g748"
         transform="matrix(0.26458333,0,0,0.26458333,-12.50669,-69.680817)"><text
           font-family="Arial, Arial_MSFontService, sans-serif"
           font-weight="400"
           font-size="12px"
           transform="translate(881.663,33)"
           id="text746">0.12</text></g><g
         clip-path="url(#clip24-1)"
         id="g752"
         transform="matrix(0.26458333,0,0,0.26458333,-12.50669,-69.680817)"><text
           font-family="Arial, Arial_MSFontService, sans-serif"
           font-weight="400"
           font-size="12px"
           transform="translate(954.327,33)"
           id="text750">0.14</text></g><g
         clip-path="url(#clip25-3)"
         id="g756"
         transform="matrix(0.26458333,0,0,0.26458333,-12.50669,-69.680817)"><text
           font-family="Arial, Arial_MSFontService, sans-serif"
           font-weight="400"
           font-size="12px"
           transform="translate(1026.99,33)"
           id="text754">0.16</text></g><g
         clip-path="url(#clip26-8)"
         id="g760"
         transform="matrix(0.26458333,0,0,0.26458333,-12.50669,-69.680817)"><text
           font-family="Arial, Arial_MSFontService, sans-serif"
           font-weight="400"
           font-size="12px"
           transform="translate(1099.65,33)"
           id="text758">0.18</text></g><g
         clip-path="url(#clip27-5)"
         id="g764"
         transform="matrix(0.26458333,0,0,0.26458333,-12.50669,-69.680817)"><text
           font-family="Arial, Arial_MSFontService, sans-serif"
           font-weight="400"
           font-size="12px"
           transform="translate(1175.65,33)"
           id="text762">0.2</text></g><g
         clip-path="url(#clip28-96)"
         id="g768"
         transform="matrix(0.26458333,0,0,0.26458333,-12.50669,-69.680817)"><text
           font-family="Arial, Arial_MSFontService, sans-serif"
           font-weight="400"
           font-size="13px"
           transform="translate(799.93,354)"
           id="text766">Tempo</text></g><g
         id="g1024"
         transform="translate(34.312296,22.144815)"><rect
           style="fill:#ffffff;fill-opacity:1;stroke:#000000;stroke-width:0.290403;stroke-opacity:1"
           id="rect1565"
           width="36.282402"
           height="18.00658"
           x="221.6601"
           y="-79.857544" /><g
           id="g2146"
           transform="translate(70.159701,8.077152)"><g
             clip-path="url(#clipPath1441)"
             id="g1194"
             transform="matrix(0.26458333,0,0,0.26458333,-134.25806,-350.31587)"><path
               d="m 1089,1005 h 25"
               stroke="#ffc000"
               stroke-width="2"
               stroke-linecap="round"
               stroke-linejoin="round"
               stroke-miterlimit="10"
               fill="none"
               fill-rule="evenodd"
               id="path1192" /></g><g
             clip-path="url(#clip29-5)"
             id="g1198"
             transform="matrix(0.26458333,0,0,0.26458333,-134.25806,-350.31587)"><text
               font-family="Arial, Arial_MSFontService, sans-serif"
               font-weight="400"
               font-size="12px"
               transform="translate(1116.81,1009)"
               id="text1196">VMS-Linear</text></g><g
             clip-path="url(#clipPath1435)"
             id="g1202"
             transform="matrix(0.26458333,0,0,0.26458333,-134.25806,-350.31587)"><path
               d="m 1089,1026 h 25"
               stroke="#ed7d31"
               stroke-width="2"
               stroke-linecap="round"
               stroke-linejoin="round"
               stroke-miterlimit="10"
               fill="none"
               fill-rule="evenodd"
               id="path1200" /></g><g
             clip-path="url(#clip31-1)"
             id="g1206"
             transform="matrix(0.26458333,0,0,0.26458333,-134.25806,-350.31587)"><text
               font-family="Arial, Arial_MSFontService, sans-serif"
               font-weight="400"
               font-size="12px"
               transform="translate(1116.81,1030)"
               id="text1204">L2-LES</text></g><g
             clip-path="url(#clipPath1429)"
             id="g1210"
             transform="matrix(0.26458333,0,0,0.26458333,-134.25806,-350.31587)"><path
               d="m 1089,1047 h 25"
               stroke="#4472c4"
               stroke-width="2"
               stroke-linecap="round"
               stroke-linejoin="round"
               stroke-miterlimit="10"
               fill="none"
               fill-rule="evenodd"
               id="path1208" /></g><g
             clip-path="url(#clip33-6)"
             id="g1214"
             transform="matrix(0.26458333,0,0,0.26458333,-134.25806,-350.31587)"><text
               font-family="Arial, Arial_MSFontService, sans-serif"
               font-weight="400"
               font-size="12px"
               transform="translate(1116.81,1051)"
               id="text1212">VMS-Quadrático</text></g></g></g></g></g></svg>
