<?xml version="1.0" encoding="UTF-8" standalone="no"?>
<!-- Created with Inkscape (http://www.inkscape.org/) -->

<svg
   width="178.59375mm"
   height="97.102081mm"
   viewBox="0 0 178.59375 97.102081"
   version="1.1"
   id="svg1"
   inkscape:version="1.3.2 (091e20e, 2023-11-25, custom)"
   sodipodi:docname="Cp.svg"
   xmlns:inkscape="http://www.inkscape.org/namespaces/inkscape"
   xmlns:sodipodi="http://sodipodi.sourceforge.net/DTD/sodipodi-0.dtd"
   xmlns="http://www.w3.org/2000/svg"
   xmlns:svg="http://www.w3.org/2000/svg">
  <sodipodi:namedview
     id="namedview1"
     pagecolor="#ffffff"
     bordercolor="#000000"
     borderopacity="0.25"
     inkscape:showpageshadow="2"
     inkscape:pageopacity="0.0"
     inkscape:pagecheckerboard="0"
     inkscape:deskcolor="#d1d1d1"
     inkscape:document-units="mm"
     inkscape:zoom="1.4627806"
     inkscape:cx="289.17529"
     inkscape:cy="208.84882"
     inkscape:window-width="1920"
     inkscape:window-height="1017"
     inkscape:window-x="1912"
     inkscape:window-y="-8"
     inkscape:window-maximized="1"
     inkscape:current-layer="layer1" />
  <defs
     id="defs1">
    <clipPath
       id="clip0">
      <rect
         x="694"
         y="0"
         width="675"
         height="367"
         id="rect1" />
    </clipPath>
    <clipPath
       id="clip1">
      <rect
         x="733"
         y="14"
         width="613"
         height="310"
         id="rect2" />
    </clipPath>
    <clipPath
       id="clip2">
      <rect
         x="733"
         y="14"
         width="613"
         height="310"
         id="rect3" />
    </clipPath>
  </defs>
  <g
     inkscape:label="Camada 1"
     inkscape:groupmode="layer"
     id="layer1"
     transform="translate(-4.283781,-98.940064)">
    <g
       clip-path="url(#clip0)"
       transform="matrix(0.26458333,0,0,0.26458333,-179.33705,98.940064)"
       id="g42">
      <rect
         x="694"
         y="0"
         width="675"
         height="367"
         fill="#ffffff"
         id="rect4" />
      <g
         id="g4">
        <path
           d="m 733.5,323.5 h 612 m -612,-45 h 612 m -612,-44 h 612 m -612,-88 h 612 m -612,-44 h 612 m -612,-43.9999 h 612 m -612,-44 h 612"
           stroke="#d9d9d9"
           stroke-linejoin="round"
           stroke-miterlimit="10"
           fill="none"
           id="path4" />
      </g>
      <g
         id="g5">
        <path
           d="M 794.5,14.5001 V 323.5 m 61,-308.9999 V 323.5 m 62,-308.9999 V 323.5 m 61,-308.9999 V 323.5 m 61,-308.9999 V 323.5 m 61,-308.9999 V 323.5 m 62,-308.9999 V 323.5 m 61,-308.9999 V 323.5 m 61,-308.9999 V 323.5 m 61,-308.9999 V 323.5"
           stroke="#d9d9d9"
           stroke-linejoin="round"
           stroke-miterlimit="10"
           fill="none"
           id="path5" />
      </g>
      <g
         id="g6">
        <rect
           x="733.5"
           y="14.5001"
           width="612"
           height="309"
           stroke="#000000"
           stroke-linejoin="round"
           stroke-miterlimit="10"
           fill="none"
           id="rect5" />
      </g>
      <g
         id="g7">
        <path
           d="M 0,0 1.04987e-4,309"
           stroke="#000000"
           stroke-linejoin="round"
           stroke-miterlimit="10"
           fill="none"
           fill-rule="evenodd"
           transform="matrix(1,0,0,-1,733.5,323.5)"
           id="path6" />
      </g>
      <g
         id="g8">
        <path
           d="m 733.5,323.5 h 3 m -3,-9 h 3 m -3,-9 h 3 m -3,-9 h 3 m -3,-9 h 3 m -3,-9 h 3 m -3,-8 h 3 m -3,-9 h 3 m -3,-9 h 3 m -3,-9 h 3 m -3,-9 h 3 m -3,-8 h 3 m -3,-9 h 3 m -3,-9 h 3 m -3,-9 h 3 m -3,-9 h 3 m -3,-8 h 3 m -3,-9 h 3 m -3,-9 h 3 m -3,-9 h 3 m -3,-9 h 3 m -3,-8 h 3 m -3,-9 h 3 m -3,-9 h 3 m -3,-9 h 3 m -3,-9 h 3 m -3,-8.9999 h 3 m -3,-8 h 3 m -3,-9.0001 h 3 m -3,-8.9999 h 3 m -3,-9 h 3 m -3,-9 h 3 m -3,-8 h 3 m -3,-9 h 3 m -3,-9 h 3 m -3,-9 h 3 m -7,308.9999 h 8 m -8,-45 h 8 m -8,-44 h 8 m -8,-44 h 8 m -8,-44 h 8 m -8,-44 h 8 m -8,-43.9999 h 8 m -8,-44 h 8"
           stroke="#000000"
           stroke-linejoin="round"
           stroke-miterlimit="10"
           fill="none"
           id="path7" />
      </g>
      <g
         id="g9">
        <path
           d="m 733.5,190.5 h 612"
           stroke="#000000"
           stroke-linejoin="round"
           stroke-miterlimit="10"
           fill="none"
           fill-rule="evenodd"
           id="path8" />
      </g>
      <g
         id="g10">
        <path
           d="m 733.5,188.5 v 2 m 12,-2 v 2 m 13,-2 v 2 m 12,-2 v 2 m 12,-2 v 2 m 12,-2 v 2 m 13,-2 v 2 m 12,-2 v 2 m 12,-2 v 2 m 12,-2 v 2 m 12,-2 v 2 m 13,-2 v 2 m 12,-2 v 2 m 12,-2 v 2 m 12,-2 v 2 m 13,-2 v 2 m 12,-2 v 2 m 12,-2 v 2 m 12,-2 v 2 m 13,-2 v 2 m 12,-2 v 2 m 12,-2 v 2 m 12,-2 v 2 m 13,-2 v 2 m 12,-2 v 2 m 12,-2 v 2 m 12,-2 v 2 m 13,-2 v 2 m 12,-2 v 2 m 12,-2 v 2 m 12,-2 v 2 m 13,-2 v 2 m 12,-2 v 2 m 12,-2 v 2 m 12,-2 v 2 m 13,-2 v 2 m 12,-2 v 2 m 12,-2 v 2 m 12,-2 v 2 m 13,-2 v 2 m 12,-2 v 2 m 12,-2 v 2 m 12,-2 v 2 m 12,-2 v 2 m 13,-2 v 2 m 12,-2 v 2 m 12,-2 v 2 m 12,-2 v 2 m 13,-2 v 2 m 12,-2 v 2 m 12,-2 v 2 m -612,-3 v 7 m 61,-7 v 7 m 61,-7 v 7 m 62,-7 v 7 m 61,-7 v 7 m 61,-7 v 7 m 61,-7 v 7 m 62,-7 v 7 m 61,-7 v 7 m 61,-7 v 7 m 61,-7 v 7"
           stroke="#000000"
           stroke-linejoin="round"
           stroke-miterlimit="10"
           fill="none"
           id="path9" />
      </g>
      <g
         clip-path="url(#clip1)"
         id="g11">
        <path
           d="m 1346,195 h -1 -1 -2 -2 l -3,-1 h -4 -5 -5 l -6,-1 h -6 l -8,-1 h -7 l -9,-1 h -9 l -9,-1 h -10 -11 -11 l -12,-1 h -11 -13 l -13,-2 -13,-4 -13,-5 -14,-8 -14,-8 -14,-9 -14,-8 -15,-9 -14,-4 h -15 l -15,5 -15,3 h -15 l -14,-1 h -15 -14 -15 l -14,-1 h -14 l -14,-1 h -13 l -13,-1 -13,-1 -12,-2 -12,-2 -12,-3 -11,-4 -10,-3 -10,-11 -10,-3 -9,-5 -8,-4 -8,-6 -7,-6 -7,-4 -6,-6 -5,-7 -5,-7 -4,-12 -3,14 -2,15 -2,19 -1,41 v 63 50 l 1,23 2,5 2,-6 3,-11 4,-9 5,-12 5,-7 6,-9 7,-5 7,-7 8,-4 8,-4 9,-4 10,-2 10,-7 10,-1 11,-1 12,-1 12,-1 12,-1 13,-1 13,-1 h 13 l 14,-1 h 14 14 15 14 15 14 15 15 15 l 15,1 h 14 15 l 42,1 14,1 h 13 l 13,1 h 25 l 12,1 23,1 h 11 10 l 9,1 h 9 9 l 7,1 h 8 6 6 l 5,1 h 9 3 2 2 1 7"
           stroke="#4472c4"
           stroke-width="2"
           stroke-linecap="round"
           stroke-linejoin="round"
           stroke-miterlimit="10"
           fill="none"
           id="path10" />
      </g>
      <g
         clip-path="url(#clip2)"
         id="g12">
        <path
           d="m 1346,194 h -1 -1 -2 -2 -3 l -4,-1 h -5 -5 -6 -6 l -8,-1 h -7 -9 -9 -9 -10 -11 -11 -12 -11 l -13,-2 -13,-3 -13,-5 -13,-7 -14,-7 -14,-7 -14,-8 -14,-7 -15,-9 -14,-7 -15,-6 -15,-3 -15,-1 -15,3 -14,3 -15,3 -14,2 -15,1 h -14 -14 -14 l -13,-1 h -13 -13 l -12,-1 h -12 l -12,-1 -11,-2 -10,-2 -10,-6 -10,-3 -9,-4 -8,-4 -8,-5 -7,-6 -7,-4 -6,-6 -5,-6 -5,-6 -4,-7 -3,10 -2,14 -2,22 -1,39 v 57 45 l 1,21 2,4 2,-6 3,-12 4,-9 5,-11 5,-9 6,-7 7,-6 7,-6 8,-5 8,-4 9,-4 10,-3 10,-3 10,-3 11,-1 12,-2 12,-1 12,-1 13,-1 h 13 l 13,-1 h 14 14 14 l 15,-1 h 14 l 15,1 h 14 15 15 15 l 15,1 h 14 15 l 42,1 14,1 h 13 13 l 25,1 h 12 l 23,1 11,1 h 10 9 l 9,1 h 9 7 8 l 6,1 h 6 5 9 3 2 2 1 7"
           stroke="#ed7d31"
           stroke-width="2"
           stroke-linecap="round"
           stroke-linejoin="round"
           stroke-miterlimit="10"
           fill="none"
           id="path11" />
      </g>
      <g
         id="g13">
        <path
           d="m 1346,198 -4,-1 h -2 l -3,-1 h -4 l -5,-1 h -5 l -6,-1 -6,-1 -8,-1 -7,-1 -9,-1 -9,-1 h -9 l -10,-1 -11,-1 -11,-1 -12,-1 -11,-1 -13,-1 -13,-1 -13,-1 -13,-1 h -14 l -14,-2 -14,-2 -14,-2 -15,-5 -14,-6 -15,-9 -15,-10 -15,-8 -15,-8 -14,-6 -15,-3 -14,-3 -15,-1 -14,-1 h -14 -14 -13 l -13,-1 h -13 -12 l -12,-1 h -12 -11 l -10,1 -10,1 -10,1 -9,-1 -8,-1 -8,-3 -7,-3 -7,-4 -6,-7 -5,-12 -5,-4 -4,-9 -3,13 -2,5 -2,42 -1,40 v 45 41 l 1,18 2,3 2,-5 3,-11 4,-11 5,-8 5,-13 6,-5 7,-5 7,-5 8,-4 8,-4 9,-4 10,2 10,-12 10,-1 h 11 l 12,-1 12,-1 12,-1 13,-1 h 13 l 13,-1 h 14 l 14,-1 14,1 15,-1 14,1 h 15 14 15 15 15 15 l 14,2 h 15 14 14 l 14,1 h 14 l 13,1 h 13 l 13,1 h 12 l 12,1 h 12 l 11,1 h 11 l 10,1 h 9 l 9,1 h 9 7 l 8,1 h 6 6 5"
           stroke="#ffc000"
           stroke-width="2"
           stroke-linecap="round"
           stroke-linejoin="round"
           stroke-miterlimit="10"
           fill="none"
           id="path12" />
      </g>
      <g
         id="g14">
        <path
           d="m 734,147 1,-34 V 92 l 1,-21 1,-10 2,-12 1,-8 5,2 7,7 7,9 16,16 18,14 15,8 18,8 34,10 34,6 57,4 38,1 24,1 h 14 l 13,4 9,5 12,8 16,12 10,7 13,5 15,3 16,2 25,2 60,6 49,6 40,6 25,4 14,3 -31,-2 -26,-1 -35,-2 -29,-1 -34,-2 -42,-2 -58,-1 -58,-2 h -59 -22 -11 l -17,1 -34,2 -32,3 -21,3 -18,4 -16,5 -12,6 -11,7 -9,8 -10,11 -7,12 -7,13 -3,9 -4,6 -2,-4 -2,-38 v -45 -43"
           stroke="#000000"
           stroke-width="2"
           stroke-linecap="round"
           stroke-linejoin="round"
           stroke-miterlimit="10"
           stroke-dasharray="4, 4"
           fill="none"
           id="path13" />
      </g>
      <g
         id="g15">
        <text
           font-family="Arial, Arial_MSFontService, sans-serif"
           font-weight="400"
           font-size="12px"
           transform="translate(702.58,327)"
           id="text14">-1.5</text>
      </g>
      <g
         id="g16">
        <text
           font-family="Arial, Arial_MSFontService, sans-serif"
           font-weight="400"
           font-size="12px"
           transform="translate(702.58,283)"
           id="text15">-1.0</text>
      </g>
      <g
         id="g17">
        <text
           font-family="Arial, Arial_MSFontService, sans-serif"
           font-weight="400"
           font-size="12px"
           transform="translate(702.58,239)"
           id="text16">-0.5</text>
      </g>
      <g
         id="g18">
        <text
           font-family="Arial, Arial_MSFontService, sans-serif"
           font-weight="400"
           font-size="12px"
           transform="translate(706.573,195)"
           id="text17">0.0</text>
      </g>
      <g
         id="g19">
        <text
           font-family="Arial, Arial_MSFontService, sans-serif"
           font-weight="400"
           font-size="12px"
           transform="translate(706.573,151)"
           id="text18">0.5</text>
      </g>
      <g
         id="g20">
        <text
           font-family="Arial, Arial_MSFontService, sans-serif"
           font-weight="400"
           font-size="12px"
           transform="translate(706.573,107)"
           id="text19">1.0</text>
      </g>
      <g
         id="g21">
        <text
           font-family="Arial, Arial_MSFontService, sans-serif"
           font-weight="400"
           font-size="12px"
           transform="translate(706.573,63)"
           id="text20">1.5</text>
      </g>
      <g
         id="g22">
        <text
           font-family="Arial, Arial_MSFontService, sans-serif"
           font-weight="400"
           font-size="12px"
           transform="translate(706.573,19)"
           id="text21">2.0</text>
      </g>
      <g
         id="g23">
        <text
           font-family="Arial, Arial_MSFontService, sans-serif"
           font-weight="400"
           font-size="12px"
           transform="translate(725.233,209)"
           id="text22">0.0</text>
      </g>
      <g
         id="g24">
        <text
           font-family="Arial, Arial_MSFontService, sans-serif"
           font-weight="400"
           font-size="12px"
           transform="translate(786.445,209)"
           id="text23">0.1</text>
      </g>
      <g
         id="g25">
        <text
           font-family="Arial, Arial_MSFontService, sans-serif"
           font-weight="400"
           font-size="12px"
           transform="translate(847.656,209)"
           id="text24">0.2</text>
      </g>
      <g
         id="g26">
        <text
           font-family="Arial, Arial_MSFontService, sans-serif"
           font-weight="400"
           font-size="12px"
           transform="translate(908.868,209)"
           id="text25">0.3</text>
      </g>
      <g
         id="g27">
        <text
           font-family="Arial, Arial_MSFontService, sans-serif"
           font-weight="400"
           font-size="12px"
           transform="translate(970.079,209)"
           id="text26">0.4</text>
      </g>
      <g
         id="g28">
        <text
           font-family="Arial, Arial_MSFontService, sans-serif"
           font-weight="400"
           font-size="12px"
           transform="translate(1031.29,209)"
           id="text27">0.5</text>
      </g>
      <g
         id="g29">
        <text
           font-family="Arial, Arial_MSFontService, sans-serif"
           font-weight="400"
           font-size="12px"
           transform="translate(1092.5,209)"
           id="text28">0.6</text>
      </g>
      <g
         id="g30">
        <text
           font-family="Arial, Arial_MSFontService, sans-serif"
           font-weight="400"
           font-size="12px"
           transform="translate(1153.71,209)"
           id="text29">0.7</text>
      </g>
      <g
         id="g31">
        <text
           font-family="Arial, Arial_MSFontService, sans-serif"
           font-weight="400"
           font-size="12px"
           transform="translate(1214.93,209)"
           id="text30">0.8</text>
      </g>
      <g
         id="g32">
        <text
           font-family="Arial, Arial_MSFontService, sans-serif"
           font-weight="400"
           font-size="12px"
           transform="translate(1276.14,209)"
           id="text31">0.9</text>
      </g>
      <g
         id="g33">
        <text
           font-family="Arial, Arial_MSFontService, sans-serif"
           font-weight="400"
           font-size="12px"
           transform="translate(1337.35,209)"
           id="text32">1.0</text>
      </g>
      <g
         id="g34">
        <path
           d="m 823,348 h 34"
           stroke="#4472c4"
           stroke-width="2"
           stroke-linecap="round"
           stroke-linejoin="round"
           stroke-miterlimit="10"
           fill="none"
           fill-rule="evenodd"
           id="path33" />
      </g>
      <g
         id="g35">
        <text
           font-family="Arial, Arial_MSFontService, sans-serif"
           font-weight="400"
           font-size="12px"
           transform="translate(860.574,352)"
           id="text34">DNS</text>
      </g>
      <g
         id="g36">
        <path
           d="m 906,348 h 33"
           stroke="#ed7d31"
           stroke-width="2"
           stroke-linecap="round"
           stroke-linejoin="round"
           stroke-miterlimit="10"
           fill="none"
           fill-rule="evenodd"
           id="path35" />
      </g>
      <g
         id="g37">
        <text
           font-family="Arial, Arial_MSFontService, sans-serif"
           font-weight="400"
           font-size="12px"
           transform="translate(943.145,352)"
           id="text36">LES</text>
      </g>
      <g
         id="g38">
        <path
           d="m 986,348 h 33"
           stroke="#ffc000"
           stroke-width="2"
           stroke-linecap="round"
           stroke-linejoin="round"
           stroke-miterlimit="10"
           fill="none"
           fill-rule="evenodd"
           id="path37" />
      </g>
      <g
         id="g39">
        <text
           font-family="Arial, Arial_MSFontService, sans-serif"
           font-weight="400"
           font-size="12px"
           transform="translate(1023.06,352)"
           id="text38">LES-3D</text>
      </g>
      <g
         id="g40">
        <path
           d="m 1085,348 h 34"
           stroke="#000000"
           stroke-width="2"
           stroke-linecap="round"
           stroke-linejoin="round"
           stroke-miterlimit="10"
           stroke-dasharray="4, 4"
           fill="none"
           fill-rule="evenodd"
           id="path39" />
      </g>
      <g
         id="g41">
        <text
           font-family="Arial, Arial_MSFontService, sans-serif"
           font-weight="400"
           font-size="12px"
           transform="translate(1122.31,352)"
           id="text40">Lehmkuhl et. al. (2011)</text>
      </g>
    </g>
  </g>
</svg>
