<?xml version="1.0" encoding="UTF-8" standalone="no"?>
<!-- Created with Inkscape (http://www.inkscape.org/) -->

<svg
   version="1.1"
   id="svg1"
   width="982.56"
   height="556.16003"
   viewBox="0 0 982.55998 556.16005"
   sodipodi:docname="NACA0012.svg"
   inkscape:version="1.3.2 (091e20e, 2023-11-25, custom)"
   xmlns:inkscape="http://www.inkscape.org/namespaces/inkscape"
   xmlns:sodipodi="http://sodipodi.sourceforge.net/DTD/sodipodi-0.dtd"
   xmlns:xlink="http://www.w3.org/1999/xlink"
   xmlns="http://www.w3.org/2000/svg"
   xmlns:svg="http://www.w3.org/2000/svg">
  <sodipodi:namedview
     id="namedview1"
     pagecolor="#ffffff"
     bordercolor="#000000"
     borderopacity="0.25"
     inkscape:showpageshadow="2"
     inkscape:pageopacity="0.0"
     inkscape:pagecheckerboard="0"
     inkscape:deskcolor="#d1d1d1"
     showgrid="false"
     inkscape:zoom="1.0342067"
     inkscape:cx="435.11611"
     inkscape:cy="242.21464"
     inkscape:window-width="1920"
     inkscape:window-height="1017"
     inkscape:window-x="-8"
     inkscape:window-y="-8"
     inkscape:window-maximized="1"
     inkscape:current-layer="layer-oc1">
    <inkscape:page
       x="0"
       y="0"
       inkscape:label="[1] Layout1"
       id="page1"
       width="982.56"
       height="556.16003"
       margin="0"
       bleed="0" />
    <inkscape:grid
       id="grid108"
       units="px"
       originx="0"
       originy="0"
       spacingx="0.99999998"
       spacingy="1"
       empcolor="#0099e5"
       empopacity="0.30196078"
       color="#0099e5"
       opacity="0.14901961"
       empspacing="5"
       dotted="false"
       gridanglex="30"
       gridanglez="30"
       visible="false" />
  </sodipodi:namedview>
  <defs
     id="defs1">
    <linearGradient
       id="linearGradient111"
       inkscape:collect="always">
      <stop
         style="stop-color:#000000;stop-opacity:0;"
         offset="0"
         id="stop112" />
      <stop
         style="stop-color:#000000;stop-opacity:0.2;"
         offset="1"
         id="stop111" />
    </linearGradient>
    <marker
       style="overflow:visible"
       id="marker110"
       refX="2"
       refY="0"
       orient="auto-start-reverse"
       inkscape:stockid="Triangle arrow"
       markerWidth="1.5"
       markerHeight="0.75"
       viewBox="0 0 1 1"
       inkscape:isstock="true"
       inkscape:collect="always"
       preserveAspectRatio="none">
      <path
         transform="scale(0.5)"
         style="fill:context-stroke;fill-rule:evenodd;stroke:context-stroke;stroke-width:1pt"
         d="M 5.77,0 -2.88,5 V -5 Z"
         id="path110" />
    </marker>
    <marker
       style="overflow:visible"
       id="Triangle"
       refX="2"
       refY="0"
       orient="auto-start-reverse"
       inkscape:stockid="Triangle arrow"
       markerWidth="2"
       markerHeight="1"
       viewBox="0 0 1 1"
       inkscape:isstock="true"
       inkscape:collect="always"
       preserveAspectRatio="none">
      <path
         transform="scale(0.5)"
         style="fill:context-stroke;fill-rule:evenodd;stroke:context-stroke;stroke-width:1pt"
         d="M 5.77,0 -2.88,5 V -5 Z"
         id="path135" />
    </marker>
    <clipPath
       clipPathUnits="userSpaceOnUse"
       id="clipPath7">
      <path
         d="M 982,719 H 19123 V 13556 H 982 V 719"
         transform="translate(0,-2.0833333e-4)"
         id="path7" />
    </clipPath>
    <clipPath
       clipPathUnits="userSpaceOnUse"
       id="clipPath9">
      <path
         d="M 982,719 H 19123 V 13556 H 982 V 719"
         transform="translate(0,-2.0833333e-4)"
         id="path9" />
    </clipPath>
    <clipPath
       clipPathUnits="userSpaceOnUse"
       id="clipPath14">
      <path
         d="M 982,719 H 19123 V 13556 H 982 V 719"
         transform="translate(0,-2.0833333e-4)"
         id="path14" />
    </clipPath>
    <clipPath
       clipPathUnits="userSpaceOnUse"
       id="clipPath16">
      <path
         d="M 982,719 H 19123 V 13556 H 982 V 719"
         transform="translate(0,-2.0833333e-4)"
         id="path16" />
    </clipPath>
    <clipPath
       clipPathUnits="userSpaceOnUse"
       id="clipPath21">
      <path
         d="M 982,719 H 19123 V 13556 H 982 V 719"
         transform="translate(0,-2.0833333e-4)"
         id="path21" />
    </clipPath>
    <clipPath
       clipPathUnits="userSpaceOnUse"
       id="clipPath23">
      <path
         d="M 982,719 H 19123 V 13556 H 982 V 719"
         transform="translate(0,-2.0833333e-4)"
         id="path23" />
    </clipPath>
    <clipPath
       clipPathUnits="userSpaceOnUse"
       id="clipPath28">
      <path
         d="M 982,719 H 19123 V 13556 H 982 V 719"
         transform="translate(0,-2.0833333e-4)"
         id="path28" />
    </clipPath>
    <clipPath
       clipPathUnits="userSpaceOnUse"
       id="clipPath30">
      <path
         d="M 982,719 H 19123 V 13556 H 982 V 719"
         transform="translate(0,-2.0833333e-4)"
         id="path30" />
    </clipPath>
    <clipPath
       clipPathUnits="userSpaceOnUse"
       id="clipPath33">
      <path
         d="M 982,719 H 19123 V 13556 H 982 V 719"
         transform="translate(0,-2.0833333e-4)"
         id="path33" />
    </clipPath>
    <clipPath
       clipPathUnits="userSpaceOnUse"
       id="clipPath38">
      <path
         d="M 982,719 H 19123 V 13556 H 982 V 719"
         transform="translate(0,-2.0833333e-4)"
         id="path38" />
    </clipPath>
    <clipPath
       clipPathUnits="userSpaceOnUse"
       id="clipPath41">
      <path
         d="M 982,719 H 19123 V 13556 H 982 V 719"
         transform="translate(0,-2.0833333e-4)"
         id="path41" />
    </clipPath>
    <clipPath
       clipPathUnits="userSpaceOnUse"
       id="clipPath43">
      <path
         d="M 982,719 H 19123 V 13556 H 982 V 719"
         transform="translate(0,-2.0833333e-4)"
         id="path43" />
    </clipPath>
    <clipPath
       clipPathUnits="userSpaceOnUse"
       id="clipPath52">
      <path
         d="M 982,719 H 19123 V 13556 H 982 V 719"
         transform="translate(0,-2.0833333e-4)"
         id="path52" />
    </clipPath>
    <clipPath
       clipPathUnits="userSpaceOnUse"
       id="clipPath54">
      <path
         d="M 982,719 H 19123 V 13556 H 982 V 719"
         transform="translate(0,-2.0833333e-4)"
         id="path54" />
    </clipPath>
    <clipPath
       clipPathUnits="userSpaceOnUse"
       id="clipPath59">
      <path
         d="M 982,719 H 19123 V 13556 H 982 V 719"
         transform="translate(0,-2.0833333e-4)"
         id="path59" />
    </clipPath>
    <clipPath
       clipPathUnits="userSpaceOnUse"
       id="clipPath61">
      <path
         d="M 982,719 H 19123 V 13556 H 982 V 719"
         transform="translate(0,-2.0833333e-4)"
         id="path61" />
    </clipPath>
    <clipPath
       clipPathUnits="userSpaceOnUse"
       id="clipPath66">
      <path
         d="M 982,719 H 19123 V 13556 H 982 V 719"
         transform="translate(0,-2.0833333e-4)"
         id="path66" />
    </clipPath>
    <clipPath
       clipPathUnits="userSpaceOnUse"
       id="clipPath68">
      <path
         d="M 982,719 H 19123 V 13556 H 982 V 719"
         transform="translate(0,-2.0833333e-4)"
         id="path68" />
    </clipPath>
    <clipPath
       clipPathUnits="userSpaceOnUse"
       id="clipPath73">
      <path
         d="M 982,719 H 19123 V 13556 H 982 V 719"
         transform="translate(0,-2.0833333e-4)"
         id="path73" />
    </clipPath>
    <clipPath
       clipPathUnits="userSpaceOnUse"
       id="clipPath75">
      <path
         d="M 982,719 H 19123 V 13556 H 982 V 719"
         transform="translate(0,-2.0833333e-4)"
         id="path75" />
    </clipPath>
    <clipPath
       clipPathUnits="userSpaceOnUse"
       id="clipPath78">
      <path
         d="M 982,719 H 19123 V 13556 H 982 V 719"
         transform="translate(0,-2.0833333e-4)"
         id="path78" />
    </clipPath>
    <clipPath
       clipPathUnits="userSpaceOnUse"
       id="clipPath83">
      <path
         d="M 982,719 H 19123 V 13556 H 982 V 719"
         transform="translate(0,-2.0833333e-4)"
         id="path83" />
    </clipPath>
    <clipPath
       clipPathUnits="userSpaceOnUse"
       id="clipPath86">
      <path
         d="M 982,719 H 19123 V 13556 H 982 V 719"
         transform="translate(0,-2.0833333e-4)"
         id="path86" />
    </clipPath>
    <clipPath
       clipPathUnits="userSpaceOnUse"
       id="clipPath88">
      <path
         d="M 982,719 H 19123 V 13556 H 982 V 719"
         transform="translate(0,-2.0833333e-4)"
         id="path88" />
    </clipPath>
    <clipPath
       clipPathUnits="userSpaceOnUse"
       id="clipPath102">
      <path
         d="M 982,719 H 19123 V 13556 H 982 V 719"
         transform="translate(0,-2.0833333e-4)"
         id="path102" />
    </clipPath>
    <clipPath
       clipPathUnits="userSpaceOnUse"
       id="clipPath104">
      <path
         d="M 982,719 H 19123 V 13556 H 982 V 719"
         transform="translate(0,-2.0833333e-4)"
         id="path104" />
    </clipPath>
    <clipPath
       clipPathUnits="userSpaceOnUse"
       id="clipPath106">
      <path
         d="M 0,0 H 19866 V 14031 H 0 V 0"
         transform="translate(0,-2.0833333e-4)"
         id="path106" />
    </clipPath>
    <clipPath
       clipPathUnits="userSpaceOnUse"
       id="clipPath108">
      <path
         d="M 0,0 H 19866 V 14031 H 0 V 0"
         transform="translate(0,-2.0833333e-4)"
         id="path108" />
    </clipPath>
    <radialGradient
       inkscape:collect="always"
       xlink:href="#linearGradient111"
       id="radialGradient112"
       cx="861.77704"
       cy="-109.31616"
       fx="861.77704"
       fy="-109.31616"
       r="338.10438"
       gradientTransform="matrix(-1.3816333,-0.0030807,0.00296649,-1.3304098,2052.7611,-141.09382)"
       gradientUnits="userSpaceOnUse" />
  </defs>
  <g
     id="layer-oc1"
     inkscape:groupmode="layer"
     inkscape:label="0"
     transform="translate(-395.2, -606.773)">
    <path
       id="path1"
       d="m 6132,8640 h -1 l -1,1 -4,1 -4,1 -5,2 -7,2 -8,3 -9,3 -11,3 -11,4 -12,4 -14,4 -15,4 -15,5 -17,5 -18,6 -18,5 -19,6 -21,6 -20,6 -22,6 -22,7 -23,6 -24,7 -24,6 -24,7 -25,7 -25,6 -26,7 -26,7 -25,6 -27,7 -26,6 -26,6 -26,6 -26,6 -25,5 -26,6 -25,5 -25,4 -24,5 -24,4 -23,4 -23,3 -23,3 -21,3 -21,2 -20,2 -19,1 -18,1 -18,1 h -16 -16 l -14,-1 -14,-1 -12,-1 -11,-2 -10,-2 -9,-2 -8,-3 -6,-4 -5,-3 -4,-4 -3,-4 -1,-5 -1,-5 2,-4 2,-5 4,-5 5,-6 6,-5 7,-5 9,-6 10,-5 11,-6 12,-5 14,-6 14,-5 16,-6 16,-5 18,-6 18,-5 20,-5 20,-5 21,-5 22,-5 23,-4 23,-5 24,-4 24,-4 25,-4 26,-4 25,-4 26,-3 27,-4 26,-3 27,-3 26,-3 27,-3 27,-3 26,-2 26,-3 26,-2 26,-2 25,-2 25,-2 24,-2 24,-2 23,-2 23,-1 22,-2 20,-1 21,-1 19,-1 18,-1 18,-1 16,-1 15,-1 h 15 l 13,-1 12,-1 h 10 10 l 8,-1 h 7 6 5 3 2 l 1,-1 h 11 l -11,3"
       style="fill:none;stroke:#000000;stroke-width:11.81102363;stroke-linecap:round;stroke-linejoin:round;stroke-miterlimit:10;stroke-dasharray:none;stroke-opacity:1"
       transform="matrix(0.16,0,0,-0.16,0,2245.3333)" />
    <path
       id="path2"
       d="M 5041.5,10238 C 4264.7114,10238 3635,9608.2881 3635,8831.5 3635,8054.7114 4264.7114,7425 5041.5,7425"
       style="fill:none;stroke:#000000;stroke-width:11.81102363;stroke-linecap:round;stroke-linejoin:round;stroke-miterlimit:10;stroke-dasharray:none;stroke-opacity:1"
       transform="matrix(0.16,0,0,-0.16,0,2245.3333)" />
    <path
       id="path3"
       d="M 5041,10237 H 7853 V 7425 H 5041"
       style="fill:none;stroke:#000000;stroke-width:11.81102363;stroke-linecap:round;stroke-linejoin:round;stroke-miterlimit:10;stroke-dasharray:none;stroke-opacity:1"
       transform="matrix(0.16,0,0,-0.16,0,2245.3333)" />
    <path
       id="path4"
       d="M 5041,8831 6702,8538"
       style="fill:none;stroke:#000000;stroke-width:11.81102363;stroke-linecap:round;stroke-linejoin:round;stroke-miterlimit:10;stroke-dasharray:47.24409487,47.24409487;stroke-opacity:1;stroke-dashoffset:0"
       transform="matrix(0.16,0,0,-0.16,0,2245.3333)" />
    <path
       id="path5"
       d="m 6434.2002,8614.5303 c 9.7392,62.5127 15.2578,125.6094 16.5195,188.8633"
       style="fill:none;stroke:#000000;stroke-width:11.81102363;stroke-linecap:round;stroke-linejoin:round;stroke-miterlimit:10;stroke-dasharray:none;stroke-opacity:1;marker-start:url(#marker110);marker-end:url(#marker110)"
       transform="matrix(0.16,0,0,-0.16,0,2245.3333)" />
    <path
       id="path10"
       d="m 7994,10237 h 614"
       style="fill:none;stroke:#000000;stroke-width:11.81102363;stroke-linecap:round;stroke-linejoin:round;stroke-miterlimit:10;stroke-dasharray:none;stroke-opacity:1"
       transform="matrix(0.16,0,0,-0.16,0,2245.3333)" />
    <path
       id="path11"
       d="m 7994,7425 h 614"
       style="fill:none;stroke:#000000;stroke-width:11.81102363;stroke-linecap:round;stroke-linejoin:round;stroke-miterlimit:10;stroke-dasharray:none;stroke-opacity:1"
       transform="matrix(0.16,0,0,-0.16,0,2245.3333)" />
    <path
       id="path12"
       d="M 1354.72,608.76341 V 1055.3999"
       style="fill:none;stroke:#000000;stroke-width:1.98462;stroke-linecap:round;stroke-linejoin:round;stroke-miterlimit:10;stroke-dasharray:none;stroke-opacity:1;marker-start:url(#marker110);marker-end:url(#marker110)" />
    <path
       id="path17"
       d="M 7853,7284 V 6768"
       style="fill:none;stroke:#000000;stroke-width:11.81102363;stroke-linecap:round;stroke-linejoin:round;stroke-miterlimit:10;stroke-dasharray:none;stroke-opacity:1"
       transform="matrix(0.16,0,0,-0.16,0,2245.3333)" />
    <path
       id="path18"
       d="M 5041,7284 V 6768"
       style="fill:none;stroke:#000000;stroke-width:11.81102363;stroke-linecap:round;stroke-linejoin:round;stroke-miterlimit:10;stroke-dasharray:none;stroke-opacity:1"
       transform="matrix(0.16,0,0,-0.16,0,2245.3333)" />
    <path
       id="path19"
       d="M 1255.2065,1140.0533 H 808.54581"
       style="fill:none;stroke:#000000;stroke-width:1.98468;stroke-linecap:round;stroke-linejoin:round;stroke-miterlimit:10;stroke-dasharray:none;stroke-opacity:1;marker-start:url(#marker110);marker-end:url(#marker110)" />
    <path
       id="path24"
       d="m 5036,8804 -66,-374"
       style="fill:none;stroke:#000000;stroke-width:11.81102363;stroke-linecap:round;stroke-linejoin:round;stroke-miterlimit:10;stroke-dasharray:none;stroke-opacity:1"
       transform="matrix(0.16,0,0,-0.16,0,2245.3333)" />
    <path
       id="path25"
       d="m 6138,8609 -66,-374"
       style="fill:none;stroke:#000000;stroke-width:11.81102363;stroke-linecap:round;stroke-linejoin:round;stroke-miterlimit:10;stroke-dasharray:none;stroke-opacity:1"
       transform="matrix(0.16,0,0,-0.16,0,2245.3333)" />
    <path
       id="path26"
       d="M 5002,8452 6049,8268"
       style="fill:none;stroke:#000000;stroke-width:11.81102363;stroke-linecap:round;stroke-linejoin:round;stroke-miterlimit:10;stroke-dasharray:none;stroke-opacity:1;marker-end:url(#marker110);marker-start:url(#marker110)"
       transform="matrix(0.16,0,0,-0.16,0,2245.3333)" />
    <path
       id="path36"
       d="M 3239,8831 H 2473"
       style="fill:none;stroke:#000000;stroke-width:11.81102363;stroke-linecap:round;stroke-linejoin:round;stroke-miterlimit:10;stroke-dasharray:none;stroke-opacity:1;marker-end:;marker-start:url(#Triangle)"
       transform="matrix(0.16,0,0,-0.16,0,2245.3333)" />
    <path
       id="path39"
       d="M 7290,8831 H 5041 v 563"
       style="fill:none;stroke:#000000;stroke-width:11.81102363;stroke-linecap:round;stroke-linejoin:round;stroke-miterlimit:10;stroke-dasharray:none;stroke-opacity:1;marker-end:url(#marker110);marker-start:url(#marker110)"
       transform="matrix(0.16,0,0,-0.16,0,2245.3333)" />
    <path
       style="fill:none;stroke:#000000;stroke-width:1.88976;stroke-dasharray:none;marker-end:url(#marker110)"
       d="m 600.19999,1011.7733 36,-31.00001"
       id="path109" />
    <path
       style="fill:url(#radialGradient112);fill-opacity:1;stroke:none;stroke-width:1.29207;stroke-dasharray:5.16827, 5.16827;stroke-dashoffset:0"
       d="M 626.11434,-0.10015417 C 548.95716,0.14084905 471.79269,-0.32473405 394.64074,0.64499273 376.64332,1.186425 358.98763,5.7348761 341.8285,10.910632 296.39536,25.143336 256.67319,55.235706 228.54212,93.400364 193.83482,140.86192 179.20115,202.25555 188.47988,260.29241 c 5.80744,38.83812 22.76381,75.69611 46.98328,106.46555 1.91383,2.55549 4.22119,5.33417 6.62678,7.08276 5.11571,7.56376 12.44082,13.46634 18.97855,19.79714 42.30557,38.32105 99.65494,59.16451 156.66107,57.52166 147.34837,0.29843 294.69716,0.27366 442.04575,0.38614 3.93814,-1.71189 1.17811,-7.46574 2.00175,-10.88876 0,-146.32344 0,-292.64687 0,-438.9703041 -1.71459,-3.9374176 -7.46645,-1.17167457 -10.89009,-1.99228462 -74.92421,0.0685115 -149.84842,0.13702304 -224.77263,0.20553455 z M 411.53741,137.22854 c 1.14221,1.37364 0.28661,3.55225 -0.33384,4.1357 -1.20539,-1.03307 -0.14404,-5.196 0.3108,-4.22086 z m 15.61203,84.20561 c 14.72092,-0.0881 29.57116,1.94391 44.14662,4.4642 4.35651,0.26549 8.72275,0.30318 13.08547,0.38193 -0.37477,4.16048 5.73124,3.07718 8.4036,4.41346 30.32306,7.0269 60.10318,15.75001 89.80889,24.97443 -42.36587,-1.86123 -84.86691,-4.76409 -126.71102,-12.22415 -14.63248,-2.99044 -29.54523,-6.36913 -42.56685,-13.94946 -2.70594,0.30309 -0.94916,-2.60734 -1.3621,-4.33467 -0.5461,-2.45828 3.50291,-1.90726 5.50848,-3.00463 3.18569,-0.62176 6.45168,-0.67121 9.68691,-0.72111 z m 339.96058,3.32111 c 3.72675,0.35826 2.7757,1.62044 -0.14689,1.59312 -1.42595,-1.23112 -0.98909,-0.38263 0.14689,-1.59312 z m -130.05351,6.87592 c 1.83498,1.87283 -0.88502,4.67212 -0.86951,1.67279 0.26111,-0.34413 0.69647,-3.42261 0.86951,-1.67279 z m -1.99907,23.41337 c 1.41249,1.34737 -0.0304,2.77491 -0.63298,4.18911 0.0446,-1.47092 -0.90592,-3.44346 0.63298,-4.18911 z m -225.05706,31.54722 c 1.77182,0.87583 3.48996,0.9022 0.56487,0.80524 -1.2589,1.09065 -4.71155,-0.79597 -3.72429,-0.98758 1.0088,0.10909 2.42875,-0.74377 3.15942,0.18234 z m 158.65219,27.5918 c 3.43232,0.90339 2.32705,2.06061 -0.67838,1.50365 -1.39397,-1.29943 -3.14886,-1.28797 -0.35922,-1.2112 0.41001,0.0616 0.70725,-0.37875 1.0376,-0.29245 z"
       id="path111"
       transform="translate(395.19999,606.7733)" />
    <g
       inkscape:label=""
       transform="translate(813.87828,739.72551)"
       id="g40">
      <g
         fill="#000000"
         fill-opacity="1"
         id="g3"
         transform="matrix(1.33333,0,0,1.33333,-277.402,-26.3495)">
        <g
           id="use2"
           transform="translate(207.364,30.684)">
          <path
             d="m 11.75,-10.109375 c -0.796875,0.140625 -1.09375,0.734375 -1.09375,1.21875 0,0.59375 0.46875,0.78125 0.8125,0.78125 0.75,0 1.265625,-0.640625 1.265625,-1.3125 0,-1.03125 -1.1875,-1.5 -2.234375,-1.5 -1.5,0 -2.34375,1.484375 -2.5625,1.953125 -0.578125,-1.859375 -2.109375,-1.953125 -2.5625,-1.953125 -2.53125,0 -3.859375,3.234375 -3.859375,3.78125 0,0.109375 0.09375,0.234375 0.265625,0.234375 0.203125,0 0.25,-0.15625 0.296875,-0.25 0.84375,-2.75 2.5,-3.28125 3.21875,-3.28125 1.125,0 1.34375,1.046875 1.34375,1.640625 C 6.640625,-8.25 6.5,-7.6875 6.1875,-6.5 l -0.828125,3.40625 c -0.375,1.484375 -1.09375,2.84375 -2.40625,2.84375 -0.125,0 -0.75,0 -1.265625,-0.3125 0.890625,-0.1875 1.09375,-0.921875 1.09375,-1.21875 0,-0.5 -0.375,-0.796875 -0.84375,-0.796875 -0.59375,0 -1.25,0.515625 -1.25,1.3125 0,1.046875 1.171875,1.515625 2.234375,1.515625 1.1875,0 2.03125,-0.9375 2.5625,-1.953125 C 5.875,-0.25 7.109375,0.25 8.03125,0.25 c 2.53125,0 3.859375,-3.25 3.859375,-3.796875 0,-0.125 -0.09375,-0.21875 -0.25,-0.21875 -0.21875,0 -0.234375,0.125 -0.3125,0.328125 -0.671875,2.171875 -2.109375,3.1875 -3.21875,3.1875 -0.875,0 -1.34375,-0.640625 -1.34375,-1.65625 0,-0.546875 0.09375,-0.9375 0.5,-2.578125 L 8.125,-7.859375 C 8.5,-9.34375 9.34375,-10.4375 10.484375,-10.4375 c 0.04687,0 0.734375,0 1.265625,0.328125 z m 0,0"
             id="path37" />
        </g>
      </g>
      <g
         fill="#000000"
         fill-opacity="1"
         id="g4"
         transform="matrix(1.33333,0,0,1.33333,-277.402,-26.3495)">
        <g
           id="use3"
           transform="translate(221.15601,34.402)">
          <path
             d="M 7.1875,-2.671875 H 6.875 c -0.171875,1.21875 -0.3125,1.4375 -0.390625,1.53125 C 6.40625,-1 5.171875,-1 4.921875,-1 H 1.625 c 0.609375,-0.671875 1.8125,-1.890625 3.28125,-3.3125 1.046875,-0.984375 2.28125,-2.15625 2.28125,-3.859375 0,-2.03125 -1.625,-3.203125 -3.4375,-3.203125 -1.890625,0 -3.046875,1.65625 -3.046875,3.21875 0,0.671875 0.5,0.75 0.703125,0.75 0.171875,0 0.6875,-0.09375 0.6875,-0.703125 0,-0.53125 -0.4375,-0.6875 -0.6875,-0.6875 -0.09375,0 -0.203125,0.015625 -0.265625,0.046875 0.328125,-1.453125 1.328125,-2.1875 2.375,-2.1875 1.5,0 2.46875,1.1875 2.46875,2.765625 0,1.484375 -0.875,2.78125 -1.859375,3.90625 l -3.421875,3.875 V 0 h 6.0625 z m 0,0"
             id="path40" />
        </g>
      </g>
    </g>
    <g
       inkscape:label=""
       transform="translate(1178.4089,824.81488)"
       id="g46">
      <g
         fill="#000000"
         fill-opacity="1"
         id="g43"
         transform="matrix(1.33333,0,0,1.33333,-277.402,-26.3495)">
        <g
           id="g42"
           transform="translate(207.364,30.684)">
          <path
             d="m 11.75,-10.109375 c -0.796875,0.140625 -1.09375,0.734375 -1.09375,1.21875 0,0.59375 0.46875,0.78125 0.8125,0.78125 0.75,0 1.265625,-0.640625 1.265625,-1.3125 0,-1.03125 -1.1875,-1.5 -2.234375,-1.5 -1.5,0 -2.34375,1.484375 -2.5625,1.953125 -0.578125,-1.859375 -2.109375,-1.953125 -2.5625,-1.953125 -2.53125,0 -3.859375,3.234375 -3.859375,3.78125 0,0.109375 0.09375,0.234375 0.265625,0.234375 0.203125,0 0.25,-0.15625 0.296875,-0.25 0.84375,-2.75 2.5,-3.28125 3.21875,-3.28125 1.125,0 1.34375,1.046875 1.34375,1.640625 C 6.640625,-8.25 6.5,-7.6875 6.1875,-6.5 l -0.828125,3.40625 c -0.375,1.484375 -1.09375,2.84375 -2.40625,2.84375 -0.125,0 -0.75,0 -1.265625,-0.3125 0.890625,-0.1875 1.09375,-0.921875 1.09375,-1.21875 0,-0.5 -0.375,-0.796875 -0.84375,-0.796875 -0.59375,0 -1.25,0.515625 -1.25,1.3125 0,1.046875 1.171875,1.515625 2.234375,1.515625 1.1875,0 2.03125,-0.9375 2.5625,-1.953125 C 5.875,-0.25 7.109375,0.25 8.03125,0.25 c 2.53125,0 3.859375,-3.25 3.859375,-3.796875 0,-0.125 -0.09375,-0.21875 -0.25,-0.21875 -0.21875,0 -0.234375,0.125 -0.3125,0.328125 -0.671875,2.171875 -2.109375,3.1875 -3.21875,3.1875 -0.875,0 -1.34375,-0.640625 -1.34375,-1.65625 0,-0.546875 0.09375,-0.9375 0.5,-2.578125 L 8.125,-7.859375 C 8.5,-9.34375 9.34375,-10.4375 10.484375,-10.4375 c 0.04687,0 0.734375,0 1.265625,0.328125 z m 0,0"
             id="path42" />
        </g>
      </g>
      <g
         fill="#000000"
         fill-opacity="1"
         id="g45"
         transform="matrix(1.33333,0,0,1.33333,-277.402,-26.3495)">
        <g
           id="g44"
           transform="translate(221.15601,34.402)">
          <path
             d="m 4.578125,-11 c 0,-0.359375 -0.015625,-0.375 -0.25,-0.375 -0.671875,0.796875 -1.6875,1.0625 -2.65625,1.09375 -0.046875,0 -0.140625,0 -0.15625,0.03125 C 1.5,-10.203125 1.5,-10.171875 1.5,-9.8125 c 0.53125,0 1.421875,-0.109375 2.109375,-0.515625 V -1.25 c 0,0.59375 -0.03125,0.796875 -1.515625,0.796875 H 1.578125 V 0 c 0.828125,-0.015625 1.6875,-0.03125 2.515625,-0.03125 0.828125,0 1.6875,0.015625 2.515625,0.03125 V -0.453125 H 6.09375 c -1.484375,0 -1.515625,-0.1875 -1.515625,-0.796875 z m 0,0"
             id="path44" />
        </g>
      </g>
    </g>
    <g
       inkscape:label=""
       transform="translate(1289.6052,820.94718)"
       id="g57">
      <g
         fill="#000000"
         fill-opacity="1"
         id="g52"
         transform="matrix(1.33333,0,0,1.33333,-264.166,-19.08)">
        <g
           id="g50"
           transform="translate(195.968,30.684999)">
          <path
             d="m 6.59375,-15.828125 c 0,-0.53125 -0.03125,-0.546875 -0.375,-0.546875 -0.96875,1.15625 -2.421875,1.53125 -3.8125,1.578125 -0.078125,0 -0.203125,0 -0.21875,0.04687 -0.03125,0.0625 -0.03125,0.109375 -0.03125,0.625 0.765625,0 2.0625,-0.15625 3.046875,-0.75 v 13.0625 c 0,0.875 -0.046875,1.171875 -2.1875,1.171875 H 2.28125 V 0 c 1.1875,-0.03125 2.421875,-0.046875 3.609375,-0.046875 1.203125,0 2.4375,0.015625 3.625,0.046875 v -0.640625 h -0.75 c -2.125,0 -2.171875,-0.28125 -2.171875,-1.171875 z m 0,0"
             id="path49" />
        </g>
        <g
           id="g51"
           transform="translate(207.33536,30.684999)">
          <path
             d="m 10.40625,-7.953125 c 0,-1.515625 -0.01563,-4.09375 -1.0625,-6.078125 -0.921875,-1.734375 -2.375,-2.34375 -3.671875,-2.34375 -1.1875,0 -2.703125,0.546875 -3.640625,2.328125 -0.984375,1.859375 -1.09375,4.15625 -1.09375,6.09375 0,1.40625 0.03125,3.5625 0.796875,5.453125 1.0625,2.546875 2.96875,2.890625 3.9375,2.890625 1.140625,0 2.875,-0.46875 3.890625,-2.8125 0.75,-1.71875 0.84375,-3.71875 0.84375,-5.53125 z M 5.671875,0 C 4.09375,0 3.140625,-1.359375 2.796875,-3.25 2.53125,-4.703125 2.53125,-6.84375 2.53125,-8.234375 c 0,-1.90625 0,-3.484375 0.3125,-5 0.484375,-2.109375 1.859375,-2.75 2.828125,-2.75 1.015625,0 2.328125,0.671875 2.796875,2.703125 0.328125,1.40625 0.359375,3.078125 0.359375,5.046875 0,1.625 0,3.59375 -0.296875,5.0625 C 8,-0.46875 6.546875,0 5.671875,0 Z m 0,0"
             id="path50" />
        </g>
      </g>
      <g
         fill="#000000"
         fill-opacity="1"
         id="g54"
         transform="matrix(1.33333,0,0,1.33333,-264.166,-19.08)">
        <g
           id="g53"
           transform="translate(218.70399,30.684999)">
          <path
             d="m 4.828125,0.09375 c 0,-1.4375 -0.46875,-2.5 -1.484375,-2.5 -0.796875,0 -1.1875,0.640625 -1.1875,1.1875 C 2.15625,-0.671875 2.53125,0 3.375,0 3.6875,0 3.96875,-0.09375 4.1875,-0.328125 4.234375,-0.375 4.265625,-0.375 4.28125,-0.375 c 0.0625,0 0.0625,0.34375 0.0625,0.46875 0,0.828125 -0.15625,2.4375 -1.59375,4.046875 C 2.484375,4.4375 2.484375,4.484375 2.484375,4.53125 c 0,0.125 0.125,0.25 0.234375,0.25 0.203125,0 2.109375,-1.828125 2.109375,-4.6875 z m 0,0"
             id="path53" />
        </g>
      </g>
      <g
         fill="#000000"
         fill-opacity="1"
         id="g56"
         transform="matrix(1.33333,0,0,1.33333,-264.166,-19.08)">
        <g
           id="g55"
           transform="translate(229.577,30.684999)">
          <path
             d="m 10.40625,-7.953125 c 0,-1.515625 -0.01563,-4.09375 -1.0625,-6.078125 -0.921875,-1.734375 -2.375,-2.34375 -3.671875,-2.34375 -1.1875,0 -2.703125,0.546875 -3.640625,2.328125 -0.984375,1.859375 -1.09375,4.15625 -1.09375,6.09375 0,1.40625 0.03125,3.5625 0.796875,5.453125 1.0625,2.546875 2.96875,2.890625 3.9375,2.890625 1.140625,0 2.875,-0.46875 3.890625,-2.8125 0.75,-1.71875 0.84375,-3.71875 0.84375,-5.53125 z M 5.671875,0 C 4.09375,0 3.140625,-1.359375 2.796875,-3.25 2.53125,-4.703125 2.53125,-6.84375 2.53125,-8.234375 c 0,-1.90625 0,-3.484375 0.3125,-5 0.484375,-2.109375 1.859375,-2.75 2.828125,-2.75 1.015625,0 2.328125,0.671875 2.796875,2.703125 0.328125,1.40625 0.359375,3.078125 0.359375,5.046875 0,1.625 0,3.59375 -0.296875,5.0625 C 8,-0.46875 6.546875,0 5.671875,0 Z m 0,0"
             id="path55" />
        </g>
      </g>
    </g>
    <g
       inkscape:label=""
       transform="translate(990.8255,1107.1569)"
       id="g65">
      <g
         fill="#000000"
         fill-opacity="1"
         id="g60"
         transform="matrix(1.33333,0,0,1.33333,-264.166,-19.08)">
        <g
           id="g58"
           transform="translate(195.968,30.684999)">
          <path
             d="m 6.59375,-15.828125 c 0,-0.53125 -0.03125,-0.546875 -0.375,-0.546875 -0.96875,1.15625 -2.421875,1.53125 -3.8125,1.578125 -0.078125,0 -0.203125,0 -0.21875,0.04687 -0.03125,0.0625 -0.03125,0.109375 -0.03125,0.625 0.765625,0 2.0625,-0.15625 3.046875,-0.75 v 13.0625 c 0,0.875 -0.046875,1.171875 -2.1875,1.171875 H 2.28125 V 0 c 1.1875,-0.03125 2.421875,-0.046875 3.609375,-0.046875 1.203125,0 2.4375,0.015625 3.625,0.046875 v -0.640625 h -0.75 c -2.125,0 -2.171875,-0.28125 -2.171875,-1.171875 z m 0,0"
             id="path57" />
        </g>
        <g
           id="g59"
           transform="translate(207.33536,30.684999)">
          <path
             d="m 10.40625,-7.953125 c 0,-1.515625 -0.01563,-4.09375 -1.0625,-6.078125 -0.921875,-1.734375 -2.375,-2.34375 -3.671875,-2.34375 -1.1875,0 -2.703125,0.546875 -3.640625,2.328125 -0.984375,1.859375 -1.09375,4.15625 -1.09375,6.09375 0,1.40625 0.03125,3.5625 0.796875,5.453125 1.0625,2.546875 2.96875,2.890625 3.9375,2.890625 1.140625,0 2.875,-0.46875 3.890625,-2.8125 0.75,-1.71875 0.84375,-3.71875 0.84375,-5.53125 z M 5.671875,0 C 4.09375,0 3.140625,-1.359375 2.796875,-3.25 2.53125,-4.703125 2.53125,-6.84375 2.53125,-8.234375 c 0,-1.90625 0,-3.484375 0.3125,-5 0.484375,-2.109375 1.859375,-2.75 2.828125,-2.75 1.015625,0 2.328125,0.671875 2.796875,2.703125 0.328125,1.40625 0.359375,3.078125 0.359375,5.046875 0,1.625 0,3.59375 -0.296875,5.0625 C 8,-0.46875 6.546875,0 5.671875,0 Z m 0,0"
             id="path58" />
        </g>
      </g>
      <g
         fill="#000000"
         fill-opacity="1"
         id="g62"
         transform="matrix(1.33333,0,0,1.33333,-264.166,-19.08)">
        <g
           id="g61"
           transform="translate(218.70399,30.684999)">
          <path
             d="m 4.828125,0.09375 c 0,-1.4375 -0.46875,-2.5 -1.484375,-2.5 -0.796875,0 -1.1875,0.640625 -1.1875,1.1875 C 2.15625,-0.671875 2.53125,0 3.375,0 3.6875,0 3.96875,-0.09375 4.1875,-0.328125 4.234375,-0.375 4.265625,-0.375 4.28125,-0.375 c 0.0625,0 0.0625,0.34375 0.0625,0.46875 0,0.828125 -0.15625,2.4375 -1.59375,4.046875 C 2.484375,4.4375 2.484375,4.484375 2.484375,4.53125 c 0,0.125 0.125,0.25 0.234375,0.25 0.203125,0 2.109375,-1.828125 2.109375,-4.6875 z m 0,0"
             id="path60" />
        </g>
      </g>
      <g
         fill="#000000"
         fill-opacity="1"
         id="g64"
         transform="matrix(1.33333,0,0,1.33333,-264.166,-19.08)">
        <g
           id="g63"
           transform="translate(229.577,30.684999)">
          <path
             d="m 10.40625,-7.953125 c 0,-1.515625 -0.01563,-4.09375 -1.0625,-6.078125 -0.921875,-1.734375 -2.375,-2.34375 -3.671875,-2.34375 -1.1875,0 -2.703125,0.546875 -3.640625,2.328125 -0.984375,1.859375 -1.09375,4.15625 -1.09375,6.09375 0,1.40625 0.03125,3.5625 0.796875,5.453125 1.0625,2.546875 2.96875,2.890625 3.9375,2.890625 1.140625,0 2.875,-0.46875 3.890625,-2.8125 0.75,-1.71875 0.84375,-3.71875 0.84375,-5.53125 z M 5.671875,0 C 4.09375,0 3.140625,-1.359375 2.796875,-3.25 2.53125,-4.703125 2.53125,-6.84375 2.53125,-8.234375 c 0,-1.90625 0,-3.484375 0.3125,-5 0.484375,-2.109375 1.859375,-2.75 2.828125,-2.75 1.015625,0 2.328125,0.671875 2.796875,2.703125 0.328125,1.40625 0.359375,3.078125 0.359375,5.046875 0,1.625 0,3.59375 -0.296875,5.0625 C 8,-0.46875 6.546875,0 5.671875,0 Z m 0,0"
             id="path62" />
        </g>
      </g>
    </g>
    <g
       inkscape:label=""
       transform="translate(527.66857,822.88103)"
       id="g70">
      <g
         fill="#000000"
         fill-opacity="1"
         id="g67"
         transform="matrix(1.33333,0,0,1.33333,-269.274,-25.9745)">
        <g
           id="g66"
           transform="translate(201.159,30.684)">
          <path
             d="m 13.953125,-7.859375 c 0.171875,-0.6875 0.46875,-1.875 0.46875,-2.046875 0,-0.53125 -0.390625,-1.09375 -1.15625,-1.09375 -0.40625,0 -1.328125,0.21875 -1.640625,1.3125 -0.109375,0.34375 -1.21875,4.828125 -1.421875,5.640625 -0.140625,0.578125 -0.3125,1.296875 -0.359375,1.75 -0.453125,0.59375 -1.421875,1.609375 -2.6875,1.609375 -1.453125,0 -1.484375,-1.25 -1.484375,-1.8125 0,-1.515625 0.765625,-3.453125 1.46875,-5.234375 0.25,-0.640625 0.3125,-0.8125 0.3125,-1.234375 0,-1.4375 -1.4375,-2.234375 -2.796875,-2.234375 -2.625,0 -3.859375,3.375 -3.859375,3.875 0,0.34375 0.375,0.34375 0.59375,0.34375 0.296875,0 0.46875,0 0.5625,-0.328125 0.828125,-2.75 2.15625,-3 2.5625,-3 0.171875,0 0.421875,0 0.421875,0.53125 0,0.5625 -0.296875,1.25 -0.40625,1.546875 -1.03125,2.609375 -1.515625,4 -1.515625,5.21875 0,2.8125 2.484375,3.21875 3.953125,3.21875 0.71875,0 1.796875,-0.109375 3.140625,-1.375 0.796875,1.21875 2.234375,1.375 2.828125,1.375 0.921875,0 1.640625,-0.53125 2.15625,-1.421875 0.625,-0.984375 0.9375,-2.328125 0.9375,-2.453125 0,-0.34375 -0.375,-0.34375 -0.59375,-0.34375 -0.265625,0 -0.375,0 -0.5,0.125 -0.04687,0.046875 -0.04687,0.09375 -0.1875,0.71875 -0.5,1.9375 -1.046875,2.484375 -1.6875,2.484375 -0.375,0 -0.578125,-0.25 -0.578125,-0.921875 0,-0.421875 0.109375,-0.8125 0.359375,-1.8125 0.171875,-0.6875 0.421875,-1.6875 0.53125,-2.234375 z m 0,0"
             id="path65" />
        </g>
      </g>
      <g
         fill="#000000"
         fill-opacity="1"
         id="g69"
         transform="matrix(1.33333,0,0,1.33333,-269.274,-25.9745)">
        <g
           id="g68"
           transform="translate(218.03999,34.402)">
          <path
             d="M 8.75,-4.671875 C 7.8125,-5.84375 7.609375,-6.09375 7.078125,-6.53125 c -0.96875,-0.765625 -1.9375,-1.078125 -2.8125,-1.078125 -2.015625,0 -3.3125,1.890625 -3.3125,3.90625 0,1.984375 1.265625,3.890625 3.25,3.890625 1.984375,0 3.40625,-1.5625 4.25,-2.9375 0.9375,1.171875 1.140625,1.421875 1.671875,1.859375 0.96875,0.765625 1.921875,1.078125 2.8125,1.078125 2.015625,0 3.3125,-1.890625 3.3125,-3.90625 0,-1.984375 -1.265625,-3.890625 -3.25,-3.890625 -1.984375,0 -3.40625,1.5625 -4.25,2.9375 z m 0.4375,0.59375 c 0.71875,-1.25 1.984375,-2.984375 3.9375,-2.984375 1.828125,0 2.75,1.796875 2.75,3.34375 0,1.6875 -1.15625,3.078125 -2.671875,3.078125 -1,0 -1.765625,-0.71875 -2.125,-1.078125 -0.4375,-0.46875 -0.828125,-1 -1.890625,-2.359375 z M 8,-3.34375 c -0.703125,1.25 -1.96875,2.984375 -3.921875,2.984375 -1.828125,0 -2.75,-1.796875 -2.75,-3.34375 0,-1.6875 1.15625,-3.078125 2.671875,-3.078125 1,0 1.765625,0.71875 2.125,1.078125 0.4375,0.46875 0.828125,1 1.875,2.359375 z m 0,0"
             id="path67" />
        </g>
      </g>
    </g>
    <g
       inkscape:label=""
       transform="translate(850.62142,910.87118)"
       id="g77">
      <g
         fill="#000000"
         fill-opacity="1"
         id="g72"
         transform="matrix(1.33333,0,0,1.33333,-271.744,-19.08)">
        <g
           id="g71"
           transform="translate(201.65199,30.684999)">
          <path
             d="m 6.59375,-15.828125 c 0,-0.53125 -0.03125,-0.546875 -0.375,-0.546875 -0.96875,1.15625 -2.421875,1.53125 -3.8125,1.578125 -0.078125,0 -0.203125,0 -0.21875,0.04687 -0.03125,0.0625 -0.03125,0.109375 -0.03125,0.625 0.765625,0 2.0625,-0.15625 3.046875,-0.75 v 13.0625 c 0,0.875 -0.046875,1.171875 -2.1875,1.171875 H 2.28125 V 0 c 1.1875,-0.03125 2.421875,-0.046875 3.609375,-0.046875 1.203125,0 2.4375,0.015625 3.625,0.046875 v -0.640625 h -0.75 c -2.125,0 -2.171875,-0.28125 -2.171875,-1.171875 z m 0,0"
             id="path70" />
        </g>
      </g>
      <g
         fill="#000000"
         fill-opacity="1"
         id="g74"
         transform="matrix(1.33333,0,0,1.33333,-271.744,-19.08)">
        <g
           id="g73"
           transform="translate(213.02,30.684999)">
          <path
             d="m 4.828125,0.09375 c 0,-1.4375 -0.46875,-2.5 -1.484375,-2.5 -0.796875,0 -1.1875,0.640625 -1.1875,1.1875 C 2.15625,-0.671875 2.53125,0 3.375,0 3.6875,0 3.96875,-0.09375 4.1875,-0.328125 4.234375,-0.375 4.265625,-0.375 4.28125,-0.375 c 0.0625,0 0.0625,0.34375 0.0625,0.46875 0,0.828125 -0.15625,2.4375 -1.59375,4.046875 C 2.484375,4.4375 2.484375,4.484375 2.484375,4.53125 c 0,0.125 0.125,0.25 0.234375,0.25 0.203125,0 2.109375,-1.828125 2.109375,-4.6875 z m 0,0"
             id="path72" />
        </g>
      </g>
      <g
         fill="#000000"
         fill-opacity="1"
         id="g76"
         transform="matrix(1.33333,0,0,1.33333,-271.744,-19.08)">
        <g
           id="g75"
           transform="translate(223.89301,30.684999)">
          <path
             d="m 10.40625,-7.953125 c 0,-1.515625 -0.01563,-4.09375 -1.0625,-6.078125 -0.921875,-1.734375 -2.375,-2.34375 -3.671875,-2.34375 -1.1875,0 -2.703125,0.546875 -3.640625,2.328125 -0.984375,1.859375 -1.09375,4.15625 -1.09375,6.09375 0,1.40625 0.03125,3.5625 0.796875,5.453125 1.0625,2.546875 2.96875,2.890625 3.9375,2.890625 1.140625,0 2.875,-0.46875 3.890625,-2.8125 0.75,-1.71875 0.84375,-3.71875 0.84375,-5.53125 z M 5.671875,0 C 4.09375,0 3.140625,-1.359375 2.796875,-3.25 2.53125,-4.703125 2.53125,-6.84375 2.53125,-8.234375 c 0,-1.90625 0,-3.484375 0.3125,-5 0.484375,-2.109375 1.859375,-2.75 2.828125,-2.75 1.015625,0 2.328125,0.671875 2.796875,2.703125 0.328125,1.40625 0.359375,3.078125 0.359375,5.046875 0,1.625 0,3.59375 -0.296875,5.0625 C 8,-0.46875 6.546875,0 5.671875,0 Z m 0,0"
             id="path74" />
        </g>
      </g>
    </g>
    <g
       inkscape:label=""
       transform="translate(1043.0394,846.08723)"
       id="g82">
      <g
         fill="#000000"
         fill-opacity="1"
         id="g2"
         transform="matrix(1.33333,0,0,1.33333,-282.191,-26.3495)">
        <g
           id="use1"
           transform="translate(210.659,30.684)">
          <path
             d="m 11.46875,-6.265625 c 0,-2.40625 -1.359375,-4.65625 -3.984375,-4.65625 -3.25,0 -6.5,3.53125 -6.5,7.0625 0,2.15625 1.34375,4.109375 3.875,4.109375 1.53125,0 3.375,-0.59375 5.125,-2.078125 0.34375,1.375 1.125,2.078125 2.1875,2.078125 1.328125,0 2,-1.390625 2,-1.71875 0,-0.21875 -0.171875,-0.21875 -0.25,-0.21875 -0.1875,0 -0.21875,0.078125 -0.296875,0.28125 -0.21875,0.609375 -0.78125,1.15625 -1.390625,1.15625 -0.765625,0 -0.765625,-1.578125 -0.765625,-3.09375 2.53125,-3.03125 3.125,-6.140625 3.125,-6.171875 0,-0.21875 -0.203125,-0.21875 -0.265625,-0.21875 -0.234375,0 -0.25,0.0625 -0.34375,0.515625 -0.328125,1.09375 -0.96875,3.03125 -2.515625,5.0625 z m -1.5625,3.84375 c -2.171875,1.953125 -4.125,2.171875 -5,2.171875 -1.765625,0 -2.25,-1.5625 -2.25,-2.71875 0,-1.078125 0.546875,-3.59375 1.3125,-4.96875 1.015625,-1.734375 2.40625,-2.5 3.515625,-2.5 2.40625,0 2.40625,3.15625 2.40625,5.234375 0,0.625 -0.03125,1.265625 -0.03125,1.875 0,0.5 0.03125,0.625 0.046875,0.90625 z m 0,0"
             id="path82" />
        </g>
      </g>
    </g>
    <g
       inkscape:label=""
       transform="translate(932.81002,611.12453)"
       id="g89">
      <g
         fill="#000000"
         fill-opacity="1"
         id="g85"
         transform="matrix(1.33333,0,0,1.33333,-248.712,-19.0787)">
        <g
           id="g84"
           transform="translate(185.862,30.684)">
          <path
             d="M 8.453125,-1.4375 C 8.765625,-0.046875 9.96875,0.25 10.5625,0.25 c 0.78125,0 1.375,-0.515625 1.78125,-1.359375 0.421875,-0.890625 0.734375,-2.359375 0.734375,-2.4375 0,-0.125 -0.09375,-0.21875 -0.234375,-0.21875 -0.234375,0 -0.25,0.125 -0.359375,0.5 -0.4375,1.703125 -0.890625,3.015625 -1.875,3.015625 -0.75,0 -0.75,-0.8125 -0.75,-1.140625 0,-0.5625 0.078125,-0.8125 0.328125,-1.859375 0.171875,-0.671875 0.34375,-1.328125 0.5,-2.03125 l 1.015625,-4.03125 c 0.171875,-0.625 0.171875,-0.671875 0.171875,-0.75 0,-0.375 -0.296875,-0.625 -0.671875,-0.625 -0.71875,0 -0.890625,0.625 -1.046875,1.25 -0.25,0.96875 -1.578125,6.296875 -1.75,7.15625 -0.03125,0 -1,2.03125 -2.8125,2.03125 -1.28125,0 -1.53125,-1.109375 -1.53125,-2.03125 0,-1.40625 0.703125,-3.390625 1.34375,-5.046875 0.296875,-0.796875 0.421875,-1.125 0.421875,-1.625 0,-1.0625 -0.765625,-1.96875 -1.96875,-1.96875 -2.265625,0 -3.1875,3.59375 -3.1875,3.78125 0,0.109375 0.09375,0.234375 0.265625,0.234375 0.234375,0 0.25,-0.109375 0.34375,-0.453125 0.609375,-2.125 1.5625,-3.078125 2.515625,-3.078125 0.25,0 0.640625,0.03125 0.640625,0.828125 0,0.640625 -0.28125,1.359375 -0.640625,2.296875 -1.09375,2.953125 -1.21875,3.890625 -1.21875,4.640625 C 2.578125,-0.15625 4.484375,0.25 5.5,0.25 c 1.59375,0 2.453125,-1.09375 2.953125,-1.6875 z m 0,0"
             id="path84" />
        </g>
      </g>
      <g
         fill="#000000"
         fill-opacity="1"
         id="g87"
         transform="matrix(1.33333,0,0,1.33333,-248.712,-19.0787)">
        <g
           id="g86"
           transform="translate(199.67599,34.402)">
          <path
             d="M 7.1875,-2.671875 H 6.875 c -0.171875,1.21875 -0.3125,1.4375 -0.390625,1.53125 C 6.40625,-1 5.171875,-1 4.921875,-1 H 1.625 c 0.609375,-0.671875 1.8125,-1.890625 3.28125,-3.3125 1.046875,-0.984375 2.28125,-2.15625 2.28125,-3.859375 0,-2.03125 -1.625,-3.203125 -3.4375,-3.203125 -1.890625,0 -3.046875,1.65625 -3.046875,3.21875 0,0.671875 0.5,0.75 0.703125,0.75 0.171875,0 0.6875,-0.09375 0.6875,-0.703125 0,-0.53125 -0.4375,-0.6875 -0.6875,-0.6875 -0.09375,0 -0.203125,0.015625 -0.265625,0.046875 0.328125,-1.453125 1.328125,-2.1875 2.375,-2.1875 1.5,0 2.46875,1.1875 2.46875,2.765625 0,1.484375 -0.875,2.78125 -1.859375,3.90625 l -3.421875,3.875 V 0 h 6.0625 z m 0,0"
             id="path85" />
        </g>
      </g>
      <g
         fill="#000000"
         fill-opacity="1"
         id="g7"
         transform="matrix(1.33333,0,0,1.33333,-248.712,-19.0787)">
        <g
           id="g88"
           transform="translate(214.955,30.684)">
          <path
             d="m 15.9375,-7.953125 c 0.375,0 0.734375,0 0.734375,-0.421875 0,-0.453125 -0.421875,-0.453125 -0.84375,-0.453125 H 1.984375 c -0.421875,0 -0.84375,0 -0.84375,0.453125 0,0.421875 0.375,0.421875 0.75,0.421875 z m -0.109375,4.40625 c 0.421875,0 0.84375,0 0.84375,-0.4375 0,-0.421875 -0.359375,-0.421875 -0.734375,-0.421875 H 1.890625 c -0.375,0 -0.75,0 -0.75,0.421875 0,0.4375 0.421875,0.4375 0.84375,0.4375 z m 0,0"
             id="path87" />
        </g>
      </g>
      <g
         fill="#000000"
         fill-opacity="1"
         id="g8"
         transform="matrix(1.33333,0,0,1.33333,-248.712,-19.0787)">
        <g
           id="use7"
           transform="translate(239.68756,30.684)">
          <path
             d="m 10.40625,-7.953125 c 0,-1.515625 -0.01563,-4.09375 -1.0625,-6.078125 -0.921875,-1.734375 -2.375,-2.34375 -3.671875,-2.34375 -1.1875,0 -2.703125,0.546875 -3.640625,2.328125 -0.984375,1.859375 -1.09375,4.15625 -1.09375,6.09375 0,1.40625 0.03125,3.5625 0.796875,5.453125 1.0625,2.546875 2.96875,2.890625 3.9375,2.890625 1.140625,0 2.875,-0.46875 3.890625,-2.8125 0.75,-1.71875 0.84375,-3.71875 0.84375,-5.53125 z M 5.671875,0 C 4.09375,0 3.140625,-1.359375 2.796875,-3.25 2.53125,-4.703125 2.53125,-6.84375 2.53125,-8.234375 c 0,-1.90625 0,-3.484375 0.3125,-5 0.484375,-2.109375 1.859375,-2.75 2.828125,-2.75 1.015625,0 2.328125,0.671875 2.796875,2.703125 0.328125,1.40625 0.359375,3.078125 0.359375,5.046875 0,1.625 0,3.59375 -0.296875,5.0625 C 8,-0.46875 6.546875,0 5.671875,0 Z m 0,0"
             id="path89" />
        </g>
      </g>
    </g>
    <g
       inkscape:label=""
       transform="translate(972.45393,1027.8691)"
       id="g98">
      <g
         fill="#000000"
         fill-opacity="1"
         id="g91"
         transform="matrix(1.33333,0,0,1.33333,-248.712,-19.0787)">
        <g
           id="g90"
           transform="translate(185.862,30.684)">
          <path
             d="M 8.453125,-1.4375 C 8.765625,-0.046875 9.96875,0.25 10.5625,0.25 c 0.78125,0 1.375,-0.515625 1.78125,-1.359375 0.421875,-0.890625 0.734375,-2.359375 0.734375,-2.4375 0,-0.125 -0.09375,-0.21875 -0.234375,-0.21875 -0.234375,0 -0.25,0.125 -0.359375,0.5 -0.4375,1.703125 -0.890625,3.015625 -1.875,3.015625 -0.75,0 -0.75,-0.8125 -0.75,-1.140625 0,-0.5625 0.078125,-0.8125 0.328125,-1.859375 0.171875,-0.671875 0.34375,-1.328125 0.5,-2.03125 l 1.015625,-4.03125 c 0.171875,-0.625 0.171875,-0.671875 0.171875,-0.75 0,-0.375 -0.296875,-0.625 -0.671875,-0.625 -0.71875,0 -0.890625,0.625 -1.046875,1.25 -0.25,0.96875 -1.578125,6.296875 -1.75,7.15625 -0.03125,0 -1,2.03125 -2.8125,2.03125 -1.28125,0 -1.53125,-1.109375 -1.53125,-2.03125 0,-1.40625 0.703125,-3.390625 1.34375,-5.046875 0.296875,-0.796875 0.421875,-1.125 0.421875,-1.625 0,-1.0625 -0.765625,-1.96875 -1.96875,-1.96875 -2.265625,0 -3.1875,3.59375 -3.1875,3.78125 0,0.109375 0.09375,0.234375 0.265625,0.234375 0.234375,0 0.25,-0.109375 0.34375,-0.453125 0.609375,-2.125 1.5625,-3.078125 2.515625,-3.078125 0.25,0 0.640625,0.03125 0.640625,0.828125 0,0.640625 -0.28125,1.359375 -0.640625,2.296875 -1.09375,2.953125 -1.21875,3.890625 -1.21875,4.640625 C 2.578125,-0.15625 4.484375,0.25 5.5,0.25 c 1.59375,0 2.453125,-1.09375 2.953125,-1.6875 z m 0,0"
             id="path90" />
        </g>
      </g>
      <g
         fill="#000000"
         fill-opacity="1"
         id="g93"
         transform="matrix(1.33333,0,0,1.33333,-248.712,-19.0787)">
        <g
           id="g92"
           transform="translate(199.67599,34.402)">
          <path
             d="M 7.1875,-2.671875 H 6.875 c -0.171875,1.21875 -0.3125,1.4375 -0.390625,1.53125 C 6.40625,-1 5.171875,-1 4.921875,-1 H 1.625 c 0.609375,-0.671875 1.8125,-1.890625 3.28125,-3.3125 1.046875,-0.984375 2.28125,-2.15625 2.28125,-3.859375 0,-2.03125 -1.625,-3.203125 -3.4375,-3.203125 -1.890625,0 -3.046875,1.65625 -3.046875,3.21875 0,0.671875 0.5,0.75 0.703125,0.75 0.171875,0 0.6875,-0.09375 0.6875,-0.703125 0,-0.53125 -0.4375,-0.6875 -0.6875,-0.6875 -0.09375,0 -0.203125,0.015625 -0.265625,0.046875 0.328125,-1.453125 1.328125,-2.1875 2.375,-2.1875 1.5,0 2.46875,1.1875 2.46875,2.765625 0,1.484375 -0.875,2.78125 -1.859375,3.90625 l -3.421875,3.875 V 0 h 6.0625 z m 0,0"
             id="path91" />
        </g>
      </g>
      <g
         fill="#000000"
         fill-opacity="1"
         id="g95"
         transform="matrix(1.33333,0,0,1.33333,-248.712,-19.0787)">
        <g
           id="g94"
           transform="translate(214.955,30.684)">
          <path
             d="m 15.9375,-7.953125 c 0.375,0 0.734375,0 0.734375,-0.421875 0,-0.453125 -0.421875,-0.453125 -0.84375,-0.453125 H 1.984375 c -0.421875,0 -0.84375,0 -0.84375,0.453125 0,0.421875 0.375,0.421875 0.75,0.421875 z m -0.109375,4.40625 c 0.421875,0 0.84375,0 0.84375,-0.4375 0,-0.421875 -0.359375,-0.421875 -0.734375,-0.421875 H 1.890625 c -0.375,0 -0.75,0 -0.75,0.421875 0,0.4375 0.421875,0.4375 0.84375,0.4375 z m 0,0"
             id="path93" />
        </g>
      </g>
      <g
         fill="#000000"
         fill-opacity="1"
         id="g97"
         transform="matrix(1.33333,0,0,1.33333,-248.712,-19.0787)">
        <g
           id="g96"
           transform="translate(239.68756,30.684)">
          <path
             d="m 10.40625,-7.953125 c 0,-1.515625 -0.01563,-4.09375 -1.0625,-6.078125 -0.921875,-1.734375 -2.375,-2.34375 -3.671875,-2.34375 -1.1875,0 -2.703125,0.546875 -3.640625,2.328125 -0.984375,1.859375 -1.09375,4.15625 -1.09375,6.09375 0,1.40625 0.03125,3.5625 0.796875,5.453125 1.0625,2.546875 2.96875,2.890625 3.9375,2.890625 1.140625,0 2.875,-0.46875 3.890625,-2.8125 0.75,-1.71875 0.84375,-3.71875 0.84375,-5.53125 z M 5.671875,0 C 4.09375,0 3.140625,-1.359375 2.796875,-3.25 2.53125,-4.703125 2.53125,-6.84375 2.53125,-8.234375 c 0,-1.90625 0,-3.484375 0.3125,-5 0.484375,-2.109375 1.859375,-2.75 2.828125,-2.75 1.015625,0 2.328125,0.671875 2.796875,2.703125 0.328125,1.40625 0.359375,3.078125 0.359375,5.046875 0,1.625 0,3.59375 -0.296875,5.0625 C 8,-0.46875 6.546875,0 5.671875,0 Z m 0,0"
             id="path95" />
        </g>
      </g>
    </g>
    <text
       xml:space="preserve"
       style="font-style:normal;font-variant:normal;font-weight:normal;font-stretch:normal;font-size:21.3333px;font-family:Arial;-inkscape-font-specification:'Arial, Normal';font-variant-ligatures:normal;font-variant-caps:normal;font-variant-numeric:normal;font-variant-east-asian:normal;fill:#000000;stroke-width:1.88976;stroke-dasharray:7.55906, 7.55906"
       x="818.71301"
       y="820.46332"
       id="text98"><tspan
         sodipodi:role="line"
         id="tspan98">NACA 0012</tspan></text>
    <text
       xml:space="preserve"
       style="font-style:normal;font-variant:normal;font-weight:normal;font-stretch:normal;font-size:21.3333px;font-family:Arial;-inkscape-font-specification:'Arial, Normal';font-variant-ligatures:normal;font-variant-caps:normal;font-variant-numeric:normal;font-variant-east-asian:normal;fill:#000000;stroke-width:1.88976;stroke-dasharray:7.55906, 7.55906"
       x="-862.96826"
       y="1251.6554"
       id="text99"
       transform="rotate(-90)"><tspan
         sodipodi:role="line"
         id="tspan99"
         x="-862.96826"
         y="1251.6554">Saída</tspan></text>
    <g
       inkscape:label=""
       transform="translate(511.96196,1020.6711)"
       id="g31">
      <g
         fill="#000000"
         fill-opacity="1"
         id="g21"
         transform="matrix(1.33333,0,0,1.33333,-252.992,-18.3508)">
        <g
           id="g20"
           transform="translate(188.57201,30.684999)">
          <path
             d="m 9.125,-15.234375 c 0.21875,-0.921875 0.3125,-0.96875 1.28125,-0.96875 h 1.78125 c 2.140625,0 3.71875,0.640625 3.71875,2.578125 0,1.265625 -0.640625,4.90625 -5.625,4.90625 H 7.484375 Z m 3.4375,6.8125 c 3.078125,-0.671875 5.484375,-2.65625 5.484375,-4.78125 0,-1.9375 -1.96875,-3.71875 -5.40625,-3.71875 h -6.71875 c -0.5,0 -0.71875,0 -0.71875,0.46875 0,0.25 0.171875,0.25 0.640625,0.25 1.484375,0 1.484375,0.1875 1.484375,0.46875 0,0.04687 0,0.203125 -0.09375,0.5625 l -3.34375,13.34375 C 3.671875,-0.96875 3.625,-0.71875 1.90625,-0.71875 c -0.5625,0 -0.734375,0 -0.734375,0.46875 0,0.25 0.265625,0.25 0.34375,0.25 0.4375,0 0.96875,-0.046875 1.4375,-0.046875 H 5.875 C 6.3125,-0.046875 6.84375,0 7.28125,0 7.484375,0 7.75,0 7.75,-0.46875 c 0,-0.25 -0.21875,-0.25 -0.59375,-0.25 -1.5,0 -1.5,-0.203125 -1.5,-0.453125 0,-0.015625 0,-0.1875 0.046875,-0.390625 l 1.65625,-6.671875 h 2.96875 c 2.359375,0 2.8125,1.5 2.8125,2.3125 0,0.375 -0.25,1.34375 -0.421875,1.984375 -0.28125,1.140625 -0.359375,1.40625 -0.359375,1.875 0,1.765625 1.4375,2.578125 3.109375,2.578125 2,0 2.875,-2.453125 2.875,-2.796875 0,-0.171875 -0.125,-0.25 -0.28125,-0.25 -0.1875,0 -0.25,0.15625 -0.296875,0.34375 -0.59375,1.765625 -1.609375,2.21875 -2.234375,2.21875 -0.609375,0 -1.015625,-0.28125 -1.015625,-1.390625 0,-0.59375 0.296875,-2.859375 0.328125,-2.984375 0.125,-0.90625 0.125,-1.015625 0.125,-1.203125 0,-1.8125 -1.46875,-2.578125 -2.40625,-2.875 z m 0,0"
             id="path20" />
        </g>
      </g>
      <g
         fill="#000000"
         fill-opacity="1"
         id="g23"
         transform="matrix(1.33333,0,0,1.33333,-252.992,-18.3508)">
        <g
           id="g22"
           transform="translate(214.73199,30.684999)">
          <path
             d="m 2.828125,-14.5 c 0.25,0.109375 1.265625,0.421875 2.296875,0.421875 2.3125,0 3.578125,-1.234375 4.296875,-1.953125 0,-0.203125 0,-0.328125 -0.15625,-0.328125 -0.015625,0 -0.078125,0 -0.265625,0.109375 -0.875,0.359375 -1.890625,0.65625 -3.125,0.65625 -0.75,0 -1.859375,-0.09375 -3.078125,-0.640625 -0.265625,-0.125 -0.3125,-0.125 -0.34375,-0.125 -0.125,0 -0.15625,0.03125 -0.15625,0.53125 v 7.171875 c 0,0.453125 0,0.578125 0.25,0.578125 0.125,0 0.171875,-0.046875 0.296875,-0.21875 0.796875,-1.125 1.890625,-1.59375 3.125,-1.59375 0.875,0 2.734375,0.546875 2.734375,4.78125 0,0.796875 0,2.234375 -0.75,3.375 -0.625,1.015625 -1.578125,1.53125 -2.65625,1.53125 C 3.671875,-0.203125 2,-1.34375 1.5625,-3.25 c 0.09375,0.03125 0.296875,0.078125 0.390625,0.078125 0.328125,0 0.953125,-0.171875 0.953125,-0.9375 0,-0.671875 -0.484375,-0.953125 -0.953125,-0.953125 -0.5625,0 -0.9375,0.359375 -0.9375,1.046875 0,2.15625 1.703125,4.40625 4.34375,4.40625 2.546875,0 4.96875,-2.203125 4.96875,-5.390625 0,-2.984375 -1.921875,-5.28125 -4.328125,-5.28125 -1.265625,0 -2.328125,0.46875 -3.171875,1.359375 z m 0,0"
             id="path22" />
        </g>
      </g>
      <g
         fill="#000000"
         fill-opacity="1"
         id="g28"
         transform="matrix(1.33333,0,0,1.33333,-252.992,-18.3508)">
        <g
           id="g27"
           transform="translate(226.10001,30.684999)">
          <path
             d="m 4.828125,0.09375 c 0,-1.4375 -0.46875,-2.5 -1.484375,-2.5 -0.796875,0 -1.1875,0.640625 -1.1875,1.1875 C 2.15625,-0.671875 2.53125,0 3.375,0 3.6875,0 3.96875,-0.09375 4.1875,-0.328125 4.234375,-0.375 4.265625,-0.375 4.28125,-0.375 c 0.0625,0 0.0625,0.34375 0.0625,0.46875 0,0.828125 -0.15625,2.4375 -1.59375,4.046875 C 2.484375,4.4375 2.484375,4.484375 2.484375,4.53125 c 0,0.125 0.125,0.25 0.234375,0.25 0.203125,0 2.109375,-1.828125 2.109375,-4.6875 z m 0,0"
             id="path27" />
        </g>
      </g>
      <g
         fill="#000000"
         fill-opacity="1"
         id="g30"
         transform="matrix(1.33333,0,0,1.33333,-252.992,-18.3508)">
        <g
           id="g29"
           transform="translate(236.97301,30.684999)">
          <path
             d="m 10.40625,-7.953125 c 0,-1.515625 -0.01563,-4.09375 -1.0625,-6.078125 -0.921875,-1.734375 -2.375,-2.34375 -3.671875,-2.34375 -1.1875,0 -2.703125,0.546875 -3.640625,2.328125 -0.984375,1.859375 -1.09375,4.15625 -1.09375,6.09375 0,1.40625 0.03125,3.5625 0.796875,5.453125 1.0625,2.546875 2.96875,2.890625 3.9375,2.890625 1.140625,0 2.875,-0.46875 3.890625,-2.8125 0.75,-1.71875 0.84375,-3.71875 0.84375,-5.53125 z M 5.671875,0 C 4.09375,0 3.140625,-1.359375 2.796875,-3.25 2.53125,-4.703125 2.53125,-6.84375 2.53125,-8.234375 c 0,-1.90625 0,-3.484375 0.3125,-5 0.484375,-2.109375 1.859375,-2.75 2.828125,-2.75 1.015625,0 2.328125,0.671875 2.796875,2.703125 0.328125,1.40625 0.359375,3.078125 0.359375,5.046875 0,1.625 0,3.59375 -0.296875,5.0625 C 8,-0.46875 6.546875,0 5.671875,0 Z m 0,0"
             id="path29" />
        </g>
      </g>
    </g>
  </g>
</svg>
