<?xml version="1.0" encoding="UTF-8" standalone="no"?>
<!-- Created with Inkscape (http://www.inkscape.org/) -->

<svg
   width="233.89166mm"
   height="112.44791mm"
   viewBox="0 0 233.89166 112.44791"
   version="1.1"
   id="svg5"
   inkscape:version="1.2.1 (9c6d41e410, 2022-07-14)"
   sodipodi:docname="results.svg"
   xmlns:inkscape="http://www.inkscape.org/namespaces/inkscape"
   xmlns:sodipodi="http://sodipodi.sourceforge.net/DTD/sodipodi-0.dtd"
   xmlns="http://www.w3.org/2000/svg"
   xmlns:svg="http://www.w3.org/2000/svg">
  <sodipodi:namedview
     id="namedview7"
     pagecolor="#ffffff"
     bordercolor="#000000"
     borderopacity="0.25"
     inkscape:showpageshadow="2"
     inkscape:pageopacity="0.0"
     inkscape:pagecheckerboard="0"
     inkscape:deskcolor="#d1d1d1"
     inkscape:document-units="mm"
     showgrid="false"
     inkscape:zoom="1.0544998"
     inkscape:cx="535.79907"
     inkscape:cy="120.43625"
     inkscape:window-width="1920"
     inkscape:window-height="1017"
     inkscape:window-x="1912"
     inkscape:window-y="-8"
     inkscape:window-maximized="1"
     inkscape:current-layer="layer1" />
  <defs
     id="defs2">
    <clipPath
       id="clip0">
      <rect
         x="688"
         y="0"
         width="884"
         height="425"
         id="rect132" />
    </clipPath>
    <clipPath
       id="clip1">
      <rect
         x="754"
         y="14"
         width="800"
         height="348"
         id="rect135" />
    </clipPath>
  </defs>
  <g
     inkscape:label="Camada 1"
     inkscape:groupmode="layer"
     id="layer1"
     transform="translate(106.30067,-151.35669)">
    <g
       clip-path="url(#clip0)"
       transform="matrix(0.26458333,0,0,0.26458333,-288.334,151.35669)"
       id="g274">
      <rect
         x="688"
         y="0"
         width="884"
         height="425"
         fill="#ffffff"
         id="rect140" />
      <g
         id="g144">
        <path
           d="m 754.5,361.5 h 799 m -799,-58 h 799 m -799,-57 h 799 m -799,-116 h 799 m -799,-57.9999 h 799 m -799,-58 h 799"
           stroke="#d9d9d9"
           stroke-linejoin="round"
           stroke-miterlimit="10"
           fill="none"
           id="path142" />
      </g>
      <g
         id="g148">
        <path
           d="M 834.5,14.5001 V 361.5 m 80,-346.9999 V 361.5 m 80,-346.9999 V 361.5 m 80,-346.9999 V 361.5 m 80,-346.9999 V 361.5 m 80,-346.9999 V 361.5 m 80,-346.9999 V 361.5 m 80,-346.9999 V 361.5 m 80,-346.9999 V 361.5 m 79,-346.9999 V 361.5"
           stroke="#d9d9d9"
           stroke-linejoin="round"
           stroke-miterlimit="10"
           fill="none"
           id="path146" />
      </g>
      <g
         id="g152">
        <rect
           x="754.5"
           y="14.5001"
           width="799"
           height="347"
           stroke="#000000"
           stroke-linejoin="round"
           stroke-miterlimit="10"
           fill="none"
           id="rect150" />
      </g>
      <g
         id="g156">
        <path
           d="M 0,0 1.04987e-4,347"
           stroke="#000000"
           stroke-linejoin="round"
           stroke-miterlimit="10"
           fill="none"
           fill-rule="evenodd"
           transform="matrix(1,0,0,-1,754.5,361.5)"
           id="path154" />
      </g>
      <g
         id="g160">
        <path
           d="m 754.5,361.5 h 3 m -3,-11 h 3 m -3,-12 h 3 m -3,-11 h 3 m -3,-12 h 3 m -3,-12 h 3 m -3,-11 h 3 m -3,-12 h 3 m -3,-11 h 3 m -3,-12 h 3 m -3,-11 h 3 m -3,-12 h 3 m -3,-12 h 3 m -3,-11 h 3 m -3,-12 h 3 m -3,-11 h 3 m -3,-12 h 3 m -3,-11 h 3 m -3,-12 h 3 m -3,-12 h 3 m -3,-11 h 3 m -3,-12 h 3 m -3,-11 h 3 m -3,-11.9999 h 3 m -3,-11 h 3 m -3,-12 h 3 m -3,-12 h 3 m -3,-11 h 3 m -3,-12 h 3 m -3,-11 h 3 m -3,-12 h 3 m -6,346.9999 h 7 m -7,-58 h 7 m -7,-57 h 7 m -7,-58 h 7 m -7,-58 h 7 m -7,-57.9999 h 7 m -7,-58 h 7"
           stroke="#000000"
           stroke-linejoin="round"
           stroke-miterlimit="10"
           fill="none"
           id="path158" />
      </g>
      <g
         id="g164">
        <path
           d="m 754.5,188.5 h 799"
           stroke="#000000"
           stroke-linejoin="round"
           stroke-miterlimit="10"
           fill="none"
           fill-rule="evenodd"
           id="path162" />
      </g>
      <g
         id="g168">
        <path
           d="m 754.5,185.5 v 3 m 16,-3 v 3 m 16,-3 v 3 m 16,-3 v 3 m 16,-3 v 3 m 16,-3 v 3 m 16,-3 v 3 m 16,-3 v 3 m 16,-3 v 3 m 16,-3 v 3 m 16,-3 v 3 m 16,-3 v 3 m 16,-3 v 3 m 16,-3 v 3 m 16,-3 v 3 m 16,-3 v 3 m 16,-3 v 3 m 16,-3 v 3 m 16,-3 v 3 m 16,-3 v 3 m 16,-3 v 3 m 16,-3 v 3 m 16,-3 v 3 m 16,-3 v 3 m 16,-3 v 3 m 16,-3 v 3 m 16,-3 v 3 m 16,-3 v 3 m 16,-3 v 3 m 16,-3 v 3 m 16,-3 v 3 m 16,-3 v 3 m 16,-3 v 3 m 16,-3 v 3 m 16,-3 v 3 m 16,-3 v 3 m 16,-3 v 3 m 16,-3 v 3 m 16,-3 v 3 m 16,-3 v 3 m 16,-3 v 3 m 16,-3 v 3 m 16,-3 v 3 m 16,-3 v 3 m 16,-3 v 3 m 16,-3 v 3 m 16,-3 v 3 m 16,-3 v 3 m 16,-3 v 3 m 16,-3 v 3 m 15,-3 v 3 m -799,-4 v 7 m 80,-7 v 7 m 80,-7 v 7 m 80,-7 v 7 m 80,-7 v 7 m 80,-7 v 7 m 80,-7 v 7 m 80,-7 v 7 m 80,-7 v 7 m 80,-7 v 7 m 79,-7 v 7"
           stroke="#000000"
           stroke-linejoin="round"
           stroke-miterlimit="10"
           fill="none"
           id="path166" />
      </g>
      <g
         id="g172">
        <path
           d="m 755,188 v 0 h 1 v 0 0 0 h 1 v 0 0 0 h 1 v 0 0 0 h 1 v 0 0 0 h 1 v 0 0 h 1 v 0 0 0 h 1 v 0 0 0 h 1 v 0 0 0 h 1 v 0 0 0 h 1 v 0 0 h 1 v 0 0 0 h 1 v 0 0 0 h 1 v 0 0 0 h 1 v 0 0 0 h 1 v 0 0 h 1 v 0 0 0 h 1 v 0 0 0 h 1 v 0 0 0 h 1 v 0 0 h 1 v 0 0 0 h 1 v 0 0 0 h 1 v 0 0 0 h 1 v 0 0 0 h 1 v 0 0 h 1 v 0 0 0 h 1 v 0 0 0 h 1 v -1 0 0 h 1 v 0 0 0 h 1 v 0 0 h 1 v 0 0 0 h 1 v 0 0 0 h 1 v 0 0 0 h 1 v 0 0 -1 h 1 v 0 0 h 1 v 0 0 0 h 1 v 0 0 0 h 1 v 0 0 0 h 1 v 0 -1 0 h 1 v 0 0 h 1 v 0 0 0 h 1 v 0 0 0 h 1 v 0 0 0 h 1 v 0 0 0 h 1 v 0 0 h 1 v 0 0 0 h 1 v 0 0 0 h 1 v 1 0 0 h 1 v 0 0 h 1 v 0 1 0 h 1 v 0 0 0 l 1,1 v 0 0 0 l 1,1 v 0 0 0 h 1 v 1 0 h 1 v 1 0 0 h 1 v 1 0 0 l 1,1 v 0 1 0 h 1 v 1 0 0 l 1,1 v 0 1 h 1 v 1 0 1 h 1 v 1 0 1 h 1 v 1 0 1 l 1,1 v 0 1 0 l 1,1 v 0 1 l 1,1 v 0 1 0 l 1,1 v 0 1 0 l 1,1 v 0 0 1 h 1 v 0 1 0 h 1 v 0 0 h 1 v 0 0 0 h 1 v 0 0 0 h 1 v 0 0 0 h 1 v 0 0 h 1 v 0 0 0 h 1 v 0 0 1 h 1 v 0 0 0 l 1,1 v 0 0 1 h 1 v 0 0 l 1,1 v 0 1 0 l 1,1 v 0 1 0 l 1,1 v 0 1 1 h 1 v 1 1 1 h 1 v 1 1 l 1,1 v 1 1 1 l 1,1 v 1 1 1 l 1,2 v 1 1 1 l 1,1 v 1 1 1 l 1,1 v 2 1 l 1,1 v 0 1 1 l 1,1 v 1 1 0 l 1,1 v 1 0 1 h 1 v 1 0 1 h 1 v 1 0 h 1 v 1 0 0 l 1,1 v 0 1 0 h 1 v 1 0 0 l 1,1 v 0 0 1 h 1 v 1 0 h 1 v 1 0 0 l 1,1 v 0 0 0 l 1,1 v 0 0 0 l 1,1 v 0 0 h 1 v 1 0 0 h 1 v 1 0 0 h 1 v 1 0 0 l 1,1 v 0 0 0 h 1 v 1 0 h 1 v 0 0 0 h 1 v -1 0 0 l 1,-1 v 0 -1 -1 h 1 v -1 -1 -2 l 1,-1 v -1 -2 l 1,-1 v -2 -2 -1 l 1,-2 v -2 -2 -2 l 1,-2 v -2 -3 -2 l 1,-2 v -3 -2 -2 l 1,-3 v -2 -3 l 1,-2 v -2 -3 -2 l 1,-3 v -2 -3 -2 l 1,-3 v -2 -3 -2 l 1,-2 v -3 -2 -2 l 1,-2 v -2 -2 l 1,-2 v -2 -1 -2 l 1,-1 v -1 -2 0 l 1,-1 v -1 0 -1 h 1 v 0 0 h 1 v 0 1 1 h 1 v 1 1 1 l 1,1 v 2 1 1 l 1,2 v 1 2 2 l 1,1 v 2 2 l 1,1 v 2 2 1 l 1,2 v 2 1 2 l 1,2 v 1 2 1 l 1,2 v 1 2 1 l 1,2 v 1 1 l 1,2 v 1 1 1 l 1,1 v 1 1 1 l 1,1 v 1 1 1 l 1,1 v 0 1 1 h 1 v 1 1 h 1 v 1 0 1 h 1 v 1 1 0 l 1,1 v 1 0 1 l 1,1 v 1 0 1 l 1,1 v 1 1 l 1,1 v 1 2 1 l 1,1 v 1 2 1 l 1,1 v 2 1 1 l 1,1 v 2 1 1 l 1,1 v 1 1 l 1,1 v 0 1 0 l 1,1 v 0 0 0 h 1 v 0 0 -1 h 1 v -1 0 l 1,-1 v -1 -1 -1 l 1,-1 v -1 -2 -1 l 1,-1 v -2 -1 -2 l 1,-1 v -2 -2 -1 l 1,-2 v -2 -2 l 1,-2 v -2 -2 -2 l 1,-2 v -2 -3 -2 l 1,-3 v -2 -3 -3 l 1,-3 v -3 -3 -3 l 1,-3 v -3 -4 l 1,-3 v -3 -4 -3 l 1,-3 v -3 -3 -3 l 1,-4 v -2 -3 -3 l 1,-3 v -2 -3 -2 l 1,-2 v -3 -2 l 1,-2 v -1 -2 -2 l 1,-2 v -1 -1 -2 l 1,-1 v -1 -1 -1 l 1,-1 v -1 0 -1 h 1 v -1 0 h 1 v 0 0 1 h 1 v 1 1 1 l 1,1 v 1 2 1 l 1,2 v 2 2 3 l 1,2 v 3 3 l 1,2 v 3 3 4 l 1,3 v 3 4 3 l 1,4 v 3 4 4 l 1,3 v 4 4 l 1,4 v 4 4 3 l 1,4 v 4 4 4 l 1,4 v 4 3 4 l 1,4 v 4 4 4 l 1,4 v 3 4 l 1,4 v 4 3 4 l 1,4 v 3 3 4 l 1,3 v 3 3 2 l 1,3 v 2 3 2 l 1,2 v 1 2 l 1,1 v 1 1 1 l 1,1 v 0 0 0 h 1 v 0 0 -1 h 1 v -1 -1 -1 l 1,-1 v -2 -1 l 1,-2 v -2 -1 -2 l 1,-2 v -3 -2 -2 l 1,-3 v -3 -2 -3 l 1,-3 v -3 -3 -3 l 1,-4 v -3 -3 l 1,-4 v -4 -3 -4 l 1,-4 v -4 -3 -4 l 1,-4 v -4 -4 -4 l 1,-4 v -4 -4 l 1,-4 v -4 -4 -4 l 1,-3 v -4 -4 -4 l 1,-4 v -3 -4 -4 l 1,-4 v -3 -4 -4 l 1,-4 v -4 -3 l 1,-4 v -4 -4 -4 l 1,-4 v -4 -4 -4 l 1,-4 v -4 -4 -4 l 1,-3 v -4 -4 -4 l 1,-3 v -4 -3 l 1,-3 v -3 -3 -2 l 1,-3 v -2 -2 -2 l 1,-2 v -2 -1 -1 l 1,-1 v -1 0 -1 h 1 v 0 0 h 1 v 1 0 1 l 1,1 v 1 1 1 l 1,1 v 2 1 2 l 1,2 v 2 2 2 l 1,2 v 2 2 l 1,3 v 2 3 3 l 1,3 v 3 3 3 l 1,3 v 4 3 4 l 1,4 v 4 4 4 l 1,5 v 4 5 l 1,4 v 5 5 5 l 1,4 v 5 5 5 l 1,5 v 5 5 5 l 1,5 v 5 5 l 1,5 v 5 5 4 l 1,5 v 5 4 5 l 1,5 v 4 5 4 l 1,5 v 4 5 4 l 1,5 v 4 4 l 1,4 v 4 4 4 l 1,4 v 3 4 3 l 1,3 v 2 2 2 l 1,2 v 2 1 1 h 1 v 0 0 h 1 v -1 -1 -1 l 1,-1 v -2 -2 -2 l 1,-2 v -2 -3 -2 l 1,-3 v -3 -2 -3 l 1,-3 v -3 -2 l 1,-3 v -3 -3 -3 l 1,-2 v -3 -3 -3 l 1,-3 v -3 -4 -3 l 1,-3 v -4 -4 -3 l 1,-4 v -4 -4 l 1,-4 v -5 -4 -4 l 1,-5 v -4 -4 -5 l 1,-4 v -4 -5 -4 l 1,-4 v -4 -3 l 1,-4 v -3 -4 -3 l 1,-3 v -3 -3 -3 l 1,-2 v -3 -3 -2 l 1,-3 v -3 -2 -3 l 1,-3 v -3 -3 l 1,-3 v -3 -3 -3 l 1,-4 v -3 -4 -3 l 1,-4 v -3 -4 -3 l 1,-4 v -3 -4 -3 l 1,-3 v -3 -2 l 1,-3 v -2 -2 -2 l 1,-1 v -1 -1 -1 l 1,-1 v 0 0 0 l 1,1 v 0 1 0 l 1,1 v 1 2 l 1,1 v 1 1 1 l 1,2 v 1 1 2 l 1,1 v 1 2 1 l 1,1 v 2 2 1 l 1,2 v 2 2 l 1,2 v 2 3 3 l 1,2 v 3 4 3 l 1,3 v 4 4 4 l 1,4 v 4 4 4 l 1,4 v 4 5 l 1,4 v 4 4 4 l 1,4 v 3 4 3 l 1,4 v 3 3 3 l 1,3 v 3 3 l 1,3 v 3 3 3 l 1,3 v 3 3 3 l 1,3 v 4 3 4 l 1,4 v 4 4 4 l 1,4 v 4 4 l 1,4 v 4 4 4 l 1,4 v 4 3 4 l 1,3 v 3 3 2 l 1,3 v 1 2 1 l 1,2 v 0 1 h 1 v 0 0 0 h 1 v -1 -1 -1 l 1,-1 v -1 -2 -1 l 1,-2 v -1 -2 -1 l 1,-2 v -2 -1 l 1,-2 v -2 -1 -2 l 1,-2 v -2 -2 -3 l 1,-2 v -2 -3 -3 l 1,-3 v -3 -3 -4 l 1,-3 v -4 -4 l 1,-5 v -4 -4 -5 l 1,-4 v -5 -4 -5 l 1,-4 v -5 -4 -5 l 1,-4 v -4 -4 -4 l 1,-3 v -4 -3 l 1,-4 v -3 -3 -3 l 1,-3 v -2 -3 -3 l 1,-3 v -3 -3 -3 l 1,-3 v -3 -3 l 1,-3 v -4 -3 -4 l 1,-4 v -3 -4 -4 l 1,-4 v -3 -4 -4 l 1,-3 v -3 -4 -3 l 1,-2 v -3 -2 l 1,-2 v -2 -2 -1 l 1,-1 v -1 0 -1 h 1 v 1 0 0 l 1,1 v 1 1 1 l 1,1 v 1 1 l 1,2 v 1 1 2 l 1,1 v 1 2 1 l 1,1 v 2 1 2 l 1,2 v 2 1 2 l 1,3 v 2 2 l 1,3 v 3 3 3 l 1,3 v 4 4 3 l 1,5 v 4 4 4 l 1,5 v 4 5 5 l 1,4 v 5 4 l 1,4 v 5 4 4 l 1,4 v 4 3 4 l 1,3 v 4 3 3 l 1,4 v 3 3 l 1,3 v 4 3 3 l 1,4 v 3 4 4 l 1,4 v 4 4 4 l 1,5 v 4 4 5 l 1,4 v 5 4 l 1,4 v 4 4 3 l 1,3 v 3 3 3 l 1,2 v 1 2 1 l 1,1 v 1 0 0 h 1 v -1 -1 l 1,-1 v -1 -1 -1 l 1,-2 v -2 -1 -2 l 1,-2 v -2 -2 -2 l 1,-1 v -2 -2 -2 l 1,-2 v -2 -2 l 1,-2 v -2 -2 -2 l 1,-3 v -2 -3 -3 l 1,-3 v -3 -4 -4 l 1,-4 v -4 -4 -5 l 1,-5 v -4 -5 l 1,-5 v -5 -5 -5 l 1,-5 v -5 -5 -5 l 1,-4 v -4 -5 -4 l 1,-3 v -4 -3 -4 l 1,-3 v -3 -3 l 1,-3 v -3 -2 -3 l 1,-3 v -3 -3 -3 l 1,-3 v -3 -3 -3 l 1,-4 v -4 -3 l 1,-4 v -4 -4 -4 l 1,-4 v -4 -4 -3 l 1,-4 v -3 -3 -3 l 1,-3 v -2 -2 -2 l 1,-2 v -1 -1 h 1 v -1 0 1 h 1 v 1 1 1 l 1,1 v 1 1 2 l 1,2 v 1 2 1 l 1,2 v 2 1 l 1,2 v 1 1 2 l 1,1 v 2 1 2 l 1,1 v 2 2 2 l 1,2 v 2 3 3 l 1,2 v 4 3 l 1,3 v 4 4 4 l 1,4 v 5 4 5 l 1,4 v 5 5 4 l 1,5 v 4 4 5 l 1,4 v 4 3 l 1,4 v 3 3 3 l 1,3 v 3 3 3 l 1,2 v 3 2 3 l 1,3 v 3 3 l 1,3 v 3 3 4 l 1,3 v 4 4 4 l 1,4 v 4 5 4 l 1,4 v 5 4 4 l 1,4 v 4 3 l 1,3 v 3 3 3 l 1,2 v 1 2 1 l 1,1 v 0 1 0 l 1,-1 v 0 -1 0 l 1,-1 v -2 -1 l 1,-1 v -1 -2 -1 l 1,-2 v -1 -1 -2 l 1,-1 v -1 -1 -2 l 1,-1 v -1 -2 -1 l 1,-2 v -1 -2 l 1,-2 v -2 -3 -2 l 1,-3 v -3 -3 -4 l 1,-3 v -4 -4 -5 l 1,-4 v -5 -4 -5 l 1,-5 v -4 -5 l 1,-5 v -4 -5 -4 l 1,-4 v -4 -4 -4 l 1,-3 v -3 -3 -3 l 1,-3 v -3 -2 -3 l 1,-2 v -3 -2 l 1,-3 v -3 -2 -3 l 1,-3 v -3 -3 -4 l 1,-3 v -4 -4 -4 l 1,-4 v -4 -4 l 1,-4 v -4 -4 -4 l 1,-4 v -4 -3 -4 l 1,-3 v -2 -3 -2 l 1,-2 v -1 -1 -1 l 1,-1 v 0 -1 l 1,1 v 0 0 1 l 1,1 v 1 1 1 l 1,1 v 1 1 1 l 1,1 v 1 1 1 l 1,1 v 1 1 l 1,1 v 1 1 1 l 1,2 v 1 1 2 l 1,2 v 2 2 2 l 1,3 v 3 3 3 l 1,4 v 4 4 l 1,4 v 4 4 5 l 1,4 v 5 4 5 l 1,4 v 5 4 4 l 1,4 v 4 4 3 l 1,3 v 4 3 l 1,2 v 3 3 3 l 1,2 v 3 3 2 l 1,3 v 3 3 3 l 1,3 v 4 3 4 l 1,4 v 4 4 l 1,4 v 5 4 5 l 1,4 v 5 4 4 l 1,4 v 4 4 3 l 1,3 v 3 3 l 1,2 v 2 2 1 l 1,1 v 1 0 1 h 1 v -1 0 -1 h 1 v -1 -1 -1 l 1,-2 v -1 -1 l 1,-1 v -2 -1 -1 l 1,-1 v -1 -1 -2 l 1,-1 v -1 -1 -2 l 1,-1 v -2 -2 -2 l 1,-2 v -2 -3 l 1,-3 v -3 -3 -3 l 1,-4 v -4 -4 -5 l 1,-4 v -5 -5 -4 l 1,-5 v -5 -5 -5 l 1,-4 v -5 -5 l 1,-4 v -4 -4 -4 l 1,-4 v -3 -3 -4 l 1,-3 v -3 -2 -3 l 1,-3 v -3 -3 -2 l 1,-3 v -3 -3 l 1,-4 v -3 -3 -4 l 1,-4 v -4 -4 -4 l 1,-4 v -4 -5 -4 l 1,-4 v -4 -4 l 1,-4 v -4 -3 -3 l 1,-3 v -3 -2 -3 l 1,-1 v -2 -1 -1 h 1 v 0 -1 1 h 1 v 1 1 l 1,1 v 1 1 1 l 1,1 v 2 1 2 l 1,1 v 1 2 1 l 1,1 v 1 2 1 l 1,1 v 1 2 l 1,1 v 2 2 2 l 1,2 v 2 2 3 l 1,3 v 3 3 4 l 1,3 v 4 4 5 l 1,4 v 5 4 l 1,5 v 5 4 5 l 1,4 v 5 4 4 l 1,4 v 4 4 4 l 1,3 v 3 3 3 l 1,3 v 3 2 l 1,3 v 3 2 3 l 1,3 v 3 3 3 l 1,3 v 3 4 4 l 1,3 v 5 4 4 l 1,4 v 5 4 l 1,5 v 4 4 5 l 1,4 v 3 4 3 l 1,4 v 2 3 2 l 1,2 v 1 2 l 1,1 v 0 1 0 h 1 v -1 0 -1 l 1,-1 v -1 -1 -1 l 1,-1 v -1 -2 -1 l 1,-1 v -1 -1 l 1,-1 v -1 -1 -2 l 1,-1 v -1 -1 -2 l 1,-1 v -2 -1 -2 l 1,-3 v -2 -2 -3 l 1,-3 v -3 -4 l 1,-4 v -4 -4 -4 l 1,-4 v -5 -5 -4 l 1,-5 v -5 -5 -4 l 1,-5 v -4 -5 -4 l 1,-4 v -4 -4 l 1,-3 v -3 -4 -3 l 1,-3 v -2 -3 -3 l 1,-2 v -3 -3 -2 l 1,-3 v -3 -3 -3 l 1,-4 v -3 -4 l 1,-3 v -4 -4 -4 l 1,-5 v -4 -4 -5 l 1,-4 v -4 -4 -4 l 1,-4 v -4 -3 -3 l 1,-3 v -3 -2 l 1,-2 v -1 -2 -1 h 1 v -1 0 0 h 1 v 0 1 1 l 1,1 v 0 2 l 1,1 v 1 1 1 l 1,1 v 1 1 1 l 1,1 v 1 1 1 l 1,1 v 1 1 2 l 1,1 v 1 2 l 1,2 v 2 2 3 l 1,2 v 3 3 4 l 1,3 v 4 4 4 l 1,5 v 4 4 5 l 1,5 v 4 5 l 1,4 v 4 5 4 l 1,4 v 3 4 3 l 1,4 v 3 3 3 l 1,2 v 3 3 2 l 1,3 v 2 3 l 1,3 v 3 3 3 l 1,3 v 3 4 4 l 1,3 v 4 5 4 l 1,4 v 5 4 5 l 1,4 v 5 4 l 1,4 v 4 4 3 l 1,4 v 3 3 2 l 1,2 v 2 2 1 l 1,1 v 0 1 h 1 v 0 0 0 l 1,-1 v 0 -1 -1 l 1,-1 v -1 -1 -1 l 1,-1 v -1 -1 0 l 1,-1 v -1 -1 l 1,-1 v -1 -2 -1 l 1,-1 v -2 -1 -2 l 1,-2 v -2 -3 -2 l 1,-3 v -3 -4 -3 l 1,-4 v -4 -4 l 1,-4 v -5 -4 -5 l 1,-5 v -4 -5 -5 l 1,-4 v -5 -4 -5 l 1,-4 v -4 -3 -4 l 1,-4 v -3 -3 l 1,-3 v -3 -3 -3 l 1,-3 v -3 -2 -3 l 1,-3 v -3 -3 -4 l 1,-3 v -4 -3 -4 l 1,-4 v -4 -4 l 1,-5 v -4 -5 -4 l 1,-4 v -5 -4 -4 l 1,-4 v -4 -3 -4 l 1,-3 v -3 -2 -2 l 1,-2 v -2 -1 l 1,-1 v -1 0 -1 h 1 v 1 0 0 l 1,1 v 1 1 1 l 1,1 v 1 1 l 1,1 v 1 1 1 l 1,1 v 1 1 1 l 1,1 v 2 1 1 l 1,2 v 1 2 2 l 1,2 v 2 3 l 1,2 v 3 3 4 l 1,3 v 4 4 4 l 1,4 v 4 5 4 l 1,5 v 4 5 4 l 1,5 v 4 5 l 1,4 v 4 3 4 l 1,4 v 3 3 3 l 1,3 v 3 3 3 l 1,2 v 3 3 3 l 1,3 v 3 3 l 1,3 v 4 3 4 l 1,4 v 4 4 4 l 1,5 v 4 5 4 l 1,5 v 4 5 4 l 1,4 v 4 4 l 1,3 v 3 3 3 l 1,3 v 2 1 2 l 1,1 v 1 1 0 h 1 v 0 0 h 1 v -1 0 -1 l 1,-1 v -1 -1 -1 l 1,-1 v -1 -1 -1 l 1,-1 v -1 -1 -1 l 1,-1 v -1 -2 l 1,-1 v -2 -1 -2 l 1,-2 v -2 -3 -2 l 1,-3 v -3 -3 -4 l 1,-3 v -4 -4 -4 l 1,-5 v -4 -5 l 1,-4 v -5 -5 -4 l 1,-5 v -5 -4 -4 l 1,-5 v -4 -4 -4 l 1,-3 v -4 -3 -3 l 1,-3 v -3 -3 l 1,-3 v -3 -3 -3 l 1,-3 v -3 -3 -3 l 1,-4 v -3 -4 -3 l 1,-4 v -4 -4 -5 l 1,-4 v -5 -4 l 1,-4 v -5 -4 -4 l 1,-4 v -4 -4 -4 l 1,-3 v -3 -3 -2 l 1,-3 v -2 -1 -2 l 1,-1 v 0 -1 h 1 v 0 0 0 h 1 v 1 1 0 l 1,1 v 1 1 1 l 1,1 v 1 1 l 1,1 v 1 1 1 l 1,1 v 1 1 2 l 1,1 v 1 2 2 l 1,2 v 2 2 3 l 1,2 v 3 3 l 1,4 v 3 4 4 l 1,4 v 4 4 5 l 1,4 v 4 5 4 l 1,5 v 4 4 5 l 1,4 v 4 3 l 1,4 v 3 4 3 l 1,3 v 3 3 2 l 1,3 v 3 3 3 l 1,3 v 3 3 3 l 1,3 v 4 3 l 1,4 v 4 4 4 l 1,4 v 5 4 5 l 1,4 v 5 4 5 l 1,4 v 4 4 4 l 1,3 v 4 3 l 1,3 v 2 3 1 l 1,2 v 1 2 0 l 1,1 v 1 0 0 h 1 v -1 0 0 l 1,-1 v -1 -1 h 1 v -1 -1 -1 l 1,-1 v -1 -1 -1 l 1,-1 v -1 -1 -1 l 1,-2 v -1 -2 l 1,-1 v -2 -3 -2 l 1,-2 v -3 -3 -3 l 1,-3 v -4 -4 -4 l 1,-4 v -4 -4 -5 l 1,-4 v -5 -4 l 1,-5 v -4 -5 -4 l 1,-5 v -4 -4 -4 l 1,-4 v -3 -4 -3 l 1,-4 v -3 -3 -3 l 1,-3 v -3 -3 l 1,-3 v -3 -3 -3 l 1,-4 v -3 -3 -4 l 1,-4 v -4 -4 -4 l 1,-4 v -5 -4 -4 l 1,-5 v -4 -5 l 1,-4 v -4 -4 -4 l 1,-4 v -3 -3 -3 l 1,-3 v -3 -2 -2 l 1,-1 v -2 -1 -1 h 1 v -1 0 h 1 v 0 0 1 h 1 v 1 1 0 l 1,1 v 1 1 1 l 1,1 v 1 1 l 1,1 v 1 1 1 l 1,1 v 1 2 2 l 1,1 v 2 2 3 l 1,2 v 3 2 3 l 1,3 v 4 3 l 1,4 v 4 4 4 l 1,5 v 4 4 5 l 1,4 v 5 4 4 l 1,4 v 5 4 3 l 1,4 v 4 3 l 1,4 v 3 3 3 l 1,3 v 3 3 3 l 1,3 v 3 3 3 l 1,3 v 4 3 4 l 1,4 v 4 4 l 1,4 v 4 4 5 l 1,4 v 5 5 4 l 1,4 v 5 4 4 l 1,4 v 4 4 3 l 1,3 v 3 2 l 1,3 v 1 2 2 l 1,1 v 1 0 1 h 1 v 0 0 0 h 1 v -1 0 -1 l 1,-1 v -1 0 l 1,-1 v -1 -1 -1 l 1,-1 v -1 -1 -2 l 1,-1 v -1 -2 -2 l 1,-1 v -2 -2 l 1,-3 v -2 -3 -2 l 1,-3 v -4 -3 -4 l 1,-4 v -3 -5 -4 l 1,-4 v -5 -4 -5 l 1,-4 v -5 -4 l 1,-5 v -4 -4 -5 l 1,-4 v -4 -4 -3 l 1,-4 v -3 -4 -3 l 1,-3 v -3 -3 -4 l 1,-3 v -3 -3 l 1,-3 v -3 -4 -3 l 1,-4 v -4 -3 -4 l 1,-4 v -5 -4 -4 l 1,-5 v -4 -4 -5 l 1,-4 v -4 -4 l 1,-4 v -4 -4 -3 l 1,-4 v -3 -3 -2 l 1,-2 v -2 -2 -1 l 1,-2 v 0 -1 -1 h 1 v 0 0 h 1 v 0 1 1 h 1 v 1 1 1 l 1,1 v 0 1 1 l 1,1 v 1 2 l 1,1 v 1 1 2 l 1,1 v 2 2 2 l 1,2 v 2 3 2 l 1,3 v 3 3 4 l 1,3 v 4 4 l 1,4 v 4 4 5 l 1,4 v 4 5 4 l 1,4 v 5 4 4 l 1,4 v 4 4 3 l 1,4 v 3 4 l 1,3 v 3 3 3 l 1,3 v 3 3 3 l 1,3 v 4 3 3 l 1,4 v 3 4 4 l 1,4 v 4 4 l 1,5 v 4 5 4 l 1,5 v 4 5 4 l 1,4 v 4 4 4 l 1,4 v 3 3 3 l 1,3 v 2 2 l 1,2 v 2 1 1 l 1,1 v 0 1 0 h 1 v 0 0 0 l 1,-1 v -1 0 -1 l 1,-1 v -1 -1 l 1,-1 v -1 -1 -1 l 1,-1 v -1 -2 -1 l 1,-2 v -2 -1 -2 l 1,-2 v -3 -2 l 1,-3 v -2 -3 -3 l 1,-4 v -3 -4 -4 l 1,-4 v -4 -4 -5 l 1,-4 v -4 -5 -4 l 1,-5 v -4 -5 l 1,-4 v -4 -4 -4 l 1,-4 v -4 -4 -3 l 1,-4 v -3 -3 -3 l 1,-3 v -4 -3 -3 l 1,-3 v -3 -4 l 1,-3 v -3 -4 -3 l 1,-4 v -4 -4 -4 l 1,-4 v -4 -5 -4 l 1,-4 v -5 -4 -4 l 1,-4 v -5 -3 l 1,-4 v -4 -3 -3 l 1,-3 v -3 -2 -3 l 1,-1 v -2 -1 -2 h 1 v -1 -1 0 h 1 v 0 0 h 1 v 1 0 1 l 1,1 v 1 0 1 l 1,1"
           stroke="#4472c4"
           stroke-width="2"
           stroke-linecap="round"
           stroke-linejoin="round"
           stroke-miterlimit="10"
           fill="none"
           id="path170" />
      </g>
      <g
         clip-path="url(#clip1)"
         id="g176">
        <path
           d="m 754.5,188.5 49,-1 h 15 12 l 13,-2 13,-1 11,2 11,1 h 8 l 9,-2 7,-2 8,-1 h 7 l 7,2 5,4 5,4 5,3 5,2 h 5 l 5,-3 4,-4 3,-4 5,-4 7,-2 5,2 5,5 2,5 4,6 4,3 4,2 5,-1 4,-6 3,-6 4,-8 3,-6 2,-4 3,-3 h 3 l 3,5 2,5 3,9 2,10 3,9 2,12 2,7 3,5 2,3 3,-1 2,-3 2,-6 2,-11 1,-11 2,-17 2,-20 2,-21 2,-18 3,-18 2,-7 2,-4 3,5 2,12 2,14 1,22 4,25 v 20 l 2,18 1,23 1,20 1,21 2,25 3,14 1,11 3,4 2,-5 1,-11 2,-19 1,-18 1,-25 2,-31 2,-25 1,-33 1,-30 1,-26 2,-27.9999 1,-17 1,-11 2,-7 2,-3 3,7 1,14 4,26 5,66.9999 2,39 1,32 3,43 3,33 2,13 3,3 2,-4 2,-12 4,-27 3,-45 2,-44 3,-44 4,-41 1,-19.9999 2,-16 3,-4 3,7 2,11 3,37.9999 3,29 3,47 4,47 2,39 3,30 2,11 2,5 4,-9 2,-25 2,-24 3,-34 1,-30 1,-27 2,-36 2,-26 2,-33.9999 1,-28 1,-9 3,-6 2,4 3,12 1,16 4,42.9999 3,53 2,39 3,56 4,48 2,13 2,4 2,-3 2,-10 2,-12 3,-39 4,-41 1,-39 3,-44 2,-35 2,-18.9999 2,-17 3,-7 2,8 3,17 3,30.9999 3,30 3,37 3,44 2,37 2,28 2,16 3,7 4,-6 4,-22 2,-31 2,-30 3,-36 1,-35 2,-31 2,-35.9999 1,-20 2,-14 2,-9 1,-1 4,14 3,16 3,31.9999 1,32 2,33 3,42 1,37 2,31 3,24 2,17 1,12 3,1 2,-7 2,-16 2,-23 3,-42 2,-40 1,-46 3,-37 3,-47.9999 1,-19 3,-8 3,8 5,29 3,40.9999 3,46 3,43 3,44 2,24 1,14 4,11 4,-5 2,-12 2,-20 3,-30 2,-37 3,-36 2,-34 3,-34 3,-33.9999 2,-6 5,10 3,25.9999 4,46 3,38 3,51 2,39 2,30 3,22 3,11 4,-10 4,-35 2,-38 2,-38 2,-40 2,-47 1,-39.9999 4,-26 1,-19 3,-7 3,13 4,42 3,56.9999 4,45 3,63 2,36 3,20 2,10 2,2 3,-13 3,-26 4,-53 3,-42 2,-44 3,-37 2,-21.9999 2,-12 2,-5 4,8 5,40.9999 3,35 4,48 3,40 2,23"
           stroke="#000000"
           stroke-width="1.33333"
           stroke-linecap="round"
           stroke-linejoin="round"
           stroke-miterlimit="10"
           stroke-dasharray="2.66667, 2.66667"
           fill="none"
           id="path174" />
      </g>
      <g
         id="g180">
        <text
           font-family="Arial, Arial_MSFontService, sans-serif"
           font-weight="400"
           font-size="12px"
           transform="translate(724,366)"
           id="text178">-1.5</text>
      </g>
      <g
         id="g184">
        <text
           font-family="Arial, Arial_MSFontService, sans-serif"
           font-weight="400"
           font-size="12px"
           transform="translate(724,308)"
           id="text182">-1.0</text>
      </g>
      <g
         id="g188">
        <text
           font-family="Arial, Arial_MSFontService, sans-serif"
           font-weight="400"
           font-size="12px"
           transform="translate(724,250)"
           id="text186">-0.5</text>
      </g>
      <g
         id="g192">
        <text
           font-family="Arial, Arial_MSFontService, sans-serif"
           font-weight="400"
           font-size="12px"
           transform="translate(727.993,192)"
           id="text190">0.0</text>
      </g>
      <g
         id="g196">
        <text
           font-family="Arial, Arial_MSFontService, sans-serif"
           font-weight="400"
           font-size="12px"
           transform="translate(727.993,134)"
           id="text194">0.5</text>
      </g>
      <g
         id="g200">
        <text
           font-family="Arial, Arial_MSFontService, sans-serif"
           font-weight="400"
           font-size="12px"
           transform="translate(727.993,76)"
           id="text198">1.0</text>
      </g>
      <g
         id="g204">
        <text
           font-family="Arial, Arial_MSFontService, sans-serif"
           font-weight="400"
           font-size="12px"
           transform="translate(727.993,19)"
           id="text202">1.5</text>
      </g>
      <g
         id="g208">
        <text
           font-family="Arial, Arial_MSFontService, sans-serif"
           font-weight="400"
           font-size="12px"
           transform="translate(751.657,206)"
           id="text206">0</text>
      </g>
      <g
         id="g212">
        <text
           font-family="Arial, Arial_MSFontService, sans-serif"
           font-weight="400"
           font-size="12px"
           transform="translate(826.554,206)"
           id="text210">0.5</text>
      </g>
      <g
         id="g216">
        <text
           font-family="Arial, Arial_MSFontService, sans-serif"
           font-weight="400"
           font-size="12px"
           transform="translate(911.457,206)"
           id="text214">1</text>
      </g>
      <g
         id="g220">
        <text
           font-family="Arial, Arial_MSFontService, sans-serif"
           font-weight="400"
           font-size="12px"
           transform="translate(986.354,206)"
           id="text218">1.5</text>
      </g>
      <g
         id="g224">
        <text
           font-family="Arial, Arial_MSFontService, sans-serif"
           font-weight="400"
           font-size="12px"
           transform="translate(1071.26,206)"
           id="text222">2</text>
      </g>
      <g
         id="g228">
        <text
           font-family="Arial, Arial_MSFontService, sans-serif"
           font-weight="400"
           font-size="12px"
           transform="translate(1146.16,206)"
           id="text226">2.5</text>
      </g>
      <g
         id="g232">
        <text
           font-family="Arial, Arial_MSFontService, sans-serif"
           font-weight="400"
           font-size="12px"
           transform="translate(1231.06,206)"
           id="text230">3</text>
      </g>
      <g
         id="g236">
        <text
           font-family="Arial, Arial_MSFontService, sans-serif"
           font-weight="400"
           font-size="12px"
           transform="translate(1305.96,206)"
           id="text234">3.5</text>
      </g>
      <g
         id="g240">
        <text
           font-family="Arial, Arial_MSFontService, sans-serif"
           font-weight="400"
           font-size="12px"
           transform="translate(1390.86,206)"
           id="text238">4</text>
      </g>
      <g
         id="g244">
        <text
           font-family="Arial, Arial_MSFontService, sans-serif"
           font-weight="400"
           font-size="12px"
           transform="translate(1465.76,206)"
           id="text242">4.5</text>
      </g>
      <g
         id="g248">
        <text
           font-family="Arial, Arial_MSFontService, sans-serif"
           font-weight="400"
           font-size="12px"
           transform="translate(1550.66,206)"
           id="text246">5</text>
      </g>
      <g
         id="g252">
        <text
           font-family="Arial, Arial_MSFontService, sans-serif"
           font-weight="400"
           font-size="13px"
           transform="rotate(-90,493.3335,-224.3335)"
           id="text250">Deslocamento vertical (cm)</text>
      </g>
      <g
         id="g256">
        <text
           font-family="Arial, Arial_MSFontService, sans-serif"
           font-weight="400"
           font-size="13px"
           transform="translate(1124.12,377)"
           id="text254">Tempo (s)</text>
      </g>
      <g
         id="g260">
        <path
           d="m 1042,406 h 34"
           stroke="#4472c4"
           stroke-width="2"
           stroke-linecap="round"
           stroke-linejoin="round"
           stroke-miterlimit="10"
           fill="none"
           fill-rule="evenodd"
           id="path258" />
      </g>
      <g
         id="g264">
        <text
           font-family="Arial, Arial_MSFontService, sans-serif"
           font-weight="400"
           font-size="12px"
           transform="translate(1079.69,410)"
           id="text262">Autor</text>
      </g>
      <g
         id="g268">
        <path
           d="m 1124.5,406.5 h 34"
           stroke="#000000"
           stroke-width="1.33333"
           stroke-linecap="round"
           stroke-linejoin="round"
           stroke-miterlimit="10"
           stroke-dasharray="2.66667, 2.66667"
           fill="none"
           fill-rule="evenodd"
           id="path266" />
      </g>
      <g
         id="g272">
        <text
           font-family="Arial, Arial_MSFontService, sans-serif"
           font-weight="400"
           font-size="12px"
           transform="translate(1161.97,410)"
           id="text270">Wall (1999)</text>
      </g>
    </g>
  </g>
</svg>
