<?xml version="1.0" encoding="UTF-8" standalone="no"?>
<!-- Created with Inkscape (http://www.inkscape.org/) -->

<svg
   width="129.91042mm"
   height="100.0125mm"
   viewBox="0 0 129.91042 100.0125"
   version="1.1"
   id="svg2319"
   inkscape:version="1.2.1 (9c6d41e410, 2022-07-14)"
   sodipodi:docname="LES-drag.svg"
   xmlns:inkscape="http://www.inkscape.org/namespaces/inkscape"
   xmlns:sodipodi="http://sodipodi.sourceforge.net/DTD/sodipodi-0.dtd"
   xmlns="http://www.w3.org/2000/svg"
   xmlns:svg="http://www.w3.org/2000/svg">
  <sodipodi:namedview
     id="namedview2321"
     pagecolor="#ffffff"
     bordercolor="#000000"
     borderopacity="0.25"
     inkscape:showpageshadow="2"
     inkscape:pageopacity="0.0"
     inkscape:pagecheckerboard="0"
     inkscape:deskcolor="#d1d1d1"
     inkscape:document-units="mm"
     showgrid="false"
     inkscape:zoom="0.74564394"
     inkscape:cx="162.27584"
     inkscape:cy="226.64973"
     inkscape:window-width="1920"
     inkscape:window-height="1017"
     inkscape:window-x="1912"
     inkscape:window-y="-8"
     inkscape:window-maximized="1"
     inkscape:current-layer="layer1" />
  <defs
     id="defs2316">
    <clipPath
       id="clip0">
      <rect
         x="520"
         y="0"
         width="491"
         height="378"
         id="rect2440" />
    </clipPath>
    <clipPath
       id="clip1">
      <rect
         x="562"
         y="14"
         width="425"
         height="335"
         id="rect2443" />
    </clipPath>
    <clipPath
       id="clip2">
      <rect
         x="562"
         y="14"
         width="425"
         height="335"
         id="rect2446" />
    </clipPath>
    <clipPath
       id="clip3">
      <rect
         x="562"
         y="14"
         width="425"
         height="335"
         id="rect2449" />
    </clipPath>
    <clipPath
       id="clip4">
      <rect
         x="782"
         y="146"
         width="179"
         height="165"
         id="rect2452" />
    </clipPath>
    <clipPath
       id="clip5">
      <rect
         x="782"
         y="146"
         width="179"
         height="165"
         id="rect2455" />
    </clipPath>
    <clipPath
       id="clip6">
      <rect
         x="782"
         y="146"
         width="179"
         height="165"
         id="rect2458" />
    </clipPath>
  </defs>
  <g
     inkscape:label="Camada 1"
     inkscape:groupmode="layer"
     id="layer1"
     transform="translate(-38.302857,-88.735686)">
    <g
       clip-path="url(#clip0)"
       transform="matrix(0.26458333,0,0,0.26458333,-99.280475,88.735686)"
       id="g2647">
      <rect
         x="520"
         y="0"
         width="491"
         height="378"
         fill="#ffffff"
         id="rect2463" />
      <g
         id="g2467">
        <path
           d="m 562.5,300.5 h 424 m -424,-47 h 424 m -424,-48 h 424 m -424,-48 h 424 m -424,-47 h 424 m -424,-47.9999 h 424 m -424,-48 h 424"
           stroke="#d9d9d9"
           stroke-linejoin="round"
           stroke-miterlimit="10"
           fill="none"
           id="path2465" />
      </g>
      <g
         id="g2471">
        <path
           d="M 668.5,14.5001 V 348.5 M 774.5,14.5001 V 348.5 M 880.5,14.5001 V 348.5 M 986.5,14.5001 V 348.5"
           stroke="#d9d9d9"
           stroke-linejoin="round"
           stroke-miterlimit="10"
           fill="none"
           id="path2469" />
      </g>
      <g
         id="g2475">
        <rect
           x="562.5"
           y="14.5001"
           width="424"
           height="334"
           stroke="#000000"
           stroke-linejoin="round"
           stroke-miterlimit="10"
           fill="none"
           id="rect2473" />
      </g>
      <g
         id="g2479">
        <path
           d="M 0,0 1.04987e-4,334"
           stroke="#000000"
           stroke-linejoin="round"
           stroke-miterlimit="10"
           fill="none"
           fill-rule="evenodd"
           transform="matrix(1,0,0,-1,562.5,348.5)"
           id="path2477" />
      </g>
      <g
         id="g2483">
        <path
           d="m 562.5,348.5 h 3 m -3,-9 h 3 m -3,-10 h 3 m -3,-9 h 3 m -3,-10 h 3 m -3,-10 h 3 m -3,-9 h 3 m -3,-10 h 3 m -3,-9 h 3 m -3,-10 h 3 m -3,-9 h 3 m -3,-10 h 3 m -3,-9 h 3 m -3,-10 h 3 m -3,-9 h 3 m -3,-10 h 3 m -3,-10 h 3 m -3,-9 h 3 m -3,-10 h 3 m -3,-9 h 3 m -3,-10 h 3 m -3,-9 h 3 m -3,-10 h 3 m -3,-9 h 3 m -3,-10 h 3 m -3,-9 h 3 m -3,-10 h 3 m -3,-8.9999 h 3 m -3,-10 h 3 m -3,-10 h 3 m -3,-9 h 3 m -3,-10 h 3 m -3,-9 h 3 m -3,-10 h 3 m -3,-9 h 3 m -3,-10 h 3 m -7,333.9999 h 7 m -7,-48 h 7 m -7,-47 h 7 m -7,-48 h 7 m -7,-48 h 7 m -7,-47 h 7 m -7,-47.9999 h 7 m -7,-48 h 7"
           stroke="#000000"
           stroke-linejoin="round"
           stroke-miterlimit="10"
           fill="none"
           id="path2481" />
      </g>
      <g
         id="g2487">
        <path
           d="m 562.5,348.5 h 424"
           stroke="#000000"
           stroke-linejoin="round"
           stroke-miterlimit="10"
           fill="none"
           fill-rule="evenodd"
           id="path2485" />
      </g>
      <g
         id="g2491">
        <path
           d="m 562.5,345.5 v 3 m 21,-3 v 3 m 21,-3 v 3 m 21,-3 v 3 m 22,-3 v 3 m 21,-3 v 3 m 21,-3 v 3 m 21,-3 v 3 m 22,-3 v 3 m 21,-3 v 3 m 21,-3 v 3 m 21,-3 v 3 m 21,-3 v 3 m 22,-3 v 3 m 21,-3 v 3 m 21,-3 v 3 m 21,-3 v 3 m 22,-3 v 3 m 21,-3 v 3 m 21,-3 v 3 m 21,-3 v 3 m -424,-3 v 7 m 106,-7 v 7 m 106,-7 v 7 m 106,-7 v 7 m 106,-7 v 7"
           stroke="#000000"
           stroke-linejoin="round"
           stroke-miterlimit="10"
           fill="none"
           id="path2489" />
      </g>
      <g
         clip-path="url(#clip1)"
         id="g2495">
        <path
           d="m 562,-23029 1,28451 V 11.998 -217 v 68.998 19 l 1,2.002 v -6 -9.002 -9 -7.998 l 1,-6 v -4 -1.002 1.002 l 1,4 v 5 5.998 7.002 8.998 l 1,8.002 v 9 9 8.998 V -93 l 1,8.998 v 8.002 9 8 8 l 1,8 v 8 7 7 l 1,6.998 V -8 v 6 6 6 l 1,6 v 5 5 4.998 V 36 l 1,4.998 V 45 v 4.998 4 L 573,58 v 4 3.998 4 V 74 l 1,4 v 3 4 3 3 l 1,3 v 3 3 3 3 l 1,3 v 3 1.998 3.002 l 1,2 v 3 1.998 3 2.002 l 1,2 v 2.998 2.002 2 1.998 l 1,2.002 v 2 1.998 2.002 l 1,1.998 v 1.002 1.998 2.002 2 l 1,1 v 2 1.998 1.002 2 l 1,0.998 v 2.002 0.998 2.002 0.998 l 1,2.002 v 0.998 1.002 1.998 l 1,1 v 1.002 1 2 1 l 1,0.998 v 1.002 1 0.998 2.002 l 1,0.998 v 1.002 1 0.998 l 1,1.002 v 1 1 0.998 1.002 l 1,1 v 0 0.998 1.002 1 l 1,0.998 v 1.002 1 0.998 0 l 1,1.002 v 1 0.998 0 l 1,1 v 1.002 1 0 0.998 l 1,1.002 v 0 1 0.998 0 l 1,1.002 v 1 0 0.998 h 1 v 1.002 1 0 0.998 h 1 v 1.002 0 1 0.998 h 1 v 1.002 0 1 0 l 1,1 v 0 0.998 0 h 1 v 1.002 0 1 0 l 1,0.998 v 0 0 1.002 0 l 1,1 v 0 0 0.998 h 1 v 1.002 0 0 1 h 1 v 0 0.998 0 1.002 h 1 v 0 1 0 0 h 1 v 0.998 0 0 l 1,1 v 0 0 0 1.002 h 1 v 0 1 0 0 h 1 v 0 0.998 0 h 1 v 0 1.002 0 0 h 1 v 0 1 0 0 h 1 v 0 0.998 0 h 1 v 0 0 0 0 l 1,1.002 v 0 0 0 0 h 1 v 0 0 1 0 h 1 v 0 0 0 h 1 v 0 0 0 0 h 1 v 0 0 0 0 h 1 v 0 0 0 h 1 v 0 -1 0 0 h 1 v 0 0 0 0 h 1 v 0 -1.002 0 0 h 1 v 0 -0.998 0 h 1 v 0 -1 0 0 l 1,-1.002 v 0 0 -0.998 0 h 1 v -1 0 -1.002 h 1 v 0 -1 0 V 241 h 1 v -1 0 -1.002 0 L 627,238 v 0 -1 0 -1.002 h 1 V 235 v 0 -1 h 1 v -1.002 0 -0.998 -1 h 1 v -1.002 -0.998 -1 0 l 1,-1 V 225.998 225 224 h 1 V 222.998 222 221 219.998 L 633,219 v -1 -1.002 0 V 216 l 1,-1 v -1.002 -0.998 -1 0 l 1,-1.002 v -1 -0.998 -1 h 1 v -1.002 -0.998 -1 -1.002 h 1 V 203 202 200.998 200 l 1,-1 V 197.998 197 196 l 1,-2.002 V 193 192 190.998 190 l 1,-1 v -2 -1 -1.002 V 184 l 1,-1 v -1.002 -0.998 -1 -1.002 l 1,-1 V 177 v 0 -1 l 1,-1.002 V 174 v 0 -1 -1.002 h 1 V 171 170 168.998 168 h 1 V 167 165.998 164 l 1,-1 v -1.002 -0.998 -1 -2 l 1,-1 V 155.998 154 152.998 152 l 1,-1 v -1.002 -0.998 -1 -1.002 l 1,-1 V 145 v 0 -1 h 1 v -1.002 0 0 V 142 h 1 v -1 0 -1.002 0 L 652,139 V 138 136.998 136 l 1,-1 V 133.998 133 131 129.998 L 654,129 v -2.002 -0.998 -1 -2 l 1,-1 v -1.002 -0.998 0 -1 l 1,-1.002 v 0 0 0 L 657,117 v 0 0 0 0.998 L 658,117 v 0 0 0 -1 h 1 v -1.002 -1 V 113 l 1,-1 V 110.998 110 107.998 107 l 1,-2.002 V 104 101.998 101 100 l 1,-1 V 97.998 97 97 96 h 1 v 0 0 1 h 1 v 0 0.998 0 0 L 665,99 v 0 0 -1.002 0 L 666,97 V 96 94.998 94 l 1,-1 v -2 -1 -2 -1 l 1,-2 V 84 81.998 81 80 h 1 v -1.002 0 0 0 h 1 V 80 v 0 1 l 1,0.998 v 1 0 1.002 0 l 1,1 v 0 -1 0 -1.002 l 1,-1 V 81 80 78 l 1,-1 V 75 72.998 72 69.998 L 675,69 v -1 -2.002 0 V 65 h 1 v 0 0 0.998 0 L 677,67 v 1 1 0.998 L 678,71 v 1 0.998 0 V 74 h 1 V 74 72.998 72 71 l 1,-1.002 V 68 67 65 l 1,-2.002 V 61 59.998 58 56.998 L 682,56 v -1 0 -1.002 0 L 683,55 v 0 1 0.998 V 59 l 1,0.998 V 61 v 1 2 l 1,1 v 0 0.998 0 0 h 1 V 65 64 62.998 61 l 1,-2 V 58 56 53.998 L 688,52 V 50.998 49 48 46.998 h 1 V 46 v 0.998 0 V 48 l 1,1 v 0.998 1 V 53 53.998 L 691,56 V 56.998 58 59 l 1,0.998 v 0 0 0 V 59 l 1,-1 V 56.998 55 53.998 52 l 1,-2.002 V 48 46 45 l 1,-2 v -1 -1.002 0 0 h 1 v 0 1.002 1 2 l 1,1 v 2 1.998 1 V 53 l 1,0.998 V 55 v 1 0 h 1 V 56 55 53.998 53 l 1,-1 V 49.998 48 46 43.998 L 701,43 V 40.998 39 37.998 h 1 V 37 v 0 0 0.998 L 703,39 v 1 0.998 2.002 2 l 1,1 v 2 1 1.998 V 52 l 1,1 v 0 0 0 h 1 V 52 49.998 49 46.998 L 707,45 V 43 40.998 40 37.998 L 708,37 v -2 0 -1.002 h 1 v 0 1.002 1 1 l 1,2 V 40.998 42 43.998 46 l 1,0.998 V 49 v 0.998 1 0 L 712,52 v -1.002 0 -1 L 713,48 V 46.998 45 43 40.998 L 714,39 V 37.998 36 35 33 h 1 v -1 0 1 h 1 v 0.998 2.002 1 2 l 1,1.998 V 43 43.998 46 46.998 L 718,49 v 0 0.998 0 0 L 719,49 V 48 46.998 45 l 1,-1.002 V 42 40 37.998 36 l 1,-1 v -2 -1 -1.002 0 h 1 v 0 1.002 1 l 1,2 v 1 1.998 2.002 2 l 1,1.998 V 45 46.998 48 49 h 1 v 0 0 -1 -1.002 L 726,46 V 45 43 40.998 L 727,39 V 37 35 33.998 32 l 1,-1.002 V 30 v 0 0 0.998 h 1 V 33 33.998 36 l 1,1 v 2 1.998 2.002 2 l 1,1 v 0.998 1.002 0 1 l 1,-1 V 48 46.998 45 43.998 L 733,42 V 40 37.998 36 l 1,-2.002 V 33 30.998 30 30 l 1,-1 v 1 0 0.998 V 32 l 1,1.998 V 35 v 2 2 l 1,1.998 V 43 43.998 46 46.998 L 738,48 v 0 0 0 -1.002 L 739,46 V 45 43 40.998 39 l 1,-2 V 35 33.998 32 l 1,-1.002 V 30 v -1 0 0 l 1,1 v 0.998 1.002 1 2 l 1,2 V 39 40.998 42 l 1,1.998 V 45 v 1.998 0 V 48 h 1 v -1.002 0 V 46 43.998 L 746,43 V 40.998 39 37 35 l 1,-2 v -1 -2 0 l 1,-1 v 0 0 1 0.998 L 749,32 v 1 2 2 2 l 1,1.998 V 43 43.998 46 l 1,0.998 v 0 V 48 48 46.998 L 752,46 V 45 43.998 42 40 l 1,-2.002 V 36 33.998 33 30.998 L 754,30 v -1 0 -1.002 L 755,29 v 0 1 2 1 l 1,2 v 2 2 1.998 V 42 l 1,1.998 V 45 46 46.998 L 758,48 v -1.002 0 V 46 45 l 1,-1.002 V 42 40 37.998 36 l 1,-2.002 V 33 30.998 30 29 h 1 v 0 0 0 l 1,1.998 V 32 v 1 2 2 l 1,2 V 40.998 43 43.998 46 l 1,0.998 v 0 0 0 h 1 V 46 45 43 40.998 L 766,40 V 37.998 36 33.998 32 l 1,-1.002 V 29 v 0 -1.002 0 L 768,29 v 0 1 2 l 1,1 v 2 2 2 1.998 L 770,43 v 0.998 2.002 0 0.998 h 1 v 0 0 V 46 l 1,-1 V 43 40.998 39 37 l 1,-1 V 33.998 32 30.998 30 l 1,-1 v -1.002 0 V 29 l 1,1 V 30.998 32 33.998 36 l 1,1 V 39 40.998 43 43.998 L 777,46 v 0.998 0 0 0 h 1 V 46 43.998 43 l 1,-2.002 V 39 37 35 33 l 1,-1 v -2 -1 -1.002 0 h 1 V 29 29 30.998 L 782,32 v 1.998 1.002 2 2 l 1,1.998 V 43 43.998 46 46.998 h 1 v 0 0 V 46 45 l 1,-1.002 V 43 40.998 39 l 1,-2 v -2 -2 -1 -2 l 1,-1 v 0 -1.002 0 V 29 l 1,1 V 30.998 32 33.998 L 789,36 v 1.998 2.002 2 1 l 1,2 v 1 0.998 0 0 h 1 V 46 45 43.998 42 l 1,-2 v -1 -2 -2 l 1,-2 V 30.998 30 29 27.998 h 1 v 0 1.002 1 0.998 L 795,32 V 33.998 36 37.998 L 796,40 v 2 1 2 1 l 1,0.998 v 0 0 0 V 46 l 1,-1 V 43.998 42 40 37.998 L 799,36 V 33.998 33 30.998 L 800,30 v -1 -1.002 0 0 L 801,29 V 30 30.998 33 33.998 L 802,36 V 37.998 40 42 l 1,1.998 V 45 v 1 0.998 0 h 1 v 0 V 46 45 43 l 1,-1 V 40 37.998 36 33.998 L 806,32 V 30.998 30 29 l 1,-1.002 v 0 0 1.002 1 l 1,0.998 V 33 33.998 36 37.998 L 809,40 V 42 43.998 45 l 1,1 v 0.998 0 0 0 L 811,46 v -1 -2 -1 -2 l 1,-2.002 V 36 33.998 32 30.998 L 813,30 v -1 -1.002 0 h 1 V 29 30 30.998 33 l 1,2 v 2 2 1.998 V 42 l 1,1.998 V 45 v 1 0.998 h 1 v 0 0 V 46 45 l 1,-2 V 40.998 39 37.998 36 l 1,-2.002 V 32 30.998 29 27.998 h 1 v 0 0 V 29 l 1,1 v 0.998 2.002 2 2 l 1,2 V 40.998 42 43.998 45 l 1,1 v 0.998 0 0 h 1 V 46 43.998 43 40.998 L 825,39 V 37 35 33.998 32 l 1,-1.002 V 29 v 0 -1.002 0 L 827,29 v 0 1 2 l 1,1 v 2 2 2 1.998 L 829,43 v 0.998 2.002 0 0.998 h 1 v 0 V 46 45 l 1,-1.002 V 43 40.998 39 37 l 1,-2 v -2 -1 -2 -1 l 1,-1.002 v 0 0 0 V 29 l 1,1 v 2 1 2 l 1,2 V 39 40.998 43 43.998 L 836,46 v 0 0.998 0 0 L 837,46 V 45 43.998 42 l 1,-1.002 V 39 37 35 33 l 1,-1 v -2 -1 -1.002 0 h 1 V 29 30 30.998 32 l 1,1.998 V 36 37.998 40 l 1,0.998 V 43 v 2 1 0.998 h 1 v 0 0 V 46 45 l 1,-1.002 V 42 40 39 l 1,-2 V 35 33 30.998 30 l 1,-1 v -1.002 0 0 V 29 h 1 V 30.998 32 33.998 36 l 1,1.998 V 40 40.998 43 l 1,2 v 1 0.998 0 0 h 1 V 46 45 43.998 42 l 1,-2 V 37.998 36 35 l 1,-2 V 30.998 30 29 27.998 h 1 v 0 1.002 1 0.998 L 854,33 V 33.998 36 37.998 40 l 1,2 v 1 2 1 l 1,0.998 v 0 0 0 V 46 l 1,-1 V 43.998 42 40 37.998 L 858,36 V 33.998 32 30.998 L 859,30 v -1 -1.002 0 0 L 860,29 V 30 30.998 33 33.998 L 861,36 V 37.998 40 42 43.998 L 862,45 v 1 0.998 0 h 1 v 0 V 46 45 43 l 1,-1 V 40 37.998 36 33.998 L 865,32 V 30.998 30 29 l 1,-1.002 v 0 0 1.002 1 l 1,0.998 V 33 v 2 2 2 l 1,1 v 2 1.998 1.002 1 l 1,0.998 v 0 0 0 L 870,46 V 45 43 40.998 40 l 1,-2.002 V 36 33.998 32 30.998 L 872,29 v 0 -1.002 0 h 1 V 29 30 30.998 33 l 1,2 v 2 2 1.998 V 42 l 1,1.998 V 45 v 1 0.998 0 h 1 v 0 V 46 43.998 L 877,43 V 40.998 39 37 36 l 1,-2.002 V 32 30.998 29 29 l 1,-1.002 v 0 1.002 0 l 1,1 v 2 1 2 2 l 1,2 V 40.998 43 43.998 45 l 1,1 v 0.998 0 0 0 L 883,46 V 43.998 43 40.998 L 884,39 v -2 -2 -2 -1 l 1,-2 v -1 -1.002 0 0 h 1 V 29 v 1 2 l 1,1 v 2 2 2 1.998 L 888,43 v 0.998 2.002 0 0.998 h 1 v 0 V 46 45 43.998 L 890,43 V 40.998 39 37 l 1,-2 v -2 -1 -2 -1 h 1 v -1.002 0 1.002 1 l 1,0.998 V 32 33.998 36 l 1,1.998 V 39 40.998 43 45 l 1,1 v 0.998 0 0 0 L 896,46 V 45 43.998 42 40.998 L 897,39 v -2 -2 -2 l 1,-2.002 V 30 v -1 -1.002 0 h 1 V 29 29 30.998 32 l 1,1.998 V 36 37.998 40 l 1,0.998 V 43 v 2 1 0.998 h 1 v 0 0 V 46 45 l 1,-1.002 V 42 40 37.998 37 l 1,-2 V 33 30.998 30 l 1,-1 v -1.002 0 0 V 29 l 1,1 V 30.998 32 33.998 36 l 1,1.998 V 40 v 2 1 l 1,2 v 1 0.998 0 0 h 1 V 46 45 43.998 42 l 1,-2 V 37.998 36 33.998 33 l 1,-2.002 V 30 29 27.998 h 1 v 0 1.002 1 0.998 L 913,33 V 33.998 36 37.998 40 l 1,2 v 1 2 1 l 1,0.998 v 0 0 0 V 46 l 1,-1 V 43 42 40 37.998 L 917,36 V 33.998 33 30.998 30 l 1,-1 v -1.002 0 0 L 919,29 v 1 0.998 2.002 2 l 1,2 V 37.998 40 42 43.998 L 921,45 v 1 0.998 0 h 1 v 0 V 46 45 43 l 1,-1 V 40 37.998 36 33.998 L 924,32 V 30.998 29 29 27.998 h 1 v 0 1.002 1 l 1,0.998 V 33 v 2 2 2 l 1,1 v 2 1.998 1.002 1 l 1,0.998 v 0 0 0 L 929,46 V 45 43 40.998 40 l 1,-2.002 V 36 33.998 32 30.998 L 931,30 v -1 -1.002 0 L 932,29 v 0 1 2 1 l 1,2 v 2 2 1.998 V 43 l 1,0.998 V 45 v 1 0.998 0 h 1 v 0 V 46 43.998 L 936,43 V 40.998 39 37 35 l 1,-2 v -1 -2 -1 -1.002 h 1 v 0 0 V 29 l 1,1 v 2 1 2 2 l 1,2 V 40.998 43 43.998 45 l 1,1 v 0.998 0 0 V 46 h 1 V 43.998 43 40.998 L 943,39 v -2 -2 -2 -1 l 1,-2 v -1 0 -1.002 0 L 945,29 V 29 30.998 32 l 1,1.998 V 36 v 1 2 1.998 L 947,43 v 0.998 2.002 0.998 0 h 1 v 0 V 46 45 43.998 L 949,42 V 40.998 39 37 l 1,-2 V 33 30.998 30 29 l 1,-1.002 v 0 0 1.002 0 l 1,1.998 V 32 33.998 36 l 1,1.998 V 39 40.998 43 45 l 1,1 v 0.998 0 0 0 L 955,46 V 45 43.998 42 40 l 1,-1 v -2 -2 -2 l 1,-2.002 V 30 v -1 -1.002 0 h 1 V 29 30 30.998 32 l 1,1.998 V 36 37.998 40 l 1,2 v 1 2 1 0.998 h 1 v 0 0 V 46 45 l 1,-1.002 V 42 40 37.998 36 l 1,-2.002 V 33 30.998 30 l 1,-1 v -1.002 0 0 V 29 l 1,1 V 30.998 32 33.998 36 l 1,1.998 V 40 v 2 1 l 1,2 v 1 0.998 0 0 h 1 V 46 45 43.998 42 l 1,-2 V 37.998 36 33.998 33 l 1,-2.002 V 30 29 27.998 h 1 v 0 1.002 1 0.998 L 972,33 v 2 1 1.998 V 40 l 1,2 V 43.998 45 46 l 1,0.998 v 0 0 0 V 46 l 1,-1 V 43 42 40 37.998 L 976,36 V 33.998 32 30.998 30 l 1,-1 v -1.002 0 0 L 978,29 v 1 0.998 2.002 2 l 1,2 V 37.998 40 42 43.998 L 980,45 v 1 0.998 0 h 1 v 0 V 46 45 43 l 1,-2.002 V 40 37.998 36 33.998 L 983,32 V 30.998 30 29 27.998 h 1 v 0 1.002 1 l 1,2 v 1 2 2 2 l 1,1.998 V 42 43.998 45 46"
           stroke="#a5a5a5"
           stroke-width="2"
           stroke-linecap="round"
           stroke-linejoin="round"
           stroke-miterlimit="10"
           fill="none"
           id="path2493" />
      </g>
      <g
         clip-path="url(#clip2)"
         id="g2499">
        <path
           d="m 562,-23287 1,28841 v -5679 -54.002 40.002 17 l 1,2 v -7 -10.002 -10 -9 l 1,-7 v -4.998 -2 0.998 l 1,3 v 5.002 6 7.998 8.002 l 1,9 v 8.998 10 9 9.002 l 1,9.998 v 9.002 8 8.998 8.002 l 1,7.998 v 8.002 7 6.998 l 1,7 V -6.00195 1 6.99805 12.998 L 571,18 V 24 28.998 34 38.998 L 572,44 V 48.998 53 57 l 1,5 v 4 4 3.998 3 l 1,4 V 85 v 3 3 4 l 1,3 v 3 3 3 3 l 1,2.998 v 3 2.002 3 l 1,2 v 3 1.998 3.002 2 l 1,1.998 v 3 2.002 2 1.998 l 1,2.002 v 1.998 2.002 2 l 1,1.998 v 2.002 2 1.998 1.002 l 1,2 v 2 1 2 1 l 1,2 v 1.998 1.002 1.998 1 l 1,1.002 v 1.998 1.002 1 l 1,2 v 1 0.998 2.002 0.998 l 1,1.002 v 1 0.998 2.002 1 l 1,0.998 v 1.002 1 0.998 l 1,1.002 v 1 0.998 1.002 1 l 1,0.998 v 1.002 1 0.998 1 h 1 v 1.002 1 0.998 1.002 l 1,1 v 0 0.998 1.002 l 1,1 v 0 0.998 1.002 1 h 1 v 0.998 1.002 0 1 l 1,0.998 v 0 1.002 1 h 1 v 1 0.998 0 1.002 h 1 v 1 0 0.998 0 l 1,1.002 v 1 0 0.998 0 l 1,1.002 v 0 1 0 l 1,0.998 v 0 0 1.002 0 l 1,1 v 0 0.998 0 1 h 1 v 0 1.002 0 l 1,1 v 0 0 0.998 0 l 1,1.002 v 0 0 1 0 l 1,0.998 v 0 0 1.002 0 h 1 v 1 0 0.998 h 1 v 0 1.002 0 0 l 1,1 v 0 0 0.998 0 h 1 v 1.002 0 0 h 1 v 1 0 0 0.998 h 1 v 0 1.002 0 0 h 1 v 1 0 0 l 1,1 v 0 0 0 0.998 h 1 v 0 0 1.002 0 h 1 v 0 1 0 0 h 1 v 0.998 0 0 h 1 v 1.002 0 0 0 h 1 v 1 0 0 0 l 1,0.998 v 0 0 0 h 1 v 1.002 0 0 0 h 1 v 1 0 0 0 h 1 v 0.998 0 0 0 h 1 v 0 1.002 0 h 1 v 0 0 1 0 h 1 v 0 0 0 0.998 h 1 v 0 0 0 h 1 v 1 0 0 0 h 1 v 0 0 1.002 0 h 1 v 0 0 0 0 l 1,1 v 0 0 0 h 1 v 0 0 0 0.998 h 1 v 0 0 0 0 h 1 v 0 0 1.002 h 1 v 0 0 0 0 h 1 v 0 0 0 1 h 1 v 0 0 0 0 h 1 v 0 0 0 h 1 v 0 0.998 0 0 h 1 v 0 0 0 0 h 1 v 0 0 0 h 1 v 0 0 0 0 h 1 v 0 0 1.002 0 h 1 v 0 0 0 0 h 1 v 0 0 0 h 1 v 0 0 0 -1.002 h 1 v 0 0 0 0 h 1 v 0 0 0 h 1 v 0 0 0 0 h 1 v 0 0 0 V 278 h 1 v 0 0 0 0 h 1 v 0 -1 0 h 1 v 0 0 0 -1.002 h 1 v 0 0 0 V 275 h 1 v 0 0 0 l 1,-1 v 0 0 0 -1.002 h 1 v 0 0 -1 0 h 1 V 271 v 0 0 -1 h 1 v 0 -1.002 0 h 1 V 268 v 0 -1 0 l 1,-1.002 v 0 0 -0.998 0 l 1,-1 v 0 -1.002 0 L 660,262 v 0 -1 -1.002 0 L 661,259 v 0 -1 0 -1 h 1 v -1.002 -0.998 0 -1 h 1 v -1.002 -0.998 0 l 1,-1 v 0 -1.002 -0.998 0 l 1,-1 v -1.002 -0.998 0 -1 l 1,-1.002 V 243 v 0 -1 l 1,-1.002 v -1 -0.998 0 -1 l 1,-1.002 V 236 v -1 -1.002 0 L 669,233 v -1 -1.002 -0.998 -1 h 1 V 227.998 227 226 l 1,-1 v 0 -1.002 -0.998 -1 l 1,-1.002 V 220 v 0 -1 -1.002 L 673,217 V 216 214.998 214 l 1,-1 v -1.002 -0.998 -1 -1.002 l 1,-1 V 207 206 204.998 204 l 1,-1 V 201.998 201 200 198.998 L 677,198 V 197 195.998 195 h 1 v -1 -1 -1.002 V 191 h 1 v -1 -1.002 -0.998 -1 h 1 V 185.998 185 184 l 1,-1.002 V 182 181 179.998 179 l 1,-1 v -1.002 -1 -0.998 -1 l 1,-1.002 V 172 169.998 169 168 l 1,-1.002 V 166 v -1 0 l 1,-1.002 V 163 v -1 0 -1 h 1 v -1.002 -0.998 0 -1 h 1 v -1.002 -0.998 0 l 1,-1 V 153.998 153 152 150.998 L 689,150 v -1 -2 -1 -1.002 l 1,-1 V 142 140.998 140 139 l 1,-1.002 V 137 v -1 0 l 1,-1.002 v 0 -0.998 0 -1 h 1 v 0 0 -1.002 0 h 1 V 131 v 0 -1 l 1,-1 v 0 -1.002 -0.998 -1 l 1,-2 V 123 121.998 120 118.998 L 697,118 v -2.002 -0.998 -1 -1.002 l 1,-1 v 0 -0.998 0 l 1,-1 v 0 0 0 0 h 1 v 0 1 -1 0 h 1 v 0 -1.002 0 L 702,108 V 107 105.998 104 102.998 L 703,101 V 99.998 98 97 95 l 1,-1 V 92.998 92 91 89.998 h 1 v 0 0 0 h 1 v 0 1.002 0 1 h 1 v 0 0.998 0 0 L 708,92 v 0 -1 -1.002 L 709,89 V 88 86.998 85 83 l 1,-1 V 79.998 79 76.998 76 l 1,-1 v -1.002 0 V 73 73 h 1 v 0.998 0 V 75 l 1,1 v 0 0.998 1.002 1 h 1 V 79 79.998 79 79 l 1,-1 V 76.998 76 75 l 1,-2 V 70.998 70 67.998 66 l 1,-1 V 63 62 60.998 60 h 1 v -1 0 1 0 l 1,0.998 V 62 v 1 2 l 1,1 v 1 0.998 1.002 0 h 1 V 69 69 67.998 67 l 1,-1 V 65 63 60.998 L 723,59 V 57.998 56 54 53 l 1,-1.002 V 51 v -1 0 0 h 1 v 1 0.998 1.002 1 l 1,0.998 V 57 57.998 59 l 1,1 v 0.998 1.002 0 0 h 1 V 60.998 60 57.998 57 l 1,-2.002 V 53 51 48.998 L 730,47 v -1 -2 -1 -1.002 h 1 v 0 0 1.002 1 l 1,0.998 V 46 v 1.998 1 V 51 l 1,0.998 V 54 54.998 56 h 1 v 1 0 -1 -1.002 L 735,54 V 53 51 48.998 47 l 1,-2.002 V 43 41.998 40 l 1,-1.002 V 38 v -1 0 0 l 1,1 v 0 2 1 2 l 1,1 v 2 1.998 1 V 51 l 1,0.998 v 0 1.002 0 h 1 V 51.998 51 50 47.998 L 742,46 V 44 41.998 40 38 l 1,-1 v -2 -1 -1 h 1 v 0 0 1 1 l 1,0.998 V 38 v 2 1 2 l 1,1.998 V 47 v 0.998 1 V 50 h 1 v 0 0 -1.002 l 1,-1 V 46 44.998 43 41 l 1,-2.002 V 37 35 34 31.998 L 750,31 v 0 0 0 h 1 v 0.998 2.002 1 2 l 1,1.998 V 41 41.998 44 46 l 1,1 v 0.998 0 1 -1 h 1 V 47 44.998 44 l 1,-2.002 V 40 38 35.998 34 l 1,-2.002 V 31 v -2.002 0 V 28 h 1 v 0.998 0 V 31 l 1,0.998 V 34 35.998 38 40 l 1,1 v 2 1.998 1.002 1 h 1 v 0 0 -1 -1.002 L 761,43 V 41.998 40 38 l 1,-2.002 V 34 31.998 30 28.998 L 763,28 v 0 -1 1 0 l 1,0.998 V 31 31.998 34 l 1,1.998 V 38 40 41.998 43 l 1,1.998 V 46 v 0 0 0 h 1 v -2 -1 -2 -1 l 1,-2 v -3 -2 -2 l 1,-1 v -2 -1 -1.002 0 h 1 V 27 27 28.998 30 l 1,1.998 V 34 35.998 38 l 1,2 V 41.998 43 44 44.998 L 773,46 V 46 44.998 44 43 l 1,-1.002 V 40 38 35.998 L 775,34 V 31.998 30 28.998 28 l 1,-1 v -1.002 0 0 V 27 l 1,1 v 0.998 2.002 2 2 l 1,2 V 38.998 41 41.998 L 779,44 v 0.998 0 0 0 L 780,44 V 43 41.998 40 38 l 1,-2.002 V 34 31.998 30 l 1,-1.002 V 27 25.998 25 25 h 1 v 0.998 0 V 28 28.998 L 784,31 v 2 2 2 1.998 L 785,41 V 41.998 44 44 l 1,0.998 v 0 V 44 44 41.998 L 787,41 V 38.998 37 35 33 l 1,-2 v -1 -2 -1 l 1,-1.002 V 25 v 0 0.998 0 L 790,27 v 1.998 2.002 2 2 l 1,2 V 38.998 40 41.998 43 l 1,1 v 0.998 0 0 L 793,44 v -1 -2 -1 -2 l 1,-2.002 V 34 31.998 30 28 l 1,-1 v -2 0 -1 l 1,1 V 25 25.998 27 28.998 L 797,31 v 2 2 2 1.998 L 798,41 v 0.998 1.002 1 0.998 h 1 V 44 43 41.998 L 800,40 V 38.998 37 35 33 l 1,-2 V 28.998 27 25.998 25 h 1 v 0 0 0.998 L 803,27 V 28.998 30 31.998 34 l 1,1.998 V 38 40 41.998 43 l 1,1 V 44 44.998 44 44 l 1,-2.002 V 41 38.998 37 l 1,-2 V 33 31 28.998 28 l 1,-2.002 V 25 v -1 0 0 l 1,1 V 25.998 27 28.998 L 810,31 v 2 2 2 1.998 L 811,41 v 0.998 1.002 1 0 h 1 V 44 43 41.998 40 l 1,-2 V 35.998 34 31.998 L 814,30 V 28.998 27 25.998 25 h 1 v 0 0 0.998 V 27 l 1,1.998 V 31 31.998 34 l 1,3 v 1 2 1.998 V 43 l 1,1 v 0 0 0 -1 l 1,-1.002 V 41 38.998 37 35 l 1,-2 V 31 28.998 27 l 1,-1.002 V 25 v -1 0 0 l 1,1 V 25.998 27 28.998 31 l 1,2 v 2 2 1.998 L 824,41 v 0.998 1.002 1 0 h 1 v 0 -1 -2 -1 l 1,-2 V 35.998 34 31.998 30 l 1,-2 V 27 25.998 25 h 1 v 0 0 0.998 V 27 l 1,1.998 V 31 v 2 2 2 l 1,1.998 V 40 41.998 43 l 1,1 v 0 0 0 -1 l 1,-1.002 V 40 38.998 37 35 l 1,-2 V 31 28.998 27 25.998 L 834,25 v -1 0 0 l 1,1 V 25.998 27 28.998 31 l 1,2 v 2 2 1.998 V 41 l 1,0.998 V 43 v 1 0 h 1 v 0 -1 -2 -1 l 1,-2 V 35.998 34 31.998 30 l 1,-2 V 27 25.998 25 25 h 1 V 25 25.998 27 l 1,1.998 V 31 v 2 2 2 l 1,1.998 V 40 41.998 43 44 h 1 v 0 0 -1 l 1,-1.002 V 40 38 35.998 34 l 1,-2.002 V 30 28 27 25.998 L 847,25 v -1 0 0 1 l 1,0.998 V 28 28.998 31 l 1,2 v 2 2 1.998 V 41 l 1,0.998 V 43 v 1 0 0 l 1,-1 V 41.998 41 38.998 L 852,38 V 35.998 34 31.998 30 l 1,-2 V 27 25.998 25 25 h 1 V 25 25.998 28 28.998 L 855,31 v 2 2 2 l 1,1.998 V 41 41.998 43 44 h 1 v 0 0 -1 -1.002 L 858,40 V 38 35.998 34 l 1,-2.002 V 30 28 27 25 h 1 v -1 0 0 1 l 1,0.998 V 28 v 2 1 3 l 1,1.998 V 38 38.998 41 l 1,0.998 V 43 v 1 0 0 l 1,-1 V 41.998 41 38.998 37 l 1,-2 v -2 -2 -1 l 1,-2 V 25.998 25 v 0 0 h 1 V 25 25.998 28 28.998 L 868,31 v 2 2 2 1.998 L 869,41 V 41.998 43 44 h 1 v 0 0 -1 -2 l 1,-1 V 38 35.998 34 31.998 L 872,30 v -2 -1 -2 l 1,-1 v 0 0 0 1 l 1,0.998 V 28 30 31.998 34 l 1,1.998 V 38 v 2 1 2 l 1,1 v 0 0 0 l 1,-1 V 41.998 41 38.998 37 l 1,-2 V 33 31 28.998 28 l 1,-2.002 V 25 v 0 0 h 1 V 25 25.998 28 28.998 L 881,31 v 2 2 2 1.998 L 882,41 v 0.998 1.002 1 0 h 1 v 0 -1 -2 l 1,-1 V 38 35.998 34 31.998 L 885,30 V 28 25.998 25 24 h 1 v 0 0 1 l 1,2 v 1 2 1.998 V 34 l 1,1.998 V 38 v 2 1 2 l 1,1 v 0 0 0 -1 l 1,-1.002 V 41 38.998 37 l 1,-2 V 33 31 28.998 28 l 1,-2.002 V 25 v 0 0 0 l 1,0.998 V 27 v 1 2 l 1,1.998 V 34 35.998 38 38.998 L 895,41 v 0.998 1.002 1 0 h 1 V 43 41.998 41 38.998 L 897,38 V 35.998 33 31 l 1,-2.002 V 28 25.998 25 24 h 1 v 0 1 0 2 l 1,1 V 30 31.998 34 l 1,1.998 V 38 40 41.998 43 l 1,1 v 0 0 0 -1 l 1,-1.002 V 40 38.998 37 35 l 1,-2 V 31 28.998 27 l 1,-1.002 V 25 v 0 0 0 l 1,0.998 V 27 v 1 2 1.998 L 907,34 V 35.998 38 40 l 1,1 v 2 1 0 0 h 1 V 43 41.998 41 38.998 L 910,37 V 35 33 31 28.998 L 911,28 V 25.998 25 24 h 1 v 0 1 0.998 V 27 l 1,1 V 30 31.998 34 35.998 L 914,38 V 40 41.998 43 l 1,1 v 0 0 0 -1 l 1,-1.002 V 40 38 37 35 l 1,-3.002 V 31 28.998 27 25.998 L 918,25 v 0 0 0 l 1,0.998 V 27 v 1 2 1.998 L 920,34 v 1.998 2.002 2 1 l 1,2 v 1 0 0 h 1 V 43 41.998 41 38.998 L 923,37 V 35 33 31 28.998 L 924,27 V 25.998 25 24 24 h 1 V 25 25.998 27 l 1,1.998 V 31 v 2 2 2 l 1,1.998 V 40 41.998 43 44 h 1 v 0 0 -1 l 1,-1.002 V 40 38 35.998 34 l 1,-2.002 V 30 28.998 27 25.998 L 931,25 v 0 0 0 l 1,0.998 V 27 v 1 2 1.998 L 933,34 V 35.998 38 40 41.998 L 934,43 v 1 0 0 0 l 1,-1 V 41.998 41 38.998 L 936,37 V 35 33 31 28.998 L 937,27 V 25.998 25 24 24 h 1 V 25 25.998 27 l 1,1.998 V 31 v 2 2 2 l 1,1.998 V 41 41.998 43 44 h 1 v 0 0 -1 -2 l 1,-1 V 38 35.998 34 l 1,-2.002 V 30 28 27 25.998 L 944,25 v 0 0 0 0.998 L 945,27 V 28.998 30 31.998 L 946,34 V 35.998 38 40 41.998 L 947,43 v 1 0 0 0 l 1,-1 V 41.998 40 38.998 37 l 1,-2 V 33 31 28.998 L 950,27 V 25.998 25 24 24 h 1 V 25 25.998 27 28.998 L 952,31 v 2 2 2 l 1,1.998 V 41 41.998 43 44 h 1 v 0 0 -1 -2 l 1,-1 V 38 35.998 34 31.998 L 956,30 V 28 27 25.998 L 957,25 v 0 0 0 0.998 L 958,27 v 1.998 2.002 2 2 l 1,2 V 38.998 40 41.998 L 960,43 v 1 0 0 0 l 1,-1 V 41.998 40 38 35.998 L 962,34 V 31.998 30 28 27 l 1,-1.002 V 25 24 24 h 1 V 25 25.998 27 28.998 L 965,31 v 2 2 2 1.998 L 966,41 V 41.998 43 44 h 1 V 44 43 41.998 41 l 1,-1 V 38 35.998 34 31.998 L 969,30 V 28 27 25.998 25 h 1 v 0 0 0.998 L 971,27 v 1.998 2.002 2 2 l 1,2 V 38.998 41 41.998 43 l 1,1 v 0 0 0 l 1,-1 V 41.998 40 38 35.998 L 975,34 V 31.998 30 28 27 l 1,-2 v 0 -1 0 0 l 1,1 V 25.998 28 28.998 L 978,31 v 2 2 3 0.998 L 979,41 v 0.998 1.002 1 0 h 1 V 43 41.998 41 l 1,-2.002 V 37 35 33 31 l 1,-1 v -2 -1 -2 0 h 1 v 0 0 0.998 V 28 l 1,0.998 V 31 v 2 2 l 1,2 V 38.998 41 41.998 43 l 1,1 v 0 0 0 -1"
           stroke="#4472c4"
           stroke-width="2"
           stroke-linecap="round"
           stroke-linejoin="round"
           stroke-miterlimit="10"
           fill="none"
           id="path2497" />
      </g>
      <g
         clip-path="url(#clip3)"
         id="g2503">
        <path
           d="m 562,-25017 1,32008 V -206.002 -93 -47.002 -32 h 1 V -40.002 -52 -64 -75.002 l 1,-10 v -6 -4 V -96 l 1,0.998 v 3.002 5 5.998 6 l 1,8.002 v 7.998 8.002 9 7.998 L 568,-26 V -18.002 -10 -2.00195 6 l 1,7 v 7 6.998 6 L 570,39 v 6 6 6 4.998 L 571,67 v 6 4 4.998 V 87 l 1,3.998 V 95 v 5 3.998 l 1,4.002 v 2.998 4.002 4 3 l 1,3.998 v 3 3.002 3 3 l 1,3 v 3 3 3 3 l 1,1.998 v 3 2.002 3 l 1,1.998 v 2.002 3 2 1.998 l 1,2.002 v 1.998 2.002 2 1.998 l 1,2.002 v 2 1.998 2.002 l 1,0.998 v 2.002 1.998 2.002 0.998 l 1,2.002 v 0.998 2.002 0.998 2.002 l 1,0.998 v 2.002 1 0.998 2.002 l 1,0.998 V 217 218.998 220 l 1,1 v 0.998 1.002 1.998 1 l 1,1.002 v 1 0.998 1.002 1 l 1,0.998 v 1.002 1 0.998 l 1,1.002 v 1 0.998 1 1.002 l 1,0.998 v 1 0 1.002 1 l 1,0.998 v 1.002 0 1 0.998 l 1,1.002 v 0 1 0.998 l 1,1.002 v 0 1 0.998 0 l 1,1.002 v 1 0 0.998 1 h 1 v 1.002 0 1 l 1,0.998 v 0 1.002 0 1 h 1 v 0.998 0 1.002 0 l 1,1 v 0 0.998 0 1.002 h 1 v 1 0 0.998 h 1 v 1 0 0 1.002 h 1 v 0.998 0 0 1 h 1 v 1.002 0 0 l 1,1 v 0 0.998 0 0 l 1,1.002 v 0 0 1 0 h 1 v 0.998 0 1.002 0 h 1 v 1 0 0 l 1,0.998 v 0 0 1.002 0 h 1 v 0 1 0 0 l 1,0.998 v 0 0 1.002 h 1 v 0 0 1 0 h 1 v 0 0.998 0 0 l 1,1 v 0 0 0 l 1,1.002 v 0 0 0 1 h 1 v 0 0 0 0.998 h 1 v 0 0 1.002 0 h 1 v 0 1 0 h 1 v 0 0 0.998 0 h 1 v 0 0 1.002 0 h 1 v 0 0 1 h 1 v 0 0 0 0.998 h 1 v 0 0 0 0 l 1,1.002 v 0 0 0 0 h 1 v 1 0 0 h 1 v 0 0 0.998 0 h 1 v 0 0 0 0 l 1,1 v 0 0 0 h 1 v 0 0 1.002 0 h 1 v 0 0 0 0 h 1 v 0.998 0 0 0 h 1 v 0 0 0 l 1,1 v 0 0 0 0 h 1 v 0 0 1.002 0 h 1 v 0 0 0 h 1 v 0 0 0 1 h 1 v 0 0 0 0 h 1 v 0 0 0 0 h 1 v 0 0.998 0 h 1 v 0 0 0 0 h 1 v 0 0 0 0 h 1 v 0 0 0 h 1 v 0 0 0 0 l 1,1.002 v 0 0 0 0 h 1 v 0 0 0 0 h 1 v 0 0 0 h 1 v 0 0 0 0 h 1 v 0 0 0 0 l 1,-1.002 v 0 0 0 h 1 v 0 0 0 0 h 1 v 0 0 0 0 h 1 v 0 0 -0.998 0 h 1 v 0 0 0 h 1 v 0 0 0 -1 h 1 v 0 0 0 0 h 1 v -1.002 0 0 h 1 v 0 -1 0 0 h 1 V 304 v 0 0 0 l 1,-1.002 v 0 0 -1 0 h 1 V 301 v 0 0 l 1,-1 v 0 0 -1.002 0 h 1 V 298 v 0 0 -1 h 1 v -1.002 0 0 L 660,295 v 0 -1 0 -1.002 h 1 V 292 v 0 -1 0 l 1,-1.002 v 0 -1 0 V 288 h 1 v -1 -1.002 0 L 664,285 v 0 -1 -1.002 0 L 665,282 v -1 -1.002 0 V 279 l 1,-1 v 0 -1.002 V 276 h 1 v -1 -1.002 0 -1 L 668,272 v 0 -1.002 -1 V 269 h 1 v -1 -1.002 0 V 266 l 1,-1 v -1.002 -0.998 0 l 1,-1 v -1.002 -0.998 -1 -1.002 l 1,-1 V 256 v -1 0 -1.002 L 673,253 V 252 250.998 250 l 1,-1 v -1.002 -0.998 -1 -1.002 h 1 V 244 v -1 -1.002 0 l 1,-1 V 240 v 0 -1.002 -1 L 677,237 v 0 -1 -1.002 L 678,234 v -1 -1.002 -0.998 -1 l 1,-1.002 V 228 v -1 -1.002 -1 L 680,224 V 223 221.998 221 l 1,-1 v -1.002 -0.998 -1 0 l 1,-1.002 V 215 v -1 0 -1.002 L 683,212 v 0 -1 0 -1.002 l 1,-1 v 0 -0.998 -1.002 l 1,-1 v 0 -0.998 -1 -1.002 L 686,202 V 201 199.998 199 196.998 L 687,196 v -1 -1.002 -1 L 688,192 v -1 -1.002 -0.998 0 l 1,-1 v -1.002 0 -0.998 0 h 1 v -1 0 0 -1.002 h 1 v 0 -0.998 0 l 1,-1 v -1.002 -0.998 0 -1 l 1,-2.002 V 176 v -1.002 -1 V 173 l 1,-1 v -2 -1 -1.002 L 695,167 v 0 -1 -1.002 0 L 696,164 v 0 0 0 0 h 1 v 0 0 0 0 l 1,-1 v 0 0 -1.002 l 1,-1 V 160 159 157.998 157 l 1,-1 V 154.998 153 151.998 151 l 1,-2.002 V 148 v -1 0 l 1,-1.002 v -1 0 0 0 h 1 v 0 0 1 0 h 1 v 0 1.002 0 0 h 1 v -1.002 0 -1 L 706,144 v -1.002 -1 V 140 138.998 L 707,138 v -2.002 -0.998 -1 -2 l 1,-1 v 0 -1.002 0 l 1,-1 v 0 1 0 0 l 1,1.002 v 1 0 0.998 0 l 1,1.002 v 0 0 0 0 l 1,-1.002 V 132 v -1 -1.002 l 1,-1 V 127 125.998 124 122.998 L 714,121 v -1.002 -0.998 -1 -1.002 h 1 v 0 0 0 h 1 v 1.002 1 0.998 0 l 1,1.002 v 1 0.998 1.002 0 h 1 v 0 0 0 -1.002 L 719,122 V 119.998 119 118 l 1,-2 v -2.002 -1 V 112 109.998 L 721,109 v -1 0 -1.002 0 l 1,1.002 v 0 1 0.998 l 1,1 v 1.002 0.998 1 1.002 l 1,1 v 0.998 0 0 0 h 1 V 116 v -1 -1.002 -1 l 1,-2 V 109 v -1 -2 l 1,-1 v -2 -1 -1.002 V 100 h 1 v 0 0 0.998 0 l 1,1.002 v 1 2 1 l 1,0.998 v 2.002 0.998 1 0 l 1,1.002 v 0 0 -1.002 0 l 1,-1 V 108 106.998 105 103.998 L 733,102 v -2 -1 -1.002 l 1,-1 V 96 v -1 0 0 l 1,1 v 0.998 1 1.002 1 l 1,2 v 1 0.998 2.002 l 1,0.998 v 1.002 0 1 -1 h 1 V 106.998 106 105 103.998 L 739,102 V 100 99 96.998 95 l 1,-1.002 V 93 92 90.998 h 1 v 0 1.002 0 1 l 1,2 v 1 0.998 2.002 1.998 l 1,1.002 v 1 0.998 1.002 l 1,1 v 0 0 -1 -1.002 L 745,103 v -1 -2 -1 -2.002 L 746,95 V 93.998 92 90.998 90 l 1,-1 v 0 0 0 l 1,1 V 90.998 92 93.998 95 l 1,1.998 v 1 2.002 0.998 1.002 l 1,1 v 0.998 0 0 h 1 V 103 v -1 -2 -1 l 1,-2.002 V 95 93.998 92 90 l 1,-1 V 87.998 87 v 0 0 h 1 v 0.998 0 V 90 l 1,0.998 V 93 93.998 96 97.998 L 756,99 v 1 0.998 1.002 1 h 1 v -1 0 -1.002 L 758,100 v -2.002 -1 V 95 93 l 1,-2.002 V 90 89 87 87 l 1,-1 v 0 0 1 0 l 1,2 v 1 2 1 l 1,2 v 1 1.998 1.002 1.998 h 1 v 1.002 0 0 -1.002 L 764,100 V 99 97.998 96 l 1,-2.002 V 92 90.998 89 87.998 L 766,86 v -1.002 0 V 84 84.998 h 1 V 86 87 87.998 90 l 1,0.998 V 93 v 2 1.998 l 1,1 V 99 v 1 0.998 0 h 1 v 0 V 100 99 97.998 L 771,96 V 93.998 93 90.998 L 772,89 V 87.998 86 v -1.002 0 L 773,84 v 0 0.998 0 V 86 l 1,1.998 V 89 90.998 93 l 1,0.998 V 96 96.998 99 v 1 l 1,0.998 v 0 0 -0.998 0 l 1,-1 V 96.998 96 93.998 92 l 1,-1.002 V 89 87 86 l 1,-1.002 V 84 v -1 0 1 h 1 V 84.998 86 87.998 90 l 1,0.998 V 93 v 2 1 l 1,1.998 V 99 v 1 0 0 h 1 V 100 99 97.998 96 l 1,-1 V 93 90.998 89 87.998 L 785,86 V 84.998 84 84 h 1 v 0 0 0.998 V 86 l 1,1.998 V 89 90.998 93 93.998 L 788,96 v 1.998 1.002 1 h 1 v 0 0 0 -1 l 1,-1.002 V 96 95 93 90.998 L 791,89 V 87.998 86 84.998 84 l 1,-1 v 0 0 0 l 1,1 V 84.998 87 87.998 90 l 1,2 v 1 2 1.998 1 L 795,99 v 1 0 0 h 1 v -1 -1.002 -1 V 95 l 1,-2 V 92 90 87.998 87 l 1,-2.002 V 84 v 0 -1 0 l 1,1 V 84 84.998 87 l 1,0.998 V 90 v 2 1 2 l 1,1.998 v 1 1.002 1 0 h 1 v 0 -1 -1.002 l 1,-1 V 95 93.998 92 90 l 1,-2.002 V 87 84.998 84 83 h 1 v 0 0 0 1 l 1,2 v 1 2 1.998 L 807,92 v 1.998 2.002 0.998 1 L 808,99 v 1 0 0 -1 l 1,-1.002 v -1 V 96 93.998 L 810,92 V 90.998 89 87 86 l 1,-1.002 V 84 v -1 0 0 l 1,1 v 0.998 1.002 1 2 l 1,1 V 92 93.998 96 l 1,0.998 v 1 1.002 1 0 h 1 v -1 -1.002 -1 V 96 l 1,-2.002 V 93 90.998 89 l 1,-2 v -1 -2 -1 0 l 1,-1.002 V 83 v 0 1 0.998 L 819,86 V 87.998 89 90.998 93 l 1,2 V 96 97.998 99 h 1 v 1 0 -1 0 l 1,-1.002 V 96 95 93 92 l 1,-2 V 87.998 87 84.998 L 824,84 v -1 0 0 0 l 1,1 V 84.998 86 87.998 89 l 1,1.998 V 93 v 2 1 1.998 L 827,99 v 0 1 0 h 1 v -1 -1.002 -1 V 95 l 1,-2 V 92 90 87.998 86 l 1,-1.002 V 84 83 83 l 1,-1.002 V 83 v 0 1 0.998 L 832,87 V 87.998 90 92 93.998 L 833,95 v 1.998 1 1.002 1 h 1 v 0 -1 -1.002 l 1,-1 V 96 93.998 92 90.998 L 836,89 V 87 86 84.998 84 l 1,-1 v 0 0 1 h 1 v 2 1 2 1 l 1,2 v 1.998 1.002 1.998 1 L 840,99 v 1 0 0 -1 l 1,-1.002 v -1 V 96 93.998 L 842,93 V 90.998 89 87 86 l 1,-2 v -1 0 -1.002 0 L 844,83 V 84 84.998 86 l 1,1.998 V 89 90.998 93 95 l 1,1 v 0.998 2.002 0 1 h 1 V 99 99 97.998 96 l 1,-1 v -2 -1 -2 l 1,-2.002 V 87 84.998 84 83 h 1 v 0 0 1 0.998 L 851,86 V 87.998 89 90.998 L 852,93 v 2 1 0.998 V 99 h 1 v 1 0 0 -1 l 1,-1.002 v -1 V 95 93 92 l 1,-2 V 87.998 87 84.998 L 856,84 v -1 -1.002 0 V 83 h 1 V 84 84.998 87 87.998 L 858,90 V 92 93.998 95 l 1,1.998 v 1 1.002 0 1 h 1 v -1 -1.002 -1 V 96 l 1,-2.002 V 92 90.998 89 87 l 1,-1 V 84.998 84 83 h 1 v 0 1 0 0.998 L 864,87 V 87.998 90 92 93.998 L 865,95 v 1.998 1 V 99 l 1,1 v 0 0 -1 -1.002 l 1,-1 V 96 93.998 93 90.998 L 868,89 v -2 -1 -2 -1 h 1 v -1.002 0 V 83 l 1,1 v 0.998 1.002 1 2 l 1,1.998 V 93 93.998 96 96.998 l 1,1 V 99 v 1 0 l 1,-1 v 0 -1.002 -1 V 95 l 1,-2 V 92 90 87.998 87 l 1,-2.002 V 84 v -1 0 0 h 1 V 84 84.998 86 l 1,1.998 V 89 90.998 93 93.998 L 878,96 v 0.998 2.002 0 1 h 1 v 0 -1 -1.002 l 1,-1 V 95 93.998 92 90 l 1,-2.002 V 87 84.998 84 83 h 1 V 81.998 83 v 0 1 l 1,0.998 V 87 87.998 90 l 1,2 v 1.998 1.002 1.998 1 L 885,99 v 0 1 0 -1 l 1,-1.002 v -1 V 96 93.998 L 887,93 V 90.998 89 87 86 l 1,-1.002 V 84 v -1 0 0 h 1 V 84 84.998 87 87.998 L 890,90 V 92 93.998 95 l 1,1.998 v 1 1.002 1 0 h 1 V 99 99 96.998 96 l 1,-2.002 V 93 90.998 89 l 1,-2 V 86 84.998 83 83 l 1,-1.002 v 0 1.002 0 1.998 L 896,86 v 1 2 1.998 V 93 l 1,0.998 V 96 v 0.998 1 L 898,99 v 1 0 -1 0 l 1,-1.002 v -1 V 95 93 92 l 1,-2 V 87.998 87 84.998 L 901,84 v -1 0 0 0 l 1,1 v 0.998 1.002 1 2 l 1,1.998 V 93 93.998 96 96.998 l 1,1 V 99 v 1 0 h 1 v -1 -1.002 -1 V 95 l 1,-1.002 V 92 90 87.998 87 l 1,-2.002 V 84 83 83 l 1,-1.002 V 83 v 0 1 0.998 L 909,87 v 0.998 2.002 2 1 l 1,2 v 1.998 1 1.002 0 l 1,1 v 0 -1 -1.002 l 1,-1 V 96 93.998 93 90.998 L 913,89 V 87.998 86 84.998 84 l 1,-1 v 0 0 0 l 1,1 V 84.998 87 87.998 90 l 1,2 v 1 2 1.998 1 L 917,99 v 1 0 0 -1 h 1 V 96.998 96 95 l 1,-2 V 90.998 89 87.998 86 l 1,-1.002 V 84 v -1 -1.002 0 L 921,83 v 0 1 2 l 1,1 V 89 90.998 93 93.998 L 923,96 v 0.998 1 1.002 1 h 1 v -1 0 -1.002 -1 L 925,95 V 93.998 92 90 l 1,-2.002 V 87 84.998 84 83 h 1 v 0 0 1 0.998 L 928,86 v 1 2 1.998 L 929,93 v 0.998 2.002 0.998 1 L 930,99 v 1 0 0 -1 l 1,-1.002 v -1 V 95 93.998 L 932,92 V 90 87.998 87 84.998 L 933,84 v -1 0 -1.002 0 L 934,83 V 84 84.998 86 87.998 L 935,90 v 2 1 2 l 1,1.998 v 1 1.002 0 1 h 1 v -1 -1.002 -1 V 96 l 1,-2.002 V 93 90.998 89 l 1,-1.002 V 86 84.998 84 83 h 1 v 0 0 1 0.998 L 941,87 v 0.998 2.002 2 1 l 1,2 v 1.998 1 V 99 l 1,1 v 0 0 -1 0 l 1,-1.002 V 96 95 93 90.998 L 945,89 V 87.998 86 84.998 L 946,84 v -1 -1.002 0 V 83 h 1 v 1 2 1 2 l 1,1.998 V 92 93.998 96 96.998 l 1,1 V 99 v 1 0 l 1,-1 v 0 -1.002 -1 V 95 l 1,-1.002 V 92 90 87.998 87 l 1,-2.002 V 84 84 83 h 1 v 0 1 0.998 V 86 l 1,1 V 89 90.998 92 93.998 L 955,96 v 0.998 1 1.002 1 h 1 v 0 -1 -1.002 l 1,-1 V 95 93.998 92 90 l 1,-2.002 V 87 84.998 84 83 h 1 v -1.002 0 V 83 l 1,1 V 84.998 86 87.998 90 l 1,2 v 1 2 1 1.998 L 962,99 v 0 1 0 -1 l 1,-1.002 v -1 V 96 95 l 1,-2 V 90.998 89 87.998 86 l 1,-1.002 V 84 v -1 0 0 h 1 V 84 84.998 87 l 1,0.998 V 90 v 2 1 2 l 1,1 v 1.998 1.002 1 0 h 1 V 99 99 97.998 96 l 1,-1 V 93 90.998 89 l 1,-1.002 V 86 84.998 84 83 l 1,-1.002 v 0 1.002 0 1 l 1,2 v 1 2 1.998 L 974,92 v 1.998 2.002 0.998 1 L 975,99 v 1 0 -1 0 l 1,-1.002 v -1 V 95 93.998 92 l 1,-2 v -1 -2 -1 l 1,-2 v 0 -1 0 0 l 1,1 v 0.998 1.002 1 2 l 1,1.998 V 92 93.998 96 l 1,0.998 v 1 1.002 1 0 h 1 v -1 -1.002 -1 V 96 l 1,-2.002 V 92 90 89 87 l 1,-2.002 V 84 83 83 l 1,-1.002 v 0 1.002 1 0.998 L 986,86 V 87.998 90 90.998 93"
           stroke="#ed7d31"
           stroke-width="2"
           stroke-linecap="round"
           stroke-linejoin="round"
           stroke-miterlimit="10"
           fill="none"
           id="path2501" />
      </g>
      <g
         id="g2507">
        <text
           font-family="Arial, Arial_MSFontService, sans-serif"
           font-weight="400"
           font-size="12px"
           transform="translate(528.667,353)"
           id="text2505">1.05</text>
      </g>
      <g
         id="g2511">
        <text
           font-family="Arial, Arial_MSFontService, sans-serif"
           font-weight="400"
           font-size="12px"
           transform="translate(535.34,305)"
           id="text2509">1.1</text>
      </g>
      <g
         id="g2515">
        <text
           font-family="Arial, Arial_MSFontService, sans-serif"
           font-weight="400"
           font-size="12px"
           transform="translate(528.667,257)"
           id="text2513">1.15</text>
      </g>
      <g
         id="g2519">
        <text
           font-family="Arial, Arial_MSFontService, sans-serif"
           font-weight="400"
           font-size="12px"
           transform="translate(535.34,209)"
           id="text2517">1.2</text>
      </g>
      <g
         id="g2523">
        <text
           font-family="Arial, Arial_MSFontService, sans-serif"
           font-weight="400"
           font-size="12px"
           transform="translate(528.667,162)"
           id="text2521">1.25</text>
      </g>
      <g
         id="g2527">
        <text
           font-family="Arial, Arial_MSFontService, sans-serif"
           font-weight="400"
           font-size="12px"
           transform="translate(535.34,114)"
           id="text2525">1.3</text>
      </g>
      <g
         id="g2531">
        <text
           font-family="Arial, Arial_MSFontService, sans-serif"
           font-weight="400"
           font-size="12px"
           transform="translate(528.667,66)"
           id="text2529">1.35</text>
      </g>
      <g
         id="g2535">
        <text
           font-family="Arial, Arial_MSFontService, sans-serif"
           font-weight="400"
           font-size="12px"
           transform="translate(535.34,19)"
           id="text2533">1.4</text>
      </g>
      <g
         id="g2539">
        <text
           font-family="Arial, Arial_MSFontService, sans-serif"
           font-weight="400"
           font-size="12px"
           transform="translate(559.003,367)"
           id="text2537">0</text>
      </g>
      <g
         id="g2543">
        <text
           font-family="Arial, Arial_MSFontService, sans-serif"
           font-weight="400"
           font-size="12px"
           transform="translate(661.747,367)"
           id="text2541">50</text>
      </g>
      <g
         id="g2547">
        <text
           font-family="Arial, Arial_MSFontService, sans-serif"
           font-weight="400"
           font-size="12px"
           transform="translate(764.491,367)"
           id="text2545">100</text>
      </g>
      <g
         id="g2551">
        <text
           font-family="Arial, Arial_MSFontService, sans-serif"
           font-weight="400"
           font-size="12px"
           transform="translate(870.571,367)"
           id="text2549">150</text>
      </g>
      <g
         id="g2555">
        <text
           font-family="Arial, Arial_MSFontService, sans-serif"
           font-weight="400"
           font-size="12px"
           transform="translate(976.652,367)"
           id="text2553">200</text>
      </g>
      <rect
         x="740"
         y="132"
         width="246"
         height="208"
         fill="#ffffff"
         id="rect2557" />
      <g
         id="g2561">
        <path
           d="m 782.5,283.5 h 178 m -178,-28 h 178 m -178,-27 h 178 m -178,-27 h 178 m -178,-28 h 178 m -178,-27 h 178"
           stroke="#d9d9d9"
           stroke-linejoin="round"
           stroke-miterlimit="10"
           fill="none"
           id="path2559" />
      </g>
      <g
         id="g2565">
        <path
           d="m 827.5,146.5 v 164 m 44,-164 v 164 m 45,-164 v 164 m 44,-164 v 164"
           stroke="#d9d9d9"
           stroke-linejoin="round"
           stroke-miterlimit="10"
           fill="none"
           id="path2563" />
      </g>
      <g
         id="g2569">
        <rect
           x="782.5"
           y="146.5"
           width="178"
           height="164"
           stroke="#000000"
           stroke-linejoin="round"
           stroke-miterlimit="10"
           fill="none"
           id="rect2567" />
      </g>
      <g
         id="g2573">
        <path
           d="M 0,0 1.04987e-4,164"
           stroke="#000000"
           stroke-linejoin="round"
           stroke-miterlimit="10"
           fill="none"
           fill-rule="evenodd"
           transform="matrix(1,0,0,-1,782.5,310.5)"
           id="path2571" />
      </g>
      <g
         id="g2577">
        <path
           d="m 782.5,310.5 h 3 m -3,-5 h 3 m -3,-6 h 3 m -3,-5 h 3 m -3,-6 h 3 m -3,-5 h 3 m -3,-6 h 3 m -3,-5 h 3 m -3,-6 h 3 m -3,-5 h 3 m -3,-6 h 3 m -3,-5 h 3 m -3,-5 h 3 m -3,-6 h 3 m -3,-5 h 3 m -3,-6 h 3 m -3,-5 h 3 m -3,-6 h 3 m -3,-5 h 3 m -3,-6 h 3 m -3,-5 h 3 m -3,-6 h 3 m -3,-5 h 3 m -3,-6 h 3 m -3,-5 h 3 m -3,-6 h 3 m -3,-5 h 3 m -3,-5 h 3 m -3,-6 h 3 m -3,-5 h 3 m -3,-6 h 3 m -7,164 h 7 m -7,-27 h 7 m -7,-28 h 7 m -7,-27 h 7 m -7,-27 h 7 m -7,-28 h 7 m -7,-27 h 7"
           stroke="#000000"
           stroke-linejoin="round"
           stroke-miterlimit="10"
           fill="none"
           id="path2575" />
      </g>
      <g
         id="g2581">
        <path
           d="m 782.5,310.5 h 178"
           stroke="#000000"
           stroke-linejoin="round"
           stroke-miterlimit="10"
           fill="none"
           fill-rule="evenodd"
           id="path2579" />
      </g>
      <g
         id="g2585">
        <path
           d="m 782.5,307.5 v 3 m 9,-3 v 3 m 9,-3 v 3 m 9,-3 v 3 m 9,-3 v 3 m 9,-3 v 3 m 8,-3 v 3 m 9,-3 v 3 m 9,-3 v 3 m 9,-3 v 3 m 9,-3 v 3 m 9,-3 v 3 m 9,-3 v 3 m 9,-3 v 3 m 9,-3 v 3 m 9,-3 v 3 m 9,-3 v 3 m 9,-3 v 3 m 9,-3 v 3 m 9,-3 v 3 m 8,-3 v 3 m -178,-4 v 8 m 45,-8 v 8 m 44,-8 v 8 m 45,-8 v 8 m 44,-8 v 8"
           stroke="#000000"
           stroke-linejoin="round"
           stroke-miterlimit="10"
           fill="none"
           id="path2583" />
      </g>
      <g
         clip-path="url(#clip4)"
         id="g2589">
        <path
           d="m -379,-32838 1,40724 1,-7743 1,-328 1,99 1,27 v 3 l 1,-9.0039 1,-11.9981 1,-14 1,-11 1,-9 1,-4.998 1,-1.002 1,1.002 v 4.998 l 1,7.002 1,9 1,11 1,10.998 1,13.002 1,13 1,13 1,13 1,13 V 5 l 1,13 1,12 1,12 1,11 1,11 1,11 1,10.9961 1,10.0039 v 9 l 1,9 1,9 1,9 1,8 1,8 1,7.996 1,7.004 1,8 1,6 v 7 l 1,6.996 1,6.004 1,6 1,6 1,6 1,6 1,5 1,5 v 5.996 l 1,5.004 1,5 1,4 1,5 1,5 1,4 1,3.996 1,5.004 v 3.996 l 1,4.004 1,4 1,3 1,4 1,4 1,3 1,3.996 1,3 1,3 V 314 l 1,3 1,3 1,3 1,3 1,3 1,3 1,2 1,3 v 3 l 1,1.996 1,3 1,2.004 1,3 1,2 1,3 1,2 1,2 v 3 l 1,2 1,2 1,1.996 1,2.004 1,2 1,1.996 1,2.004 1,2 1,1.996 V 382 l 1,2 1,1 1,2 1,2 1,1 1,2 1,1.996 1,1.004 v 1.996 l 1,2.004 1,0.996 1,2.004 1,0.996 1,1.004 1,1.996 1,1.004 1,1.996 1,1.004 v 1 l 1,2 1,1 1,0.996 1,1.004 1,2 1,1 1,1 1,1 v 1 l 1,2 1,1 1,1 1,1 1,1 1,0.996 1,1.004 1,1 v 0.996 l 1,1.004 1,1 1,0.996 1,1.004 1,1 1,0.996 1,1.004 h 1 l 1,1 v 0.996 l 1,1.004 1,1 1,0.996 1,1.004 h 1 l 1,1 1,0.996 1,1.004 v 0 l 1,1 1,1 1,1 h 1 l 1,1 1,1 1,1 h 1 v 1 l 1,1 h 1 l 1,1 h 1 l 1,0.996 1,1.004 h 1 l 1,1 h 1 v 0.996 l 1,1.004 h 1 l 1,1 h 1 l 1,0.996 h 1 l 1,1.004 h 1 v 1 h 1 l 1,0.996 1,1.004 h 1 1 l 1,1 h 1 l 1,0.996 v 0 l 1,1.004 h 1 l 1,1 h 1 l 1,0.996 h 1 1 l 1,1.004 h 1 v 1 h 1 1 l 1,0.996 h 1 1 l 1,1.004 h 1 1 v 1 h 1 1 l 1,0.996 h 1 1 l 1,1.004 h 1 1 1 v 1 h 1 1 1 l 1,1 h 1 1 1 l 1,1 v 0 h 1 1 1 l 1,1 h 1 1 1 1 v 0 h 1 1 l 1,1 h 1 1 1 1 1 1 v 0 h 1 1 1 1 1 1 1 1 v -1 h 1 1 1 1 1 1 1 1 v -1 h 1 1 1 1 l 1,-1 h 1 1 1 l 1,-1 v 0 h 1 l 1,-1 h 1 l 1,-1.004 h 1 l 1,-0.996 h 1 l 1,-1 v 0 l 1,-1.004 h 1 l 1,-0.996 h 1 l 1,-1 1,-1.004 h 1 l 1,-0.996 h 1 v -1 l 1,-1.004 h 1 l 1,-0.996 1,-1 h 1 l 1,-1.004 1,-0.996 h 1 v -1 l 1,-1.004 1,-0.996 h 1 l 1,-1 1,-1.004 1,-0.996 1,-1 h 1 v -1.004 l 1,-0.996 1,-1 1,-1 1,-1 1,-1 1,-1 1,-2 1,-1 1,-1 v -1.004 l 1,-0.996 1,-1 1,-2 1,-1 1,-1.004 1,-1.996 1,-1.004 1,-0.996 v -1 l 1,-2 1,-1 1,-1.004 1,-0.996 1,-1 1,-1.004 1,-1.996 1,-1 v -1 l 1,-1 1,-1 1,-1 1,-1 1,-2 1,-1 1,-1 1,-1 1,-2 v -1 l 1,-1.004 1,-1.996 1,-1.004 1,-1.996 1,-1.004 1,-1.996 1,-2 1,-1 v -2 l 1,-2.004 1,-0.996 1,-2.004 1,-1.996 1,-1 1,-2 1,-1 1,-2 v -1 l 1,-2.004 1,-0.996 1,-1 1,-2 1,-1 1,-1.004 1,-0.996 1,-1 1,-1.004 V 373 l 1,-1 1,-1.004 1,-0.996 1,-1 1,-1.004 1,-0.996 1,-1 1,-2 v -1 l 1,-2 1,-2 1,-1 1,-2 1,-2 1,-2 1,-2 1,-1 1,-2 v -2.004 l 1,-1.996 1,-1.004 1,-1.996 1,-1.004 1,-1.996 1,-1.004 1,-0.996 1,-1 v -1.004 l 1,-0.996 1,-1 h 1 l 1,-1.004 h 1 L -8,329 h 1 l 1,-1 v -1 h 1 l 1,-1 1,-1 1,-2 1,-1 1,-1 1,-2.004 L 2,317 3,315.996 V 314 L 4,312 5,309.996 6,308 7,306 8,303.996 9,302 10,300.996 11,299 v -1 l 1,-1 1,-1 1,-1 h 1 l 1,-1 h 1 1 1 v 0 h 1 1 1 1 l 1,-1 h 1 l 1,-1 h 1 l 1,-1 v -2 l 1,-1 1,-2 1,-2.004 1,-1.996 1,-2 1,-2.004 1,-1.996 1,-2 v -2.004 l 1,-1.996 1,-1.004 1,-1.996 1,-1.004 1,-0.996 1,-1 h 1 l 1,-1 h 1 v 1 h 1 1 l 1,1 1,0.996 h 1 L 51,267 h 1 1 v 0 h 1 l 1,-1.004 1,-0.996 1,-1 1,-2 1,-2 1,-2 1,-2 v -2 l 1,-2.004 1,-1.996 1,-3 1,-2 1,-1 1,-2 1,-1 1,-1.004 1,-0.996 v -1 h 1 l 1,1 h 1 l 1,0.996 1,1.004 1,1 1,0.996 1,1.004 v 1 l 1,0.996 h 1 L 81,247 h 1 1 l 1,-1.004 1,-0.996 1,-1 v -2 l 1,-2.004 1,-1.996 1,-2 1,-3 1,-2 1,-3 1,-2 1,-2 1,-2 v -1 l 1,-1.004 1,-0.996 h 1 1 1 l 1,0.996 1,1.004 1,1 v 0.996 l 1,2.004 1,1 1,2 1,1 1,1 1,1 h 1 1 1 v -1 l 1,-1 1,-2 1,-1 1,-3.004 1,-1.996 1,-2 1,-3 1,-2.004 v -3 l 1,-1.996 1,-2 1,-1 1,-2 h 1 l 1,-1 1,1 h 1 v 0.996 l 1,1.004 1,1.996 1,1.004 1,1.996 1,2.004 1,2 1,1.996 1,1.004 1,1 v 0.996 h 1 1 l 1,-0.996 1,-1 1,-1.004 1,-1.996 1,-2 1,-2.004 v -3 l 1,-3 1,-1.996 1,-3 1,-2 1,-2 1,-2 1,-1 1,-1 v 0 h 1 l 1,1 1,1 1,1 1,2 1,2 1,2 1,2 1,1.996 V 207 l 1,2 1,1 1,0.996 1,1.004 h 1 l 1,-1.004 1,-0.996 1,-1 v -2 l 1,-2.004 1,-3 1,-1.996 1,-3 1,-2 1,-3 1,-2 1,-2.004 V 186 l 1,-1.004 1,-0.996 h 1 1 l 1,0.996 1,1.004 1,1.996 1,2.004 1,2 v 2 l 1,3 1,2 1,2 1,2 1,1 1,0.996 1,1.004 h 1 v 0 l 1,-1.004 1,-0.996 1,-2.004 1,-1.996 1,-3 1,-2 1,-3 1,-3 1,-2 v -3 l 1,-2.004 1,-0.996 1,-2.004 h 1 1 1 l 1,1.004 1,1 v 2 l 1,1.996 1,2.004 1,2 1,3 1,2 1,3 1,1 1,2 v 1 l 1,0.996 h 1 1 l 1,-0.996 1,-2 1,-1 1,-3 1,-2 1,-3 v -2.004 l 1,-3 1,-3 1,-1.996 1,-2 1,-2.004 1,-0.996 h 1 l 1,-1 v 1 l 1,0.996 1,1.004 1,1.996 1,2.004 1,3 1,2 1,3 1,1.996 V 194 l 1,2 1,1 1,1 1,1 h 1 1 l 1,-1 1,-1 1,-2 v -2 l 1,-3 1,-2.004 1,-3 1,-3 1,-1.996 1,-3 1,-2 1,-1 v -1.004 L 263,172 h 1 1 l 1,0.996 1,2.004 1,2 1,1.996 1,2.004 1,3 v 3 l 1,2 1,3 1,2 1,1 1,2 h 1 1 1 v -1 l 1,-1 1,-2 1,-2.004 1,-3 1,-3 1,-1.996 1,-3 1,-3 v -2 l 1,-2.004 1,-0.996 1,-1 1,-1 h 1 l 1,1 1,1 1,0.996 1,2.004 v 3 l 1,2 1,3 1,3 1,1.996 1,3 1,2.004 1,1 1,2 v 0 h 1 1 l 1,-1 1,-1 1,-2 1,-3 1,-2 1,-3 v -3 l 1,-2.004 1,-3 1,-1.996 1,-2 1,-2 1,-1 h 1 1 1 v 2 l 1,1 1,2 1,3 1,1.996 1,3 1,3 1,2.004 1,2 v 3 l 1,1 1,1 1,1 h 1 1 l 1,-1 1,-2 1,-2 v -2.004 l 1,-3 1,-1.996 1,-3 1,-3 1,-2 1,-2.004 1,-1.996 1,-2 1,-1 v 0 h 1 l 1,1 1,1 1,2 1,2 1,1.996 1,3 1,3 V 184 l 1,3 1,2 1,1.996 1,2.004 1,1 1,1 h 1 l 1,-1 1,-1 v -1 l 1,-2 1,-3 1,-2.004 1,-3 1,-3 1,-3 1,-1.996 1,-2 v -2 l 1,-2 1,-1 h 1 1 l 1,1 1,1 1,2 1,1.996 v 3 l 1,2.004 1,3 1,3 1,2 1,3 1,1.996 1,1.004 1,2 h 1 v 0 h 1 l 1,-2 1,-1.004 1,-1.996 1,-2 1,-3 1,-3 1,-3 v -2.004 l 1,-3 1,-1.996 1,-2 1,-1 1,-1 h 1 1 l 1,1 v 1 l 1,2 1,1.996 1,3 1,3 1,2.004 1,3 1,3 1,2 1,1.996 V 192 l 1,1 1,1 h 1 l 1,-1 1,-1 1,-2 1,-2.004 1,-1.996 v -3 l 1,-2 1,-3 1,-3 1,-2.004 1,-2.996 1,-1 1,-2 h 1 l 1,-1 v 1 l 1,1 1,1 1,2 1,1.996 1,3 1,2.004 1,3 1,3 v 2 l 1,3 1,1.996 1,1.004 1,1 1,1 h 1 l 1,-1 1,-1 v -2 l 1,-2.004 1,-1.996 1,-3 1,-3 1,-3 1,-2 1,-3 1,-2 1,-1 v -2 h 1 l 1,-1 1,1 1,1 1,1 1,2 1,3 1,1.996 v 3 l 1,3 1,2.004 1,3 1,2 1,1.996 1,1.004 1,1 1,1 v -1 h 1 l 1,-2.004 1,-0.996 1,-2.004 1,-3 1,-3 1,-1.996 1,-3 1,-3 v -2 l 1,-2 1,-2 1,-1 1,-1 h 1 1 l 1,2 1,1 v 2 l 1,1.996 1,3 1,3 1,2.004 1,3 1,3 1,2 1,1.996 V 192 l 1,1 h 1 1 l 1,-1 1,-1.004 1,-1.996 1,-2 1,-2.004 1,-3 v -3 l 1,-1.996 1,-3 1,-2 1,-2 1,-2 1,-1 1,-1 h 1 v 1 l 1,1 1,2 1,2 1,2 1,3 1,1.996 1,3 1,3 1,2.004 v 2 l 1,1.996 1,1.004 1,1 h 1 1 l 1,-1 1,-1.004 1,-1.996 v -2 l 1,-3 1,-2.004 1,-3 1,-3 1,-3 1,-1.996 1,-2 1,-2 v -1 h 1 1 l 1,1 1,1 1,1 1,2 1,3 1,1.996 1,3 v 3 l 1,3 1,2.004 1,2 1,1.996 1,1.004 1,1 h 1 1 v -1 l 1,-1.004 1,-1.996 1,-2 1,-3 1,-3 1,-2.004 1,-3 1,-3 V 171 l 1,-2 1,-1 1,-1 1,-1 h 1 l 1,1 1,1 1,2 1,2 v 2 l 1,3 1,3 1,3 1,1.996 1,3 1,2.004 1,0.996 1,2.004 v 0 h 1 1 l 1,-1 1,-2 1,-2.004 1,-1.996 1,-2 1,-3 1,-3 v -3 l 1,-2.004 1,-2.996 1,-2 1,-1 1,-1 h 1 1 l 1,1 v 1 l 1,2 1,2 1,2 1,3 1,3 1,3 1,1.996 1,3 V 190 l 1,0.996 1,1.004 1,1 h 1 1 l 1,-1 1,-2 1,-2.004 1,-1.996 v -3 l 1,-3 1,-2 1,-3 1,-2.004 1,-2.996 1,-2 1,-1 1,-1 v 0 h 1 l 1,1 1,1 1,2 1,2 1,3 1,3 1,2 v 3 l 1,3 1,1.996 1,2.004 1,2 1,1 h 1 1 1 l 1,-1 v -2 l 1,-2.004 1,-1.996 1,-3 1,-3 1,-3 1,-2 1,-3 1,-2 v -2 l 1,-1 1,-1 h 1 1 l 1,1 1,1 1,2 1,2 v 3 l 1,3 1,2 1,3 1,3 1,1.996 1,2.004 1,2 1,1 h 1 v 0 h 1 l 1,-2.004 1,-0.996 1,-2.004 1,-3 1,-1.996 1,-3 1,-3 v -3 l 1,-2 1,-2 1,-2 1,-1 1,-1 h 1 1 l 1,1 1,2 v 2 l 1,1.996 1,2.004 1,3 1,3 1,3 1,2 1,3 1,1 v 2 l 1,1 h 1 1 l 1,-1 1,-1.004 1,-1.996 1,-2 1,-2.004 v -3 l 1,-3 1,-1.996 1,-3 1,-3 1,-2 1,-1 1,-2 h 1 1 v 0 l 1,1 1,2 1,2 1,1.996 1,3 1,2.004 1,3 1,3 v 2 l 1,3 1,1 1,2 1,1 h 1 1 l 1,-1 1,-1.004 V 189 l 1,-2 1,-2.004 1,-3 1,-3 1,-3 1,-1.996 1,-3 1,-2 1,-1 v -1 l 1,-1 h 1 l 1,1 1,1 1,1 1,2 1,3 1,1.996 v 3 l 1,3 1,2.004 1,3 1,2 1,1.996 1,1.004 1,1 h 1 1 v -1 l 1,-1.004 1,-1.996 1,-2 1,-3 1,-2.004 1,-3 1,-3 1,-3 V 171 l 1,-2 1,-2 1,-1 h 1 1 1 l 1,2 1,1 v 2 l 1,3 1,1.996 1,3 1,3 1,2.004 1,3 1,2 1,1.996 1,1.004 v 1 h 1 1 l 1,-1 1,-1.004 1,-1.996 1,-3 1,-2 1,-3 v -3 l 1,-2.004 1,-3 1,-1.996 1,-2 1,-2 1,-1 h 1 1 v 1 l 1,1 1,2 1,2 1,2 1,3 1,3 1,1.996 1,3 1,2.004 v 2 l 1,1.996 1,1.004 1,1 h 1 1 l 1,-1 1,-2 1,-2.004 V 186 l 1,-2 1,-3 1,-3 1,-3 1,-2.004 1,-2.996 1,-1 1,-2 v -1 h 1 1 l 1,1 1,1 1,2 1,2 1,2 1,3 1,3 v 1.996 l 1,3 1,2.004 1,3 1,0.996 1,1.004 1,1 h 1 1 v -1 l 1,-2 1,-2.004 1,-1.996 1,-3 1,-2 1,-3 1,-3 1,-2.004 1,-2.996 v -1 l 1,-2 1,-1 h 1 1 l 1,1 1,1 1,2 1,2 v 3 l 1,2 1,3 1,3 1,3 1,1.996 1,2.004 1,2 1,1 v 0 h 1 1 l 1,-1 1,-2 1,-2.004 1,-1.996 1,-3 1,-3 1,-3 v -2 l 1,-3 1,-2 1,-2 1,-1 1,-1 h 1 1 l 1,1 v 1 l 1,2 1,2 1,3 1,3 1,2 1,3 1,3 1,1.996 V 190 l 1,2 1,1 h 1 1 1 l 1,-2.004 1,-0.996 1,-2.004 1,-3 V 183 l 1,-3 1,-3 1,-2 1,-3 1,-2 1,-2 1,-1 1,-1 v 0 h 1 l 1,1 1,2 1,2 1,1.996 1,2.004 1,3 1,3 1,3 v 2 l 1,1.996 1,2.004 1,2 1,1 h 1 1 l 1,-1 1,-1.004 V 190 l 1,-3 1,-2.004 1,-3 1,-1.996 1,-3 1,-3 1,-2 1,-3 v -1 l 1,-1 1,-1 h 1 1 l 1,1 1,2 1,2 1,1.996 1,2.004 v 3 l 1,3 1,3 1,2 1,3 1,1 1,2 1,1 h 1 v 0 l 1,-1 1,-1.004 1,-1.996 1,-2 1,-2.004 1,-3 1,-3 1,-1.996 v -3 l 1,-2 1,-3 1,-1 1,-1 1,-1 h 1 l 1,1 1,1 1,1 v 2 l 1,1.996 1,3 1,3 1,3 1,2.004 1,3 1,2 1,1.996 V 192 l 1,1 h 1 1 l 1,-1 1,-1.004 1,-1.996 1,-2 1,-3 v -2.004 l 1,-3 1,-3 1,-3 1,-1.996 1,-2 1,-2 1,-1 h 1 1 v 0 l 1,1 1,2 1,2 1,3 1,1.996 1,3 1,3 1,2.004 v 3 l 1,2 1,1.996 1,1.004 1,1 h 1 1 l 1,-1 1,-1.004 1,-1.996 v -2 l 1,-3 1,-3 1,-2.004 1,-3 1,-3 1,-1.996 1,-2 1,-1 v -1 l 1,-1 h 1 l 1,1 1,1 1,2 1,2 1,2 1,3 v 1.996 l 1,3 1,3 1,2.004 1,2 1,1.996 1,1.004 1,1 h 1 1 v -1 l 1,-1.004 1,-1.996 1,-3 1,-2 1,-3 1,-3 1,-3 1,-2.004 V 171 l 1,-2 1,-2 1,-1 h 1 1 l 1,1 1,1 1,2 v 2 l 1,2 1,3 1,3 1,1.996 1,3 1,2.004 1,2 1,1.996 1,1.004 v 1 h 1 1 l 1,-1 1,-2 1,-2.004 1,-1.996 1,-2 1,-3 v -3 l 1,-3 1,-2.004 1,-1.996 1,-2 1,-2 1,-1 h 1 1 l 1,1 v 1 l 1,2 1,2 1,3 1,2 1,3 1,3 1,1.996 1,3 V 190 l 1,0.996 1,2.004 h 1 1 1 l 1,-1 1,-2 1,-2.004 V 186 l 1,-3 1,-3 1,-2 1,-3 1,-3 1,-2 1,-2 1,-1 1,-1 v 0 h 1 l 1,1 1,1 1,2 1,2 1,3 1,2 1,3 v 3 l 1,3 1,1.996 1,2.004 1,2 1,1 h 1 1 1 v -1 l 1,-2 1,-2.004 1,-3 1,-1.996 1,-3 1,-3 1,-2 1,-3 1,-2 v -2 l 1,-1 1,-1 h 1 1 l 1,1 1,2 1,2 1,1.996 V 175 l 1,3 1,3 1,2 1,3 1,1.996 1,2.004 1,2 1,1 v 0 h 1 1 l 1,-2.004 1,-0.996 1,-2.004 1,-3 1,-3 1,-1.996 1,-3 v -3 l 1,-2 1,-2 1,-2 1,-1 1,-1 h 1 1 l 1,1 v 2 l 1,2 1,1.996 1,2.004 1,3 1,3 1,3 1,2 1,1.996 1,2.004 v 2 l 1,1 h 1 1 l 1,-1 1,-1.004 1,-1.996 1,-2 1,-2.004 v -3 l 1,-3 1,-1.996 1,-3 1,-2 1,-2 1,-2 1,-1 1,-1 v 0 l 1,1 1,1 1,1 1,2 1,1.996 1,3 1,3 1,2.004 1,3 v 3 l 1,2 1,1.996 1,1.004 1,1 h 1 1 l 1,-1 1,-1.004 V 189 l 1,-2 1,-2.004 1,-3 1,-3 1,-3 1,-1.996 1,-3 1,-2 v -2 l 1,-1 h 1 1 1 l 1,1 1,2 1,2 1,1.996 1,3 v 3 l 1,3 1,2.004 1,3 1,2 1,1.996 1,1.004 1,1 h 1 v 0 l 1,-1 1,-1.004 1,-1.996 1,-2 1,-3 1,-2.004 1,-3 1,-3 1,-3 V 171 l 1,-2 1,-1 1,-1 1,-1 h 1 l 1,1 1,1 1,1 v 3 l 1,2 1,3 1,1.996 1,3 1,3 1,2.004 1,2 1,1.996 V 192 l 1,1 h 1 1 l 1,-1 1,-1.004 1,-1.996 1,-3 1,-2 1,-3 v -3 l 1,-2.004 1,-3 1,-1.996 1,-2 1,-2 1,-1 h 1 1 v 1 l 1,1 1,1 1,3 1,2 1,3 1,1.996 1,3 1,3 V 187 l 1,2 1,1.996 1,1.004 1,1 h 1 1 l 1,-1 1,-2 1,-2.004 V 186 l 1,-2 1,-3 1,-3 1,-3 1,-2.004 1,-1.996 1,-2 1,-2 v -1 h 1 1 l 1,1 1,1 1,2 1,2 1,3 1,2 v 3 l 1,3 1,1.996 1,3 1,2.004 1,0.996 1,2.004 h 1 1 1 v -1 l 1,-2 1,-2.004 1,-1.996 1,-3 1,-3 1,-2 1,-3 1,-3 v -2 l 1,-2 1,-1 1,-1 h 1 1 l 1,1 1,1 1,2 1,2 v 3 l 1,2 1,3 1,3 1,1.996 1,3 1,2.004 1,0.996 1,2.004 v 0 h 1 1 l 1,-1 1,-2 1,-2.004 1,-1.996 1,-3 1,-3 v -3 l 1,-2 1,-3 1,-2 1,-2 1,-1 1,-1 h 1 1 l 1,1 v 2 l 1,1 1,2.996 1,2.004 1,3 1,3 1,2 1,3 1,1.996 V 190 l 1,2 1,1 h 1 1 1 l 1,-2.004 1,-0.996 1,-2.004 v -3 l 1,-1.996 1,-3 1,-3 1,-3 1,-2 1,-2 1,-2 1,-1 1,-1 v 0 h 1 l 1,1 1,2 1,1 1,2.996 1,2.004 1,3 1,3 v 2 l 1,3 1,1.996 1,2.004 1,2 1,1 h 1 1 l 1,-1 1,-1.004 V 190 l 1,-3 1,-2.004 1,-3 1,-1.996 1,-3 1,-3 1,-2 1,-2 v -2 l 1,-1 1,-1 h 1 1 l 1,1 1,2 1,2 1,1.996 v 3 l 1,2.004 1,3 1,3 1,2 1,3 1,1.996 1,1.004"
           stroke="#a5a5a5"
           stroke-width="2"
           stroke-linecap="round"
           stroke-linejoin="round"
           stroke-miterlimit="10"
           fill="none"
           id="path2587" />
      </g>
      <g
         clip-path="url(#clip5)"
         id="g2593">
        <path
           d="m -379,-35682 1,45814 1,-10301.004 1,161.004 1,65.9961 1,23 V 80 l 1,-12 1,-16.0039 1,-17.9961 1,-16 1,-13 1,-10 1,-5 1,-2.0039 V -10 l 1,3.99609 1,7.00391 1,8 1,10 1,11 1,11 1,12 1,12 1,12 v 12 l 1,11 1,12 1,11 1,10.996 1,10.004 1,9.996 1,10.004 1,9 v 9 l 1,9 1,8 1,8 1,7.996 1,7.004 1,7.996 1,7.004 1,6 1,6.996 v 6 l 1,6 1,6.004 1,6 1,6 1,4.996 1,5.004 1,6 1,5 v 3.996 l 1,5.004 1,5 1,4 1,5 1,4 1,4 1,4 1,3.996 V 344 l 1,4 1,3 1,3.996 1,3 1,4.004 1,3 1,3.996 1,3 1,3 v 3 l 1,3 1,3 1,3 1,2.004 1,3 1,3 1,3 1,2 v 3 l 1,2 1,3 1,1.996 1,2.004 1,2 1,3 1,1.996 1,2.004 v 2 l 1,2 1,2 1,2 1,2 1,1.996 1,2.004 1,2 1,1.996 1,1.004 v 1.996 l 1,2.004 1,2 1,1 1,2 1,1 1,2 1,1.996 1,1.004 v 2 l 1,1 1,1 1,2 1,1 1,2 1,0.996 1,1.004 1,1.996 1,1.004 v 1 l 1,0.996 1,2.004 1,0.996 1,1.004 1,1 1,0.996 1,1.004 1,1.996 V 481 l 1,1 1,0.996 1,1.004 1,1 1,0.996 1,1.004 1,1 1,1 v 1 l 1,1 1,1 1,1 h 1 l 1,0.996 1,1.004 1,1 1,0.996 1,1.004 v 1 h 1 l 1,0.996 1,1.004 1,1 1,0.996 h 1 l 1,1.004 1,1 v 0.996 h 1 l 1,1.004 1,1 h 1 l 1,0.996 1,1.004 h 1 l 1,1 v 0.996 h 1 l 1,1.004 h 1 l 1,1 1,0.996 h 1 l 1,1.004 h 1 l 1,1 v 0.996 h 1 l 1,1.004 h 1 l 1,1 h 1 l 1,1 1,1 h 1 v 1 h 1 l 1,1 h 1 l 1,1 h 1 l 1,1 h 1 l 1,1 v 0 l 1,1 h 1 l 1,0.996 h 1 l 1,1.004 h 1 l 1,1 h 1 1 v 0.996 h 1 l 1,1.004 h 1 l 1,1 h 1 l 1,0.996 h 1 1 V 536 h 1 l 1,1 h 1 1 l 1,0.996 h 1 l 1,1.004 h 1 1 v 1 h 1 1 l 1,0.996 h 1 l 1,1.004 h 1 1 l 1,1 v 0 h 1 l 1,0.996 h 1 1 l 1,1.004 h 1 1 l 1,1 v 0 h 1 l 1,0.996 h 1 1 l 1,1.004 h 1 1 1 l 1,1 v 0 h 1 l 1,0.996 h 1 1 l 1,1.004 h 1 1 1 v 1 h 1 1 1 l 1,1 h 1 1 1 l 1,1 v 0 h 1 1 l 1,1 h 1 1 1 l 1,1 h 1 1 v 0 l 1,1 h 1 1 1 1 l 1,0.996 h 1 1 v 0 l 1,1.004 h 1 1 1 1 l 1,1 h 1 1 1 v 0 l 1,0.996 h 1 1 1 1 1 l 1,1.004 h 1 v 0 h 1 1 l 1,1 h 1 1 1 1 1 v 0.996 h 1 1 1 1 1 l 1,1.004 h 1 1 1 v 0 h 1 1 l 1,1 h 1 1 1 1 1 v 0 h 1 l 1,0.996 h 1 1 1 1 1 1 v 0 h 1 l 1,1.004 h 1 1 1 1 1 1 1 v 0 h 1 1 1 1 1 l 1,1 h 1 1 v 0 h 1 1 1 1 1 1 1 1 v 0 h 1 1 1 1 1 1 1 1 1 v 0 h 1 1 1 1 1 1 1 1 v 0 h 1 1 l 1,-1 h 1 1 1 1 1 1 v 0 h 1 1 l 1,-1.004 h 1 1 1 1 1 v 0 h 1 L -12,566 h 1 1 1 1 1 l 1,-1 v 0 h 1 1 l 1,-1.004 h 1 1 1 L 1,563 h 1 1 v -1 h 1 1 l 1,-1.004 H 7 8 L 9,560 h 1 l 1,-1 v 0 h 1 l 1,-1.004 h 1 L 15,557 h 1 l 1,-1 h 1 l 1,-1 v 0 l 1,-1 h 1 l 1,-1 h 1 l 1,-1 h 1 l 1,-1 1,-1.004 h 1 V 549 h 1 l 1,-1 1,-1.004 h 1 L 33,546 h 1 l 1,-1 1,-1.004 V 543 h 1 l 1,-1 1,-1.004 h 1 l 1,-0.996 1,-1 1,-1.004 1,-0.996 1,-1 v 0 l 1,-1.004 1,-0.996 1,-1 1,-1.004 1,-0.996 1,-1 1,-1.004 1,-0.996 v -1 l 1,-1 1,-1 1,-1 1,-1 1,-1 1,-1 1,-1 1,-1 v -1.004 l 1,-0.996 1,-1 1,-1.004 1,-0.996 1,-1 1,-1.004 1,-0.996 1,-1 1,-1.004 V 508 l 1,-1 1,-1.004 1,-0.996 1,-1 1,-1.004 1,-1.996 1,-1.004 1,-0.996 v -1 l 1,-1.004 1,-1.996 1,-1.004 1,-0.996 1,-2 1,-1 1,-1 1,-2 v -1.004 l 1,-0.996 1,-2.004 1,-0.996 1,-1 1,-2 1,-1 1,-1.004 1,-0.996 1,-1 v -1.004 l 1,-0.996 1,-1 1,-1.004 1,-0.996 1,-1 1,-2 1,-1 1,-1.004 V 464 l 1,-1 1,-1 1,-1 1,-2 1,-1 1,-1 1,-2 1,-1.004 1,-1.996 v -1.004 l 1,-1.996 1,-1.004 1,-0.996 1,-2.004 1,-0.996 1,-2.004 1,-0.996 1,-2.004 V 438 l 1,-1 1,-1.004 1,-1.996 1,-1.004 1,-0.996 1,-1 1,-1.004 h 1 V 429 l 1,-1 1,-1 1,-1 1,-1 1,-1 1,-1 1,-1.004 1,-0.996 1,-1 v -1.004 l 1,-1.996 1,-1.004 1,-0.996 1,-2.004 1,-1.996 1,-1.004 1,-1.996 1,-1.004 V 405 l 1,-2 1,-1 1,-2 1,-1 1,-1 1,-1 1,-1 1,-1 v -1 l 1,-1 1,-1 h 1 l 1,-1 h 1 1 l 1,-1.004 h 1 L 162,389 v 0 l 1,-1 1,-1.004 1,-0.996 1,-1 1,-1.004 1,-0.996 1,-2.004 1,-0.996 v -2.004 l 1,-1.996 1,-1.004 1,-1.996 1,-2 1,-1 1,-2 1,-1 1,-2 v -1 l 1,-1 1,-1 h 1 l 1,-1 h 1 l 1,-1 h 1 1 1 v 0 h 1 1 1 l 1,-1 h 1 l 1,-1.004 h 1 L 195,356 v -1.004 l 1,-0.996 1,-2.004 1,-0.996 1,-2.004 1,-1.996 1,-2 1,-2.004 1,-1.996 1,-1.004 V 338 l 1,-1.004 1,-1.996 1,-1 h 1 l 1,-1 h 1 1 1 v 0 l 1,1 h 1 1 l 1,1 h 1 l 1,1 h 1 1 v -1 h 1 l 1,-1 1,-1 1,-1 1,-2 1,-2 1,-1 1,-2 1,-2.004 V 321 l 1,-2 1,-2.004 1,-1.996 1,-1.004 1,-0.996 1,-1 1,-1.004 h 1 v 0 h 1 l 1,1.004 h 1 l 1,1 1,0.996 1,1.004 1,1 1,0.996 v 0 l 1,1.004 h 1 1 l 1,-1.004 1,-0.996 1,-1 1,-1.004 1,-1.996 1,-2 v -2.004 l 1,-1.996 1,-2 1,-3 1,-2 1,-1 1,-2 1,-1 1,-2 v 0 l 1,-1 h 1 l 1,1 h 1 l 1,0.996 1,2.004 1,1 1,1 1,1 v 2 l 1,0.996 1,1.004 h 1 l 1,1 h 1 l 1,-1 1,-1.004 1,-0.996 v -1 l 1,-2 1,-2 1,-2.004 1,-1.996 1,-3 1,-2 1,-2.004 1,-1.996 v -1.004 l 1,-0.996 1,-1 h 1 l 1,-1.004 1,1.004 1,1 1,0.996 1,1.004 1,1 v 2 l 1,1.996 1,1.004 1,1.996 1,1.004 1,1 h 1 l 1,0.996 h 1 V 293 l 1,-1 1,-1.004 1,-1.996 1,-2 1,-2.004 1,-3 1,-1.996 1,-2 v -3 l 1,-2.004 1,-0.996 1,-2 1,-1 h 1 1 1 l 1,1 1,1 v 1 l 1,2 1,1.996 1,2.004 1,0.996 1,2.004 1,2 1,1 1,0.996 V 286 h 1 1 l 1,-1.004 1,-0.996 1,-1 1,-2 1,-2.004 1,-3 V 274 l 1,-2 1,-3 1,-2 1,-2 1,-1 1,-1 1,-1.004 h 1 1 V 263 l 1,1 1,1 1,2 1,2 1,2 1,1.996 1,2.004 1,2 v 1.996 l 1,1.004 1,1 h 1 1 l 1,-1 1,-1.004 1,-0.996 1,-2.004 1,-1.996 v -2 l 1,-3 1,-2 1,-3 1,-2.004 1,-1.996 1,-2 1,-1 1,-1.004 v 0 h 1 l 1,1.004 1,1 1,0.996 1,2.004 1,2 1,2 1,2 v 3 l 1,2 1,0.996 1,2.004 1,0.996 1,1.004 h 1 1 l 1,-1.004 1,-0.996 v -2.004 l 1,-1.996 1,-2 1,-2 1,-3 1,-2.004 1,-1.996 1,-2 1,-2.004 V 254 h 1 l 1,-1.004 h 1 l 1,1.004 1,1 1,0.996 1,2.004 1,2 v 1.996 l 1,2.004 1,2 1,3 1,2 1,1 1,2 h 1 l 1,1 h 1 v -1 l 1,-1.004 1,-1.996 1,-2 1,-2 1,-2 1,-3.004 1,-1.996 1,-3 v -2 l 1,-2.004 1,-1.996 1,-1.004 h 1 1 1 l 1,1.004 1,1 1,2 v 1.996 l 1,2.004 1,3 1,2 1,2 1,2 1,2 1,2 1,1 v 0.996 h 1 l 1,-0.996 1,-1 1,-1 1,-2 1,-2 1,-2 1,-2.004 v -3 l 1,-1.996 1,-3 1,-2 1,-1 1,-1.004 1,-0.996 h 1 1 l 1,0.996 V 251 l 1,1 1,2 1,3 1,1.996 1,2.004 1,3 1,2 1,2 v 2 l 1,1 h 1 l 1,1 1,-1 1,-1 1,-1 1,-2 1,-2 v -2 l 1,-2 1,-3 1,-3 1,-2.004 1,-1.996 1,-2 1,-1 1,-1.004 h 1 v 0 h 1 l 1,1.004 1,1.996 1,2.004 1,2 1,3 1,1.996 1,2.004 v 3 l 1,2 1,2 1,1 1,1 h 1 1 1 l 1,-1 v -2 l 1,-2 1,-2 1,-2 1,-3 1,-2.004 1,-3 1,-1.996 1,-2 1,-1 v -1.004 L 506,246 h 1 l 1,0.996 1,1.004 1,1 1,2 1,1.996 1,3 V 258 l 1,3 1,2 1,2 1,2 1,2 1,1 h 1 1 l 1,-1 v -1 l 1,-1 1,-2 1,-2 1,-3 1,-2 1,-3 1,-2.004 1,-1.996 v -2 l 1,-2.004 1,-0.996 1,-1 h 1 1 l 1,1 1,2 1,1 v 3 l 1,2 1,1.996 1,3 1,2.004 1,3 1,2 1,1 1,1 1,1 v 0 h 1 l 1,-1 1,-1 1,-2 1,-2 1,-2 1,-2.004 1,-3 V 254 l 1,-3 1,-2 1,-1 1,-2 h 1 l 1,-1 1,1 h 1 v 2 l 1,1 1,2 1,3 1,1.996 1,2.004 1,3 1,2 1,2 1,2 v 1 l 1,1 h 1 1 l 1,-1 1,-1 1,-2 1,-2 1,-2 v -2.004 l 1,-3 1,-3 1,-1.996 1,-2 1,-2.004 1,-0.996 1,-1 1,-1.004 h 1 V 245 l 1,1 1,2 1,1.996 1,2.004 1,2 1,3 1,1.996 1,3 V 264 l 1,2 1,1 1,1 1,1 h 1 l 1,-1 1,-1 1,-1 v -2 l 1,-2.004 1,-3 1,-1.996 1,-3 1,-2 1,-2.004 1,-1.996 1,-2 1,-1 v 0 h 1 1 l 1,1 1,2 1,1.996 1,2.004 1,2 1,3 v 1.996 l 1,3 1,2.004 1,2 1,1 1,1 1,1 h 1 l 1,-1 v -1 l 1,-1 1,-2 1,-2.004 1,-1.996 1,-3 1,-3 1,-2 1,-2.004 1,-1.996 v -2 l 1,-1 1,-1.004 h 1 1 l 1,1.004 1,1 1,2 1,1.996 v 3 l 1,2.004 1,3 1,2 1,3 1,2 1,1 1,2 h 1 v 1 l 1,-1 h 1 l 1,-2 1,-1 1,-2 1,-3 1,-2 1,-3 1,-2.004 V 251 l 1,-2 1,-2.004 1,-0.996 1,-1 h 1 1 l 1,1 1,0.996 V 248 l 1,1.996 1,3 1,2.004 1,3 1,2 1,1.996 1,3.004 1,1 1,2 v 0 l 1,1 h 1 l 1,-1 1,-1 1,-2 1,-2 1,-2 1,-3 v -2.004 l 1,-3 1,-1.996 1,-3 1,-1.004 1,-1.996 1,-1.004 h 1 1 v 0 l 1,2.004 1,0.996 1,2.004 1,2 1,3 1,1.996 1,3 1,2.004 1,2 v 2 l 1,2 1,1 h 1 l 1,1 1,-1 1,-1 1,-1 1,-2 v -2.004 l 1,-3 1,-1.996 1,-3 1,-2 1,-2.004 1,-1.996 1,-2 1,-1 v 0 h 1 1 l 1,1 1,0.996 1,2.004 1,2 1,3 1,1.996 1,3 V 261 l 1,2 1,2 1,2 1,1 1,1 h 1 l 1,-1 1,-1 v -1 l 1,-2 1,-2.004 1,-3 1,-1.996 1,-3 1,-2 1,-3 1,-2.004 1,-0.996 v -1 l 1,-1.004 h 1 1 l 1,1.004 1,1 1,2 1,1.996 1,2.004 v 3 l 1,2 1,3 1,1.996 1,2.004 1,2 1,1 1,1 h 1 v 0 h 1 l 1,-2 1,-1 1,-2 1,-3 1,-2 1,-3 1,-2.004 1,-1.996 v -2 l 1,-2.004 1,-0.996 1,-1 1,-1.004 1,1.004 h 1 l 1,1.996 1,1.004 v 1.996 l 1,2.004 1,3 1,2 1,3 1,1.996 1,2.004 1,2 1,1 v 1 l 1,1 h 1 l 1,-1 1,-1 1,-2 1,-2 1,-2 1,-3 1,-2.004 v -3 l 1,-1.996 1,-3 1,-1.004 1,-1.996 1,-1.004 h 1 1 1 V 245 l 1,1.996 1,2.004 1,2 1,1.996 1,3 1,3 1,2.004 1,2 v 2 l 1,2 1,1 h 1 1 1 l 1,-1 1,-1 1,-2 1,-2.004 v -3 l 1,-1.996 1,-3 1,-2 1,-2.004 1,-1.996 1,-2 1,-1 1,-1.004 v 0 l 1,1.004 1,1 1,0.996 1,2.004 1,2 1,3 1,1.996 1,3 1,2.004 v 2 l 1,2 1,2 1,1 1,1 h 1 l 1,-1 1,-1 1,-1 v -2 l 1,-2.004 1,-3 1,-1.996 1,-3 1,-2 1,-2.004 1,-3 1,-0.996 v -1 l 1,-1.004 h 1 1 l 1,1.004 1,1 1,2 1,1.996 1,2.004 1,3 v 2 l 1,3 1,1.996 1,2.004 1,2 1,1 1,1 h 1 1 v 0 l 1,-2 1,-1 1,-2 1,-3 1,-2 1,-2.004 1,-3 1,-1.996 v -2 l 1,-2.004 1,-0.996 1,-1 1,-1.004 1,1.004 h 1 l 1,1 1,2 1,1.996 V 252 l 1,3 1,2 1,3 1,1.996 1,2.004 1,2 1,1 1,1 v 1 l 1,-1 h 1 l 1,-1 1,-2 1,-2 1,-2 1,-3 1,-2.004 1,-3 V 251 l 1,-3 1,-1.004 1,-1.996 1,-1.004 h 1 1 1 l 1,1.004 v 1.996 l 1,2.004 1,2 1,1.996 1,3 1,2.004 1,3 1,2 1,2 v 2 l 1,1 h 1 1 1 l 1,-1 1,-1 1,-2 1,-2.004 1,-3 V 257 l 1,-3 1,-2 1,-2.004 1,-1.996 1,-2 1,-1 1,-1.004 h 1 V 245 l 1,1 1,0.996 1,2.004 1,2 1,1.996 1,3 1,2.004 1,3 v 2 l 1,2 1,2 1,1 h 1 l 1,1 1,-1 1,-1 1,-1 1,-2 v -2.004 l 1,-1.996 1,-3 1,-3 1,-2 1,-2.004 1,-1.996 1,-2 1,-1 v -1.004 h 1 1 l 1,1.004 1,1 1,2 1,1.996 1,2.004 1,3 v 2 l 1,3 1,1.996 1,2.004 1,2 1,1 1,1 h 1 1 1 v -2 l 1,-1 1,-2 1,-2 1,-3 1,-2.004 1,-3 1,-1.996 1,-2 v -2.004 l 1,-0.996 1,-1 1,-1.004 1,1.004 h 1 l 1,1 1,2 1,1.996 1,2.004 v 3 l 1,2 1,3 1,1.996 1,2.004 1,2 1,1 1,1 1,1 v -1 h 1 l 1,-1 1,-2 1,-2 1,-2 1,-3 1,-2.004 1,-3 V 251 l 1,-2 1,-2.004 1,-1.996 1,-1.004 h 1 1 1 l 1,1.004 1,1.996 V 249 l 1,2 1,1.996 1,3 1,2.004 1,3 1,2 1,2 1,1 v 2 h 1 1 1 l 1,-1 1,-1 1,-2 1,-2.004 1,-3 V 257 l 1,-3 1,-2 1,-2.004 1,-1.996 1,-2 1,-1 1,-1.004 h 1 l 1,1.004 v 1 l 1,0.996 1,2.004 1,2 1,1.996 1,3 1,2.004 1,3 1,2 v 2 l 1,2 1,1 h 1 l 1,1 1,-1 1,-1 1,-1 1,-2 1,-2.004 V 260 l 1,-3 1,-2 1,-3 1,-2.004 1,-1.996 1,-2 1,-1 1,-1.004 v 0 h 1 l 1,1.004 1,1 1,2 1,1.996 1,2.004 1,2 1,3 v 1.996 l 1,3 1,2.004 1,2 1,1 1,1 h 1 1 1 l 1,-2 v -1 l 1,-2 1,-2 1,-3 1,-2.004 1,-3 1,-1.996 1,-2 1,-2.004 V 246 l 1,-1 1,-1.004 h 1 l 1,1.004 1,1 1,2 1,1.996 1,2.004 v 2 l 1,3 1,1.996 1,3 1,2.004 1,2 1,1 1,1 1,1 h 1 v -1 l 1,-1 1,-2 1,-2 1,-2 1,-2.004 1,-3 1,-3 1,-1.996 v -2 l 1,-2.004 1,-1.996 1,-1.004 h 1 1 1 l 1,1.004 1,1.996 V 248 l 1,3 1,1.996 1,3 1,2.004 1,3 1,2 1,2 1,1 1,2 v 0 h 1 1 l 1,-1 1,-1 1,-2 1,-2.004 1,-1.996 1,-3 v -2 l 1,-3 1,-2.004 1,-1.996 1,-2 1,-1 h 1 l 1,-1.004 1,1.004 1,1 v 0.996 l 1,2.004 1,2 1,1.996 1,3 1,2.004 1,3 1,2 1,2 v 2 l 1,1 h 1 l 1,1 1,-1 1,-1 1,-1 1,-2 1,-2.004 V 260 l 1,-3 1,-2 1,-3 1,-2.004 1,-1.996 1,-2 1,-1 1,-1.004 h 1 v 0 l 1,1.004 1,1 1,0.996 1,2.004 1,3 1,2 1,3 1,1.996 v 3 l 1,2.004 1,2 1,1 1,1 h 1 1 1 l 1,-1 v -2 l 1,-2 1,-2 1,-3 1,-2.004 1,-3 1,-1.996 1,-2 1,-2.004 1,-0.996 v -1 l 1,-1.004 h 1 l 1,1.004 1,1 1,2 1,1.996 1,2.004 1,2 v 3 l 1,1.996 1,3 1,2.004 1,2 1,1 1,1 1,1 h 1 l 1,-1 v -1 l 1,-2 1,-2 1,-2 1,-2.004 1,-3 1,-1.996 1,-3 1,-2 v -2.004 l 1,-1.996 1,-1.004 h 1 1 1 l 1,1.004 1,1 1,2 v 3 l 1,1.996 1,2.004 1,3 1,2 1,3 1,2 1,1 1,2 h 1 v 0 h 1 l 1,-1 1,-1 1,-2 1,-2.004 1,-1.996 1,-3 1,-2 v -3 l 1,-2.004 1,-1.996 1,-2 1,-1 h 1 l 1,-1.004 1,1.004 1,1 v 0.996 l 1,2.004 1,2 1,1.996 1,2.004 1,3 1,2 1,3 1,2 1,1 v 2 h 1 l 1,1 1,-1 1,-1 1,-1 1,-2 1,-2.004 1,-1.996 v -3 l 1,-2 1,-3 1,-2.004 1,-1.996 1,-2 1,-1 1,-1.004 h 1 v 0 h 1 l 1,2.004 1,0.996 1,2.004 1,3 1,2 1,3 1,1.996 1,3 V 264 l 1,2 1,1 1,1 h 1 1 1 l 1,-1 1,-2 v -2 l 1,-2 1,-2.004 1,-3 1,-1.996 1,-3 1,-2 1,-2.004 1,-0.996 1,-1 v -1.004 h 1 l 1,1.004 1,1 1,2 1,1.996 1,2.004 1,2 1,3 v 1.996 l 1,3 1,2.004 1,2 1,1 1,1 1,1 h 1 l 1,-1 v -1 l 1,-2 1,-2 1,-2 1,-2.004 1,-3 1,-1.996 1,-3 1,-2 1,-2.004 V 245 l 1,-1.004 h 1 1 1 l 1,1.004 1,1 1,2 1,1.996 v 3 l 1,2.004 1,3 1,2 1,3 1,2 1,1 1,1 1,1 v 0 h 1 l 1,-1 1,-1 1,-2 1,-2.004 1,-1.996 1,-3 1,-2 1,-3 v -2.004 l 1,-1.996 1,-2 1,-1 h 1 l 1,-1.004 1,1.004 h 1 l 1,1.996 V 248 l 1,3 1,1.996 1,2.004 1,3 1,2 1,3 1,2 1,1 1,2 v 0 l 1,1 1,-1 h 1 l 1,-2 1,-2 1,-2.004 1,-1.996 1,-2 v -3 l 1,-3 1,-2.004 1,-1.996 1,-2 1,-1 1,-1.004 h 1 1 v 0 l 1,2.004 1,0.996 1,2.004 1,3 1,2 1,3 1,1.996"
           stroke="#ed7d31"
           stroke-width="2"
           stroke-linecap="round"
           stroke-linejoin="round"
           stroke-miterlimit="10"
           fill="none"
           id="path2591" />
      </g>
      <g
         clip-path="url(#clip6)"
         id="g2597">
        <path
           d="m -379,-33206 1,41281 1,-8128 1,-77 1,57 1,23.9961 V -46 l 1,-10 1,-14 1,-15 1,-13 1,-10 1,-7 1,-2 1,0.996 V -112 l 1,7 1,8.9961 1,11.0039 1,12 1,11.9961 1,14.0039 1,13 1,13.9961 L -357,-7 V 5.99609 L -356,19 l 1,12.9961 1,12 1,12.0039 1,10.9961 1,11.0039 1,10 1,10.9961 v 8.9999 l 1,10.004 1,9 1,8 1,9 1,8 1,7.996 1,7.004 1,7.996 1,7.004 v 6 l 1,6.996 1,7.004 1,6 1,6 1,6 1,5 1,6 1,4.996 V 242 l 1,5 1,5 1,5 1,4 1,5 1,4 1,5 1,4 v 4 l 1,4 1,3.996 1,4.004 1,4 1,3 1,4 1,3 1,4 1,3 v 3.996 l 1,3 1,3 1,3 1,3 1,3 1,3.004 1,3 1,2 v 2.996 l 1,3 1,2.004 1,3 1,2 1,3 1,1.996 1,3 1,2.004 v 2 l 1,3 1,2 1,2 1,2 1,2 1,1.996 1,2.004 1,2 1,1.996 V 389 l 1,2 1,1 1,2 1,1.996 1,2.004 1,0.996 1,2.004 1,2 v 1 l 1,2 1,1 1,2 1,0.996 1,2.004 1,0.996 1,2.004 1,0.996 1,2.004 v 0.996 l 1,1.004 1,1.996 1,1.004 1,1 1,0.996 1,2.004 1,0.996 1,1.004 v 1 l 1,0.996 1,2.004 1,1 1,1 1,1 1,1 1,1 1,1 v 1 l 1,1 1,1 1,1 1,1 1,0.996 1,1.004 1,1 1,0.996 1,1.004 v 1 h 1 l 1,0.996 1,1.004 1,1 1,0.996 1,1.004 h 1 l 1,1 v 0.996 l 1,1.004 1,1 h 1 l 1,0.996 1,1.004 h 1 l 1,1 1,0.996 V 464 h 1 l 1,1 1,1 h 1 l 1,1 h 1 l 1,1 1,1 h 1 v 1 l 1,1 h 1 l 1,1 h 1 l 1,1 1,0.996 h 1 l 1,1.004 v 0 l 1,1 h 1 l 1,0.996 1,1.004 h 1 l 1,1 h 1 l 1,0.996 v 0 l 1,1.004 h 1 l 1,1 h 1 l 1,0.996 h 1 l 1,1.004 h 1 l 1,1 v 0 l 1,0.996 h 1 l 1,1.004 h 1 l 1,1 h 1 l 1,0.996 h 1 v 0 l 1,1.004 h 1 l 1,1 h 1 l 1,0.996 h 1 l 1,1.004 h 1 1 v 1 h 1 l 1,0.996 h 1 1 l 1,1.004 h 1 l 1,1 h 1 v 0 l 1,1 h 1 1 l 1,1 h 1 1 l 1,1 h 1 v 1 h 1 1 l 1,1 h 1 1 l 1,1 h 1 1 l 1,1 v 0 h 1 l 1,1 h 1 1 1 l 1,1 h 1 1 v 1 h 1 1 l 1,1 h 1 1 1 l 1,0.996 h 1 v 0 l 1,1.004 h 1 1 1 l 1,1 h 1 1 1 l 1,0.996 v 0 h 1 1 l 1,1.004 h 1 1 1 l 1,1 h 1 v 0 h 1 l 1,0.996 h 1 1 1 l 1,1.004 h 1 1 1 v 0 l 1,1 h 1 1 1 1 l 1,0.996 h 1 1 v 0 h 1 l 1,1.004 h 1 1 1 1 l 1,1 h 1 v 0 h 1 1 1 l 1,0.996 h 1 1 1 1 1 V 522 h 1 1 1 1 1 1 l 1,1 h 1 v 0 h 1 1 1 1 1 l 1,0.996 h 1 1 v 0 h 1 1 1 1 1 l 1,1.004 h 1 1 1 v 0 h 1 1 1 1 1 1 1 l 1,1 v 0 h 1 1 1 1 1 1 1 1 v 0 h 1 1 1 1 1 1 1 1 1 v 0 h 1 1 1 1 1 1 l 1,-1 h 1 v 0 h 1 1 1 1 1 1 1 1 l 1,-1.004 v 0 h 1 1 1 1 1 L -16,523 h 1 1 v 0 h 1 l 1,-1 h 1 1 1 l 1,-1.004 h 1 1 v 0 L -5,520 h 1 1 l 1,-1 h 1 1 l 1,-1.004 H 2 3 V 517 h 1 1 l 1,-1 h 1 l 1,-1.004 h 1 1 L 11,514 v 0 l 1,-1 h 1 l 1,-1.004 h 1 L 16,511 h 1 l 1,-1 h 1 v -1.004 L 20,508 h 1 l 1,-1 1,-1 h 1 l 1,-1 1,-1 h 1 l 1,-1 v -1 h 1 l 1,-1 1,-1 1,-1 h 1 l 1,-1 1,-1 1,-1 v -1.004 h 1 l 1,-0.996 1,-1 1,-1.004 1,-0.996 1,-1 h 1 l 1,-1.004 1,-0.996 v -1 l 1,-1.004 1,-0.996 1,-1 1,-1.004 1,-0.996 1,-1 1,-1.004 1,-0.996 v -1 l 1,-1.004 1,-0.996 1,-1 1,-1.004 1,-0.996 1,-1 1,-1 1,-1 v -2 l 1,-1 1,-1 1,-1 1,-1 1,-2 1,-1 1,-1.004 1,-0.996 1,-1 v -2 l 1,-1 1,-1.004 1,-0.996 1,-1 1,-1.004 1,-1.996 1,-1.004 1,-0.996 v -1 l 1,-1.004 1,-0.996 1,-2 1,-1 1,-1 1,-1 1,-1 1,-2 v -1 l 1,-1 1,-2 1,-1.004 1,-0.996 1,-2.004 1,-0.996 1,-2.004 1,-0.996 1,-2.004 V 421 l 1,-2.004 1,-0.996 1,-2.004 1,-0.996 1,-2.004 1,-0.996 1,-1 1,-2 v -1 l 1,-1 1,-2 1,-1 1,-1 1,-1 1,-1 1,-1 1,-2 1,-1 v -1.004 l 1,-0.996 1,-1 1,-1.004 1,-0.996 1,-1 1,-2 1,-1 1,-1.004 V 385 l 1,-1.004 1,-1.996 1,-1.004 1,-1.996 1,-1 1,-2 1,-2 1,-1 v -2 l 1,-1 1,-2 1,-1.004 1,-1.996 1,-1.004 1,-0.996 1,-2.004 1,-0.996 1,-1 v -1.004 l 1,-0.996 1,-1 h 1 l 1,-1.004 1,-0.996 1,-1 1,-1.004 1,-0.996 v -1 l 1,-1.004 1,-0.996 1,-1 1,-1.004 1,-0.996 1,-2 1,-1 1,-2 v -2 l 1,-1 1,-2.004 1,-1.996 1,-2 1,-2.004 1,-0.996 1,-2.004 1,-0.996 1,-2.004 V 322 l 1,-1 1,-1.004 1,-0.996 1,-1 h 1 l 1,-1.004 h 1 L 170,316 v 0 h 1 l 1,-1 h 1 l 1,-1 h 1 l 1,-1 1,-1 1,-1 v -1 l 1,-2 1,-1 1,-2 1,-1 1,-2 1,-2.004 1,-1.996 1,-2 1,-2.004 V 292 l 1,-1.004 1,-1.996 1,-1.004 1,-0.996 1,-1 1,-1.004 1,-0.996 h 1 v 0 l 1,-1 h 1 l 1,1 h 1 1 1 1 1 l 1,-1 v 0 l 1,-1.004 1,-0.996 1,-1 1,-2 1,-1 1,-2 1,-2 1,-2.004 V 269 l 1,-3 1,-2 1,-2.004 1,-1.996 1,-1.004 1,-1.996 1,-1.004 1,-0.996 v -1 h 1 1 1 1 l 1,1 h 1 l 1,0.996 1,1.004 h 1 v 1 h 1 l 1,0.996 1,-0.996 h 1 l 1,-1 1,-1.004 1,-0.996 1,-2.004 V 252 l 1,-2 1,-3 1,-2 1,-2 1,-3 1,-2 1,-2.004 1,-0.996 v -2.004 l 1,-0.996 1,-1 h 1 l 1,-1.004 1,1.004 h 1 l 1,1 1,0.996 1,1.004 v 1 l 1,0.996 1,1.004 1,1 1,0.996 h 1 l 1,1.004 1,-1.004 h 1 V 238 l 1,-2.004 1,-0.996 1,-2.004 1,-3 1,-1.996 1,-3 1,-2 1,-3 1,-2.004 V 216 l 1,-2 1,-1 1,-1 1,-1 h 1 1 1 l 1,1 v 1 l 1,2 1,2 1,0.996 1,2.004 1,0.996 1,2.004 1,0.996 1,1.004 v 0 h 1 l 1,-1.004 1,-0.996 1,-1 1,-2 1,-2.004 1,-1.996 1,-3 1,-2 v -3 l 1,-2 1,-3 1,-2.004 1,-0.996 1,-2.004 1,-0.996 h 1 1 v 0.996 h 1 l 1,2.004 1,0.996 1,2.004 1,2 1,1.996 1,2.004 1,2 v 1 l 1,1 1,1 1,1 1,-1 h 1 l 1,-1 1,-2 1,-2 1,-2.004 v -3 l 1,-1.996 1,-3 1,-3 1,-3 1,-2 1,-2.004 1,-1.996 1,-1 v 0 h 1 1 l 1,1 1,1 1,2 1,1.996 1,2.004 1,2 v 1.996 l 1,3 1,2.004 1,0.996 1,2.004 h 1 l 1,0.996 h 1 l 1,-0.996 1,-1 v -2 l 1,-2.004 1,-1.996 1,-3 1,-3 1,-3 1,-2 1,-3 1,-2 v -2 l 1,-1 1,-1 h 1 1 l 1,1 1,1 1,1 1,2 1,3 v 1.996 l 1,2.004 1,3 1,2 1,1.996 1,2.004 1,0.996 h 1 l 1,1.004 v -1.004 l 1,-0.996 1,-1 1,-2 1,-3 1,-2.004 1,-3 1,-2.996 1,-3 v -2 l 1,-3 1,-2 1,-2 1,-1 h 1 l 1,-1.004 1,1.004 1,1 1,2 v 1 l 1,3 1,2 1,3 1,3 1,2 1,1.996 1,2.004 1,2 v 1 l 1,0.996 h 1 l 1,-0.996 1,-1 1,-2 1,-2.004 1,-1.996 1,-3 v -3 l 1,-3 1,-2 1,-3 1,-2 1,-2.004 1,-0.996 1,-1 1,-1.004 1,1.004 v 1 l 1,0.996 1,2.004 1,2 1,2 1,3 1,3 1,2 1,2.996 V 191 l 1,2 1,1 1,0.996 h 1 1 l 1,-0.996 1,-2.004 1,-1.996 1,-2 v -3 l 1,-2 1,-3 1,-3 1,-3 1,-2.004 1,-3 1,-0.996 1,-1 v -1.004 h 1 l 1,1.004 1,1 1,0.996 1,3 1,2.004 1,3 1,3 v 2 l 1,3 1,2 1,3 1,1 1,0.996 1,1.004 h 1 1 l 1,-2 v -1 l 1,-2 1,-3 1,-2 1,-3 1,-3 1,-3 1,-2.004 1,-3 V 167 l 1,-1.004 1,-0.996 h 1 1 l 1,0.996 1,2.004 1,2 1,1.996 v 3 l 1,2.004 1,3 1,3 1,2 1,3 1,2 1,1 1,0.996 h 1 v 0 l 1,-0.996 1,-2.004 1,-1.996 1,-2 1,-3 1,-3 1,-3 1,-2 v -3 l 1,-3 1,-2.004 1,-0.996 1,-2.004 h 1 1 l 1,1.004 1,1 v 2 l 1,1.996 1,2.004 1,3 1,3 1,3 1,3 1,2 1,2 1,1.996 V 190 l 1,1 h 1 l 1,-1 1,-1.004 1,-0.996 1,-2 1,-3 1,-3 v -3 l 1,-2.004 1,-3 1,-3 1,-1.996 1,-2 1,-1 1,-1.004 h 1 1 V 164 l 1,1.996 1,2.004 1,2 1,3 1,3 1,3 1,2 1,3 v 2 l 1,2 1,2 h 1 l 1,1 1,-1 1,-1.004 1,-0.996 1,-2 v -3 l 1,-2 1,-3 1,-3.004 1,-3 1,-3 1,-1.996 1,-2 1,-2.004 1,-0.996 v -1 l 1,1 h 1 l 1,2 1,1 1,3 1,2 1,3 1,3 v 3 l 1,3 1,2 1,2 1,2 1,0.996 1,1.004 h 1 l 1,-1.004 V 188 l 1,-2 1,-2 1,-2 1,-3 1,-3 1,-3 1,-3 1,-2 1,-2.004 V 164 l 1,-1.004 1,-0.996 h 1 1 l 1,0.996 1,2.004 1,2 1,1.996 v 3 l 1,3 1,3.004 1,3 1,2 1,3 1,2 1,0.996 1,1.004 h 1 v -1.004 l 1,-0.996 1,-1 1,-2 1,-3 1,-2 1,-3 1,-3 1,-3 v -3 l 1,-2.004 1,-1.996 1,-2 1,-1 h 1 1 l 1,1 1,0.996 V 165 l 1,2 1,3 1,3 1,3 1,3 1,2 1,3 1,2 1,2 v 0.996 h 1 1 1 l 1,-0.996 1,-2 1,-2 1,-3 1,-3 v -3.004 l 1,-3 1,-1.996 1,-3 1,-2 1,-2.004 1,-0.996 1,-1 h 1 v 1 l 1,0.996 1,2.004 1,2 1,1.996 1,3 1,3 1,3.004 1,3 1,2 v 2 l 1,2 1,1.996 h 1 1 1 l 1,-0.996 1,-2 1,-2 v -2 l 1,-3 1,-3 1,-3 1,-3 1,-3 1,-2 1,-2.004 1,-0.996 v -1 l 1,-1.004 1,1.004 h 1 l 1,1.996 1,2.004 1,2 1,3 1,3 1,3 v 3 l 1,2 1,3 1,2 1,2 1,0.996 h 1 1 L 672,188 v -1 l 1,-2 1,-2 1,-2 1,-3 1,-3.004 1,-3 1,-3 1,-1.996 1,-2 v -2.004 l 1,-0.996 1,-1 h 1 l 1,1 1,0.996 1,2.004 1,2 1,1.996 v 3 l 1,3 1,3.004 1,3 1,2 1,3 1,1 1,1.996 h 1 v 0 h 1 l 1,-0.996 1,-2 1,-2 1,-3 1,-2 1,-3 1,-3 1,-3 v -3 l 1,-2 1,-2.004 1,-1.996 1,-1.004 h 1 1 l 1,1.004 1,1.996 V 165 l 1,2 1,3 1,3 1,3 1,3 1,3 1,2 1,2 v 2 l 1,0.996 h 1 1 l 1,-0.996 1,-1 1,-2 1,-2 1,-3 1,-3 v -3 l 1,-2.004 1,-3 1,-3 1,-1.996 1,-1.004 1,-0.996 1,-1 h 1 v 1 l 1,0.996 1,2.004 1,2 1,1.996 1,3 1,3 1,3.004 1,3 1,2 v 3 l 1,1 1,1.996 h 1 1 1 l 1,-1.996 1,-1 1,-2 v -3 l 1,-3 1,-3.004 1,-3 1,-3 1,-1.996 1,-3 1,-2 1,-1 v -1.004 h 1 1 l 1,1.004 1,1.996 1,2.004 1,2 1,3 1,3 1,3 v 3 l 1,3 1,2 1,2 1,2 1,0.996 h 1 1 L 781,188 v -1 l 1,-2 1,-3 1,-2 1,-3 1,-3 1,-3 1,-3 1,-2.004 V 164 l 1,-2 1,-1 h 1 1 l 1,1 1,0.996 1,2.004 1,2 1,3 v 3 l 1,1.996 1,3.004 1,3 1,3 1,2 1,1 1,1.996 h 1 v 0 l 1,-0.996 1,-1 1,-2 1,-2 1,-2 1,-3 1,-3.004 1,-3 v -3 l 1,-3 1,-1.996 1,-2 1,-1 1,-1.004 h 1 1 l 1,2.004 1,0.996 V 165 l 1,3 1,2 1,3 1,3 1,3 1,3 1,2 1,2 v 2 l 1,0.996 h 1 1 l 1,-0.996 1,-2 1,-2 1,-2 1,-3 1,-2 v -3 l 1,-3 1,-3 1,-2.004 1,-1.996 1,-2 1,-1 h 1 1 v 1 l 1,0.996 1,2.004 1,2 1,3 1,3 1,3 1,3 1,2 v 3 l 1,2 1,2 1,0.996 h 1 1 l 1,-0.996 1,-1 1,-2 1,-2 v -3 l 1,-3 1,-2.004 1,-3 1,-3 1,-3 1,-1.996 1,-2 1,-1 v -1.004 h 1 l 1,1.004 1,1 1,0.996 1,2.004 1,3 1,3 1,3 v 3 l 1,3 1,2 1,3 1,1 1,2 1,0.996 h 1 1 L 890,188 v -2 l 1,-2 1,-2 1,-3 1,-3 1,-3 1,-2 1,-3 1,-2.004 V 164 l 1,-2 1,-1 h 1 1 l 1,1 1,0.996 1,2.004 1,3 1,2 v 3 l 1,3 1,3 1,3 1,2 1,2 1,2 1,0.996 h 1 v 0 l 1,-0.996 1,-1 1,-2 1,-2 1,-3 1,-3 1,-3 1,-3 v -3 l 1,-2.004 1,-1.996 1,-2 1,-1 1,-1.004 h 1 l 1,1.004 1,1 1,0.996 v 3 l 1,2.004 1,3 1,3 1,3 1,3 1,2 1,3 1,2 v 1 l 1,0.996 h 1 1 l 1,-0.996 1,-2 1,-2 1,-2 1,-3 v -3 l 1,-3 1,-3 1,-2 1,-3 1,-2.004 1,-0.996 1,-1 h 1 1 v 1 l 1,2 1,1 1,3 1,3 1,2 1,3 1,3 1,3 v 2 l 1,2 1,2 1,0.996 h 1 1 l 1,-0.996 1,-1 1,-2 v -3 l 1,-2 1,-3 1,-3 1,-3 1,-3 1,-2.004 1,-3 1,-0.996 1,-1 v -1.004 h 1 l 1,1.004 1,1 1,2 1,1.996 1,2.004 1,3 1,3 v 3 l 1,3 1,3 1,2 1,2 1,1 1,0.996 h 1 1 L 999,187 v -1 l 1,-2 1,-3 1,-2 1,-3 1,-3 1,-3 1,-3 1,-2 v -2.004 l 1,-0.996 1,-1 h 1 1 l 1,1 1,2 1,1.996 1,2.004 v 3 l 1,3 1,3 1,2 1,3 1,3 1,1 1,2 1,0.996 h 1 v 0 l 1,-0.996 1,-2 1,-1 1,-3 1,-3 1,-2 1,-3 1,-3 v -3 l 1,-3 1,-2.004 1,-0.996 1,-2.004 h 1 1 l 1,1.004 1,1 v 2 l 1,1.996 1,3 1,3 1,3 1,3.004 1,2 1,3 1,2 1,2 v 1 l 1,0.996 h 1 l 1,-0.996 1,-1 1,-1 1,-2 1,-3 1,-3 v -3.004 l 1,-3 1,-1.996 1,-3 1,-2 1,-2.004 1,-0.996 1,-1 h 1 1 v 1 l 1,2 1,1.996 1,2.004 1,3 1,3 1,3 1,3 1,2 v 3 l 1,2 1,1 1,0.996 h 1 1 l 1,-0.996 1,-2 1,-2 v -2 l 1,-3 1,-3 1,-3 1,-3 1,-2 1,-3 1,-2.004 1,-1.996 1,-1.004 v 0 h 1 l 1,1.004 1,1 1,2 1,1.996 1,3 1,3 1,3 V 178 l 1,3 1,2 1,2 1,2 1,1 1,0.996 h 1 l 1,-0.996 v -1 l 1,-2 1,-2 1,-2 1,-3 1,-3.004 1,-3 1,-3 1,-1.996 1,-2 v -2.004 l 1,-0.996 1,-1 h 1 1 l 1,1 1,2 1,1.996 1,3 V 171 l 1,3 1,3 1,3 1,3 1,2 1,2 1,1 1,0.996 v 0 h 1 l 1,-0.996 1,-2 1,-2 1,-2 1,-3 1,-3 1,-3 1,-3 v -3 l 1,-2 1,-2.004 1,-1.996 1,-1.004 h 1 1 l 1,1.004 1,1 v 2 l 1,3 1,1.996 1,3 1,3 1,3.004 1,3 1,2 1,3 1,1 v 1 l 1,0.996 h 1 l 1,-0.996 1,-1 1,-2 1,-2 1,-3 1,-2 v -3.004 l 1,-3 1,-3 1,-1.996 1,-3 1,-1.004 1,-0.996 1,-1 h 1 v 0 l 1,1.996 1,1.004 1,1.996 1,3 1,3 1,3 1,3.004 1,2 1,3 v 2 l 1,2 1,1 1,0.996 h 1 1 l 1,-0.996 1,-2 1,-2 v -3 l 1,-2 1,-3 1,-3 1,-3 1,-3 1,-2 1,-2.004 1,-1.996 v -1.004 h 1 1 l 1,1.004 1,1.996 1,2.004 1,2 1,3 1,3 1,3 v 2 l 1,3 1,3 1,2 1,1 1,1 1,0.996 h 1 l 1,-0.996 v -1 l 1,-2 1,-2 1,-3 1,-3 1,-3 1,-2.004 1,-3 1,-3 1,-1.996 v -1.004 l 1,-1.996 h 1 1 l 1,1 1,0.996 1,1.004 1,3 1,1.996 v 3 l 1,3 1,3.004 1,3 1,2 1,2 1,2 1,1 1,0.996 v 0 h 1 l 1,-1.996 1,-1 1,-2 1,-3 1,-3 1,-3.004 1,-3 1,-3 V 167 l 1,-3 1,-2 1,-1 1,-1.004 h 1 1 l 1,1.004 1,1.996 V 165 l 1,2 1,3 1,3 1,3 1,3 1,3 1,2 1,2 v 2 l 1,0.996 h 1 1 l 1,-0.996 1,-1 1,-2 1,-3 1,-2 1,-3 v -3 l 1,-3 1,-2.004 1,-3 1,-1.996 1,-2 1,-1 h 1 1 v 1 l 1,0.996 1,2.004 1,2 1,1.996 1,3 1,3 1,3.004 1,3 v 2 l 1,3 1,1 1,1 1,0.996 h 1 l 1,-0.996 1,-1 1,-2 1,-2 v -2 l 1,-3 1,-3.004 1,-3 1,-3 1,-3 1,-1.996 1,-2 1,-1 v -1.004 h 1 1 l 1,1.004 1,1.996 1,2.004 1,2 1,3 1,3 1,3 v 3 l 1,3 1,2 1,2 1,2 1,0.996 h 1 1 l 1,-0.996 v -2 l 1,-1 1,-3 1,-2 1,-3 1,-3 1,-3 1,-3 1,-2.004 V 164 l 1,-2 1,-1 h 1 1 l 1,1 1,0.996 1,2.004 1,2 1,3 v 3 l 1,3 1,2 1,3 1,3 1,2 1,1 1,1.996 h 1 v 0 l 1,-0.996 1,-1 1,-2 1,-2 1,-3 1,-2 1,-3.004 1,-3 v -3 l 1,-3 1,-1.996 1,-2 1,-1 1,-1.004 h 1 1 l 1,2.004 1,0.996 V 165 l 1,3 1,3 1,2 1,3 1,3 1,3 1,2 1,2 v 2 l 1,0.996 h 1 1 l 1,-0.996 1,-2 1,-2 1,-2 1,-3 1,-3 v -2 l 1,-3 1,-3 1,-2.004 1,-1.996 1,-2 1,-1 h 1 1 v 1 l 1,0.996 1,2.004 1,2 1,3 1,3 1,3 1,3 1,2 v 3 l 1,2 1,2 1,0.996 h 1 1 l 1,-0.996 1,-1"
           stroke="#4472c4"
           stroke-width="2"
           stroke-linecap="round"
           stroke-linejoin="round"
           stroke-miterlimit="10"
           fill="none"
           id="path2595" />
      </g>
      <g
         id="g2601">
        <text
           font-family="Arial, Arial_MSFontService, sans-serif"
           font-weight="400"
           font-size="12px"
           transform="translate(748.667,315)"
           id="text2599">1.28</text>
      </g>
      <g
         id="g2605">
        <text
           font-family="Arial, Arial_MSFontService, sans-serif"
           font-weight="400"
           font-size="12px"
           transform="translate(755.34,287)"
           id="text2603">1.3</text>
      </g>
      <g
         id="g2609">
        <text
           font-family="Arial, Arial_MSFontService, sans-serif"
           font-weight="400"
           font-size="12px"
           transform="translate(748.667,260)"
           id="text2607">1.32</text>
      </g>
      <g
         id="g2613">
        <text
           font-family="Arial, Arial_MSFontService, sans-serif"
           font-weight="400"
           font-size="12px"
           transform="translate(748.667,233)"
           id="text2611">1.34</text>
      </g>
      <g
         id="g2617">
        <text
           font-family="Arial, Arial_MSFontService, sans-serif"
           font-weight="400"
           font-size="12px"
           transform="translate(748.667,205)"
           id="text2615">1.36</text>
      </g>
      <g
         id="g2621">
        <text
           font-family="Arial, Arial_MSFontService, sans-serif"
           font-weight="400"
           font-size="12px"
           transform="translate(748.667,178)"
           id="text2619">1.38</text>
      </g>
      <g
         id="g2625">
        <text
           font-family="Arial, Arial_MSFontService, sans-serif"
           font-weight="400"
           font-size="12px"
           transform="translate(755.34,151)"
           id="text2623">1.4</text>
      </g>
      <g
         id="g2629">
        <text
           font-family="Arial, Arial_MSFontService, sans-serif"
           font-weight="400"
           font-size="12px"
           transform="translate(772.33,329)"
           id="text2627">130</text>
      </g>
      <g
         id="g2633">
        <text
           font-family="Arial, Arial_MSFontService, sans-serif"
           font-weight="400"
           font-size="12px"
           transform="translate(816.993,329)"
           id="text2631">135</text>
      </g>
      <g
         id="g2637">
        <text
           font-family="Arial, Arial_MSFontService, sans-serif"
           font-weight="400"
           font-size="12px"
           transform="translate(861.656,329)"
           id="text2635">140</text>
      </g>
      <g
         id="g2641">
        <text
           font-family="Arial, Arial_MSFontService, sans-serif"
           font-weight="400"
           font-size="12px"
           transform="translate(906.319,329)"
           id="text2639">145</text>
      </g>
      <g
         id="g2645">
        <text
           font-family="Arial, Arial_MSFontService, sans-serif"
           font-weight="400"
           font-size="12px"
           transform="translate(950.983,329)"
           id="text2643">150</text>
      </g>
    </g>
  </g>
</svg>
