<?xml version="1.0" encoding="UTF-8" standalone="no"?>
<!-- Created with Inkscape (http://www.inkscape.org/) -->

<svg
   width="129.91042mm"
   height="100.0125mm"
   viewBox="0 0 129.91042 100.0125"
   version="1.1"
   id="svg2874"
   inkscape:version="1.2.1 (9c6d41e410, 2022-07-14)"
   sodipodi:docname="LES-lift.svg"
   xmlns:inkscape="http://www.inkscape.org/namespaces/inkscape"
   xmlns:sodipodi="http://sodipodi.sourceforge.net/DTD/sodipodi-0.dtd"
   xmlns="http://www.w3.org/2000/svg"
   xmlns:svg="http://www.w3.org/2000/svg">
  <sodipodi:namedview
     id="namedview2876"
     pagecolor="#ffffff"
     bordercolor="#000000"
     borderopacity="0.25"
     inkscape:showpageshadow="2"
     inkscape:pageopacity="0.0"
     inkscape:pagecheckerboard="0"
     inkscape:deskcolor="#d1d1d1"
     inkscape:document-units="mm"
     showgrid="false"
     inkscape:zoom="0.74564394"
     inkscape:cx="92.537465"
     inkscape:cy="478.7808"
     inkscape:window-width="1920"
     inkscape:window-height="1017"
     inkscape:window-x="1912"
     inkscape:window-y="-8"
     inkscape:window-maximized="1"
     inkscape:current-layer="layer1" />
  <defs
     id="defs2871">
    <clipPath
       id="clip0">
      <rect
         x="521"
         y="377"
         width="491"
         height="378"
         id="rect2995" />
    </clipPath>
    <clipPath
       id="clip1">
      <rect
         x="799"
         y="405"
         width="164"
         height="129"
         id="rect2998" />
    </clipPath>
    <clipPath
       id="clip2">
      <rect
         x="799"
         y="405"
         width="164"
         height="129"
         id="rect3001" />
    </clipPath>
    <clipPath
       id="clip3">
      <rect
         x="799"
         y="405"
         width="164"
         height="129"
         id="rect3004" />
    </clipPath>
  </defs>
  <g
     inkscape:label="Camada 1"
     inkscape:groupmode="layer"
     id="layer1"
     transform="translate(-56.75447,-22.026008)">
    <g
       clip-path="url(#clip0)"
       transform="matrix(0.26458333,0,0,0.26458333,-81.093445,-77.721907)"
       id="g3183">
      <rect
         x="521"
         y="377"
         width="491"
         height="378"
         fill="#ffffff"
         id="rect3009" />
      <g
         id="g3013">
        <path
           d="m 560.5,740.5 h 427 m -427,-44 h 427 m -427,-43 h 427 m -427,-44 h 427 m -427,-87 h 427 m -427,-44 h 427 m -427,-43 h 427 m -427,-44 h 427"
           stroke="#d9d9d9"
           stroke-linejoin="round"
           stroke-miterlimit="10"
           fill="none"
           id="path3011" />
      </g>
      <g
         id="g3017">
        <path
           d="m 667.5,391.5 v 349 m 107,-349 v 349 m 106,-349 v 349 m 107,-349 v 349"
           stroke="#d9d9d9"
           stroke-linejoin="round"
           stroke-miterlimit="10"
           fill="none"
           id="path3015" />
      </g>
      <g
         id="g3021">
        <rect
           x="560.5"
           y="391.5"
           width="427"
           height="349"
           stroke="#000000"
           stroke-linejoin="round"
           stroke-miterlimit="10"
           fill="none"
           id="rect3019" />
      </g>
      <g
         id="g3025">
        <path
           d="M 0,0 1.04987e-4,349"
           stroke="#000000"
           stroke-linejoin="round"
           stroke-miterlimit="10"
           fill="none"
           fill-rule="evenodd"
           transform="matrix(1,0,0,-1,560.5,740.5)"
           id="path3023" />
      </g>
      <g
         id="g3029">
        <path
           d="m 560.5,740.5 h 3 m -3,-9 h 3 m -3,-9 h 3 m -3,-8 h 3 m -3,-9 h 3 m -3,-9 h 3 m -3,-9 h 3 m -3,-8 h 3 m -3,-9 h 3 m -3,-9 h 3 m -3,-8 h 3 m -3,-9 h 3 m -3,-9 h 3 m -3,-9 h 3 m -3,-8 h 3 m -3,-9 h 3 m -3,-9 h 3 m -3,-8 h 3 m -3,-9 h 3 m -3,-9 h 3 m -3,-9 h 3 m -3,-8 h 3 m -3,-9 h 3 m -3,-9 h 3 m -3,-8 h 3 m -3,-9 h 3 m -3,-9 h 3 m -3,-9 h 3 m -3,-8 h 3 m -3,-9 h 3 m -3,-9 h 3 m -3,-8 h 3 m -3,-9 h 3 m -3,-9 h 3 m -3,-9 h 3 m -3,-8 h 3 m -3,-9 h 3 m -3,-9 h 3 m -3,-8 h 3 m -3,-9 h 3 m -3,-9 h 3 m -6,349 h 7 m -7,-44 h 7 m -7,-43 h 7 m -7,-44 h 7 m -7,-44 h 7 m -7,-43 h 7 m -7,-44 h 7 m -7,-43 h 7 m -7,-44 h 7"
           stroke="#000000"
           stroke-linejoin="round"
           stroke-miterlimit="10"
           fill="none"
           id="path3027" />
      </g>
      <g
         id="g3033">
        <path
           d="m 560.5,565.5 h 427"
           stroke="#000000"
           stroke-linejoin="round"
           stroke-miterlimit="10"
           fill="none"
           fill-rule="evenodd"
           id="path3031" />
      </g>
      <g
         id="g3037">
        <path
           d="m 560.5,563.5 v 2 m 22,-2 v 2 m 21,-2 v 2 m 21,-2 v 2 m 22,-2 v 2 m 21,-2 v 2 m 21,-2 v 2 m 22,-2 v 2 m 21,-2 v 2 m 21,-2 v 2 m 22,-2 v 2 m 21,-2 v 2 m 21,-2 v 2 m 22,-2 v 2 m 21,-2 v 2 m 21,-2 v 2 m 22,-2 v 2 m 21,-2 v 2 m 21,-2 v 2 m 22,-2 v 2 m 21,-2 v 2 m -427,-3 v 7 m 107,-7 v 7 m 107,-7 v 7 m 106,-7 v 7 m 107,-7 v 7"
           stroke="#000000"
           stroke-linejoin="round"
           stroke-miterlimit="10"
           fill="none"
           id="path3035" />
      </g>
      <g
         id="g3041">
        <path
           d="m 561,578 v -9 0 0 l 1,1 v 0 0 0 0 h 1 v 0 0 0 0 h 1 v 0 -1 0 h 1 v 0 0 0 0 h 1 v -1 0 0 0 l 1,-1 v 0 0 0 -1 h 1 v 0 0 -1 h 1 v 0 0 -1 0 h 1 v 0 -1 0 0 h 1 v 0 0 0 h 1 v 0 0 0 0 h 1 v 0 0 0 0 h 1 v 0 0 1 h 1 v 0 0 1 0 h 1 v 1 0 0 1 h 1 v 0 1 0 h 1 v 0 1 0 0 l 1,1 v 0 0 0 0 h 1 v 1 0 0 h 1 v 0 0 0 0 h 1 v 0 -1 0 0 h 1 v 0 -1 0 h 1 v 0 -1 0 0 l 1,-1 v 0 -1 0 0 l 1,-1 v 0 0 -1 0 h 1 v 0 -1 0 h 1 v 0 0 -1 0 h 1 v 0 0 0 0 h 1 v 1 0 0 h 1 v 0 1 0 0 h 1 v 1 0 1 0 h 1 v 1 0 1 h 1 v 0 1 0 1 h 1 v 0 1 0 0 l 1,1 v 0 0 0 l 1,1 v 0 0 0 0 h 1 v 0 0 -1 0 h 1 v 0 -1 0 h 1 v -1 0 -1 0 l 1,-1 v 0 -1 -1 0 l 1,-1 v 0 -1 -1 h 1 v -1 0 -1 0 l 1,-1 v 0 -1 0 0 l 1,-1 v 0 0 0 -1 h 1 v 0 0 1 h 1 v 0 0 1 0 l 1,1 v 0 1 0 1 l 1,1 v 0 1 1 l 1,1 v 1 1 1 0 l 1,1 v 1 1 1 1 l 1,1 v 1 0 1 l 1,1 v 0 1 0 1 h 1 v 0 0 0 0 h 1 v 0 0 -1 h 1 v -1 0 -1 -1 l 1,-1 v -1 -1 -1 -1 l 1,-1 v -1 -2 -1 l 1,-2 v -1 -1 -2 -1 l 1,-2 v -1 -1 -2 -1 l 1,-1 v -1 -1 -1 l 1,-1 v -1 0 -1 0 l 1,-1 v 0 0 1 0 h 1 v 1 1 1 1 l 1,1 v 1 2 2 l 1,1 v 2 2 2 2 l 1,3 v 2 2 3 2 l 1,2 v 3 2 2 l 1,2 v 2 2 2 2 l 1,1 v 1 1 1 1 h 1 v 1 0 -1 h 1 v -1 -1 -1 -2 l 1,-2 v -2 -2 -2 -3 l 1,-3 v -3 -3 -4 l 1,-3 v -4 -4 -3 -4 l 1,-4 v -3 -4 -3 -4 l 1,-3 v -3 -2 -3 l 1,-2 v -2 -1 -1 -1 l 1,-1 v 0 1 1 1 l 1,2 v 2 2 3 l 1,3 v 4 4 4 5 l 1,4 v 5 5 6 5 l 1,5 v 6 5 5 5 l 1,5 v 5 4 4 l 1,4 v 3 3 2 2 l 1,1 v 1 0 0 -1 l 1,-2 v -2 -3 -4 l 1,-4 v -4 -5 -5 -6 l 1,-6 v -7 -7 -6 -8 l 1,-7 v -7 -7 -7 l 1,-7 v -6 -6 -6 -6 l 1,-4 v -5 -3 -4 -2 l 1,-2 v 0 -1 1 l 1,1 v 3 2 4 4 l 1,6 v 5 6 7 8 l 1,7 v 8 9 8 l 1,9 v 9 9 8 9 l 1,8 v 8 7 7 6 l 1,6 v 4 4 4 l 1,2 v 2 0 0 -2 l 1,-2 v -3 -4 -5 -6 l 1,-7 v -7 -8 -8 l 1,-9 v -10 -10 -10 -10 l 1,-10 v -10 -10 -10 -10 l 1,-9 v -8 -8 -7 -6 l 1,-6 v -4 -4 -3 l 1,-1 v -1 1 2 2 l 1,4 v 5 6 6 8 l 1,8 v 9 10 10 l 1,11 v 11 11 12 11 l 1,12 v 11 11 10 10 l 1,9 v 8 8 7 l 1,6 v 4 4 2 1 h 1 v -1 -2 -4 -4 l 1,-6 v -7 -8 -8 l 1,-10 v -10 -11 -11 -12 l 1,-12 v -13 -12 -12 -13 l 1,-11 v -12 -11 -10 l 1,-10 v -8 -8 -6 -6 l 1,-4 v -3 -2 0 0 l 1,2 v 4 4 6 l 1,7 v 8 9 10 10 l 1,12 v 12 12 13 13 l 1,13 v 13 13 13 12 l 1,12 v 11 10 9 l 1,8 v 8 6 4 4 l 1,2 v 1 -1 -1 -4 l 1,-4 v -6 -7 -8 l 1,-9 v -10 -11 -12 -12 l 1,-13 v -13 -14 -14 -13 l 1,-14 v -13 -13 -12 l 1,-12 v -10 -10 -9 -8 l 1,-6 v -5 -4 -2 -1 h 1 v 2 3 5 l 1,6 v 7 8 9 11 l 1,11 v 12 12 14 13 l 1,14 v 14 14 14 l 1,14 v 13 12 12 11 l 1,10 v 10 7 7 5 l 1,4 v 3 1 -1 l 1,-1 v -4 -4 -6 -7 l 1,-9 v -9 -11 -11 -12 l 1,-13 v -14 -14 -14 -14 l 1,-14 v -15 -13 -14 l 1,-13 v -12 -11 -10 -9 l 1,-8 v -7 -5 -4 -3 l 1,-1 v 0 2 4 l 1,4 v 6 8 8 10 l 1,10 v 12 12 13 14 l 1,14 v 15 14 15 l 1,14 v 14 13 13 13 l 1,11 v 10 10 8 6 l 1,6 v 4 2 1 h 1 v -2 -3 -5 -6 l 1,-8 v -9 -9 -11 -12 l 1,-13 v -13 -14 -14 l 1,-14 v -15 -15 -14 -14 l 1,-14 v -13 -12 -12 -10 l 1,-9 v -8 -7 -5 l 1,-4 v -2 -1 0 2 l 1,4 v 5 6 8 8 l 1,10 v 11 12 13 13 l 1,14 v 14 15 15 l 1,15 v 14 14 14 13 l 1,12 v 12 10 9 8 l 1,7 v 5 4 2 l 1,1 v -1 -2 -4 -5 l 1,-6 v -8 -9 -10 -11 l 1,-12 v -13 -13 -14 l 1,-15 v -15 -14 -15 -15 l 1,-14 v -14 -13 -12 -11 l 1,-10 v -9 -8 -7 l 1,-5 v -4 -2 0 0 l 1,3 v 4 5 6 8 l 1,9 v 11 11 12 l 1,13 v 13 14 15 15 l 1,15 v 14 15 14 14 l 1,13 v 12 11 10 l 1,9 v 8 6 5 4 l 1,2 v 1 -1 -3 -4 l 1,-5 v -7 -8 -9 -11 l 1,-11 v -12 -13 -14 l 1,-14 v -15 -14 -15 -15 l 1,-15 v -14 -13 -13 -12 l 1,-12 v -10 -9 -7 l 1,-6 v -5 -4 -1 -1 l 1,1 v 3 4 6 7 l 1,8 v 9 11 11 l 1,12 v 13 14 14 15 l 1,15 v 15 14 15 14 l 1,14 v 12 13 11 l 1,10 v 8 8 6 5 l 1,3 v 2 0 -2 -2 l 1,-5 v -5 -7 -9 l 1,-9 v -11 -11 -13 -13 l 1,-14 v -14 -15 -15 -15 l 1,-14 v -15 -14 -13 l 1,-13 v -12 -11 -10 -9 l 1,-7 v -6 -4 -3 -2 h 1 v 2 3 4 6 l 1,7 v 9 9 11 l 1,12 v 12 13 14 15 l 1,14 v 15 15 15 14 l 1,14 v 14 12 12 l 1,11 v 10 8 7 6 l 1,5 v 2 2 0 -2 l 1,-3 v -5 -6 -7 l 1,-9 v -9 -11 -12 -13 l 1,-13 v -14 -14 -15 -15 l 1,-15 v -15 -14 -14 l 1,-13 v -13 -12 -10 -10 l 1,-8 v -7 -6 -4 -3 l 1,-1 v 0 2 3 l 1,5 v 6 8 9 10 l 1,10 v 12 13 14 14 l 1,14 v 15 15 14 l 1,15 v 15 13 14 12 l 1,12 v 10 10 8 7 l 1,5 v 4 3 1 0 l 1,-2 v -4 -5 -6 l 1,-8 v -9 -10 -11 -12 l 1,-13 v -13 -14 -15 -15 l 1,-15 v -14 -15 -14 l 1,-14 v -13 -13 -11 -11 l 1,-9 v -8 -7 -5 -4 l 1,-2 v -1 1 2 l 1,3 v 6 6 8 9 l 1,10 v 11 12 13 14 l 1,14 v 14 15 15 l 1,15 v 15 14 14 13 l 1,12 v 11 11 9 8 l 1,6 v 6 3 2 l 1,1 v -1 -2 -4 -5 l 1,-7 v -8 -9 -10 -12 l 1,-12 v -13 -14 -14 l 1,-14 v -15 -15 -15 -15 l 1,-14 v -13 -14 -12 -11 l 1,-10 v -9 -8 -6 l 1,-5 v -4 -2 0 1 l 1,2 v 4 6 7 8 l 1,9 v 11 11 12 13 l 1,14 v 14 15 15 l 1,15 v 14 15 14 14 l 1,13 v 12 11 10 9 l 1,8 v 6 5 3 l 1,2 v 0 -1 -3 -4 l 1,-6 v -7 -8 -9 -11 l 1,-11 v -13 -13 -14 l 1,-14 v -15 -15 -15 -14 l 1,-15 v -14 -14 -13 -12 l 1,-11 v -9 -9 -8 l 1,-6 v -4 -3 -2 0 l 1,1 v 3 5 5 8 l 1,8 v 9 11 12 l 1,12 v 14 13 15 14 l 1,15 v 15 15 14 14 l 1,14 v 13 12 10 l 1,10 v 9 7 6 4 l 1,3 v 2 0 -2 -3 l 1,-4 v -6 -8 -8 -10 l 1,-11 v -11 -13 -13 l 1,-14 v -15 -14 -15 -15 l 1,-15 v -14 -14 -14 -12 l 1,-12 v -11 -10 -8 l 1,-7 v -6 -4 -3 -1 h 1 v 2 3 5 6 l 1,7 v 9 10 11 l 1,12 v 12 14 14 14 l 1,15 v 15 15 14 15 l 1,14 v 13 13 11 l 1,11 v 9 9 7 5 l 1,4 v 3 1 0 -2 l 1,-4 v -5 -6 -7 l 1,-9 v -10 -11 -12 -13 l 1,-14 v -14 -14 -15 -15 l 1,-15 v -14 -15 -14 l 1,-13 v -12 -12 -10 -10 l 1,-8 v -7 -5 -4 -2 l 1,-1 v 0 3 3 5 l 1,7 v 7 9 10 l 1,12 v 12 13 13 14 l 1,15 v 14 15 15 15 l 1,14 v 14 13 12 l 1,12 v 10 10 7 7 l 1,5 v 4 2 1 -1 l 1,-2 v -4 -5 -7 l 1,-7 v -10 -10 -11 -12 l 1,-13 v -14 -14 -15 -14 l 1,-15 v -15 -15 -14 l 1,-14 v -13 -12 -11 -11 l 1,-9 v -8 -6 -5 -4 l 1,-2 v 0 1 2 l 1,4 v 6 6 8 10 l 1,10 v 11 13 13 13 l 1,15 v 14 15 15 l 1,15 v 14 14 14 13 l 1,12 v 11 11 9 7 l 1,6 v 5 4 2 0 l 1,-1 v -3 -4 -5 l 1,-7 v -9 -9 -10 -12 l 1,-12 v -13 -14 -14 -15 l 1,-15 v -15 -15 -14 l 1,-14 v -14 -13 -12 -11 l 1,-10 v -9 -7 -6 -5 l 1,-3 v -2 0 1 l 1,3 v 4 6 7 9 l 1,9 v 11 11 13 13 l 1,14 v 14 15 15 l 1,14 v 15 15 14 13 l 1,13 v 12 11 10 8 l 1,8 v 6 4 3 l 1,2 v 0 -2 -3 -4 l 1,-6 v -7 -9 -9 -11 l 1,-12 v -12 -14 -14 l 1,-14 v -15 -14 -15 -15 l 1,-15 v -14 -13 -13 -12 l 1,-10 v -10 -9 -7 -6 l 1,-4 v -3 -1 0 l 1,2 v 3 5 6 7 l 1,9 v 9 11 12 13 l 1,13 v 14 14 15 l 1,15 v 15 15 14 14 l 1,13 v 13 12 10 10 l 1,8 v 7 6 4 l 1,3 v 1 0 -2 -4 l 1,-4 v -7 -7 -9 -10 l 1,-11 v -12 -12 -14 l 1,-14 v -14 -15 -15 -15 l 1,-15 v -14 -14 -13 -13 l 1,-11 v -11 -9 -8 l 1,-7 v -6 -4 -2 -1 h 1 v 2 4 5 6 l 1,8 v 9 10 11 l 1,12 v 13 13 14 15 l 1,15 v 15 14 15 14 l 1,14 v 13 13 11 11 l 1,9 v 8 7 5 l 1,4 v 2 1 -1 -2 l 1,-4 v -5 -6 -8 -9 l 1,-10 v -11 -13 -13 l 1,-13 v -14 -15 -15 -15 l 1,-14 v -15 -14 -14 -13 l 1,-13 v -11 -10 -9 l 1,-8 v -7 -5 -3 -3 h 1 v 1 2 4 5 l 1,7 v 8 9 10 l 1,12 v 12 13 14 14 l 1,14 v 15 15 15 15 l 1,14 v 13 14 12 l 1,11 v 10 9 8 6 l 1,5 v 4 2 0 -1 l 1,-3 v -4 -5 -7 l 1,-8 v -9 -11 -11 -13 l 1,-13 v -13 -15 -14 -15 l 1,-15 v -15 -15 -14 -13 l 1,-13 v -12 -11 -11 l 1,-8 v -8 -6 -5 -3 l 1,-2 v 0 1 3 4 l 1,6 v 7 8 10 l 1,10 v 12 12 13 14 l 1,14 v 15 15 15 14 l 1,15 v 14 14 12 l 1,12 v 11 10 9 7 l 1,7 v 4 3 2 0 l 1,-2 v -2 -5 -6 l 1,-7 v -8 -10 -10 -12 l 1,-13 v -13 -14 -14 -15 l 1,-15 v -15 -14 -15 l 1,-14 v -13 -13 -12 -11 l 1,-10 v -8 -7 -6 -5 l 1,-3 v -1 0 2 l 1,3 v 4 6 8 8 l 1,10 v 11 11 13 13 l 1,14 v 15 14 15 l 1,15 v 15 14 14 14 l 1,12 v 12 11 10 8 l 1,7 v 6 4 3 1 h 1 v -2 -3 -5 l 1,-6 v -8 -8 -10 -11 l 1,-12 v -13 -13 -14 -15 l 1,-14 v -15 -15 -15 l 1,-14 v -14 -14 -12 -12 l 1,-10 v -10 -8 -7 -6 l 1,-4 v -2 -1 0 l 1,2 v 4 5 6 8 l 1,8 v 10 11 12 13 l 1,14 v 14 14 15 l 1,15 v 15 14 15 14 l 1,13 v 12 12 10 10 l 1,8 v 7 5 4 l 1,2 v 1 -1 -2 -3 l 1,-5 v -7 -8 -9 -10 l 1,-11 v -12 -13 -13 l 1,-15 v -14 -15 -15 -15 l 1,-14 v -15 -13 -14 -12 l 1,-11 v -11 -9 -8 -6 l 1,-6 v -3 -3 0 l 1,1 v 2 4 5 7 l 1,8 v 9 10 11 12 l 1,13 v 14 14 15 l 1,15 v 14 15 15 14 l 1,14 v 13 12 11 11 l 1,9 v 7 7 5 l 1,3 v 3 0 -1 -2 l 1,-4 v -6 -7 -8 -9 l 1,-10 v -12 -12 -13 l 1,-14 v -14 -15 -14 -15 l 1,-15 v -15 -14 -14 -13 l 1,-12 v -11 -10 -9 l 1,-8 v -6 -5 -3 -2 h 1 v 1 3 4 5 l 1,7 v 9 9 11 l 1,11 v 12 14 13 15 l 1,14 v 15 15 15 14 l 1,14 v 14 13 12 11 l 1,10 v 9 7 6 l 1,5 v 3 2 0 -1 l 1,-3 v -5 -5 -7 -9 l 1,-9 v -11 -12 -12 l 1,-13 v -14 -14 -15 -15 l 1,-15 v -15 -14 -14 -14 l 1,-13 v -12 -10 -10 l 1,-9 v -7 -6 -5 -3 l 1,-1 v 0 2 3 4 l 1,6 v 7 9 9 l 1,11 v 12 12 14 14 l 1,14 v 15 15 14 15"
           stroke="#a5a5a5"
           stroke-width="2"
           stroke-linecap="round"
           stroke-linejoin="round"
           stroke-miterlimit="10"
           fill="none"
           id="path3039" />
      </g>
      <g
         id="g3045">
        <path
           d="m 561,576 v -4 -2 -1 h 1 v 0 0 0 0 h 1 v 0 0 0 -1 h 1 v 0 0 0 h 1 v 0 0 0 0 h 1 v 0 0 0 0 h 1 v 0 0 0 0 h 1 v 0 0 0 h 1 v 0 0 0 0 h 1 v 0 0 0 0 l 1,-1 v 0 0 0 h 1 v 0 0 0 0 h 1 v 0 0 0 0 h 1 v 0 1 0 h 1 v 0 0 0 0 h 1 v 0 0 0 0 h 1 v 0 0 0 h 1 v 0 0 0 0 h 1 v 0 0 0 0 h 1 v 0 0 0 h 1 v 0 0 0 0 h 1 v 0 0 0 0 h 1 v 0 0 0 h 1 v 0 0 0 0 h 1 v 0 0 0 0 h 1 v -1 0 0 0 h 1 v 0 0 0 h 1 v 0 0 0 0 h 1 v 0 0 0 0 h 1 v 0 0 0 h 1 v 0 0 0 0 h 1 v 0 1 0 0 h 1 v 0 0 0 h 1 v 0 0 0 0 h 1 v 0 0 0 0 h 1 v 0 0 0 h 1 v 0 0 0 0 h 1 v 0 0 0 0 h 1 v 0 0 0 h 1 v 0 0 0 0 h 1 v 0 0 0 0 l 1,-1 v 0 0 0 h 1 v 0 0 0 0 h 1 v 0 0 0 0 h 1 v 0 0 0 0 h 1 v 0 0 0 h 1 v 0 0 0 0 h 1 v 0 0 0 0 h 1 v 0 0 0 h 1 v 1 0 0 0 h 1 v 0 0 0 0 h 1 v 0 0 0 l 1,1 v 0 0 0 0 h 1 v 0 0 0 0 h 1 v 0 0 0 h 1 v 0 0 0 -1 h 1 v 0 0 0 0 h 1 v 0 0 0 l 1,-1 v 0 0 0 0 h 1 v 0 0 0 -1 h 1 v 0 0 0 h 1 v 0 0 0 0 h 1 v 0 0 0 0 h 1 v 0 0 0 0 h 1 v 0 0 0 h 1 v 0 1 0 0 h 1 v 0 0 1 0 h 1 v 0 0 1 h 1 v 0 0 0 1 h 1 v 0 0 0 0 h 1 v 1 0 0 h 1 v 0 0 0 0 h 1 v 0 0 0 -1 h 1 v 0 0 0 h 1 v -1 0 0 0 l 1,-1 v 0 0 -1 0 h 1 v -1 0 0 l 1,-1 v 0 0 -1 0 h 1 v 0 -1 0 0 h 1 v 0 -1 0 h 1 v 0 0 0 0 h 1 v 0 0 1 0 h 1 v 0 0 1 0 l 1,1 v 0 0 1 h 1 v 1 0 1 0 l 1,1 v 1 0 1 0 l 1,1 v 0 1 0 l 1,1 v 0 1 0 0 l 1,1 v 0 0 0 1 h 1 v 0 0 0 h 1 v -1 0 0 -1 h 1 v 0 -1 0 -1 l 1,-1 v 0 -1 -1 l 1,-1 v -1 -1 -1 -1 h 1 v -1 -1 -1 -1 l 1,-1 v -1 -1 -1 l 1,-1 v 0 -1 -1 0 l 1,-1 v 0 0 -1 0 h 1 v 0 0 1 h 1 v 0 1 1 0 l 1,1 v 1 1 1 2 l 1,1 v 1 2 1 l 1,2 v 1 2 2 1 l 1,2 v 2 1 2 1 l 1,2 v 1 2 1 1 l 1,1 v 1 0 1 h 1 v 1 0 0 -1 h 1 v -1 -1 -1 -1 l 1,-2 v -1 -2 -2 l 1,-2 v -2 -3 -2 -3 l 1,-3 v -2 -3 -3 -2 l 1,-3 v -3 -3 -2 l 1,-2 v -3 -2 -2 -1 l 1,-2 v -1 -1 -1 0 h 1 v 0 0 1 l 1,1 v 2 1 2 3 l 1,2 v 3 3 4 3 l 1,4 v 4 4 4 l 1,4 v 5 4 4 4 l 1,4 v 4 3 4 3 l 1,2 v 3 2 1 l 1,2 v 1 0 0 -1 l 1,-1 v -1 -2 -3 -3 l 1,-3 v -4 -4 -5 -4 l 1,-6 v -5 -5 -6 l 1,-6 v -6 -6 -5 -6 l 1,-6 v -5 -5 -4 -5 l 1,-4 v -3 -3 -2 l 1,-2 v -1 -1 1 0 l 1,2 v 2 3 3 4 l 1,4 v 5 6 6 l 1,6 v 7 7 7 8 l 1,7 v 8 7 8 7 l 1,7 v 6 7 5 l 1,5 v 5 4 3 2 l 1,2 v 1 0 -1 -2 l 1,-2 v -4 -4 -4 l 1,-6 v -6 -7 -7 -8 l 1,-8 v -9 -9 -9 -9 l 1,-9 v -9 -9 -9 l 1,-8 v -8 -7 -7 -6 l 1,-5 v -4 -4 -3 -1 l 1,-1 v 1 1 2 4 l 1,4 v 5 6 7 l 1,7 v 9 9 9 10 l 1,10 v 11 10 11 10 l 1,11 v 10 9 10 l 1,8 v 8 7 7 5 l 1,4 v 3 3 1 0 l 1,-2 v -2 -4 -4 l 1,-6 v -6 -8 -8 -9 l 1,-10 v -11 -11 -11 -12 l 1,-12 v -11 -12 -12 l 1,-11 v -11 -10 -10 -8 l 1,-8 v -7 -6 -5 -4 l 1,-2 v -1 0 1 l 1,3 v 4 5 6 7 l 1,8 v 10 10 10 12 l 1,12 v 12 13 12 l 1,13 v 13 12 13 11 l 1,11 v 10 10 8 7 l 1,7 v 4 4 2 1 h 1 v -2 -3 -4 l 1,-5 v -7 -8 -9 -10 l 1,-11 v -11 -13 -12 -14 l 1,-13 v -14 -13 -13 l 1,-14 v -12 -12 -12 -10 l 1,-10 v -8 -8 -6 -5 l 1,-3 v -2 -1 1 l 1,2 v 4 5 6 8 l 1,8 v 10 10 12 12 l 1,13 v 14 13 14 l 1,14 v 15 13 14 13 l 1,12 v 11 11 10 8 l 1,7 v 6 5 3 l 1,1 v 0 -1 -3 -4 l 1,-6 v -7 -8 -9 -11 l 1,-11 v -12 -13 -13 l 1,-14 v -15 -14 -15 -14 l 1,-14 v -14 -13 -12 -11 l 1,-11 v -9 -8 -7 -5 l 1,-4 v -3 -1 1 l 1,2 v 3 5 7 7 l 1,9 v 10 11 12 13 l 1,13 v 14 15 14 l 1,15 v 15 14 14 14 l 1,13 v 12 11 10 9 l 1,8 v 6 5 3 l 1,2 v 0 -1 -3 -4 l 1,-6 v -7 -8 -10 -10 l 1,-12 v -12 -14 -14 l 1,-14 v -15 -15 -14 -15 l 1,-15 v -14 -13 -13 -12 l 1,-11 v -9 -9 -7 l 1,-5 v -4 -3 -1 0 l 1,2 v 4 5 6 8 l 1,9 v 10 12 12 l 1,13 v 14 14 15 15 l 1,15 v 15 14 15 14 l 1,13 v 12 12 10 9 l 1,8 v 6 5 3 l 1,2 v 1 -2 -2 -5 l 1,-6 v -7 -8 -10 -11 l 1,-12 v -12 -14 -14 l 1,-15 v -14 -16 -15 -15 l 1,-14 v -15 -13 -13 -12 l 1,-11 v -10 -8 -7 l 1,-6 v -4 -3 -1 1 l 1,2 v 4 5 6 8 l 1,9 v 11 11 12 l 1,14 v 14 14 15 15 l 1,15 v 15 15 15 14 l 1,13 v 12 12 10 l 1,9 v 8 6 5 4 l 1,1 v 1 -2 -3 -4 l 1,-6 v -7 -9 -10 l 1,-11 v -12 -12 -14 -14 l 1,-15 v -15 -15 -16 -15 l 1,-14 v -15 -13 -13 -12 l 1,-11 v -10 -8 -7 l 1,-6 v -4 -3 0 0 l 1,2 v 4 5 7 8 l 1,9 v 11 11 13 l 1,13 v 14 15 15 15 l 1,15 v 15 15 15 14 l 1,13 v 13 11 10 l 1,9 v 8 6 5 3 l 1,2 v 0 -1 -3 -5 l 1,-6 v -7 -9 -10 l 1,-11 v -12 -13 -14 -14 l 1,-15 v -15 -16 -15 -15 l 1,-15 v -14 -14 -13 l 1,-11 v -11 -10 -8 -7 l 1,-6 v -4 -2 -1 1 l 1,2 v 4 6 6 l 1,9 v 9 11 11 13 l 1,13 v 14 15 15 15 l 1,16 v 15 15 14 l 1,14 v 13 13 11 10 l 1,9 v 8 6 5 3 l 1,1 v 0 -1 -4 -4 l 1,-6 v -8 -9 -10 l 1,-11 v -12 -13 -14 -15 l 1,-14 v -16 -15 -15 -15 l 1,-15 v -14 -14 -13 l 1,-12 v -10 -10 -8 -7 l 1,-5 v -4 -2 -1 1 l 1,2 v 5 5 7 l 1,8 v 10 11 11 13 l 1,14 v 14 14 15 16 l 1,15 v 15 15 15 l 1,14 v 13 12 11 10 l 1,9 v 8 6 4 3 l 1,2 v -1 -1 -4 l 1,-5 v -6 -8 -9 -10 l 1,-11 v -13 -13 -14 -14 l 1,-15 v -15 -15 -16 l 1,-15 v -15 -14 -13 -13 l 1,-12 v -10 -10 -8 -7 l 1,-5 v -3 -3 0 1 l 1,3 v 4 6 7 l 1,8 v 10 11 12 12 l 1,14 v 14 15 15 15 l 1,16 v 15 15 14 l 1,14 v 13 12 11 10 l 1,9 v 7 6 5 2 l 1,2 v -1 -2 -3 l 1,-5 v -7 -8 -9 -10 l 1,-11 v -13 -13 -14 -15 l 1,-14 v -16 -15 -15 l 1,-15 v -15 -14 -14 -12 l 1,-12 v -10 -10 -8 -6 l 1,-5 v -4 -2 0 l 1,1 v 3 4 6 7 l 1,9 v 10 11 12 13 l 1,13 v 15 14 15 l 1,16 v 15 15 15 15 l 1,13 v 13 12 12 9 l 1,9 v 7 6 4 3 l 1,1 v -1 -2 -4 l 1,-5 v -6 -8 -10 -10 l 1,-12 v -12 -13 -14 -15 l 1,-15 v -15 -16 -15 l 1,-15 v -15 -14 -13 -13 l 1,-11 v -10 -10 -7 -7 l 1,-5 v -3 -2 0 l 1,1 v 3 5 6 7 l 1,9 v 10 11 12 13 l 1,14 v 14 15 15 l 1,15 v 16 15 15 14 l 1,14 v 13 12 11 9 l 1,9 v 7 5 4 l 1,3 v 1 -1 -2 -4 l 1,-5 v -7 -8 -10 -10 l 1,-12 v -12 -14 -14 l 1,-15 v -15 -15 -15 -15 l 1,-15 v -15 -14 -13 -13 l 1,-11 v -11 -9 -7 -6 l 1,-5 v -3 -2 0 l 1,2 v 3 4 7 7 l 1,9 v 10 11 12 13 l 1,14 v 15 14 16 l 1,15 v 15 15 15 15 l 1,13 v 13 12 11 9 l 1,9 v 6 6 4 l 1,2 v 1 -1 -3 -4 l 1,-5 v -7 -8 -10 -10 l 1,-12 v -13 -13 -14 l 1,-15 v -15 -15 -16 -15 l 1,-15 v -15 -14 -13 -12 l 1,-11 v -11 -8 -8 l 1,-6 v -5 -3 -1 0 l 1,2 v 3 5 6 8 l 1,9 v 10 11 13 l 1,13 v 14 14 15 15 l 1,16 v 15 15 15 14 l 1,14 v 12 12 11 9 l 1,8 v 7 5 4 l 1,2 v 1 -1 -3 -4 l 1,-6 v -7 -8 -10 -11 l 1,-11 v -13 -14 -14 l 1,-15 v -15 -15 -15 -16 l 1,-15 v -14 -14 -13 -12 l 1,-11 v -11 -8 -8 l 1,-6 v -4 -3 -1 0 l 1,2 v 4 5 6 8 l 1,9 v 10 12 12 l 1,13 v 14 15 15 15 l 1,15 v 15 16 14 14 l 1,14 v 13 11 11 l 1,9 v 8 7 5 3 l 1,2 v 1 -2 -2 -5 l 1,-5 v -8 -8 -10 l 1,-11 v -12 -13 -13 -15 l 1,-14 v -15 -16 -15 -15 l 1,-15 v -15 -13 -13 -13 l 1,-11 v -9 -9 -7 l 1,-6 v -4 -3 -1 0 l 1,3 v 3 5 7 8 l 1,9 v 10 12 12 l 1,14 v 14 14 15 15 l 1,16 v 15 15 15 14 l 1,13 v 13 11 11 l 1,9 v 8 6 5 4 l 1,1 v 1 -2 -3 -4 l 1,-6 v -7 -9 -10 l 1,-11 v -12 -13 -14 -14 l 1,-15 v -15 -15 -16 -15 l 1,-15 v -14 -14 -13 l 1,-12 v -11 -9 -9 -7 l 1,-6 v -4 -2 -1 1 l 1,2 v 4 5 7 l 1,8 v 9 11 11 13 l 1,13 v 14 15 15 15 l 1,15 v 16 15 14 14 l 1,14 v 12 12 10 l 1,9 v 8 6 5 3 l 1,1 v 1 -2 -3 -5 l 1,-6 v -7 -9 -10 l 1,-11 v -12 -13 -14 -15 l 1,-14 v -16 -15 -15 -15 l 1,-15 v -15 -13 -13 l 1,-12 v -11 -9 -9 -7 l 1,-5 v -4 -2 -1 1 l 1,2 v 4 6 6 l 1,9 v 9 11 11 13 l 1,14 v 14 14 15 16 l 1,15 v 15 15 15 l 1,14 v 13 12 12 10 l 1,9 v 7 6 5 3 l 1,2 v -1 -1 -4 l 1,-4 v -7 -7 -9 -10 l 1,-11 v -13 -13 -14 -14 l 1,-15 v -15 -16 -15 l 1,-15 v -15 -14 -14 -12 l 1,-12 v -11 -9 -9 -6 l 1,-6 v -3 -2 -1 1 l 1,2 v 5 5 7 l 1,9 v 9 11 12 13 l 1,13 v 14 15 15 15 l 1,16 v 15 15 14 l 1,14 v 13 13 11 10 l 1,9 v 7 6 4 3 l 1,2 v -1 -2 -3 l 1,-5 v -6 -8 -9 -10 l 1,-12 v -12 -13 -14 -15 l 1,-15 v -15 -15 -15 l 1,-16 v -14 -14 -14 -13 l 1,-11 v -11 -9 -8 -7 l 1,-5 v -4 -2 0 l 1,1 v 3 4 6 7 l 1,9 v 9 11 12 13 l 1,14 v 14 15 15 l 1,15 v 15 15 15 15 l 1,14 v 13 12 11 10 l 1,9 v 7 6 4 3 l 1,1 v -1 -2 -3 l 1,-5 v -7 -8 -9 -11 l 1,-11 v -12 -14 -14 -14 l 1,-15 v -15 -16 -15 l 1,-15 v -15 -14 -13 -13 l 1,-12 v -10 -9 -8 -7 l 1,-5 v -3 -2 0 l 1,1 v 3 5 6 7 l 1,8 v 10 11 12 13 l 1,14 v 14 15 15 l 1,16 v 15 15 15 14 l 1,14 v 13 12 11 10 l 1,8 v 7 6 4 l 1,3 v 1 -1 -2 -4 l 1,-5 v -7 -8 -9 -11 l 1,-11 v -13 -13 -14 l 1,-15 v -15 -15 -15 -16 l 1,-15 v -14 -14 -14 -12 l 1,-12 v -10 -9 -8 -6 l 1,-5 v -3 -2 0 l 1,2 v 3 4 6 8 l 1,8 v 10 12 12 13 l 1,13 v 15 15 15 l 1,15 v 15 16 14 15 l 1,13 v 13 12 11 10 l 1,8 v 7 6 4 l 1,2 v 1 -1 -2 -4 l 1,-6 v -7 -8 -9 -11 l 1,-12 v -12 -14 -14 l 1,-14 v -15 -16 -15 -15 l 1,-15 v -15 -14 -13 -12"
           stroke="#4472c4"
           stroke-width="2"
           stroke-linecap="round"
           stroke-linejoin="round"
           stroke-miterlimit="10"
           fill="none"
           id="path3043" />
      </g>
      <g
         id="g3049">
        <path
           d="m 561,576 v -5 -1 -1 h 1 v 0 0 0 0 h 1 v 0 -1 0 0 h 1 v 0 0 0 h 1 v 0 0 0 0 h 1 v 0 0 0 0 h 1 v 0 0 0 0 h 1 v 0 0 0 h 1 v -1 0 0 0 h 1 v 0 0 0 0 h 1 v 0 0 0 h 1 v 0 0 0 0 h 1 v 0 0 0 0 h 1 v 0 0 0 l 1,1 v 0 0 0 0 h 1 v 0 0 0 0 h 1 v 0 0 0 h 1 v 0 0 0 0 h 1 v 0 0 0 0 h 1 v 0 0 0 h 1 v 0 0 0 0 h 1 v 0 0 0 0 h 1 v 0 0 0 h 1 v 0 0 0 0 h 1 v -1 0 0 0 h 1 v 0 0 0 0 h 1 v 0 0 0 h 1 v 0 0 0 0 h 1 v 0 0 0 0 h 1 v 0 0 0 h 1 v 0 0 0 1 h 1 v 0 0 0 0 h 1 v 0 0 0 h 1 v 0 0 0 0 h 1 v 0 0 0 0 h 1 v 0 0 0 h 1 v 0 0 0 0 h 1 v 0 0 0 0 h 1 v 0 0 0 h 1 v 0 0 -1 0 h 1 v 0 0 0 0 h 1 v 0 0 0 h 1 v 0 0 0 0 h 1 v 0 0 0 0 h 1 v 0 0 0 0 h 1 v 0 0 0 h 1 v 0 0 0 0 h 1 v 0 0 1 0 h 1 v 0 0 0 h 1 v 0 0 0 0 h 1 v 1 0 0 0 h 1 v 0 0 0 h 1 v 0 0 0 0 h 1 v 0 0 0 0 l 1,-1 v 0 0 0 h 1 v 0 0 0 0 l 1,-1 v 0 0 0 0 h 1 v 0 0 -1 h 1 v 0 0 0 0 h 1 v 0 0 0 0 h 1 v -1 0 0 h 1 v 1 0 0 0 h 1 v 0 0 0 0 h 1 v 0 1 0 0 h 1 v 0 1 0 h 1 v 0 0 1 0 h 1 v 0 0 1 0 h 1 v 0 0 0 h 1 v 1 0 0 0 h 1 v 0 0 0 0 h 1 v 0 -1 0 h 1 v 0 0 -1 0 h 1 v 0 -1 0 0 h 1 v -1 0 0 l 1,-1 v 0 0 -1 0 h 1 v -1 0 0 -1 h 1 v 0 0 0 l 1,-1 v 0 0 0 0 h 1 v 0 0 0 1 h 1 v 0 0 0 l 1,1 v 0 0 1 0 l 1,1 v 0 1 0 1 h 1 v 1 0 1 0 l 1,1 v 0 1 0 l 1,1 v 0 1 0 1 h 1 v 0 1 0 0 h 1 v 0 0 0 h 1 v 0 0 0 -1 h 1 v -1 0 -1 0 l 1,-1 v 0 -1 -1 l 1,-1 v -1 0 -1 -1 l 1,-1 v -1 -1 -1 -1 h 1 v -1 -1 -1 l 1,-1 v 0 -1 -1 0 l 1,-1 v 0 0 -1 0 h 1 v 0 0 1 h 1 v 0 1 1 0 l 1,1 v 1 1 1 1 l 1,1 v 2 1 1 l 1,2 v 1 2 1 2 l 1,1 v 2 1 2 1 l 1,1 v 2 1 1 l 1,1 v 1 1 0 1 h 1 v 0 0 0 0 l 1,-1 v 0 -1 -1 -1 l 1,-1 v -2 -1 -2 l 1,-2 v -2 -2 -2 -3 l 1,-2 v -2 -3 -2 -3 l 1,-2 v -3 -2 -2 l 1,-3 v -2 -2 -1 -2 l 1,-1 v -2 -1 0 -1 h 1 v 0 0 1 l 1,1 v 1 1 2 2 l 1,2 v 3 3 3 3 l 1,3 v 4 3 4 l 1,4 v 4 3 4 4 l 1,4 v 3 3 4 2 l 1,3 v 3 2 1 l 1,2 v 1 0 0 0 l 1,-1 v -1 -1 -2 -3 l 1,-3 v -3 -3 -4 l 1,-5 v -4 -5 -5 -5 l 1,-5 v -6 -5 -5 -6 l 1,-5 v -5 -4 -5 -4 l 1,-4 v -3 -3 -3 l 1,-2 v -1 -1 0 0 l 1,1 v 2 2 2 4 l 1,4 v 4 5 5 l 1,6 v 6 6 7 6 l 1,7 v 7 7 7 7 l 1,6 v 7 5 6 l 1,5 v 5 3 4 2 l 1,2 v 2 0 0 -1 l 1,-2 v -3 -3 -4 l 1,-5 v -5 -6 -7 -7 l 1,-7 v -8 -8 -8 -9 l 1,-8 v -9 -8 -8 l 1,-8 v -7 -7 -7 -6 l 1,-5 v -5 -3 -3 -2 l 1,-1 v 0 0 2 l 1,3 v 3 5 5 6 l 1,6 v 8 8 8 9 l 1,10 v 9 10 10 10 l 1,10 v 9 9 9 l 1,8 v 8 7 6 5 l 1,5 v 3 3 1 0 h 1 v -2 -3 -4 l 1,-5 v -5 -7 -8 -8 l 1,-9 v -9 -10 -11 -11 l 1,-11 v -11 -11 -10 l 1,-11 v -10 -10 -9 -8 l 1,-8 v -7 -6 -4 -4 l 1,-3 v -1 0 1 l 1,2 v 3 4 6 6 l 1,8 v 8 9 10 11 l 1,11 v 11 12 12 l 1,12 v 12 11 12 11 l 1,10 v 10 8 8 7 l 1,6 v 5 4 2 l 1,1 v 0 -1 -3 -4 l 1,-5 v -6 -8 -8 -9 l 1,-10 v -11 -11 -12 -12 l 1,-13 v -13 -12 -13 l 1,-12 v -12 -11 -11 -10 l 1,-9 v -7 -7 -6 -5 l 1,-3 v -2 0 0 l 1,3 v 3 5 5 8 l 1,8 v 9 10 11 11 l 1,12 v 13 13 13 l 1,13 v 13 13 13 12 l 1,11 v 11 10 8 8 l 1,7 v 5 4 2 l 1,2 v 0 -2 -3 -4 l 1,-6 v -6 -8 -9 -10 l 1,-11 v -12 -12 -13 l 1,-13 v -13 -14 -13 -14 l 1,-13 v -13 -11 -12 -10 l 1,-10 v -8 -7 -6 l 1,-5 v -3 -2 0 1 l 1,2 v 4 5 7 7 l 1,9 v 10 11 11 12 l 1,13 v 14 13 14 l 1,14 v 14 13 13 12 l 1,12 v 11 10 9 8 l 1,6 v 6 3 3 l 1,1 v -1 -2 -3 -5 l 1,-6 v -7 -9 -9 -11 l 1,-11 v -13 -12 -14 l 1,-14 v -13 -15 -13 -14 l 1,-14 v -12 -13 -11 -10 l 1,-10 v -8 -7 -6 l 1,-4 v -3 -1 0 1 l 1,3 v 4 6 7 8 l 1,10 v 10 11 12 l 1,13 v 13 14 14 14 l 1,15 v 13 14 13 13 l 1,12 v 10 10 9 l 1,7 v 7 4 4 2 h 1 v -1 -3 -3 -6 l 1,-6 v -8 -9 -11 -11 l 1,-12 v -12 -14 -13 l 1,-14 v -15 -14 -14 -14 l 1,-13 v -13 -12 -11 -10 l 1,-9 v -8 -7 -5 l 1,-4 v -2 -1 0 2 l 1,4 v 5 6 8 9 l 1,9 v 11 12 13 l 1,13 v 13 14 15 14 l 1,14 v 14 14 13 12 l 1,12 v 10 10 8 l 1,7 v 6 4 3 1 h 1 v -2 -3 -4 -6 l 1,-8 v -8 -10 -10 l 1,-12 v -12 -13 -14 -14 l 1,-14 v -15 -14 -14 -14 l 1,-13 v -13 -11 -11 l 1,-10 v -9 -7 -6 -5 l 1,-3 v -2 0 1 3 l 1,4 v 6 7 8 9 l 1,11 v 11 12 13 l 1,13 v 14 15 14 14 l 1,15 v 13 14 13 12 l 1,11 v 10 9 8 l 1,6 v 5 4 2 1 l 1,-1 v -2 -4 -5 -7 l 1,-8 v -9 -10 -11 l 1,-12 v -13 -13 -14 -14 l 1,-15 v -14 -14 -14 -14 l 1,-13 v -12 -12 -10 l 1,-9 v -8 -7 -6 -4 l 1,-2 v -1 0 2 3 l 1,5 v 6 8 9 l 1,10 v 10 12 13 13 l 1,14 v 14 14 15 14 l 1,14 v 14 13 12 l 1,12 v 11 10 8 7 l 1,6 v 4 3 2 0 l 1,-2 v -3 -4 -6 l 1,-7 v -9 -9 -11 -11 l 1,-13 v -13 -13 -14 -15 l 1,-14 v -15 -14 -14 -13 l 1,-13 v -12 -11 -10 l 1,-8 v -8 -6 -5 -3 l 1,-2 v -1 2 2 4 l 1,6 v 7 8 9 l 1,10 v 12 12 13 13 l 1,14 v 14 15 14 14 l 1,14 v 14 13 12 l 1,11 v 11 9 8 6 l 1,5 v 4 2 1 -1 l 1,-2 v -4 -5 -6 l 1,-8 v -9 -10 -11 -12 l 1,-13 v -13 -14 -14 -14 l 1,-15 v -14 -14 -14 l 1,-13 v -12 -12 -10 -10 l 1,-8 v -7 -6 -4 -2 l 1,-2 v 1 2 3 l 1,5 v 6 7 9 10 l 1,10 v 12 13 13 14 l 1,14 v 14 15 14 14 l 1,14 v 13 13 12 l 1,10 v 10 9 7 6 l 1,4 v 3 2 0 -1 l 1,-3 v -5 -6 -7 l 1,-8 v -9 -11 -12 -12 l 1,-13 v -13 -15 -14 -14 l 1,-15 v -14 -14 -13 l 1,-13 v -12 -11 -10 -9 l 1,-8 v -6 -5 -3 -2 l 1,-1 v 1 3 4 l 1,5 v 7 8 9 11 l 1,11 v 12 13 13 14 l 1,15 v 14 14 15 l 1,14 v 13 13 12 12 l 1,10 v 9 8 7 5 l 1,4 v 2 1 0 l 1,-3 v -3 -5 -7 -7 l 1,-9 v -10 -11 -12 -13 l 1,-13 v -14 -14 -15 -14 l 1,-14 v -15 -13 -13 l 1,-13 v -11 -11 -9 -9 l 1,-7 v -5 -5 -2 -2 l 1,1 v 1 4 4 l 1,6 v 8 8 10 11 l 1,11 v 13 13 14 14 l 1,14 v 15 14 14 l 1,14 v 13 13 12 11 l 1,10 v 8 8 6 4 l 1,3 v 2 0 -1 l 1,-3 v -4 -6 -7 -8 l 1,-10 v -10 -12 -12 -13 l 1,-14 v -14 -14 -15 l 1,-14 v -14 -14 -14 -12 l 1,-12 v -12 -10 -9 -7 l 1,-7 v -5 -3 -2 l 1,-1 v 1 3 4 5 l 1,7 v 8 9 10 11 l 1,12 v 13 14 14 14 l 1,14 v 15 14 14 l 1,14 v 13 12 11 11 l 1,9 v 8 7 5 4 l 1,2 v 1 0 -2 l 1,-4 v -5 -6 -8 -9 l 1,-10 v -11 -12 -12 -14 l 1,-13 v -15 -14 -14 l 1,-15 v -14 -14 -13 -12 l 1,-12 v -10 -10 -8 -7 l 1,-6 v -5 -2 -2 l 1,1 v 1 3 5 6 l 1,7 v 9 9 11 12 l 1,12 v 13 14 14 l 1,15 v 14 14 15 13 l 1,14 v 12 12 11 10 l 1,9 v 7 6 5 l 1,3 v 2 0 -1 -3 l 1,-4 v -6 -7 -8 -9 l 1,-11 v -11 -13 -12 -14 l 1,-14 v -14 -15 -14 l 1,-14 v -14 -14 -13 -12 l 1,-11 v -10 -9 -8 -6 l 1,-5 v -4 -2 -1 l 1,1 v 3 3 6 6 l 1,8 v 9 10 12 12 l 1,12 v 14 14 14 l 1,14 v 15 14 14 14 l 1,13 v 12 12 10 9 l 1,8 v 7 6 4 l 1,2 v 1 0 -2 -4 l 1,-5 v -6 -8 -8 -10 l 1,-11 v -12 -13 -13 l 1,-14 v -14 -14 -15 -14 l 1,-14 v -14 -13 -13 -11 l 1,-11 v -10 -8 -7 l 1,-6 v -4 -3 -2 1 l 1,1 v 3 5 6 7 l 1,8 v 10 11 11 13 l 1,13 v 13 15 14 l 1,14 v 15 14 14 13 l 1,13 v 12 11 10 8 l 1,8 v 6 5 3 l 1,2 v 0 -1 -3 -4 l 1,-5 v -7 -9 -9 -10 l 1,-12 v -12 -13 -13 l 1,-14 v -15 -14 -14 -15 l 1,-14 v -13 -13 -12 -11 l 1,-11 v -9 -8 -6 l 1,-5 v -4 -2 -1 1 l 1,2 v 4 5 7 8 l 1,9 v 10 11 12 l 1,13 v 13 14 14 15 l 1,14 v 14 15 13 13 l 1,13 v 11 11 9 l 1,8 v 7 5 4 3 l 1,1 v 0 -2 -4 -4 l 1,-7 v -7 -9 -10 -11 l 1,-11 v -13 -13 -14 l 1,-14 v -14 -15 -14 -14 l 1,-14 v -13 -13 -12 -10 l 1,-10 v -9 -7 -6 l 1,-4 v -3 -2 0 2 l 1,3 v 4 6 7 9 l 1,9 v 11 12 12 l 1,13 v 14 14 14 15 l 1,14 v 14 14 14 12 l 1,12 v 11 10 9 l 1,8 v 6 5 3 2 h 1 v -1 -3 -4 -5 l 1,-7 v -8 -9 -11 l 1,-11 v -12 -13 -14 -14 l 1,-14 v -14 -15 -14 -14 l 1,-14 v -12 -13 -11 l 1,-10 v -9 -8 -7 -5 l 1,-4 v -2 -1 1 2 l 1,4 v 5 7 7 l 1,9 v 10 11 12 13 l 1,14 v 13 15 14 14 l 1,15 v 14 14 13 12 l 1,12 v 10 10 8 l 1,7 v 5 4 3 1 h 1 v -2 -3 -5 -6 l 1,-8 v -8 -10 -11 l 1,-12 v -12 -13 -14 -14 l 1,-15 v -14 -15 -14 -14 l 1,-13 v -12 -12 -11 l 1,-10 v -8 -8 -5 -5 l 1,-3 v -2 0 2 3 l 1,4 v 6 7 8 l 1,10 v 11 11 12 13 l 1,14 v 14 14 15 14 l 1,15 v 13 14 13 l 1,12 v 11 10 9 7 l 1,6 v 5 4 2 0 l 1,-1 v -2 -4 -6 l 1,-7 v -8 -9 -10 -11 l 1,-13 v -12 -14 -14 -14 l 1,-15 v -14 -14 -14 -14 l 1,-13 v -12 -11 -11 l 1,-9 v -8 -7 -5 -4 l 1,-2 v -1 1 2 4 l 1,5 v 6 8 9 l 1,10 v 11 12 13 13 l 1,14 v 14 14 15 14 l 1,14 v 14 13 12 l 1,12 v 11 9 8 7 l 1,6 v 4 3 1 0 l 1,-2 v -3 -5 -6 l 1,-7 v -9 -10 -10 -12 l 1,-13 v -13 -14 -14 -14 l 1,-14 v -15 -14 -14 l 1,-13 v -13 -12 -10 -10 l 1,-9 v -7 -6 -5 -3 l 1,-2 v 0 2 3 l 1,4 v 6 7 8 9 l 1,11 v 11 13 13 13 l 1,14 v 15 14 15 14 l 1,14 v 13 13 12 l 1,11 v 10 9 8 6 l 1,5 v 4 2 0 -1 l 1,-2 v -4 -6 -6 l 1,-8 v -9 -11 -11 -12 l 1,-13 v -13 -14 -14 -15 l 1,-14 v -15 -14 -13 l 1,-13 v -12 -12 -10 -9 l 1,-8 v -7 -6 -3 -3 l 1,-1 v 1 2 4 l 1,5 v 6 7 9 10 l 1,11 v 12 13 13 14"
           stroke="#ed7d31"
           stroke-width="2"
           stroke-linecap="round"
           stroke-linejoin="round"
           stroke-miterlimit="10"
           fill="none"
           id="path3047" />
      </g>
      <g
         id="g3053">
        <text
           font-family="Arial, Arial_MSFontService, sans-serif"
           font-weight="400"
           font-size="12px"
           transform="translate(529.667,744)"
           id="text3051">-0.4</text>
      </g>
      <g
         id="g3057">
        <text
           font-family="Arial, Arial_MSFontService, sans-serif"
           font-weight="400"
           font-size="12px"
           transform="translate(529.667,701)"
           id="text3055">-0.3</text>
      </g>
      <g
         id="g3061">
        <text
           font-family="Arial, Arial_MSFontService, sans-serif"
           font-weight="400"
           font-size="12px"
           transform="translate(529.667,657)"
           id="text3059">-0.2</text>
      </g>
      <g
         id="g3065">
        <text
           font-family="Arial, Arial_MSFontService, sans-serif"
           font-weight="400"
           font-size="12px"
           transform="translate(529.667,614)"
           id="text3063">-0.1</text>
      </g>
      <g
         id="g3069">
        <text
           font-family="Arial, Arial_MSFontService, sans-serif"
           font-weight="400"
           font-size="12px"
           transform="translate(543.667,570)"
           id="text3067">0</text>
      </g>
      <g
         id="g3073">
        <text
           font-family="Arial, Arial_MSFontService, sans-serif"
           font-weight="400"
           font-size="12px"
           transform="translate(533.66,526)"
           id="text3071">0.1</text>
      </g>
      <g
         id="g3077">
        <text
           font-family="Arial, Arial_MSFontService, sans-serif"
           font-weight="400"
           font-size="12px"
           transform="translate(533.66,483)"
           id="text3075">0.2</text>
      </g>
      <g
         id="g3081">
        <text
           font-family="Arial, Arial_MSFontService, sans-serif"
           font-weight="400"
           font-size="12px"
           transform="translate(533.66,439)"
           id="text3079">0.3</text>
      </g>
      <g
         id="g3085">
        <text
           font-family="Arial, Arial_MSFontService, sans-serif"
           font-weight="400"
           font-size="12px"
           transform="translate(533.66,396)"
           id="text3083">0.4</text>
      </g>
      <g
         id="g3089">
        <text
           font-family="Arial, Arial_MSFontService, sans-serif"
           font-weight="400"
           font-size="12px"
           transform="translate(557.324,584)"
           id="text3087">0</text>
      </g>
      <g
         id="g3093">
        <text
           font-family="Arial, Arial_MSFontService, sans-serif"
           font-weight="400"
           font-size="12px"
           transform="translate(660.737,584)"
           id="text3091">50</text>
      </g>
      <g
         id="g3097">
        <text
           font-family="Arial, Arial_MSFontService, sans-serif"
           font-weight="400"
           font-size="12px"
           transform="translate(764.151,584)"
           id="text3095">100</text>
      </g>
      <g
         id="g3101">
        <text
           font-family="Arial, Arial_MSFontService, sans-serif"
           font-weight="400"
           font-size="12px"
           transform="translate(870.902,584)"
           id="text3099">150</text>
      </g>
      <g
         id="g3105">
        <text
           font-family="Arial, Arial_MSFontService, sans-serif"
           font-weight="400"
           font-size="12px"
           transform="translate(977.652,584)"
           id="text3103">200</text>
      </g>
      <rect
         x="760"
         y="391"
         width="227"
         height="157"
         fill="#ffffff"
         id="rect3107" />
      <g
         id="g3111">
        <path
           d="m 799.5,533.5 h 163 m -163,-32 h 163 m -163,-64 h 163 m -163,-32 h 163"
           stroke="#d9d9d9"
           stroke-linejoin="round"
           stroke-miterlimit="10"
           fill="none"
           id="path3109" />
      </g>
      <g
         id="g3115">
        <path
           d="m 880.5,405.5 v 128 m 82,-128 v 128"
           stroke="#d9d9d9"
           stroke-linejoin="round"
           stroke-miterlimit="10"
           fill="none"
           id="path3113" />
      </g>
      <g
         id="g3119">
        <rect
           x="799.5"
           y="405.5"
           width="163"
           height="128"
           stroke="#000000"
           stroke-linejoin="round"
           stroke-miterlimit="10"
           fill="none"
           id="rect3117" />
      </g>
      <g
         id="g3123">
        <path
           d="M 0,0 1.04987e-4,128"
           stroke="#000000"
           stroke-linejoin="round"
           stroke-miterlimit="10"
           fill="none"
           fill-rule="evenodd"
           transform="matrix(1,0,0,-1,799.5,533.5)"
           id="path3121" />
      </g>
      <g
         id="g3127">
        <path
           d="m 799.5,533.5 h 3 m -3,-7 h 3 m -3,-6 h 3 m -3,-6 h 3 m -3,-7 h 3 m -3,-6 h 3 m -3,-6 h 3 m -3,-7 h 3 m -3,-6 h 3 m -3,-7 h 3 m -3,-6 h 3 m -3,-6 h 3 m -3,-7 h 3 m -3,-6 h 3 m -3,-7 h 3 m -3,-6 h 3 m -3,-6 h 3 m -3,-7 h 3 m -3,-6 h 3 m -3,-6 h 3 m -3,-7 h 3 m -6,128 h 7 m -7,-32 h 7 m -7,-32 h 7 m -7,-32 h 7 m -7,-32 h 7"
           stroke="#000000"
           stroke-linejoin="round"
           stroke-miterlimit="10"
           fill="none"
           id="path3125" />
      </g>
      <g
         id="g3131">
        <path
           d="m 799.5,469.5 h 163"
           stroke="#000000"
           stroke-linejoin="round"
           stroke-miterlimit="10"
           fill="none"
           fill-rule="evenodd"
           id="path3129" />
      </g>
      <g
         id="g3135">
        <path
           d="m 799.5,466.5 v 3 m 16,-3 v 3 m 17,-3 v 3 m 16,-3 v 3 m 16,-3 v 3 m 16,-3 v 3 m 17,-3 v 3 m 16,-3 v 3 m 16,-3 v 3 m 16,-3 v 3 m 17,-3 v 3 m -163,-4 v 8 m 81,-8 v 8 m 82,-8 v 8"
           stroke="#000000"
           stroke-linejoin="round"
           stroke-miterlimit="10"
           fill="none"
           id="path3133" />
      </g>
      <g
         clip-path="url(#clip1)"
         id="g3139">
        <path
           d="m -500,474 1,-3 h 1 1 v 0 h 1 1 1 1 v 0 h 1 1 1 1 1 v 0 h 1 1 1 1 v 0 h 1 l 1,-1 h 1 1 v 0 h 1 1 1 1 1 v 0 h 1 1 l 1,-1 h 1 v 0 h 1 1 1 1 v 0 h 1 1 1 1 l 1,-1 v 0 h 1 1 1 1 v 0 h 1 1 1 1 v 0 h 1 1 1 1 l 1,1 v 0 h 1 1 1 1 v 0 h 1 1 1 1 v 1 h 1 1 1 1 1 v 0 h 1 l 1,1 h 1 1 v 0 h 1 1 1 1 v 0 h 1 1 1 1 1 v 0 h 1 1 1 1 v 0 h 1 1 1 1 v 0 h 1 1 l 1,-1 h 1 1 v 0 h 1 1 1 1 v -1 h 1 1 1 1 v 0 h 1 1 1 l 1,-1 h 1 v 0 h 1 1 1 1 v 0 h 1 1 1 1 v 0 h 1 1 1 l 1,1 h 1 v 0 h 1 1 1 1 v 0 h 1 l 1,1 h 1 1 v 0 h 1 1 l 1,1 h 1 1 v 0 h 1 1 1 l 1,1 v 0 h 1 1 1 1 v 0 h 1 1 1 1 v 0 h 1 1 1 1 1 v -1 h 1 1 1 1 v 0 h 1 l 1,-1 h 1 1 v 0 l 1,-1 h 1 1 1 1 v -1 h 1 1 1 1 v -1 h 1 1 1 1 v 0 h 1 l 1,-1 h 1 1 1 v 0 h 1 1 l 1,1 h 1 v 0 h 1 1 1 1 v 1 h 1 1 1 l 1,1 h 1 v 0 h 1 l 1,1 h 1 1 v 1 h 1 1 l 1,1 h 1 v 0 l 1,1 h 1 1 l 1,1 h 1 v 0 h 1 1 1 l 1,1 v 0 h 1 1 1 1 v 0 h 1 l 1,-1 h 1 1 1 v 0 l 1,-1 h 1 1 l 1,-1 v 0 l 1,-1 h 1 l 1,-1 h 1 v -1 h 1 l 1,-1 h 1 l 1,-1 h 1 v -1 h 1 l 1,-1 h 1 l 1,-1 v 0 h 1 l 1,-1 h 1 1 v -1 h 1 1 1 1 1 v 0 h 1 1 1 1 v 0 l 1,1 h 1 l 1,1 h 1 v 1 h 1 l 1,1 1,1 h 1 l 1,1 v 1 l 1,1 1,1 h 1 l 1,1 v 1 l 1,1 1,1 1,1 h 1 v 1 l 1,1 1,1 h 1 l 1,1 h 1 v 1 h 1 l 1,1 h 1 1 v 0 h 1 1 1 1 v -1 h 1 l 1,-1 h 1 l 1,-1 1,-1 v -1 l 1,-1 1,-1 1,-1 1,-1 v -2 l 1,-1 1,-1 1,-2 1,-1 v -1 l 1,-2 1,-1 1,-1 1,-2 1,-1 v -1 l 1,-1 1,-1 1,-1 1,-1 v 0 l 1,-1 h 1 l 1,-1 h 1 v 0 h 1 l 1,1 h 1 l 1,1 v 1 l 1,1 1,1 1,1 1,1 1,2 v 1 l 1,2 1,1 1,2 1,2 v 2 l 1,2 1,2 1,2 1,2 v 2 l 1,2 1,2 1,1 1,2 1,1 v 2 l 1,1 1,1 1,1 h 1 v 1 h 1 1 1 1 v -1 l 1,-1 1,-1 1,-1 1,-2 1,-1 v -2 l 1,-2 1,-2 1,-2 1,-3 v -2 l 1,-3 1,-2 1,-3 1,-3 v -2 l 1,-3 1,-2 1,-3 1,-2 1,-2 v -2 l 1,-2 1,-1 1,-2 1,-1 v -1 h 1 l 1,-1 h 1 1 v 1 l 1,1 1,1 1,1 1,2 1,2 v 2 l 1,2 1,3 1,2 1,3 v 3 l 1,3 1,3 1,3 1,4 v 3 l 1,3 1,3 1,3 1,3 1,3 v 2 l 1,2 1,2 1,2 1,2 v 1 l 1,1 h 1 1 1 v 0 l 1,-1 1,-1 1,-2 1,-2 1,-2 v -2 l 1,-3 1,-3 1,-3 1,-3 v -4 l 1,-3 1,-4 1,-3 1,-4 v -4 l 1,-4 1,-3 1,-4 1,-3 1,-3 v -3 l 1,-3 1,-2 1,-2 1,-2 v -1 l 1,-1 h 1 l 1,-1 1,1 v 0 l 1,1 1,2 1,1 1,2 1,3 v 3 l 1,3 1,3 1,4 1,3 v 4 l 1,4 1,4 1,5 1,4 v 4 l 1,4 1,4 1,4 1,3 1,4 v 3 l 1,3 1,2 1,2 1,2 v 1 l 1,1 1,1 h 1 l 1,-1 v -1 l 1,-1 1,-2 1,-2 1,-2 1,-3 v -3 l 1,-4 1,-4 1,-3 1,-5 v -4 l 1,-4 1,-5 1,-5 1,-4 v -5 l 1,-4 1,-4 1,-4 1,-4 1,-3 v -3 l 1,-3 1,-3 1,-2 1,-1 v -1 l 1,-1 h 1 1 l 1,1 v 1 l 1,2 1,2 1,2 1,3 v 4 l 1,3 1,4 1,4 1,5 1,4 v 5 l 1,5 1,4 1,5 1,5 v 5 l 1,4 1,4 1,4 1,4 v 4 l 1,3 1,2 1,2 1,2 1,1 v 1 l 1,1 1,-1 h 1 l 1,-1 v -2 l 1,-2 1,-3 1,-3 1,-3 v -4 l 1,-4 1,-4 1,-5 0.99997,-4 1,-5 v -5 l 1,-5 1,-5 1,-5 1,-5 v -5 l 1,-4 1,-4 1,-4 0.9999994824,-4 v -3 L 0.999969,426 l 1.000001,-2 1,-2 1,-1 1,-1 v -1 h 1 l 1,1 1,1 1,2 v 2 l 1,3 1.00003,3 1,3 1,4 v 4 l 1,4 1,5 1,5 1,5 1,5 v 5 l 1,5 1,5 1,5 1,5 v 5 l 1,4 1,4 1,4 1,3 v 3 l 1,2 1,2 1,2 1,1 h 1 v 0 l 1,-1 1,-1 1,-2 1,-2 v -2 l 1,-3 1,-4 1,-4 1,-4 v -4 l 1,-5 1,-5 1,-5 1,-5 1,-6 v -5 l 1,-5 1,-5 1,-5 1,-5 v -4 l 1,-4 1,-4 1,-3 1,-3 v -3 l 1,-2 1,-1 1,-1 1,-1 1,1 v 0 l 1,2 1,1 1,2 1,3 v 3 l 1,4 1,4 1,4 1,4 v 5 l 1,5 1,5 1,6 1,5 1,5 v 6 l 1,5 1,5 1,4 1,5 v 4 l 1,4 1,3 1,3 1,3 v 2 l 1,1 1,1 h 1 1 l 1,-1 v -1 l 1,-2 1,-2 1,-3 1,-3 v -3 l 1,-4 1,-5 1,-4 1,-5 v -5 l 1,-5 1,-6 1,-5 1,-5 1,-6 v -5 l 1,-5 1,-5 1,-4 1,-4 v -4 l 1,-3 1,-3 1,-3 1,-2 v -1 l 1,-1 h 1 1 l 1,1 v 1 l 1,2 1,2 1,3 1,3 1,4 v 4 l 1,4 1,5 1,5 1,5 v 5 l 1,5 1,6 1,5 1,5 v 6 l 1,5 1,4 1,5 1,4 1,4 v 3 l 1,3 1,2 1,2 1,2 v 1 h 1 1 l 1,-1 1,-1 v -2 l 1,-3 1,-3 1,-3 1,-3 1,-5 v -4 l 1,-5 1,-5 1,-5 1,-5 v -5 l 1,-6 1,-5 1,-6 1,-5 v -5 l 1,-5 1,-4 1,-4 1,-4 1,-3 v -3 l 1,-3 1,-1 1,-2 1,-1 v 0 l 1,1 h 1 l 1,2 1,2 v 2 l 1,3 1,3 1,4 1,4 1,5 v 4 l 1,5 1,6 1,5 1,5 v 6 l 1,5 1,5 1,6 1,5 v 4 l 1,5 1,4 1,4 1,3 1,3 v 2 l 1,2 1,1 1,1 h 1 v 0 l 1,-1 1,-2 1,-1 1,-3 v -3 l 1,-3 1,-4 1,-4 1,-5 1,-4 v -5 l 1,-6 1,-5 1,-5 1,-6 v -5 l 1,-6 1,-5 1,-5 1,-5 v -4 l 1,-4 1,-4 1,-3 1,-3 1,-2 v -2 l 1,-1 1,-1 h 1 l 1,1 v 1 l 1,1 1,2 1,3 1,3 v 3 l 1,4 1,4 1,5 1,4 1,5 v 6 l 1,5 1,5 1,6 1,5 v 6 l 1,5 1,5 1,4 1,5 v 4 l 1,3 1,4 1,2 1,3 1,1 v 2 h 1 1 1 l 1,-1 v -2 l 1,-2 1,-2 1,-4 1,-3 v -4 l 1,-4 1,-5 1,-5 1,-5 1,-5 v -5 l 1,-6 1,-5 1,-5 1,-6 v -5 l 1,-5 1,-5 1,-4 1,-4 v -4 l 1,-3 1,-2 1,-3 1,-1 1,-1 v -1 h 1 l 1,1 1,1 1,1 v 3 l 1,2 1,3 1,4 1,4 v 4 l 1,5 1,4 1,5 1,6 v 5 l 1,6 1,5 1,5 1,6 1,5 v 5 l 1,4 1,5 1,4 1,3 v 3 l 1,3 1,2 1,2 1,1 v 0 h 1 1 l 1,-2 1,-1 1,-2 v -3 l 1,-3 1,-4 1,-4 1,-4 v -5 l 1,-5 1,-5 1,-5 1,-5 v -6 l 1,-5 1,-6 1,-5 1,-5 1,-5 v -5 l 1,-4 1,-4 1,-3 1,-3 v -3 l 1,-2 1,-2 1,-1 h 1 v 0 l 1,1 1,1 1,2 1,2 1,3 v 3 l 1,4 1,4 1,4 1,5 v 5 l 1,5 1,5 1,5 1,6 v 5 l 1,6 1,5 1,5 1,5 1,4 v 5 l 1,4 1,3 1,3 1,3 v 2 l 1,1 1,1 h 1 1 v -1 l 1,-1 1,-2 1,-2 1,-3 1,-3 v -4 l 1,-4 1,-4 1,-5 1,-5 v -5 l 1,-5 1,-6 1,-5 1,-6 v -5 l 1,-5 1,-5 1,-5 1,-5 1,-4 v -4 l 1,-3 1,-3 1,-3 1,-1 v -2 l 1,-1 h 1 1 l 1,1 v 1 l 1,2 1,3 1,2 1,4 1,4 v 4 l 1,4 1,5 1,5 1,5 v 5 l 1,6 1,5 1,6 1,5 v 5 l 1,5 1,5 1,4 1,5 1,3 v 4 l 1,3 1,2 1,2 1,1 v 1 h 1 1 l 1,-1 1,-1 v -2 l 1,-3 1,-3 1,-3 1,-4 1,-4 v -4 l 1,-5 1,-5 1,-5 1,-6 v -5 l 1,-5 1,-6 1,-5 1,-5 v -5 l 1,-5 1,-5 1,-4 1,-4 1,-3 v -3 l 1,-2 1,-2 1,-1 1,-1 v 0 h 1 l 1,1 1,2 1,2 v 2 l 1,3 1,4 1,3 1,5 1,4 v 5 l 1,5 1,5 1,6 1,5 v 5 l 1,6 1,5 1,5 1,5 v 5 l 1,5 1,4 1,3 1,4 v 2 l 1,3 1,1 1,2 h 1 1 v 0 l 1,-1 1,-2 1,-2 1,-2 v -3 l 1,-4 1,-4 1,-4 1,-4 v -5 l 1,-5 1,-5 1,-6 1,-5 1,-6 v -5 l 1,-5 1,-6 1,-5 1,-4 v -5 l 1,-4 1,-3 1,-4 1,-2 v -3 l 1,-1 1,-1 1,-1 h 1 l 1,1 v 1 l 1,1 1,2 1,3 1,3 v 3 l 1,4 1,5 1,4 1,5 v 5 l 1,5 1,6 1,5 1,6 1,5 v 5 l 1,6 1,4 1,5 1,5 v 4 l 1,3 1,3 1,3 1,2 v 2 l 1,1 h 1 1 1 l 1,-1 v -2 l 1,-2 1,-3 1,-3 1,-4 v -4 l 1,-4 1,-4 1,-5 1,-5 v -6 l 1,-5 1,-6 1,-5 1,-5 1,-6 v -5 l 1,-5 1,-4 1,-5 1,-4 v -3 l 1,-3 1,-3 1,-2 1,-2 v -1 h 1 1 l 1,1 1,1 1,2 v 2 l 1,3 1,3 1,3 1,4 v 5 l 1,4 1,5 1,5 1,6 v 5 l 1,6 1,5 1,5 1,6 1,5 v 5 l 1,4 1,4 1,4 1,4 v 3 l 1,2 1,2 1,2 1,1 v 0 h 1 l 1,-1 1,-1 1,-2 1,-2 v -3 l 1,-3 1,-4 1,-4 1,-4 v -5 l 1,-5 1,-5 1,-5 1,-5 v -6 l 1,-5 1,-6 1,-5 1,-5 1,-5 v -4 l 1,-5 1,-4 1,-3 1,-3 v -2 l 1,-2 1,-2 1,-1 h 1 v 0 l 1,1 1,1 1,2 1,3 1,2 v 4 l 1,3 1,4 1,5 1,5 v 4 l 1,6 1,5 1,5 1,6 v 5 l 1,6 1,5 1,5 1,5 1,4 v 4 l 1,4 1,4 1,3 1,2 v 2 l 1,1 1,1 h 1 1 v -1 l 1,-1 1,-2 1,-2 1,-3 v -4 l 1,-3 1,-5 1,-4 1,-5 1,-5 v -5 l 1,-5 1,-6 1,-5 1,-6 v -5 l 1,-5 1,-5 1,-5 1,-5 v -4 l 1,-3 1,-4 1,-3 1,-2 1,-2 v -1 l 1,-1 h 1 1 l 1,1 v 2 l 1,2 1,2 1,3 1,3 v 4 l 1,4 1,5 1,5 1,5 1,5 v 5 l 1,6 1,5 1,6 1,5 v 5 l 1,5 1,5 1,4 1,4 v 4 l 1,3 1,3 1,2 1,2 1,2 v 0 h 1 1 l 1,-1 1,-2 v -2 l 1,-2 1,-3 1,-4 1,-3 v -5 l 1,-4 1,-5 1,-5 1,-5 1,-6 v -5 l 1,-5 1,-6 1,-5 1,-5 v -5 l 1,-5 1,-5 1,-4 1,-3 v -3 l 1,-3 1,-2 1,-2 1,-1 1,-1 v 0 l 1,1 1,1 1,1 1,2 v 3 l 1,3 1,3 1,4 1,4 v 5 l 1,5 1,5 1,5 1,6 1,5 v 5 l 1,6 1,5 1,5 1,5 v 5 l 1,4 1,4 1,4 1,3 v 3 l 1,2 1,2 1,1 h 1 1 v 0 l 1,-1 1,-2 1,-2 1,-3 v -3 l 1,-3 1,-4 1,-5 1,-4 v -5 l 1,-5 1,-5 1,-6 1,-5 1,-6 v -5 l 1,-5 1,-6 1,-5 1,-4 v -5 l 1,-3 1,-4 1,-3 1,-3 v -2 l 1,-1 1,-2 h 1 1 l 1,1 v 1 l 1,2 1,2 1,2 1,4 v 3 l 1,4 1,5 1,4 1,5 v 5 l 1,5 1,6 1,5 1,6 1,5 v 5 l 1,6 1,4 1,5 1,4 v 4 l 1,4 1,3 1,2 1,2 v 2 l 1,1 h 1 1 1 v -2 l 1,-1 1,-3 1,-2 1,-4 1,-3 v -4 l 1,-5 1,-4 1,-5 1,-5 v -6 l 1,-5 1,-6 1,-5 1,-5 v -6 l 1,-5 1,-5 1,-4 1,-5 1,-3 v -4 l 1,-3 1,-2 1,-2 1,-2 v -1 h 1 1 l 1,1 1,1 v 2 l 1,2 1,3 1,3 1,4 1,4 v 5 l 1,4 1,5 1,5 1,6 v 5 l 1,6 1,5 1,5 1,6 v 5 l 1,5 1,4 1,4 1,4 1,3 v 3 l 1,3 1,2 1,1 1,1 v 0 h 1 l 1,-1 1,-1 1,-2 v -2 l 1,-3 1,-4 1,-3 1,-4 1,-5 v -5 l 1,-5 1,-5 1,-5 1,-5 v -6 l 1,-5 1,-6 1,-5 1,-5 v -5 l 1,-4 1,-4 1,-4 1,-4 1,-2 v -3 l 1,-2 1,-1 1,-1 h 1 v 0 l 1,1 1,2 1,2 1,2 v 3 l 1,3 1,4 1,4 1,5 1,4 v 5 l 1,6 1,5 1,5 1,6 v 5 l 1,6 1,5 1,5 1,5 v 4 l 1,4 1,4 1,3 1,3 1,2 v 2 l 1,1 1,1 h 1 1 v -1 l 1,-1 1,-2 1,-3 1,-3 v -3 l 1,-4 1,-4 1,-5 1,-5 1,-5 v -5 l 1,-5 1,-6 1,-5 1,-6 v -5 l 1,-5 1,-5 1,-5 1,-4 v -4 l 1,-4 1,-3 1,-3 1,-2 1,-2 v -1 l 1,-1 h 1 1 l 1,1 v 2 l 1,2 1,3 1,3 1,3 v 4 l 1,4 1,5 1,5 1,5 1,5 v 5 l 1,6 1,5 1,6 1,5 v 5 l 1,5 1,5 1,4 1,4 v 4 l 1,3 1,3 1,2 1,2 1,1 v 0 h 1 1 l 1,-1 1,-2 v -2 l 1,-3 1,-3 1,-3 1,-4 v -4 l 1,-5 1,-5 1,-5 1,-5 v -6 l 1,-5 1,-5 1,-6 1,-5 1,-5 v -5 l 1,-5 1,-4 1,-4 1,-4 v -3 l 1,-3 1,-2 1,-1 1,-1 v -1 h 1 l 1,1 1,1 1,1 1,3 v 2 l 1,3 1,4 1,4 1,4 v 5 l 1,5 1,5 1,5 1,6 v 5 l 1,5 1,6 1,5 1,5 1,5 v 5 l 1,4 1,4 1,4 1,3 v 2 l 1,2 1,2 1,1 h 1 v 0 h 1 l 1,-2 1,-1 1,-3 1,-2 v -4 l 1,-3 1,-4 1,-4 1,-5 v -5 l 1,-5 1,-5 1,-6 1,-5 v -6 l 1,-5 1,-5 1,-6 1,-4 1,-5 v -4 l 1,-4 1,-4 1,-3 1,-2 v -2 l 1,-2 1,-1 h 1 1 v 1 l 1,1 1,2 1,2 1,3 1,3 v 4 l 1,4 1,4 1,5 1,5 v 5 l 1,5 1,6 1,5 1,6 v 5 l 1,5 1,5 1,5 1,5 1,4 v 4 l 1,3 1,3 1,3 1,2 v 1 l 1,1 h 1 1 l 1,-1 v -1 l 1,-2 1,-2 1,-3 1,-3 1,-4 v -4 l 1,-5 1,-4 1,-5 1,-5 v -6 l 1,-5 1,-6 1,-5 1,-5 v -6 l 1,-5 1,-5 1,-4 1,-4 1,-4 v -3 l 1,-3 1,-3 1,-2 1,-1 v -1 h 1 1 l 1,1 1,2 v 1 l 1,3 1,3 1,3 1,4 1,4 v 4 l 1,5 1,5 1,5 1,6 v 5 l 1,6 1,5 1,5 1,6 v 5 l 1,4 1,5 1,4 1,4 1,3 v 3 l 1,2 1,2 1,1 1,1 v 0 h 1 l 1,-1 1,-1 1,-2 v -3 l 1,-3 1,-3 1,-4 1,-4 1,-5 v -4 l 1,-5 1,-6 1,-5 1,-5 v -6 l 1,-5 1,-6 1,-5 1,-5 v -5 l 1,-4 1,-4 1,-4 1,-3 v -3 l 1,-2 1,-2 1,-1 1,-1 h 1 v 0 l 1,1 1,2 1,2 1,3 v 3 l 1,3 1,4 1,4 1,5 v 4 l 1,5 1,6 1,5 1,5 1,6 v 5 l 1,6 1,5 1,5 1,4 v 5 l 1,4 1,4 1,3 1,3 v 2 l 1,1 1,2 h 1 1 1 v -1 l 1,-2 1,-2 1,-2 1,-4 v -3 l 1,-4 1,-4 1,-5 1,-5 v -5 l 1,-5 1,-5 1,-6 1,-5 1,-6 v -5 l 1,-5 1,-5 1,-5 1,-4 v -4 l 1,-4 1,-3 1,-3 1,-2 v -1 l 1,-1 1,-1 h 1 l 1,1 1,1 v 1 l 1,3 1,2 1,3 1,4 v 4 l 1,4 1,5 1,5 1,5 v 5 l 1,5 1,6 1,5 1,6"
           stroke="#a5a5a5"
           stroke-width="2"
           stroke-linecap="round"
           stroke-linejoin="round"
           stroke-miterlimit="10"
           fill="none"
           id="path3137" />
      </g>
      <g
         clip-path="url(#clip2)"
         id="g3143">
        <path
           d="m -500,473 1,-2 h 1 1 v 0 h 1 1 1 l 1,-1 v 0 h 1 1 1 1 1 v 0 h 1 1 1 1 v 0 h 1 1 1 1 v 0 h 1 1 1 1 1 v 0 h 1 1 1 1 v 0 h 1 1 1 1 v 0 h 1 1 1 1 1 v 0 h 1 1 1 1 v 0 h 1 1 1 1 v 0 h 1 1 1 1 1 v 0 h 1 1 1 1 v 0 h 1 1 1 1 v 0 h 1 1 1 1 1 v 0 h 1 1 1 1 v 0 h 1 1 1 1 v 0 h 1 1 1 1 1 v 0 h 1 1 1 1 v 0 h 1 1 1 1 v 0 h 1 1 1 1 1 v 0 h 1 1 1 1 v 0 h 1 1 1 1 v 0 h 1 1 1 1 1 v 0 h 1 1 1 1 v 0 h 1 1 1 1 v 0 h 1 1 1 1 1 v 0 h 1 1 1 1 v 0 h 1 1 1 1 v 0 h 1 1 1 1 1 v 0 h 1 1 1 1 v 0 h 1 1 1 1 v 0 h 1 1 1 1 v 0 h 1 1 1 1 1 v 0 h 1 1 1 1 v 0 h 1 1 1 1 v 0 h 1 1 1 1 1 v 0 h 1 1 1 1 v 0 h 1 1 1 1 v 0 h 1 1 1 1 1 v 0 h 1 1 1 1 v 0 h 1 1 1 1 v 0 h 1 1 1 1 1 v 0 h 1 1 1 1 v 0 h 1 1 1 1 v 0 l 1,1 h 1 1 1 1 v 0 h 1 1 1 1 v -1 h 1 1 1 1 v 0 h 1 1 1 1 1 v 0 h 1 1 1 1 v 0 h 1 1 1 1 v 0 h 1 1 1 1 l 1,-1 v 0 h 1 1 1 1 v 0 h 1 1 1 1 v 0 h 1 1 1 1 1 v 0 l 1,1 h 1 1 1 v 0 h 1 1 1 1 v 0 h 1 1 1 1 1 v 1 h 1 1 1 1 v 0 h 1 1 1 1 v 0 h 1 1 1 1 1 v 0 h 1 1 1 1 v 0 h 1 1 1 1 v 0 h 1 1 1 1 l 1,-1 v 0 h 1 1 1 1 v 0 h 1 l 1,-1 h 1 1 v 0 h 1 1 1 1 1 v -1 h 1 1 1 1 v 0 h 1 1 1 1 v 0 h 1 1 1 1 v 0 h 1 l 1,1 h 1 1 1 v 0 h 1 1 l 1,1 h 1 v 0 h 1 1 l 1,1 h 1 v 0 h 1 1 l 1,1 h 1 1 v 0 h 1 1 l 1,1 h 1 v 0 h 1 1 1 1 v 0 h 1 1 1 1 1 v 0 h 1 1 1 1 v -1 h 1 1 1 1 v -1 h 1 1 l 1,-1 h 1 1 v -1 h 1 1 l 1,-1 h 1 v 0 l 1,-1 h 1 1 1 v -1 h 1 1 1 l 1,-1 h 1 v 0 h 1 1 1 1 v 0 h 1 1 1 1 v 0 l 1,1 h 1 1 l 1,1 h 1 v 0 l 1,1 h 1 l 1,1 h 1 v 1 h 1 l 1,1 h 1 l 1,1 v 0 l 1,1 h 1 l 1,1 1,1 h 1 v 1 h 1 1 l 1,1 h 1 v 0 l 1,1 h 1 1 1 v 0 h 1 1 1 1 1 v 0 l 1,-1 h 1 l 1,-1 h 1 v -1 h 1 l 1,-1 1,-1 1,-1 v 0 l 1,-1 1,-1 1,-1 1,-1 1,-1 v -1 l 1,-1 h 1 l 1,-1 1,-1 v -1 l 1,-1 h 1 l 1,-1 1,-1 v 0 l 1,-1 h 1 1 l 1,-1 h 1 v 0 l 1,1 h 1 1 l 1,1 v 0 l 1,1 h 1 l 1,1 1,1 v 1 l 1,1 1,1 1,2 1,1 1,1 v 2 l 1,1 1,1 1,2 1,1 v 2 l 1,1 1,1 1,1 1,2 v 1 l 1,1 h 1 l 1,1 1,1 h 1 v 1 h 1 1 1 1 v -1 h 1 l 1,-1 1,-1 1,-1 v -1 l 1,-2 1,-1 1,-2 1,-1 v -2 l 1,-2 1,-2 1,-2 1,-2 1,-1 v -2 l 1,-2 1,-2 1,-2 1,-2 v -1 l 1,-2 1,-1 1,-2 1,-1 v -1 h 1 l 1,-1 h 1 1 1 v 0 l 1,1 1,1 1,1 1,1 v 1 l 1,2 1,1 1,2 1,2 v 3 l 1,2 1,2 1,3 0.99997,2 1,3 v 3 l 1,2 1,3 1,2 1,2 v 2 l 1,2 1,2 1,2 0.9999994824,1 v 2 L 0.999969,498 H 1.99997 l 1,1 h 1 1 v -1 h 1 l 1,-1 1,-1 1,-2 v -2 l 1,-2 1.00003,-2 1,-2 1,-3 v -2 l 1,-3 1,-3 1,-3 1,-3 1,-4 v -3 l 1,-3 1,-3 1,-3 1,-2 v -3 l 1,-2 1,-2 1,-2 1,-2 v -1 l 1,-1 1,-1 h 1 l 1,-1 1,1 v 0 l 1,1 1,2 1,1 1,2 v 2 l 1,3 1,2 1,3 1,3 v 4 l 1,3 1,4 1,3 1,4 1,3 v 4 l 1,4 1,3 1,3 1,3 v 3 l 1,2 1,3 1,2 1,1 v 2 h 1 l 1,1 h 1 1 l 1,-1 v -1 l 1,-1 1,-2 1,-2 1,-3 v -2 l 1,-3 1,-4 1,-3 1,-4 v -4 l 1,-4 1,-4 1,-4 1,-4 1,-4 v -4 l 1,-3 1,-4 1,-3 1,-3 v -3 l 1,-3 1,-2 1,-1 1,-2 v -1 h 1 1 1 l 1,1 1,1 v 2 l 1,2 1,2 1,3 1,3 v 3 l 1,4 1,4 1,4 1,4 v 4 l 1,5 1,4 1,4 1,5 1,4 v 4 l 1,3 1,4 1,3 1,3 v 3 l 1,2 1,2 1,1 1,1 v 0 h 1 1 l 1,-1 1,-2 v -2 l 1,-2 1,-3 1,-3 1,-3 1,-4 v -4 l 1,-4 1,-4 1,-5 1,-4 v -5 l 1,-4 1,-5 1,-5 1,-4 v -4 l 1,-4 1,-3 1,-4 1,-3 1,-2 v -2 l 1,-2 1,-1 1,-1 h 1 v 0 l 1,1 1,1 1,2 1,2 v 3 l 1,3 1,3 1,4 1,4 1,4 v 4 l 1,5 1,5 1,5 1,4 v 5 l 1,5 1,4 1,5 1,4 v 4 l 1,4 1,3 1,3 1,2 1,2 v 1 l 1,1 1,1 h 1 l 1,-1 v -1 l 1,-1 1,-3 1,-2 1,-3 v -3 l 1,-4 1,-4 1,-4 1,-5 1,-4 v -5 l 1,-5 1,-5 1,-5 1,-5 v -5 l 1,-4 1,-5 1,-4 1,-4 v -3 l 1,-3 1,-3 1,-2 1,-2 1,-1 v 0 l 1,-1 1,1 1,1 1,1 v 2 l 1,2 1,3 1,3 1,4 v 4 l 1,4 1,5 1,4 1,5 1,5 v 5 l 1,5 1,5 1,5 1,5 v 5 l 1,4 1,4 1,4 1,3 v 3 l 1,2 1,2 1,1 1,1 1,1 v -1 h 1 l 1,-2 1,-1 1,-3 v -2 l 1,-3 1,-4 1,-4 1,-4 v -4 l 1,-5 1,-5 1,-5 1,-5 1,-5 v -5 l 1,-5 1,-5 1,-5 1,-4 v -5 l 1,-3 1,-4 1,-3 1,-2 v -3 l 1,-1 1,-1 1,-1 h 1 l 1,1 v 1 l 1,1 1,3 1,2 1,3 v 4 l 1,3 1,4 1,5 1,5 v 4 l 1,6 1,5 1,5 1,5 1,5 v 5 l 1,5 1,5 1,4 1,4 v 3 l 1,4 1,2 1,3 1,1 v 2 h 1 1 1 l 1,-1 1,-1 v -2 l 1,-3 1,-3 1,-3 1,-4 v -4 l 1,-4 1,-5 1,-5 1,-5 v -5 l 1,-5 1,-5 1,-5 1,-5 v -5 l 1,-5 1,-4 1,-5 1,-3 1,-4 v -2 l 1,-3 1,-2 1,-1 1,-1 v 0 h 1 l 1,1 1,1 1,2 v 2 l 1,3 1,3 1,4 1,4 1,4 v 4 l 1,5 1,5 1,5 1,6 v 5 l 1,5 1,5 1,5 1,5 v 5 l 1,4 1,4 1,3 1,3 1,3 v 2 l 1,1 1,1 1,1 h 1 v -1 l 1,-1 1,-2 1,-2 1,-3 v -3 l 1,-3 1,-4 1,-4 1,-5 1,-5 v -5 l 1,-5 1,-5 1,-5 1,-5 v -6 l 1,-5 1,-4 1,-5 1,-4 v -4 l 1,-4 1,-3 1,-3 1,-2 1,-2 v -1 l 1,-1 h 1 l 1,1 1,1 v 1 l 1,2 1,3 1,3 1,3 v 4 l 1,4 1,5 1,4 1,5 1,5 v 6 l 1,5 1,5 1,5 1,6 v 4 l 1,5 1,5 1,4 1,3 v 4 l 1,2 1,3 1,2 1,1 1,1 v 0 h 1 l 1,-1 1,-2 1,-1 v -3 l 1,-3 1,-3 1,-4 1,-4 v -4 l 1,-5 1,-5 1,-5 1,-5 1,-5 v -5 l 1,-6 1,-5 1,-5 1,-5 v -4 l 1,-4 1,-4 1,-4 1,-3 v -2 l 1,-2 1,-1 1,-1 1,-1 h 1 v 1 l 1,1 1,2 1,2 1,3 v 3 l 1,4 1,4 1,4 1,5 v 5 l 1,5 1,5 1,5 1,5 1,6 v 5 l 1,5 1,5 1,4 1,5 v 3 l 1,4 1,3 1,3 1,2 v 1 l 1,2 h 1 1 l 1,-1 1,-1 v -1 l 1,-2 1,-3 1,-3 1,-4 v -3 l 1,-5 1,-4 1,-5 1,-5 v -5 l 1,-5 1,-6 1,-5 1,-5 1,-5 v -5 l 1,-5 1,-4 1,-4 1,-4 v -3 l 1,-3 1,-2 1,-2 1,-1 v -1 h 1 l 1,1 1,1 1,1 v 2 l 1,3 1,2 1,4 1,4 1,4 v 4 l 1,5 1,5 1,5 1,5 v 6 l 1,5 1,5 1,5 1,5 v 5 l 1,4 1,4 1,4 1,4 1,2 v 3 l 1,2 1,1 1,1 h 1 v 0 l 1,-1 1,-1 1,-2 1,-3 v -2 l 1,-4 1,-3 1,-4 1,-5 1,-4 v -5 l 1,-5 1,-6 1,-5 1,-5 v -5 l 1,-6 1,-5 1,-4 1,-5 v -4 l 1,-4 1,-3 1,-3 1,-3 1,-2 v -1 l 1,-1 1,-1 h 1 l 1,1 v 1 l 1,2 1,2 1,3 1,3 v 4 l 1,4 1,4 1,4 1,5 1,5 v 5 l 1,6 1,5 1,5 1,5 v 6 l 1,4 1,5 1,4 1,4 v 4 l 1,3 1,3 1,2 1,1 1,2 v 0 h 1 1 l 1,-1 1,-2 v -2 l 1,-3 1,-3 1,-3 1,-4 v -4 l 1,-5 1,-5 1,-5 1,-5 1,-5 v -5 l 1,-6 1,-5 1,-5 1,-5 v -5 l 1,-4 1,-4 1,-4 1,-3 v -3 l 1,-2 1,-2 1,-1 1,-1 h 1 v 0 l 1,1 1,2 1,2 1,2 v 3 l 1,4 1,3 1,5 1,4 v 5 l 1,5 1,5 1,5 1,5 1,6 v 5 l 1,5 1,5 1,5 1,4 v 4 l 1,4 1,3 1,3 1,3 v 2 l 1,1 1,1 h 1 1 l 1,-1 v -1 l 1,-2 1,-2 1,-3 1,-3 v -4 l 1,-4 1,-4 1,-5 1,-5 v -5 l 1,-5 1,-6 1,-5 1,-5 1,-5 v -5 l 1,-5 1,-5 1,-4 1,-4 v -3 l 1,-3 1,-3 1,-2 1,-1 v -1 l 1,-1 h 1 l 1,1 1,1 1,2 v 2 l 1,3 1,3 1,3 1,4 v 5 l 1,4 1,5 1,5 1,5 v 5 l 1,6 1,5 1,5 1,5 v 5 l 1,5 1,4 1,4 1,4 1,3 v 2 l 1,3 1,1 1,2 h 1 v 0 h 1 l 1,-1 1,-2 1,-2 v -3 l 1,-3 1,-3 1,-4 1,-4 1,-5 v -4 l 1,-5 1,-6 1,-5 1,-5 v -5 l 1,-6 1,-5 1,-5 1,-4 v -5 l 1,-4 1,-3 1,-4 1,-3 1,-2 v -2 l 1,-1 1,-1 h 1 1 v 1 l 1,2 1,2 1,2 1,3 v 3 l 1,4 1,4 1,5 1,4 1,5 v 5 l 1,6 1,5 1,5 1,5 v 6 l 1,5 1,4 1,5 1,4 v 4 l 1,3 1,3 1,3 1,2 1,1 v 1 h 1 1 l 1,-1 1,-1 v -2 l 1,-2 1,-3 1,-3 1,-4 v -4 l 1,-4 1,-5 1,-5 1,-5 1,-5 v -5 l 1,-6 1,-5 1,-5 1,-5 v -5 l 1,-4 1,-5 1,-4 1,-3 v -3 l 1,-3 1,-2 1,-1 1,-1 1,-1 v 0 l 1,1 1,1 1,2 1,2 v 3 l 1,3 1,3 1,4 1,4 v 5 l 1,5 1,5 1,5 1,5 1,5 v 6 l 1,5 1,5 1,5 1,5 v 4 l 1,4 1,3 1,4 1,2 v 3 l 1,1 1,1 1,1 h 1 1 v -1 l 1,-2 1,-2 1,-2 1,-3 v -4 l 1,-4 1,-4 1,-4 1,-5 v -5 l 1,-5 1,-5 1,-6 1,-5 1,-5 v -5 l 1,-5 1,-5 1,-4 1,-5 v -3 l 1,-4 1,-2 1,-3 1,-2 v -1 l 1,-1 h 1 1 l 1,1 1,2 v 2 l 1,2 1,3 1,3 1,4 v 4 l 1,4 1,5 1,5 1,5 v 5 l 1,6 1,5 1,5 1,5 v 5 l 1,5 1,5 1,4 1,4 1,3 v 3 l 1,2 1,2 1,2 1,1 v 0 h 1 l 1,-1 1,-1 1,-2 v -2 l 1,-3 1,-3 1,-4 1,-4 1,-4 v -5 l 1,-4 1,-6 1,-5 1,-5 v -5 l 1,-6 1,-5 1,-5 1,-5 v -4 l 1,-4 1,-4 1,-4 1,-3 1,-3 v -2 l 1,-1 1,-1 1,-1 h 1 v 1 l 1,1 1,2 1,2 1,2 v 3 l 1,4 1,4 1,4 1,5 1,4 v 5 l 1,6 1,5 1,5 1,5 v 6 l 1,5 1,5 1,4 1,5 v 4 l 1,3 1,4 1,2 1,2 1,2 v 1 l 1,1 h 1 1 l 1,-1 v -2 l 1,-2 1,-2 1,-3 1,-4 v -4 l 1,-4 1,-4 1,-5 1,-5 1,-5 v -5 l 1,-6 1,-5 1,-5 1,-5 v -5 l 1,-5 1,-4 1,-4 1,-4 v -3 l 1,-3 1,-3 1,-2 1,-1 1,-1 v 0 h 1 l 1,1 1,2 1,2 v 2 l 1,3 1,3 1,4 1,4 v 4 l 1,5 1,5 1,5 1,5 1,5 v 6 l 1,5 1,5 1,5 1,5 v 4 l 1,5 1,3 1,4 1,3 v 2 l 1,2 1,2 1,1 h 1 1 v -1 l 1,-1 1,-2 1,-2 1,-3 v -3 l 1,-3 1,-4 1,-5 1,-4 v -5 l 1,-5 1,-5 1,-6 1,-5 1,-5 v -5 l 1,-6 1,-4 1,-5 1,-4 v -4 l 1,-4 1,-3 1,-2 1,-3 v -1 l 1,-1 1,-1 h 1 l 1,1 1,1 v 1 l 1,3 1,2 1,3 1,4 v 4 l 1,4 1,4 1,5 1,5 v 5 l 1,6 1,5 1,5 1,5 1,5 v 5 l 1,5 1,4 1,4 1,4 v 3 l 1,3 1,2 1,2 1,1 v 1 h 1 1 l 1,-1 1,-2 v -2 l 1,-2 1,-3 1,-4 1,-3 1,-4 v -5 l 1,-5 1,-5 1,-5 1,-5 v -5 l 1,-6 1,-5 1,-5 1,-5 v -5 l 1,-4 1,-4 1,-4 1,-3 1,-3 v -3 l 1,-1 1,-2 1,-1 h 1 v 0 l 1,1 1,2 1,1 1,3 v 3 l 1,3 1,4 1,4 1,4 1,5 v 5 l 1,5 1,5 1,5 1,5 v 6 l 1,5 1,5 1,5 1,4 v 4 l 1,4 1,4 1,3 1,2 1,2 v 2 l 1,1 h 1 1 l 1,-1 v -1 l 1,-2 1,-2 1,-3 1,-3 v -3 l 1,-4 1,-5 1,-4 1,-5 1,-5 v -5 l 1,-5 1,-6 1,-5 1,-5 v -5 l 1,-5 1,-5 1,-4 1,-4 v -4 l 1,-3 1,-2 1,-3 1,-1 1,-1 v -1 h 1 l 1,1 1,1 1,1 v 2 l 1,3 1,3 1,4 1,3 v 5 l 1,4 1,5 1,5 1,5 1,5 v 6 l 1,5 1,5 1,5 1,5 v 5 l 1,4 1,4 1,4 1,3 v 3 l 1,2 1,2 1,1 1,1 h 1 v 0 l 1,-1 1,-2 1,-2 1,-2 v -3 l 1,-3 1,-4 1,-4 1,-5 v -4 l 1,-5 1,-5 1,-6 1,-5 1,-5 v -6 l 1,-5 1,-5 1,-4 1,-5 v -4 l 1,-4 1,-3 1,-3 1,-2 v -2 l 1,-2 1,-1 h 1 1 l 1,1 v 1 l 1,2 1,3 1,2 1,4 v 3 l 1,4 1,5 1,4 1,5 v 5 l 1,6 1,5 1,5 1,5 1,6 v 5 l 1,4 1,5 1,4 1,4 v 4 l 1,3 1,2 1,2 1,2 v 1 h 1 1 l 1,-1 1,-1 1,-1 v -3 l 1,-2 1,-4 1,-3 1,-4 v -4 l 1,-5 1,-5 1,-5 1,-5 v -5 l 1,-5 1,-6 1,-5 1,-5 v -5 l 1,-4 1,-5 1,-4 1,-3 1,-4 v -2 l 1,-2 1,-2 1,-1 1,-1 v 0 l 1,1 1,1 1,1 1,2 v 3 l 1,3 1,3 1,4 1,4 1,5 v 5 l 1,5 1,5 1,5 1,5 v 6 l 1,5 1,5 1,5 1,5 v 4 l 1,4 1,4 1,3 1,3 1,2 v 2 l 1,1 1,1 h 1 1 v -1 l 1,-1 1,-2 1,-3 1,-3 v -3 l 1,-4 1,-4 1,-4 1,-5 1,-5 v -5 l 1,-5 1,-6 1,-5 1,-5 v -5 l 1,-5 1,-5 1,-5 1,-4 v -4 l 1,-3 1,-3 1,-2 1,-2 1,-2 v -1 h 1 1 l 1,1 1,1 v 2 l 1,3 1,2 1,4 1,3 v 4 l 1,5 1,4 1,5 1,5"
           stroke="#ed7d31"
           stroke-width="2"
           stroke-linecap="round"
           stroke-linejoin="round"
           stroke-miterlimit="10"
           fill="none"
           id="path3141" />
      </g>
      <g
         clip-path="url(#clip3)"
         id="g3147">
        <path
           d="m -500,473 1,-1 1,-1 h 1 v 0 h 1 1 1 1 v -1 h 1 1 1 1 1 v 0 h 1 1 1 1 v 0 h 1 1 1 1 v 0 h 1 1 1 1 1 v 0 h 1 1 1 1 v 0 h 1 1 1 1 v 0 h 1 1 1 1 1 v 0 h 1 1 1 1 v 0 h 1 1 1 1 v 0 h 1 1 1 1 1 v 0 h 1 1 1 1 v 0 h 1 1 1 1 v 0 h 1 1 1 1 1 v 0 h 1 1 1 1 v 0 h 1 1 1 1 v 0 h 1 1 1 1 1 v 0 h 1 1 1 1 v 0 h 1 1 1 1 v 0 h 1 1 1 1 1 v 0 h 1 1 1 1 v 0 h 1 1 1 1 v 0 h 1 1 1 1 1 v 0 h 1 1 1 1 v 0 h 1 1 1 1 v 0 h 1 1 1 1 1 v 0 h 1 1 1 1 v 0 h 1 1 1 1 v 0 h 1 1 1 1 1 v 0 h 1 1 1 1 v 0 h 1 1 1 1 v 0 h 1 1 1 1 v 0 h 1 1 1 1 1 v 0 h 1 1 1 1 v 0 h 1 1 1 1 v 0 h 1 1 1 1 1 v 0 h 1 1 1 1 v 0 h 1 1 1 1 v 0 h 1 1 1 1 1 v 0 h 1 1 1 1 v 0 h 1 1 1 1 v 0 h 1 1 1 1 1 v 0 h 1 1 1 1 v 0 h 1 1 1 1 v 0 h 1 1 1 1 1 v 0 h 1 1 1 l 1,1 v 0 h 1 1 1 1 v 0 h 1 1 l 1,-1 h 1 1 v 0 h 1 1 1 1 v 0 h 1 1 1 1 v 0 h 1 1 1 1 1 v 0 h 1 1 1 1 v 0 h 1 1 1 l 1,-1 v 0 h 1 1 1 1 1 v 0 h 1 1 1 1 v 0 h 1 1 1 1 v 1 h 1 1 1 1 1 v 0 h 1 1 1 1 v 0 h 1 1 1 1 v 1 h 1 1 1 1 1 v 0 h 1 1 1 1 v 0 h 1 1 1 1 v 0 h 1 1 1 1 1 v 0 h 1 1 1 1 v 0 h 1 1 1 1 v -1 h 1 1 1 1 1 v 0 h 1 1 l 1,-1 h 1 v 0 h 1 1 1 1 v 0 h 1 l 1,-1 h 1 1 v 0 h 1 1 1 1 1 v 0 h 1 1 1 1 v 0 h 1 1 1 l 1,1 v 0 h 1 1 1 1 1 v 1 h 1 1 1 1 v 1 h 1 1 1 1 v 1 h 1 1 1 1 l 1,1 v 0 h 1 1 1 1 v 0 h 1 1 1 1 v 0 h 1 1 1 1 1 v 0 h 1 1 l 1,-1 h 1 v 0 h 1 1 l 1,-1 h 1 v 0 l 1,-1 h 1 1 l 1,-1 h 1 v 0 l 1,-1 h 1 1 l 1,-1 v 0 h 1 l 1,-1 h 1 1 v -1 h 1 1 1 1 1 v -1 h 1 1 1 1 v 1 h 1 1 1 1 v 1 h 1 1 l 1,1 h 1 l 1,1 v 0 l 1,1 h 1 l 1,1 h 1 v 1 h 1 l 1,1 1,1 h 1 v 1 h 1 l 1,1 1,1 h 1 l 1,1 v 0 l 1,1 h 1 1 l 1,1 v 0 h 1 1 1 1 v 0 h 1 1 1 l 1,-1 h 1 v -1 h 1 l 1,-1 h 1 l 1,-1 v -1 l 1,-1 h 1 l 1,-1 1,-1 v -1 l 1,-1 1,-1 1,-1 1,-1 1,-1 v -1 l 1,-1 1,-1 1,-1 1,-1 v -1 h 1 l 1,-1 1,-1 h 1 v 0 l 1,-1 h 1 1 1 1 v 1 h 1 l 1,1 h 1 l 1,1 v 1 l 1,1 1,1 1,1 1,1 v 2 l 1,1 1,1 1,2 1,1 1,2 v 2 l 1,1 1,2 1,1 1,1 v 2 l 1,1 1,1 1,1 1,1 v 1 l 1,1 1,1 h 1 1 v 1 h 1 l 1,-1 h 1 l 1,-1 h 1 v -1 l 1,-1 1,-2 1,-1 1,-1 v -2 l 1,-2 1,-2 1,-2 1,-2 v -2 l 1,-2 1,-2 1,-2 1,-2 1,-2 v -2 l 1,-2 1,-2 1,-2 1,-1 v -2 l 1,-1 1,-1 1,-1 1,-1 v 0 h 1 1 1 l 0.99997,1 h 1 v 1 l 1,2 1,1 1,2 1,2 v 2 l 1,2 1,2 1,3 0.9999994824,2 v 3 l 0.9999995176,3 1.000001,2 1,3 1,3 1,3 v 2 l 1,3 1,2 1,2 1,2 v 2 l 1,2 1.00003,1 1,1 1,1 v 1 h 1 1 1 l 1,-1 1,-1 v -1 l 1,-1 1,-2 1,-2 1,-2 v -3 l 1,-2 1,-3 1,-3 1,-4 v -3 l 1,-3 1,-3 1,-4 1,-3 1,-3 v -4 l 1,-3 1,-2 1,-3 1,-3 v -2 l 1,-2 1,-1 1,-2 h 1 v -1 h 1 1 1 l 1,1 1,1 v 2 l 1,2 1,2 1,3 1,2 v 3 l 1,4 1,3 1,4 1,3 v 4 l 1,4 1,4 1,4 1,4 1,3 v 4 l 1,3 1,3 1,3 1,3 v 2 l 1,2 1,2 1,1 1,1 v 0 h 1 1 l 1,-1 1,-2 1,-1 v -2 l 1,-3 1,-2 1,-3 1,-4 v -3 l 1,-4 1,-4 1,-4 1,-5 v -4 l 1,-4 1,-5 1,-4 1,-4 1,-4 v -4 l 1,-3 1,-3 1,-3 1,-3 v -2 l 1,-2 1,-1 1,-1 h 1 v 0 h 1 l 1,1 1,1 1,2 1,3 v 2 l 1,3 1,4 1,3 1,4 v 4 l 1,5 1,4 1,5 1,5 v 4 l 1,5 1,4 1,5 1,4 v 4 l 1,4 1,3 1,3 1,3 1,2 v 2 l 1,1 1,1 1,1 h 1 v -1 l 1,-1 1,-2 1,-2 1,-2 v -3 l 1,-3 1,-4 1,-4 1,-4 1,-5 v -4 l 1,-5 1,-5 1,-5 1,-5 v -5 l 1,-5 1,-4 1,-5 1,-4 v -4 l 1,-3 1,-3 1,-3 1,-2 1,-2 v -1 l 1,-1 h 1 1 l 1,1 v 1 l 1,2 1,2 1,3 1,3 v 3 l 1,4 1,5 1,4 1,5 1,5 v 5 l 1,5 1,5 1,5 1,5 v 5 l 1,5 1,4 1,5 1,4 v 3 l 1,3 1,3 1,2 1,1 1,2 v 0 h 1 1 l 1,-1 1,-2 v -2 l 1,-2 1,-3 1,-4 1,-4 v -4 l 1,-4 1,-5 1,-5 1,-5 1,-5 v -6 l 1,-5 1,-5 1,-5 1,-5 v -5 l 1,-4 1,-5 1,-3 1,-4 v -3 l 1,-2 1,-2 1,-2 1,-1 h 1 v 0 l 1,1 1,1 1,2 1,2 v 3 l 1,3 1,4 1,4 1,4 v 5 l 1,5 1,5 1,5 1,6 1,5 v 6 l 1,5 1,5 1,5 1,5 v 4 l 1,4 1,4 1,3 1,3 v 2 l 1,2 1,1 1,1 h 1 1 v -1 l 1,-2 1,-2 1,-3 1,-3 v -3 l 1,-4 1,-4 1,-5 1,-5 v -5 l 1,-5 1,-6 1,-5 1,-5 1,-6 v -5 l 1,-5 1,-5 1,-5 1,-4 v -4 l 1,-4 1,-3 1,-2 1,-2 v -2 l 1,-1 h 1 1 l 1,1 1,1 v 2 l 1,2 1,3 1,3 1,4 v 4 l 1,5 1,4 1,5 1,6 v 5 l 1,5 1,6 1,6 1,5 1,5 v 5 l 1,5 1,5 1,4 1,4 v 3 l 1,3 1,2 1,2 1,1 v 1 h 1 l 1,-1 1,-1 1,-1 v -2 l 1,-3 1,-3 1,-4 1,-4 1,-4 v -5 l 1,-4 1,-6 1,-5 1,-5 v -6 l 1,-6 1,-5 1,-5 1,-6 v -5 l 1,-4 1,-5 1,-4 1,-3 1,-3 v -3 l 1,-2 1,-2 h 1 l 1,-1 v 0 l 1,1 1,1 1,2 1,3 v 3 l 1,3 1,4 1,4 1,4 1,5 v 5 l 1,6 1,5 1,6 1,5 v 6 l 1,5 1,6 1,5 1,5 v 4 l 1,4 1,4 1,3 1,3 1,3 v 1 l 1,2 h 1 1 1 v -1 l 1,-2 1,-2 1,-3 1,-3 v -3 l 1,-4 1,-5 1,-5 1,-5 1,-5 v -5 l 1,-6 1,-5 1,-6 1,-5 v -6 l 1,-5 1,-5 1,-5 1,-4 v -4 l 1,-4 1,-3 1,-2 1,-2 1,-2 v -1 h 1 1 l 1,1 1,1 v 2 l 1,3 1,3 1,3 1,4 v 4 l 1,5 1,5 1,5 1,5 1,5 v 6 l 1,6 1,5 1,6 1,5 v 5 l 1,5 1,5 1,4 1,3 v 4 l 1,3 1,2 1,2 1,1 h 1 v 0 h 1 l 1,-1 1,-2 1,-2 v -3 l 1,-3 1,-4 1,-4 1,-4 v -5 l 1,-5 1,-5 1,-6 1,-5 1,-6 v -5 l 1,-6 1,-5 1,-5 1,-5 v -5 l 1,-5 1,-4 1,-3 1,-3 v -3 l 1,-2 1,-1 1,-1 h 1 1 v 1 l 1,1 1,2 1,3 1,3 v 3 l 1,4 1,4 1,5 1,5 v 5 l 1,5 1,6 1,5 1,6 1,6 v 5 l 1,5 1,6 1,4 1,5 v 4 l 1,4 1,3 1,3 1,2 v 2 l 1,1 1,1 h 1 l 1,-1 1,-1 v -2 l 1,-2 1,-3 1,-3 1,-4 v -4 l 1,-4 1,-5 1,-5 1,-6 v -5 l 1,-6 1,-5 1,-6 1,-5 v -6 l 1,-5 1,-5 1,-5 1,-4 1,-4 v -3 l 1,-3 1,-3 1,-2 1,-1 v -1 h 1 1 l 1,1 1,1 v 2 l 1,3 1,3 1,4 1,3 1,5 v 4 l 1,5 1,6 1,5 1,5 v 6 l 1,6 1,5 1,6 1,5 v 5 l 1,5 1,4 1,5 1,3 1,3 v 3 l 1,2 1,2 1,1 1,1 v 0 l 1,-1 1,-1 1,-2 1,-2 v -3 l 1,-4 1,-3 1,-4 1,-5 1,-5 v -5 l 1,-5 1,-6 1,-5 1,-6 v -5 l 1,-6 1,-5 1,-5 1,-5 v -5 l 1,-4 1,-4 1,-4 1,-3 1,-2 v -2 l 1,-1 1,-1 h 1 1 v 1 l 1,2 1,2 1,2 1,3 v 4 l 1,4 1,4 1,5 1,5 1,5 v 5 l 1,6 1,6 1,5 1,6 v 5 l 1,6 1,5 1,4 1,5 v 4 l 1,4 1,3 1,2 1,3 1,1 v 1 l 1,1 h 1 l 1,-1 1,-1 v -2 l 1,-3 1,-3 1,-3 1,-4 v -4 l 1,-4 1,-5 1,-5 1,-6 1,-5 v -6 l 1,-5 1,-6 1,-5 1,-6 v -5 l 1,-5 1,-5 1,-4 1,-4 v -3 l 1,-3 1,-2 1,-2 1,-2 h 1 v 0 h 1 l 1,1 1,2 1,2 v 3 l 1,3 1,3 1,4 1,5 v 4 l 1,5 1,6 1,5 1,6 1,5 v 6 l 1,5 1,6 1,5 1,5 v 5 l 1,4 1,4 1,4 1,3 v 3 l 1,2 1,1 1,1 1,1 1,-1 v 0 l 1,-2 1,-2 1,-2 1,-3 v -3 l 1,-4 1,-4 1,-5 1,-5 v -5 l 1,-5 1,-6 1,-5 1,-6 1,-6 v -5 l 1,-5 1,-6 1,-4 1,-5 v -4 l 1,-4 1,-3 1,-3 1,-3 v -1 l 1,-2 h 1 1 1 v 1 l 1,2 1,2 1,3 1,3 1,4 v 4 l 1,4 1,5 1,5 1,5 v 6 l 1,5 1,6 1,5 1,6 v 5 l 1,6 1,5 1,4 1,5 1,4 v 3 l 1,3 1,3 1,2 1,1 v 1 l 1,1 1,-1 h 1 l 1,-2 v -2 l 1,-2 1,-3 1,-4 1,-4 1,-4 v -4 l 1,-5 1,-5 1,-6 1,-5 v -6 l 1,-5 1,-6 1,-6 1,-5 v -5 l 1,-5 1,-4 1,-5 1,-3 1,-4 v -3 l 1,-2 1,-2 1,-1 h 1 v 0 h 1 l 1,1 1,2 1,2 v 3 l 1,3 1,4 1,4 1,5 1,4 v 5 l 1,6 1,5 1,6 1,5 v 6 l 1,5 1,6 1,5 1,5 v 5 l 1,4 1,4 1,4 1,3 1,2 v 2 l 1,2 h 1 l 1,1 1,-1 v -1 l 1,-1 1,-2 1,-3 1,-3 v -3 l 1,-4 1,-4 1,-5 1,-5 1,-5 v -5 l 1,-6 1,-5 1,-6 1,-6 v -5 l 1,-5 1,-6 1,-4 1,-5 v -4 l 1,-4 1,-3 1,-3 1,-2 1,-2 v -1 h 1 1 1 l 1,2 v 1 l 1,3 1,2 1,4 1,3 v 5 l 1,4 1,5 1,5 1,5 1,6 v 5 l 1,6 1,6 1,5 1,5 v 6 l 1,5 1,4 1,5 1,4 v 3 l 1,3 1,2 1,2 1,2 h 1 v 1 l 1,-1 1,-1 1,-1 1,-2 v -3 l 1,-3 1,-3 1,-4 1,-5 v -4 l 1,-5 1,-6 1,-5 1,-5 1,-6 v -6 l 1,-5 1,-6 1,-5 1,-5 v -5 l 1,-4 1,-4 1,-4 1,-3 v -3 l 1,-2 1,-2 1,-1 h 1 v 0 h 1 l 1,2 1,2 1,2 1,3 v 3 l 1,4 1,4 1,5 1,4 v 6 l 1,5 1,5 1,6 1,6 v 5 l 1,6 1,5 1,5 1,5 1,5 v 4 l 1,4 1,3 1,3 1,3 v 2 l 1,1 1,1 h 1 l 1,-1 v -1 l 1,-1 1,-2 1,-3 1,-3 1,-4 v -4 l 1,-4 1,-5 1,-5 1,-5 v -6 l 1,-5 1,-6 1,-5 1,-6 v -5 l 1,-6 1,-5 1,-4 1,-5 1,-4 v -4 l 1,-3 1,-2 1,-2 1,-2 v -1 h 1 1 l 1,1 1,1 v 2 l 1,2 1,3 1,3 1,4 1,5 v 4 l 1,5 1,5 1,5 1,6 v 5 l 1,6 1,6 1,5 1,6 v 5 l 1,5 1,4 1,4 1,4 1,4 v 3 l 1,2 1,2 1,1 1,1 v 0 l 1,-1 1,-1 1,-2 1,-2 v -2 l 1,-4 1,-3 1,-4 1,-5 1,-4 v -5 l 1,-6 1,-5 1,-6 1,-5 v -6 l 1,-5 1,-6 1,-5 1,-5 v -5 l 1,-4 1,-4 1,-4 1,-3 1,-3 v -2 l 1,-1 1,-1 h 1 1 v 1 l 1,1 1,2 1,2 1,3 v 4 l 1,4 1,4 1,5 1,4 1,6 v 5 l 1,5 1,6 1,6 1,5 v 6 l 1,5 1,5 1,5 1,5 v 4 l 1,4 1,3 1,3 1,2 1,2 v 1 l 1,1 h 1 l 1,-1 1,-1 v -2 l 1,-2 1,-3 1,-3 1,-4 v -4 l 1,-4 1,-5 1,-5 1,-5 1,-6 v -5 l 1,-6 1,-5 1,-6 1,-5 v -6 l 1,-5 1,-4 1,-5 1,-4 v -3 l 1,-3 1,-3 1,-2 1,-1 1,-1 v 0 h 1 l 1,1 1,1 1,2 v 3 l 1,3 1,3 1,4 1,4 v 5 l 1,5 1,5 1,6 1,5 v 6 l 1,5 1,6 1,5 1,6 1,5 v 5 l 1,4 1,4 1,4 1,3 v 3 l 1,2 1,2 1,1 1,1 v 0 l 1,-1 1,-1 1,-2 1,-2 1,-3 v -3 l 1,-4 1,-4 1,-5 1,-4 v -6 l 1,-5 1,-5 1,-6 1,-5 v -6 l 1,-6 1,-5 1,-5 1,-5 1,-5 v -4 l 1,-4 1,-4 1,-3 1,-2 v -2 l 1,-1 1,-1 h 1 1 v 1 l 1,1 1,3 1,2 1,3 1,4 v 4 l 1,4 1,5 1,5 1,5 v 5 l 1,6 1,5 1,6 1,5 v 6 l 1,5 1,5 1,5 1,5 1,4 v 3 l 1,4 1,2 1,3 1,1 v 1 l 1,1 h 1 l 1,-1 1,-1 v -2 l 1,-3 1,-2 1,-4 1,-3 1,-5 v -4 l 1,-5 1,-5 1,-5 1,-6 v -5 l 1,-6 1,-6 1,-5 1,-6 v -5 l 1,-5 1,-4 1,-5 1,-3 1,-4 v -3 l 1,-2 1,-2 1,-1 1,-1 v 0 h 1 l 1,1 1,2 1,2 v 2 l 1,3 1,4 1,4 1,4 1,5 v 5 l 1,5 1,6 1,5 1,6 v 5 l 1,6 1,5 1,6 1,5 v 5 l 1,4 1,4 1,4 1,3 1,3 v 2 l 1,1 1,1 1,1 h 1 v -1 l 1,-2 1,-1 1,-3 1,-3 v -3 l 1,-4 1,-4 1,-5 1,-4 1,-6 v -5 l 1,-5 1,-6 1,-6 1,-5 v -6 l 1,-5 1,-5 1,-5 1,-5 v -4 l 1,-4 1,-3 1,-3 1,-2 1,-2 v -2 h 1 1 1 l 1,1 v 2 l 1,2 1,3 1,3 1,3 v 4 l 1,5 1,5 1,5 1,5 1,5 v 6 l 1,5 1,6 1,6 1,5 v 5 l 1,5 1,5 1,5 1,4 v 3 l 1,3 1,3 1,2 1,1 v 1 l 1,1 1,-1 h 1 l 1,-2 1,-2 v -2 l 1,-3 1,-3 1,-4 1,-5 v -4 l 1,-5 1,-5 1,-6 1,-5 v -6 l 1,-5 1,-6 1,-5 1,-6 1,-5 v -5 l 1,-4 1,-4 1,-4 1,-4 v -2 l 1,-3 1,-1 1,-2 h 1 v 0 h 1 l 1,1 1,2 1,2 1,3 v 3 l 1,4 1,4 1,4 1,5 v 5 l 1,5 1,6 1,5 1,6 v 6 l 1,5 1,6 1,5 1,5 1,5 v 4 l 1,4 1,3 1,4 1,2 v 2 l 1,2 h 1 l 1,1 1,-1 v 0 l 1,-2 1,-2 1,-2 1,-3 1,-4 v -4 l 1,-4 1,-5 1,-5 1,-5 v -5 l 1,-6 1,-5 1,-6 1,-5 v -6 l 1,-5 1,-5 1,-5 1,-5"
           stroke="#4472c4"
           stroke-width="2"
           stroke-linecap="round"
           stroke-linejoin="round"
           stroke-miterlimit="10"
           fill="none"
           id="path3145" />
      </g>
      <g
         id="g3151">
        <text
           font-family="Arial, Arial_MSFontService, sans-serif"
           font-weight="400"
           font-size="12px"
           transform="translate(768.667,537)"
           id="text3149">-0.4</text>
      </g>
      <g
         id="g3155">
        <text
           font-family="Arial, Arial_MSFontService, sans-serif"
           font-weight="400"
           font-size="12px"
           transform="translate(768.667,505)"
           id="text3153">-0.2</text>
      </g>
      <g
         id="g3159">
        <text
           font-family="Arial, Arial_MSFontService, sans-serif"
           font-weight="400"
           font-size="12px"
           transform="translate(782.667,473)"
           id="text3157">0</text>
      </g>
      <g
         id="g3163">
        <text
           font-family="Arial, Arial_MSFontService, sans-serif"
           font-weight="400"
           font-size="12px"
           transform="translate(772.66,442)"
           id="text3161">0.2</text>
      </g>
      <g
         id="g3167">
        <text
           font-family="Arial, Arial_MSFontService, sans-serif"
           font-weight="400"
           font-size="12px"
           transform="translate(772.66,410)"
           id="text3165">0.4</text>
      </g>
      <g
         id="g3171">
        <text
           font-family="Arial, Arial_MSFontService, sans-serif"
           font-weight="400"
           font-size="12px"
           transform="translate(789.65,488)"
           id="text3169">160</text>
      </g>
      <g
         id="g3175">
        <text
           font-family="Arial, Arial_MSFontService, sans-serif"
           font-weight="400"
           font-size="12px"
           transform="translate(870.867,488)"
           id="text3173">170</text>
      </g>
      <g
         id="g3179">
        <text
           font-family="Arial, Arial_MSFontService, sans-serif"
           font-weight="400"
           font-size="12px"
           transform="translate(952.085,488)"
           id="text3177">180</text>
      </g>
      <rect
         x="760.5"
         y="391.5"
         width="227"
         height="157"
         stroke="#000000"
         stroke-linejoin="round"
         stroke-miterlimit="10"
         fill="none"
         id="rect3181" />
    </g>
  </g>
</svg>
