<?xml version="1.0" encoding="UTF-8" standalone="no"?>
<!-- Created with Inkscape (http://www.inkscape.org/) -->

<svg
   width="129.91042mm"
   height="100.0125mm"
   viewBox="0 0 129.91042 100.0125"
   version="1.1"
   id="svg3388"
   inkscape:version="1.2.1 (9c6d41e410, 2022-07-14)"
   sodipodi:docname="none-drag.svg"
   xmlns:inkscape="http://www.inkscape.org/namespaces/inkscape"
   xmlns:sodipodi="http://sodipodi.sourceforge.net/DTD/sodipodi-0.dtd"
   xmlns="http://www.w3.org/2000/svg"
   xmlns:svg="http://www.w3.org/2000/svg">
  <sodipodi:namedview
     id="namedview3390"
     pagecolor="#ffffff"
     bordercolor="#000000"
     borderopacity="0.25"
     inkscape:showpageshadow="2"
     inkscape:pageopacity="0.0"
     inkscape:pagecheckerboard="0"
     inkscape:deskcolor="#d1d1d1"
     inkscape:document-units="mm"
     showgrid="false"
     inkscape:zoom="0.74564394"
     inkscape:cx="307.11709"
     inkscape:cy="126.06553"
     inkscape:window-width="1920"
     inkscape:window-height="1017"
     inkscape:window-x="1912"
     inkscape:window-y="-8"
     inkscape:window-maximized="1"
     inkscape:current-layer="layer1" />
  <defs
     id="defs3385">
    <clipPath
       id="clip0">
      <rect
         x="514"
         y="0"
         width="491"
         height="378"
         id="rect3509" />
    </clipPath>
    <clipPath
       id="clip1">
      <rect
         x="556"
         y="14"
         width="425"
         height="335"
         id="rect3512" />
    </clipPath>
    <clipPath
       id="clip2">
      <rect
         x="556"
         y="14"
         width="425"
         height="335"
         id="rect3515" />
    </clipPath>
    <clipPath
       id="clip3">
      <rect
         x="556"
         y="14"
         width="425"
         height="335"
         id="rect3518" />
    </clipPath>
    <clipPath
       id="clip4">
      <rect
         x="776"
         y="146"
         width="179"
         height="165"
         id="rect3521" />
    </clipPath>
    <clipPath
       id="clip5">
      <rect
         x="776"
         y="146"
         width="179"
         height="165"
         id="rect3524" />
    </clipPath>
    <clipPath
       id="clip6">
      <rect
         x="776"
         y="146"
         width="179"
         height="165"
         id="rect3527" />
    </clipPath>
  </defs>
  <g
     inkscape:label="Camada 1"
     inkscape:groupmode="layer"
     id="layer1"
     transform="translate(0.01972838,-115.34859)">
    <g
       clip-path="url(#clip0)"
       transform="matrix(0.26458333,0,0,0.26458333,-136.01556,115.34859)"
       id="g3716">
      <rect
         x="514"
         y="0"
         width="491"
         height="378"
         fill="#ffffff"
         id="rect3532" />
      <g
         id="g3536">
        <path
           d="m 556.5,300.5 h 424 m -424,-47 h 424 m -424,-48 h 424 m -424,-48 h 424 m -424,-47 h 424 m -424,-47.9999 h 424 m -424,-48 h 424"
           stroke="#d9d9d9"
           stroke-linejoin="round"
           stroke-miterlimit="10"
           fill="none"
           id="path3534" />
      </g>
      <g
         id="g3540">
        <path
           d="M 662.5,14.5001 V 348.5 M 768.5,14.5001 V 348.5 M 874.5,14.5001 V 348.5 M 980.5,14.5001 V 348.5"
           stroke="#d9d9d9"
           stroke-linejoin="round"
           stroke-miterlimit="10"
           fill="none"
           id="path3538" />
      </g>
      <g
         id="g3544">
        <rect
           x="556.5"
           y="14.5001"
           width="424"
           height="334"
           stroke="#000000"
           stroke-linejoin="round"
           stroke-miterlimit="10"
           fill="none"
           id="rect3542" />
      </g>
      <g
         id="g3548">
        <path
           d="M 0,0 1.04987e-4,334"
           stroke="#000000"
           stroke-linejoin="round"
           stroke-miterlimit="10"
           fill="none"
           fill-rule="evenodd"
           transform="matrix(1,0,0,-1,556.5,348.5)"
           id="path3546" />
      </g>
      <g
         id="g3552">
        <path
           d="m 556.5,348.5 h 3 m -3,-9 h 3 m -3,-10 h 3 m -3,-9 h 3 m -3,-10 h 3 m -3,-10 h 3 m -3,-9 h 3 m -3,-10 h 3 m -3,-9 h 3 m -3,-10 h 3 m -3,-9 h 3 m -3,-10 h 3 m -3,-9 h 3 m -3,-10 h 3 m -3,-9 h 3 m -3,-10 h 3 m -3,-10 h 3 m -3,-9 h 3 m -3,-10 h 3 m -3,-9 h 3 m -3,-10 h 3 m -3,-9 h 3 m -3,-10 h 3 m -3,-9 h 3 m -3,-10 h 3 m -3,-9 h 3 m -3,-10 h 3 m -3,-8.9999 h 3 m -3,-10 h 3 m -3,-10 h 3 m -3,-9 h 3 m -3,-10 h 3 m -3,-9 h 3 m -3,-10 h 3 m -3,-9 h 3 m -3,-10 h 3 m -7,333.9999 h 7 m -7,-48 h 7 m -7,-47 h 7 m -7,-48 h 7 m -7,-48 h 7 m -7,-47 h 7 m -7,-47.9999 h 7 m -7,-48 h 7"
           stroke="#000000"
           stroke-linejoin="round"
           stroke-miterlimit="10"
           fill="none"
           id="path3550" />
      </g>
      <g
         id="g3556">
        <path
           d="m 556.5,348.5 h 424"
           stroke="#000000"
           stroke-linejoin="round"
           stroke-miterlimit="10"
           fill="none"
           fill-rule="evenodd"
           id="path3554" />
      </g>
      <g
         id="g3560">
        <path
           d="m 556.5,345.5 v 3 m 21,-3 v 3 m 21,-3 v 3 m 21,-3 v 3 m 22,-3 v 3 m 21,-3 v 3 m 21,-3 v 3 m 21,-3 v 3 m 22,-3 v 3 m 21,-3 v 3 m 21,-3 v 3 m 21,-3 v 3 m 21,-3 v 3 m 22,-3 v 3 m 21,-3 v 3 m 21,-3 v 3 m 21,-3 v 3 m 22,-3 v 3 m 21,-3 v 3 m 21,-3 v 3 m 21,-3 v 3 m -424,-3 v 7 m 106,-7 v 7 m 106,-7 v 7 m 106,-7 v 7 m 106,-7 v 7"
           stroke="#000000"
           stroke-linejoin="round"
           stroke-miterlimit="10"
           fill="none"
           id="path3558" />
      </g>
      <g
         clip-path="url(#clip1)"
         id="g3564">
        <path
           d="m 556,-23031 1,28456 V 11 -217.002 -148 v 19 l 1,2 v -6 -9 -9 -8 l 1,-6 v -4.002 -0.998 0.998 l 1,4.002 v 4.998 6.002 6.998 8.002 l 1,9 v 8.998 9 9.002 10 l 1,9 v 7.998 9 8.002 9 l 1,7 v 7.998 7 7.002 l 1,7 v 6 7 6 4.99805 l 1,5.99995 V 21 27 31.998 37 l 1,4 v 5 4 4.998 L 567,59 v 4 4 3.998 3 L 568,78 v 4 3 3 4 l 1,3 v 3 3 3 3 l 1,1.998 v 3 3.002 2 l 1,3 v 3 1.998 2.002 3 l 1,1.998 v 2.002 2 1.998 3 l 1,2.002 v 1.998 1.002 1.998 l 1,2.002 v 2 1.998 2.002 0.998 l 1,2.002 v 2 1 1.998 2.002 l 1,0.998 v 2.002 0.998 2.002 0.998 l 1,1.002 v 1.998 1 1.002 l 1,1.998 v 1.002 1 0.998 2.002 l 1,0.998 v 1.002 1 0.998 1.002 l 1,1.998 v 1.002 1 1 l 1,0.998 v 1.002 1 0.998 1.002 l 1,1 v 0 0.998 1.002 1 l 1,0.998 v 1.002 1 0.998 0 l 1,1 v 1.002 1 0 l 1,0.998 v 1.002 1 0 0.998 l 1,1.002 v 0 1 0.998 0 l 1,1.002 v 1 0 0.998 l 1,1.002 v 0 1 0 0.998 l 1,1.002 v 0 1 0 1 h 1 v 0.998 0 1.002 0 l 1,1 v 0 0.998 0 l 1,1.002 v 0 1 0 0.998 h 1 v 0 1.002 0 1 h 1 v 0 0.998 0 l 1,1.002 v 0 0 1 0 l 1,0.998 v 0 0 1 0 h 1 v 1.002 0 0 1 h 1 v 0 0.998 0 h 1 v 0 1.002 0 0 l 1,1 v 0 0 0 0.998 h 1 v 0 0 1.002 h 1 v 0 0 0 1 h 1 v 0 0 0 0.998 h 1 v 0 0 0 l 1,1.002 v 0 0 0 0 h 1 v 1 0 0 0 h 1 v 0 0 0 0 h 1 v 0.998 0 0 h 1 v 0 0 0 0 h 1 v 0 0 0 0 h 1 v 0 0 0 L 612,252 v 0 0 0 0 h 1 v 0 0 0 0 h 1 v -1 0 0 0 h 1 v 0 -1.002 0 h 1 v 0 -0.998 0 0 l 1,-1 v 0 0 -1.002 0 L 618,246 v 0 0 -1 h 1 v -1.002 0 -0.998 0 l 1,-1 v 0 -1.002 0 -1 h 1 V 239 v 0 -1 0 l 1,-1.002 v 0 -0.998 0 l 1,-1 v -1.002 0 -0.998 -1 h 1 v -1.002 -0.998 0 -1 l 1,-1.002 V 227 v -1 -1 h 1 V 223.998 223 222 220.998 L 627,220 v -1 -1.002 -0.998 -1 l 1,-1.002 v 0 -0.998 -1 -1.002 L 629,211 v -1 0 -1.002 l 1,-1 V 207 v -1 -1.002 0 L 631,204 v -1 -1.002 -0.998 -1 l 1,-1.002 V 198 197 195.998 L 633,195 v -2 -1.002 -0.998 -1 l 1,-1.002 V 188 185.998 185 184 l 1,-1.002 V 182 181 179.998 179 l 1,-1 v -1.002 -1 V 175 h 1 v -1 -1.002 -0.998 0 l 1,-1 v -1.002 0 -0.998 -1 l 1,-1.002 V 166 165 163.998 L 640,163 v -1 -1 -1.002 V 158 l 1,-1.002 V 156 153.998 153 152 l 1,-1.002 V 149 147.998 147 146 h 1 v -1.002 -1 0 L 644,143 v 0 -1 0 -1.002 h 1 v 0 -0.998 0 -1 l 1,-1.002 v 0 -0.998 -1 l 1,-1.002 V 134 131.998 131 130 l 1,-2.002 V 127 v -1 -2 -1 l 1,-1.002 V 121 120 118.998 118 h 1 v -1 0 0 l 1,-1.002 v 0 0 0 1.002 h 1 v -1.002 0 0 0 L 653,115 v 0 -1 -1.002 l 1,-1 V 111 108.998 108 105.998 L 655,105 V 102.998 102 101 99 l 1,-1 v -1 0 -1.002 0 L 657,95 v 0 0 0 l 1,0.998 v 0 1.002 0 0 l 1,1 v 0 0 0 -1 h 1 V 95.998 95 94 l 1,-2 v -1 -2 -1 -2 l 1,-1 v -2 -1 -1.002 -1 L 663,79 v -1 0 0 0 h 1 v 0 1 0.998 h 1 v 1 1.002 1 0 h 1 v 0.998 0 V 83 83 l 1,-1 v -1.002 -1 V 78 l 1,-2 V 75 73 70.998 70 l 1,-2.002 V 67 66 65 63.998 h 1 v 0 0 0 V 65 l 1,1 V 67 67.998 69 l 1,1 v 0.998 1.002 0 1 h 1 V 73 72 70.998 70 l 1,-1 V 67.998 66 63.998 L 675,63 V 60.998 59 57.998 56 l 1,-1.002 V 54 v -1 0 0 h 1 v 1 0.998 1.002 1 l 1,0.998 V 60 60.998 62 l 1,1 v 0.998 1.002 0 0 h 1 V 63.998 63 62 60 l 1,-1 V 57 54.998 53 l 1,-2 V 50 47.998 47 46 l 1,-1.002 v 0 0 1.002 0 l 1,1 v 0.998 2.002 1 2 l 1,1 V 54.998 57 57.998 h 1 V 59 59 59 57.998 L 687,57 V 56 54.998 53 51 l 1,-2.002 V 47 44.998 44 l 1,-2.002 V 41 40 40 38.998 L 690,40 v 0 1 0.998 V 43 l 1,1.998 V 46 47.998 50 51 l 1,2 v 1 0 0.998 h 1 v 0 V 54 53 51.998 L 694,51 V 48.998 47 44.998 43 l 1,-2 v -1 -2 -1 l 1,-1.002 v 0 0 0 0 L 697,37 v 1 2 1 2 l 1,1.998 V 47 47.998 50 51 l 1,0.998 v 0 0 0 L 700,51 v -1 -1.002 -1 V 46 l 1,-2 V 41.998 40 38 37 l 1,-2 v -1 -1 0 h 1 v 0 1 1 0.998 L 704,38 V 38.998 41 43 44.998 L 705,46 v 1.998 1 1.002 0 h 1 v 0 0 -1.002 L 707,47 V 46 44 41.998 40 l 1,-2 V 35.998 35 33 31.998 L 709,31 v 0 0 0 l 1,0.998 V 33 34 35.998 38 l 1,2 v 1 2 1.998 V 46 l 1,1.998 v 0 1 0 0 l 1,-1 V 47 46 44 l 1,-2.002 V 40 38 37 35 l 1,-2 V 31.998 31 30 30 h 1 v 0 1 0.998 L 717,34 v 1 2 1.998 V 41 l 1,2 v 1 2 1 0.998 h 1 v 0 0 V 47 46 l 1,-1.002 V 43 41 38.998 L 721,37 V 35 34 31.998 31 l 1,-1 v -1.002 0 0 0 L 723,30 v 1 2 2 l 1,0.998 V 38 40 41.998 44 l 1,0.998 V 46 v 1 0 0 h 1 V 46 44.998 44 41.998 L 727,40 V 38 35.998 34 l 1,-1 V 31 30 28.998 28 h 1 v 0 0.998 1.002 1 l 1,2 V 34 35.998 38 l 1,2 V 41.998 44 44.998 46 l 1,1 v 0 0 0 -1 l 1,-1.002 V 43 41 40 38 l 1,-2.002 V 34 31.998 30 l 1,-1.002 V 28 v 0 0 0 l 1,0.998 V 30 31 31.998 34 l 1,1.998 V 38 40 41.998 L 738,43 v 1.998 1.002 0 1 h 1 V 46 44.998 44 41.998 L 740,41 V 38.998 37 35 33 l 1,-2 V 30 28.998 28 h 1 v 0 0 0.998 V 30 l 1,1 v 2 2 0.998 V 38 l 1,2 V 41.998 44 44.998 L 745,46 v 0 1 -1 0 l 1,-1.002 V 44 41.998 40 38 l 1,-2.002 V 34 31.998 31 28.998 L 748,28 v -1 0 0 l 1,1 v 0 0.998 2.002 2 l 1,1 V 35.998 38 40 41.998 L 751,44 V 44.998 46 46 h 1 V 46 46 44.998 43 l 1,-1.002 V 40 38 35.998 34 l 1,-2.002 V 31 28.998 28 28 l 1,-1 v 0 1 0.998 L 756,30 v 1 2 2 2 l 1,1.998 V 41 41.998 44 44.998 L 758,46 v 0 0 0 l 1,-1.002 V 44 43 41 38.998 L 760,37 V 35 33 31.998 30 l 1,-1.002 V 28 v -1 0 0 h 1 v 1 2 1 l 1,2 v 2 2 1.998 V 41 l 1,0.998 V 44 44.998 46 46 h 1 V 46 44.998 44 l 1,-2.002 V 41 38.998 37 35 l 1,-2 V 31 30 28.998 28 l 1,-1 v 0 0 1 l 1,0.998 V 30 31.998 34 35 l 1,2 v 1.998 2.002 2 1 l 1,0.998 V 46 v 0 0 0 l 1,-1.002 V 44 41.998 40 l 1,-2 V 35.998 34 33 31 l 1,-2.002 V 28 v -1 0 0 h 1 V 28 28.998 30 l 1,1.998 V 34 35.998 38 38.998 L 777,41 v 2 1 0.998 V 46 h 1 V 46 46 44.998 43 l 1,-1.002 V 40 38 35.998 L 780,34 V 31.998 31 28.998 28 l 1,-1 v 0 0 0 1 l 1,0.998 V 31 31.998 34 l 1,1.998 V 38 40 41.998 43 l 1,1.998 v 0 1.002 0 0 l 1,-1.002 V 44 43 41 40 l 1,-2 V 35.998 34 31.998 L 787,30 V 28.998 28 27 27 h 1 v 0 1 0.998 V 31 l 1,0.998 V 34 35.998 38 l 1,2 v 1.998 1.002 1.998 0 L 791,46 V 46 46 44.998 44 l 1,-1 V 41 38.998 37 35 l 1,-2 V 31.998 30 28.998 L 794,28 v -1 0 0 1 h 1 v 2 1 2 2 l 1,2 V 38.998 41 41.998 L 797,44 v 0.998 1.002 0 0 h 1 V 44.998 44 41.998 41 l 1,-2.002 V 37 35 33 31 l 1,-1 v -2 -1 0 h 1 v 0 0 1 2 l 1,1 v 2 2 2 1.998 L 803,41 V 41.998 44 44.998 L 804,46 v 0 0 0 -1.002 L 805,44 V 41.998 40 38.998 37 l 1,-2 v -2 -2 -1 -2 l 1,-1 v 0 0 0 l 1,1 V 28.998 30 31.998 34 l 1,1 v 2 1.998 2.002 2 l 1,1 V 44.998 46 46 h 1 v -1.002 0 V 43 41.998 L 812,40 V 38 35.998 34 31.998 L 813,31 V 28.998 28 27 27 h 1 v 0 1 0.998 L 815,30 V 31.998 34 35.998 38 l 1,2 v 1 2 1 0.998 L 817,46 v 0 0 -1.002 L 818,44 V 43 41.998 40 38 l 1,-2.002 V 34 31.998 31 28.998 L 820,28 v -1 0 0 0 l 1,1 V 28.998 31 31.998 L 822,34 V 35.998 38 40 41.998 L 823,43 v 1.998 0 1.002 0 h 1 V 44.998 44 43 l 1,-2 V 38.998 37 35 33 l 1,-1.002 V 30 28.998 28 27 h 1 v 0 0 1 0.998 L 828,31 v 2 1 1.998 L 829,38 v 2 1.998 1.002 1.998 h 1 V 46 46 46 44.998 L 831,44 V 43 41 38.998 L 832,37 V 35 33 31.998 30 l 1,-1.002 V 28 v -1 0 0 l 1,1 v 0.998 1.002 1 2 l 1,2 V 37 38.998 41 l 1,0.998 V 44 44.998 46 46 h 1 V 46 44.998 44 41.998 L 838,41 V 38.998 37 35 l 1,-2 V 31 28.998 28 27 h 1 v 0 0 1 0.998 L 841,30 v 1 2 2 2 l 1,1.998 V 41 v 2 1 l 1,0.998 V 46 v 0 0 0 l 1,-1.002 V 44 41.998 40 38 l 1,-2.002 V 35 33 31 l 1,-2.002 V 28 v -1 0 0 h 1 V 28 28.998 30 31.998 L 848,34 v 1.998 2.002 2 1 l 1,2 V 44 44.998 46 h 1 V 46 44.998 44 43 l 1,-1.002 V 40 38 35.998 34 l 1,-2.002 V 30 28.998 28 l 1,-1 v 0 0 0 1 l 1,0.998 V 30 31.998 34 35.998 L 855,38 v 2 1.998 1.002 1 l 1,0.998 V 46 v 0 0 l 1,-1.002 V 44 43 41 40 l 1,-2 V 35.998 34 31.998 30 l 1,-1.002 V 28 27 27 h 1 v 0 1 0.998 V 31 l 1,2 v 1 1.998 2.002 2 l 1,1.998 V 43 44.998 46 46 h 1 V 46 44.998 44 l 1,-1 V 41 38.998 37 35 l 1,-2 V 31 30 28.998 28 l 1,-1 v 0 0 0 l 1,1 v 0.998 2.002 2 2 l 1,2 V 38.998 40 41.998 44 l 1,0.998 V 46 v 0 0 0 l 1,-1.002 V 44 41.998 41 l 1,-2.002 V 37 35 33 31 l 1,-1 V 28.998 28 27 27 h 1 V 28 28.998 30 l 1,1.998 V 33 v 2 2 1.998 L 875,41 v 2 1 0.998 V 46 h 1 V 46 46 44.998 44 l 1,-2.002 V 40 38.998 37 l 1,-2 V 33 31 28.998 28 l 1,-1 v 0 0 0 1 l 1,0.998 V 30 31.998 33 l 1,2 v 2 1.998 2.002 2 l 1,1 v 0.998 1.002 0 0 l 1,-1.002 v 0 V 43 41.998 40 l 1,-2 V 35.998 34 31.998 L 885,31 V 28.998 28 27 27 h 1 v 0 1 0.998 V 31 l 1,0.998 V 34 35.998 38 l 1,2 V 41.998 43 44 44.998 L 889,46 V 46 46 44.998 44 l 1,-1 V 41.998 40 38 35.998 L 891,34 V 31.998 30 28.998 L 892,28 v -1 0 0 0 l 1,1 V 28.998 31 31.998 34 l 1,1.998 V 38 40 41.998 L 895,43 v 1 0.998 1.002 0 h 1 V 44.998 44 43 41 l 1,-2.002 V 38 35.998 34 31.998 L 898,30 V 28.998 28 27 h 1 v 0 0 1 2 l 1,1 v 2 2 2 1.998 L 901,40 V 41.998 44 44.998 L 902,46 v 0 0 0 -1.002 L 903,44 V 43 41 38.998 37 l 1,-2 v -2 -2 -1 -2 l 1,-1 v 0 0 0 h 1 v 1 2 1 2 l 1,2 V 37 38.998 41 41.998 L 908,44 V 44.998 46 46 h 1 V 46 44.998 44 41.998 L 910,41 V 38.998 37 35 33 l 1,-2 v -1 -2 0 -1 h 1 v 0 1 0.998 L 913,30 v 1.998 1.002 2 2 l 1,1.998 V 41 v 2 1 0.998 L 915,46 v 0 0 0 l 1,-1.002 V 43 41.998 40 38 l 1,-2.002 V 34 31.998 31 28.998 L 918,28 v -1 0 0 0 l 1,1 V 28.998 30 31.998 L 920,34 V 35.998 38 38.998 41 l 1,2 v 1 0.998 1.002 0 h 1 v -1.002 0 V 43 l 1,-1.002 V 40 38 35.998 34 l 1,-2.002 V 31 28.998 28 27 h 1 v 0 0 1 l 1,0.998 V 31 31.998 34 35.998 L 927,38 v 2 1.998 1.002 1 l 1,0.998 V 46 46 46 44.998 L 929,44 v -1 -2 -1 l 1,-2 V 35.998 34 31.998 30 l 1,-1.002 V 28 v -1 0 0 h 1 V 28 28.998 31 l 1,0.998 V 34 35.998 38 40 l 1,1.998 V 43 v 1.998 0 V 46 h 1 V 46 44.998 44 43 l 1,-2 V 38.998 37 35 l 1,-2 V 31.998 30 28.998 28 l 1,-1 v 0 0 1 0 l 1,2 v 1 2 2 l 1,2 V 38.998 41 41.998 44 l 1,0.998 V 46 v 0 0 0 l 1,-1.002 V 44 41.998 41 38.998 L 943,37 v -2 -2 -2 l 1,-1 v -2 -1 0 0 h 1 v 0 1 2 1 l 1,2 v 2 2 1.998 L 947,41 V 41.998 44 44.998 46 h 1 V 46 46 44.998 44 l 1,-2.002 V 40 38.998 37 35 l 1,-2 v -2 -1 -2 l 1,-1 v 0 0 0 1 l 1,0.998 V 30 31.998 34 35.998 L 953,38 V 38.998 41 43 l 1,1 v 0.998 1.002 0 0 l 1,-1.002 v 0 V 43 41.998 40 l 1,-2 V 35.998 34 31.998 31 l 1,-2.002 V 28 27 27 h 1 v 0 1 0.998 V 30 l 1,1.998 V 34 35.998 38 40 l 1,1 v 2 1 0.998 L 961,46 V 46 46 44.998 44 l 1,-1 V 41.998 40 38 35.998 L 963,34 V 31.998 30 28.998 28 l 1,-1 v 0 0 0 l 1,1 v 0.998 2.002 2 1 l 1,1.998 V 38 40 41.998 43 l 1,1.998 v 0 1.002 0 h 1 V 44.998 44 43 41 l 1,-2.002 V 37 35 33 31.998 L 970,30 V 28.998 28 27 27 h 1 v 0 1 0.998 L 972,31 v 2 2 0.998 V 38 l 1,2 V 41.998 44 44.998 46 h 1 v 0 0 -1.002 L 975,44 V 43 41 38.998 37 l 1,-2 V 33 31.998 30 28.998 L 977,28 v -1 0 0 1 l 1,0.998 V 30 v 1 2 l 1,2 V 37 38.998 41 41.998 L 980,44 v 0.998 1.002 0 0"
           stroke="#a5a5a5"
           stroke-width="2"
           stroke-linecap="round"
           stroke-linejoin="round"
           stroke-miterlimit="10"
           fill="none"
           id="path3562" />
      </g>
      <g
         clip-path="url(#clip2)"
         id="g3568">
        <path
           d="m 556,-23289 1,28847 v -5685 -52 39.998 17.002 l 1,1.998 v -6.998 -10 -10 -9 l 1,-8 v -4.002 -1.998 1 l 1,3 v 5 5.998 8.002 7.998 l 1,9 v 9.002 10 9 9 l 1,10 v 9 7.998 9.002 7.998 l 1,8.002 v 8 7 7 l 1,7 V -5.00195 1 7 13 l 1,6 V 23.998 29 33.998 39 l 1,5 V 49 52.998 58 l 1,3.998 v 4 4.002 4 3.998 L 568,81 v 3.998 3 4.002 3 l 1,2.998 v 3 4.002 3 1.998 l 1,3.002 v 3 3 2 l 1,3 v 1.998 3.002 2 3 l 1,1.998 v 2.002 2 2.998 2.002 l 1,2 v 1.998 2.002 2 l 1,1.998 v 2.002 0.998 2.002 1.998 l 1,2.002 v 0.998 2.002 2 1 l 1,2 v 1 1.998 1.002 1.998 l 1,1.002 v 1.998 1.002 1 l 1,2 v 1 0.998 1.002 1.998 l 1,1.002 v 1 1 0.998 2.002 l 1,0.998 v 1.002 1 0.998 l 1,1.002 v 1 0.998 1.002 1 l 1,0.998 v 1 1.002 1 0.998 h 1 v 1.002 1 0.998 1.002 l 1,1 v 0 0.998 1.002 l 1,1 v 0.998 0 1.002 1 l 1,0.998 v 0 1.002 1 0 l 1,1 v 0.998 0 1.002 h 1 v 1 0.998 0 1.002 h 1 v 1 0.998 0 1.002 h 1 v 1 0 0.998 0 l 1,1.002 v 0 1 0 l 1,0.998 v 0 1 0 1.002 h 1 v 1 0 0 0.998 h 1 v 1.002 0 1 h 1 v 0 0.998 0 1.002 h 1 v 1 0 0 0.998 h 1 v 0 1.002 0 1 h 1 v 0 0.998 0 h 1 v 1.002 0 0 1 h 1 v 0 0.998 0 0 l 1,1.002 v 0 0 1 h 1 v 0 1 0 0 l 1,0.998 v 0 0 1.002 0 h 1 v 0 1 0 h 1 v 0.998 0 0 0 l 1,1.002 v 0 0 0 1 h 1 v 0 0 0.998 0 h 1 v 0 1.002 0 h 1 v 0 1 0 0 h 1 v 0.998 0 0 0 h 1 v 1.002 0 0 h 1 v 1 0 0 0 h 1 v 0.998 0 0 0 h 1 v 1 0 0 0 h 1 v 1.002 0 0 h 1 v 0 1 0 0 h 1 v 0 0 0.998 0 h 1 v 0 0 0 l 1,1.002 v 0 0 0 0 h 1 v 1 0 0 0 h 1 v 0 0.998 0 0 h 1 v 0 0 0 l 1,1.002 v 0 0 0 0 h 1 v 0 1 0 0 h 1 v 0 0 0 l 1,0.998 v 0 0 0 0 h 1 v 0 0 1.002 0 h 1 v 0 0 0 0 h 1 v 0 1 0 h 1 v 0 0 0 0 h 1 v 0 0.998 0 0 h 1 v 0 0 0 h 1 v 0 0 1.002 0 h 1 v 0 0 0 0 h 1 v 0 0 0 0 h 1 v 1 0 0 h 1 v 0 0 0 0 h 1 v 0 0 0 0 h 1 v 0 0 0.998 h 1 v 0 0 0 0 h 1 v 0 0 0 0 h 1 v 0 0 0 0 h 1 v 0 0 0 h 1 v 0 0 0 0 h 1 v 0 0 0 0 h 1 v 0 0 0 h 1 v 0 0 0 0 h 1 v 0 0 0 0 L 649,285 v 0 0 0 0 h 1 v 0 0 0 h 1 v 0 0 -1 0 h 1 v 0 0 0 0 h 1 v -1.002 0 0 h 1 v 0 0 -0.998 0 h 1 v 0 0 -1 0 h 1 v 0 -1.002 0 0 h 1 V 279 v 0 0 l 1,-1 v 0 0 0 -1.002 h 1 v 0 -0.998 0 0 l 1,-1 v 0 -1.002 0 h 1 V 273 v 0 0 -1 h 1 v -1.002 0 -1 0 L 663,269 v 0 -1 0 -1.002 h 1 V 266 v 0 -1 h 1 v -1.002 -0.998 0 -1 h 1 v -1.002 -0.998 0 -1 h 1 v -1.002 -0.998 0 l 1,-1 v -1 0 -1.002 V 253 h 1 v -1 -1.002 0 V 250 l 1,-1 v 0 -1.002 -0.998 -1 h 1 V 244.998 244 243 l 1,-1.002 v 0 -0.998 -1 -1.002 l 1,-1 V 237 v -1 0 -1.002 L 674,234 V 233 231.998 231 l 1,-1 v 0 -1.002 -0.998 -1 l 1,-1.002 V 225 v 0 -1 -1 l 1,-1.002 V 221 v -1 0 -1.002 L 678,218 V 217 215.998 215 l 1,-1 v -1.002 0 -0.998 -1 l 1,-1.002 V 209 v -1 -1.002 -1 L 681,204 V 202.998 202 201 l 1,-1.002 v 0 -0.998 -1 -1.002 L 683,196 v -1 -1.002 -0.998 0 l 1,-1 v -1 -1.002 -0.998 0 l 1,-1 V 186.998 186 185 h 1 V 183.998 183 182 180.998 L 687,180 v -1 -1.002 -1.998 -1.002 l 1,-1 V 173 172 170.998 L 689,170 v -1 -1.002 -0.998 -1 l 1,-1.002 V 164 v 0 -1 -1.002 h 1 V 161 v -1 0 -1 h 1 v -1.002 -0.998 0 l 1,-1 v -1.002 -0.998 0 -1 l 1,-1.002 V 151 148.998 148 147 l 1,-1.002 V 145 v -2.002 -1 L 696,141 v -1 -1.002 -0.998 -1 h 1 v -1.002 -0.998 0 0 l 1,-1 v 0 0 -1.002 0 h 1 V 132 v 0 -1 h 1 v -1.002 -0.998 -1 -1 l 1,-1.002 V 125 122.998 122 121 l 1,-2 V 118 116.998 116 l 1,-2.002 V 113 v 0 -1 -1.002 h 1 v -1 0 0 0 h 1 v 0 0 0 0 h 1 v 0 0 V 109 h 1 v -1 -1.002 -0.998 -1 l 1,-2 V 102 100.998 99 97.998 L 709,96 V 95 93.998 93 l 1,-1 V 90.998 90 v 0 0 h 1 v 0 0 0.998 0 L 712,92 v 0 1 0 0 h 1 v -1 0 -1.002 L 714,90 V 89 87.998 86 84.998 L 715,83 V 81 80 77.998 77 l 1,-1 v -2 0 -1 h 1 v -1.002 0 1.002 0 l 1,1 v 0.998 1.002 0 1 l 1,0.998 v 1 0 0 0 h 1 v -1 V 77 76 l 1,-1.002 V 73 71 70 68 l 1,-2.002 V 65 63 61.998 61 l 1,-1 v 0 -1.002 0 L 724,60 v 0 1 0.998 V 63 l 1,1 v 1.998 1.002 0 1 l 1,0.998 v 0 0 V 68 68 l 1,-1 V 65 64 61.998 L 728,60 V 58.998 57 55 52.998 L 729,52 V 49.998 49 v 0 0 h 1 v 0 0.998 0 L 731,52 V 52.998 54 55.998 57 l 1,1 v 0.998 1.002 1 0 h 1 V 61 60 58.998 58 l 1,-2.002 V 54 52 49.998 L 735,49 V 46.998 45 44 42.998 L 736,42 v 0 -1 1 0 l 1,0.998 V 44 v 1.998 1 L 738,49 V 49.998 52 52.998 54 l 1,1 v 0.998 0 0 V 55 l 1,-1 V 52.998 51 49.998 48 l 1,-2.002 V 44 42 39.998 L 742,38 V 36.998 36 36 35 l 1,1 V 36 36.998 38 39.998 L 744,41 V 42.998 45 45.998 L 745,48 v 1 2 0 1 h 1 V 52 51 49.998 49 l 1,-2.002 V 45 42.998 41 39 l 1,-2.002 V 36 33.998 33 l 1,-1 v 0 0 1 0 l 1,2 v 1 2 1 2 l 1,1.998 V 45 45.998 48 l 1,1 v 0 0 0 0 l 1,-1 V 45.998 45 42.998 41 l 1,-2 V 36.998 35 33 32 l 1,-2.002 V 29 v 0 0 h 1 V 29.998 31 32 33.998 L 757,36 v 2 1 2 1.998 L 758,45 v 0.998 1 0 h 1 v 0 -1 V 45 44 l 1,-2 V 39.998 38 36 33.998 L 761,32 v -1 -2 -1 0 l 1,-1.002 V 28 v 0 1 l 1,0.998 V 32 33.998 36 38 l 1,1.998 V 41 42.998 44 45 l 1,0.998 v 0 0 V 45 l 1,-1 V 42.998 41 39.998 38 l 1,-3 V 33 31 29.998 28 l 1,-1.002 V 26 v 0 0 h 1 v 0.998 1.002 1 2 l 1,2 v 2 1.998 2.002 2 l 1,1 v 2 1 0 0 h 1 V 44 42.998 41 l 1,-1.002 V 38 36 33.998 32 l 1,-2.002 V 28 26.998 26 25 h 1 v 0 1 0.998 L 776,29 V 29.998 32 33.998 36 l 1,2 V 39.998 42 42.998 44 h 1 v 1 -1 0 -1.002 L 779,41 V 39.998 38 36 l 1,-2.002 V 31 29.998 28 26 l 1,-1 v -1.002 0 0 V 25 l 1,1 V 26.998 28 29.998 L 783,32 V 33.998 36 38 39.998 L 784,42 v 0.998 1.002 0 0 h 1 V 42.998 42 39.998 38 l 1,-2 V 33.998 32 29.998 L 787,28 V 26.998 26 25 23.998 h 1 V 25 v 0 1 2 l 1,1.998 V 32 33.998 36 l 1,2 v 1 2 1 0.998 L 791,44 V 44 44 42.998 42 l 1,-2.002 V 39 36.998 33.998 32 l 1,-2.002 V 28 26.998 25 l 1,-1.002 v 0 V 23 23 23.998 L 795,25 v 1 2 1.998 V 32 l 1,1.998 V 36 38 39.998 L 797,41 V 42 42.998 44 42.998 h 1 V 42 41 39 36.998 L 799,35 v -2 -2 -2 -1 l 1,-2 v -1 -1.002 0 h 1 v 0 1.002 1 2 l 1,1.998 V 32 33.998 36 38 l 1,1 v 2 1 0.998 h 1 V 44 42.998 42 41 l 1,-1.002 V 38 36 33.998 32 l 1,-2.002 V 28 26 25 23.998 L 807,23 v 0 0 0.998 L 808,25 v 1 2 1.998 V 32 l 1,1.998 V 36 38 39.998 41 l 1,1 v 0.998 0 0 h 1 V 42 39.998 39 36.998 L 812,35 V 33 31 29 26.998 L 813,26 v -2.002 0 V 23 23.998 h 1 V 25 v 1 2 l 1,1.998 V 32 33.998 36 38 l 1,1.998 V 41 v 1 0.998 0 h 1 v 0 V 42 41 l 1,-2 V 36.998 35 33 31 l 1,-2 V 26.998 25 23.998 23 h 1 v 0 0 0.998 V 25 l 1,1.998 V 28 29.998 32 l 1,3 V 36.998 38 39.998 41 l 1,1 v 0.998 0 0 V 42 l 1,-1 V 39.998 38 36 l 1,-2.002 V 32 29.998 28 26 l 1,-1 V 23.998 23 v 0 0 l 1,0.998 V 25 26.998 28 29.998 L 828,32 V 33.998 36 38 l 1,1.998 V 41 v 1 0.998 0 h 1 v 0 V 42 39.998 39 l 1,-2.002 V 35 32 29.998 L 832,28 V 26.998 25 23.998 23 h 1 v 0 0 0.998 V 25 l 1,1.998 V 29 v 2 2 2 l 1,1.998 V 39 39.998 42 l 1,0.998 v 0 0 0 V 42 l 1,-1 V 39 38 36 33.998 L 838,32 V 29.998 28 26 l 1,-1 V 23.998 23 v 0 0.998 h 1 V 25 26.998 29 29.998 L 841,33 V 35 36.998 38 39.998 L 842,41 v 1 0.998 0 h 1 V 42 41 39.998 38 l 1,-2 V 33.998 32 29.998 28 l 1,-2 V 25 23.998 23 h 1 v 0 0 0.998 V 26 l 1,0.998 V 29 v 2 2 2 l 1,1.998 V 39 v 2 1 0.998 h 1 v 0 0 V 42 l 1,-2.002 V 39 36.998 35 33 l 1,-2 V 29 26.998 26 25 l 1,-1.002 V 23 v 0 0.998 h 1 V 26 26.998 29 31 l 1,2 V 35 36.998 39 39.998 L 855,42 v 0.998 0 0 0 L 856,42 v -1 -2 -1 l 1,-2 V 33.998 31 29 26.998 L 858,26 V 23.998 23 v 0 0 h 1 v 0 2 1 l 1,2 V 29.998 32 33.998 36 l 1,2 v 1 2 1 0.998 h 1 v 0 V 42 41 39.998 L 863,38 V 36.998 35 33 l 1,-2 V 29 26.998 25 23.998 h 1 V 23 23 23.998 25 l 1,1 v 2 1 2 l 1,2 v 2 1.998 2.002 2 l 1,1 v 0.998 0 0 0 L 869,42 V 41 39 36.998 35 l 1,-2 V 31 29 26.998 L 871,25 V 23.998 23 v 0 0 h 1 v 0.998 1.002 1 2 l 1,1.998 V 32 33.998 36 l 1,2 v 1.998 1.002 1 0.998 h 1 v 0 V 42 41 39.998 L 876,38 V 36 33.998 32 29.998 L 877,28 V 26.998 25 23.998 L 878,23 v 0 0 0.998 V 25 l 1,1 V 28 29.998 32 33.998 L 880,36 V 38 39.998 41 l 1,1 v 0.998 0 0 V 42 h 1 V 39.998 39 36.998 35 l 1,-2 V 29.998 28 26.998 25 l 1,-1.002 V 23 v 0 0 h 1 V 23.998 25 26.998 28 l 1,1.998 V 33 35 36.998 39 l 1,0.998 V 41 v 1 0.998 h 1 v 0 V 42 41 39 l 1,-1 V 36 33.998 32 29.998 L 890,28 V 26 25 23.998 23 h 1 V 23 23.998 25 l 1,1.998 V 28 29.998 32 33.998 L 893,36 v 2 1.998 1.002 1 l 1,0.998 v 0 0 V 42 l 1,-1 V 39.998 38 36 33.998 L 896,32 V 29.998 28 26 25 l 1,-1.002 V 23 v 0 0 0 l 1,0.998 V 25 26.998 29 l 1,2 v 2 2 1.998 V 39 l 1,2 v 1 0.998 0 0 h 1 V 42 41 39 l 1,-2.002 V 35 33 31 29 l 1,-2.002 V 26 25 23.998 23 h 1 v 0.998 0 V 25 26.998 L 905,29 v 2 2 2 l 1,1.998 V 39 39.998 42 42.998 h 1 v 0 0 V 42 41 l 1,-2 V 38 36 33.998 L 909,32 V 29.998 28 26 23.998 L 910,23 v 0 0 0 0 l 1,0.998 V 26 26.998 29 31 l 1,2.998 V 36 v 2 1 l 1,2 v 1 0.998 0 0 L 914,42 V 42 39.998 39 36.998 L 915,35 v -2 -2 -2 l 1,-2.002 V 26 v -2.002 0 V 23 h 1 V 23.998 25 26 26.998 L 918,29 v 2 2 2 1.998 L 919,39 v 2 1 0.998 h 1 v 0 0 V 42 41 l 1,-2 V 36.998 35 33 31 l 1,-2 V 26.998 26 23.998 L 923,23 v 0 0 0 0.998 L 924,25 v 1 2 1.998 V 32 l 1,1.998 V 36 38 39.998 L 926,41 v 1 0.998 0 0 L 927,42 V 41 39.998 38 36 l 1,-2.002 V 32 29.998 28 26.998 L 929,25 V 23.998 23 23 h 1 v 0.998 1.002 1 2 l 1,1.998 V 32 33.998 36 38 l 1,1 v 2 1 0.998 h 1 v 0 0 V 42 39.998 L 934,39 V 36.998 35 33 31 l 1,-2 V 26.998 25 23.998 23 h 1 v 0 0 0.998 L 937,25 V 26.998 28 29.998 32 l 1,1.998 v 3 V 38 39.998 41 l 1,1 v 0.998 0 0 L 940,42 V 41 39.998 38 36 l 1,-2.002 V 32 29.998 28 26 l 1,-1 V 23.998 23 v 0 0 l 1,0.998 V 25 v 1 2 l 1,1.998 V 32 33.998 36 38 l 1,1.998 V 41 v 1 0.998 0 h 1 V 42 41 39.998 L 947,38 V 36 33.998 32 29.998 L 948,28 V 26 25 23.998 23 h 1 v 0 0 0.998 V 25 l 1,1.998 V 29 v 2 2 l 1,2 V 36.998 39 39.998 42 l 1,0.998 v 0 0 0 V 42 l 1,-1 V 39 36.998 35 l 1,-2 v -2 -2 -1 -2 l 1,-1 V 23.998 23 v 0 0 l 1,0.998 V 25 26.998 29 31 l 1,2 V 35 36.998 39 l 1,0.998 V 41 v 1 0.998 0 h 1 V 42 41 39.998 38 l 1,-2 V 33.998 32 29.998 L 961,28 V 26 25 23.998 23 h 1 v 0 0 0.998 V 26 l 1,0.998 V 29 v 2 2 2 l 1,1.998 V 39 v 2 1 l 1,0.998 v 0 0 V 42 42 l 1,-2.002 V 39 36.998 35 33 l 1,-2 V 29 26.998 26 l 1,-2.002 v 0 -0.998 0 0.998 h 1 V 26 26.998 29 31 l 1,2 V 35 36.998 39 39.998 L 971,42 v 0.998 0 0 h 1 V 42 41 39 36.998 L 973,35 V 33 31 29 26.998 L 974,26 V 23.998 23 23 h 1 v 0 0 2 1 l 1,2 V 29.998 32 33.998 36 l 1,2 v 1.998 1.002 1 0.998 h 1 v 0 V 42 41 l 1,-1.002 V 38 36.998 33.998 32 l 1,-2.002 V 28 26.998 25 23.998"
           stroke="#4472c4"
           stroke-width="2"
           stroke-linecap="round"
           stroke-linejoin="round"
           stroke-miterlimit="10"
           fill="none"
           id="path3566" />
      </g>
      <g
         clip-path="url(#clip3)"
         id="g3572">
        <path
           d="m 556,-25013 1,32001 V -207 -94.002 -47 -32 h 1 V -40 -52.002 -64 -76 l 1,-9 V -91.002 -95 -96 l 1,1 v 3 4.998 5.002 6.998 l 1,8.002 v 7.998 8.002 7.998 9.002 l 1,7.998 V -18 -10.002 -2 5.99805 L 563,13 v 7 7 6 l 1,6 v 6 5.998 6 V 62 l 1,6 V 72.998 78 81.998 87 l 1,4 v 5 4 4 l 1,3.998 v 4.002 2.998 4.002 4 l 1,3 v 3 3 4 3 l 1,3 v 3 1.998 3 3 l 1,3 v 2.002 3 2 l 1,2.998 v 2.002 2 1.998 3 l 1,2.002 v 1.998 2 2.002 1.998 l 1,2.002 v 2 1.998 1.002 l 1,1.998 v 2.002 1.998 1.002 1.998 l 1,1.002 v 1.998 2.002 0.998 2.002 l 1,0.998 v 1 2 1 1.002 l 1,1.998 v 1.002 1 2 l 1,1 v 0.998 1.002 1 2 l 1,1 v 0.998 1 1.002 1 l 1,0.998 v 1.002 1 0.998 l 1,1.002 v 1 0.998 1.002 1 l 1,0.998 v 0 1 1.002 0.998 l 1,1 v 1.002 0 1 0.998 l 1,1.002 v 0 1 0.998 l 1,1.002 v 0 1 0.998 0 l 1,1.002 v 1 0 0.998 1.002 h 1 v 1 0 0.998 l 1,1 v 0 1.002 0 1 h 1 v 0.998 0 1.002 0 l 1,1 v 0 0.998 0 1.002 h 1 v 1 0 0.998 h 1 v 1.002 0 1 0 h 1 v 0.998 0 1 0 h 1 v 1.002 0 0.998 h 1 v 0 1 0 1.002 h 1 v 0 1 0 0 l 1,0.998 v 0 1.002 0 0 l 1,1 v 0 0 0.998 h 1 v 0 1.002 0 0 l 1,1 v 0 0 0 0.998 h 1 v 0 1.002 0 h 1 v 1 0 0 0 l 1,0.998 v 0 0 1.002 0 h 1 v 0 1 0 h 1 v 0 0.998 0 0 h 1 v 1 0 0 0 l 1,1.002 v 0 0 0 1 h 1 v 0 0 0 l 1,0.998 v 0 0 0 1.002 h 1 v 0 0 0 1 h 1 v 0 0 0 l 1,0.998 v 0 0 0 0 l 1,1.002 v 0 0 0 0 h 1 v 1 0 0 0 h 1 v 0.998 0 0 h 1 v 0 0 1.002 0 h 1 v 0 0 0 1 h 1 v 0 0 0 h 1 v 0 0.998 0 0 h 1 v 0 0 0 1 h 1 v 0 0 0 0 h 1 v 1.002 0 0 h 1 v 0 0 0 0.998 h 1 v 0 0 0 0 h 1 v 0 1 0 h 1 v 0 0 0 0 h 1 v 1.002 0 0 0 h 1 v 0 0 0 0 l 1,1 v 0 0 0 h 1 v 0 0 0 0 h 1 v 0 0.998 0 0 h 1 v 0 0 0 h 1 v 0 0 0 1.002 h 1 v 0 0 0 0 h 1 v 0 0 0 0 h 1 v 0 0 1 h 1 v 0 0 0 0 h 1 v 0 0 0 0 h 1 v 0 0 0 h 1 v 0.998 0 0 0 h 1 v 0 0 0 0 h 1 v 0 0 0 0 h 1 v 0 0 0 h 1 v 0 0 0 0 h 1 v 1.002 0 0 0 h 1 v 0 0 0 h 1 v 0 0 0 0 h 1 v 0 0 0 -1.002 h 1 v 0 0 0 0 h 1 v 0 0 0 h 1 v 0 0 0 0 h 1 v 0 0 0 V 315 h 1 v 0 0 0 h 1 v 0 0 0 -1 h 1 v 0 0 0 0 h 1 v -1.002 0 0 0 h 1 v 0 0 V 312 h 1 v 0 0 0 -1 h 1 v 0 0 0 -1.002 h 1 v 0 0 -1 h 1 v 0 -0.998 0 0 h 1 v -1.002 0 0 -1 h 1 v 0 0 -0.998 0 h 1 v -1 0 -1.002 h 1 v 0 -0.998 0 -1 h 1 v 0 -1.002 0 V 299 h 1 v -1 0 -1.002 h 1 V 296 v -1 0 -1.002 h 1 v -1 0 -0.998 -1 h 1 v -1.002 0 -0.998 -1 h 1 v -1.002 -0.998 0 l 1,-1 v 0 -1.002 -0.998 0 l 1,-1 v -1.002 0 -0.998 -1 h 1 v -1.002 -1 0 L 675,276 v -1.002 -1 0 V 273 l 1,-1 v -1.002 -0.998 -1 0 l 1,-1.002 V 267 266 264.998 264 l 1,-1 v -1.002 0 -1 L 679,260 v -1 -1.002 -0.998 -1 h 1 v -1.002 -0.998 -1 0 l 1,-1.002 V 251 v -1 -1.002 h 1 V 248 v -1 -1.002 -1 L 683,244 v -1.002 -1 -0.998 -1 l 1,-1.002 V 238 237 235.998 235 l 1,-1 V 232.998 232 231 l 1,-1.002 v -1 -0.998 -1 0 l 1,-1.002 V 225 v -1 0 -1.002 L 688,222 v 0 -1 -1.002 h 1 V 219 v -1 0 -1.002 L 690,216 v -1 -1.002 -1 V 212 l 1,-1.002 v -1 -0.998 -1 -1.002 L 692,206 V 205 203.998 203 l 1,-1 v -1.002 -0.998 -1 0 l 1,-1.002 v -1 0 -0.998 0 l 1,-1 v 0 -1.002 0 L 696,193 v 0 -1 0 -1.002 L 697,190 v 0 -1 -1.002 V 187 l 1,-1 v -2 -1 -1.002 -1 L 699,180 v -1.002 -1 V 177 l 1,-1 v -1.002 -0.998 -1 0 l 1,-1.002 v 0 0 -0.998 0 h 1 v 0 0 0 h 1 v -1 0 0 -1.002 L 704,168 v -1 -1.002 -1 V 164 l 1,-1 V 161.998 160 158.998 158 l 1,-1 V 155.998 155 154 l 1,-1.002 v 0 -0.998 0 0 h 1 v 0 0 0 0 h 1 v 0 0.998 V 152 h 1 v 0 0 -1 -1.002 l 1,-1 V 148 v -1.002 -1 V 144 l 1,-1.002 V 141 139.998 139 138 l 1,-1.002 V 136 v -1 0 l 1,-1.002 v 0 0 0 1.002 h 1 v 1 0 0.998 0 l 1,1.002 v 0 0 0 h 1 v -1.002 -0.998 -1 -1.002 l 1,-1 V 132 129.998 129 126.998 L 719,126 v -1 -2 -1 0 l 1,-1.002 v 0 0 0 h 1 v 1.002 0 1 0.998 l 1,1.002 v 1 0 0.998 0 h 1 v 0 0 V 126 l 1,-1 v -1.002 -0.998 -1 -2 l 1,-1 v -2.002 -2 -1 V 113 l 1,-2.002 v 0 -0.998 0 0 h 1 v 0 0.998 1.002 l 1,1 v 0.998 1 1.002 0.998 l 1,1 v 0 1.002 0 0 h 1 v -1.002 -1 V 116 l 1,-1.002 V 113 v -1 -2 -2.002 L 732,107 v -2.002 -0.998 -1 -1.002 h 1 v 0 0 0 1.002 l 1,1 v 0.998 1.002 1.998 l 1,1.002 v 1 0.998 1.002 1 h 1 v 0 0 -1 0 l 1,-2 V 109 107.998 106 l 1,-2 V 103 100.998 99 97.998 L 739,97 V 96 96 94.998 96 h 1 v 1 0.998 1.002 1 l 1,1.998 v 1.002 1 2 l 1,1 v 0.998 0 1.002 0 l 1,-1.002 v 0 -0.998 -1 -2 l 1,-1 V 100.998 99 97.998 L 745,96 V 94.998 93 93 91.998 h 1 v 0 0 1.002 1 l 1,0.998 V 96 97.998 99 v 1.998 l 1,1 v 2.002 0.998 0 l 1,1.002 v 0 0 -1.002 V 104 l 1,-1 V 100.998 100 97.998 96 l 1,-1.002 V 93 91 90 l 1,-1.002 V 88 v 0 0 0.998 h 1 V 90 v 1 2 1 l 1,2 v 1.998 1.002 1.998 1 l 1,1.002 v 0 1 -1 h 1 v -1.002 -1 V 100 97.998 L 757,97 V 94.998 93 91.998 90 l 1,-1.002 V 88 87 87 h 1 v 0 1 0 2 l 1,1 v 2 1 2 1.998 L 761,99 v 1 0.998 1 0 h 1 v 0 -1 V 100 l 1,-1 V 97 94.998 94 91.998 L 764,90 v -2 -1 -1.002 -1 h 1 V 84 v 0.998 0 l 1,1 V 87 88.998 91 91.998 L 767,94 v 2 1 2 1 h 1 v 0.998 0 0 L 769,100 V 99 97.998 97 94.998 L 770,93 V 91.998 90 88 87 l 1,-1.002 v -1 -0.998 0 0 l 1,0.998 v 1 1.002 1 l 1,2 v 1 2 1.998 V 96 l 1,1.998 V 99 v 1 0 0.998 L 775,100 v 0 -1 -1.002 L 776,96 V 94 93 91 88.998 L 777,87 v -1.002 -1 V 84 82.998 h 1 v 0 0 V 84 84.998 L 779,87 v 1 2 1.998 L 780,93 V 94.998 97 97.998 99 h 1 v 1 0 -1 0 l 1,-2 V 96 94.998 93 l 1,-2 V 88.998 88 v -2.002 -1 L 784,84 v -1.002 0 0 0 L 785,84 v 0.998 1 2.002 2 l 1,1 V 93 94.998 96 l 1,1.998 V 99 v 0 1 0 l 1,-1 V 97.998 97 96 94 l 1,-1 V 91 88.998 87 l 1,-1.002 V 84 v -1.002 -1 0 h 1 v 0 1 V 84 84.998 L 792,87 v 1 2 1.998 V 94 l 1,0.998 V 97 97.998 99 h 1 V 99 99 97.998 97 l 1,-1 V 94.998 93 91 88.998 L 796,88 v -2.002 -1 V 84 l 1,-1.002 v -1 0 0 1 L 798,84 v 0.998 2.002 1 2 l 1,1.998 V 94 94.998 97 97.998 L 800,99 v 0 0 0 l 1,-1.002 V 97 96 94.998 93 l 1,-2 V 88.998 88 85.998 84 l 1,-1.002 v -1 0 V 81 l 1,0.998 v 0 1 V 84 85.998 L 805,87 v 1.998 2.002 2 1 l 1,2 v 1 0.998 1.002 0 h 1 V 97.998 97 96 l 1,-1.002 V 93 91.998 90 88 l 1,-2.002 v -1 -0.998 -1.002 -1 h 1 v 0 0 1 L 811,84 V 85.998 87 88.998 91 l 1,2 v 1 2 1 0.998 L 813,99 v 0 0 -1.002 0 L 814,96 V 94.998 93 91.998 L 815,90 v -2 -2.002 -1 -2 l 1,-1 v 0 -0.998 0 0.998 h 1 V 84 v 0.998 1 L 818,88 V 90 91.998 93 94.998 L 819,96 v 1 0.998 1.002 0 l 1,-1.002 v 0 V 97 94.998 94 l 1,-2.002 V 90 88.998 87 l 1,-2.002 V 84 v -1.002 -1 0 h 1 v 0 1 V 84 84.998 L 824,87 v 1 2 1.998 L 825,94 v 0.998 1.002 1.998 0 L 826,99 V 99 99 97.998 97 l 1,-1 V 94 91.998 90 88.998 L 828,87 V 84.998 84 82.998 l 1,-1 V 81 v 0 0 0.998 l 1,1 V 84 85.998 87 88.998 L 831,91 v 2 1 2 l 1,1 v 0.998 0 1.002 0 l 1,-1.002 V 97 96 94 93 l 1,-2 V 88.998 88 85.998 84 l 1,-1.002 v -1 0 0 h 1 v 0 1 V 84 85.998 L 837,87 v 1.998 2.002 2 1 l 1,2 V 97 97.998 99 h 1 V 99 97.998 97 96 l 1,-1.002 V 93 91 88.998 88 l 1,-2.002 V 84 82.998 81.998 81 h 1 v 0 0.998 0 L 843,84 v 0.998 2.002 1 2 l 1,1.998 V 94 94.998 97 97.998 h 1 V 99 99 97.998 L 846,97 V 96 94.998 93 91.998 L 847,90 V 88 87 84.998 84 l 1,-1.002 v -1 0 0 0 l 1,1 V 84 84.998 87 l 1,1 V 90 91.998 94 94.998 L 851,97 v 0.998 0 1.002 0 l 1,-1.002 v 0 V 97 94.998 L 853,94 V 91.998 90 88 85.998 l 1,-1 v -2 -1 0 V 81 h 1 v 0 0.998 1 V 84 l 1,1.998 V 88 88.998 91 l 1,2 v 1.998 1.002 1 0.998 h 1 V 99 v -1.002 0 V 97 l 1,-1 V 94 91.998 91 l 1,-2.002 V 87 85.998 84 82.998 l 1,-1 v 0 0 0 0 l 1,1 v 2 1 2.002 2 l 1,1 V 93 94.998 96 l 1,1 v 0.998 1.002 0 0 l 1,-1.002 V 97 96 94 93 l 1,-2 V 88.998 87 84.998 L 867,84 v -1.002 -1 V 81 81 h 1 v 0.998 1 V 84 84.998 L 869,87 V 88.998 90 91.998 94 l 1,0.998 V 97 v 0.998 0 L 871,99 V 99 97.998 97 96 l 1,-1.002 V 93 91 90 88 l 1,-2.002 v -1 -2 0 l 1,-1 v 0 0 0 1 L 875,84 V 84.998 87 88.998 91 l 1,0.998 V 94 v 2 1 0.998 h 1 V 99 99 97.998 L 878,97 V 96 94.998 93 91 l 1,-1 v -2 -2.002 -1 -2 l 1,-1 V 81 v 0 0 h 1 v 0.998 1 2 1 L 882,88 V 90 91.998 93 94.998 L 883,96 v 1 0.998 1.002 0 l 1,-1.002 v 0 V 97 94.998 L 885,94 V 91.998 90 88.998 87 l 1,-2.002 V 84 v -1.002 -1 0 h 1 v 0 1 V 84 l 1,0.998 v 1 2.002 2 1.998 L 889,93 V 94.998 96 97 97.998 L 890,99 v 0 -1.002 0 V 97 l 1,-2.002 V 94 91.998 90 l 1,-1.002 V 87 84.998 84 82.998 l 1,-1 V 81 v 0 0 0.998 l 1,1 V 84 85.998 87 l 1,1.998 V 91 v 2 1 2 l 1,1 v 0.998 0 V 99 97.998 h 1 V 97 96 94 93 l 1,-2 V 88.998 88 85.998 L 899,84 v -1.002 -1 0 0 h 1 v 0 1 V 84 85.998 L 901,87 V 88.998 91 93 l 1,1 v 2 1 0.998 V 99 h 1 V 99 97.998 97 96 l 1,-1.002 V 93 91 88.998 88 l 1,-2.002 V 84 v -1.002 -1 L 906,81 v 0 0 0.998 0 L 907,84 v 0.998 2.002 1 2 l 1,1.998 V 94 94.998 96 l 1,1 V 97.998 99 99 97.998 L 910,97 V 96 94.998 93 91.998 L 911,90 V 88 87 84.998 84 l 1,-1.002 v -1 0 0 h 1 v 1 V 84 84.998 87 l 1,1 V 90 91.998 94 94.998 L 915,97 v 0.998 0 V 99 h 1 v -1.002 0 V 97 94.998 L 917,94 V 91.998 90 88 85.998 l 1,-1 v -2 -1 0 V 81 h 1 v 0 0.998 1 L 920,84 V 85.998 88 88.998 91 l 1,2 v 1.998 1.002 1 0.998 h 1 V 99 v -1.002 0 L 923,97 V 96 94 91.998 91 l 1,-2.002 V 87 85.998 84 82.998 l 1,-1 v 0 0 0 h 1 v 1 2 1 V 88 l 1,0.998 V 91 93 94.998 96 l 1,1 v 0.998 1.002 0 0 l 1,-1.002 V 97 96 94 l 1,-1 V 91 88.998 87 84.998 L 931,84 v -1.002 -1 V 81 81 h 1 v 0.998 1 V 84 l 1,0.998 V 87 88.998 90 91.998 L 934,94 v 0.998 2.002 0.998 0 L 935,99 V 99 97.998 97 96 l 1,-1.002 V 93 91 90 l 1,-2 v -2.002 -1 -2 0 l 1,-1 v 0 0 0 1 L 939,84 V 84.998 87 88.998 L 940,91 v 0.998 2.002 2 1 l 1,0.998 v 0 V 99 99 97.998 L 942,97 V 96 94.998 93 91.998 L 943,90 v -2 -2.002 -1 l 1,-2 v -1 -0.998 0 0 h 1 v 0.998 1 2 1 L 946,88 V 90 91.998 93 l 1,1.998 V 96 97 97.998 99 h 1 v -1.002 0 V 97 94.998 L 949,94 V 91.998 90 88.998 87 l 1,-2.002 V 84 v -1.002 -1 h 1 v 0 0 1 V 84 l 1,0.998 v 1 2.002 2 1.998 L 953,93 V 94.998 96 97 l 1,0.998 V 99 v 0 -1.002 0 L 955,97 V 94.998 94 91.998 90 l 1,-1.002 V 87 84.998 84 82.998 l 1,-1 V 81 v 0 0 l 1,0.998 v 1 V 84 85.998 87 l 1,1.998 V 91 v 2 1 2 l 1,1 v 0.998 0 V 99 l 1,-1.002 v 0 V 97 96 94 l 1,-1 V 91 88.998 88 85.998 L 963,84 v -1.002 -1 0 0 h 1 v 0 1 V 84 l 1,1.998 V 87 88.998 91 93 l 1,1 v 2 1 0.998 V 99 h 1 V 99 97.998 97 l 1,-1 V 94.998 93 91 88.998 L 969,88 V 85.998 84 v -1.002 -1 L 970,81 v 0 0 0.998 0 L 971,84 V 84.998 87 88 l 1,2 V 91.998 94 94.998 96 l 1,1 V 97.998 99 99 97.998 L 974,97 V 96 94.998 93 l 1,-1.002 V 90 88 87 84.998 L 976,84 v -1.002 -1 0 0 h 1 v 1 V 84 84.998 87 l 1,1 V 90 91.998 94 l 1,0.998 V 97 v 0.998 0 V 99 h 1 v -1.002 0 V 97 94.998"
           stroke="#ed7d31"
           stroke-width="2"
           stroke-linecap="round"
           stroke-linejoin="round"
           stroke-miterlimit="10"
           fill="none"
           id="path3570" />
      </g>
      <g
         id="g3576">
        <text
           font-family="Arial, Arial_MSFontService, sans-serif"
           font-weight="400"
           font-size="12px"
           transform="translate(522.667,353)"
           id="text3574">1.05</text>
      </g>
      <g
         id="g3580">
        <text
           font-family="Arial, Arial_MSFontService, sans-serif"
           font-weight="400"
           font-size="12px"
           transform="translate(529.34,305)"
           id="text3578">1.1</text>
      </g>
      <g
         id="g3584">
        <text
           font-family="Arial, Arial_MSFontService, sans-serif"
           font-weight="400"
           font-size="12px"
           transform="translate(522.667,257)"
           id="text3582">1.15</text>
      </g>
      <g
         id="g3588">
        <text
           font-family="Arial, Arial_MSFontService, sans-serif"
           font-weight="400"
           font-size="12px"
           transform="translate(529.34,209)"
           id="text3586">1.2</text>
      </g>
      <g
         id="g3592">
        <text
           font-family="Arial, Arial_MSFontService, sans-serif"
           font-weight="400"
           font-size="12px"
           transform="translate(522.667,162)"
           id="text3590">1.25</text>
      </g>
      <g
         id="g3596">
        <text
           font-family="Arial, Arial_MSFontService, sans-serif"
           font-weight="400"
           font-size="12px"
           transform="translate(529.34,114)"
           id="text3594">1.3</text>
      </g>
      <g
         id="g3600">
        <text
           font-family="Arial, Arial_MSFontService, sans-serif"
           font-weight="400"
           font-size="12px"
           transform="translate(522.667,66)"
           id="text3598">1.35</text>
      </g>
      <g
         id="g3604">
        <text
           font-family="Arial, Arial_MSFontService, sans-serif"
           font-weight="400"
           font-size="12px"
           transform="translate(529.34,19)"
           id="text3602">1.4</text>
      </g>
      <g
         id="g3608">
        <text
           font-family="Arial, Arial_MSFontService, sans-serif"
           font-weight="400"
           font-size="12px"
           transform="translate(553.003,367)"
           id="text3606">0</text>
      </g>
      <g
         id="g3612">
        <text
           font-family="Arial, Arial_MSFontService, sans-serif"
           font-weight="400"
           font-size="12px"
           transform="translate(655.747,367)"
           id="text3610">50</text>
      </g>
      <g
         id="g3616">
        <text
           font-family="Arial, Arial_MSFontService, sans-serif"
           font-weight="400"
           font-size="12px"
           transform="translate(758.491,367)"
           id="text3614">100</text>
      </g>
      <g
         id="g3620">
        <text
           font-family="Arial, Arial_MSFontService, sans-serif"
           font-weight="400"
           font-size="12px"
           transform="translate(864.571,367)"
           id="text3618">150</text>
      </g>
      <g
         id="g3624">
        <text
           font-family="Arial, Arial_MSFontService, sans-serif"
           font-weight="400"
           font-size="12px"
           transform="translate(970.652,367)"
           id="text3622">200</text>
      </g>
      <rect
         x="734"
         y="132"
         width="246"
         height="208"
         fill="#ffffff"
         id="rect3626" />
      <g
         id="g3630">
        <path
           d="m 776.5,283.5 h 178 m -178,-28 h 178 m -178,-27 h 178 m -178,-27 h 178 m -178,-28 h 178 m -178,-27 h 178"
           stroke="#d9d9d9"
           stroke-linejoin="round"
           stroke-miterlimit="10"
           fill="none"
           id="path3628" />
      </g>
      <g
         id="g3634">
        <path
           d="m 821.5,146.5 v 164 m 44,-164 v 164 m 45,-164 v 164 m 44,-164 v 164"
           stroke="#d9d9d9"
           stroke-linejoin="round"
           stroke-miterlimit="10"
           fill="none"
           id="path3632" />
      </g>
      <g
         id="g3638">
        <rect
           x="776.5"
           y="146.5"
           width="178"
           height="164"
           stroke="#000000"
           stroke-linejoin="round"
           stroke-miterlimit="10"
           fill="none"
           id="rect3636" />
      </g>
      <g
         id="g3642">
        <path
           d="M 0,0 1.04987e-4,164"
           stroke="#000000"
           stroke-linejoin="round"
           stroke-miterlimit="10"
           fill="none"
           fill-rule="evenodd"
           transform="matrix(1,0,0,-1,776.5,310.5)"
           id="path3640" />
      </g>
      <g
         id="g3646">
        <path
           d="m 776.5,310.5 h 3 m -3,-5 h 3 m -3,-6 h 3 m -3,-5 h 3 m -3,-6 h 3 m -3,-5 h 3 m -3,-6 h 3 m -3,-5 h 3 m -3,-6 h 3 m -3,-5 h 3 m -3,-6 h 3 m -3,-5 h 3 m -3,-5 h 3 m -3,-6 h 3 m -3,-5 h 3 m -3,-6 h 3 m -3,-5 h 3 m -3,-6 h 3 m -3,-5 h 3 m -3,-6 h 3 m -3,-5 h 3 m -3,-6 h 3 m -3,-5 h 3 m -3,-6 h 3 m -3,-5 h 3 m -3,-6 h 3 m -3,-5 h 3 m -3,-5 h 3 m -3,-6 h 3 m -3,-5 h 3 m -3,-6 h 3 m -7,164 h 7 m -7,-27 h 7 m -7,-28 h 7 m -7,-27 h 7 m -7,-27 h 7 m -7,-28 h 7 m -7,-27 h 7"
           stroke="#000000"
           stroke-linejoin="round"
           stroke-miterlimit="10"
           fill="none"
           id="path3644" />
      </g>
      <g
         id="g3650">
        <path
           d="m 776.5,310.5 h 178"
           stroke="#000000"
           stroke-linejoin="round"
           stroke-miterlimit="10"
           fill="none"
           fill-rule="evenodd"
           id="path3648" />
      </g>
      <g
         id="g3654">
        <path
           d="m 776.5,307.5 v 3 m 9,-3 v 3 m 9,-3 v 3 m 9,-3 v 3 m 9,-3 v 3 m 9,-3 v 3 m 8,-3 v 3 m 9,-3 v 3 m 9,-3 v 3 m 9,-3 v 3 m 9,-3 v 3 m 9,-3 v 3 m 9,-3 v 3 m 9,-3 v 3 m 9,-3 v 3 m 9,-3 v 3 m 9,-3 v 3 m 9,-3 v 3 m 9,-3 v 3 m 9,-3 v 3 m 8,-3 v 3 m -178,-4 v 8 m 45,-8 v 8 m 44,-8 v 8 m 45,-8 v 8 m 44,-8 v 8"
           stroke="#000000"
           stroke-linejoin="round"
           stroke-miterlimit="10"
           fill="none"
           id="path3652" />
      </g>
      <g
         clip-path="url(#clip4)"
         id="g3658">
        <path
           d="m -385,-32840 1,40731 1,-7749.004 1,-326.996 1,99 1,28 v 1.9961 l 1,-7.9961 1,-13 1,-14 1,-11.002 1,-9 1,-5 1,-1 1,1 v 5 l 1,7 1,9.002 1,10.998 1,11 1,13.002 1,12.9961 1,13.0039 1,12.9961 L -363,-8 V 5 l 1,13 1,12 1,12 1,11 1,12 1,9.9961 1,11.0039 1,10 v 9 l 1,10 1,9 1,8 1,9 1,8 1,7 1,8 1,6.996 1,7.004 v 7 l 1,6 1,7 1,6 1,6 1,6 1,4.996 1,6.004 1,5 v 5 l 1,5 1,4.996 1,5.004 1,5 1,4 1,5 1,3.996 1,4.004 v 4 l 1,3.996 1,4.004 1,4 1,4 1,3 1,4 1,3 1,3.996 1,3 v 3 l 1,4.004 1,3 1,3 1,3 1,3 1,3 1,2 1,3 v 3 l 1,1.996 1,3 1,3 1,2.004 1,2 1,3 1,2 1,2 v 2.996 l 1,2.004 1,2 1,1.996 1,2.004 1,2 1,1.996 1,2.004 1,2 1,1.996 V 383 l 1,2 1,2 1,1 1,2 1,1.996 1,1.004 1,1.996 1,2.004 v 0.996 l 1,2.004 1,0.996 1,2.004 1,0.996 1,2.004 1,0.996 1,2.004 1,0.996 1,1.004 v 1.996 l 1,1.004 1,1 1,2 1,1 1,1 1,1 1,2 1,1 v 1 l 1,1 1,1 1,0.996 1,1.004 1,1 1,0.996 1,2.004 1,0.996 V 434 l 1,1 1,0.996 1,1.004 h 1 l 1,1 1,0.996 1,1.004 1,1 1,0.996 V 443 l 1,1 1,0.996 h 1 l 1,1.004 1,1 1,1 1,1 h 1 v 1 l 1,1 1,1 1,1 h 1 l 1,1 1,1 h 1 l 1,0.996 V 457 h 1 l 1,1 1,0.996 h 1 l 1,1.004 1,1 h 1 l 1,0.996 h 1 V 463 l 1,1 h 1 l 1,0.996 h 1 l 1,1.004 h 1 l 1,1 h 1 v 0.996 l 1,1.004 h 1 l 1,1 h 1 l 1,0.996 h 1 l 1,1.004 h 1 v 1 h 1 1 l 1,0.996 h 1 l 1,1.004 h 1 l 1,1 h 1 1 v 0.996 h 1 l 1,1.004 h 1 1 l 1,1 h 1 1 l 1,1 v 0 h 1 l 1,1 h 1 1 l 1,1 h 1 1 l 1,1 h 1 v 0 h 1 l 1,1 h 1 1 1 l 1,1 h 1 1 v 0 l 1,1 h 1 1 1 1 1 l 1,1 h 1 v 0 h 1 1 1 1 1 1 1 1 1 v 0 h 1 1 1 1 1 1 1 1 v 0 h 1 1 1 1 1 1 l 1,-1 h 1 v 0 h 1 1 1 l 1,-1 h 1 1 1 l 1,-1 h 1 v 0 l 1,-1 h 1 l 1,-1 h 1 1 l 1,-1 h 1 l 1,-1 v -1 h 1 l 1,-1 h 1 l 1,-1.004 h 1 l 1,-0.996 1,-1 h 1 l 1,-1.004 V 473 h 1 l 1,-1 1,-1.004 1,-0.996 h 1 l 1,-1 1,-1.004 h 1 V 467 l 1,-1 1,-1.004 h 1 l 1,-0.996 1,-1 1,-1.004 1,-0.996 1,-1 v -1.004 l 1,-0.996 1,-1 1,-1.004 1,-0.996 1,-1 1,-1 1,-1 1,-1 1,-1 v -2 l 1,-1 1,-1 1,-1.004 1,-1.996 1,-1.004 1,-0.996 1,-2.004 1,-0.996 v -1 l 1,-2 1,-1 1,-1.004 1,-0.996 1,-2.004 1,-0.996 1,-1 1,-1.004 V 426 l 1,-2 1,-1 1,-1 1,-1 1,-1 1,-2 1,-1 1,-1 1,-1 v -2.004 l 1,-0.996 1,-2.004 1,-0.996 1,-2.004 1,-0.996 1,-2.004 1,-0.996 1,-2.004 V 399 l 1,-1.004 1,-1.996 1,-2 1,-2.004 1,-0.996 1,-2 1,-2 1,-1 v -2 l 1,-1 1,-1 1,-2 1,-1 1,-1.004 1,-0.996 1,-1 1,-1.004 1,-0.996 v -1 l 1,-1.004 1,-0.996 1,-1 1,-2 1,-1 1,-1.004 1,-0.996 1,-1 v -2 l 1,-1 1,-2 1,-1 1,-2 1,-2 1,-2 1,-2 1,-2 1,-1 v -2 l 1,-2.004 1,-1.996 1,-1.004 1,-1.996 1,-1.004 1,-1.996 1,-1.004 1,-0.996 v -1 l 1,-1.004 1,-0.996 h 1 l 1,-1 h 1 l 1,-1.004 h 1 L -12,327 v -1 h 1 l 1,-1 1,-1 1,-1 1,-1 1,-2 1,-1 1,-2.004 1,-1.996 v -2 L -2,310.996 -1,309 0,307.996 1,306 2,304 3,301.996 4,300 5,298.996 V 297 l 1,-1 1,-1 1,-1 1,-1 h 1 1 l 1,-1 h 1 v 0 h 1 1 1 1 1 1 l 1,-1 h 1 l 1,-1 v -1 l 1,-2 1,-1 1,-2 1,-2.004 1,-1.996 1,-2 1,-2.004 1,-1.996 v -2 l 1,-2.004 1,-1.996 1,-2 1,-1 1,-1.004 1,-0.996 1,-1 h 1 1 v 0 h 1 l 1,1 h 1 l 1,0.996 h 1 L 45,265 h 1 l 1,1 v 0 l 1,-1 h 1 l 1,-1.004 1,-0.996 1,-1 1,-2 1,-2 1,-2 v -2 l 1,-2 1,-3 1,-2.004 1,-1.996 1,-2 1,-2.004 1,-0.996 1,-2.004 h 1 V 237 h 1 1 1 l 1,0.996 1,1.004 1,1 1,0.996 1,1.004 v 1 l 1,0.996 1,1.004 h 1 1 1 1 l 1,-1.004 1,-0.996 v -2.004 l 1,-1.996 1,-2 1,-2.004 1,-1.996 1,-3 1,-2 1,-3 1,-2 1,-2.004 V 220 l 1,-2.004 1,-0.996 h 1 1 1 l 1,0.996 1,1.004 1,1 v 0.996 l 1,2.004 1,1 1,2 1,1 1,1 1,1 1,1 h 1 1 v -1 l 1,-1 1,-1 1,-2 1,-2 1,-3 1,-2.004 1,-3 1,-1.996 v -3 l 1,-2 1,-2.004 1,-1.996 1,-1.004 1,-0.996 h 1 1 1 v 0.996 l 1,1.004 1,1.996 1,1.004 1,1.996 1,2.004 1,2 1,1.996 1,1.004 1,1 v 0.996 l 1,1.004 h 1 l 1,-1.004 1,-0.996 1,-1 1,-2 1,-2.004 1,-1.996 v -3 l 1,-3 1,-2 1,-3 1,-2 1,-2 1,-2 1,-1 1,-1 v -1 h 1 l 1,1 1,1 1,1 1,2 1,2 1,2 1,2 1,1.996 V 205 l 1,2 1,1 1,0.996 1,1.004 h 1 1 l 1,-1.004 1,-0.996 v -2.004 l 1,-1.996 1,-3 1,-2 1,-3 1,-3 1,-2 1,-3 1,-2.004 V 185 l 1,-2.004 1,-0.996 h 1 1 l 1,0.996 1,1.004 1,1.996 1,2.004 1,2 v 2 l 1,3 1,2 1,2 1,2 1,1 1,2 h 1 l 1,1 v -1 l 1,-1.004 1,-0.996 1,-2.004 1,-1.996 1,-2 1,-3 1,-3 1,-2 1,-3 v -2.004 l 1,-1.996 1,-2 1,-1 1,-1.004 h 1 1 l 1,1.004 1,1 v 2 l 1,1.996 1,2.004 1,2 1,3 1,2 1,3 1,2 1,1 v 1.996 h 1 1 1 l 1,-0.996 1,-1 1,-2 1,-2 1,-3 1,-2.004 v -3 l 1,-3 1,-1.996 1,-3 1,-2 1,-1 1,-2 h 1 1 v 0 l 1,0.996 1,1.004 1,1.996 1,2.004 1,3 1,2 1,3 1,3 v 2 l 1,2 1,2 1,1 1,1 h 1 l 1,-1 h 1 l 1,-2 1,-2 v -2 l 1,-2.004 1,-3 1,-3 1,-3 1,-1.996 1,-3 1,-2 1,-1 v -1.004 L 257,170 h 1 1 l 1,2 1,1 1,2 1,1.996 1,3 1,2.004 v 3 l 1,3 1,2 1,2 1,2 1,1 1,1 h 1 l 1,-1 v -1 l 1,-1 1,-2 1,-2.004 1,-3 1,-3 1,-1.996 1,-3 1,-3 v -2 l 1,-2.004 1,-0.996 1,-1 1,-1 h 1 l 1,1 1,1 1,2 1,1.996 V 176 l 1,3 1,2 1,3 1,3 1,1.996 1,2.004 1,2 1,1 v 1 h 1 l 1,-1 1,-1 1,-1 1,-2 1,-3 1,-2 1,-3 v -3 l 1,-3 1,-2.004 1,-3 1,-0.996 1,-2 1,-1 h 1 1 l 1,1 v 1 l 1,1.996 1,2.004 1,2 1,3 1,3 1,1.996 1,3 1,2.004 v 2 l 1,2 1,1 h 1 l 1,1 1,-1 1,-1 1,-2 1,-2 v -2.004 l 1,-3 1,-3 1,-1.996 1,-3 1,-3 1,-2 1,-2 1,-1 1,-1 v 0 h 1 l 1,1 1,1 1,2 1,3 1,2 1,3 1,1.996 v 3 l 1,3 1,2.004 1,2 1,2 1,1 h 1 1 l 1,-1 1,-1 v -1 l 1,-3 1,-2 1,-3 1,-3 1,-2.004 1,-3 1,-3 1,-1.996 v -2 l 1,-1 1,-1 h 1 l 1,1 h 1 l 1,2 1,2 1,2 v 3 l 1,1.996 1,3 1,3 1,2.004 1,3 1,2 1,1 1,1 1,1 v -1 h 1 l 1,-2 1,-1.004 1,-3 1,-1.996 1,-3 1,-2 1,-3 v -3 l 1,-2.004 1,-1.996 1,-2 1,-1 1,-1 h 1 l 1,1 1,1 v 1 l 1,2 1,3 1,2 1,3 1,3 1,1.996 1,3 1,2.004 1,2 v 1 l 1,1 h 1 1 l 1,-1 1,-1 1,-2 1,-2.004 1,-3 v -3 l 1,-1.996 1,-3 1,-3 1,-2 1,-2 1,-2 1,-1 1,-1 h 1 v 1 l 1,1 1,2 1,2 1,2 1,3 1,3 1,3 1,1.996 v 3 l 1,2.004 1,2 1,1 1,1 h 1 1 l 1,-1 1,-2.004 V 188 l 1,-3 1,-2.004 1,-3 1,-3 1,-3 1,-1.996 1,-3 1,-1 1,-2 v -1 h 1 1 1 l 1,2 1,1 1,2.996 1,2.004 1,3 v 2 l 1,3 1,3 1,1.996 1,2.004 1,2 1,1 1,1 h 1 v 0 l 1,-2 1,-1.004 1,-1.996 1,-2 1,-3 1,-3 1,-3 1,-3 1,-2.004 V 169 l 1,-2 1,-2 1,-1 h 1 1 l 1,1 1,1 1,2 v 2 l 1,3 1,3 1,2 1,3 1,3 1,1.996 1,2.004 1,2 v 1 l 1,1 h 1 l 1,-1 1,-1 1,-1.004 1,-3 1,-1.996 1,-3 1,-2 v -3 l 1,-3 1,-2.004 1,-2.996 1,-1 1,-2 h 1 l 1,-1 1,1 v 1 l 1,1 1,2 1,1.996 1,3 1,2.004 1,3 1,3 1,3 1,2 v 1.996 l 1,1.004 1,1 1,1 h 1 l 1,-1 1,-1 1,-2 1,-2.004 v -3 l 1,-1.996 1,-3 1,-3 1,-3 1,-2 1,-2 1,-2 1,-1 v -1 h 1 1 l 1,1 1,2 1,2 1,1.996 1,3 1,3 1,2.004 v 3 l 1,3 1,2 1,1.996 1,1.004 1,1 1,1 h 1 l 1,-1 v -1 l 1,-2 1,-2.004 1,-3 1,-3 1,-1.996 1,-3 1,-3 1,-2 v -2 l 1,-2 1,-1 1,-1 h 1 l 1,1 1,1 1,2 1,2 1,2 v 3 l 1,1.996 1,3 1,3 1,2.004 1,3 1,0.996 1,2.004 1,1 v 0 l 1,-1 h 1 l 1,-2.004 1,-1.996 1,-2 1,-3 1,-2.004 1,-3 1,-3 v -3 l 1,-1.996 1,-2 1,-2 1,-1 h 1 1 l 1,1 1,1 v 1 l 1,3 1,2 1,3 1,1.996 1,3 1,3 1,2.004 1,3 v 0.996 l 1,2.004 h 1 l 1,1 1,-1 1,-1 1,-1.004 1,-1.996 1,-2 1,-3 v -3 l 1,-3 1,-2.004 1,-3 1,-1.996 1,-2 1,-2 1,-1 h 1 v 0 l 1,1 1,1 1,2 1,2 1,3 1,3 1,2 1,3 v 3 l 1,1.996 1,2.004 1,2 1,1 1,1 h 1 l 1,-1 1,-1 1,-2 v -2.004 l 1,-1.996 1,-3 1,-2 1,-3 1,-3 1,-3 1,-2 1,-2 v -1 l 1,-1 h 1 1 l 1,1 1,1 1,2 1,2 1,3 v 3 l 1,3 1,2 1,3 1,1.996 1,2.004 1,2 1,1 1,1 h 1 v -1 l 1,-1 1,-2 1,-2.004 1,-1.996 1,-3 1,-3 1,-3 1,-2 v -3 l 1,-2 1,-2 1,-1 1,-1 h 1 1 l 1,1 1,2 1,2 v 1.996 l 1,3 1,2.004 1,3 1,3 1,3 1,2 1,1.996 1,1.004 v 1 l 1,1 1,-1 h 1 l 1,-2.004 1,-0.996 1,-2.004 1,-3 1,-3 v -3 l 1,-1.996 1,-3 1,-3 1,-2 1,-1 1,-2 h 1 1 1 v 1 l 1,2 1,2 1,1.996 1,3 1,3 1,3 1,2.004 1,3 v 2 l 1,1.996 1,1.004 1,1 1,1 1,-1 h 1 l 1,-2.004 1,-1.996 v -2 l 1,-2.004 1,-3 1,-3 1,-3 1,-1.996 1,-3 1,-2 1,-1 1,-1 v -1 h 1 l 1,1 1,1 1,2 1,2 1,2 1,3 1,3 v 1.996 l 1,3 1,3 1,2.004 1,0.996 1,2.004 h 1 l 1,1 1,-1 1,-1 v -1.004 l 1,-1.996 1,-2 1,-3 1,-3 1,-3 1,-2.004 1,-3 1,-1.996 v -2 l 1,-2 1,-1 h 1 1 l 1,1 1,1 1,2 1,2 v 2 l 1,3 1,3 1,3 1,1.996 1,3 1,2.004 1,2 1,1 h 1 v 1 l 1,-1 1,-1 1,-1.004 1,-1.996 1,-3 1,-2 1,-3 1,-3 v -3 l 1,-2.004 1,-1.996 1,-2 1,-2 1,-1 h 1 1 l 1,1 v 2 l 1,1 1,2.996 1,2.004 1,3 1,3 1,2 1,3 1,1.996 1,2.004 v 2 l 1,1 1,1 h 1 l 1,-1 1,-1 1,-2 1,-2.004 1,-1.996 v -3 l 1,-3 1,-3 1,-2 1,-3 1,-2 1,-2 1,-1 1,-1 v 0 h 1 l 1,1 1,1 1,2 1,2.996 1,2.004 1,3 1,3 1,3 v 2 l 1,3 1,1.996 1,1.004 1,1 1,1 h 1 l 1,-1 1,-1 v -2 l 1,-2.004 1,-3 1,-1.996 1,-3 1,-3 1,-3 1,-2 1,-2 1,-2 v -1 l 1,-1 h 1 l 1,1 1,1 1,1 1,2 1,1.996 1,3 v 3 l 1,3 1,2.004 1,3 1,2 1,1.996 1,1.004 1,1 1,1 v -1 h 1 l 1,-2.004 1,-0.996 1,-3 1,-2.004 1,-3 1,-3 1,-3 1,-1.996 v -3 l 1,-2 1,-1 1,-2 h 1 1 1 l 1,2 1,1 v 2 l 1,3 1,1.996 1,3 1,3 1,3 1,2.004 1,2 1,1.996 V 191 h 1 l 1,1 1,-1 h 1 l 1,-2.004 1,-1.996 1,-2 1,-3 1,-2.004 v -3 l 1,-3 1,-3 1,-1.996 1,-2 1,-1 1,-1 1,-1 h 1 v 1 l 1,1 1,2 1,2 1,2 1,3 1,3 1,3 1,1.996 1,3 V 188 l 1,2 1,1 1,1 h 1 l 1,-1 1,-1 1,-1.004 1,-1.996 v -3 l 1,-2 1,-3 1,-3 1,-3 1,-2.004 1,-2.996 1,-1 1,-2 v -1 h 1 1 l 1,1 1,1 1,2 1,2 1,3 1,2 1,3 v 3 l 1,3 1,1.996 1,2.004 1,2 1,1 1,1 h 1 l 1,-1 v -1 l 1,-2 1,-2.004 1,-1.996 1,-3 1,-2 1,-3 1,-3 1,-2.004 V 168 l 1,-1 1,-2 1,-1 h 1 1 l 1,1 1,2 1,2 1,1.996 V 173 l 1,3 1,3 1,3 1,2 1,3 1,1.996 1,1.004 1,1 v 1 h 1 l 1,-1 1,-1 1,-2 1,-2.004 1,-3 1,-1.996 1,-3 v -3 l 1,-3 1,-2 1,-2 1,-2 1,-1 1,-1 h 1 1 l 1,1 v 2 l 1,2 1,1.996 1,3 1,2.004 1,3 1,3 1,2 1,3 v 1.996 l 1,1.004 1,1 1,1 h 1 l 1,-1 1,-1 1,-2 1,-2.004 1,-3 v -3 l 1,-1.996 1,-3 1,-3 1,-2 1,-2 1,-2 1,-1 1,-1 v 0 l 1,1 1,1 1,1 1,2 1,3 1,1.996 1,3 1,3 v 3 l 1,2.004 1,2 1,1.996 1,2.004 h 1 l 1,1 1,-1 h 1 l 1,-2.004 V 187 l 1,-2 1,-2.004 1,-3 1,-3 1,-3 1,-3 1,-1.996 1,-2 v -2 l 1,-1 h 1 1 1 l 1,2 1,1 1,2 1,3 v 3 l 1,1.996 1,3 1,3 1,2.004 1,3 1,0.996 1,2.004 h 1 l 1,1 v -1 l 1,-1 1,-1.004 1,-1.996 1,-2 1,-3 1,-3 1,-2.004 1,-3 v -3 l 1,-1.996 1,-2 1,-1 1,-1 1,-1 h 1 l 1,1 1,1 1,2 v 2 l 1,3 1,2 1,3 1,3 1,3 1,1.996 1,2.004 1,2 v 1 l 1,1 h 1 l 1,-1 1,-1 1,-1.004 1,-1.996 1,-3 1,-2 v -3 l 1,-3 1,-3 1,-2.004 1,-2.996 1,-2 1,-1 1,-1 h 1 1 v 1 l 1,1 1,2 1,2 1,3 1,3 1,2 1,3 1,3 v 1.996 l 1,2.004 1,2 1,1 1,1 h 1 l 1,-1 1,-1 1,-2 v -2.004 l 1,-1.996 1,-3 1,-3 1,-2 1,-3 1,-3 1,-2 1,-2 1,-1 v -1 h 1 1 l 1,1 1,2 1,2 1,1.996 1,3 1,2.004 v 3 l 1,3 1,2 1,3 1,1.996 1,1.004 1,1 1,1 h 1 v -1 l 1,-1 1,-2 1,-2.004 1,-3 1,-1.996 1,-3 1,-3 1,-3 1,-2 v -2 l 1,-2 1,-1 1,-1 h 1 1 l 1,1 1,2 1,2 v 1.996 l 1,3 1,3 1,2.004 1,3 1,3 1,2 1,1.996 1,1.004 1,1 v 1 l 1,-1 h 1 l 1,-2.004 1,-0.996 1,-3 1,-2.004 1,-3 1,-3 V 175 l 1,-3 1,-2 1,-3 1,-1 1,-1 1,-1 h 1 l 1,1 v 1 l 1,2 1,2 1,2 1,3 1,1.996 1,3 1,3 1,2.004 1,3 v 0.996 l 1,2.004 h 1 l 1,1 1,-1 1,-1 1,-1.004 1,-1.996 1,-2 v -3 l 1,-3 1,-2.004 1,-3 1,-3 1,-1.996 1,-2 1,-2 1,-1 v 0 h 1 l 1,1 1,1 1,2 1,2 1,2 1,3 1,3 1,1.996 v 3 l 1,3 1,2.004 1,2 1,1 1,1 h 1 l 1,-1 1,-1 v -1.004 l 1,-1.996 1,-3 1,-2 1,-3 1,-3 1,-2.004 1,-3 1,-1.996 1,-2 v -2 l 1,-1 h 1 1 l 1,1 1,1 1,2 1,2 1,3 v 3 l 1,2 1,3 1,3 1,1.996 1,2.004 1,2 1,1 1,1 v 0 l 1,-1 1,-1 1,-2 1,-2.004 1,-1.996 1,-3 1,-3 1,-2 1,-3 v -3 l 1,-2 1,-2 1,-1 1,-1 h 1 1 l 1,1 1,1 v 2 l 1,2.996 1,2.004 1,3 1,3 1,2 1,3 1,1.996 1,2.004 v 2 l 1,1 1,1 h 1 l 1,-1 1,-1 1,-2 1,-2.004 1,-1.996 1,-3 v -3 l 1,-3 1,-2 1,-3 1,-2 1,-2 1,-1 1,-1 h 1 v 1 l 1,1 1,1 1,2 1,1.996 1,3 1,3 1,2.004 1,3 v 3 l 1,2 1,1.996 1,1.004 1,1 1,1 h 1 l 1,-1 1,-2.004 1,-0.996 v -3 l 1,-2.004 1,-3 1,-3 1,-1.996 1,-3 1,-3 1,-2 1,-1 v -2 h 1 1 1 l 1,1 1,2 1,2 1,1.996 1,3 1,3 v 3 l 1,2.004 1,3 1,2 1,1.996 1,1.004 1,1 1,1 1,-1 v 0 l 1,-2.004 1,-1.996 1,-2 1,-2.004 1,-3 1,-3 1,-3 1,-1.996 v -3 l 1,-2 1,-1 1,-1 1,-1 h 1 l 1,1 1,1 1,2 1,2 v 2 l 1,3 1,3 1,1.996 1,3 1,3 1,2.004 1,2 1,1 v 1 h 1 l 1,-1 1,-1 1,-1.004 1,-1.996 1,-2 1,-3 1,-3 v -3 l 1,-2.004 1,-3 1,-1.996 1,-2 1,-2 1,-1 h 1 1 l 1,1 v 1 l 1,2 1,2 1,2 1,3 1,3 1,3 1,1.996 1,3 V 188 l 1,2 1,1 1,1 h 1 l 1,-1 1,-1 1,-1.004 1,-1.996 1,-3 v -2 l 1,-3 1,-3 1,-3 1,-2.004 1,-1.996 1,-2 1,-2 1,-1 v 0 h 1 l 1,1 1,2 1,1 1,2.996 1,2.004 1,3 1,3 v 2 l 1,3 1,1.996 1,2.004 1,2 1,1 1,1 h 1"
           stroke="#a5a5a5"
           stroke-width="2"
           stroke-linecap="round"
           stroke-linejoin="round"
           stroke-miterlimit="10"
           fill="none"
           id="path3656" />
      </g>
      <g
         clip-path="url(#clip5)"
         id="g3662">
        <path
           d="m -385,-35677 1,45804 1,-10298 1,163 1,66 1,23 v -1 l 1,-12 1,-16 1,-18.0039 L -376,18 -375,4.99609 -374,-5 l 1,-5.0039 1,-1.9961 v 1.9961 l 1,4.0039 1,7 1,8 1,10 1,10 1,12 1,12 1,12 1,12 v 11.9961 l 1,11.0039 1,12 1,11 1,11 1,10 1,10 1,10 1,9 v 8.996 l 1,9 1,8.004 1,8 1,8 1,7 1,8 1,7 1,7 1,6 v 7 l 1,6 1,6 1,5 1,6 1,6 1,5 1,4.996 1,5.004 v 5 l 1,5 1,4 1,5 1,4 1,3.996 1,5.004 1,4 1,4 v 3.996 l 1,3 1,4.004 1,4 1,3 1,3.996 1,3.004 1,3 1,3 1,4 v 3 l 1,3 1,3 1,2 1,3 1,3 1,3 1,2 1,3 v 2 l 1,2.996 1,2.004 1,3 1,2 1,1.996 1,3 1,2.004 1,2 v 1.996 l 1,2.004 1,2 1,2 1,2 1,2 1,2 1,1.996 1,2.004 1,0.996 V 443 l 1,2 1,1.996 1,1.004 1,1.996 1,2.004 1,0.996 1,2.004 1,0.996 V 458 l 1,0.996 1,2.004 1,1 1,1 1,2 1,1 1,2 1,1 1,0.996 V 471 l 1,1.996 1,1.004 1,1 1,0.996 1,1.004 1,1.996 1,1.004 1,1 v 0.996 l 1,1.004 1,1 1,0.996 1,1.004 1,1 1,0.996 1,1.004 1,1 v 0.996 l 1,1.004 1,1 1,1 1,1 1,1 1,1 1,1 h 1 l 1,0.996 V 500 l 1,1 1,0.996 1,1.004 h 1 l 1,1 1,0.996 1,1.004 h 1 v 1 l 1,0.996 1,1.004 h 1 l 1,1 1,0.996 h 1 l 1,1.004 1,1 v 0 l 1,0.996 1,1.004 h 1 l 1,1 h 1 l 1,0.996 1,1.004 h 1 l 1,1 v 0 l 1,0.996 1,1.004 h 1 l 1,1 h 1 l 1,0.996 h 1 l 1,1.004 v 0 l 1,1 1,1 h 1 l 1,1 h 1 l 1,1 h 1 l 1,1 v 0 l 1,1 h 1 l 1,1 h 1 l 1,1 h 1 l 1,1 h 1 1 v 0.996 h 1 l 1,1.004 h 1 l 1,1 h 1 l 1,0.996 h 1 1 V 538 h 1 l 1,1 h 1 l 1,0.996 h 1 1 l 1,1.004 h 1 l 1,1 v 0 h 1 l 1,0.996 h 1 1 l 1,1.004 h 1 l 1,1 h 1 v 0 l 1,0.996 h 1 1 l 1,1.004 h 1 1 l 1,1 h 1 v 0 l 1,0.996 h 1 1 l 1,1.004 h 1 1 l 1,1 h 1 1 v 0.996 h 1 1 1 l 1,1.004 h 1 1 l 1,1 h 1 v 0 h 1 l 1,0.996 h 1 1 l 1,1.004 h 1 1 1 v 1 h 1 1 1 l 1,1 h 1 1 1 l 1,1 h 1 v 0 h 1 l 1,1 h 1 1 1 l 1,1 h 1 1 v 0 l 1,1 h 1 1 1 1 l 1,0.996 h 1 1 1 V 564 h 1 1 1 1 l 1,1 h 1 1 1 v 0 l 1,0.996 h 1 1 1 1 l 1,1.004 h 1 1 v 0 h 1 l 1,1 h 1 1 1 1 1 l 1,0.996 h 1 v 0 h 1 1 1 l 1,1.004 h 1 1 1 1 v 0 l 1,1 h 1 1 1 1 1 l 1,0.996 h 1 v 0 h 1 1 1 1 l 1,1.004 h 1 1 1 1 v 0 h 1 1 l 1,1 h 1 1 1 1 1 v 0 h 1 l 1,0.996 h 1 1 1 1 1 1 v 0 h 1 1 l 1,1.004 h 1 1 1 1 1 1 v 0 h 1 1 l 1,1 h 1 1 1 1 1 v 0 h 1 1 1 1 1 l 1,0.996 h 1 1 1 v 0 h 1 1 1 1 1 1 1 1 v 0 h 1 1 l 1,1.004 h 1 1 1 1 1 v 0 h 1 1 1 1 1 1 1 1 1 v 0 h 1 1 1 1 1 1 1 1 v 0 l 1,-1.004 h 1 1 1 1 1 1 1 v 0 h 1 1 1 1 L 18,577 h 1 1 1 1 v 0 h 1 l 1,-1 h 1 1 1 1 1 l 1,-1.004 v 0 h 1 1 1 L 34,574 h 1 1 1 1 l 1,-1 v 0 h 1 1 l 1,-1.004 h 1 1 L 45,571 h 1 1 v 0 l 1,-1 h 1 1 l 1,-1.004 h 1 L 53,568 h 1 1 v -1 h 1 l 1,-1.004 h 1 1 L 60,565 h 1 l 1,-1 h 1 l 1,-1.004 v 0 h 1 L 66,562 h 1 l 1,-1 h 1 l 1,-1 1,-1 h 1 v -1 h 1 l 1,-1 h 1 l 1,-1 1,-1.004 h 1 l 1,-0.996 1,-1 v -1.004 h 1 l 1,-0.996 1,-1 1,-1.004 h 1 l 1,-0.996 1,-1 1,-1.004 1,-0.996 v -1 h 1 l 1,-1.004 1,-0.996 1,-1 1,-1.004 1,-0.996 1,-1 1,-1.004 v 0 l 1,-0.996 1,-1 1,-1.004 1,-0.996 1,-1 1,-1 1,-1 h 1 l 1,-1 v -1 l 1,-1 1,-1 1,-1 1,-1 1,-1.004 1,-0.996 1,-2.004 1,-0.996 v -1 l 1,-1.004 1,-0.996 1,-1 1,-1.004 1,-1.996 1,-1.004 1,-0.996 1,-1 v -1.004 l 1,-1.996 1,-1.004 1,-0.996 1,-1 1,-2 1,-1 1,-1.004 1,-0.996 1,-2 v -1 l 1,-1 1,-1 1,-1 1,-1.004 1,-1.996 1,-1.004 1,-0.996 1,-1 v -1.004 l 1,-0.996 1,-1 1,-2 1,-1 1,-1.004 1,-0.996 1,-1 1,-2 v -1 l 1,-1.004 1,-1.996 1,-1.004 1,-1.996 1,-1 1,-1 1,-2 1,-1 1,-2 v -1 l 1,-2 1,-1 1,-2 1,-1 1,-1.004 1,-1.996 1,-1.004 1,-0.996 v -1 l 1,-1.004 1,-0.996 1,-1 1,-1.004 1,-0.996 1,-1 1,-1.004 1,-0.996 v -1 l 1,-1.004 1,-0.996 1,-1 1,-1.004 1,-0.996 1,-2 1,-1 1,-1 1,-2 v -1.004 l 1,-1.996 1,-1.004 1,-1.996 1,-1.004 1,-1.996 1,-1.004 1,-1.996 1,-1.004 V 413 l 1,-1.004 1,-0.996 1,-1 1,-1.004 1,-0.996 1,-1 1,-1.004 h 1 L 198,405 v -1 h 1 l 1,-1 h 1 l 1,-1 1,-1 1,-1 1,-1 1,-1 v -1 l 1,-1 1,-2 1,-1 1,-2 1,-1 1,-2 1,-2.004 1,-0.996 v -2.004 l 1,-1.996 1,-1.004 1,-1.996 1,-1.004 1,-0.996 1,-1 1,-1.004 1,-0.996 1,-1 v 0 l 1,-1.004 h 1 1 1 1 L 229,370 h 1 1 v 0 l 1,-1 1,-1 1,-1 1,-1 1,-1 1,-1 1,-2 1,-1 v -2 l 1,-2.004 1,-1.996 1,-1.004 1,-1.996 1,-2 1,-1 1,-2 1,-1 1,-1.004 V 344 l 1,-1 h 1 1 1 1 1 1 1 v 1 h 1 1 1 1 l 1,-1 h 1 l 1,-1.004 1,-1.996 1,-1 v -1 l 1,-2 1,-2 1,-2 1,-2 1,-2.004 1,-1.996 1,-2 1,-1 v -2 l 1,-1 1,-1.004 1,-0.996 h 1 1 1 1 l 1,0.996 v 0 l 1,1.004 1,1 1,0.996 h 1 l 1,1.004 h 1 1 1 1 v -1.004 l 1,-0.996 1,-2.004 1,-0.996 1,-2.004 1,-1.996 1,-2 1,-2.004 1,-1.996 v -2 l 1,-2 1,-2 1,-1 1,-1 1,-1.004 h 1 l 1,-0.996 1,0.996 v 0 l 1,1.004 1,1 1,1 1,1 1,1 1,1 1,1 1,0.996 1,1.004 v 0 h 1 l 1,-1.004 1,-0.996 1,-1 1,-1 1,-2 1,-2 1,-2 v -3 l 1,-2.004 1,-1.996 1,-2 1,-2.004 1,-1.996 1,-1.004 1,-0.996 h 1 v -1 l 1,1 h 1 l 1,0.996 1,1.004 1,1.996 1,1.004 1,1.996 1,1.004 1,1.996 V 294 l 1,1 1,0.996 h 1 1 l 1,-0.996 1,-1 1,-1.004 1,-0.996 v -2.004 l 1,-1.996 1,-3 1,-2 1,-2.004 1,-3 1,-1.996 1,-1 1,-2 1,-1 v 0 l 1,-1 1,1 h 1 l 1,1 1,2 1,1 1,1.996 1,2.004 v 2 l 1,1 1,2 1,1 1,0.996 1,1.004 h 1 l 1,-1.004 h 1 V 285 l 1,-1.004 1,-1.996 1,-2 1,-3 1,-2 1,-3 1,-2 1,-2 1,-2 v -2.004 L 383,263 h 1 l 1,-1 h 1 l 1,1 1,0.996 1,2.004 1,0.996 V 269 l 1,2 1,2 1,2 1,2 1,2 1,1 1,0.996 h 1 v 0 h 1 l 1,-0.996 1,-1 1,-2 1,-2 1,-3 1,-2 1,-2 1,-3 v -2 l 1,-2.004 1,-1.996 1,-1.004 1,-0.996 h 1 1 l 1,0.996 1,1.004 v 1 l 1,2 1,1.996 1,2.004 1,2 1,2 1,2 1,2 1,1 1,1 v 1 h 1 1 l 1,-1 1,-1 1,-2 1,-2 1,-2 1,-3 v -2.004 l 1,-3 1,-1.996 1,-2 1,-2.004 1,-1.996 1,-1.004 h 1 1 v 0 l 1,1.004 1,1.996 1,2.004 1,2 1,1.996 1,2.004 1,3 1,2 1,2 v 1 l 1,2 1,1 h 1 1 l 1,-1 1,-1 1,-1 1,-2 v -2.004 l 1,-3 1,-1.996 1,-3 1,-2 1,-2.004 1,-1.996 1,-2 1,-1 v 0 h 1 1 l 1,1 1,0.996 1,2.004 1,2 1,1.996 1,3 1,2.004 v 2 l 1,1.996 1,2.004 1,2 1,1 h 1 1 l 1,-1 1,-1 v -1 l 1,-2.004 1,-1.996 1,-3 1,-2 1,-3 1,-2.004 1,-3 1,-1.996 v -1.004 L 491,247 h 1 1 1 l 1,1 1,0.996 1,2.004 1,2 1,1.996 v 3 l 1,2.004 1,3 1,2 1,1.996 1,1.004 1,1 1,1 h 1 v 0 l 1,-1 1,-1 1,-2 1,-2.004 1,-1.996 1,-3 1,-2 1,-3 1,-2.004 V 250 l 1,-2 1,-1 1,-1.004 h 1 1 l 1,1.004 1,1 1,2 v 1.996 l 1,2.004 1,2 1,3 1,1.996 1,3 1,2.004 1,0.996 1,2.004 v 0 l 1,1 1,-1 1,-1 1,-1.004 1,-1.996 1,-2 1,-2.004 1,-3 1,-1.996 v -3 l 1,-2 1,-2.004 1,-1.996 1,-2 1,-1 h 1 1 l 1,1 v 0.996 l 1,2.004 1,2 1,1.996 1,2.004 1,3 1,2 1,3 1,1.996 V 266 l 1,0.996 1,1.004 1,1 1,-1 h 1 l 1,-1.004 1,-1.996 1,-2 1,-2.004 V 259 l 1,-3 1,-3 1,-2 1,-2.004 1,-1.996 1,-1.004 1,-0.996 1,-1 v 0 l 1,1 1,0.996 1,1.004 1,1.996 1,2.004 1,3 1,2 1,3 1,1.996 V 263 l 1,2 1,1.996 1,1.004 h 1 1 1 l 1,-2 1,-1 v -2 l 1,-2.004 1,-3 1,-1.996 1,-3 1,-3 1,-2 1,-2.004 1,-0.996 v -1 l 1,-1.004 h 1 1 l 1,1.004 1,1.996 1,2.004 1,2 1,1.996 1,3 V 257 l 1,3 1,2 1,1.996 1,2.004 1,0.996 h 1 l 1,1.004 1,-1.004 V 266 l 1,-1 1,-2 1,-2.004 1,-1.996 1,-3 1,-2 1,-3 1,-2.004 V 247 l 1,-2 1,-1 1,-1.004 h 1 l 1,1.004 1,1 1,0.996 1,2.004 1,2 v 1.996 l 1,3 1,2.004 1,3 1,2 1,1.996 1,2.004 1,0.996 h 1 V 268 l 1,-1.004 1,-0.996 1,-1 1,-2 1,-2.004 1,-1.996 1,-3 1,-3 v -2 l 1,-2.004 1,-3 1,-0.996 1,-2.004 1,-0.996 h 1 1 l 1,0.996 1,2.004 v 0.996 l 1,2.004 1,3 1,2 1,3 1,1.996 1,3 1,2.004 1,2 v 1 l 1,0.996 h 1 1 l 1,-0.996 1,-1 1,-1.004 1,-1.996 1,-3 1,-2 v -3 l 1,-2.004 1,-3 1,-1.996 1,-1.004 1,-1.996 1,-1.004 h 1 1 V 244 l 1,1 1,0.996 1,2.004 1,3 1,2 1,3 1,1.996 1,3 V 263 l 1,2 1,1 1,0.996 h 1 1 1 l 1,-1.996 1,-1.004 1,-1.996 v -3 l 1,-2 1,-3 1,-2.004 1,-3 1,-1.996 1,-2 1,-1 1,-2 v 0 h 1 l 1,0.996 1,1.004 1,1 1,2 1,1.996 1,3 1,2.004 v 3 l 1,2 1,3 1,1.996 1,1.004 1,1 1,0.996 h 1 1 L 725,266 v -2.004 l 1,-1.996 1,-2 1,-2.004 1,-3 1,-1.996 1,-3 1,-2 1,-2.004 V 244 l 1,-1.004 h 1 1 1 l 1,1.004 1,1.996 1,1.004 1,3 1,1.996 V 254 l 1,3 1,3 1,2 1,1.996 1,1.004 1,1 1,0.996 h 1 v 0 l 1,-0.996 1,-2.004 1,-1.996 1,-2 1,-2.004 1,-3 1,-1.996 1,-3 v -2 l 1,-2.004 1,-1.996 1,-1.004 1,-0.996 h 1 1 l 1,0.996 1,1.004 1,1.996 V 248 l 1,3 1,2 1,3 1,1.996 1,3 1,2.004 1,2 1,1 v 0.996 h 1 1 l 1,-0.996 1,-1 1,-2 1,-2.004 1,-1.996 1,-3 v -2 l 1,-3 1,-2.004 1,-1.996 1,-2 1,-1 1,-1.004 h 1 1 l 1,1.004 v 1 l 1,2 1,1.996 1,2.004 1,2 1,3 1,1.996 1,3 1,2.004 v 2 l 1,1 1,0.996 h 1 1 l 1,-0.996 1,-1 1,-2 1,-2.004 V 259 l 1,-3 1,-2 1,-3 1,-2.004 1,-3 1,-1.996 1,-1.004 1,-0.996 h 1 v 0 l 1,0.996 1,1.004 1,1 1,2 1,3 1,1.996 1,3 1,2.004 v 3 l 1,2 1,1.996 1,1.004 1,1 1,0.996 h 1 l 1,-0.996 1,-1 1,-1.004 V 262 l 1,-3 1,-2 1,-3 1,-2.004 1,-1.996 1,-3 1,-2 1,-1 v -1.004 h 1 1 1 l 1,1.004 1,1.996 1,2.004 1,2 1,1.996 v 3 l 1,2.004 1,3 1,2 1,1.996 1,2.004 1,0.996 h 1 1 L 859,266 v -1 l 1,-1.004 1,-1.996 1,-2 1,-3 1,-2.004 1,-3 1,-3 1,-1.996 v -2 l 1,-1 1,-2 h 1 1 1 l 1,0.996 1,2.004 1,0.996 v 3 l 1,2.004 1,3 1,2 1,3 1,1.996 1,2.004 1,2 1,1 1,0.996 v 0 L 885,266 h 1 l 1,-2.004 1,-0.996 1,-3 1,-2.004 1,-1.996 1,-3 v -3 l 1,-2 1,-2.004 1,-0.996 1,-2.004 h 1 l 1,-0.996 1,0.996 1,1.004 1,1 v 2 l 1,1.996 1,2.004 1,3 1,2 1,3 1,1.996 1,2.004 1,2 v 1 l 1,0.996 h 1 1 l 1,-0.996 1,-2.004 1,-0.996 1,-2.004 1,-3 V 256 l 1,-3 1,-3 1,-2 1,-2.004 1,-1.996 1,-1.004 1,-0.996 h 1 1 v 0.996 l 1,1.004 1,1.996 1,2.004 1,2 1,3 1,1.996 1,3 1,2.004 v 2 l 1,1.996 1,1.004 1,1 1,0.996 h 1 l 1,-0.996 1,-1 1,-2 v -2.004 l 1,-1.996 1,-2 1,-3 1,-3 1,-2.004 1,-1.996 1,-2 1,-1 1,-1.004 V 242 l 1,0.996 h 1 l 1,1.004 1,1.996 1,2.004 1,2 1,3 1,1.996 v 3 l 1,2.004 1,2 1,1.996 1,2.004 1,0.996 h 1 1 L 967,266 v -1 l 1,-2 1,-2.004 1,-1.996 1,-2 1,-3 1,-3 1,-2.004 1,-1.996 1,-2 v -2.004 L 977,242 h 1 1 1 l 1,0.996 1,2.004 1,2 1,1.996 v 3 l 1,2.004 1,3 1,2 1,1.996 1,2.004 1,2 1,1 1,0.996 h 1 V 266 l 1,-1 1,-1.004 1,-1.996 1,-2 1,-2.004 1,-3 1,-3 1,-1.996 v -2 l 1,-2.004 1,-1.996 1,-1.004 h 1 l 1,-0.996 1,0.996 1,1.004 1,1 v 2 l 1,1.996 1,3 1,2.004 1,3 1,2 1,3 1,1.996 1,1.004 1,1 v 0.996 h 1 1 l 1,-0.996 1,-2.004 1,-1.996 1,-2 1,-2.004 1,-3 v -3 l 1,-1.996 1,-2 1,-3 1,-1 1,-1.004 1,-0.996 h 1 1 v 0.996 l 1,1.004 1,1.996 1,2.004 1,3 1,2 1,3 1,1.996 1,3 1,2.004 v 0.996 l 1,2.004 1,0.996 h 1 1 l 1,-0.996 1,-1 1,-2 1,-2.004 V 259 l 1,-3 1,-3 1,-2 1,-2.004 1,-1.996 1,-2 1,-1 1,-1.004 1,-0.996 v 0.996 h 1 l 1,2.004 1,0.996 1,2.004 1,3 1,2 1,3 1,1.996 v 3 l 1,2.004 1,2 1,1 1,0.996 h 1 1 l 1,-0.996 1,-1 v -2 l 1,-2.004 1,-1.996 1,-3 1,-2 1,-3 1,-3 1,-2.004 1,-1.996 1,-1.004 V 242 h 1 1 1 l 1,2 1,1 1,2 1,3 1,1.996 v 3 l 1,2.004 1,3 1,2 1,1.996 1,1.004 1,1 1,0.996 h 1 V 266 l 1,-1 1,-1.004 1,-1.996 1,-3 1,-2 1,-3 1,-2.004 1,-1.996 1,-3 v -2 l 1,-1 1,-1.004 1,-0.996 1,0.996 h 1 l 1,1.004 1,1.996 1,2.004 v 2 l 1,1.996 1,3 1,2.004 1,3 1,2 1,1.996 1,1.004 1,1 v 0.996 h 1 l 1,-0.996 1,-1 1,-1.004 1,-1.996 1,-2 1,-3 1,-2.004 1,-3 v -3 l 1,-1.996 1,-2 1,-1 1,-2 h 1 1 1 l 1,0.996 V 245 l 1,0.996 1,3 1,2.004 1,3 1,2 1,3 1,1.996 1,2.004 1,2 v 1 l 1,0.996 h 1 l 1,-0.996 h 1 l 1,-2.004 1,-0.996 1,-3 1,-2.004 V 256 l 1,-3 1,-3 1,-2 1,-2.004 1,-0.996 1,-2.004 h 1 l 1,-0.996 v 0.996 l 1,1.004 1,1 1,2 1,1.996 1,2.004 1,3 1,2 1,3 1,1.996 V 263 l 1,2 1,1 1,0.996 h 1 1 l 1,-0.996 1,-2.004 1,-0.996 v -2.004 l 1,-3 1,-1.996 1,-3 1,-3 1,-2 1,-2.004 1,-1.996 1,-1.004 V 242 h 1 1 l 1,0.996 1,1.004 1,1.996 1,2.004 1,2 1,3 1,1.996 v 3 l 1,2.004 1,2 1,1.996 1,1.004 1,1 1,0.996 h 1 l 1,-0.996 v -1 l 1,-2 1,-2.004 1,-1.996 1,-2 1,-3 1,-3 1,-2.004 1,-1.996 1,-2 v -1 l 1,-1.004 1,-0.996 1,0.996 h 1 l 1,1.004 1,1.996 1,2.004 1,2 v 3 l 1,1.996 1,3 1,2.004 1,2 1,1.996 1,2.004 1,0.996 h 1 v 0 l 1,-0.996 1,-1 1,-2 1,-2.004 1,-1.996 1,-2 1,-3 1,-3 1,-2.004 V 247 l 1,-2 1,-2.004 1,-0.996 h 1 1 1 l 1,0.996 1,2.004 v 2 l 1,1.996 1,3 1,2.004 1,3 1,2 1,1.996 1,2.004 1,2 v 1 l 1,0.996 h 1 l 1,-0.996 1,-1 1,-1.004 1,-1.996 1,-2 1,-2.004 1,-3 v -3 l 1,-1.996 1,-2 1,-2.004 1,-1.996 1,-1.004 h 1 l 1,-0.996 1,0.996 V 244 l 1,1 1,2 1,1.996 1,3 1,2.004 1,3 1,2 1,3 v 1.996 l 1,1.004 1,1 1,0.996 h 1 1 l 1,-0.996 1,-2.004 1,-1.996 1,-2 v -2.004 l 1,-3 1,-3 1,-1.996 1,-2 1,-2.004 1,-1.996 1,-1.004 1,-0.996 v 0 h 1 l 1,0.996 1,1.004 1,1.996 1,2.004 1,3 1,2 1,3 1,1.996 v 3 l 1,2.004 1,0.996 1,2.004 h 1 l 1,0.996 h 1 l 1,-0.996 1,-1 v -2 l 1,-2.004 1,-1.996 1,-3 1,-3 1,-2 1,-2.004 1,-1.996 1,-2 v -1 l 1,-1.004 1,-0.996 1,0.996 h 1 l 1,2.004 1,0.996 1,2.004 1,3 1,2 v 3 l 1,1.996 1,3 1,2.004 1,2 1,1 1,0.996 h 1 1 V 266 l 1,-1 1,-2 1,-2.004 1,-1.996 1,-3 1,-2 1,-3 1,-2.004 v -3 l 1,-1.996 1,-1.004 1,-0.996 h 1 1 1 l 1,2 1,1 1,2 v 3 l 1,1.996 1,3 1,2.004 1,3 1,2 1,1.996 1,1.004 1,1 v 0.996 h 1 l 1,-0.996 1,-1 1,-1.004 1,-1.996 1,-2 1,-3 1,-2.004 1,-3 V 250 l 1,-3 1,-2 1,-1 1,-1.004 1,-0.996 1,0.996 h 1 l 1,1.004 v 1.996 l 1,2.004 1,2 1,1.996 1,3 1,2.004 1,3 1,2 1,1.996 V 265 l 1,1 1,0.996 h 1 l 1,-0.996 1,-1 1,-1.004 1,-1.996"
           stroke="#ed7d31"
           stroke-width="2"
           stroke-linecap="round"
           stroke-linejoin="round"
           stroke-miterlimit="10"
           fill="none"
           id="path3660" />
      </g>
      <g
         clip-path="url(#clip6)"
         id="g3666">
        <path
           d="m -385,-33209 1,41290 1,-8138 1,-74.004 1,58.004 1,24 v 3 l 1,-10 1,-14.0039 1,-14.9961 1,-13 1,-10 1,-7 1,-2 1,0.996 V -112 l 1,6.996 1,9.0001 1,11.0039 1,12 1,11.9961 1,14.0039 1,13 1,13.9961 L -363,-7 V 5.99609 L -362,19 l 1,12.9961 1,12 1,12.0039 1,10.9961 1,11.0039 1,11 1,9.9961 v 8.9999 l 1,10.004 1,9 1,9 1,8 1,8 1,7.996 1,8.004 1,7 1,7 v 6.996 l 1,7.004 1,6 1,6 1,6 1,6 1,6 1,5 1,6 v 5 l 1,5 1,5 1,5 1,4.996 1,4.004 1,5 1,4 1,5 v 4 l 1,3.996 1,4.004 1,4 1,3 1,4 1,4 1,3 1,3.996 1,3 v 3 l 1,4.004 1,3 1,3 1,3 1,3 1,3 1,3 1,2 v 3 l 1,3 1,1.996 1,3 1,2.004 1,3 1,2 1,3 1,2 v 2 l 1,3 1,2 1,2 1,1.996 1,2.004 1,2 1,1.996 1,2.004 1,2 v 1.996 l 1,2.004 1,2 1,1 1,2 1,2 1,2 1,1 1,2 v 2 l 1,0.996 1,2.004 1,0.996 1,2.004 1,0.996 1,2.004 1,0.996 1,2.004 1,0.996 V 420 l 1,1.996 1,1.004 1,1 1,2 1,1 1,0.996 1,1.004 1,2 v 1 l 1,1 1,1 1,1 1,1 1,1 1,2 1,1 1,1 v 0.996 l 1,1.004 1,1 1,0.996 1,1.004 1,1 1,0.996 1,1.004 h 1 l 1,1 v 0.996 l 1,1.004 1,1 1,0.996 1,1.004 1,1 h 1 l 1,0.996 1,1.004 v 1 l 1,0.996 h 1 l 1,1.004 1,1 1,1 h 1 l 1,1 1,1 v 0 l 1,1 1,1 h 1 l 1,1 1,1 h 1 l 1,1 1,0.996 h 1 V 472 l 1,1 h 1 l 1,0.996 h 1 l 1,1.004 1,1 h 1 l 1,0.996 v 0 l 1,1.004 1,1 h 1 l 1,0.996 h 1 l 1,1.004 h 1 l 1,1 v 0 l 1,0.996 h 1 l 1,1.004 h 1 l 1,1 1,0.996 h 1 l 1,1.004 h 1 v 1 h 1 l 1,0.996 h 1 1 l 1,1.004 h 1 l 1,1 h 1 v 0.996 h 1 l 1,1.004 h 1 l 1,1 h 1 1 l 1,1 h 1 l 1,1 v 0 l 1,1 h 1 1 l 1,1 h 1 l 1,1 h 1 1 v 1 h 1 l 1,1 h 1 1 l 1,1 h 1 1 l 1,1 v 0 h 1 l 1,1 h 1 l 1,1 h 1 1 l 1,0.996 h 1 1 V 507 h 1 1 l 1,1 h 1 1 l 1,0.996 h 1 1 v 0 l 1,1.004 h 1 1 l 1,1 h 1 1 l 1,0.996 h 1 v 0 h 1 l 1,1.004 h 1 1 l 1,1 h 1 1 1 l 1,0.996 v 0 h 1 1 l 1,1.004 h 1 1 l 1,1 h 1 1 v 0 l 1,0.996 h 1 1 1 l 1,1.004 h 1 1 1 1 v 1 h 1 1 1 l 1,0.996 h 1 1 1 l 1,1.004 v 0 h 1 1 1 l 1,1 h 1 1 1 1 v 0.996 h 1 1 1 1 l 1,1.004 h 1 1 1 1 v 1 h 1 1 1 1 l 1,1 h 1 1 1 v 0 h 1 l 1,1 h 1 1 1 1 1 l 1,1 v 0 h 1 1 1 1 l 1,1 h 1 1 1 1 v 0 h 1 l 1,1 h 1 1 1 1 1 1 v 0 l 1,1 h 1 1 1 1 1 1 1 v 1 h 1 1 1 1 1 1 1 1 1 v 1 h 1 1 1 1 1 1 1 1 v 0 h 1 1 1 l 1,0.996 h 1 1 1 1 1 v 0 h 1 1 1 1 1 1 1 1 v 0 h 1 1 1 1 1 1 1 1 v 0 h 1 1 1 1 1 1 1 1 1 v 0 h 1 1 1 1 L 2,534 h 1 1 1 v 0 h 1 1 1 1 1 l 1,-1 h 1 1 v 0 h 1 1 l 1,-1 h 1 1 1 1 1 l 1,-1 v 0 h 1 1 l 1,-1 h 1 1 1 l 1,-1 h 1 v 0 l 1,-1 h 1 1 l 1,-1 h 1 1 l 1,-1 h 1 l 1,-1 v 0 h 1 l 1,-1.004 h 1 L 43,523 h 1 l 1,-1 h 1 1 v -1.004 h 1 L 49,520 h 1 l 1,-1 h 1 l 1,-1.004 1,-0.996 h 1 v -1 h 1 l 1,-1.004 h 1 l 1,-0.996 1,-1 h 1 l 1,-1.004 1,-0.996 h 1 v -1 l 1,-1.004 1,-0.996 h 1 l 1,-1 1,-1.004 1,-0.996 1,-1 h 1 v -1 l 1,-1 1,-1 1,-1 1,-1 h 1 l 1,-1 1,-1 1,-1 v -1 l 1,-1 1,-1 1,-1.004 1,-0.996 1,-1 1,-1.004 h 1 l 1,-0.996 1,-1 v -1.004 l 1,-0.996 1,-1 1,-1.004 1,-0.996 1,-1 1,-2 1,-1 1,-1.004 V 476 l 1,-1 1,-1.004 1,-0.996 1,-2.004 1,-0.996 1,-1 1,-1 1,-1 1,-2 v -1 l 1,-1 1,-1 1,-2.004 1,-0.996 1,-1 1,-1.004 1,-1.996 1,-1.004 V 453 l 1,-1 1,-1.004 1,-1.996 1,-1.004 1,-0.996 1,-1 1,-1.004 1,-0.996 v -2.004 l 1,-0.996 1,-1 1,-1 1,-1 1,-2 1,-1 1,-1 1,-1 1,-2 v -1 l 1,-2.004 1,-0.996 1,-1 1,-2 1,-1 1,-2 1,-1 1,-2 v -1 l 1,-2 1,-1 1,-1.004 1,-1.996 1,-1.004 1,-0.996 1,-2.004 1,-0.996 v -1 l 1,-1 1,-2 1,-1 1,-1 1,-1 1,-1 1,-1 1,-1.004 1,-0.996 v -2.004 l 1,-0.996 1,-1 1,-1.004 1,-0.996 1,-2.004 1,-0.996 1,-2.004 1,-0.996 v -2.004 l 1,-0.996 1,-2.004 1,-0.996 1,-2 1,-2 1,-1 1,-2 1,-1 v -2 l 1,-1 1,-2.004 1,-0.996 1,-1 1,-1.004 1,-0.996 1,-1 1,-1.004 1,-0.996 v -1 l 1,-1.004 1,-0.996 h 1 l 1,-1 1,-1.004 1,-0.996 1,-1 1,-1.004 V 348 l 1,-1 1,-1.004 1,-1.996 1,-1.004 1,-1.996 1,-1 1,-2 1,-2 1,-2 v -1 l 1,-2 1,-2.004 1,-0.996 1,-2.004 1,-0.996 1,-2.004 1,-0.996 1,-1 v -1.004 L 207,319 h 1 l 1,-1 h 1 l 1,-1.004 h 1 L 213,316 h 1 v 0 l 1,-1 1,-1.004 h 1 l 1,-0.996 1,-1 1,-2 1,-1 1,-1 1,-2 v -2 l 1,-2 1,-2.004 1,-0.996 1,-2.004 1,-1.996 1,-2 1,-2.004 1,-1.996 v -1.004 l 1,-0.996 1,-1 1,-1.004 1,-0.996 h 1 l 1,-1 h 1 1 v 0 h 1 l 1,1 h 1 1 1 l 1,-1 h 1 l 1,-1.004 1,-0.996 v -1 l 1,-1.004 1,-1.996 1,-1 1,-2 1,-2 1,-2 1,-3 1,-2.004 V 263 l 1,-2 1,-1 1,-2 1,-1 1,-1.004 1,-0.996 h 1 l 1,-1 h 1 v 1 h 1 l 1,0.996 h 1 l 1,1.004 1,1 h 1 1 l 1,0.996 V 258 h 1 l 1,-1 1,-1.004 1,-0.996 1,-2.004 1,-1.996 1,-2 1,-2 v -2 l 1,-3 1,-2 1,-2 1,-2.004 1,-1.996 1,-2 1,-1 1,-1.004 1,-0.996 v 0 h 1 l 1,0.996 1,1.004 1,1 1,0.996 1,1.004 1,1 1,0.996 V 237 l 1,1 1,1 h 1 1 l 1,-1 1,-1 1,-1.004 1,-1.996 v -2 l 1,-2.004 1,-1.996 1,-3 1,-2 1,-3 1,-2.004 1,-1.996 1,-2 1,-1 v -1 l 1,-1 h 1 1 1 l 1,1 1,1 1,1.996 1,1.004 v 1.996 l 1,1.004 1,1.996 1,1.004 1,1 1,0.996 h 1 1 1 V 223 l 1,-2.004 1,-1.996 1,-2 1,-2.004 1,-2.996 1,-3 1,-2 1,-3.004 1,-1.996 v -2 l 1,-2.004 1,-0.996 1,-1 1,-1.004 h 1 l 1,1.004 1,1 1,0.996 V 200 l 1,0.996 1,2.004 1,2 1,2 1,2 1,2 1,1 1,1 h 1 v 0 h 1 l 1,-1 1,-2 1,-2 1,-2 1,-3 1,-2.004 1,-3 v -3 l 1,-1.996 1,-3 1,-2 1,-1 1,-1.004 1,-0.996 h 1 1 v 0.996 l 1,2.004 1,0.996 1,2.004 1,2 1,3 1,1.996 1,2.004 1,2 1,1.996 V 205 h 1 l 1,1 1,-1 h 1 l 1,-2 1,-2.004 1,-1.996 1,-2 v -3 l 1,-3 1,-3 1,-3 1,-2 1,-2 1,-2 1,-2 h 1 v -1 l 1,1 h 1 l 1,2 1,1 1,2 1,3 1,2 1,3 1,1.996 V 194 l 1,2 1,1.996 1,1.004 1,1 h 1 1 l 1,-1 1,-2 v -2.004 l 1,-1.996 1,-3 1,-3 1,-2 1,-3 1,-3 1,-2 1,-2 1,-2 v -1.004 h 1 1 1 l 1,1.004 1,2 1,2 1,2 1,3 v 3 l 1,2 1,3 1,1.996 1,2.004 1,0.996 1,1.004 h 1 1 v -1.004 l 1,-0.996 1,-2.004 1,-1.996 1,-3 1,-3 1,-3 1,-2 1,-3 1,-3 v -2 l 1,-2.004 1,-0.996 1,-1 h 1 1 l 1,1 1,2 1,1.996 V 174 l 1,3 1,2 1,3 1,3 1,2 1,3 1,1 1,2 v 0 h 1 1 l 1,-1.004 1,-1.996 1,-2 1,-2.004 1,-2.996 1,-2 1,-3 v -3 l 1,-3.004 1,-1.996 1,-2 1,-2.004 1,-0.996 h 1 1 l 1,0.996 V 167 l 1,1.996 1,2.004 1,3 1,3 1,2 1,3 1,3 1,2 v 1.996 l 1,2.004 h 1 l 1,0.996 h 1 l 1,-0.996 1,-2.004 1,-1.996 1,-2 1,-3 v -3 l 1,-3 1,-2 1,-3 1,-3 1,-2.004 1,-1.996 1,-1.004 1,-0.996 v 0 l 1,0.996 1,1.004 1,1.996 1,2.004 1,2 1,3 1,3 1,3 1,3 v 2 l 1,1.996 1,2.004 1,2 h 1 1 1 l 1,-1.004 1,-1.996 v -2 l 1,-2 1,-3 1,-3 1,-3 1,-3 1,-3 1,-2.004 1,-1.996 v -1.004 L 533,162 h 1 1 l 1,0.996 1,2.004 1,2 1,1.996 1,3 1,2.004 v 3 l 1,3 1,3 1,2 1,2 1,1 1,0.996 1,1.004 1,-1.004 V 188 l 1,-1 1,-2 1,-3 1,-2 1,-3 1,-3 1,-3 1,-3 v -3 l 1,-2.004 1,-0.996 1,-1 1,-1.004 h 1 l 1,1.004 1,1 1,2 1,1.996 v 3 l 1,3 1,3.004 1,3 1,2 1,3 1,2 1,2 1,1 v 0.996 h 1 l 1,-0.996 1,-1 1,-2 1,-2 1,-3 1,-2 1,-3 1,-3.004 v -3 l 1,-3 1,-1.996 1,-2 1,-1 1,-1.004 h 1 l 1,1.004 1,1 v 0.996 l 1,3 1,2.004 1,3 1,3 1,3 1,2 1,3 1,2 v 1.996 l 1,2.004 h 1 l 1,0.996 1,-0.996 1,-1 1,-2 1,-2 1,-2 1,-3 v -3 l 1,-3.004 1,-3 1,-3 1,-1.996 1,-2 1,-2.004 1,-0.996 h 1 v 0 l 1,0.996 1,2.004 1,0.996 1,3 1,3 1,2.004 1,3 1,3 v 3 l 1,3 1,2 1,0.996 1,2.004 h 1 1 l 1,-1 1,-1.004 1,-1.996 v -2 l 1,-3 1,-3 1,-3 1,-3 1,-2 1,-3 1,-2.004 1,-1.996 v -1.004 h 1 1 1 l 1,1.004 1,1.996 1,2.004 1,3 1,3 v 3 l 1,3 1,2 1,3 1,2 1,1.996 1,1.004 1,1 h 1 l 1,-1 v -1.004 l 1,-1.996 1,-2 1,-2 1,-3 1,-3 1,-3 1,-3 1,-3 v -2.004 l 1,-1.996 1,-1.004 1,-0.996 1,-1 1,1 1,0.996 1,1.004 1,1.996 1,3 v 3 l 1,3 1,3.004 1,3 1,2 1,3 1,2 1,0.996 1,1.004 v 1 l 1,-1 h 1 l 1,-2 1,-2 1,-2 1,-3 1,-3 1,-3.004 v -3 l 1,-1.996 1,-3 1,-2 1,-1 1,-1.004 1,-0.996 h 1 l 1,0.996 1,1.004 v 1.996 l 1,3 1,2.004 1,3 1,3 1,3 1,3 1,2 1,2 v 1.996 l 1,1.004 1,1 h 1 l 1,-1 1,-1.004 1,-1.996 1,-3 1,-2 v -3 l 1,-3 1,-3 1,-3 1,-3 1,-2 1,-2.004 1,-0.996 1,-1 h 1 v 1 l 1,0.996 1,2.004 1,2 1,1.996 1,3 1,3 1,3.004 1,3 v 3 l 1,2 1,2 1,0.996 1,1.004 1,1 1,-1 1,-1.004 1,-0.996 1,-2 v -3 l 1,-3 1,-3 1,-2.004 1,-3 1,-3 1,-1.996 1,-2 1,-2.004 V 159 h 1 1 l 1,0.996 1,2.004 1,2 1,1.996 1,3 1,3 V 175 l 1,3 1,2 1,3 1,2 1,0.996 1,1.004 1,1 1,-1 h 1 v -2 l 1,-2 1,-2 1,-3 1,-3 1,-3.004 1,-3 1,-3 1,-1.996 v -2 l 1,-2.004 1,-0.996 1,-1 h 1 l 1,1 1,0.996 1,2.004 1,2 v 3 l 1,3 1,3 1,3 1,3 1,2 1,2 1,2 1,2 h 1 v 0 h 1 l 1,-1.004 1,-1.996 1,-2 1,-3 1,-2 1,-3 1,-3 v -3 l 1,-3 1,-2.004 1,-1.996 1,-1.004 1,-0.996 h 1 1 l 1,0.996 V 162 l 1,2 1,3 1,1.996 1,3 1,3.004 1,3 1,3 1,2 1,2 v 0.996 l 1,1.004 1,1 1,-1 1,-1.004 1,-0.996 1,-2 1,-3 1,-3 v -3 l 1,-3 1,-3 1,-2.004 1,-3 1,-1.996 1,-2 1,-1 h 1 1 v 1 l 1,0.996 1,2.004 1,3 1,2 1,3 1,3 1,3 1,3 v 3 l 1,2 1,1.996 1,1.004 h 1 1 1 l 1,-2 1,-1 v -3 l 1,-2 1,-3 1,-3 1,-3 1,-3 1,-2 1,-2.004 1,-1.996 1,-1.004 V 159 h 1 1 l 1,2 1,1 1,3 1,2 1,3 1,3 v 3 l 1,3 1,2 1,3 1,1 1,2 h 1 1 1 v -1.004 l 1,-1.996 1,-2 1,-3 1,-2 1,-3 1,-3 1,-3 1,-3 1,-2.004 V 161 l 1,-2 1,-1 h 1 1 l 1,1 1,2 1,1.996 1,2.004 v 3 l 1,3 1,3 1,3 1,3 1,2 1,2 1,1.996 1,1.004 h 1 v 0 l 1,-1.004 1,-0.996 1,-2 1,-2 1,-3 1,-3 1,-3.004 1,-3 V 167 l 1,-3 1,-2 1,-2.004 1,-0.996 h 1 1 l 1,0.996 1,1.004 v 1.996 l 1,2.004 1,3 1,3 1,2 1,3 1,3 1,3 1,2 1,1.996 V 187 h 1 1 1 l 1,-2 1,-1 1,-3 1,-2 1,-3 v -3 l 1,-3 1,-3 1,-3 1,-2 1,-2.004 1,-0.996 1,-1 h 1 v 0 l 1,1.996 1,1.004 1,1.996 1,3 1,3 1,3 1,3.004 1,3 1,2 v 3 l 1,2 1,0.996 1,1.004 h 1 1 l 1,-1.004 1,-0.996 1,-2 v -3 l 1,-3 1,-2 1,-3.004 1,-3 1,-3 1,-1.996 1,-2 1,-2.004 V 159 h 1 1 l 1,0.996 1,1.004 1,1.996 1,3 1,2.004 1,3 1,3 v 3 l 1,3 1,2 1,2 1,1.996 1,1.004 h 1 1 l 1,-1.004 V 185 l 1,-2 1,-2 1,-3 1,-3 1,-3.004 1,-3 1,-3 1,-1.996 1,-2 v -2.004 l 1,-0.996 1,-1 h 1 l 1,1 1,0.996 1,2.004 1,2 1,1.996 v 3 l 1,3 1,3.004 1,3 1,3 1,2 1,2 1,0.996 1,1.004 v 0 h 1 l 1,-1.004 1,-1.996 1,-2 1,-2 1,-3 1,-3 1,-3 1,-3 v -3 l 1,-2.004 1,-1.996 1,-1.004 1,-0.996 h 1 1 l 1,0.996 1,2.004 v 2 l 1,1.996 1,3 1,3 1,3.004 1,3 1,2 1,3 1,2 v 0.996 l 1,1.004 h 1 1 l 1,-1.004 1,-0.996 1,-2 1,-3 1,-2 1,-3 v -3.004 l 1,-3 1,-3 1,-3 1,-1.996 1,-1.004 1,-1.996 h 1 1 v 1 l 1,0.996 1,2.004 1,2 1,3 1,3 1,3 1,3 1,3 1,2 v 3 l 1,1 1,2 h 1 1 1 l 1,-2 1,-1 1,-2 v -3 l 1,-3 1,-3 1,-3 1,-3 1,-2 1,-2.004 1,-1.996 1,-1.004 V 159 h 1 1 l 1,0.996 1,2.004 1,2 1,3 1,3 1,3 1,3 v 2 l 1,3 1,2 1,2 1,2 h 1 1 1 l 1,-1.004 V 184 l 1,-2 1,-2 1,-3 1,-3 1,-3 1,-3 1,-3 1,-2.004 V 161 l 1,-2 1,-1 h 1 1 l 1,1 1,2 1,1.996 1,2.004 1,3 v 3 l 1,3 1,3 1,2 1,3 1,2 1,1.996 1,1.004 h 1 v 0 l 1,-1.004 1,-0.996 1,-2 1,-2 1,-3 1,-3 1,-2 1,-3 v -3 l 1,-3 1,-2 1,-1 1,-2 h 1 1 l 1,0.996 1,1.004 1,1.996 V 165 l 1,2 1,3 1,3 1,3 1,3 1,3 1,2 1,1.996 V 187 h 1 1 1 l 1,-1.004 1,-1.996 1,-2 1,-3 1,-3 1,-3 v -3 l 1,-3 1,-2 1,-3 1,-2.004 1,-0.996 1,-1 h 1 1 v 1 l 1,2 1,1.996 1,3 1,2.004 1,3 1,3 1,3 1,3 v 2 l 1,3 1,0.996 1,1.004 h 1 1 l 1,-1.004 1,-0.996 1,-2 1,-3 v -2 l 1,-3 1,-3.004 1,-3 1,-3 1,-1.996 1,-2 1,-2.004 1,-0.996 v 0 h 1 l 1,0.996 1,1.004 1,1.996 1,2.004 1,3 1,3 1,3 v 3 l 1,3 1,2 1,2 1,1.996 1,1.004 h 1 1 1 l 1,-2 v -2 l 1,-2 1,-3 1,-2 1,-3 1,-4.004 1,-1.996 1,-3 1,-2 v -2.004 l 1,-0.996 1,-1 h 1 l 1,1 1,0.996 1,1.004 1,3 1,1.996 1,3 v 3 l 1,3.004 1,3 1,3 1,2 1,2 1,0.996 1,1.004 h 1 v 0 l 1,-1.004 1,-1.996 1,-2 1,-2 1,-3 1,-3 1,-3 1,-3 v -2.004 l 1,-3 1,-1.996 1,-1.004 1,-0.996 h 1 1 l 1,0.996 1,2.004 1,2 v 1.996 l 1,3 1,3 1,3.004 1,2 1,3 1,3 1,2 1,0.996 V 187 h 1 1 l 1,-1.004 1,-0.996 1,-2 1,-3 1,-2 1,-3 v -3.004 l 1,-3 1,-3 1,-3 1,-1.996 1,-1.004 1,-1.996 h 1 1 l 1,1 v 0.996 l 1,2.004 1,2 1,3 1,3 1,3 1,3 1,3 1,2 v 2 l 1,2 1,2 h 1 1 1 l 1,-1.004 1,-1.996 1,-2 v -3 l 1,-3 1,-3 1,-2 1,-3 1,-3 1,-2.004 1,-1.996 1,-1.004 1,-0.996 v 0 h 1 l 1,0.996 1,2.004 1,2 1,3 1,1.996 1,3 1,3.004 v 3 l 1,3 1,2 1,2 1,0.996 1,1.004 h 1 1 l 1,-1.004 1,-1.996 v -2 l 1,-2 1,-3 1,-3 1,-3 1,-3 1,-3 1,-2.004 1,-1.996 v -2 l 1,-1 h 1 1 l 1,1 1,0.996 1,2.004 1,3 1,2 v 3 l 1,3 1,3 1,3 1,3 1,2 1,1.996 1,1.004 h 1 1 v 0 l 1,-2 1,-2 1,-2 1,-2 1,-3 1,-3 1,-3 1,-3 v -2 l 1,-3 1,-1 1,-2 h 1 1 1 l 1,2 1,1 v 3 l 1,2 1,3 1,3 1,3 1,3 1,2 1,3 1,1 1,2 v 0 h 1 1 l 1,-1.004 1,-1.996 1,-2 1,-3 1,-3 1,-3 v -3 l 1,-3 1,-2 1,-3 1,-2.004 1,-0.996 1,-1 h 1 1 l 1,1 v 2 l 1,1.996 1,2.004 1,3 1,3 1,3 1,3 1,3 1,2 v 2 l 1,1.996 1,1.004 h 1 1 l 1,-1.004 1,-0.996 1,-2 1,-2 v -3 l 1,-3 1,-3.004 1,-3 1,-3 1,-1.996 1,-2 1,-2.004"
           stroke="#4472c4"
           stroke-width="2"
           stroke-linecap="round"
           stroke-linejoin="round"
           stroke-miterlimit="10"
           fill="none"
           id="path3664" />
      </g>
      <g
         id="g3670">
        <text
           font-family="Arial, Arial_MSFontService, sans-serif"
           font-weight="400"
           font-size="12px"
           transform="translate(742.667,315)"
           id="text3668">1.28</text>
      </g>
      <g
         id="g3674">
        <text
           font-family="Arial, Arial_MSFontService, sans-serif"
           font-weight="400"
           font-size="12px"
           transform="translate(749.34,287)"
           id="text3672">1.3</text>
      </g>
      <g
         id="g3678">
        <text
           font-family="Arial, Arial_MSFontService, sans-serif"
           font-weight="400"
           font-size="12px"
           transform="translate(742.667,260)"
           id="text3676">1.32</text>
      </g>
      <g
         id="g3682">
        <text
           font-family="Arial, Arial_MSFontService, sans-serif"
           font-weight="400"
           font-size="12px"
           transform="translate(742.667,233)"
           id="text3680">1.34</text>
      </g>
      <g
         id="g3686">
        <text
           font-family="Arial, Arial_MSFontService, sans-serif"
           font-weight="400"
           font-size="12px"
           transform="translate(742.667,205)"
           id="text3684">1.36</text>
      </g>
      <g
         id="g3690">
        <text
           font-family="Arial, Arial_MSFontService, sans-serif"
           font-weight="400"
           font-size="12px"
           transform="translate(742.667,178)"
           id="text3688">1.38</text>
      </g>
      <g
         id="g3694">
        <text
           font-family="Arial, Arial_MSFontService, sans-serif"
           font-weight="400"
           font-size="12px"
           transform="translate(749.34,151)"
           id="text3692">1.4</text>
      </g>
      <g
         id="g3698">
        <text
           font-family="Arial, Arial_MSFontService, sans-serif"
           font-weight="400"
           font-size="12px"
           transform="translate(766.33,329)"
           id="text3696">130</text>
      </g>
      <g
         id="g3702">
        <text
           font-family="Arial, Arial_MSFontService, sans-serif"
           font-weight="400"
           font-size="12px"
           transform="translate(810.993,329)"
           id="text3700">135</text>
      </g>
      <g
         id="g3706">
        <text
           font-family="Arial, Arial_MSFontService, sans-serif"
           font-weight="400"
           font-size="12px"
           transform="translate(855.656,329)"
           id="text3704">140</text>
      </g>
      <g
         id="g3710">
        <text
           font-family="Arial, Arial_MSFontService, sans-serif"
           font-weight="400"
           font-size="12px"
           transform="translate(900.319,329)"
           id="text3708">145</text>
      </g>
      <g
         id="g3714">
        <text
           font-family="Arial, Arial_MSFontService, sans-serif"
           font-weight="400"
           font-size="12px"
           transform="translate(944.983,329)"
           id="text3712">150</text>
      </g>
    </g>
  </g>
</svg>
