<?xml version="1.0" encoding="UTF-8" standalone="no"?>
<!-- Created with Inkscape (http://www.inkscape.org/) -->

<svg
   width="129.91042mm"
   height="100.0125mm"
   viewBox="0 0 129.91042 100.0125"
   version="1.1"
   id="svg3943"
   inkscape:version="1.2.1 (9c6d41e410, 2022-07-14)"
   sodipodi:docname="none-lift.svg"
   xmlns:inkscape="http://www.inkscape.org/namespaces/inkscape"
   xmlns:sodipodi="http://sodipodi.sourceforge.net/DTD/sodipodi-0.dtd"
   xmlns="http://www.w3.org/2000/svg"
   xmlns:svg="http://www.w3.org/2000/svg">
  <sodipodi:namedview
     id="namedview3945"
     pagecolor="#ffffff"
     bordercolor="#000000"
     borderopacity="0.25"
     inkscape:showpageshadow="2"
     inkscape:pageopacity="0.0"
     inkscape:pagecheckerboard="0"
     inkscape:deskcolor="#d1d1d1"
     inkscape:document-units="mm"
     showgrid="false"
     inkscape:zoom="0.74564394"
     inkscape:cx="198.48616"
     inkscape:cy="112.65431"
     inkscape:window-width="1920"
     inkscape:window-height="1017"
     inkscape:window-x="1912"
     inkscape:window-y="-8"
     inkscape:window-maximized="1"
     inkscape:current-layer="layer1" />
  <defs
     id="defs3940">
    <clipPath
       id="clip0">
      <rect
         x="515"
         y="377"
         width="491"
         height="378"
         id="rect4064" />
    </clipPath>
    <clipPath
       id="clip1">
      <rect
         x="793"
         y="405"
         width="164"
         height="129"
         id="rect4067" />
    </clipPath>
    <clipPath
       id="clip2">
      <rect
         x="793"
         y="405"
         width="164"
         height="129"
         id="rect4070" />
    </clipPath>
    <clipPath
       id="clip3">
      <rect
         x="793"
         y="405"
         width="164"
         height="129"
         id="rect4073" />
    </clipPath>
  </defs>
  <g
     inkscape:label="Camada 1"
     inkscape:groupmode="layer"
     id="layer1"
     transform="translate(-28.722215,-118.89698)">
    <g
       clip-path="url(#clip0)"
       transform="matrix(0.26458333,0,0,0.26458333,-107.5382,19.149061)"
       id="g4252">
      <rect
         x="515"
         y="377"
         width="491"
         height="378"
         fill="#ffffff"
         id="rect4078" />
      <g
         id="g4082">
        <path
           d="m 554.5,740.5 h 427 m -427,-44 h 427 m -427,-43 h 427 m -427,-44 h 427 m -427,-87 h 427 m -427,-44 h 427 m -427,-43 h 427 m -427,-44 h 427"
           stroke="#d9d9d9"
           stroke-linejoin="round"
           stroke-miterlimit="10"
           fill="none"
           id="path4080" />
      </g>
      <g
         id="g4086">
        <path
           d="m 661.5,391.5 v 349 m 107,-349 v 349 m 106,-349 v 349 m 107,-349 v 349"
           stroke="#d9d9d9"
           stroke-linejoin="round"
           stroke-miterlimit="10"
           fill="none"
           id="path4084" />
      </g>
      <g
         id="g4090">
        <rect
           x="554.5"
           y="391.5"
           width="427"
           height="349"
           stroke="#000000"
           stroke-linejoin="round"
           stroke-miterlimit="10"
           fill="none"
           id="rect4088" />
      </g>
      <g
         id="g4094">
        <path
           d="M 0,0 1.04987e-4,349"
           stroke="#000000"
           stroke-linejoin="round"
           stroke-miterlimit="10"
           fill="none"
           fill-rule="evenodd"
           transform="matrix(1,0,0,-1,554.5,740.5)"
           id="path4092" />
      </g>
      <g
         id="g4098">
        <path
           d="m 554.5,740.5 h 3 m -3,-9 h 3 m -3,-9 h 3 m -3,-8 h 3 m -3,-9 h 3 m -3,-9 h 3 m -3,-9 h 3 m -3,-8 h 3 m -3,-9 h 3 m -3,-9 h 3 m -3,-8 h 3 m -3,-9 h 3 m -3,-9 h 3 m -3,-9 h 3 m -3,-8 h 3 m -3,-9 h 3 m -3,-9 h 3 m -3,-8 h 3 m -3,-9 h 3 m -3,-9 h 3 m -3,-9 h 3 m -3,-8 h 3 m -3,-9 h 3 m -3,-9 h 3 m -3,-8 h 3 m -3,-9 h 3 m -3,-9 h 3 m -3,-9 h 3 m -3,-8 h 3 m -3,-9 h 3 m -3,-9 h 3 m -3,-8 h 3 m -3,-9 h 3 m -3,-9 h 3 m -3,-9 h 3 m -3,-8 h 3 m -3,-9 h 3 m -3,-9 h 3 m -3,-8 h 3 m -3,-9 h 3 m -3,-9 h 3 m -6,349 h 7 m -7,-44 h 7 m -7,-43 h 7 m -7,-44 h 7 m -7,-44 h 7 m -7,-43 h 7 m -7,-44 h 7 m -7,-43 h 7 m -7,-44 h 7"
           stroke="#000000"
           stroke-linejoin="round"
           stroke-miterlimit="10"
           fill="none"
           id="path4096" />
      </g>
      <g
         id="g4102">
        <path
           d="m 554.5,565.5 h 427"
           stroke="#000000"
           stroke-linejoin="round"
           stroke-miterlimit="10"
           fill="none"
           fill-rule="evenodd"
           id="path4100" />
      </g>
      <g
         id="g4106">
        <path
           d="m 554.5,563.5 v 2 m 22,-2 v 2 m 21,-2 v 2 m 21,-2 v 2 m 22,-2 v 2 m 21,-2 v 2 m 21,-2 v 2 m 22,-2 v 2 m 21,-2 v 2 m 21,-2 v 2 m 22,-2 v 2 m 21,-2 v 2 m 21,-2 v 2 m 22,-2 v 2 m 21,-2 v 2 m 21,-2 v 2 m 22,-2 v 2 m 21,-2 v 2 m 21,-2 v 2 m 22,-2 v 2 m 21,-2 v 2 m -427,-3 v 7 m 107,-7 v 7 m 107,-7 v 7 m 106,-7 v 7 m 107,-7 v 7"
           stroke="#000000"
           stroke-linejoin="round"
           stroke-miterlimit="10"
           fill="none"
           id="path4104" />
      </g>
      <g
         id="g4110">
        <path
           d="m 555,578 v -9 0 0 l 1,1 v 0 0 0 0 h 1 v 0 0 0 0 h 1 v -1 0 0 h 1 v 0 0 0 0 h 1 v -1 0 0 0 h 1 v -1 0 0 0 l 1,-1 v 0 0 0 l 1,-1 v 0 0 0 -1 h 1 v 0 0 0 -1 h 1 v 0 0 0 h 1 v 0 0 0 0 h 1 v 0 0 0 0 h 1 v 0 1 0 h 1 v 0 0 1 0 h 1 v 1 0 0 1 h 1 v 0 0 1 h 1 v 0 1 0 0 h 1 v 1 0 0 0 h 1 v 0 1 0 h 1 v 0 0 0 0 h 1 v 0 -1 0 0 h 1 v 0 -1 0 h 1 v 0 -1 0 0 l 1,-1 v 0 0 -1 0 h 1 v -1 0 0 -1 h 1 v 0 0 -1 h 1 v 0 0 0 0 h 1 v -1 0 0 0 l 1,1 v 0 0 0 h 1 v 0 1 0 0 h 1 v 1 0 0 1 h 1 v 1 0 0 l 1,1 v 0 1 0 0 l 1,1 v 0 1 0 0 h 1 v 1 0 0 h 1 v 0 1 0 0 h 1 v 0 0 -1 0 h 1 v 0 -1 0 h 1 v -1 0 0 -1 h 1 v -1 -1 0 -1 h 1 v -1 0 -1 l 1,-1 v 0 -1 0 -1 h 1 v -1 0 -1 0 h 1 v -1 0 0 0 h 1 v 0 0 0 h 1 v 0 0 1 0 h 1 v 1 0 1 1 h 1 v 1 1 1 h 1 v 1 1 1 1 l 1,1 v 1 0 1 1 l 1,1 v 1 1 0 l 1,1 v 1 0 1 0 h 1 v 1 0 0 0 h 1 v 0 0 0 l 1,-1 v 0 -1 0 -1 l 1,-1 v -1 -1 -1 -1 l 1,-1 v -1 -2 -1 l 1,-1 v -2 -1 -1 -2 l 1,-1 v -2 -1 -1 -2 l 1,-1 v -1 -1 -1 l 1,-1 v -1 -1 0 -1 h 1 v 0 -1 1 0 h 1 v 1 0 1 1 l 1,1 v 1 2 1 l 1,2 v 2 1 2 2 l 1,3 v 2 2 2 3 l 1,2 v 2 3 2 l 1,2 v 2 2 2 2 l 1,2 v 1 1 1 1 l 1,1 v 1 0 0 l 1,-1 v 0 -1 -1 -1 l 1,-2 v -2 -2 -2 -3 l 1,-2 v -3 -3 -4 l 1,-3 v -4 -3 -4 -4 l 1,-3 v -4 -4 -3 -4 l 1,-3 v -3 -3 -3 l 1,-2 v -2 -2 -2 -1 h 1 v -1 0 1 1 l 1,1 v 2 2 3 l 1,2 v 4 3 5 4 l 1,4 v 5 5 5 6 l 1,5 v 6 5 5 6 l 1,5 v 5 4 5 l 1,3 v 4 3 3 2 l 1,2 v 1 0 0 0 l 1,-2 v -1 -3 -3 l 1,-4 v -4 -4 -5 -6 l 1,-6 v -6 -7 -7 -7 l 1,-7 v -7 -7 -7 l 1,-7 v -7 -6 -7 -5 l 1,-5 v -5 -4 -4 -3 l 1,-2 v -1 -1 0 l 1,1 v 2 2 4 4 l 1,4 v 6 5 7 7 l 1,8 v 8 8 8 l 1,9 v 9 9 9 8 l 1,8 v 9 7 7 7 l 1,6 v 5 5 3 l 1,3 v 2 1 0 -1 l 1,-1 v -3 -4 -4 -6 l 1,-6 v -7 -7 -9 l 1,-8 v -10 -9 -10 -11 l 1,-10 v -10 -10 -10 -10 l 1,-9 v -9 -8 -8 -7 l 1,-6 v -5 -4 -3 l 1,-2 v -1 0 1 3 l 1,3 v 4 6 6 7 l 1,8 v 9 10 10 l 1,10 v 11 11 12 11 l 1,12 v 11 11 11 10 l 1,10 v 9 8 7 l 1,6 v 5 4 3 2 h 1 v -1 -1 -4 -4 l 1,-5 v -7 -7 -8 l 1,-10 v -10 -10 -12 -12 l 1,-12 v -12 -13 -12 -12 l 1,-13 v -11 -11 -11 l 1,-10 v -9 -8 -7 -6 l 1,-4 v -4 -2 -1 0 l 1,2 v 3 4 6 l 1,6 v 8 9 9 11 l 1,11 v 12 12 13 13 l 1,13 v 13 14 12 13 l 1,12 v 11 11 9 l 1,9 v 7 7 5 4 l 1,2 v 2 -1 -1 -3 l 1,-4 v -6 -7 -7 l 1,-9 v -10 -11 -12 -12 l 1,-13 v -13 -14 -14 -13 l 1,-14 v -14 -13 -12 l 1,-12 v -11 -10 -9 -8 l 1,-6 v -6 -4 -3 -1 h 1 v 2 3 4 l 1,6 v 7 8 9 10 l 1,12 v 11 13 13 14 l 1,14 v 14 14 14 l 1,14 v 13 13 12 11 l 1,11 v 9 8 7 5 l 1,5 v 2 2 -1 l 1,-1 v -3 -5 -6 -7 l 1,-8 v -10 -10 -11 -13 l 1,-13 v -13 -14 -14 -15 l 1,-14 v -15 -14 -13 l 1,-13 v -12 -12 -10 -9 l 1,-9 v -6 -6 -4 -3 l 1,-1 v 1 1 4 l 1,4 v 6 8 8 10 l 1,11 v 11 13 13 14 l 1,14 v 14 15 14 l 1,15 v 14 14 13 12 l 1,12 v 10 9 8 7 l 1,6 v 4 2 1 h 1 v -2 -4 -5 -6 l 1,-7 v -9 -10 -11 -12 l 1,-13 v -13 -14 -14 l 1,-15 v -15 -14 -15 -14 l 1,-14 v -13 -12 -12 -10 l 1,-9 v -8 -7 -5 l 1,-4 v -2 -1 1 2 l 1,3 v 6 6 8 9 l 1,10 v 11 12 13 13 l 1,15 v 14 15 15 l 1,14 v 15 14 14 13 l 1,12 v 12 10 9 8 l 1,6 v 5 4 2 l 1,1 v -1 -3 -4 -5 l 1,-7 v -8 -9 -10 -11 l 1,-13 v -13 -13 -15 l 1,-14 v -15 -15 -15 -14 l 1,-15 v -13 -13 -12 -12 l 1,-10 v -9 -7 -7 l 1,-5 v -3 -2 0 1 l 1,3 v 4 5 7 9 l 1,9 v 11 11 13 l 1,13 v 13 15 14 15 l 1,15 v 15 15 14 13 l 1,13 v 12 11 10 l 1,9 v 8 6 4 4 l 1,1 v 0 -1 -3 -4 l 1,-6 v -7 -9 -9 -11 l 1,-12 v -13 -13 -14 l 1,-14 v -15 -15 -15 -15 l 1,-14 v -14 -14 -13 -12 l 1,-11 v -9 -9 -7 l 1,-6 v -4 -3 -2 1 l 1,1 v 4 4 6 8 l 1,8 v 10 11 12 l 1,13 v 13 14 15 14 l 1,15 v 15 15 15 14 l 1,13 v 13 12 10 l 1,10 v 8 7 6 4 l 1,3 v 1 -1 -2 -3 l 1,-5 v -6 -8 -9 l 1,-10 v -11 -12 -13 -14 l 1,-14 v -14 -15 -15 -15 l 1,-15 v -14 -14 -14 l 1,-12 v -12 -10 -10 -8 l 1,-6 v -6 -4 -2 -1 l 1,1 v 2 4 5 7 l 1,7 v 10 10 11 l 1,12 v 13 14 14 15 l 1,15 v 15 15 14 15 l 1,14 v 13 12 12 l 1,10 v 9 8 6 6 l 1,3 v 2 1 -1 -3 l 1,-4 v -5 -7 -8 l 1,-9 v -11 -11 -13 -13 l 1,-14 v -14 -15 -15 -15 l 1,-14 v -15 -14 -14 l 1,-13 v -12 -12 -10 -9 l 1,-7 v -7 -4 -4 -2 h 1 v 1 3 5 l 1,5 v 7 9 9 11 l 1,11 v 13 13 14 14 l 1,15 v 15 15 15 l 1,15 v 14 13 13 12 l 1,11 v 10 9 7 7 l 1,4 v 3 2 0 -2 l 1,-3 v -4 -6 -8 l 1,-8 v -10 -11 -12 -12 l 1,-14 v -14 -14 -15 -15 l 1,-15 v -15 -14 -15 l 1,-13 v -13 -12 -10 -10 l 1,-9 v -7 -6 -4 -3 l 1,-1 v 0 2 4 l 1,4 v 7 7 9 10 l 1,11 v 12 13 13 14 l 1,15 v 15 15 15 l 1,14 v 15 14 13 13 l 1,12 v 10 10 8 7 l 1,5 v 4 3 1 l 1,-1 v -2 -3 -5 -7 l 1,-8 v -9 -10 -11 -12 l 1,-13 v -14 -14 -15 l 1,-14 v -15 -15 -15 -15 l 1,-14 v -13 -12 -12 -10 l 1,-9 v -8 -7 -5 l 1,-4 v -2 -1 1 2 l 1,4 v 5 7 8 9 l 1,11 v 11 12 13 14 l 1,14 v 15 15 15 l 1,15 v 15 14 14 13 l 1,12 v 12 10 9 8 l 1,6 v 5 3 2 l 1,1 v -1 -3 -4 -6 l 1,-6 v -9 -9 -11 -11 l 1,-13 v -13 -14 -14 l 1,-15 v -15 -15 -15 -15 l 1,-14 v -13 -13 -13 -11 l 1,-10 v -9 -7 -6 l 1,-5 v -3 -2 0 2 l 1,3 v 4 6 7 8 l 1,10 v 11 11 13 l 1,13 v 14 15 15 15 l 1,15 v 14 15 14 14 l 1,13 v 12 10 10 l 1,9 v 7 6 4 3 l 1,2 v 0 -2 -3 -5 l 1,-6 v -7 -9 -10 -11 l 1,-12 v -12 -14 -14 l 1,-15 v -14 -15 -15 -15 l 1,-15 v -14 -13 -13 -12 l 1,-11 v -9 -8 -7 l 1,-6 v -4 -3 -1 1 l 1,2 v 3 5 6 8 l 1,9 v 10 11 12 l 1,13 v 13 15 14 15 l 1,15 v 15 15 14 14 l 1,14 v 12 12 10 l 1,10 v 8 6 6 4 l 1,2 v 1 -1 -2 -4 l 1,-5 v -6 -8 -10 l 1,-10 v -11 -12 -13 -14 l 1,-14 v -15 -15 -15 -15 l 1,-15 v -14 -14 -13 l 1,-12 v -12 -10 -9 -8 l 1,-7 v -5 -3 -2 -1 l 1,1 v 3 4 5 7 l 1,8 v 9 11 11 l 1,13 v 13 14 14 15 l 1,15 v 15 15 14 14 l 1,14 v 13 12 12 l 1,10 v 9 7 7 4 l 1,4 v 2 0 -1 -3 l 1,-4 v -6 -7 -9 l 1,-9 v -11 -11 -13 -13 l 1,-14 v -15 -14 -15 -15 l 1,-15 v -15 -14 -14 l 1,-13 v -12 -11 -10 -8 l 1,-8 v -6 -4 -3 -2 h 1 v 2 3 4 l 1,6 v 8 8 10 11 l 1,12 v 12 14 14 14 l 1,15 v 15 15 15 l 1,15 v 14 13 13 12 l 1,11 v 9 9 7 6 l 1,4 v 3 1 0 -2 l 1,-4 v -4 -7 -7 l 1,-9 v -10 -11 -12 -13 l 1,-13 v -14 -15 -15 -15 l 1,-15 v -15 -14 -14 l 1,-14 v -12 -12 -11 -9 l 1,-8 v -7 -6 -3 -3 l 1,-1 v 1 2 3 l 1,6 v 6 8 9 10 l 1,11 v 12 13 14 14 l 1,15 v 15 15 15 l 1,14 v 15 14 13 12 l 1,12 v 10 9 8 7 l 1,5 v 4 2 1 l 1,-1 v -2 -4 -6 -6 l 1,-8 v -9 -11 -11 -13 l 1,-13 v -13 -15 -14 l 1,-15 v -15 -15 -15 -14 l 1,-14 v -13 -13 -11 -10 l 1,-9 v -8 -6 -5 -4 l 1,-1 v -1 1 3 l 1,4 v 6 7 8 9 l 1,11 v 11 13 13 14 l 1,14 v 15 15 15 l 1,15 v 15 14 14 13 l 1,12 v 11 10 9 7 l 1,6 v 5 3 2 h 1 v -2 -3 -4 -6 l 1,-7 v -8 -10 -11 -12 l 1,-12 v -14 -14 -14 l 1,-15 v -15 -15 -15 -14 l 1,-15 v -13 -13 -12 -11 l 1,-10 v -8 -7 -6 l 1,-5 v -2 -2 0 2 l 1,3 v 5 6 8 8 l 1,10 v 11 12 13 l 1,13 v 14 15 15 15 l 1,15 v 14 15 14 13 l 1,13 v 12 11 9 8 l 1,7 v 6 4 3 l 1,1 v -1 -2 -3 -5 l 1,-6 v -8 -9 -10 -11 l 1,-12 v -13 -14 -14 l 1,-15 v -14 -15 -15 -15 l 1,-15 v -14 -13 -12 -12 l 1,-11 v -9 -8 -7 l 1,-5 v -4 -2 -1 1 l 1,2 v 4 5 7 8 l 1,9 v 10 11 13 l 1,13 v 13 15 14 15 l 1,15 v 15 15 14 14 l 1,13 v 12 12 10 l 1,9 v 8 7 5 3 l 1,2 v 1 -1 -3 -4 l 1,-5 v -7 -8 -9 l 1,-11 v -11 -13 -13 -14 l 1,-14 v -15 -15 -15 -15 l 1,-15 v -14 -14 -13 -12 l 1,-11 v -10 -9 -8 l 1,-6 v -5 -3 -2 0 l 1,2 v 2 5 5 7 l 1,9 v 9 11 12 l 1,12 v 14 13 15 15 l 1,15 v 15 14 15 14 l 1,14 v 13 12 11 l 1,10 v 8 8 6 4 l 1,3 v 2 0 -2 -3 l 1,-5 v -5 -8 -8 l 1,-10 v -11 -12 -13 -13 l 1,-14 v -15 -14 -15 -15 l 1,-15 v -15 -14 -13 l 1,-13 v -12 -11 -9 -9 l 1,-7 v -6 -4 -3 -1 h 1 v 2 4 5 l 1,6 v 7 9 10 11 l 1,12 v 13 14 14 14 l 1,15 v 15 15 15 l 1,14 v 14 14 12 12 l 1,11 v 9 8 7 6 l 1,3 v 3 1 -1 -2 l 1,-3 v -6 -6 -8 l 1,-9 v -10 -11 -12 -13 l 1,-14 v -14 -15 -15 -15 l 1,-15 v -15 -14 -14 l 1,-13 v -13 -11 -11 -9 l 1,-8 v -6 -5 -4 -2 l 1,-1 v 1 2 4 l 1,6 v 6 8 10 10 l 1,11 v 13 13 14 14 l 1,15 v 15 15 15 l 1,14 v 15 13 13 13 l 1,11 v 10 9 8 6 l 1,5 v 4 1 1 l 1,-1 v -3 -4 -6 -7 l 1,-8 v -9 -11 -12 -12 l 1,-13 v -14 -15 -14 l 1,-15 v -15 -15 -15 -14 l 1,-14 v -13 -12 -11 -10 l 1,-9 v -7 -6 -5 -3 l 1,-2 v 0 2 3 l 1,4 v 6 7 9 9 l 1,11 v 12 13 13 14 l 1,14 v 15 15 15 l 1,15 v 15 14 13 13 l 1,12 v 11 10 8 7 l 1,6 v 5 2 2 h 1 v -2 -3 -5 -6 l 1,-8 v -8 -10 -11 -12 l 1,-13 v -13 -15 -14 l 1,-15 v -15 -15 -15 -14 l 1,-14 v -14 -12 -12 -11 l 1,-9 v -9 -7 -5 l 1,-4 v -3 -1 1 2 l 1,3 v 5 6 8 9 l 1,10 v 11 12 13 l 1,14 v 14 15 15 15 l 1,15 v 14 15 14 13 l 1,12 v 12 11 9 8 l 1,7 v 5 4 2 l 1,1 v -1 -2 -4 -5 l 1,-7 v -8 -9 -10 -11 l 1,-13 v -13 -14 -14 l 1,-14 v -15 -15 -15 -15 l 1,-14 v -14 -13 -13 -11 l 1,-10 v -10 -7 -7 l 1,-5 v -3 -2 -1 1 l 1,3 v 4 5 7 8 l 1,10 v 10 12 12 l 1,13 v 14 14 15 15 l 1,15 v 15 15 14 14"
           stroke="#a5a5a5"
           stroke-width="2"
           stroke-linecap="round"
           stroke-linejoin="round"
           stroke-miterlimit="10"
           fill="none"
           id="path4108" />
      </g>
      <g
         id="g4114">
        <path
           d="m 555,576 v -4 -2 -1 h 1 v 0 0 0 0 h 1 v 0 0 -1 0 h 1 v 0 0 0 h 1 v 0 0 0 0 h 1 v 0 0 0 0 h 1 v 0 0 0 0 h 1 v 0 0 0 h 1 v 0 0 0 0 h 1 v 0 0 0 0 h 1 v 0 0 0 h 1 v 0 0 0 0 h 1 v 0 0 0 0 h 1 v 0 0 0 h 1 v 0 0 0 0 h 1 v 0 0 0 0 h 1 v 0 0 0 h 1 v 0 0 0 0 h 1 v 0 0 0 0 h 1 v 0 0 0 h 1 v 0 0 0 0 h 1 v 0 0 0 0 h 1 v 0 0 0 h 1 v 0 0 0 0 h 1 v 0 0 0 0 h 1 v 0 0 0 0 h 1 v 0 0 0 h 1 v 0 0 0 0 h 1 v 0 0 -1 0 h 1 v 0 0 0 h 1 v 0 0 0 0 h 1 v 0 0 0 0 l 1,1 v 0 0 0 h 1 v 0 0 0 0 h 1 v 0 0 0 0 h 1 v 0 0 0 h 1 v 0 0 0 0 h 1 v 0 0 0 0 h 1 v 0 0 0 h 1 v 0 0 0 0 h 1 v 0 0 0 0 h 1 v 0 0 0 h 1 v 0 0 0 0 h 1 v 0 0 -1 0 h 1 v 0 0 0 0 h 1 v 0 0 0 h 1 v 0 0 0 0 h 1 v 0 0 0 0 h 1 v 0 0 0 h 1 v 0 0 0 0 h 1 v 0 0 1 0 h 1 v 0 0 0 h 1 v 0 0 0 0 h 1 v 0 0 0 0 h 1 v 0 0 0 h 1 v 0 0 0 0 h 1 v 0 0 0 0 h 1 v 0 0 0 h 1 v 0 0 0 0 h 1 v 0 0 0 0 h 1 v -1 0 0 h 1 v 0 0 0 0 h 1 v 0 0 0 0 h 1 v 0 0 0 0 h 1 v 0 -1 0 h 1 v 1 0 0 0 h 1 v 0 0 0 0 h 1 v 0 0 0 h 1 v 0 0 0 1 h 1 v 0 0 0 0 h 1 v 0 0 1 h 1 v 0 0 0 0 h 1 v 0 0 0 0 h 1 v 0 0 0 h 1 v 0 0 0 0 h 1 v 0 0 0 0 h 1 v 0 -1 0 h 1 v 0 0 0 0 l 1,-1 v 0 0 0 0 l 1,-1 v 0 0 0 h 1 v 0 -1 0 0 h 1 v 0 0 0 0 h 1 v 0 0 0 0 h 1 v 0 0 0 h 1 v 0 0 0 0 l 1,1 v 0 0 0 0 l 1,1 v 0 0 1 h 1 v 0 0 1 0 h 1 v 1 0 0 1 h 1 v 0 0 1 h 1 v 0 0 0 0 l 1,1 v 0 0 0 0 h 1 v 0 0 -1 h 1 v 0 0 0 -1 h 1 v 0 -1 0 0 l 1,-1 v 0 -1 0 l 1,-1 v 0 -1 0 -1 h 1 v -1 0 -1 0 l 1,-1 v 0 -1 0 h 1 v -1 0 0 -1 h 1 v 0 0 0 0 h 1 v 0 0 0 h 1 v 1 0 1 0 l 1,1 v 0 1 0 1 l 1,1 v 1 0 1 1 l 1,1 v 1 1 1 l 1,1 v 1 1 0 1 l 1,1 v 1 1 0 1 l 1,1 v 0 1 0 h 1 v 0 1 0 0 l 1,-1 v 0 0 -1 0 l 1,-1 v -1 -1 -1 l 1,-1 v -1 -1 -1 -2 l 1,-1 v -2 -1 -2 -1 l 1,-2 v -2 -1 -2 l 1,-2 v -1 -2 -1 -1 l 1,-2 v -1 -1 -1 0 l 1,-1 v 0 -1 0 h 1 v 0 1 0 1 l 1,1 v 1 2 1 2 l 1,2 v 2 2 2 l 1,2 v 3 2 3 3 l 1,2 v 3 3 3 2 l 1,3 v 2 2 3 2 l 1,1 v 2 1 1 l 1,1 v 1 0 0 0 l 1,-1 v -1 -1 -2 -2 l 1,-2 v -2 -3 -3 l 1,-3 v -4 -4 -3 -4 l 1,-4 v -4 -5 -4 -4 l 1,-4 v -4 -3 -4 l 1,-3 v -4 -2 -3 -2 l 1,-2 v -1 -1 -1 0 l 1,1 v 1 1 2 l 1,2 v 3 3 4 4 l 1,4 v 5 5 5 5 l 1,6 v 5 6 6 l 1,6 v 5 6 5 5 l 1,5 v 4 4 4 3 l 1,2 v 2 1 1 h 1 v 0 -2 -2 -2 l 1,-3 v -4 -4 -5 -5 l 1,-6 v -6 -7 -7 -7 l 1,-7 v -8 -7 -8 l 1,-7 v -7 -7 -7 -6 l 1,-6 v -5 -5 -4 -3 l 1,-3 v -1 -1 -1 l 1,1 v 1 3 3 4 l 1,4 v 6 6 6 7 l 1,8 v 8 9 9 l 1,9 v 9 9 9 9 l 1,8 v 9 8 7 7 l 1,6 v 5 5 3 l 1,3 v 2 1 0 -2 l 1,-2 v -3 -4 -5 -6 l 1,-6 v -8 -8 -9 l 1,-9 v -10 -10 -10 -11 l 1,-11 v -10 -10 -11 -9 l 1,-10 v -8 -8 -8 l 1,-6 v -5 -5 -3 -3 l 1,-1 v 0 1 3 3 l 1,4 v 6 6 8 8 l 1,9 v 10 10 11 l 1,12 v 11 12 12 12 l 1,11 v 12 10 11 9 l 1,9 v 8 7 6 l 1,5 v 4 2 2 0 l 1,-2 v -2 -4 -5 -6 l 1,-7 v -8 -10 -10 l 1,-10 v -12 -12 -12 -13 l 1,-12 v -13 -13 -13 -12 l 1,-11 v -11 -11 -9 l 1,-8 v -8 -6 -5 -4 l 1,-2 v -1 0 2 3 l 1,4 v 6 7 8 l 1,9 v 10 11 11 13 l 1,12 v 14 13 14 13 l 1,14 v 13 12 13 l 1,11 v 10 10 9 7 l 1,6 v 5 3 2 1 l 1,-1 v -2 -4 -5 -7 l 1,-7 v -9 -10 -10 l 1,-12 v -12 -14 -13 -14 l 1,-14 v -14 -14 -14 -14 l 1,-13 v -12 -11 -11 l 1,-9 v -9 -7 -5 -5 l 1,-3 v -1 0 2 3 l 1,4 v 6 7 8 l 1,10 v 10 12 12 13 l 1,14 v 14 14 15 15 l 1,14 v 14 14 13 l 1,12 v 11 10 10 8 l 1,6 v 5 4 2 1 l 1,-1 v -2 -4 -5 l 1,-7 v -8 -9 -10 -11 l 1,-13 v -13 -13 -14 -15 l 1,-15 v -15 -14 -15 l 1,-14 v -13 -13 -12 -11 l 1,-10 v -9 -7 -6 -5 l 1,-3 v -1 0 2 3 l 1,4 v 6 8 9 l 1,9 v 11 12 13 14 l 1,14 v 14 15 15 15 l 1,15 v 15 14 13 l 1,13 v 11 11 9 8 l 1,7 v 5 4 2 1 l 1,-1 v -3 -4 -5 l 1,-7 v -9 -9 -11 -11 l 1,-13 v -13 -14 -15 -15 l 1,-15 v -15 -15 -15 l 1,-14 v -14 -13 -12 -11 l 1,-10 v -9 -7 -6 -5 l 1,-2 v -2 1 1 l 1,4 v 5 6 8 9 l 1,10 v 11 13 13 14 l 1,14 v 15 15 15 l 1,16 v 15 14 14 14 l 1,12 v 12 10 10 8 l 1,6 v 5 4 2 0 l 1,-1 v -3 -4 -6 l 1,-7 v -9 -9 -11 -12 l 1,-13 v -14 -14 -15 -15 l 1,-15 v -16 -15 -15 l 1,-14 v -14 -13 -12 -11 l 1,-10 v -8 -7 -6 -4 l 1,-3 v -1 1 2 l 1,4 v 5 6 8 10 l 1,10 v 12 12 14 14 l 1,14 v 15 16 15 l 1,15 v 15 15 14 14 l 1,12 v 12 10 9 8 l 1,6 v 5 3 2 h 1 v -2 -3 -4 -7 l 1,-7 v -9 -10 -11 -12 l 1,-13 v -14 -15 -15 l 1,-15 v -15 -16 -15 -15 l 1,-14 v -14 -13 -11 -11 l 1,-10 v -8 -7 -6 l 1,-3 v -3 0 0 3 l 1,4 v 6 6 9 9 l 1,11 v 12 13 13 15 l 1,14 v 15 16 15 l 1,15 v 16 14 14 13 l 1,13 v 11 10 9 7 l 1,6 v 5 3 1 h 1 v -2 -3 -5 -7 l 1,-8 v -9 -10 -11 -13 l 1,-13 v -14 -15 -15 l 1,-15 v -15 -16 -15 -15 l 1,-14 v -14 -12 -12 -11 l 1,-9 v -8 -7 -5 l 1,-3 v -2 -1 2 2 l 1,5 v 6 7 9 9 l 1,11 v 13 12 14 l 1,15 v 14 16 15 16 l 1,15 v 15 14 14 13 l 1,12 v 11 10 9 l 1,7 v 6 4 2 1 h 1 v -2 -4 -5 -7 l 1,-8 v -10 -10 -12 -13 l 1,-13 v -14 -15 -15 l 1,-15 v -16 -15 -15 -15 l 1,-14 v -13 -13 -12 -10 l 1,-9 v -8 -6 -5 l 1,-3 v -2 0 2 3 l 1,5 v 6 8 9 10 l 1,11 v 12 13 14 l 1,15 v 15 15 16 15 l 1,15 v 15 14 14 13 l 1,12 v 11 9 9 l 1,7 v 5 4 2 1 l 1,-1 v -3 -4 -6 -7 l 1,-8 v -10 -11 -12 l 1,-12 v -14 -14 -15 -15 l 1,-16 v -15 -16 -15 -14 l 1,-14 v -13 -13 -11 l 1,-10 v -9 -7 -6 -5 l 1,-3 v -1 1 2 3 l 1,5 v 7 8 9 10 l 1,12 v 12 13 15 l 1,14 v 15 16 15 15 l 1,16 v 14 15 13 13 l 1,12 v 10 9 8 l 1,7 v 5 3 2 0 l 1,-1 v -3 -4 -6 -8 l 1,-8 v -10 -11 -12 l 1,-13 v -14 -15 -15 -15 l 1,-15 v -16 -15 -15 -14 l 1,-14 v -13 -12 -11 l 1,-10 v -9 -7 -5 -4 l 1,-3 v -1 1 2 4 l 1,5 v 7 8 10 l 1,11 v 11 13 14 14 l 1,15 v 15 15 15 16 l 1,15 v 15 14 13 l 1,13 v 11 10 9 8 l 1,6 v 5 3 1 0 l 1,-1 v -4 -4 -7 -7 l 1,-9 v -11 -11 -12 l 1,-13 v -14 -15 -15 -15 l 1,-16 v -15 -15 -15 -15 l 1,-13 v -13 -12 -11 l 1,-9 v -8 -7 -5 -4 l 1,-2 v -1 1 3 4 l 1,6 v 7 9 9 l 1,11 v 12 13 14 14 l 1,15 v 15 16 15 15 l 1,15 v 15 14 13 l 1,12 v 12 10 8 8 l 1,5 v 5 2 2 -1 l 1,-2 v -4 -5 -6 l 1,-8 v -10 -10 -12 -12 l 1,-14 v -14 -14 -15 -16 l 1,-15 v -16 -15 -15 l 1,-14 v -13 -13 -12 -10 l 1,-9 v -8 -7 -4 -4 l 1,-2 v 0 2 3 4 l 1,6 v 8 9 10 l 1,11 v 12 13 14 14 l 1,15 v 16 15 16 15 l 1,15 v 14 14 13 l 1,12 v 11 10 8 7 l 1,6 v 3 3 1 -1 l 1,-3 v -4 -5 -7 l 1,-8 v -10 -11 -11 -13 l 1,-14 v -14 -15 -15 -15 l 1,-16 v -15 -15 -15 l 1,-14 v -13 -13 -11 -10 l 1,-9 v -8 -6 -4 -3 l 1,-2 v 0 2 4 l 1,5 v 6 8 9 10 l 1,12 v 12 13 14 15 l 1,15 v 15 16 15 l 1,15 v 15 14 14 13 l 1,12 v 10 10 8 6 l 1,6 v 3 2 1 -2 l 1,-2 v -5 -6 -7 l 1,-8 v -10 -11 -12 -13 l 1,-14 v -14 -15 -15 -16 l 1,-15 v -16 -15 -14 l 1,-14 v -13 -12 -12 -9 l 1,-9 v -7 -6 -4 -3 l 1,-1 v 1 2 4 l 1,5 v 7 8 9 11 l 1,11 v 13 13 15 14 l 1,15 v 16 15 16 l 1,15 v 14 15 13 13 l 1,11 v 11 9 7 7 l 1,5 v 3 1 0 l 1,-1 v -3 -5 -6 -8 l 1,-9 v -10 -11 -12 -13 l 1,-14 v -15 -15 -15 l 1,-15 v -16 -15 -15 -14 l 1,-14 v -13 -12 -11 -10 l 1,-8 v -7 -5 -4 -2 l 1,-1 v 1 3 4 l 1,5 v 7 9 9 11 l 1,12 v 13 14 14 15 l 1,15 v 15 16 15 l 1,15 v 15 14 13 12 l 1,12 v 10 9 7 6 l 1,4 v 3 2 -1 l 1,-2 v -3 -5 -7 -8 l 1,-9 v -10 -12 -12 -13 l 1,-14 v -15 -15 -16 l 1,-15 v -15 -16 -14 -15 l 1,-13 v -13 -12 -10 -10 l 1,-8 v -6 -5 -4 l 1,-1 v -1 2 2 5 l 1,6 v 7 9 10 11 l 1,12 v 13 14 14 l 1,15 v 15 16 15 16 l 1,14 v 15 14 13 12 l 1,11 v 10 8 7 l 1,6 v 4 3 1 -1 l 1,-2 v -4 -6 -6 -9 l 1,-9 v -11 -11 -13 -14 l 1,-14 v -15 -15 -15 l 1,-16 v -15 -15 -15 -14 l 1,-13 v -13 -11 -10 -10 l 1,-7 v -6 -5 -3 l 1,-2 v 0 2 3 5 l 1,6 v 8 9 10 12 l 1,12 v 13 14 15 l 1,15 v 15 15 16 15 l 1,15 v 14 14 13 12 l 1,10 v 10 8 7 l 1,5 v 4 2 1 -1 l 1,-3 v -4 -6 -7 -9 l 1,-9 v -11 -12 -13 l 1,-14 v -14 -15 -15 -16 l 1,-15 v -15 -15 -15 -14 l 1,-13 v -12 -12 -10 l 1,-8 v -8 -6 -4 -3 l 1,-1 v 1 2 3 5 l 1,7 v 8 9 11 11 l 1,13 v 13 14 15 l 1,15 v 15 16 15 15 l 1,15 v 14 14 13 11 l 1,11 v 9 8 6 l 1,5 v 4 1 0 -1 l 1,-3 v -4 -7 -7 -9 l 1,-10 v -11 -12 -13 l 1,-14 v -14 -15 -16 -15 l 1,-16 v -15 -15 -14 -14 l 1,-13 v -12 -11 -10 l 1,-8 v -7 -6 -4 -2 l 1,-1 v 1 2 4 6 l 1,7 v 8 10 10 l 1,12 v 13 13 15 14 l 1,16 v 15 15 16 15 l 1,15 v 14 13 12 l 1,12 v 10 9 7 7 l 1,4 v 3 2 -1 -1 l 1,-4 v -5 -6 -8 -9 l 1,-10 v -12 -12 -13 l 1,-14 v -15 -15 -15 -16 l 1,-15 v -15 -15 -14 -14 l 1,-13 v -12 -10 -10 l 1,-8 v -7 -5 -3 -2 l 1,-1 v 1 3 4 6 l 1,7 v 9 10 11 l 1,12 v 13 14 14 15 l 1,15 v 15 16 15 15 l 1,15 v 14 13 12 l 1,11 v 10 9 7 6 l 1,4 v 3 1 -1 -2"
           stroke="#4472c4"
           stroke-width="2"
           stroke-linecap="round"
           stroke-linejoin="round"
           stroke-miterlimit="10"
           fill="none"
           id="path4112" />
      </g>
      <g
         id="g4118">
        <path
           d="m 555,576 v -5 -2 0 h 1 v 0 0 0 0 h 1 v -1 0 0 0 h 1 v 0 0 0 h 1 v 0 0 0 0 h 1 v 0 0 0 0 h 1 v 0 0 0 0 h 1 v 0 0 0 h 1 v 0 0 0 0 h 1 v 0 0 0 0 h 1 v 0 0 0 h 1 v 0 0 0 0 h 1 v 0 0 0 0 h 1 v 0 0 0 h 1 v 0 0 0 0 h 1 v 0 0 0 0 h 1 v 0 0 0 h 1 v 0 0 0 0 h 1 v 0 0 0 0 h 1 v 0 0 0 h 1 v 0 0 0 0 h 1 v 0 0 0 0 h 1 v 0 0 0 h 1 v 0 0 0 0 h 1 v 0 0 0 0 h 1 v 0 0 0 0 h 1 v 0 0 -1 h 1 v 0 0 0 0 h 1 v 0 0 0 0 h 1 v 0 0 0 h 1 v 1 0 0 0 h 1 v 0 0 0 0 h 1 v 0 0 0 h 1 v 0 0 0 0 h 1 v 0 0 0 0 h 1 v 0 0 0 h 1 v 0 0 0 0 h 1 v 0 0 0 0 h 1 v 0 0 0 h 1 v 0 0 0 0 h 1 v 0 0 0 0 h 1 v 0 -1 0 h 1 v 0 0 0 0 h 1 v 0 0 0 0 h 1 v 0 0 0 0 h 1 v 0 0 0 h 1 v 0 0 0 0 h 1 v 0 0 0 0 h 1 v 1 0 0 h 1 v 0 0 0 0 h 1 v 0 0 0 0 h 1 v 0 0 0 h 1 v 0 0 0 0 h 1 v 0 0 0 0 h 1 v 0 0 0 h 1 v 0 0 0 0 h 1 v 0 0 0 0 h 1 v 0 -1 0 h 1 v 0 0 0 0 h 1 v 0 0 0 0 h 1 v 0 0 0 h 1 v 0 0 0 0 h 1 v 0 0 0 0 h 1 v 0 0 0 0 h 1 v 0 0 0 h 1 v 0 0 1 0 h 1 v 0 0 0 0 h 1 v 0 0 0 l 1,1 v 0 0 0 0 h 1 v 0 0 0 0 h 1 v 0 0 0 h 1 v 0 0 0 0 h 1 v 0 0 0 0 l 1,-1 v 0 0 0 h 1 v 0 0 -1 0 h 1 v 0 0 0 0 l 1,-1 v 0 0 0 h 1 v 0 0 -1 0 h 1 v 0 0 0 0 h 1 v 0 0 0 h 1 v 0 0 0 0 l 1,1 v 0 0 0 0 h 1 v 1 0 0 0 h 1 v 1 0 0 l 1,1 v 0 0 0 1 h 1 v 0 0 0 1 h 1 v 0 0 0 h 1 v 1 0 0 0 h 1 v 0 0 0 0 l 1,-1 v 0 0 0 h 1 v -1 0 0 0 l 1,-1 v 0 0 -1 0 l 1,-1 v 0 0 -1 h 1 v -1 0 -1 0 h 1 v -1 0 -1 0 h 1 v 0 -1 0 h 1 v 0 0 0 0 h 1 v 0 0 0 0 h 1 v 1 0 0 l 1,1 v 0 1 0 1 h 1 v 1 1 0 1 l 1,1 v 0 1 1 h 1 v 1 1 0 1 l 1,1 v 0 1 1 0 h 1 v 1 0 1 0 h 1 v 0 0 0 h 1 v 0 -1 0 0 l 1,-1 v 0 -1 -1 0 l 1,-1 v -1 -1 -1 l 1,-1 v -1 -1 -2 -1 l 1,-1 v -1 -1 -2 -1 l 1,-1 v -1 -1 -1 l 1,-1 v -1 -1 -1 0 l 1,-1 v 0 -1 0 0 h 1 v 0 0 1 h 1 v 1 1 1 1 l 1,1 v 1 2 1 2 l 1,1 v 2 2 2 l 1,2 v 2 2 2 2 l 1,2 v 2 2 2 2 l 1,1 v 2 1 1 l 1,1 v 1 1 1 0 h 1 v 0 -1 0 -1 l 1,-1 v -1 -2 -2 -1 l 1,-3 v -2 -3 -2 l 1,-3 v -3 -3 -3 -4 l 1,-3 v -3 -3 -3 -3 l 1,-3 v -3 -3 -3 l 1,-2 v -2 -2 -1 -1 l 1,-1 v -1 0 0 1 l 1,1 v 1 1 2 l 1,3 v 2 4 3 3 l 1,4 v 4 5 4 5 l 1,4 v 5 5 5 l 1,4 v 5 4 4 4 l 1,4 v 3 3 2 2 l 1,2 v 1 0 0 h 1 v -1 -2 -2 -3 l 1,-3 v -3 -4 -5 -5 l 1,-5 v -6 -5 -6 l 1,-7 v -6 -6 -6 -7 l 1,-6 v -6 -5 -6 -5 l 1,-4 v -4 -4 -3 -2 l 1,-1 v -1 -1 1 l 1,1 v 1 3 3 4 l 1,4 v 5 6 6 7 l 1,6 v 8 7 8 l 1,8 v 8 8 8 7 l 1,7 v 7 7 6 5 l 1,5 v 4 4 2 l 1,2 v 1 0 0 -2 l 1,-2 v -4 -4 -5 -5 l 1,-7 v -7 -7 -8 l 1,-9 v -8 -10 -9 -9 l 1,-10 v -9 -9 -9 -8 l 1,-8 v -7 -7 -6 l 1,-5 v -4 -3 -3 -1 l 1,-1 v 1 2 2 4 l 1,5 v 5 6 8 l 1,7 v 9 9 10 10 l 1,10 v 11 10 11 10 l 1,11 v 10 9 9 8 l 1,7 v 7 6 4 l 1,4 v 3 1 1 -1 l 1,-2 v -3 -4 -6 -6 l 1,-7 v -8 -9 -10 l 1,-10 v -10 -12 -11 -12 l 1,-11 v -12 -11 -11 -11 l 1,-10 v -10 -8 -8 l 1,-7 v -6 -5 -4 -2 l 1,-1 v 0 1 3 3 l 1,5 v 6 7 8 l 1,9 v 10 11 11 11 l 1,13 v 12 12 13 12 l 1,12 v 12 11 11 l 1,9 v 9 8 7 6 l 1,4 v 4 2 0 0 l 1,-2 v -4 -4 -6 l 1,-7 v -8 -9 -10 -10 l 1,-12 v -12 -12 -13 -13 l 1,-13 v -13 -13 -12 -12 l 1,-12 v -10 -10 -9 l 1,-7 v -7 -5 -4 -3 l 1,-1 v 0 1 3 4 l 1,6 v 6 8 9 l 1,10 v 11 11 13 12 l 1,13 v 14 13 14 13 l 1,13 v 13 12 11 l 1,10 v 10 8 7 6 l 1,5 v 3 2 0 -1 l 1,-2 v -4 -5 -6 l 1,-8 v -9 -10 -10 -12 l 1,-12 v -13 -13 -14 -14 l 1,-14 v -13 -14 -13 l 1,-12 v -12 -11 -10 -9 l 1,-8 v -6 -5 -4 -2 l 1,-1 v 0 3 3 l 1,5 v 6 7 9 10 l 1,10 v 12 12 13 13 l 1,14 v 14 14 14 14 l 1,13 v 13 12 12 l 1,10 v 9 9 6 6 l 1,4 v 3 1 0 -2 l 1,-3 v -4 -6 -7 l 1,-9 v -9 -11 -11 -12 l 1,-13 v -14 -13 -15 -14 l 1,-14 v -14 -14 -13 l 1,-12 v -12 -11 -9 -9 l 1,-7 v -6 -5 -3 -2 h 1 v 1 3 4 l 1,6 v 7 8 9 11 l 1,11 v 12 13 13 14 l 1,14 v 15 14 14 l 1,14 v 13 13 12 11 l 1,10 v 9 8 6 5 l 1,4 v 2 0 -1 l 1,-2 v -4 -5 -7 -8 l 1,-9 v -10 -11 -12 -13 l 1,-13 v -14 -14 -15 -14 l 1,-14 v -14 -14 -13 l 1,-12 v -11 -11 -9 -8 l 1,-7 v -5 -4 -2 -1 h 1 v 2 4 5 l 1,6 v 8 9 10 11 l 1,12 v 12 14 13 15 l 1,14 v 14 15 14 l 1,14 v 13 12 12 11 l 1,9 v 8 7 6 4 l 1,3 v 1 0 -2 l 1,-3 v -5 -6 -7 -9 l 1,-10 v -10 -12 -13 -13 l 1,-14 v -14 -14 -15 l 1,-14 v -14 -14 -13 -13 l 1,-12 v -11 -10 -8 -8 l 1,-5 v -5 -3 -2 h 1 v 2 3 4 6 l 1,7 v 8 10 10 12 l 1,12 v 14 13 14 l 1,15 v 14 15 14 14 l 1,13 v 13 12 11 10 l 1,9 v 8 6 5 3 l 1,2 v 1 -1 -3 l 1,-4 v -6 -7 -8 -9 l 1,-10 v -12 -12 -13 -14 l 1,-14 v -14 -14 -15 l 1,-14 v -14 -14 -13 -12 l 1,-11 v -11 -9 -8 -6 l 1,-6 v -3 -3 0 l 1,1 v 2 4 5 7 l 1,7 v 10 10 11 12 l 1,13 v 13 14 15 l 1,14 v 15 14 14 14 l 1,13 v 12 12 10 10 l 1,8 v 7 5 4 l 1,3 v 1 -1 -2 -3 l 1,-5 v -6 -8 -9 -10 l 1,-11 v -12 -12 -14 l 1,-14 v -14 -14 -15 -14 l 1,-15 v -14 -13 -12 -12 l 1,-11 v -9 -9 -7 -6 l 1,-4 v -3 -1 0 l 1,2 v 3 5 6 7 l 1,9 v 9 11 12 12 l 1,14 v 13 15 14 l 1,15 v 14 14 14 14 l 1,13 v 11 11 10 9 l 1,7 v 6 5 3 l 1,2 v 0 -2 -2 -5 l 1,-6 v -7 -8 -10 -10 l 1,-12 v -12 -13 -14 l 1,-14 v -14 -15 -15 -14 l 1,-14 v -13 -13 -12 -12 l 1,-10 v -9 -7 -7 l 1,-5 v -3 -2 0 1 l 1,2 v 4 6 7 8 l 1,9 v 11 11 12 l 1,13 v 14 14 14 15 l 1,14 v 15 14 13 13 l 1,13 v 11 10 10 8 l 1,6 v 5 4 2 l 1,1 v -1 -2 -4 -5 l 1,-7 v -7 -10 -10 -11 l 1,-12 v -13 -13 -14 l 1,-15 v -14 -15 -14 -14 l 1,-14 v -13 -13 -11 -11 l 1,-9 v -8 -7 -6 l 1,-4 v -2 -1 0 2 l 1,4 v 4 7 7 9 l 1,10 v 11 12 13 l 1,13 v 14 14 15 14 l 1,15 v 14 14 13 13 l 1,12 v 10 10 8 l 1,8 v 5 5 3 1 h 1 v -2 -3 -5 -6 l 1,-7 v -9 -9 -11 l 1,-12 v -13 -13 -14 -14 l 1,-14 v -15 -14 -15 -14 l 1,-13 v -13 -12 -11 -9 l 1,-9 v -8 -6 -4 l 1,-4 v -1 0 1 3 l 1,4 v 6 7 8 10 l 1,11 v 11 13 13 l 1,13 v 15 14 15 14 l 1,14 v 14 14 13 12 l 1,11 v 10 9 8 l 1,6 v 5 4 2 0 l 1,-1 v -3 -4 -5 -7 l 1,-8 v -9 -11 -11 l 1,-12 v -13 -14 -14 -14 l 1,-15 v -14 -15 -14 -14 l 1,-13 v -12 -11 -11 l 1,-9 v -8 -6 -6 -3 l 1,-3 v 0 0 3 3 l 1,6 v 6 8 9 l 1,10 v 11 13 12 14 l 1,14 v 14 15 14 15 l 1,14 v 14 13 12 12 l 1,10 v 10 8 7 l 1,5 v 4 3 1 0 l 1,-2 v -4 -5 -6 -8 l 1,-8 v -10 -11 -12 l 1,-13 v -13 -14 -15 -14 l 1,-15 v -14 -14 -14 -14 l 1,-12 v -12 -11 -9 l 1,-9 v -7 -6 -4 -3 l 1,-1 v 0 2 3 4 l 1,6 v 8 8 10 l 1,11 v 12 12 13 14 l 1,14 v 15 14 15 14 l 1,14 v 14 12 12 l 1,11 v 10 9 7 6 l 1,5 v 3 2 0 -1 l 1,-3 v -5 -5 -7 l 1,-9 v -9 -11 -11 -13 l 1,-13 v -14 -14 -14 -15 l 1,-14 v -15 -14 -13 -13 l 1,-12 v -11 -11 -8 l 1,-8 v -7 -5 -3 -2 h 1 v 1 2 4 6 l 1,7 v 8 9 10 l 1,12 v 12 13 14 14 l 1,14 v 14 15 14 15 l 1,13 v 13 13 11 l 1,10 v 9 8 7 5 l 1,4 v 2 1 -1 -2 l 1,-4 v -5 -6 -8 l 1,-9 v -11 -11 -12 -13 l 1,-13 v -14 -14 -15 -14 l 1,-15 v -14 -14 -13 l 1,-12 v -12 -11 -9 -8 l 1,-7 v -6 -4 -2 -1 h 1 v 2 3 5 l 1,7 v 7 9 10 11 l 1,12 v 13 13 14 14 l 1,15 v 14 15 14 14 l 1,13 v 13 11 11 l 1,10 v 8 8 5 5 l 1,3 v 1 0 -2 -3 l 1,-5 v -6 -7 -9 l 1,-9 v -11 -12 -12 -14 l 1,-13 v -15 -14 -15 -14 l 1,-14 v -14 -14 -13 l 1,-11 v -11 -10 -9 -8 l 1,-6 v -4 -4 -1 0 l 1,1 v 3 4 6 l 1,7 v 8 10 10 12 l 1,12 v 14 13 14 15 l 1,14 v 15 14 14 l 1,14 v 13 12 11 10 l 1,9 v 8 6 5 4 l 1,2 v 0 -1 -3 l 1,-4 v -5 -7 -8 -9 l 1,-11 v -11 -12 -13 -14 l 1,-14 v -14 -15 -14 l 1,-15 v -14 -13 -13 -13 l 1,-11 v -10 -10 -8 -6 l 1,-6 v -3 -3 0 0 l 1,3 v 3 5 7 l 1,8 v 9 10 11 12 l 1,13 v 14 14 14 14 l 1,15 v 14 15 13 l 1,14 v 12 12 10 10 l 1,8 v 7 5 4 3 l 1,1 v 0 -2 -4 l 1,-5 v -6 -8 -8 -10 l 1,-11 v -12 -13 -13 -14 l 1,-14 v -15 -14 -15 l 1,-14 v -14 -13 -13 -12 l 1,-10 v -10 -9 -7 -6 l 1,-4 v -3 -1 0 l 1,1 v 4 4 6 8 l 1,8 v 10 11 11 13 l 1,13 v 14 14 15 l 1,14 v 15 14 14 13 l 1,13 v 12 11 10 9 l 1,7 v 6 5 3 2 h 1 v -1 -3 -5 l 1,-5 v -7 -9 -9 -11 l 1,-11 v -13 -13 -13 -15 l 1,-14 v -15 -14 -14 l 1,-15 v -13 -13 -12 -11 l 1,-10 v -9 -8 -7 -4 l 1,-4 v -2 0 1 l 1,2 v 4 6 6 9 l 1,9 v 10 12 12 13 l 1,13 v 14 15 14 l 1,15 v 14 14 14 13 l 1,12 v 12 10 9 8 l 1,7 v 5 4 2 l 1,1 v -1 -2 -4 -5 l 1,-6 v -8 -9 -10 -12 l 1,-12 v -12 -14 -14 l 1,-14 v -15 -14 -15 -14 l 1,-14 v -13 -12 -12 -10 l 1,-10 v -8 -7 -6 -4 l 1,-2 v -1 0 2 l 1,3 v 5 7 7 9 l 1,10 v 11 12 12 14 l 1,14 v 14 14 15 l 1,14 v 15 14 13 13 l 1,11 v 11 10 8 7 l 1,6 v 5 3 1 h 1 v -2 -3 -5 -6 l 1,-7 v -8 -10 -11 -12 l 1,-12 v -13 -14 -14 l 1,-15 v -14 -15 -14 -14 l 1,-14 v -12 -12 -11 -10"
           stroke="#ed7d31"
           stroke-width="2"
           stroke-linecap="round"
           stroke-linejoin="round"
           stroke-miterlimit="10"
           fill="none"
           id="path4116" />
      </g>
      <g
         id="g4122">
        <text
           font-family="Arial, Arial_MSFontService, sans-serif"
           font-weight="400"
           font-size="12px"
           transform="translate(523.667,744)"
           id="text4120">-0.4</text>
      </g>
      <g
         id="g4126">
        <text
           font-family="Arial, Arial_MSFontService, sans-serif"
           font-weight="400"
           font-size="12px"
           transform="translate(523.667,701)"
           id="text4124">-0.3</text>
      </g>
      <g
         id="g4130">
        <text
           font-family="Arial, Arial_MSFontService, sans-serif"
           font-weight="400"
           font-size="12px"
           transform="translate(523.667,657)"
           id="text4128">-0.2</text>
      </g>
      <g
         id="g4134">
        <text
           font-family="Arial, Arial_MSFontService, sans-serif"
           font-weight="400"
           font-size="12px"
           transform="translate(523.667,614)"
           id="text4132">-0.1</text>
      </g>
      <g
         id="g4138">
        <text
           font-family="Arial, Arial_MSFontService, sans-serif"
           font-weight="400"
           font-size="12px"
           transform="translate(537.667,570)"
           id="text4136">0</text>
      </g>
      <g
         id="g4142">
        <text
           font-family="Arial, Arial_MSFontService, sans-serif"
           font-weight="400"
           font-size="12px"
           transform="translate(527.66,526)"
           id="text4140">0.1</text>
      </g>
      <g
         id="g4146">
        <text
           font-family="Arial, Arial_MSFontService, sans-serif"
           font-weight="400"
           font-size="12px"
           transform="translate(527.66,483)"
           id="text4144">0.2</text>
      </g>
      <g
         id="g4150">
        <text
           font-family="Arial, Arial_MSFontService, sans-serif"
           font-weight="400"
           font-size="12px"
           transform="translate(527.66,439)"
           id="text4148">0.3</text>
      </g>
      <g
         id="g4154">
        <text
           font-family="Arial, Arial_MSFontService, sans-serif"
           font-weight="400"
           font-size="12px"
           transform="translate(527.66,396)"
           id="text4152">0.4</text>
      </g>
      <g
         id="g4158">
        <text
           font-family="Arial, Arial_MSFontService, sans-serif"
           font-weight="400"
           font-size="12px"
           transform="translate(551.324,584)"
           id="text4156">0</text>
      </g>
      <g
         id="g4162">
        <text
           font-family="Arial, Arial_MSFontService, sans-serif"
           font-weight="400"
           font-size="12px"
           transform="translate(654.737,584)"
           id="text4160">50</text>
      </g>
      <g
         id="g4166">
        <text
           font-family="Arial, Arial_MSFontService, sans-serif"
           font-weight="400"
           font-size="12px"
           transform="translate(758.151,584)"
           id="text4164">100</text>
      </g>
      <g
         id="g4170">
        <text
           font-family="Arial, Arial_MSFontService, sans-serif"
           font-weight="400"
           font-size="12px"
           transform="translate(864.902,584)"
           id="text4168">150</text>
      </g>
      <g
         id="g4174">
        <text
           font-family="Arial, Arial_MSFontService, sans-serif"
           font-weight="400"
           font-size="12px"
           transform="translate(971.652,584)"
           id="text4172">200</text>
      </g>
      <rect
         x="754"
         y="391"
         width="227"
         height="157"
         fill="#ffffff"
         id="rect4176" />
      <g
         id="g4180">
        <path
           d="m 793.5,533.5 h 163 m -163,-32 h 163 m -163,-64 h 163 m -163,-32 h 163"
           stroke="#d9d9d9"
           stroke-linejoin="round"
           stroke-miterlimit="10"
           fill="none"
           id="path4178" />
      </g>
      <g
         id="g4184">
        <path
           d="m 874.5,405.5 v 128 m 82,-128 v 128"
           stroke="#d9d9d9"
           stroke-linejoin="round"
           stroke-miterlimit="10"
           fill="none"
           id="path4182" />
      </g>
      <g
         id="g4188">
        <rect
           x="793.5"
           y="405.5"
           width="163"
           height="128"
           stroke="#000000"
           stroke-linejoin="round"
           stroke-miterlimit="10"
           fill="none"
           id="rect4186" />
      </g>
      <g
         id="g4192">
        <path
           d="M 0,0 1.04987e-4,128"
           stroke="#000000"
           stroke-linejoin="round"
           stroke-miterlimit="10"
           fill="none"
           fill-rule="evenodd"
           transform="matrix(1,0,0,-1,793.5,533.5)"
           id="path4190" />
      </g>
      <g
         id="g4196">
        <path
           d="m 793.5,533.5 h 3 m -3,-7 h 3 m -3,-6 h 3 m -3,-6 h 3 m -3,-7 h 3 m -3,-6 h 3 m -3,-6 h 3 m -3,-7 h 3 m -3,-6 h 3 m -3,-7 h 3 m -3,-6 h 3 m -3,-6 h 3 m -3,-7 h 3 m -3,-6 h 3 m -3,-7 h 3 m -3,-6 h 3 m -3,-6 h 3 m -3,-7 h 3 m -3,-6 h 3 m -3,-6 h 3 m -3,-7 h 3 m -6,128 h 7 m -7,-32 h 7 m -7,-32 h 7 m -7,-32 h 7 m -7,-32 h 7"
           stroke="#000000"
           stroke-linejoin="round"
           stroke-miterlimit="10"
           fill="none"
           id="path4194" />
      </g>
      <g
         id="g4200">
        <path
           d="m 793.5,469.5 h 163"
           stroke="#000000"
           stroke-linejoin="round"
           stroke-miterlimit="10"
           fill="none"
           fill-rule="evenodd"
           id="path4198" />
      </g>
      <g
         id="g4204">
        <path
           d="m 793.5,466.5 v 3 m 16,-3 v 3 m 17,-3 v 3 m 16,-3 v 3 m 16,-3 v 3 m 16,-3 v 3 m 17,-3 v 3 m 16,-3 v 3 m 16,-3 v 3 m 16,-3 v 3 m 17,-3 v 3 m -163,-4 v 8 m 81,-8 v 8 m 82,-8 v 8"
           stroke="#000000"
           stroke-linejoin="round"
           stroke-miterlimit="10"
           fill="none"
           id="path4202" />
      </g>
      <g
         clip-path="url(#clip1)"
         id="g4208">
        <path
           d="m -506,474 1,-4 1,1 h 1 v 0 h 1 1 1 1 v 0 h 1 1 1 1 1 v 0 h 1 1 1 1 v 0 h 1 1 l 1,-1 h 1 v 0 h 1 1 1 1 1 v 0 h 1 1 1 l 1,-1 v 0 h 1 1 1 1 v 0 h 1 1 1 1 1 v -1 h 1 1 1 1 v 0 h 1 1 1 1 v 0 h 1 1 1 1 l 1,1 v 0 h 1 1 1 1 v 0 h 1 1 1 1 v 1 h 1 1 1 1 1 v 0 h 1 1 l 1,1 h 1 v 0 h 1 1 1 1 v 0 h 1 1 1 1 1 v 0 h 1 1 1 1 v 0 h 1 1 1 1 v 0 h 1 1 l 1,-1 h 1 1 v 0 h 1 1 1 1 v 0 l 1,-1 h 1 1 1 v 0 h 1 1 1 1 l 1,-1 v 0 h 1 1 1 1 v 0 h 1 1 1 1 v 0 h 1 1 1 l 1,1 h 1 v 0 h 1 1 1 1 v 0 h 1 l 1,1 h 1 1 v 0 h 1 1 1 l 1,1 h 1 v 0 h 1 1 1 1 v 1 h 1 1 1 1 v 0 h 1 1 1 1 v 0 h 1 1 1 1 1 v 0 l 1,-1 h 1 1 1 v 0 h 1 l 1,-1 h 1 1 v 0 h 1 l 1,-1 h 1 1 1 v 0 l 1,-1 h 1 1 1 v 0 l 1,-1 h 1 1 1 v 0 h 1 1 1 l 1,-1 h 1 v 0 h 1 1 l 1,1 h 1 v 0 h 1 1 1 1 v 0 l 1,1 h 1 1 1 l 1,1 v 0 h 1 l 1,1 h 1 1 v 1 h 1 1 1 l 1,1 v 0 h 1 l 1,1 h 1 1 l 1,1 v 0 h 1 1 1 1 v 1 h 1 1 1 1 v 0 h 1 1 l 1,-1 h 1 1 v 0 l 1,-1 h 1 1 1 v -1 h 1 l 1,-1 h 1 l 1,-1 v 0 l 1,-1 h 1 l 1,-1 h 1 l 1,-1 v 0 l 1,-1 h 1 l 1,-1 h 1 v -1 h 1 1 l 1,-1 h 1 v 0 l 1,-1 h 1 1 1 1 v 0 h 1 1 1 1 v 0 l 1,1 h 1 1 l 1,1 v 0 l 1,1 h 1 l 1,1 1,1 h 1 v 1 l 1,1 1,1 1,1 h 1 v 1 l 1,1 1,1 1,1 1,1 v 0 l 1,1 1,1 1,1 h 1 l 1,1 v 1 h 1 1 l 1,1 h 1 v 0 h 1 1 1 1 v 0 l 1,-1 h 1 l 1,-1 h 1 l 1,-1 v -1 l 1,-1 1,-1 1,-1 1,-1 v -1 l 1,-2 1,-1 1,-1 1,-2 v -1 l 1,-1 1,-2 1,-1 1,-1 1,-2 v -1 l 1,-1 1,-1 1,-1 1,-1 v -1 h 1 l 1,-1 h 1 l 1,-1 v 0 h 1 1 l 1,1 h 1 v 1 l 1,1 1,1 1,1 1,1 1,1 v 2 l 1,1 1,2 1,2 1,2 v 2 l 1,2 1,2 1,2 1,1 v 2 l 1,2 1,2 1,2 1,2 1,1 v 2 l 1,1 1,1 1,1 1,1 v 1 h 1 1 1 1 v -1 h 1 l 1,-1 1,-1 1,-2 1,-1 v -2 l 1,-2 1,-2 1,-2 1,-2 v -3 l 1,-2 1,-3 1,-2 1,-3 v -3 l 1,-2 1,-3 1,-2 1,-2 1,-3 v -2 l 1,-2 1,-1 1,-2 1,-1 v -1 l 1,-1 1,-1 h 1 1 v 1 h 1 l 1,1 1,1 1,2 1,1 v 2 l 1,3 1,2 1,3 1,2 v 3 l 1,3 1,3 1,4 1,3 v 3 l 1,3 1,3 1,3 1,3 1,3 v 3 l 1,2 1,2 1,2 1,2 v 1 l 1,1 1,1 h 1 l 1,1 v -1 h 1 l 1,-1 1,-2 1,-1 1,-2 v -3 l 1,-2 1,-3 1,-3 1,-3 v -4 l 1,-3 1,-4 1,-4 1,-3 v -4 l 1,-4 1,-4 1,-3 1,-3 1,-4 v -3 l 1,-2 1,-3 1,-2 1,-2 v -2 l 1,-1 h 1 l 1,-1 h 1 v 1 l 1,1 1,1 1,1 1,2 1,3 v 2 l 1,3 1,3 1,4 1,4 v 4 l 1,4 1,4 1,4 1,4 v 4 l 1,4 1,4 1,4 1,4 1,4 v 3 l 1,3 1,2 1,3 1,2 v 1 l 1,1 1,1 h 1 1 v -1 l 1,-1 1,-2 1,-2 1,-2 1,-3 v -3 l 1,-3 1,-4 1,-4 1,-4 v -4 l 1,-5 1,-4 1,-5 1,-4 v -5 l 1,-4 1,-5 1,-4 1,-4 1,-3 v -4 l 1,-3 1,-2 1,-2 1,-2 v -1 l 1,-1 h 1 1 1 v 1 l 1,2 1,2 1,2 1,3 v 3 l 1,4 1,4 1,4 1,4 1,5 v 4 l 1,5 1,5 1,5 1,5 v 4 l 1,5 1,4 1,4 1,4 v 4 l 1,3 1,3 1,2 1,2 1,1 v 1 l 1,1 h 1 l 1,-1 1,-1 v -1 l 1,-2 1,-3 1,-3 1,-3 v -4 l 1,-4 1,-4 1,-4 1,-5 1,-5 v -5 l 1,-5 1,-5 1,-5 1,-5 v -5 l 0.99997,-4 1,-5 1,-4 1,-3 v -4 l 1,-3 1,-2 1,-2 1,-2 h 1 v -1 H -3.05176e-5 l 0.9999995176,1 1.000001,1 1,1 v 2 l 1,3 1,3 1,3 L 7,437 v 4 l 1,5 1,4 1,5 1,5 1,5 v 5 l 1,5 1,6 1,5 1,5 v 4 l 1,5 1,4 1,4 1,3 v 3 l 1,2 1,2 1,2 1,1 h 1 v 0 h 1 l 1,-1 1,-2 1,-2 v -3 l 1,-3 1,-3 1,-4 1,-4 v -5 l 1,-5 1,-5 1,-5 1,-5 1,-5 v -5 l 1,-6 1,-5 1,-5 1,-5 v -4 l 1,-4 1,-4 1,-3 1,-3 v -3 l 1,-2 1,-1 1,-1 1,-1 h 1 v 1 l 1,1 1,2 1,2 1,3 v 3 l 1,3 1,4 1,5 1,4 v 5 l 1,5 1,5 1,6 1,5 1,5 v 6 l 1,5 1,5 1,5 1,4 v 4 l 1,4 1,3 1,3 1,3 v 2 l 1,1 1,1 1,1 1,-1 h 1 v -2 l 1,-1 1,-3 1,-2 1,-4 v -3 l 1,-4 1,-5 1,-4 1,-5 v -5 l 1,-5 1,-6 1,-5 1,-6 1,-5 v -5 l 1,-5 1,-5 1,-4 1,-5 v -3 l 1,-4 1,-3 1,-2 1,-2 v -1 l 1,-1 1,-1 1,1 h 1 v 2 l 1,2 1,2 1,3 1,3 1,4 v 4 l 1,4 1,5 1,5 1,5 v 5 l 1,6 1,5 1,6 1,5 v 5 l 1,5 1,5 1,5 1,4 1,3 v 4 l 1,3 1,2 1,2 1,1 v 1 h 1 1 l 1,-1 1,-1 v -2 l 1,-3 1,-3 1,-3 1,-4 1,-4 v -5 l 1,-4 1,-5 1,-6 1,-5 v -5 l 1,-6 1,-5 1,-6 1,-5 v -5 l 1,-5 1,-4 1,-4 1,-4 1,-3 v -3 l 1,-2 1,-2 1,-1 1,-1 v 0 h 1 l 1,1 1,2 1,2 v 3 l 1,3 1,3 1,4 1,4 1,5 v 4 l 1,5 1,6 1,5 1,6 v 5 l 1,5 1,6 1,5 1,5 v 5 l 1,4 1,4 1,4 1,3 1,3 v 2 l 1,2 1,1 h 1 1 v 0 l 1,-1 1,-2 1,-2 1,-2 v -4 l 1,-3 1,-4 1,-4 1,-5 1,-5 v -5 l 1,-5 1,-6 1,-5 1,-6 v -5 l 1,-5 1,-6 1,-4 1,-5 v -5 l 1,-3 1,-4 1,-3 1,-3 1,-2 v -2 l 1,-1 h 1 1 l 1,1 v 1 l 1,1 1,3 1,2 1,4 v 3 l 1,4 1,4 1,5 1,5 1,5 v 5 l 1,6 1,5 1,6 1,5 v 6 l 1,5 1,5 1,4 1,5 v 4 l 1,3 1,3 1,3 1,2 1,1 v 1 l 1,1 1,-1 h 1 l 1,-2 v -1 l 1,-3 1,-2 1,-4 1,-3 v -4 l 1,-5 1,-5 1,-5 1,-5 1,-5 v -6 l 1,-5 1,-5 1,-6 1,-5 v -5 l 1,-5 1,-5 1,-4 1,-4 v -3 l 1,-3 1,-3 1,-2 1,-1 1,-1 v 0 h 1 l 1,1 1,1 1,2 v 2 l 1,3 1,4 1,3 1,5 v 4 l 1,5 1,5 1,5 1,5 v 6 l 1,5 1,6 1,5 1,5 1,6 v 4 l 1,5 1,4 1,4 1,3 v 3 l 1,2 1,2 1,2 h 1 v 1 l 1,-1 1,-1 1,-1 1,-2 1,-3 v -3 l 1,-3 1,-4 1,-4 1,-4 v -5 l 1,-5 1,-6 1,-5 1,-5 v -6 l 1,-5 1,-6 1,-5 1,-5 1,-5 v -4 l 1,-4 1,-4 1,-3 1,-3 v -3 l 1,-1 1,-1 1,-1 h 1 v 0 l 1,1 1,2 1,2 1,2 1,4 v 3 l 1,4 1,4 1,5 1,5 v 5 l 1,5 1,5 1,6 1,5 v 6 l 1,5 1,5 1,5 1,5 1,4 v 4 l 1,4 1,3 1,3 1,2 v 2 l 1,1 1,1 h 1 l 1,-1 v -1 l 1,-2 1,-2 1,-3 1,-3 1,-3 v -4 l 1,-5 1,-4 1,-5 1,-5 v -6 l 1,-5 1,-5 1,-6 1,-5 v -6 l 1,-5 1,-5 1,-5 1,-4 1,-4 v -3 l 1,-4 1,-2 1,-2 1,-2 v -1 h 1 1 l 1,1 1,1 v 1 l 1,3 1,2 1,4 1,3 1,4 v 5 l 1,4 1,5 1,6 1,5 v 5 l 1,6 1,5 1,6 1,5 v 5 l 1,5 1,5 1,4 1,4 1,3 v 3 l 1,3 1,2 1,1 1,1 v 1 l 1,-1 h 1 l 1,-2 1,-1 v -3 l 1,-3 1,-3 1,-4 1,-4 1,-4 v -5 l 1,-5 1,-5 1,-6 1,-5 v -5 l 1,-6 1,-5 1,-6 1,-5 v -5 l 1,-4 1,-4 1,-4 1,-4 1,-3 v -2 l 1,-2 1,-1 1,-1 h 1 v 0 l 1,1 1,1 1,2 1,3 v 3 l 1,3 1,4 1,4 1,4 1,5 v 5 l 1,5 1,6 1,5 1,6 v 5 l 1,6 1,5 1,5 1,5 v 4 l 1,4 1,4 1,4 1,2 v 3 l 1,2 1,1 1,1 h 1 l 1,-1 v -1 l 1,-1 1,-2 1,-3 1,-3 v -3 l 1,-4 1,-4 1,-5 1,-5 v -5 l 1,-5 1,-6 1,-5 1,-5 1,-6 v -5 l 1,-6 1,-5 1,-4 1,-5 v -4 l 1,-4 1,-3 1,-2 1,-3 v -1 l 1,-2 h 1 1 1 l 1,1 v 2 l 1,2 1,3 1,3 1,3 v 4 l 1,5 1,4 1,5 1,5 v 5 l 1,6 1,5 1,6 1,5 1,6 v 5 l 1,5 1,4 1,5 1,4 v 3 l 1,4 1,2 1,2 1,2 v 1 l 1,1 h 1 l 1,-1 1,-1 1,-2 v -2 l 1,-3 1,-3 1,-4 1,-4 v -4 l 1,-5 1,-5 1,-5 1,-5 v -6 l 1,-5 1,-6 1,-5 1,-5 1,-5 v -5 l 1,-5 1,-4 1,-4 1,-4 v -3 l 1,-2 1,-2 1,-2 1,-1 v 0 h 1 l 1,1 1,1 1,2 1,2 v 3 l 1,3 1,4 1,4 1,4 v 5 l 1,5 1,5 1,5 1,6 v 5 l 1,6 1,5 1,6 1,5 1,5 v 4 l 1,4 1,4 1,4 1,3 v 2 l 1,2 1,2 h 1 l 1,1 v -1 h 1 l 1,-2 1,-2 1,-2 1,-3 v -3 l 1,-4 1,-4 1,-5 1,-4 v -5 l 1,-6 1,-5 1,-6 1,-5 v -6 l 1,-5 1,-5 1,-5 1,-5 1,-5 v -4 l 1,-4 1,-3 1,-3 1,-2 v -2 l 1,-1 1,-1 h 1 1 v 1 l 1,1 1,2 1,3 1,3 1,3 v 4 l 1,4 1,5 1,5 1,5 v 5 l 1,5 1,6 1,5 1,6 v 5 l 1,5 1,5 1,5 1,5 1,4 v 4 l 1,3 1,3 1,2 1,2 v 1 l 1,1 h 1 l 1,-1 1,-1 v -1 l 1,-2 1,-3 1,-3 1,-4 v -4 l 1,-4 1,-4 1,-5 1,-5 1,-6 v -5 l 1,-6 1,-5 1,-6 1,-5 v -5 l 1,-5 1,-5 1,-4 1,-4 v -4 l 1,-3 1,-3 1,-2 1,-2 1,-1 v 0 h 1 1 l 1,1 1,2 v 2 l 1,3 1,3 1,4 1,4 v 4 l 1,5 1,5 1,5 1,5 1,5 v 6 l 1,5 1,6 1,5 1,5 v 5 l 1,5 1,4 1,4 1,4 v 3 l 1,3 1,2 1,1 1,1 1,1 v 0 l 1,-1 1,-1 1,-2 1,-2 v -3 l 1,-3 1,-4 1,-4 1,-4 v -5 l 1,-5 1,-5 1,-6 1,-5 1,-6 v -5 l 1,-5 1,-6 1,-5 1,-5 v -4 l 1,-5 1,-4 1,-3 1,-3 v -3 l 1,-2 1,-1 1,-1 h 1 1 v 1 l 1,1 1,2 1,2 1,3 v 3 l 1,4 1,4 1,5 1,4 v 5 l 1,6 1,5 1,5 1,6 1,5 v 6 l 1,5 1,5 1,5 1,5 v 4 l 1,4 1,3 1,3 1,2 v 2 l 1,2 h 1 l 1,1 1,-1 1,-1 v -1 l 1,-2 1,-2 1,-3 1,-4 v -3 l 1,-5 1,-4 1,-5 1,-5 v -5 l 1,-6 1,-5 1,-6 1,-5 1,-5 v -6 l 1,-5 1,-5 1,-4 1,-4 v -4 l 1,-3 1,-3 1,-2 1,-2 v -1 l 1,-1 h 1 1 l 1,1 1,2 v 2 l 1,2 1,3 1,4 1,4 v 4 l 1,4 1,5 1,5 1,6 v 5 l 1,5 1,6 1,5 1,6 1,5 v 5 l 1,5 1,4 1,4 1,4 v 3 l 1,3 1,2 1,2 1,1 v 1 h 1 l 1,-1 1,-1 1,-2 v -2 l 1,-2 1,-3 1,-4 1,-4 1,-4 v -5 l 1,-5 1,-5 1,-5 1,-6 v -5 l 1,-6 1,-5 1,-5 1,-6 v -5 l 1,-4 1,-5 1,-4 1,-3 1,-3 v -3 l 1,-2 1,-2 1,-1 h 1 v 0 h 1 l 1,2 1,1 1,3 v 2 l 1,3 1,4 1,4 1,4 1,5 v 5 l 1,5 1,6 1,5 1,5 v 6 l 1,5 1,6 1,5 1,5 v 4 l 1,5 1,4 1,3 1,3 1,3 v 2 l 1,1 1,1 1,1 1,-1 v 0 l 1,-2 1,-1 1,-3 1,-2 v -4 l 1,-3 1,-4 1,-5 1,-5 1,-5 v -5 l 1,-5 1,-6 1,-5 1,-6 v -5 l 1,-5 1,-5 1,-5 1,-5 v -4 l 1,-4 1,-3 1,-3 1,-3 1,-2 v -1 l 1,-1 h 1 1 l 1,1 v 1 l 1,2 1,3 1,2 1,4 v 4 l 1,4 1,4 1,5 1,5 1,5 v 6 l 1,5 1,5 1,6 1,5 v 6 l 1,5 1,4 1,5 1,4 v 4 l 1,3 1,3 1,3 1,1 1,2 v 0 l 1,1 1,-1 1,-1 1,-1 v -2 l 1,-3 1,-3 1,-3 1,-4 v -4 l 1,-5 1,-4 1,-6 1,-5 1,-5 v -6 l 1,-5 1,-6 1,-5 1,-5 v -5 l 1,-5 1,-4 1,-5 1,-3 v -4 l 1,-2 1,-3 1,-1 1,-2 h 1 v 0 h 1 l 1,1 1,2 1,2 v 3 l 1,3 1,3 1,4 1,4 v 5 l 1,5 1,5 1,5 1,6 1,5 v 5 l 1,6 1,5 1,5 1,5 v 5 l 1,5 1,4 1,3 1,3 v 3 l 1,2 1,2 1,1 1,1 h 1 v -1 l 1,-1 1,-2 1,-2 1,-3 v -3 l 1,-3 1,-4 1,-5 1,-4 v -5 l 1,-5 1,-6 1,-5 1,-6 v -5 l 1,-6 1,-5 1,-5 1,-5 1,-5 v -4 l 1,-4 1,-4 1,-3 1,-2 v -2 l 1,-2 1,-1 h 1 1 v 1 l 1,1 1,2 1,2 1,3 1,3 v 3 l 1,5 1,4 1,5 1,5 v 5 l 1,5 1,6 1,5 1,5 v 6 l 1,5 1,5 1,5 1,5 1,4 v 4 l 1,3 1,3 1,3 1,2 v 1 l 1,1 1,1 1,-1 h 1 v -2 l 1,-2 1,-2 1,-3 1,-3 1,-4 v -4 l 1,-4 1,-5 1,-5 1,-5 v -6 l 1,-5 1,-6 1,-5 1,-6 v -5 l 1,-5 1,-5 1,-4 1,-5 1,-3 v -4 l 1,-3 1,-2 1,-2 1,-1 v -1 h 1 1 l 1,1 1,1 v 2 l 1,3 1,3 1,3 1,4 1,4 v 5 l 1,4 1,5 1,6 1,5 v 6 l 1,5 1,5 1,6 1,5 v 5 l 1,5 1,4 1,5 1,3 1,4 v 2 l 1,3 1,2 1,1 1,1 v 0 l 1,-1 1,-1 1,-1 1,-2 v -3 l 1,-3 1,-3 1,-4 1,-5 1,-4 v -5 l 1,-5 1,-5 1,-6 1,-5 v -6 l 1,-5 1,-6 1,-5 1,-5 v -4 l 1,-5 1,-4 1,-4 1,-3 1,-3 v -2 l 1,-1 1,-2 h 1 1 v 0 l 1,1 1,2 1,2 1,3 v 3 l 1,3 1,4 1,5 1,4 1,5 v 5 l 1,6 1,5 1,6 1,5 v 5 l 1,6 1,5 1,5 1,5 v 4 l 1,4 1,4 1,3 1,2 1,2 v 2 l 1,1 1,1 h 1 l 1,-1 v -1 l 1,-2 1,-2 1,-3 1,-3 v -4 l 1,-4 1,-4 1,-5 1,-5 1,-5 v -5 l 1,-6 1,-5 1,-6 1,-5 v -5 l 1,-6 1,-5 1,-4 1,-4 v -4 l 1,-4 1,-3 1,-2 1,-2 v -2 l 1,-1 h 1 1 l 1,1 1,1 v 2 l 1,2 1,3 1,3 1,4 v 4 l 1,4 1,5 1,5 1,5 v 6 l 1,5 1,6 1,5 1,5 1,6 v 5 l 1,5 1,4 1,5 1,3 v 4 l 1,3 1,2 1,2 1,2 v 0 l 1,1 1,-1 h 1 l 1,-2 1,-2 v -2 l 1,-3 1,-3 1,-4 1,-4 v -5 l 1,-5 1,-5 1,-5 1,-5 v -6 l 1,-5 1,-6 1,-5 1,-5 1,-5 v -5 l 1,-5 1,-4 1,-4 1,-3 v -3 l 1,-2 1,-2 1,-1 1,-1 v 0 h 1 l 1,1 1,2 1,2 1,2 v 3 l 1,3 1,4 1,5 1,4 v 5 l 1,5 1,5 1,6 1,5 v 6 l 1,5 1,5 1,6 1,5"
           stroke="#a5a5a5"
           stroke-width="2"
           stroke-linecap="round"
           stroke-linejoin="round"
           stroke-miterlimit="10"
           fill="none"
           id="path4206" />
      </g>
      <g
         clip-path="url(#clip2)"
         id="g4212">
        <path
           d="m -506,473 1,-2 h 1 1 v 0 h 1 1 l 1,-1 h 1 v 0 h 1 1 1 1 1 v 0 h 1 1 1 1 v 0 h 1 1 1 1 v 0 h 1 1 1 1 1 v 0 h 1 1 1 1 v 0 h 1 1 1 1 v 0 h 1 1 1 1 1 v 0 h 1 1 1 1 v 0 h 1 1 1 1 v 0 h 1 1 1 1 1 v 0 h 1 1 1 1 v 0 h 1 1 1 1 v 0 h 1 1 1 1 1 v 0 h 1 1 1 1 v 0 h 1 1 1 1 v 0 h 1 1 1 1 1 v 0 h 1 1 1 1 v 0 h 1 1 1 1 v 0 h 1 1 1 1 1 v 0 h 1 1 1 1 v 0 h 1 1 1 1 v 0 h 1 1 1 1 1 v 0 h 1 1 1 1 v 0 h 1 1 1 1 v 0 h 1 1 1 1 1 v 0 h 1 1 1 1 v 0 h 1 1 1 1 v 0 h 1 1 1 1 1 v 0 h 1 1 1 1 v 0 h 1 1 1 1 v 0 h 1 1 1 1 v 0 h 1 1 1 1 1 v 0 h 1 1 1 1 v 0 h 1 1 1 1 v 0 h 1 1 1 1 1 v 0 h 1 1 1 1 v 0 h 1 1 1 1 v 0 h 1 1 1 1 1 v 0 h 1 1 1 1 v 0 h 1 1 1 1 v 0 h 1 1 1 1 1 v 0 h 1 1 1 1 v 0 h 1 1 1 1 v 0 h 1 1 1 1 1 v 0 h 1 1 1 1 v 0 h 1 1 1 1 v 0 h 1 1 1 1 1 v 0 h 1 1 1 1 v 0 h 1 1 1 1 v 0 h 1 1 1 1 1 v 0 h 1 1 1 1 v 0 h 1 1 1 1 v 0 h 1 1 1 1 1 v 0 h 1 1 1 1 v 0 h 1 1 1 1 v 0 h 1 1 1 1 1 v 0 h 1 1 1 1 v 0 h 1 1 1 1 v 0 h 1 l 1,1 h 1 1 1 v 0 h 1 1 1 1 v 0 h 1 1 1 1 v 0 h 1 1 1 1 1 v -1 h 1 1 1 1 v 0 h 1 1 1 1 v 0 h 1 1 1 1 1 v 0 h 1 1 l 1,-1 h 1 v 0 h 1 1 1 1 v 0 h 1 1 1 1 v 0 h 1 1 1 1 1 v 0 h 1 1 1 1 v 1 h 1 1 1 1 v 0 h 1 1 1 1 1 v 0 l 1,1 h 1 1 1 v 0 h 1 1 1 1 v 0 h 1 1 1 l 1,1 h 1 v 0 h 1 1 1 1 v 0 h 1 1 l 1,-1 h 1 v 0 h 1 1 1 1 1 v 0 h 1 1 l 1,-1 h 1 v 0 h 1 1 1 1 v -1 h 1 1 1 1 1 v -1 h 1 1 1 1 v 0 h 1 1 1 1 v 0 h 1 1 1 1 1 v 0 h 1 1 1 1 v 0 h 1 1 l 1,1 h 1 v 0 h 1 1 l 1,1 h 1 1 v 0 l 1,1 h 1 1 1 v 1 h 1 1 1 l 1,1 v 0 h 1 1 l 1,1 h 1 1 v 0 h 1 1 1 1 v 0 h 1 1 1 1 v 0 h 1 1 l 1,-1 h 1 1 v 0 l 1,-1 h 1 1 l 1,-1 v 0 h 1 l 1,-1 h 1 l 1,-1 v 0 l 1,-1 h 1 l 1,-1 h 1 1 v -1 h 1 l 1,-1 h 1 1 v -1 h 1 1 1 l 1,-1 v 0 h 1 1 1 1 1 v 1 h 1 1 1 l 1,1 v 0 h 1 l 1,1 h 1 l 1,1 v 1 h 1 l 1,1 1,1 h 1 l 1,1 v 1 h 1 l 1,1 1,1 1,1 v 0 l 1,1 1,1 h 1 l 1,1 v 1 h 1 l 1,1 h 1 1 v 1 h 1 1 1 1 1 v -1 h 1 1 l 1,-1 h 1 v -1 l 1,-1 h 1 l 1,-1 1,-1 v -1 l 1,-1 1,-1 1,-1 1,-2 1,-1 v -1 l 1,-1 1,-1 1,-1 1,-2 v -1 l 1,-1 1,-1 1,-1 1,-1 v 0 l 1,-1 h 1 l 1,-1 h 1 1 v -1 l 1,1 h 1 1 l 1,1 v 0 l 0.99997,1 1,1 1,1 1,1 v 1 l 1,1 1,2 1,1 1,2 1,1 v 2 l 0.9999994824,2 0.9999995176,2 1.000001,1 1,2 v 2 l 1,1 1,2 1,1 L 7,485 v 1 l 1,1 1,1 1,1 1,1 1,1 v 0 h 1 1 1 1 v -1 l 1,-1 1,-1 1,-1 1,-1 v -2 l 1,-1 1,-2 1,-2 1,-2 1,-2 v -2 l 1,-3 1,-2 1,-2 1,-3 v -2 l 1,-2 1,-2 1,-2 1,-2 v -2 l 1,-2 1,-1 1,-1 1,-1 1,-1 v -1 h 1 1 1 1 v 1 l 1,1 1,1 1,1 1,2 v 2 l 1,2 1,2 1,2 1,3 1,3 v 2 l 1,3 1,3 1,3 1,3 v 3 l 1,2 1,3 1,3 1,2 v 2 l 1,2 1,2 1,2 1,1 1,1 v 0 l 1,1 h 1 1 l 1,-1 v -1 l 1,-1 1,-2 1,-1 1,-2 v -3 l 1,-2 1,-3 1,-3 1,-3 1,-3 v -4 l 1,-3 1,-4 1,-3 1,-3 v -4 l 1,-3 1,-3 1,-3 1,-2 v -3 l 1,-2 1,-2 1,-1 1,-2 1,-1 v 0 h 1 1 l 1,1 1,1 v 1 l 1,2 1,2 1,2 1,3 v 2 l 1,4 1,3 1,3 1,4 v 4 l 1,4 1,4 1,4 1,3 1,4 v 4 l 1,3 1,3 1,3 1,3 v 3 l 1,2 1,1 1,2 1,1 v 0 h 1 1 l 1,-1 1,-1 1,-1 v -2 l 1,-2 1,-3 1,-3 1,-3 v -4 l 1,-4 1,-3 1,-5 1,-4 v -4 l 1,-4 1,-4 1,-5 1,-4 1,-4 v -3 l 1,-4 1,-3 1,-3 1,-2 v -3 l 1,-1 1,-2 1,-1 h 1 v 0 h 1 l 1,1 1,2 1,2 1,2 v 2 l 1,3 1,4 1,3 1,4 v 4 l 1,4 1,5 1,4 1,5 v 4 l 1,5 1,4 1,5 1,4 1,4 v 3 l 1,3 1,3 1,3 1,2 v 2 l 1,1 1,1 h 1 1 v -1 l 1,-1 1,-2 1,-2 1,-3 1,-3 v -3 l 1,-4 1,-3 1,-5 1,-4 v -5 l 1,-4 1,-5 1,-5 1,-5 v -4 l 1,-5 1,-4 1,-4 1,-4 1,-4 v -3 l 1,-3 1,-2 1,-2 1,-2 v -1 h 1 1 1 l 1,2 v 1 l 1,2 1,2 1,3 1,4 1,3 v 4 l 1,4 1,5 1,5 1,4 v 5 l 1,5 1,5 1,5 1,5 v 4 l 1,5 1,4 1,4 1,3 1,3 v 3 l 1,2 1,2 1,1 1,1 v 0 l 1,-1 1,-1 1,-1 1,-2 v -2 l 1,-3 1,-3 1,-4 1,-4 1,-4 v -4 l 1,-5 1,-5 1,-5 1,-5 v -5 l 1,-5 1,-5 1,-5 1,-4 v -5 l 1,-4 1,-3 1,-4 1,-2 1,-3 v -2 l 1,-1 1,-1 h 1 1 v 1 l 1,1 1,2 1,2 1,3 v 3 l 1,3 1,4 1,5 1,4 1,5 v 5 l 1,5 1,5 1,5 1,5 v 5 l 1,5 1,5 1,4 1,4 v 4 l 1,4 1,3 1,2 1,2 v 2 l 1,1 h 1 1 l 1,-1 1,-1 v -1 l 1,-2 1,-3 1,-3 1,-4 v -3 l 1,-5 1,-4 1,-5 1,-5 v -5 l 1,-5 1,-5 1,-5 1,-6 1,-5 v -4 l 1,-5 1,-4 1,-4 1,-4 v -3 l 1,-2 1,-3 1,-1 1,-2 v 0 h 1 1 l 1,1 1,2 1,2 v 2 l 1,3 1,4 1,4 1,4 v 4 l 1,5 1,5 1,5 1,5 v 5 l 1,5 1,6 1,5 1,5 1,4 v 5 l 1,4 1,3 1,4 1,2 v 3 l 1,2 1,1 1,1 h 1 v 0 l 1,-1 1,-2 1,-2 1,-2 1,-3 v -3 l 1,-4 1,-4 1,-5 1,-4 v -5 l 1,-5 1,-5 1,-6 1,-5 v -5 l 1,-5 1,-5 1,-5 1,-4 1,-5 v -3 l 1,-4 1,-3 1,-2 1,-2 v -2 h 1 l 1,-1 h 1 l 1,1 v 2 l 1,1 1,3 1,2 1,4 1,3 v 4 l 1,5 1,4 1,5 1,5 v 6 l 1,5 1,5 1,5 1,6 v 5 l 1,4 1,5 1,4 1,4 1,4 v 3 l 1,2 1,2 1,2 1,1 v 0 h 1 l 1,-1 1,-1 1,-1 v -3 l 1,-2 1,-4 1,-3 1,-4 1,-4 v -5 l 1,-5 1,-5 1,-5 1,-5 v -6 l 1,-5 1,-5 1,-5 1,-5 v -5 l 1,-4 1,-4 1,-4 1,-3 1,-2 v -3 l 1,-1 1,-1 1,-1 h 1 v 1 l 1,1 1,1 1,2 1,3 v 3 l 1,4 1,3 1,5 1,4 1,5 v 5 l 1,5 1,5 1,6 1,5 v 5 l 1,5 1,5 1,5 1,4 v 5 l 1,3 1,3 1,3 1,3 1,1 v 2 h 1 1 1 l 1,-1 v -1 l 1,-3 1,-2 1,-3 1,-3 v -4 l 1,-4 1,-5 1,-5 1,-5 v -5 l 1,-5 1,-5 1,-6 1,-5 1,-5 v -5 l 1,-5 1,-4 1,-4 1,-4 v -3 l 1,-3 1,-3 1,-2 1,-1 v -1 h 1 1 l 1,1 1,1 1,2 v 3 l 1,3 1,3 1,4 1,4 v 4 l 1,5 1,5 1,5 1,5 v 6 l 1,5 1,5 1,5 1,5 1,5 v 5 l 1,4 1,4 1,3 1,3 v 3 l 1,2 1,1 1,1 h 1 v 0 h 1 l 1,-2 1,-2 1,-2 1,-3 v -3 l 1,-4 1,-4 1,-4 1,-5 v -4 l 1,-6 1,-5 1,-5 1,-5 v -6 l 1,-5 1,-5 1,-5 1,-4 1,-5 v -4 l 1,-3 1,-3 1,-3 1,-2 v -2 l 1,-1 h 1 1 l 1,1 v 1 l 1,1 1,3 1,2 1,4 1,3 v 4 l 1,4 1,5 1,5 1,5 v 5 l 1,5 1,6 1,5 1,5 v 5 l 1,5 1,5 1,4 1,4 1,4 v 3 l 1,3 1,2 1,2 1,1 v 0 h 1 1 l 1,-1 1,-2 v -2 l 1,-2 1,-3 1,-4 1,-4 1,-4 v -5 l 1,-4 1,-5 1,-6 1,-5 v -5 l 1,-6 1,-5 1,-5 1,-5 v -5 l 1,-4 1,-4 1,-4 1,-3 1,-3 v -2 l 1,-2 1,-1 1,-1 h 1 v 0 l 1,1 1,2 1,2 1,2 v 3 l 1,4 1,3 1,5 1,4 1,5 v 5 l 1,5 1,5 1,6 1,5 v 5 l 1,5 1,5 1,5 1,5 v 4 l 1,3 1,4 1,3 1,2 1,2 v 1 l 1,1 1,1 1,-1 1,-1 v -1 l 1,-2 1,-2 1,-3 1,-3 v -4 l 1,-4 1,-5 1,-4 1,-5 1,-6 v -5 l 1,-5 1,-5 1,-6 1,-5 v -5 l 1,-5 1,-4 1,-5 1,-3 v -4 l 1,-3 1,-2 1,-2 1,-2 v -1 h 1 1 l 1,1 1,1 1,2 v 2 l 1,3 1,3 1,4 1,4 v 4 l 1,5 1,5 1,5 1,5 v 5 l 1,6 1,5 1,5 1,5 1,5 v 5 l 1,4 1,4 1,4 1,3 v 2 l 1,2 1,2 1,1 h 1 v 0 h 1 l 1,-1 1,-2 1,-2 1,-3 v -3 l 1,-4 1,-4 1,-4 1,-5 v -4 l 1,-5 1,-6 1,-5 1,-5 v -6 l 1,-5 1,-5 1,-5 1,-4 1,-5 v -4 l 1,-3 1,-4 1,-2 1,-3 v -1 l 1,-1 1,-1 h 1 1 v 1 l 1,2 1,2 1,3 1,3 1,3 v 4 l 1,4 1,5 1,5 1,5 v 5 l 1,5 1,6 1,5 1,5 v 5 l 1,5 1,5 1,4 1,4 1,4 v 3 l 1,3 1,3 1,1 1,2 v 0 l 1,1 1,-1 1,-1 1,-1 v -2 l 1,-3 1,-3 1,-3 1,-4 1,-4 v -5 l 1,-4 1,-5 1,-6 1,-5 v -5 l 1,-5 1,-6 1,-5 1,-5 v -5 l 1,-4 1,-4 1,-4 1,-3 1,-3 v -3 l 1,-2 1,-1 1,-1 h 1 v 0 l 1,1 1,1 1,2 1,3 v 2 l 1,4 1,4 1,4 1,4 1,5 v 5 l 1,5 1,5 1,5 1,6 v 5 l 1,5 1,5 1,5 1,5 v 4 l 1,4 1,3 1,3 1,3 1,2 v 1 l 1,1 1,1 1,-1 h 1 v -2 l 1,-1 1,-3 1,-3 1,-3 v -3 l 1,-4 1,-5 1,-4 1,-5 1,-5 v -6 l 1,-5 1,-5 1,-6 1,-5 v -5 l 1,-5 1,-4 1,-5 1,-4 v -3 l 1,-3 1,-3 1,-2 1,-2 v -1 h 1 1 l 1,1 1,1 1,1 v 3 l 1,2 1,3 1,4 1,4 v 4 l 1,5 1,5 1,5 1,5 v 5 l 1,6 1,5 1,5 1,5 1,5 v 5 l 1,4 1,4 1,4 1,3 v 3 l 1,2 1,2 1,1 h 1 v 0 h 1 l 1,-1 1,-2 1,-2 1,-2 v -3 l 1,-4 1,-4 1,-4 1,-5 v -4 l 1,-5 1,-6 1,-5 1,-5 v -5 l 1,-6 1,-5 1,-5 1,-5 1,-4 v -4 l 1,-4 1,-3 1,-3 1,-2 v -2 l 1,-1 1,-1 h 1 1 v 1 l 1,2 1,2 1,2 1,3 1,3 v 4 l 1,4 1,5 1,5 1,5 v 5 l 1,5 1,5 1,6 1,5 v 5 l 1,5 1,5 1,4 1,5 1,3 v 4 l 1,3 1,2 1,2 1,1 v 1 l 1,1 1,-1 1,-1 1,-1 v -2 l 1,-2 1,-3 1,-3 1,-4 1,-4 v -5 l 1,-4 1,-5 1,-5 1,-6 v -5 l 1,-5 1,-6 1,-5 1,-5 v -5 l 1,-4 1,-4 1,-4 1,-4 1,-3 v -2 l 1,-2 1,-2 1,-1 h 1 v 0 l 1,1 1,1 1,2 1,2 v 3 l 1,3 1,4 1,4 1,4 1,5 v 5 l 1,5 1,5 1,5 1,6 v 5 l 1,5 1,5 1,5 1,5 v 4 l 1,4 1,3 1,4 1,2 1,2 v 2 l 1,1 h 1 1 1 v -1 l 1,-2 1,-2 1,-3 1,-3 v -4 l 1,-4 1,-4 1,-4 1,-5 1,-5 v -6 l 1,-5 1,-5 1,-5 1,-6 v -5 l 1,-5 1,-4 1,-5 1,-4 v -3 l 1,-4 1,-2 1,-3 1,-1 1,-1 v -1 h 1 1 l 1,1 1,2 v 2 l 1,3 1,3 1,3 1,4 v 4 l 1,5 1,5 1,5 1,5 v 5 l 1,5 1,6 1,5 1,5 1,5 v 5 l 1,4 1,4 1,4 1,3 v 3 l 1,3 1,1 1,2 h 1 v 1 l 1,-1 1,-1 1,-1 1,-2 1,-3 v -3 l 1,-3 1,-4 1,-4 1,-5 v -4 l 1,-5 1,-5 1,-6 1,-5 v -5 l 1,-6 1,-5 1,-5 1,-5 1,-4 v -4 l 1,-4 1,-3 1,-3 1,-3 v -2 l 1,-1 1,-1 h 1 1 v 1 l 1,1 1,2 1,3 1,2 1,4 v 3 l 1,5 1,4 1,5 1,5 v 5 l 1,5 1,5 1,6 1,5 v 5 l 1,5 1,5 1,5 1,4 1,4 v 3 l 1,3 1,3 1,2 1,1 v 1 l 1,1 1,-1 h 1 l 1,-2 v -1 l 1,-3 1,-2 1,-4 1,-3 1,-4 v -5 l 1,-4 1,-5 1,-5 1,-6 v -5 l 1,-5 1,-6 1,-5 1,-5 v -5 l 1,-4 1,-5 1,-4 1,-3 1,-3 v -3 l 1,-2 1,-2 1,-1 h 1 v 0 l 1,1 1,1 1,1 1,3 v 2 l 1,3 1,4 1,4 1,4 1,5 v 5 l 1,5 1,5 1,5 1,5 v 6 l 1,5 1,5 1,5 1,5 v 4 l 1,4 1,4 1,3 1,3 1,2 v 2 l 1,1 h 1 1 1 v -1 l 1,-2 1,-2 1,-2 1,-3 v -4 l 1,-4 1,-4 1,-4 1,-5 1,-5 v -5 l 1,-6 1,-5 1,-5 1,-6 v -5 l 1,-5 1,-4 1,-5 1,-4 v -4 l 1,-3 1,-3 1,-2 1,-2 1,-1 v -1 h 1 1 l 1,1 1,2 v 2 l 1,2 1,3 1,3 1,4 v 4 l 1,5 1,5 1,5 1,5 1,5 v 5 l 1,6 1,5 1,5 1,5 v 5 l 1,4 1,5 1,3 1,4 v 3 l 1,2 1,2 1,1 1,1 v 1 l 1,-1 1,-1 1,-1 1,-2 1,-2 v -3 l 1,-3 1,-4 1,-4 1,-5 v -4 l 1,-5 1,-5 1,-6 1,-5 v -5 l 1,-6 1,-5 1,-5 1,-5 1,-4 v -4 l 1,-4 1,-4 1,-3 1,-2 v -2 l 1,-2 1,-1 h 1 1 v 1 l 1,1 1,2 1,2 1,3 1,3 v 4 l 1,4 1,4 1,5 1,5 v 5 l 1,5 1,5 1,6 1,5 v 5 l 1,5 1,5 1,5 1,4 1,4 v 3 l 1,4 1,2 1,2 1,2 v 1 h 1 1 1 l 1,-1 v -2 l 1,-2 1,-3 1,-3 1,-4 1,-4 v -4 l 1,-4 1,-5 1,-5 1,-5 v -6 l 1,-5 1,-5 1,-6 1,-5 v -5 l 1,-4 1,-5 1,-4 1,-3"
           stroke="#ed7d31"
           stroke-width="2"
           stroke-linecap="round"
           stroke-linejoin="round"
           stroke-miterlimit="10"
           fill="none"
           id="path4210" />
      </g>
      <g
         clip-path="url(#clip3)"
         id="g4216">
        <path
           d="m -506,473 1,-1 1,-1 h 1 v 0 h 1 1 1 1 v -1 h 1 1 1 1 1 v 0 h 1 1 1 1 v 0 h 1 1 1 1 v 0 h 1 1 1 1 1 v 0 h 1 1 1 1 v 0 h 1 1 1 1 v 0 h 1 1 1 1 1 v 0 h 1 1 1 1 v 0 h 1 1 1 1 v 0 h 1 1 1 1 1 v 0 h 1 1 1 1 v 0 h 1 1 1 1 v 0 h 1 1 1 1 1 v 0 h 1 1 1 1 v 0 h 1 1 1 1 v 0 h 1 1 1 1 1 v 0 h 1 1 1 1 v 0 h 1 1 1 1 v 0 h 1 1 1 1 1 v 0 h 1 1 1 1 v 0 h 1 1 1 1 v 0 h 1 1 1 1 1 v 0 h 1 1 1 1 v 0 h 1 1 1 1 v 0 h 1 1 1 1 1 v 0 h 1 1 1 1 v 0 h 1 1 1 1 v 0 h 1 1 1 1 1 v 0 h 1 1 1 1 v 0 h 1 1 1 1 v 0 h 1 1 1 1 v 0 h 1 1 1 1 1 v 0 h 1 1 1 1 v 0 h 1 1 1 1 v 0 h 1 1 1 1 1 v 0 h 1 1 1 1 v 0 h 1 1 1 1 v 0 h 1 1 1 1 1 v 0 h 1 1 1 1 v 0 h 1 1 1 1 v 0 h 1 1 1 1 1 v 0 h 1 1 1 1 v 0 h 1 1 1 1 v 0 h 1 1 1 1 1 v 0 h 1 1 1 1 v 0 h 1 1 1 1 v 0 h 1 1 1 1 1 v 0 h 1 1 1 1 v 0 h 1 1 1 1 v 0 h 1 1 1 1 1 v 0 h 1 1 1 1 v 0 h 1 1 1 1 v 0 h 1 1 1 1 1 v 0 h 1 1 1 1 v 0 h 1 1 1 1 v 0 h 1 1 1 1 1 v 0 h 1 1 1 1 v 0 h 1 1 1 1 v 0 h 1 1 1 1 1 v 0 h 1 1 1 1 v 0 h 1 1 1 l 1,1 v 0 h 1 1 1 1 1 v 0 h 1 1 1 1 v 0 h 1 1 1 1 v 0 h 1 1 1 1 1 v 0 l 1,-1 h 1 1 1 v 0 h 1 1 1 1 v 0 h 1 1 1 1 v 0 h 1 l 1,-1 h 1 1 1 v 0 h 1 1 1 1 v 0 h 1 1 1 1 v 0 h 1 1 1 1 1 v 0 h 1 1 1 1 v 0 h 1 1 l 1,1 h 1 v 0 h 1 1 1 1 1 v 0 l 1,1 h 1 1 1 v 0 h 1 1 1 1 v 0 l 1,1 h 1 1 1 1 v 0 h 1 1 1 1 v 0 h 1 1 1 1 v 0 h 1 1 1 l 1,-1 h 1 v 0 h 1 1 1 1 v 0 l 1,-1 h 1 1 1 v 0 l 1,-1 h 1 1 1 1 v -1 h 1 1 1 1 v 0 l 1,-1 h 1 1 1 v 0 h 1 1 1 1 1 v 0 h 1 1 1 1 v 0 h 1 l 1,1 h 1 1 v 0 h 1 l 1,1 h 1 1 1 v 1 h 1 1 l 1,1 h 1 v 0 l 1,1 h 1 1 l 1,1 v 0 h 1 l 1,1 h 1 1 1 v 1 h 1 1 1 1 v 0 l 1,1 h 1 1 1 v -1 h 1 1 1 1 1 v -1 h 1 1 l 1,-1 h 1 v -1 h 1 l 1,-1 h 1 l 1,-1 v 0 l 1,-1 h 1 l 1,-1 1,-1 h 1 v -1 h 1 l 1,-1 h 1 l 1,-1 v 0 l 1,-1 h 1 l 1,-1 h 1 v 0 l 1,-1 h 1 1 1 1 v 0 h 1 l 1,1 h 1 1 v 1 h 1 l 1,1 h 1 l 1,1 v 1 h 1 l 1,1 1,1 1,1 v 1 l 1,1 1,1 1,1 1,1 1,1 v 1 l 1,1 1,1 1,1 1,1 v 0 l 1,1 1,1 h 1 l 1,1 v 0 h 1 l 1,1 h 1 1 1 v -1 h 1 1 l 1,-1 1,-1 v 0 l 1,-1 1,-1 1,-2 1,-1 v -1 l 1,-1 1,-2 1,-1 1,-2 1,-1 v -2 l 1,-1 1,-2 1,-1 1,-2 v -1 l 0.99997,-1 1,-1 1,-2 1,-1 v -1 h 1 l 1,-1 h 1 l 1,-1 h 1 v 0 H -3.05176e-5 0.999969 l 1.000001,1 1,1 v 0 l 1,1 1,2 1,1 L 7,458 v 2 l 1,2 1,1 1,2 1,2 1,2 v 3 l 1,2 1,2 1,2 1,2 v 2 l 1,2 1,2 1,1 1,2 v 1 l 1,2 1,1 1,1 h 1 l 1,1 v 0 h 1 1 1 l 1,-1 v -1 l 1,-1 1,-2 1,-1 1,-2 v -2 l 1,-2 1,-2 1,-3 1,-2 1,-3 v -3 l 1,-2 1,-3 1,-3 1,-2 v -3 l 1,-3 1,-2 1,-2 1,-2 v -2 l 1,-2 1,-1 1,-2 1,-1 h 1 v -1 h 1 1 l 1,1 1,1 v 1 l 1,1 1,2 1,2 1,2 v 3 l 1,2 1,3 1,3 1,3 1,3 v 4 l 1,3 1,3 1,4 1,3 v 3 l 1,3 1,3 1,3 1,2 v 2 l 1,2 1,2 1,1 1,1 1,1 v 0 h 1 1 l 1,-1 1,-1 v -1 l 1,-2 1,-2 1,-3 1,-3 v -3 l 1,-3 1,-3 1,-4 1,-4 1,-3 v -4 l 1,-4 1,-4 1,-4 1,-3 v -4 l 1,-3 1,-4 1,-3 1,-2 v -3 l 1,-2 1,-1 1,-1 1,-1 v -1 h 1 l 1,1 1,1 1,1 1,1 v 2 l 1,3 1,2 1,4 1,3 v 3 l 1,4 1,4 1,4 1,5 v 4 l 1,4 1,5 1,4 1,4 1,4 v 4 l 1,3 1,4 1,3 1,2 v 2 l 1,2 1,1 1,1 1,1 v 0 l 1,-1 1,-1 1,-1 1,-2 1,-2 v -3 l 1,-3 1,-3 1,-4 1,-4 v -4 l 1,-4 1,-5 1,-4 1,-5 v -5 l 1,-4 1,-5 1,-4 1,-5 1,-4 v -3 l 1,-4 1,-3 1,-3 1,-2 v -2 l 1,-1 1,-1 h 1 1 v 0 l 1,1 1,2 1,2 1,3 1,3 v 3 l 1,3 1,4 1,5 1,4 v 5 l 1,5 1,5 1,5 1,5 v 5 l 1,4 1,5 1,4 1,5 1,3 v 4 l 1,3 1,3 1,2 1,2 v 1 l 1,1 h 1 1 l 1,-1 v -2 l 1,-1 1,-3 1,-3 1,-3 1,-3 v -4 l 1,-5 1,-4 1,-5 1,-5 v -5 l 1,-5 1,-5 1,-5 1,-5 v -5 l 1,-5 1,-5 1,-4 1,-4 1,-3 v -3 l 1,-3 1,-2 1,-1 1,-2 v 0 h 1 l 1,1 1,1 1,1 v 2 l 1,3 1,3 1,4 1,3 1,5 v 4 l 1,5 1,5 1,5 1,5 v 6 l 1,5 1,5 1,5 1,5 v 5 l 1,5 1,4 1,4 1,3 1,3 v 2 l 1,2 1,2 h 1 l 1,1 v -1 l 1,-1 1,-1 1,-2 1,-2 v -3 l 1,-4 1,-3 1,-4 1,-5 1,-5 v -5 l 1,-5 1,-5 1,-6 1,-5 v -5 l 1,-6 1,-5 1,-5 1,-5 v -4 l 1,-4 1,-4 1,-3 1,-2 1,-3 v -1 l 1,-1 1,-1 h 1 l 1,1 v 1 l 1,2 1,2 1,3 1,3 v 3 l 1,4 1,5 1,4 1,5 v 6 l 1,5 1,5 1,6 1,5 1,6 v 5 l 1,5 1,5 1,5 1,4 v 4 l 1,3 1,3 1,3 1,2 v 1 l 1,1 h 1 1 l 1,-1 1,-2 v -2 l 1,-2 1,-3 1,-4 1,-4 v -4 l 1,-5 1,-5 1,-5 1,-5 v -5 l 1,-6 1,-6 1,-5 1,-5 1,-6 v -5 l 1,-5 1,-4 1,-4 1,-4 v -3 l 1,-3 1,-2 1,-1 1,-1 v -1 h 1 l 1,1 1,1 1,2 1,2 v 3 l 1,3 1,4 1,4 1,5 v 5 l 1,5 1,5 1,5 1,6 v 6 l 1,5 1,6 1,5 1,5 1,5 v 5 l 1,4 1,4 1,3 1,3 v 2 l 1,2 1,2 h 1 1 v 0 l 1,-1 1,-2 1,-2 1,-2 1,-3 v -4 l 1,-4 1,-4 1,-5 1,-5 v -5 l 1,-6 1,-5 1,-6 1,-5 v -6 l 1,-5 1,-6 1,-5 1,-5 1,-4 v -4 l 1,-4 1,-3 1,-2 1,-2 v -2 l 1,-1 h 1 1 l 1,1 v 1 l 1,2 1,2 1,3 1,4 1,4 v 4 l 1,4 1,5 1,5 1,6 v 5 l 1,6 1,6 1,5 1,6 v 5 l 1,5 1,5 1,5 1,4 1,4 v 3 l 1,3 1,2 1,2 1,1 v 1 h 1 l 1,-1 1,-1 1,-2 v -2 l 1,-3 1,-3 1,-4 1,-4 1,-4 v -5 l 1,-5 1,-5 1,-6 1,-5 v -6 l 1,-6 1,-5 1,-6 1,-5 v -5 l 1,-5 1,-4 1,-4 1,-3 1,-3 v -3 l 1,-2 1,-1 1,-1 h 1 v 0 l 1,1 1,1 1,2 1,3 v 3 l 1,3 1,4 1,5 1,4 1,5 v 5 l 1,6 1,5 1,6 1,6 v 5 l 1,6 1,5 1,5 1,5 v 5 l 1,4 1,4 1,3 1,2 v 3 l 1,1 1,1 1,1 h 1 l 1,-1 v -1 l 1,-2 1,-2 1,-3 1,-4 v -3 l 1,-4 1,-5 1,-5 1,-5 v -5 l 1,-6 1,-5 1,-6 1,-6 1,-5 v -6 l 1,-5 1,-5 1,-5 1,-4 v -4 l 1,-3 1,-3 1,-3 1,-1 v -2 h 1 l 1,-1 1,1 1,1 1,2 v 2 l 1,2 1,4 1,3 1,4 v 5 l 1,4 1,5 1,6 1,5 v 6 l 1,5 1,6 1,6 1,5 1,5 v 5 l 1,5 1,5 1,4 1,3 v 3 l 1,3 1,2 1,2 1,1 v 0 h 1 l 1,-1 1,-1 1,-2 1,-3 v -3 l 1,-3 1,-4 1,-4 1,-5 v -5 l 1,-5 1,-6 1,-5 1,-6 v -5 l 1,-6 1,-5 1,-6 1,-5 1,-5 v -5 l 1,-4 1,-4 1,-3 1,-3 v -2 l 1,-2 1,-1 1,-1 h 1 v 1 l 1,1 1,2 1,2 1,3 1,3 v 4 l 1,4 1,5 1,4 1,5 v 6 l 1,5 1,6 1,6 1,5 v 6 l 1,5 1,5 1,5 1,5 1,5 v 4 l 1,3 1,3 1,3 1,2 v 1 l 1,1 h 1 1 l 1,-1 v -2 l 1,-2 1,-2 1,-4 1,-3 1,-4 v -4 l 1,-5 1,-5 1,-5 1,-6 v -5 l 1,-6 1,-6 1,-5 1,-6 v -5 l 1,-5 1,-5 1,-5 1,-4 1,-3 v -4 l 1,-2 1,-2 1,-2 1,-1 v -1 l 1,1 h 1 l 1,2 1,1 v 3 l 1,3 1,3 1,4 1,4 1,5 v 5 l 1,5 1,5 1,6 1,5 v 6 l 1,5 1,6 1,5 1,6 v 5 l 1,4 1,5 1,3 1,4 1,3 v 2 l 1,2 1,1 1,1 h 1 v -1 l 1,-1 1,-1 1,-2 1,-3 v -3 l 1,-4 1,-4 1,-4 1,-5 v -5 l 1,-6 1,-5 1,-6 1,-5 1,-6 v -5 l 1,-6 1,-5 1,-5 1,-5 v -5 l 1,-4 1,-3 1,-3 1,-3 v -2 l 1,-1 1,-1 1,-1 1,1 h 1 v 2 l 1,2 1,2 1,3 1,4 v 4 l 1,4 1,5 1,5 1,5 v 5 l 1,6 1,5 1,6 1,6 1,5 v 6 l 1,5 1,5 1,4 1,4 v 4 l 1,4 1,2 1,3 1,1 v 1 l 1,1 h 1 l 1,-1 1,-1 1,-2 v -2 l 1,-3 1,-3 1,-4 1,-4 v -4 l 1,-5 1,-5 1,-6 1,-5 v -6 l 1,-6 1,-5 1,-6 1,-5 1,-5 v -5 l 1,-5 1,-4 1,-4 1,-4 v -3 l 1,-2 1,-2 1,-2 h 1 v -1 l 1,1 1,1 1,1 1,2 1,3 v 3 l 1,4 1,4 1,4 1,5 v 5 l 1,5 1,6 1,5 1,6 v 5 l 1,6 1,5 1,6 1,5 1,5 v 4 l 1,4 1,4 1,3 1,3 v 2 l 1,2 1,1 h 1 1 v -1 l 1,-1 1,-2 1,-3 1,-2 1,-4 v -4 l 1,-4 1,-5 1,-4 1,-6 v -5 l 1,-6 1,-5 1,-6 1,-5 v -6 l 1,-5 1,-6 1,-5 1,-4 1,-4 v -4 l 1,-4 1,-3 1,-2 1,-2 v -1 l 1,-1 h 1 l 1,1 1,1 v 2 l 1,2 1,3 1,3 1,4 1,4 v 4 l 1,5 1,5 1,5 1,6 v 5 l 1,6 1,6 1,5 1,6 v 5 l 1,5 1,5 1,4 1,4 1,4 v 3 l 1,2 1,2 1,2 1,1 v 0 h 1 l 1,-1 1,-2 1,-2 v -2 l 1,-3 1,-4 1,-4 1,-4 v -5 l 1,-5 1,-5 1,-5 1,-6 1,-5 v -6 l 1,-6 1,-5 1,-6 1,-5 v -5 l 1,-4 1,-4 1,-4 1,-3 v -3 l 1,-2 1,-2 1,-1 1,-1 h 1 v 1 l 1,1 1,2 1,3 1,2 v 4 l 1,3 1,5 1,4 1,5 v 5 l 1,6 1,5 1,6 1,5 1,6 v 6 l 1,5 1,5 1,5 1,5 v 4 l 1,4 1,4 1,2 1,3 v 2 l 1,1 1,1 h 1 1 l 1,-1 v -2 l 1,-2 1,-3 1,-3 1,-4 v -4 l 1,-4 1,-5 1,-5 1,-5 v -5 l 1,-6 1,-6 1,-5 1,-6 1,-5 v -6 l 1,-5 1,-5 1,-4 1,-4 v -4 l 1,-3 1,-3 1,-2 1,-1 v -1 l 1,-1 1,1 h 1 l 1,2 1,2 v 2 l 1,3 1,4 1,3 1,5 v 4 l 1,5 1,5 1,6 1,5 v 6 l 1,6 1,5 1,6 1,5 1,5 v 5 l 1,5 1,4 1,4 1,3 v 3 l 1,2 1,2 1,1 1,1 v 0 l 1,-1 1,-1 1,-1 1,-3 1,-2 v -4 l 1,-3 1,-5 1,-4 1,-5 v -5 l 1,-5 1,-6 1,-5 1,-6 v -6 l 1,-5 1,-6 1,-5 1,-5 1,-5 v -4 l 1,-4 1,-4 1,-3 1,-2 v -2 l 1,-2 h 1 l 1,-1 1,1 v 1 l 1,1 1,2 1,3 1,3 1,3 v 4 l 1,5 1,4 1,5 1,6 v 5 l 1,6 1,5 1,6 1,6 v 5 l 1,5 1,6 1,4 1,5 1,4 v 4 l 1,3 1,3 1,2 1,1 v 2 h 1 1 l 1,-1 1,-1 v -2 l 1,-2 1,-3 1,-4 1,-3 1,-5 v -4 l 1,-5 1,-5 1,-6 1,-5 v -6 l 1,-5 1,-6 1,-6 1,-5 v -5 l 1,-5 1,-5 1,-4 1,-4 v -3 l 1,-3 1,-3 1,-2 1,-1 1,-1 v 0 l 1,1 1,1 1,2 1,2 v 2 l 1,4 1,3 1,4 1,5 v 4 l 1,6 1,5 1,5 1,6 1,6 v 5 l 1,6 1,5 1,6 1,5 v 4 l 1,5 1,4 1,4 1,3 v 2 l 1,2 1,2 1,1 h 1 1 v -1 l 1,-1 1,-2 1,-3 1,-3 v -3 l 1,-4 1,-5 1,-4 1,-5 v -5 l 1,-6 1,-5 1,-6 1,-6 1,-5 v -6 l 1,-5 1,-5 1,-5 1,-5 v -4 l 1,-4 1,-3 1,-3 1,-2 v -2 l 1,-1 1,-1 h 1 l 1,1 1,1 v 2 l 1,2 1,3 1,3 1,4 v 4 l 1,5 1,5 1,5 1,5 v 6 l 1,5 1,6 1,5 1,6 1,5 v 6 l 1,5 1,4 1,5 1,4 v 3 l 1,3 1,3 1,2 1,1 v 1 h 1 1 l 1,-1 1,-2 1,-2 v -3 l 1,-3 1,-3 1,-4 1,-5 v -4 l 1,-5 1,-6 1,-5 1,-6 v -5 l 1,-6 1,-6 1,-5 1,-5 1,-5 v -5 l 1,-5 1,-4 1,-4 1,-3 v -2 l 1,-3 1,-1 1,-1 1,-1 v 1 h 1 l 1,2 1,1 1,3 1,3 v 3 l 1,4 1,4 1,5 1,5 v 5 l 1,5 1,6 1,5 1,6 v 6 l 1,5 1,6 1,5 1,5 1,5 v 4 l 1,4 1,3 1,3 1,2 v 2 l 1,1 1,1 h 1 l 1,-1 v -1 l 1,-1 1,-3 1,-2 1,-3 1,-4 v -4 l 1,-5 1,-4 1,-6 1,-5 v -5 l 1,-6 1,-6 1,-5 1,-6 v -5 l 1,-6 1,-5 1,-4 1,-5 1,-4 v -3 l 1,-3 1,-3 1,-2 1,-1 v -1 l 1,-1 1,1 1,1 1,1 v 2 l 1,3 1,3 1,3 1,4 v 4 l 1,5 1,5 1,5 1,6 1,5 v 6 l 1,5 1,6 1,6 1,5 v 5 l 1,5 1,5 1,4 1,3 v 4 l 1,2 1,3 1,1 1,1 1,1 v 0 l 1,-1 1,-1 1,-2 1,-2 v -3 l 1,-3 1,-4 1,-4 1,-5 v -5 l 1,-5 1,-5 1,-6 1,-5 1,-6 v -5 l 1,-6 1,-5 1,-6 1,-5 v -4 l 1,-5 1,-4 1,-3 1,-3 v -3 l 1,-1 1,-2 h 1 l 1,-1 1,1 v 1 l 1,1 1,3 1,2 1,3 v 4 l 1,4 1,4 1,5 1,5 v 5 l 1,6 1,5 1,6 1,6 1,5 v 6 l 1,5 1,5 1,5 1,5 v 4 l 1,3 1,3 1,3 1,2 v 2 l 1,1 h 1 1 l 1,-1"
           stroke="#4472c4"
           stroke-width="2"
           stroke-linecap="round"
           stroke-linejoin="round"
           stroke-miterlimit="10"
           fill="none"
           id="path4214" />
      </g>
      <g
         id="g4220">
        <text
           font-family="Arial, Arial_MSFontService, sans-serif"
           font-weight="400"
           font-size="12px"
           transform="translate(762.667,537)"
           id="text4218">-0.4</text>
      </g>
      <g
         id="g4224">
        <text
           font-family="Arial, Arial_MSFontService, sans-serif"
           font-weight="400"
           font-size="12px"
           transform="translate(762.667,505)"
           id="text4222">-0.2</text>
      </g>
      <g
         id="g4228">
        <text
           font-family="Arial, Arial_MSFontService, sans-serif"
           font-weight="400"
           font-size="12px"
           transform="translate(776.667,473)"
           id="text4226">0</text>
      </g>
      <g
         id="g4232">
        <text
           font-family="Arial, Arial_MSFontService, sans-serif"
           font-weight="400"
           font-size="12px"
           transform="translate(766.66,442)"
           id="text4230">0.2</text>
      </g>
      <g
         id="g4236">
        <text
           font-family="Arial, Arial_MSFontService, sans-serif"
           font-weight="400"
           font-size="12px"
           transform="translate(766.66,410)"
           id="text4234">0.4</text>
      </g>
      <g
         id="g4240">
        <text
           font-family="Arial, Arial_MSFontService, sans-serif"
           font-weight="400"
           font-size="12px"
           transform="translate(783.65,488)"
           id="text4238">160</text>
      </g>
      <g
         id="g4244">
        <text
           font-family="Arial, Arial_MSFontService, sans-serif"
           font-weight="400"
           font-size="12px"
           transform="translate(864.867,488)"
           id="text4242">170</text>
      </g>
      <g
         id="g4248">
        <text
           font-family="Arial, Arial_MSFontService, sans-serif"
           font-weight="400"
           font-size="12px"
           transform="translate(946.085,488)"
           id="text4246">180</text>
      </g>
      <rect
         x="754.5"
         y="391.5"
         width="227"
         height="157"
         stroke="#000000"
         stroke-linejoin="round"
         stroke-miterlimit="10"
         fill="none"
         id="rect4250" />
    </g>
  </g>
</svg>
