<?xml version="1.0" encoding="UTF-8" standalone="no"?>
<!-- Created with Inkscape (http://www.inkscape.org/) -->

<svg
   width="92.538345mm"
   height="98.031075mm"
   viewBox="0 0 92.538345 98.031075"
   version="1.1"
   id="svg5"
   sodipodi:docname="FSI-Cavity2D.svg"
   inkscape:version="1.2.1 (9c6d41e410, 2022-07-14)"
   xmlns:inkscape="http://www.inkscape.org/namespaces/inkscape"
   xmlns:sodipodi="http://sodipodi.sourceforge.net/DTD/sodipodi-0.dtd"
   xmlns="http://www.w3.org/2000/svg"
   xmlns:svg="http://www.w3.org/2000/svg">
  <sodipodi:namedview
     id="namedview7"
     pagecolor="#ffffff"
     bordercolor="#000000"
     borderopacity="0.25"
     inkscape:showpageshadow="2"
     inkscape:pageopacity="0.0"
     inkscape:pagecheckerboard="0"
     inkscape:deskcolor="#d1d1d1"
     inkscape:document-units="mm"
     showgrid="false"
     inkscape:zoom="1.4912879"
     inkscape:cx="74.432309"
     inkscape:cy="175.68707"
     inkscape:window-width="1920"
     inkscape:window-height="1017"
     inkscape:window-x="1912"
     inkscape:window-y="-8"
     inkscape:window-maximized="1"
     inkscape:current-layer="layer1">
    <inkscape:grid
       type="xygrid"
       id="grid132"
       enabled="false"
       originx="-51.701184"
       originy="-119.72631" />
    <inkscape:grid
       type="axonomgrid"
       id="grid134"
       gridanglex="30"
       gridanglez="30"
       spacingy="0.5"
       originx="-51.701184"
       originy="-119.72631" />
  </sodipodi:namedview>
  <defs
     id="defs2">
    <marker
       style="overflow:visible"
       id="Dot"
       refX="0"
       refY="0"
       orient="auto"
       inkscape:stockid="Dot"
       markerWidth="4"
       markerHeight="4"
       viewBox="0 0 5.6666667 5.6666667"
       inkscape:isstock="true"
       inkscape:collect="always"
       preserveAspectRatio="xMidYMid">
      <path
         transform="scale(0.5)"
         style="fill:context-stroke;fill-rule:evenodd;stroke:context-stroke;stroke-width:1pt"
         d="M 5,0 C 5,2.76 2.76,5 0,5 -2.76,5 -5,2.76 -5,0 c 0,-2.76 2.3,-5 5,-5 2.76,0 5,2.24 5,5 z"
         id="Dot1"
         sodipodi:nodetypes="sssss" />
    </marker>
    <marker
       style="overflow:visible"
       id="TriangleStart"
       refX="3"
       refY="0"
       orient="auto-start-reverse"
       inkscape:stockid="TriangleStart"
       markerWidth="10"
       markerHeight="5"
       viewBox="0 0 5.3244081 6.1553851"
       inkscape:isstock="true"
       inkscape:collect="always"
       preserveAspectRatio="none">
      <path
         transform="scale(0.5)"
         style="fill:context-stroke;fill-rule:evenodd;stroke:context-stroke;stroke-width:1pt"
         d="M 5.77,0 -2.88,5 V -5 Z"
         id="path135" />
    </marker>
    <clipPath
       id="clipPath3477">
      <path
         clip-rule="nonzero"
         d="m 117,8 h 2 v 3.015625 h -2 z m 0,0"
         id="path2589" />
    </clipPath>
    <clipPath
       id="clipPath7753">
      <path
         clip-rule="nonzero"
         d="m 114,4 h 4 v 5.464844 h -4 z m 0,0"
         id="path8816" />
    </clipPath>
    <clipPath
       id="clipPath4052">
      <path
         clip-rule="nonzero"
         d="m 118,8 h 2 v 1.464844 h -2 z m 0,0"
         id="path6364" />
    </clipPath>
    <clipPath
       id="clipPath3254">
      <path
         clip-rule="nonzero"
         d="m 120,4 h 5 v 5.464844 h -5 z m 0,0"
         id="path8493" />
    </clipPath>
    <clipPath
       id="clipPath2917">
      <path
         clip-rule="nonzero"
         d="m 216,6 h 5 v 8.445313 h -5 z m 0,0"
         id="path753" />
    </clipPath>
    <clipPath
       id="clipPath9336">
      <path
         clip-rule="nonzero"
         d="m 222,13 h 2 v 1.445313 h -2 z m 0,0"
         id="path6462" />
    </clipPath>
    <clipPath
       id="clipPath1938">
      <path
         clip-rule="nonzero"
         d="m 225,6 h 6 v 8.445313 h -6 z m 0,0"
         id="path2257" />
    </clipPath>
    <clipPath
       id="clipPath7712">
      <path
         clip-rule="nonzero"
         d="m 216,6 h 5 v 8.445313 h -5 z m 0,0"
         id="path7762" />
    </clipPath>
    <clipPath
       id="clipPath966">
      <path
         clip-rule="nonzero"
         d="m 222,13 h 2 v 1.445313 h -2 z m 0,0"
         id="path4360" />
    </clipPath>
    <clipPath
       id="clipPath91">
      <path
         clip-rule="nonzero"
         d="m 225,6 h 6 v 8.445313 h -6 z m 0,0"
         id="path4480" />
    </clipPath>
    <clipPath
       id="clipPath4542">
      <path
         clip-rule="nonzero"
         d="m 216,6 h 6 v 8.445313 h -6 z m 0,0"
         id="path6028" />
    </clipPath>
    <clipPath
       id="clipPath7862">
      <path
         clip-rule="nonzero"
         d="m 222,13 h 2 v 1.445313 h -2 z m 0,0"
         id="path1210" />
    </clipPath>
    <clipPath
       id="clipPath6447">
      <path
         clip-rule="nonzero"
         d="m 225,6 h 5 v 8.445313 h -5 z m 0,0"
         id="path8083" />
    </clipPath>
    <clipPath
       id="clipPath5744">
      <path
         clip-rule="nonzero"
         d="m 216,6 h 6 v 8.445313 h -6 z m 0,0"
         id="path1784" />
    </clipPath>
    <clipPath
       id="clipPath8179">
      <path
         clip-rule="nonzero"
         d="m 222,13 h 2 v 1.445313 h -2 z m 0,0"
         id="path672" />
    </clipPath>
    <clipPath
       id="clipPath3096">
      <path
         clip-rule="nonzero"
         d="m 225,6 h 5 v 8.445313 h -5 z m 0,0"
         id="path7131" />
    </clipPath>
    <clipPath
       id="clipPath1655">
      <path
         clip-rule="nonzero"
         d="m 205,5 h 3 v 12.433594 h -3 z m 0,0"
         id="path2511" />
    </clipPath>
    <clipPath
       id="clipPath6376">
      <path
         clip-rule="nonzero"
         d="m 220,5 h 4 v 12.433594 h -4 z m 0,0"
         id="path5223" />
    </clipPath>
    <clipPath
       id="clipPath7240">
      <path
         clip-rule="nonzero"
         d="m 229,5 h 3 v 12.433594 h -3 z m 0,0"
         id="path7663" />
    </clipPath>
    <clipPath
       id="clipPath7044">
      <path
         clip-rule="nonzero"
         d="m 249,5 h 10 v 12.433594 h -10 z m 0,0"
         id="path8679" />
    </clipPath>
    <clipPath
       id="clipPath4664">
      <path
         clip-rule="nonzero"
         d="m 208,9 h 8 v 5.445313 h -8 z m 0,0"
         id="path2330" />
    </clipPath>
    <clipPath
       id="clipPath6565">
      <path
         clip-rule="nonzero"
         d="m 232,6 h 6 v 8.445313 h -6 z m 0,0"
         id="path4687" />
    </clipPath>
    <clipPath
       id="clipPath5184">
      <path
         clip-rule="nonzero"
         d="m 208,9 h 8 v 5.445313 h -8 z m 0,0"
         id="path8638" />
    </clipPath>
    <clipPath
       id="clipPath7469">
      <path
         clip-rule="nonzero"
         d="m 232,6 h 6 v 8.445313 h -6 z m 0,0"
         id="path6122" />
    </clipPath>
    <clipPath
       id="clipPath2176">
      <path
         clip-rule="nonzero"
         d="m 213,10 h 5 v 6.238281 h -5 z m 0,0"
         id="path2672" />
    </clipPath>
    <clipPath
       id="clipPath6319">
      <path
         clip-rule="nonzero"
         d="m 213,10 h 5 v 6.238281 h -5 z m 0,0"
         id="path5985" />
    </clipPath>
    <clipPath
       id="clipPath3005">
      <path
         clip-rule="nonzero"
         d="m 192,6 h 24 v 8.445313 h -24 z m 0,0"
         id="path8864" />
    </clipPath>
    <clipPath
       id="clipPath6475">
      <path
         clip-rule="nonzero"
         d="m 219,6 h 19 v 8.445313 h -19 z m 0,0"
         id="path5447" />
    </clipPath>
    <clipPath
       id="clipPath9794">
      <path
         clip-rule="nonzero"
         d="m 237,9 h 10 v 5.445313 h -10 z m 0,0"
         id="path8841" />
    </clipPath>
    <clipPath
       id="clipPath5544">
      <path
         clip-rule="nonzero"
         d="m 246,6 h 9 v 8.445313 h -9 z m 0,0"
         id="path1182" />
    </clipPath>
    <clipPath
       id="clipPath5584">
      <path
         clip-rule="nonzero"
         d="m 219,5 h 9 v 9.445313 h -9 z m 0,0"
         id="path4502" />
    </clipPath>
    <clipPath
       id="clipPath6455">
      <path
         clip-rule="nonzero"
         d="m 218,9 h 6 v 7.769531 h -6 z m 0,0"
         id="path7499" />
    </clipPath>
    <clipPath
       id="clipPath2460">
      <path
         clip-rule="nonzero"
         d="m 224,10 h 4 v 6.769531 h -4 z m 0,0"
         id="path9424" />
    </clipPath>
    <clipPath
       id="clipPath2010">
      <path
         clip-rule="nonzero"
         d="m 218,9 h 6 v 7.769531 h -6 z m 0,0"
         id="path2256" />
    </clipPath>
    <clipPath
       id="clipPath794">
      <path
         clip-rule="nonzero"
         d="m 224,10 h 4 v 6.769531 h -4 z m 0,0"
         id="path2773" />
    </clipPath>
    <clipPath
       id="clipPath2970">
      <path
         clip-rule="nonzero"
         d="m 218,9 h 6 v 7.769531 h -6 z m 0,0"
         id="path5480" />
    </clipPath>
    <clipPath
       id="clipPath5611">
      <path
         clip-rule="nonzero"
         d="m 224,10 h 4 v 6.769531 h -4 z m 0,0"
         id="path2858" />
    </clipPath>
  </defs>
  <g
     inkscape:label="Camada 1"
     inkscape:groupmode="layer"
     id="layer1"
     transform="translate(-51.701192,-119.72615)">
    <path
       style="fill:#000000;fill-opacity:0.25;stroke:none;stroke-width:0.499999;stroke-dasharray:1.5, 0.999998;stroke-dashoffset:0;stroke-opacity:1"
       d="m 73.612157,182.5 4.330129,-2.5 43.301264,25 -4.33012,2.5 z"
       id="path2382" />
    <path
       style="fill:none;stroke:#000000;stroke-width:0.5;stroke-dasharray:none;stroke-opacity:1"
       d="m 73.612157,132.5 43.301273,25 4.33012,-2.5 -43.301264,-25 z"
       id="path190" />
    <path
       style="fill:none;stroke:#000000;stroke-width:0.499999;stroke-dasharray:none;stroke-opacity:1"
       d="m 73.612157,132.5 v 50 l 43.301273,25 v -50"
       id="path904" />
    <path
       style="fill:none;stroke:#000000;stroke-width:0.499999;stroke-dasharray:none;stroke-opacity:1"
       d="m 116.91343,207.5 4.33012,-2.5 v -50"
       id="path906" />
    <path
       style="fill:none;stroke:#000000;stroke-width:0.264583;stroke-dasharray:0.79375, 0.529167;stroke-dashoffset:0;stroke-opacity:1"
       d="m 121.24355,205 -43.301264,-25 -4.330129,2.5"
       id="path908" />
    <path
       style="fill:none;stroke:#000000;stroke-width:0.264583;stroke-dasharray:0.79375, 0.529167;stroke-dashoffset:0;stroke-opacity:1"
       d="M 77.942286,180 V 130"
       id="path910" />
    <path
       style="fill:none;stroke:#000000;stroke-width:0.264583;stroke-dasharray:0.79375, 0.529167;stroke-dashoffset:0;stroke-opacity:1"
       d="m 77.942286,135 -4.330129,2.5"
       id="path2378" />
    <path
       style="fill:none;stroke:#000000;stroke-width:0.499999;stroke-dasharray:none;stroke-opacity:1"
       d="m 121.24355,160 -4.33012,2.5"
       id="path2380" />
    <path
       style="fill:#bfbfbf;fill-opacity:1;stroke:#000000;stroke-width:0.25;stroke-dasharray:none;stroke-dashoffset:0;stroke-opacity:1"
       d="m 116.0474,208 -8.66025,5"
       id="path5162" />
    <path
       style="fill:#bfbfbf;fill-opacity:1;stroke:#000000;stroke-width:0.25;stroke-dasharray:none;stroke-dashoffset:0;stroke-opacity:1;marker-start:url(#TriangleStart);marker-end:url(#TriangleStart)"
       d="m 109.98522,211.5 -43.301265,-25"
       id="path5164" />
    <path
       style="fill:#bfbfbf;fill-opacity:1;stroke:#000000;stroke-width:0.25;stroke-dasharray:none;stroke-dashoffset:0;stroke-opacity:1"
       d="m 72.746134,183 -8.660255,5"
       id="path5166" />
    <path
       style="fill:#bfbfbf;fill-opacity:1;stroke:#000000;stroke-width:0.25;stroke-dasharray:none;stroke-dashoffset:0;stroke-opacity:1;marker-start:url(#TriangleStart);marker-end:url(#TriangleStart)"
       d="m 66.683955,186.5 v -50"
       id="path5168" />
    <path
       style="fill:#bfbfbf;fill-opacity:1;stroke:#000000;stroke-width:0.25;stroke-dasharray:none;stroke-dashoffset:0;stroke-opacity:1"
       d="m 72.746134,133 -8.660255,5"
       id="path5170" />
    <path
       style="fill:#bfbfbf;fill-opacity:1;stroke:#000000;stroke-width:0.25;stroke-dasharray:none;stroke-dashoffset:0;stroke-opacity:1"
       d="m 117.77945,208 8.66026,5"
       id="path5172" />
    <path
       style="fill:#bfbfbf;fill-opacity:1;stroke:#000000;stroke-width:0.25;stroke-dasharray:none;stroke-dashoffset:0;stroke-opacity:1"
       d="m 122.10958,205.5 8.66025,5"
       id="path5174" />
    <path
       style="fill:#bfbfbf;fill-opacity:1;stroke:#000000;stroke-width:0.25;stroke-dasharray:none;stroke-dashoffset:0;stroke-opacity:1;marker-start:url(#TriangleStart);marker-end:url(#TriangleStart)"
       d="m 123.84163,211.5 4.33013,-2.5"
       id="path5176" />
    <path
       style="fill:#bfbfbf;fill-opacity:1;stroke:#000000;stroke-width:0.25;stroke-dasharray:none;stroke-dashoffset:0;stroke-opacity:1;marker-end:url(#TriangleStart)"
       d="m 84.437479,136.25 25.980761,15"
       id="path5543" />
    <g
       inkscape:label=""
       transform="translate(80.100619,199.69455)"
       id="g8455">
      <g
         clip-path="url(#clipPath2917)"
         id="g30"
         transform="matrix(0.352778,0,0,0.352778,-76.4977,-2.29054)">
        <g
           fill="#000000"
           fill-opacity="1"
           id="g28">
          <g
             id="use26"
             transform="translate(215.75,14.446)">
            <path
               d="m 3.4375,-7.65625 c 0,-0.28125 0,-0.296875 -0.234375,-0.296875 C 2.921875,-7.625 2.3125,-7.1875 1.09375,-7.1875 v 0.34375 c 0.265625,0 0.859375,0 1.53125,-0.296875 v 6.21875 c 0,0.4375 -0.046875,0.578125 -1.09375,0.578125 h -0.375 V 0 c 0.328125,-0.03125 1.484375,-0.03125 1.875,-0.03125 0.40625,0 1.546875,0 1.875,0.03125 v -0.34375 h -0.375 c -1.046875,0 -1.09375,-0.140625 -1.09375,-0.578125 z m 0,0"
               id="path48" />
          </g>
        </g>
      </g>
      <g
         clip-path="url(#clipPath9336)"
         id="g36"
         transform="matrix(0.352778,0,0,0.352778,-76.4977,-2.29054)">
        <g
           fill="#000000"
           fill-opacity="1"
           id="g34">
          <g
             id="use32"
             transform="translate(221.603,14.446)">
            <path
               d="m 2.203125,-0.578125 c 0,-0.34375 -0.296875,-0.578125 -0.578125,-0.578125 -0.34375,0 -0.578125,0.28125 -0.578125,0.578125 0,0.34375 0.28125,0.578125 0.5625,0.578125 0.34375,0 0.59375,-0.28125 0.59375,-0.578125 z m 0,0"
               id="path52" />
          </g>
        </g>
      </g>
      <g
         clip-path="url(#clipPath1938)"
         id="g42"
         transform="matrix(0.352778,0,0,0.352778,-76.4977,-2.29054)">
        <g
           fill="#000000"
           fill-opacity="1"
           id="g40">
          <g
             id="use38"
             transform="translate(224.854,14.446)">
            <path
               d="m 5.359375,-3.828125 c 0,-0.984375 -0.0625,-1.953125 -0.5,-2.859375 -0.484375,-1 -1.34375,-1.265625 -1.9375,-1.265625 -0.6875,0 -1.53125,0.34375 -1.984375,1.34375 -0.328125,0.75 -0.453125,1.5 -0.453125,2.78125 0,1.15625 0.09375,2.03125 0.515625,2.890625 0.46875,0.90625 1.296875,1.1875 1.921875,1.1875 1.03125,0 1.625,-0.625 1.984375,-1.3125 0.421875,-0.890625 0.453125,-2.0625 0.453125,-2.765625 z m -2.4375,3.84375 C 2.53125,0.015625 1.75,-0.203125 1.53125,-1.5 c -0.125,-0.71875 -0.125,-1.625 -0.125,-2.46875 0,-0.984375 0,-1.859375 0.1875,-2.5625 0.203125,-0.8125 0.8125,-1.171875 1.328125,-1.171875 0.453125,0 1.140625,0.265625 1.375,1.296875 0.15625,0.6875 0.15625,1.625 0.15625,2.4375 0,0.796875 0,1.703125 -0.140625,2.4375 -0.21875,1.3125 -0.984375,1.546875 -1.390625,1.546875 z m 0,0"
               id="path56" />
          </g>
        </g>
      </g>
    </g>
    <g
       inkscape:label=""
       transform="translate(59.15554,158.68421)"
       id="g8618">
      <g
         clip-path="url(#clipPath7712)"
         id="g8600"
         transform="matrix(0.352778,0,0,0.352778,-76.4977,-2.29054)">
        <g
           fill="#000000"
           fill-opacity="1"
           id="g8598">
          <g
             id="g8596"
             transform="translate(215.75,14.446)">
            <path
               d="m 3.4375,-7.65625 c 0,-0.28125 0,-0.296875 -0.234375,-0.296875 C 2.921875,-7.625 2.3125,-7.1875 1.09375,-7.1875 v 0.34375 c 0.265625,0 0.859375,0 1.53125,-0.296875 v 6.21875 c 0,0.4375 -0.046875,0.578125 -1.09375,0.578125 h -0.375 V 0 c 0.328125,-0.03125 1.484375,-0.03125 1.875,-0.03125 0.40625,0 1.546875,0 1.875,0.03125 v -0.34375 h -0.375 c -1.046875,0 -1.09375,-0.140625 -1.09375,-0.578125 z m 0,0"
               id="path8594" />
          </g>
        </g>
      </g>
      <g
         clip-path="url(#clipPath966)"
         id="g8608"
         transform="matrix(0.352778,0,0,0.352778,-76.4977,-2.29054)">
        <g
           fill="#000000"
           fill-opacity="1"
           id="g8606">
          <g
             id="g8604"
             transform="translate(221.603,14.446)">
            <path
               d="m 2.203125,-0.578125 c 0,-0.34375 -0.296875,-0.578125 -0.578125,-0.578125 -0.34375,0 -0.578125,0.28125 -0.578125,0.578125 0,0.34375 0.28125,0.578125 0.5625,0.578125 0.34375,0 0.59375,-0.28125 0.59375,-0.578125 z m 0,0"
               id="path8602" />
          </g>
        </g>
      </g>
      <g
         clip-path="url(#clipPath91)"
         id="g8616"
         transform="matrix(0.352778,0,0,0.352778,-76.4977,-2.29054)">
        <g
           fill="#000000"
           fill-opacity="1"
           id="g8614">
          <g
             id="g8612"
             transform="translate(224.854,14.446)">
            <path
               d="m 5.359375,-3.828125 c 0,-0.984375 -0.0625,-1.953125 -0.5,-2.859375 -0.484375,-1 -1.34375,-1.265625 -1.9375,-1.265625 -0.6875,0 -1.53125,0.34375 -1.984375,1.34375 -0.328125,0.75 -0.453125,1.5 -0.453125,2.78125 0,1.15625 0.09375,2.03125 0.515625,2.890625 0.46875,0.90625 1.296875,1.1875 1.921875,1.1875 1.03125,0 1.625,-0.625 1.984375,-1.3125 0.421875,-0.890625 0.453125,-2.0625 0.453125,-2.765625 z m -2.4375,3.84375 C 2.53125,0.015625 1.75,-0.203125 1.53125,-1.5 c -0.125,-0.71875 -0.125,-1.625 -0.125,-2.46875 0,-0.984375 0,-1.859375 0.1875,-2.5625 0.203125,-0.8125 0.8125,-1.171875 1.328125,-1.171875 0.453125,0 1.140625,0.265625 1.375,1.296875 0.15625,0.6875 0.15625,1.625 0.15625,2.4375 0,0.796875 0,1.703125 -0.140625,2.4375 -0.21875,1.3125 -0.984375,1.546875 -1.390625,1.546875 z m 0,0"
               id="path8610" />
          </g>
        </g>
      </g>
    </g>
    <g
       inkscape:label=""
       transform="translate(128.07068,211.84439)"
       id="g8819">
      <g
         clip-path="url(#clipPath4542)"
         id="g8801"
         transform="matrix(0.352778,0,0,0.352778,-76.2827,-2.29054)">
        <g
           fill="#000000"
           fill-opacity="1"
           id="g8799">
          <g
             id="g8797"
             transform="translate(215.75,14.446)">
            <path
               d="m 5.359375,-3.828125 c 0,-0.984375 -0.0625,-1.953125 -0.5,-2.859375 -0.484375,-1 -1.34375,-1.265625 -1.9375,-1.265625 -0.6875,0 -1.53125,0.34375 -1.984375,1.34375 -0.328125,0.75 -0.453125,1.5 -0.453125,2.78125 0,1.15625 0.09375,2.03125 0.515625,2.890625 0.46875,0.90625 1.296875,1.1875 1.921875,1.1875 1.03125,0 1.625,-0.625 1.984375,-1.3125 0.421875,-0.890625 0.453125,-2.0625 0.453125,-2.765625 z m -2.4375,3.84375 C 2.53125,0.015625 1.75,-0.203125 1.53125,-1.5 c -0.125,-0.71875 -0.125,-1.625 -0.125,-2.46875 0,-0.984375 0,-1.859375 0.1875,-2.5625 0.203125,-0.8125 0.8125,-1.171875 1.328125,-1.171875 0.453125,0 1.140625,0.265625 1.375,1.296875 0.15625,0.6875 0.15625,1.625 0.15625,2.4375 0,0.796875 0,1.703125 -0.140625,2.4375 -0.21875,1.3125 -0.984375,1.546875 -1.390625,1.546875 z m 0,0"
               id="path8795" />
          </g>
        </g>
      </g>
      <g
         clip-path="url(#clipPath7862)"
         id="g8809"
         transform="matrix(0.352778,0,0,0.352778,-76.2827,-2.29054)">
        <g
           fill="#000000"
           fill-opacity="1"
           id="g8807">
          <g
             id="g8805"
             transform="translate(221.603,14.446)">
            <path
               d="m 2.203125,-0.578125 c 0,-0.34375 -0.296875,-0.578125 -0.578125,-0.578125 -0.34375,0 -0.578125,0.28125 -0.578125,0.578125 0,0.34375 0.28125,0.578125 0.5625,0.578125 0.34375,0 0.59375,-0.28125 0.59375,-0.578125 z m 0,0"
               id="path8803" />
          </g>
        </g>
      </g>
      <g
         clip-path="url(#clipPath6447)"
         id="g8817"
         transform="matrix(0.352778,0,0,0.352778,-76.2827,-2.29054)">
        <g
           fill="#000000"
           fill-opacity="1"
           id="g8815">
          <g
             id="g8813"
             transform="translate(224.854,14.446)">
            <path
               d="m 3.4375,-7.65625 c 0,-0.28125 0,-0.296875 -0.234375,-0.296875 C 2.921875,-7.625 2.3125,-7.1875 1.09375,-7.1875 v 0.34375 c 0.265625,0 0.859375,0 1.53125,-0.296875 v 6.21875 c 0,0.4375 -0.046875,0.578125 -1.09375,0.578125 h -0.375 V 0 c 0.328125,-0.03125 1.484375,-0.03125 1.875,-0.03125 0.40625,0 1.546875,0 1.875,0.03125 v -0.34375 h -0.375 c -1.046875,0 -1.09375,-0.140625 -1.09375,-0.578125 z m 0,0"
               id="path8811" />
          </g>
        </g>
      </g>
    </g>
    <g
       inkscape:label=""
       transform="translate(131.84714,160.20443)"
       id="g9058">
      <g
         clip-path="url(#clipPath5744)"
         id="g9040"
         transform="matrix(0.352778,0,0,0.352778,-76.2827,-2.29054)">
        <g
           fill="#000000"
           fill-opacity="1"
           id="g9038">
          <g
             id="g9036"
             transform="translate(215.75,14.446)">
            <path
               d="m 5.359375,-3.828125 c 0,-0.984375 -0.0625,-1.953125 -0.5,-2.859375 -0.484375,-1 -1.34375,-1.265625 -1.9375,-1.265625 -0.6875,0 -1.53125,0.34375 -1.984375,1.34375 -0.328125,0.75 -0.453125,1.5 -0.453125,2.78125 0,1.15625 0.09375,2.03125 0.515625,2.890625 0.46875,0.90625 1.296875,1.1875 1.921875,1.1875 1.03125,0 1.625,-0.625 1.984375,-1.3125 0.421875,-0.890625 0.453125,-2.0625 0.453125,-2.765625 z m -2.4375,3.84375 C 2.53125,0.015625 1.75,-0.203125 1.53125,-1.5 c -0.125,-0.71875 -0.125,-1.625 -0.125,-2.46875 0,-0.984375 0,-1.859375 0.1875,-2.5625 0.203125,-0.8125 0.8125,-1.171875 1.328125,-1.171875 0.453125,0 1.140625,0.265625 1.375,1.296875 0.15625,0.6875 0.15625,1.625 0.15625,2.4375 0,0.796875 0,1.703125 -0.140625,2.4375 -0.21875,1.3125 -0.984375,1.546875 -1.390625,1.546875 z m 0,0"
               id="path9034" />
          </g>
        </g>
      </g>
      <g
         clip-path="url(#clipPath8179)"
         id="g9048"
         transform="matrix(0.352778,0,0,0.352778,-76.2827,-2.29054)">
        <g
           fill="#000000"
           fill-opacity="1"
           id="g9046">
          <g
             id="g9044"
             transform="translate(221.603,14.446)">
            <path
               d="m 2.203125,-0.578125 c 0,-0.34375 -0.296875,-0.578125 -0.578125,-0.578125 -0.34375,0 -0.578125,0.28125 -0.578125,0.578125 0,0.34375 0.28125,0.578125 0.5625,0.578125 0.34375,0 0.59375,-0.28125 0.59375,-0.578125 z m 0,0"
               id="path9042" />
          </g>
        </g>
      </g>
      <g
         clip-path="url(#clipPath3096)"
         id="g9056"
         transform="matrix(0.352778,0,0,0.352778,-76.2827,-2.29054)">
        <g
           fill="#000000"
           fill-opacity="1"
           id="g9054">
          <g
             id="g9052"
             transform="translate(224.854,14.446)">
            <path
               d="m 3.4375,-7.65625 c 0,-0.28125 0,-0.296875 -0.234375,-0.296875 C 2.921875,-7.625 2.3125,-7.1875 1.09375,-7.1875 v 0.34375 c 0.265625,0 0.859375,0 1.53125,-0.296875 v 6.21875 c 0,0.4375 -0.046875,0.578125 -1.09375,0.578125 h -0.375 V 0 c 0.328125,-0.03125 1.484375,-0.03125 1.875,-0.03125 0.40625,0 1.546875,0 1.875,0.03125 v -0.34375 h -0.375 c -1.046875,0 -1.09375,-0.140625 -1.09375,-0.578125 z m 0,0"
               id="path9050" />
          </g>
        </g>
      </g>
    </g>
    <path
       style="fill:#bfbfbf;fill-opacity:1;stroke:#000000;stroke-width:0.25;stroke-dasharray:none;stroke-dashoffset:0;stroke-opacity:1"
       d="m 122.10958,160.5 8.66025,5"
       id="path9458" />
    <path
       style="fill:#bfbfbf;fill-opacity:1;stroke:#000000;stroke-width:0.25;stroke-dasharray:none;stroke-dashoffset:0;stroke-opacity:1"
       d="m 122.10958,155.5 8.66025,5"
       id="path9460" />
    <path
       style="fill:#bfbfbf;fill-opacity:1;stroke:#000000;stroke-width:0.25;stroke-dasharray:none;stroke-dashoffset:0;stroke-opacity:1;marker-start:url(#TriangleStart);marker-end:url(#TriangleStart)"
       d="m 128.17176,164 v -5"
       id="path9462" />
    <g
       inkscape:label=""
       transform="translate(101.6981,138.84308)"
       id="g10900">
      <g
         fill="#000000"
         fill-opacity="1"
         id="g54"
         transform="matrix(0.352778,0,0,0.352778,-63.6199,-1.45322)">
        <g
           id="use52"
           transform="translate(179.965,14.446)">
          <path
             d="M 6.734375,-3.796875 C 6.8125,-4.125 6.953125,-4.703125 6.953125,-4.78125 c 0,-0.25 -0.1875,-0.53125 -0.5625,-0.53125 -0.1875,0 -0.625,0.109375 -0.78125,0.640625 -0.046875,0.171875 -0.59375,2.328125 -0.6875,2.71875 -0.0625,0.28125 -0.15625,0.625 -0.171875,0.84375 -0.21875,0.28125 -0.6875,0.78125 -1.296875,0.78125 -0.703125,0 -0.71875,-0.609375 -0.71875,-0.875 0,-0.734375 0.375,-1.671875 0.703125,-2.53125 0.125,-0.3125 0.15625,-0.390625 0.15625,-0.59375 0,-0.6875 -0.6875,-1.078125 -1.34375,-1.078125 -1.265625,0 -1.875,1.625 -1.875,1.875 0,0.15625 0.1875,0.15625 0.296875,0.15625 0.140625,0 0.21875,0 0.265625,-0.15625 0.40625,-1.328125 1.046875,-1.4375 1.234375,-1.4375 0.09375,0 0.203125,0 0.203125,0.25 0,0.265625 -0.140625,0.609375 -0.1875,0.75 -0.5,1.25 -0.734375,1.921875 -0.734375,2.515625 0,1.359375 1.203125,1.546875 1.90625,1.546875 0.34375,0 0.875,-0.046875 1.515625,-0.65625 0.390625,0.59375 1.078125,0.65625 1.359375,0.65625 0.453125,0 0.796875,-0.25 1.046875,-0.671875 0.296875,-0.484375 0.453125,-1.125 0.453125,-1.1875 0,-0.171875 -0.1875,-0.171875 -0.28125,-0.171875 -0.140625,0 -0.1875,0 -0.25,0.0625 -0.015625,0.015625 -0.015625,0.046875 -0.09375,0.34375 -0.234375,0.9375 -0.5,1.203125 -0.8125,1.203125 -0.171875,0 -0.265625,-0.125 -0.265625,-0.453125 0,-0.203125 0.046875,-0.390625 0.15625,-0.875 0.09375,-0.328125 0.203125,-0.8125 0.265625,-1.0625 z m 0,0"
             id="path118" />
        </g>
      </g>
      <g
         fill="#000000"
         fill-opacity="1"
         id="g58"
         transform="matrix(0.352778,0,0,0.352778,-63.6199,-1.45322)">
        <g
           id="use56"
           transform="translate(191.427,14.446)">
          <path
             d="m 8.0625,-3.875 c 0.171875,0 0.390625,0 0.390625,-0.21875 C 8.453125,-4.3125 8.25,-4.3125 8.0625,-4.3125 H 1.03125 c -0.171875,0 -0.390625,0 -0.390625,0.21875 0,0.21875 0.203125,0.21875 0.390625,0.21875 z m 0,2.21875 c 0.171875,0 0.390625,0 0.390625,-0.203125 C 8.453125,-2.09375 8.25,-2.09375 8.0625,-2.09375 H 1.03125 c -0.171875,0 -0.390625,0 -0.390625,0.21875 0,0.21875 0.203125,0.21875 0.390625,0.21875 z m 0,0"
             id="path122" />
        </g>
      </g>
      <g
         clip-path="url(#clipPath1655)"
         id="g64"
         transform="matrix(0.352778,0,0,0.352778,-63.6199,-1.45322)">
        <g
           fill="#000000"
           fill-opacity="1"
           id="g62">
          <g
             id="use60"
             transform="translate(203.85562,14.446)">
            <path
               d="m 3.890625,2.90625 c 0,-0.03125 0,-0.0625 -0.203125,-0.265625 C 2.484375,1.4375 1.8125,-0.53125 1.8125,-2.96875 c 0,-2.328125 0.5625,-4.328125 1.953125,-5.734375 0.125,-0.109375 0.125,-0.125 0.125,-0.171875 0,-0.0625 -0.0625,-0.09375 -0.109375,-0.09375 -0.15625,0 -1.140625,0.859375 -1.71875,2.03125 -0.609375,1.21875 -0.890625,2.484375 -0.890625,3.96875 0,1.0625 0.171875,2.484375 0.78125,3.75 C 2.671875,2.21875 3.640625,3 3.78125,3 3.828125,3 3.890625,2.96875 3.890625,2.90625 Z m 0,0"
               id="path126" />
          </g>
        </g>
      </g>
      <g
         fill="#000000"
         fill-opacity="1"
         id="g68"
         transform="matrix(0.352778,0,0,0.352778,-63.6199,-1.45322)">
        <g
           id="use66"
           transform="translate(208.405,14.446)">
          <path
             d="M 4.078125,-0.6875 C 4.234375,-0.03125 4.8125,0.125 5.09375,0.125 c 0.375,0 0.671875,-0.25 0.859375,-0.65625 0.203125,-0.4375 0.359375,-1.140625 0.359375,-1.171875 0,-0.0625 -0.046875,-0.109375 -0.125,-0.109375 -0.109375,0 -0.109375,0.0625 -0.15625,0.234375 C 5.8125,-0.75 5.59375,-0.125 5.109375,-0.125 4.75,-0.125 4.75,-0.515625 4.75,-0.671875 4.75,-0.9375 4.796875,-1.0625 4.90625,-1.5625 5,-1.890625 5.078125,-2.21875 5.15625,-2.546875 L 5.640625,-4.5 C 5.71875,-4.796875 5.71875,-4.8125 5.71875,-4.859375 c 0,-0.171875 -0.140625,-0.296875 -0.3125,-0.296875 -0.34375,0 -0.4375,0.296875 -0.5,0.609375 -0.125,0.453125 -0.765625,3.03125 -0.859375,3.453125 0,0 -0.46875,0.96875 -1.34375,0.96875 -0.625,0 -0.75,-0.53125 -0.75,-0.96875 0,-0.6875 0.34375,-1.640625 0.65625,-2.4375 C 2.75,-3.921875 2.8125,-4.078125 2.8125,-4.3125 c 0,-0.515625 -0.375,-0.953125 -0.953125,-0.953125 -1.09375,0 -1.53125,1.734375 -1.53125,1.828125 0,0.046875 0.046875,0.109375 0.125,0.109375 0.109375,0 0.125,-0.046875 0.171875,-0.21875 0.28125,-1.03125 0.75,-1.484375 1.203125,-1.484375 0.125,0 0.3125,0.015625 0.3125,0.390625 0,0.3125 -0.125,0.65625 -0.3125,1.109375 C 1.296875,-2.109375 1.25,-1.65625 1.25,-1.296875 1.25,-0.078125 2.15625,0.125 2.65625,0.125 c 0.765625,0 1.1875,-0.53125 1.421875,-0.8125 z m 0,0"
             id="path130" />
        </g>
      </g>
      <g
         fill="#000000"
         fill-opacity="1"
         id="g72"
         transform="matrix(0.352778,0,0,0.352778,-63.6199,-1.45322)">
        <g
           id="use70"
           transform="translate(215.067,16.239)">
          <path
             d="m 2.5,-5.078125 c 0,-0.21875 -0.015625,-0.21875 -0.234375,-0.21875 -0.328125,0.3125 -0.75,0.5 -1.5,0.5 v 0.265625 c 0.21875,0 0.640625,0 1.109375,-0.203125 v 4.078125 c 0,0.296875 -0.03125,0.390625 -0.78125,0.390625 H 0.8125 V 0 c 0.328125,-0.03125 1.015625,-0.03125 1.375,-0.03125 0.359375,0 1.046875,0 1.375,0.03125 V -0.265625 H 3.28125 c -0.75,0 -0.78125,-0.09375 -0.78125,-0.390625 z m 0,0"
             id="path134" />
        </g>
      </g>
      <g
         clip-path="url(#clipPath6376)"
         id="g78"
         transform="matrix(0.352778,0,0,0.352778,-63.6199,-1.45322)">
        <g
           fill="#000000"
           fill-opacity="1"
           id="g76">
          <g
             id="use74"
             transform="translate(219.8,14.446)">
            <path
               d="m 3.890625,2.90625 c 0,-0.03125 0,-0.0625 -0.203125,-0.265625 C 2.484375,1.4375 1.8125,-0.53125 1.8125,-2.96875 c 0,-2.328125 0.5625,-4.328125 1.953125,-5.734375 0.125,-0.109375 0.125,-0.125 0.125,-0.171875 0,-0.0625 -0.0625,-0.09375 -0.109375,-0.09375 -0.15625,0 -1.140625,0.859375 -1.71875,2.03125 -0.609375,1.21875 -0.890625,2.484375 -0.890625,3.96875 0,1.0625 0.171875,2.484375 0.78125,3.75 C 2.671875,2.21875 3.640625,3 3.78125,3 3.828125,3 3.890625,2.96875 3.890625,2.90625 Z m 0,0"
               id="path138" />
          </g>
        </g>
      </g>
      <g
         fill="#000000"
         fill-opacity="1"
         id="g82"
         transform="matrix(0.352778,0,0,0.352778,-63.6199,-1.45322)">
        <g
           id="use80"
           transform="translate(224.35201,14.446)">
          <path
             d="M 2.40625,-4.8125 H 3.5 c 0.234375,0 0.34375,0 0.34375,-0.203125 0,-0.140625 -0.0625,-0.140625 -0.3125,-0.140625 H 2.484375 l 0.4375,-1.734375 C 2.96875,-7.0625 2.96875,-7.09375 2.96875,-7.171875 c 0,-0.1875 -0.140625,-0.296875 -0.296875,-0.296875 -0.109375,0 -0.375,0.03125 -0.46875,0.421875 l -0.46875,1.890625 h -1.125 c -0.234375,0 -0.34375,0 -0.34375,0.234375 0,0.109375 0.078125,0.109375 0.3125,0.109375 h 1.0625 L 0.84375,-1.65625 c -0.09375,0.421875 -0.125,0.546875 -0.125,0.703125 0,0.5625 0.390625,1.078125 1.0625,1.078125 1.203125,0 1.859375,-1.75 1.859375,-1.828125 0,-0.078125 -0.0625,-0.109375 -0.125,-0.109375 -0.03125,0 -0.078125,0 -0.09375,0.046875 C 3.40625,-1.75 3.390625,-1.75 3.3125,-1.546875 c -0.25,0.59375 -0.796875,1.421875 -1.5,1.421875 -0.359375,0 -0.375,-0.296875 -0.375,-0.5625 0,0 0,-0.234375 0.03125,-0.375 z m 0,0"
             id="path142" />
        </g>
      </g>
      <g
         clip-path="url(#clipPath7240)"
         id="g88"
         transform="matrix(0.352778,0,0,0.352778,-63.6199,-1.45322)">
        <g
           fill="#000000"
           fill-opacity="1"
           id="g86">
          <g
             id="use84"
             transform="translate(228.57899,14.446)">
            <path
               d="M 3.375,-2.96875 C 3.375,-3.890625 3.25,-5.359375 2.578125,-6.75 1.875,-8.1875 0.890625,-8.96875 0.765625,-8.96875 c -0.046875,0 -0.109375,0.03125 -0.109375,0.09375 0,0.046875 0,0.0625 0.203125,0.265625 1.203125,1.203125 1.859375,3.1875 1.859375,5.625 0,2.3125 -0.5625,4.3125 -1.9375,5.71875 C 0.65625,2.84375 0.65625,2.875 0.65625,2.90625 0.65625,2.96875 0.71875,3 0.765625,3 0.921875,3 1.90625,2.140625 2.484375,0.96875 3.09375,-0.25 3.375,-1.546875 3.375,-2.96875 Z m 0,0"
               id="path146" />
          </g>
        </g>
      </g>
      <g
         fill="#000000"
         fill-opacity="1"
         id="g92"
         transform="matrix(0.352778,0,0,0.352778,-63.6199,-1.45322)">
        <g
           id="use90"
           transform="translate(233.131,14.446)">
          <path
             d="m 2.328125,0.046875 c 0,-0.6875 -0.21875,-1.203125 -0.71875,-1.203125 -0.375,0 -0.5625,0.3125 -0.5625,0.578125 C 1.046875,-0.328125 1.21875,0 1.625,0 1.78125,0 1.90625,-0.046875 2.015625,-0.15625 2.046875,-0.171875 2.0625,-0.171875 2.0625,-0.171875 c 0.03125,0 0.03125,0.15625 0.03125,0.21875 C 2.09375,0.4375 2.015625,1.21875 1.328125,2 1.1875,2.140625 1.1875,2.15625 1.1875,2.1875 c 0,0.0625 0.0625,0.125 0.125,0.125 0.09375,0 1.015625,-0.890625 1.015625,-2.265625 z m 0,0"
             id="path150" />
        </g>
      </g>
      <g
         fill="#000000"
         fill-opacity="1"
         id="g96"
         transform="matrix(0.352778,0,0,0.352778,-63.6199,-1.45322)">
        <g
           id="use94"
           transform="translate(238.37601,14.446)">
          <path
             d="m 5.359375,-3.828125 c 0,-0.984375 -0.0625,-1.953125 -0.5,-2.859375 -0.484375,-1 -1.34375,-1.265625 -1.9375,-1.265625 -0.6875,0 -1.53125,0.34375 -1.984375,1.34375 -0.328125,0.75 -0.453125,1.5 -0.453125,2.78125 0,1.15625 0.09375,2.03125 0.515625,2.890625 0.46875,0.90625 1.296875,1.1875 1.921875,1.1875 1.03125,0 1.625,-0.625 1.984375,-1.3125 0.421875,-0.890625 0.453125,-2.0625 0.453125,-2.765625 z m -2.4375,3.84375 C 2.53125,0.015625 1.75,-0.203125 1.53125,-1.5 c -0.125,-0.71875 -0.125,-1.625 -0.125,-2.46875 0,-0.984375 0,-1.859375 0.1875,-2.5625 0.203125,-0.8125 0.8125,-1.171875 1.328125,-1.171875 0.453125,0 1.140625,0.265625 1.375,1.296875 0.15625,0.6875 0.15625,1.625 0.15625,2.4375 0,0.796875 0,1.703125 -0.140625,2.4375 -0.21875,1.3125 -0.984375,1.546875 -1.390625,1.546875 z m 0,0"
             id="path154" />
        </g>
      </g>
      <g
         fill="#000000"
         fill-opacity="1"
         id="g100"
         transform="matrix(0.352778,0,0,0.352778,-63.6199,-1.45322)">
        <g
           id="use98"
           transform="translate(244.229,14.446)">
          <path
             d="m 2.328125,0.046875 c 0,-0.6875 -0.21875,-1.203125 -0.71875,-1.203125 -0.375,0 -0.5625,0.3125 -0.5625,0.578125 C 1.046875,-0.328125 1.21875,0 1.625,0 1.78125,0 1.90625,-0.046875 2.015625,-0.15625 2.046875,-0.171875 2.0625,-0.171875 2.0625,-0.171875 c 0.03125,0 0.03125,0.15625 0.03125,0.21875 C 2.09375,0.4375 2.015625,1.21875 1.328125,2 1.1875,2.140625 1.1875,2.15625 1.1875,2.1875 c 0,0.0625 0.0625,0.125 0.125,0.125 0.09375,0 1.015625,-0.890625 1.015625,-2.265625 z m 0,0"
             id="path158" />
        </g>
      </g>
      <g
         clip-path="url(#clipPath7044)"
         id="g108"
         transform="matrix(0.352778,0,0,0.352778,-63.6199,-1.45322)">
        <g
           fill="#000000"
           fill-opacity="1"
           id="g106">
          <g
             id="use102"
             transform="translate(249.47301,14.446)">
            <path
               d="m 5.359375,-3.828125 c 0,-0.984375 -0.0625,-1.953125 -0.5,-2.859375 -0.484375,-1 -1.34375,-1.265625 -1.9375,-1.265625 -0.6875,0 -1.53125,0.34375 -1.984375,1.34375 -0.328125,0.75 -0.453125,1.5 -0.453125,2.78125 0,1.15625 0.09375,2.03125 0.515625,2.890625 0.46875,0.90625 1.296875,1.1875 1.921875,1.1875 1.03125,0 1.625,-0.625 1.984375,-1.3125 0.421875,-0.890625 0.453125,-2.0625 0.453125,-2.765625 z m -2.4375,3.84375 C 2.53125,0.015625 1.75,-0.203125 1.53125,-1.5 c -0.125,-0.71875 -0.125,-1.625 -0.125,-2.46875 0,-0.984375 0,-1.859375 0.1875,-2.5625 0.203125,-0.8125 0.8125,-1.171875 1.328125,-1.171875 0.453125,0 1.140625,0.265625 1.375,1.296875 0.15625,0.6875 0.15625,1.625 0.15625,2.4375 0,0.796875 0,1.703125 -0.140625,2.4375 -0.21875,1.3125 -0.984375,1.546875 -1.390625,1.546875 z m 0,0"
               id="path162" />
          </g>
          <g
             id="use104"
             transform="translate(255.32626,14.446)">
            <path
               d="M 3.375,-2.96875 C 3.375,-3.890625 3.25,-5.359375 2.578125,-6.75 1.875,-8.1875 0.890625,-8.96875 0.765625,-8.96875 c -0.046875,0 -0.109375,0.03125 -0.109375,0.09375 0,0.046875 0,0.0625 0.203125,0.265625 1.203125,1.203125 1.859375,3.1875 1.859375,5.625 0,2.3125 -0.5625,4.3125 -1.9375,5.71875 C 0.65625,2.84375 0.65625,2.875 0.65625,2.90625 0.65625,2.96875 0.71875,3 0.765625,3 0.921875,3 1.90625,2.140625 2.484375,0.96875 3.09375,-0.25 3.375,-1.546875 3.375,-2.96875 Z m 0,0"
               id="path166" />
          </g>
        </g>
      </g>
      <g
         fill="#000000"
         fill-opacity="1"
         id="g112"
         transform="matrix(0.352778,0,0,0.352778,-63.6199,-1.45322)">
        <g
           id="use110"
           transform="translate(259.87799,9.5100002)">
          <path
             d="M 5.640625,-5.390625 H 0.46875 l -0.171875,1.8125 h 0.25 C 0.65625,-4.921875 0.84375,-5.125 2.0625,-5.125 c 0.15625,0 0.40625,0 0.46875,0.015625 C 2.671875,-5.078125 2.6875,-5 2.6875,-4.796875 v 4.140625 c 0,0.28125 0,0.390625 -0.828125,0.390625 h -0.3125 V 0 c 0.296875,-0.03125 1.15625,-0.03125 1.5,-0.03125 0.34375,0 1.203125,0 1.5,0.03125 V -0.265625 H 4.25 c -0.828125,0 -0.828125,-0.109375 -0.828125,-0.390625 v -4.140625 c 0,-0.1875 0,-0.28125 0.15625,-0.3125 C 3.65625,-5.125 3.890625,-5.125 4.046875,-5.125 c 1.21875,0 1.390625,0.203125 1.5,1.546875 h 0.25 z m 0,0"
             id="path170" />
        </g>
      </g>
    </g>
    <g
       inkscape:label=""
       transform="translate(51.701193,151.72153)"
       id="g12061">
      <g
         clip-path="url(#clipPath4664)"
         id="g12049"
         transform="matrix(0.352778,0,0,0.352778,-73.4826,-2.32913)">
        <g
           fill="#000000"
           fill-opacity="1"
           id="g26">
          <g
             id="use24"
             transform="translate(207.922,14.446)">
            <path
               d="M 6.734375,-3.796875 C 6.8125,-4.125 6.953125,-4.703125 6.953125,-4.78125 c 0,-0.25 -0.1875,-0.53125 -0.5625,-0.53125 -0.1875,0 -0.625,0.109375 -0.78125,0.640625 -0.046875,0.171875 -0.59375,2.328125 -0.6875,2.71875 -0.0625,0.28125 -0.15625,0.625 -0.171875,0.84375 -0.21875,0.28125 -0.6875,0.78125 -1.296875,0.78125 -0.703125,0 -0.71875,-0.609375 -0.71875,-0.875 0,-0.734375 0.375,-1.671875 0.703125,-2.53125 0.125,-0.3125 0.15625,-0.390625 0.15625,-0.59375 0,-0.6875 -0.6875,-1.078125 -1.34375,-1.078125 -1.265625,0 -1.875,1.625 -1.875,1.875 0,0.15625 0.1875,0.15625 0.296875,0.15625 0.140625,0 0.21875,0 0.265625,-0.15625 0.40625,-1.328125 1.046875,-1.4375 1.234375,-1.4375 0.09375,0 0.203125,0 0.203125,0.25 0,0.265625 -0.140625,0.609375 -0.1875,0.75 -0.5,1.25 -0.734375,1.921875 -0.734375,2.515625 0,1.359375 1.203125,1.546875 1.90625,1.546875 0.34375,0 0.875,-0.046875 1.515625,-0.65625 0.390625,0.59375 1.078125,0.65625 1.359375,0.65625 0.453125,0 0.796875,-0.25 1.046875,-0.671875 0.296875,-0.484375 0.453125,-1.125 0.453125,-1.1875 0,-0.171875 -0.1875,-0.171875 -0.28125,-0.171875 -0.140625,0 -0.1875,0 -0.25,0.0625 -0.015625,0.015625 -0.015625,0.046875 -0.09375,0.34375 -0.234375,0.9375 -0.5,1.203125 -0.8125,1.203125 -0.171875,0 -0.265625,-0.125 -0.265625,-0.453125 0,-0.203125 0.046875,-0.390625 0.15625,-0.875 0.09375,-0.328125 0.203125,-0.8125 0.265625,-1.0625 z m 0,0"
               id="path44" />
          </g>
        </g>
      </g>
      <g
         fill="#000000"
         fill-opacity="1"
         id="g32"
         transform="matrix(0.352778,0,0,0.352778,-73.4826,-2.32913)">
        <g
           id="use30"
           transform="translate(219.384,14.446)">
          <path
             d="m 8.0625,-3.875 c 0.171875,0 0.390625,0 0.390625,-0.21875 C 8.453125,-4.3125 8.25,-4.3125 8.0625,-4.3125 H 1.03125 c -0.171875,0 -0.390625,0 -0.390625,0.21875 0,0.21875 0.203125,0.21875 0.390625,0.21875 z m 0,2.21875 c 0.171875,0 0.390625,0 0.390625,-0.203125 C 8.453125,-2.09375 8.25,-2.09375 8.0625,-2.09375 H 1.03125 c -0.171875,0 -0.390625,0 -0.390625,0.21875 0,0.21875 0.203125,0.21875 0.390625,0.21875 z m 0,0"
             id="path12051" />
        </g>
      </g>
      <g
         clip-path="url(#clipPath6565)"
         id="g38"
         transform="matrix(0.352778,0,0,0.352778,-73.4826,-2.32913)">
        <g
           fill="#000000"
           fill-opacity="1"
           id="g12058">
          <g
             id="use34"
             transform="translate(231.81,14.446)">
            <path
               d="m 6.1875,-3.8125 c 0,-1.140625 0,-4.03125 -2.828125,-4.03125 -2.828125,0 -2.828125,2.875 -2.828125,4.03125 0,1.140625 0,3.953125 2.8125,3.953125 2.828125,0 2.84375,-2.765625 2.84375,-3.953125 z M 3.359375,-0.25 c -0.390625,0 -0.671875,-0.15625 -0.90625,-0.40625 -0.296875,-0.296875 -0.5,-0.484375 -0.5,-3.296875 0,-0.84375 0,-1.609375 0.109375,-2.234375 0.15625,-1.171875 1.015625,-1.265625 1.28125,-1.265625 0.390625,0 1.125,0.1875 1.296875,1.1875 C 4.75,-5.65625 4.75,-4.6875 4.75,-3.953125 c 0,2.8125 -0.1875,2.984375 -0.546875,3.34375 C 3.96875,-0.375 3.640625,-0.25 3.359375,-0.25 Z m 0,0"
               id="path12055" />
          </g>
        </g>
      </g>
    </g>
    <g
       inkscape:label=""
       transform="translate(125.74335,183.75851)"
       id="g12477">
      <g
         clip-path="url(#clipPath5184)"
         id="g12461"
         transform="matrix(0.352778,0,0,0.352778,-73.4826,-2.32913)">
        <g
           fill="#000000"
           fill-opacity="1"
           id="g12459">
          <g
             id="g12457"
             transform="translate(207.922,14.446)">
            <path
               d="M 6.734375,-3.796875 C 6.8125,-4.125 6.953125,-4.703125 6.953125,-4.78125 c 0,-0.25 -0.1875,-0.53125 -0.5625,-0.53125 -0.1875,0 -0.625,0.109375 -0.78125,0.640625 -0.046875,0.171875 -0.59375,2.328125 -0.6875,2.71875 -0.0625,0.28125 -0.15625,0.625 -0.171875,0.84375 -0.21875,0.28125 -0.6875,0.78125 -1.296875,0.78125 -0.703125,0 -0.71875,-0.609375 -0.71875,-0.875 0,-0.734375 0.375,-1.671875 0.703125,-2.53125 0.125,-0.3125 0.15625,-0.390625 0.15625,-0.59375 0,-0.6875 -0.6875,-1.078125 -1.34375,-1.078125 -1.265625,0 -1.875,1.625 -1.875,1.875 0,0.15625 0.1875,0.15625 0.296875,0.15625 0.140625,0 0.21875,0 0.265625,-0.15625 0.40625,-1.328125 1.046875,-1.4375 1.234375,-1.4375 0.09375,0 0.203125,0 0.203125,0.25 0,0.265625 -0.140625,0.609375 -0.1875,0.75 -0.5,1.25 -0.734375,1.921875 -0.734375,2.515625 0,1.359375 1.203125,1.546875 1.90625,1.546875 0.34375,0 0.875,-0.046875 1.515625,-0.65625 0.390625,0.59375 1.078125,0.65625 1.359375,0.65625 0.453125,0 0.796875,-0.25 1.046875,-0.671875 0.296875,-0.484375 0.453125,-1.125 0.453125,-1.1875 0,-0.171875 -0.1875,-0.171875 -0.28125,-0.171875 -0.140625,0 -0.1875,0 -0.25,0.0625 -0.015625,0.015625 -0.015625,0.046875 -0.09375,0.34375 -0.234375,0.9375 -0.5,1.203125 -0.8125,1.203125 -0.171875,0 -0.265625,-0.125 -0.265625,-0.453125 0,-0.203125 0.046875,-0.390625 0.15625,-0.875 0.09375,-0.328125 0.203125,-0.8125 0.265625,-1.0625 z m 0,0"
               id="path12455" />
          </g>
        </g>
      </g>
      <g
         fill="#000000"
         fill-opacity="1"
         id="g12467"
         transform="matrix(0.352778,0,0,0.352778,-73.4826,-2.32913)">
        <g
           id="g12465"
           transform="translate(219.384,14.446)">
          <path
             d="m 8.0625,-3.875 c 0.171875,0 0.390625,0 0.390625,-0.21875 C 8.453125,-4.3125 8.25,-4.3125 8.0625,-4.3125 H 1.03125 c -0.171875,0 -0.390625,0 -0.390625,0.21875 0,0.21875 0.203125,0.21875 0.390625,0.21875 z m 0,2.21875 c 0.171875,0 0.390625,0 0.390625,-0.203125 C 8.453125,-2.09375 8.25,-2.09375 8.0625,-2.09375 H 1.03125 c -0.171875,0 -0.390625,0 -0.390625,0.21875 0,0.21875 0.203125,0.21875 0.390625,0.21875 z m 0,0"
             id="path12463" />
        </g>
      </g>
      <g
         clip-path="url(#clipPath7469)"
         id="g12475"
         transform="matrix(0.352778,0,0,0.352778,-73.4826,-2.32913)">
        <g
           fill="#000000"
           fill-opacity="1"
           id="g12473">
          <g
             id="g12471"
             transform="translate(231.81,14.446)">
            <path
               d="m 6.1875,-3.8125 c 0,-1.140625 0,-4.03125 -2.828125,-4.03125 -2.828125,0 -2.828125,2.875 -2.828125,4.03125 0,1.140625 0,3.953125 2.8125,3.953125 2.828125,0 2.84375,-2.765625 2.84375,-3.953125 z M 3.359375,-0.25 c -0.390625,0 -0.671875,-0.15625 -0.90625,-0.40625 -0.296875,-0.296875 -0.5,-0.484375 -0.5,-3.296875 0,-0.84375 0,-1.609375 0.109375,-2.234375 0.15625,-1.171875 1.015625,-1.265625 1.28125,-1.265625 0.390625,0 1.125,0.1875 1.296875,1.1875 C 4.75,-5.65625 4.75,-4.6875 4.75,-3.953125 c 0,2.8125 -0.1875,2.984375 -0.546875,3.34375 C 3.96875,-0.375 3.640625,-0.25 3.359375,-0.25 Z m 0,0"
               id="path12469" />
          </g>
        </g>
      </g>
    </g>
    <g
       inkscape:label=""
       transform="translate(126.76714,174.10577)"
       id="g13660">
      <g
         fill="#000000"
         fill-opacity="1"
         id="g13642"
         transform="matrix(0.352778,0,0,0.352778,-73.0459,-2.29054)">
        <g
           id="g13640"
           transform="translate(206.731,14.446)">
          <path
             d="M 4.078125,-0.6875 C 4.234375,-0.03125 4.8125,0.125 5.09375,0.125 c 0.375,0 0.671875,-0.25 0.859375,-0.65625 0.203125,-0.4375 0.359375,-1.140625 0.359375,-1.171875 0,-0.0625 -0.046875,-0.109375 -0.125,-0.109375 -0.109375,0 -0.109375,0.0625 -0.15625,0.234375 C 5.8125,-0.75 5.59375,-0.125 5.109375,-0.125 4.75,-0.125 4.75,-0.515625 4.75,-0.671875 4.75,-0.9375 4.796875,-1.0625 4.90625,-1.5625 5,-1.890625 5.078125,-2.21875 5.15625,-2.546875 L 5.640625,-4.5 C 5.71875,-4.796875 5.71875,-4.8125 5.71875,-4.859375 c 0,-0.171875 -0.140625,-0.296875 -0.3125,-0.296875 -0.34375,0 -0.4375,0.296875 -0.5,0.609375 -0.125,0.453125 -0.765625,3.03125 -0.859375,3.453125 0,0 -0.46875,0.96875 -1.34375,0.96875 -0.625,0 -0.75,-0.53125 -0.75,-0.96875 0,-0.6875 0.34375,-1.640625 0.65625,-2.4375 C 2.75,-3.921875 2.8125,-4.078125 2.8125,-4.3125 c 0,-0.515625 -0.375,-0.953125 -0.953125,-0.953125 -1.09375,0 -1.53125,1.734375 -1.53125,1.828125 0,0.046875 0.046875,0.109375 0.125,0.109375 0.109375,0 0.125,-0.046875 0.171875,-0.21875 0.28125,-1.03125 0.75,-1.484375 1.203125,-1.484375 0.125,0 0.3125,0.015625 0.3125,0.390625 0,0.3125 -0.125,0.65625 -0.3125,1.109375 C 1.296875,-2.109375 1.25,-1.65625 1.25,-1.296875 1.25,-0.078125 2.15625,0.125 2.65625,0.125 c 0.765625,0 1.1875,-0.53125 1.421875,-0.8125 z m 0,0"
             id="path46" />
        </g>
      </g>
      <g
         clip-path="url(#clipPath2176)"
         id="g13648"
         transform="matrix(0.352778,0,0,0.352778,-73.0459,-2.29054)">
        <g
           fill="#000000"
           fill-opacity="1"
           id="g13646">
          <g
             id="use28"
             transform="translate(213.394,16.239)">
            <path
               d="m 2.015625,-2.65625 c 0.625,0 1.03125,0.453125 1.03125,1.296875 0,1 -0.5625,1.28125 -0.984375,1.28125 -0.4375,0 -1.046875,-0.15625 -1.328125,-0.578125 0.296875,0 0.5,-0.1875 0.5,-0.4375 0,-0.265625 -0.1875,-0.4375 -0.453125,-0.4375 -0.203125,0 -0.4375,0.125 -0.4375,0.453125 0,0.75 0.8125,1.25 1.734375,1.25 C 3.125,0.171875 3.875,-0.5625 3.875,-1.359375 3.875,-2.03125 3.34375,-2.625 2.53125,-2.8125 c 0.625,-0.21875 1.109375,-0.75 1.109375,-1.390625 0,-0.640625 -0.71875,-1.09375 -1.546875,-1.09375 -0.859375,0 -1.5,0.453125 -1.5,1.0625 0,0.296875 0.1875,0.421875 0.40625,0.421875 0.25,0 0.40625,-0.171875 0.40625,-0.40625 0,-0.296875 -0.265625,-0.40625 -0.4375,-0.40625 0.34375,-0.4375 0.953125,-0.46875 1.09375,-0.46875 0.203125,0 0.8125,0.0625 0.8125,0.890625 0,0.546875 -0.234375,0.890625 -0.34375,1.015625 -0.234375,0.25 -0.421875,0.265625 -0.90625,0.296875 -0.15625,0 -0.21875,0.015625 -0.21875,0.125 0,0.109375 0.078125,0.109375 0.21875,0.109375 z m 0,0"
               id="path50" />
          </g>
        </g>
      </g>
      <g
         fill="#000000"
         fill-opacity="1"
         id="g13653"
         transform="matrix(0.352778,0,0,0.352778,-73.0459,-2.29054)">
        <g
           id="g13651"
           transform="translate(221.44701,14.446)">
          <path
             d="m 8.0625,-3.875 c 0.171875,0 0.390625,0 0.390625,-0.21875 C 8.453125,-4.3125 8.25,-4.3125 8.0625,-4.3125 H 1.03125 c -0.171875,0 -0.390625,0 -0.390625,0.21875 0,0.21875 0.203125,0.21875 0.390625,0.21875 z m 0,2.21875 c 0.171875,0 0.390625,0 0.390625,-0.203125 C 8.453125,-2.09375 8.25,-2.09375 8.0625,-2.09375 H 1.03125 c -0.171875,0 -0.390625,0 -0.390625,0.21875 0,0.21875 0.203125,0.21875 0.390625,0.21875 z m 0,0"
             id="path54" />
        </g>
      </g>
      <g
         fill="#000000"
         fill-opacity="1"
         id="g13658"
         transform="matrix(0.352778,0,0,0.352778,-73.0459,-2.29054)">
        <g
           id="g13656"
           transform="translate(233.87563,14.446)">
          <path
             d="m 5.359375,-3.828125 c 0,-0.984375 -0.0625,-1.953125 -0.5,-2.859375 -0.484375,-1 -1.34375,-1.265625 -1.9375,-1.265625 -0.6875,0 -1.53125,0.34375 -1.984375,1.34375 -0.328125,0.75 -0.453125,1.5 -0.453125,2.78125 0,1.15625 0.09375,2.03125 0.515625,2.890625 0.46875,0.90625 1.296875,1.1875 1.921875,1.1875 1.03125,0 1.625,-0.625 1.984375,-1.3125 0.421875,-0.890625 0.453125,-2.0625 0.453125,-2.765625 z m -2.4375,3.84375 C 2.53125,0.015625 1.75,-0.203125 1.53125,-1.5 c -0.125,-0.71875 -0.125,-1.625 -0.125,-2.46875 0,-0.984375 0,-1.859375 0.1875,-2.5625 0.203125,-0.8125 0.8125,-1.171875 1.328125,-1.171875 0.453125,0 1.140625,0.265625 1.375,1.296875 0.15625,0.6875 0.15625,1.625 0.15625,2.4375 0,0.796875 0,1.703125 -0.140625,2.4375 -0.21875,1.3125 -0.984375,1.546875 -1.390625,1.546875 z m 0,0"
             id="path58" />
        </g>
      </g>
    </g>
    <g
       inkscape:label=""
       transform="translate(80.577773,173.9124)"
       id="g14142">
      <g
         fill="#000000"
         fill-opacity="1"
         id="g14120"
         transform="matrix(0.352778,0,0,0.352778,-73.0459,-2.29054)">
        <g
           id="g14118"
           transform="translate(206.731,14.446)">
          <path
             d="M 4.078125,-0.6875 C 4.234375,-0.03125 4.8125,0.125 5.09375,0.125 c 0.375,0 0.671875,-0.25 0.859375,-0.65625 0.203125,-0.4375 0.359375,-1.140625 0.359375,-1.171875 0,-0.0625 -0.046875,-0.109375 -0.125,-0.109375 -0.109375,0 -0.109375,0.0625 -0.15625,0.234375 C 5.8125,-0.75 5.59375,-0.125 5.109375,-0.125 4.75,-0.125 4.75,-0.515625 4.75,-0.671875 4.75,-0.9375 4.796875,-1.0625 4.90625,-1.5625 5,-1.890625 5.078125,-2.21875 5.15625,-2.546875 L 5.640625,-4.5 C 5.71875,-4.796875 5.71875,-4.8125 5.71875,-4.859375 c 0,-0.171875 -0.140625,-0.296875 -0.3125,-0.296875 -0.34375,0 -0.4375,0.296875 -0.5,0.609375 -0.125,0.453125 -0.765625,3.03125 -0.859375,3.453125 0,0 -0.46875,0.96875 -1.34375,0.96875 -0.625,0 -0.75,-0.53125 -0.75,-0.96875 0,-0.6875 0.34375,-1.640625 0.65625,-2.4375 C 2.75,-3.921875 2.8125,-4.078125 2.8125,-4.3125 c 0,-0.515625 -0.375,-0.953125 -0.953125,-0.953125 -1.09375,0 -1.53125,1.734375 -1.53125,1.828125 0,0.046875 0.046875,0.109375 0.125,0.109375 0.109375,0 0.125,-0.046875 0.171875,-0.21875 0.28125,-1.03125 0.75,-1.484375 1.203125,-1.484375 0.125,0 0.3125,0.015625 0.3125,0.390625 0,0.3125 -0.125,0.65625 -0.3125,1.109375 C 1.296875,-2.109375 1.25,-1.65625 1.25,-1.296875 1.25,-0.078125 2.15625,0.125 2.65625,0.125 c 0.765625,0 1.1875,-0.53125 1.421875,-0.8125 z m 0,0"
             id="path14116" />
        </g>
      </g>
      <g
         clip-path="url(#clipPath6319)"
         id="g14128"
         transform="matrix(0.352778,0,0,0.352778,-73.0459,-2.29054)">
        <g
           fill="#000000"
           fill-opacity="1"
           id="g14126">
          <g
             id="g14124"
             transform="translate(213.394,16.239)">
            <path
               d="m 2.015625,-2.65625 c 0.625,0 1.03125,0.453125 1.03125,1.296875 0,1 -0.5625,1.28125 -0.984375,1.28125 -0.4375,0 -1.046875,-0.15625 -1.328125,-0.578125 0.296875,0 0.5,-0.1875 0.5,-0.4375 0,-0.265625 -0.1875,-0.4375 -0.453125,-0.4375 -0.203125,0 -0.4375,0.125 -0.4375,0.453125 0,0.75 0.8125,1.25 1.734375,1.25 C 3.125,0.171875 3.875,-0.5625 3.875,-1.359375 3.875,-2.03125 3.34375,-2.625 2.53125,-2.8125 c 0.625,-0.21875 1.109375,-0.75 1.109375,-1.390625 0,-0.640625 -0.71875,-1.09375 -1.546875,-1.09375 -0.859375,0 -1.5,0.453125 -1.5,1.0625 0,0.296875 0.1875,0.421875 0.40625,0.421875 0.25,0 0.40625,-0.171875 0.40625,-0.40625 0,-0.296875 -0.265625,-0.40625 -0.4375,-0.40625 0.34375,-0.4375 0.953125,-0.46875 1.09375,-0.46875 0.203125,0 0.8125,0.0625 0.8125,0.890625 0,0.546875 -0.234375,0.890625 -0.34375,1.015625 -0.234375,0.25 -0.421875,0.265625 -0.90625,0.296875 -0.15625,0 -0.21875,0.015625 -0.21875,0.125 0,0.109375 0.078125,0.109375 0.21875,0.109375 z m 0,0"
               id="path14122" />
          </g>
        </g>
      </g>
      <g
         fill="#000000"
         fill-opacity="1"
         id="g14134"
         transform="matrix(0.352778,0,0,0.352778,-73.0459,-2.29054)">
        <g
           id="g14132"
           transform="translate(221.44701,14.446)">
          <path
             d="m 8.0625,-3.875 c 0.171875,0 0.390625,0 0.390625,-0.21875 C 8.453125,-4.3125 8.25,-4.3125 8.0625,-4.3125 H 1.03125 c -0.171875,0 -0.390625,0 -0.390625,0.21875 0,0.21875 0.203125,0.21875 0.390625,0.21875 z m 0,2.21875 c 0.171875,0 0.390625,0 0.390625,-0.203125 C 8.453125,-2.09375 8.25,-2.09375 8.0625,-2.09375 H 1.03125 c -0.171875,0 -0.390625,0 -0.390625,0.21875 0,0.21875 0.203125,0.21875 0.390625,0.21875 z m 0,0"
             id="path14130" />
        </g>
      </g>
      <g
         fill="#000000"
         fill-opacity="1"
         id="g14140"
         transform="matrix(0.352778,0,0,0.352778,-73.0459,-2.29054)">
        <g
           id="g14138"
           transform="translate(233.87563,14.446)">
          <path
             d="m 5.359375,-3.828125 c 0,-0.984375 -0.0625,-1.953125 -0.5,-2.859375 -0.484375,-1 -1.34375,-1.265625 -1.9375,-1.265625 -0.6875,0 -1.53125,0.34375 -1.984375,1.34375 -0.328125,0.75 -0.453125,1.5 -0.453125,2.78125 0,1.15625 0.09375,2.03125 0.515625,2.890625 0.46875,0.90625 1.296875,1.1875 1.921875,1.1875 1.03125,0 1.625,-0.625 1.984375,-1.3125 0.421875,-0.890625 0.453125,-2.0625 0.453125,-2.765625 z m -2.4375,3.84375 C 2.53125,0.015625 1.75,-0.203125 1.53125,-1.5 c -0.125,-0.71875 -0.125,-1.625 -0.125,-2.46875 0,-0.984375 0,-1.859375 0.1875,-2.5625 0.203125,-0.8125 0.8125,-1.171875 1.328125,-1.171875 0.453125,0 1.140625,0.265625 1.375,1.296875 0.15625,0.6875 0.15625,1.625 0.15625,2.4375 0,0.796875 0,1.703125 -0.140625,2.4375 -0.21875,1.3125 -0.984375,1.546875 -1.390625,1.546875 z m 0,0"
             id="path14136" />
        </g>
      </g>
    </g>
    <g
       inkscape:label=""
       transform="translate(55.892223,194.52919)"
       id="g14900">
      <g
         clip-path="url(#clipPath3005)"
         id="g59"
         transform="matrix(0.352778,0,0,0.352778,-67.765,-2.12518)">
        <g
           fill="#000000"
           fill-opacity="1"
           id="g57">
          <g
             id="use49"
             transform="translate(191.57401,14.446)">
            <path
               d="M 0.515625,-8.15625 V -7.8125 H 0.75 c 0.859375,0 0.90625,0.109375 0.90625,0.5625 v 6.34375 c 0,0.4375 -0.046875,0.5625 -0.90625,0.5625 H 0.515625 V 0 h 4.5 C 6.546875,0 7.625,-1.046875 7.625,-2.1875 7.625,-3.15625 6.75,-4.109375 5.328125,-4.265625 6.46875,-4.484375 7.296875,-5.25 7.296875,-6.140625 7.296875,-7.171875 6.25,-8.15625 4.6875,-8.15625 Z M 2.5625,-4.359375 V -7.34375 c 0,-0.390625 0.015625,-0.46875 0.546875,-0.46875 h 1.5 c 1.203125,0 1.625,1.015625 1.625,1.671875 0,0.78125 -0.609375,1.78125 -1.9375,1.78125 z M 3.109375,-0.34375 C 2.578125,-0.34375 2.5625,-0.4375 2.5625,-0.828125 V -4.125 h 2.234375 c 1.140625,0 1.734375,1 1.734375,1.921875 0,0.96875 -0.71875,1.859375 -1.890625,1.859375 z m 0,0"
               id="path95" />
          </g>
          <g
             id="use51"
             transform="translate(199.86374,14.446)">
            <path
               d="m 4.609375,-3.1875 c 0,-0.65625 0,-1.125 -0.515625,-1.59375 C 3.671875,-5.15625 3.125,-5.328125 2.609375,-5.328125 1.625,-5.328125 0.875,-4.6875 0.875,-3.90625 c 0,0.34375 0.21875,0.515625 0.5,0.515625 0.28125,0 0.484375,-0.203125 0.484375,-0.5 C 1.859375,-4.375 1.4375,-4.375 1.25,-4.375 c 0.28125,-0.5 0.859375,-0.71875 1.328125,-0.71875 0.546875,0 1.265625,0.453125 1.265625,1.53125 v 0.484375 c -2.40625,0.03125 -3.3125,1.03125 -3.3125,1.953125 0,0.953125 1.09375,1.25 1.828125,1.25 0.78125,0 1.328125,-0.484375 1.546875,-1.0625 0.046875,0.5625 0.421875,1 0.9375,1 0.25,0 0.9375,-0.171875 0.9375,-1.125 V -1.734375 H 5.515625 V -1.0625 c 0,0.6875 -0.28125,0.78125 -0.453125,0.78125 -0.453125,0 -0.453125,-0.640625 -0.453125,-0.8125 z m -0.765625,1.5 c 0,1.171875 -0.875,1.5625 -1.390625,1.5625 -0.59375,0 -1.078125,-0.421875 -1.078125,-1 0,-1.578125 2.03125,-1.71875 2.46875,-1.75 z m 0,0"
               id="path99" />
          </g>
          <g
             id="use53"
             transform="translate(205.717,14.446)">
            <path
               d="m 3.921875,-5.0625 c 0,-0.203125 0,-0.265625 -0.125,-0.265625 -0.09375,0 -0.3125,0.265625 -0.40625,0.375 -0.359375,-0.3125 -0.734375,-0.375 -1.125,-0.375 -1.4375,0 -1.875,0.78125 -1.875,1.4375 0,0.140625 0,0.5625 0.453125,0.96875 0.390625,0.34375 0.796875,0.421875 1.34375,0.53125 0.65625,0.125 0.8125,0.171875 1.109375,0.40625 0.21875,0.171875 0.375,0.4375 0.375,0.78125 C 3.671875,-0.6875 3.375,-0.125 2.3125,-0.125 1.53125,-0.125 0.953125,-0.578125 0.6875,-1.765625 0.640625,-1.984375 0.640625,-2 0.640625,-2.015625 0.609375,-2.0625 0.5625,-2.0625 0.53125,-2.0625 0.390625,-2.0625 0.390625,-2 0.390625,-1.78125 v 1.625 c 0,0.21875 0,0.28125 0.125,0.28125 0.0625,0 0.0625,-0.015625 0.265625,-0.265625 C 0.84375,-0.234375 0.84375,-0.25 1.03125,-0.4375 1.484375,0.125 2.125,0.125 2.328125,0.125 c 1.25,0 1.875,-0.703125 1.875,-1.640625 0,-0.640625 -0.390625,-1.03125 -0.5,-1.140625 -0.421875,-0.375 -0.75,-0.4375 -1.546875,-0.578125 -0.34375,-0.078125 -1.21875,-0.25 -1.21875,-0.96875 0,-0.359375 0.25,-0.90625 1.328125,-0.90625 1.296875,0 1.375,1.109375 1.390625,1.46875 0.015625,0.109375 0.09375,0.109375 0.140625,0.109375 0.125,0 0.125,-0.0625 0.125,-0.28125 z m 0,0"
               id="path103" />
          </g>
          <g
             id="use55"
             transform="translate(210.33411,14.446)">
            <path
               d="m 4.578125,-2.765625 c 0.265625,0 0.28125,0 0.28125,-0.234375 0,-1.203125 -0.640625,-2.328125 -2.09375,-2.328125 -1.359375,0 -2.40625,1.234375 -2.40625,2.703125 0,1.578125 1.21875,2.75 2.546875,2.75 1.421875,0 1.953125,-1.296875 1.953125,-1.546875 0,-0.078125 -0.046875,-0.125 -0.125,-0.125 -0.09375,0 -0.125,0.0625 -0.140625,0.125 -0.3125,1 -1.109375,1.28125 -1.625,1.28125 -0.5,0 -1.703125,-0.34375 -1.703125,-2.40625 v -0.21875 z M 1.28125,-3 c 0.09375,-1.875 1.140625,-2.09375 1.484375,-2.09375 1.28125,0 1.34375,1.6875 1.359375,2.09375 z m 0,0"
               id="path107" />
          </g>
        </g>
      </g>
      <g
         clip-path="url(#clipPath6475)"
         id="g69"
         transform="matrix(0.352778,0,0,0.352778,-67.765,-2.12518)">
        <g
           fill="#000000"
           fill-opacity="1"
           id="g67">
          <g
             id="use61"
             transform="translate(219.4344,14.446)">
            <path
               d="M 5.25,-8.296875 C 5.15625,-8.28125 4.90625,-8.21875 4.84375,-8.21875 c -0.03125,0 -0.046875,0 -0.109375,-0.046875 -0.40625,-0.15625 -0.78125,-0.15625 -0.96875,-0.15625 -1.25,0 -2.515625,0.671875 -2.515625,1.890625 v 1.375 H 0.3125 V -4.8125 H 1.25 v 3.921875 c 0,0.546875 -0.140625,0.546875 -0.921875,0.546875 V 0 c 0.34375,-0.03125 0.921875,-0.03125 1.28125,-0.03125 0.359375,0 0.953125,0 1.296875,0.03125 V -0.34375 C 2.140625,-0.34375 2,-0.34375 2,-0.890625 V -4.8125 h 2.5 v 3.921875 C 4.5,-0.34375 4.359375,-0.34375 3.578125,-0.34375 V 0 C 3.921875,-0.03125 4.5,-0.03125 4.859375,-0.03125 c 0.359375,0 0.96875,0 1.296875,0.03125 v -0.34375 c -0.765625,0 -0.90625,0 -0.90625,-0.546875 z M 1.96875,-5.15625 V -6.5 c 0,-1.140625 0.90625,-1.671875 1.78125,-1.671875 0.421875,0 0.453125,0 0.734375,0.078125 0,0 0.015625,0.046875 0,0.0625 C 4.34375,-7.921875 4.25,-7.8125 4.25,-7.609375 c 0,0.09375 0.046875,0.296875 0.25,0.40625 v 2.046875 z m 0,0"
               id="path111" />
          </g>
          <g
             id="use63"
             transform="translate(225.93803,14.446)">
            <path
               d="m 4.578125,-2.765625 c 0.265625,0 0.28125,0 0.28125,-0.234375 0,-1.203125 -0.640625,-2.328125 -2.09375,-2.328125 -1.359375,0 -2.40625,1.234375 -2.40625,2.703125 0,1.578125 1.21875,2.75 2.546875,2.75 1.421875,0 1.953125,-1.296875 1.953125,-1.546875 0,-0.078125 -0.046875,-0.125 -0.125,-0.125 -0.09375,0 -0.125,0.0625 -0.140625,0.125 -0.3125,1 -1.109375,1.28125 -1.625,1.28125 -0.5,0 -1.703125,-0.34375 -1.703125,-2.40625 v -0.21875 z M 1.28125,-3 c 0.09375,-1.875 1.140625,-2.09375 1.484375,-2.09375 1.28125,0 1.34375,1.6875 1.359375,2.09375 z m 0,0"
               id="path115" />
          </g>
          <g
             id="use65"
             transform="translate(231.14093,14.446)">
            <path
               d="M 3.34375,-2.828125 C 3.6875,-3.28125 4.203125,-3.921875 4.421875,-4.171875 4.90625,-4.71875 5.46875,-4.8125 5.859375,-4.8125 V -5.15625 C 5.34375,-5.125 5.3125,-5.125 4.859375,-5.125 4.40625,-5.125 4.375,-5.125 3.78125,-5.15625 V -4.8125 C 3.9375,-4.78125 4.125,-4.703125 4.125,-4.4375 4.125,-4.234375 4.015625,-4.09375 3.9375,-4 L 3.171875,-3.03125 2.25,-4.265625 C 2.21875,-4.3125 2.140625,-4.421875 2.140625,-4.5 c 0,-0.078125 0.0625,-0.296875 0.421875,-0.3125 V -5.15625 C 2.265625,-5.125 1.65625,-5.125 1.328125,-5.125 c -0.390625,0 -0.421875,0 -1.15625,-0.03125 v 0.34375 c 0.609375,0 0.84375,0.03125 1.09375,0.359375 L 2.671875,-2.625 c 0.015625,0.015625 0.0625,0.09375 0.0625,0.125 0,0.03125 -0.921875,1.203125 -1.046875,1.359375 -0.53125,0.65625 -1.046875,0.78125 -1.5625,0.796875 V 0 c 0.453125,-0.03125 0.46875,-0.03125 0.984375,-0.03125 0.453125,0 0.484375,0 1.078125,0.03125 V -0.34375 C 1.90625,-0.375 1.859375,-0.5625 1.859375,-0.734375 c 0,-0.1875 0.078125,-0.28125 0.203125,-0.4375 0.171875,-0.25 0.5625,-0.734375 0.859375,-1.109375 L 3.890625,-1 c 0.203125,0.265625 0.203125,0.28125 0.203125,0.359375 0,0.09375 -0.09375,0.28125 -0.40625,0.296875 V 0 C 4,-0.03125 4.578125,-0.03125 4.90625,-0.03125 c 0.40625,0 0.421875,0 1.140625,0.03125 v -0.34375 c -0.625,0 -0.84375,-0.03125 -1.140625,-0.40625 z m 0,0"
               id="path119" />
          </g>
        </g>
      </g>
      <g
         fill="#000000"
         fill-opacity="1"
         id="g73"
         transform="matrix(0.352778,0,0,0.352778,-67.765,-2.12518)">
        <g
           id="use71"
           transform="translate(236.02821,14.446)">
          <path
             d="m 4.390625,-7.59375 c 0.1875,-0.15625 0.1875,-0.28125 0.1875,-0.34375 0,-0.21875 -0.203125,-0.390625 -0.40625,-0.390625 C 4,-8.328125 3.9375,-8.25 3.84375,-8.109375 l -1.421875,1.8125 c 0.046875,0.0625 0.109375,0.125 0.1875,0.1875 z m 0,0"
             id="path123" />
        </g>
      </g>
      <g
         clip-path="url(#clipPath9794)"
         id="g81"
         transform="matrix(0.352778,0,0,0.352778,-67.765,-2.12518)">
        <g
           fill="#000000"
           fill-opacity="1"
           id="g79">
          <g
             id="use75"
             transform="translate(237.32655,14.446)">
            <path
               d="m 2.0625,-5.265625 -1.625,0.125 v 0.34375 c 0.75,0 0.859375,0.078125 0.859375,0.65625 v 3.25 c 0,0.546875 -0.125,0.546875 -0.90625,0.546875 V 0 c 0.34375,-0.03125 0.90625,-0.03125 1.265625,-0.03125 0.125,0 0.8125,0 1.21875,0.03125 v -0.34375 c -0.765625,0 -0.8125,-0.0625 -0.8125,-0.53125 z m 0,0"
               id="path127" />
          </g>
          <g
             id="use77"
             transform="translate(240.57837,14.446)">
            <path
               d="M 4.875,-4.015625 C 4.984375,-4.28125 5.1875,-4.796875 5.953125,-4.8125 V -5.15625 C 5.609375,-5.125 5.4375,-5.125 5.0625,-5.125 c -0.25,0 -0.421875,0 -0.96875,-0.03125 v 0.34375 c 0.5,0.03125 0.5625,0.390625 0.5625,0.515625 0,0.109375 -0.03125,0.171875 -0.09375,0.3125 l -1.21875,3.09375 -1.328125,-3.375 C 1.953125,-4.4375 1.9375,-4.4375 1.9375,-4.5 c 0,-0.3125 0.453125,-0.3125 0.671875,-0.3125 V -5.15625 C 2.3125,-5.125 1.6875,-5.125 1.359375,-5.125 c -0.390625,0 -0.421875,0 -1.140625,-0.03125 v 0.34375 c 0.671875,0 0.78125,0.0625 0.921875,0.421875 l 1.71875,4.28125 C 2.921875,0.0625 2.9375,0.125 3.078125,0.125 c 0.09375,0 0.15625,-0.03125 0.25,-0.234375 z m 0,0"
               id="path131" />
          </g>
        </g>
      </g>
      <g
         clip-path="url(#clipPath5544)"
         id="g89"
         transform="matrix(0.352778,0,0,0.352778,-67.765,-2.12518)">
        <g
           fill="#000000"
           fill-opacity="1"
           id="g87">
          <g
             id="use83"
             transform="translate(246.42207,14.446)">
            <path
               d="m 4.578125,-2.765625 c 0.265625,0 0.28125,0 0.28125,-0.234375 0,-1.203125 -0.640625,-2.328125 -2.09375,-2.328125 -1.359375,0 -2.40625,1.234375 -2.40625,2.703125 0,1.578125 1.21875,2.75 2.546875,2.75 1.421875,0 1.953125,-1.296875 1.953125,-1.546875 0,-0.078125 -0.046875,-0.125 -0.125,-0.125 -0.09375,0 -0.125,0.0625 -0.140625,0.125 -0.3125,1 -1.109375,1.28125 -1.625,1.28125 -0.5,0 -1.703125,-0.34375 -1.703125,-2.40625 v -0.21875 z M 1.28125,-3 c 0.09375,-1.875 1.140625,-2.09375 1.484375,-2.09375 1.28125,0 1.34375,1.6875 1.359375,2.09375 z m 0,0"
               id="path14893" />
          </g>
          <g
             id="use85"
             transform="translate(251.62497,14.446)">
            <path
               d="M 2.0625,-8.296875 0.390625,-8.15625 v 0.34375 c 0.8125,0 0.90625,0.078125 0.90625,0.671875 v 6.25 c 0,0.546875 -0.125,0.546875 -0.90625,0.546875 V 0 c 0.34375,-0.03125 0.921875,-0.03125 1.28125,-0.03125 0.359375,0 0.953125,0 1.296875,0.03125 v -0.34375 c -0.765625,0 -0.90625,0 -0.90625,-0.546875 z m 0,0"
               id="path139" />
          </g>
        </g>
      </g>
    </g>
    <g
       inkscape:label=""
       transform="translate(106.17533,189.90665)"
       id="g15502">
      <g
         clip-path="url(#clipPath5584)"
         id="g17"
         transform="matrix(0.352778,0,0,0.352778,-77.3456,-2.08659)">
        <g
           fill="#000000"
           fill-opacity="1"
           id="g15">
          <g
             id="use13"
             transform="translate(218.841,14.446)">
            <path
               d="M 2.03125,-1.328125 C 1.609375,-0.625 1.203125,-0.375 0.640625,-0.34375 0.5,-0.328125 0.40625,-0.328125 0.40625,-0.125 c 0,0.078125 0.0625,0.125 0.140625,0.125 0.21875,0 0.75,-0.03125 0.96875,-0.03125 C 1.859375,-0.03125 2.25,0 2.578125,0 c 0.078125,0 0.21875,0 0.21875,-0.234375 0,-0.09375 -0.09375,-0.109375 -0.171875,-0.109375 -0.265625,-0.03125 -0.5,-0.125 -0.5,-0.40625 0,-0.171875 0.078125,-0.296875 0.234375,-0.5625 l 0.90625,-1.515625 H 6.3125 c 0.015625,0.109375 0.015625,0.203125 0.015625,0.3125 0.046875,0.3125 0.1875,1.5625 0.1875,1.78125 0,0.359375 -0.609375,0.390625 -0.796875,0.390625 -0.140625,0 -0.265625,0 -0.265625,0.21875 C 5.453125,0 5.5625,0 5.625,0 5.828125,0 6.078125,-0.03125 6.28125,-0.03125 H 6.953125 C 7.6875,-0.03125 8.21875,0 8.21875,0 8.3125,0 8.4375,0 8.4375,-0.234375 8.4375,-0.34375 8.328125,-0.34375 8.15625,-0.34375 7.5,-0.34375 7.484375,-0.453125 7.453125,-0.8125 L 6.71875,-8.265625 c -0.03125,-0.25 -0.078125,-0.265625 -0.203125,-0.265625 -0.125,0 -0.1875,0.015625 -0.296875,0.203125 z M 3.46875,-3.171875 5.875,-7.1875 6.28125,-3.171875 Z m 0,0"
               id="path23" />
          </g>
        </g>
      </g>
    </g>
    <path
       style="fill:#bfbfbf;fill-opacity:1;stroke:#000000;stroke-width:0.25;stroke-dasharray:none;stroke-dashoffset:0;stroke-opacity:1;marker-end:url(#Dot)"
       d="m 62.786841,153.75 12.99038,7.5"
       id="path15952" />
    <path
       style="fill:#bfbfbf;fill-opacity:1;stroke:#000000;stroke-width:0.25;stroke-dasharray:none;stroke-dashoffset:0;stroke-opacity:1;marker-end:url(#Dot)"
       d="m 125.57368,185 -6.49519,-3.75"
       id="path15984" />
    <path
       style="fill:#bfbfbf;fill-opacity:1;stroke:#000000;stroke-width:0.25;stroke-dasharray:none;stroke-dashoffset:0;stroke-opacity:1"
       d="m 125.57368,175 -4.33013,-2.5"
       id="path15986" />
    <path
       style="fill:none;fill-opacity:1;stroke:#000000;stroke-width:0.25;stroke-dasharray:none;stroke-dashoffset:0;stroke-opacity:1;marker-start:url(#Dot)"
       d="m 95.262794,192.5 6.495186,-3.75 4.33013,2.5"
       id="path16082" />
    <path
       style="fill:#000000;fill-opacity:0.25;stroke:none;stroke-width:0.264583;stroke-dasharray:none;stroke-dashoffset:0;stroke-opacity:1"
       d="m 73.612157,182.5 v -45 l 4.330129,-2.5 v 45 z"
       id="path16116" />
    <path
       style="fill:#000000;fill-opacity:0.25;stroke:none;stroke-width:0.25;stroke-dasharray:none;stroke-dashoffset:0;stroke-opacity:1"
       d="m 116.91343,207.5 v -45 l 4.33012,-2.5 v 45 z"
       id="path16172" />
    <path
       style="fill:none;fill-opacity:0.25;stroke:#000000;stroke-width:0.25;stroke-dasharray:none;stroke-dashoffset:0;stroke-opacity:1;marker-end:url(#Dot)"
       d="m 78.004786,194.89175 6.49519,-3.75 v -5"
       id="path16176" />
    <path
       style="fill:none;fill-opacity:0.25;stroke:#000000;stroke-width:0.25;stroke-dasharray:none;stroke-dashoffset:0;stroke-opacity:1;marker-start:url(#Dot)"
       d="m 101.75798,178.75 h -4.330124 l -4.330126,-2.5"
       id="path16246" />
    <path
       style="fill:none;fill-opacity:0.25;stroke:#000000;stroke-width:0.25;stroke-dasharray:0.75, 0.5;stroke-dashoffset:0;stroke-opacity:1;marker-end:url(#Dot)"
       d="m 121.24355,172.5 -8.66025,-5 h -4.33013"
       id="path16280" />
    <path
       style="fill:none;fill-opacity:0.25;stroke:#000000;stroke-width:0.264583;stroke-dasharray:none;stroke-dashoffset:0;stroke-opacity:1;marker-end:url(#TriangleStart)"
       d="m 72.746133,182.99999 -16.454483,9.5"
       id="path18442" />
    <path
       style="fill:none;fill-opacity:0.25;stroke:#000000;stroke-width:0.264583;stroke-dasharray:none;stroke-dashoffset:0;stroke-opacity:1;marker-end:url(#TriangleStart)"
       d="m 122.10958,205.49999 18.61954,10.75"
       id="path18474" />
    <path
       style="fill:none;fill-opacity:0.25;stroke:#000000;stroke-width:0.264583;stroke-dasharray:none;stroke-dashoffset:0;stroke-opacity:1;marker-end:url(#TriangleStart)"
       d="m 77.942285,128.99999 v -9"
       id="path18506" />
    <g
       inkscape:label=""
       transform="translate(141.08478,215.07958)"
       id="g19528">
      <g
         clip-path="url(#clipPath6455)"
         id="g24"
         transform="matrix(0.352778,0,0,0.352778,-77.0241,-3.23828)">
        <g
           fill="#000000"
           fill-opacity="1"
           id="g22">
          <g
             id="use20"
             transform="translate(218.008,14.445)">
            <path
               d="m 3.140625,1.34375 c -0.3125,0.453125 -0.78125,0.859375 -1.375,0.859375 C 1.625,2.203125 1.046875,2.171875 0.875,1.625 c 0.03125,0.015625 0.09375,0.015625 0.109375,0.015625 0.359375,0 0.609375,-0.3125 0.609375,-0.59375 C 1.59375,0.78125 1.359375,0.6875 1.1875,0.6875 c -0.203125,0 -0.609375,0.140625 -0.609375,0.71875 0,0.609375 0.515625,1.03125 1.1875,1.03125 C 2.96875,2.4375 4.171875,1.34375 4.5,0.015625 L 5.671875,-4.65625 C 5.6875,-4.703125 5.71875,-4.78125 5.71875,-4.859375 5.71875,-5.03125 5.5625,-5.15625 5.390625,-5.15625 5.28125,-5.15625 5.03125,-5.109375 4.9375,-4.75 L 4.046875,-1.234375 C 4,-1.015625 4,-0.984375 3.890625,-0.859375 3.65625,-0.53125 3.265625,-0.125 2.6875,-0.125 c -0.671875,0 -0.734375,-0.65625 -0.734375,-0.96875 0,-0.6875 0.328125,-1.609375 0.65625,-2.46875 0.125,-0.34375 0.203125,-0.515625 0.203125,-0.75 0,-0.5 -0.359375,-0.953125 -0.953125,-0.953125 -1.09375,0 -1.53125,1.734375 -1.53125,1.828125 0,0.046875 0.046875,0.109375 0.125,0.109375 0.109375,0 0.125,-0.046875 0.171875,-0.21875 0.28125,-1 0.734375,-1.484375 1.203125,-1.484375 0.109375,0 0.3125,0 0.3125,0.390625 0,0.3125 -0.125,0.65625 -0.3125,1.109375 C 1.25,-1.953125 1.25,-1.5625 1.25,-1.28125 1.25,-0.140625 2.0625,0.125 2.65625,0.125 3,0.125 3.4375,0.015625 3.84375,-0.4375 l 0.015625,0.015625 C 3.6875,0.28125 3.5625,0.75 3.140625,1.34375 Z m 0,0"
               id="path36" />
          </g>
        </g>
      </g>
      <g
         clip-path="url(#clipPath2460)"
         id="g19526"
         transform="matrix(0.352778,0,0,0.352778,-77.0241,-3.23828)">
        <g
           fill="#000000"
           fill-opacity="1"
           id="g19524">
          <g
             id="g19522"
             transform="translate(223.716,16.239)">
            <path
               d="m 2.5,-5.078125 c 0,-0.21875 -0.015625,-0.21875 -0.234375,-0.21875 -0.328125,0.3125 -0.75,0.5 -1.5,0.5 v 0.265625 c 0.21875,0 0.640625,0 1.109375,-0.203125 v 4.078125 c 0,0.296875 -0.03125,0.390625 -0.78125,0.390625 H 0.8125 V 0 c 0.328125,-0.03125 1.015625,-0.03125 1.375,-0.03125 0.359375,0 1.046875,0 1.375,0.03125 V -0.265625 H 3.28125 c -0.75,0 -0.78125,-0.09375 -0.78125,-0.390625 z m 0,0"
               id="path40" />
          </g>
        </g>
      </g>
    </g>
    <g
       inkscape:label=""
       transform="translate(80.014596,120.61342)"
       id="g20413">
      <g
         clip-path="url(#clipPath2010)"
         id="g20403"
         transform="matrix(0.352778,0,0,0.352778,-77.0241,-3.23828)">
        <g
           fill="#000000"
           fill-opacity="1"
           id="g20401">
          <g
             id="g20399"
             transform="translate(218.008,14.445)">
            <path
               d="m 3.140625,1.34375 c -0.3125,0.453125 -0.78125,0.859375 -1.375,0.859375 C 1.625,2.203125 1.046875,2.171875 0.875,1.625 c 0.03125,0.015625 0.09375,0.015625 0.109375,0.015625 0.359375,0 0.609375,-0.3125 0.609375,-0.59375 C 1.59375,0.78125 1.359375,0.6875 1.1875,0.6875 c -0.203125,0 -0.609375,0.140625 -0.609375,0.71875 0,0.609375 0.515625,1.03125 1.1875,1.03125 C 2.96875,2.4375 4.171875,1.34375 4.5,0.015625 L 5.671875,-4.65625 C 5.6875,-4.703125 5.71875,-4.78125 5.71875,-4.859375 5.71875,-5.03125 5.5625,-5.15625 5.390625,-5.15625 5.28125,-5.15625 5.03125,-5.109375 4.9375,-4.75 L 4.046875,-1.234375 C 4,-1.015625 4,-0.984375 3.890625,-0.859375 3.65625,-0.53125 3.265625,-0.125 2.6875,-0.125 c -0.671875,0 -0.734375,-0.65625 -0.734375,-0.96875 0,-0.6875 0.328125,-1.609375 0.65625,-2.46875 0.125,-0.34375 0.203125,-0.515625 0.203125,-0.75 0,-0.5 -0.359375,-0.953125 -0.953125,-0.953125 -1.09375,0 -1.53125,1.734375 -1.53125,1.828125 0,0.046875 0.046875,0.109375 0.125,0.109375 0.109375,0 0.125,-0.046875 0.171875,-0.21875 0.28125,-1 0.734375,-1.484375 1.203125,-1.484375 0.109375,0 0.3125,0 0.3125,0.390625 0,0.3125 -0.125,0.65625 -0.3125,1.109375 C 1.25,-1.953125 1.25,-1.5625 1.25,-1.28125 1.25,-0.140625 2.0625,0.125 2.65625,0.125 3,0.125 3.4375,0.015625 3.84375,-0.4375 l 0.015625,0.015625 C 3.6875,0.28125 3.5625,0.75 3.140625,1.34375 Z m 0,0"
               id="path20397" />
          </g>
        </g>
      </g>
      <g
         clip-path="url(#clipPath794)"
         id="g20411"
         transform="matrix(0.352778,0,0,0.352778,-77.0241,-3.23828)">
        <g
           fill="#000000"
           fill-opacity="1"
           id="g20409">
          <g
             id="g20407"
             transform="translate(223.716,16.239)">
            <path
               d="m 2.25,-1.625 c 0.125,-0.125 0.453125,-0.390625 0.59375,-0.5 0.484375,-0.453125 0.953125,-0.890625 0.953125,-1.609375 0,-0.953125 -0.796875,-1.5625 -1.78125,-1.5625 -0.96875,0 -1.59375,0.71875 -1.59375,1.4375 0,0.390625 0.3125,0.4375 0.421875,0.4375 0.171875,0 0.421875,-0.109375 0.421875,-0.421875 0,-0.40625 -0.40625,-0.40625 -0.5,-0.40625 C 1,-4.84375 1.53125,-5.03125 1.921875,-5.03125 c 0.734375,0 1.125,0.625 1.125,1.296875 0,0.828125 -0.578125,1.4375 -1.53125,2.390625 l -1,1.046875 C 0.421875,-0.21875 0.421875,-0.203125 0.421875,0 H 3.5625 l 0.234375,-1.421875 h -0.25 C 3.53125,-1.265625 3.46875,-0.875 3.375,-0.71875 c -0.046875,0.0625 -0.65625,0.0625 -0.78125,0.0625 H 1.171875 Z m 0,0"
               id="path20405" />
          </g>
        </g>
      </g>
    </g>
    <g
       inkscape:label=""
       transform="translate(52.239619,188.98206)"
       id="g21102">
      <g
         clip-path="url(#clipPath2970)"
         id="g21092"
         transform="matrix(0.352778,0,0,0.352778,-77.0241,-3.23828)">
        <g
           fill="#000000"
           fill-opacity="1"
           id="g21090">
          <g
             id="g21088"
             transform="translate(218.008,14.445)">
            <path
               d="m 3.140625,1.34375 c -0.3125,0.453125 -0.78125,0.859375 -1.375,0.859375 C 1.625,2.203125 1.046875,2.171875 0.875,1.625 c 0.03125,0.015625 0.09375,0.015625 0.109375,0.015625 0.359375,0 0.609375,-0.3125 0.609375,-0.59375 C 1.59375,0.78125 1.359375,0.6875 1.1875,0.6875 c -0.203125,0 -0.609375,0.140625 -0.609375,0.71875 0,0.609375 0.515625,1.03125 1.1875,1.03125 C 2.96875,2.4375 4.171875,1.34375 4.5,0.015625 L 5.671875,-4.65625 C 5.6875,-4.703125 5.71875,-4.78125 5.71875,-4.859375 5.71875,-5.03125 5.5625,-5.15625 5.390625,-5.15625 5.28125,-5.15625 5.03125,-5.109375 4.9375,-4.75 L 4.046875,-1.234375 C 4,-1.015625 4,-0.984375 3.890625,-0.859375 3.65625,-0.53125 3.265625,-0.125 2.6875,-0.125 c -0.671875,0 -0.734375,-0.65625 -0.734375,-0.96875 0,-0.6875 0.328125,-1.609375 0.65625,-2.46875 0.125,-0.34375 0.203125,-0.515625 0.203125,-0.75 0,-0.5 -0.359375,-0.953125 -0.953125,-0.953125 -1.09375,0 -1.53125,1.734375 -1.53125,1.828125 0,0.046875 0.046875,0.109375 0.125,0.109375 0.109375,0 0.125,-0.046875 0.171875,-0.21875 0.28125,-1 0.734375,-1.484375 1.203125,-1.484375 0.109375,0 0.3125,0 0.3125,0.390625 0,0.3125 -0.125,0.65625 -0.3125,1.109375 C 1.25,-1.953125 1.25,-1.5625 1.25,-1.28125 1.25,-0.140625 2.0625,0.125 2.65625,0.125 3,0.125 3.4375,0.015625 3.84375,-0.4375 l 0.015625,0.015625 C 3.6875,0.28125 3.5625,0.75 3.140625,1.34375 Z m 0,0"
               id="path21086" />
          </g>
        </g>
      </g>
      <g
         clip-path="url(#clipPath5611)"
         id="g21100"
         transform="matrix(0.352778,0,0,0.352778,-77.0241,-3.23828)">
        <g
           fill="#000000"
           fill-opacity="1"
           id="g21098">
          <g
             id="g21096"
             transform="translate(223.716,16.239)">
            <path
               d="m 2.015625,-2.65625 c 0.625,0 1.03125,0.453125 1.03125,1.296875 0,1 -0.5625,1.28125 -0.984375,1.28125 -0.4375,0 -1.046875,-0.15625 -1.328125,-0.578125 0.296875,0 0.5,-0.1875 0.5,-0.4375 0,-0.265625 -0.1875,-0.4375 -0.453125,-0.4375 -0.203125,0 -0.4375,0.125 -0.4375,0.453125 0,0.75 0.8125,1.25 1.734375,1.25 C 3.125,0.171875 3.875,-0.5625 3.875,-1.359375 3.875,-2.03125 3.34375,-2.625 2.53125,-2.8125 c 0.625,-0.21875 1.109375,-0.75 1.109375,-1.390625 0,-0.640625 -0.71875,-1.09375 -1.546875,-1.09375 -0.859375,0 -1.5,0.453125 -1.5,1.0625 0,0.296875 0.1875,0.421875 0.40625,0.421875 0.25,0 0.40625,-0.171875 0.40625,-0.40625 0,-0.296875 -0.265625,-0.40625 -0.4375,-0.40625 0.34375,-0.4375 0.953125,-0.46875 1.09375,-0.46875 0.203125,0 0.8125,0.0625 0.8125,0.890625 0,0.546875 -0.234375,0.890625 -0.34375,1.015625 -0.234375,0.25 -0.421875,0.265625 -0.90625,0.296875 -0.15625,0 -0.21875,0.015625 -0.21875,0.125 0,0.109375 0.078125,0.109375 0.21875,0.109375 z m 0,0"
               id="path21094" />
          </g>
        </g>
      </g>
    </g>
  </g>
</svg>
