<?xml version="1.0" encoding="UTF-8" standalone="no"?>
<!-- Created with Inkscape (http://www.inkscape.org/) -->

<svg
   width="194.20416mm"
   height="93.927086mm"
   viewBox="0 0 194.20416 93.927086"
   version="1.1"
   id="svg5"
   inkscape:version="1.3.2 (1:1.3.2+202311252150+091e20ef0f)"
   sodipodi:docname="resultados.svg"
   xmlns:inkscape="http://www.inkscape.org/namespaces/inkscape"
   xmlns:sodipodi="http://sodipodi.sourceforge.net/DTD/sodipodi-0.dtd"
   xmlns="http://www.w3.org/2000/svg"
   xmlns:svg="http://www.w3.org/2000/svg">
  <sodipodi:namedview
     id="namedview7"
     pagecolor="#ffffff"
     bordercolor="#000000"
     borderopacity="0.25"
     inkscape:showpageshadow="2"
     inkscape:pageopacity="0.0"
     inkscape:pagecheckerboard="0"
     inkscape:deskcolor="#d1d1d1"
     inkscape:document-units="mm"
     showgrid="false"
     inkscape:zoom="1.4912879"
     inkscape:cx="341.31572"
     inkscape:cy="177.69875"
     inkscape:window-width="1920"
     inkscape:window-height="962"
     inkscape:window-x="0"
     inkscape:window-y="0"
     inkscape:window-maximized="1"
     inkscape:current-layer="layer1" />
  <defs
     id="defs2">
    <clipPath
       id="clip0">
      <rect
         x="254"
         y="1"
         width="734"
         height="355"
         id="rect132" />
    </clipPath>
    <clipPath
       id="clip1">
      <rect
         x="324"
         y="15"
         width="644"
         height="284"
         id="rect135" />
    </clipPath>
  </defs>
  <g
     inkscape:label="Camada 1"
     inkscape:groupmode="layer"
     id="layer1"
     transform="translate(84.327884,-162.74613)">
    <g
       clip-path="url(#clip0)"
       transform="matrix(0.26458333,0,0,0.26458333,-151.53205,162.48155)"
       id="g282">
      <rect
         x="254"
         y="1"
         width="734"
         height="355"
         fill="#ffffff"
         id="rect140" />
      <g
         id="g144">
        <path
           d="M 431.5,15.5001 V 298.5 M 538.5,15.5001 V 298.5 M 645.5,15.5001 V 298.5 M 752.5,15.5001 V 298.5 M 860.5,15.5001 V 298.5 M 967.5,15.5001 V 298.5"
           stroke="#d9d9d9"
           stroke-width="0.982677"
           stroke-linejoin="round"
           stroke-miterlimit="10"
           fill="none"
           id="path142" />
      </g>
      <g
         id="g148">
        <path
           d="m 324.5,241.5 h 643 m -643,-56 h 643 m -643,-57 h 643 m -643,-55.9999 h 643 m -643,-57 h 643"
           stroke="#d9d9d9"
           stroke-width="0.982677"
           stroke-linejoin="round"
           stroke-miterlimit="10"
           fill="none"
           id="path146" />
      </g>
      <g
         id="g152">
        <rect
           x="324.5"
           y="15.5001"
           width="643"
           height="283"
           stroke="#000000"
           stroke-linejoin="round"
           stroke-miterlimit="10"
           fill="none"
           id="rect150" />
      </g>
      <g
         id="g156">
        <path
           d="m 324.5,298.5 h 643"
           stroke="#000000"
           stroke-width="0.982677"
           stroke-linejoin="round"
           stroke-miterlimit="10"
           fill="none"
           fill-rule="evenodd"
           id="path154" />
      </g>
      <g
         id="g160">
        <path
           d="m 324.5,295.5 v 3 m 21,-3 v 3 m 22,-3 v 3 m 21,-3 v 3 m 22,-3 v 3 m 21,-3 v 3 m 21,-3 v 3 m 22,-3 v 3 m 21,-3 v 3 m 22,-3 v 3 m 21,-3 v 3 m 22,-3 v 3 m 21,-3 v 3 m 21,-3 v 3 m 22,-3 v 3 m 21,-3 v 3 m 22,-3 v 3 m 21,-3 v 3 m 22,-3 v 3 m 21,-3 v 3 m 21,-3 v 3 m 22,-3 v 3 m 21,-3 v 3 m 22,-3 v 3 m 21,-3 v 3 m 22,-3 v 3 m 21,-3 v 3 m 21,-3 v 3 m 22,-3 v 3 m 21,-3 v 3 m 22,-3 v 3 m -643,-4 v 8 m 107,-8 v 8 m 107,-8 v 8 m 107,-8 v 8 m 107,-8 v 8 m 108,-8 v 8 m 107,-8 v 8"
           stroke="#000000"
           stroke-width="0.982677"
           stroke-linejoin="round"
           stroke-miterlimit="10"
           fill="none"
           id="path158" />
      </g>
      <g
         id="g164">
        <path
           d="M 0,0 1.04987e-4,283"
           stroke="#000000"
           stroke-width="0.982677"
           stroke-linejoin="round"
           stroke-miterlimit="10"
           fill="none"
           fill-rule="evenodd"
           transform="matrix(1,0,0,-1,324.5,298.5)"
           id="path162" />
      </g>
      <g
         id="g168">
        <path
           d="m 324.5,298.5 h 3 m -3,-11 h 3 m -3,-12 h 3 m -3,-11 h 3 m -3,-11 h 3 m -3,-12 h 3 m -3,-11 h 3 m -3,-11 h 3 m -3,-11 h 3 m -3,-12 h 3 m -3,-11 h 3 m -3,-11 h 3 m -3,-12 h 3 m -3,-11 h 3 m -3,-11 h 3 m -3,-12 h 3 m -3,-11 h 3 m -3,-11 h 3 m -3,-11.9999 h 3 m -3,-11 h 3 m -3,-11 h 3 m -3,-12 h 3 m -3,-11 h 3 m -3,-11 h 3 m -3,-12 h 3 m -3,-11 h 3 m -7,282.9999 h 8 m -8,-57 h 8 m -8,-56 h 8 m -8,-57 h 8 m -8,-55.9999 h 8 m -8,-57 h 8"
           stroke="#000000"
           stroke-width="0.982677"
           stroke-linejoin="round"
           stroke-miterlimit="10"
           fill="none"
           id="path166" />
      </g>
      <g
         id="g172">
        <path
           d="m 324.5,298.5 h 1 1 1 1 1 1 1 2 1 1 1 1 1 l 1,-1 h 1 1 l 1,-1 1,-1 1,-1 1,-1 1,-1 2,-2 1,-2 1,-3 1,-3 1,-3 1,-3 1,-4 1,-4 1,-4 1,-4 1,-4 1,-4 1,-4 1,-5 2,-4 1,-4 1,-4 1,-5 1,-4 1,-5 1,-5 1,-5 1,-5 1,-5 1,-5 1,-4 1,-5 1,-4 2,-4 1,-3 1,-3 1,-3 1,-2 1,-1 1,-1 1,-1 1,-1 h 1 1 l 1,1 h 1 l 1,1 2,1 1,1 1,1 1,1 1,1 h 1 l 1,1 h 1 1 1 l 1,-1 1,-1 1,-2 1,-2 2,-2 1,-2 1,-3 1,-3 1,-4 1,-4 1,-5 1,-4 1,-6 1,-5 1,-6 1,-6 1,-6 1,-5 2,-5.9999 1,-5 1,-4 1,-4 1,-3 1,-2 1,-1 h 1 1 l 1,1 1,2 1,3 1,3 1,3 1,4 2,4 1,3.9999 1,4 1,4 1,4 1,4 1,4 1,3 1,3 1,3 1,2 1,2 h 1 1 2 l 1,-2 1,-2 1,-3 1,-3 1,-4 1,-5 1,-5 1,-6 1,-4.9999 1,-6 1,-5 1,-5 1,-6 2,-4 1,-5 1,-4 1,-3 1,-3 1,-2 1,-1 1,-1 h 1 l 1,1 1,2 1,2 1,3 1,3 2,3 1,4 1,3 1,4 1,4 1,3 1,3 1,4 1,2 1,3 1,2 1,1.9999 1,2 1,1 2,2 1,1 1,1 h 1 1 1 1 1 l 1,-1 1,-1 1,-2 1,-2 1,-2 1,-1.9999 2,-2 1,-3 1,-3 1,-3 1,-2 1,-3 1,-3 1,-3 1,-3 1,-3 1,-3 1,-3 1,-2 1,-2 2,-2 1,-1 1,-1 h 1 1 l 1,1 1,1 1,2 1,2 1,2 1,3 1,3 1,3 1,3 2,3 1,3 1,4 1,3 1,3 1,3 1,2 1,2.9999 1,2 1,3 1,2 1,1 1,1 1,1 2,1 h 1 1 l 1,-1 1,-1 1,-2 1,-2 1,-3 1,-2.9999 1,-3 1,-3 1,-4 1,-4 1,-3 2,-4 1,-4 1,-4 1,-3 1,-3 1,-3 1,-3 1,-2 1,-2 1,-1 h 1 1 l 1,1 1,1 2,2 1,2 1,3 1,3 1,3 1,3 1,4 1,3 1,4 1,3 1,3 1,3 1,3 1,3 2,2 1,1.9999 1,2 1,2 1,2 1,1 1,1 h 1 1 1 1 l 1,-1 1,-2 1,-2 2,-2 1,-2 1,-2.9999 1,-3 1,-3 1,-3 1,-3 1,-4 1,-3 1,-4 1,-3 1,-3 1,-3 1,-3 2,-3 1,-2 1,-1 1,-1 1,-1 h 1 1 l 1,2 1,1 1,2 1,3 1,2 1,3 1,3 2,4 1,3 1,3 1,4 1,3 1,3 1,3 1,3 1,2 1,2.9999 1,2 1,2 1,1 1,2 1,1 2,1 h 1 1 l 1,-1 h 1 l 1,-2 1,-2 1,-2 1,-2 1,-2.9999 1,-3 1,-3 1,-4 1,-3 2,-4 1,-3 1,-4 1,-3 1,-4 1,-3 1,-3 1,-2 1,-2 1,-2 1,-1 1,-1 h 1 l 1,1 2,1 1,2 1,2 1,2 1,3 1,3 1,4 1,3 1,3 1,4 1,3 1,3 1,3 1,3 2,3 1,3 1,1.9999 1,2 1,2 1,2 1,1 1,1 1,1 h 1 1 l 1,-1 1,-1 1,-1 2,-2 1,-2 1,-3 1,-1.9999 1,-3 1,-4 1,-3 1,-3 1,-4 1,-3 1,-4 1,-3 1,-4 1,-3 2,-3 1,-2 1,-2 1,-2 1,-1 h 1 1 1 l 1,1 1,2 1,2 1,2 1,3 1,3 2,4 1,3 1,3 1,4 1,3 1,3 1,3 1,3 1,3 1,2 1,2.9999 1,2 1,2 1,2 2,1 1,1 1,1 h 1 1 l 1,-1 1,-1 1,-1 1,-2 1,-2 1,-2 1,-2.9999 1,-3 1,-4 2,-3 1,-3 1,-4 1,-3 1,-4 1,-3 1,-4 1,-3 1,-3 1,-2 1,-2 1,-2 1,-1 1,-1 h 2 l 1,1 1,1 1,2 1,2 1,2 1,3 1,3 1,4 1,3 1,3 1,4 1,3 1,3 2,3 1,3 1,3 1,2 1,2.9999 1,2 1,2 1,2 1,1 1,1 1,1 h 1 1 l 1,-1 2,-1 1,-1 1,-2 1,-2 1,-3 1,-1.9999 1,-3 1,-4 1,-3 1,-3 1,-4 1,-3 1,-4 1,-3 2,-4 1,-3 1,-3 1,-2 1,-2 1,-2 1,-1 1,-1 h 1 l 1,1 1,1 1,2 1,2 1,2 2,3 1,3 1,4 1,3 1,3 1,4 1,3 1,3 1,3 1,3 1,3 1,2 1,2.9999 1,2 2,2 1,2 1,1 1,1 1,1 h 1 1 l 1,-1 1,-1 1,-1 1,-2 1,-2 1,-3 1,-1.9999 2,-3 1,-4 1,-3 1,-3 1,-4 1,-3 1,-4 1,-3 1,-4 1,-3 1,-3 1,-2 1,-2 1,-2 1,-1 2,-1 h 1 l 1,1 1,1 1,2 1,2 1,2 1,3 1,3 1,4 1,3 1,3 1,4 1,3 2,3 1,3 1,3 1,3 1,2 1,2.9999 1,2 1,2 1,2 1,1 1,1 1,1 h 1 1 l 2,-1 1,-1 1,-1 1,-2 1,-2 1,-3 1,-1.9999 1,-3 1,-4 1,-3 1,-3 1,-4 1,-3 1,-4 2,-3 1,-4 1,-3 1,-3 1,-2 1,-2 1,-2 1,-1 1,-1 h 1 l 1,1 1,1 1,2 1,2 2,3"
           stroke="#7f7f7f"
           stroke-width="1.33333"
           stroke-linecap="round"
           stroke-linejoin="round"
           stroke-miterlimit="10"
           fill="none"
           id="path170" />
      </g>
      <g
         id="g176">
        <path
           d="m 324.5,298.5 h 1 1 1 1 1 1 1 2 1 1 1 1 1 l 1,-1 h 1 1 l 1,-1 1,-1 1,-1 1,-1 1,-2 2,-2 1,-3 1,-3 1,-3 1,-4 1,-5 1,-5 1,-5 1,-5 1,-6 1,-6 1,-6 1,-6 1,-6 2,-5 1,-6 1,-6 1,-6 1,-5 1,-5 1,-5 1,-5 1,-5 1,-5 1,-5 1,-4 1,-4 1,-5 2,-4 1,-4 1,-4 1,-4 1,-4 1,-5 1,-4 1,-4 1,-3 1,-2 1,-1 h 1 l 1,1 1,2 2,2 1,3 1,4 1,3 1,3 1,4 1,2 1,3 1,1 1,1 h 1 l 1,-1 1,-1 1,-2 2,-3 1,-4 1,-4 1,-5 1,-6 1,-6 1,-6 1,-7 1,-5.9999 1,-7 1,-6 1,-6 1,-7 1,-5 2,-6 1,-5 1,-4 1,-4 1,-2 1,-2 h 1 l 1,2 1,2 1,3 1,4 1,5 1,5 1,6 1,6 2,6 1,6 1,7 1,5.9999 1,7 1,6 1,5 1,5 1,5 1,3 1,3 1,2 1,1 h 1 l 2,-1 1,-2 1,-2 1,-4 1,-4 1,-4 1,-6 1,-5 1,-7 1,-5.9999 1,-7 1,-6 1,-7 1,-6 2,-6 1,-6 1,-5 1,-4 1,-4 1,-3 1,-2 1,-2 1,-1 h 1 l 1,1 1,2 1,3 1,3 2,5 1,5 1,5 1,5 1,6 1,5 1,5 1,5 1,4 1,4 1,3.9999 1,4 1,3 1,3 2,2 1,2 1,2 1,2 1,1 1,1 1,1 h 1 1 l 1,-1 1,-1 1,-2 1,-3 1,-3 2,-4 1,-4 1,-4 1,-3.9999 1,-5 1,-5 1,-5 1,-5 1,-5 1,-4 1,-4 1,-4 1,-4 1,-4 2,-2 1,-3 1,-1 1,-1 1,-1 1,1 1,2 1,2 1,3 1,4 1,4 1,4 1,5 1,4 2,5 1,5 1,5 1,4 1,5 1,3.9999 1,4 1,4 1,4 1,3 1,3 1,2 1,3 1,1 2,2 h 1 1 1 l 1,-2 1,-2 1,-2 1,-4 1,-3 1,-5 1,-5 1,-4.9999 1,-5 1,-5 2,-6 1,-5 1,-6 1,-5 1,-5 1,-4 1,-4 1,-4 1,-3 1,-3 1,-1 1,-1 h 1 l 1,1 2,2 1,3 1,3 1,4 1,5 1,5 1,5 1,5 1,5 1,5 1,5 1,5 1,5 1,3.9999 2,4 1,3 1,4 1,3 1,2 1,3 1,1 1,2 1,1 h 1 1 l 1,-1 1,-2 1,-2 2,-3 1,-3 1,-4 1,-5 1,-4 1,-4.9999 1,-6 1,-5 1,-5 1,-5 1,-5 1,-5 1,-5 1,-4 2,-4 1,-4 1,-2 1,-3 1,-1 1,-1 h 1 l 1,1 1,2 1,2 1,4 1,4 1,4 1,5 2,5 1,5 1,5 1,5 1,5 1,4 1,5 1,3.9999 1,4 1,3 1,4 1,3 1,2 1,3 1,2 2,1 1,1 1,1 1,-1 h 1 l 1,-2 1,-2 1,-2 1,-4 1,-4 1,-4 1,-5 1,-4.9999 1,-5 2,-5 1,-6 1,-5 1,-5 1,-5 1,-5 1,-4 1,-4 1,-4 1,-3 1,-2 1,-2 h 1 1 l 2,1 1,1 1,3 1,3 1,4 1,5 1,4 1,5 1,5 1,6 1,5 1,4 1,5 1,5 2,3.9999 1,4 1,4 1,3 1,3 1,3 1,2 1,2 1,1 1,1 1,1 h 1 l 1,-1 1,-2 2,-2 1,-2 1,-4 1,-4 1,-4 1,-5 1,-4.9999 1,-5 1,-5 1,-6 1,-5 1,-5 1,-5 1,-5 2,-4 1,-4 1,-4 1,-3 1,-2 1,-2 h 1 1 l 1,1 1,1 1,3 1,3 1,4 1,5 2,5 1,4 1,6 1,5 1,5 1,5 1,4 1,5 1,3.9999 1,4 1,4 1,3 1,3 1,3 2,2 1,2 1,1 1,1 1,1 h 1 l 1,-1 1,-2 1,-2 1,-3 1,-3 1,-4 1,-4 1,-5 2,-4.9999 1,-5 1,-5 1,-6 1,-5 1,-5 1,-5 1,-5 1,-4 1,-4 1,-4 1,-3 1,-2 1,-2 h 2 1 l 1,1 1,1 1,3 1,3 1,4 1,5 1,4 1,5 1,6 1,5 1,5 1,5 2,4 1,5 1,3.9999 1,4 1,4 1,3 1,3 1,3 1,2 1,2 1,1 1,1 1,1 h 1 l 2,-1 1,-2 1,-2 1,-2 1,-4 1,-4 1,-4 1,-5 1,-4.9999 1,-5 1,-5 1,-6 1,-5 1,-5 2,-5 1,-5 1,-4 1,-4 1,-4 1,-3 1,-2 1,-2 h 1 1 l 1,1 1,1 1,3 1,3 2,4 1,5 1,5 1,4 1,6 1,5 1,5 1,5 1,4 1,5 1,3.9999 1,4 1,4 1,3 2,3 1,3 1,2 1,2 1,1 1,1 1,1 h 1 l 1,-1 1,-2 1,-2 1,-2 1,-4 1,-4 2,-4 1,-5 1,-4.9999 1,-5 1,-5 1,-6 1,-5 1,-5 1,-5 1,-5 1,-4 1,-4 1,-4 1,-3 1,-2 2,-2 h 1 1 l 1,1 1,1 1,3 1,3 1,4 1,5 1,5 1,4 1,6 1,5 1,5 2,5 1,4 1,5 1,3.9999 1,4 1,4 1,3 1,3 1,3 1,2 1,2 1,1 1,1 1,1 h 2 l 1,-1 1,-2 1,-2 1,-2 1,-4 1,-4 1,-4 1,-5 1,-4.9999 1,-5 1,-5 1,-6 1,-5 2,-5 1,-5 1,-5 1,-4 1,-4 1,-4 1,-3 1,-2 1,-2 h 1 1 l 1,1 1,1 1,3 2,3"
           stroke="#4472c4"
           stroke-width="1.33333"
           stroke-linecap="round"
           stroke-linejoin="round"
           stroke-miterlimit="10"
           fill="none"
           id="path174" />
      </g>
      <g
         id="g180">
        <path
           d="m 324.5,298.5 h 1 1 1 1 1 1 1 2 1 1 1 1 1 1 l 1,-1 h 1 1 l 1,-1 1,-1 1,-1 1,-2 2,-2 1,-2 1,-3 1,-3 1,-3 1,-4 1,-5 1,-5 1,-5 1,-5 1,-5 1,-6 1,-5 1,-6 2,-5 1,-6 1,-5 1,-5 1,-5 1,-5 1,-4 1,-5 1,-4 1,-4 1,-4 1,-4 1,-4 1,-4 2,-3 1,-4 1,-3 1,-4 1,-3 1,-4 1,-3 1,-4 1,-4 1,-3 1,-3 1,-1 1,-1 h 1 2 l 1,2 1,2 1,2 1,3 1,2 1,3 1,2 1,1 1,2 h 1 1 l 1,-1 1,-1 2,-2 1,-3 1,-3 1,-4 1,-5 1,-5 1,-5 1,-5 1,-6 1,-5 1,-5.9999 1,-6 1,-5 1,-6 2,-5 1,-4 1,-5 1,-4 1,-3 1,-3 1,-2 h 1 1 l 1,2 1,2 1,3 1,4 1,4 1,5 2,5 1,5 1,5 1,5 1,5.9999 1,5 1,5 1,5 1,5 1,5 1,4 1,3 1,2 1,2 2,1 h 1 l 1,-2 1,-2 1,-3 1,-4 1,-4 1,-5 1,-6 1,-6 1,-5.9999 1,-7 1,-6 1,-6 2,-6 1,-6 1,-6 1,-5 1,-4 1,-4 1,-3 1,-2 1,-1 1,-1 h 1 l 1,1 1,3 1,2 2,4 1,4 1,5 1,5 1,5 1,5 1,6 1,5 1,5 1,4 1,3.9999 1,4 1,4 1,3 2,2 1,3 1,1 1,2 1,1 1,1 h 1 1 1 l 1,-1 1,-1 1,-2 1,-3 1,-2 2,-4 1,-4 1,-4 1,-3.9999 1,-4 1,-5 1,-4 1,-5 1,-4 1,-4 1,-4 1,-4 1,-3 1,-3 2,-2 1,-2 1,-2 1,-1 h 1 1 l 1,1 1,2 1,3 1,3 1,3 1,4 1,4 1,4 2,4 1,4 1,5 1,4 1,4 1,3 1,3.9999 1,3 1,3 1,3 1,3 1,2 1,3 1,1 2,2 1,1 h 1 1 l 1,-1 1,-1 1,-2 1,-3 1,-3 1,-4 1,-4 1,-4 1,-4.9999 1,-4 2,-5 1,-5 1,-5 1,-5 1,-4 1,-4 1,-4 1,-4 1,-3 1,-2 1,-2 1,-2 h 1 1 l 2,1 1,2 1,3 1,3 1,4 1,4 1,5 1,4 1,5 1,5 1,4 1,5 1,4 1,4 2,3.9999 1,4 1,3 1,3 1,3 1,2 1,2 1,2 1,1 h 1 1 1 l 1,-1 1,-2 2,-2 1,-3 1,-4 1,-3 1,-5 1,-3.9999 1,-5 1,-5 1,-5 1,-5 1,-4 1,-5 1,-4 1,-4 2,-4 1,-3 1,-3 1,-2 1,-2 1,-1 1,-1 1,1 1,1 1,2 1,3 1,3 1,4 1,4 2,4 1,5 1,4 1,5 1,4 1,5 1,4 1,4 1,3.9999 1,3 1,3 1,3 1,3 1,2 1,2 2,2 1,1 h 1 l 1,1 1,-1 1,-1 1,-1 1,-3 1,-2 1,-4 1,-4 1,-4 1,-3.9999 1,-5 2,-5 1,-5 1,-4 1,-5 1,-5 1,-4 1,-4 1,-4 1,-3 1,-3 1,-2 1,-2 1,-1 1,-1 2,1 1,1 1,2 1,2 1,4 1,3 1,4 1,5 1,4 1,5 1,5 1,4 1,5 1,4 2,4 1,3.9999 1,3 1,3 1,3 1,3 1,2 1,2 1,2 1,1 1,1 h 1 l 1,-1 1,-1 2,-1 1,-2 1,-3 1,-4 1,-3 1,-5 1,-3.9999 1,-5 1,-5 1,-5 1,-4 1,-5 1,-5 1,-4 2,-4 1,-4 1,-3 1,-3 1,-3 1,-1 1,-1 1,-1 1,1 1,1 1,2 1,2 1,4 1,3 2,5 1,4 1,4 1,5 1,5 1,4 1,5 1,4 1,4 1,3.9999 1,3 1,3 1,3 1,3 2,2 1,2 1,2 1,1 1,1 h 1 l 1,-1 1,-1 1,-1 1,-3 1,-2 1,-4 1,-3 1,-5 2,-3.9999 1,-5 1,-5 1,-5 1,-4 1,-5 1,-5 1,-4 1,-4 1,-4 1,-3 1,-3 1,-2 1,-2 2,-1 1,-1 1,1 1,1 1,2 1,2 1,4 1,3 1,5 1,4 1,5 1,4 1,5 1,4 2,5 1,4 1,4 1,3.9999 1,3 1,3 1,3 1,3 1,2 1,2 1,2 1,1 1,1 h 1 l 2,-1 1,-1 1,-1 1,-3 1,-2 1,-4 1,-3 1,-5 1,-3.9999 1,-5 1,-5 1,-5 1,-4 1,-5 2,-5 1,-4 1,-4 1,-4 1,-3 1,-3 1,-2 1,-2 1,-1 1,-1 1,1 1,1 1,2 1,2 2,4 1,3 1,5 1,4 1,4 1,5 1,5 1,4 1,5 1,4 1,4 1,3.9999 1,3 1,3 2,3 1,3 1,2 1,2 1,2 1,1 1,1 h 1 l 1,-1 1,-1 1,-1 1,-2 1,-3 1,-4 2,-3 1,-5 1,-3.9999 1,-5 1,-5 1,-5 1,-4 1,-5 1,-5 1,-4 1,-4 1,-4 1,-3 1,-3 1,-2 2,-2 1,-1 1,-1 1,1 1,1 1,2 1,2 1,4 1,3 1,5 1,4 1,4 1,5 1,5 2,4 1,5 1,4 1,4 1,3.9999 1,3 1,3 1,3 1,3 1,2 1,2 1,2 1,1 1,1 h 2 l 1,-1 1,-1 1,-1 1,-2 1,-3 1,-4 1,-3 1,-5 1,-3.9999 1,-5 1,-5 1,-5 1,-4 2,-5 1,-5 1,-4 1,-4 1,-4 1,-3 1,-3 1,-2 1,-2 1,-1 1,-1 1,1 1,1 1,2 2,2"
           stroke="#ed7d31"
           stroke-width="1.33333"
           stroke-linecap="round"
           stroke-linejoin="round"
           stroke-miterlimit="10"
           fill="none"
           id="path178" />
      </g>
      <g
         clip-path="url(#clip1)"
         id="g184">
        <path
           d="m 323.5,298.5 h 7 6 l 5,-2 4,-3 4,-7 2,-4 3,-14 7,-33 4,-18 4,-19 2,-13 3,-13 4,-13 3,-15 4,-12 2,-7 1,-4 2,-1 3,2 3,5 1,5 2,5 2,3 3,2 3,-3 2,-4 3,-9 3,-15 3,-12.9999 2,-11 2,-9 2,-7 2,-9 1,-3 3,-1 3,2 1,4 3,7 1,9 4,11 2,14.9999 3,10 2,7 2,4 2,4 1,1 4,-3 2,-6 3,-10 4,-14.9999 3,-18 3,-12 2,-7 2,-4 1,-3 1,-1 2,1 4,7 1,5 4,10 1,6 v 5 l 3,6 1,6 2,4.9999 3,8 2,5 4,4 1,2 4,-2 2,-5 3,-7 2,-6 2,-7.9999 3,-10 1,-6 2,-5 2,-5 1,-7 5,-4 3,1 4,10 2,7 3,9 5,16.9999 4,10 3,6 2,4 3,1 3,-3 3,-7 2,-8 2,-7.9999 3,-9 3,-13 3,-10 2,-3 2,-4 2,-1 4,2 2,8 2,5 2,10 3,8 2,9.9999 4,10 3,8 4,5 5,-2 2,-5 3,-8 3,-9.9999 3,-11 2,-11 3,-9 3,-8 3,-2 5,6 3,8 2,7 2,7 3,9 2,9.9999 4,8 3,7 2,3 2,2 3,-3 3,-4 2,-8 4,-13.9999 2,-8 3,-11 2,-7 3,-7 2,-3 2,-2 4,5 2,4 3,8 2,10 4,14 5,12.9999 3,7 2,4 2,1 3,-2 4,-5 3,-11 3,-8.9999 1,-8 3,-9 2,-8 3,-7 2,-4 3,-3 4,6 2,4 3,9 2,7 3,10 3,11.9999 3,6 2,6 2,5 4,1 3,-2 4,-8 4,-13.9999 1,-10 4,-11 2,-11 3,-5 2,-3 3,-3 4,4 1,6 3,9 3,7 1,7 3,10 3,8.9999 2,8 3,4 4,3 3,-1 2,-5 3,-7 3,-10 2,-10.9999 3,-10 2,-8 2,-6 3,-6 3,-2 3,4 4,6 2,8 3,11 2,9 3,7.9999 2,7 2,9 4,3 4,1 3,-3 3,-10 4,-10 3,-12.9999 3,-10 2,-10 4,-8 2,-3 3,4 5,6 2,13 4,15 4,10.9999 3,7 3,8 4,3 6,-3 2,-10 4,-11.9999 3,-12 2,-10 3,-8 2,-8 5,-4 3,6 4,10 4,14"
           stroke="#000000"
           stroke-width="1.33333"
           stroke-linecap="round"
           stroke-linejoin="round"
           stroke-miterlimit="10"
           stroke-dasharray="2.68, 2.65333"
           fill="none"
           id="path182" />
      </g>
      <g
         id="g188">
        <text
           font-family="Arial, Arial_MSFontService, sans-serif"
           font-weight="400"
           font-size="12px"
           transform="translate(321.123,317)"
           id="text186">0</text>
      </g>
      <g
         id="g192">
        <text
           font-family="Arial, Arial_MSFontService, sans-serif"
           font-weight="400"
           font-size="12px"
           transform="translate(424.897,317)"
           id="text190">10</text>
      </g>
      <g
         id="g196">
        <text
           font-family="Arial, Arial_MSFontService, sans-serif"
           font-weight="400"
           font-size="12px"
           transform="translate(532.007,317)"
           id="text194">20</text>
      </g>
      <g
         id="g200">
        <text
           font-family="Arial, Arial_MSFontService, sans-serif"
           font-weight="400"
           font-size="12px"
           transform="translate(639.117,317)"
           id="text198">30</text>
      </g>
      <g
         id="g204">
        <text
           font-family="Arial, Arial_MSFontService, sans-serif"
           font-weight="400"
           font-size="12px"
           transform="translate(746.228,317)"
           id="text202">40</text>
      </g>
      <g
         id="g208">
        <text
           font-family="Arial, Arial_MSFontService, sans-serif"
           font-weight="400"
           font-size="12px"
           transform="translate(853.338,317)"
           id="text206">50</text>
      </g>
      <g
         id="g212">
        <text
           font-family="Arial, Arial_MSFontService, sans-serif"
           font-weight="400"
           font-size="12px"
           transform="translate(960.448,317)"
           id="text210">60</text>
      </g>
      <g
         id="g216">
        <text
           font-family="Arial, Arial_MSFontService, sans-serif"
           font-weight="400"
           font-size="12px"
           transform="translate(307.466,303)"
           id="text214">0</text>
      </g>
      <g
         id="g220">
        <text
           font-family="Arial, Arial_MSFontService, sans-serif"
           font-weight="400"
           font-size="12px"
           transform="translate(290.786,246)"
           id="text218">0.05</text>
      </g>
      <g
         id="g224">
        <text
           font-family="Arial, Arial_MSFontService, sans-serif"
           font-weight="400"
           font-size="12px"
           transform="translate(297.46,189)"
           id="text222">0.1</text>
      </g>
      <g
         id="g228">
        <text
           font-family="Arial, Arial_MSFontService, sans-serif"
           font-weight="400"
           font-size="12px"
           transform="translate(290.786,133)"
           id="text226">0.15</text>
      </g>
      <g
         id="g232">
        <text
           font-family="Arial, Arial_MSFontService, sans-serif"
           font-weight="400"
           font-size="12px"
           transform="translate(297.46,76)"
           id="text230">0.2</text>
      </g>
      <g
         id="g236">
        <text
           font-family="Arial, Arial_MSFontService, sans-serif"
           font-weight="400"
           font-size="12px"
           transform="translate(290.786,20)"
           id="text234">0.25</text>
      </g>
      <g
         id="g240">
        <text
           font-family="Calibri, Calibri_MSFontService, sans-serif"
           font-weight="400"
           font-size="13px"
           transform="translate(626.877,336)"
           id="text238">Tempo</text>
      </g>
      <g
         id="g244">
        <text
           font-family="Calibri, Calibri_MSFontService, sans-serif"
           font-weight="400"
           font-size="13px"
           transform="rotate(-90,250.7565,-32.7565)"
           id="text242">Deslocamento vertical</text>
      </g>
      <g
         id="g248">
        <rect
           x="745.5"
           y="199.5"
           width="184"
           height="91"
           stroke="#000000"
           stroke-linejoin="round"
           stroke-miterlimit="10"
           fill="#ffffff"
           id="rect246" />
      </g>
      <g
         id="g252">
        <path
           d="m 756.5,210.5 h 26"
           stroke="#7f7f7f"
           stroke-width="1.33333"
           stroke-linecap="round"
           stroke-linejoin="round"
           stroke-miterlimit="10"
           fill="none"
           fill-rule="evenodd"
           id="path250" />
      </g>
      <g
         id="g256">
        <text
           font-family="Arial, Arial_MSFontService, sans-serif"
           font-weight="400"
           font-size="12px"
           transform="translate(784.834,214)"
           id="text254"
           style="-inkscape-font-specification:'Arial, Arial_MSFontService, sans-serif, Normal';font-family:Arial, Arial_MSFontService, sans-serif;font-weight:normal;font-style:normal;font-stretch:normal;font-variant:normal;font-size:12px;font-variant-ligatures:normal;font-variant-caps:normal;font-variant-numeric:normal;font-variant-east-asian:normal"><tspan
             sodipodi:role="line"
             id="tspan2">P1P1</tspan></text>
      </g>
      <g
         id="g260">
        <path
           d="m 756.5,233.5 h 26"
           stroke="#4472c4"
           stroke-width="1.33333"
           stroke-linecap="round"
           stroke-linejoin="round"
           stroke-miterlimit="10"
           fill="none"
           fill-rule="evenodd"
           id="path258" />
      </g>
      <g
         id="g264">
        <text
           font-family="Arial, Arial_MSFontService, sans-serif"
           font-weight="400"
           font-size="12px"
           transform="translate(784.834,237)"
           id="text262"
           style="-inkscape-font-specification:'Arial, Arial_MSFontService, sans-serif, Normal';font-family:Arial, Arial_MSFontService, sans-serif;font-weight:normal;font-style:normal;font-stretch:normal;font-variant:normal;font-size:12px;font-variant-ligatures:normal;font-variant-caps:normal;font-variant-numeric:normal;font-variant-east-asian:normal"><tspan
             sodipodi:role="line"
             id="tspan1">P2P2</tspan></text>
      </g>
      <g
         id="g268">
        <path
           d="m 756.5,255.5 h 26"
           stroke="#ed7d31"
           stroke-width="1.33333"
           stroke-linecap="round"
           stroke-linejoin="round"
           stroke-miterlimit="10"
           fill="none"
           fill-rule="evenodd"
           id="path266" />
      </g>
      <g
         id="g272">
        <text
           font-family="Arial, Arial_MSFontService, sans-serif"
           font-weight="400"
           font-size="12px"
           transform="translate(784.834,260)"
           id="text270">P2P1</text>
      </g>
      <g
         id="g276">
        <path
           d="m 756.5,278.5 h 26"
           stroke="#000000"
           stroke-width="1.33333"
           stroke-linecap="round"
           stroke-linejoin="round"
           stroke-miterlimit="10"
           stroke-dasharray="2.68, 2.65333"
           fill="none"
           fill-rule="evenodd"
           id="path274" />
      </g>
      <g
         id="g280">
        <text
           font-family="Arial, Arial_MSFontService, sans-serif"
           font-weight="400"
           font-size="12px"
           transform="translate(784.834,283)"
           id="text278">Gerbeau, Vidrascu (2003)</text>
      </g>
    </g>
  </g>
</svg>
