<?xml version="1.0" encoding="UTF-8" standalone="no"?>
<!-- Created with Inkscape (http://www.inkscape.org/) -->

<svg
   width="189.17708mm"
   height="93.927086mm"
   viewBox="0 0 189.17708 93.927083"
   version="1.1"
   id="svg5"
   inkscape:version="1.2.1 (9c6d41e410, 2022-07-14)"
   sodipodi:docname="resultados.svg"
   xmlns:inkscape="http://www.inkscape.org/namespaces/inkscape"
   xmlns:sodipodi="http://sodipodi.sourceforge.net/DTD/sodipodi-0.dtd"
   xmlns="http://www.w3.org/2000/svg"
   xmlns:svg="http://www.w3.org/2000/svg">
  <sodipodi:namedview
     id="namedview7"
     pagecolor="#ffffff"
     bordercolor="#000000"
     borderopacity="0.25"
     inkscape:showpageshadow="2"
     inkscape:pageopacity="0.0"
     inkscape:pagecheckerboard="0"
     inkscape:deskcolor="#d1d1d1"
     inkscape:document-units="mm"
     showgrid="false"
     inkscape:lockguides="true"
     inkscape:zoom="1.4912879"
     inkscape:cx="335.95123"
     inkscape:cy="179.03988"
     inkscape:window-width="1920"
     inkscape:window-height="1017"
     inkscape:window-x="1912"
     inkscape:window-y="-8"
     inkscape:window-maximized="1"
     inkscape:current-layer="layer1" />
  <defs
     id="defs2">
    <clipPath
       id="clip0">
      <rect
         x="696"
         y="1"
         width="715"
         height="416"
         id="rect132" />
    </clipPath>
    <clipPath
       id="clip1">
      <rect
         x="769"
         y="15"
         width="620"
         height="344"
         id="rect135" />
    </clipPath>
    <clipPath
       id="clip2">
      <rect
         x="769"
         y="15"
         width="620"
         height="344"
         id="rect138" />
    </clipPath>
    <clipPath
       id="clip0-6">
      <rect
         x="637"
         y="449"
         width="715"
         height="355"
         id="rect357" />
    </clipPath>
    <clipPath
       id="clip1-1">
      <rect
         x="710"
         y="463"
         width="620"
         height="283"
         id="rect360" />
    </clipPath>
  </defs>
  <g
     inkscape:label="Camada 1"
     inkscape:groupmode="layer"
     id="layer1"
     transform="translate(177.28998,-143.19667)">
    <g
       clip-path="url(#clip0-6)"
       transform="matrix(0.26458333,0,0,0.26458333,-345.82956,24.398756)"
       id="g483">
      <rect
         x="637"
         y="449"
         width="715"
         height="355"
         fill="#ffffff"
         id="rect365" />
      <g
         id="g369">
        <path
           d="m 813.5,463.5 v 282 m 103,-282 v 282 m 104,-282 v 282 m 103,-282 v 282 m 103,-282 v 282 m 103,-282 v 282"
           stroke="#d9d9d9"
           stroke-width="0.982677"
           stroke-linejoin="round"
           stroke-miterlimit="10"
           fill="none"
           id="path367" />
      </g>
      <g
         id="g373">
        <path
           d="m 710.5,688.5 h 619 m -619,-56 h 619 m -619,-56 h 619 m -619,-57 h 619 m -619,-56 h 619"
           stroke="#d9d9d9"
           stroke-width="0.982677"
           stroke-linejoin="round"
           stroke-miterlimit="10"
           fill="none"
           id="path371" />
      </g>
      <g
         id="g377">
        <rect
           x="710.5"
           y="463.5"
           width="619"
           height="282"
           stroke="#000000"
           stroke-linejoin="round"
           stroke-miterlimit="10"
           fill="none"
           id="rect375" />
      </g>
      <g
         id="g381">
        <path
           d="m 710.5,745.5 h 619"
           stroke="#000000"
           stroke-width="0.982677"
           stroke-linejoin="round"
           stroke-miterlimit="10"
           fill="none"
           fill-rule="evenodd"
           id="path379" />
      </g>
      <g
         id="g385">
        <path
           d="m 710.5,742.5 v 3 m 21,-3 v 3 m 20,-3 v 3 m 21,-3 v 3 m 20,-3 v 3 m 21,-3 v 3 m 21,-3 v 3 m 20,-3 v 3 m 21,-3 v 3 m 21,-3 v 3 m 20,-3 v 3 m 21,-3 v 3 m 21,-3 v 3 m 20,-3 v 3 m 21,-3 v 3 m 21,-3 v 3 m 20,-3 v 3 m 21,-3 v 3 m 20,-3 v 3 m 21,-3 v 3 m 21,-3 v 3 m 20,-3 v 3 m 21,-3 v 3 m 21,-3 v 3 m 20,-3 v 3 m 21,-3 v 3 m 21,-3 v 3 m 20,-3 v 3 m 21,-3 v 3 m 21,-3 v 3 m 20,-3 v 3 m -619,-4 v 8 m 103,-8 v 8 m 103,-8 v 8 m 104,-8 v 8 m 103,-8 v 8 m 103,-8 v 8 m 103,-8 v 8"
           stroke="#000000"
           stroke-width="0.982677"
           stroke-linejoin="round"
           stroke-miterlimit="10"
           fill="none"
           id="path383" />
      </g>
      <g
         id="g389">
        <path
           d="M 0,0 1.04987e-4,282"
           stroke="#000000"
           stroke-width="0.982677"
           stroke-linejoin="round"
           stroke-miterlimit="10"
           fill="none"
           fill-rule="evenodd"
           transform="matrix(1,0,0,-1,710.5,745.5)"
           id="path387" />
      </g>
      <g
         id="g393">
        <path
           d="m 710.5,745.5 h 3 m -3,-12 h 3 m -3,-11 h 3 m -3,-11 h 3 m -3,-11 h 3 m -3,-12 h 3 m -3,-11 h 3 m -3,-11 h 3 m -3,-11 h 3 m -3,-12 h 3 m -3,-11 h 3 m -3,-11 h 3 m -3,-12 h 3 m -3,-11 h 3 m -3,-11 h 3 m -3,-11 h 3 m -3,-12 h 3 m -3,-11 h 3 m -3,-11 h 3 m -3,-11 h 3 m -3,-12 h 3 m -3,-11 h 3 m -3,-11 h 3 m -3,-11 h 3 m -3,-12 h 3 m -3,-11 h 3 m -7,282 h 8 m -8,-57 h 8 m -8,-56 h 8 m -8,-56 h 8 m -8,-57 h 8 m -8,-56 h 8"
           stroke="#000000"
           stroke-width="0.982677"
           stroke-linejoin="round"
           stroke-miterlimit="10"
           fill="none"
           id="path391" />
      </g>
      <g
         clip-path="url(#clip1-1)"
         id="g397">
        <path
           d="m 710,745 h 6 6 l 5,-2 4,-3 4,-7 1,-4 4,-14 6,-32 4,-19 3,-19 3,-12 3,-14 3,-12 4,-15 3,-12 2,-7 1,-4 2,-1 3,2 2,5 2,5 2,5 2,3 2,2 4,-3 1,-4 4,-10 2,-14 3,-13 2,-11 2,-9 2,-6 2,-10 1,-3 3,-1 2,3 2,3 2,7 2,9 3,11 2,15 3,10 2,7 2,4 2,3 1,2 3,-3 3,-6 2,-10 4,-15 3,-18 3,-12 2,-6 2,-5 1,-3 1,-1 2,2 3,7 2,4 3,10 1,6 1,5 2,6 1,6 3,5 2,8 2,5 4,4 1,2 3,-2 3,-5 2,-7 2,-6 2,-8 3,-10 1,-6 2,-5 2,-5 1,-7 4,-4 4,1 4,10 1,7 4,9 4,17 4,10 3,6 2,4 3,1 3,-3 2,-7 3,-8 2,-8 3,-9 2,-13 3,-10 2,-3 2,-4 2,-1 3,3 3,7 1,5 3,11 2,7 3,10 3,10 3,8 4,5 4,-2 3,-5 2,-8 3,-10 3,-11 2,-10 3,-10 3,-7 3,-3 5,7 3,8 2,6 2,7 2,10 2,9 4,8 3,7 2,3 2,1 3,-2 3,-4 2,-8 3,-14 3,-8 2,-11 3,-7 2,-7 2,-3 2,-2 4,5 2,4 2,8 3,10 4,14 4,13 3,7 2,4 2,1 3,-2 4,-5 3,-11 2,-9 2,-8 2,-9 3,-8 2,-7 2,-4 3,-3 4,6 2,4 3,9 2,7 2,11 3,11 3,6 2,6 3,5 3,1 3,-2 3,-8 4,-14 2,-10 3,-11 3,-11 2,-4 3,-4 2,-2 4,3 1,6 3,9 2,7 1,7 4,10 2,9 2,8 3,4 4,3 3,-1 2,-5 3,-7 2,-10 3,-11 2,-10 3,-8 1,-6 3,-6 3,-2 3,4 4,6 2,9 2,10 3,9 2,8 3,7 1,9 4,3 4,1 3,-3 3,-10 3,-10 4,-13 2,-10 2,-10 5,-8 1,-2 3,3 4,6 3,13 4,15 3,11 3,7 4,8 3,3 6,-3 2,-10 3,-12 4,-11 2,-11 2,-7 3,-9 4,-3 3,5 4,10 3,14"
           stroke="#000000"
           stroke-width="2"
           stroke-linecap="round"
           stroke-linejoin="round"
           stroke-miterlimit="10"
           stroke-dasharray="4.02, 3.98"
           fill="none"
           id="path395" />
      </g>
      <g
         id="g401">
        <path
           d="m 710,745 h 1 1 2 1 1 1 1 1 1 1 1 1 1 l 1,-1 h 1 1 l 1,-1 1,-1 1,-1 1,-1 1,-2 1,-2 1,-3 1,-3 1,-4 1,-4 1,-4 1,-5 1,-5 1,-6 1,-6 1,-6 1,-6 2,-6 1,-6 1,-6 1,-6 1,-6 1,-6 1,-6 1,-5 1,-5 1,-5 1,-5 1,-5 1,-5 1,-5 1,-4 1,-5 1,-4 1,-4 1,-5 1,-4 1,-4 1,-4 1,-4 1,-4 1,-3 1,-2 h 1 1 l 1,1 1,3 1,3 2,3 1,4 1,4 1,4 1,3 1,3 1,2 1,2 h 1 1 1 l 1,-2 1,-3 1,-3 1,-4 1,-4 1,-6 1,-6 1,-6 1,-6 1,-7 1,-7 1,-7 1,-6 1,-7 1,-6 1,-6 1,-5 1,-5 1,-5 1,-3 2,-2 1,-1 1,1 1,1 1,3 1,4 1,4 1,6 1,5 1,6 1,6 1,7 1,6 1,7 1,7 1,6 1,6 1,6 1,5 1,4 1,3 1,3 1,1 1,1 h 1 l 1,-1 1,-2 1,-2 1,-4 1,-4 1,-4 2,-5 1,-6 1,-6 1,-7 1,-6 1,-7 1,-6 1,-7 1,-5 1,-6 1,-5 1,-4 1,-4 1,-3 1,-3 1,-1 1,-2 h 1 l 1,1 1,2 1,3 1,3 1,4 1,5 1,5 1,5 1,6 1,5 1,5 1,5 1,4 1,4 2,4 1,4 1,3 1,3 1,3 1,2 1,2 1,2 1,2 1,1 1,1 h 1 1 1 l 1,-2 1,-1 1,-3 1,-3 1,-3 1,-4 1,-5 1,-5 1,-4 1,-5 1,-6 1,-5 1,-4 1,-5 1,-5 1,-4 1,-4 2,-4 1,-3 1,-2 1,-2 1,-1 1,-1 1,1 1,1 1,3 1,3 1,3 1,4 1,5 1,5 1,5 1,5 1,5 1,5 1,5 1,4 1,5 1,4 1,4 1,4 1,3 1,3 1,3 1,2 1,2 1,1 1,1 h 2 l 1,-1 1,-1 1,-2 1,-3 1,-3 1,-4 1,-4 1,-5 1,-5 1,-6 1,-5 1,-6 1,-6 1,-5 1,-5 1,-5 1,-5 1,-4 1,-4 1,-3 1,-3 1,-2 1,-1 h 1 l 1,1 1,2 1,3 1,3 1,4 1,5 2,5 1,5 1,6 1,5 1,5 1,5 1,5 1,5 1,4 1,4 1,4 1,3 1,3 1,3 1,2 1,2 1,2 1,1 h 1 1 l 1,-1 1,-1 1,-2 1,-3 1,-3 1,-4 1,-5 1,-5 1,-5 1,-5 1,-6 2,-5 1,-5 1,-5 1,-6 1,-4 1,-5 1,-4 1,-3 1,-4 1,-2 1,-2 1,-1 h 1 l 1,1 1,2 1,2 1,4 1,4 1,4 1,5 1,5 1,5 1,5 1,5 1,5 1,5 1,5 1,4 1,4 1,4 1,3 2,3 1,3 1,3 1,2 1,1 1,1 1,1 h 1 l 1,-1 1,-1 1,-2 1,-3 1,-3 1,-4 1,-4 1,-5 1,-5 1,-6 1,-5 1,-5 1,-6 1,-5 1,-5 1,-5 1,-5 1,-4 1,-4 1,-3 1,-2 1,-2 1,-1 h 2 l 1,1 1,1 1,3 1,3 1,4 1,5 1,5 1,5 1,5 1,5 1,5 1,5 1,5 1,5 1,4 1,4 1,4 1,3 1,4 1,2 1,3 1,2 1,2 1,1 h 1 1 l 1,-1 1,-1 1,-2 1,-3 2,-3 1,-4 1,-4 1,-5 1,-5 1,-6 1,-5 1,-6 1,-5 1,-5 1,-5 1,-5 1,-5 1,-4 1,-4 1,-3 1,-2 1,-2 1,-1 h 1 l 1,1 1,2 1,2 1,4 1,3 1,5 1,5 1,5 1,5 1,5 1,5 2,5 1,5 1,5 1,4 1,4 1,4 1,3 1,4 1,2 1,3 1,2 1,1 1,2 h 1 1 l 1,-1 1,-1 1,-2 1,-3 1,-3 1,-4 1,-4 1,-5 1,-5 1,-6 1,-5 1,-6 1,-5 1,-5 1,-5 1,-5 1,-5 2,-4 1,-4 1,-3 1,-2 1,-2 1,-1 h 1 l 1,1 1,2 1,2 1,3 1,4 1,5 1,5 1,5 1,5 1,5 1,5 1,5 1,5 1,5 1,4 1,4 1,4 1,3 1,4 1,2 1,3 1,2 1,1 1,2 h 2 1 l 1,-1 1,-1 1,-2 1,-3 1,-3 1,-4 1,-4 1,-5 1,-5 1,-6 1,-5 1,-6 1,-5 1,-5 1,-5 1,-5 1,-5 1,-4 1,-4 1,-3 1,-2 1,-2 1,-1 h 1 l 1,1 1,2 1,2 1,4 1,3 2,5 1,5 1,5 1,5 1,5 1,5 1,5 1,5 1,5 1,4 1,4 1,4 1,3 1,4 1,2 1,3 1,2 1,1 1,2 h 1 1 l 1,-1 1,-1 1,-2 1,-3 1,-3 1,-4 1,-4 1,-5 1,-5 1,-6 2,-5 1,-6 1,-5 1,-5 1,-5 1,-5 1,-5 1,-4 1,-4 1,-3 1,-2 1,-2 1,-1 h 1 l 1,1 1,2 1,2 1,4 1,3 1,5 1,5 1,5 1,5 1,5 1,5 1,5 1,5 1,5 1,4 1,4 1,4 2,3 1,4 1,2 1,3 1,2 1,1 1,2 h 1 1 l 1,-1 1,-1 1,-2 1,-3 1,-3 1,-4 1,-4 1,-5 1,-5 1,-6 1,-5 1,-6 1,-5 1,-5 1,-5 1,-5 1,-5 1,-4 1,-4 1,-3 1,-2 1,-2 2,-1 h 1 l 1,1 1,2 1,2 1,3"
           stroke="#000000"
           stroke-width="2"
           stroke-linecap="round"
           stroke-linejoin="round"
           stroke-miterlimit="10"
           fill="none"
           id="path399" />
      </g>
      <g
         id="g405">
        <text
           font-family="Arial, Arial_MSFontService, sans-serif"
           font-weight="400"
           font-size="13px"
           transform="translate(706.714,765)"
           id="text403">0</text>
      </g>
      <g
         id="g409">
        <text
           font-family="Arial, Arial_MSFontService, sans-serif"
           font-weight="400"
           font-size="13px"
           transform="translate(806.222,765)"
           id="text407">10</text>
      </g>
      <g
         id="g413">
        <text
           font-family="Arial, Arial_MSFontService, sans-serif"
           font-weight="400"
           font-size="13px"
           transform="translate(909.435,765)"
           id="text411">20</text>
      </g>
      <g
         id="g417">
        <text
           font-family="Arial, Arial_MSFontService, sans-serif"
           font-weight="400"
           font-size="13px"
           transform="translate(1012.65,765)"
           id="text415">30</text>
      </g>
      <g
         id="g421">
        <text
           font-family="Arial, Arial_MSFontService, sans-serif"
           font-weight="400"
           font-size="13px"
           transform="translate(1115.86,765)"
           id="text419">40</text>
      </g>
      <g
         id="g425">
        <text
           font-family="Arial, Arial_MSFontService, sans-serif"
           font-weight="400"
           font-size="13px"
           transform="translate(1219.08,765)"
           id="text423">50</text>
      </g>
      <g
         id="g429">
        <text
           font-family="Arial, Arial_MSFontService, sans-serif"
           font-weight="400"
           font-size="13px"
           transform="translate(1322.29,765)"
           id="text427">60</text>
      </g>
      <g
         id="g433">
        <text
           font-family="Arial, Arial_MSFontService, sans-serif"
           font-weight="400"
           font-size="13px"
           transform="translate(691.533,749)"
           id="text431">0</text>
      </g>
      <g
         id="g437">
        <text
           font-family="Arial, Arial_MSFontService, sans-serif"
           font-weight="400"
           font-size="13px"
           transform="translate(673,693)"
           id="text435">0.05</text>
      </g>
      <g
         id="g441">
        <text
           font-family="Arial, Arial_MSFontService, sans-serif"
           font-weight="400"
           font-size="13px"
           transform="translate(680.413,637)"
           id="text439">0.1</text>
      </g>
      <g
         id="g445">
        <text
           font-family="Arial, Arial_MSFontService, sans-serif"
           font-weight="400"
           font-size="13px"
           transform="translate(673,580)"
           id="text443">0.15</text>
      </g>
      <g
         id="g449">
        <text
           font-family="Arial, Arial_MSFontService, sans-serif"
           font-weight="400"
           font-size="13px"
           transform="translate(680.413,524)"
           id="text447">0.2</text>
      </g>
      <g
         id="g453">
        <text
           font-family="Arial, Arial_MSFontService, sans-serif"
           font-weight="400"
           font-size="13px"
           transform="translate(673,468)"
           id="text451">0.25</text>
      </g>
      <g
         id="g457">
        <text
           font-family="Arial, Arial_MSFontService, sans-serif"
           font-weight="400"
           font-size="13px"
           transform="translate(999.316,785)"
           id="text455">Tempo</text>
      </g>
      <g
         id="g461">
        <text
           font-family="Arial, Arial_MSFontService, sans-serif"
           font-weight="400"
           font-size="13px"
           transform="rotate(-90,668.3335,1.6665)"
           id="text459">Deslocamento vertical</text>
      </g>
      <g
         id="g465">
        <rect
           x="1128.5"
           y="696.5"
           width="194"
           height="40"
           stroke="#000000"
           stroke-linejoin="round"
           stroke-miterlimit="10"
           fill="#ffffff"
           id="rect463" />
      </g>
      <g
         id="g469">
        <path
           d="m 1137,707 h 25"
           stroke="#000000"
           stroke-width="2"
           stroke-linecap="round"
           stroke-linejoin="round"
           stroke-miterlimit="10"
           stroke-dasharray="4.02, 3.98"
           fill="none"
           fill-rule="evenodd"
           id="path467" />
      </g>
      <g
         id="g473">
        <text
           font-family="Arial, Arial_MSFontService, sans-serif"
           font-weight="400"
           font-size="13px"
           transform="translate(1165.19,711)"
           id="text471">Gerbeau, Vidrascu (2003)</text>
      </g>
      <g
         id="g477">
        <path
           d="m 1137,727 h 25"
           stroke="#000000"
           stroke-width="2"
           stroke-linecap="round"
           stroke-linejoin="round"
           stroke-miterlimit="10"
           fill="none"
           fill-rule="evenodd"
           id="path475" />
      </g>
      <g
         id="g481">
        <text
           font-family="Arial, Arial_MSFontService, sans-serif"
           font-weight="400"
           font-size="13px"
           transform="translate(1165.19,731)"
           id="text479">Autor</text>
      </g>
    </g>
  </g>
</svg>
