<?xml version="1.0" encoding="UTF-8" standalone="no"?>
<!-- Created with Inkscape (http://www.inkscape.org/) -->

<svg
   width="231.77499mm"
   height="107.68542mm"
   viewBox="0 0 231.77499 107.68542"
   version="1.1"
   id="svg1"
   inkscape:version="1.3.2 (1:1.3.2+202311252150+091e20ef0f)"
   sodipodi:docname="results-coarse.svg"
   xmlns:inkscape="http://www.inkscape.org/namespaces/inkscape"
   xmlns:sodipodi="http://sodipodi.sourceforge.net/DTD/sodipodi-0.dtd"
   xmlns="http://www.w3.org/2000/svg"
   xmlns:svg="http://www.w3.org/2000/svg">
  <sodipodi:namedview
     id="namedview1"
     pagecolor="#ffffff"
     bordercolor="#000000"
     borderopacity="0.25"
     inkscape:showpageshadow="2"
     inkscape:pageopacity="0.0"
     inkscape:pagecheckerboard="0"
     inkscape:deskcolor="#d1d1d1"
     inkscape:document-units="mm"
     inkscape:zoom="1.0343421"
     inkscape:cx="606.18244"
     inkscape:cy="208.8284"
     inkscape:window-width="1920"
     inkscape:window-height="962"
     inkscape:window-x="0"
     inkscape:window-y="0"
     inkscape:window-maximized="1"
     inkscape:current-layer="layer1" />
  <defs
     id="defs1">
    <clipPath
       id="clip0">
      <rect
         x="333"
         y="0"
         width="876"
         height="407"
         id="rect1" />
    </clipPath>
    <clipPath
       id="clip1">
      <rect
         x="375"
         y="14"
         width="813"
         height="364"
         id="rect2" />
    </clipPath>
  </defs>
  <g
     inkscape:label="Camada 1"
     inkscape:groupmode="layer"
     id="layer1"
     transform="translate(76.729171,-136.525)">
    <g
       clip-path="url(#clip0)"
       transform="matrix(0.26458333,0,0,0.26458333,-164.83542,136.525)"
       id="g39">
      <rect
         x="333"
         y="0"
         width="876"
         height="407"
         fill="#ffffff"
         id="rect3" />
      <g
         id="g3">
        <path
           d="m 375.5,305.5 h 812 m -812,-73 h 812 m -812,-73 h 812 m -812,-71.9999 h 812 m -812,-73 h 812"
           stroke="#d9d9d9"
           stroke-linejoin="round"
           stroke-miterlimit="10"
           fill="none"
           id="path3" />
      </g>
      <g
         id="g4">
        <path
           d="M 510.5,14.5001 V 377.5 M 646.5,14.5001 V 377.5 M 781.5,14.5001 V 377.5 M 916.5,14.5001 V 377.5 m 136,-362.9999 V 377.5 m 135,-362.9999 V 377.5"
           stroke="#d9d9d9"
           stroke-linejoin="round"
           stroke-miterlimit="10"
           fill="none"
           id="path4" />
      </g>
      <g
         id="g5">
        <rect
           x="375.5"
           y="14.5001"
           width="812"
           height="363"
           stroke="#000000"
           stroke-linejoin="round"
           stroke-miterlimit="10"
           fill="none"
           id="rect4" />
      </g>
      <g
         id="g6">
        <path
           d="M 0,0 1.04987e-4,363"
           stroke="#000000"
           stroke-linejoin="round"
           stroke-miterlimit="10"
           fill="none"
           fill-rule="evenodd"
           transform="matrix(1,0,0,-1,375.5,377.5)"
           id="path5" />
      </g>
      <g
         id="g7">
        <path
           d="m 375.5,377.5 h 3 m -3,-14 h 3 m -3,-15 h 3 m -3,-14 h 3 m -3,-15 h 3 m -3,-14 h 3 m -3,-15 h 3 m -3,-14 h 3 m -3,-15 h 3 m -3,-14 h 3 m -3,-15 h 3 m -3,-15 h 3 m -3,-14 h 3 m -3,-15 h 3 m -3,-14 h 3 m -3,-15 h 3 m -3,-14 h 3 m -3,-15 h 3 m -3,-14 h 3 m -3,-15 h 3 m -3,-13.9999 h 3 m -3,-15 h 3 m -3,-14 h 3 m -3,-15 h 3 m -3,-14 h 3 m -3,-15 h 3 m -7,362.9999 h 7 m -7,-72 h 7 m -7,-73 h 7 m -7,-73 h 7 m -7,-71.9999 h 7 m -7,-73 h 7"
           stroke="#000000"
           stroke-linejoin="round"
           stroke-miterlimit="10"
           fill="none"
           id="path6" />
      </g>
      <g
         id="g8">
        <path
           d="m 375.5,377.5 h 812"
           stroke="#000000"
           stroke-linejoin="round"
           stroke-miterlimit="10"
           fill="none"
           fill-rule="evenodd"
           id="path7" />
      </g>
      <g
         id="g9">
        <path
           d="m 375.5,374.5 v 3 m 27,-3 v 3 m 27,-3 v 3 m 27,-3 v 3 m 27,-3 v 3 m 27,-3 v 3 m 27,-3 v 3 m 27,-3 v 3 m 27,-3 v 3 m 28,-3 v 3 m 27,-3 v 3 m 27,-3 v 3 m 27,-3 v 3 m 27,-3 v 3 m 27,-3 v 3 m 27,-3 v 3 m 27,-3 v 3 m 27,-3 v 3 m 27,-3 v 3 m 27,-3 v 3 m 27,-3 v 3 m 27,-3 v 3 m 28,-3 v 3 m 27,-3 v 3 m 27,-3 v 3 m 27,-3 v 3 m 27,-3 v 3 m 27,-3 v 3 m 27,-3 v 3 m 27,-3 v 3 m 27,-3 v 3 m -812,-3 v 7 m 135,-7 v 7 m 136,-7 v 7 m 135,-7 v 7 m 135,-7 v 7 m 136,-7 v 7 m 135,-7 v 7"
           stroke="#000000"
           stroke-linejoin="round"
           stroke-miterlimit="10"
           fill="none"
           id="path8" />
      </g>
      <g
         clip-path="url(#clip1)"
         id="g10">
        <path
           d="m 374,378 h 9 l 7,-1 7,-1 5,-5 5,-8 2,-6 5,-18 8,-42 5,-23 5,-25 3,-16 4,-17 4,-16 5,-20 4,-15 3,-9 1,-6 3,-1 4,3 3,6 2,7 2,6 3,4 3,2 5,-3 2,-6 4,-12 3,-19 5,-16 2,-14 3,-12 2,-8 2,-13 2,-3 3,-1 4,3 2,4 3,9 2,12 4,14 3,19 4,13 3,9 2,6 2,4 2,2 5,-4 3,-8 3,-13 5,-19 3,-23 5,-16 2,-8 3,-6 1,-4 1,-1 3,2 5,9 2,6 4,12 1,8 1,6 3,8 1,8 4,7 3,10 3,7 4,5 2,2 5,-2 3,-7 3,-9 2,-8 3,-10 3,-12 3,-8 2,-7 2,-7 2,-9 5,-4 5,1 5,13 2,9 4,12 7,22 4,13 4,7 3,5 3,1 5,-4 3,-8 3,-11 2,-11 5,-11 3,-17 4,-13 2,-4 2,-4 3,-2 5,3 3,10 2,7 3,13 3,10 4,12 4,14 4,10 5,6 6,-2 3,-7 3,-10 4,-13 4,-14 3,-14 3,-12 4,-10 4,-3 7,9 3,10 3,8 2,10 4,11 3,12 5,11 3,9 3,4 3,2 4,-4 3,-5 3,-10 4,-18 4,-11 3,-13 3,-9 3,-9 2,-4 4,-3 5,6 2,6 3,10 3,13 6,18 5,17 4,9 2,4 4,2 4,-2 4,-7 4,-13 4,-13 2,-9 3,-12 3,-11 3,-9 2,-5 5,-4 5,8 2,5 4,12 2,9 4,13 4,14 4,9 2,8 3,6 5,2 4,-4 4,-10 6,-18 2,-13 4,-13 3,-15 3,-6 4,-4 3,-3 5,4 1,8 4,11 4,10 1,9 4,13 3,11 3,10 3,5 6,5 4,-3 2,-6 4,-8 4,-13 3,-14 3,-13 3,-11 2,-7 3,-8 5,-3 4,5 4,8 3,11 4,14 3,11 3,10 3,9 2,12 6,4 4,2 4,-5 4,-13 5,-13 4,-16 3,-13 3,-13 6,-10 2,-3 4,4 5,7 4,17 5,20 4,14 4,9 5,10 4,5 7,-5 4,-12 4,-16 4,-15 3,-14 3,-9 4,-11 5,-4 4,7 6,13 4,17"
           stroke="#000000"
           stroke-width="2"
           stroke-linecap="round"
           stroke-linejoin="round"
           stroke-miterlimit="10"
           stroke-dasharray="4, 4"
           fill="none"
           id="path9" />
      </g>
      <g
         id="g11">
        <path
           d="m 375,378 h 2 1 1 2 1 1 2 1 2 1 1 l 2,-1 h 1 1 2 l 1,-1 h 1 l 2,-1 1,-2 1,-1 2,-2 1,-3 1,-3 2,-4 1,-4 2,-5 1,-6 1,-6 2,-7 1,-7 1,-7 2,-8 1,-8 1,-7 2,-8 1,-7 1,-7 2,-7 1,-6 1,-7 2,-6 1,-7 2,-7 1,-7 1,-6 2,-7 1,-7 1,-6 2,-6 1,-5 1,-5 2,-5 1,-5 1,-4 2,-3 1,-3 2,-3 1,-1 1,-2 h 2 1 1 l 2,1 1,1 1,2 2,1 1,2 1,1 2,2 h 1 l 1,1 h 2 l 1,-1 2,-1 1,-2 1,-3 2,-3 1,-4 1,-5 2,-5 1,-5 1,-6 2,-6 1,-7 1,-6 2,-7 1,-6 1,-7 2,-6 1,-7 2,-5 1,-5 1,-5 2,-4 1,-2 1,-2 2,-1 h 1 l 1,2 2,2 1,2 1,4 2,4 1,5 1,5 2,5 1,5 2,6 1,5 1,6 2,5 1,5 1,5 2,5 1,5 1,4 2,4 1,3 1,2 2,3 1,1 h 2 1 l 1,-1 2,-2 1,-3 1,-4 2,-4 1,-5 1,-5 2,-6 1,-6 1,-7 2,-6 1,-7 1,-6 2,-6 1,-6 2,-6 1,-5 1,-4 2,-4 1,-3 1,-2 2,-1 h 1 l 1,1 2,1 1,3 1,3 2,4 1,4 1,5 2,5 1,5 2,5 1,6 1,5 2,5 1,6 1,5 2,5 1,4 1,5 2,4 1,4 1,4 2,3 1,2 1,2 2,1 1,1 h 2 l 1,-2 1,-2 2,-2 1,-4 1,-4 2,-5 1,-5 1,-5 2,-6 1,-6 1,-7 2,-6 1,-6 2,-6 1,-6 1,-6 2,-5 1,-4 1,-4 2,-3 1,-2 1,-1 h 2 1 l 1,2 2,2 1,3 1,4 2,4 1,4 2,5 1,6 1,5 2,5 1,6 1,5 2,5 1,5 1,5 2,5 1,5 1,4 2,4 1,3 1,4 2,2 1,2 2,1 1,1 h 1 l 2,-1 1,-2 1,-3 2,-4 1,-4 1,-4 2,-6 1,-5 1,-6 2,-6 1,-7 1,-6 2,-6 1,-6 2,-6 1,-6 1,-5 2,-4 1,-4 1,-3 2,-2 1,-1 1,-1 2,1 1,2 1,2 2,3 1,4 2,4 1,4 1,5 2,6 1,5 1,5 2,6 1,5 1,5 2,5 1,5 1,5 2,5 1,4 1,4 2,3 1,4 2,2 1,2 1,1 2,1 h 1 l 1,-1 2,-2 1,-3 1,-4 2,-4 1,-4 1,-6 2,-5 1,-6 1,-6 2,-7 1,-6 2,-6 1,-6 1,-6 2,-6 1,-5 1,-4 2,-4 1,-3 1,-2 2,-1 1,-1 1,1 2,2 1,2 2,3 1,4 1,4 2,4 1,5 1,6 2,5 1,5 1,6 2,5 1,5 1,5 2,5 1,5 1,5 2,4 1,4 2,3 1,4 1,2 2,2 1,1 1,1 h 2 l 1,-1 1,-2 2,-3 1,-4 1,-4 2,-4 1,-6 1,-5 2,-6 1,-6 2,-7 1,-6 1,-6 2,-6 1,-6 1,-6 2,-5 1,-4 1,-4 2,-3 1,-2 1,-1 2,-1 1,1 1,2 2,2 1,3 2,4 1,4 1,4 2,5 1,6 1,5 2,5 1,6 1,5 2,5 1,5 1,5 2,5 1,5 2,4 1,4 1,3 2,4 1,2 1,2 2,1 1,1 h 1 l 2,-1 1,-2 1,-3 2,-4 1,-4 1,-4 2,-6 1,-5 2,-6 1,-6 1,-7 2,-6 1,-6 1,-6 2,-6 1,-6 1,-5 2,-4 1,-4 1,-3 2,-2 1,-1 1,-1 2,1 1,2 2,2 1,3 1,4 2,4 1,4 1,5 2,6 1,5 1,5 2,6 1,5 1,5 2,5 1,5 1,5 2,5 1,4 2,4 1,3 1,4 2,2 1,2 1,1 2,1 h 1 l 1,-1 2,-2 1,-3 1,-4 2,-4 1,-4 2,-6 1,-5 1,-6 2,-6 1,-7 1,-6 2,-6 1,-6 1,-6 2,-6 1,-5 1,-4 2,-4 1,-3 1,-2 2,-1 1,-1 2,1 1,2 1,2 2,3 1,4 1,4 2,4 1,5 1,6 2,5 1,5 1,6 2,5 1,5 1,5 2,5 1,5 2,5 1,4 1,4 2,3 1,4 1,2 2,2 1,1 1,1 h 2 l 1,-1 1,-2 2,-3 1,-4 1,-4 2,-4 1,-6 2,-5 1,-6 1,-6 2,-7 1,-6 1,-6 2,-6 1,-6 1,-6 2,-5 1,-4 1,-4 2,-3 1,-2 2,-1 1,-1 1,1 2,2 1,2 1,3 2,4 1,4 1,4 2,5 1,6 1,5 2,5 1,6 1,5 2,5 1,5 2,5 1,5 1,5 2,4 1,4 1,3 2,4 1,2 1,2 2,1 1,1 h 1 l 2,-1 1,-2 1,-3 2,-4 1,-4 2,-4 1,-6 1,-5 2,-6 1,-6 1,-7 2,-6 1,-6 1,-6 2,-6 1,-6 1,-5 2,-4 1,-4 1,-3 2,-2 1,-1 2,-1 1,1 1,2 2,2 1,3 1,4 2,4 1,4 1,5 2,6 1,5 1,5 2,6 1,5 2,5 1,5 1,5 2,5 1,5 1,4 2,4 1,3 1,4 2,2 1,2 1,1 2,1 h 1 l 1,-1 2,-2 1,-3 2,-4 1,-4 1,-4 2,-6 1,-5 1,-6 2,-6 1,-7 1,-6 2,-6 1,-6 1,-6 2,-6 1,-5 1,-4 2,-4 1,-3 2,-2 1,-1 1,-1 2,1 1,2 1,2"
           stroke="#156082"
           stroke-width="2"
           stroke-linecap="round"
           stroke-linejoin="round"
           stroke-miterlimit="10"
           fill="none"
           id="path10" />
      </g>
      <g
         id="g12">
        <path
           d="m 375,378 h 2 1 1 2 1 1 2 1 2 1 1 l 2,-1 h 1 1 2 l 1,-1 h 1 l 2,-1 1,-2 1,-1 2,-2 1,-3 1,-3 2,-4 1,-4 2,-5 1,-6 1,-6 2,-7 1,-7 1,-8 2,-7 1,-8 1,-8 2,-7 1,-7 1,-7 2,-7 1,-6 1,-7 2,-7 1,-6 2,-7 1,-7 1,-7 2,-6 1,-7 1,-6 2,-6 1,-5 1,-5 2,-5 1,-5 1,-4 2,-3 1,-3 2,-3 1,-1 1,-2 h 2 1 1 l 2,1 1,1 1,2 2,1 1,2 1,1 2,2 h 1 l 1,1 h 2 l 1,-1 2,-1 1,-2 1,-3 2,-3 1,-4 1,-5 2,-5 1,-6 1,-5 2,-7 1,-6 1,-6 2,-7 1,-7 1,-6 2,-7 1,-6 2,-6 1,-5 1,-4 2,-4 1,-2 1,-2 2,-1 h 1 l 1,1 2,2 1,3 1,4 2,4 1,5 1,5 2,5 1,5 2,6 1,5 1,6 2,5 1,5 1,5 2,5 1,5 1,4 2,3 1,4 1,2 2,2 1,2 h 2 1 l 1,-1 2,-2 1,-3 1,-4 2,-4 1,-5 1,-6 2,-6 1,-6 1,-6 2,-6 1,-7 1,-6 2,-7 1,-6 2,-5 1,-5 1,-5 2,-3 1,-3 1,-2 2,-1 h 1 l 1,1 2,1 1,3 1,3 2,4 1,4 1,5 2,5 1,5 2,5 1,6 1,5 2,5 1,6 1,5 2,5 1,4 1,5 2,4 1,4 1,3 2,3 1,3 1,2 2,1 1,1 2,-1 1,-1 1,-2 2,-2 1,-4 1,-4 2,-5 1,-5 1,-6 2,-6 1,-6 1,-6 2,-6 1,-6 2,-6 1,-6 1,-6 2,-5 1,-4 1,-4 2,-3 1,-2 1,-1 2,-1 1,1 1,2 2,2 1,3 1,4 2,4 1,4 2,5 1,6 1,5 2,5 1,6 1,5 2,5 1,5 1,5 2,5 1,5 1,4 2,4 1,3 1,3 2,3 1,2 2,1 1,1 h 1 l 2,-2 1,-2 1,-2 2,-4 1,-4 1,-5 2,-5 1,-6 1,-5 2,-7 1,-6 1,-6 2,-6 1,-7 2,-5 1,-6 1,-5 2,-5 1,-3 1,-3 2,-2 1,-1 1,-1 2,1 1,1 1,3 2,3 1,3 2,5 1,4 1,5 2,6 1,5 1,5 2,6 1,5 1,5 2,5 1,5 1,5 2,5 1,4 1,4 2,3 1,4 2,2 1,2 1,1 2,1 h 1 l 1,-2 2,-2 1,-2 1,-4 2,-4 1,-5 1,-5 2,-6 1,-5 1,-7 2,-6 1,-6 2,-6 1,-7 1,-5 2,-6 1,-5 1,-5 2,-3 1,-3 1,-2 2,-1 1,-1 1,1 2,1 1,3 2,3 1,3 1,5 2,4 1,5 1,6 2,5 1,5 1,6 2,5 1,5 1,5 2,5 1,5 1,5 2,4 1,4 2,3 1,3 1,3 2,2 1,1 1,1 h 2 l 1,-2 1,-2 2,-2 1,-4 1,-4 2,-5 1,-5 1,-6 2,-5 1,-7 2,-6 1,-6 1,-6 2,-7 1,-5 1,-6 2,-5 1,-5 1,-3 2,-3 1,-2 1,-1 2,-1 1,1 1,1 2,3 1,3 2,3 1,5 1,4 2,5 1,6 1,5 2,5 1,6 1,5 2,5 1,5 1,5 2,5 1,5 2,4 1,4 1,3 2,3 1,3 1,2 2,1 1,1 h 1 l 2,-2 1,-2 1,-2 2,-4 1,-4 1,-5 2,-5 1,-6 2,-5 1,-7 1,-6 2,-6 1,-6 1,-7 2,-5 1,-6 1,-5 2,-5 1,-3 1,-3 2,-2 1,-1 1,-1 2,1 1,1 2,3 1,3 1,3 2,5 1,4 1,5 2,6 1,5 1,5 2,6 1,5 1,5 2,5 1,5 1,5 2,5 1,4 2,4 1,3 1,3 2,3 1,2 1,1 2,1 h 1 l 1,-2 2,-2 1,-2 1,-4 2,-4 1,-5 2,-5 1,-6 1,-5 2,-7 1,-6 1,-6 2,-6 1,-7 1,-5 2,-6 1,-5 1,-5 2,-3 1,-3 1,-2 2,-1 1,-1 2,1 1,1 1,3 2,3 1,3 1,5 2,4 1,5 1,6 2,5 1,5 1,6 2,5 1,5 1,5 2,5 1,5 2,5 1,4 1,4 2,3 1,3 1,3 2,2 1,1 1,1 h 2 l 1,-2 1,-2 2,-2 1,-4 1,-4 2,-5 1,-5 2,-6 1,-5 1,-7 2,-6 1,-6 1,-6 2,-7 1,-5 1,-6 2,-5 1,-5 1,-3 2,-3 1,-2 2,-1 1,-1 1,1 2,1 1,3 1,3 2,3 1,5 1,4 2,5 1,6 1,5 2,5 1,6 1,5 2,5 1,5 2,5 1,5 1,5 2,4 1,4 1,3 2,3 1,3 1,2 2,1 1,1 h 1 l 2,-2 1,-2 1,-2 2,-4 1,-4 2,-5 1,-5 1,-6 2,-5 1,-7 1,-6 2,-6 1,-6 1,-7 2,-5 1,-6 1,-5 2,-5 1,-3 1,-3 2,-2 1,-1 2,-1 1,1 1,1 2,3 1,3 1,3 2,5 1,4 1,5 2,6 1,5 1,5 2,6 1,5 2,5 1,5 1,5 2,5 1,5 1,4 2,4 1,3 1,3 2,3 1,2 1,1 2,1 h 1 l 1,-2 2,-2 1,-2 2,-4 1,-4 1,-5 2,-5 1,-6 1,-5 2,-7 1,-6 1,-6 2,-6 1,-7 1,-5 2,-6 1,-5 1,-5 2,-3 1,-3 2,-2 1,-1 1,-1 2,1 1,1 1,3"
           stroke="#e97132"
           stroke-width="2"
           stroke-linecap="round"
           stroke-linejoin="round"
           stroke-miterlimit="10"
           fill="none"
           id="path11" />
      </g>
      <g
         id="g13">
        <path
           d="m 375,378 h 2 1 1 2 1 1 2 1 2 1 1 2 1 l 1,-1 h 2 1 l 1,-1 h 2 l 1,-1 1,-1 2,-2 1,-2 1,-3 2,-3 1,-4 2,-4 1,-5 1,-6 2,-6 1,-6 1,-7 2,-7 1,-7 1,-7 2,-7 1,-6 1,-7 2,-6 1,-6 1,-6 2,-5 1,-6 2,-6 1,-6 1,-5 2,-6 1,-6 1,-5 2,-5 1,-5 1,-5 2,-5 1,-4 1,-4 2,-4 1,-3 2,-3 1,-3 1,-2 2,-1 1,-1 1,-1 h 2 1 1 l 2,1 1,1 h 1 l 2,1 h 1 l 1,1 2,-1 h 1 l 2,-2 1,-1 1,-3 2,-2 1,-4 1,-4 2,-4 1,-5 1,-5 2,-5 1,-6 1,-5 2,-6 1,-6 1,-5 2,-6 1,-6 2,-5 1,-5 1,-5 2,-4 1,-3 1,-3 2,-1 1,-2 h 1 l 2,1 1,1 1,2 2,3 1,3 1,3 2,5 1,4 2,4 1,5 1,5 2,5 1,4 1,5 2,5 1,4 1,4 2,4 1,3 1,3 2,3 1,2 2,1 h 1 1 l 2,-2 1,-2 1,-2 2,-4 1,-4 1,-4 2,-5 1,-6 1,-5 2,-6 1,-6 1,-6 2,-6 1,-5 2,-6 1,-5 1,-4 2,-4 1,-3 1,-2 2,-2 1,-1 h 1 l 2,1 1,1 1,3 2,3 1,3 1,4 2,4 1,5 2,5 1,4 1,5 2,5 1,5 1,5 2,5 1,4 1,5 2,4 1,4 1,3 2,3 1,3 1,2 2,2 1,1 h 2 1 l 1,-1 2,-3 1,-2 1,-4 2,-4 1,-4 1,-5 2,-5 1,-6 1,-5 2,-6 1,-5 2,-6 1,-5 1,-6 2,-4 1,-5 1,-4 2,-3 1,-2 1,-2 2,-1 h 1 l 1,1 2,1 1,2 1,3 2,3 1,4 2,4 1,5 1,4 2,5 1,5 1,5 2,5 1,5 1,4 2,5 1,4 1,4 2,4 1,4 1,3 2,3 1,2 2,2 1,1 h 1 2 l 1,-2 1,-2 2,-2 1,-4 1,-4 2,-4 1,-5 1,-5 2,-6 1,-5 1,-6 2,-5 1,-6 2,-5 1,-6 1,-4 2,-5 1,-4 1,-3 2,-2 1,-2 1,-1 h 2 1 l 1,2 2,2 1,3 2,3 1,4 1,4 2,5 1,4 1,5 2,5 1,5 1,5 2,5 1,4 1,5 2,4 1,4 1,4 2,4 1,3 2,3 1,2 1,2 2,1 h 1 1 l 2,-2 1,-2 1,-2 2,-4 1,-4 1,-4 2,-5 1,-5 1,-6 2,-5 1,-6 2,-5 1,-6 1,-5 2,-6 1,-4 1,-5 2,-4 1,-3 1,-2 2,-2 1,-1 h 1 2 l 1,2 2,2 1,3 1,3 2,4 1,4 1,5 2,4 1,5 1,5 2,5 1,5 1,5 2,4 1,5 1,4 2,4 1,4 2,4 1,3 1,3 2,2 1,2 1,1 h 2 1 l 1,-2 2,-2 1,-2 1,-4 2,-4 1,-4 1,-5 2,-5 1,-6 2,-5 1,-6 1,-5 2,-6 1,-5 1,-6 2,-4 1,-5 1,-4 2,-3 1,-2 1,-2 2,-1 h 1 1 l 2,2 1,2 2,3 1,3 1,4 2,4 1,5 1,4 2,5 1,5 1,5 2,5 1,5 1,4 2,5 1,4 2,4 1,4 1,4 2,3 1,3 1,2 2,2 1,1 h 1 2 l 1,-2 1,-2 2,-2 1,-4 1,-4 2,-4 1,-5 2,-5 1,-6 1,-5 2,-6 1,-5 1,-6 2,-5 1,-6 1,-4 2,-5 1,-4 1,-3 2,-2 1,-2 1,-1 h 2 1 l 2,2 1,2 1,3 2,3 1,4 1,4 2,5 1,4 1,5 2,5 1,5 1,5 2,5 1,4 1,5 2,4 1,4 2,4 1,4 1,3 2,3 1,2 1,2 2,1 h 1 1 l 2,-2 1,-2 1,-2 2,-4 1,-4 2,-4 1,-5 1,-5 2,-6 1,-5 1,-6 2,-5 1,-6 1,-5 2,-6 1,-4 1,-5 2,-4 1,-3 1,-2 2,-2 1,-1 h 2 1 l 1,2 2,2 1,3 1,3 2,4 1,4 1,5 2,4 1,5 1,5 2,5 1,5 1,5 2,4 1,5 2,4 1,4 1,4 2,4 1,3 1,3 2,2 1,2 1,1 h 2 1 l 1,-2 2,-2 1,-2 1,-4 2,-4 1,-4 2,-5 1,-5 1,-6 2,-5 1,-6 1,-5 2,-6 1,-5 1,-6 2,-4 1,-5 1,-4 2,-3 1,-2 2,-2 1,-1 h 1 2 l 1,2 1,2 2,3 1,3 1,4 2,4 1,5 1,4 2,5 1,5 1,5 2,5 1,5 2,4 1,5 1,4 2,4 1,4 1,4 2,3 1,3 1,2 2,2 1,1 h 1 2 l 1,-2 1,-2 2,-2 1,-4 2,-4 1,-4 1,-5 2,-5 1,-6 1,-5 2,-6 1,-5 1,-6 2,-5 1,-6 1,-4 2,-5 1,-4 1,-3 2,-2 1,-2 2,-1 h 1 1 l 2,2 1,2 1,3 2,3 1,4 1,4 2,5 1,4 1,5 2,5 1,5 2,5 1,5 1,4 2,5 1,4 1,4 2,4 1,4 1,3 2,3 1,2 1,2 2,1 h 1 1 l 2,-2 1,-2 2,-2 1,-4 1,-4 2,-4 1,-5 1,-5 2,-6 1,-5 1,-6 2,-5 1,-6 1,-5 2,-6 1,-4 1,-5 2,-4 1,-3 2,-2 1,-2 1,-1 h 2 1 l 1,2"
           stroke="#196b24"
           stroke-width="2"
           stroke-linecap="round"
           stroke-linejoin="round"
           stroke-miterlimit="10"
           fill="none"
           id="path12" />
      </g>
      <g
         id="g14">
        <path
           d="m 375,378 h 2 1 1 2 1 1 2 1 2 1 1 2 1 l 1,-1 h 2 1 l 1,-1 h 2 l 1,-1 1,-1 2,-2 1,-2 1,-3 2,-3 1,-4 2,-4 1,-5 1,-6 2,-6 1,-6 1,-7 2,-7 1,-7 1,-7 2,-7 1,-6 1,-7 2,-6 1,-6 1,-6 2,-5 1,-6 2,-6 1,-6 1,-6 2,-5 1,-6 1,-5 2,-5 1,-5 1,-5 2,-5 1,-4 1,-4 2,-4 1,-3 2,-3 1,-3 1,-2 2,-1 1,-1 1,-1 h 2 1 1 l 2,1 1,1 h 1 l 2,1 h 1 1 2 1 l 2,-2 1,-1 1,-3 2,-3 1,-3 1,-4 2,-4 1,-5 1,-5 2,-5 1,-6 1,-5 2,-6 1,-6 1,-6 2,-5 1,-6 2,-5 1,-5 1,-5 2,-4 1,-3 1,-3 2,-2 1,-1 h 1 l 2,1 1,1 1,2 2,2 1,4 1,3 2,4 1,5 2,4 1,5 1,5 2,5 1,4 1,5 2,4 1,5 1,4 2,4 1,3 1,3 2,3 1,1 2,2 h 1 l 1,-1 2,-1 1,-2 1,-3 2,-3 1,-4 1,-5 2,-5 1,-5 1,-6 2,-6 1,-5 1,-6 2,-6 1,-6 2,-5 1,-5 1,-4 2,-4 1,-3 1,-3 2,-1 1,-1 h 1 l 2,1 1,1 1,3 2,2 1,4 1,4 2,4 1,5 2,5 1,4 1,5 2,5 1,5 1,5 2,5 1,4 1,4 2,5 1,4 1,3 2,3 1,3 1,2 2,2 1,1 h 2 1 l 1,-2 2,-2 1,-3 1,-3 2,-4 1,-4 1,-5 2,-6 1,-5 1,-6 2,-5 1,-6 2,-5 1,-6 1,-5 2,-5 1,-4 1,-4 2,-3 1,-2 1,-2 2,-1 h 1 1 l 2,2 1,2 1,3 2,3 1,4 2,4 1,5 1,4 2,5 1,5 1,5 2,5 1,5 1,4 2,5 1,4 1,4 2,4 1,4 1,3 2,3 1,2 2,2 1,1 h 1 2 l 1,-2 1,-2 2,-3 1,-3 1,-4 2,-4 1,-5 1,-5 2,-6 1,-5 1,-6 2,-6 1,-5 2,-6 1,-5 1,-5 2,-4 1,-4 1,-3 2,-3 1,-1 1,-1 h 2 1 l 1,2 2,2 1,3 2,3 1,4 1,4 2,5 1,4 1,5 2,5 1,5 1,5 2,5 1,4 1,5 2,4 1,4 1,4 2,4 1,3 2,3 1,2 1,2 2,1 h 1 1 l 2,-2 1,-2 1,-2 2,-4 1,-4 1,-4 2,-5 1,-5 1,-6 2,-5 1,-6 2,-6 1,-5 1,-6 2,-5 1,-5 1,-4 2,-4 1,-3 1,-3 2,-1 1,-1 h 1 2 l 1,2 2,2 1,3 1,3 2,4 1,4 1,5 2,4 1,5 1,5 2,5 1,5 1,5 2,4 1,5 1,4 2,4 1,4 2,4 1,3 1,3 2,2 1,2 1,1 h 2 1 l 1,-2 2,-2 1,-2 1,-4 2,-4 1,-4 1,-5 2,-5 1,-6 2,-5 1,-6 1,-6 2,-5 1,-6 1,-5 2,-5 1,-4 1,-4 2,-3 1,-3 1,-1 2,-1 h 1 1 l 2,2 1,2 2,3 1,3 1,4 2,4 1,5 1,4 2,5 1,5 1,5 2,5 1,5 1,4 2,5 1,4 2,4 1,4 1,4 2,3 1,3 1,2 2,2 1,1 h 1 2 l 1,-2 1,-2 2,-2 1,-4 1,-4 2,-4 1,-5 2,-5 1,-6 1,-5 2,-6 1,-6 1,-5 2,-6 1,-5 1,-5 2,-4 1,-4 1,-3 2,-3 1,-1 1,-1 h 2 1 l 2,2 1,2 1,3 2,3 1,4 1,4 2,5 1,4 1,5 2,5 1,5 1,5 2,5 1,4 1,5 2,4 1,4 2,4 1,4 1,3 2,3 1,2 1,2 2,1 h 1 1 l 2,-2 1,-2 1,-2 2,-4 1,-4 2,-4 1,-5 1,-5 2,-6 1,-5 1,-6 2,-6 1,-5 1,-6 2,-5 1,-5 1,-4 2,-4 1,-3 1,-3 2,-1 1,-1 h 2 1 l 1,2 2,2 1,3 1,3 2,4 1,4 1,5 2,4 1,5 1,5 2,5 1,5 1,5 2,4 1,5 2,4 1,4 1,4 2,4 1,3 1,3 2,2 1,2 1,1 h 2 1 l 1,-2 2,-2 1,-2 1,-4 2,-4 1,-4 2,-5 1,-5 1,-6 2,-5 1,-6 1,-6 2,-5 1,-6 1,-5 2,-5 1,-4 1,-4 2,-3 1,-3 2,-1 1,-1 h 1 2 l 1,2 1,2 2,3 1,3 1,4 2,4 1,5 1,4 2,5 1,5 1,5 2,5 1,5 2,4 1,5 1,4 2,4 1,4 1,4 2,3 1,3 1,2 2,2 1,1 h 1 2 l 1,-2 1,-2 2,-2 1,-4 2,-4 1,-4 1,-5 2,-5 1,-6 1,-5 2,-6 1,-6 1,-5 2,-6 1,-5 1,-5 2,-4 1,-4 1,-3 2,-3 1,-1 2,-1 h 1 1 l 2,2 1,2 1,3 2,3 1,4 1,4 2,5 1,4 1,5 2,5 1,5 2,5 1,5 1,4 2,5 1,4 1,4 2,4 1,4 1,3 2,3 1,2 1,2 2,1 h 1 1 l 2,-2 1,-2 2,-2 1,-4 1,-4 2,-4 1,-5 1,-5 2,-6 1,-5 1,-6 2,-6 1,-5 1,-6 2,-5 1,-5 1,-4 2,-4 1,-3 2,-3 1,-1 1,-1 h 2 1 l 1,2"
           stroke="#d86ecc"
           stroke-width="2"
           stroke-linecap="round"
           stroke-linejoin="round"
           stroke-miterlimit="10"
           fill="none"
           id="path13" />
      </g>
      <g
         id="g15">
        <text
           font-family="Arial, Arial_MSFontService, sans-serif"
           font-weight="400"
           font-size="12px"
           transform="translate(341.667,382)"
           id="text14">0.00</text>
      </g>
      <g
         id="g16">
        <text
           font-family="Arial, Arial_MSFontService, sans-serif"
           font-weight="400"
           font-size="12px"
           transform="translate(341.667,309)"
           id="text15">0.05</text>
      </g>
      <g
         id="g17">
        <text
           font-family="Arial, Arial_MSFontService, sans-serif"
           font-weight="400"
           font-size="12px"
           transform="translate(341.667,236)"
           id="text16">0.10</text>
      </g>
      <g
         id="g18">
        <text
           font-family="Arial, Arial_MSFontService, sans-serif"
           font-weight="400"
           font-size="12px"
           transform="translate(341.667,164)"
           id="text17">0.15</text>
      </g>
      <g
         id="g19">
        <text
           font-family="Arial, Arial_MSFontService, sans-serif"
           font-weight="400"
           font-size="12px"
           transform="translate(341.667,91)"
           id="text18">0.20</text>
      </g>
      <g
         id="g20">
        <text
           font-family="Arial, Arial_MSFontService, sans-serif"
           font-weight="400"
           font-size="12px"
           transform="translate(341.667,19)"
           id="text19">0.25</text>
      </g>
      <g
         id="g21">
        <text
           font-family="Arial, Arial_MSFontService, sans-serif"
           font-weight="400"
           font-size="12px"
           transform="translate(372.003,396)"
           id="text20">0</text>
      </g>
      <g
         id="g22">
        <text
           font-family="Arial, Arial_MSFontService, sans-serif"
           font-weight="400"
           font-size="12px"
           transform="translate(504.053,396)"
           id="text21">10</text>
      </g>
      <g
         id="g23">
        <text
           font-family="Arial, Arial_MSFontService, sans-serif"
           font-weight="400"
           font-size="12px"
           transform="translate(639.44,396)"
           id="text22">20</text>
      </g>
      <g
         id="g24">
        <text
           font-family="Arial, Arial_MSFontService, sans-serif"
           font-weight="400"
           font-size="12px"
           transform="translate(774.827,396)"
           id="text23">30</text>
      </g>
      <g
         id="g25">
        <text
           font-family="Arial, Arial_MSFontService, sans-serif"
           font-weight="400"
           font-size="12px"
           transform="translate(910.213,396)"
           id="text24">40</text>
      </g>
      <g
         id="g26">
        <text
           font-family="Arial, Arial_MSFontService, sans-serif"
           font-weight="400"
           font-size="12px"
           transform="translate(1045.6,396)"
           id="text25">50</text>
      </g>
      <g
         id="g27">
        <text
           font-family="Arial, Arial_MSFontService, sans-serif"
           font-weight="400"
           font-size="12px"
           transform="translate(1180.99,396)"
           id="text26">60</text>
      </g>
      <g
         id="g28">
        <rect
           x="961.5"
           y="251.5"
           width="186"
           height="103"
           stroke="#000000"
           stroke-linejoin="round"
           stroke-miterlimit="10"
           fill="#ffffff"
           id="rect27" />
      </g>
      <g
         id="g29">
        <path
           d="m 970,262 h 33"
           stroke="#000000"
           stroke-width="2"
           stroke-linecap="round"
           stroke-linejoin="round"
           stroke-miterlimit="10"
           stroke-dasharray="4, 4"
           fill="none"
           fill-rule="evenodd"
           id="path28" />
      </g>
      <g
         id="g30">
        <text
           font-family="Arial, Arial_MSFontService, sans-serif"
           font-weight="400"
           font-size="12px"
           transform="translate(1007.14,266)"
           id="text29">Gerbeau, Vidrascu (2003)</text>
      </g>
      <g
         id="g31">
        <path
           d="m 970,283 h 33"
           stroke="#156082"
           stroke-width="2"
           stroke-linecap="round"
           stroke-linejoin="round"
           stroke-miterlimit="10"
           fill="none"
           fill-rule="evenodd"
           id="path30" />
      </g>
      <g
         id="g32">
        <text
           font-family="Arial, Arial_MSFontService, sans-serif"
           font-weight="400"
           font-size="12px"
           transform="translate(1007.14,286)"
           id="text31"
           style="-inkscape-font-specification:'Arial, Arial_MSFontService, sans-serif, Normal';font-family:Arial, Arial_MSFontService, sans-serif;font-weight:normal;font-style:normal;font-stretch:normal;font-variant:normal;font-size:12px;font-variant-ligatures:normal;font-variant-caps:normal;font-variant-numeric:normal;font-variant-east-asian:normal"><tspan
             sodipodi:role="line"
             id="tspan1">SUPG/PSPG</tspan></text>
      </g>
      <g
         id="g33">
        <path
           d="m 970,303 h 33"
           stroke="#e97132"
           stroke-width="2"
           stroke-linecap="round"
           stroke-linejoin="round"
           stroke-miterlimit="10"
           fill="none"
           fill-rule="evenodd"
           id="path32" />
      </g>
      <g
         id="g34">
        <text
           font-family="Arial, Arial_MSFontService, sans-serif"
           font-weight="400"
           font-size="12px"
           transform="translate(1007.14,307)"
           id="text33">LES</text>
      </g>
      <g
         id="g35">
        <path
           d="m 970,323 h 33"
           stroke="#196b24"
           stroke-width="2"
           stroke-linecap="round"
           stroke-linejoin="round"
           stroke-miterlimit="10"
           fill="none"
           fill-rule="evenodd"
           id="path34" />
      </g>
      <g
         id="g36">
        <text
           font-family="Arial, Arial_MSFontService, sans-serif"
           font-weight="400"
           font-size="12px"
           transform="translate(1007.14,327)"
           id="text35">VMS</text>
      </g>
      <g
         id="g37">
        <path
           d="m 970,344 h 33"
           stroke="#d86ecc"
           stroke-width="2"
           stroke-linecap="round"
           stroke-linejoin="round"
           stroke-miterlimit="10"
           fill="none"
           fill-rule="evenodd"
           id="path36" />
      </g>
      <g
         id="g38">
        <text
           font-family="Arial, Arial_MSFontService, sans-serif"
           font-weight="400"
           font-size="12px"
           transform="translate(1007.14,348)"
           id="text37">LES-VMS</text>
      </g>
    </g>
  </g>
</svg>
