<?xml version="1.0" encoding="UTF-8" standalone="no"?>
<!-- Created with Inkscape (http://www.inkscape.org/) -->

<svg
   width="189.17708mm"
   height="91.28125mm"
   viewBox="0 0 189.17708 91.281247"
   version="1.1"
   id="svg5"
   inkscape:version="1.2.1 (9c6d41e410, 2022-07-14)"
   sodipodi:docname="resultados.svg"
   xmlns:inkscape="http://www.inkscape.org/namespaces/inkscape"
   xmlns:sodipodi="http://sodipodi.sourceforge.net/DTD/sodipodi-0.dtd"
   xmlns="http://www.w3.org/2000/svg"
   xmlns:svg="http://www.w3.org/2000/svg">
  <sodipodi:namedview
     id="namedview7"
     pagecolor="#ffffff"
     bordercolor="#000000"
     borderopacity="0.25"
     inkscape:showpageshadow="2"
     inkscape:pageopacity="0.0"
     inkscape:pagecheckerboard="0"
     inkscape:deskcolor="#d1d1d1"
     inkscape:document-units="mm"
     showgrid="false"
     inkscape:lockguides="true"
     inkscape:zoom="0.74564395"
     inkscape:cx="441.22936"
     inkscape:cy="-38.892557"
     inkscape:window-width="1920"
     inkscape:window-height="1017"
     inkscape:window-x="1912"
     inkscape:window-y="-8"
     inkscape:window-maximized="1"
     inkscape:current-layer="layer1" />
  <defs
     id="defs2">
    <clipPath
       id="clip0">
      <rect
         x="696"
         y="1"
         width="715"
         height="416"
         id="rect132" />
    </clipPath>
    <clipPath
       id="clip1">
      <rect
         x="769"
         y="15"
         width="620"
         height="344"
         id="rect135" />
    </clipPath>
    <clipPath
       id="clip2">
      <rect
         x="769"
         y="15"
         width="620"
         height="344"
         id="rect138" />
    </clipPath>
    <clipPath
       id="clip0-6">
      <rect
         x="637"
         y="449"
         width="715"
         height="355"
         id="rect357" />
    </clipPath>
    <clipPath
       id="clip1-1">
      <rect
         x="710"
         y="463"
         width="620"
         height="283"
         id="rect360" />
    </clipPath>
    <clipPath
       id="clip0-9">
      <rect
         x="696"
         y="1"
         width="715"
         height="345"
         id="rect17689" />
    </clipPath>
    <clipPath
       id="clip1-9">
      <rect
         x="769"
         y="15"
         width="620"
         height="273"
         id="rect17692" />
    </clipPath>
  </defs>
  <g
     inkscape:label="Camada 1"
     inkscape:groupmode="layer"
     id="layer1"
     transform="translate(149.28175,-192.83023)">
    <g
       clip-path="url(#clip0-9)"
       transform="matrix(0.26458333,0,0,0.26458333,-333.43175,192.56565)"
       id="g17815">
      <rect
         x="696"
         y="1"
         width="715"
         height="345"
         fill="#ffffff"
         id="rect17697" />
      <g
         id="g17701">
        <path
           d="M 872.5,15.5001 V 287.5 M 975.5,15.5001 V 287.5 m 104,-271.9999 V 287.5 m 103,-271.9999 V 287.5 m 103,-271.9999 V 287.5 m 103,-271.9999 V 287.5"
           stroke="#d9d9d9"
           stroke-width="0.982677"
           stroke-linejoin="round"
           stroke-miterlimit="10"
           fill="none"
           id="path17699" />
      </g>
      <g
         id="g17705">
        <path
           d="m 769.5,232.5 h 619 m -619,-54 h 619 m -619,-54 h 619 m -619,-54.9999 h 619 m -619,-54 h 619"
           stroke="#d9d9d9"
           stroke-width="0.982677"
           stroke-linejoin="round"
           stroke-miterlimit="10"
           fill="none"
           id="path17703" />
      </g>
      <g
         id="g17709">
        <rect
           x="769.5"
           y="15.5001"
           width="619"
           height="272"
           stroke="#000000"
           stroke-linejoin="round"
           stroke-miterlimit="10"
           fill="none"
           id="rect17707" />
      </g>
      <g
         id="g17713">
        <path
           d="m 769.5,287.5 h 619"
           stroke="#000000"
           stroke-width="0.982677"
           stroke-linejoin="round"
           stroke-miterlimit="10"
           fill="none"
           fill-rule="evenodd"
           id="path17711" />
      </g>
      <g
         id="g17717">
        <path
           d="m 769.5,284.5 v 3 m 21,-3 v 3 m 20,-3 v 3 m 21,-3 v 3 m 21,-3 v 3 m 20,-3 v 3 m 21,-3 v 3 m 20,-3 v 3 m 21,-3 v 3 m 21,-3 v 3 m 20,-3 v 3 m 21,-3 v 3 m 21,-3 v 3 m 20,-3 v 3 m 21,-3 v 3 m 21,-3 v 3 m 20,-3 v 3 m 21,-3 v 3 m 21,-3 v 3 m 20,-3 v 3 m 21,-3 v 3 m 20,-3 v 3 m 21,-3 v 3 m 21,-3 v 3 m 20,-3 v 3 m 21,-3 v 3 m 21,-3 v 3 m 20,-3 v 3 m 21,-3 v 3 m 21,-3 v 3 m 20,-3 v 3 m -619,-4 v 8 m 103,-8 v 8 m 103,-8 v 8 m 104,-8 v 8 m 103,-8 v 8 m 103,-8 v 8 m 103,-8 v 8"
           stroke="#000000"
           stroke-width="0.982677"
           stroke-linejoin="round"
           stroke-miterlimit="10"
           fill="none"
           id="path17715" />
      </g>
      <g
         id="g17721">
        <path
           d="M 0,0 1.04987e-4,272"
           stroke="#000000"
           stroke-width="0.982677"
           stroke-linejoin="round"
           stroke-miterlimit="10"
           fill="none"
           fill-rule="evenodd"
           transform="matrix(1,0,0,-1,769.5,287.5)"
           id="path17719" />
      </g>
      <g
         id="g17725">
        <path
           d="m 769.5,287.5 h 3 m -3,-11 h 3 m -3,-11 h 3 m -3,-11 h 3 m -3,-11 h 3 m -3,-11 h 3 m -3,-11 h 3 m -3,-10 h 3 m -3,-11 h 3 m -3,-11 h 3 m -3,-11 h 3 m -3,-11 h 3 m -3,-11 h 3 m -3,-11 h 3 m -3,-10 h 3 m -3,-11 h 3 m -3,-11 h 3 m -3,-11 h 3 m -3,-10.9999 h 3 m -3,-11 h 3 m -3,-11 h 3 m -3,-10 h 3 m -3,-11 h 3 m -3,-11 h 3 m -3,-11 h 3 m -3,-11 h 3 m -7,271.9999 h 8 m -8,-55 h 8 m -8,-54 h 8 m -8,-54 h 8 m -8,-54.9999 h 8 m -8,-54 h 8"
           stroke="#000000"
           stroke-width="0.982677"
           stroke-linejoin="round"
           stroke-miterlimit="10"
           fill="none"
           id="path17723" />
      </g>
      <g
         clip-path="url(#clip1-9)"
         id="g17729">
        <path
           d="m 769,287 h 6 6 l 5,-2 4,-3 4,-6 1,-4 4,-14 6,-31 4,-18 3,-18 3,-12 3,-13 3,-12 4,-15 3,-11 2,-7 1,-4 3,-1 2,2 2,5 2,5 2,5 2,2 2,2 4,-2 1,-5 4,-8 2,-15 3,-12 2,-10 2,-9 2,-6 2,-10 1,-2 3,-1 2,2 2,3 2,7 2,9 3,11 2,13 3,10 2,7 2,4 2,3 1,2 3,-3 3,-6 2,-10 4,-14 3,-17 3,-12 2,-6 2,-5 1,-2 1,-1 2,1 3,7 2,4 3,10 1,5 1,5 2,6 1,6 3,5 2,8 2,4 4,4 1,2 4,-2 2,-5 2,-6 2,-6 2,-8 3,-9 1,-6 2,-5 2,-5 1,-7 4,-3 4,1 4,9 1,7 4,9 4,16 4,10 3,5 2,4 3,1 3,-3 2,-6 3,-8 2,-8 3,-9 2,-12 3,-10 2,-3 2,-3 2,-2 3,3 3,8 1,4 3,10 2,8 3,9 3,10 3,7 4,5 4,-2 3,-5 2,-7 3,-10 3,-10 2,-11 3,-8 3,-8 3,-3 5,7 3,8 2,6 2,7 2,9 2,9 5,8 2,7 2,2 2,2 3,-3 3,-4 2,-8 3,-13 3,-8 2,-10 3,-7 2,-6 2,-3 2,-3 4,5 2,5 2,7 3,10 4,13 4,13 3,7 2,3 2,1 3,-2 4,-5 3,-10 2,-9 2,-7 2,-9 3,-8 2,-7 2,-4 3,-2 4,6 2,3 3,9 2,7 2,10 3,10 4,7 1,6 3,4 3,2 3,-3 3,-8 4,-13 2,-10 3,-10 3,-11 2,-4 3,-4 2,-2 4,3 1,6 3,9 3,7 v 7 l 4,9 2,9 2,7 3,4 4,4 3,-2 2,-5 3,-6 2,-10 3,-10 2,-10 3,-8 1,-5 3,-6 3,-2 3,3 4,6 2,8 2,11 3,8 2,8 3,7 1,8 4,4 h 4 l 3,-3 3,-9 3,-10 4,-13 2,-9 2,-10 5,-8 1,-2 3,4 4,5 3,12 4,16 3,10 3,7 4,7 3,3 6,-3 2,-9 3,-12 4,-11 2,-10 2,-7 3,-8 4,-4 3,6 4,9 3,14"
           stroke="#000000"
           stroke-width="2"
           stroke-linecap="round"
           stroke-linejoin="round"
           stroke-miterlimit="10"
           stroke-dasharray="4.02, 3.98"
           fill="none"
           id="path17727" />
      </g>
      <g
         id="g17733">
        <path
           d="m 769,287 h 1 1 2 1 1 1 1 1 1 1 1 1 1 1 l 1,-1 h 1 1 l 1,-1 1,-1 1,-1 1,-2 1,-2 1,-2 1,-3 1,-3 1,-3 1,-4 1,-4 1,-5 1,-5 1,-5 1,-5 1,-5 2,-6 1,-5 1,-5 1,-6 1,-5 1,-5 1,-5 1,-5 1,-4 1,-5 1,-4 1,-4 1,-4 1,-4 1,-4 1,-4 1,-4 1,-3 1,-3 1,-4 1,-4 1,-3 1,-4 1,-4 1,-4 1,-3 1,-2 1,-2 h 1 1 l 1,2 2,2 1,2 1,3 1,2 1,3 1,2 1,2 1,2 1,1 1,1 h 1 l 1,-1 1,-1 1,-2 1,-3 1,-3 1,-4 1,-4 1,-5 1,-5 1,-6 1,-5 1,-6 1,-5 1,-6 1,-5 1,-6 1,-5 1,-4 1,-5 1,-3 2,-4 1,-2 1,-1 1,-1 1,1 1,2 1,2 1,4 1,4 1,4 1,5 1,5 1,5 1,5 1,5 1,6 1,5 1,6 1,5 1,5 1,4 1,4 1,3 1,2 1,2 h 1 1 l 1,-1 1,-3 1,-3 1,-3 2,-5 1,-4 1,-6 1,-5 1,-6 1,-7 1,-6 1,-6 1,-6 1,-5 1,-6 1,-4 1,-4 1,-4 1,-3 1,-2 1,-2 h 1 1 l 1,1 1,2 1,2 1,3 1,4 1,5 1,5 1,5 1,5 1,5 1,5 1,5 2,4 1,4 1,4 1,3 1,3 1,3 1,2 1,2 1,2 1,1 1,1 h 1 1 1 l 1,-1 1,-1 1,-1 1,-3 1,-2 1,-3 1,-4 1,-4 1,-4 1,-4 1,-5 1,-4 1,-4 1,-5 1,-4 1,-3 1,-4 2,-3 1,-3 1,-3 1,-2 1,-2 1,-1 h 1 1 l 1,1 1,1 1,3 1,2 1,4 1,3 1,4 1,4 1,4 1,5 1,4 1,4 1,4 1,3 1,4 1,3 1,4 1,2 1,3 1,3 1,2 1,2 1,1 2,1 1,1 1,-1 h 1 l 1,-1 1,-2 1,-3 1,-3 1,-3 1,-4 1,-4 1,-5 1,-4 1,-5 1,-5 1,-5 1,-4 1,-5 1,-4 1,-4 1,-3 1,-3 1,-3 1,-2 1,-1 1,-1 h 1 l 1,1 1,2 1,2 1,3 2,4 1,4 1,4 1,5 1,4 1,5 1,5 1,4 1,4 1,4 1,4 1,4 1,3 1,3 1,3 1,2 1,2 1,2 1,1 1,1 h 1 1 l 1,-1 1,-2 1,-2 1,-3 1,-3 1,-4 1,-4 1,-4 1,-5 1,-5 2,-5 1,-4 1,-5 1,-5 1,-4 1,-4 1,-3 1,-4 1,-3 1,-2 1,-2 1,-1 1,-1 1,1 1,1 1,1 1,3 1,3 1,4 1,4 1,4 1,4 1,5 1,4 1,5 1,4 1,4 1,4 1,4 1,3 1,3 2,3 1,3 1,2 1,2 1,2 1,1 1,1 h 1 1 l 1,-1 1,-2 1,-2 1,-2 1,-3 1,-4 1,-4 1,-4 1,-5 1,-5 1,-4 1,-5 1,-5 1,-4 1,-4 1,-4 1,-4 1,-4 1,-2 1,-3 1,-2 1,-1 2,-1 1,1 h 1 l 1,2 1,3 1,3 1,3 1,4 1,4 1,5 1,4 1,5 1,4 1,5 1,4 1,4 1,4 1,3 1,3 1,3 1,3 1,2 1,2 1,2 1,1 1,1 h 1 1 l 1,-1 1,-1 1,-2 2,-3 1,-3 1,-4 1,-4 1,-4 1,-5 1,-5 1,-4 1,-5 1,-5 1,-4 1,-5 1,-4 1,-3 1,-4 1,-3 1,-2 1,-2 1,-1 1,-1 h 1 l 1,1 1,2 1,3 1,3 1,3 1,4 1,4 1,5 1,4 1,5 2,4 1,5 1,4 1,4 1,4 1,3 1,3 1,3 1,3 1,2 1,2 1,2 1,1 1,1 h 1 1 l 1,-1 1,-1 1,-2 1,-3 1,-3 1,-4 1,-4 1,-4 1,-5 1,-5 1,-4 1,-5 1,-5 1,-4 1,-5 2,-4 1,-3 1,-4 1,-3 1,-2 1,-2 1,-1 1,-1 1,1 1,1 1,1 1,3 1,3 1,3 1,4 1,5 1,4 1,4 1,5 1,4 1,5 1,4 1,4 1,4 1,3 1,3 1,3 1,3 1,2 1,2 1,2 2,1 1,1 h 1 1 l 1,-1 1,-1 1,-2 1,-3 1,-3 1,-4 1,-4 1,-4 1,-5 1,-5 1,-4 1,-5 1,-5 1,-4 1,-5 1,-4 1,-3 1,-4 1,-3 1,-2 1,-2 1,-1 1,-1 h 1 l 1,1 1,2 1,3 2,3 1,3 1,4 1,4 1,5 1,4 1,5 1,4 1,5 1,4 1,4 1,4 1,3 1,3 1,3 1,3 1,2 1,2 1,2 1,1 1,1 h 1 1 l 1,-1 1,-1 1,-2 1,-3 1,-3 1,-4 1,-4 1,-4 1,-5 2,-5 1,-4 1,-5 1,-5 1,-4 1,-5 1,-4 1,-3 1,-4 1,-3 1,-2 1,-2 1,-1 1,-1 h 1 l 1,1 1,2 1,3 1,3 1,3 1,4 1,4 1,5 1,4 1,5 1,4 1,5 1,4 1,4 1,4 1,3 2,3 1,3 1,3 1,2 1,2 1,2 1,1 1,1 h 1 1 l 1,-1 1,-1 1,-2 1,-3 1,-3 1,-4 1,-4 1,-4 1,-5 1,-5 1,-4 1,-5 1,-5 1,-4 1,-5 1,-4 1,-3 1,-4 1,-3 1,-2 1,-2 2,-1 1,-1 h 1 l 1,1 1,2 1,3"
           stroke="#000000"
           stroke-width="2"
           stroke-linecap="round"
           stroke-linejoin="round"
           stroke-miterlimit="10"
           fill="none"
           id="path17731" />
      </g>
      <g
         id="g17737">
        <text
           font-family="Arial, Arial_MSFontService, sans-serif"
           font-weight="400"
           font-size="13px"
           transform="translate(765.727,307)"
           id="text17735">0</text>
      </g>
      <g
         id="g17741">
        <text
           font-family="Arial, Arial_MSFontService, sans-serif"
           font-weight="400"
           font-size="13px"
           transform="translate(865.234,307)"
           id="text17739">10</text>
      </g>
      <g
         id="g17745">
        <text
           font-family="Arial, Arial_MSFontService, sans-serif"
           font-weight="400"
           font-size="13px"
           transform="translate(968.448,307)"
           id="text17743">20</text>
      </g>
      <g
         id="g17749">
        <text
           font-family="Arial, Arial_MSFontService, sans-serif"
           font-weight="400"
           font-size="13px"
           transform="translate(1071.66,307)"
           id="text17747">30</text>
      </g>
      <g
         id="g17753">
        <text
           font-family="Arial, Arial_MSFontService, sans-serif"
           font-weight="400"
           font-size="13px"
           transform="translate(1174.88,307)"
           id="text17751">40</text>
      </g>
      <g
         id="g17757">
        <text
           font-family="Arial, Arial_MSFontService, sans-serif"
           font-weight="400"
           font-size="13px"
           transform="translate(1278.09,307)"
           id="text17755">50</text>
      </g>
      <g
         id="g17761">
        <text
           font-family="Arial, Arial_MSFontService, sans-serif"
           font-weight="400"
           font-size="13px"
           transform="translate(1381.3,307)"
           id="text17759">60</text>
      </g>
      <g
         id="g17765">
        <text
           font-family="Arial, Arial_MSFontService, sans-serif"
           font-weight="400"
           font-size="13px"
           transform="translate(750.546,291)"
           id="text17763">0</text>
      </g>
      <g
         id="g17769">
        <text
           font-family="Arial, Arial_MSFontService, sans-serif"
           font-weight="400"
           font-size="13px"
           transform="translate(732.013,237)"
           id="text17767">0.05</text>
      </g>
      <g
         id="g17773">
        <text
           font-family="Arial, Arial_MSFontService, sans-serif"
           font-weight="400"
           font-size="13px"
           transform="translate(739.426,183)"
           id="text17771">0.1</text>
      </g>
      <g
         id="g17777">
        <text
           font-family="Arial, Arial_MSFontService, sans-serif"
           font-weight="400"
           font-size="13px"
           transform="translate(732.013,128)"
           id="text17775">0.15</text>
      </g>
      <g
         id="g17781">
        <text
           font-family="Arial, Arial_MSFontService, sans-serif"
           font-weight="400"
           font-size="13px"
           transform="translate(739.426,74)"
           id="text17779">0.2</text>
      </g>
      <g
         id="g17785">
        <text
           font-family="Arial, Arial_MSFontService, sans-serif"
           font-weight="400"
           font-size="13px"
           transform="translate(732.013,20)"
           id="text17783">0.25</text>
      </g>
      <g
         id="g17789">
        <text
           font-family="Arial, Arial_MSFontService, sans-serif"
           font-weight="400"
           font-size="13px"
           transform="translate(1058.33,327)"
           id="text17787">Tempo</text>
      </g>
      <g
         id="g17793">
        <text
           font-family="Arial, Arial_MSFontService, sans-serif"
           font-weight="400"
           font-size="13px"
           transform="rotate(-90,471.3395,-254.3395)"
           id="text17791">Deslocamento vertical</text>
      </g>
      <g
         id="g17797">
        <rect
           x="1187.5"
           y="241.5"
           width="194"
           height="39"
           stroke="#000000"
           stroke-linejoin="round"
           stroke-miterlimit="10"
           fill="#ffffff"
           id="rect17795" />
      </g>
      <g
         id="g17801">
        <path
           d="m 1196,252 h 26"
           stroke="#000000"
           stroke-width="2"
           stroke-linecap="round"
           stroke-linejoin="round"
           stroke-miterlimit="10"
           stroke-dasharray="4.02, 3.98"
           fill="none"
           fill-rule="evenodd"
           id="path17799" />
      </g>
      <g
         id="g17805">
        <text
           font-family="Arial, Arial_MSFontService, sans-serif"
           font-weight="400"
           font-size="13px"
           transform="translate(1224.2,256)"
           id="text17803">Gerbeau, Vidrascu (2003)</text>
      </g>
      <g
         id="g17809">
        <path
           d="m 1196,271 h 26"
           stroke="#000000"
           stroke-width="2"
           stroke-linecap="round"
           stroke-linejoin="round"
           stroke-miterlimit="10"
           fill="none"
           fill-rule="evenodd"
           id="path17807" />
      </g>
      <g
         id="g17813">
        <text
           font-family="Arial, Arial_MSFontService, sans-serif"
           font-weight="400"
           font-size="13px"
           transform="translate(1224.2,275)"
           id="text17811">Autor</text>
      </g>
    </g>
  </g>
</svg>
