<?xml version="1.0" encoding="UTF-8" standalone="no"?>
<!-- Created with Inkscape (http://www.inkscape.org/) -->

<svg
   width="58.571438mm"
   height="44.902mm"
   viewBox="0 0 58.571438 44.902"
   version="1.1"
   id="svg5"
   sodipodi:docname="cavidade.svg"
   inkscape:version="1.2.1 (9c6d41e410, 2022-07-14)"
   xmlns:inkscape="http://www.inkscape.org/namespaces/inkscape"
   xmlns:sodipodi="http://sodipodi.sourceforge.net/DTD/sodipodi-0.dtd"
   xmlns="http://www.w3.org/2000/svg"
   xmlns:svg="http://www.w3.org/2000/svg">
  <sodipodi:namedview
     id="namedview7"
     pagecolor="#ffffff"
     bordercolor="#000000"
     borderopacity="0.25"
     inkscape:showpageshadow="2"
     inkscape:pageopacity="0.0"
     inkscape:pagecheckerboard="0"
     inkscape:deskcolor="#d1d1d1"
     inkscape:document-units="mm"
     showgrid="false"
     inkscape:zoom="2.9825758"
     inkscape:cx="124.38913"
     inkscape:cy="82.479045"
     inkscape:window-width="1920"
     inkscape:window-height="1017"
     inkscape:window-x="1912"
     inkscape:window-y="-8"
     inkscape:window-maximized="1"
     inkscape:current-layer="layer1">
    <inkscape:grid
       type="xygrid"
       id="grid186"
       spacingx="1.3229167"
       spacingy="1.3229167"
       originx="-46.049228"
       originy="-136.33759" />
  </sodipodi:namedview>
  <defs
     id="defs2">
    <marker
       style="overflow:visible"
       id="TriangleStart"
       refX="3"
       refY="0"
       orient="auto-start-reverse"
       inkscape:stockid="TriangleStart"
       markerWidth="7"
       markerHeight="6"
       viewBox="0 0 5.3244081 6.1553851"
       inkscape:isstock="true"
       inkscape:collect="always"
       preserveAspectRatio="none">
      <path
         transform="scale(0.5)"
         style="fill:context-stroke;fill-rule:evenodd;stroke:context-stroke;stroke-width:1pt"
         d="M 5.77,0 -2.88,5 V -5 Z"
         id="path135" />
    </marker>
    <marker
       style="overflow:visible"
       id="marker5970"
       refX="3"
       refY="0"
       orient="80"
       inkscape:stockid="TriangleStart"
       markerWidth="7"
       markerHeight="5"
       viewBox="0 0 5.3244081 6.1553851"
       inkscape:isstock="true"
       inkscape:collect="always"
       preserveAspectRatio="none">
      <path
         transform="scale(0.5)"
         style="fill:context-stroke;fill-rule:evenodd;stroke:context-stroke;stroke-width:1pt"
         d="M 5.77,0 -2.88,5 V -5 Z"
         id="path5968" />
    </marker>
    <clipPath
       id="clipPath5403">
      <path
         clip-rule="nonzero"
         d="m 213,62 h 5 v 5.601563 h -5 z m 0,0"
         id="path691" />
    </clipPath>
    <clipPath
       id="clipPath9650">
      <path
         clip-rule="nonzero"
         d="m 230,12 h 5 v 5.789063 h -5 z m 0,0"
         id="path5154" />
    </clipPath>
    <clipPath
       id="clipPath8320">
      <path
         clip-rule="nonzero"
         d="m 213,12 h 5 v 4.238281 h -5 z m 0,0"
         id="path7832" />
    </clipPath>
    <clipPath
       id="clipPath6267">
      <path
         clip-rule="nonzero"
         d="m 213,12 h 5 v 5.789063 h -5 z m 0,0"
         id="path6916" />
    </clipPath>
    <clipPath
       id="clipPath8320-3">
      <path
         clip-rule="nonzero"
         d="m 213,12 h 5 v 4.238281 h -5 z m 0,0"
         id="path7832-6" />
    </clipPath>
    <clipPath
       id="clipPath6267-0">
      <path
         clip-rule="nonzero"
         d="m 213,12 h 5 v 5.789063 h -5 z m 0,0"
         id="path6916-0" />
    </clipPath>
    <clipPath
       id="clipPath8320-3-1">
      <path
         clip-rule="nonzero"
         d="m 213,12 h 5 v 4.238281 h -5 z m 0,0"
         id="path7832-6-4" />
    </clipPath>
    <clipPath
       id="clipPath6267-0-2">
      <path
         clip-rule="nonzero"
         d="m 213,12 h 5 v 5.789063 h -5 z m 0,0"
         id="path6916-0-2" />
    </clipPath>
    <clipPath
       id="clipPath9570">
      <path
         clip-rule="nonzero"
         d="m 213,12 h 5 v 4.238281 h -5 z m 0,0"
         id="path4610" />
    </clipPath>
    <clipPath
       id="clipPath4865">
      <path
         clip-rule="nonzero"
         d="m 213,12 h 5 v 5.789063 h -5 z m 0,0"
         id="path9685" />
    </clipPath>
    <clipPath
       id="clipPath8320-3-1-1">
      <path
         clip-rule="nonzero"
         d="m 213,12 h 5 v 4.238281 h -5 z m 0,0"
         id="path7832-6-4-8" />
    </clipPath>
    <clipPath
       id="clipPath6267-0-2-5">
      <path
         clip-rule="nonzero"
         d="m 213,12 h 5 v 5.789063 h -5 z m 0,0"
         id="path6916-0-2-7" />
    </clipPath>
    <clipPath
       id="clipPath8320-3-1-7">
      <path
         clip-rule="nonzero"
         d="m 213,12 h 5 v 4.238281 h -5 z m 0,0"
         id="path7832-6-4-7" />
    </clipPath>
    <clipPath
       id="clipPath6267-0-2-4">
      <path
         clip-rule="nonzero"
         d="m 213,12 h 5 v 5.789063 h -5 z m 0,0"
         id="path6916-0-2-5" />
    </clipPath>
    <clipPath
       id="clipPath8320-3-1-7-2">
      <path
         clip-rule="nonzero"
         d="m 213,12 h 5 v 4.238281 h -5 z m 0,0"
         id="path7832-6-4-7-6" />
    </clipPath>
    <clipPath
       id="clipPath6267-0-2-4-2">
      <path
         clip-rule="nonzero"
         d="m 213,12 h 5 v 5.789063 h -5 z m 0,0"
         id="path6916-0-2-5-5" />
    </clipPath>
    <clipPath
       id="clipPath586">
      <path
         clip-rule="nonzero"
         d="m 224,10 h 4 v 6.238281 h -4 z m 0,0"
         id="path6405" />
    </clipPath>
    <clipPath
       id="clipPath6946">
      <path
         clip-rule="nonzero"
         d="m 224,10 h 4 v 6.238281 h -4 z m 0,0"
         id="path2130" />
    </clipPath>
    <clipPath
       id="clipPath6513">
      <path
         clip-rule="nonzero"
         d="m 220,6 h 6 v 8.445313 h -6 z m 0,0"
         id="path5991" />
    </clipPath>
    <clipPath
       id="clipPath3824">
      <path
         clip-rule="nonzero"
         d="m 220,6 h 6 v 8.445313 h -6 z m 0,0"
         id="path7112" />
    </clipPath>
  </defs>
  <g
     inkscape:label="Camada 1"
     inkscape:groupmode="layer"
     id="layer1"
     transform="translate(-46.049227,-136.33759)">
    <path
       style="fill:none;stroke:#000000;stroke-width:0.3;stroke-opacity:1"
       d="M 59.531252,171.97917 H 85.989585 V 145.52083 H 59.531252 Z"
       id="path1630" />
    <g
       id="g3486-7-6"
       transform="translate(-41.010418)">
      <g
         inkscape:label=""
         transform="translate(87.05958,155.36003)"
         id="g2975-6-2">
        <g
           fill="#000000"
           fill-opacity="1"
           id="g26-2-0"
           transform="matrix(0.352778,0,0,0.352778,-72.952,-2.29054)">
          <g
             id="use24-6-7"
             transform="translate(206.465,14.446)">
            <path
               d="M 4.078125,-0.6875 C 4.234375,-0.03125 4.8125,0.125 5.09375,0.125 c 0.375,0 0.671875,-0.25 0.859375,-0.65625 0.203125,-0.4375 0.359375,-1.140625 0.359375,-1.171875 0,-0.0625 -0.046875,-0.109375 -0.125,-0.109375 -0.109375,0 -0.109375,0.0625 -0.15625,0.234375 C 5.8125,-0.75 5.59375,-0.125 5.109375,-0.125 4.75,-0.125 4.75,-0.515625 4.75,-0.671875 4.75,-0.9375 4.796875,-1.0625 4.90625,-1.5625 5,-1.890625 5.078125,-2.21875 5.15625,-2.546875 L 5.640625,-4.5 C 5.71875,-4.796875 5.71875,-4.8125 5.71875,-4.859375 c 0,-0.171875 -0.140625,-0.296875 -0.3125,-0.296875 -0.34375,0 -0.4375,0.296875 -0.5,0.609375 -0.125,0.453125 -0.765625,3.03125 -0.859375,3.453125 0,0 -0.46875,0.96875 -1.34375,0.96875 -0.625,0 -0.75,-0.53125 -0.75,-0.96875 0,-0.6875 0.34375,-1.640625 0.65625,-2.4375 C 2.75,-3.921875 2.8125,-4.078125 2.8125,-4.3125 c 0,-0.515625 -0.375,-0.953125 -0.953125,-0.953125 -1.09375,0 -1.53125,1.734375 -1.53125,1.828125 0,0.046875 0.046875,0.109375 0.125,0.109375 0.109375,0 0.125,-0.046875 0.171875,-0.21875 0.28125,-1.03125 0.75,-1.484375 1.203125,-1.484375 0.125,0 0.3125,0.015625 0.3125,0.390625 0,0.3125 -0.125,0.65625 -0.3125,1.109375 C 1.296875,-2.109375 1.25,-1.65625 1.25,-1.296875 1.25,-0.078125 2.15625,0.125 2.65625,0.125 c 0.765625,0 1.1875,-0.53125 1.421875,-0.8125 z m 0,0"
               id="path46-6-6" />
          </g>
        </g>
        <g
           clip-path="url(#clipPath8320-3-1)"
           id="g32-5-5"
           transform="matrix(0.352778,0,0,0.352778,-72.952,-2.29054)">
          <g
             fill="#000000"
             fill-opacity="1"
             id="g30-2-0">
            <g
               id="use28-5-4"
               transform="translate(213.127,16.239)">
              <path
                 d="M 4,-3.171875 C 3.640625,-3.09375 3.625,-2.78125 3.625,-2.75 c 0,0.171875 0.140625,0.296875 0.3125,0.296875 0.171875,0 0.4375,-0.140625 0.4375,-0.484375 0,-0.453125 -0.5,-0.578125 -0.796875,-0.578125 C 3.21875,-3.515625 2.90625,-3.25 2.71875,-2.9375 2.546875,-3.359375 2.140625,-3.515625 1.8125,-3.515625 c -0.875,0 -1.359375,1 -1.359375,1.21875 0,0.078125 0.0625,0.109375 0.125,0.109375 0.09375,0 0.109375,-0.046875 0.125,-0.140625 0.1875,-0.578125 0.671875,-0.96875 1.078125,-0.96875 0.3125,0 0.46875,0.234375 0.46875,0.515625 C 2.25,-2.625 2.15625,-2.25 2.09375,-2 c -0.0625,0.234375 -0.234375,0.9375 -0.28125,1.09375 -0.109375,0.421875 -0.390625,0.765625 -0.75,0.765625 -0.03125,0 -0.234375,0 -0.40625,-0.109375 0.359375,-0.09375 0.359375,-0.421875 0.359375,-0.4375 0,-0.1875 -0.140625,-0.296875 -0.3125,-0.296875 -0.21875,0 -0.453125,0.1875 -0.453125,0.484375 0,0.375 0.390625,0.578125 0.796875,0.578125 0.421875,0 0.71875,-0.3125 0.859375,-0.578125 0.1875,0.390625 0.546875,0.578125 0.9375,0.578125 0.859375,0 1.34375,-1 1.34375,-1.21875 C 4.1875,-1.21875 4.125,-1.25 4.0625,-1.25 c -0.09375,0 -0.109375,0.0625 -0.140625,0.140625 -0.15625,0.53125 -0.609375,0.96875 -1.0625,0.96875 -0.265625,0 -0.453125,-0.171875 -0.453125,-0.515625 0,-0.15625 0.046875,-0.34375 0.15625,-0.78125 0.046875,-0.25 0.21875,-0.9375 0.265625,-1.09375 0.109375,-0.421875 0.390625,-0.765625 0.75,-0.765625 0.046875,0 0.25,0 0.421875,0.125 z m 0,0"
                 id="path50-7-1" />
            </g>
          </g>
        </g>
        <g
           fill="#000000"
           fill-opacity="1"
           id="g36-1-6"
           transform="matrix(0.352778,0,0,0.352778,-72.952,-2.29054)">
          <g
             id="use34-7-2"
             transform="translate(221.713,14.446)">
            <path
               d="m 8.0625,-3.875 c 0.171875,0 0.390625,0 0.390625,-0.21875 C 8.453125,-4.3125 8.25,-4.3125 8.0625,-4.3125 H 1.03125 c -0.171875,0 -0.390625,0 -0.390625,0.21875 0,0.21875 0.203125,0.21875 0.390625,0.21875 z m 0,2.21875 c 0.171875,0 0.390625,0 0.390625,-0.203125 C 8.453125,-2.09375 8.25,-2.09375 8.0625,-2.09375 H 1.03125 c -0.171875,0 -0.390625,0 -0.390625,0.21875 0,0.21875 0.203125,0.21875 0.390625,0.21875 z m 0,0"
               id="path54-9-4" />
          </g>
        </g>
        <g
           fill="#000000"
           fill-opacity="1"
           id="g40-4-6"
           transform="matrix(0.352778,0,0,0.352778,-72.952,-2.29054)">
          <g
             id="use38-5-1"
             transform="translate(234.14163,14.446)">
            <path
               d="m 5.359375,-3.828125 c 0,-0.984375 -0.0625,-1.953125 -0.5,-2.859375 -0.484375,-1 -1.34375,-1.265625 -1.9375,-1.265625 -0.6875,0 -1.53125,0.34375 -1.984375,1.34375 -0.328125,0.75 -0.453125,1.5 -0.453125,2.78125 0,1.15625 0.09375,2.03125 0.515625,2.890625 0.46875,0.90625 1.296875,1.1875 1.921875,1.1875 1.03125,0 1.625,-0.625 1.984375,-1.3125 0.421875,-0.890625 0.453125,-2.0625 0.453125,-2.765625 z m -2.4375,3.84375 C 2.53125,0.015625 1.75,-0.203125 1.53125,-1.5 c -0.125,-0.71875 -0.125,-1.625 -0.125,-2.46875 0,-0.984375 0,-1.859375 0.1875,-2.5625 0.203125,-0.8125 0.8125,-1.171875 1.328125,-1.171875 0.453125,0 1.140625,0.265625 1.375,1.296875 0.15625,0.6875 0.15625,1.625 0.15625,2.4375 0,0.796875 0,1.703125 -0.140625,2.4375 -0.21875,1.3125 -0.984375,1.546875 -1.390625,1.546875 z m 0,0"
               id="path58-9-4" />
          </g>
        </g>
      </g>
      <g
         inkscape:label=""
         transform="translate(87.08096,159.32878)"
         id="g3074-1-3">
        <g
           fill="#000000"
           fill-opacity="1"
           id="g3052-3-2"
           transform="matrix(0.352778,0,0,0.352778,-73.0042,-2.29054)">
          <g
             id="g3050-7-7"
             transform="translate(206.61301,14.446)">
            <path
               d="M 4.078125,-0.6875 C 4.234375,-0.03125 4.8125,0.125 5.09375,0.125 c 0.375,0 0.671875,-0.25 0.859375,-0.65625 0.203125,-0.4375 0.359375,-1.140625 0.359375,-1.171875 0,-0.0625 -0.046875,-0.109375 -0.125,-0.109375 -0.109375,0 -0.109375,0.0625 -0.15625,0.234375 C 5.8125,-0.75 5.59375,-0.125 5.109375,-0.125 4.75,-0.125 4.75,-0.515625 4.75,-0.671875 4.75,-0.9375 4.796875,-1.0625 4.90625,-1.5625 5,-1.890625 5.078125,-2.21875 5.15625,-2.546875 L 5.640625,-4.5 C 5.71875,-4.796875 5.71875,-4.8125 5.71875,-4.859375 c 0,-0.171875 -0.140625,-0.296875 -0.3125,-0.296875 -0.34375,0 -0.4375,0.296875 -0.5,0.609375 -0.125,0.453125 -0.765625,3.03125 -0.859375,3.453125 0,0 -0.46875,0.96875 -1.34375,0.96875 -0.625,0 -0.75,-0.53125 -0.75,-0.96875 0,-0.6875 0.34375,-1.640625 0.65625,-2.4375 C 2.75,-3.921875 2.8125,-4.078125 2.8125,-4.3125 c 0,-0.515625 -0.375,-0.953125 -0.953125,-0.953125 -1.09375,0 -1.53125,1.734375 -1.53125,1.828125 0,0.046875 0.046875,0.109375 0.125,0.109375 0.109375,0 0.125,-0.046875 0.171875,-0.21875 0.28125,-1.03125 0.75,-1.484375 1.203125,-1.484375 0.125,0 0.3125,0.015625 0.3125,0.390625 0,0.3125 -0.125,0.65625 -0.3125,1.109375 C 1.296875,-2.109375 1.25,-1.65625 1.25,-1.296875 1.25,-0.078125 2.15625,0.125 2.65625,0.125 c 0.765625,0 1.1875,-0.53125 1.421875,-0.8125 z m 0,0"
               id="path3048-2-9" />
          </g>
        </g>
        <g
           clip-path="url(#clipPath6267-0-2)"
           id="g3060-8-2"
           transform="matrix(0.352778,0,0,0.352778,-73.0042,-2.29054)">
          <g
             fill="#000000"
             fill-opacity="1"
             id="g3058-3-2">
            <g
               id="g3056-0-7"
               transform="translate(213.27499,16.239)">
              <path
                 d="m 4.125,-3 c 0.03125,-0.109375 0.03125,-0.125 0.03125,-0.1875 0,-0.203125 -0.15625,-0.25 -0.25,-0.25 -0.046875,0 -0.21875,0.015625 -0.328125,0.21875 -0.015625,0.046875 -0.09375,0.328125 -0.125,0.5 L 2.96875,-0.8125 c 0,0.03125 -0.34375,0.671875 -0.921875,0.671875 -0.390625,0 -0.53125,-0.296875 -0.53125,-0.640625 0,-0.46875 0.265625,-1.171875 0.453125,-1.640625 C 2.046875,-2.625 2.078125,-2.6875 2.078125,-2.84375 c 0,-0.4375 -0.359375,-0.671875 -0.71875,-0.671875 -0.796875,0 -1.125,1.125 -1.125,1.21875 0,0.078125 0.0625,0.109375 0.125,0.109375 0.109375,0 0.109375,-0.046875 0.140625,-0.125 0.203125,-0.703125 0.546875,-0.984375 0.828125,-0.984375 0.125,0 0.1875,0.078125 0.1875,0.265625 0,0.171875 -0.0625,0.359375 -0.109375,0.5 -0.328125,0.84375 -0.46875,1.25 -0.46875,1.625 0,0.78125 0.59375,0.984375 1.0625,0.984375 0.375,0 0.640625,-0.171875 0.84375,-0.34375 -0.125,0.4375 -0.203125,0.75 -0.5,1.140625 C 2.078125,1.1875 1.765625,1.40625 1.40625,1.40625 1.265625,1.40625 0.96875,1.375 0.8125,1.140625 1.234375,1.109375 1.265625,0.75 1.265625,0.703125 c 0,-0.1875 -0.15625,-0.296875 -0.3125,-0.296875 C 0.765625,0.40625 0.5,0.546875 0.5,0.9375 0.5,1.3125 0.84375,1.625 1.40625,1.625 2.21875,1.625 3.125,0.96875 3.375,0.015625 Z m 0,0"
                 id="path3054-3-2" />
            </g>
          </g>
        </g>
        <g
           fill="#000000"
           fill-opacity="1"
           id="g3066-3-3"
           transform="matrix(0.352778,0,0,0.352778,-73.0042,-2.29054)">
          <g
             id="g3064-5-9"
             transform="translate(221.56599,14.446)">
            <path
               d="m 8.0625,-3.875 c 0.171875,0 0.390625,0 0.390625,-0.21875 C 8.453125,-4.3125 8.25,-4.3125 8.0625,-4.3125 H 1.03125 c -0.171875,0 -0.390625,0 -0.390625,0.21875 0,0.21875 0.203125,0.21875 0.390625,0.21875 z m 0,2.21875 c 0.171875,0 0.390625,0 0.390625,-0.203125 C 8.453125,-2.09375 8.25,-2.09375 8.0625,-2.09375 H 1.03125 c -0.171875,0 -0.390625,0 -0.390625,0.21875 0,0.21875 0.203125,0.21875 0.390625,0.21875 z m 0,0"
               id="path3062-5-0" />
          </g>
        </g>
        <g
           fill="#000000"
           fill-opacity="1"
           id="g3072-1-8"
           transform="matrix(0.352778,0,0,0.352778,-73.0042,-2.29054)">
          <g
             id="g3070-9-4"
             transform="translate(233.99463,14.446)">
            <path
               d="m 5.359375,-3.828125 c 0,-0.984375 -0.0625,-1.953125 -0.5,-2.859375 -0.484375,-1 -1.34375,-1.265625 -1.9375,-1.265625 -0.6875,0 -1.53125,0.34375 -1.984375,1.34375 -0.328125,0.75 -0.453125,1.5 -0.453125,2.78125 0,1.15625 0.09375,2.03125 0.515625,2.890625 0.46875,0.90625 1.296875,1.1875 1.921875,1.1875 1.03125,0 1.625,-0.625 1.984375,-1.3125 0.421875,-0.890625 0.453125,-2.0625 0.453125,-2.765625 z m -2.4375,3.84375 C 2.53125,0.015625 1.75,-0.203125 1.53125,-1.5 c -0.125,-0.71875 -0.125,-1.625 -0.125,-2.46875 0,-0.984375 0,-1.859375 0.1875,-2.5625 0.203125,-0.8125 0.8125,-1.171875 1.328125,-1.171875 0.453125,0 1.140625,0.265625 1.375,1.296875 0.15625,0.6875 0.15625,1.625 0.15625,2.4375 0,0.796875 0,1.703125 -0.140625,2.4375 -0.21875,1.3125 -0.984375,1.546875 -1.390625,1.546875 z m 0,0"
               id="path3068-7-4" />
          </g>
        </g>
      </g>
    </g>
    <g
       id="g3486-7-6-5">
      <g
         inkscape:label=""
         transform="translate(87.05958,155.36003)"
         id="g2975-6-2-8">
        <g
           fill="#000000"
           fill-opacity="1"
           id="g26-2-0-9"
           transform="matrix(0.352778,0,0,0.352778,-72.952,-2.29054)">
          <g
             id="use24-6-7-2"
             transform="translate(206.465,14.446)">
            <path
               d="M 4.078125,-0.6875 C 4.234375,-0.03125 4.8125,0.125 5.09375,0.125 c 0.375,0 0.671875,-0.25 0.859375,-0.65625 0.203125,-0.4375 0.359375,-1.140625 0.359375,-1.171875 0,-0.0625 -0.046875,-0.109375 -0.125,-0.109375 -0.109375,0 -0.109375,0.0625 -0.15625,0.234375 C 5.8125,-0.75 5.59375,-0.125 5.109375,-0.125 4.75,-0.125 4.75,-0.515625 4.75,-0.671875 4.75,-0.9375 4.796875,-1.0625 4.90625,-1.5625 5,-1.890625 5.078125,-2.21875 5.15625,-2.546875 L 5.640625,-4.5 C 5.71875,-4.796875 5.71875,-4.8125 5.71875,-4.859375 c 0,-0.171875 -0.140625,-0.296875 -0.3125,-0.296875 -0.34375,0 -0.4375,0.296875 -0.5,0.609375 -0.125,0.453125 -0.765625,3.03125 -0.859375,3.453125 0,0 -0.46875,0.96875 -1.34375,0.96875 -0.625,0 -0.75,-0.53125 -0.75,-0.96875 0,-0.6875 0.34375,-1.640625 0.65625,-2.4375 C 2.75,-3.921875 2.8125,-4.078125 2.8125,-4.3125 c 0,-0.515625 -0.375,-0.953125 -0.953125,-0.953125 -1.09375,0 -1.53125,1.734375 -1.53125,1.828125 0,0.046875 0.046875,0.109375 0.125,0.109375 0.109375,0 0.125,-0.046875 0.171875,-0.21875 0.28125,-1.03125 0.75,-1.484375 1.203125,-1.484375 0.125,0 0.3125,0.015625 0.3125,0.390625 0,0.3125 -0.125,0.65625 -0.3125,1.109375 C 1.296875,-2.109375 1.25,-1.65625 1.25,-1.296875 1.25,-0.078125 2.15625,0.125 2.65625,0.125 c 0.765625,0 1.1875,-0.53125 1.421875,-0.8125 z m 0,0"
               id="path46-6-6-7" />
          </g>
        </g>
        <g
           clip-path="url(#clipPath8320-3-1-7)"
           id="g32-5-5-3"
           transform="matrix(0.352778,0,0,0.352778,-72.952,-2.29054)">
          <g
             fill="#000000"
             fill-opacity="1"
             id="g30-2-0-3">
            <g
               id="use28-5-4-4"
               transform="translate(213.127,16.239)">
              <path
                 d="M 4,-3.171875 C 3.640625,-3.09375 3.625,-2.78125 3.625,-2.75 c 0,0.171875 0.140625,0.296875 0.3125,0.296875 0.171875,0 0.4375,-0.140625 0.4375,-0.484375 0,-0.453125 -0.5,-0.578125 -0.796875,-0.578125 C 3.21875,-3.515625 2.90625,-3.25 2.71875,-2.9375 2.546875,-3.359375 2.140625,-3.515625 1.8125,-3.515625 c -0.875,0 -1.359375,1 -1.359375,1.21875 0,0.078125 0.0625,0.109375 0.125,0.109375 0.09375,0 0.109375,-0.046875 0.125,-0.140625 0.1875,-0.578125 0.671875,-0.96875 1.078125,-0.96875 0.3125,0 0.46875,0.234375 0.46875,0.515625 C 2.25,-2.625 2.15625,-2.25 2.09375,-2 c -0.0625,0.234375 -0.234375,0.9375 -0.28125,1.09375 -0.109375,0.421875 -0.390625,0.765625 -0.75,0.765625 -0.03125,0 -0.234375,0 -0.40625,-0.109375 0.359375,-0.09375 0.359375,-0.421875 0.359375,-0.4375 0,-0.1875 -0.140625,-0.296875 -0.3125,-0.296875 -0.21875,0 -0.453125,0.1875 -0.453125,0.484375 0,0.375 0.390625,0.578125 0.796875,0.578125 0.421875,0 0.71875,-0.3125 0.859375,-0.578125 0.1875,0.390625 0.546875,0.578125 0.9375,0.578125 0.859375,0 1.34375,-1 1.34375,-1.21875 C 4.1875,-1.21875 4.125,-1.25 4.0625,-1.25 c -0.09375,0 -0.109375,0.0625 -0.140625,0.140625 -0.15625,0.53125 -0.609375,0.96875 -1.0625,0.96875 -0.265625,0 -0.453125,-0.171875 -0.453125,-0.515625 0,-0.15625 0.046875,-0.34375 0.15625,-0.78125 0.046875,-0.25 0.21875,-0.9375 0.265625,-1.09375 0.109375,-0.421875 0.390625,-0.765625 0.75,-0.765625 0.046875,0 0.25,0 0.421875,0.125 z m 0,0"
                 id="path50-7-1-9" />
            </g>
          </g>
        </g>
        <g
           fill="#000000"
           fill-opacity="1"
           id="g36-1-6-2"
           transform="matrix(0.352778,0,0,0.352778,-72.952,-2.29054)">
          <g
             id="use34-7-2-1"
             transform="translate(221.713,14.446)">
            <path
               d="m 8.0625,-3.875 c 0.171875,0 0.390625,0 0.390625,-0.21875 C 8.453125,-4.3125 8.25,-4.3125 8.0625,-4.3125 H 1.03125 c -0.171875,0 -0.390625,0 -0.390625,0.21875 0,0.21875 0.203125,0.21875 0.390625,0.21875 z m 0,2.21875 c 0.171875,0 0.390625,0 0.390625,-0.203125 C 8.453125,-2.09375 8.25,-2.09375 8.0625,-2.09375 H 1.03125 c -0.171875,0 -0.390625,0 -0.390625,0.21875 0,0.21875 0.203125,0.21875 0.390625,0.21875 z m 0,0"
               id="path54-9-4-9" />
          </g>
        </g>
        <g
           fill="#000000"
           fill-opacity="1"
           id="g40-4-6-5"
           transform="matrix(0.352778,0,0,0.352778,-72.952,-2.29054)">
          <g
             id="use38-5-1-6"
             transform="translate(234.14163,14.446)">
            <path
               d="m 5.359375,-3.828125 c 0,-0.984375 -0.0625,-1.953125 -0.5,-2.859375 -0.484375,-1 -1.34375,-1.265625 -1.9375,-1.265625 -0.6875,0 -1.53125,0.34375 -1.984375,1.34375 -0.328125,0.75 -0.453125,1.5 -0.453125,2.78125 0,1.15625 0.09375,2.03125 0.515625,2.890625 0.46875,0.90625 1.296875,1.1875 1.921875,1.1875 1.03125,0 1.625,-0.625 1.984375,-1.3125 0.421875,-0.890625 0.453125,-2.0625 0.453125,-2.765625 z m -2.4375,3.84375 C 2.53125,0.015625 1.75,-0.203125 1.53125,-1.5 c -0.125,-0.71875 -0.125,-1.625 -0.125,-2.46875 0,-0.984375 0,-1.859375 0.1875,-2.5625 0.203125,-0.8125 0.8125,-1.171875 1.328125,-1.171875 0.453125,0 1.140625,0.265625 1.375,1.296875 0.15625,0.6875 0.15625,1.625 0.15625,2.4375 0,0.796875 0,1.703125 -0.140625,2.4375 -0.21875,1.3125 -0.984375,1.546875 -1.390625,1.546875 z m 0,0"
               id="path58-9-4-6" />
          </g>
        </g>
      </g>
      <g
         inkscape:label=""
         transform="translate(87.08096,159.32878)"
         id="g3074-1-3-7">
        <g
           fill="#000000"
           fill-opacity="1"
           id="g3052-3-2-1"
           transform="matrix(0.352778,0,0,0.352778,-73.0042,-2.29054)">
          <g
             id="g3050-7-7-4"
             transform="translate(206.61301,14.446)">
            <path
               d="M 4.078125,-0.6875 C 4.234375,-0.03125 4.8125,0.125 5.09375,0.125 c 0.375,0 0.671875,-0.25 0.859375,-0.65625 0.203125,-0.4375 0.359375,-1.140625 0.359375,-1.171875 0,-0.0625 -0.046875,-0.109375 -0.125,-0.109375 -0.109375,0 -0.109375,0.0625 -0.15625,0.234375 C 5.8125,-0.75 5.59375,-0.125 5.109375,-0.125 4.75,-0.125 4.75,-0.515625 4.75,-0.671875 4.75,-0.9375 4.796875,-1.0625 4.90625,-1.5625 5,-1.890625 5.078125,-2.21875 5.15625,-2.546875 L 5.640625,-4.5 C 5.71875,-4.796875 5.71875,-4.8125 5.71875,-4.859375 c 0,-0.171875 -0.140625,-0.296875 -0.3125,-0.296875 -0.34375,0 -0.4375,0.296875 -0.5,0.609375 -0.125,0.453125 -0.765625,3.03125 -0.859375,3.453125 0,0 -0.46875,0.96875 -1.34375,0.96875 -0.625,0 -0.75,-0.53125 -0.75,-0.96875 0,-0.6875 0.34375,-1.640625 0.65625,-2.4375 C 2.75,-3.921875 2.8125,-4.078125 2.8125,-4.3125 c 0,-0.515625 -0.375,-0.953125 -0.953125,-0.953125 -1.09375,0 -1.53125,1.734375 -1.53125,1.828125 0,0.046875 0.046875,0.109375 0.125,0.109375 0.109375,0 0.125,-0.046875 0.171875,-0.21875 0.28125,-1.03125 0.75,-1.484375 1.203125,-1.484375 0.125,0 0.3125,0.015625 0.3125,0.390625 0,0.3125 -0.125,0.65625 -0.3125,1.109375 C 1.296875,-2.109375 1.25,-1.65625 1.25,-1.296875 1.25,-0.078125 2.15625,0.125 2.65625,0.125 c 0.765625,0 1.1875,-0.53125 1.421875,-0.8125 z m 0,0"
               id="path3048-2-9-3" />
          </g>
        </g>
        <g
           clip-path="url(#clipPath6267-0-2-4)"
           id="g3060-8-2-3"
           transform="matrix(0.352778,0,0,0.352778,-73.0042,-2.29054)">
          <g
             fill="#000000"
             fill-opacity="1"
             id="g3058-3-2-5">
            <g
               id="g3056-0-7-5"
               transform="translate(213.27499,16.239)">
              <path
                 d="m 4.125,-3 c 0.03125,-0.109375 0.03125,-0.125 0.03125,-0.1875 0,-0.203125 -0.15625,-0.25 -0.25,-0.25 -0.046875,0 -0.21875,0.015625 -0.328125,0.21875 -0.015625,0.046875 -0.09375,0.328125 -0.125,0.5 L 2.96875,-0.8125 c 0,0.03125 -0.34375,0.671875 -0.921875,0.671875 -0.390625,0 -0.53125,-0.296875 -0.53125,-0.640625 0,-0.46875 0.265625,-1.171875 0.453125,-1.640625 C 2.046875,-2.625 2.078125,-2.6875 2.078125,-2.84375 c 0,-0.4375 -0.359375,-0.671875 -0.71875,-0.671875 -0.796875,0 -1.125,1.125 -1.125,1.21875 0,0.078125 0.0625,0.109375 0.125,0.109375 0.109375,0 0.109375,-0.046875 0.140625,-0.125 0.203125,-0.703125 0.546875,-0.984375 0.828125,-0.984375 0.125,0 0.1875,0.078125 0.1875,0.265625 0,0.171875 -0.0625,0.359375 -0.109375,0.5 -0.328125,0.84375 -0.46875,1.25 -0.46875,1.625 0,0.78125 0.59375,0.984375 1.0625,0.984375 0.375,0 0.640625,-0.171875 0.84375,-0.34375 -0.125,0.4375 -0.203125,0.75 -0.5,1.140625 C 2.078125,1.1875 1.765625,1.40625 1.40625,1.40625 1.265625,1.40625 0.96875,1.375 0.8125,1.140625 1.234375,1.109375 1.265625,0.75 1.265625,0.703125 c 0,-0.1875 -0.15625,-0.296875 -0.3125,-0.296875 C 0.765625,0.40625 0.5,0.546875 0.5,0.9375 0.5,1.3125 0.84375,1.625 1.40625,1.625 2.21875,1.625 3.125,0.96875 3.375,0.015625 Z m 0,0"
                 id="path3054-3-2-2" />
            </g>
          </g>
        </g>
        <g
           fill="#000000"
           fill-opacity="1"
           id="g3066-3-3-9"
           transform="matrix(0.352778,0,0,0.352778,-73.0042,-2.29054)">
          <g
             id="g3064-5-9-6"
             transform="translate(221.56599,14.446)">
            <path
               d="m 8.0625,-3.875 c 0.171875,0 0.390625,0 0.390625,-0.21875 C 8.453125,-4.3125 8.25,-4.3125 8.0625,-4.3125 H 1.03125 c -0.171875,0 -0.390625,0 -0.390625,0.21875 0,0.21875 0.203125,0.21875 0.390625,0.21875 z m 0,2.21875 c 0.171875,0 0.390625,0 0.390625,-0.203125 C 8.453125,-2.09375 8.25,-2.09375 8.0625,-2.09375 H 1.03125 c -0.171875,0 -0.390625,0 -0.390625,0.21875 0,0.21875 0.203125,0.21875 0.390625,0.21875 z m 0,0"
               id="path3062-5-0-8" />
          </g>
        </g>
        <g
           fill="#000000"
           fill-opacity="1"
           id="g3072-1-8-5"
           transform="matrix(0.352778,0,0,0.352778,-73.0042,-2.29054)">
          <g
             id="g3070-9-4-4"
             transform="translate(233.99463,14.446)">
            <path
               d="m 5.359375,-3.828125 c 0,-0.984375 -0.0625,-1.953125 -0.5,-2.859375 -0.484375,-1 -1.34375,-1.265625 -1.9375,-1.265625 -0.6875,0 -1.53125,0.34375 -1.984375,1.34375 -0.328125,0.75 -0.453125,1.5 -0.453125,2.78125 0,1.15625 0.09375,2.03125 0.515625,2.890625 0.46875,0.90625 1.296875,1.1875 1.921875,1.1875 1.03125,0 1.625,-0.625 1.984375,-1.3125 0.421875,-0.890625 0.453125,-2.0625 0.453125,-2.765625 z m -2.4375,3.84375 C 2.53125,0.015625 1.75,-0.203125 1.53125,-1.5 c -0.125,-0.71875 -0.125,-1.625 -0.125,-2.46875 0,-0.984375 0,-1.859375 0.1875,-2.5625 0.203125,-0.8125 0.8125,-1.171875 1.328125,-1.171875 0.453125,0 1.140625,0.265625 1.375,1.296875 0.15625,0.6875 0.15625,1.625 0.15625,2.4375 0,0.796875 0,1.703125 -0.140625,2.4375 -0.21875,1.3125 -0.984375,1.546875 -1.390625,1.546875 z m 0,0"
               id="path3068-7-4-5" />
          </g>
        </g>
      </g>
    </g>
    <g
       id="g3486-7-6-5-3"
       transform="translate(-19.843751,7.7831551)">
      <g
         inkscape:label=""
         transform="translate(87.05958,155.36003)"
         id="g2975-6-2-8-6">
        <g
           fill="#000000"
           fill-opacity="1"
           id="g26-2-0-9-2"
           transform="matrix(0.352778,0,0,0.352778,-72.952,-2.29054)">
          <g
             id="use24-6-7-2-1"
             transform="translate(206.465,14.446)">
            <path
               d="M 4.078125,-0.6875 C 4.234375,-0.03125 4.8125,0.125 5.09375,0.125 c 0.375,0 0.671875,-0.25 0.859375,-0.65625 0.203125,-0.4375 0.359375,-1.140625 0.359375,-1.171875 0,-0.0625 -0.046875,-0.109375 -0.125,-0.109375 -0.109375,0 -0.109375,0.0625 -0.15625,0.234375 C 5.8125,-0.75 5.59375,-0.125 5.109375,-0.125 4.75,-0.125 4.75,-0.515625 4.75,-0.671875 4.75,-0.9375 4.796875,-1.0625 4.90625,-1.5625 5,-1.890625 5.078125,-2.21875 5.15625,-2.546875 L 5.640625,-4.5 C 5.71875,-4.796875 5.71875,-4.8125 5.71875,-4.859375 c 0,-0.171875 -0.140625,-0.296875 -0.3125,-0.296875 -0.34375,0 -0.4375,0.296875 -0.5,0.609375 -0.125,0.453125 -0.765625,3.03125 -0.859375,3.453125 0,0 -0.46875,0.96875 -1.34375,0.96875 -0.625,0 -0.75,-0.53125 -0.75,-0.96875 0,-0.6875 0.34375,-1.640625 0.65625,-2.4375 C 2.75,-3.921875 2.8125,-4.078125 2.8125,-4.3125 c 0,-0.515625 -0.375,-0.953125 -0.953125,-0.953125 -1.09375,0 -1.53125,1.734375 -1.53125,1.828125 0,0.046875 0.046875,0.109375 0.125,0.109375 0.109375,0 0.125,-0.046875 0.171875,-0.21875 0.28125,-1.03125 0.75,-1.484375 1.203125,-1.484375 0.125,0 0.3125,0.015625 0.3125,0.390625 0,0.3125 -0.125,0.65625 -0.3125,1.109375 C 1.296875,-2.109375 1.25,-1.65625 1.25,-1.296875 1.25,-0.078125 2.15625,0.125 2.65625,0.125 c 0.765625,0 1.1875,-0.53125 1.421875,-0.8125 z m 0,0"
               id="path46-6-6-7-8" />
          </g>
        </g>
        <g
           clip-path="url(#clipPath8320-3-1-7-2)"
           id="g32-5-5-3-3"
           transform="matrix(0.352778,0,0,0.352778,-72.952,-2.29054)">
          <g
             fill="#000000"
             fill-opacity="1"
             id="g30-2-0-3-8">
            <g
               id="use28-5-4-4-2"
               transform="translate(213.127,16.239)">
              <path
                 d="M 4,-3.171875 C 3.640625,-3.09375 3.625,-2.78125 3.625,-2.75 c 0,0.171875 0.140625,0.296875 0.3125,0.296875 0.171875,0 0.4375,-0.140625 0.4375,-0.484375 0,-0.453125 -0.5,-0.578125 -0.796875,-0.578125 C 3.21875,-3.515625 2.90625,-3.25 2.71875,-2.9375 2.546875,-3.359375 2.140625,-3.515625 1.8125,-3.515625 c -0.875,0 -1.359375,1 -1.359375,1.21875 0,0.078125 0.0625,0.109375 0.125,0.109375 0.09375,0 0.109375,-0.046875 0.125,-0.140625 0.1875,-0.578125 0.671875,-0.96875 1.078125,-0.96875 0.3125,0 0.46875,0.234375 0.46875,0.515625 C 2.25,-2.625 2.15625,-2.25 2.09375,-2 c -0.0625,0.234375 -0.234375,0.9375 -0.28125,1.09375 -0.109375,0.421875 -0.390625,0.765625 -0.75,0.765625 -0.03125,0 -0.234375,0 -0.40625,-0.109375 0.359375,-0.09375 0.359375,-0.421875 0.359375,-0.4375 0,-0.1875 -0.140625,-0.296875 -0.3125,-0.296875 -0.21875,0 -0.453125,0.1875 -0.453125,0.484375 0,0.375 0.390625,0.578125 0.796875,0.578125 0.421875,0 0.71875,-0.3125 0.859375,-0.578125 0.1875,0.390625 0.546875,0.578125 0.9375,0.578125 0.859375,0 1.34375,-1 1.34375,-1.21875 C 4.1875,-1.21875 4.125,-1.25 4.0625,-1.25 c -0.09375,0 -0.109375,0.0625 -0.140625,0.140625 -0.15625,0.53125 -0.609375,0.96875 -1.0625,0.96875 -0.265625,0 -0.453125,-0.171875 -0.453125,-0.515625 0,-0.15625 0.046875,-0.34375 0.15625,-0.78125 0.046875,-0.25 0.21875,-0.9375 0.265625,-1.09375 0.109375,-0.421875 0.390625,-0.765625 0.75,-0.765625 0.046875,0 0.25,0 0.421875,0.125 z m 0,0"
                 id="path50-7-1-9-0" />
            </g>
          </g>
        </g>
        <g
           fill="#000000"
           fill-opacity="1"
           id="g36-1-6-2-3"
           transform="matrix(0.352778,0,0,0.352778,-72.952,-2.29054)">
          <g
             id="use34-7-2-1-7"
             transform="translate(221.713,14.446)">
            <path
               d="m 8.0625,-3.875 c 0.171875,0 0.390625,0 0.390625,-0.21875 C 8.453125,-4.3125 8.25,-4.3125 8.0625,-4.3125 H 1.03125 c -0.171875,0 -0.390625,0 -0.390625,0.21875 0,0.21875 0.203125,0.21875 0.390625,0.21875 z m 0,2.21875 c 0.171875,0 0.390625,0 0.390625,-0.203125 C 8.453125,-2.09375 8.25,-2.09375 8.0625,-2.09375 H 1.03125 c -0.171875,0 -0.390625,0 -0.390625,0.21875 0,0.21875 0.203125,0.21875 0.390625,0.21875 z m 0,0"
               id="path54-9-4-9-9" />
          </g>
        </g>
        <g
           fill="#000000"
           fill-opacity="1"
           id="g40-4-6-5-1"
           transform="matrix(0.352778,0,0,0.352778,-72.952,-2.29054)">
          <g
             id="use38-5-1-6-2"
             transform="translate(234.14163,14.446)">
            <path
               d="m 5.359375,-3.828125 c 0,-0.984375 -0.0625,-1.953125 -0.5,-2.859375 -0.484375,-1 -1.34375,-1.265625 -1.9375,-1.265625 -0.6875,0 -1.53125,0.34375 -1.984375,1.34375 -0.328125,0.75 -0.453125,1.5 -0.453125,2.78125 0,1.15625 0.09375,2.03125 0.515625,2.890625 0.46875,0.90625 1.296875,1.1875 1.921875,1.1875 1.03125,0 1.625,-0.625 1.984375,-1.3125 0.421875,-0.890625 0.453125,-2.0625 0.453125,-2.765625 z m -2.4375,3.84375 C 2.53125,0.015625 1.75,-0.203125 1.53125,-1.5 c -0.125,-0.71875 -0.125,-1.625 -0.125,-2.46875 0,-0.984375 0,-1.859375 0.1875,-2.5625 0.203125,-0.8125 0.8125,-1.171875 1.328125,-1.171875 0.453125,0 1.140625,0.265625 1.375,1.296875 0.15625,0.6875 0.15625,1.625 0.15625,2.4375 0,0.796875 0,1.703125 -0.140625,2.4375 -0.21875,1.3125 -0.984375,1.546875 -1.390625,1.546875 z m 0,0"
               id="path58-9-4-6-1" />
          </g>
        </g>
      </g>
      <g
         inkscape:label=""
         transform="translate(87.08096,159.32878)"
         id="g3074-1-3-7-4">
        <g
           fill="#000000"
           fill-opacity="1"
           id="g3052-3-2-1-4"
           transform="matrix(0.352778,0,0,0.352778,-73.0042,-2.29054)">
          <g
             id="g3050-7-7-4-1"
             transform="translate(206.61301,14.446)">
            <path
               d="M 4.078125,-0.6875 C 4.234375,-0.03125 4.8125,0.125 5.09375,0.125 c 0.375,0 0.671875,-0.25 0.859375,-0.65625 0.203125,-0.4375 0.359375,-1.140625 0.359375,-1.171875 0,-0.0625 -0.046875,-0.109375 -0.125,-0.109375 -0.109375,0 -0.109375,0.0625 -0.15625,0.234375 C 5.8125,-0.75 5.59375,-0.125 5.109375,-0.125 4.75,-0.125 4.75,-0.515625 4.75,-0.671875 4.75,-0.9375 4.796875,-1.0625 4.90625,-1.5625 5,-1.890625 5.078125,-2.21875 5.15625,-2.546875 L 5.640625,-4.5 C 5.71875,-4.796875 5.71875,-4.8125 5.71875,-4.859375 c 0,-0.171875 -0.140625,-0.296875 -0.3125,-0.296875 -0.34375,0 -0.4375,0.296875 -0.5,0.609375 -0.125,0.453125 -0.765625,3.03125 -0.859375,3.453125 0,0 -0.46875,0.96875 -1.34375,0.96875 -0.625,0 -0.75,-0.53125 -0.75,-0.96875 0,-0.6875 0.34375,-1.640625 0.65625,-2.4375 C 2.75,-3.921875 2.8125,-4.078125 2.8125,-4.3125 c 0,-0.515625 -0.375,-0.953125 -0.953125,-0.953125 -1.09375,0 -1.53125,1.734375 -1.53125,1.828125 0,0.046875 0.046875,0.109375 0.125,0.109375 0.109375,0 0.125,-0.046875 0.171875,-0.21875 0.28125,-1.03125 0.75,-1.484375 1.203125,-1.484375 0.125,0 0.3125,0.015625 0.3125,0.390625 0,0.3125 -0.125,0.65625 -0.3125,1.109375 C 1.296875,-2.109375 1.25,-1.65625 1.25,-1.296875 1.25,-0.078125 2.15625,0.125 2.65625,0.125 c 0.765625,0 1.1875,-0.53125 1.421875,-0.8125 z m 0,0"
               id="path3048-2-9-3-0" />
          </g>
        </g>
        <g
           clip-path="url(#clipPath6267-0-2-4-2)"
           id="g3060-8-2-3-2"
           transform="matrix(0.352778,0,0,0.352778,-73.0042,-2.29054)">
          <g
             fill="#000000"
             fill-opacity="1"
             id="g3058-3-2-5-7">
            <g
               id="g3056-0-7-5-0"
               transform="translate(213.27499,16.239)">
              <path
                 d="m 4.125,-3 c 0.03125,-0.109375 0.03125,-0.125 0.03125,-0.1875 0,-0.203125 -0.15625,-0.25 -0.25,-0.25 -0.046875,0 -0.21875,0.015625 -0.328125,0.21875 -0.015625,0.046875 -0.09375,0.328125 -0.125,0.5 L 2.96875,-0.8125 c 0,0.03125 -0.34375,0.671875 -0.921875,0.671875 -0.390625,0 -0.53125,-0.296875 -0.53125,-0.640625 0,-0.46875 0.265625,-1.171875 0.453125,-1.640625 C 2.046875,-2.625 2.078125,-2.6875 2.078125,-2.84375 c 0,-0.4375 -0.359375,-0.671875 -0.71875,-0.671875 -0.796875,0 -1.125,1.125 -1.125,1.21875 0,0.078125 0.0625,0.109375 0.125,0.109375 0.109375,0 0.109375,-0.046875 0.140625,-0.125 0.203125,-0.703125 0.546875,-0.984375 0.828125,-0.984375 0.125,0 0.1875,0.078125 0.1875,0.265625 0,0.171875 -0.0625,0.359375 -0.109375,0.5 -0.328125,0.84375 -0.46875,1.25 -0.46875,1.625 0,0.78125 0.59375,0.984375 1.0625,0.984375 0.375,0 0.640625,-0.171875 0.84375,-0.34375 -0.125,0.4375 -0.203125,0.75 -0.5,1.140625 C 2.078125,1.1875 1.765625,1.40625 1.40625,1.40625 1.265625,1.40625 0.96875,1.375 0.8125,1.140625 1.234375,1.109375 1.265625,0.75 1.265625,0.703125 c 0,-0.1875 -0.15625,-0.296875 -0.3125,-0.296875 C 0.765625,0.40625 0.5,0.546875 0.5,0.9375 0.5,1.3125 0.84375,1.625 1.40625,1.625 2.21875,1.625 3.125,0.96875 3.375,0.015625 Z m 0,0"
                 id="path3054-3-2-2-9" />
            </g>
          </g>
        </g>
        <g
           fill="#000000"
           fill-opacity="1"
           id="g3066-3-3-9-8"
           transform="matrix(0.352778,0,0,0.352778,-73.0042,-2.29054)">
          <g
             id="g3064-5-9-6-4"
             transform="translate(221.56599,14.446)">
            <path
               d="m 8.0625,-3.875 c 0.171875,0 0.390625,0 0.390625,-0.21875 C 8.453125,-4.3125 8.25,-4.3125 8.0625,-4.3125 H 1.03125 c -0.171875,0 -0.390625,0 -0.390625,0.21875 0,0.21875 0.203125,0.21875 0.390625,0.21875 z m 0,2.21875 c 0.171875,0 0.390625,0 0.390625,-0.203125 C 8.453125,-2.09375 8.25,-2.09375 8.0625,-2.09375 H 1.03125 c -0.171875,0 -0.390625,0 -0.390625,0.21875 0,0.21875 0.203125,0.21875 0.390625,0.21875 z m 0,0"
               id="path3062-5-0-8-7" />
          </g>
        </g>
        <g
           fill="#000000"
           fill-opacity="1"
           id="g3072-1-8-5-9"
           transform="matrix(0.352778,0,0,0.352778,-73.0042,-2.29054)">
          <g
             id="g3070-9-4-4-5"
             transform="translate(233.99463,14.446)">
            <path
               d="m 5.359375,-3.828125 c 0,-0.984375 -0.0625,-1.953125 -0.5,-2.859375 -0.484375,-1 -1.34375,-1.265625 -1.9375,-1.265625 -0.6875,0 -1.53125,0.34375 -1.984375,1.34375 -0.328125,0.75 -0.453125,1.5 -0.453125,2.78125 0,1.15625 0.09375,2.03125 0.515625,2.890625 0.46875,0.90625 1.296875,1.1875 1.921875,1.1875 1.03125,0 1.625,-0.625 1.984375,-1.3125 0.421875,-0.890625 0.453125,-2.0625 0.453125,-2.765625 z m -2.4375,3.84375 C 2.53125,0.015625 1.75,-0.203125 1.53125,-1.5 c -0.125,-0.71875 -0.125,-1.625 -0.125,-2.46875 0,-0.984375 0,-1.859375 0.1875,-2.5625 0.203125,-0.8125 0.8125,-1.171875 1.328125,-1.171875 0.453125,0 1.140625,0.265625 1.375,1.296875 0.15625,0.6875 0.15625,1.625 0.15625,2.4375 0,0.796875 0,1.703125 -0.140625,2.4375 -0.21875,1.3125 -0.984375,1.546875 -1.390625,1.546875 z m 0,0"
               id="path3068-7-4-5-8" />
          </g>
        </g>
      </g>
    </g>
    <g
       id="g5160"
       transform="translate(-11.890416,-24.159765)">
      <g
         inkscape:label=""
         transform="translate(67.215829,160.49735)"
         id="g4451">
        <g
           fill="#000000"
           fill-opacity="1"
           id="g4429"
           transform="matrix(0.352778,0,0,0.352778,-72.952,-2.29054)">
          <g
             id="g4427"
             transform="translate(206.465,14.446)">
            <path
               d="M 4.078125,-0.6875 C 4.234375,-0.03125 4.8125,0.125 5.09375,0.125 c 0.375,0 0.671875,-0.25 0.859375,-0.65625 0.203125,-0.4375 0.359375,-1.140625 0.359375,-1.171875 0,-0.0625 -0.046875,-0.109375 -0.125,-0.109375 -0.109375,0 -0.109375,0.0625 -0.15625,0.234375 C 5.8125,-0.75 5.59375,-0.125 5.109375,-0.125 4.75,-0.125 4.75,-0.515625 4.75,-0.671875 4.75,-0.9375 4.796875,-1.0625 4.90625,-1.5625 5,-1.890625 5.078125,-2.21875 5.15625,-2.546875 L 5.640625,-4.5 C 5.71875,-4.796875 5.71875,-4.8125 5.71875,-4.859375 c 0,-0.171875 -0.140625,-0.296875 -0.3125,-0.296875 -0.34375,0 -0.4375,0.296875 -0.5,0.609375 -0.125,0.453125 -0.765625,3.03125 -0.859375,3.453125 0,0 -0.46875,0.96875 -1.34375,0.96875 -0.625,0 -0.75,-0.53125 -0.75,-0.96875 0,-0.6875 0.34375,-1.640625 0.65625,-2.4375 C 2.75,-3.921875 2.8125,-4.078125 2.8125,-4.3125 c 0,-0.515625 -0.375,-0.953125 -0.953125,-0.953125 -1.09375,0 -1.53125,1.734375 -1.53125,1.828125 0,0.046875 0.046875,0.109375 0.125,0.109375 0.109375,0 0.125,-0.046875 0.171875,-0.21875 0.28125,-1.03125 0.75,-1.484375 1.203125,-1.484375 0.125,0 0.3125,0.015625 0.3125,0.390625 0,0.3125 -0.125,0.65625 -0.3125,1.109375 C 1.296875,-2.109375 1.25,-1.65625 1.25,-1.296875 1.25,-0.078125 2.15625,0.125 2.65625,0.125 c 0.765625,0 1.1875,-0.53125 1.421875,-0.8125 z m 0,0"
               id="path4425" />
          </g>
        </g>
        <g
           clip-path="url(#clipPath9570)"
           id="g4437"
           transform="matrix(0.352778,0,0,0.352778,-72.952,-2.29054)">
          <g
             fill="#000000"
             fill-opacity="1"
             id="g4435">
            <g
               id="g4433"
               transform="translate(213.127,16.239)">
              <path
                 d="M 4,-3.171875 C 3.640625,-3.09375 3.625,-2.78125 3.625,-2.75 c 0,0.171875 0.140625,0.296875 0.3125,0.296875 0.171875,0 0.4375,-0.140625 0.4375,-0.484375 0,-0.453125 -0.5,-0.578125 -0.796875,-0.578125 C 3.21875,-3.515625 2.90625,-3.25 2.71875,-2.9375 2.546875,-3.359375 2.140625,-3.515625 1.8125,-3.515625 c -0.875,0 -1.359375,1 -1.359375,1.21875 0,0.078125 0.0625,0.109375 0.125,0.109375 0.09375,0 0.109375,-0.046875 0.125,-0.140625 0.1875,-0.578125 0.671875,-0.96875 1.078125,-0.96875 0.3125,0 0.46875,0.234375 0.46875,0.515625 C 2.25,-2.625 2.15625,-2.25 2.09375,-2 c -0.0625,0.234375 -0.234375,0.9375 -0.28125,1.09375 -0.109375,0.421875 -0.390625,0.765625 -0.75,0.765625 -0.03125,0 -0.234375,0 -0.40625,-0.109375 0.359375,-0.09375 0.359375,-0.421875 0.359375,-0.4375 0,-0.1875 -0.140625,-0.296875 -0.3125,-0.296875 -0.21875,0 -0.453125,0.1875 -0.453125,0.484375 0,0.375 0.390625,0.578125 0.796875,0.578125 0.421875,0 0.71875,-0.3125 0.859375,-0.578125 0.1875,0.390625 0.546875,0.578125 0.9375,0.578125 0.859375,0 1.34375,-1 1.34375,-1.21875 C 4.1875,-1.21875 4.125,-1.25 4.0625,-1.25 c -0.09375,0 -0.109375,0.0625 -0.140625,0.140625 -0.15625,0.53125 -0.609375,0.96875 -1.0625,0.96875 -0.265625,0 -0.453125,-0.171875 -0.453125,-0.515625 0,-0.15625 0.046875,-0.34375 0.15625,-0.78125 0.046875,-0.25 0.21875,-0.9375 0.265625,-1.09375 0.109375,-0.421875 0.390625,-0.765625 0.75,-0.765625 0.046875,0 0.25,0 0.421875,0.125 z m 0,0"
                 id="path4431" />
            </g>
          </g>
        </g>
        <g
           fill="#000000"
           fill-opacity="1"
           id="g4443"
           transform="matrix(0.352778,0,0,0.352778,-72.952,-2.29054)">
          <g
             id="g4441"
             transform="translate(221.713,14.446)">
            <path
               d="m 8.0625,-3.875 c 0.171875,0 0.390625,0 0.390625,-0.21875 C 8.453125,-4.3125 8.25,-4.3125 8.0625,-4.3125 H 1.03125 c -0.171875,0 -0.390625,0 -0.390625,0.21875 0,0.21875 0.203125,0.21875 0.390625,0.21875 z m 0,2.21875 c 0.171875,0 0.390625,0 0.390625,-0.203125 C 8.453125,-2.09375 8.25,-2.09375 8.0625,-2.09375 H 1.03125 c -0.171875,0 -0.390625,0 -0.390625,0.21875 0,0.21875 0.203125,0.21875 0.390625,0.21875 z m 0,0"
               id="path4439" />
          </g>
        </g>
        <g
           fill="#000000"
           fill-opacity="1"
           id="g4449"
           transform="matrix(0.352778,0,0,0.352778,-72.952,-2.29054)">
          <g
             id="g4447"
             transform="translate(234.14163,14.446)">
            <path
               d="m 3.4375,-7.65625 c 0,-0.28125 0,-0.296875 -0.234375,-0.296875 C 2.921875,-7.625 2.3125,-7.1875 1.09375,-7.1875 v 0.34375 c 0.265625,0 0.859375,0 1.53125,-0.296875 v 6.21875 c 0,0.4375 -0.046875,0.578125 -1.09375,0.578125 h -0.375 V 0 c 0.328125,-0.03125 1.484375,-0.03125 1.875,-0.03125 0.40625,0 1.546875,0 1.875,0.03125 v -0.34375 h -0.375 c -1.046875,0 -1.09375,-0.140625 -1.09375,-0.578125 z m 0,0"
               id="path4445" />
          </g>
        </g>
      </g>
      <g
         inkscape:label=""
         transform="translate(67.319891,164.62044)"
         id="g4748">
        <g
           fill="#000000"
           fill-opacity="1"
           id="g4726"
           transform="matrix(0.352778,0,0,0.352778,-73.0042,-2.29054)">
          <g
             id="g4724"
             transform="translate(206.61301,14.446)">
            <path
               d="M 4.078125,-0.6875 C 4.234375,-0.03125 4.8125,0.125 5.09375,0.125 c 0.375,0 0.671875,-0.25 0.859375,-0.65625 0.203125,-0.4375 0.359375,-1.140625 0.359375,-1.171875 0,-0.0625 -0.046875,-0.109375 -0.125,-0.109375 -0.109375,0 -0.109375,0.0625 -0.15625,0.234375 C 5.8125,-0.75 5.59375,-0.125 5.109375,-0.125 4.75,-0.125 4.75,-0.515625 4.75,-0.671875 4.75,-0.9375 4.796875,-1.0625 4.90625,-1.5625 5,-1.890625 5.078125,-2.21875 5.15625,-2.546875 L 5.640625,-4.5 C 5.71875,-4.796875 5.71875,-4.8125 5.71875,-4.859375 c 0,-0.171875 -0.140625,-0.296875 -0.3125,-0.296875 -0.34375,0 -0.4375,0.296875 -0.5,0.609375 -0.125,0.453125 -0.765625,3.03125 -0.859375,3.453125 0,0 -0.46875,0.96875 -1.34375,0.96875 -0.625,0 -0.75,-0.53125 -0.75,-0.96875 0,-0.6875 0.34375,-1.640625 0.65625,-2.4375 C 2.75,-3.921875 2.8125,-4.078125 2.8125,-4.3125 c 0,-0.515625 -0.375,-0.953125 -0.953125,-0.953125 -1.09375,0 -1.53125,1.734375 -1.53125,1.828125 0,0.046875 0.046875,0.109375 0.125,0.109375 0.109375,0 0.125,-0.046875 0.171875,-0.21875 0.28125,-1.03125 0.75,-1.484375 1.203125,-1.484375 0.125,0 0.3125,0.015625 0.3125,0.390625 0,0.3125 -0.125,0.65625 -0.3125,1.109375 C 1.296875,-2.109375 1.25,-1.65625 1.25,-1.296875 1.25,-0.078125 2.15625,0.125 2.65625,0.125 c 0.765625,0 1.1875,-0.53125 1.421875,-0.8125 z m 0,0"
               id="path4722" />
          </g>
        </g>
        <g
           clip-path="url(#clipPath4865)"
           id="g4734"
           transform="matrix(0.352778,0,0,0.352778,-73.0042,-2.29054)">
          <g
             fill="#000000"
             fill-opacity="1"
             id="g4732">
            <g
               id="g4730"
               transform="translate(213.27499,16.239)">
              <path
                 d="m 4.125,-3 c 0.03125,-0.109375 0.03125,-0.125 0.03125,-0.1875 0,-0.203125 -0.15625,-0.25 -0.25,-0.25 -0.046875,0 -0.21875,0.015625 -0.328125,0.21875 -0.015625,0.046875 -0.09375,0.328125 -0.125,0.5 L 2.96875,-0.8125 c 0,0.03125 -0.34375,0.671875 -0.921875,0.671875 -0.390625,0 -0.53125,-0.296875 -0.53125,-0.640625 0,-0.46875 0.265625,-1.171875 0.453125,-1.640625 C 2.046875,-2.625 2.078125,-2.6875 2.078125,-2.84375 c 0,-0.4375 -0.359375,-0.671875 -0.71875,-0.671875 -0.796875,0 -1.125,1.125 -1.125,1.21875 0,0.078125 0.0625,0.109375 0.125,0.109375 0.109375,0 0.109375,-0.046875 0.140625,-0.125 0.203125,-0.703125 0.546875,-0.984375 0.828125,-0.984375 0.125,0 0.1875,0.078125 0.1875,0.265625 0,0.171875 -0.0625,0.359375 -0.109375,0.5 -0.328125,0.84375 -0.46875,1.25 -0.46875,1.625 0,0.78125 0.59375,0.984375 1.0625,0.984375 0.375,0 0.640625,-0.171875 0.84375,-0.34375 -0.125,0.4375 -0.203125,0.75 -0.5,1.140625 C 2.078125,1.1875 1.765625,1.40625 1.40625,1.40625 1.265625,1.40625 0.96875,1.375 0.8125,1.140625 1.234375,1.109375 1.265625,0.75 1.265625,0.703125 c 0,-0.1875 -0.15625,-0.296875 -0.3125,-0.296875 C 0.765625,0.40625 0.5,0.546875 0.5,0.9375 0.5,1.3125 0.84375,1.625 1.40625,1.625 2.21875,1.625 3.125,0.96875 3.375,0.015625 Z m 0,0"
                 id="path4728" />
            </g>
          </g>
        </g>
        <g
           fill="#000000"
           fill-opacity="1"
           id="g4740"
           transform="matrix(0.352778,0,0,0.352778,-73.0042,-2.29054)">
          <g
             id="g4738"
             transform="translate(221.56599,14.446)">
            <path
               d="m 8.0625,-3.875 c 0.171875,0 0.390625,0 0.390625,-0.21875 C 8.453125,-4.3125 8.25,-4.3125 8.0625,-4.3125 H 1.03125 c -0.171875,0 -0.390625,0 -0.390625,0.21875 0,0.21875 0.203125,0.21875 0.390625,0.21875 z m 0,2.21875 c 0.171875,0 0.390625,0 0.390625,-0.203125 C 8.453125,-2.09375 8.25,-2.09375 8.0625,-2.09375 H 1.03125 c -0.171875,0 -0.390625,0 -0.390625,0.21875 0,0.21875 0.203125,0.21875 0.390625,0.21875 z m 0,0"
               id="path4736" />
          </g>
        </g>
        <g
           fill="#000000"
           fill-opacity="1"
           id="g4746"
           transform="matrix(0.352778,0,0,0.352778,-73.0042,-2.29054)">
          <g
             id="g4744"
             transform="translate(233.99463,14.446)">
            <path
               d="m 5.359375,-3.828125 c 0,-0.984375 -0.0625,-1.953125 -0.5,-2.859375 -0.484375,-1 -1.34375,-1.265625 -1.9375,-1.265625 -0.6875,0 -1.53125,0.34375 -1.984375,1.34375 -0.328125,0.75 -0.453125,1.5 -0.453125,2.78125 0,1.15625 0.09375,2.03125 0.515625,2.890625 0.46875,0.90625 1.296875,1.1875 1.921875,1.1875 1.03125,0 1.625,-0.625 1.984375,-1.3125 0.421875,-0.890625 0.453125,-2.0625 0.453125,-2.765625 z m -2.4375,3.84375 C 2.53125,0.015625 1.75,-0.203125 1.53125,-1.5 c -0.125,-0.71875 -0.125,-1.625 -0.125,-2.46875 0,-0.984375 0,-1.859375 0.1875,-2.5625 0.203125,-0.8125 0.8125,-1.171875 1.328125,-1.171875 0.453125,0 1.140625,0.265625 1.375,1.296875 0.15625,0.6875 0.15625,1.625 0.15625,2.4375 0,0.796875 0,1.703125 -0.140625,2.4375 -0.21875,1.3125 -0.984375,1.546875 -1.390625,1.546875 z m 0,0"
               id="path4742" />
          </g>
        </g>
      </g>
    </g>
    <path
       style="fill:none;stroke:#000000;stroke-width:0.3;stroke-opacity:1"
       d="m 59.531252,173.30209 v 7.9375"
       id="path5162" />
    <path
       style="fill:none;stroke:#000000;stroke-width:0.3;stroke-opacity:1"
       d="M 59.531252,178.59375 H 85.989585"
       id="path5164" />
    <path
       style="fill:none;stroke:#000000;stroke-width:0.3;stroke-opacity:1"
       d="m 85.989585,181.23959 v -7.9375"
       id="path5166" />
    <path
       style="fill:none;stroke:#000000;stroke-width:0.3;stroke-dasharray:none;stroke-opacity:1"
       d="M 87.312502,171.97917 H 104.51042"
       id="path5237" />
    <path
       style="fill:none;stroke:#000000;stroke-width:0.3;stroke-opacity:1"
       d="M 101.86459,171.97917 V 145.52083"
       id="path5239" />
    <path
       style="fill:none;stroke:#000000;stroke-width:0.3;stroke-dasharray:none;stroke-opacity:1"
       d="M 87.312502,145.52083 H 104.51042"
       id="path5241" />
    <path
       style="fill:none;stroke:#000000;stroke-width:0.3;stroke-opacity:1"
       d="m 58.208335,177.27084 2.645834,2.64583"
       id="path5243" />
    <path
       style="fill:none;stroke:#000000;stroke-width:0.3;stroke-opacity:1"
       d="m 84.666668,177.27084 2.645834,2.64583"
       id="path5245" />
    <path
       style="fill:none;stroke:#000000;stroke-width:0.3;stroke-opacity:1"
       d="m 100.54167,170.65625 2.64583,2.64584"
       id="path5247" />
    <path
       style="fill:none;stroke:#000000;stroke-width:0.3;stroke-opacity:1"
       d="m 100.54167,144.19792 2.64583,2.64583"
       id="path5249" />
    <path
       style="fill:none;stroke:#000000;stroke-width:0.3;stroke-opacity:1;marker-end:url(#marker5970)"
       d="m 67.468752,140.22917 c 5.291666,0 5.291666,5.29166 5.291666,5.29166"
       id="path5922" />
    <path
       style="fill:none;stroke:#000000;stroke-width:0.3;stroke-opacity:1;marker-end:url(#TriangleStart)"
       d="m 72.760418,161.39584 v -9.26042"
       id="path7486" />
    <path
       style="fill:none;stroke:#000000;stroke-width:0.3;stroke-opacity:1;marker-end:url(#TriangleStart)"
       d="m 70.114585,158.75 h 9.260417"
       id="path7488" />
    <g
       inkscape:label=""
       transform="translate(79.83244,157.7082)"
       id="g9034">
      <g
         fill="#000000"
         fill-opacity="1"
         id="g19"
         transform="matrix(0.352778,0,0,0.352778,-76.8576,-3.23863)">
        <g
           id="use17"
           transform="translate(217.536,14.446)">
          <path
             d="m 5.671875,-4.875 c -0.390625,0.0625 -0.53125,0.359375 -0.53125,0.578125 0,0.296875 0.21875,0.390625 0.390625,0.390625 0.359375,0 0.609375,-0.3125 0.609375,-0.640625 0,-0.5 -0.578125,-0.71875 -1.078125,-0.71875 -0.71875,0 -1.125,0.71875 -1.234375,0.9375 -0.28125,-0.890625 -1.015625,-0.9375 -1.234375,-0.9375 -1.21875,0 -1.859375,1.5625 -1.859375,1.828125 0,0.046875 0.046875,0.109375 0.125,0.109375 0.09375,0 0.125,-0.078125 0.140625,-0.125 0.40625,-1.328125 1.21875,-1.578125 1.5625,-1.578125 0.53125,0 0.640625,0.5 0.640625,0.78125 0,0.265625 -0.078125,0.546875 -0.21875,1.125 L 2.578125,-1.5 c -0.171875,0.71875 -0.515625,1.375 -1.15625,1.375 -0.0625,0 -0.359375,0 -0.609375,-0.15625 C 1.25,-0.359375 1.34375,-0.71875 1.34375,-0.859375 1.34375,-1.09375 1.15625,-1.25 0.9375,-1.25 c -0.296875,0 -0.609375,0.265625 -0.609375,0.640625 0,0.5 0.5625,0.734375 1.078125,0.734375 0.578125,0 0.984375,-0.453125 1.234375,-0.953125 C 2.828125,-0.125 3.4375,0.125 3.875,0.125 5.09375,0.125 5.734375,-1.453125 5.734375,-1.703125 5.734375,-1.765625 5.6875,-1.8125 5.625,-1.8125 5.515625,-1.8125 5.5,-1.75 5.46875,-1.65625 5.140625,-0.609375 4.453125,-0.125 3.90625,-0.125 3.484375,-0.125 3.265625,-0.4375 3.265625,-0.921875 3.265625,-1.1875 3.3125,-1.375 3.5,-2.15625 L 3.921875,-3.796875 C 4.09375,-4.5 4.5,-5.03125 5.0625,-5.03125 c 0.015625,0 0.359375,0 0.609375,0.15625 z m 0,0"
             id="path31" />
        </g>
      </g>
      <g
         clip-path="url(#clipPath586)"
         id="g25"
         transform="matrix(0.352778,0,0,0.352778,-76.8576,-3.23863)">
        <g
           fill="#000000"
           fill-opacity="1"
           id="g23">
          <g
             id="use21"
             transform="translate(224.188,16.239)">
            <path
               d="m 2.5,-5.078125 c 0,-0.21875 -0.015625,-0.21875 -0.234375,-0.21875 -0.328125,0.3125 -0.75,0.5 -1.5,0.5 v 0.265625 c 0.21875,0 0.640625,0 1.109375,-0.203125 v 4.078125 c 0,0.296875 -0.03125,0.390625 -0.78125,0.390625 H 0.8125 V 0 c 0.328125,-0.03125 1.015625,-0.03125 1.375,-0.03125 0.359375,0 1.046875,0 1.375,0.03125 V -0.265625 H 3.28125 c -0.75,0 -0.78125,-0.09375 -0.78125,-0.390625 z m 0,0"
               id="path35" />
          </g>
        </g>
      </g>
    </g>
    <g
       inkscape:label=""
       transform="translate(74.171459,151.80469)"
       id="g9437">
      <g
         fill="#000000"
         fill-opacity="1"
         id="g9427"
         transform="matrix(0.352778,0,0,0.352778,-76.8576,-3.23863)">
        <g
           id="g9425"
           transform="translate(217.536,14.446)">
          <path
             d="m 5.671875,-4.875 c -0.390625,0.0625 -0.53125,0.359375 -0.53125,0.578125 0,0.296875 0.21875,0.390625 0.390625,0.390625 0.359375,0 0.609375,-0.3125 0.609375,-0.640625 0,-0.5 -0.578125,-0.71875 -1.078125,-0.71875 -0.71875,0 -1.125,0.71875 -1.234375,0.9375 -0.28125,-0.890625 -1.015625,-0.9375 -1.234375,-0.9375 -1.21875,0 -1.859375,1.5625 -1.859375,1.828125 0,0.046875 0.046875,0.109375 0.125,0.109375 0.09375,0 0.125,-0.078125 0.140625,-0.125 0.40625,-1.328125 1.21875,-1.578125 1.5625,-1.578125 0.53125,0 0.640625,0.5 0.640625,0.78125 0,0.265625 -0.078125,0.546875 -0.21875,1.125 L 2.578125,-1.5 c -0.171875,0.71875 -0.515625,1.375 -1.15625,1.375 -0.0625,0 -0.359375,0 -0.609375,-0.15625 C 1.25,-0.359375 1.34375,-0.71875 1.34375,-0.859375 1.34375,-1.09375 1.15625,-1.25 0.9375,-1.25 c -0.296875,0 -0.609375,0.265625 -0.609375,0.640625 0,0.5 0.5625,0.734375 1.078125,0.734375 0.578125,0 0.984375,-0.453125 1.234375,-0.953125 C 2.828125,-0.125 3.4375,0.125 3.875,0.125 5.09375,0.125 5.734375,-1.453125 5.734375,-1.703125 5.734375,-1.765625 5.6875,-1.8125 5.625,-1.8125 5.515625,-1.8125 5.5,-1.75 5.46875,-1.65625 5.140625,-0.609375 4.453125,-0.125 3.90625,-0.125 3.484375,-0.125 3.265625,-0.4375 3.265625,-0.921875 3.265625,-1.1875 3.3125,-1.375 3.5,-2.15625 L 3.921875,-3.796875 C 4.09375,-4.5 4.5,-5.03125 5.0625,-5.03125 c 0.015625,0 0.359375,0 0.609375,0.15625 z m 0,0"
             id="path9423" />
        </g>
      </g>
      <g
         clip-path="url(#clipPath6946)"
         id="g9435"
         transform="matrix(0.352778,0,0,0.352778,-76.8576,-3.23863)">
        <g
           fill="#000000"
           fill-opacity="1"
           id="g9433">
          <g
             id="g9431"
             transform="translate(224.188,16.239)">
            <path
               d="m 2.25,-1.625 c 0.125,-0.125 0.453125,-0.390625 0.59375,-0.5 0.484375,-0.453125 0.953125,-0.890625 0.953125,-1.609375 0,-0.953125 -0.796875,-1.5625 -1.78125,-1.5625 -0.96875,0 -1.59375,0.71875 -1.59375,1.4375 0,0.390625 0.3125,0.4375 0.421875,0.4375 0.171875,0 0.421875,-0.109375 0.421875,-0.421875 0,-0.40625 -0.40625,-0.40625 -0.5,-0.40625 C 1,-4.84375 1.53125,-5.03125 1.921875,-5.03125 c 0.734375,0 1.125,0.625 1.125,1.296875 0,0.828125 -0.578125,1.4375 -1.53125,2.390625 l -1,1.046875 C 0.421875,-0.21875 0.421875,-0.203125 0.421875,0 H 3.5625 l 0.234375,-1.421875 h -0.25 C 3.53125,-1.265625 3.46875,-0.875 3.375,-0.71875 c -0.046875,0.0625 -0.65625,0.0625 -0.78125,0.0625 H 1.171875 Z m 0,0"
               id="path9429" />
          </g>
        </g>
      </g>
    </g>
    <g
       inkscape:label=""
       transform="translate(102.96697,157.26723)"
       id="g9850">
      <g
         clip-path="url(#clipPath6513)"
         id="g17"
         transform="matrix(0.352778,0,0,0.352778,-77.9216,-2.29054)">
        <g
           fill="#000000"
           fill-opacity="1"
           id="g15">
          <g
             id="use13"
             transform="translate(220.302,14.446)">
            <path
               d="M 5.265625,-2.015625 H 5 c -0.046875,0.203125 -0.140625,0.875 -0.25,1.0625 C 4.65625,-0.84375 3.984375,-0.84375 3.625,-0.84375 H 1.40625 c 0.328125,-0.28125 1.0625,-1.046875 1.359375,-1.328125 1.828125,-1.671875 2.5,-2.296875 2.5,-3.484375 0,-1.375 -1.09375,-2.296875 -2.484375,-2.296875 -1.375,0 -2.203125,1.1875 -2.203125,2.21875 0,0.609375 0.53125,0.609375 0.5625,0.609375 0.265625,0 0.5625,-0.1875 0.5625,-0.5625 0,-0.34375 -0.21875,-0.5625 -0.5625,-0.5625 -0.09375,0 -0.125,0 -0.15625,0.015625 0.21875,-0.8125 0.875,-1.375 1.640625,-1.375 1.015625,0 1.640625,0.859375 1.640625,1.953125 C 4.265625,-4.640625 3.6875,-3.75 3,-2.984375 L 0.578125,-0.28125 V 0 h 4.375 z m 0,0"
               id="path23" />
          </g>
        </g>
      </g>
    </g>
    <g
       inkscape:label=""
       transform="translate(72.012525,174.46539)"
       id="g10278">
      <g
         clip-path="url(#clipPath3824)"
         id="g10276"
         transform="matrix(0.352778,0,0,0.352778,-77.9216,-2.29054)">
        <g
           fill="#000000"
           fill-opacity="1"
           id="g10274">
          <g
             id="g10272"
             transform="translate(220.302,14.446)">
            <path
               d="M 5.265625,-2.015625 H 5 c -0.046875,0.203125 -0.140625,0.875 -0.25,1.0625 C 4.65625,-0.84375 3.984375,-0.84375 3.625,-0.84375 H 1.40625 c 0.328125,-0.28125 1.0625,-1.046875 1.359375,-1.328125 1.828125,-1.671875 2.5,-2.296875 2.5,-3.484375 0,-1.375 -1.09375,-2.296875 -2.484375,-2.296875 -1.375,0 -2.203125,1.1875 -2.203125,2.21875 0,0.609375 0.53125,0.609375 0.5625,0.609375 0.265625,0 0.5625,-0.1875 0.5625,-0.5625 0,-0.34375 -0.21875,-0.5625 -0.5625,-0.5625 -0.09375,0 -0.125,0 -0.15625,0.015625 0.21875,-0.8125 0.875,-1.375 1.640625,-1.375 1.015625,0 1.640625,0.859375 1.640625,1.953125 C 4.265625,-4.640625 3.6875,-3.75 3,-2.984375 L 0.578125,-0.28125 V 0 h 4.375 z m 0,0"
               id="path10270" />
          </g>
        </g>
      </g>
    </g>
  </g>
</svg>
