<?xml version="1.0" encoding="UTF-8" standalone="no"?>
<!-- Created with Inkscape (http://www.inkscape.org/) -->

<svg
   width="152.39999mm"
   height="150.01875mm"
   viewBox="0 0 152.39999 150.01875"
   version="1.1"
   id="svg5398"
   inkscape:version="1.2.1 (9c6d41e410, 2022-07-14)"
   sodipodi:docname="desenho.svg"
   xmlns:inkscape="http://www.inkscape.org/namespaces/inkscape"
   xmlns:sodipodi="http://sodipodi.sourceforge.net/DTD/sodipodi-0.dtd"
   xmlns="http://www.w3.org/2000/svg"
   xmlns:svg="http://www.w3.org/2000/svg">
  <sodipodi:namedview
     id="namedview5400"
     pagecolor="#ffffff"
     bordercolor="#000000"
     borderopacity="0.25"
     inkscape:showpageshadow="2"
     inkscape:pageopacity="0.0"
     inkscape:pagecheckerboard="0"
     inkscape:deskcolor="#d1d1d1"
     inkscape:document-units="mm"
     showgrid="false"
     inkscape:lockguides="true"
     inkscape:zoom="0.74564394"
     inkscape:cx="466.04013"
     inkscape:cy="399.65456"
     inkscape:window-width="1920"
     inkscape:window-height="1017"
     inkscape:window-x="1912"
     inkscape:window-y="-8"
     inkscape:window-maximized="1"
     inkscape:current-layer="layer1" />
  <defs
     id="defs5395">
    <clipPath
       id="clip0">
      <rect
         x="888"
         y="0"
         width="576"
         height="567"
         id="rect5519" />
    </clipPath>
    <clipPath
       id="clip1">
      <rect
         x="888"
         y="0"
         width="576"
         height="566"
         id="rect5522" />
    </clipPath>
    <clipPath
       id="clip2">
      <rect
         x="888"
         y="0"
         width="576"
         height="566"
         id="rect5525" />
    </clipPath>
    <clipPath
       id="clip3">
      <rect
         x="888"
         y="0"
         width="576"
         height="566"
         id="rect5528" />
    </clipPath>
    <clipPath
       id="clip4">
      <rect
         x="888"
         y="0"
         width="576"
         height="566"
         id="rect5531" />
    </clipPath>
    <clipPath
       id="clip5">
      <rect
         x="888"
         y="0"
         width="576"
         height="566"
         id="rect5534" />
    </clipPath>
    <clipPath
       id="clip6">
      <rect
         x="888"
         y="0"
         width="576"
         height="566"
         id="rect5537" />
    </clipPath>
    <clipPath
       id="clip7">
      <rect
         x="888"
         y="0"
         width="576"
         height="566"
         id="rect5540" />
    </clipPath>
    <clipPath
       id="clip8">
      <rect
         x="908"
         y="14"
         width="539"
         height="539"
         id="rect5543" />
    </clipPath>
    <clipPath
       id="clip9">
      <rect
         x="908"
         y="14"
         width="539"
         height="539"
         id="rect5546" />
    </clipPath>
    <clipPath
       id="clip10">
      <rect
         x="908"
         y="14"
         width="539"
         height="539"
         id="rect5549" />
    </clipPath>
    <clipPath
       id="clip11">
      <rect
         x="908"
         y="14"
         width="539"
         height="539"
         id="rect5552" />
    </clipPath>
    <clipPath
       id="clip12">
      <rect
         x="908"
         y="14"
         width="539"
         height="539"
         id="rect5555" />
    </clipPath>
    <clipPath
       id="clip13">
      <rect
         x="908"
         y="14"
         width="539"
         height="539"
         id="rect5558" />
    </clipPath>
    <clipPath
       id="clip14">
      <rect
         x="888"
         y="0"
         width="576"
         height="566"
         id="rect5561" />
    </clipPath>
    <clipPath
       id="clip15">
      <rect
         x="888"
         y="0"
         width="576"
         height="566"
         id="rect5564" />
    </clipPath>
    <clipPath
       id="clip16">
      <rect
         x="888"
         y="0"
         width="576"
         height="566"
         id="rect5567" />
    </clipPath>
    <clipPath
       id="clip17">
      <rect
         x="888"
         y="0"
         width="576"
         height="566"
         id="rect5570" />
    </clipPath>
    <clipPath
       id="clip18">
      <rect
         x="888"
         y="0"
         width="576"
         height="566"
         id="rect5573" />
    </clipPath>
    <clipPath
       id="clip19">
      <rect
         x="888"
         y="0"
         width="576"
         height="566"
         id="rect5576" />
    </clipPath>
    <clipPath
       id="clip20">
      <rect
         x="888"
         y="0"
         width="576"
         height="566"
         id="rect5579" />
    </clipPath>
    <clipPath
       id="clip21">
      <rect
         x="888"
         y="0"
         width="576"
         height="566"
         id="rect5582" />
    </clipPath>
    <clipPath
       id="clip22">
      <rect
         x="888"
         y="0"
         width="576"
         height="566"
         id="rect5585" />
    </clipPath>
    <clipPath
       id="clip23">
      <rect
         x="888"
         y="0"
         width="576"
         height="566"
         id="rect5588" />
    </clipPath>
    <clipPath
       id="clip24">
      <rect
         x="888"
         y="0"
         width="576"
         height="566"
         id="rect5591" />
    </clipPath>
    <clipPath
       id="clip25">
      <rect
         x="888"
         y="0"
         width="576"
         height="566"
         id="rect5594" />
    </clipPath>
    <clipPath
       id="clip26">
      <rect
         x="888"
         y="0"
         width="576"
         height="566"
         id="rect5597" />
    </clipPath>
    <clipPath
       id="clip27">
      <rect
         x="888"
         y="0"
         width="576"
         height="566"
         id="rect5600" />
    </clipPath>
    <clipPath
       id="clip28">
      <rect
         x="888"
         y="0"
         width="576"
         height="566"
         id="rect5603" />
    </clipPath>
    <clipPath
       id="clip29">
      <rect
         x="888"
         y="0"
         width="576"
         height="566"
         id="rect5606" />
    </clipPath>
    <clipPath
       id="clip30">
      <rect
         x="888"
         y="0"
         width="576"
         height="566"
         id="rect5609" />
    </clipPath>
    <clipPath
       id="clip31">
      <rect
         x="888"
         y="0"
         width="576"
         height="566"
         id="rect5612" />
    </clipPath>
    <clipPath
       id="clip32">
      <rect
         x="888"
         y="0"
         width="576"
         height="566"
         id="rect5615" />
    </clipPath>
    <clipPath
       id="clip33">
      <rect
         x="888"
         y="0"
         width="576"
         height="566"
         id="rect5618" />
    </clipPath>
    <clipPath
       id="clip34">
      <rect
         x="888"
         y="0"
         width="576"
         height="566"
         id="rect5621" />
    </clipPath>
    <clipPath
       id="clip35">
      <rect
         x="888"
         y="0"
         width="576"
         height="566"
         id="rect5624" />
    </clipPath>
    <clipPath
       id="clip36">
      <rect
         x="888"
         y="0"
         width="576"
         height="566"
         id="rect5627" />
    </clipPath>
    <clipPath
       id="clip37">
      <rect
         x="888"
         y="0"
         width="576"
         height="566"
         id="rect5630" />
    </clipPath>
  </defs>
  <g
     inkscape:label="Camada 1"
     inkscape:groupmode="layer"
     id="layer1"
     transform="translate(26.877423,-42.797078)">
    <g
       clip-path="url(#clip0)"
       transform="matrix(0.26458333,0,0,0.26458333,-261.82742,42.797078)"
       id="g5849">
      <rect
         x="888"
         y="0"
         width="576"
         height="567"
         fill="#ffffff"
         id="rect5635" />
      <g
         clip-path="url(#clip1)"
         id="g5639">
        <path
           d="m 908.5,552.5 h 538 m -538,-54 h 538 m -538,-54 h 538 m -538,-54 h 538 m -538,-53 h 538 m -538,-108 h 538 m -538,-54 h 538 m -538,-53 h 538 m -538,-53.9999 h 538 m -538,-54 h 538"
           stroke="#d9d9d9"
           stroke-linejoin="round"
           stroke-miterlimit="10"
           fill="none"
           id="path5637" />
      </g>
      <g
         clip-path="url(#clip2)"
         id="g5643">
        <path
           d="M 908.5,14.5001 V 552.5 m 53,-537.9999 V 552.5 m 54,-537.9999 V 552.5 m 54,-537.9999 V 552.5 m 54,-537.9999 V 552.5 m 108,-537.9999 V 552.5 m 53,-537.9999 V 552.5 m 54,-537.9999 V 552.5 m 54,-537.9999 V 552.5 m 54,-537.9999 V 552.5"
           stroke="#d9d9d9"
           stroke-linejoin="round"
           stroke-miterlimit="10"
           fill="none"
           id="path5641" />
      </g>
      <g
         clip-path="url(#clip3)"
         id="g5647">
        <rect
           x="908.5"
           y="14.5001"
           width="538"
           height="538"
           stroke="#000000"
           stroke-width="1.33333"
           stroke-linejoin="round"
           stroke-miterlimit="10"
           fill="none"
           id="rect5645" />
      </g>
      <g
         clip-path="url(#clip4)"
         id="g5651">
        <path
           d="M 0,0 1.04987e-4,538"
           stroke="#000000"
           stroke-linejoin="round"
           stroke-miterlimit="10"
           fill="none"
           fill-rule="evenodd"
           transform="matrix(1,0,0,-1,1177.5,552.5)"
           id="path5649" />
      </g>
      <g
         clip-path="url(#clip5)"
         id="g5655">
        <path
           d="m 1177.5,552.5 h 2 m -2,-11 h 2 m -2,-11 h 2 m -2,-10 h 2 m -2,-11 h 2 m -2,-11 h 2 m -2,-11 h 2 m -2,-11 h 2 m -2,-10 h 2 m -2,-11 h 2 m -2,-11 h 2 m -2,-11 h 2 m -2,-10 h 2 m -2,-11 h 2 m -2,-11 h 2 m -2,-11 h 2 m -2,-10 h 2 m -2,-11 h 2 m -2,-11 h 2 m -2,-11 h 2 m -2,-10 h 2 m -2,-11 h 2 m -2,-11 h 2 m -2,-11 h 2 m -2,-10 h 2 m -2,-11 h 2 m -2,-11 h 2 m -2,-11 h 2 m -2,-10 h 2 m -2,-11 h 2 m -2,-11 h 2 m -2,-11 h 2 m -2,-10 h 2 m -2,-11 h 2 m -2,-11 h 2 m -2,-11 h 2 m -2,-10 h 2 m -2,-11 h 2 m -2,-11 h 2 m -2,-11 h 2 m -2,-10 h 2 m -2,-11 h 2 m -2,-11 h 2 m -2,-10.9999 h 2 m -2,-10 h 2 m -2,-11 h 2 m -2,-11 h 2 m -2,-11.0001 h 2 m -2,-9.9999 h 2 m -2,-11 h 2 m -2,-11 h 2 m -6,537.9999 h 7 m -7,-54 h 7 m -7,-54 h 7 m -7,-54 h 7 m -7,-53 h 7 m -7,-54 h 7 m -7,-54 h 7 m -7,-54 h 7 m -7,-53 h 7 m -7,-53.9999 h 7 m -7,-54 h 7"
           stroke="#000000"
           stroke-linejoin="round"
           stroke-miterlimit="10"
           fill="none"
           id="path5653" />
      </g>
      <g
         clip-path="url(#clip6)"
         id="g5659">
        <path
           d="m 908.5,283.5 h 538"
           stroke="#000000"
           stroke-linejoin="round"
           stroke-miterlimit="10"
           fill="none"
           fill-rule="evenodd"
           id="path5657" />
      </g>
      <g
         clip-path="url(#clip7)"
         id="g5663">
        <path
           d="m 908.5,280.5 v 3 m 10,-3 v 3 m 11,-3 v 3 m 11,-3 v 3 m 11,-3 v 3 m 10,-3 v 3 m 11,-3 v 3 m 11,-3 v 3 m 11,-3 v 3 m 10,-3 v 3 m 11,-3 v 3 m 11,-3 v 3 m 11,-3 v 3 m 10,-3 v 3 m 11,-3 v 3 m 11,-3 v 3 m 11,-3 v 3 m 11,-3 v 3 m 10,-3 v 3 m 11,-3 v 3 m 11,-3 v 3 m 11,-3 v 3 m 10,-3 v 3 m 11,-3 v 3 m 11,-3 v 3 m 11,-3 v 3 m 10,-3 v 3 m 11,-3 v 3 m 11,-3 v 3 m 11,-3 v 3 m 11,-3 v 3 m 10,-3 v 3 m 11,-3 v 3 m 11,-3 v 3 m 11,-3 v 3 m 10,-3 v 3 m 11,-3 v 3 m 11,-3 v 3 m 11,-3 v 3 m 10,-3 v 3 m 11,-3 v 3 m 11,-3 v 3 m 11,-3 v 3 m 11,-3 v 3 m 10,-3 v 3 m 11,-3 v 3 m 11,-3 v 3 m 11,-3 v 3 m 10,-3 v 3 m 11,-3 v 3 m 11,-3 v 3 m -538,-4 v 8 m 53,-8 v 8 m 54,-8 v 8 m 54,-8 v 8 m 54,-8 v 8 m 54,-8 v 8 m 54,-8 v 8 m 53,-8 v 8 m 54,-8 v 8 m 54,-8 v 8 m 54,-8 v 8"
           stroke="#000000"
           stroke-linejoin="round"
           stroke-miterlimit="10"
           fill="none"
           id="path5661" />
      </g>
      <g
         clip-path="url(#clip8)"
         id="g5667">
        <path
           d="m 1177,552 -27,-5 -17,-5 -11,-6 -8,-5 -7,-6 -5,-5 -3,-5 -1,-6 v -5 l 2,-5 2,-6 3,-5 2,-6 2,-5 2,-5 1,-6 2,-5 1,-6 2,-5 1,-5 2,-6 2,-5 1,-5 2,-6 2,-5 1,-6 2,-5 2,-5 1,-6 2,-5 2,-5 2,-6 2,-5 1,-6 2,-5 2,-5 2,-6 2,-5 1,-5 2,-6 2,-5 2,-6 2,-5 2,-5 1,-6 2,-5 2,-5 2,-6 2,-5 2,-6 2,-5 2,-5 2,-6 2,-5 1,-5 2,-6 2,-5 2,-6 2,-5 2,-5 2,-6 2,-5 2,-5 2,-6 2,-5 2,-6 2,-5 2,-5 2,-6 2,-5 2,-5 2,-6 3,-5 2,-6 2,-5 2,-5 2,-6 2,-5 3,-5 2,-6 2,-5 2,-6 3,-5 2,-5 2,-6 3,-5 2,-5 3,-6 2,-5 3,-6 2,-5 3,-5 1,-6 1,-5 v -5 l -2,-6 -3,-5 7,-6 56,-5 124,-5"
           stroke="#70ad47"
           stroke-width="2"
           stroke-linecap="round"
           stroke-linejoin="round"
           stroke-miterlimit="10"
           fill="none"
           id="path5665" />
      </g>
      <g
         clip-path="url(#clip9)"
         id="g5671">
        <path
           d="m 908,283 5,-28 6,-18 5,-11 6,-7 5,-7 5,-4 6,-3 5,-2 5,1 6,1 5,1 6,2 5,3 5,2 6,2 5,2 6,1 5,2 5,2 6,2 5,2 5,1 6,2 5,2 6,2 5,2 5,2 6,1 5,2 6,2 5,2 5,2 6,2 5,2 5,2 6,2 5,2 6,1 5,2 5,2 6,2 5,2 6,2 5,2 5,2 6,2 5,2 5,2 6,2 5,2 6,2 5,2 5,1 6,2 5,2 5,2 6,2 5,2 6,2 5,2 5,2 6,2 5,2 6,2 5,2 5,2 6,2 5,2 5,2 6,2 5,2 6,2 5,2 5,2 6,3 5,2 6,2 5,2 5,2 6,2 5,2 5,2 6,2 5,2 6,2 5,3 5,2 6,2 5,2 6,2 5,1 5,1 6,2 5,6 5,8 6,7 5,-5 6,-25 5,-42 5,-32"
           stroke="#70ad47"
           stroke-width="2"
           stroke-linecap="round"
           stroke-linejoin="round"
           stroke-miterlimit="10"
           fill="none"
           id="path5669" />
      </g>
      <g
         clip-path="url(#clip10)"
         id="g5675">
        <path
           d="m 1177,552 -24,-2 -19,-3 -13,-3 -11,-2 -11,-3 -9,-3 -8,-3 -6,-2 -5,-3 -3,-3 -1,-2 1,-3 1,-3 2,-2 2,-3 2,-3 1,-2 2,-3 1,-3 2,-2 1,-3 1,-3 1,-3 1,-2 1,-3 1,-3 1,-2 1,-3 1,-3 1,-2 1,-3 1,-3 1,-2 1,-3 1,-3 1,-3 1,-2 1,-3 1,-3 1,-2 1,-3 1,-3 1,-2 1,-3 1,-3 2,-2 1,-3 1,-3 1,-2 1,-3 1,-3 1,-3 1,-2 1,-3 1,-3 1,-2 2,-3 1,-3 1,-2 1,-3 1,-3 1,-2 1,-3 2,-3 1,-2 1,-3 1,-3 1,-3 1,-2 1,-3 2,-3 1,-2 1,-3 1,-3 1,-2 1,-3 2,-3 1,-2 1,-3 1,-3 1,-2 1,-3 2,-3 1,-3 1,-2 1,-3 1,-3 2,-2 1,-3 1,-3 1,-2 1,-3 2,-3 1,-2 1,-3 1,-3 1,-2 2,-3 1,-3 1,-3 1,-2 2,-3 1,-3 1,-2 1,-3 2,-3 1,-2 1,-3 1,-3 1,-2 2,-3 1,-3 1,-2 1,-3 2,-3 1,-3 1,-2 2,-3 1,-3 1,-2 1,-3 2,-3 1,-2 1,-3 1,-3 2,-2 1,-3 1,-3 2,-2 1,-3 1,-3 2,-3 1,-2 1,-3 1,-3 2,-2 1,-3 1,-3 2,-2 1,-3 1,-3 2,-2 1,-3 2,-3 1,-2 1,-3 2,-3 1,-3 1,-2 2,-3 1,-3 2,-2 1,-3 1,-3 2,-2 1,-3 2,-3 1,-2 2,-3 1,-3 1,-3 2,-2 1,-3 2,-3 1,-2 2,-3 1,-3 2,-2 1,-3 2,-3 2,-2 1,-3 2,-3 1,-2 2,-3 1,-3 2,-3 2,-2 1,-3 2,-3 2,-2 1,-3 2,-3 2,-2 2,-3 2,-3 1,-2 2,-3 1,-3 2,-2 v -3 -3 -3 l -1,-2 -2,-3 2,-3 9,-2 26,-3 51,-3 64,-2"
           stroke="#ffc000"
           stroke-width="2"
           stroke-linecap="round"
           stroke-linejoin="round"
           stroke-miterlimit="10"
           fill="none"
           id="path5673" />
      </g>
      <g
         clip-path="url(#clip11)"
         id="g5679">
        <path
           d="m 908,283 3,-26 2,-22 3,-16 3,-12 2,-8 3,-7 3,-6 3,-4 2,-4 3,-3 3,-2 h 2 3 3 l 2,1 3,2 3,1 2,2 3,1 3,2 3,1 2,1 3,2 3,1 2,1 3,2 3,1 2,1 3,1 3,1 2,2 3,1 3,1 3,1 2,1 3,2 3,1 2,1 3,1 3,1 2,2 3,1 3,1 2,1 3,2 3,1 3,1 2,1 3,1 3,2 2,1 3,1 3,1 2,1 3,2 3,1 2,1 3,1 3,2 3,1 2,1 3,1 3,2 2,1 3,1 3,1 2,1 3,2 3,1 2,1 3,1 3,2 3,1 2,1 3,1 3,2 2,1 3,1 3,1 2,2 3,1 3,1 2,1 3,2 3,1 3,1 2,1 3,2 3,1 2,1 3,1 3,2 2,1 3,1 3,2 2,1 3,1 3,1 2,2 3,1 3,1 3,1 2,2 3,1 3,1 2,1 3,2 3,1 2,1 3,2 3,1 2,1 3,1 3,2 3,1 2,1 3,2 3,1 2,1 3,1 3,2 2,1 3,1 3,2 2,1 3,1 3,1 3,2 2,1 3,1 3,2 2,1 3,1 3,1 2,2 3,1 3,1 2,2 3,1 3,1 3,2 2,1 3,1 3,2 2,1 3,1 3,2 2,1 3,1 3,2 2,1 3,1 3,2 3,1 2,1 3,2 3,1 2,1 3,2 3,1 2,1 3,2 3,1 2,1 3,2 3,1 3,1 2,2 3,1 3,1 2,2 3,1 3,2 2,1 3,1 3,2 2,1 3,2 3,1 3,1 2,2 3,1 3,1 2,1 3,1 3,1 2,2 3,2 3,3 2,5 3,6 3,7 3,5 2,-1 3,-10 3,-20 2,-29 3,-33 3,-28 2,-19"
           stroke="#ffc000"
           stroke-width="2"
           stroke-linecap="round"
           stroke-linejoin="round"
           stroke-miterlimit="10"
           fill="none"
           id="path5677" />
      </g>
      <g
         clip-path="url(#clip12)"
         id="g5683">
        <path
           d="m 1177,552 -23,-2 -17,-3 -13,-3 -11,-2 -9,-3 -9,-3 -8,-3 -6,-2 -5,-3 -3,-3 -1,-2 -1,-3 1,-3 2,-2 2,-3 2,-3 2,-2 1,-3 2,-3 1,-2 1,-3 1,-3 1,-3 1,-2 1,-3 1,-3 1,-2 1,-3 1,-3 1,-2 1,-3 1,-3 1,-2 1,-3 1,-3 1,-3 1,-2 1,-3 1,-3 1,-2 1,-3 1,-3 1,-2 1,-3 1,-3 1,-2 1,-3 1,-3 1,-2 1,-3 1,-3 1,-3 1,-2 1,-3 2,-3 1,-2 1,-3 1,-3 1,-2 1,-3 1,-3 1,-2 1,-3 1,-3 1,-2 1,-3 2,-3 1,-3 1,-2 1,-3 1,-3 1,-2 1,-3 1,-3 1,-2 2,-3 1,-3 1,-2 1,-3 1,-3 1,-2 1,-3 2,-3 1,-3 1,-2 1,-3 1,-3 1,-2 2,-3 1,-3 1,-2 1,-3 1,-3 1,-2 2,-3 1,-3 1,-2 1,-3 1,-3 1,-3 2,-2 1,-3 1,-3 1,-2 1,-3 2,-3 1,-2 1,-3 1,-3 1,-2 2,-3 1,-3 1,-2 1,-3 1,-3 2,-3 1,-2 1,-3 1,-3 1,-2 2,-3 1,-3 1,-2 1,-3 2,-3 1,-2 1,-3 1,-3 2,-2 1,-3 1,-3 1,-3 2,-2 1,-3 1,-3 1,-2 2,-3 1,-3 1,-2 1,-3 2,-3 1,-2 1,-3 2,-3 1,-2 1,-3 2,-3 1,-3 1,-2 2,-3 1,-3 1,-2 2,-3 1,-3 1,-2 2,-3 1,-3 1,-2 2,-3 1,-3 2,-3 1,-2 1,-3 2,-3 1,-2 2,-3 1,-3 2,-2 1,-3 2,-3 1,-2 2,-3 1,-3 2,-2 1,-3 2,-3 1,-3 2,-2 2,-3 1,-3 2,-2 2,-3 1,-3 2,-2 2,-3 2,-3 1,-2 2,-3 1,-3 1,-2 1,-3 v -3 l -1,-3 -1,-2 v -3 l 1,-3 9,-2 27,-3 51,-3 67,-2"
           stroke="#4472c4"
           stroke-width="2"
           stroke-linecap="round"
           stroke-linejoin="round"
           stroke-miterlimit="10"
           fill="none"
           id="path5681" />
      </g>
      <g
         clip-path="url(#clip13)"
         id="g5687">
        <path
           d="m 908,283 3,-24 2,-21 3,-16 3,-11 2,-8 3,-7 3,-5 3,-5 2,-4 3,-3 3,-1 2,-1 h 3 3 l 2,1 3,1 3,2 2,1 3,2 3,1 3,1 2,2 3,1 3,1 2,2 3,1 3,1 2,1 3,1 3,2 2,1 3,1 3,1 3,1 2,1 3,2 3,1 2,1 3,1 3,1 2,1 3,2 3,1 2,1 3,1 3,1 3,2 2,1 3,1 3,1 2,1 3,1 3,2 2,1 3,1 3,1 2,1 3,1 3,2 3,1 2,1 3,1 3,1 2,2 3,1 3,1 2,1 3,1 3,1 2,2 3,1 3,1 3,1 2,1 3,2 3,1 2,1 3,1 3,2 2,1 3,1 3,1 2,1 3,2 3,1 3,1 2,1 3,1 3,2 2,1 3,1 3,1 2,2 3,1 3,1 2,1 3,1 3,2 2,1 3,1 3,1 3,2 2,1 3,1 3,1 2,1 3,2 3,1 2,1 3,1 3,2 2,1 3,1 3,1 3,1 2,2 3,1 3,1 2,1 3,2 3,1 2,1 3,1 3,2 2,1 3,1 3,1 3,2 2,1 3,1 3,1 2,2 3,1 3,1 2,1 3,2 3,1 2,1 3,1 3,2 3,1 2,1 3,1 3,2 2,1 3,1 3,1 2,2 3,1 3,1 2,2 3,1 3,1 3,1 2,2 3,1 3,1 2,1 3,2 3,1 2,1 3,2 3,1 2,1 3,2 3,1 3,1 2,1 3,2 3,1 2,1 3,2 3,1 2,1 3,2 3,1 2,1 3,2 3,1 3,1 2,2 3,1 3,1 2,1 3,1 3,2 2,1 3,2 3,4 2,4 3,7 3,6 3,4 2,-2 3,-11 3,-20 2,-28 3,-31 3,-26 2,-17"
           stroke="#4472c4"
           stroke-width="2"
           stroke-linecap="round"
           stroke-linejoin="round"
           stroke-miterlimit="10"
           fill="none"
           id="path5685" />
      </g>
      <g
         clip-path="url(#clip14)"
         id="g5723">
        <path
           d="m 1446.5,11.5001 3,2.9998 -3,3 -3,-3 z"
           stroke="#000000"
           stroke-linejoin="round"
           stroke-miterlimit="10"
           id="path5689" />
        <path
           d="m 1304.5,24.5001 3,2.9998 -3,3 -3,-3 z"
           stroke="#000000"
           stroke-linejoin="round"
           stroke-miterlimit="10"
           id="path5691" />
        <path
           d="m 1305.5,28.5001 3,2.9998 -3,3 -3,-3 z"
           stroke="#000000"
           stroke-linejoin="round"
           stroke-miterlimit="10"
           id="path5693" />
        <path
           d="m 1306.5,32.5001 3,2.9998 -3,3 -3,-3 z"
           stroke="#000000"
           stroke-linejoin="round"
           stroke-miterlimit="10"
           id="path5695" />
        <path
           d="m 1305.5,36.5001 3,2.9998 -3,3 -3,-3 z"
           stroke="#000000"
           stroke-linejoin="round"
           stroke-miterlimit="10"
           id="path5697" />
        <path
           d="m 1270.5,91.5001 3,2.9998 -3,3 -3,-3 z"
           stroke="#000000"
           stroke-linejoin="round"
           stroke-miterlimit="10"
           id="path5699" />
        <path
           d="m 1232.5,154.5 3,3 -3,3 -3,-3 z"
           stroke="#000000"
           stroke-linejoin="round"
           stroke-miterlimit="10"
           id="path5701" />
        <path
           d="m 1199.5,217.5 3,3 -3,3 -3,-3 z"
           stroke="#000000"
           stroke-linejoin="round"
           stroke-miterlimit="10"
           id="path5703" />
        <path
           d="m 1168.5,280.5 3,3 -3,3 -3,-3 z"
           stroke="#000000"
           stroke-linejoin="round"
           stroke-miterlimit="10"
           id="path5705" />
        <path
           d="m 1156.5,305.5 3,3 -3,3 -3,-3 z"
           stroke="#000000"
           stroke-linejoin="round"
           stroke-miterlimit="10"
           id="path5707" />
        <path
           d="m 1114.5,398.5 3,3 -3,3 -3,-3 z"
           stroke="#000000"
           stroke-linejoin="round"
           stroke-miterlimit="10"
           id="path5709" />
        <path
           d="m 1089.5,456.5 3,3 -3,3 -3,-3 z"
           stroke="#000000"
           stroke-linejoin="round"
           stroke-miterlimit="10"
           id="path5711" />
        <path
           d="m 1074.5,494.5 3,3 -3,3 -3,-3 z"
           stroke="#000000"
           stroke-linejoin="round"
           stroke-miterlimit="10"
           id="path5713" />
        <path
           d="m 1065.5,511.5 3,3 -3,3 -3,-3 z"
           stroke="#000000"
           stroke-linejoin="round"
           stroke-miterlimit="10"
           id="path5715" />
        <path
           d="m 1062.5,515.5 3,3 -3,3 -3,-3 z"
           stroke="#000000"
           stroke-linejoin="round"
           stroke-miterlimit="10"
           id="path5717" />
        <path
           d="m 1062.5,519.5 3,3 -3,3 -3,-3 z"
           stroke="#000000"
           stroke-linejoin="round"
           stroke-miterlimit="10"
           id="path5719" />
        <path
           d="m 1177.5,549.5 3,3 -3,3 -3,-3 z"
           stroke="#000000"
           stroke-linejoin="round"
           stroke-miterlimit="10"
           id="path5721" />
      </g>
      <g
         clip-path="url(#clip15)"
         id="g5759">
        <path
           d="m 1446.5,280.5 3,3 -3,3 -3,-3 z"
           stroke="#000000"
           stroke-linejoin="round"
           stroke-miterlimit="10"
           id="path5725" />
        <path
           d="m 1429.5,426.5 3,3 -3,3 -3,-3 z"
           stroke="#000000"
           stroke-linejoin="round"
           stroke-miterlimit="10"
           id="path5727" />
        <path
           d="m 1425.5,422.5 3,3 -3,3 -3,-3 z"
           stroke="#000000"
           stroke-linejoin="round"
           stroke-miterlimit="10"
           id="path5729" />
        <path
           d="m 1421.5,412.5 3,3 -3,3 -3,-3 z"
           stroke="#000000"
           stroke-linejoin="round"
           stroke-miterlimit="10"
           id="path5731" />
        <path
           d="m 1416.5,403.5 3,3 -3,3 -3,-3 z"
           stroke="#000000"
           stroke-linejoin="round"
           stroke-miterlimit="10"
           id="path5733" />
        <path
           d="m 1395.5,392.5 3,3 -3,3 -3,-3 z"
           stroke="#000000"
           stroke-linejoin="round"
           stroke-miterlimit="10"
           id="path5735" />
        <path
           d="m 1370.5,379.5 3,3 -3,3 -3,-3 z"
           stroke="#000000"
           stroke-linejoin="round"
           stroke-miterlimit="10"
           id="path5737" />
        <path
           d="m 1341.5,363.5 3,3 -3,3 -3,-3 z"
           stroke="#000000"
           stroke-linejoin="round"
           stroke-miterlimit="10"
           id="path5739" />
        <path
           d="m 1177.5,278.5 3,3 -3,3 -3,-3 z"
           stroke="#000000"
           stroke-linejoin="round"
           stroke-miterlimit="10"
           id="path5741" />
        <path
           d="m 1034.5,207.5 3,3 -3,3 -3,-3 z"
           stroke="#000000"
           stroke-linejoin="round"
           stroke-miterlimit="10"
           id="path5743" />
        <path
           d="m 1029.5,205.5 3,3 -3,3 -3,-3 z"
           stroke="#000000"
           stroke-linejoin="round"
           stroke-miterlimit="10"
           id="path5745" />
        <path
           d="m 992.5,186.5 3,3 -3,3 -3,-3 z"
           stroke="#000000"
           stroke-linejoin="round"
           stroke-miterlimit="10"
           id="path5747" />
        <path
           d="m 958.5,168.5 3,3 -3,3 -3,-3 z"
           stroke="#000000"
           stroke-linejoin="round"
           stroke-miterlimit="10"
           id="path5749" />
        <path
           d="m 950.5,164.5 3,3 -3,3 -3,-3 z"
           stroke="#000000"
           stroke-linejoin="round"
           stroke-miterlimit="10"
           id="path5751" />
        <path
           d="m 945.5,162.5 3,3 -3,3 -3,-3 z"
           stroke="#000000"
           stroke-linejoin="round"
           stroke-miterlimit="10"
           id="path5753" />
        <path
           d="m 941.5,162.5 3,3 -3,3 -3,-3 z"
           stroke="#000000"
           stroke-linejoin="round"
           stroke-miterlimit="10"
           id="path5755" />
        <path
           d="m 908.5,280.5 3,3 -3,3 -3,-3 z"
           stroke="#000000"
           stroke-linejoin="round"
           stroke-miterlimit="10"
           id="path5757" />
      </g>
      <g
         clip-path="url(#clip16)"
         id="g5763">
        <text
           font-family="Arial, Arial_MSFontService, sans-serif"
           font-weight="400"
           font-size="12px"
           transform="translate(1156.2,556)"
           id="text5761">-1</text>
      </g>
      <g
         clip-path="url(#clip17)"
         id="g5767">
        <text
           font-family="Arial, Arial_MSFontService, sans-serif"
           font-weight="400"
           font-size="12px"
           transform="translate(1146.19,502)"
           id="text5765">-0.8</text>
      </g>
      <g
         clip-path="url(#clip18)"
         id="g5771">
        <text
           font-family="Arial, Arial_MSFontService, sans-serif"
           font-weight="400"
           font-size="12px"
           transform="translate(1146.19,449)"
           id="text5769">-0.6</text>
      </g>
      <g
         clip-path="url(#clip19)"
         id="g5775">
        <text
           font-family="Arial, Arial_MSFontService, sans-serif"
           font-weight="400"
           font-size="12px"
           transform="translate(1146.19,395)"
           id="text5773">-0.4</text>
      </g>
      <g
         clip-path="url(#clip20)"
         id="g5779">
        <text
           font-family="Arial, Arial_MSFontService, sans-serif"
           font-weight="400"
           font-size="12px"
           transform="translate(1146.19,341)"
           id="text5777">-0.2</text>
      </g>
      <g
         clip-path="url(#clip21)"
         id="g5783">
        <text
           font-family="Arial, Arial_MSFontService, sans-serif"
           font-weight="400"
           font-size="12px"
           transform="translate(1160.19,287)"
           id="text5781">0</text>
      </g>
      <g
         clip-path="url(#clip22)"
         id="g5787">
        <text
           font-family="Arial, Arial_MSFontService, sans-serif"
           font-weight="400"
           font-size="12px"
           transform="translate(1150.19,234)"
           id="text5785">0.2</text>
      </g>
      <g
         clip-path="url(#clip23)"
         id="g5791">
        <text
           font-family="Arial, Arial_MSFontService, sans-serif"
           font-weight="400"
           font-size="12px"
           transform="translate(1150.19,180)"
           id="text5789">0.4</text>
      </g>
      <g
         clip-path="url(#clip24)"
         id="g5795">
        <text
           font-family="Arial, Arial_MSFontService, sans-serif"
           font-weight="400"
           font-size="12px"
           transform="translate(1150.19,126)"
           id="text5793">0.6</text>
      </g>
      <g
         clip-path="url(#clip25)"
         id="g5799">
        <text
           font-family="Arial, Arial_MSFontService, sans-serif"
           font-weight="400"
           font-size="12px"
           transform="translate(1150.19,72)"
           id="text5797">0.8</text>
      </g>
      <g
         clip-path="url(#clip26)"
         id="g5803">
        <text
           font-family="Arial, Arial_MSFontService, sans-serif"
           font-weight="400"
           font-size="12px"
           transform="translate(1160.19,19)"
           id="text5801">1</text>
      </g>
      <g
         clip-path="url(#clip27)"
         id="g5807">
        <text
           font-family="Arial, Arial_MSFontService, sans-serif"
           font-weight="400"
           font-size="12px"
           transform="translate(902.667,302)"
           id="text5805">-1</text>
      </g>
      <g
         clip-path="url(#clip28)"
         id="g5811">
        <text
           font-family="Arial, Arial_MSFontService, sans-serif"
           font-weight="400"
           font-size="12px"
           transform="translate(951.501,302)"
           id="text5809">-0.8</text>
      </g>
      <g
         clip-path="url(#clip29)"
         id="g5815">
        <text
           font-family="Arial, Arial_MSFontService, sans-serif"
           font-weight="400"
           font-size="12px"
           transform="translate(1005.34,302)"
           id="text5813">-0.6</text>
      </g>
      <g
         clip-path="url(#clip30)"
         id="g5819">
        <text
           font-family="Arial, Arial_MSFontService, sans-serif"
           font-weight="400"
           font-size="12px"
           transform="translate(1059.18,302)"
           id="text5817">-0.4</text>
      </g>
      <g
         clip-path="url(#clip31)"
         id="g5823">
        <text
           font-family="Arial, Arial_MSFontService, sans-serif"
           font-weight="400"
           font-size="12px"
           transform="translate(1113.01,302)"
           id="text5821">-0.2</text>
      </g>
      <g
         clip-path="url(#clip32)"
         id="g5827">
        <text
           font-family="Arial, Arial_MSFontService, sans-serif"
           font-weight="400"
           font-size="12px"
           transform="translate(1173.85,302)"
           id="text5825">0</text>
      </g>
      <g
         clip-path="url(#clip33)"
         id="g5831">
        <text
           font-family="Arial, Arial_MSFontService, sans-serif"
           font-weight="400"
           font-size="12px"
           transform="translate(1222.68,302)"
           id="text5829">0.2</text>
      </g>
      <g
         clip-path="url(#clip34)"
         id="g5835">
        <text
           font-family="Arial, Arial_MSFontService, sans-serif"
           font-weight="400"
           font-size="12px"
           transform="translate(1276.52,302)"
           id="text5833">0.4</text>
      </g>
      <g
         clip-path="url(#clip35)"
         id="g5839">
        <text
           font-family="Arial, Arial_MSFontService, sans-serif"
           font-weight="400"
           font-size="12px"
           transform="translate(1330.36,302)"
           id="text5837">0.6</text>
      </g>
      <g
         clip-path="url(#clip36)"
         id="g5843">
        <text
           font-family="Arial, Arial_MSFontService, sans-serif"
           font-weight="400"
           font-size="12px"
           transform="translate(1384.2,302)"
           id="text5841">0.8</text>
      </g>
      <g
         clip-path="url(#clip37)"
         id="g5847">
        <text
           font-family="Arial, Arial_MSFontService, sans-serif"
           font-weight="400"
           font-size="12px"
           transform="translate(1443.04,302)"
           id="text5845">1</text>
      </g>
    </g>
  </g>
</svg>
