<?xml version="1.0" encoding="UTF-8" standalone="no"?>
<!-- Created with Inkscape (http://www.inkscape.org/) -->

<svg
   width="144.71362mm"
   height="144.36328mm"
   viewBox="0 0 144.71362 144.36328"
   version="1.1"
   id="svg17103"
   inkscape:version="1.2.1 (9c6d41e410, 2022-07-14)"
   sodipodi:docname="Re10000.svg"
   xmlns:inkscape="http://www.inkscape.org/namespaces/inkscape"
   xmlns:sodipodi="http://sodipodi.sourceforge.net/DTD/sodipodi-0.dtd"
   xmlns="http://www.w3.org/2000/svg"
   xmlns:svg="http://www.w3.org/2000/svg">
  <sodipodi:namedview
     id="namedview17105"
     pagecolor="#ffffff"
     bordercolor="#000000"
     borderopacity="0.25"
     inkscape:showpageshadow="2"
     inkscape:pageopacity="0.0"
     inkscape:pagecheckerboard="0"
     inkscape:deskcolor="#d1d1d1"
     inkscape:document-units="mm"
     showgrid="false"
     inkscape:zoom="0.74564394"
     inkscape:cx="278.95352"
     inkscape:cy="201.1684"
     inkscape:window-width="1920"
     inkscape:window-height="1017"
     inkscape:window-x="1912"
     inkscape:window-y="-8"
     inkscape:window-maximized="1"
     inkscape:current-layer="layer1" />
  <defs
     id="defs17100">
    <clipPath
       clipPathUnits="userSpaceOnUse"
       id="clipPath17686">
      <g
         id="g17690"
         transform="matrix(3.7795276,0,0,3.7795276,1057.2474,-349.50991)">
        <rect
           x="3.6387064"
           y="92.474495"
           width="152.39999"
           height="150.01875"
           id="rect17688"
           style="stroke-width:0.264583" />
      </g>
    </clipPath>
    <clipPath
       clipPathUnits="userSpaceOnUse"
       id="clipPath17692">
      <g
         id="g17696"
         transform="matrix(3.7795276,0,0,3.7795276,1057.2474,-349.50991)">
        <rect
           x="3.6387064"
           y="92.474495"
           width="152.39999"
           height="150.01875"
           id="rect17694"
           style="stroke-width:0.264583" />
      </g>
    </clipPath>
    <clipPath
       clipPathUnits="userSpaceOnUse"
       id="clipPath17698">
      <g
         id="g17702"
         transform="matrix(3.7795276,0,0,3.7795276,1057.2474,-349.50991)">
        <rect
           x="3.6387064"
           y="92.474495"
           width="152.39999"
           height="150.01875"
           id="rect17700"
           style="stroke-width:0.264583" />
      </g>
    </clipPath>
    <clipPath
       clipPathUnits="userSpaceOnUse"
       id="clipPath17704">
      <g
         id="g17708"
         transform="matrix(3.7795276,0,0,3.7795276,1057.2474,-349.50991)">
        <rect
           x="3.6387064"
           y="92.474495"
           width="152.39999"
           height="150.01875"
           id="rect17706"
           style="stroke-width:0.264583" />
      </g>
    </clipPath>
    <clipPath
       clipPathUnits="userSpaceOnUse"
       id="clipPath17710">
      <g
         id="g17714"
         transform="matrix(3.7795276,0,0,3.7795276,1057.2474,-349.50991)">
        <rect
           x="3.6387064"
           y="92.474495"
           width="152.39999"
           height="150.01875"
           id="rect17712"
           style="stroke-width:0.264583" />
      </g>
    </clipPath>
    <clipPath
       clipPathUnits="userSpaceOnUse"
       id="clipPath17716">
      <g
         id="g17720"
         transform="matrix(3.7795276,0,0,3.7795276,1057.2474,-349.50991)">
        <rect
           x="3.6387064"
           y="92.474495"
           width="152.39999"
           height="150.01875"
           id="rect17718"
           style="stroke-width:0.264583" />
      </g>
    </clipPath>
    <clipPath
       clipPathUnits="userSpaceOnUse"
       id="clipPath17722">
      <g
         id="g17726"
         transform="matrix(3.7795276,0,0,3.7795276,1057.2474,-349.50991)">
        <rect
           x="3.6387064"
           y="92.474495"
           width="152.39999"
           height="150.01875"
           id="rect17724"
           style="stroke-width:0.264583" />
      </g>
    </clipPath>
    <clipPath
       clipPathUnits="userSpaceOnUse"
       id="clipPath17728">
      <g
         id="g17732"
         transform="matrix(3.7795276,0,0,3.7795276,1057.2474,-349.50991)">
        <rect
           x="3.6387064"
           y="92.474495"
           width="152.39999"
           height="150.01875"
           id="rect17730"
           style="stroke-width:0.264583" />
      </g>
    </clipPath>
    <clipPath
       clipPathUnits="userSpaceOnUse"
       id="clipPath17734">
      <g
         id="g17738"
         transform="matrix(3.7795276,0,0,3.7795276,1057.2474,-349.50991)">
        <rect
           x="3.6387064"
           y="92.474495"
           width="152.39999"
           height="150.01875"
           id="rect17736"
           style="stroke-width:0.264583" />
      </g>
    </clipPath>
    <clipPath
       clipPathUnits="userSpaceOnUse"
       id="clipPath17740">
      <g
         id="g17744"
         transform="matrix(3.7795276,0,0,3.7795276,1057.2474,-349.50991)">
        <rect
           x="3.6387064"
           y="92.474495"
           width="152.39999"
           height="150.01875"
           id="rect17742"
           style="stroke-width:0.264583" />
      </g>
    </clipPath>
    <clipPath
       clipPathUnits="userSpaceOnUse"
       id="clipPath17746">
      <g
         id="g17750"
         transform="matrix(3.7795276,0,0,3.7795276,1057.2474,-349.50991)">
        <rect
           x="3.6387064"
           y="92.474495"
           width="152.39999"
           height="150.01875"
           id="rect17748"
           style="stroke-width:0.264583" />
      </g>
    </clipPath>
    <clipPath
       clipPathUnits="userSpaceOnUse"
       id="clipPath17752">
      <g
         id="g17756"
         transform="matrix(3.7795276,0,0,3.7795276,1057.2474,-349.50991)">
        <rect
           x="3.6387064"
           y="92.474495"
           width="152.39999"
           height="150.01875"
           id="rect17754"
           style="stroke-width:0.264583" />
      </g>
    </clipPath>
    <clipPath
       clipPathUnits="userSpaceOnUse"
       id="clipPath17758">
      <g
         id="g17762"
         transform="matrix(3.7795276,0,0,3.7795276,1057.2474,-349.50991)">
        <rect
           x="3.6387064"
           y="92.474495"
           width="152.39999"
           height="150.01875"
           id="rect17760"
           style="stroke-width:0.264583" />
      </g>
    </clipPath>
    <clipPath
       clipPathUnits="userSpaceOnUse"
       id="clipPath17764">
      <g
         id="g17768"
         transform="matrix(3.7795276,0,0,3.7795276,1057.2474,-349.50991)">
        <rect
           x="3.6387064"
           y="92.474495"
           width="152.39999"
           height="150.01875"
           id="rect17766"
           style="stroke-width:0.264583" />
      </g>
    </clipPath>
    <clipPath
       clipPathUnits="userSpaceOnUse"
       id="clipPath17770">
      <g
         id="g17774"
         transform="matrix(3.7795276,0,0,3.7795276,1057.2474,-349.50991)">
        <rect
           x="3.6387064"
           y="92.474495"
           width="152.39999"
           height="150.01875"
           id="rect17772"
           style="stroke-width:0.264583" />
      </g>
    </clipPath>
    <clipPath
       clipPathUnits="userSpaceOnUse"
       id="clipPath17776">
      <g
         id="g17780"
         transform="matrix(3.7795276,0,0,3.7795276,1057.2474,-349.50991)">
        <rect
           x="3.6387064"
           y="92.474495"
           width="152.39999"
           height="150.01875"
           id="rect17778"
           style="stroke-width:0.264583" />
      </g>
    </clipPath>
    <clipPath
       clipPathUnits="userSpaceOnUse"
       id="clipPath17782">
      <g
         id="g17786"
         transform="matrix(3.7795276,0,0,3.7795276,1057.2474,-349.50991)">
        <rect
           x="3.6387064"
           y="92.474495"
           width="152.39999"
           height="150.01875"
           id="rect17784"
           style="stroke-width:0.264583" />
      </g>
    </clipPath>
    <clipPath
       clipPathUnits="userSpaceOnUse"
       id="clipPath17788">
      <g
         id="g17792">
        <rect
           x="3.6387064"
           y="92.474495"
           width="152.39999"
           height="150.01875"
           id="rect17790"
           style="stroke-width:0.264583" />
      </g>
    </clipPath>
  </defs>
  <g
     inkscape:label="Camada 1"
     inkscape:groupmode="layer"
     id="layer1"
     transform="translate(-7.6209129,-95.219549)">
    <g
       id="g17233"
       transform="matrix(0.26458333,0,0,0.26458333,-279.73004,92.474497)"
       clip-path="url(#clipPath17782)">
      <path
         d="m 1091.5,552.5 h 538 m -538,-54 h 538 m -538,-54 h 538 m -538,-54 h 538 m -538,-53 h 538 m -538,-108 h 538 m -538,-54 h 538 m -538,-53 h 538 m -538,-53.9999 h 538 m -538,-54 h 538"
         stroke="#d9d9d9"
         stroke-linejoin="round"
         stroke-miterlimit="10"
         fill="none"
         id="path17231" />
    </g>
    <g
       id="g17237"
       transform="matrix(0.26458333,0,0,0.26458333,-279.73004,92.474497)"
       clip-path="url(#clipPath17776)">
      <path
         d="M 1091.5,14.5001 V 552.5 m 53,-537.9999 V 552.5 m 54,-537.9999 V 552.5 m 54,-537.9999 V 552.5 m 54,-537.9999 V 552.5 m 108,-537.9999 V 552.5 m 53,-537.9999 V 552.5 m 54,-537.9999 V 552.5 m 54,-537.9999 V 552.5 m 54,-537.9999 V 552.5"
         stroke="#d9d9d9"
         stroke-linejoin="round"
         stroke-miterlimit="10"
         fill="none"
         id="path17235" />
    </g>
    <g
       id="g17241"
       transform="matrix(0.26458333,0,0,0.26458333,-279.73004,92.474497)"
       clip-path="url(#clipPath17770)">
      <rect
         x="1091.5"
         y="14.5001"
         width="538"
         height="538"
         stroke="#000000"
         stroke-width="1.33333"
         stroke-linejoin="round"
         stroke-miterlimit="10"
         fill="none"
         id="rect17239" />
    </g>
    <g
       id="g17245"
       transform="matrix(0.26458333,0,0,0.26458333,-279.73004,92.474497)"
       clip-path="url(#clipPath17764)">
      <path
         d="M 0,0 1.04987e-4,538"
         stroke="#000000"
         stroke-linejoin="round"
         stroke-miterlimit="10"
         fill="none"
         fill-rule="evenodd"
         transform="matrix(1,0,0,-1,1360.5,552.5)"
         id="path17243" />
    </g>
    <g
       id="g17249"
       transform="matrix(0.26458333,0,0,0.26458333,-279.73004,92.474497)"
       clip-path="url(#clipPath17758)">
      <path
         d="m 1360.5,552.5 h 2 m -2,-11 h 2 m -2,-11 h 2 m -2,-10 h 2 m -2,-11 h 2 m -2,-11 h 2 m -2,-11 h 2 m -2,-11 h 2 m -2,-10 h 2 m -2,-11 h 2 m -2,-11 h 2 m -2,-11 h 2 m -2,-10 h 2 m -2,-11 h 2 m -2,-11 h 2 m -2,-11 h 2 m -2,-10 h 2 m -2,-11 h 2 m -2,-11 h 2 m -2,-11 h 2 m -2,-10 h 2 m -2,-11 h 2 m -2,-11 h 2 m -2,-11 h 2 m -2,-10 h 2 m -2,-11 h 2 m -2,-11 h 2 m -2,-11 h 2 m -2,-10 h 2 m -2,-11 h 2 m -2,-11 h 2 m -2,-11 h 2 m -2,-10 h 2 m -2,-11 h 2 m -2,-11 h 2 m -2,-11 h 2 m -2,-10 h 2 m -2,-11 h 2 m -2,-11 h 2 m -2,-11 h 2 m -2,-10 h 2 m -2,-11 h 2 m -2,-11 h 2 m -2,-10.9999 h 2 m -2,-10 h 2 m -2,-11 h 2 m -2,-11 h 2 m -2,-11.0001 h 2 m -2,-9.9999 h 2 m -2,-11 h 2 m -2,-11 h 2 m -6,537.9999 h 7 m -7,-54 h 7 m -7,-54 h 7 m -7,-54 h 7 m -7,-53 h 7 m -7,-54 h 7 m -7,-54 h 7 m -7,-54 h 7 m -7,-53 h 7 m -7,-53.9999 h 7 m -7,-54 h 7"
         stroke="#000000"
         stroke-linejoin="round"
         stroke-miterlimit="10"
         fill="none"
         id="path17247" />
    </g>
    <g
       id="g17253"
       transform="matrix(0.26458333,0,0,0.26458333,-279.73004,92.474497)"
       clip-path="url(#clipPath17752)">
      <path
         d="m 1091.5,283.5 h 538"
         stroke="#000000"
         stroke-linejoin="round"
         stroke-miterlimit="10"
         fill="none"
         fill-rule="evenodd"
         id="path17251" />
    </g>
    <g
       id="g17257"
       transform="matrix(0.26458333,0,0,0.26458333,-279.73004,92.474497)"
       clip-path="url(#clipPath17746)">
      <path
         d="m 1091.5,280.5 v 3 m 10,-3 v 3 m 11,-3 v 3 m 11,-3 v 3 m 11,-3 v 3 m 10,-3 v 3 m 11,-3 v 3 m 11,-3 v 3 m 11,-3 v 3 m 10,-3 v 3 m 11,-3 v 3 m 11,-3 v 3 m 11,-3 v 3 m 10,-3 v 3 m 11,-3 v 3 m 11,-3 v 3 m 11,-3 v 3 m 11,-3 v 3 m 10,-3 v 3 m 11,-3 v 3 m 11,-3 v 3 m 11,-3 v 3 m 10,-3 v 3 m 11,-3 v 3 m 11,-3 v 3 m 11,-3 v 3 m 10,-3 v 3 m 11,-3 v 3 m 11,-3 v 3 m 11,-3 v 3 m 11,-3 v 3 m 10,-3 v 3 m 11,-3 v 3 m 11,-3 v 3 m 11,-3 v 3 m 10,-3 v 3 m 11,-3 v 3 m 11,-3 v 3 m 11,-3 v 3 m 10,-3 v 3 m 11,-3 v 3 m 11,-3 v 3 m 11,-3 v 3 m 11,-3 v 3 m 10,-3 v 3 m 11,-3 v 3 m 11,-3 v 3 m 11,-3 v 3 m 10,-3 v 3 m 11,-3 v 3 m 11,-3 v 3 m -538,-4 v 8 m 53,-8 v 8 m 54,-8 v 8 m 54,-8 v 8 m 54,-8 v 8 m 54,-8 v 8 m 54,-8 v 8 m 53,-8 v 8 m 54,-8 v 8 m 54,-8 v 8 m 54,-8 v 8"
         stroke="#000000"
         stroke-linejoin="round"
         stroke-miterlimit="10"
         fill="none"
         id="path17255" />
    </g>
    <g
       id="g17261"
       transform="matrix(0.26458333,0,0,0.26458333,-279.73004,92.474497)"
       clip-path="url(#clipPath17740)">
      <path
         d="m 1360,552 -29,-6 -17,-7 -11,-7 -8,-7 -6,-6 -2,-7 v -7 l 3,-6 3,-7 3,-7 3,-7 2,-6 2,-7 1,-7 2,-7 2,-6 2,-7 2,-7 2,-6 2,-7 2,-7 2,-7 2,-6 2,-7 2,-7 2,-6 2,-7 2,-7 2,-7 2,-6 2,-7 2,-7 2,-6 2,-7 2,-7 2,-7 2,-6 2,-7 2,-7 2,-7 2,-6 2,-7 2,-7 2,-6 2,-7 2,-7 2,-7 2,-6 2,-7 3,-7 2,-6 2,-7 2,-7 2,-7 2,-6 3,-7 2,-7 2,-6 3,-7 2,-7 3,-7 2,-6 3,-7 2,-7 3,-7 2,-6 3,-7 3,-7 3,-6 3,-7 3,-7 3,-7 3,-6 3,-7 1,-7 v -6 l -3,-7 -2,-7 49,-7 146,-6"
         stroke="#ed7d31"
         stroke-width="2"
         stroke-linecap="round"
         stroke-linejoin="round"
         stroke-miterlimit="10"
         fill="none"
         id="path17259" />
    </g>
    <g
       id="g17265"
       transform="matrix(0.26458333,0,0,0.26458333,-279.73004,92.474497)"
       clip-path="url(#clipPath17734)">
      <path
         d="m 1091,283 7,-30 6,-17 7,-10 7,-7 7,-5 6,-3 h 7 l 7,1 7,2 6,3 7,2 7,3 6,2 7,2 7,2 7,3 6,2 7,2 7,2 7,2 6,2 7,3 7,2 7,2 6,2 7,2 7,2 6,2 7,2 7,2 7,2 6,2 7,2 7,2 7,3 6,2 7,2 7,2 6,2 7,2 7,2 7,2 6,2 7,2 7,2 7,2 6,2 7,3 7,2 6,2 7,2 7,2 7,2 6,2 7,3 7,2 7,2 6,2 7,3 7,2 7,2 6,3 7,2 7,3 6,2 7,3 7,2 7,3 6,3 7,2 7,3 7,2 6,1 7,2 7,6 6,11 7,6 7,-14 7,-43 6,-40"
         stroke="#ed7d31"
         stroke-width="2"
         stroke-linecap="round"
         stroke-linejoin="round"
         stroke-miterlimit="10"
         fill="none"
         id="path17263" />
    </g>
    <g
       id="g17269"
       transform="matrix(0.26458333,0,0,0.26458333,-279.73004,92.474497)"
       clip-path="url(#clipPath17728)">
      <path
         d="m 1360,552 -38,-6 -21,-7 -16,-7 -11,-7 -4,-6 1,-7 4,-7 4,-6 4,-7 2,-7 2,-7 2,-6 3,-7 2,-7 2,-7 3,-6 2,-7 2,-7 3,-6 2,-7 2,-7 3,-7 2,-6 2,-7 3,-7 2,-6 2,-7 3,-7 2,-7 2,-6 3,-7 2,-7 2,-6 3,-7 2,-7 2,-7 3,-6 2,-7 3,-7 2,-7 2,-6 3,-7 2,-7 3,-6 2,-7 2,-7 3,-7 2,-6 3,-7 2,-7 3,-6 2,-7 3,-7 3,-7 2,-6 3,-7 3,-7 2,-6 3,-7 3,-7 3,-7 3,-6 3,-7 3,-7 3,-7 3,-6 3,-7 4,-7 3,-6 4,-7 3,-7 4,-7 4,-6 4,-7 3,-7 2,-6 -1,-7 -2,-7 41,-7 133,-6"
         stroke="#4472c4"
         stroke-width="2"
         stroke-linecap="round"
         stroke-linejoin="round"
         stroke-miterlimit="10"
         fill="none"
         id="path17267" />
    </g>
    <g
       id="g17273"
       transform="matrix(0.26458333,0,0,0.26458333,-279.73004,92.474497)"
       clip-path="url(#clipPath17722)">
      <path
         d="m 1091,283 7,-41 6,-24 7,-12 7,-8 7,-5 h 6 l 7,2 7,4 7,3 6,3 7,3 7,3 6,2 7,3 7,3 7,2 6,3 7,3 7,2 7,3 6,2 7,3 7,2 7,3 6,2 7,3 7,2 6,3 7,2 7,3 7,2 6,3 7,2 7,3 7,2 6,2 7,3 7,2 6,3 7,2 7,3 7,2 6,3 7,2 7,3 7,2 6,2 7,3 7,3 6,2 7,3 7,2 7,3 6,2 7,3 7,3 7,2 6,3 7,3 7,2 7,3 6,3 7,3 7,2 6,3 7,3 7,3 7,3 6,3 7,3 7,3 7,4 6,2 7,2 7,5 6,11 7,10 7,-12 7,-52 6,-51"
         stroke="#4472c4"
         stroke-width="2"
         stroke-linecap="round"
         stroke-linejoin="round"
         stroke-miterlimit="10"
         fill="none"
         id="path17271" />
    </g>
    <g
       id="g17277"
       transform="matrix(0.26458333,0,0,0.26458333,-279.73004,92.474497)"
       clip-path="url(#clipPath17716)">
      <path
         d="m 1091,283 7,-47 6,-28 7,-14 7,-10 7,-5 h 6 l 7,2 7,5 7,4 6,3 7,3 7,3 6,4 7,3 7,3 7,3 6,3 7,3 7,3 7,3 6,3 7,3 7,3 7,3 6,3 7,3 7,3 6,2 7,3 7,3 7,3 6,3 7,3 7,3 7,2 6,3 7,3 7,3 6,3 7,3 7,2 7,3 6,3 7,3 7,3 7,3 6,3 7,2 7,3 6,3 7,3 7,3 7,3 6,3 7,3 7,3 7,3 6,3 7,3 7,3 7,4 6,3 7,3 7,3 6,4 7,3 7,3 7,4 6,3 7,4 7,3 7,4 6,2 7,3 7,7 6,14 7,4 7,-27 7,-57 6,-44"
         stroke="#4472c4"
         stroke-width="2"
         stroke-linecap="round"
         stroke-linejoin="round"
         stroke-miterlimit="10"
         stroke-dasharray="4, 4"
         fill="none"
         id="path17275" />
    </g>
    <g
       id="g17281"
       transform="matrix(0.26458333,0,0,0.26458333,-279.73004,92.474497)"
       clip-path="url(#clipPath17710)">
      <path
         d="m 1360,552 -36,-6 -23,-7 -19,-7 -15,-7 -8,-6 -2,-7 4,-7 5,-6 4,-7 4,-7 2,-7 2,-6 3,-7 2,-7 3,-7 3,-6 2,-7 3,-7 3,-6 2,-7 3,-7 3,-7 2,-6 3,-7 3,-7 2,-6 3,-7 3,-7 2,-7 3,-6 3,-7 3,-7 2,-6 3,-7 3,-7 2,-7 3,-6 3,-7 3,-7 2,-7 3,-6 3,-7 3,-7 2,-6 3,-7 3,-7 3,-7 3,-6 3,-7 3,-7 3,-6 2,-7 3,-7 4,-7 3,-6 3,-7 3,-7 3,-6 3,-7 4,-7 3,-7 3,-6 4,-7 3,-7 4,-7 4,-6 3,-7 4,-7 4,-6 4,-7 4,-7 5,-7 5,-6 4,-7 4,-7 3,-6 -2,-7 -1,-7 49,-7 109,-6"
         stroke="#4472c4"
         stroke-width="2"
         stroke-linecap="round"
         stroke-linejoin="round"
         stroke-miterlimit="10"
         stroke-dasharray="4, 4"
         fill="none"
         id="path17279" />
    </g>
    <g
       id="g17285"
       transform="matrix(0.26458333,0,0,0.26458333,-279.73004,92.474497)"
       clip-path="url(#clipPath17704)">
      <path
         d="m 1091,283 7,-32 6,-19 7,-10 7,-8 7,-5 6,-3 7,-1 7,2 7,2 6,3 7,3 7,3 6,2 7,2 7,3 7,2 6,2 7,3 7,2 7,2 6,3 7,2 7,2 7,2 6,3 7,2 7,2 6,2 7,3 7,2 7,2 6,2 7,2 7,3 7,2 6,2 7,2 7,2 6,3 7,2 7,2 7,2 6,2 7,3 7,2 7,2 6,2 7,3 7,2 6,2 7,3 7,2 7,2 6,3 7,2 7,2 7,3 6,2 7,3 7,2 7,3 6,2 7,3 7,2 6,3 7,3 7,2 7,3 6,3 7,3 7,2 7,3 6,1 7,2 7,7 6,11 7,6 7,-17 7,-45 6,-41"
         stroke="#ed7d31"
         stroke-width="2"
         stroke-linecap="round"
         stroke-linejoin="round"
         stroke-miterlimit="10"
         stroke-dasharray="4, 4"
         fill="none"
         id="path17283" />
    </g>
    <g
       id="g17289"
       transform="matrix(0.26458333,0,0,0.26458333,-279.73004,92.474497)"
       clip-path="url(#clipPath17698)">
      <path
         d="m 1360,552 -31,-6 -17,-7 -12,-7 -9,-7 -6,-6 -3,-7 1,-7 2,-6 3,-7 3,-7 3,-7 3,-6 2,-7 1,-7 2,-7 3,-6 2,-7 2,-7 2,-6 2,-7 2,-7 2,-7 2,-6 3,-7 2,-7 2,-6 2,-7 2,-7 2,-7 2,-6 2,-7 2,-7 3,-6 2,-7 2,-7 2,-7 2,-6 2,-7 2,-7 2,-7 3,-6 2,-7 2,-7 2,-6 2,-7 3,-7 2,-7 2,-6 2,-7 3,-7 2,-6 2,-7 2,-7 3,-7 2,-6 3,-7 2,-7 3,-6 2,-7 3,-7 2,-7 3,-6 3,-7 2,-7 3,-7 3,-6 3,-7 3,-7 3,-6 3,-7 4,-7 3,-7 4,-6 2,-7 2,-7 -1,-6 -2,-7 -2,-7 52,-7 137,-6"
         stroke="#ed7d31"
         stroke-width="2"
         stroke-linecap="round"
         stroke-linejoin="round"
         stroke-miterlimit="10"
         stroke-dasharray="4, 4"
         fill="none"
         id="path17287" />
    </g>
    <g
       id="g17325"
       transform="matrix(0.26458333,0,0,0.26458333,-279.73004,92.474497)"
       clip-path="url(#clipPath17692)">
      <path
         d="m 1629.5,11.5001 3,2.9998 -3,3 -3,-3 z"
         stroke="#000000"
         stroke-linejoin="round"
         stroke-miterlimit="10"
         id="path17291" />
      <path
         d="m 1487.5,24.5001 3,2.9998 -3,3 -3,-3 z"
         stroke="#000000"
         stroke-linejoin="round"
         stroke-miterlimit="10"
         id="path17293" />
      <path
         d="m 1488.5,28.5001 3,2.9998 -3,3 -3,-3 z"
         stroke="#000000"
         stroke-linejoin="round"
         stroke-miterlimit="10"
         id="path17295" />
      <path
         d="m 1489.5,32.5001 3,2.9998 -3,3 -3,-3 z"
         stroke="#000000"
         stroke-linejoin="round"
         stroke-miterlimit="10"
         id="path17297" />
      <path
         d="m 1488.5,36.5001 3,2.9998 -3,3 -3,-3 z"
         stroke="#000000"
         stroke-linejoin="round"
         stroke-miterlimit="10"
         id="path17299" />
      <path
         d="m 1453.5,91.5001 3,2.9998 -3,3 -3,-3 z"
         stroke="#000000"
         stroke-linejoin="round"
         stroke-miterlimit="10"
         id="path17301" />
      <path
         d="m 1415.5,154.5 3,3 -3,3 -3,-3 z"
         stroke="#000000"
         stroke-linejoin="round"
         stroke-miterlimit="10"
         id="path17303" />
      <path
         d="m 1382.5,217.5 3,3 -3,3 -3,-3 z"
         stroke="#000000"
         stroke-linejoin="round"
         stroke-miterlimit="10"
         id="path17305" />
      <path
         d="m 1351.5,280.5 3,3 -3,3 -3,-3 z"
         stroke="#000000"
         stroke-linejoin="round"
         stroke-miterlimit="10"
         id="path17307" />
      <path
         d="m 1339.5,305.5 3,3 -3,3 -3,-3 z"
         stroke="#000000"
         stroke-linejoin="round"
         stroke-miterlimit="10"
         id="path17309" />
      <path
         d="m 1297.5,398.5 3,3 -3,3 -3,-3 z"
         stroke="#000000"
         stroke-linejoin="round"
         stroke-miterlimit="10"
         id="path17311" />
      <path
         d="m 1272.5,456.5 3,3 -3,3 -3,-3 z"
         stroke="#000000"
         stroke-linejoin="round"
         stroke-miterlimit="10"
         id="path17313" />
      <path
         d="m 1257.5,494.5 3,3 -3,3 -3,-3 z"
         stroke="#000000"
         stroke-linejoin="round"
         stroke-miterlimit="10"
         id="path17315" />
      <path
         d="m 1248.5,511.5 3,3 -3,3 -3,-3 z"
         stroke="#000000"
         stroke-linejoin="round"
         stroke-miterlimit="10"
         id="path17317" />
      <path
         d="m 1245.5,515.5 3,3 -3,3 -3,-3 z"
         stroke="#000000"
         stroke-linejoin="round"
         stroke-miterlimit="10"
         id="path17319" />
      <path
         d="m 1245.5,519.5 3,3 -3,3 -3,-3 z"
         stroke="#000000"
         stroke-linejoin="round"
         stroke-miterlimit="10"
         id="path17321" />
      <path
         d="m 1360.5,549.5 3,3 -3,3 -3,-3 z"
         stroke="#000000"
         stroke-linejoin="round"
         stroke-miterlimit="10"
         id="path17323" />
    </g>
    <g
       id="g17361"
       transform="matrix(0.26458333,0,0,0.26458333,-279.73004,92.474497)"
       clip-path="url(#clipPath17686)">
      <path
         d="m 1629.5,280.5 3,3 -3,3 -3,-3 z"
         stroke="#000000"
         stroke-linejoin="round"
         stroke-miterlimit="10"
         id="path17327" />
      <path
         d="m 1612.5,426.5 3,3 -3,3 -3,-3 z"
         stroke="#000000"
         stroke-linejoin="round"
         stroke-miterlimit="10"
         id="path17329" />
      <path
         d="m 1608.5,422.5 3,3 -3,3 -3,-3 z"
         stroke="#000000"
         stroke-linejoin="round"
         stroke-miterlimit="10"
         id="path17331" />
      <path
         d="m 1604.5,412.5 3,3 -3,3 -3,-3 z"
         stroke="#000000"
         stroke-linejoin="round"
         stroke-miterlimit="10"
         id="path17333" />
      <path
         d="m 1599.5,403.5 3,3 -3,3 -3,-3 z"
         stroke="#000000"
         stroke-linejoin="round"
         stroke-miterlimit="10"
         id="path17335" />
      <path
         d="m 1578.5,392.5 3,3 -3,3 -3,-3 z"
         stroke="#000000"
         stroke-linejoin="round"
         stroke-miterlimit="10"
         id="path17337" />
      <path
         d="m 1553.5,379.5 3,3 -3,3 -3,-3 z"
         stroke="#000000"
         stroke-linejoin="round"
         stroke-miterlimit="10"
         id="path17339" />
      <path
         d="m 1524.5,363.5 3,3 -3,3 -3,-3 z"
         stroke="#000000"
         stroke-linejoin="round"
         stroke-miterlimit="10"
         id="path17341" />
      <path
         d="m 1360.5,278.5 3,3 -3,3 -3,-3 z"
         stroke="#000000"
         stroke-linejoin="round"
         stroke-miterlimit="10"
         id="path17343" />
      <path
         d="m 1217.5,207.5 3,3 -3,3 -3,-3 z"
         stroke="#000000"
         stroke-linejoin="round"
         stroke-miterlimit="10"
         id="path17345" />
      <path
         d="m 1212.5,205.5 3,3 -3,3 -3,-3 z"
         stroke="#000000"
         stroke-linejoin="round"
         stroke-miterlimit="10"
         id="path17347" />
      <path
         d="m 1175.5,186.5 3,3 -3,3 -3,-3 z"
         stroke="#000000"
         stroke-linejoin="round"
         stroke-miterlimit="10"
         id="path17349" />
      <path
         d="m 1141.5,168.5 3,3 -3,3 -3,-3 z"
         stroke="#000000"
         stroke-linejoin="round"
         stroke-miterlimit="10"
         id="path17351" />
      <path
         d="m 1133.5,164.5 3,3 -3,3 -3,-3 z"
         stroke="#000000"
         stroke-linejoin="round"
         stroke-miterlimit="10"
         id="path17353" />
      <path
         d="m 1128.5,162.5 3,3 -3,3 -3,-3 z"
         stroke="#000000"
         stroke-linejoin="round"
         stroke-miterlimit="10"
         id="path17355" />
      <path
         d="m 1124.5,162.5 3,3 -3,3 -3,-3 z"
         stroke="#000000"
         stroke-linejoin="round"
         stroke-miterlimit="10"
         id="path17357" />
      <path
         d="m 1091.5,280.5 3,3 -3,3 -3,-3 z"
         stroke="#000000"
         stroke-linejoin="round"
         stroke-miterlimit="10"
         id="path17359" />
    </g>
    <g
       id="g17365"
       transform="matrix(0.26458333,0,0,0.26458333,-279.73004,92.474497)">
      <text
         font-family="Arial, Arial_MSFontService, sans-serif"
         font-weight="400"
         font-size="12px"
         transform="translate(1339.2,556)"
         id="text17363">-1</text>
    </g>
    <g
       id="g17369"
       transform="matrix(0.26458333,0,0,0.26458333,-279.73004,92.474497)">
      <text
         font-family="Arial, Arial_MSFontService, sans-serif"
         font-weight="400"
         font-size="12px"
         transform="translate(1329.19,502)"
         id="text17367">-0.8</text>
    </g>
    <g
       id="g17373"
       transform="matrix(0.26458333,0,0,0.26458333,-279.73004,92.474497)">
      <text
         font-family="Arial, Arial_MSFontService, sans-serif"
         font-weight="400"
         font-size="12px"
         transform="translate(1329.19,449)"
         id="text17371">-0.6</text>
    </g>
    <g
       id="g17377"
       transform="matrix(0.26458333,0,0,0.26458333,-279.73004,92.474497)">
      <text
         font-family="Arial, Arial_MSFontService, sans-serif"
         font-weight="400"
         font-size="12px"
         transform="translate(1329.19,395)"
         id="text17375">-0.4</text>
    </g>
    <g
       id="g17381"
       transform="matrix(0.26458333,0,0,0.26458333,-279.73004,92.474497)">
      <text
         font-family="Arial, Arial_MSFontService, sans-serif"
         font-weight="400"
         font-size="12px"
         transform="translate(1329.19,341)"
         id="text17379">-0.2</text>
    </g>
    <g
       id="g17385"
       transform="matrix(0.26458333,0,0,0.26458333,-279.73004,92.474497)">
      <text
         font-family="Arial, Arial_MSFontService, sans-serif"
         font-weight="400"
         font-size="12px"
         transform="translate(1343.19,287)"
         id="text17383">0</text>
    </g>
    <g
       id="g17389"
       transform="matrix(0.26458333,0,0,0.26458333,-279.73004,92.474497)">
      <text
         font-family="Arial, Arial_MSFontService, sans-serif"
         font-weight="400"
         font-size="12px"
         transform="translate(1333.19,234)"
         id="text17387">0.2</text>
    </g>
    <g
       id="g17393"
       transform="matrix(0.26458333,0,0,0.26458333,-279.73004,92.474497)">
      <text
         font-family="Arial, Arial_MSFontService, sans-serif"
         font-weight="400"
         font-size="12px"
         transform="translate(1333.19,180)"
         id="text17391">0.4</text>
    </g>
    <g
       id="g17397"
       transform="matrix(0.26458333,0,0,0.26458333,-279.73004,92.474497)">
      <text
         font-family="Arial, Arial_MSFontService, sans-serif"
         font-weight="400"
         font-size="12px"
         transform="translate(1333.19,126)"
         id="text17395">0.6</text>
    </g>
    <g
       id="g17401"
       transform="matrix(0.26458333,0,0,0.26458333,-279.73004,92.474497)">
      <text
         font-family="Arial, Arial_MSFontService, sans-serif"
         font-weight="400"
         font-size="12px"
         transform="translate(1333.19,72)"
         id="text17399">0.8</text>
    </g>
    <g
       id="g17405"
       transform="matrix(0.26458333,0,0,0.26458333,-279.73004,92.474497)">
      <text
         font-family="Arial, Arial_MSFontService, sans-serif"
         font-weight="400"
         font-size="12px"
         transform="translate(1343.19,19)"
         id="text17403">1</text>
    </g>
    <g
       id="g17409"
       transform="matrix(0.26458333,0,0,0.26458333,-279.73004,92.474497)">
      <text
         font-family="Arial, Arial_MSFontService, sans-serif"
         font-weight="400"
         font-size="12px"
         transform="translate(1085.67,302)"
         id="text17407">-1</text>
    </g>
    <g
       id="g17413"
       transform="matrix(0.26458333,0,0,0.26458333,-279.73004,92.474497)">
      <text
         font-family="Arial, Arial_MSFontService, sans-serif"
         font-weight="400"
         font-size="12px"
         transform="translate(1134.5,302)"
         id="text17411">-0.8</text>
    </g>
    <g
       id="g17417"
       transform="matrix(0.26458333,0,0,0.26458333,-279.73004,92.474497)">
      <text
         font-family="Arial, Arial_MSFontService, sans-serif"
         font-weight="400"
         font-size="12px"
         transform="translate(1188.34,302)"
         id="text17415">-0.6</text>
    </g>
    <g
       id="g17421"
       transform="matrix(0.26458333,0,0,0.26458333,-279.73004,92.474497)">
      <text
         font-family="Arial, Arial_MSFontService, sans-serif"
         font-weight="400"
         font-size="12px"
         transform="translate(1242.18,302)"
         id="text17419">-0.4</text>
    </g>
    <g
       id="g17425"
       transform="matrix(0.26458333,0,0,0.26458333,-279.73004,92.474497)">
      <text
         font-family="Arial, Arial_MSFontService, sans-serif"
         font-weight="400"
         font-size="12px"
         transform="translate(1296.01,302)"
         id="text17423">-0.2</text>
    </g>
    <g
       id="g17429"
       transform="matrix(0.26458333,0,0,0.26458333,-279.73004,92.474497)">
      <text
         font-family="Arial, Arial_MSFontService, sans-serif"
         font-weight="400"
         font-size="12px"
         transform="translate(1356.85,302)"
         id="text17427">0</text>
    </g>
    <g
       id="g17433"
       transform="matrix(0.26458333,0,0,0.26458333,-279.73004,92.474497)">
      <text
         font-family="Arial, Arial_MSFontService, sans-serif"
         font-weight="400"
         font-size="12px"
         transform="translate(1405.68,302)"
         id="text17431">0.2</text>
    </g>
    <g
       id="g17437"
       transform="matrix(0.26458333,0,0,0.26458333,-279.73004,92.474497)">
      <text
         font-family="Arial, Arial_MSFontService, sans-serif"
         font-weight="400"
         font-size="12px"
         transform="translate(1459.52,302)"
         id="text17435">0.4</text>
    </g>
    <g
       id="g17441"
       transform="matrix(0.26458333,0,0,0.26458333,-279.73004,92.474497)">
      <text
         font-family="Arial, Arial_MSFontService, sans-serif"
         font-weight="400"
         font-size="12px"
         transform="translate(1513.36,302)"
         id="text17439">0.6</text>
    </g>
    <g
       id="g17445"
       transform="matrix(0.26458333,0,0,0.26458333,-279.73004,92.474497)">
      <text
         font-family="Arial, Arial_MSFontService, sans-serif"
         font-weight="400"
         font-size="12px"
         transform="translate(1567.2,302)"
         id="text17443">0.8</text>
    </g>
    <g
       id="g17449"
       transform="matrix(0.26458333,0,0,0.26458333,-279.73004,92.474497)">
      <text
         font-family="Arial, Arial_MSFontService, sans-serif"
         font-weight="400"
         font-size="12px"
         transform="translate(1626.04,302)"
         id="text17447">1</text>
    </g>
  </g>
</svg>
