<?xml version="1.0" encoding="UTF-8" standalone="no"?>
<!-- Created with Inkscape (http://www.inkscape.org/) -->

<svg
   width="152.39999mm"
   height="150.01875mm"
   viewBox="0 0 152.39999 150.01875"
   version="1.1"
   id="svg1323"
   inkscape:version="1.2.1 (9c6d41e410, 2022-07-14)"
   sodipodi:docname="Re400.svg"
   xmlns:inkscape="http://www.inkscape.org/namespaces/inkscape"
   xmlns:sodipodi="http://sodipodi.sourceforge.net/DTD/sodipodi-0.dtd"
   xmlns="http://www.w3.org/2000/svg"
   xmlns:svg="http://www.w3.org/2000/svg">
  <sodipodi:namedview
     id="namedview1325"
     pagecolor="#ffffff"
     bordercolor="#000000"
     borderopacity="0.25"
     inkscape:showpageshadow="2"
     inkscape:pageopacity="0.0"
     inkscape:pagecheckerboard="0"
     inkscape:deskcolor="#d1d1d1"
     inkscape:document-units="mm"
     showgrid="false"
     inkscape:lockguides="true"
     inkscape:zoom="0.74564394"
     inkscape:cx="298.3998"
     inkscape:cy="666.53797"
     inkscape:window-width="1920"
     inkscape:window-height="1017"
     inkscape:window-x="1912"
     inkscape:window-y="-8"
     inkscape:window-maximized="1"
     inkscape:current-layer="layer1" />
  <defs
     id="defs1320">
    <clipPath
       id="clip0">
      <rect
         x="889"
         y="0"
         width="576"
         height="567"
         id="rect1444" />
    </clipPath>
    <clipPath
       id="clip1">
      <rect
         x="889"
         y="0"
         width="576"
         height="566"
         id="rect1447" />
    </clipPath>
    <clipPath
       id="clip2">
      <rect
         x="889"
         y="0"
         width="576"
         height="566"
         id="rect1450" />
    </clipPath>
    <clipPath
       id="clip3">
      <rect
         x="889"
         y="0"
         width="576"
         height="566"
         id="rect1453" />
    </clipPath>
    <clipPath
       id="clip4">
      <rect
         x="889"
         y="0"
         width="576"
         height="566"
         id="rect1456" />
    </clipPath>
    <clipPath
       id="clip5">
      <rect
         x="889"
         y="0"
         width="576"
         height="566"
         id="rect1459" />
    </clipPath>
    <clipPath
       id="clip6">
      <rect
         x="889"
         y="0"
         width="576"
         height="566"
         id="rect1462" />
    </clipPath>
    <clipPath
       id="clip7">
      <rect
         x="889"
         y="0"
         width="576"
         height="566"
         id="rect1465" />
    </clipPath>
    <clipPath
       id="clip8">
      <rect
         x="909"
         y="14"
         width="539"
         height="539"
         id="rect1468" />
    </clipPath>
    <clipPath
       id="clip9">
      <rect
         x="909"
         y="14"
         width="539"
         height="539"
         id="rect1471" />
    </clipPath>
    <clipPath
       id="clip10">
      <rect
         x="909"
         y="14"
         width="539"
         height="539"
         id="rect1474" />
    </clipPath>
    <clipPath
       id="clip11">
      <rect
         x="909"
         y="14"
         width="539"
         height="539"
         id="rect1477" />
    </clipPath>
    <clipPath
       id="clip12">
      <rect
         x="909"
         y="14"
         width="539"
         height="539"
         id="rect1480" />
    </clipPath>
    <clipPath
       id="clip13">
      <rect
         x="909"
         y="14"
         width="539"
         height="539"
         id="rect1483" />
    </clipPath>
    <clipPath
       id="clip14">
      <rect
         x="889"
         y="0"
         width="576"
         height="566"
         id="rect1486" />
    </clipPath>
    <clipPath
       id="clip15">
      <rect
         x="889"
         y="0"
         width="576"
         height="566"
         id="rect1489" />
    </clipPath>
    <clipPath
       id="clip16">
      <rect
         x="889"
         y="0"
         width="576"
         height="566"
         id="rect1492" />
    </clipPath>
    <clipPath
       id="clip17">
      <rect
         x="889"
         y="0"
         width="576"
         height="566"
         id="rect1495" />
    </clipPath>
    <clipPath
       id="clip18">
      <rect
         x="889"
         y="0"
         width="576"
         height="566"
         id="rect1498" />
    </clipPath>
    <clipPath
       id="clip19">
      <rect
         x="889"
         y="0"
         width="576"
         height="566"
         id="rect1501" />
    </clipPath>
    <clipPath
       id="clip20">
      <rect
         x="889"
         y="0"
         width="576"
         height="566"
         id="rect1504" />
    </clipPath>
    <clipPath
       id="clip21">
      <rect
         x="889"
         y="0"
         width="576"
         height="566"
         id="rect1507" />
    </clipPath>
    <clipPath
       id="clip22">
      <rect
         x="889"
         y="0"
         width="576"
         height="566"
         id="rect1510" />
    </clipPath>
    <clipPath
       id="clip23">
      <rect
         x="889"
         y="0"
         width="576"
         height="566"
         id="rect1513" />
    </clipPath>
    <clipPath
       id="clip24">
      <rect
         x="889"
         y="0"
         width="576"
         height="566"
         id="rect1516" />
    </clipPath>
    <clipPath
       id="clip25">
      <rect
         x="889"
         y="0"
         width="576"
         height="566"
         id="rect1519" />
    </clipPath>
    <clipPath
       id="clip26">
      <rect
         x="889"
         y="0"
         width="576"
         height="566"
         id="rect1522" />
    </clipPath>
    <clipPath
       id="clip27">
      <rect
         x="889"
         y="0"
         width="576"
         height="566"
         id="rect1525" />
    </clipPath>
    <clipPath
       id="clip28">
      <rect
         x="889"
         y="0"
         width="576"
         height="566"
         id="rect1528" />
    </clipPath>
    <clipPath
       id="clip29">
      <rect
         x="889"
         y="0"
         width="576"
         height="566"
         id="rect1531" />
    </clipPath>
    <clipPath
       id="clip30">
      <rect
         x="889"
         y="0"
         width="576"
         height="566"
         id="rect1534" />
    </clipPath>
    <clipPath
       id="clip31">
      <rect
         x="889"
         y="0"
         width="576"
         height="566"
         id="rect1537" />
    </clipPath>
    <clipPath
       id="clip32">
      <rect
         x="889"
         y="0"
         width="576"
         height="566"
         id="rect1540" />
    </clipPath>
    <clipPath
       id="clip33">
      <rect
         x="889"
         y="0"
         width="576"
         height="566"
         id="rect1543" />
    </clipPath>
    <clipPath
       id="clip34">
      <rect
         x="889"
         y="0"
         width="576"
         height="566"
         id="rect1546" />
    </clipPath>
    <clipPath
       id="clip35">
      <rect
         x="889"
         y="0"
         width="576"
         height="566"
         id="rect1549" />
    </clipPath>
    <clipPath
       id="clip36">
      <rect
         x="889"
         y="0"
         width="576"
         height="566"
         id="rect1552" />
    </clipPath>
    <clipPath
       id="clip37">
      <rect
         x="889"
         y="0"
         width="576"
         height="566"
         id="rect1555" />
    </clipPath>
  </defs>
  <g
     inkscape:label="Camada 1"
     inkscape:groupmode="layer"
     id="layer1"
     transform="translate(-17.47742,27.815826)">
    <g
       clip-path="url(#clip0)"
       transform="matrix(0.26458333,0,0,0.26458333,-217.73716,-27.815826)"
       id="g1772">
      <rect
         x="889"
         y="0"
         width="576"
         height="567"
         fill="#ffffff"
         id="rect1560" />
      <g
         clip-path="url(#clip1)"
         id="g1564">
        <path
           d="m 909.5,552.5 h 538 m -538,-54 h 538 m -538,-54 h 538 m -538,-54 h 538 m -538,-53 h 538 m -538,-108 h 538 m -538,-54 h 538 m -538,-53 h 538 m -538,-53.9999 h 538 m -538,-54 h 538"
           stroke="#d9d9d9"
           stroke-linejoin="round"
           stroke-miterlimit="10"
           fill="none"
           id="path1562" />
      </g>
      <g
         clip-path="url(#clip2)"
         id="g1568">
        <path
           d="M 909.5,14.5001 V 552.5 m 53,-537.9999 V 552.5 m 54,-537.9999 V 552.5 m 54,-537.9999 V 552.5 m 54,-537.9999 V 552.5 m 108,-537.9999 V 552.5 m 53,-537.9999 V 552.5 m 54,-537.9999 V 552.5 m 54,-537.9999 V 552.5 m 54,-537.9999 V 552.5"
           stroke="#d9d9d9"
           stroke-linejoin="round"
           stroke-miterlimit="10"
           fill="none"
           id="path1566" />
      </g>
      <g
         clip-path="url(#clip3)"
         id="g1572">
        <rect
           x="909.5"
           y="14.5001"
           width="538"
           height="538"
           stroke="#000000"
           stroke-width="1.33333"
           stroke-linejoin="round"
           stroke-miterlimit="10"
           fill="none"
           id="rect1570" />
      </g>
      <g
         clip-path="url(#clip4)"
         id="g1576">
        <path
           d="M 0,0 1.04987e-4,538"
           stroke="#000000"
           stroke-linejoin="round"
           stroke-miterlimit="10"
           fill="none"
           fill-rule="evenodd"
           transform="matrix(1,0,0,-1,1178.5,552.5)"
           id="path1574" />
      </g>
      <g
         clip-path="url(#clip5)"
         id="g1580">
        <path
           d="m 1178.5,552.5 h 2 m -2,-11 h 2 m -2,-11 h 2 m -2,-10 h 2 m -2,-11 h 2 m -2,-11 h 2 m -2,-11 h 2 m -2,-11 h 2 m -2,-10 h 2 m -2,-11 h 2 m -2,-11 h 2 m -2,-11 h 2 m -2,-10 h 2 m -2,-11 h 2 m -2,-11 h 2 m -2,-11 h 2 m -2,-10 h 2 m -2,-11 h 2 m -2,-11 h 2 m -2,-11 h 2 m -2,-10 h 2 m -2,-11 h 2 m -2,-11 h 2 m -2,-11 h 2 m -2,-10 h 2 m -2,-11 h 2 m -2,-11 h 2 m -2,-11 h 2 m -2,-10 h 2 m -2,-11 h 2 m -2,-11 h 2 m -2,-11 h 2 m -2,-10 h 2 m -2,-11 h 2 m -2,-11 h 2 m -2,-11 h 2 m -2,-10 h 2 m -2,-11 h 2 m -2,-11 h 2 m -2,-11 h 2 m -2,-10 h 2 m -2,-11 h 2 m -2,-11 h 2 m -2,-10.9999 h 2 m -2,-10 h 2 m -2,-11 h 2 m -2,-11 h 2 m -2,-11.0001 h 2 m -2,-9.9999 h 2 m -2,-11 h 2 m -2,-11 h 2 m -6,537.9999 h 7 m -7,-54 h 7 m -7,-54 h 7 m -7,-54 h 7 m -7,-53 h 7 m -7,-54 h 7 m -7,-54 h 7 m -7,-54 h 7 m -7,-53 h 7 m -7,-53.9999 h 7 m -7,-54 h 7"
           stroke="#000000"
           stroke-linejoin="round"
           stroke-miterlimit="10"
           fill="none"
           id="path1578" />
      </g>
      <g
         clip-path="url(#clip6)"
         id="g1584">
        <path
           d="m 909.5,283.5 h 538"
           stroke="#000000"
           stroke-linejoin="round"
           stroke-miterlimit="10"
           fill="none"
           fill-rule="evenodd"
           id="path1582" />
      </g>
      <g
         clip-path="url(#clip7)"
         id="g1588">
        <path
           d="m 909.5,280.5 v 3 m 10,-3 v 3 m 11,-3 v 3 m 11,-3 v 3 m 11,-3 v 3 m 10,-3 v 3 m 11,-3 v 3 m 11,-3 v 3 m 11,-3 v 3 m 10,-3 v 3 m 11,-3 v 3 m 11,-3 v 3 m 11,-3 v 3 m 10,-3 v 3 m 11,-3 v 3 m 11,-3 v 3 m 11,-3 v 3 m 11,-3 v 3 m 10,-3 v 3 m 11,-3 v 3 m 11,-3 v 3 m 11,-3 v 3 m 10,-3 v 3 m 11,-3 v 3 m 11,-3 v 3 m 11,-3 v 3 m 10,-3 v 3 m 11,-3 v 3 m 11,-3 v 3 m 11,-3 v 3 m 11,-3 v 3 m 10,-3 v 3 m 11,-3 v 3 m 11,-3 v 3 m 11,-3 v 3 m 10,-3 v 3 m 11,-3 v 3 m 11,-3 v 3 m 11,-3 v 3 m 10,-3 v 3 m 11,-3 v 3 m 11,-3 v 3 m 11,-3 v 3 m 11,-3 v 3 m 10,-3 v 3 m 11,-3 v 3 m 11,-3 v 3 m 11,-3 v 3 m 10,-3 v 3 m 11,-3 v 3 m 11,-3 v 3 m -538,-4 v 8 m 53,-8 v 8 m 54,-8 v 8 m 54,-8 v 8 m 54,-8 v 8 m 54,-8 v 8 m 54,-8 v 8 m 53,-8 v 8 m 54,-8 v 8 m 54,-8 v 8 m 54,-8 v 8"
           stroke="#000000"
           stroke-linejoin="round"
           stroke-miterlimit="10"
           fill="none"
           id="path1586" />
      </g>
      <g
         clip-path="url(#clip8)"
         id="g1592">
        <path
           d="m 1178,552 -3,-5 -4,-5 -3,-6 -3,-5 -3,-6 -3,-5 -3,-5 -3,-6 -3,-5 -3,-5 -4,-6 -3,-5 -3,-6 -3,-5 -3,-5 -3,-6 -3,-5 -3,-6 -3,-5 -3,-5 -3,-6 -3,-5 -2,-5 -2,-6 -2,-5 -1,-6 -1,-5 -1,-5 v -6 -5 -5 l 1,-6 1,-5 2,-6 1,-5 2,-5 2,-6 3,-5 2,-5 3,-6 3,-5 3,-6 3,-5 3,-5 3,-6 3,-5 3,-5 3,-6 3,-5 3,-6 3,-5 3,-5 3,-6 3,-5 3,-5 3,-6 3,-5 3,-6 3,-5 3,-5 3,-6 3,-5 3,-5 3,-6 3,-5 3,-6 3,-5 3,-5 3,-6 3,-5 3,-5 2,-6 3,-5 3,-6 3,-5 3,-5 3,-6 2,-5 3,-5 3,-6 2,-5 3,-6 2,-5 3,-5 2,-6 3,-5 3,-5 3,-6 3,-5 5,-6 6,-5 7,-5 10,-6 13,-5 16,-5 20,-6 24,-5 27,-6 29,-5 30,-5"
           stroke="#70ad47"
           stroke-width="2"
           stroke-linecap="round"
           stroke-linejoin="round"
           stroke-miterlimit="10"
           fill="none"
           id="path1590" />
      </g>
      <g
         clip-path="url(#clip9)"
         id="g1596">
        <path
           d="m 909,283 5,-8 6,-8 5,-7 6,-6 5,-6 5,-4 6,-4 5,-4 5,-3 6,-3 5,-2 6,-3 5,-2 5,-1 6,-2 5,-1 6,-2 5,-1 5,-1 h 6 l 5,-1 5,-1 h 6 5 6 l 5,1 h 5 l 6,1 5,1 6,1 5,2 5,1 6,2 5,2 5,2 6,2 5,3 6,2 5,3 5,3 6,2 5,3 6,3 5,3 5,3 6,3 5,3 5,3 6,3 5,3 6,4 5,3 5,3 6,3 5,3 5,3 6,3 5,3 6,3 5,3 5,3 6,3 5,3 6,3 5,4 5,3 6,3 5,4 5,3 6,4 5,4 6,4 5,4 5,4 6,4 5,5 6,4 5,5 5,5 6,4 5,4 5,4 6,3 5,3 6,1 5,1 5,-1 6,-3 5,-4 6,-5 5,-7 5,-9 6,-9 5,-10 5,-11 6,-11 5,-10 6,-10 5,-9 5,-9"
           stroke="#70ad47"
           stroke-width="2"
           stroke-linecap="round"
           stroke-linejoin="round"
           stroke-miterlimit="10"
           fill="none"
           id="path1594" />
      </g>
      <g
         clip-path="url(#clip10)"
         id="g1600">
        <path
           d="m 1178,552 -2,-2 -2,-3 -2,-3 -2,-2 -2,-3 -2,-3 -2,-3 -2,-2 -1,-3 -2,-3 -2,-2 -2,-3 -2,-3 -1,-2 -2,-3 -2,-3 -2,-2 -2,-3 -1,-3 -2,-2 -2,-3 -2,-3 -1,-3 -2,-2 -2,-3 -2,-3 -2,-2 -1,-3 -2,-3 -2,-2 -2,-3 -2,-3 -1,-2 -2,-3 -2,-3 -2,-3 -1,-2 -2,-3 -1,-3 -2,-2 -1,-3 -2,-3 -1,-2 -1,-3 -2,-3 -1,-2 -1,-3 -1,-3 -1,-2 v -3 l -1,-3 v -3 l -1,-2 v -3 -3 l -1,-2 v -3 l 1,-3 v -2 -3 l 1,-3 v -2 l 1,-3 v -3 l 1,-2 1,-3 1,-3 1,-3 1,-2 1,-3 2,-3 1,-2 1,-3 2,-3 1,-2 1,-3 2,-3 1,-2 2,-3 2,-3 1,-2 2,-3 1,-3 2,-3 2,-2 1,-3 2,-3 2,-2 1,-3 2,-3 1,-2 2,-3 2,-3 1,-2 2,-3 1,-3 2,-2 2,-3 1,-3 2,-3 1,-2 2,-3 1,-3 2,-2 2,-3 1,-3 2,-2 1,-3 2,-3 1,-2 2,-3 1,-3 2,-2 1,-3 2,-3 1,-3 2,-2 1,-3 2,-3 2,-2 1,-3 2,-3 1,-2 2,-3 1,-3 2,-2 1,-3 2,-3 2,-2 1,-3 2,-3 1,-3 2,-2 2,-3 1,-3 2,-2 1,-3 2,-3 2,-2 1,-3 2,-3 1,-2 2,-3 2,-3 1,-2 2,-3 1,-3 2,-3 1,-2 2,-3 2,-3 1,-2 2,-3 1,-3 2,-2 1,-3 2,-3 1,-2 1,-3 2,-3 1,-3 2,-2 1,-3 1,-3 2,-2 1,-3 1,-3 2,-2 1,-3 1,-3 2,-2 1,-3 1,-3 2,-2 1,-3 2,-3 2,-3 2,-2 2,-3 2,-3 3,-2 3,-3 3,-3 4,-2 5,-3 5,-3 6,-2 6,-3 8,-3 8,-2 10,-3 10,-3 11,-3 12,-2 13,-3 13,-3 14,-2 14,-3 14,-3 14,-2"
           stroke="#ffc000"
           stroke-width="2"
           stroke-linecap="round"
           stroke-linejoin="round"
           stroke-miterlimit="10"
           fill="none"
           id="path1598" />
      </g>
      <g
         clip-path="url(#clip11)"
         id="g1604">
        <path
           d="m 909,283 3,-5 2,-5 3,-5 3,-4 2,-4 3,-4 3,-4 3,-3 2,-3 3,-3 3,-3 2,-3 3,-2 3,-2 2,-3 3,-1 3,-2 2,-2 3,-2 3,-1 3,-1 2,-2 3,-1 3,-1 2,-1 3,-1 3,-1 2,-1 3,-1 3,-1 2,-1 h 3 l 3,-1 3,-1 h 2 l 3,-1 h 3 l 2,-1 h 3 3 l 2,-1 h 3 3 2 3 3 3 2 3 3 2 l 3,1 h 3 l 2,1 h 3 l 3,1 2,1 h 3 l 3,1 3,1 2,1 3,1 3,1 2,1 3,1 3,1 2,1 3,1 3,2 2,1 3,1 3,2 3,1 2,1 3,2 3,1 2,2 3,1 3,2 2,1 3,2 3,2 2,1 3,2 3,1 3,2 2,2 3,1 3,2 2,2 3,1 3,2 2,2 3,1 3,2 2,2 3,1 3,2 2,2 3,1 3,2 3,1 2,2 3,2 3,1 2,2 3,2 3,1 2,2 3,1 3,2 2,2 3,1 3,2 3,1 2,2 3,2 3,1 2,2 3,1 3,2 2,2 3,1 3,2 2,2 3,1 3,2 3,1 2,2 3,2 3,2 2,1 3,2 3,2 2,1 3,2 3,2 2,2 3,2 3,2 3,2 2,2 3,2 3,2 2,2 3,2 3,2 2,3 3,2 3,2 2,3 3,2 3,3 3,2 2,3 3,2 3,3 2,2 3,3 3,2 2,3 3,2 3,3 2,2 3,2 3,2 3,1 2,2 3,1 3,1 2,1 h 3 3 l 2,-1 h 3 l 3,-2 2,-2 3,-2 3,-2 3,-4 2,-3 3,-4 3,-5 2,-4 3,-5 3,-6 2,-5 3,-6 3,-6 2,-6 3,-6 3,-6 3,-6 2,-6 3,-6 3,-6 2,-5 3,-5 3,-5 2,-5"
           stroke="#ffc000"
           stroke-width="2"
           stroke-linecap="round"
           stroke-linejoin="round"
           stroke-miterlimit="10"
           fill="none"
           id="path1602" />
      </g>
      <g
         clip-path="url(#clip12)"
         id="g1608">
        <path
           d="m 1178,552 -2,-2 -2,-3 -1,-3 -2,-2 -2,-3 -2,-3 -2,-3 -1,-2 -2,-3 -2,-3 -1,-2 -2,-3 -2,-3 -1,-2 -2,-3 -2,-3 -1,-2 -2,-3 -2,-3 -1,-2 -2,-3 -2,-3 -1,-3 -2,-2 -2,-3 -2,-3 -1,-2 -2,-3 -2,-3 -2,-2 -1,-3 -2,-3 -2,-2 -1,-3 -2,-3 -2,-3 -2,-2 -1,-3 -2,-3 -1,-2 -2,-3 -1,-3 -1,-2 -2,-3 -1,-3 -1,-2 -1,-3 -1,-3 -1,-2 -1,-3 -1,-3 v -3 l -1,-2 v -3 l -1,-3 v -2 -3 -3 -2 -3 l 1,-3 v -2 l 1,-3 v -3 l 1,-2 1,-3 1,-3 v -3 l 1,-2 2,-3 1,-3 1,-2 1,-3 1,-3 2,-2 1,-3 2,-3 1,-2 1,-3 2,-3 1,-2 2,-3 2,-3 1,-3 2,-2 1,-3 2,-3 1,-2 2,-3 2,-3 1,-2 2,-3 1,-3 2,-2 2,-3 1,-3 2,-2 1,-3 2,-3 1,-3 2,-2 1,-3 2,-3 2,-2 1,-3 2,-3 1,-2 2,-3 1,-3 2,-2 1,-3 2,-3 1,-2 2,-3 1,-3 2,-3 1,-2 2,-3 1,-3 2,-2 1,-3 2,-3 1,-2 2,-3 1,-3 2,-2 2,-3 1,-3 2,-2 1,-3 2,-3 1,-3 2,-2 1,-3 2,-3 2,-2 1,-3 2,-3 1,-2 2,-3 1,-3 2,-2 1,-3 2,-3 2,-2 1,-3 2,-3 1,-3 2,-2 1,-3 2,-3 1,-2 2,-3 1,-3 2,-2 1,-3 2,-3 1,-2 1,-3 2,-3 1,-3 2,-2 1,-3 1,-3 2,-2 1,-3 1,-3 2,-2 1,-3 1,-3 2,-2 1,-3 1,-3 2,-2 1,-3 2,-3 2,-3 2,-2 2,-3 2,-3 3,-2 3,-3 3,-3 4,-2 5,-3 5,-3 5,-2 7,-3 7,-3 9,-2 9,-3 10,-3 11,-3 12,-2 13,-3 14,-3 14,-2 15,-3 15,-3 14,-2"
           stroke="#4472c4"
           stroke-width="2"
           stroke-linecap="round"
           stroke-linejoin="round"
           stroke-miterlimit="10"
           fill="none"
           id="path1606" />
      </g>
      <g
         clip-path="url(#clip13)"
         id="g1612">
        <path
           d="m 909,283 3,-5 2,-4 3,-5 3,-4 2,-4 3,-4 3,-3 3,-4 2,-3 3,-2 3,-3 2,-3 3,-2 3,-2 2,-2 3,-2 3,-2 2,-1 3,-2 3,-1 3,-2 2,-1 3,-1 3,-1 2,-1 3,-1 3,-1 2,-1 3,-1 3,-1 2,-1 h 3 l 3,-1 3,-1 h 2 l 3,-1 h 3 l 2,-1 h 3 3 l 2,-1 h 3 3 2 3 3 3 2 3 3 2 l 3,1 h 3 2 l 3,1 h 3 l 2,1 3,1 h 3 l 3,1 2,1 3,1 3,1 2,1 3,1 3,1 2,1 3,1 3,1 2,2 3,1 3,1 3,1 2,2 3,1 3,2 2,1 3,2 3,1 2,2 3,1 3,2 2,1 3,2 3,1 3,2 2,1 3,2 3,2 2,1 3,2 3,1 2,2 3,2 3,1 2,2 3,1 3,2 2,2 3,1 3,2 3,1 2,2 3,2 3,1 2,2 3,1 3,2 2,2 3,1 3,2 2,1 3,2 3,1 3,2 2,2 3,1 3,2 2,1 3,2 3,1 2,2 3,2 3,1 2,2 3,1 3,2 3,2 2,1 3,2 3,2 2,1 3,2 3,2 2,2 3,1 3,2 2,2 3,2 3,2 3,2 2,2 3,2 3,2 2,2 3,2 3,2 2,2 3,3 3,2 2,2 3,2 3,3 3,2 2,3 3,2 3,3 2,2 3,2 3,3 2,2 3,2 3,3 2,2 3,2 3,1 3,2 2,1 3,1 3,1 2,1 h 3 l 3,-1 h 2 l 3,-1 3,-2 2,-1 3,-3 3,-2 3,-4 2,-3 3,-4 3,-4 2,-5 3,-5 3,-5 2,-6 3,-5 3,-6 2,-6 3,-6 3,-5 3,-6 2,-6 3,-5 3,-5 2,-5 3,-5 3,-4 2,-5"
           stroke="#4472c4"
           stroke-width="2"
           stroke-linecap="round"
           stroke-linejoin="round"
           stroke-miterlimit="10"
           fill="none"
           id="path1610" />
      </g>
      <g
         clip-path="url(#clip14)"
         id="g1648">
        <path
           d="m 1447.5,11.5001 3,2.9998 -3,3 -3,-3 z"
           stroke="#000000"
           stroke-linejoin="round"
           stroke-miterlimit="10"
           id="path1614" />
        <path
           d="m 1382.5,24.5001 3,2.9998 -3,3 -3,-3 z"
           stroke="#000000"
           stroke-linejoin="round"
           stroke-miterlimit="10"
           id="path1616" />
        <path
           d="m 1362.5,28.5001 3,2.9998 -3,3 -3,-3 z"
           stroke="#000000"
           stroke-linejoin="round"
           stroke-miterlimit="10"
           id="path1618" />
        <path
           d="m 1344.5,32.5001 3,2.9998 -3,3 -3,-3 z"
           stroke="#000000"
           stroke-linejoin="round"
           stroke-miterlimit="10"
           id="path1620" />
        <path
           d="m 1328.5,36.5001 3,2.9998 -3,3 -3,-3 z"
           stroke="#000000"
           stroke-linejoin="round"
           stroke-miterlimit="10"
           id="path1622" />
        <path
           d="m 1256.5,91.5001 3,2.9998 -3,3 -3,-3 z"
           stroke="#000000"
           stroke-linejoin="round"
           stroke-miterlimit="10"
           id="path1624" />
        <path
           d="m 1221.5,154.5 3,3 -3,3 -3,-3 z"
           stroke="#000000"
           stroke-linejoin="round"
           stroke-miterlimit="10"
           id="path1626" />
        <path
           d="m 1183.5,217.5 3,3 -3,3 -3,-3 z"
           stroke="#000000"
           stroke-linejoin="round"
           stroke-miterlimit="10"
           id="path1628" />
        <path
           d="m 1147.5,280.5 3,3 -3,3 -3,-3 z"
           stroke="#000000"
           stroke-linejoin="round"
           stroke-miterlimit="10"
           id="path1630" />
        <path
           d="m 1132.5,305.5 3,3 -3,3 -3,-3 z"
           stroke="#000000"
           stroke-linejoin="round"
           stroke-miterlimit="10"
           id="path1632" />
        <path
           d="m 1090.5,398.5 3,3 -3,3 -3,-3 z"
           stroke="#000000"
           stroke-linejoin="round"
           stroke-miterlimit="10"
           id="path1634" />
        <path
           d="m 1104.5,456.5 3,3 -3,3 -3,-3 z"
           stroke="#000000"
           stroke-linejoin="round"
           stroke-miterlimit="10"
           id="path1636" />
        <path
           d="m 1138.5,494.5 3,3 -3,3 -3,-3 z"
           stroke="#000000"
           stroke-linejoin="round"
           stroke-miterlimit="10"
           id="path1638" />
        <path
           d="m 1150.5,511.5 3,3 -3,3 -3,-3 z"
           stroke="#000000"
           stroke-linejoin="round"
           stroke-miterlimit="10"
           id="path1640" />
        <path
           d="m 1153.5,515.5 3,3 -3,3 -3,-3 z"
           stroke="#000000"
           stroke-linejoin="round"
           stroke-miterlimit="10"
           id="path1642" />
        <path
           d="m 1156.5,519.5 3,3 -3,3 -3,-3 z"
           stroke="#000000"
           stroke-linejoin="round"
           stroke-miterlimit="10"
           id="path1644" />
        <path
           d="m 1178.5,549.5 3,3 -3,3 -3,-3 z"
           stroke="#000000"
           stroke-linejoin="round"
           stroke-miterlimit="10"
           id="path1646" />
      </g>
      <g
         clip-path="url(#clip15)"
         id="g1682">
        <path
           d="m 1447.5,280.5 3,3 -3,3 -3,-3 z"
           stroke="#000000"
           stroke-linejoin="round"
           stroke-miterlimit="10"
           id="path1650" />
        <path
           d="m 1430.5,313.5 3,3 -3,3 -3,-3 z"
           stroke="#000000"
           stroke-linejoin="round"
           stroke-miterlimit="10"
           id="path1652" />
        <path
           d="m 1426.5,322.5 3,3 -3,3 -3,-3 z"
           stroke="#000000"
           stroke-linejoin="round"
           stroke-miterlimit="10"
           id="path1654" />
        <path
           d="m 1422.5,332.5 3,3 -3,3 -3,-3 z"
           stroke="#000000"
           stroke-linejoin="round"
           stroke-miterlimit="10"
           id="path1656" />
        <path
           d="m 1417.5,341.5 3,3 -3,3 -3,-3 z"
           stroke="#000000"
           stroke-linejoin="round"
           stroke-miterlimit="10"
           id="path1658" />
        <path
           d="m 1371.5,401.5 3,3 -3,3 -3,-3 z"
           stroke="#000000"
           stroke-linejoin="round"
           stroke-miterlimit="10"
           id="path1660" />
        <path
           d="m 1342.5,384.5 3,3 -3,3 -3,-3 z"
           stroke="#000000"
           stroke-linejoin="round"
           stroke-miterlimit="10"
           id="path1662" />
        <path
           d="m 1178.5,266.5 3,3 -3,3 -3,-3 z"
           stroke="#000000"
           stroke-linejoin="round"
           stroke-miterlimit="10"
           id="path1664" />
        <path
           d="m 1035.5,199.5 3,3 -3,3 -3,-3 z"
           stroke="#000000"
           stroke-linejoin="round"
           stroke-miterlimit="10"
           id="path1666" />
        <path
           d="m 1030.5,199.5 3,3 -3,3 -3,-3 z"
           stroke="#000000"
           stroke-linejoin="round"
           stroke-miterlimit="10"
           id="path1668" />
        <path
           d="m 993.5,204.5 3,3 -3,3 -3,-3 z"
           stroke="#000000"
           stroke-linejoin="round"
           stroke-miterlimit="10"
           id="path1670" />
        <path
           d="m 959.5,218.5 3,3 -3,3 -3,-3 z"
           stroke="#000000"
           stroke-linejoin="round"
           stroke-miterlimit="10"
           id="path1672" />
        <path
           d="m 951.5,224.5 3,3 -3,3 -3,-3 z"
           stroke="#000000"
           stroke-linejoin="round"
           stroke-miterlimit="10"
           id="path1674" />
        <path
           d="m 946.5,227.5 3,3 -3,3 -3,-3 z"
           stroke="#000000"
           stroke-linejoin="round"
           stroke-miterlimit="10"
           id="path1676" />
        <path
           d="m 942.5,231.5 3,3 -3,3 -3,-3 z"
           stroke="#000000"
           stroke-linejoin="round"
           stroke-miterlimit="10"
           id="path1678" />
        <path
           d="m 909.5,280.5 3,3 -3,3 -3,-3 z"
           stroke="#000000"
           stroke-linejoin="round"
           stroke-miterlimit="10"
           id="path1680" />
      </g>
      <g
         clip-path="url(#clip16)"
         id="g1686">
        <text
           font-family="Arial, Arial_MSFontService, sans-serif"
           font-weight="400"
           font-size="12px"
           transform="translate(1157.2,556)"
           id="text1684">-1</text>
      </g>
      <g
         clip-path="url(#clip17)"
         id="g1690">
        <text
           font-family="Arial, Arial_MSFontService, sans-serif"
           font-weight="400"
           font-size="12px"
           transform="translate(1147.19,502)"
           id="text1688">-0.8</text>
      </g>
      <g
         clip-path="url(#clip18)"
         id="g1694">
        <text
           font-family="Arial, Arial_MSFontService, sans-serif"
           font-weight="400"
           font-size="12px"
           transform="translate(1147.19,449)"
           id="text1692">-0.6</text>
      </g>
      <g
         clip-path="url(#clip19)"
         id="g1698">
        <text
           font-family="Arial, Arial_MSFontService, sans-serif"
           font-weight="400"
           font-size="12px"
           transform="translate(1147.19,395)"
           id="text1696">-0.4</text>
      </g>
      <g
         clip-path="url(#clip20)"
         id="g1702">
        <text
           font-family="Arial, Arial_MSFontService, sans-serif"
           font-weight="400"
           font-size="12px"
           transform="translate(1147.19,341)"
           id="text1700">-0.2</text>
      </g>
      <g
         clip-path="url(#clip21)"
         id="g1706">
        <text
           font-family="Arial, Arial_MSFontService, sans-serif"
           font-weight="400"
           font-size="12px"
           transform="translate(1161.19,287)"
           id="text1704">0</text>
      </g>
      <g
         clip-path="url(#clip22)"
         id="g1710">
        <text
           font-family="Arial, Arial_MSFontService, sans-serif"
           font-weight="400"
           font-size="12px"
           transform="translate(1151.19,234)"
           id="text1708">0.2</text>
      </g>
      <g
         clip-path="url(#clip23)"
         id="g1714">
        <text
           font-family="Arial, Arial_MSFontService, sans-serif"
           font-weight="400"
           font-size="12px"
           transform="translate(1151.19,180)"
           id="text1712">0.4</text>
      </g>
      <g
         clip-path="url(#clip24)"
         id="g1718">
        <text
           font-family="Arial, Arial_MSFontService, sans-serif"
           font-weight="400"
           font-size="12px"
           transform="translate(1151.19,126)"
           id="text1716">0.6</text>
      </g>
      <g
         clip-path="url(#clip25)"
         id="g1722">
        <text
           font-family="Arial, Arial_MSFontService, sans-serif"
           font-weight="400"
           font-size="12px"
           transform="translate(1151.19,72)"
           id="text1720">0.8</text>
      </g>
      <g
         clip-path="url(#clip26)"
         id="g1726">
        <text
           font-family="Arial, Arial_MSFontService, sans-serif"
           font-weight="400"
           font-size="12px"
           transform="translate(1161.19,19)"
           id="text1724">1</text>
      </g>
      <g
         clip-path="url(#clip27)"
         id="g1730">
        <text
           font-family="Arial, Arial_MSFontService, sans-serif"
           font-weight="400"
           font-size="12px"
           transform="translate(903.667,302)"
           id="text1728">-1</text>
      </g>
      <g
         clip-path="url(#clip28)"
         id="g1734">
        <text
           font-family="Arial, Arial_MSFontService, sans-serif"
           font-weight="400"
           font-size="12px"
           transform="translate(952.501,302)"
           id="text1732">-0.8</text>
      </g>
      <g
         clip-path="url(#clip29)"
         id="g1738">
        <text
           font-family="Arial, Arial_MSFontService, sans-serif"
           font-weight="400"
           font-size="12px"
           transform="translate(1006.34,302)"
           id="text1736">-0.6</text>
      </g>
      <g
         clip-path="url(#clip30)"
         id="g1742">
        <text
           font-family="Arial, Arial_MSFontService, sans-serif"
           font-weight="400"
           font-size="12px"
           transform="translate(1060.18,302)"
           id="text1740">-0.4</text>
      </g>
      <g
         clip-path="url(#clip31)"
         id="g1746">
        <text
           font-family="Arial, Arial_MSFontService, sans-serif"
           font-weight="400"
           font-size="12px"
           transform="translate(1114.01,302)"
           id="text1744">-0.2</text>
      </g>
      <g
         clip-path="url(#clip32)"
         id="g1750">
        <text
           font-family="Arial, Arial_MSFontService, sans-serif"
           font-weight="400"
           font-size="12px"
           transform="translate(1174.85,302)"
           id="text1748">0</text>
      </g>
      <g
         clip-path="url(#clip33)"
         id="g1754">
        <text
           font-family="Arial, Arial_MSFontService, sans-serif"
           font-weight="400"
           font-size="12px"
           transform="translate(1223.68,302)"
           id="text1752">0.2</text>
      </g>
      <g
         clip-path="url(#clip34)"
         id="g1758">
        <text
           font-family="Arial, Arial_MSFontService, sans-serif"
           font-weight="400"
           font-size="12px"
           transform="translate(1277.52,302)"
           id="text1756">0.4</text>
      </g>
      <g
         clip-path="url(#clip35)"
         id="g1762">
        <text
           font-family="Arial, Arial_MSFontService, sans-serif"
           font-weight="400"
           font-size="12px"
           transform="translate(1331.36,302)"
           id="text1760">0.6</text>
      </g>
      <g
         clip-path="url(#clip36)"
         id="g1766">
        <text
           font-family="Arial, Arial_MSFontService, sans-serif"
           font-weight="400"
           font-size="12px"
           transform="translate(1385.2,302)"
           id="text1764">0.8</text>
      </g>
      <g
         clip-path="url(#clip37)"
         id="g1770">
        <text
           font-family="Arial, Arial_MSFontService, sans-serif"
           font-weight="400"
           font-size="12px"
           transform="translate(1444.04,302)"
           id="text1768">1</text>
      </g>
    </g>
  </g>
</svg>
