<?xml version="1.0" encoding="UTF-8" standalone="no"?>
<!-- Created with Inkscape (http://www.inkscape.org/) -->

<svg
   width="144.71362mm"
   height="144.36328mm"
   viewBox="0 0 144.71362 144.36328"
   version="1.1"
   id="svg16073"
   inkscape:version="1.2.1 (9c6d41e410, 2022-07-14)"
   sodipodi:docname="Re7500.svg"
   xmlns:inkscape="http://www.inkscape.org/namespaces/inkscape"
   xmlns:sodipodi="http://sodipodi.sourceforge.net/DTD/sodipodi-0.dtd"
   xmlns="http://www.w3.org/2000/svg"
   xmlns:svg="http://www.w3.org/2000/svg">
  <sodipodi:namedview
     id="namedview16075"
     pagecolor="#ffffff"
     bordercolor="#000000"
     borderopacity="0.25"
     inkscape:showpageshadow="2"
     inkscape:pageopacity="0.0"
     inkscape:pagecheckerboard="0"
     inkscape:deskcolor="#d1d1d1"
     inkscape:document-units="mm"
     showgrid="false"
     inkscape:zoom="1.0544998"
     inkscape:cx="209.57804"
     inkscape:cy="247.51072"
     inkscape:window-width="1920"
     inkscape:window-height="1017"
     inkscape:window-x="1912"
     inkscape:window-y="-8"
     inkscape:window-maximized="1"
     inkscape:current-layer="layer1" />
  <defs
     id="defs16070">
    <clipPath
       clipPathUnits="userSpaceOnUse"
       id="clipPath16656">
      <g
         id="g16660"
         transform="matrix(3.7795276,0,0,3.7795276,1109.5512,-495.69231)">
        <rect
           x="-10.200004"
           y="131.15192"
           width="152.39999"
           height="150.01875"
           id="rect16658"
           style="stroke-width:0.264583" />
      </g>
    </clipPath>
    <clipPath
       clipPathUnits="userSpaceOnUse"
       id="clipPath16662">
      <g
         id="g16666"
         transform="matrix(3.7795276,0,0,3.7795276,1109.5512,-495.69231)">
        <rect
           x="-10.200004"
           y="131.15192"
           width="152.39999"
           height="150.01875"
           id="rect16664"
           style="stroke-width:0.264583" />
      </g>
    </clipPath>
    <clipPath
       clipPathUnits="userSpaceOnUse"
       id="clipPath16668">
      <g
         id="g16672"
         transform="matrix(3.7795276,0,0,3.7795276,1109.5512,-495.69231)">
        <rect
           x="-10.200004"
           y="131.15192"
           width="152.39999"
           height="150.01875"
           id="rect16670"
           style="stroke-width:0.264583" />
      </g>
    </clipPath>
    <clipPath
       clipPathUnits="userSpaceOnUse"
       id="clipPath16674">
      <g
         id="g16678"
         transform="matrix(3.7795276,0,0,3.7795276,1109.5512,-495.69231)">
        <rect
           x="-10.200004"
           y="131.15192"
           width="152.39999"
           height="150.01875"
           id="rect16676"
           style="stroke-width:0.264583" />
      </g>
    </clipPath>
    <clipPath
       clipPathUnits="userSpaceOnUse"
       id="clipPath16680">
      <g
         id="g16684"
         transform="matrix(3.7795276,0,0,3.7795276,1109.5512,-495.69231)">
        <rect
           x="-10.200004"
           y="131.15192"
           width="152.39999"
           height="150.01875"
           id="rect16682"
           style="stroke-width:0.264583" />
      </g>
    </clipPath>
    <clipPath
       clipPathUnits="userSpaceOnUse"
       id="clipPath16686">
      <g
         id="g16690"
         transform="matrix(3.7795276,0,0,3.7795276,1109.5512,-495.69231)">
        <rect
           x="-10.200004"
           y="131.15192"
           width="152.39999"
           height="150.01875"
           id="rect16688"
           style="stroke-width:0.264583" />
      </g>
    </clipPath>
    <clipPath
       clipPathUnits="userSpaceOnUse"
       id="clipPath16692">
      <g
         id="g16696"
         transform="matrix(3.7795276,0,0,3.7795276,1109.5512,-495.69231)">
        <rect
           x="-10.200004"
           y="131.15192"
           width="152.39999"
           height="150.01875"
           id="rect16694"
           style="stroke-width:0.264583" />
      </g>
    </clipPath>
    <clipPath
       clipPathUnits="userSpaceOnUse"
       id="clipPath16698">
      <g
         id="g16702"
         transform="matrix(3.7795276,0,0,3.7795276,1109.5512,-495.69231)">
        <rect
           x="-10.200004"
           y="131.15192"
           width="152.39999"
           height="150.01875"
           id="rect16700"
           style="stroke-width:0.264583" />
      </g>
    </clipPath>
    <clipPath
       clipPathUnits="userSpaceOnUse"
       id="clipPath16704">
      <g
         id="g16708"
         transform="matrix(3.7795276,0,0,3.7795276,1109.5512,-495.69231)">
        <rect
           x="-10.200004"
           y="131.15192"
           width="152.39999"
           height="150.01875"
           id="rect16706"
           style="stroke-width:0.264583" />
      </g>
    </clipPath>
    <clipPath
       clipPathUnits="userSpaceOnUse"
       id="clipPath16710">
      <g
         id="g16714"
         transform="matrix(3.7795276,0,0,3.7795276,1109.5512,-495.69231)">
        <rect
           x="-10.200004"
           y="131.15192"
           width="152.39999"
           height="150.01875"
           id="rect16712"
           style="stroke-width:0.264583" />
      </g>
    </clipPath>
    <clipPath
       clipPathUnits="userSpaceOnUse"
       id="clipPath16716">
      <g
         id="g16720"
         transform="matrix(3.7795276,0,0,3.7795276,1109.5512,-495.69231)">
        <rect
           x="-10.200004"
           y="131.15192"
           width="152.39999"
           height="150.01875"
           id="rect16718"
           style="stroke-width:0.264583" />
      </g>
    </clipPath>
    <clipPath
       clipPathUnits="userSpaceOnUse"
       id="clipPath16722">
      <g
         id="g16726"
         transform="matrix(3.7795276,0,0,3.7795276,1109.5512,-495.69231)">
        <rect
           x="-10.200004"
           y="131.15192"
           width="152.39999"
           height="150.01875"
           id="rect16724"
           style="stroke-width:0.264583" />
      </g>
    </clipPath>
    <clipPath
       clipPathUnits="userSpaceOnUse"
       id="clipPath16728">
      <g
         id="g16732"
         transform="matrix(3.7795276,0,0,3.7795276,1109.5512,-495.69231)">
        <rect
           x="-10.200004"
           y="131.15192"
           width="152.39999"
           height="150.01875"
           id="rect16730"
           style="stroke-width:0.264583" />
      </g>
    </clipPath>
    <clipPath
       clipPathUnits="userSpaceOnUse"
       id="clipPath16734">
      <g
         id="g16738"
         transform="matrix(3.7795276,0,0,3.7795276,1109.5512,-495.69231)">
        <rect
           x="-10.200004"
           y="131.15192"
           width="152.39999"
           height="150.01875"
           id="rect16736"
           style="stroke-width:0.264583" />
      </g>
    </clipPath>
    <clipPath
       clipPathUnits="userSpaceOnUse"
       id="clipPath16740">
      <g
         id="g16744"
         transform="matrix(3.7795276,0,0,3.7795276,1109.5512,-495.69231)">
        <rect
           x="-10.200004"
           y="131.15192"
           width="152.39999"
           height="150.01875"
           id="rect16742"
           style="stroke-width:0.264583" />
      </g>
    </clipPath>
    <clipPath
       clipPathUnits="userSpaceOnUse"
       id="clipPath16746">
      <g
         id="g16750"
         transform="matrix(3.7795276,0,0,3.7795276,1109.5512,-495.69231)">
        <rect
           x="-10.200004"
           y="131.15192"
           width="152.39999"
           height="150.01875"
           id="rect16748"
           style="stroke-width:0.264583" />
      </g>
    </clipPath>
    <clipPath
       clipPathUnits="userSpaceOnUse"
       id="clipPath16752">
      <g
         id="g16756"
         transform="matrix(3.7795276,0,0,3.7795276,1109.5512,-495.69231)">
        <rect
           x="-10.200004"
           y="131.15192"
           width="152.39999"
           height="150.01875"
           id="rect16754"
           style="stroke-width:0.264583" />
      </g>
    </clipPath>
    <clipPath
       clipPathUnits="userSpaceOnUse"
       id="clipPath16758">
      <g
         id="g16762">
        <rect
           x="-10.200004"
           y="131.15192"
           width="152.39999"
           height="150.01875"
           id="rect16760"
           style="stroke-width:0.264583" />
      </g>
    </clipPath>
  </defs>
  <g
     inkscape:label="Camada 1"
     inkscape:groupmode="layer"
     id="layer1"
     transform="translate(6.2177971,-133.89697)">
    <g
       id="g16203"
       transform="matrix(0.26458333,0,0,0.26458333,-293.56875,131.15192)"
       clip-path="url(#clipPath16752)">
      <path
         d="m 1091.5,552.5 h 538 m -538,-54 h 538 m -538,-54 h 538 m -538,-54 h 538 m -538,-53 h 538 m -538,-108 h 538 m -538,-54 h 538 m -538,-53 h 538 m -538,-53.9999 h 538 m -538,-54 h 538"
         stroke="#d9d9d9"
         stroke-linejoin="round"
         stroke-miterlimit="10"
         fill="none"
         id="path16201" />
    </g>
    <g
       id="g16207"
       transform="matrix(0.26458333,0,0,0.26458333,-293.56875,131.15192)"
       clip-path="url(#clipPath16746)">
      <path
         d="M 1091.5,14.5001 V 552.5 m 53,-537.9999 V 552.5 m 54,-537.9999 V 552.5 m 54,-537.9999 V 552.5 m 54,-537.9999 V 552.5 m 108,-537.9999 V 552.5 m 53,-537.9999 V 552.5 m 54,-537.9999 V 552.5 m 54,-537.9999 V 552.5 m 54,-537.9999 V 552.5"
         stroke="#d9d9d9"
         stroke-linejoin="round"
         stroke-miterlimit="10"
         fill="none"
         id="path16205" />
    </g>
    <g
       id="g16211"
       transform="matrix(0.26458333,0,0,0.26458333,-293.56875,131.15192)"
       clip-path="url(#clipPath16740)">
      <rect
         x="1091.5"
         y="14.5001"
         width="538"
         height="538"
         stroke="#000000"
         stroke-width="1.33333"
         stroke-linejoin="round"
         stroke-miterlimit="10"
         fill="none"
         id="rect16209" />
    </g>
    <g
       id="g16215"
       transform="matrix(0.26458333,0,0,0.26458333,-293.56875,131.15192)"
       clip-path="url(#clipPath16734)">
      <path
         d="M 0,0 1.04987e-4,538"
         stroke="#000000"
         stroke-linejoin="round"
         stroke-miterlimit="10"
         fill="none"
         fill-rule="evenodd"
         transform="matrix(1,0,0,-1,1360.5,552.5)"
         id="path16213" />
    </g>
    <g
       id="g16219"
       transform="matrix(0.26458333,0,0,0.26458333,-293.56875,131.15192)"
       clip-path="url(#clipPath16728)">
      <path
         d="m 1360.5,552.5 h 2 m -2,-11 h 2 m -2,-11 h 2 m -2,-10 h 2 m -2,-11 h 2 m -2,-11 h 2 m -2,-11 h 2 m -2,-11 h 2 m -2,-10 h 2 m -2,-11 h 2 m -2,-11 h 2 m -2,-11 h 2 m -2,-10 h 2 m -2,-11 h 2 m -2,-11 h 2 m -2,-11 h 2 m -2,-10 h 2 m -2,-11 h 2 m -2,-11 h 2 m -2,-11 h 2 m -2,-10 h 2 m -2,-11 h 2 m -2,-11 h 2 m -2,-11 h 2 m -2,-10 h 2 m -2,-11 h 2 m -2,-11 h 2 m -2,-11 h 2 m -2,-10 h 2 m -2,-11 h 2 m -2,-11 h 2 m -2,-11 h 2 m -2,-10 h 2 m -2,-11 h 2 m -2,-11 h 2 m -2,-11 h 2 m -2,-10 h 2 m -2,-11 h 2 m -2,-11 h 2 m -2,-11 h 2 m -2,-10 h 2 m -2,-11 h 2 m -2,-11 h 2 m -2,-10.9999 h 2 m -2,-10 h 2 m -2,-11 h 2 m -2,-11 h 2 m -2,-11.0001 h 2 m -2,-9.9999 h 2 m -2,-11 h 2 m -2,-11 h 2 m -6,537.9999 h 7 m -7,-54 h 7 m -7,-54 h 7 m -7,-54 h 7 m -7,-53 h 7 m -7,-54 h 7 m -7,-54 h 7 m -7,-54 h 7 m -7,-53 h 7 m -7,-53.9999 h 7 m -7,-54 h 7"
         stroke="#000000"
         stroke-linejoin="round"
         stroke-miterlimit="10"
         fill="none"
         id="path16217" />
    </g>
    <g
       id="g16223"
       transform="matrix(0.26458333,0,0,0.26458333,-293.56875,131.15192)"
       clip-path="url(#clipPath16722)">
      <path
         d="m 1091.5,283.5 h 538"
         stroke="#000000"
         stroke-linejoin="round"
         stroke-miterlimit="10"
         fill="none"
         fill-rule="evenodd"
         id="path16221" />
    </g>
    <g
       id="g16227"
       transform="matrix(0.26458333,0,0,0.26458333,-293.56875,131.15192)"
       clip-path="url(#clipPath16716)">
      <path
         d="m 1091.5,280.5 v 3 m 10,-3 v 3 m 11,-3 v 3 m 11,-3 v 3 m 11,-3 v 3 m 10,-3 v 3 m 11,-3 v 3 m 11,-3 v 3 m 11,-3 v 3 m 10,-3 v 3 m 11,-3 v 3 m 11,-3 v 3 m 11,-3 v 3 m 10,-3 v 3 m 11,-3 v 3 m 11,-3 v 3 m 11,-3 v 3 m 11,-3 v 3 m 10,-3 v 3 m 11,-3 v 3 m 11,-3 v 3 m 11,-3 v 3 m 10,-3 v 3 m 11,-3 v 3 m 11,-3 v 3 m 11,-3 v 3 m 10,-3 v 3 m 11,-3 v 3 m 11,-3 v 3 m 11,-3 v 3 m 11,-3 v 3 m 10,-3 v 3 m 11,-3 v 3 m 11,-3 v 3 m 11,-3 v 3 m 10,-3 v 3 m 11,-3 v 3 m 11,-3 v 3 m 11,-3 v 3 m 10,-3 v 3 m 11,-3 v 3 m 11,-3 v 3 m 11,-3 v 3 m 11,-3 v 3 m 10,-3 v 3 m 11,-3 v 3 m 11,-3 v 3 m 11,-3 v 3 m 10,-3 v 3 m 11,-3 v 3 m 11,-3 v 3 m -538,-4 v 8 m 53,-8 v 8 m 54,-8 v 8 m 54,-8 v 8 m 54,-8 v 8 m 54,-8 v 8 m 54,-8 v 8 m 53,-8 v 8 m 54,-8 v 8 m 54,-8 v 8 m 54,-8 v 8"
         stroke="#000000"
         stroke-linejoin="round"
         stroke-miterlimit="10"
         fill="none"
         id="path16225" />
    </g>
    <g
       id="g16231"
       transform="matrix(0.26458333,0,0,0.26458333,-293.56875,131.15192)"
       clip-path="url(#clipPath16710)">
      <path
         d="m 1360,552 -28,-6 -18,-7 -11,-7 -9,-7 -7,-6 -4,-7 v -7 l 1,-6 3,-7 4,-7 3,-7 3,-6 2,-7 2,-7 2,-7 2,-6 2,-7 2,-7 2,-6 2,-7 2,-7 2,-7 3,-6 2,-7 2,-7 2,-6 2,-7 2,-7 2,-7 2,-6 2,-7 2,-7 3,-6 2,-7 2,-7 2,-7 2,-6 2,-7 2,-7 2,-7 2,-6 3,-7 2,-7 2,-6 2,-7 2,-7 3,-7 2,-6 2,-7 2,-7 3,-6 2,-7 2,-7 3,-7 2,-6 2,-7 3,-7 2,-6 3,-7 2,-7 3,-7 3,-6 2,-7 3,-7 3,-7 3,-6 3,-7 3,-7 3,-6 3,-7 3,-7 4,-7 3,-6 2,-7 1,-7 -1,-6 -3,-7 4,-7 54,-7 132,-6"
         stroke="#ed7d31"
         stroke-width="2"
         stroke-linecap="round"
         stroke-linejoin="round"
         stroke-miterlimit="10"
         fill="none"
         id="path16229" />
    </g>
    <g
       id="g16235"
       transform="matrix(0.26458333,0,0,0.26458333,-293.56875,131.15192)"
       clip-path="url(#clipPath16704)">
      <path
         d="m 1091,283 7,-29 6,-18 7,-11 7,-7 7,-6 6,-4 7,-1 h 7 l 7,2 6,2 7,3 7,3 6,3 7,2 7,3 7,2 6,2 7,3 7,2 7,2 6,2 7,3 7,2 7,2 6,2 7,3 7,2 6,2 7,2 7,3 7,2 6,2 7,2 7,2 7,3 6,2 7,2 7,2 6,2 7,3 7,2 7,2 6,2 7,2 7,3 7,2 6,2 7,2 7,3 6,2 7,2 7,3 7,2 6,2 7,3 7,2 7,2 6,3 7,2 7,3 7,2 6,3 7,2 7,3 6,3 7,2 7,3 7,3 6,3 7,2 7,3 7,2 6,2 7,4 7,9 6,10 7,1 7,-21 7,-43 6,-37"
         stroke="#ed7d31"
         stroke-width="2"
         stroke-linecap="round"
         stroke-linejoin="round"
         stroke-miterlimit="10"
         fill="none"
         id="path16233" />
    </g>
    <g
       id="g16239"
       transform="matrix(0.26458333,0,0,0.26458333,-293.56875,131.15192)"
       clip-path="url(#clipPath16698)">
      <path
         d="m 1360,552 -35,-6 -21,-7 -16,-7 -12,-7 -7,-6 -2,-7 3,-7 4,-6 4,-7 4,-7 2,-7 3,-6 2,-7 2,-7 3,-7 2,-6 3,-7 2,-7 2,-6 3,-7 2,-7 3,-7 2,-6 3,-7 2,-7 2,-6 3,-7 2,-7 3,-7 2,-6 2,-7 3,-7 2,-6 3,-7 2,-7 3,-7 2,-6 2,-7 3,-7 2,-7 3,-6 2,-7 3,-7 2,-6 3,-7 2,-7 3,-7 2,-6 3,-7 3,-7 2,-6 3,-7 3,-7 2,-7 3,-6 3,-7 3,-7 3,-6 2,-7 3,-7 3,-7 3,-6 4,-7 3,-7 3,-7 3,-6 4,-7 3,-7 4,-6 3,-7 4,-7 4,-7 4,-6 4,-7 2,-7 2,-6 -2,-7 2,-7 47,-7 122,-6"
         stroke="#4472c4"
         stroke-width="2"
         stroke-linecap="round"
         stroke-linejoin="round"
         stroke-miterlimit="10"
         fill="none"
         id="path16237" />
    </g>
    <g
       id="g16243"
       transform="matrix(0.26458333,0,0,0.26458333,-293.56875,131.15192)"
       clip-path="url(#clipPath16692)">
      <path
         d="m 1091,283 7,-39 6,-24 7,-12 7,-9 7,-6 6,-2 7,1 7,3 7,3 6,3 7,4 7,3 6,2 7,3 7,3 7,3 6,2 7,3 7,3 7,2 6,3 7,3 7,2 7,3 6,3 7,2 7,3 6,2 7,3 7,2 7,3 6,3 7,2 7,3 7,2 6,3 7,2 7,3 6,2 7,3 7,3 7,2 6,3 7,2 7,3 7,2 6,3 7,3 7,2 6,3 7,2 7,3 7,3 6,2 7,3 7,3 7,3 6,2 7,3 7,3 7,3 6,3 7,3 7,3 6,3 7,3 7,3 7,3 6,3 7,3 7,4 7,2 6,3 7,3 7,8 6,13 7,4 7,-21 7,-51 6,-46"
         stroke="#4472c4"
         stroke-width="2"
         stroke-linecap="round"
         stroke-linejoin="round"
         stroke-miterlimit="10"
         fill="none"
         id="path16241" />
    </g>
    <g
       id="g16247"
       transform="matrix(0.26458333,0,0,0.26458333,-293.56875,131.15192)"
       clip-path="url(#clipPath16686)">
      <path
         d="m 1091,283 7,-43 6,-27 7,-14 7,-10 7,-6 6,-3 7,1 7,4 7,3 6,4 7,4 7,3 6,3 7,3 7,3 7,3 6,3 7,4 7,3 7,3 6,3 7,2 7,3 7,3 6,3 7,3 7,3 6,3 7,3 7,3 7,3 6,3 7,2 7,3 7,3 6,3 7,3 7,3 6,2 7,3 7,3 7,3 6,3 7,3 7,3 7,2 6,3 7,3 7,3 6,3 7,3 7,3 7,3 6,3 7,3 7,3 7,3 6,3 7,3 7,3 7,4 6,3 7,3 7,3 6,4 7,3 7,3 7,4 6,3 7,4 7,3 7,3 6,3 7,4 7,11 6,13 7,-3 7,-31 7,-52 6,-42"
         stroke="#4472c4"
         stroke-width="2"
         stroke-linecap="round"
         stroke-linejoin="round"
         stroke-miterlimit="10"
         stroke-dasharray="4, 4"
         fill="none"
         id="path16245" />
    </g>
    <g
       id="g16251"
       transform="matrix(0.26458333,0,0,0.26458333,-293.56875,131.15192)"
       clip-path="url(#clipPath16680)">
      <path
         d="m 1360,552 -34,-6 -22,-7 -18,-7 -15,-7 -9,-6 -4,-7 2,-7 4,-6 5,-7 4,-7 3,-7 2,-6 2,-7 3,-7 3,-7 2,-6 3,-7 3,-7 3,-6 2,-7 3,-7 3,-7 2,-6 3,-7 3,-7 2,-6 3,-7 3,-7 2,-7 3,-6 3,-7 2,-7 3,-6 3,-7 2,-7 3,-7 3,-6 3,-7 2,-7 3,-7 3,-6 3,-7 2,-7 3,-6 3,-7 3,-7 3,-7 2,-6 3,-7 3,-7 3,-6 3,-7 3,-7 3,-7 3,-6 3,-7 3,-7 4,-6 3,-7 3,-7 4,-7 3,-6 3,-7 4,-7 4,-7 3,-6 4,-7 4,-7 4,-6 4,-7 4,-7 5,-7 4,-6 5,-7 3,-7 2,-6 -2,-7 3,-7 53,-7 103,-6"
         stroke="#4472c4"
         stroke-width="2"
         stroke-linecap="round"
         stroke-linejoin="round"
         stroke-miterlimit="10"
         stroke-dasharray="4, 4"
         fill="none"
         id="path16249" />
    </g>
    <g
       id="g16255"
       transform="matrix(0.26458333,0,0,0.26458333,-293.56875,131.15192)"
       clip-path="url(#clipPath16674)">
      <path
         d="m 1091,283 7,-31 6,-19 7,-11 7,-7 7,-7 6,-3 7,-2 7,1 7,2 6,2 7,3 7,3 6,3 7,3 7,2 7,2 6,3 7,2 7,3 7,2 6,2 7,3 7,2 7,3 6,2 7,2 7,3 6,2 7,2 7,3 7,2 6,2 7,2 7,3 7,2 6,2 7,3 7,2 6,2 7,3 7,2 7,2 6,2 7,3 7,2 7,2 6,3 7,2 7,3 6,2 7,2 7,3 7,2 6,3 7,2 7,3 7,2 6,3 7,2 7,3 7,2 6,3 7,3 7,2 6,3 7,3 7,3 7,3 6,3 7,3 7,2 7,2 6,2 7,5 7,9 6,10 7,1 7,-23 7,-45 6,-37"
         stroke="#ed7d31"
         stroke-width="2"
         stroke-linecap="round"
         stroke-linejoin="round"
         stroke-miterlimit="10"
         stroke-dasharray="4, 4"
         fill="none"
         id="path16253" />
    </g>
    <g
       id="g16259"
       transform="matrix(0.26458333,0,0,0.26458333,-293.56875,131.15192)"
       clip-path="url(#clipPath16668)">
      <path
         d="m 1360,552 -29,-6 -18,-7 -12,-7 -10,-7 -7,-6 -4,-7 -1,-7 2,-6 3,-7 3,-7 4,-7 3,-6 2,-7 2,-7 2,-7 2,-6 2,-7 3,-7 2,-6 2,-7 2,-7 2,-7 3,-6 2,-7 2,-7 2,-6 2,-7 3,-7 2,-7 2,-6 2,-7 2,-7 3,-6 2,-7 2,-7 2,-7 2,-6 3,-7 2,-7 2,-7 2,-6 2,-7 3,-7 2,-6 2,-7 3,-7 2,-7 2,-6 3,-7 2,-7 2,-6 3,-7 2,-7 3,-7 2,-6 3,-7 2,-7 3,-6 2,-7 3,-7 3,-7 3,-6 2,-7 3,-7 3,-7 3,-6 3,-7 3,-7 4,-6 3,-7 4,-7 3,-7 3,-6 3,-7 1,-7 -1,-6 -3,-7 5,-7 56,-7 125,-6"
         stroke="#ed7d31"
         stroke-width="2"
         stroke-linecap="round"
         stroke-linejoin="round"
         stroke-miterlimit="10"
         stroke-dasharray="4, 4"
         fill="none"
         id="path16257" />
    </g>
    <g
       id="g16295"
       transform="matrix(0.26458333,0,0,0.26458333,-293.56875,131.15192)"
       clip-path="url(#clipPath16662)">
      <path
         d="m 1629.5,11.5001 3,2.9998 -3,3 -3,-3 z"
         stroke="#000000"
         stroke-linejoin="round"
         stroke-miterlimit="10"
         id="path16261" />
      <path
         d="m 1487.5,24.5001 3,2.9998 -3,3 -3,-3 z"
         stroke="#000000"
         stroke-linejoin="round"
         stroke-miterlimit="10"
         id="path16263" />
      <path
         d="m 1486.5,28.5001 3,2.9998 -3,3 -3,-3 z"
         stroke="#000000"
         stroke-linejoin="round"
         stroke-miterlimit="10"
         id="path16265" />
      <path
         d="m 1487.5,32.5001 3,2.9998 -3,3 -3,-3 z"
         stroke="#000000"
         stroke-linejoin="round"
         stroke-miterlimit="10"
         id="path16267" />
      <path
         d="m 1487.5,36.5001 3,2.9998 -3,3 -3,-3 z"
         stroke="#000000"
         stroke-linejoin="round"
         stroke-miterlimit="10"
         id="path16269" />
      <path
         d="m 1452.5,91.5001 3,2.9998 -3,3 -3,-3 z"
         stroke="#000000"
         stroke-linejoin="round"
         stroke-miterlimit="10"
         id="path16271" />
      <path
         d="m 1415.5,154.5 3,3 -3,3 -3,-3 z"
         stroke="#000000"
         stroke-linejoin="round"
         stroke-miterlimit="10"
         id="path16273" />
      <path
         d="m 1382.5,217.5 3,3 -3,3 -3,-3 z"
         stroke="#000000"
         stroke-linejoin="round"
         stroke-miterlimit="10"
         id="path16275" />
      <path
         d="m 1349.5,280.5 3,3 -3,3 -3,-3 z"
         stroke="#000000"
         stroke-linejoin="round"
         stroke-miterlimit="10"
         id="path16277" />
      <path
         d="m 1339.5,305.5 3,3 -3,3 -3,-3 z"
         stroke="#000000"
         stroke-linejoin="round"
         stroke-miterlimit="10"
         id="path16279" />
      <path
         d="m 1297.5,398.5 3,3 -3,3 -3,-3 z"
         stroke="#000000"
         stroke-linejoin="round"
         stroke-miterlimit="10"
         id="path16281" />
      <path
         d="m 1272.5,456.5 3,3 -3,3 -3,-3 z"
         stroke="#000000"
         stroke-linejoin="round"
         stroke-miterlimit="10"
         id="path16283" />
      <path
         d="m 1257.5,494.5 3,3 -3,3 -3,-3 z"
         stroke="#000000"
         stroke-linejoin="round"
         stroke-miterlimit="10"
         id="path16285" />
      <path
         d="m 1244.5,511.5 3,3 -3,3 -3,-3 z"
         stroke="#000000"
         stroke-linejoin="round"
         stroke-miterlimit="10"
         id="path16287" />
      <path
         d="m 1242.5,515.5 3,3 -3,3 -3,-3 z"
         stroke="#000000"
         stroke-linejoin="round"
         stroke-miterlimit="10"
         id="path16289" />
      <path
         d="m 1244.5,519.5 3,3 -3,3 -3,-3 z"
         stroke="#000000"
         stroke-linejoin="round"
         stroke-miterlimit="10"
         id="path16291" />
      <path
         d="m 1360.5,549.5 3,3 -3,3 -3,-3 z"
         stroke="#000000"
         stroke-linejoin="round"
         stroke-miterlimit="10"
         id="path16293" />
    </g>
    <g
       id="g16331"
       transform="matrix(0.26458333,0,0,0.26458333,-293.56875,131.15192)"
       clip-path="url(#clipPath16656)">
      <path
         d="m 1629.5,280.5 3,3 -3,3 -3,-3 z"
         stroke="#000000"
         stroke-linejoin="round"
         stroke-miterlimit="10"
         id="path16297" />
      <path
         d="m 1612.5,425.5 3,3 -3,3 -3,-3 z"
         stroke="#000000"
         stroke-linejoin="round"
         stroke-miterlimit="10"
         id="path16299" />
      <path
         d="m 1608.5,428.5 3,3 -3,3 -3,-3 z"
         stroke="#000000"
         stroke-linejoin="round"
         stroke-miterlimit="10"
         id="path16301" />
      <path
         d="m 1604.5,421.5 3,3 -3,3 -3,-3 z"
         stroke="#000000"
         stroke-linejoin="round"
         stroke-miterlimit="10"
         id="path16303" />
      <path
         d="m 1599.5,411.5 3,3 -3,3 -3,-3 z"
         stroke="#000000"
         stroke-linejoin="round"
         stroke-miterlimit="10"
         id="path16305" />
      <path
         d="m 1578.5,390.5 3,3 -3,3 -3,-3 z"
         stroke="#000000"
         stroke-linejoin="round"
         stroke-miterlimit="10"
         id="path16307" />
      <path
         d="m 1553.5,377.5 3,3 -3,3 -3,-3 z"
         stroke="#000000"
         stroke-linejoin="round"
         stroke-miterlimit="10"
         id="path16309" />
      <path
         d="m 1524.5,362.5 3,3 -3,3 -3,-3 z"
         stroke="#000000"
         stroke-linejoin="round"
         stroke-miterlimit="10"
         id="path16311" />
      <path
         d="m 1360.5,278.5 3,3 -3,3 -3,-3 z"
         stroke="#000000"
         stroke-linejoin="round"
         stroke-miterlimit="10"
         id="path16313" />
      <path
         d="m 1217.5,206.5 3,3 -3,3 -3,-3 z"
         stroke="#000000"
         stroke-linejoin="round"
         stroke-miterlimit="10"
         id="path16315" />
      <path
         d="m 1212.5,204.5 3,3 -3,3 -3,-3 z"
         stroke="#000000"
         stroke-linejoin="round"
         stroke-miterlimit="10"
         id="path16317" />
      <path
         d="m 1175.5,186.5 3,3 -3,3 -3,-3 z"
         stroke="#000000"
         stroke-linejoin="round"
         stroke-miterlimit="10"
         id="path16319" />
      <path
         d="m 1141.5,168.5 3,3 -3,3 -3,-3 z"
         stroke="#000000"
         stroke-linejoin="round"
         stroke-miterlimit="10"
         id="path16321" />
      <path
         d="m 1133.5,163.5 3,3 -3,3 -3,-3 z"
         stroke="#000000"
         stroke-linejoin="round"
         stroke-miterlimit="10"
         id="path16323" />
      <path
         d="m 1128.5,162.5 3,3 -3,3 -3,-3 z"
         stroke="#000000"
         stroke-linejoin="round"
         stroke-miterlimit="10"
         id="path16325" />
      <path
         d="m 1124.5,162.5 3,3 -3,3 -3,-3 z"
         stroke="#000000"
         stroke-linejoin="round"
         stroke-miterlimit="10"
         id="path16327" />
      <path
         d="m 1091.5,280.5 3,3 -3,3 -3,-3 z"
         stroke="#000000"
         stroke-linejoin="round"
         stroke-miterlimit="10"
         id="path16329" />
    </g>
    <g
       id="g16335"
       transform="matrix(0.26458333,0,0,0.26458333,-293.56875,131.15192)">
      <text
         font-family="Arial, Arial_MSFontService, sans-serif"
         font-weight="400"
         font-size="12px"
         transform="translate(1339.2,556)"
         id="text16333">-1</text>
    </g>
    <g
       id="g16339"
       transform="matrix(0.26458333,0,0,0.26458333,-293.56875,131.15192)">
      <text
         font-family="Arial, Arial_MSFontService, sans-serif"
         font-weight="400"
         font-size="12px"
         transform="translate(1329.19,502)"
         id="text16337">-0.8</text>
    </g>
    <g
       id="g16343"
       transform="matrix(0.26458333,0,0,0.26458333,-293.56875,131.15192)">
      <text
         font-family="Arial, Arial_MSFontService, sans-serif"
         font-weight="400"
         font-size="12px"
         transform="translate(1329.19,449)"
         id="text16341">-0.6</text>
    </g>
    <g
       id="g16347"
       transform="matrix(0.26458333,0,0,0.26458333,-293.56875,131.15192)">
      <text
         font-family="Arial, Arial_MSFontService, sans-serif"
         font-weight="400"
         font-size="12px"
         transform="translate(1329.19,395)"
         id="text16345">-0.4</text>
    </g>
    <g
       id="g16351"
       transform="matrix(0.26458333,0,0,0.26458333,-293.56875,131.15192)">
      <text
         font-family="Arial, Arial_MSFontService, sans-serif"
         font-weight="400"
         font-size="12px"
         transform="translate(1329.19,341)"
         id="text16349">-0.2</text>
    </g>
    <g
       id="g16355"
       transform="matrix(0.26458333,0,0,0.26458333,-293.56875,131.15192)">
      <text
         font-family="Arial, Arial_MSFontService, sans-serif"
         font-weight="400"
         font-size="12px"
         transform="translate(1343.19,287)"
         id="text16353">0</text>
    </g>
    <g
       id="g16359"
       transform="matrix(0.26458333,0,0,0.26458333,-293.56875,131.15192)">
      <text
         font-family="Arial, Arial_MSFontService, sans-serif"
         font-weight="400"
         font-size="12px"
         transform="translate(1333.19,234)"
         id="text16357">0.2</text>
    </g>
    <g
       id="g16363"
       transform="matrix(0.26458333,0,0,0.26458333,-293.56875,131.15192)">
      <text
         font-family="Arial, Arial_MSFontService, sans-serif"
         font-weight="400"
         font-size="12px"
         transform="translate(1333.19,180)"
         id="text16361">0.4</text>
    </g>
    <g
       id="g16367"
       transform="matrix(0.26458333,0,0,0.26458333,-293.56875,131.15192)">
      <text
         font-family="Arial, Arial_MSFontService, sans-serif"
         font-weight="400"
         font-size="12px"
         transform="translate(1333.19,126)"
         id="text16365">0.6</text>
    </g>
    <g
       id="g16371"
       transform="matrix(0.26458333,0,0,0.26458333,-293.56875,131.15192)">
      <text
         font-family="Arial, Arial_MSFontService, sans-serif"
         font-weight="400"
         font-size="12px"
         transform="translate(1333.19,72)"
         id="text16369">0.8</text>
    </g>
    <g
       id="g16375"
       transform="matrix(0.26458333,0,0,0.26458333,-293.56875,131.15192)">
      <text
         font-family="Arial, Arial_MSFontService, sans-serif"
         font-weight="400"
         font-size="12px"
         transform="translate(1343.19,19)"
         id="text16373">1</text>
    </g>
    <g
       id="g16379"
       transform="matrix(0.26458333,0,0,0.26458333,-293.56875,131.15192)">
      <text
         font-family="Arial, Arial_MSFontService, sans-serif"
         font-weight="400"
         font-size="12px"
         transform="translate(1085.67,302)"
         id="text16377">-1</text>
    </g>
    <g
       id="g16383"
       transform="matrix(0.26458333,0,0,0.26458333,-293.56875,131.15192)">
      <text
         font-family="Arial, Arial_MSFontService, sans-serif"
         font-weight="400"
         font-size="12px"
         transform="translate(1134.5,302)"
         id="text16381">-0.8</text>
    </g>
    <g
       id="g16387"
       transform="matrix(0.26458333,0,0,0.26458333,-293.56875,131.15192)">
      <text
         font-family="Arial, Arial_MSFontService, sans-serif"
         font-weight="400"
         font-size="12px"
         transform="translate(1188.34,302)"
         id="text16385">-0.6</text>
    </g>
    <g
       id="g16391"
       transform="matrix(0.26458333,0,0,0.26458333,-293.56875,131.15192)">
      <text
         font-family="Arial, Arial_MSFontService, sans-serif"
         font-weight="400"
         font-size="12px"
         transform="translate(1242.18,302)"
         id="text16389">-0.4</text>
    </g>
    <g
       id="g16395"
       transform="matrix(0.26458333,0,0,0.26458333,-293.56875,131.15192)">
      <text
         font-family="Arial, Arial_MSFontService, sans-serif"
         font-weight="400"
         font-size="12px"
         transform="translate(1296.01,302)"
         id="text16393">-0.2</text>
    </g>
    <g
       id="g16399"
       transform="matrix(0.26458333,0,0,0.26458333,-293.56875,131.15192)">
      <text
         font-family="Arial, Arial_MSFontService, sans-serif"
         font-weight="400"
         font-size="12px"
         transform="translate(1356.85,302)"
         id="text16397">0</text>
    </g>
    <g
       id="g16403"
       transform="matrix(0.26458333,0,0,0.26458333,-293.56875,131.15192)">
      <text
         font-family="Arial, Arial_MSFontService, sans-serif"
         font-weight="400"
         font-size="12px"
         transform="translate(1405.68,302)"
         id="text16401">0.2</text>
    </g>
    <g
       id="g16407"
       transform="matrix(0.26458333,0,0,0.26458333,-293.56875,131.15192)">
      <text
         font-family="Arial, Arial_MSFontService, sans-serif"
         font-weight="400"
         font-size="12px"
         transform="translate(1459.52,302)"
         id="text16405">0.4</text>
    </g>
    <g
       id="g16411"
       transform="matrix(0.26458333,0,0,0.26458333,-293.56875,131.15192)">
      <text
         font-family="Arial, Arial_MSFontService, sans-serif"
         font-weight="400"
         font-size="12px"
         transform="translate(1513.36,302)"
         id="text16409">0.6</text>
    </g>
    <g
       id="g16415"
       transform="matrix(0.26458333,0,0,0.26458333,-293.56875,131.15192)">
      <text
         font-family="Arial, Arial_MSFontService, sans-serif"
         font-weight="400"
         font-size="12px"
         transform="translate(1567.2,302)"
         id="text16413">0.8</text>
    </g>
    <g
       id="g16419"
       transform="matrix(0.26458333,0,0,0.26458333,-293.56875,131.15192)">
      <text
         font-family="Arial, Arial_MSFontService, sans-serif"
         font-weight="400"
         font-size="12px"
         transform="translate(1626.04,302)"
         id="text16417">1</text>
    </g>
  </g>
</svg>
