<?xml version="1.0" encoding="UTF-8" standalone="no"?>
<!-- Created with Inkscape (http://www.inkscape.org/) -->

<svg
   width="144.86954mm"
   height="144.36328mm"
   viewBox="0 0 144.86954 144.36328"
   version="1.1"
   id="svg1"
   inkscape:version="1.3.2 (091e20e, 2023-11-25, custom)"
   sodipodi:docname="res-m1.svg"
   xmlns:inkscape="http://www.inkscape.org/namespaces/inkscape"
   xmlns:sodipodi="http://sodipodi.sourceforge.net/DTD/sodipodi-0.dtd"
   xmlns="http://www.w3.org/2000/svg"
   xmlns:svg="http://www.w3.org/2000/svg">
  <sodipodi:namedview
     id="namedview1"
     pagecolor="#ffffff"
     bordercolor="#000000"
     borderopacity="0.25"
     inkscape:showpageshadow="2"
     inkscape:pageopacity="0.0"
     inkscape:pagecheckerboard="0"
     inkscape:deskcolor="#d1d1d1"
     inkscape:document-units="mm"
     inkscape:zoom="1.0343421"
     inkscape:cx="265.86948"
     inkscape:cy="256.6849"
     inkscape:window-width="1920"
     inkscape:window-height="1017"
     inkscape:window-x="1912"
     inkscape:window-y="-8"
     inkscape:window-maximized="1"
     inkscape:current-layer="layer1" />
  <defs
     id="defs1">
    <clipPath
       id="clip0">
      <rect
         x="1058"
         y="0"
         width="756"
         height="794"
         id="rect1" />
    </clipPath>
    <clipPath
       id="clip0-2">
      <rect
         x="1058"
         y="0"
         width="577"
         height="567"
         id="rect1-4" />
    </clipPath>
  </defs>
  <g
     inkscape:label="Camada 1"
     inkscape:groupmode="layer"
     id="layer1"
     transform="translate(-4.8685538,-119.4263)">
    <g
       clip-path="url(#clip0-2)"
       transform="matrix(0.26458333,0,0,0.26458333,-279.13542,116.68125)"
       id="g72">
      <g
         id="g2">
        <path
           d="m 1078.5,552.5 h 538 m -538,-54 h 538 m -538,-54 h 538 m -538,-54 h 538 m -538,-53 h 538 m -538,-108 h 538 m -538,-54 h 538 m -538,-53 h 538 m -538,-53.9999 h 538 m -538,-54 h 538"
           stroke="#d9d9d9"
           stroke-linejoin="round"
           stroke-miterlimit="10"
           fill="none"
           id="path2" />
      </g>
      <g
         id="g3">
        <path
           d="M 1078.5,14.5001 V 552.5 m 54,-537.9999 V 552.5 m 54,-537.9999 V 552.5 m 53,-537.9999 V 552.5 m 54,-537.9999 V 552.5 m 108,-537.9999 V 552.5 m 54,-537.9999 V 552.5 m 54,-537.9999 V 552.5 m 53,-537.9999 V 552.5 m 54,-537.9999 V 552.5"
           stroke="#d9d9d9"
           stroke-linejoin="round"
           stroke-miterlimit="10"
           fill="none"
           id="path3" />
      </g>
      <g
         id="g4">
        <rect
           x="1078.5"
           y="14.5001"
           width="538"
           height="538"
           stroke="#000000"
           stroke-width="1.33333"
           stroke-linejoin="round"
           stroke-miterlimit="10"
           fill="none"
           id="rect3" />
      </g>
      <g
         id="g5">
        <path
           d="M 0,0 1.04987e-4,538"
           stroke="#000000"
           stroke-linejoin="round"
           stroke-miterlimit="10"
           fill="none"
           fill-rule="evenodd"
           transform="matrix(1,0,0,-1,1347.5,552.5)"
           id="path4" />
      </g>
      <g
         id="g6">
        <path
           d="m 1347.5,552.5 h 3 m -3,-11 h 3 m -3,-11 h 3 m -3,-10 h 3 m -3,-11 h 3 m -3,-11 h 3 m -3,-11 h 3 m -3,-11 h 3 m -3,-10 h 3 m -3,-11 h 3 m -3,-11 h 3 m -3,-11 h 3 m -3,-10 h 3 m -3,-11 h 3 m -3,-11 h 3 m -3,-11 h 3 m -3,-10 h 3 m -3,-11 h 3 m -3,-11 h 3 m -3,-11 h 3 m -3,-10 h 3 m -3,-11 h 3 m -3,-11 h 3 m -3,-11 h 3 m -3,-10 h 3 m -3,-11 h 3 m -3,-11 h 3 m -3,-11 h 3 m -3,-10 h 3 m -3,-11 h 3 m -3,-11 h 3 m -3,-11 h 3 m -3,-10 h 3 m -3,-11 h 3 m -3,-11 h 3 m -3,-11 h 3 m -3,-10 h 3 m -3,-11 h 3 m -3,-11 h 3 m -3,-11 h 3 m -3,-10 h 3 m -3,-11 h 3 m -3,-11 h 3 m -3,-10.9999 h 3 m -3,-10 h 3 m -3,-11 h 3 m -3,-11 h 3 m -3,-11.0001 h 3 m -3,-9.9999 h 3 m -3,-11 h 3 m -3,-11 h 3 m -7,537.9999 h 8 m -8,-54 h 8 m -8,-54 h 8 m -8,-54 h 8 m -8,-53 h 8 m -8,-54 h 8 m -8,-54 h 8 m -8,-54 h 8 m -8,-53 h 8 m -8,-53.9999 h 8 m -8,-54 h 8"
           stroke="#000000"
           stroke-linejoin="round"
           stroke-miterlimit="10"
           fill="none"
           id="path5" />
      </g>
      <g
         id="g7">
        <path
           d="m 1078.5,283.5 h 538"
           stroke="#000000"
           stroke-linejoin="round"
           stroke-miterlimit="10"
           fill="none"
           fill-rule="evenodd"
           id="path6" />
      </g>
      <g
         id="g8">
        <path
           d="m 1078.5,280.5 v 3 m 11,-3 v 3 m 10,-3 v 3 m 11,-3 v 3 m 11,-3 v 3 m 11,-3 v 3 m 10,-3 v 3 m 11,-3 v 3 m 11,-3 v 3 m 11,-3 v 3 m 11,-3 v 3 m 10,-3 v 3 m 11,-3 v 3 m 11,-3 v 3 m 11,-3 v 3 m 10,-3 v 3 m 11,-3 v 3 m 11,-3 v 3 m 11,-3 v 3 m 10,-3 v 3 m 11,-3 v 3 m 11,-3 v 3 m 11,-3 v 3 m 11,-3 v 3 m 10,-3 v 3 m 11,-3 v 3 m 11,-3 v 3 m 11,-3 v 3 m 10,-3 v 3 m 11,-3 v 3 m 11,-3 v 3 m 11,-3 v 3 m 10,-3 v 3 m 11,-3 v 3 m 11,-3 v 3 m 11,-3 v 3 m 10,-3 v 3 m 11,-3 v 3 m 11,-3 v 3 m 11,-3 v 3 m 11,-3 v 3 m 10,-3 v 3 m 11,-3 v 3 m 11,-3 v 3 m 11,-3 v 3 m 10,-3 v 3 m 11,-3 v 3 m 11,-3 v 3 m 11,-3 v 3 m 10,-3 v 3 m 11,-3 v 3 m -538,-4 v 8 m 54,-8 v 8 m 54,-8 v 8 m 53,-8 v 8 m 54,-8 v 8 m 54,-8 v 8 m 54,-8 v 8 m 54,-8 v 8 m 54,-8 v 8 m 53,-8 v 8 m 54,-8 v 8"
           stroke="#000000"
           stroke-linejoin="round"
           stroke-miterlimit="10"
           fill="none"
           id="path7" />
      </g>
      <g
         id="g9">
        <path
           d="m 1348,552 -39,-13 -19,-14 -9,-13 1,-13 6,-14 5,-13 3,-14 4,-13 3,-14 4,-13 4,-14 4,-13 3,-13 4,-14 3,-13 4,-14 4,-13 3,-14 4,-13 4,-14 3,-13 4,-13 4,-14 4,-13 3,-14 4,-13 4,-14 5,-13 4,-13 5,-14 4,-13 5,-14 4,-13 7,-14 3,-13 11,-14 -2,-13 16,-13 -3,-14 188,-13"
           stroke="#ed7d31"
           stroke-width="2"
           stroke-linecap="round"
           stroke-linejoin="round"
           stroke-miterlimit="10"
           fill="none"
           id="path8" />
      </g>
      <g
         id="g10">
        <path
           d="m 1078,283 14,-39 13,-16 14,-9 13,-1 14,4 13,5 14,4 13,4 13,4 14,4 13,4 14,4 13,3 14,4 13,4 14,4 13,3 14,4 13,4 14,4 13,3 13,4 14,4 13,4 14,4 13,4 14,4 13,4 14,4 13,4 14,5 13,4 14,5 13,4 13,6 14,3 13,6 14,16 13,-18 14,-68"
           stroke="#ed7d31"
           stroke-width="2"
           stroke-linecap="round"
           stroke-linejoin="round"
           stroke-miterlimit="10"
           fill="none"
           id="path9" />
      </g>
      <g
         id="g11">
        <path
           d="m 1348,552 -40,-13 -19,-14 -9,-13 v -13 l 6,-14 6,-13 3,-14 4,-13 3,-14 4,-13 4,-14 4,-13 4,-13 3,-14 4,-13 4,-14 3,-13 4,-14 4,-13 4,-14 3,-13 4,-13 4,-14 4,-13 4,-14 4,-13 4,-14 4,-13 5,-13 4,-14 5,-13 5,-14 4,-13 7,-14 3,-13 12,-14 -3,-13 17,-13 -3,-14 186,-13"
           stroke="#a5a5a5"
           stroke-width="2"
           stroke-linecap="round"
           stroke-linejoin="round"
           stroke-miterlimit="10"
           fill="none"
           id="path10" />
      </g>
      <g
         id="g12">
        <path
           d="m 1078,283 14,-40 13,-16 14,-9 13,-1 14,3 13,6 14,4 13,4 13,4 14,4 13,4 14,4 13,4 14,3 13,4 14,4 13,4 14,4 13,4 14,3 13,4 13,4 14,4 13,4 14,4 13,4 14,4 13,4 14,5 13,4 14,5 13,4 14,5 13,5 13,5 14,4 13,6 14,15 13,-17 14,-70"
           stroke="#a5a5a5"
           stroke-width="2"
           stroke-linecap="round"
           stroke-linejoin="round"
           stroke-miterlimit="10"
           fill="none"
           id="path11" />
      </g>
      <g
         id="g13">
        <path
           d="m 1348,552 -45,-13 -30,-14 -18,-13 -5,-13 8,-14 9,-13 5,-14 4,-13 6,-14 6,-13 5,-14 5,-13 5,-13 6,-14 5,-13 5,-14 5,-13 6,-14 5,-13 6,-14 5,-13 5,-13 6,-14 6,-13 5,-14 6,-13 6,-14 6,-13 7,-13 6,-14 7,-13 7,-14 7,-13 8,-14 8,-13 11,-14 5,-13 6,-13 16,-14 143,-13"
           stroke="#ed7d31"
           stroke-width="2"
           stroke-linecap="round"
           stroke-linejoin="round"
           stroke-miterlimit="10"
           stroke-dasharray="4, 4"
           fill="none"
           id="path12" />
      </g>
      <g
         id="g14">
        <path
           d="m 1078,283 14,-59 13,-23 14,-14 13,-1 14,7 13,8 14,6 13,6 13,6 14,6 13,6 14,5 13,6 14,5 13,6 14,6 13,5 14,6 13,5 14,6 13,5 13,6 14,5 13,6 14,6 13,5 14,6 13,6 14,6 13,6 14,7 13,6 14,6 13,8 13,7 14,3 13,13 14,21 13,-45 14,-81"
           stroke="#ed7d31"
           stroke-width="2"
           stroke-linecap="round"
           stroke-linejoin="round"
           stroke-miterlimit="10"
           stroke-dasharray="4, 4"
           fill="none"
           id="path13" />
      </g>
      <g
         id="g15">
        <path
           d="m 1348,552 -47,-13 -29,-14 -17,-13 -6,-13 7,-14 9,-13 6,-14 5,-13 5,-14 6,-13 5,-14 5,-13 6,-13 5,-14 5,-13 6,-14 5,-13 6,-14 5,-13 6,-14 5,-13 6,-13 5,-14 6,-13 6,-14 6,-13 6,-14 6,-13 6,-13 7,-14 7,-13 7,-14 7,-13 8,-14 8,-13 11,-14 5,-13 5,-13 17,-14 142,-13"
           stroke="#a5a5a5"
           stroke-width="2"
           stroke-linecap="round"
           stroke-linejoin="round"
           stroke-miterlimit="10"
           stroke-dasharray="4, 4"
           fill="none"
           id="path14" />
      </g>
      <g
         id="g16">
        <path
           d="m 1078,283 14,-59 13,-23 14,-14 13,-2 14,6 13,9 14,6 13,6 13,6 14,6 13,6 14,5 13,6 14,6 13,6 14,5 13,6 14,5 13,6 14,6 13,5 13,6 14,5 13,6 14,6 13,6 14,6 13,6 14,6 13,6 14,6 13,7 14,6 13,8 13,7 14,4 13,12 14,19 13,-42 14,-83"
           stroke="#a5a5a5"
           stroke-width="2"
           stroke-linecap="round"
           stroke-linejoin="round"
           stroke-miterlimit="10"
           stroke-dasharray="4, 4"
           fill="none"
           id="path15" />
      </g>
      <g
         id="g32">
        <path
           d="m 1620.35,18 -6,-6 m 0,6 6,-6"
           stroke="#000000"
           stroke-width="1.66667"
           stroke-linejoin="round"
           stroke-miterlimit="10"
           fill="none"
           id="path16" />
        <path
           d="m 1478.35,30 -6,-6 m 0,6 6,-6"
           stroke="#000000"
           stroke-width="1.66667"
           stroke-linejoin="round"
           stroke-miterlimit="10"
           fill="none"
           id="path17" />
        <path
           d="m 1479.35,34 -6,-6 m 0,6 6,-6"
           stroke="#000000"
           stroke-width="1.66667"
           stroke-linejoin="round"
           stroke-miterlimit="10"
           fill="none"
           id="path18" />
        <path
           d="m 1480.35,39 -6,-6 m 0,6 6,-6"
           stroke="#000000"
           stroke-width="1.66667"
           stroke-linejoin="round"
           stroke-miterlimit="10"
           fill="none"
           id="path19" />
        <path
           d="m 1479.35,43 -6,-6 m 0,6 6,-6"
           stroke="#000000"
           stroke-width="1.66667"
           stroke-linejoin="round"
           stroke-miterlimit="10"
           fill="none"
           id="path20" />
        <path
           d="m 1444.35,97 -6,-6 m 0,6 6,-6"
           stroke="#000000"
           stroke-width="1.66667"
           stroke-linejoin="round"
           stroke-miterlimit="10"
           fill="none"
           id="path21" />
        <path
           d="m 1406.35,160 -6,-6 m 0,6 6,-6"
           stroke="#000000"
           stroke-width="1.66667"
           stroke-linejoin="round"
           stroke-miterlimit="10"
           fill="none"
           id="path22" />
        <path
           d="m 1373.35,223 -6,-6 m 0,6 6,-6"
           stroke="#000000"
           stroke-width="1.66667"
           stroke-linejoin="round"
           stroke-miterlimit="10"
           fill="none"
           id="path23" />
        <path
           d="m 1342.35,286 -6,-6 m 0,6 6,-6"
           stroke="#000000"
           stroke-width="1.66667"
           stroke-linejoin="round"
           stroke-miterlimit="10"
           fill="none"
           id="path24" />
        <path
           d="m 1330.35,312 -6,-6 m 0,6 6,-6"
           stroke="#000000"
           stroke-width="1.66667"
           stroke-linejoin="round"
           stroke-miterlimit="10"
           fill="none"
           id="path25" />
        <path
           d="m 1288.35,404 -6,-6 m 0,6 6,-6"
           stroke="#000000"
           stroke-width="1.66667"
           stroke-linejoin="round"
           stroke-miterlimit="10"
           fill="none"
           id="path26" />
        <path
           d="m 1262.35,463 -6,-6 m 0,6 6,-6"
           stroke="#000000"
           stroke-width="1.66667"
           stroke-linejoin="round"
           stroke-miterlimit="10"
           fill="none"
           id="path27" />
        <path
           d="m 1248.35,501 -6,-6 m 0,6 6,-6"
           stroke="#000000"
           stroke-width="1.66667"
           stroke-linejoin="round"
           stroke-miterlimit="10"
           fill="none"
           id="path28" />
        <path
           d="m 1238.35,517 -6,-6 m 0,6 6,-6"
           stroke="#000000"
           stroke-width="1.66667"
           stroke-linejoin="round"
           stroke-miterlimit="10"
           fill="none"
           id="path29" />
        <path
           d="m 1236.35,522 -6,-6 m 0,6 6,-6"
           stroke="#000000"
           stroke-width="1.66667"
           stroke-linejoin="round"
           stroke-miterlimit="10"
           fill="none"
           id="path30" />
        <path
           d="m 1236.35,526 -6,-6 m 0,6 6,-6"
           stroke="#000000"
           stroke-width="1.66667"
           stroke-linejoin="round"
           stroke-miterlimit="10"
           fill="none"
           id="path31" />
        <path
           d="m 1351.35,555 -6,-6 m 0,6 6,-6"
           stroke="#000000"
           stroke-width="1.66667"
           stroke-linejoin="round"
           stroke-miterlimit="10"
           fill="none"
           id="path32" />
      </g>
      <g
         id="g49">
        <path
           d="m 1620.35,286 -6,-6 m 0,6 6,-6"
           stroke="#000000"
           stroke-width="1.66667"
           stroke-linejoin="round"
           stroke-miterlimit="10"
           fill="none"
           id="path33" />
        <path
           d="m 1603.35,432 -6,-6 m 0,6 6,-6"
           stroke="#000000"
           stroke-width="1.66667"
           stroke-linejoin="round"
           stroke-miterlimit="10"
           fill="none"
           id="path34" />
        <path
           d="m 1599.35,429 -6,-6 m 0,6 6,-6"
           stroke="#000000"
           stroke-width="1.66667"
           stroke-linejoin="round"
           stroke-miterlimit="10"
           fill="none"
           id="path35" />
        <path
           d="m 1594.35,418 -6,-6 m 0,6 6,-6"
           stroke="#000000"
           stroke-width="1.66667"
           stroke-linejoin="round"
           stroke-miterlimit="10"
           fill="none"
           id="path36" />
        <path
           d="m 1590.35,410 -6,-6 m 0,6 6,-6"
           stroke="#000000"
           stroke-width="1.66667"
           stroke-linejoin="round"
           stroke-miterlimit="10"
           fill="none"
           id="path37" />
        <path
           d="m 1569.35,398 -6,-6 m 0,6 6,-6"
           stroke="#000000"
           stroke-width="1.66667"
           stroke-linejoin="round"
           stroke-miterlimit="10"
           fill="none"
           id="path38" />
        <path
           d="m 1544.35,385 -6,-6 m 0,6 6,-6"
           stroke="#000000"
           stroke-width="1.66667"
           stroke-linejoin="round"
           stroke-miterlimit="10"
           fill="none"
           id="path39" />
        <path
           d="m 1515.35,369 -6,-6 m 0,6 6,-6"
           stroke="#000000"
           stroke-width="1.66667"
           stroke-linejoin="round"
           stroke-miterlimit="10"
           fill="none"
           id="path40" />
        <path
           d="m 1351.35,284 -6,-6 m 0,6 6,-6"
           stroke="#000000"
           stroke-width="1.66667"
           stroke-linejoin="round"
           stroke-miterlimit="10"
           fill="none"
           id="path41" />
        <path
           d="m 1208.35,213 -6,-6 m 0,6 6,-6"
           stroke="#000000"
           stroke-width="1.66667"
           stroke-linejoin="round"
           stroke-miterlimit="10"
           fill="none"
           id="path42" />
        <path
           d="m 1203.35,211 -6,-6 m 0,6 6,-6"
           stroke="#000000"
           stroke-width="1.66667"
           stroke-linejoin="round"
           stroke-miterlimit="10"
           fill="none"
           id="path43" />
        <path
           d="m 1166.35,192 -6,-6 m 0,6 6,-6"
           stroke="#000000"
           stroke-width="1.66667"
           stroke-linejoin="round"
           stroke-miterlimit="10"
           fill="none"
           id="path44" />
        <path
           d="m 1132.35,175 -6,-6 m 0,6 6,-6"
           stroke="#000000"
           stroke-width="1.66667"
           stroke-linejoin="round"
           stroke-miterlimit="10"
           fill="none"
           id="path45" />
        <path
           d="m 1123.35,171 -6,-6 m 0,6 6,-6"
           stroke="#000000"
           stroke-width="1.66667"
           stroke-linejoin="round"
           stroke-miterlimit="10"
           fill="none"
           id="path46" />
        <path
           d="m 1119.35,169 -6,-6 m 0,6 6,-6"
           stroke="#000000"
           stroke-width="1.66667"
           stroke-linejoin="round"
           stroke-miterlimit="10"
           fill="none"
           id="path47" />
        <path
           d="m 1115.35,168 -6,-6 m 0,6 6,-6"
           stroke="#000000"
           stroke-width="1.66667"
           stroke-linejoin="round"
           stroke-miterlimit="10"
           fill="none"
           id="path48" />
        <path
           d="m 1081.35,286 -6,-6 m 0,6 6,-6"
           stroke="#000000"
           stroke-width="1.66667"
           stroke-linejoin="round"
           stroke-miterlimit="10"
           fill="none"
           id="path49" />
      </g>
      <g
         id="g50">
        <text
           font-family="Arial, Arial_MSFontService, sans-serif"
           font-weight="400"
           font-size="12px"
           transform="translate(1326.55,556)"
           id="text49">-1</text>
      </g>
      <g
         id="g51">
        <text
           font-family="Arial, Arial_MSFontService, sans-serif"
           font-weight="400"
           font-size="12px"
           transform="translate(1316.55,502)"
           id="text50">-0.8</text>
      </g>
      <g
         id="g52">
        <text
           font-family="Arial, Arial_MSFontService, sans-serif"
           font-weight="400"
           font-size="12px"
           transform="translate(1316.55,449)"
           id="text51">-0.6</text>
      </g>
      <g
         id="g53">
        <text
           font-family="Arial, Arial_MSFontService, sans-serif"
           font-weight="400"
           font-size="12px"
           transform="translate(1316.55,395)"
           id="text52">-0.4</text>
      </g>
      <g
         id="g54">
        <text
           font-family="Arial, Arial_MSFontService, sans-serif"
           font-weight="400"
           font-size="12px"
           transform="translate(1316.55,341)"
           id="text53">-0.2</text>
      </g>
      <g
         id="g55">
        <text
           font-family="Arial, Arial_MSFontService, sans-serif"
           font-weight="400"
           font-size="12px"
           transform="translate(1330.55,287)"
           id="text54">0</text>
      </g>
      <g
         id="g56">
        <text
           font-family="Arial, Arial_MSFontService, sans-serif"
           font-weight="400"
           font-size="12px"
           transform="translate(1320.54,234)"
           id="text55">0.2</text>
      </g>
      <g
         id="g57">
        <text
           font-family="Arial, Arial_MSFontService, sans-serif"
           font-weight="400"
           font-size="12px"
           transform="translate(1320.54,180)"
           id="text56">0.4</text>
      </g>
      <g
         id="g58">
        <text
           font-family="Arial, Arial_MSFontService, sans-serif"
           font-weight="400"
           font-size="12px"
           transform="translate(1320.54,126)"
           id="text57">0.6</text>
      </g>
      <g
         id="g59">
        <text
           font-family="Arial, Arial_MSFontService, sans-serif"
           font-weight="400"
           font-size="12px"
           transform="translate(1320.54,72)"
           id="text58">0.8</text>
      </g>
      <g
         id="g60">
        <text
           font-family="Arial, Arial_MSFontService, sans-serif"
           font-weight="400"
           font-size="12px"
           transform="translate(1330.55,19)"
           id="text59">1</text>
      </g>
      <g
         id="g61">
        <text
           font-family="Arial, Arial_MSFontService, sans-serif"
           font-weight="400"
           font-size="12px"
           transform="translate(1073.02,302)"
           id="text60">-1</text>
      </g>
      <g
         id="g62">
        <text
           font-family="Arial, Arial_MSFontService, sans-serif"
           font-weight="400"
           font-size="12px"
           transform="translate(1121.85,302)"
           id="text61">-0.8</text>
      </g>
      <g
         id="g63">
        <text
           font-family="Arial, Arial_MSFontService, sans-serif"
           font-weight="400"
           font-size="12px"
           transform="translate(1175.69,302)"
           id="text62">-0.6</text>
      </g>
      <g
         id="g64">
        <text
           font-family="Arial, Arial_MSFontService, sans-serif"
           font-weight="400"
           font-size="12px"
           transform="translate(1229.53,302)"
           id="text63">-0.4</text>
      </g>
      <g
         id="g65">
        <text
           font-family="Arial, Arial_MSFontService, sans-serif"
           font-weight="400"
           font-size="12px"
           transform="translate(1283.37,302)"
           id="text64">-0.2</text>
      </g>
      <g
         id="g66">
        <text
           font-family="Arial, Arial_MSFontService, sans-serif"
           font-weight="400"
           font-size="12px"
           transform="translate(1344.2,302)"
           id="text65">0</text>
      </g>
      <g
         id="g67">
        <text
           font-family="Arial, Arial_MSFontService, sans-serif"
           font-weight="400"
           font-size="12px"
           transform="translate(1393.04,302)"
           id="text66">0.2</text>
      </g>
      <g
         id="g68">
        <text
           font-family="Arial, Arial_MSFontService, sans-serif"
           font-weight="400"
           font-size="12px"
           transform="translate(1446.88,302)"
           id="text67">0.4</text>
      </g>
      <g
         id="g69">
        <text
           font-family="Arial, Arial_MSFontService, sans-serif"
           font-weight="400"
           font-size="12px"
           transform="translate(1500.71,302)"
           id="text68">0.6</text>
      </g>
      <g
         id="g70">
        <text
           font-family="Arial, Arial_MSFontService, sans-serif"
           font-weight="400"
           font-size="12px"
           transform="translate(1554.55,302)"
           id="text69">0.8</text>
      </g>
      <g
         id="g71">
        <text
           font-family="Arial, Arial_MSFontService, sans-serif"
           font-weight="400"
           font-size="12px"
           transform="translate(1613.39,302)"
           id="text70">1</text>
      </g>
    </g>
  </g>
</svg>
