<?xml version="1.0" encoding="UTF-8" standalone="no"?>
<!-- Created with Inkscape (http://www.inkscape.org/) -->

<svg
   width="115.09224mm"
   height="69.642899mm"
   viewBox="0 0 115.09224 69.642899"
   version="1.1"
   id="svg5"
   inkscape:version="1.2.1 (9c6d41e410, 2022-07-14)"
   sodipodi:docname="backwardFacingStep.svg"
   xmlns:inkscape="http://www.inkscape.org/namespaces/inkscape"
   xmlns:sodipodi="http://sodipodi.sourceforge.net/DTD/sodipodi-0.dtd"
   xmlns:xlink="http://www.w3.org/1999/xlink"
   xmlns="http://www.w3.org/2000/svg"
   xmlns:svg="http://www.w3.org/2000/svg">
  <sodipodi:namedview
     id="namedview7"
     pagecolor="#ffffff"
     bordercolor="#000000"
     borderopacity="0.25"
     inkscape:showpageshadow="2"
     inkscape:pageopacity="0.0"
     inkscape:pagecheckerboard="0"
     inkscape:deskcolor="#d1d1d1"
     inkscape:document-units="mm"
     showgrid="false"
     inkscape:zoom="2.1089996"
     inkscape:cx="208.62972"
     inkscape:cy="122.80704"
     inkscape:window-width="1920"
     inkscape:window-height="1017"
     inkscape:window-x="1912"
     inkscape:window-y="-8"
     inkscape:window-maximized="1"
     inkscape:current-layer="layer1">
    <inkscape:grid
       type="xygrid"
       id="grid132"
       enabled="false"
       originx="-48.928315"
       originy="-71.428553" />
    <inkscape:grid
       type="axonomgrid"
       id="grid134"
       originx="-48.928315"
       originy="-71.428553" />
  </sodipodi:namedview>
  <defs
     id="defs2">
    <linearGradient
       inkscape:collect="always"
       id="linearGradient5557">
      <stop
         style="stop-color:#000000;stop-opacity:0;"
         offset="0"
         id="stop5555" />
      <stop
         style="stop-color:#000000;stop-opacity:0.30000001;"
         offset="1"
         id="stop5553" />
    </linearGradient>
    <linearGradient
       inkscape:collect="always"
       id="linearGradient4767">
      <stop
         style="stop-color:#000000;stop-opacity:0;"
         offset="0"
         id="stop4765" />
      <stop
         style="stop-color:#000000;stop-opacity:0.30000001;"
         offset="1"
         id="stop4763" />
    </linearGradient>
    <linearGradient
       inkscape:collect="always"
       id="linearGradient3329">
      <stop
         style="stop-color:#000000;stop-opacity:0;"
         offset="0"
         id="stop3327" />
      <stop
         style="stop-color:#000000;stop-opacity:0.30000001;"
         offset="1"
         id="stop3325" />
    </linearGradient>
    <linearGradient
       inkscape:collect="always"
       id="linearGradient2866">
      <stop
         style="stop-color:#000000;stop-opacity:0;"
         offset="0"
         id="stop2864" />
      <stop
         style="stop-color:#000000;stop-opacity:0.30000001;"
         offset="1"
         id="stop2862" />
    </linearGradient>
    <linearGradient
       inkscape:collect="always"
       id="linearGradient1992">
      <stop
         style="stop-color:#000000;stop-opacity:0;"
         offset="0"
         id="stop1990" />
      <stop
         style="stop-color:#000000;stop-opacity:0.30000001;"
         offset="1"
         id="stop1988" />
    </linearGradient>
    <marker
       style="overflow:visible"
       id="marker1329"
       refX="3"
       refY="0"
       orient="auto-start-reverse"
       inkscape:stockid="TriangleStart"
       markerWidth="5"
       markerHeight="4"
       viewBox="0 0 5.3244081 6.1553851"
       inkscape:isstock="true"
       inkscape:collect="always"
       preserveAspectRatio="none">
      <path
         transform="scale(0.5)"
         style="fill:context-stroke;fill-rule:evenodd;stroke:context-stroke;stroke-width:1pt"
         d="M 5.77,0 -2.88,5 V -5 Z"
         id="path1327" />
    </marker>
    <marker
       style="overflow:visible"
       id="TriangleStart"
       refX="3"
       refY="0"
       orient="auto-start-reverse"
       inkscape:stockid="TriangleStart"
       markerWidth="12"
       markerHeight="6"
       viewBox="0 0 5.3244081 6.1553851"
       inkscape:isstock="true"
       inkscape:collect="always"
       preserveAspectRatio="none">
      <path
         transform="scale(0.5)"
         style="fill:context-stroke;fill-rule:evenodd;stroke:context-stroke;stroke-width:1pt"
         d="M 5.77,0 -2.88,5 V -5 Z"
         id="path135" />
    </marker>
    <radialGradient
       inkscape:collect="always"
       xlink:href="#linearGradient1992"
       id="radialGradient1994"
       cx="121.24355"
       cy="127.31814"
       fx="121.24355"
       fy="127.31814"
       r="23.898197"
       gradientTransform="matrix(0.5,-0.8660254,1.9930957,1.1507143,-193.13546,83.493193)"
       gradientUnits="userSpaceOnUse" />
    <radialGradient
       inkscape:collect="always"
       xlink:href="#linearGradient2866"
       id="radialGradient2868"
       cx="147.22432"
       cy="112.31814"
       fx="147.22432"
       fy="112.31814"
       r="23.898199"
       gradientTransform="matrix(0.49999996,-0.86602543,1.9930957,1.1507142,-150.24863,108.25392)"
       gradientUnits="userSpaceOnUse" />
    <linearGradient
       inkscape:collect="always"
       xlink:href="#linearGradient3329"
       id="linearGradient3331"
       x1="121.2023"
       y1="125.07145"
       x2="125.57368"
       y2="132.5"
       gradientUnits="userSpaceOnUse" />
    <linearGradient
       inkscape:collect="always"
       xlink:href="#linearGradient4767"
       id="linearGradient4769"
       x1="82.272415"
       y1="102.5"
       x2="86.602539"
       y2="110"
       gradientUnits="userSpaceOnUse" />
    <linearGradient
       inkscape:collect="always"
       xlink:href="#linearGradient5557"
       id="linearGradient5559"
       x1="73.61216"
       y1="97.5"
       x2="77.942284"
       y2="105"
       gradientUnits="userSpaceOnUse" />
    <clipPath
       id="clipPath7452">
      <path
         clip-rule="nonzero"
         d="m 187,8 h 3 v 5.449219 h -3 z m 0,0"
         id="path5128" />
    </clipPath>
    <clipPath
       id="clipPath5867">
      <path
         clip-rule="nonzero"
         d="m 187,8 h 4 v 5.449219 h -4 z m 0,0"
         id="path7992" />
    </clipPath>
    <clipPath
       id="clipPath7622">
      <path
         clip-rule="nonzero"
         d="m 187,8 h 4 v 5.449219 h -4 z m 0,0"
         id="path6482" />
    </clipPath>
    <clipPath
       id="clipPath9191">
      <path
         clip-rule="nonzero"
         d="m 183,4 h 7 v 7.953125 h -7 z m 0,0"
         id="path6784" />
    </clipPath>
    <clipPath
       id="clipPath2044">
      <path
         clip-rule="nonzero"
         d="m 174,5 h 6 v 6.953125 h -6 z m 0,0"
         id="path5542" />
    </clipPath>
    <clipPath
       id="clipPath4629">
      <path
         clip-rule="nonzero"
         d="m 193,5 h 5 v 6.953125 h -5 z m 0,0"
         id="path7532" />
    </clipPath>
    <clipPath
       id="clipPath7725">
      <path
         clip-rule="nonzero"
         d="m 174,5 h 6 v 7.785156 h -6 z m 0,0"
         id="path2927" />
    </clipPath>
    <clipPath
       id="clipPath7727">
      <path
         clip-rule="nonzero"
         d="m 182,6 h 7 v 6.785156 h -7 z m 0,0"
         id="path387" />
    </clipPath>
    <clipPath
       id="clipPath6375">
      <path
         clip-rule="nonzero"
         d="m 192,4 h 7 v 8.785156 h -7 z m 0,0"
         id="path8612" />
    </clipPath>
    <clipPath
       id="clipPath1340">
      <path
         clip-rule="nonzero"
         d="m 187,10 h 5 v 3.449219 h -5 z m 0,0"
         id="path1129" />
    </clipPath>
    <clipPath
       id="clipPath4340">
      <path
         clip-rule="nonzero"
         d="m 187,8 h 5 v 5.449219 h -5 z m 0,0"
         id="path5135" />
    </clipPath>
    <clipPath
       id="clipPath1604">
      <path
         clip-rule="nonzero"
         d="m 177,10 h 2 v 3.890625 h -2 z m 0,0"
         id="path9079" />
    </clipPath>
  </defs>
  <g
     inkscape:label="Camada 1"
     inkscape:groupmode="layer"
     id="layer1"
     transform="translate(-48.928319,-71.428549)">
    <path
       style="fill:url(#radialGradient1994);fill-opacity:1;stroke:#000000;stroke-width:0.165"
       d="m 73.612157,102.5 v -5 L 121.24355,125 v 10 L 82.272411,112.5 v -5 z"
       id="path904" />
    <path
       style="fill:url(#radialGradient2868);fill-opacity:1;stroke:none;stroke-width:0.165"
       d="M 99.59292,87.499999 V 82.499998 L 147.22432,110 v 10 L 108.25317,97.5 v -5.000001 z"
       id="path906" />
    <path
       style="fill:none;stroke:#000000;stroke-width:0.165;stroke-dasharray:0.66, 0.66;stroke-dashoffset:0"
       d="M 99.59292,87.499999 73.612157,102.5"
       id="path908" />
    <path
       style="fill:none;stroke:#000000;stroke-width:0.165"
       d="M 73.612157,97.5 99.59292,82.499998"
       id="path910" />
    <path
       style="fill:none;stroke:#000000;stroke-width:0.165;stroke-dasharray:0.66, 0.66;stroke-dashoffset:0"
       d="M 82.272411,107.5 108.25317,92.499999"
       id="path912" />
    <path
       style="fill:none;stroke:#000000;stroke-width:0.165;stroke-dasharray:0.66, 0.66;stroke-dashoffset:0"
       d="m 82.272411,112.5 25.980759,-15"
       id="path914" />
    <path
       style="fill:none;stroke:#000000;stroke-width:0.165"
       d="m 121.24355,135 25.98077,-15"
       id="path916" />
    <path
       style="fill:none;stroke:#000000;stroke-width:0.165"
       d="m 121.24355,125 25.98077,-15"
       id="path918" />
    <path
       style="fill:none;stroke:#000000;stroke-width:0.165;stroke-dasharray:none;stroke-dashoffset:0;marker-end:url(#TriangleStart)"
       d="m 147.22432,120 12.99039,7.5"
       id="path922" />
    <path
       style="fill:none;stroke:#000000;stroke-width:0.165;stroke-dasharray:none;stroke-dashoffset:0;marker-start:url(#marker1329);marker-end:url(#marker1329)"
       d="M 56.291657,92.499996 V 87.499995"
       id="path1307" />
    <path
       style="fill:none;stroke:#000000;stroke-width:0.165;stroke-dasharray:none;stroke-dashoffset:0;marker-start:url(#marker1329);marker-end:url(#marker1329)"
       d="m 56.291657,97.499996 v -5"
       id="path1579" />
    <path
       style="fill:none;stroke:#000000;stroke-width:0.165;stroke-dasharray:none;stroke-dashoffset:0;marker-start:url(#marker1329);marker-end:url(#marker1329)"
       d="M 56.291657,87.499995 82.272417,72.499996"
       id="path1649" />
    <path
       style="fill:none;stroke:#000000;stroke-width:0.165;stroke-dasharray:0.66;stroke-dashoffset:0"
       d="m 108.25317,92.499999 v -5"
       id="path1723" />
    <path
       style="fill:none;stroke:#000000;stroke-width:0.165;stroke-dasharray:none;stroke-dashoffset:0;marker-end:url(#TriangleStart)"
       d="M 108.25317,87.499999 V 77.5"
       id="path1725" />
    <path
       style="fill:none;stroke:#000000;stroke-width:0.165;stroke-dasharray:none;stroke-dashoffset:0;marker-end:url(#TriangleStart)"
       d="m 82.272411,112.5 -17.320505,10"
       id="path1791" />
    <path
       style="fill:none;stroke:#000000;stroke-width:0.165;stroke-dasharray:0.33, 0.33;stroke-dashoffset:0"
       d="m 73.612157,102.5 v 5"
       id="path1793" />
    <path
       style="fill:none;stroke:#000000;stroke-width:0.165;stroke-dasharray:none;stroke-dashoffset:0"
       d="m 71.880107,108.5 -8.660254,5"
       id="path1795" />
    <path
       style="fill:none;stroke:#000000;stroke-width:0.165;stroke-dasharray:none;stroke-dashoffset:0"
       d="m 119.5115,136 -8.66025,5"
       id="path1797" />
    <path
       style="fill:none;stroke:#000000;stroke-width:0.165;stroke-dasharray:none;stroke-dashoffset:0;marker-start:url(#marker1329);marker-end:url(#marker1329)"
       d="m 64.951906,112.5 8.660251,5"
       id="path1799" />
    <path
       style="fill:none;stroke:#000000;stroke-width:0.165;stroke-dasharray:none;stroke-dashoffset:0;marker-start:url(#marker1329);marker-end:url(#marker1329)"
       d="M 73.612157,117.5 112.5833,140"
       id="path1801" />
    <path
       style="fill:url(#linearGradient4769);fill-opacity:1;stroke:none;stroke-width:0.165;stroke-dasharray:0.329999, 0.329999;stroke-dashoffset:0"
       d="m 82.272409,112.5 v -5 L 108.25317,92.499999 V 97.5 Z"
       id="path3148" />
    <path
       style="fill:url(#linearGradient5559);fill-opacity:1;stroke:none;stroke-width:0.165;stroke-dasharray:0.329999, 0.329999;stroke-dashoffset:0"
       d="m 73.612157,102.5 v -5 L 99.59292,82.499998 v 5.000001 z"
       id="path3204" />
    <path
       style="fill:url(#linearGradient3331);fill-opacity:1;stroke:none;stroke-width:0.165;stroke-dasharray:0.329999, 0.329999;stroke-dashoffset:0;stroke-opacity:1"
       d="m 121.24355,135 v -10 l 25.98077,-15 v 10 z"
       id="path3206" />
    <path
       style="fill:none;fill-opacity:0.3;stroke:#000000;stroke-width:0.165;stroke-dasharray:none;stroke-dashoffset:0;stroke-opacity:1;marker-end:url(#TriangleStart)"
       d="m 134.23394,122.5 12.99038,7.5"
       id="path8429" />
    <text
       xml:space="preserve"
       style="font-style:normal;font-variant:normal;font-weight:normal;font-stretch:normal;font-size:3.52777px;font-family:sans-serif;-inkscape-font-specification:'sans-serif, Normal';font-variant-ligatures:normal;font-variant-caps:normal;font-variant-numeric:normal;font-variant-east-asian:normal;fill:#000000;fill-opacity:1;stroke:none;stroke-width:0.165;stroke-dasharray:none;stroke-dashoffset:0;stroke-opacity:1"
       x="103.76588"
       y="51.385624"
       id="text8963"
       transform="matrix(0.86602543,0.50000001,0,1.1547005,0,0)"><tspan
         sodipodi:role="line"
         id="tspan8961"
         style="fill:#000000;fill-opacity:1;stroke:none;stroke-width:0.165"
         x="103.76588"
         y="51.385624">Parede aderente</tspan></text>
    <text
       xml:space="preserve"
       style="font-style:normal;font-variant:normal;font-weight:normal;font-stretch:normal;font-size:3.52777px;font-family:sans-serif;-inkscape-font-specification:'sans-serif, Normal';font-variant-ligatures:normal;font-variant-caps:normal;font-variant-numeric:normal;font-variant-east-asian:normal;fill:#000000;fill-opacity:1;stroke:none;stroke-width:0.165;stroke-dasharray:none;stroke-dashoffset:0;stroke-opacity:1"
       x="85"
       y="35.507038"
       id="text10491"
       transform="matrix(0.86602543,0.50000001,0,1.1547005,0,0)"><tspan
         sodipodi:role="line"
         id="tspan10489"
         style="stroke-width:0.165"
         x="85"
         y="35.507038">Entrada</tspan></text>
    <text
       xml:space="preserve"
       style="font-style:normal;font-variant:normal;font-weight:normal;font-stretch:normal;font-size:3.52777px;font-family:sans-serif;-inkscape-font-specification:'sans-serif, Normal';font-variant-ligatures:normal;font-variant-caps:normal;font-variant-numeric:normal;font-variant-east-asian:normal;fill:#000000;fill-opacity:1;stroke:none;stroke-width:0.165;stroke-dasharray:none;stroke-dashoffset:0;stroke-opacity:1"
       x="164.2265"
       y="38.318596"
       id="text10495"
       transform="matrix(0.86602542,0.50000001,0,1.1547005,0,0)"><tspan
         sodipodi:role="line"
         id="tspan10493"
         style="stroke-width:0.165"
         x="164.2265"
         y="38.318596">Saída</tspan></text>
    <g
       inkscape:label=""
       transform="translate(160.95342,126.62247)"
       id="g12553">
      <g
         fill="#000000"
         fill-opacity="1"
         id="g19"
         transform="matrix(0.352778,0,0,0.352778,-63.937,-2.66338)">
        <g
           id="use17"
           transform="translate(180.942,11.956)">
          <path
             d="M 3.328125,-3.015625 C 3.390625,-3.265625 3.625,-4.1875 4.3125,-4.1875 c 0.046875,0 0.296875,0 0.5,0.125 C 4.53125,-4 4.34375,-3.765625 4.34375,-3.515625 c 0,0.15625 0.109375,0.34375 0.375,0.34375 0.21875,0 0.53125,-0.171875 0.53125,-0.578125 0,-0.515625 -0.578125,-0.65625 -0.921875,-0.65625 -0.578125,0 -0.921875,0.53125 -1.046875,0.75 -0.25,-0.65625 -0.78125,-0.75 -1.078125,-0.75 -1.03125,0 -1.609375,1.28125 -1.609375,1.53125 0,0.109375 0.109375,0.109375 0.125,0.109375 0.078125,0 0.109375,-0.03125 0.125,-0.109375 0.34375,-1.0625 1,-1.3125 1.34375,-1.3125 0.1875,0 0.53125,0.09375 0.53125,0.671875 0,0.3125 -0.171875,0.96875 -0.53125,2.375 -0.15625,0.609375 -0.515625,1.03125 -0.953125,1.03125 -0.0625,0 -0.28125,0 -0.5,-0.125 0.25,-0.0625 0.46875,-0.265625 0.46875,-0.546875 0,-0.265625 -0.21875,-0.34375 -0.359375,-0.34375 -0.3125,0 -0.546875,0.25 -0.546875,0.578125 0,0.453125 0.484375,0.65625 0.921875,0.65625 0.671875,0 1.03125,-0.703125 1.046875,-0.75 0.125,0.359375 0.484375,0.75 1.078125,0.75 1.03125,0 1.59375,-1.28125 1.59375,-1.53125 0,-0.109375 -0.078125,-0.109375 -0.109375,-0.109375 -0.09375,0 -0.109375,0.046875 -0.140625,0.109375 -0.328125,1.078125 -1,1.3125 -1.3125,1.3125 -0.390625,0 -0.546875,-0.3125 -0.546875,-0.65625 0,-0.21875 0.046875,-0.4375 0.15625,-0.875 z m 0,0"
             id="path31" />
        </g>
      </g>
      <g
         clip-path="url(#clipPath7452)"
         id="g25"
         transform="matrix(0.352778,0,0,0.352778,-63.937,-2.66338)">
        <g
           fill="#000000"
           fill-opacity="1"
           id="g23">
          <g
             id="use21"
             transform="translate(186.636,13.45)">
            <path
               d="m 2.328125,-4.4375 c 0,-0.1875 0,-0.1875 -0.203125,-0.1875 -0.453125,0.4375 -1.078125,0.4375 -1.359375,0.4375 v 0.25 c 0.15625,0 0.625,0 1,-0.1875 v 3.546875 c 0,0.234375 0,0.328125 -0.6875,0.328125 H 0.8125 V 0 c 0.125,0 0.984375,-0.03125 1.234375,-0.03125 0.21875,0 1.09375,0.03125 1.25,0.03125 V -0.25 H 3.03125 c -0.703125,0 -0.703125,-0.09375 -0.703125,-0.328125 z m 0,0"
               id="path35" />
          </g>
        </g>
      </g>
    </g>
    <g
       inkscape:label=""
       transform="translate(109.42903,76.999994)"
       id="g12783">
      <g
         fill="#000000"
         fill-opacity="1"
         id="g12773"
         transform="matrix(0.352778,0,0,0.352778,-63.937,-2.66338)">
        <g
           id="g12771"
           transform="translate(180.942,11.956)">
          <path
             d="M 3.328125,-3.015625 C 3.390625,-3.265625 3.625,-4.1875 4.3125,-4.1875 c 0.046875,0 0.296875,0 0.5,0.125 C 4.53125,-4 4.34375,-3.765625 4.34375,-3.515625 c 0,0.15625 0.109375,0.34375 0.375,0.34375 0.21875,0 0.53125,-0.171875 0.53125,-0.578125 0,-0.515625 -0.578125,-0.65625 -0.921875,-0.65625 -0.578125,0 -0.921875,0.53125 -1.046875,0.75 -0.25,-0.65625 -0.78125,-0.75 -1.078125,-0.75 -1.03125,0 -1.609375,1.28125 -1.609375,1.53125 0,0.109375 0.109375,0.109375 0.125,0.109375 0.078125,0 0.109375,-0.03125 0.125,-0.109375 0.34375,-1.0625 1,-1.3125 1.34375,-1.3125 0.1875,0 0.53125,0.09375 0.53125,0.671875 0,0.3125 -0.171875,0.96875 -0.53125,2.375 -0.15625,0.609375 -0.515625,1.03125 -0.953125,1.03125 -0.0625,0 -0.28125,0 -0.5,-0.125 0.25,-0.0625 0.46875,-0.265625 0.46875,-0.546875 0,-0.265625 -0.21875,-0.34375 -0.359375,-0.34375 -0.3125,0 -0.546875,0.25 -0.546875,0.578125 0,0.453125 0.484375,0.65625 0.921875,0.65625 0.671875,0 1.03125,-0.703125 1.046875,-0.75 0.125,0.359375 0.484375,0.75 1.078125,0.75 1.03125,0 1.59375,-1.28125 1.59375,-1.53125 0,-0.109375 -0.078125,-0.109375 -0.109375,-0.109375 -0.09375,0 -0.109375,0.046875 -0.140625,0.109375 -0.328125,1.078125 -1,1.3125 -1.3125,1.3125 -0.390625,0 -0.546875,-0.3125 -0.546875,-0.65625 0,-0.21875 0.046875,-0.4375 0.15625,-0.875 z m 0,0"
             id="path12769" />
        </g>
      </g>
      <g
         clip-path="url(#clipPath5867)"
         id="g12781"
         transform="matrix(0.352778,0,0,0.352778,-63.937,-2.66338)">
        <g
           fill="#000000"
           fill-opacity="1"
           id="g12779">
          <g
             id="g12777"
             transform="translate(186.636,13.45)">
            <path
               d="M 3.515625,-1.265625 H 3.28125 c -0.015625,0.15625 -0.09375,0.5625 -0.1875,0.625 C 3.046875,-0.59375 2.515625,-0.59375 2.40625,-0.59375 H 1.125 c 0.734375,-0.640625 0.984375,-0.84375 1.390625,-1.171875 0.515625,-0.40625 1,-0.84375 1,-1.5 0,-0.84375 -0.734375,-1.359375 -1.625,-1.359375 -0.859375,0 -1.453125,0.609375 -1.453125,1.25 0,0.34375 0.296875,0.390625 0.375,0.390625 0.15625,0 0.359375,-0.125 0.359375,-0.375 0,-0.125 -0.046875,-0.375 -0.40625,-0.375 C 0.984375,-4.21875 1.453125,-4.375 1.78125,-4.375 c 0.703125,0 1.0625,0.546875 1.0625,1.109375 0,0.609375 -0.4375,1.078125 -0.65625,1.328125 L 0.515625,-0.265625 C 0.4375,-0.203125 0.4375,-0.1875 0.4375,0 h 2.875 z m 0,0"
               id="path12775" />
          </g>
        </g>
      </g>
    </g>
    <g
       inkscape:label=""
       transform="translate(62.160816,123.4598)"
       id="g13033">
      <g
         fill="#000000"
         fill-opacity="1"
         id="g13023"
         transform="matrix(0.352778,0,0,0.352778,-63.937,-2.66338)">
        <g
           id="g13021"
           transform="translate(180.942,11.956)">
          <path
             d="M 3.328125,-3.015625 C 3.390625,-3.265625 3.625,-4.1875 4.3125,-4.1875 c 0.046875,0 0.296875,0 0.5,0.125 C 4.53125,-4 4.34375,-3.765625 4.34375,-3.515625 c 0,0.15625 0.109375,0.34375 0.375,0.34375 0.21875,0 0.53125,-0.171875 0.53125,-0.578125 0,-0.515625 -0.578125,-0.65625 -0.921875,-0.65625 -0.578125,0 -0.921875,0.53125 -1.046875,0.75 -0.25,-0.65625 -0.78125,-0.75 -1.078125,-0.75 -1.03125,0 -1.609375,1.28125 -1.609375,1.53125 0,0.109375 0.109375,0.109375 0.125,0.109375 0.078125,0 0.109375,-0.03125 0.125,-0.109375 0.34375,-1.0625 1,-1.3125 1.34375,-1.3125 0.1875,0 0.53125,0.09375 0.53125,0.671875 0,0.3125 -0.171875,0.96875 -0.53125,2.375 -0.15625,0.609375 -0.515625,1.03125 -0.953125,1.03125 -0.0625,0 -0.28125,0 -0.5,-0.125 0.25,-0.0625 0.46875,-0.265625 0.46875,-0.546875 0,-0.265625 -0.21875,-0.34375 -0.359375,-0.34375 -0.3125,0 -0.546875,0.25 -0.546875,0.578125 0,0.453125 0.484375,0.65625 0.921875,0.65625 0.671875,0 1.03125,-0.703125 1.046875,-0.75 0.125,0.359375 0.484375,0.75 1.078125,0.75 1.03125,0 1.59375,-1.28125 1.59375,-1.53125 0,-0.109375 -0.078125,-0.109375 -0.109375,-0.109375 -0.09375,0 -0.109375,0.046875 -0.140625,0.109375 -0.328125,1.078125 -1,1.3125 -1.3125,1.3125 -0.390625,0 -0.546875,-0.3125 -0.546875,-0.65625 0,-0.21875 0.046875,-0.4375 0.15625,-0.875 z m 0,0"
             id="path13019" />
        </g>
      </g>
      <g
         clip-path="url(#clipPath7622)"
         id="g13031"
         transform="matrix(0.352778,0,0,0.352778,-63.937,-2.66338)">
        <g
           fill="#000000"
           fill-opacity="1"
           id="g13029">
          <g
             id="g13027"
             transform="translate(186.636,13.45)">
            <path
               d="m 1.90625,-2.328125 c 0.546875,0 0.9375,0.375 0.9375,1.125 0,0.859375 -0.515625,1.125 -0.90625,1.125 -0.28125,0 -0.90625,-0.078125 -1.1875,-0.5 0.328125,0 0.40625,-0.234375 0.40625,-0.390625 0,-0.21875 -0.171875,-0.375 -0.390625,-0.375 -0.1875,0 -0.390625,0.125 -0.390625,0.40625 0,0.65625 0.71875,1.078125 1.5625,1.078125 0.96875,0 1.640625,-0.65625 1.640625,-1.34375 0,-0.546875 -0.4375,-1.09375 -1.203125,-1.25 0.71875,-0.265625 0.984375,-0.78125 0.984375,-1.21875 0,-0.546875 -0.625,-0.953125 -1.40625,-0.953125 -0.765625,0 -1.359375,0.375 -1.359375,0.9375 0,0.234375 0.15625,0.359375 0.359375,0.359375 0.21875,0 0.359375,-0.15625 0.359375,-0.34375 0,-0.203125 -0.140625,-0.359375 -0.359375,-0.375 0.25,-0.296875 0.71875,-0.375 0.984375,-0.375 0.3125,0 0.75,0.15625 0.75,0.75 0,0.296875 -0.09375,0.625 -0.28125,0.828125 -0.21875,0.265625 -0.421875,0.28125 -0.765625,0.3125 -0.171875,0.015625 -0.1875,0.015625 -0.21875,0.015625 -0.015625,0 -0.078125,0.015625 -0.078125,0.09375 0,0.09375 0.0625,0.09375 0.1875,0.09375 z m 0,0"
               id="path13025" />
          </g>
        </g>
      </g>
    </g>
    <g
       inkscape:label=""
       transform="matrix(0.8660254,0.5,0,1.1547005,53.761788,92.263405)"
       id="g13293">
      <g
         clip-path="url(#clipPath9191)"
         id="g17"
         transform="matrix(0.352778,0,0,0.352778,-64.6281,-1.73699)">
        <g
           fill="#000000"
           fill-opacity="1"
           id="g15">
          <g
             id="use13"
             transform="translate(182.68201,11.955)">
            <path
               d="m 6.4375,-6.921875 c 0,-0.03125 -0.03125,-0.109375 -0.125,-0.109375 -0.046875,0 -0.046875,0.015625 -0.171875,0.15625 L 5.65625,-6.3125 c -0.25,-0.46875 -0.765625,-0.71875 -1.421875,-0.71875 -1.265625,0 -2.453125,1.15625 -2.453125,2.359375 0,0.796875 0.515625,1.265625 1.03125,1.40625 l 1.0625,0.28125 c 0.375,0.09375 0.921875,0.25 0.921875,1.0625 0,0.890625 -0.8125,1.828125 -1.796875,1.828125 -0.640625,0 -1.75,-0.21875 -1.75,-1.453125 0,-0.234375 0.0625,-0.484375 0.0625,-0.53125 0.015625,-0.046875 0.015625,-0.0625 0.015625,-0.078125 0,-0.09375 -0.0625,-0.109375 -0.109375,-0.109375 -0.046875,0 -0.078125,0.015625 -0.109375,0.046875 -0.03125,0.03125 -0.59375,2.3125 -0.59375,2.34375 0,0.046875 0.046875,0.09375 0.109375,0.09375 0.046875,0 0.0625,-0.015625 0.1875,-0.15625 L 1.296875,-0.5 c 0.421875,0.578125 1.109375,0.71875 1.6875,0.71875 1.359375,0 2.53125,-1.328125 2.53125,-2.5625 0,-0.6875 -0.34375,-1.03125 -0.484375,-1.171875 C 4.796875,-3.734375 4.640625,-3.78125 3.765625,-4 3.53125,-4.0625 3.1875,-4.171875 3.09375,-4.1875 2.828125,-4.28125 2.484375,-4.5625 2.484375,-5.09375 c 0,-0.8125 0.796875,-1.65625 1.75,-1.65625 0.8125,0 1.421875,0.4375 1.421875,1.546875 0,0.3125 -0.03125,0.5 -0.03125,0.5625 0,0 0,0.09375 0.109375,0.09375 0.109375,0 0.125,-0.03125 0.15625,-0.203125 z m 0,0"
               id="path23" />
          </g>
        </g>
      </g>
    </g>
    <g
       inkscape:label=""
       transform="matrix(0.8660254,0.5,0,1.1547005,48.928314,84.846068)"
       id="g13574">
      <g
         clip-path="url(#clipPath2044)"
         id="g27"
         transform="matrix(0.352778,0,0,0.352778,-61.5837,-1.77557)">
        <g
           fill="#000000"
           fill-opacity="1"
           id="g13564">
          <g
             id="use23"
             transform="translate(174.021,11.955)">
            <path
               d="m 2.859375,-6.8125 c 0,0 0,-0.109375 -0.125,-0.109375 -0.234375,0 -0.953125,0.078125 -1.21875,0.109375 -0.078125,0 -0.1875,0.015625 -0.1875,0.1875 0,0.125 0.09375,0.125 0.234375,0.125 0.484375,0 0.5,0.0625 0.5,0.171875 L 2.03125,-6.125 0.59375,-0.390625 c -0.046875,0.140625 -0.046875,0.15625 -0.046875,0.21875 0,0.234375 0.203125,0.28125 0.296875,0.28125 0.15625,0 0.3125,-0.125 0.359375,-0.265625 l 0.1875,-0.75 0.21875,-0.890625 C 1.671875,-2.03125 1.734375,-2.25 1.78125,-2.46875 1.796875,-2.53125 1.890625,-2.859375 1.890625,-2.921875 1.921875,-3.015625 2.234375,-3.5625 2.578125,-3.84375 2.796875,-4 3.09375,-4.1875 3.53125,-4.1875 c 0.421875,0 0.53125,0.34375 0.53125,0.703125 0,0.53125 -0.375,1.625 -0.609375,2.234375 C 3.375,-1.03125 3.3125,-0.90625 3.3125,-0.703125 c 0,0.46875 0.359375,0.8125 0.828125,0.8125 0.9375,0 1.296875,-1.453125 1.296875,-1.53125 0,-0.109375 -0.078125,-0.109375 -0.109375,-0.109375 -0.109375,0 -0.109375,0.03125 -0.15625,0.1875 -0.140625,0.53125 -0.46875,1.234375 -1.015625,1.234375 -0.171875,0 -0.234375,-0.09375 -0.234375,-0.328125 0,-0.25 0.078125,-0.484375 0.171875,-0.703125 0.15625,-0.4375 0.609375,-1.625 0.609375,-2.203125 0,-0.640625 -0.390625,-1.0625 -1.140625,-1.0625 -0.625,0 -1.109375,0.3125 -1.484375,0.765625 z m 0,0"
               id="path43" />
          </g>
        </g>
      </g>
      <g
         fill="#000000"
         fill-opacity="1"
         id="g31"
         transform="matrix(0.352778,0,0,0.352778,-61.5837,-1.77557)">
        <g
           id="use29"
           transform="translate(182.52901,11.955)">
          <path
             d="m 6.84375,-3.265625 c 0.15625,0 0.34375,0 0.34375,-0.1875 C 7.1875,-3.65625 7,-3.65625 6.859375,-3.65625 h -5.96875 c -0.140625,0 -0.328125,0 -0.328125,0.203125 0,0.1875 0.1875,0.1875 0.328125,0.1875 z m 0.015625,1.9375 c 0.140625,0 0.328125,0 0.328125,-0.203125 0,-0.1875 -0.1875,-0.1875 -0.34375,-0.1875 H 0.890625 c -0.140625,0 -0.328125,0 -0.328125,0.1875 0,0.203125 0.1875,0.203125 0.328125,0.203125 z m 0,0"
             id="path47" />
        </g>
      </g>
      <g
         clip-path="url(#clipPath4629)"
         id="g37"
         transform="matrix(0.352778,0,0,0.352778,-61.5837,-1.77557)">
        <g
           fill="#000000"
           fill-opacity="1"
           id="g35">
          <g
             id="use33"
             transform="translate(193.04752,11.955)">
            <path
               d="m 2.9375,-6.375 c 0,-0.25 0,-0.265625 -0.234375,-0.265625 C 2.078125,-6 1.203125,-6 0.890625,-6 v 0.3125 c 0.203125,0 0.78125,0 1.296875,-0.265625 v 5.171875 c 0,0.359375 -0.03125,0.46875 -0.921875,0.46875 h -0.3125 V 0 c 0.34375,-0.03125 1.203125,-0.03125 1.609375,-0.03125 0.390625,0 1.265625,0 1.609375,0.03125 v -0.3125 h -0.3125 c -0.90625,0 -0.921875,-0.109375 -0.921875,-0.46875 z m 0,0"
               id="path51" />
          </g>
        </g>
      </g>
    </g>
    <g
       inkscape:label=""
       transform="translate(70.363571,111.81488)"
       id="g15785">
      <g
         fill="#000000"
         fill-opacity="1"
         id="g15775"
         transform="matrix(0.352778,0,0,0.352778,-63.648,-1.81451)">
        <g
           id="g15773"
           transform="translate(180.02901,11.956)">
          <path
             d="M 3.734375,-6.03125 C 3.8125,-6.390625 3.84375,-6.5 4.78125,-6.5 c 0.296875,0 0.375,0 0.375,-0.1875 0,-0.125 -0.109375,-0.125 -0.15625,-0.125 -0.328125,0 -1.140625,0.03125 -1.46875,0.03125 -0.296875,0 -1.03125,-0.03125 -1.328125,-0.03125 -0.0625,0 -0.1875,0 -0.1875,0.203125 0,0.109375 0.09375,0.109375 0.28125,0.109375 0.015625,0 0.203125,0 0.375,0.015625 0.171875,0.03125 0.265625,0.03125 0.265625,0.171875 0,0.03125 0,0.0625 -0.03125,0.1875 L 1.5625,-0.78125 c -0.09375,0.390625 -0.109375,0.46875 -0.90625,0.46875 -0.171875,0 -0.265625,0 -0.265625,0.203125 C 0.390625,0 0.484375,0 0.65625,0 h 4.625 C 5.515625,0 5.515625,0 5.578125,-0.171875 L 6.375,-2.328125 c 0.03125,-0.109375 0.03125,-0.125 0.03125,-0.140625 0,-0.03125 -0.03125,-0.109375 -0.109375,-0.109375 -0.09375,0 -0.109375,0.0625 -0.171875,0.21875 -0.34375,0.90625 -0.78125,2.046875 -2.5,2.046875 H 2.6875 c -0.140625,0 -0.171875,0 -0.21875,0 -0.109375,-0.015625 -0.140625,-0.03125 -0.140625,-0.109375 0,-0.03125 0,-0.046875 0.046875,-0.21875 z m 0,0"
             id="path15771" />
        </g>
      </g>
      <g
         clip-path="url(#clipPath1340)"
         id="g15783"
         transform="matrix(0.352778,0,0,0.352778,-63.648,-1.81451)">
        <g
           fill="#000000"
           fill-opacity="1"
           id="g15781">
          <g
             id="g15779"
             transform="translate(186.80901,13.45)">
            <path
               d="M 2.953125,-1.125 C 2.90625,-0.984375 2.84375,-0.71875 2.84375,-0.71875 2.703125,-0.5 2.421875,-0.125 2,-0.125 c -0.484375,0 -0.484375,-0.453125 -0.484375,-0.578125 0,-0.40625 0.1875,-0.90625 0.390625,-1.421875 C 1.953125,-2.265625 2,-2.359375 2,-2.46875 2,-2.84375 1.6875,-3.078125 1.34375,-3.078125 0.640625,-3.078125 0.328125,-2.125 0.328125,-2 c 0,0.078125 0.09375,0.078125 0.125,0.078125 0.09375,0 0.09375,-0.03125 0.125,-0.109375 0.15625,-0.5625 0.46875,-0.84375 0.734375,-0.84375 0.125,0 0.171875,0.078125 0.171875,0.234375 0,0.171875 -0.046875,0.3125 -0.125,0.46875 -0.375,0.96875 -0.375,1.171875 -0.375,1.359375 0,0.109375 0,0.4375 0.265625,0.65625 0.203125,0.171875 0.46875,0.21875 0.71875,0.21875 0.4375,0 0.671875,-0.234375 0.90625,-0.453125 C 3.03125,0.0625 3.484375,0.0625 3.578125,0.0625 3.8125,0.0625 4,-0.0625 4.125,-0.296875 4.28125,-0.578125 4.375,-0.96875 4.375,-1 c 0,-0.09375 -0.09375,-0.09375 -0.109375,-0.09375 -0.109375,0 -0.109375,0.03125 -0.15625,0.21875 -0.09375,0.328125 -0.21875,0.75 -0.515625,0.75 -0.171875,0 -0.234375,-0.15625 -0.234375,-0.34375 0,-0.109375 0.0625,-0.375 0.109375,-0.546875 0.046875,-0.1875 0.125,-0.46875 0.15625,-0.625 l 0.15625,-0.625 C 3.828125,-2.4375 3.90625,-2.75 3.90625,-2.78125 3.90625,-2.921875 3.796875,-3 3.671875,-3 c -0.25,0 -0.3125,0.203125 -0.359375,0.421875 z m 0,0"
               id="path15777" />
          </g>
        </g>
      </g>
    </g>
    <g
       inkscape:label=""
       transform="translate(91.1482,123.81488)"
       id="g16159">
      <g
         fill="#000000"
         fill-opacity="1"
         id="g16149"
         transform="matrix(0.352778,0,0,0.352778,-63.7475,-1.81451)">
        <g
           id="g16147"
           transform="translate(180.311,11.956)">
          <path
             d="M 3.734375,-6.03125 C 3.8125,-6.390625 3.84375,-6.5 4.78125,-6.5 c 0.296875,0 0.375,0 0.375,-0.1875 0,-0.125 -0.109375,-0.125 -0.15625,-0.125 -0.328125,0 -1.140625,0.03125 -1.46875,0.03125 -0.296875,0 -1.03125,-0.03125 -1.328125,-0.03125 -0.0625,0 -0.1875,0 -0.1875,0.203125 0,0.109375 0.09375,0.109375 0.28125,0.109375 0.015625,0 0.203125,0 0.375,0.015625 0.171875,0.03125 0.265625,0.03125 0.265625,0.171875 0,0.03125 0,0.0625 -0.03125,0.1875 L 1.5625,-0.78125 c -0.09375,0.390625 -0.109375,0.46875 -0.90625,0.46875 -0.171875,0 -0.265625,0 -0.265625,0.203125 C 0.390625,0 0.484375,0 0.65625,0 h 4.625 C 5.515625,0 5.515625,0 5.578125,-0.171875 L 6.375,-2.328125 c 0.03125,-0.109375 0.03125,-0.125 0.03125,-0.140625 0,-0.03125 -0.03125,-0.109375 -0.109375,-0.109375 -0.09375,0 -0.109375,0.0625 -0.171875,0.21875 -0.34375,0.90625 -0.78125,2.046875 -2.5,2.046875 H 2.6875 c -0.140625,0 -0.171875,0 -0.21875,0 -0.109375,-0.015625 -0.140625,-0.03125 -0.140625,-0.109375 0,-0.03125 0,-0.046875 0.046875,-0.21875 z m 0,0"
             id="path16145" />
        </g>
      </g>
      <g
         clip-path="url(#clipPath4340)"
         id="g16157"
         transform="matrix(0.352778,0,0,0.352778,-63.7475,-1.81451)">
        <g
           fill="#000000"
           fill-opacity="1"
           id="g16155">
          <g
             id="g16153"
             transform="translate(187.091,13.45)">
            <path
               d="M 3.984375,-4.625 C 3.984375,-4.640625 4,-4.734375 4,-4.734375 4,-4.78125 3.984375,-4.84375 3.890625,-4.84375 3.75,-4.84375 3.171875,-4.78125 3,-4.765625 c -0.046875,0 -0.15625,0.015625 -0.15625,0.15625 0,0.09375 0.109375,0.09375 0.1875,0.09375 0.328125,0 0.328125,0.0625 0.328125,0.109375 0,0.046875 0,0.09375 -0.015625,0.15625 L 2.9375,-2.65625 c -0.140625,-0.234375 -0.375,-0.421875 -0.71875,-0.421875 -0.890625,0 -1.796875,0.984375 -1.796875,1.984375 0,0.6875 0.453125,1.15625 1.0625,1.15625 0.375,0 0.703125,-0.203125 0.984375,-0.484375 C 2.59375,0 3,0.0625 3.1875,0.0625 c 0.25,0 0.421875,-0.140625 0.546875,-0.359375 0.15625,-0.28125 0.25,-0.671875 0.25,-0.703125 0,-0.09375 -0.09375,-0.09375 -0.109375,-0.09375 -0.109375,0 -0.109375,0.03125 -0.15625,0.21875 C 3.625,-0.53125 3.5,-0.125 3.203125,-0.125 3.03125,-0.125 2.96875,-0.28125 2.96875,-0.46875 c 0,-0.125 0.015625,-0.1875 0.046875,-0.28125 z M 2.5,-0.875 C 2.453125,-0.671875 2.296875,-0.53125 2.140625,-0.40625 2.078125,-0.34375 1.796875,-0.125 1.5,-0.125 c -0.265625,0 -0.515625,-0.1875 -0.515625,-0.671875 0,-0.375 0.203125,-1.140625 0.375,-1.421875 0.3125,-0.5625 0.671875,-0.65625 0.859375,-0.65625 0.484375,0 0.625,0.53125 0.625,0.609375 0,0.015625 -0.015625,0.078125 -0.015625,0.09375 z m 0,0"
               id="path16151" />
          </g>
        </g>
      </g>
    </g>
    <g
       inkscape:label=""
       transform="matrix(0.8660254,-0.5,1,0.57735027,61.602299,79.905607)"
       id="g17482">
      <g
         fill="#000000"
         fill-opacity="1"
         id="g29"
         transform="matrix(0.352778,0,0,0.352778,-60.5344,-1.81416)">
        <g
           id="use27"
           transform="translate(171.203,11.955)">
          <path
             d="m 4.578125,-3.1875 c 0,-0.796875 -0.046875,-1.59375 -0.390625,-2.328125 -0.453125,-0.96875 -1.28125,-1.125 -1.6875,-1.125 -0.609375,0 -1.328125,0.265625 -1.75,1.1875 -0.3125,0.6875 -0.359375,1.46875 -0.359375,2.265625 0,0.75 0.03125,1.640625 0.453125,2.40625 0.421875,0.796875 1.15625,1 1.640625,1 0.53125,0 1.296875,-0.203125 1.734375,-1.15625 0.3125,-0.6875 0.359375,-1.46875 0.359375,-2.25 z M 2.484375,0 C 2.09375,0 1.5,-0.25 1.328125,-1.203125 1.21875,-1.796875 1.21875,-2.71875 1.21875,-3.3125 c 0,-0.640625 0,-1.296875 0.078125,-1.828125 0.1875,-1.1875 0.9375,-1.28125 1.1875,-1.28125 0.328125,0 0.984375,0.1875 1.171875,1.171875 0.109375,0.5625 0.109375,1.3125 0.109375,1.9375 0,0.75 0,1.421875 -0.109375,2.0625 C 3.5,-0.296875 2.9375,0 2.484375,0 Z m 0,0"
             id="path53" />
        </g>
      </g>
      <g
         clip-path="url(#clipPath1604)"
         id="g17471"
         transform="matrix(0.352778,0,0,0.352778,-60.5344,-1.81416)">
        <g
           fill="#000000"
           fill-opacity="1"
           id="g33">
          <g
             id="use31"
             transform="translate(176.18401,11.955)">
            <path
               d="m 2.03125,-0.015625 c 0,-0.65625 -0.25,-1.046875 -0.640625,-1.046875 -0.328125,0 -0.53125,0.25 -0.53125,0.53125 C 0.859375,-0.265625 1.0625,0 1.390625,0 1.5,0 1.640625,-0.046875 1.734375,-0.125 1.765625,-0.15625 1.78125,-0.15625 1.78125,-0.15625 c 0.015625,0 0.015625,0 0.015625,0.140625 0,0.75 -0.34375,1.34375 -0.671875,1.671875 -0.109375,0.109375 -0.109375,0.125 -0.109375,0.15625 0,0.078125 0.046875,0.109375 0.09375,0.109375 0.109375,0 0.921875,-0.765625 0.921875,-1.9375 z m 0,0"
               id="path57" />
          </g>
        </g>
      </g>
      <g
         fill="#000000"
         fill-opacity="1"
         id="g39"
         transform="matrix(0.352778,0,0,0.352778,-60.5344,-1.81416)">
        <g
           id="use37"
           transform="translate(180.612,11.955)">
          <path
             d="m 4.46875,-2 c 0,-1.1875 -0.8125,-2.1875 -1.890625,-2.1875 -0.46875,0 -0.90625,0.15625 -1.265625,0.515625 V -5.625 c 0.203125,0.0625 0.53125,0.125 0.84375,0.125 1.234375,0 1.9375,-0.90625 1.9375,-1.03125 0,-0.0625 -0.03125,-0.109375 -0.109375,-0.109375 0,0 -0.03125,0 -0.078125,0.03125 C 3.703125,-6.515625 3.21875,-6.3125 2.546875,-6.3125 2.15625,-6.3125 1.6875,-6.390625 1.21875,-6.59375 1.140625,-6.625 1.125,-6.625 1.109375,-6.625 1,-6.625 1,-6.546875 1,-6.390625 V -3.4375 c 0,0.171875 0,0.25 0.140625,0.25 0.078125,0 0.09375,-0.015625 0.140625,-0.078125 C 1.390625,-3.421875 1.75,-3.96875 2.5625,-3.96875 c 0.515625,0 0.765625,0.453125 0.84375,0.640625 0.15625,0.375 0.1875,0.75 0.1875,1.25 0,0.359375 0,0.953125 -0.25,1.375 C 3.109375,-0.3125 2.734375,-0.0625 2.28125,-0.0625 c -0.71875,0 -1.296875,-0.53125 -1.46875,-1.109375 0.03125,0 0.0625,0.015625 0.171875,0.015625 0.328125,0 0.5,-0.25 0.5,-0.484375 0,-0.25 -0.171875,-0.5 -0.5,-0.5 C 0.84375,-2.140625 0.5,-2.0625 0.5,-1.609375 0.5,-0.75 1.1875,0.21875 2.296875,0.21875 3.453125,0.21875 4.46875,-0.734375 4.46875,-2 Z m 0,0"
             id="path61" />
        </g>
      </g>
      <g
         fill="#000000"
         fill-opacity="1"
         id="g43"
         transform="matrix(0.352778,0,0,0.352778,-60.5344,-1.81416)">
        <g
           id="use41"
           transform="translate(187.80701,11.955)">
          <path
             d="m 1.90625,-2.5 c 0,-0.28125 -0.234375,-0.515625 -0.515625,-0.515625 -0.296875,0 -0.53125,0.234375 -0.53125,0.515625 0,0.296875 0.234375,0.53125 0.53125,0.53125 0.28125,0 0.515625,-0.234375 0.515625,-0.53125 z m 0,0"
             id="path65" />
        </g>
      </g>
      <g
         fill="#000000"
         fill-opacity="1"
         id="g47"
         transform="matrix(0.352778,0,0,0.352778,-60.5344,-1.81416)">
        <g
           id="use45"
           transform="translate(192.78799,11.955)">
          <path
             d="M 1.59375,-0.78125 C 1.5,-0.390625 1.46875,-0.3125 0.6875,-0.3125 c -0.171875,0 -0.265625,0 -0.265625,0.203125 C 0.421875,0 0.515625,0 0.6875,0 H 4.25 C 5.828125,0 7,-1.171875 7,-2.15625 7,-2.875 6.421875,-3.453125 5.453125,-3.5625 6.484375,-3.75 7.53125,-4.484375 7.53125,-5.4375 c 0,-0.734375 -0.65625,-1.375 -1.84375,-1.375 H 2.328125 c -0.1875,0 -0.28125,0 -0.28125,0.203125 0,0.109375 0.09375,0.109375 0.28125,0.109375 0.015625,0 0.203125,0 0.375,0.015625 0.171875,0.03125 0.265625,0.03125 0.265625,0.171875 0,0.03125 -0.015625,0.0625 -0.03125,0.1875 z m 1.5,-2.875 0.625,-2.46875 C 3.8125,-6.46875 3.828125,-6.5 4.25,-6.5 h 1.296875 c 0.875,0 1.078125,0.59375 1.078125,1.03125 0,0.875 -0.859375,1.8125 -2.0625,1.8125 z m -0.4375,3.34375 c -0.140625,0 -0.15625,0 -0.21875,0 -0.109375,-0.015625 -0.140625,-0.03125 -0.140625,-0.109375 0,-0.03125 0,-0.046875 0.0625,-0.21875 l 0.6875,-2.78125 h 1.875 c 0.953125,0 1.15625,0.734375 1.15625,1.15625 C 6.078125,-1.28125 5.1875,-0.3125 4,-0.3125 Z m 0,0"
             id="path69" />
        </g>
      </g>
    </g>
    <text
       xml:space="preserve"
       style="font-style:normal;font-variant:normal;font-weight:normal;font-stretch:normal;font-size:3.52777px;font-family:sans-serif;-inkscape-font-specification:'sans-serif, Normal';font-variant-ligatures:normal;font-variant-caps:normal;font-variant-numeric:normal;font-variant-east-asian:normal;fill:#000000;fill-opacity:1;stroke:none;stroke-width:0.165;stroke-dasharray:none;stroke-dashoffset:0;stroke-opacity:1"
       x="-54"
       y="124.70766"
       id="text19653"
       transform="matrix(0.8660254,-0.5,1,0.57735027,0,0)"><tspan
         sodipodi:role="line"
         style="stroke-width:0.165"
         x="-54"
         y="124.70766"
         id="tspan19655">Topo</tspan></text>
    <text
       xml:space="preserve"
       style="font-style:normal;font-variant:normal;font-weight:normal;font-stretch:normal;font-size:3.52777px;font-family:sans-serif;-inkscape-font-specification:'sans-serif, Normal';font-variant-ligatures:normal;font-variant-caps:normal;font-variant-numeric:normal;font-variant-east-asian:normal;fill:#000000;fill-opacity:1;stroke:none;stroke-width:0.165;stroke-dasharray:none;stroke-dashoffset:0;stroke-opacity:1"
       x="-46.821297"
       y="142.12418"
       id="text19661"
       transform="matrix(0.8660254,-0.5,1,0.57735027,0,0)"><tspan
         sodipodi:role="line"
         id="tspan19659"
         style="stroke-width:0.165"
         x="-46.821297"
         y="142.12418">Fundo</tspan></text>
    <text
       xml:space="preserve"
       style="font-style:normal;font-variant:normal;font-weight:normal;font-stretch:normal;font-size:3.52777px;font-family:sans-serif;-inkscape-font-specification:'sans-serif, Normal';font-variant-ligatures:normal;font-variant-caps:normal;font-variant-numeric:normal;font-variant-east-asian:normal;fill:#000000;fill-opacity:1;stroke:none;stroke-width:0.165;stroke-dasharray:none;stroke-dashoffset:0;stroke-opacity:1"
       x="131.6512"
       y="25.250319"
       id="text19861"
       transform="matrix(0.86602543,0.50000001,0,1.1547005,0,0)"><tspan
         sodipodi:role="line"
         id="tspan19859"
         style="stroke-width:0.165"
         x="131.6512"
         y="25.250319">Plano de simetria</tspan></text>
    <path
       style="fill:none;fill-opacity:1;stroke:#000000;stroke-width:0.165;stroke-dasharray:0.66;stroke-dashoffset:0;stroke-opacity:1"
       d="M 147.22432,120 108.25317,97.5 v -5.000001 l -8.66025,-5 v -5.000001"
       id="path20937" />
    <path
       style="fill:none;fill-opacity:1;stroke:#000000;stroke-width:0.165;stroke-dasharray:none;stroke-dashoffset:0;stroke-opacity:1"
       d="M 147.22432,120 V 110 L 99.59292,82.499998"
       id="path20939" />
    <path
       style="fill:none;stroke:#000000;stroke-width:0.165"
       d="m 97.860873,81.499996 -17.320507,-10"
       id="path539" />
    <path
       style="fill:none;stroke:#000000;stroke-width:0.165"
       d="M 80.540366,111.5 54.559604,96.499996"
       id="path541" />
    <path
       style="fill:none;stroke:#000000;stroke-width:0.165"
       d="M 71.880112,101.5 54.559604,91.499996"
       id="path543" />
    <path
       style="fill:none;stroke:#000000;stroke-width:0.165"
       d="m 71.880112,96.499996 -17.320508,-10"
       id="path545" />
    <path
       style="fill:none;stroke:#000000;stroke-width:0.165;marker-end:url(#TriangleStart)"
       d="m 71.014087,82.999996 15.588457,9"
       id="path742" />
  </g>
</svg>
