<?xml version="1.0" encoding="UTF-8" standalone="no"?>
<!-- Created with Inkscape (http://www.inkscape.org/) -->

<svg
   width="169.34093mm"
   height="93.892456mm"
   viewBox="0 0 169.34093 93.892459"
   version="1.1"
   id="svg5"
   inkscape:version="1.3.2 (1:1.3.2+202311252150+091e20ef0f)"
   sodipodi:docname="pre1000.svg"
   xmlns:inkscape="http://www.inkscape.org/namespaces/inkscape"
   xmlns:sodipodi="http://sodipodi.sourceforge.net/DTD/sodipodi-0.dtd"
   xmlns="http://www.w3.org/2000/svg"
   xmlns:svg="http://www.w3.org/2000/svg">
  <sodipodi:namedview
     id="namedview7"
     pagecolor="#ffffff"
     bordercolor="#000000"
     borderopacity="0.25"
     inkscape:showpageshadow="2"
     inkscape:pageopacity="0.0"
     inkscape:pagecheckerboard="0"
     inkscape:deskcolor="#d1d1d1"
     inkscape:document-units="mm"
     showgrid="false"
     inkscape:zoom="1.0544998"
     inkscape:cx="481.27085"
     inkscape:cy="72.072088"
     inkscape:window-width="1920"
     inkscape:window-height="970"
     inkscape:window-x="1920"
     inkscape:window-y="27"
     inkscape:window-maximized="1"
     inkscape:current-layer="layer1" />
  <defs
     id="defs2">
    <clipPath
       clipPathUnits="userSpaceOnUse"
       id="clipPath1">
      <g
         id="g2"
         transform="matrix(3.7795276,0,0,3.7795276,680.24765,-603.60352)">
        <rect
           x="-86.055107"
           y="159.70343"
           width="179.91667"
           height="100.0125"
           id="rect1"
           style="stroke-width:0.264583" />
      </g>
    </clipPath>
    <clipPath
       clipPathUnits="userSpaceOnUse"
       id="clipPath2">
      <g
         id="g3"
         transform="matrix(3.7795276,0,0,3.7795276,680.24765,-603.60352)">
        <rect
           x="-86.055107"
           y="159.70343"
           width="179.91667"
           height="100.0125"
           id="rect2"
           style="stroke-width:0.264583" />
      </g>
    </clipPath>
    <clipPath
       clipPathUnits="userSpaceOnUse"
       id="clipPath3">
      <g
         id="g4"
         transform="matrix(3.7795276,0,0,3.7795276,680.24765,-603.60352)">
        <rect
           x="-86.055107"
           y="159.70343"
           width="179.91667"
           height="100.0125"
           id="rect3"
           style="stroke-width:0.264583" />
      </g>
    </clipPath>
    <clipPath
       clipPathUnits="userSpaceOnUse"
       id="clipPath4">
      <g
         id="g5"
         transform="matrix(3.7795276,0,0,3.7795276,680.24765,-603.60352)">
        <rect
           x="-86.055107"
           y="159.70343"
           width="179.91667"
           height="100.0125"
           id="rect4"
           style="stroke-width:0.264583" />
      </g>
    </clipPath>
    <clipPath
       clipPathUnits="userSpaceOnUse"
       id="clipPath5">
      <g
         id="g6"
         transform="matrix(3.7795276,0,0,3.7795276,680.24765,-603.60352)">
        <rect
           x="-86.055107"
           y="159.70343"
           width="179.91667"
           height="100.0125"
           id="rect5"
           style="stroke-width:0.264583" />
      </g>
    </clipPath>
    <clipPath
       clipPathUnits="userSpaceOnUse"
       id="clipPath6">
      <g
         id="g7"
         transform="matrix(3.7795276,0,0,3.7795276,680.24765,-603.60352)">
        <rect
           x="-86.055107"
           y="159.70343"
           width="179.91667"
           height="100.0125"
           id="rect6"
           style="stroke-width:0.264583" />
      </g>
    </clipPath>
    <clipPath
       clipPathUnits="userSpaceOnUse"
       id="clipPath7">
      <g
         id="g8"
         transform="matrix(3.7795276,0,0,3.7795276,680.24765,-603.60352)">
        <rect
           x="-86.055107"
           y="159.70343"
           width="179.91667"
           height="100.0125"
           id="rect7"
           style="stroke-width:0.264583" />
      </g>
    </clipPath>
    <clipPath
       clipPathUnits="userSpaceOnUse"
       id="clipPath8">
      <g
         id="g9"
         transform="matrix(3.7795276,0,0,3.7795276,680.24765,-603.60352)">
        <rect
           x="-86.055107"
           y="159.70343"
           width="179.91667"
           height="100.0125"
           id="rect8"
           style="stroke-width:0.264583" />
      </g>
    </clipPath>
    <clipPath
       clipPathUnits="userSpaceOnUse"
       id="clipPath9">
      <g
         id="g10"
         transform="matrix(3.7795276,0,0,3.7795276,680.24765,-603.60352)">
        <rect
           x="-86.055107"
           y="159.70343"
           width="179.91667"
           height="100.0125"
           id="rect9"
           style="stroke-width:0.264583" />
      </g>
    </clipPath>
    <clipPath
       clipPathUnits="userSpaceOnUse"
       id="clipPath10">
      <g
         id="g11"
         transform="matrix(3.7795276,0,0,3.7795276,680.24765,-603.60352)">
        <rect
           x="-86.055107"
           y="159.70343"
           width="179.91667"
           height="100.0125"
           id="rect10"
           style="stroke-width:0.264583" />
      </g>
    </clipPath>
    <clipPath
       clipPathUnits="userSpaceOnUse"
       id="clipPath11">
      <g
         id="g12"
         transform="matrix(3.7795276,0,0,3.7795276,680.24765,-603.60352)">
        <rect
           x="-86.055107"
           y="159.70343"
           width="179.91667"
           height="100.0125"
           id="rect11"
           style="stroke-width:0.264583" />
      </g>
    </clipPath>
    <clipPath
       clipPathUnits="userSpaceOnUse"
       id="clipPath12">
      <g
         id="g13"
         transform="matrix(3.7795276,0,0,3.7795276,680.24765,-603.60352)">
        <rect
           x="-86.055107"
           y="159.70343"
           width="179.91667"
           height="100.0125"
           id="rect12"
           style="stroke-width:0.264583" />
      </g>
    </clipPath>
    <clipPath
       clipPathUnits="userSpaceOnUse"
       id="clipPath13">
      <g
         id="g14"
         transform="matrix(3.7795276,0,0,3.7795276,680.24765,-603.60352)">
        <rect
           x="-86.055107"
           y="159.70343"
           width="179.91667"
           height="100.0125"
           id="rect13"
           style="stroke-width:0.264583" />
      </g>
    </clipPath>
    <clipPath
       clipPathUnits="userSpaceOnUse"
       id="clipPath14">
      <g
         id="g15"
         transform="matrix(3.7795276,0,0,3.7795276,680.24765,-603.60352)">
        <rect
           x="-86.055107"
           y="159.70343"
           width="179.91667"
           height="100.0125"
           id="rect14"
           style="stroke-width:0.264583" />
      </g>
    </clipPath>
    <clipPath
       clipPathUnits="userSpaceOnUse"
       id="clipPath15">
      <g
         id="g16"
         transform="matrix(3.7795276,0,0,3.7795276,680.24765,-603.60352)">
        <rect
           x="-86.055107"
           y="159.70343"
           width="179.91667"
           height="100.0125"
           id="rect15"
           style="stroke-width:0.264583" />
      </g>
    </clipPath>
    <clipPath
       clipPathUnits="userSpaceOnUse"
       id="clipPath16">
      <g
         id="g17">
        <rect
           x="-86.055107"
           y="159.70343"
           width="179.91667"
           height="100.0125"
           id="rect16"
           style="stroke-width:0.264583" />
      </g>
    </clipPath>
  </defs>
  <g
     inkscape:label="Camada 1"
     inkscape:groupmode="layer"
     id="layer1"
     transform="translate(80.771037,-162.51359)">
    <g
       id="g141"
       transform="matrix(0.26458333,0,0,0.26458333,-179.98219,159.70343)"
       clip-path="url(#clipPath15)">
      <path
         d="m 421.5,314.5 h 592 m -592,-50 h 592 m -592,-50 h 592 m -592,-50 h 592 m -592,-99.9999 h 592 m -592,-50 h 592"
         stroke="#d9d9d9"
         stroke-linejoin="round"
         stroke-miterlimit="10"
         fill="none"
         id="path139" />
    </g>
    <g
       id="g145"
       transform="matrix(0.26458333,0,0,0.26458333,-179.98219,159.70343)"
       clip-path="url(#clipPath14)">
      <path
         d="M 529.5,14.5001 V 314.5 M 636.5,14.5001 V 314.5 M 744.5,14.5001 V 314.5 M 852.5,14.5001 V 314.5 M 959.5,14.5001 V 314.5"
         stroke="#d9d9d9"
         stroke-linejoin="round"
         stroke-miterlimit="10"
         fill="none"
         id="path143" />
    </g>
    <g
       id="g149"
       transform="matrix(0.26458333,0,0,0.26458333,-179.98219,159.70343)"
       clip-path="url(#clipPath13)">
      <rect
         x="421.5"
         y="14.5001"
         width="592"
         height="300"
         stroke="#000000"
         stroke-linejoin="round"
         stroke-miterlimit="10"
         fill="none"
         id="rect147" />
    </g>
    <g
       id="g153"
       transform="matrix(0.26458333,0,0,0.26458333,-179.98219,159.70343)"
       clip-path="url(#clipPath12)">
      <path
         d="M 0,0 1.04987e-4,300"
         stroke="#000000"
         stroke-linejoin="round"
         stroke-miterlimit="10"
         fill="none"
         fill-rule="evenodd"
         transform="matrix(1,0,0,-1,421.5,314.5)"
         id="path151" />
    </g>
    <g
       id="g157"
       transform="matrix(0.26458333,0,0,0.26458333,-179.98219,159.70343)"
       clip-path="url(#clipPath11)">
      <path
         d="m 421.5,314.5 h 3 m -3,-10 h 3 m -3,-10 h 3 m -3,-10 h 3 m -3,-10 h 3 m -3,-10 h 3 m -3,-10 h 3 m -3,-10 h 3 m -3,-10 h 3 m -3,-10 h 3 m -3,-10 h 3 m -3,-10 h 3 m -3,-10 h 3 m -3,-10 h 3 m -3,-10 h 3 m -3,-10 h 3 m -3,-10 h 3 m -3,-10 h 3 m -3,-10 h 3 m -3,-10 h 3 m -3,-10 h 3 m -3,-10 h 3 m -3,-9.9999 h 3 m -3,-10 h 3 m -3,-10 h 3 m -3,-10 h 3 m -3,-10 h 3 m -3,-10 h 3 m -3,-10 h 3 m -3,-10 h 3 m -3,-10 h 3 m -6,299.9999 h 7 m -7,-50 h 7 m -7,-50 h 7 m -7,-50 h 7 m -7,-50 h 7 m -7,-49.9999 h 7 m -7,-50 h 7"
         stroke="#000000"
         stroke-linejoin="round"
         stroke-miterlimit="10"
         fill="none"
         id="path155" />
    </g>
    <g
       id="g161"
       transform="matrix(0.26458333,0,0,0.26458333,-179.98219,159.70343)"
       clip-path="url(#clipPath10)">
      <path
         d="m 421.5,114.5 h 592"
         stroke="#000000"
         stroke-linejoin="round"
         stroke-miterlimit="10"
         fill="none"
         fill-rule="evenodd"
         id="path159" />
    </g>
    <g
       id="g165"
       transform="matrix(0.26458333,0,0,0.26458333,-179.98219,159.70343)"
       clip-path="url(#clipPath9)">
      <path
         d="m 421.5,111.5 v 3 m 22,-3 v 3 m 21,-3 v 3 m 22,-3 v 3 m 21,-3 v 3 m 22,-3 v 3 m 21,-3 v 3 m 22,-3 v 3 m 21,-3 v 3 m 22,-3 v 3 m 21,-3 v 3 m 22,-3 v 3 m 21,-3 v 3 m 22,-3 v 3 m 21,-3 v 3 m 22,-3 v 3 m 22,-3 v 3 m 21,-3 v 3 m 22,-3 v 3 m 21,-3 v 3 m 22,-3 v 3 m 21,-3 v 3 m 22,-3 v 3 m 21,-3 v 3 m 22,-3 v 3 m 21,-3 v 3 m 22,-3 v 3 m 21,-3 v 3 m -581,-4 v 8 m 108,-8 v 8 m 107,-8 v 8 m 108,-8 v 8 m 108,-8 v 8 m 107,-8 v 8"
         stroke="#000000"
         stroke-linejoin="round"
         stroke-miterlimit="10"
         fill="none"
         id="path163" />
    </g>
    <g
       id="g169"
       transform="matrix(0.26458333,0,0,0.26458333,-179.98219,159.70343)"
       clip-path="url(#clipPath8)">
      <path
         d="m 422,265 v 0 h 1 v 0 h 1 1 v 0 h 1 v 0 h 1 1 v 0 h 1 v 0 h 1 l 1,1 v 0 h 1 v 0 h 1 v 0 h 1 1 v 0 l 1,-1 v 0 h 1 1 v 0 l 1,1 v 0 h 1 1 v 0 h 1 v 0 h 1 1 v 0 h 1 v 0 l 1,1 v 0 h 1 1 v 0 h 1 v 0 h 1 1 v -1 h 1 v 0 h 1 1 v 0 h 1 v -1 h 1 1 v 0 h 1 v 0 l 1,-1 h 1 v 0 h 1 v 0 h 1 v -1 h 1 1 v 0 h 1 v -1 h 1 1 v 0 h 1 v -1 h 1 1 v 0 h 1 v 0 h 1 1 v 0 h 1 v 0 h 1 v 0 l 1,-1 h 1 v -1 h 1 v -1 h 1 l 1,-1 v 0 l 1,-1 v 0 h 1 1 v 0 h 1 v 0 l 1,1 h 1 v 0 l 1,-1 v 0 h 1 l 1,-1 v 0 l 1,-1 v 0 l 1,-1 v 0 l 1,-1 h 1 v 0 h 1 v 0 h 1 l 1,-1 v 0 h 1 v 0 l 1,-1 h 1 v -1 h 1 v 0 l 1,-1 h 1 v -1 h 1 v -1 l 1,-1 v 0 l 1,-1 1,-1 v 0 l 1,-1 v -1 l 1,-1 h 1 v -1 h 1 v -1 l 1,-1 h 1 v -1 l 1,-1 v 0 l 1,-1 1,-1 v 0 l 1,-1 v -1 l 1,-1 1,-1 v 0 l 1,-1 v -1 h 1 v 0 h 1 1 v -1 h 1 v 0 h 1 1 v -1 h 1 v -1 l 1,-1 1,-1 v -1 l 1,-1 v -1 l 1,-1 1,-1 v -1 h 1 v -1 l 1,-1 h 1 v -1 l 1,-1 v 0 l 1,-1 v -1 h 1 l 1,-1 v -1 l 1,-1 v -1 h 1 l 1,-1 v -1 l 1,-1 v -1 h 1 l 1,-1 v -1 l 1,-1 v -1 h 1 l 1,-1 v -1 l 1,-1 v 0 l 1,-1 v -1 l 1,-1 h 1 v -1 l 1,-1 v -1 h 1 l 1,-2 v -1 l 1,-1 v -1 l 1,-1 1,-1 v -1 l 1,-1 v -1 h 1 l 1,-1 v -1 h 1 v -1 l 1,-1 1,-1 v 0 l 1,-1 v -1 l 1,-1 v -1 l 1,-1 1,-1 v -1 l 1,-2 v -1 l 1,-1 1,-1 v 0 l 1,-1 v -1 h 1 l 1,-1 v -1 l 1,-1 v 0 l 1,-1 1,-1 v -1 l 1,-1 v -1 l 1,-1 v 0 l 1,-1 1,-1 v -1 l 1,-1 v -1 h 1 l 1,-1 v 0 l 1,-1 v 0 l 1,-1 1,-1 v 0 l 1,-1 v -1 l 1,-1 1,-1 v -1 l 1,-1 v -1 l 1,-1 1,-1 v -1 l 1,-1 v -1 l 1,-1 v -1 l 1,-1 1,-1 v 0 l 1,-1 v -1 l 1,-1 1,-1 v -1 l 1,-1 v -1 l 1,-1 1,-1 v -1 l 1,-1 v -1 l 1,-1 1,-1 v -1 l 1,-1 v -1 l 1,-1 1,-1 v -1 l 1,-1 v -1 l 1,-1 v -1 l 1,-1 1,-1 v -1 l 1,-1 v -1 l 1,-1 1,-1 v -1 h 1 v -1 h 1 l 1,-1 v -1 h 1 v -1 l 1,-1 h 1 v -1 h 1 v -1 h 1 v -1 h 1 l 1,-1 v 0 l 1,-1 v 0 l 1,-1 1,-1 v 0 l 1,-1 v 0 l 1,-1 h 1 v -1 h 1 v -1 h 1 1 v -1 h 1 v 0 l 1,-1 h 1 v 0 h 1 v -1 h 1 v -1 l 1,-1 h 1 v -1 h 1 v -1 h 1 1 v -1 h 1 v 0 l 1,-1 h 1 v 0 l 1,-1 v 0 h 1 l 1,-1 v 0 l 1,-1 v 0 l 1,-1 v 0 h 1 l 1,-1 v 0 l 1,-1 v 0 h 1 1 v 0 h 1 v 0 h 1 1 v 0 h 1 v 0 h 1 l 1,-1 v 0 h 1 v 0 h 1 1 v 0 h 1 v -1 h 1 v -1 h 1 1 v -1 h 1 v -1 h 1 1 v 0 l 1,1 v 0 h 1 l 1,1 v 0 h 1 v 1 h 1 l 1,-1 v 0 l 1,-1 v 0 l 1,-1 h 1 v -1 h 1 v -1 h 1 v 0 l 1,1 h 1 v 1 h 1 v 1 h 1 l 1,1 v 0 h 1 v 0 l 1,-1 h 1 v -1 h 1 v 0 l 1,-1 h 1 v -1 h 1 v 1 h 1 v 1 h 1 1 v 1 h 1 v 1 h 1 1 v 0 h 1 v -1 h 1 1 v 0 l 1,-1 v 0 h 1 1 v 0 h 1 v 1 h 1 1 v 0 l 1,1 v 0 h 1 v 0 h 1 l 1,-1 v 0 h 1 v 0 l 1,-1 h 1 v 0 h 1 v 0 h 1 1 v 0 l 1,1 v 0 h 1 1 v 0 l 1,1 v 0 h 1 v -1 h 1 1 v 0 h 1 v 0 h 1 1 v 0 h 1 v 0 l 1,1 h 1 v 0 h 1 v 0 h 1 1 v 0 h 1 v 0 h 1 1 v 0 h 1 v 0 h 1 v 0 h 1 l 1,1 v 0 h 1 v 0 h 1 1 v 0 l 1,1 v 0 h 1 1 v 0 h 1 v 0 l 1,-1 h 1 v 0 h 1 v 0 l 1,1 h 1 v 0 h 1 v 0 h 1 v 1 h 1 1 v 0 h 1 v 0 h 1 1 v 0 h 1 v 0 h 1 1 v -1 l 1,1 v 0 h 1 1 v 1 h 1 v 0 h 1 v 0 l 1,1 h 1 v -1 h 1 v 0 h 1 1 v 0 h 1 v 0 h 1 1 v 0 h 1 v 1 h 1 1 v 0 h 1 v 1 h 1 1 v 0 h 1 v 0 h 1 v 0 h 1 1 v -1 h 1 v 0 l 1,1 h 1 v 0 h 1 v 0 l 1,1 h 1 v 0 h 1 v 0 h 1 1 v 0 h 1 v 0 h 1 v 0 h 1 1 v 0 h 1 v 0 l 1,1 h 1 v 0 h 1 v 0 h 1 l 1,1 v 0 h 1 v 0 h 1 1 v 0 h 1 v 0 h 1 1 v 0 h 1 v 1 h 1 v 0 h 1 1 v 0 h 1 v 0 l 1,1 h 1 v 0 h 1 v 0 h 1 1 v 0 l 1,1 v 0 h 1 1 v 0 h 1 v 0 h 1 v 0 h 1 1 v 0 h 1 v 0 l 1,1 h 1 v 0 h 1 v 0 h 1 l 1,1 v 0 h 1 v 0 h 1 1 v 0 h 1 v 0 h 1 1 v 0 h 1 v 0 h 1 v 0 h 1 1 v 0 l 1,1 v 0 h 1 1 v 0 l 1,1 v 0 h 1 1 v 0 h 1 v 1 h 1 1 v 0 h 1 v 0 l 1,1 h 1 v 0 h 1 v 0 h 1 v 0 h 1 1 v 1 h 1 v 0 h 1 1 v 0 h 1 v 1 h 1 1 v 0 h 1 v 0 h 1 l 1,1 v 0 h 1 v 0 h 1 v 0 h 1 l 1,1 v 0 h 1 v 0 h 1 1 v 0 h 1 v 0 h 1 1 v 0 h 1 v 1 h 1 1 v 0 h 1 v 1 h 1 1 v 0 h 1 v 0 h 1 v 0 h 1 1 v 0 h 1 v 0 h 1 1 v 1 h 1 v 0 h 1 l 1,1 v 0 h 1 v 1 h 1 1 v 0 h 1 v 0 h 1 v 0 l 1,1 h 1 v 0 h 1 v 0 h 1 1 v 0 l 1,1 v 0 h 1 1 v 1 h 1 v 0 h 1 1 v 0 h 1 v 0 h 1 1 v 0 h 1 v 0 h 1 v 1 h 1 1 v 0 h 1 v 1 h 1 1 v 0 h 1 v 1 h 1 1 v 0 h 1 v 0 h 1 1 v 0 h 1 v 0 h 1 1 v 0 h 1 v 1 h 1 v 0 h 1 1 v 1 h 1 v 0 h 1 1 v 0 h 1 v 1 h 1 1 v 0 h 1 v 0 l 1,1 h 1 v 0 h 1 v 1 h 1 v 0 h 1 l 1,1 v 0 h 1 v 0 h 1 1 v 0 h 1 v 0 h 1 1 v 0 h 1 v 0 l 1,1 h 1 v 0 h 1 v 1 h 1 1 v 1 h 1 v 0 h 1 v 0 h 1 1 v 0 h 1 v 0 h 1 1 v 1 h 1 v 0 h 1 l 1,1 v 0 h 1 v 0 l 1,1 h 1 v 0 h 1 v 0 h 1 v 0 l 1,1 h 1 v 0 h 1 v 0 h 1 1 v 0 h 1 v 1 h 1 1 v 0 h 1 v 1 h 1 1 v 0 h 1 v 1 h 1 1 v 0 h 1 v 0 h 1 v 0 l 1,1 h 1 v 0 h 1 v 0 l 1,1 h 1 v 0 h 1 v 0 h 1 l 1,1 v 0 h 1 v 0 h 1 1 v 0 h 1 v 0 h 1 1 v 0 l 1,1 v 0 h 1 v 1 h 1 1 v 0 l 1,1 v 0 h 1 1"
         stroke="#ed7d31"
         stroke-width="2"
         stroke-linecap="round"
         stroke-linejoin="round"
         stroke-miterlimit="10"
         fill="none"
         id="path167" />
    </g>
    <g
       id="g173"
       transform="matrix(0.26458333,0,0,0.26458333,-179.98219,159.70343)"
       clip-path="url(#clipPath7)">
      <path
         d="m 422,246 v 1 l 1,1 v 2 l 1,1 1,2 v 1 l 1,1 v 2 l 1,1 1,1 v 1 l 1,1 v 1 l 1,1 1,1 v 0 l 1,1 v 1 h 1 v 0 l 1,-1 h 1 v 0 l 1,-1 v 0 h 1 l 1,-1 v 0 l 1,1 v 0 h 1 l 1,1 v 0 h 1 v 0 l 1,1 h 1 v 0 h 1 v -1 h 1 v 0 h 1 1 v 0 h 1 v 0 h 1 1 v 0 h 1 v 0 h 1 1 v 0 h 1 v 0 h 1 1 v 0 h 1 v 0 h 1 1 v -1 h 1 v -1 h 1 v 0 l 1,-1 h 1 v -1 h 1 v -1 h 1 l 1,-1 v 0 l 1,-1 v 0 l 1,-1 h 1 v -1 l 1,1 v 2 l 1,1 1,1 v 1 l 1,1 v 1 l 1,1 v 1 l 1,-1 1,-3 v -2 l 1,-2 v -2 l 1,-2 1,-2 v -2 l 1,-2 v 0 l 1,2 1,2 v 1 l 1,2 v 2 l 1,2 1,1 v 2 h 1 v -1 l 1,-2 1,-1 v -2 l 1,-2 v -1 l 1,-2 v -1 l 1,-1 1,1 v 0 l 1,1 v 1 l 1,1 h 1 v 1 l 1,1 v 1 l 1,-2 1,-2 v -2 l 1,-2 v -1 l 1,-2 1,-2 v -2 l 1,-1 v 0 l 1,1 v 0 l 1,1 1,1 v 1 h 1 v 1 l 1,1 1,-1 v -3 l 1,-2 v -3 l 1,-3 1,-2 v -3 l 1,-2 v -3 l 1,-2 1,2 v 1 l 1,1 v 2 l 1,1 1,1 v 2 l 1,1 v 1 l 1,-1 v -2 l 1,-2 1,-2 v -2 l 1,-2 v -2 l 1,-2 1,-1 v -1 h 1 v 0 h 1 1 v 0 l 1,1 v 0 h 1 1 v -2 l 1,-1 v -1 l 1,-2 1,-1 v -1 l 1,-2 v -1 l 1,-1 v 0 h 1 1 v 0 h 1 v 0 h 1 1 v 0 l 1,-1 v -1 l 1,-1 1,-2 v -1 l 1,-1 v -1 l 1,-2 1,-1 v -1 l 1,-1 v -1 h 1 v -1 l 1,-1 1,-1 v 0 l 1,-1 v -1 l 1,-1 1,-2 v -1 l 1,-1 v -2 l 1,-1 1,-2 v -1 l 1,-2 v -1 l 1,1 h 1 v 0 h 1 v 0 h 1 l 1,1 v 0 h 1 v -2 l 1,-2 v -2 l 1,-2 1,-2 v -2 l 1,-2 v -2 l 1,-3 1,-1 v 1 h 1 v 1 l 1,1 h 1 v 1 h 1 v 1 l 1,1 1,-2 v -2 l 1,-2 v -1 l 1,-2 v -2 l 1,-2 1,-2 v -2 l 1,-1 v -1 h 1 l 1,-1 v 0 l 1,-1 v 0 l 1,-1 h 1 v -1 l 1,-1 v 0 l 1,-1 1,-1 v -1 l 1,-1 v 0 l 1,-1 1,-1 v -1 l 1,-1 v -1 l 1,-1 v -1 l 1,-1 1,-1 v -1 l 1,-1 v -1 h 1 l 1,-1 v 0 h 1 v 0 l 1,-1 h 1 v 0 h 1 v -1 l 1,-1 1,-2 v -1 l 1,-2 v -1 l 1,-2 1,-1 v -2 l 1,-1 v -1 l 1,-1 v 0 h 1 l 1,-1 v 0 l 1,-1 v 0 l 1,-1 h 1 v -1 l 1,-1 v -1 h 1 l 1,-1 v -1 l 1,-1 v -1 l 1,-1 1,-1 v 0 l 1,-1 v 0 h 1 v -1 h 1 l 1,-1 v 0 l 1,-1 v 0 l 1,-1 1,-1 v -1 l 1,-1 v -1 h 1 l 1,-1 v -1 l 1,-1 v 0 l 1,1 h 1 v 0 h 1 v 1 h 1 1 v 0 h 1 v -1 l 1,-1 v -1 l 1,-1 1,-2 v -1 l 1,-1 v -1 l 1,-1 1,-1 v 0 h 1 v 0 h 1 l 1,-1 v 0 h 1 v 0 h 1 1 v 0 h 1 v -1 h 1 v 0 h 1 1 v 0 h 1 v -1 h 1 1 v -1 h 1 v 0 l 1,-1 h 1 v -1 h 1 v 0 h 1 1 v 0 l 1,1 v 0 h 1 1 v 0 h 1 v 0 l 1,-1 v 0 h 1 1 v -1 h 1 v 0 h 1 1 v 0 h 1 v 0 h 1 1 v 0 h 1 v 0 h 1 1 v -1 h 1 v 0 h 1 1 v 0 h 1 v -1 h 1 v 0 h 1 1 v 1 h 1 v 0 h 1 1 v 0 h 1 v 0 h 1 l 1,-1 v 0 h 1 v 0 h 1 1 v 0 h 1 v 0 h 1 v 0 h 1 1 v 0 h 1 v 0 h 1 1 v 0 h 1 v 0 h 1 1 v 0 h 1 v 0 h 1 1 v 0 h 1 v 0 h 1 1 v 0 h 1 v 0 h 1 v 0 h 1 1 v 0 h 1 v 0 h 1 1 v 0 l 1,-1 v 1 h 1 1 v 0 h 1 v 0 h 1 1 v 0 h 1 v 0 h 1 v 0 h 1 1 v 0 h 1 v 0 h 1 1 v 0 h 1 v 0 h 1 1 v 0 h 1 v 0 h 1 1 v 0 h 1 v 0 h 1 1 v 0 h 1 v 0 h 1 v 0 h 1 l 1,1 v 0 h 1 v 0 h 1 1 v 0 h 1 v 0 h 1 1 v 0 h 1 v 0 h 1 1 v 0 h 1 v 0 h 1 1 v 0 h 1 v 0 h 1 v 0 l 1,1 h 1 v 0 h 1 v 0 h 1 1 v 0 h 1 v 0 h 1 1 v 0 h 1 v 0 h 1 1 v 0 h 1 v 1 h 1 v 0 h 1 1 v 0 h 1 v 0 h 1 1 v 1 h 1 v 0 h 1 1 v 0 h 1 v 0 h 1 1 v 0 h 1 v 0 h 1 1 v 0 h 1 v 1 h 1 v 0 h 1 1 v 0 h 1 v 0 h 1 1 v 0 h 1 v 1 h 1 1 v 0 h 1 v 0 h 1 1 v 0 h 1 v 0 h 1 v 0 h 1 1 v 0 h 1 v 1 h 1 1 v 0 h 1 v 1 h 1 1 v 0 h 1 v 0 h 1 1 v 0 h 1 v 0 h 1 l 1,1 v 0 h 1 v 0 h 1 v 0 h 1 1 v 0 h 1 v 0 h 1 1 v 0 h 1 v 1 h 1 1 v 0 h 1 v 1 h 1 1 v 0 l 1,-1 v 0 h 1 v 0 h 1 l 1,-1 v 0 h 1 v 0 h 1 l 1,1 v 0 h 1 v 1 h 1 l 1,1 v 0 h 1 v 1 h 1 1 v 0 h 1 v 0 h 1 1 v 0 h 1 v 0 h 1 v 0 l 1,1 h 1 v 0 h 1 v 0 l 1,1 h 1 v 0 h 1 v 0 h 1 1 v 0 l 1,1 v 0 h 1 1 v 0 h 1 v 0 h 1 1 v 0 l 1,1 v 0 h 1 v 0 h 1 1 v 1 h 1 v 0 h 1 1 v 0 h 1 v 0 h 1 1 v 1 h 1 v 0 h 1 1 v 0 l 1,1 v 0 h 1 v 0 h 1 1 v 0 h 1 v 0 h 1 1 v 0 h 1 v 0 h 1 l 1,1 v 0 h 1 v 0 l 1,1 h 1 v 0 l 1,1 v 0 h 1 l 1,1 v 0 h 1 v 0 h 1 v 0 h 1 1 v 0 h 1 v 0 h 1 1 v 0 h 1 v 1 h 1 1 v 0 h 1 v 0 l 1,1 h 1 v 0 h 1 v 0 h 1 v 0 h 1 1 v 0 l 1,1 v 0 h 1 1 v 0 h 1 v 1 h 1 1 v 0 h 1 v 1 h 1 1 v 0 h 1 v 0 h 1 1 v 1 h 1 v 0 h 1 v 0 h 1 1 v 0 h 1 v 1 h 1 1 v 0 h 1 v 0 h 1 1 v 1 h 1 v 0 h 1 l 1,1 v 0 h 1 v 0 h 1 1 v 0 h 1 v 0 l 1,1 v 0 h 1 1 v 0 h 1 v 0 h 1 l 1,1 v 0 h 1 v 0 h 1 l 1,1 v 0 h 1 v 0 h 1 1 v 1 h 1 v 0 h 1 v 0 h 1 1 v 0 h 1 v 1 h 1 1 v 0 l 1,1 v 0 h 1 1 v 0 l 1,1 v 0 h 1 1 v 0 h 1 v 0 h 1 1 v 0 h 1 v 0 h 1 v 0 l 1,1 h 1 v 0 l 1,1 v 0 h 1 l 1,1 v 0 h 1 v 0 h 1 1 v 0 h 1 v 0 l 1,-1 h 1 v 0 l 1,1 v 0 h 1 v 1 h 1 l 1,1 v 0 h 1 v 1 h 1 l 1,1 v 0 l 1,-1 v 0 h 1 1 v 0 h 1 v 0 h 1 1 v 0 h 1 v 1 h 1 1 v 1 h 1 v 0 l 1,1 v 0 l 1,1 h 1 v 0 h 1 v 0 h 1 1 v 0 h 1 v -1 h 1 1 v 1 h 1 v 0 l 1,1 h 1 v 0 h 1 v 1 h 1 1 v 1 h 1 v 0 h 1 v 0 h 1 1 v 0 h 1 v 0 h 1 1"
         stroke="#ed7d31"
         stroke-width="2"
         stroke-linecap="round"
         stroke-linejoin="round"
         stroke-miterlimit="10"
         stroke-dasharray="4, 4"
         fill="none"
         id="path171" />
    </g>
    <g
       id="g177"
       transform="matrix(0.26458333,0,0,0.26458333,-179.98219,159.70343)"
       clip-path="url(#clipPath6)">
      <path
         d="m 422,249 v 0 h 1 v 0 h 1 1 v 0 h 1 v 0 h 1 1 v 0 h 1 v 0 h 1 1 v 0 h 1 v 0 h 1 v 0 h 1 1 v 0 h 1 v 0 h 1 1 v 0 h 1 v 0 h 1 1 v 0 h 1 v 0 h 1 1 v 0 h 1 v 0 h 1 v 0 h 1 1 v 0 h 1 v 0 h 1 1 v 0 h 1 v 0 h 1 1 v 0 l 1,-1 v 0 h 1 1 v 0 h 1 v 0 h 1 1 v -1 h 1 v 0 h 1 v 0 h 1 l 1,-1 v 0 h 1 v 0 h 1 1 v -1 h 1 v 0 h 1 1 v 0 h 1 v -1 h 1 1 v 0 h 1 v 0 h 1 v 0 l 1,-1 h 1 v 0 h 1 v 0 h 1 l 1,-1 v 0 h 1 v 0 l 1,-1 h 1 v -1 h 1 v 0 l 1,-1 h 1 v -1 h 1 v 0 l 1,-1 h 1 v 0 h 1 v -1 h 1 v 0 l 1,-1 h 1 v 0 l 1,-1 v 0 h 1 1 v 0 l 1,-1 v 0 h 1 1 v -1 h 1 v 0 l 1,-1 h 1 v -1 h 1 v 0 l 1,-1 v 0 h 1 1 v -1 h 1 v -1 h 1 l 1,-1 v -1 h 1 v -1 l 1,-1 h 1 v -1 l 1,-1 v 0 l 1,-1 1,-1 v 0 l 1,-1 v -1 h 1 l 1,-1 v -1 h 1 v -1 l 1,-1 v -1 h 1 l 1,-1 v -1 h 1 v -1 l 1,-1 h 1 v -1 h 1 v 0 l 1,-1 h 1 v 0 l 1,-1 v 0 h 1 l 1,-1 v 0 l 1,-1 v 0 l 1,-1 1,-1 v 0 l 1,-1 v -1 h 1 v -1 l 1,-1 h 1 v -1 l 1,-1 v 0 l 1,-1 h 1 v -1 l 1,-1 v 0 l 1,-1 1,-1 v -1 h 1 v -1 l 1,-1 h 1 v -1 l 1,-1 v 0 l 1,-1 v -1 h 1 l 1,-1 v -1 h 1 v -1 l 1,-1 1,-1 v -1 h 1 v -1 l 1,-1 1,-1 v -1 h 1 v -1 l 1,-1 h 1 v -1 l 1,-1 v -1 h 1 l 1,-1 v -1 h 1 v -1 l 1,-1 v 0 l 1,-1 1,-1 v -1 l 1,-1 v -1 h 1 l 1,-1 v -1 l 1,-1 v -1 h 1 l 1,-1 v -1 l 1,-1 v 0 l 1,-1 1,-1 v -1 l 1,-1 v -1 h 1 v -1 h 1 l 1,-1 v 0 l 1,-1 v -1 h 1 l 1,-1 v -1 h 1 v -1 l 1,-1 h 1 v -1 l 1,-1 v -1 h 1 l 1,-1 v -1 l 1,-1 v 0 l 1,-1 1,-1 v -1 h 1 v -1 l 1,-1 v -1 h 1 l 1,-1 v -1 l 1,-1 v 0 l 1,-1 1,-1 v -1 h 1 v -1 l 1,-1 1,-1 v -1 l 1,-1 v 0 l 1,-1 1,-1 v -1 l 1,-1 v -1 h 1 l 1,-1 v -1 l 1,-1 v -1 l 1,-1 v -1 l 1,-1 h 1 v -1 l 1,-1 v -1 h 1 l 1,-1 v -1 h 1 v -1 l 1,-1 h 1 v -1 h 1 v -1 l 1,-1 h 1 v -1 h 1 v -1 h 1 v -1 h 1 l 1,-1 v 0 l 1,-1 v 0 l 1,-1 h 1 v 0 l 1,-1 v 0 l 1,-1 h 1 v -1 h 1 v -1 h 1 l 1,-1 v 0 l 1,-1 v 0 h 1 l 1,-1 v 0 h 1 v -1 h 1 v -1 h 1 l 1,-1 v 0 l 1,-1 v 0 h 1 l 1,-1 v 0 h 1 v -1 h 1 l 1,-1 v 0 h 1 v -1 h 1 l 1,-1 v 0 l 1,-1 v 0 l 1,-1 v 0 l 1,-1 h 1 v 0 h 1 v 0 h 1 l 1,-1 v 0 h 1 v 0 h 1 1 v -1 h 1 v 0 h 1 l 1,-1 v 0 h 1 v 0 h 1 l 1,-1 v 0 h 1 v 0 l 1,-1 v 0 h 1 1 v -1 h 1 v 0 h 1 1 v 0 h 1 v 0 h 1 l 1,-1 v 0 h 1 v 0 h 1 1 v 0 h 1 v -1 h 1 1 v 0 h 1 v 0 h 1 v 0 h 1 1 v 0 h 1 v 0 h 1 1 v 0 h 1 v 0 l 1,-1 h 1 v 0 h 1 v 0 h 1 1 v 0 h 1 v 0 h 1 v 0 h 1 1 v 0 h 1 v 0 h 1 1 v 0 h 1 v 0 h 1 1 v 0 h 1 v 0 h 1 1 v 0 h 1 v 0 h 1 1 v 0 h 1 v 0 h 1 v 0 h 1 1 v 0 h 1 v 0 h 1 1 v 0 h 1 v 0 h 1 1 v 0 h 1 v 0 h 1 1 v 0 h 1 v 0 h 1 v 0 h 1 1 v 0 h 1 v 0 h 1 1 v 0 h 1 v 0 h 1 1 v 1 h 1 v 0 h 1 1 v 0 h 1 v 0 h 1 1 v 0 h 1 v 0 h 1 v 0 h 1 1 v 0 h 1 v 0 h 1 l 1,1 v 0 h 1 v 0 h 1 1 v 0 h 1 v 0 h 1 1 v 0 h 1 v 0 h 1 1 v 0 h 1 v 0 h 1 v 0 h 1 l 1,1 v 0 h 1 v 0 h 1 1 v 0 h 1 v 0 h 1 1 v 0 h 1 v 0 l 1,1 h 1 v 0 h 1 v 0 h 1 v 0 h 1 1 v 0 h 1 v 0 h 1 1 v 0 h 1 v 1 h 1 1 v 0 h 1 v 0 h 1 1 v 0 h 1 v 0 h 1 l 1,1 v 0 h 1 v 0 h 1 v 0 h 1 1 v 0 h 1 v 0 h 1 1 v 0 h 1 v 1 h 1 1 v 0 h 1 v 0 h 1 1 v 0 h 1 v 0 h 1 v 1 h 1 1 v 0 h 1 v 0 h 1 1 v 0 h 1 v 0 l 1,1 h 1 v 0 h 1 v 0 h 1 1 v 0 h 1 v 1 h 1 1 v 0 h 1 v 0 h 1 v 0 h 1 1 v 1 h 1 v 0 h 1 1 v 0 h 1 v 0 h 1 1 v 0 h 1 v 1 h 1 1 v 0 h 1 v 0 h 1 v 0 h 1 1 v 0 l 1,1 v 0 h 1 1 v 0 h 1 v 0 h 1 1 v 1 h 1 v 0 h 1 1 v 0 h 1 v 0 h 1 1 v 0 h 1 v 0 l 1,1 v 0 h 1 1 v 0 h 1 v 1 h 1 1 v 0 h 1 v 0 h 1 1 v 0 l 1,1 v 0 h 1 1 v 0 h 1 v 0 h 1 l 1,1 v 0 h 1 v 0 h 1 v 0 h 1 l 1,1 v 0 h 1 v 0 h 1 1 v 0 l 1,1 v 0 h 1 1 v 0 h 1 v 0 h 1 l 1,1 v 0 h 1 v 0 h 1 v 0 h 1 1 v 1 h 1 v 0 h 1 1 v 0 h 1 v 0 h 1 1 v 0 l 1,1 v 0 h 1 1 v 0 h 1 v 0 l 1,1 h 1 v 0 h 1 v 0 h 1 v 0 h 1 1 v 0 l 1,1 v 0 h 1 1 v 0 h 1 v 1 h 1 1 v 0 h 1 v 0 l 1,1 h 1 v 0 h 1 v 0 h 1 v 0 h 1 l 1,1 v 0 h 1 v 0 h 1 1 v 1 h 1 v 0 h 1 1 v 0 l 1,1 v 0 h 1 1 v 0 h 1 v 0 h 1 l 1,1 v 0 h 1 v 0 h 1 v 0 h 1 l 1,1 v 0 h 1 v 0 h 1 1 v 0 h 1 v 0 h 1 1 v 0 h 1 v 0 l 1,1 h 1 v 0 h 1 v 0 h 1 1 v 1 h 1 v 0 h 1 v 0 l 1,1 h 1 v 0 h 1 v 0 h 1 1 v 0 h 1 v 1 h 1 1 v 0 h 1 v 0 l 1,1 h 1 v 0 h 1 v 0 l 1,1 v 0 h 1 1 v 0 h 1 v 0 h 1 1 v 1 h 1 v 0 h 1 1 v 0 l 1,1 v 0 h 1 1 v 0 h 1 v 1 h 1 1 v 0 h 1 v 0 h 1 v 1 h 1 1 v 0 h 1 v 0 h 1 l 1,1 v 0 h 1 v 0 h 1 1 v 1 h 1 v 0 h 1 1 v 0 l 1,1 v 0 h 1 v 0 h 1 1 v 0 l 1,1 v 0 h 1 1 v 0 h 1 v 1 h 1 1 v 0 h 1 v 0 l 1,1 h 1 v 0 h 1 v 0 h 1 l 1,1 v 0 h 1 v 0 h 1 v 0 h 1 l 1,1 v 0 h 1 v 0 h 1 1 v 1 h 1 v 0 h 1 1 v 0 h 1 v 0 l 1,1 h 1 v 0 h 1 v 0 h 1 1 v 1 h 1 v 0 h 1 v 0 h 1 l 1,1 v 0 h 1 v 0 h 1 1"
         stroke="#4472c4"
         stroke-width="2"
         stroke-linecap="round"
         stroke-linejoin="round"
         stroke-miterlimit="10"
         fill="none"
         id="path175" />
    </g>
    <g
       id="g181"
       transform="matrix(0.26458333,0,0,0.26458333,-179.98219,159.70343)"
       clip-path="url(#clipPath5)">
      <path
         d="m 422,233 v 1 h 1 v 0 l 1,1 1,1 v 0 l 1,1 v 1 l 1,1 1,1 v 1 l 1,1 v 0 l 1,1 1,1 v 1 h 1 v 1 h 1 v 1 h 1 1 v 0 h 1 v 0 h 1 1 v 1 h 1 v 0 h 1 1 v 0 h 1 v 0 h 1 1 v 0 h 1 v 0 l 1,1 v 0 h 1 1 v 0 h 1 v 0 h 1 1 v 0 l 1,-1 v 0 h 1 l 1,-1 v 0 h 1 v 1 h 1 1 v 0 h 1 v 0 h 1 1 v -1 h 1 v 0 l 1,-1 v 0 h 1 1 v -1 h 1 v 0 h 1 l 1,-1 v 0 h 1 v -1 h 1 l 1,-1 v -1 l 1,1 v 0 h 1 1 v 0 h 1 v 0 h 1 v 0 h 1 1 v 0 h 1 v 0 h 1 1 v 0 l 1,-1 v 0 l 1,-1 h 1 v -1 h 1 v -1 h 1 l 1,-1 v -1 h 1 v 0 h 1 1 v 0 h 1 v 0 h 1 v 0 h 1 1 v 0 h 1 v 0 h 1 l 1,-1 v -1 l 1,-1 v -1 h 1 l 1,-1 v 0 h 1 v -1 h 1 l 1,-1 v -1 l 1,-1 v 0 l 1,-1 v 0 h 1 1 v -1 h 1 v 0 h 1 1 v 0 h 1 v 0 h 1 l 1,-1 v 0 l 1,-1 v -1 l 1,-1 1,-2 v -1 l 1,-1 v -1 l 1,-1 1,-1 v -1 h 1 v 0 l 1,-1 v -1 h 1 l 1,-1 v 0 l 1,-1 v 0 h 1 l 1,-1 v 0 h 1 v 0 l 1,-1 h 1 v -1 l 1,-1 v -1 l 1,-2 1,-1 v 0 l 1,-1 v 0 l 1,-1 h 1 v -1 l 1,-1 v 0 l 1,-1 v -1 l 1,-1 1,-1 v 0 l 1,-1 v -1 h 1 l 1,-1 v 0 l 1,-1 v 0 h 1 l 1,-1 v 0 h 1 v -1 h 1 l 1,-1 v 0 l 1,-1 v -1 l 1,-1 v -1 l 1,-1 h 1 v -1 l 1,-1 v -1 h 1 1 v -1 l 1,-1 v 0 l 1,-1 1,-1 v -1 l 1,-2 v -1 l 1,-1 1,-1 v -1 l 1,-1 v 0 l 1,-1 1,-1 v -1 l 1,-1 v -1 h 1 v -1 l 1,-1 h 1 v -1 l 1,-1 v 0 l 1,-1 h 1 v -1 h 1 v -1 l 1,-1 h 1 v -1 h 1 v -1 h 1 l 1,-1 v -1 h 1 v -1 l 1,-1 v 0 l 1,-1 1,-1 v -1 l 1,-1 v -1 l 1,-1 1,-1 v -1 l 1,-1 v -1 l 1,-1 h 1 v -1 l 1,-1 v 0 l 1,-1 1,-1 v 0 l 1,-1 v 0 l 1,-1 1,-1 v -1 h 1 v -1 l 1,-1 v 0 l 1,-1 1,-1 v 0 l 1,-1 v 0 l 1,-1 1,-1 v 0 l 1,-1 v -1 h 1 l 1,-1 v -1 l 1,-1 v -1 l 1,-1 1,-1 v -1 h 1 v -1 l 1,-1 h 1 v -1 h 1 v -1 h 1 v -1 l 1,-1 1,-1 v 0 l 1,-1 v 0 l 1,-1 h 1 v -1 h 1 v -1 l 1,-1 h 1 v -1 l 1,-1 v 0 l 1,-1 h 1 v -1 l 1,-1 v -1 l 1,-1 v 0 l 1,-1 h 1 v -1 h 1 v 0 l 1,-1 h 1 v -1 h 1 v -1 h 1 l 1,-1 v 0 l 1,-1 v 0 l 1,-1 h 1 v 0 h 1 v -1 h 1 1 v 0 l 1,-1 v 0 l 1,-1 v 0 h 1 l 1,-1 v 0 l 1,-1 v 0 h 1 l 1,-1 v -1 l 1,-1 v 0 l 1,-1 1,-1 v 0 h 1 v 0 h 1 l 1,-1 v 0 h 1 v 0 l 1,-1 v 0 h 1 1 v 0 l 1,-1 v 0 h 1 1 v 0 l 1,-1 v 0 h 1 1 v -1 h 1 v 0 h 1 l 1,-1 v 0 h 1 v 0 h 1 1 v 0 l 1,-1 v 0 h 1 v 0 h 1 1 v -1 h 1 v 0 h 1 1 v -1 h 1 v 0 h 1 l 1,-1 v 0 h 1 v 0 h 1 1 v 0 h 1 v 0 h 1 1 v 0 h 1 v -1 h 1 v 0 h 1 1 v 0 h 1 v 0 l 1,-1 h 1 v 0 h 1 v 0 h 1 l 1,-1 v 0 h 1 v 0 h 1 1 v 0 h 1 v 0 h 1 v 0 h 1 1 v 0 h 1 v 0 h 1 1 v -1 h 1 v 0 h 1 1 v 0 h 1 v 0 h 1 1 v 0 h 1 v 0 h 1 1 v 0 h 1 v 0 h 1 v 0 h 1 1 v 0 h 1 v 0 h 1 1 v 0 h 1 v 0 h 1 1 v 0 h 1 v 0 h 1 1 v 0 h 1 v 0 h 1 v 0 h 1 1 v 0 h 1 v 0 h 1 1 v 0 h 1 v 0 h 1 1 v 0 h 1 v 0 h 1 1 v 0 h 1 v 0 h 1 l 1,1 v 0 h 1 v 0 h 1 v 0 h 1 1 v 0 h 1 v 0 h 1 1 v 0 h 1 v 0 h 1 1 v 0 h 1 v 0 h 1 1 v 0 h 1 v 0 l 1,1 h 1 v 0 h 1 v 0 h 1 v 0 h 1 1 v 0 h 1 v 0 h 1 1 v 0 h 1 v 0 h 1 1 v 0 h 1 v 0 l 1,1 h 1 v 0 h 1 v 0 h 1 v 0 h 1 1 v 0 h 1 v 0 l 1,1 h 1 v 0 h 1 v 0 h 1 1 v 0 h 1 v 0 h 1 1 v 0 h 1 v 1 h 1 1 v 0 h 1 v 0 h 1 v 0 h 1 1 v 1 h 1 v 0 h 1 1 v 0 h 1 v 0 h 1 1 v 0 h 1 v 0 h 1 1 v 1 h 1 v 0 h 1 v 0 h 1 1 v 0 h 1 v 0 h 1 1 v 0 l 1,1 v 0 h 1 1 v 0 h 1 v 0 h 1 1 v 0 l 1,1 v 0 h 1 1 v 0 h 1 v 0 h 1 v 0 h 1 1 v 0 h 1 v 0 l 1,1 h 1 v 0 h 1 v 0 h 1 1 v 1 h 1 v 0 h 1 1 v 0 h 1 v 0 h 1 v 0 h 1 1 v 0 h 1 v 0 h 1 1 v 0 h 1 v 0 h 1 l 1,1 v 0 h 1 v 0 h 1 l 1,1 v 0 h 1 v 0 h 1 1 v 1 h 1 v 0 h 1 v 0 h 1 1 v 0 h 1 v 0 h 1 l 1,1 v 0 h 1 v 0 h 1 1 v 0 l 1,1 v 0 h 1 1 v 0 h 1 v 0 l 1,1 h 1 v 0 h 1 v 0 h 1 v 0 h 1 1 v 1 h 1 v 0 h 1 1 v 0 h 1 v 1 h 1 1 v 0 h 1 v 0 h 1 1 v 1 h 1 v 0 h 1 v 0 h 1 1 v 1 h 1 v 0 h 1 1 v 0 h 1 v 0 l 1,1 h 1 v 0 h 1 v 0 h 1 1 v 0 h 1 v 0 l 1,1 h 1 v 0 h 1 v 0 h 1 v 0 h 1 l 1,1 v 0 h 1 v 0 h 1 1 v 0 l 1,1 v 0 h 1 1 v 0 h 1 v 0 l 1,1 h 1 v 0 h 1 v 0 h 1 v 0 h 1 l 1,1 v 0 h 1 v 0 h 1 1 v 0 h 1 v 1 h 1 1 v 0 h 1 v 0 h 1 l 1,1 v 0 h 1 v 0 h 1 1 v 0 l 1,1 v 0 h 1 v 0 h 1 1 v 0 l 1,1 v 0 h 1 1 v 0 h 1 v 0 l 1,1 h 1 v 0 h 1 v 0 h 1 1 v 0 h 1 v 1 h 1 1 v 0 h 1 v 0 h 1 v 1 h 1 1 v 0 h 1 v 0 h 1 l 1,1 v 0 h 1 v 0 h 1 l 1,1 v 0 h 1 v 0 h 1 1 v 0 h 1 v 0 l 1,1 v 0 h 1 1 v 0 h 1 v 0 h 1 1 v 1 h 1 v 0 h 1 1 v 0 l 1,1 v 0 h 1 1 v 0 h 1 v 0 l 1,1 h 1 v 0 h 1 v 0 h 1 v 0 l 1,1 h 1 v 0 h 1 v 0 h 1 l 1,1 v 0 h 1 v 0 h 1 1 v 1 h 1 v 0 h 1 1 v 0 l 1,1 v 0 h 1 v 0 h 1 1 v 0 l 1,1 v 0 h 1 1 v 0 h 1 v 1 h 1 1 v 0 h 1 v 0 l 1,1 h 1 v 0 h 1 v 0 h 1 1 v 1 h 1 v 0 h 1 v 0 h 1 1 v 1 h 1 v 0 h 1 1 v 0 l 1,1 v 0 h 1 1 v 0 h 1 v 1 h 1 1 v 0 h 1 v 0 h 1 l 1,1 v 0 h 1 v 0 h 1 v 0 l 1,1 h 1 v 0 h 1 v 0 h 1 1"
         stroke="#4472c4"
         stroke-width="2"
         stroke-linecap="round"
         stroke-linejoin="round"
         stroke-miterlimit="10"
         stroke-dasharray="4, 4"
         fill="none"
         id="path179" />
    </g>
    <g
       id="g185"
       transform="matrix(0.26458333,0,0,0.26458333,-179.98219,159.70343)">
      <text
         font-family="Arial, Arial_MSFontService, sans-serif"
         font-weight="400"
         font-size="12px"
         transform="translate(390.629,318)"
         id="text183">-0.2</text>
    </g>
    <g
       id="g189"
       transform="matrix(0.26458333,0,0,0.26458333,-179.98219,159.70343)">
      <text
         font-family="Arial, Arial_MSFontService, sans-serif"
         font-weight="400"
         font-size="12px"
         transform="translate(390.629,268)"
         id="text187">-0.2</text>
    </g>
    <g
       id="g193"
       transform="matrix(0.26458333,0,0,0.26458333,-179.98219,159.70343)">
      <text
         font-family="Arial, Arial_MSFontService, sans-serif"
         font-weight="400"
         font-size="12px"
         transform="translate(390.629,218)"
         id="text191">-0.1</text>
    </g>
    <g
       id="g197"
       transform="matrix(0.26458333,0,0,0.26458333,-179.98219,159.70343)">
      <text
         font-family="Arial, Arial_MSFontService, sans-serif"
         font-weight="400"
         font-size="12px"
         transform="translate(390.629,168)"
         id="text195">-0.1</text>
    </g>
    <g
       id="g201"
       transform="matrix(0.26458333,0,0,0.26458333,-179.98219,159.70343)">
      <text
         font-family="Arial, Arial_MSFontService, sans-serif"
         font-weight="400"
         font-size="12px"
         transform="translate(394.622,119)"
         id="text199">0.0</text>
    </g>
    <g
       id="g205"
       transform="matrix(0.26458333,0,0,0.26458333,-179.98219,159.70343)">
      <text
         font-family="Arial, Arial_MSFontService, sans-serif"
         font-weight="400"
         font-size="12px"
         transform="translate(394.622,69)"
         id="text203">0.1</text>
    </g>
    <g
       id="g209"
       transform="matrix(0.26458333,0,0,0.26458333,-179.98219,159.70343)">
      <text
         font-family="Arial, Arial_MSFontService, sans-serif"
         font-weight="400"
         font-size="12px"
         transform="translate(394.622,19)"
         id="text207">0.1</text>
    </g>
    <g
       id="g213"
       transform="matrix(0.26458333,0,0,0.26458333,-179.98219,159.70343)">
      <text
         font-family="Arial, Arial_MSFontService, sans-serif"
         font-weight="400"
         font-size="12px"
         transform="translate(418.286,133)"
         id="text211">0</text>
    </g>
    <g
       id="g217"
       transform="matrix(0.26458333,0,0,0.26458333,-179.98219,159.70343)">
      <text
         font-family="Arial, Arial_MSFontService, sans-serif"
         font-weight="400"
         font-size="12px"
         transform="translate(522.582,133)"
         id="text215">10</text>
    </g>
    <g
       id="g221"
       transform="matrix(0.26458333,0,0,0.26458333,-179.98219,159.70343)">
      <text
         font-family="Arial, Arial_MSFontService, sans-serif"
         font-weight="400"
         font-size="12px"
         transform="translate(630.215,133)"
         id="text219">20</text>
    </g>
    <g
       id="g225"
       transform="matrix(0.26458333,0,0,0.26458333,-179.98219,159.70343)">
      <text
         font-family="Arial, Arial_MSFontService, sans-serif"
         font-weight="400"
         font-size="12px"
         transform="translate(737.848,133)"
         id="text223">30</text>
    </g>
    <g
       id="g229"
       transform="matrix(0.26458333,0,0,0.26458333,-179.98219,159.70343)">
      <text
         font-family="Arial, Arial_MSFontService, sans-serif"
         font-weight="400"
         font-size="12px"
         transform="translate(845.481,133)"
         id="text227">40</text>
    </g>
    <g
       id="g233"
       transform="matrix(0.26458333,0,0,0.26458333,-179.98219,159.70343)">
      <text
         font-family="Arial, Arial_MSFontService, sans-serif"
         font-weight="400"
         font-size="12px"
         transform="translate(953.114,133)"
         id="text231">50</text>
    </g>
    <g
       id="g237"
       transform="matrix(0.26458333,0,0,0.26458333,-179.98219,159.70343)">
      <text
         font-family="Arial, Arial_MSFontService, sans-serif"
         font-weight="400"
         font-size="13px"
         transform="rotate(-90,286.648,-97.648)"
         id="text235">Pressão</text>
    </g>
    <g
       id="g241"
       transform="matrix(0.26458333,0,0,0.26458333,-179.98219,159.70343)">
      <text
         font-family="'Cambria Math', 'Cambria Math_MSFontService', sans-serif"
         font-style="oblique"
         font-weight="400"
         font-size="13px"
         transform="translate(711.93,329)"
         id="text239">x</text>
    </g>
    <g
       id="g245"
       transform="matrix(0.26458333,0,0,0.26458333,-179.98219,159.70343)">
      <text
         font-family="'Cambria Math', 'Cambria Math_MSFontService', sans-serif"
         font-weight="400"
         font-size="9px"
         transform="translate(718.377,331)"
         id="text243">1</text>
    </g>
    <g
       id="g249"
       transform="matrix(0.26458333,0,0,0.26458333,-179.98219,159.70343)"
       clip-path="url(#clipPath4)">
      <path
         d="m 470,359 h 34"
         stroke="#ed7d31"
         stroke-width="2"
         stroke-linecap="round"
         stroke-linejoin="round"
         stroke-miterlimit="10"
         fill="none"
         fill-rule="evenodd"
         id="path247" />
    </g>
    <g
       id="g253"
       transform="matrix(0.26458333,0,0,0.26458333,-179.98219,159.70343)">
      <text
         font-family="Arial, Arial_MSFontService, sans-serif"
         font-weight="400"
         font-size="12px"
         transform="translate(507.23,363)"
         id="text251">P2P1-Fundo</text>
    </g>
    <g
       id="g257"
       transform="matrix(0.26458333,0,0,0.26458333,-179.98219,159.70343)"
       clip-path="url(#clipPath3)">
      <path
         d="m 596,359 h 33"
         stroke="#ed7d31"
         stroke-width="2"
         stroke-linecap="round"
         stroke-linejoin="round"
         stroke-miterlimit="10"
         stroke-dasharray="4, 4"
         fill="none"
         fill-rule="evenodd"
         id="path255" />
    </g>
    <g
       id="g261"
       transform="matrix(0.26458333,0,0,0.26458333,-179.98219,159.70343)">
      <text
         font-family="Arial, Arial_MSFontService, sans-serif"
         font-weight="400"
         font-size="12px"
         transform="translate(633.043,363)"
         id="text259">P2P1-Topo</text>
    </g>
    <g
       id="g265"
       transform="matrix(0.26458333,0,0,0.26458333,-179.98219,159.70343)"
       clip-path="url(#clipPath2)">
      <path
         d="m 715,359 h 33"
         stroke="#4472c4"
         stroke-width="2"
         stroke-linecap="round"
         stroke-linejoin="round"
         stroke-miterlimit="10"
         fill="none"
         fill-rule="evenodd"
         id="path263" />
    </g>
    <text
       font-family="Arial, Arial_MSFontService, sans-serif"
       font-weight="400"
       font-size="3.175px"
       id="text267"
       x="19.032892"
       y="255.74718"
       style="font-style:normal;font-variant:normal;font-weight:normal;font-stretch:normal;font-size:3.175px;font-family:Arial, Arial_MSFontService, sans-serif;-inkscape-font-specification:'Arial, Arial_MSFontService, sans-serif, Normal';font-variant-ligatures:normal;font-variant-caps:normal;font-variant-numeric:normal;font-variant-east-asian:normal;stroke-width:0.264583"><tspan
         sodipodi:role="line"
         id="tspan17"
         x="19.032892"
         y="255.74718">P2P2-Fundo</tspan></text>
    <g
       id="g273"
       transform="matrix(0.26458333,0,0,0.26458333,-179.98219,159.70343)"
       clip-path="url(#clipPath1)">
      <path
         d="m 834,359 h 34"
         stroke="#4472c4"
         stroke-width="2"
         stroke-linecap="round"
         stroke-linejoin="round"
         stroke-miterlimit="10"
         stroke-dasharray="4, 4"
         fill="none"
         fill-rule="evenodd"
         id="path271" />
    </g>
    <text
       font-family="Arial, Arial_MSFontService, sans-serif"
       font-weight="400"
       font-size="3.175px"
       id="text275"
       x="50.553497"
       y="255.74718"
       style="font-style:normal;font-variant:normal;font-weight:normal;font-stretch:normal;font-size:3.175px;font-family:Arial, Arial_MSFontService, sans-serif;-inkscape-font-specification:'Arial, Arial_MSFontService, sans-serif, Normal';font-variant-ligatures:normal;font-variant-caps:normal;font-variant-numeric:normal;font-variant-east-asian:normal;stroke-width:0.264583"><tspan
         sodipodi:role="line"
         id="tspan18"
         x="50.553497"
         y="255.74718">P2P2-Topo</tspan></text>
  </g>
</svg>
