<?xml version="1.0" encoding="UTF-8" standalone="no"?>
<!-- Created with Inkscape (http://www.inkscape.org/) -->

<svg
   width="179.91667mm"
   height="100.0125mm"
   viewBox="0 0 179.91667 100.0125"
   version="1.1"
   id="svg5"
   inkscape:version="1.2.1 (9c6d41e410, 2022-07-14)"
   sodipodi:docname="pre1000.svg"
   xmlns:inkscape="http://www.inkscape.org/namespaces/inkscape"
   xmlns:sodipodi="http://sodipodi.sourceforge.net/DTD/sodipodi-0.dtd"
   xmlns="http://www.w3.org/2000/svg"
   xmlns:svg="http://www.w3.org/2000/svg">
  <sodipodi:namedview
     id="namedview7"
     pagecolor="#ffffff"
     bordercolor="#000000"
     borderopacity="0.25"
     inkscape:showpageshadow="2"
     inkscape:pageopacity="0.0"
     inkscape:pagecheckerboard="0"
     inkscape:deskcolor="#d1d1d1"
     inkscape:document-units="mm"
     showgrid="false"
     inkscape:zoom="0.74564394"
     inkscape:cx="645.08001"
     inkscape:cy="-41.574803"
     inkscape:window-width="1920"
     inkscape:window-height="1017"
     inkscape:window-x="1912"
     inkscape:window-y="-8"
     inkscape:window-maximized="1"
     inkscape:current-layer="layer1" />
  <defs
     id="defs2">
    <clipPath
       id="clip0">
      <rect
         x="355"
         y="0"
         width="680"
         height="378"
         id="rect132" />
    </clipPath>
  </defs>
  <g
     inkscape:label="Camada 1"
     inkscape:groupmode="layer"
     id="layer1"
     transform="translate(86.055108,-159.70343)">
    <g
       clip-path="url(#clip0)"
       transform="matrix(0.26458333,0,0,0.26458333,-179.98219,159.70343)"
       id="g279">
      <rect
         x="355"
         y="0"
         width="680"
         height="378"
         fill="#ffffff"
         id="rect137" />
      <g
         id="g141">
        <path
           d="m 421.5,314.5 h 592 m -592,-50 h 592 m -592,-50 h 592 m -592,-50 h 592 m -592,-99.9999 h 592 m -592,-50 h 592"
           stroke="#d9d9d9"
           stroke-linejoin="round"
           stroke-miterlimit="10"
           fill="none"
           id="path139" />
      </g>
      <g
         id="g145">
        <path
           d="M 529.5,14.5001 V 314.5 M 636.5,14.5001 V 314.5 M 744.5,14.5001 V 314.5 M 852.5,14.5001 V 314.5 M 959.5,14.5001 V 314.5"
           stroke="#d9d9d9"
           stroke-linejoin="round"
           stroke-miterlimit="10"
           fill="none"
           id="path143" />
      </g>
      <g
         id="g149">
        <rect
           x="421.5"
           y="14.5001"
           width="592"
           height="300"
           stroke="#000000"
           stroke-linejoin="round"
           stroke-miterlimit="10"
           fill="none"
           id="rect147" />
      </g>
      <g
         id="g153">
        <path
           d="M 0,0 1.04987e-4,300"
           stroke="#000000"
           stroke-linejoin="round"
           stroke-miterlimit="10"
           fill="none"
           fill-rule="evenodd"
           transform="matrix(1,0,0,-1,421.5,314.5)"
           id="path151" />
      </g>
      <g
         id="g157">
        <path
           d="m 421.5,314.5 h 3 m -3,-10 h 3 m -3,-10 h 3 m -3,-10 h 3 m -3,-10 h 3 m -3,-10 h 3 m -3,-10 h 3 m -3,-10 h 3 m -3,-10 h 3 m -3,-10 h 3 m -3,-10 h 3 m -3,-10 h 3 m -3,-10 h 3 m -3,-10 h 3 m -3,-10 h 3 m -3,-10 h 3 m -3,-10 h 3 m -3,-10 h 3 m -3,-10 h 3 m -3,-10 h 3 m -3,-10 h 3 m -3,-10 h 3 m -3,-9.9999 h 3 m -3,-10 h 3 m -3,-10 h 3 m -3,-10 h 3 m -3,-10 h 3 m -3,-10 h 3 m -3,-10 h 3 m -3,-10 h 3 m -3,-10 h 3 m -6,299.9999 h 7 m -7,-50 h 7 m -7,-50 h 7 m -7,-50 h 7 m -7,-50 h 7 m -7,-49.9999 h 7 m -7,-50 h 7"
           stroke="#000000"
           stroke-linejoin="round"
           stroke-miterlimit="10"
           fill="none"
           id="path155" />
      </g>
      <g
         id="g161">
        <path
           d="m 421.5,114.5 h 592"
           stroke="#000000"
           stroke-linejoin="round"
           stroke-miterlimit="10"
           fill="none"
           fill-rule="evenodd"
           id="path159" />
      </g>
      <g
         id="g165">
        <path
           d="m 421.5,111.5 v 3 m 22,-3 v 3 m 21,-3 v 3 m 22,-3 v 3 m 21,-3 v 3 m 22,-3 v 3 m 21,-3 v 3 m 22,-3 v 3 m 21,-3 v 3 m 22,-3 v 3 m 21,-3 v 3 m 22,-3 v 3 m 21,-3 v 3 m 22,-3 v 3 m 21,-3 v 3 m 22,-3 v 3 m 22,-3 v 3 m 21,-3 v 3 m 22,-3 v 3 m 21,-3 v 3 m 22,-3 v 3 m 21,-3 v 3 m 22,-3 v 3 m 21,-3 v 3 m 22,-3 v 3 m 21,-3 v 3 m 22,-3 v 3 m 21,-3 v 3 m -581,-4 v 8 m 108,-8 v 8 m 107,-8 v 8 m 108,-8 v 8 m 108,-8 v 8 m 107,-8 v 8"
           stroke="#000000"
           stroke-linejoin="round"
           stroke-miterlimit="10"
           fill="none"
           id="path163" />
      </g>
      <g
         id="g169">
        <path
           d="m 422,265 v 0 h 1 v 0 h 1 1 v 0 h 1 v 0 h 1 1 v 0 h 1 v 0 h 1 l 1,1 v 0 h 1 v 0 h 1 v 0 h 1 1 v 0 l 1,-1 v 0 h 1 1 v 0 l 1,1 v 0 h 1 1 v 0 h 1 v 0 h 1 1 v 0 h 1 v 0 l 1,1 v 0 h 1 1 v 0 h 1 v 0 h 1 1 v -1 h 1 v 0 h 1 1 v 0 h 1 v -1 h 1 1 v 0 h 1 v 0 l 1,-1 h 1 v 0 h 1 v 0 h 1 v -1 h 1 1 v 0 h 1 v -1 h 1 1 v 0 h 1 v -1 h 1 1 v 0 h 1 v 0 h 1 1 v 0 h 1 v 0 h 1 v 0 l 1,-1 h 1 v -1 h 1 v -1 h 1 l 1,-1 v 0 l 1,-1 v 0 h 1 1 v 0 h 1 v 0 l 1,1 h 1 v 0 l 1,-1 v 0 h 1 l 1,-1 v 0 l 1,-1 v 0 l 1,-1 v 0 l 1,-1 h 1 v 0 h 1 v 0 h 1 l 1,-1 v 0 h 1 v 0 l 1,-1 h 1 v -1 h 1 v 0 l 1,-1 h 1 v -1 h 1 v -1 l 1,-1 v 0 l 1,-1 1,-1 v 0 l 1,-1 v -1 l 1,-1 h 1 v -1 h 1 v -1 l 1,-1 h 1 v -1 l 1,-1 v 0 l 1,-1 1,-1 v 0 l 1,-1 v -1 l 1,-1 1,-1 v 0 l 1,-1 v -1 h 1 v 0 h 1 1 v -1 h 1 v 0 h 1 1 v -1 h 1 v -1 l 1,-1 1,-1 v -1 l 1,-1 v -1 l 1,-1 1,-1 v -1 h 1 v -1 l 1,-1 h 1 v -1 l 1,-1 v 0 l 1,-1 v -1 h 1 l 1,-1 v -1 l 1,-1 v -1 h 1 l 1,-1 v -1 l 1,-1 v -1 h 1 l 1,-1 v -1 l 1,-1 v -1 h 1 l 1,-1 v -1 l 1,-1 v 0 l 1,-1 v -1 l 1,-1 h 1 v -1 l 1,-1 v -1 h 1 l 1,-2 v -1 l 1,-1 v -1 l 1,-1 1,-1 v -1 l 1,-1 v -1 h 1 l 1,-1 v -1 h 1 v -1 l 1,-1 1,-1 v 0 l 1,-1 v -1 l 1,-1 v -1 l 1,-1 1,-1 v -1 l 1,-2 v -1 l 1,-1 1,-1 v 0 l 1,-1 v -1 h 1 l 1,-1 v -1 l 1,-1 v 0 l 1,-1 1,-1 v -1 l 1,-1 v -1 l 1,-1 v 0 l 1,-1 1,-1 v -1 l 1,-1 v -1 h 1 l 1,-1 v 0 l 1,-1 v 0 l 1,-1 1,-1 v 0 l 1,-1 v -1 l 1,-1 1,-1 v -1 l 1,-1 v -1 l 1,-1 1,-1 v -1 l 1,-1 v -1 l 1,-1 v -1 l 1,-1 1,-1 v 0 l 1,-1 v -1 l 1,-1 1,-1 v -1 l 1,-1 v -1 l 1,-1 1,-1 v -1 l 1,-1 v -1 l 1,-1 1,-1 v -1 l 1,-1 v -1 l 1,-1 1,-1 v -1 l 1,-1 v -1 l 1,-1 v -1 l 1,-1 1,-1 v -1 l 1,-1 v -1 l 1,-1 1,-1 v -1 h 1 v -1 h 1 l 1,-1 v -1 h 1 v -1 l 1,-1 h 1 v -1 h 1 v -1 h 1 v -1 h 1 l 1,-1 v 0 l 1,-1 v 0 l 1,-1 1,-1 v 0 l 1,-1 v 0 l 1,-1 h 1 v -1 h 1 v -1 h 1 1 v -1 h 1 v 0 l 1,-1 h 1 v 0 h 1 v -1 h 1 v -1 l 1,-1 h 1 v -1 h 1 v -1 h 1 1 v -1 h 1 v 0 l 1,-1 h 1 v 0 l 1,-1 v 0 h 1 l 1,-1 v 0 l 1,-1 v 0 l 1,-1 v 0 h 1 l 1,-1 v 0 l 1,-1 v 0 h 1 1 v 0 h 1 v 0 h 1 1 v 0 h 1 v 0 h 1 l 1,-1 v 0 h 1 v 0 h 1 1 v 0 h 1 v -1 h 1 v -1 h 1 1 v -1 h 1 v -1 h 1 1 v 0 l 1,1 v 0 h 1 l 1,1 v 0 h 1 v 1 h 1 l 1,-1 v 0 l 1,-1 v 0 l 1,-1 h 1 v -1 h 1 v -1 h 1 v 0 l 1,1 h 1 v 1 h 1 v 1 h 1 l 1,1 v 0 h 1 v 0 l 1,-1 h 1 v -1 h 1 v 0 l 1,-1 h 1 v -1 h 1 v 1 h 1 v 1 h 1 1 v 1 h 1 v 1 h 1 1 v 0 h 1 v -1 h 1 1 v 0 l 1,-1 v 0 h 1 1 v 0 h 1 v 1 h 1 1 v 0 l 1,1 v 0 h 1 v 0 h 1 l 1,-1 v 0 h 1 v 0 l 1,-1 h 1 v 0 h 1 v 0 h 1 1 v 0 l 1,1 v 0 h 1 1 v 0 l 1,1 v 0 h 1 v -1 h 1 1 v 0 h 1 v 0 h 1 1 v 0 h 1 v 0 l 1,1 h 1 v 0 h 1 v 0 h 1 1 v 0 h 1 v 0 h 1 1 v 0 h 1 v 0 h 1 v 0 h 1 l 1,1 v 0 h 1 v 0 h 1 1 v 0 l 1,1 v 0 h 1 1 v 0 h 1 v 0 l 1,-1 h 1 v 0 h 1 v 0 l 1,1 h 1 v 0 h 1 v 0 h 1 v 1 h 1 1 v 0 h 1 v 0 h 1 1 v 0 h 1 v 0 h 1 1 v -1 l 1,1 v 0 h 1 1 v 1 h 1 v 0 h 1 v 0 l 1,1 h 1 v -1 h 1 v 0 h 1 1 v 0 h 1 v 0 h 1 1 v 0 h 1 v 1 h 1 1 v 0 h 1 v 1 h 1 1 v 0 h 1 v 0 h 1 v 0 h 1 1 v -1 h 1 v 0 l 1,1 h 1 v 0 h 1 v 0 l 1,1 h 1 v 0 h 1 v 0 h 1 1 v 0 h 1 v 0 h 1 v 0 h 1 1 v 0 h 1 v 0 l 1,1 h 1 v 0 h 1 v 0 h 1 l 1,1 v 0 h 1 v 0 h 1 1 v 0 h 1 v 0 h 1 1 v 0 h 1 v 1 h 1 v 0 h 1 1 v 0 h 1 v 0 l 1,1 h 1 v 0 h 1 v 0 h 1 1 v 0 l 1,1 v 0 h 1 1 v 0 h 1 v 0 h 1 v 0 h 1 1 v 0 h 1 v 0 l 1,1 h 1 v 0 h 1 v 0 h 1 l 1,1 v 0 h 1 v 0 h 1 1 v 0 h 1 v 0 h 1 1 v 0 h 1 v 0 h 1 v 0 h 1 1 v 0 l 1,1 v 0 h 1 1 v 0 l 1,1 v 0 h 1 1 v 0 h 1 v 1 h 1 1 v 0 h 1 v 0 l 1,1 h 1 v 0 h 1 v 0 h 1 v 0 h 1 1 v 1 h 1 v 0 h 1 1 v 0 h 1 v 1 h 1 1 v 0 h 1 v 0 h 1 l 1,1 v 0 h 1 v 0 h 1 v 0 h 1 l 1,1 v 0 h 1 v 0 h 1 1 v 0 h 1 v 0 h 1 1 v 0 h 1 v 1 h 1 1 v 0 h 1 v 1 h 1 1 v 0 h 1 v 0 h 1 v 0 h 1 1 v 0 h 1 v 0 h 1 1 v 1 h 1 v 0 h 1 l 1,1 v 0 h 1 v 1 h 1 1 v 0 h 1 v 0 h 1 v 0 l 1,1 h 1 v 0 h 1 v 0 h 1 1 v 0 l 1,1 v 0 h 1 1 v 1 h 1 v 0 h 1 1 v 0 h 1 v 0 h 1 1 v 0 h 1 v 0 h 1 v 1 h 1 1 v 0 h 1 v 1 h 1 1 v 0 h 1 v 1 h 1 1 v 0 h 1 v 0 h 1 1 v 0 h 1 v 0 h 1 1 v 0 h 1 v 1 h 1 v 0 h 1 1 v 1 h 1 v 0 h 1 1 v 0 h 1 v 1 h 1 1 v 0 h 1 v 0 l 1,1 h 1 v 0 h 1 v 1 h 1 v 0 h 1 l 1,1 v 0 h 1 v 0 h 1 1 v 0 h 1 v 0 h 1 1 v 0 h 1 v 0 l 1,1 h 1 v 0 h 1 v 1 h 1 1 v 1 h 1 v 0 h 1 v 0 h 1 1 v 0 h 1 v 0 h 1 1 v 1 h 1 v 0 h 1 l 1,1 v 0 h 1 v 0 l 1,1 h 1 v 0 h 1 v 0 h 1 v 0 l 1,1 h 1 v 0 h 1 v 0 h 1 1 v 0 h 1 v 1 h 1 1 v 0 h 1 v 1 h 1 1 v 0 h 1 v 1 h 1 1 v 0 h 1 v 0 h 1 v 0 l 1,1 h 1 v 0 h 1 v 0 l 1,1 h 1 v 0 h 1 v 0 h 1 l 1,1 v 0 h 1 v 0 h 1 1 v 0 h 1 v 0 h 1 1 v 0 l 1,1 v 0 h 1 v 1 h 1 1 v 0 l 1,1 v 0 h 1 1"
           stroke="#ed7d31"
           stroke-width="2"
           stroke-linecap="round"
           stroke-linejoin="round"
           stroke-miterlimit="10"
           fill="none"
           id="path167" />
      </g>
      <g
         id="g173">
        <path
           d="m 422,246 v 1 l 1,1 v 2 l 1,1 1,2 v 1 l 1,1 v 2 l 1,1 1,1 v 1 l 1,1 v 1 l 1,1 1,1 v 0 l 1,1 v 1 h 1 v 0 l 1,-1 h 1 v 0 l 1,-1 v 0 h 1 l 1,-1 v 0 l 1,1 v 0 h 1 l 1,1 v 0 h 1 v 0 l 1,1 h 1 v 0 h 1 v -1 h 1 v 0 h 1 1 v 0 h 1 v 0 h 1 1 v 0 h 1 v 0 h 1 1 v 0 h 1 v 0 h 1 1 v 0 h 1 v 0 h 1 1 v -1 h 1 v -1 h 1 v 0 l 1,-1 h 1 v -1 h 1 v -1 h 1 l 1,-1 v 0 l 1,-1 v 0 l 1,-1 h 1 v -1 l 1,1 v 2 l 1,1 1,1 v 1 l 1,1 v 1 l 1,1 v 1 l 1,-1 1,-3 v -2 l 1,-2 v -2 l 1,-2 1,-2 v -2 l 1,-2 v 0 l 1,2 1,2 v 1 l 1,2 v 2 l 1,2 1,1 v 2 h 1 v -1 l 1,-2 1,-1 v -2 l 1,-2 v -1 l 1,-2 v -1 l 1,-1 1,1 v 0 l 1,1 v 1 l 1,1 h 1 v 1 l 1,1 v 1 l 1,-2 1,-2 v -2 l 1,-2 v -1 l 1,-2 1,-2 v -2 l 1,-1 v 0 l 1,1 v 0 l 1,1 1,1 v 1 h 1 v 1 l 1,1 1,-1 v -3 l 1,-2 v -3 l 1,-3 1,-2 v -3 l 1,-2 v -3 l 1,-2 1,2 v 1 l 1,1 v 2 l 1,1 1,1 v 2 l 1,1 v 1 l 1,-1 v -2 l 1,-2 1,-2 v -2 l 1,-2 v -2 l 1,-2 1,-1 v -1 h 1 v 0 h 1 1 v 0 l 1,1 v 0 h 1 1 v -2 l 1,-1 v -1 l 1,-2 1,-1 v -1 l 1,-2 v -1 l 1,-1 v 0 h 1 1 v 0 h 1 v 0 h 1 1 v 0 l 1,-1 v -1 l 1,-1 1,-2 v -1 l 1,-1 v -1 l 1,-2 1,-1 v -1 l 1,-1 v -1 h 1 v -1 l 1,-1 1,-1 v 0 l 1,-1 v -1 l 1,-1 1,-2 v -1 l 1,-1 v -2 l 1,-1 1,-2 v -1 l 1,-2 v -1 l 1,1 h 1 v 0 h 1 v 0 h 1 l 1,1 v 0 h 1 v -2 l 1,-2 v -2 l 1,-2 1,-2 v -2 l 1,-2 v -2 l 1,-3 1,-1 v 1 h 1 v 1 l 1,1 h 1 v 1 h 1 v 1 l 1,1 1,-2 v -2 l 1,-2 v -1 l 1,-2 v -2 l 1,-2 1,-2 v -2 l 1,-1 v -1 h 1 l 1,-1 v 0 l 1,-1 v 0 l 1,-1 h 1 v -1 l 1,-1 v 0 l 1,-1 1,-1 v -1 l 1,-1 v 0 l 1,-1 1,-1 v -1 l 1,-1 v -1 l 1,-1 v -1 l 1,-1 1,-1 v -1 l 1,-1 v -1 h 1 l 1,-1 v 0 h 1 v 0 l 1,-1 h 1 v 0 h 1 v -1 l 1,-1 1,-2 v -1 l 1,-2 v -1 l 1,-2 1,-1 v -2 l 1,-1 v -1 l 1,-1 v 0 h 1 l 1,-1 v 0 l 1,-1 v 0 l 1,-1 h 1 v -1 l 1,-1 v -1 h 1 l 1,-1 v -1 l 1,-1 v -1 l 1,-1 1,-1 v 0 l 1,-1 v 0 h 1 v -1 h 1 l 1,-1 v 0 l 1,-1 v 0 l 1,-1 1,-1 v -1 l 1,-1 v -1 h 1 l 1,-1 v -1 l 1,-1 v 0 l 1,1 h 1 v 0 h 1 v 1 h 1 1 v 0 h 1 v -1 l 1,-1 v -1 l 1,-1 1,-2 v -1 l 1,-1 v -1 l 1,-1 1,-1 v 0 h 1 v 0 h 1 l 1,-1 v 0 h 1 v 0 h 1 1 v 0 h 1 v -1 h 1 v 0 h 1 1 v 0 h 1 v -1 h 1 1 v -1 h 1 v 0 l 1,-1 h 1 v -1 h 1 v 0 h 1 1 v 0 l 1,1 v 0 h 1 1 v 0 h 1 v 0 l 1,-1 v 0 h 1 1 v -1 h 1 v 0 h 1 1 v 0 h 1 v 0 h 1 1 v 0 h 1 v 0 h 1 1 v -1 h 1 v 0 h 1 1 v 0 h 1 v -1 h 1 v 0 h 1 1 v 1 h 1 v 0 h 1 1 v 0 h 1 v 0 h 1 l 1,-1 v 0 h 1 v 0 h 1 1 v 0 h 1 v 0 h 1 v 0 h 1 1 v 0 h 1 v 0 h 1 1 v 0 h 1 v 0 h 1 1 v 0 h 1 v 0 h 1 1 v 0 h 1 v 0 h 1 1 v 0 h 1 v 0 h 1 v 0 h 1 1 v 0 h 1 v 0 h 1 1 v 0 l 1,-1 v 1 h 1 1 v 0 h 1 v 0 h 1 1 v 0 h 1 v 0 h 1 v 0 h 1 1 v 0 h 1 v 0 h 1 1 v 0 h 1 v 0 h 1 1 v 0 h 1 v 0 h 1 1 v 0 h 1 v 0 h 1 1 v 0 h 1 v 0 h 1 v 0 h 1 l 1,1 v 0 h 1 v 0 h 1 1 v 0 h 1 v 0 h 1 1 v 0 h 1 v 0 h 1 1 v 0 h 1 v 0 h 1 1 v 0 h 1 v 0 h 1 v 0 l 1,1 h 1 v 0 h 1 v 0 h 1 1 v 0 h 1 v 0 h 1 1 v 0 h 1 v 0 h 1 1 v 0 h 1 v 1 h 1 v 0 h 1 1 v 0 h 1 v 0 h 1 1 v 1 h 1 v 0 h 1 1 v 0 h 1 v 0 h 1 1 v 0 h 1 v 0 h 1 1 v 0 h 1 v 1 h 1 v 0 h 1 1 v 0 h 1 v 0 h 1 1 v 0 h 1 v 1 h 1 1 v 0 h 1 v 0 h 1 1 v 0 h 1 v 0 h 1 v 0 h 1 1 v 0 h 1 v 1 h 1 1 v 0 h 1 v 1 h 1 1 v 0 h 1 v 0 h 1 1 v 0 h 1 v 0 h 1 l 1,1 v 0 h 1 v 0 h 1 v 0 h 1 1 v 0 h 1 v 0 h 1 1 v 0 h 1 v 1 h 1 1 v 0 h 1 v 1 h 1 1 v 0 l 1,-1 v 0 h 1 v 0 h 1 l 1,-1 v 0 h 1 v 0 h 1 l 1,1 v 0 h 1 v 1 h 1 l 1,1 v 0 h 1 v 1 h 1 1 v 0 h 1 v 0 h 1 1 v 0 h 1 v 0 h 1 v 0 l 1,1 h 1 v 0 h 1 v 0 l 1,1 h 1 v 0 h 1 v 0 h 1 1 v 0 l 1,1 v 0 h 1 1 v 0 h 1 v 0 h 1 1 v 0 l 1,1 v 0 h 1 v 0 h 1 1 v 1 h 1 v 0 h 1 1 v 0 h 1 v 0 h 1 1 v 1 h 1 v 0 h 1 1 v 0 l 1,1 v 0 h 1 v 0 h 1 1 v 0 h 1 v 0 h 1 1 v 0 h 1 v 0 h 1 l 1,1 v 0 h 1 v 0 l 1,1 h 1 v 0 l 1,1 v 0 h 1 l 1,1 v 0 h 1 v 0 h 1 v 0 h 1 1 v 0 h 1 v 0 h 1 1 v 0 h 1 v 1 h 1 1 v 0 h 1 v 0 l 1,1 h 1 v 0 h 1 v 0 h 1 v 0 h 1 1 v 0 l 1,1 v 0 h 1 1 v 0 h 1 v 1 h 1 1 v 0 h 1 v 1 h 1 1 v 0 h 1 v 0 h 1 1 v 1 h 1 v 0 h 1 v 0 h 1 1 v 0 h 1 v 1 h 1 1 v 0 h 1 v 0 h 1 1 v 1 h 1 v 0 h 1 l 1,1 v 0 h 1 v 0 h 1 1 v 0 h 1 v 0 l 1,1 v 0 h 1 1 v 0 h 1 v 0 h 1 l 1,1 v 0 h 1 v 0 h 1 l 1,1 v 0 h 1 v 0 h 1 1 v 1 h 1 v 0 h 1 v 0 h 1 1 v 0 h 1 v 1 h 1 1 v 0 l 1,1 v 0 h 1 1 v 0 l 1,1 v 0 h 1 1 v 0 h 1 v 0 h 1 1 v 0 h 1 v 0 h 1 v 0 l 1,1 h 1 v 0 l 1,1 v 0 h 1 l 1,1 v 0 h 1 v 0 h 1 1 v 0 h 1 v 0 l 1,-1 h 1 v 0 l 1,1 v 0 h 1 v 1 h 1 l 1,1 v 0 h 1 v 1 h 1 l 1,1 v 0 l 1,-1 v 0 h 1 1 v 0 h 1 v 0 h 1 1 v 0 h 1 v 1 h 1 1 v 1 h 1 v 0 l 1,1 v 0 l 1,1 h 1 v 0 h 1 v 0 h 1 1 v 0 h 1 v -1 h 1 1 v 1 h 1 v 0 l 1,1 h 1 v 0 h 1 v 1 h 1 1 v 1 h 1 v 0 h 1 v 0 h 1 1 v 0 h 1 v 0 h 1 1"
           stroke="#ed7d31"
           stroke-width="2"
           stroke-linecap="round"
           stroke-linejoin="round"
           stroke-miterlimit="10"
           stroke-dasharray="4, 4"
           fill="none"
           id="path171" />
      </g>
      <g
         id="g177">
        <path
           d="m 422,249 v 0 h 1 v 0 h 1 1 v 0 h 1 v 0 h 1 1 v 0 h 1 v 0 h 1 1 v 0 h 1 v 0 h 1 v 0 h 1 1 v 0 h 1 v 0 h 1 1 v 0 h 1 v 0 h 1 1 v 0 h 1 v 0 h 1 1 v 0 h 1 v 0 h 1 v 0 h 1 1 v 0 h 1 v 0 h 1 1 v 0 h 1 v 0 h 1 1 v 0 l 1,-1 v 0 h 1 1 v 0 h 1 v 0 h 1 1 v -1 h 1 v 0 h 1 v 0 h 1 l 1,-1 v 0 h 1 v 0 h 1 1 v -1 h 1 v 0 h 1 1 v 0 h 1 v -1 h 1 1 v 0 h 1 v 0 h 1 v 0 l 1,-1 h 1 v 0 h 1 v 0 h 1 l 1,-1 v 0 h 1 v 0 l 1,-1 h 1 v -1 h 1 v 0 l 1,-1 h 1 v -1 h 1 v 0 l 1,-1 h 1 v 0 h 1 v -1 h 1 v 0 l 1,-1 h 1 v 0 l 1,-1 v 0 h 1 1 v 0 l 1,-1 v 0 h 1 1 v -1 h 1 v 0 l 1,-1 h 1 v -1 h 1 v 0 l 1,-1 v 0 h 1 1 v -1 h 1 v -1 h 1 l 1,-1 v -1 h 1 v -1 l 1,-1 h 1 v -1 l 1,-1 v 0 l 1,-1 1,-1 v 0 l 1,-1 v -1 h 1 l 1,-1 v -1 h 1 v -1 l 1,-1 v -1 h 1 l 1,-1 v -1 h 1 v -1 l 1,-1 h 1 v -1 h 1 v 0 l 1,-1 h 1 v 0 l 1,-1 v 0 h 1 l 1,-1 v 0 l 1,-1 v 0 l 1,-1 1,-1 v 0 l 1,-1 v -1 h 1 v -1 l 1,-1 h 1 v -1 l 1,-1 v 0 l 1,-1 h 1 v -1 l 1,-1 v 0 l 1,-1 1,-1 v -1 h 1 v -1 l 1,-1 h 1 v -1 l 1,-1 v 0 l 1,-1 v -1 h 1 l 1,-1 v -1 h 1 v -1 l 1,-1 1,-1 v -1 h 1 v -1 l 1,-1 1,-1 v -1 h 1 v -1 l 1,-1 h 1 v -1 l 1,-1 v -1 h 1 l 1,-1 v -1 h 1 v -1 l 1,-1 v 0 l 1,-1 1,-1 v -1 l 1,-1 v -1 h 1 l 1,-1 v -1 l 1,-1 v -1 h 1 l 1,-1 v -1 l 1,-1 v 0 l 1,-1 1,-1 v -1 l 1,-1 v -1 h 1 v -1 h 1 l 1,-1 v 0 l 1,-1 v -1 h 1 l 1,-1 v -1 h 1 v -1 l 1,-1 h 1 v -1 l 1,-1 v -1 h 1 l 1,-1 v -1 l 1,-1 v 0 l 1,-1 1,-1 v -1 h 1 v -1 l 1,-1 v -1 h 1 l 1,-1 v -1 l 1,-1 v 0 l 1,-1 1,-1 v -1 h 1 v -1 l 1,-1 1,-1 v -1 l 1,-1 v 0 l 1,-1 1,-1 v -1 l 1,-1 v -1 h 1 l 1,-1 v -1 l 1,-1 v -1 l 1,-1 v -1 l 1,-1 h 1 v -1 l 1,-1 v -1 h 1 l 1,-1 v -1 h 1 v -1 l 1,-1 h 1 v -1 h 1 v -1 l 1,-1 h 1 v -1 h 1 v -1 h 1 v -1 h 1 l 1,-1 v 0 l 1,-1 v 0 l 1,-1 h 1 v 0 l 1,-1 v 0 l 1,-1 h 1 v -1 h 1 v -1 h 1 l 1,-1 v 0 l 1,-1 v 0 h 1 l 1,-1 v 0 h 1 v -1 h 1 v -1 h 1 l 1,-1 v 0 l 1,-1 v 0 h 1 l 1,-1 v 0 h 1 v -1 h 1 l 1,-1 v 0 h 1 v -1 h 1 l 1,-1 v 0 l 1,-1 v 0 l 1,-1 v 0 l 1,-1 h 1 v 0 h 1 v 0 h 1 l 1,-1 v 0 h 1 v 0 h 1 1 v -1 h 1 v 0 h 1 l 1,-1 v 0 h 1 v 0 h 1 l 1,-1 v 0 h 1 v 0 l 1,-1 v 0 h 1 1 v -1 h 1 v 0 h 1 1 v 0 h 1 v 0 h 1 l 1,-1 v 0 h 1 v 0 h 1 1 v 0 h 1 v -1 h 1 1 v 0 h 1 v 0 h 1 v 0 h 1 1 v 0 h 1 v 0 h 1 1 v 0 h 1 v 0 l 1,-1 h 1 v 0 h 1 v 0 h 1 1 v 0 h 1 v 0 h 1 v 0 h 1 1 v 0 h 1 v 0 h 1 1 v 0 h 1 v 0 h 1 1 v 0 h 1 v 0 h 1 1 v 0 h 1 v 0 h 1 1 v 0 h 1 v 0 h 1 v 0 h 1 1 v 0 h 1 v 0 h 1 1 v 0 h 1 v 0 h 1 1 v 0 h 1 v 0 h 1 1 v 0 h 1 v 0 h 1 v 0 h 1 1 v 0 h 1 v 0 h 1 1 v 0 h 1 v 0 h 1 1 v 1 h 1 v 0 h 1 1 v 0 h 1 v 0 h 1 1 v 0 h 1 v 0 h 1 v 0 h 1 1 v 0 h 1 v 0 h 1 l 1,1 v 0 h 1 v 0 h 1 1 v 0 h 1 v 0 h 1 1 v 0 h 1 v 0 h 1 1 v 0 h 1 v 0 h 1 v 0 h 1 l 1,1 v 0 h 1 v 0 h 1 1 v 0 h 1 v 0 h 1 1 v 0 h 1 v 0 l 1,1 h 1 v 0 h 1 v 0 h 1 v 0 h 1 1 v 0 h 1 v 0 h 1 1 v 0 h 1 v 1 h 1 1 v 0 h 1 v 0 h 1 1 v 0 h 1 v 0 h 1 l 1,1 v 0 h 1 v 0 h 1 v 0 h 1 1 v 0 h 1 v 0 h 1 1 v 0 h 1 v 1 h 1 1 v 0 h 1 v 0 h 1 1 v 0 h 1 v 0 h 1 v 1 h 1 1 v 0 h 1 v 0 h 1 1 v 0 h 1 v 0 l 1,1 h 1 v 0 h 1 v 0 h 1 1 v 0 h 1 v 1 h 1 1 v 0 h 1 v 0 h 1 v 0 h 1 1 v 1 h 1 v 0 h 1 1 v 0 h 1 v 0 h 1 1 v 0 h 1 v 1 h 1 1 v 0 h 1 v 0 h 1 v 0 h 1 1 v 0 l 1,1 v 0 h 1 1 v 0 h 1 v 0 h 1 1 v 1 h 1 v 0 h 1 1 v 0 h 1 v 0 h 1 1 v 0 h 1 v 0 l 1,1 v 0 h 1 1 v 0 h 1 v 1 h 1 1 v 0 h 1 v 0 h 1 1 v 0 l 1,1 v 0 h 1 1 v 0 h 1 v 0 h 1 l 1,1 v 0 h 1 v 0 h 1 v 0 h 1 l 1,1 v 0 h 1 v 0 h 1 1 v 0 l 1,1 v 0 h 1 1 v 0 h 1 v 0 h 1 l 1,1 v 0 h 1 v 0 h 1 v 0 h 1 1 v 1 h 1 v 0 h 1 1 v 0 h 1 v 0 h 1 1 v 0 l 1,1 v 0 h 1 1 v 0 h 1 v 0 l 1,1 h 1 v 0 h 1 v 0 h 1 v 0 h 1 1 v 0 l 1,1 v 0 h 1 1 v 0 h 1 v 1 h 1 1 v 0 h 1 v 0 l 1,1 h 1 v 0 h 1 v 0 h 1 v 0 h 1 l 1,1 v 0 h 1 v 0 h 1 1 v 1 h 1 v 0 h 1 1 v 0 l 1,1 v 0 h 1 1 v 0 h 1 v 0 h 1 l 1,1 v 0 h 1 v 0 h 1 v 0 h 1 l 1,1 v 0 h 1 v 0 h 1 1 v 0 h 1 v 0 h 1 1 v 0 h 1 v 0 l 1,1 h 1 v 0 h 1 v 0 h 1 1 v 1 h 1 v 0 h 1 v 0 l 1,1 h 1 v 0 h 1 v 0 h 1 1 v 0 h 1 v 1 h 1 1 v 0 h 1 v 0 l 1,1 h 1 v 0 h 1 v 0 l 1,1 v 0 h 1 1 v 0 h 1 v 0 h 1 1 v 1 h 1 v 0 h 1 1 v 0 l 1,1 v 0 h 1 1 v 0 h 1 v 1 h 1 1 v 0 h 1 v 0 h 1 v 1 h 1 1 v 0 h 1 v 0 h 1 l 1,1 v 0 h 1 v 0 h 1 1 v 1 h 1 v 0 h 1 1 v 0 l 1,1 v 0 h 1 v 0 h 1 1 v 0 l 1,1 v 0 h 1 1 v 0 h 1 v 1 h 1 1 v 0 h 1 v 0 l 1,1 h 1 v 0 h 1 v 0 h 1 l 1,1 v 0 h 1 v 0 h 1 v 0 h 1 l 1,1 v 0 h 1 v 0 h 1 1 v 1 h 1 v 0 h 1 1 v 0 h 1 v 0 l 1,1 h 1 v 0 h 1 v 0 h 1 1 v 1 h 1 v 0 h 1 v 0 h 1 l 1,1 v 0 h 1 v 0 h 1 1"
           stroke="#4472c4"
           stroke-width="2"
           stroke-linecap="round"
           stroke-linejoin="round"
           stroke-miterlimit="10"
           fill="none"
           id="path175" />
      </g>
      <g
         id="g181">
        <path
           d="m 422,233 v 1 h 1 v 0 l 1,1 1,1 v 0 l 1,1 v 1 l 1,1 1,1 v 1 l 1,1 v 0 l 1,1 1,1 v 1 h 1 v 1 h 1 v 1 h 1 1 v 0 h 1 v 0 h 1 1 v 1 h 1 v 0 h 1 1 v 0 h 1 v 0 h 1 1 v 0 h 1 v 0 l 1,1 v 0 h 1 1 v 0 h 1 v 0 h 1 1 v 0 l 1,-1 v 0 h 1 l 1,-1 v 0 h 1 v 1 h 1 1 v 0 h 1 v 0 h 1 1 v -1 h 1 v 0 l 1,-1 v 0 h 1 1 v -1 h 1 v 0 h 1 l 1,-1 v 0 h 1 v -1 h 1 l 1,-1 v -1 l 1,1 v 0 h 1 1 v 0 h 1 v 0 h 1 v 0 h 1 1 v 0 h 1 v 0 h 1 1 v 0 l 1,-1 v 0 l 1,-1 h 1 v -1 h 1 v -1 h 1 l 1,-1 v -1 h 1 v 0 h 1 1 v 0 h 1 v 0 h 1 v 0 h 1 1 v 0 h 1 v 0 h 1 l 1,-1 v -1 l 1,-1 v -1 h 1 l 1,-1 v 0 h 1 v -1 h 1 l 1,-1 v -1 l 1,-1 v 0 l 1,-1 v 0 h 1 1 v -1 h 1 v 0 h 1 1 v 0 h 1 v 0 h 1 l 1,-1 v 0 l 1,-1 v -1 l 1,-1 1,-2 v -1 l 1,-1 v -1 l 1,-1 1,-1 v -1 h 1 v 0 l 1,-1 v -1 h 1 l 1,-1 v 0 l 1,-1 v 0 h 1 l 1,-1 v 0 h 1 v 0 l 1,-1 h 1 v -1 l 1,-1 v -1 l 1,-2 1,-1 v 0 l 1,-1 v 0 l 1,-1 h 1 v -1 l 1,-1 v 0 l 1,-1 v -1 l 1,-1 1,-1 v 0 l 1,-1 v -1 h 1 l 1,-1 v 0 l 1,-1 v 0 h 1 l 1,-1 v 0 h 1 v -1 h 1 l 1,-1 v 0 l 1,-1 v -1 l 1,-1 v -1 l 1,-1 h 1 v -1 l 1,-1 v -1 h 1 1 v -1 l 1,-1 v 0 l 1,-1 1,-1 v -1 l 1,-2 v -1 l 1,-1 1,-1 v -1 l 1,-1 v 0 l 1,-1 1,-1 v -1 l 1,-1 v -1 h 1 v -1 l 1,-1 h 1 v -1 l 1,-1 v 0 l 1,-1 h 1 v -1 h 1 v -1 l 1,-1 h 1 v -1 h 1 v -1 h 1 l 1,-1 v -1 h 1 v -1 l 1,-1 v 0 l 1,-1 1,-1 v -1 l 1,-1 v -1 l 1,-1 1,-1 v -1 l 1,-1 v -1 l 1,-1 h 1 v -1 l 1,-1 v 0 l 1,-1 1,-1 v 0 l 1,-1 v 0 l 1,-1 1,-1 v -1 h 1 v -1 l 1,-1 v 0 l 1,-1 1,-1 v 0 l 1,-1 v 0 l 1,-1 1,-1 v 0 l 1,-1 v -1 h 1 l 1,-1 v -1 l 1,-1 v -1 l 1,-1 1,-1 v -1 h 1 v -1 l 1,-1 h 1 v -1 h 1 v -1 h 1 v -1 l 1,-1 1,-1 v 0 l 1,-1 v 0 l 1,-1 h 1 v -1 h 1 v -1 l 1,-1 h 1 v -1 l 1,-1 v 0 l 1,-1 h 1 v -1 l 1,-1 v -1 l 1,-1 v 0 l 1,-1 h 1 v -1 h 1 v 0 l 1,-1 h 1 v -1 h 1 v -1 h 1 l 1,-1 v 0 l 1,-1 v 0 l 1,-1 h 1 v 0 h 1 v -1 h 1 1 v 0 l 1,-1 v 0 l 1,-1 v 0 h 1 l 1,-1 v 0 l 1,-1 v 0 h 1 l 1,-1 v -1 l 1,-1 v 0 l 1,-1 1,-1 v 0 h 1 v 0 h 1 l 1,-1 v 0 h 1 v 0 l 1,-1 v 0 h 1 1 v 0 l 1,-1 v 0 h 1 1 v 0 l 1,-1 v 0 h 1 1 v -1 h 1 v 0 h 1 l 1,-1 v 0 h 1 v 0 h 1 1 v 0 l 1,-1 v 0 h 1 v 0 h 1 1 v -1 h 1 v 0 h 1 1 v -1 h 1 v 0 h 1 l 1,-1 v 0 h 1 v 0 h 1 1 v 0 h 1 v 0 h 1 1 v 0 h 1 v -1 h 1 v 0 h 1 1 v 0 h 1 v 0 l 1,-1 h 1 v 0 h 1 v 0 h 1 l 1,-1 v 0 h 1 v 0 h 1 1 v 0 h 1 v 0 h 1 v 0 h 1 1 v 0 h 1 v 0 h 1 1 v -1 h 1 v 0 h 1 1 v 0 h 1 v 0 h 1 1 v 0 h 1 v 0 h 1 1 v 0 h 1 v 0 h 1 v 0 h 1 1 v 0 h 1 v 0 h 1 1 v 0 h 1 v 0 h 1 1 v 0 h 1 v 0 h 1 1 v 0 h 1 v 0 h 1 v 0 h 1 1 v 0 h 1 v 0 h 1 1 v 0 h 1 v 0 h 1 1 v 0 h 1 v 0 h 1 1 v 0 h 1 v 0 h 1 l 1,1 v 0 h 1 v 0 h 1 v 0 h 1 1 v 0 h 1 v 0 h 1 1 v 0 h 1 v 0 h 1 1 v 0 h 1 v 0 h 1 1 v 0 h 1 v 0 l 1,1 h 1 v 0 h 1 v 0 h 1 v 0 h 1 1 v 0 h 1 v 0 h 1 1 v 0 h 1 v 0 h 1 1 v 0 h 1 v 0 l 1,1 h 1 v 0 h 1 v 0 h 1 v 0 h 1 1 v 0 h 1 v 0 l 1,1 h 1 v 0 h 1 v 0 h 1 1 v 0 h 1 v 0 h 1 1 v 0 h 1 v 1 h 1 1 v 0 h 1 v 0 h 1 v 0 h 1 1 v 1 h 1 v 0 h 1 1 v 0 h 1 v 0 h 1 1 v 0 h 1 v 0 h 1 1 v 1 h 1 v 0 h 1 v 0 h 1 1 v 0 h 1 v 0 h 1 1 v 0 l 1,1 v 0 h 1 1 v 0 h 1 v 0 h 1 1 v 0 l 1,1 v 0 h 1 1 v 0 h 1 v 0 h 1 v 0 h 1 1 v 0 h 1 v 0 l 1,1 h 1 v 0 h 1 v 0 h 1 1 v 1 h 1 v 0 h 1 1 v 0 h 1 v 0 h 1 v 0 h 1 1 v 0 h 1 v 0 h 1 1 v 0 h 1 v 0 h 1 l 1,1 v 0 h 1 v 0 h 1 l 1,1 v 0 h 1 v 0 h 1 1 v 1 h 1 v 0 h 1 v 0 h 1 1 v 0 h 1 v 0 h 1 l 1,1 v 0 h 1 v 0 h 1 1 v 0 l 1,1 v 0 h 1 1 v 0 h 1 v 0 l 1,1 h 1 v 0 h 1 v 0 h 1 v 0 h 1 1 v 1 h 1 v 0 h 1 1 v 0 h 1 v 1 h 1 1 v 0 h 1 v 0 h 1 1 v 1 h 1 v 0 h 1 v 0 h 1 1 v 1 h 1 v 0 h 1 1 v 0 h 1 v 0 l 1,1 h 1 v 0 h 1 v 0 h 1 1 v 0 h 1 v 0 l 1,1 h 1 v 0 h 1 v 0 h 1 v 0 h 1 l 1,1 v 0 h 1 v 0 h 1 1 v 0 l 1,1 v 0 h 1 1 v 0 h 1 v 0 l 1,1 h 1 v 0 h 1 v 0 h 1 v 0 h 1 l 1,1 v 0 h 1 v 0 h 1 1 v 0 h 1 v 1 h 1 1 v 0 h 1 v 0 h 1 l 1,1 v 0 h 1 v 0 h 1 1 v 0 l 1,1 v 0 h 1 v 0 h 1 1 v 0 l 1,1 v 0 h 1 1 v 0 h 1 v 0 l 1,1 h 1 v 0 h 1 v 0 h 1 1 v 0 h 1 v 1 h 1 1 v 0 h 1 v 0 h 1 v 1 h 1 1 v 0 h 1 v 0 h 1 l 1,1 v 0 h 1 v 0 h 1 l 1,1 v 0 h 1 v 0 h 1 1 v 0 h 1 v 0 l 1,1 v 0 h 1 1 v 0 h 1 v 0 h 1 1 v 1 h 1 v 0 h 1 1 v 0 l 1,1 v 0 h 1 1 v 0 h 1 v 0 l 1,1 h 1 v 0 h 1 v 0 h 1 v 0 l 1,1 h 1 v 0 h 1 v 0 h 1 l 1,1 v 0 h 1 v 0 h 1 1 v 1 h 1 v 0 h 1 1 v 0 l 1,1 v 0 h 1 v 0 h 1 1 v 0 l 1,1 v 0 h 1 1 v 0 h 1 v 1 h 1 1 v 0 h 1 v 0 l 1,1 h 1 v 0 h 1 v 0 h 1 1 v 1 h 1 v 0 h 1 v 0 h 1 1 v 1 h 1 v 0 h 1 1 v 0 l 1,1 v 0 h 1 1 v 0 h 1 v 1 h 1 1 v 0 h 1 v 0 h 1 l 1,1 v 0 h 1 v 0 h 1 v 0 l 1,1 h 1 v 0 h 1 v 0 h 1 1"
           stroke="#4472c4"
           stroke-width="2"
           stroke-linecap="round"
           stroke-linejoin="round"
           stroke-miterlimit="10"
           stroke-dasharray="4, 4"
           fill="none"
           id="path179" />
      </g>
      <g
         id="g185">
        <text
           font-family="Arial, Arial_MSFontService, sans-serif"
           font-weight="400"
           font-size="12px"
           transform="translate(390.629,318)"
           id="text183">-0.2</text>
      </g>
      <g
         id="g189">
        <text
           font-family="Arial, Arial_MSFontService, sans-serif"
           font-weight="400"
           font-size="12px"
           transform="translate(390.629,268)"
           id="text187">-0.2</text>
      </g>
      <g
         id="g193">
        <text
           font-family="Arial, Arial_MSFontService, sans-serif"
           font-weight="400"
           font-size="12px"
           transform="translate(390.629,218)"
           id="text191">-0.1</text>
      </g>
      <g
         id="g197">
        <text
           font-family="Arial, Arial_MSFontService, sans-serif"
           font-weight="400"
           font-size="12px"
           transform="translate(390.629,168)"
           id="text195">-0.1</text>
      </g>
      <g
         id="g201">
        <text
           font-family="Arial, Arial_MSFontService, sans-serif"
           font-weight="400"
           font-size="12px"
           transform="translate(394.622,119)"
           id="text199">0.0</text>
      </g>
      <g
         id="g205">
        <text
           font-family="Arial, Arial_MSFontService, sans-serif"
           font-weight="400"
           font-size="12px"
           transform="translate(394.622,69)"
           id="text203">0.1</text>
      </g>
      <g
         id="g209">
        <text
           font-family="Arial, Arial_MSFontService, sans-serif"
           font-weight="400"
           font-size="12px"
           transform="translate(394.622,19)"
           id="text207">0.1</text>
      </g>
      <g
         id="g213">
        <text
           font-family="Arial, Arial_MSFontService, sans-serif"
           font-weight="400"
           font-size="12px"
           transform="translate(418.286,133)"
           id="text211">0</text>
      </g>
      <g
         id="g217">
        <text
           font-family="Arial, Arial_MSFontService, sans-serif"
           font-weight="400"
           font-size="12px"
           transform="translate(522.582,133)"
           id="text215">10</text>
      </g>
      <g
         id="g221">
        <text
           font-family="Arial, Arial_MSFontService, sans-serif"
           font-weight="400"
           font-size="12px"
           transform="translate(630.215,133)"
           id="text219">20</text>
      </g>
      <g
         id="g225">
        <text
           font-family="Arial, Arial_MSFontService, sans-serif"
           font-weight="400"
           font-size="12px"
           transform="translate(737.848,133)"
           id="text223">30</text>
      </g>
      <g
         id="g229">
        <text
           font-family="Arial, Arial_MSFontService, sans-serif"
           font-weight="400"
           font-size="12px"
           transform="translate(845.481,133)"
           id="text227">40</text>
      </g>
      <g
         id="g233">
        <text
           font-family="Arial, Arial_MSFontService, sans-serif"
           font-weight="400"
           font-size="12px"
           transform="translate(953.114,133)"
           id="text231">50</text>
      </g>
      <g
         id="g237">
        <text
           font-family="Arial, Arial_MSFontService, sans-serif"
           font-weight="400"
           font-size="13px"
           transform="rotate(-90,286.648,-97.648)"
           id="text235">Pressão</text>
      </g>
      <g
         id="g241">
        <text
           font-family="'Cambria Math', 'Cambria Math_MSFontService', sans-serif"
           font-style="oblique"
           font-weight="400"
           font-size="13px"
           transform="translate(711.93,329)"
           id="text239">x</text>
      </g>
      <g
         id="g245">
        <text
           font-family="'Cambria Math', 'Cambria Math_MSFontService', sans-serif"
           font-weight="400"
           font-size="9px"
           transform="translate(718.377,331)"
           id="text243">1</text>
      </g>
      <g
         id="g249">
        <path
           d="m 470,359 h 34"
           stroke="#ed7d31"
           stroke-width="2"
           stroke-linecap="round"
           stroke-linejoin="round"
           stroke-miterlimit="10"
           fill="none"
           fill-rule="evenodd"
           id="path247" />
      </g>
      <g
         id="g253">
        <text
           font-family="Arial, Arial_MSFontService, sans-serif"
           font-weight="400"
           font-size="12px"
           transform="translate(507.23,363)"
           id="text251">P2P1-Fundo</text>
      </g>
      <g
         id="g257">
        <path
           d="m 596,359 h 33"
           stroke="#ed7d31"
           stroke-width="2"
           stroke-linecap="round"
           stroke-linejoin="round"
           stroke-miterlimit="10"
           stroke-dasharray="4, 4"
           fill="none"
           fill-rule="evenodd"
           id="path255" />
      </g>
      <g
         id="g261">
        <text
           font-family="Arial, Arial_MSFontService, sans-serif"
           font-weight="400"
           font-size="12px"
           transform="translate(633.043,363)"
           id="text259">P2P1-Topo</text>
      </g>
      <g
         id="g265">
        <path
           d="m 715,359 h 33"
           stroke="#4472c4"
           stroke-width="2"
           stroke-linecap="round"
           stroke-linejoin="round"
           stroke-miterlimit="10"
           fill="none"
           fill-rule="evenodd"
           id="path263" />
      </g>
      <g
         id="g269">
        <text
           font-family="Arial, Arial_MSFontService, sans-serif"
           font-weight="400"
           font-size="12px"
           transform="translate(752.183,363)"
           id="text267">Qua-Fundo</text>
      </g>
      <g
         id="g273">
        <path
           d="m 834,359 h 34"
           stroke="#4472c4"
           stroke-width="2"
           stroke-linecap="round"
           stroke-linejoin="round"
           stroke-miterlimit="10"
           stroke-dasharray="4, 4"
           fill="none"
           fill-rule="evenodd"
           id="path271" />
      </g>
      <g
         id="g277">
        <text
           font-family="Arial, Arial_MSFontService, sans-serif"
           font-weight="400"
           font-size="12px"
           transform="translate(871.316,363)"
           id="text275">Qua-Topo</text>
      </g>
    </g>
  </g>
</svg>
