<?xml version="1.0" encoding="UTF-8" standalone="no"?>
<!-- Created with Inkscape (http://www.inkscape.org/) -->

<svg
   width="180.18124mm"
   height="100.0125mm"
   viewBox="0 0 180.18124 100.0125"
   version="1.1"
   id="svg5"
   inkscape:version="1.2.1 (9c6d41e410, 2022-07-14)"
   sodipodi:docname="pre389.svg"
   xmlns:inkscape="http://www.inkscape.org/namespaces/inkscape"
   xmlns:sodipodi="http://sodipodi.sourceforge.net/DTD/sodipodi-0.dtd"
   xmlns="http://www.w3.org/2000/svg"
   xmlns:svg="http://www.w3.org/2000/svg">
  <sodipodi:namedview
     id="namedview7"
     pagecolor="#ffffff"
     bordercolor="#000000"
     borderopacity="0.25"
     inkscape:showpageshadow="2"
     inkscape:pageopacity="0.0"
     inkscape:pagecheckerboard="0"
     inkscape:deskcolor="#d1d1d1"
     inkscape:document-units="mm"
     showgrid="false"
     inkscape:zoom="0.74564394"
     inkscape:cx="359.42088"
     inkscape:cy="162.27584"
     inkscape:window-width="1920"
     inkscape:window-height="1017"
     inkscape:window-x="1912"
     inkscape:window-y="-8"
     inkscape:window-maximized="1"
     inkscape:current-layer="layer1" />
  <defs
     id="defs2">
    <clipPath
       id="clip0">
      <rect
         x="337"
         y="0"
         width="681"
         height="378"
         id="rect132" />
    </clipPath>
  </defs>
  <g
     inkscape:label="Camada 1"
     inkscape:groupmode="layer"
     id="layer1"
     transform="translate(63.477718,-163.60665)">
    <g
       clip-path="url(#clip0)"
       transform="matrix(0.26458333,0,0,0.26458333,-152.6423,163.60665)"
       id="g287">
      <rect
         x="337"
         y="0"
         width="681"
         height="378"
         fill="#ffffff"
         id="rect137" />
      <g
         id="g141">
        <path
           d="m 400.5,257.5 h 596 m -596,-35 h 596 m -596,-35 h 596 m -596,-34 h 596 m -596,-35 h 596 m -596,-34.9999 h 596 m -596,-34 h 596 m -596,-35 h 596"
           stroke="#d9d9d9"
           stroke-linejoin="round"
           stroke-miterlimit="10"
           fill="none"
           id="path139" />
      </g>
      <g
         id="g145">
        <path
           d="M 508.5,14.5001 V 291.5 M 616.5,14.5001 V 291.5 M 725.5,14.5001 V 291.5 M 833.5,14.5001 V 291.5 M 942.5,14.5001 V 291.5"
           stroke="#d9d9d9"
           stroke-linejoin="round"
           stroke-miterlimit="10"
           fill="none"
           id="path143" />
      </g>
      <g
         id="g149">
        <rect
           x="400.5"
           y="14.5001"
           width="596"
           height="277"
           stroke="#000000"
           stroke-linejoin="round"
           stroke-miterlimit="10"
           fill="none"
           id="rect147" />
      </g>
      <g
         id="g153">
        <path
           d="M 0,0 1.04987e-4,277"
           stroke="#000000"
           stroke-linejoin="round"
           stroke-miterlimit="10"
           fill="none"
           fill-rule="evenodd"
           transform="matrix(1,0,0,-1,400.5,291.5)"
           id="path151" />
      </g>
      <g
         id="g157">
        <path
           d="m 400.5,291.5 h 2 m -2,-7 h 2 m -2,-7 h 2 m -2,-7 h 2 m -2,-6 h 2 m -2,-7 h 2 m -2,-7 h 2 m -2,-7 h 2 m -2,-7 h 2 m -2,-7 h 2 m -2,-7 h 2 m -2,-7 h 2 m -2,-7 h 2 m -2,-7 h 2 m -2,-7 h 2 m -2,-7 h 2 m -2,-7 h 2 m -2,-7 h 2 m -2,-6 h 2 m -2,-7 h 2 m -2,-7 h 2 m -2,-7 h 2 m -2,-7 h 2 m -2,-7 h 2 m -2,-7 h 2 m -2,-7 h 2 m -2,-7 h 2 m -2,-7 h 2 m -2,-6.9999 h 2 m -2,-7 h 2 m -2,-7 h 2 m -2,-6.0001 h 2 m -2,-6.9999 h 2 m -2,-7 h 2 m -2,-7 h 2 m -2,-7 h 2 m -2,-7 h 2 m -2,-7 h 2 m -2,-7 h 2 m -2,-7 h 2 m -2,-7 h 2 m -6,276.9999 h 7 m -7,-34 h 7 m -7,-35 h 7 m -7,-35 h 7 m -7,-34 h 7 m -7,-35 h 7 m -7,-34.9999 h 7 m -7,-34 h 7 m -7,-35 h 7"
           stroke="#000000"
           stroke-linejoin="round"
           stroke-miterlimit="10"
           fill="none"
           id="path155" />
      </g>
      <g
         id="g161">
        <path
           d="m 400.5,291.5 h 596"
           stroke="#000000"
           stroke-linejoin="round"
           stroke-miterlimit="10"
           fill="none"
           fill-rule="evenodd"
           id="path159" />
      </g>
      <g
         id="g165">
        <path
           d="m 400.5,289.5 v 2 m 21,-2 v 2 m 22,-2 v 2 m 22,-2 v 2 m 21,-2 v 2 m 22,-2 v 2 m 22,-2 v 2 m 21,-2 v 2 m 22,-2 v 2 m 22,-2 v 2 m 21,-2 v 2 m 22,-2 v 2 m 22,-2 v 2 m 21,-2 v 2 m 22,-2 v 2 m 22,-2 v 2 m 21,-2 v 2 m 22,-2 v 2 m 22,-2 v 2 m 22,-2 v 2 m 21,-2 v 2 m 22,-2 v 2 m 22,-2 v 2 m 21,-2 v 2 m 22,-2 v 2 m 22,-2 v 2 m 21,-2 v 2 m 22,-2 v 2 m -585,-3 v 7 m 108,-7 v 7 m 108,-7 v 7 m 109,-7 v 7 m 108,-7 v 7 m 109,-7 v 7"
           stroke="#000000"
           stroke-linejoin="round"
           stroke-miterlimit="10"
           fill="none"
           id="path163" />
      </g>
      <g
         id="g169">
        <path
           d="m 400,224 h 1 v 0 h 1 1 v 0 h 1 v 0 h 1 1 v 0 h 1 v 0 l 1,1 h 1 v 0 h 1 v 0 h 1 l 1,-1 v 0 h 1 v 0 l 1,-1 h 1 v 0 h 1 v -1 h 1 1 v 0 l 1,-1 v 0 h 1 1 v -1 h 1 v 0 l 1,-1 v 0 h 1 l 1,-1 v 0 h 1 v -1 h 1 l 1,-1 v 0 l 1,-1 v 0 l 1,-1 1,-1 v 0 l 1,-1 v -1 h 1 l 1,-1 v -1 h 1 v -1 l 1,-1 h 1 v -1 l 1,-1 v -1 l 1,-1 1,-1 v -1 l 1,-1 v -1 l 1,-2 1,-1 v -1 l 1,-1 v -1 l 1,-2 1,-1 v -1 l 1,-1 v -2 l 1,-1 1,-1 v -1 l 1,-2 v -1 l 1,-1 v -2 l 1,-1 1,-1 v -2 l 1,-1 v -1 l 1,-2 1,-2 v -2 l 1,-1 v -2 l 1,-2 1,-2 v -2 l 1,-1 v -2 l 1,-2 1,-2 v -2 l 1,-2 v -2 l 1,-2 1,-2 v -2 l 1,-2 v -2 l 1,-2 1,-2 v -3 l 1,-2 v -2 l 1,-2 1,-2 v -2 l 1,-2 v -1 l 1,-2 1,-2 v -2 l 1,-2 v -1 l 1,-2 1,-2 v -2 l 1,-1 v -2 l 1,-2 1,-2 v -1 l 1,-2 v -2 l 1,-2 v -1 l 1,-1 1,-1 v -1 l 1,-2 v -1 l 1,-1 1,-1 v -2 l 1,-1 v 0 l 1,-1 1,-1 v -1 h 1 v -1 l 1,-1 1,-1 v 0 l 1,-1 v 0 h 1 l 1,-1 v 0 h 1 v 0 l 1,-1 h 1 v 0 h 1 v 0 h 1 1 v -1 h 1 v 0 h 1 1 v 0 h 1 v 0 h 1 1 v 0 h 1 v 0 h 1 v 0 h 1 1 v 0 h 1 v 0 h 1 l 1,1 v 0 h 1 v 0 h 1 1 v 0 h 1 v 0 h 1 1 v 0 h 1 v 0 h 1 1 v 0 h 1 v 0 h 1 1 v 0 h 1 v 0 h 1 1 v 0 h 1 v 0 h 1 1 v 0 h 1 v 0 l 1,1 h 1 v 0 h 1 v 0 h 1 1 v 0 h 1 v 0 h 1 v 0 l 1,1 h 1 v 0 h 1 v 0 h 1 1 v 0 h 1 v 0 h 1 1 v 1 h 1 v 0 h 1 1 v 0 h 1 v 0 h 1 1 v 1 h 1 v 0 h 1 1 v 0 h 1 v 1 h 1 1 v 0 h 1 v 0 l 1,1 h 1 v 0 h 1 v 0 h 1 l 1,1 v 0 h 1 v 0 h 1 v 0 h 1 1 v 0 l 1,1 v 0 h 1 1 v 0 l 1,1 v 0 h 1 1 v 1 h 1 v 0 h 1 1 v 0 l 1,1 v 0 h 1 1 v 0 h 1 v 1 h 1 1 v 0 l 1,1 v 0 h 1 1 v 0 l 1,1 v 0 h 1 1 v 0 l 1,1 v 0 h 1 1 v 1 h 1 v 0 h 1 l 1,1 v 0 h 1 v 0 l 1,1 v 0 h 1 1 v 1 h 1 v 0 h 1 l 1,1 v 0 h 1 v 0 l 1,1 h 1 v 0 h 1 v 1 h 1 1 v 0 l 1,1 v 0 h 1 l 1,1 v 0 h 1 v 0 l 1,1 h 1 v 0 l 1,1 v 0 h 1 1 v 1 h 1 v 0 h 1 l 1,1 v 0 h 1 v 0 l 1,1 h 1 v 0 h 1 v 1 h 1 v 0 l 1,1 h 1 v 0 h 1 v 1 h 1 1 v 1 h 1 v 0 h 1 l 1,1 v 0 h 1 v 1 h 1 1 v 0 l 1,1 v 0 h 1 l 1,1 v 0 h 1 v 1 h 1 1 v 0 l 1,1 v 0 h 1 l 1,1 v 0 h 1 v 0 l 1,1 h 1 v 0 h 1 v 1 h 1 1 v 1 h 1 v 0 l 1,1 h 1 v 0 l 1,1 v 0 h 1 v 1 h 1 1 v 0 l 1,1 v 0 h 1 l 1,1 v 0 h 1 v 0 l 1,1 h 1 v 0 l 1,1 v 0 h 1 l 1,1 v 0 h 1 v 1 h 1 1 v 0 l 1,1 v 0 h 1 l 1,1 v 0 h 1 v 1 h 1 1 v 1 h 1 v 0 l 1,1 h 1 v 0 h 1 v 1 h 1 1 v 1 h 1 v 0 l 1,1 v 0 h 1 l 1,1 v 0 h 1 v 0 l 1,1 h 1 v 0 l 1,1 v 0 h 1 l 1,1 v 0 h 1 v 1 h 1 1 v 1 h 1 v 0 h 1 l 1,1 v 0 h 1 v 1 h 1 1 v 1 h 1 v 0 l 1,1 h 1 v 0 l 1,1 v 0 h 1 l 1,1 v 0 h 1 v 0 l 1,1 h 1 v 0 l 1,1 v 0 h 1 l 1,1 v 0 h 1 v 1 h 1 v 0 l 1,1 h 1 v 0 l 1,1 v 0 h 1 l 1,1 v 0 h 1 v 0 l 1,1 h 1 v 0 l 1,1 v 0 h 1 l 1,1 v 0 h 1 v 1 h 1 1 v 1 h 1 v 0 l 1,1 h 1 v 0 l 1,1 v 0 h 1 1 v 1 h 1 v 0 l 1,1 h 1 v 0 l 1,1 v 0 h 1 l 1,1 v 0 h 1 v 1 h 1 v 0 l 1,1 h 1 v 0 l 1,1 v 0 h 1 l 1,1 v 0 h 1 v 1 h 1 1 v 1 h 1 v 0 h 1 l 1,1 v 0 h 1 v 1 h 1 1 v 1 h 1 v 0 l 1,1 h 1 v 0 l 1,1 v 0 h 1 l 1,1 v 0 h 1 v 1 h 1 1 v 1 h 1 v 0 l 1,1 h 1 v 0 l 1,1 v 0 h 1 l 1,1 v 0 h 1 v 0 l 1,1 v 0 h 1 l 1,1 v 0 h 1 v 1 h 1 1 v 1 h 1 v 0 l 1,1 h 1 v 0 l 1,1 v 0 h 1 l 1,1 v 0 h 1 v 1 h 1 1 v 1 h 1 v 0 l 1,1 h 1 v 0 l 1,1 v 0 h 1 l 1,1 v 0 h 1 v 1 h 1 1 v 1 h 1 v 0 h 1 l 1,1 v 0 h 1 v 1 h 1 1 v 1 h 1 v 0 l 1,1 v 0 h 1 l 1,1 v 0 h 1 v 1 h 1 1 v 1 h 1 v 0 l 1,1 h 1 v 0 l 1,1 v 0 h 1 l 1,1 v 0 h 1 v 1 h 1 1 v 1 h 1 v 0 l 1,1 h 1 v 0 l 1,1 v 0 h 1 l 1,1 v 0 h 1 v 1 h 1 1 v 1 h 1 v 0 h 1 l 1,1 v 0 h 1 v 1 h 1 v 0 l 1,1 h 1 v 0 l 1,1 v 0 h 1 l 1,1 v 0 h 1 v 1 h 1 1 v 1 h 1 v 0 l 1,1 h 1 v 0 l 1,1 v 0 h 1 l 1,1 v 0 h 1 v 1 h 1 1 v 1 h 1 v 0 l 1,1 h 1 v 0 l 1,1 v 0 h 1 l 1,1 v 0 h 1 v 1 h 1 1 v 1 h 1 v 0 l 1,1 h 1 v 0 l 1,1 v 0 h 1 v 1 h 1 1 v 1 h 1 v 0 l 1,1 h 1 v 0 l 1,1 v 0 h 1 1 v 1 h 1 v 0 l 1,1 h 1 v 0 l 1,1 v 0 h 1 l 1,1 v 0 h 1 v 1 h 1 1 v 1 h 1 v 0 l 1,1 h 1 v 0 l 1,1 v 0 h 1 l 1,1 v 0 h 1 v 1 h 1 1 v 1 h 1 v 0 l 1,1 v 0 h 1 l 1,1 v 0 h 1 v 1 h 1 1 v 1 h 1 v 0 l 1,1 h 1 v 0 l 1,1 v 0 h 1 l 1,1 v 0 h 1 v 1 h 1 1 v 1 h 1 v 0 l 1,1 h 1 v 0 l 1,1 v 0 h 1 l 1,1 v 0 h 1 v 1 h 1 1 v 1 h 1 v 0 l 1,1 h 1 v 0 l 1,1 v 0 h 1 1 v 1 h 1 v 0 l 1,1 v 0 h 1 l 1,1 v 0 h 1 v 1 h 1 1 v 1 h 1 v 0 l 1,1 h 1 v 0 l 1,1 v 0 h 1 l 1,1 v 0 h 1 v 1 h 1 1 v 1 h 1 v 0 l 1,1 h 1 v 0 l 1,1 v 0 h 1 l 1,1 v 0 h 1 v 1 h 1 1 v 1 h 1 v 0 l 1,1 h 1 v 0 l 1,1 v 0 h 1 v 1 h 1 1 v 1 h 1 v 0 l 1,1 h 1 v 0 l 1,1 v 0 h 1 l 1,1 v 0 h 1 v 1 h 1 1 v 1 h 1 v 0 l 1,1 h 1 v 0 l 1,1 v 0 h 1 l 1,1 v 0 h 1 v 1 h 1 1 v 1 h 1 v 0 l 1,1 h 1 v 0 l 1,1 v 0 h 1 l 1,1 v 0 h 1 v 1 h 1 1 v 0 l 1,1 v 0 h 1 v 1 h 1 1 v 1 h 1 v 0 l 1,1 h 1 v 0 l 1,1 v 0 h 1 l 1,1 v 0 h 1 v 1 h 1 1 v 1"
           stroke="#ed7d31"
           stroke-width="2"
           stroke-linecap="round"
           stroke-linejoin="round"
           stroke-miterlimit="10"
           fill="none"
           id="path167" />
      </g>
      <g
         id="g173">
        <path
           d="m 400,184 1,3 v 3 l 1,3 1,3 v 2 l 1,3 v 3 l 1,3 1,3 v 1 l 1,2 v 1 l 1,1 1,2 v 1 l 1,1 v 2 l 1,1 h 1 v -1 l 1,-1 v 0 l 1,-1 h 1 v -1 l 1,-1 v 0 l 1,-1 h 1 v 0 l 1,-1 v 0 h 1 l 1,-1 v 0 h 1 v 0 h 1 v 0 h 1 1 v 0 h 1 v 0 h 1 l 1,-1 v -2 l 1,-1 v -2 l 1,-1 1,-1 v -2 l 1,-1 v -2 h 1 1 v 0 h 1 v 0 l 1,1 h 1 v 0 h 1 v -1 l 1,-3 1,-2 v -3 l 1,-3 v -3 l 1,-2 1,-3 v -3 l 1,-2 v 0 l 1,-1 h 1 v -1 h 1 v -1 h 1 l 1,-1 v 0 l 1,-2 v -2 l 1,-1 v -2 l 1,-2 1,-1 v -2 l 1,-2 v -1 l 1,-2 1,-1 v -2 l 1,-1 v -1 l 1,-2 1,-1 v -2 l 1,-1 v -1 l 1,-2 1,-1 v -1 l 1,-1 v -1 l 1,-2 1,-1 v -1 l 1,-2 v -1 l 1,-1 1,-2 v -1 l 1,-1 v -2 l 1,-1 1,-2 v -1 l 1,-1 v -1 l 1,-1 1,-1 v -2 l 1,-1 v -1 l 1,-1 1,-1 v -1 l 1,-1 v -1 l 1,-1 1,-1 v -1 l 1,-1 v -1 l 1,-2 v 0 l 1,-1 1,-1 v 0 l 1,-1 v -1 l 1,-1 h 1 v -1 l 1,-1 v 0 l 1,-1 1,-1 v -1 h 1 v -1 l 1,-1 h 1 v -1 l 1,-1 v 0 l 1,-1 h 1 v -1 l 1,-1 v 0 l 1,-1 h 1 v -1 h 1 v -1 l 1,-1 h 1 v -1 h 1 v -1 h 1 l 1,-1 v 0 l 1,-1 v 0 l 1,-1 h 1 v 0 l 1,-1 v 0 l 1,-1 v 0 h 1 1 v -1 h 1 v 0 h 1 l 1,-1 v 0 h 1 v -1 h 1 l 1,-1 v 0 h 1 v -1 h 1 l 1,-1 v 0 h 1 v 0 h 1 1 v 0 l 1,-1 v 0 h 1 1 v 0 h 1 v 0 h 1 1 v 0 h 1 v 0 h 1 l 1,-1 v 0 h 1 v 0 h 1 1 v 0 l 1,-1 v 0 h 1 1 v 0 h 1 v 0 h 1 v 0 h 1 1 v 0 h 1 v 1 h 1 1 v 0 h 1 v 0 h 1 1 v 0 h 1 v 0 h 1 l 1,1 v 0 h 1 v 0 h 1 1 v 0 l 1,1 v 0 h 1 1 v 0 h 1 v 0 l 1,1 h 1 v 0 h 1 v 0 h 1 l 1,1 v 0 h 1 v 0 h 1 1 v 1 h 1 v 0 h 1 v 0 h 1 l 1,1 v 0 h 1 v 0 h 1 l 1,1 v 0 h 1 v 0 h 1 l 1,1 v 0 h 1 v 0 h 1 l 1,1 v 0 h 1 v 0 h 1 l 1,1 v 0 h 1 v 0 h 1 l 1,1 v 0 h 1 v 0 l 1,1 h 1 v 0 h 1 v 1 h 1 1 v 0 h 1 v 1 h 1 1 v 0 l 1,1 v 0 h 1 1 v 1 h 1 v 0 h 1 v 1 h 1 1 v 0 l 1,1 v 0 h 1 l 1,1 v 0 h 1 v 0 l 1,1 h 1 v 0 h 1 v 1 h 1 1 v 0 l 1,1 v 0 h 1 1 v 1 h 1 v 0 l 1,1 h 1 v 0 h 1 v 1 h 1 1 v 0 l 1,1 v 0 h 1 l 1,1 v 0 h 1 v 0 l 1,1 h 1 v 0 h 1 v 1 h 1 v 0 l 1,1 h 1 v 0 h 1 v 1 h 1 1 v 1 h 1 v 0 h 1 l 1,1 v 0 h 1 v 1 h 1 1 v 0 l 1,1 v 0 h 1 l 1,1 v 0 h 1 v 0 l 1,1 h 1 v 0 l 1,1 v 0 h 1 l 1,1 v 0 h 1 v 0 l 1,1 h 1 v 0 l 1,1 v 0 h 1 l 1,1 v 0 h 1 v 0 l 1,1 h 1 v 0 l 1,1 v 0 h 1 v 1 h 1 1 v 0 l 1,1 v 0 h 1 l 1,1 v 0 h 1 v 1 h 1 1 v 0 l 1,1 v 0 h 1 l 1,1 v 0 h 1 v 1 h 1 1 v 0 l 1,1 v 0 h 1 l 1,1 v 0 h 1 v 1 h 1 1 v 1 h 1 v 0 h 1 l 1,1 v 0 h 1 v 1 h 1 1 v 1 h 1 v 0 l 1,1 v 0 h 1 1 v 1 h 1 v 0 l 1,1 h 1 v 0 l 1,1 v 0 h 1 l 1,1 v 0 h 1 v 1 h 1 1 v 0 l 1,1 v 0 h 1 l 1,1 v 0 h 1 v 1 h 1 1 v 1 h 1 v 0 l 1,1 h 1 v 0 l 1,1 v 0 h 1 1 v 1 h 1 v 0 l 1,1 h 1 v 0 l 1,1 v 0 h 1 l 1,1 v 0 h 1 v 1 h 1 v 0 l 1,1 h 1 v 0 l 1,1 v 0 h 1 1 v 1 h 1 v 0 l 1,1 h 1 v 0 l 1,1 v 0 h 1 l 1,1 v 0 h 1 v 1 h 1 1 v 1 h 1 v 0 l 1,1 h 1 v 0 l 1,1 v 0 h 1 1 v 1 h 1 v 0 l 1,1 h 1 v 0 l 1,1 v 0 h 1 l 1,1 v 0 h 1 v 1 h 1 v 0 l 1,1 h 1 v 0 l 1,1 v 0 h 1 l 1,1 v 0 h 1 v 1 h 1 1 v 1 h 1 v 0 h 1 l 1,1 v 0 h 1 v 1 h 1 1 v 1 h 1 v 0 l 1,1 h 1 v 0 l 1,1 v 0 h 1 l 1,1 v 0 h 1 v 1 h 1 1 v 1 h 1 v 0 l 1,1 h 1 v 0 l 1,1 v 0 h 1 l 1,1 v 0 h 1 v 0 l 1,1 v 0 h 1 l 1,1 v 0 h 1 v 1 h 1 1 v 1 h 1 v 0 l 1,1 h 1 v 0 l 1,1 v 0 h 1 l 1,1 v 0 h 1 v 1 h 1 1 v 1 h 1 v 0 l 1,1 h 1 v 0 l 1,1 v 0 h 1 l 1,1 v 0 h 1 v 1 h 1 1 v 1 h 1 v 0 h 1 l 1,1 v 0 h 1 v 1 h 1 1 v 1 h 1 v 0 l 1,1 v 0 h 1 l 1,1 v 0 h 1 v 1 h 1 1 v 1 h 1 v 0 l 1,1 h 1 v 0 l 1,1 v 0 h 1 l 1,1 v 0 h 1 v 1 h 1 1 v 1 h 1 v 0 l 1,1 h 1 v 0 l 1,1 v 0 h 1 l 1,1 v 0 h 1 v 1 h 1 1 v 1 h 1 v 0 h 1 l 1,1 v 0 h 1 v 1 h 1 v 0 l 1,1 h 1 v 0 l 1,1 v 0 h 1 l 1,1 v 0 h 1 v 1 h 1 1 v 1 h 1 v 0 l 1,1 h 1 v 0 l 1,1 v 0 h 1 l 1,1 v 0 h 1 v 1 h 1 1 v 1 h 1 v 0 l 1,1 h 1 v 0 l 1,1 v 0 h 1 l 1,1 v 0 h 1 v 1 h 1 1 v 1 h 1 v 0 l 1,1 h 1 v 0 l 1,1 v 0 h 1 v 1 h 1 1 v 1 h 1 v 0 l 1,1 h 1 v 0 h 1 v 1 h 1 1 v 1 h 1 v 0 l 1,1 h 1 v 0 l 1,1 v 0 h 1 l 1,1 v 0 h 1 v 1 h 1 1 v 1 h 1 v 0 l 1,1 h 1 v 0 l 1,1 v 0 h 1 l 1,1 v 0 h 1 v 1 h 1 1 v 1 h 1 v 0 l 1,1 v 0 h 1 l 1,1 v 0 h 1 v 1 h 1 1 v 1 h 1 v 0 l 1,1 h 1 v 0 l 1,1 v 0 h 1 l 1,1 v 0 h 1 v 1 h 1 1 v 1 h 1 v 0 l 1,1 h 1 v 0 l 1,1 v 0 h 1 l 1,1 v 0 h 1 v 1 h 1 1 v 1 h 1 v 0 l 1,1 h 1 v 0 l 1,1 v 0 h 1 1 v 1 h 1 v 0 l 1,1 v 0 h 1 l 1,1 v 0 h 1 v 1 h 1 1 v 1 h 1 v 0 l 1,1 h 1 v 0 l 1,1 v 0 h 1 l 1,1 v 0 h 1 v 1 h 1 1 v 1 h 1 v 0 l 1,1 h 1 v 0 l 1,1 v 0 h 1 l 1,1 v 0 h 1 v 1 h 1 1 v 1 h 1 v 0 l 1,1 h 1 v 0 l 1,1 v 0 h 1 v 1 h 1 1 v 1 h 1 v 0 l 1,1 h 1 v 0 l 1,1 v 0 h 1 l 1,1 v 0 h 1 v 1 h 1 1 v 1 h 1 v 0 l 1,1 h 1 v 0 l 1,1 v 0 h 1 l 1,1 v 0 h 1 v 1 h 1 1 v 1 h 1 v 0 l 1,1 h 1 v 0 l 1,1 v 0 h 1 l 1,1 v 0 h 1 v 1 h 1 1 v 1 h 1 v 0 h 1 v 1 h 1 1 v 1 h 1 v 0 l 1,1 h 1 v 0 l 1,1 v 0 h 1 l 1,1 v 0 h 1 v 1 h 1 1 v 1"
           stroke="#ed7d31"
           stroke-width="2"
           stroke-linecap="round"
           stroke-linejoin="round"
           stroke-miterlimit="10"
           stroke-dasharray="4, 4"
           fill="none"
           id="path171" />
      </g>
      <g
         id="g177">
        <path
           d="m 400,219 h 1 v 0 h 1 1 v 0 h 1 v 0 h 1 1 v 0 h 1 v 0 h 1 1 v 0 h 1 v -1 h 1 1 v 0 h 1 v 0 h 1 1 v 0 h 1 v -1 h 1 1 v 0 h 1 v -1 h 1 1 v -1 h 1 v -1 h 1 v 0 h 1 l 1,-1 v 0 l 1,-1 v 0 l 1,-1 h 1 v -1 h 1 v -1 h 1 l 1,-1 v 0 l 1,-1 v 0 l 1,-1 1,-1 v 0 l 1,-1 v -1 h 1 l 1,-1 v -1 l 1,-1 v 0 l 1,-1 1,-1 v -1 l 1,-1 v 0 l 1,-1 1,-1 v -1 l 1,-1 v -1 l 1,-1 1,-1 v -1 l 1,-1 v -1 l 1,-1 1,-1 v -2 l 1,-1 v -1 l 1,-1 v -1 l 1,-1 1,-1 v -2 l 1,-1 v -1 l 1,-2 1,-1 v -1 l 1,-1 v -2 l 1,-1 1,-2 v -1 l 1,-1 v -2 l 1,-2 1,-1 v -2 l 1,-2 v -1 l 1,-2 1,-2 v -2 l 1,-1 v -2 l 1,-2 1,-2 v -2 l 1,-2 v -1 l 1,-2 1,-2 v -1 l 1,-2 v -2 l 1,-1 1,-2 v -2 l 1,-2 v -1 l 1,-2 1,-2 v -2 l 1,-2 v -2 l 1,-1 1,-2 v -2 l 1,-2 v -2 l 1,-1 v -2 l 1,-2 1,-1 v -2 l 1,-1 v -2 l 1,-1 1,-2 v -1 l 1,-2 v -2 l 1,-1 1,-2 v -1 l 1,-1 v -1 l 1,-2 1,-1 v 0 l 1,-2 v 0 l 1,-1 1,-1 v -1 h 1 v -1 h 1 1 v -1 h 1 v 0 l 1,-1 h 1 v 0 h 1 v 0 h 1 1 v -1 h 1 v 0 h 1 1 v 0 h 1 v 0 h 1 v 0 h 1 1 v 0 h 1 v 0 h 1 1 v 0 h 1 v 0 h 1 1 v 0 h 1 v 0 h 1 1 v 0 h 1 v 1 h 1 1 v 0 h 1 v 0 h 1 1 v 0 l 1,1 v 0 h 1 1 v 0 h 1 v 0 h 1 1 v 0 l 1,1 v 0 h 1 1 v 0 h 1 v 0 h 1 1 v 0 h 1 v 0 h 1 v 1 h 1 1 v 0 h 1 v 0 h 1 1 v 0 h 1 v 1 h 1 1 v 0 h 1 v 0 h 1 1 v 0 h 1 v 1 h 1 1 v 0 h 1 v 0 h 1 l 1,1 v 0 h 1 v 0 h 1 1 v 0 l 1,1 v 0 h 1 1 v 0 h 1 v 0 l 1,1 h 1 v 0 h 1 v 0 h 1 v 1 h 1 1 v 0 h 1 v 0 l 1,1 h 1 v 0 h 1 v 0 h 1 l 1,1 v 0 h 1 v 0 h 1 l 1,1 v 0 h 1 v 0 h 1 l 1,1 v 0 h 1 v 0 h 1 l 1,1 v 0 h 1 v 0 h 1 l 1,1 v 0 h 1 v 0 l 1,1 h 1 v 0 h 1 v 1 h 1 1 v 0 l 1,1 v 0 h 1 1 v 1 h 1 v 0 h 1 v 1 h 1 1 v 0 l 1,1 v 0 h 1 1 v 1 h 1 v 0 h 1 l 1,1 v 0 h 1 v 1 h 1 1 v 0 l 1,1 v 0 h 1 1 v 1 h 1 v 0 h 1 l 1,1 v 0 h 1 v 1 h 1 1 v 0 l 1,1 v 0 h 1 1 v 1 h 1 v 0 l 1,1 h 1 v 0 h 1 v 1 h 1 v 0 l 1,1 h 1 v 0 h 1 v 1 h 1 1 v 1 h 1 v 0 h 1 l 1,1 v 0 h 1 v 1 h 1 1 v 1 h 1 v 0 h 1 l 1,1 v 0 h 1 v 1 h 1 1 v 0 l 1,1 v 0 h 1 l 1,1 v 0 h 1 v 0 l 1,1 h 1 v 0 l 1,1 v 0 h 1 l 1,1 v 0 h 1 v 0 l 1,1 h 1 v 0 l 1,1 v 0 h 1 v 1 h 1 1 v 1 h 1 v 0 h 1 l 1,1 v 0 h 1 v 1 h 1 1 v 1 h 1 v 0 l 1,1 h 1 v 0 l 1,1 v 0 h 1 1 v 1 h 1 v 0 l 1,1 h 1 v 0 l 1,1 v 0 h 1 l 1,1 v 0 h 1 v 0 l 1,1 h 1 v 0 l 1,1 v 0 h 1 l 1,1 v 0 h 1 v 1 h 1 v 0 l 1,1 h 1 v 0 h 1 v 1 h 1 1 v 1 h 1 v 0 l 1,1 h 1 v 0 l 1,1 v 0 h 1 l 1,1 v 0 h 1 v 1 h 1 1 v 0 l 1,1 v 0 h 1 l 1,1 v 0 h 1 v 1 h 1 1 v 1 h 1 v 0 l 1,1 h 1 v 0 l 1,1 v 0 h 1 l 1,1 v 0 h 1 v 0 l 1,1 h 1 v 0 l 1,1 v 0 h 1 v 1 h 1 1 v 1 h 1 v 0 l 1,1 h 1 v 0 l 1,1 v 0 h 1 l 1,1 v 0 h 1 v 1 h 1 1 v 1 h 1 v 0 l 1,1 h 1 v 0 h 1 v 1 h 1 1 v 1 h 1 v 0 l 1,1 h 1 v 0 l 1,1 v 0 h 1 l 1,1 v 0 h 1 v 1 h 1 1 v 1 h 1 v 0 l 1,1 v 0 h 1 l 1,1 v 0 h 1 v 1 h 1 1 v 0 l 1,1 v 0 l 1,1 h 1 v 0 h 1 v 1 h 1 1 v 1 h 1 v 0 l 1,1 h 1 v 0 l 1,1 v 0 h 1 l 1,1 v 0 h 1 v 1 h 1 1 v 1 h 1 v 0 l 1,1 h 1 v 0 l 1,1 v 0 h 1 l 1,1 v 0 h 1 v 1 h 1 1 v 0 l 1,1 v 0 h 1 v 1 h 1 1 v 1 h 1 v 0 l 1,1 h 1 v 0 l 1,1 v 0 h 1 l 1,1 v 0 h 1 v 1 h 1 1 v 1 h 1 v 0 l 1,1 h 1 v 0 l 1,1 v 0 h 1 l 1,1 v 0 h 1 v 1 h 1 1 v 1 h 1 v 0 l 1,1 h 1 v 0 h 1 v 1 h 1 1 v 1 h 1 v 0 l 1,1 h 1 v 1 h 1 v 0 l 1,1 v 0 h 1 1 v 1 h 1 v 0 l 1,1 h 1 v 0 l 1,1 v 0 h 1 l 1,1 v 0 h 1 v 1 h 1 1 v 1 h 1 v 0 l 1,1 h 1 v 0 l 1,1 v 0 h 1 l 1,1 v 0 h 1 v 1 h 1 1 v 1 h 1 v 0 l 1,1 h 1 v 0 l 1,1 v 0 h 1 l 1,1 v 0 h 1 v 1 h 1 v 0 l 1,1 h 1 v 0 h 1 v 1 h 1 1 v 1 h 1 v 1 h 1 1 v 1 h 1 v 0 h 1 l 1,1 v 0 h 1 v 1 h 1 1 v 1 h 1 v 0 l 1,1 h 1 v 0 l 1,1 v 0 h 1 l 1,1 v 0 h 1 v 1 h 1 1 v 1 h 1 v 0 l 1,1 h 1 v 0 l 1,1 v 0 h 1 l 1,1 v 0 h 1 v 1 h 1 v 0 l 1,1 h 1 v 0 l 1,1 v 0 h 1 l 1,1 v 0 h 1 v 1 h 1 1 v 1 h 1 v 0 l 1,1 h 1 v 0 l 1,1 v 0 h 1 l 1,1 v 0 h 1 v 1 h 1 1 v 1 h 1 v 0 l 1,1 h 1 v 0 h 1 v 1 h 1 1 v 1 h 1 v 1 h 1 1 v 1 h 1 v 0 l 1,1 v 0 h 1 1 v 1 h 1 v 0 l 1,1 h 1 v 0 l 1,1 v 0 h 1 l 1,1 v 0 h 1 v 1 h 1 1 v 1 h 1 v 0 l 1,1 h 1 v 0 l 1,1 v 0 h 1 l 1,1 v 0 h 1 v 1 h 1 1 v 1 h 1 v 0 l 1,1 h 1 v 0 l 1,1 v 0 h 1 l 1,1 v 0 h 1 v 1 h 1 1 v 1 h 1 v 0 l 1,1 v 0 h 1 l 1,1 v 0 h 1 v 1 h 1 1 v 1 h 1 v 0 l 1,1 h 1 v 0 l 1,1 v 0 h 1 1 v 1 h 1 v 0 l 1,1 h 1 v 1 h 1 v 0 l 1,1 h 1 v 0 l 1,1 v 0 h 1 l 1,1 v 0 h 1 v 0 l 1,1 h 1 v 0 l 1,1 v 0 h 1 l 1,1 v 0 h 1 v 1 h 1 v 0 l 1,1 h 1 v 0 l 1,1 v 0 h 1 l 1,1 v 0 h 1 v 1 h 1 1 v 1 h 1 v 0 l 1,1 h 1 v 0 l 1,1 v 0 h 1 l 1,1 v 0 h 1 v 1 h 1 1 v 1 h 1 v 0 l 1,1 h 1 v 0 l 1,1 v 0 h 1 l 1,1 v 0 h 1 v 1 h 1 1 v 1 h 1 v 0 l 1,1 h 1 v 0 l 1,1 v 0 h 1 v 1 h 1 1 v 1 h 1 v 0 l 1,1 h 1 v 0 l 1,1 v 0 h 1 l 1,1 v 0 h 1 v 0 l 1,1 h 1 v 0"
           stroke="#4472c4"
           stroke-width="2"
           stroke-linecap="round"
           stroke-linejoin="round"
           stroke-miterlimit="10"
           fill="none"
           id="path175" />
      </g>
      <g
         id="g181">
        <path
           d="m 400,191 h 1 v 1 l 1,1 1,1 v 1 l 1,1 v 2 l 1,1 1,2 v 2 l 1,1 v 1 l 1,2 1,1 v 1 l 1,1 v 1 h 1 l 1,1 v 0 h 1 v 1 h 1 1 v 0 l 1,-1 v 0 h 1 1 v 0 h 1 v -1 h 1 l 1,-1 v 0 l 1,-1 v 0 h 1 v 0 l 1,-1 h 1 v 0 h 1 v -1 h 1 1 v -1 h 1 v -1 h 1 l 1,-1 v -1 l 1,-1 v 0 l 1,-1 1,-1 v -1 h 1 v -1 l 1,-1 1,-1 v -1 h 1 v -1 l 1,-2 1,-1 v -1 l 1,-1 v -1 l 1,-1 1,-1 v -2 l 1,-1 v -1 l 1,-1 1,-1 v -1 l 1,-2 v -1 l 1,-2 1,-2 v -1 l 1,-1 v -1 l 1,-1 v -1 l 1,-1 1,-1 v -1 l 1,-1 v -1 l 1,-1 1,-1 v -1 l 1,-2 v -1 l 1,-1 1,-2 v -1 l 1,-2 v -2 l 1,-1 1,-2 v -2 l 1,-1 v -2 l 1,-2 1,-1 v -2 l 1,-1 v -2 l 1,-1 1,-1 v -1 l 1,-2 v -1 l 1,-1 1,-1 v -1 l 1,-1 v -1 l 1,-1 1,-1 v -1 l 1,-2 v -1 l 1,-1 1,-2 v -1 l 1,-1 v -1 l 1,-1 1,-1 v -1 l 1,-1 v -1 l 1,-1 v -1 l 1,-1 1,-1 v 0 l 1,-1 v -1 l 1,-1 1,-1 v -1 h 1 v -1 l 1,-1 1,-1 v 0 l 1,-1 v -1 l 1,-1 1,-1 v 0 l 1,-1 v -1 h 1 l 1,-1 v 0 l 1,-1 v -1 h 1 l 1,-1 v 0 l 1,-1 v -1 h 1 l 1,-1 v 0 l 1,-1 v 0 l 1,-1 h 1 v -1 h 1 v -1 h 1 l 1,-1 v 0 l 1,-1 v 0 h 1 v -1 h 1 1 v -1 h 1 v -1 h 1 1 v -1 h 1 v 0 l 1,-1 h 1 v -1 h 1 v 0 h 1 l 1,-1 v 0 h 1 v 0 l 1,-1 h 1 v 0 h 1 v 0 h 1 l 1,-1 v 0 h 1 v 0 h 1 1 v 0 l 1,-1 v 0 h 1 1 v 0 h 1 v 0 l 1,-1 h 1 v 0 h 1 v 0 h 1 1 v 0 h 1 v 0 h 1 v 0 h 1 1 v 0 h 1 v 0 h 1 1 v 0 h 1 v 0 h 1 1 v 0 l 1,1 v 0 h 1 1 v 0 h 1 v 0 l 1,1 h 1 v 0 h 1 v 0 h 1 1 v 1 h 1 v 0 h 1 1 v 0 l 1,1 v 0 h 1 1 v 0 h 1 v 1 h 1 1 v 0 h 1 v 0 l 1,1 v 0 h 1 1 v 0 l 1,1 v 0 h 1 1 v 0 h 1 v 1 h 1 1 v 0 h 1 v 1 h 1 1 v 0 l 1,1 v 0 h 1 1 v 0 l 1,1 v 0 h 1 1 v 0 l 1,1 v 0 h 1 1 v 1 h 1 v 0 h 1 l 1,1 v 0 h 1 v 0 l 1,1 h 1 v 0 h 1 v 1 h 1 1 v 0 l 1,1 v 0 h 1 v 0 l 1,1 h 1 v 0 h 1 v 1 h 1 1 v 0 l 1,1 v 0 h 1 l 1,1 v 0 h 1 v 0 l 1,1 h 1 v 0 h 1 v 1 h 1 1 v 0 l 1,1 v 0 h 1 l 1,1 v 0 h 1 v 0 l 1,1 h 1 v 0 l 1,1 v 0 h 1 1 v 1 h 1 v 0 l 1,1 h 1 v 0 h 1 v 1 h 1 v 0 l 1,1 h 1 v 0 h 1 v 1 h 1 1 v 1 h 1 v 0 h 1 l 1,1 v 0 h 1 v 1 h 1 1 v 0 l 1,1 v 0 h 1 l 1,1 v 0 h 1 v 0 l 1,1 h 1 v 0 l 1,1 v 0 h 1 l 1,1 v 0 h 1 v 1 h 1 1 v 0 l 1,1 v 0 h 1 l 1,1 v 0 h 1 v 1 h 1 1 v 0 l 1,1 v 0 h 1 v 1 h 1 1 v 1 h 1 v 0 h 1 l 1,1 v 0 h 1 v 1 h 1 1 v 1 h 1 v 0 l 1,1 h 1 v 0 h 1 v 1 h 1 1 v 1 h 1 v 0 l 1,1 h 1 v 0 l 1,1 v 0 h 1 l 1,1 v 0 h 1 v 0 l 1,1 h 1 v 0 l 1,1 v 0 h 1 l 1,1 v 0 h 1 v 1 h 1 v 0 h 1 l 1,1 v 0 h 1 v 1 h 1 1 v 1 h 1 v 0 l 1,1 h 1 v 0 l 1,1 v 0 h 1 l 1,1 v 0 h 1 v 1 h 1 1 v 0 l 1,1 v 0 h 1 l 1,1 v 0 h 1 v 1 h 1 1 v 1 h 1 v 0 l 1,1 h 1 v 0 l 1,1 v 0 h 1 l 1,1 v 0 h 1 v 0 l 1,1 h 1 v 0 l 1,1 v 0 h 1 v 1 h 1 1 v 1 h 1 v 0 l 1,1 h 1 v 0 l 1,1 v 0 h 1 l 1,1 v 0 h 1 v 1 h 1 1 v 1 h 1 v 0 l 1,1 h 1 v 0 h 1 v 1 h 1 1 v 1 h 1 v 0 l 1,1 h 1 v 0 l 1,1 v 0 h 1 l 1,1 v 0 h 1 v 1 h 1 1 v 1 h 1 v 0 l 1,1 v 0 h 1 l 1,1 v 0 h 1 v 0 l 1,1 h 1 v 0 l 1,1 v 0 h 1 l 1,1 v 0 h 1 v 1 h 1 1 v 1 h 1 v 0 l 1,1 h 1 v 0 l 1,1 v 0 h 1 l 1,1 v 0 h 1 v 1 h 1 1 v 1 h 1 v 0 l 1,1 h 1 v 0 l 1,1 v 0 h 1 l 1,1 v 0 h 1 v 1 h 1 1 v 0 l 1,1 v 0 h 1 v 1 h 1 1 v 1 h 1 v 0 l 1,1 h 1 v 0 l 1,1 v 0 h 1 l 1,1 v 0 h 1 v 1 h 1 1 v 1 h 1 v 0 l 1,1 h 1 v 0 l 1,1 v 0 h 1 l 1,1 v 0 h 1 v 1 h 1 1 v 1 h 1 v 0 l 1,1 h 1 v 0 h 1 v 1 h 1 1 v 1 h 1 v 0 l 1,1 h 1 v 0 l 1,1 v 0 l 1,1 v 0 h 1 1 v 1 h 1 v 0 l 1,1 h 1 v 0 l 1,1 v 0 h 1 l 1,1 v 0 h 1 v 1 h 1 1 v 1 h 1 v 0 l 1,1 h 1 v 0 l 1,1 v 0 h 1 l 1,1 v 0 h 1 v 1 h 1 1 v 1 h 1 v 0 l 1,1 h 1 v 0 l 1,1 v 0 h 1 l 1,1 v 0 h 1 v 1 h 1 v 0 l 1,1 h 1 v 0 l 1,1 v 0 h 1 l 1,1 v 0 h 1 v 1 h 1 1 v 1 h 1 v 0 h 1 l 1,1 v 0 h 1 v 1 h 1 1 v 1 h 1 v 0 l 1,1 h 1 v 0 l 1,1 v 0 h 1 l 1,1 v 0 h 1 v 1 h 1 1 v 1 h 1 v 0 l 1,1 h 1 v 0 l 1,1 v 0 h 1 l 1,1 v 0 h 1 v 1 h 1 v 0 l 1,1 h 1 v 0 l 1,1 v 0 h 1 l 1,1 v 0 h 1 v 1 h 1 1 v 1 h 1 v 0 l 1,1 h 1 v 0 l 1,1 v 0 h 1 l 1,1 v 0 h 1 v 1 h 1 1 v 1 h 1 v 0 l 1,1 h 1 v 0 h 1 v 1 h 1 1 v 1 h 1 v 1 h 1 1 v 1 h 1 v 0 l 1,1 v 0 h 1 1 v 1 h 1 v 0 l 1,1 h 1 v 0 l 1,1 v 0 h 1 l 1,1 v 0 h 1 v 1 h 1 1 v 1 h 1 v 0 l 1,1 h 1 v 0 l 1,1 v 0 h 1 l 1,1 v 0 h 1 v 1 h 1 1 v 1 h 1 v 0 l 1,1 h 1 v 0 l 1,1 v 0 h 1 l 1,1 v 0 h 1 v 1 h 1 1 v 1 h 1 v 0 l 1,1 v 0 h 1 l 1,1 v 0 h 1 v 1 h 1 1 v 1 h 1 v 0 l 1,1 h 1 v 0 h 1 v 1 h 1 1 v 1 h 1 v 0 l 1,1 h 1 v 1 h 1 v 0 l 1,1 h 1 v 0 l 1,1 v 0 h 1 1 v 1 h 1 v 0 l 1,1 h 1 v 0 l 1,1 v 0 h 1 l 1,1 v 0 h 1 v 1 h 1 v 0 l 1,1 h 1 v 0 l 1,1 v 0 h 1 l 1,1 v 0 h 1 v 1 h 1 1 v 1 h 1 v 0 l 1,1 h 1 v 0 l 1,1 v 0 h 1 l 1,1 v 0 h 1 v 1 h 1 1 v 1 h 1 v 0 l 1,1 h 1 v 0 l 1,1 v 0 h 1 l 1,1 v 0 h 1 v 1 h 1 1 v 1 h 1 v 0 l 1,1 h 1 v 0 l 1,1 v 0 h 1 v 1 h 1 1 v 1 h 1 v 0 l 1,1 h 1 v 0 l 1,1 v 0 h 1 l 1,1 v 0 h 1 v 0 l 1,1 h 1 v 0"
           stroke="#4472c4"
           stroke-width="2"
           stroke-linecap="round"
           stroke-linejoin="round"
           stroke-miterlimit="10"
           stroke-dasharray="4, 4"
           fill="none"
           id="path179" />
      </g>
      <g
         id="g185">
        <text
           font-family="Arial, Arial_MSFontService, sans-serif"
           font-weight="400"
           font-size="12px"
           transform="translate(373.238,296)"
           id="text183">0.0</text>
      </g>
      <g
         id="g189">
        <text
           font-family="Arial, Arial_MSFontService, sans-serif"
           font-weight="400"
           font-size="12px"
           transform="translate(373.238,261)"
           id="text187">0.1</text>
      </g>
      <g
         id="g193">
        <text
           font-family="Arial, Arial_MSFontService, sans-serif"
           font-weight="400"
           font-size="12px"
           transform="translate(373.238,226)"
           id="text191">0.1</text>
      </g>
      <g
         id="g197">
        <text
           font-family="Arial, Arial_MSFontService, sans-serif"
           font-weight="400"
           font-size="12px"
           transform="translate(373.238,192)"
           id="text195">0.2</text>
      </g>
      <g
         id="g201">
        <text
           font-family="Arial, Arial_MSFontService, sans-serif"
           font-weight="400"
           font-size="12px"
           transform="translate(373.238,157)"
           id="text199">0.2</text>
      </g>
      <g
         id="g205">
        <text
           font-family="Arial, Arial_MSFontService, sans-serif"
           font-weight="400"
           font-size="12px"
           transform="translate(373.238,123)"
           id="text203">0.3</text>
      </g>
      <g
         id="g209">
        <text
           font-family="Arial, Arial_MSFontService, sans-serif"
           font-weight="400"
           font-size="12px"
           transform="translate(373.238,88)"
           id="text207">0.3</text>
      </g>
      <g
         id="g213">
        <text
           font-family="Arial, Arial_MSFontService, sans-serif"
           font-weight="400"
           font-size="12px"
           transform="translate(373.238,53)"
           id="text211">0.4</text>
      </g>
      <g
         id="g217">
        <text
           font-family="Arial, Arial_MSFontService, sans-serif"
           font-weight="400"
           font-size="12px"
           transform="translate(373.238,19)"
           id="text215">0.4</text>
      </g>
      <g
         id="g221">
        <text
           font-family="Arial, Arial_MSFontService, sans-serif"
           font-weight="400"
           font-size="12px"
           transform="translate(396.901,310)"
           id="text219">0</text>
      </g>
      <g
         id="g225">
        <text
           font-family="Arial, Arial_MSFontService, sans-serif"
           font-weight="400"
           font-size="12px"
           transform="translate(501.923,310)"
           id="text223">10</text>
      </g>
      <g
         id="g229">
        <text
           font-family="Arial, Arial_MSFontService, sans-serif"
           font-weight="400"
           font-size="12px"
           transform="translate(610.283,310)"
           id="text227">20</text>
      </g>
      <g
         id="g233">
        <text
           font-family="Arial, Arial_MSFontService, sans-serif"
           font-weight="400"
           font-size="12px"
           transform="translate(718.642,310)"
           id="text231">30</text>
      </g>
      <g
         id="g237">
        <text
           font-family="Arial, Arial_MSFontService, sans-serif"
           font-weight="400"
           font-size="12px"
           transform="translate(827.001,310)"
           id="text235">40</text>
      </g>
      <g
         id="g241">
        <text
           font-family="Arial, Arial_MSFontService, sans-serif"
           font-weight="400"
           font-size="12px"
           transform="translate(935.36,310)"
           id="text239">50</text>
      </g>
      <g
         id="g245">
        <text
           font-family="Arial, Arial_MSFontService, sans-serif"
           font-weight="400"
           font-size="13px"
           transform="rotate(-90,272.452,-94.452)"
           id="text243">Pressão</text>
      </g>
      <g
         id="g249">
        <text
           font-family="'Cambria Math', 'Cambria Math_MSFontService', sans-serif"
           font-style="oblique"
           font-weight="400"
           font-size="13px"
           transform="translate(692.542,329)"
           id="text247">x</text>
      </g>
      <g
         id="g253">
        <text
           font-family="'Cambria Math', 'Cambria Math_MSFontService', sans-serif"
           font-weight="400"
           font-size="9px"
           transform="translate(698.989,331)"
           id="text251">1</text>
      </g>
      <g
         id="g257">
        <path
           d="m 453,359 h 33"
           stroke="#ed7d31"
           stroke-width="2"
           stroke-linecap="round"
           stroke-linejoin="round"
           stroke-miterlimit="10"
           fill="none"
           fill-rule="evenodd"
           id="path255" />
      </g>
      <g
         id="g261">
        <text
           font-family="Arial, Arial_MSFontService, sans-serif"
           font-weight="400"
           font-size="12px"
           transform="translate(489.839,363)"
           id="text259">P2P1-Fundo</text>
      </g>
      <g
         id="g265">
        <path
           d="m 578,359 h 34"
           stroke="#ed7d31"
           stroke-width="2"
           stroke-linecap="round"
           stroke-linejoin="round"
           stroke-miterlimit="10"
           stroke-dasharray="4, 4"
           fill="none"
           fill-rule="evenodd"
           id="path263" />
      </g>
      <g
         id="g269">
        <text
           font-family="Arial, Arial_MSFontService, sans-serif"
           font-weight="400"
           font-size="12px"
           transform="translate(615.652,363)"
           id="text267">P2P1-Topo</text>
      </g>
      <g
         id="g273">
        <path
           d="m 697,359 h 34"
           stroke="#4472c4"
           stroke-width="2"
           stroke-linecap="round"
           stroke-linejoin="round"
           stroke-miterlimit="10"
           fill="none"
           fill-rule="evenodd"
           id="path271" />
      </g>
      <g
         id="g277">
        <text
           font-family="Arial, Arial_MSFontService, sans-serif"
           font-weight="400"
           font-size="12px"
           transform="translate(734.791,363)"
           id="text275">Qua-Fundo</text>
      </g>
      <g
         id="g281">
        <path
           d="m 817,359 h 33"
           stroke="#4472c4"
           stroke-width="2"
           stroke-linecap="round"
           stroke-linejoin="round"
           stroke-miterlimit="10"
           stroke-dasharray="4, 4"
           fill="none"
           fill-rule="evenodd"
           id="path279" />
      </g>
      <g
         id="g285">
        <text
           font-family="Arial, Arial_MSFontService, sans-serif"
           font-weight="400"
           font-size="12px"
           transform="translate(853.924,363)"
           id="text283">Qua-Topo</text>
      </g>
    </g>
  </g>
</svg>
