<?xml version="1.0" encoding="UTF-8" standalone="no"?>
<!-- Created with Inkscape (http://www.inkscape.org/) -->

<svg
   width="124.61875mm"
   height="96.837502mm"
   viewBox="0 0 124.61875 96.837502"
   version="1.1"
   id="svg5"
   inkscape:version="1.3.2 (1:1.3.2+202311252150+091e20ef0f)"
   sodipodi:docname="resultado2D-2.svg"
   xmlns:inkscape="http://www.inkscape.org/namespaces/inkscape"
   xmlns:sodipodi="http://sodipodi.sourceforge.net/DTD/sodipodi-0.dtd"
   xmlns="http://www.w3.org/2000/svg"
   xmlns:svg="http://www.w3.org/2000/svg">
  <sodipodi:namedview
     id="namedview7"
     pagecolor="#ffffff"
     bordercolor="#000000"
     borderopacity="0.25"
     inkscape:showpageshadow="2"
     inkscape:pageopacity="0.0"
     inkscape:pagecheckerboard="0"
     inkscape:deskcolor="#d1d1d1"
     inkscape:document-units="mm"
     showgrid="false"
     inkscape:zoom="1.4912879"
     inkscape:cx="201.50368"
     inkscape:cy="234.36119"
     inkscape:window-width="1920"
     inkscape:window-height="997"
     inkscape:window-x="0"
     inkscape:window-y="0"
     inkscape:window-maximized="1"
     inkscape:current-layer="layer1" />
  <defs
     id="defs2">
    <clipPath
       clipPathUnits="userSpaceOnUse"
       id="clipPath2">
      <g
         id="g3"
         transform="matrix(3.7795276,0,0,3.7795276,643.01383,-550.5941)">
        <rect
           x="-9.7932425"
           y="145.67802"
           width="124.61875"
           height="96.837502"
           id="rect2"
           style="stroke-width:0.264583" />
      </g>
    </clipPath>
    <clipPath
       clipPathUnits="userSpaceOnUse"
       id="clipPath3">
      <g
         id="g4"
         transform="matrix(3.7795276,0,0,3.7795276,643.01383,-550.5941)">
        <rect
           x="-9.7932425"
           y="145.67802"
           width="124.61875"
           height="96.837502"
           id="rect3"
           style="stroke-width:0.264583" />
      </g>
    </clipPath>
    <clipPath
       clipPathUnits="userSpaceOnUse"
       id="clipPath4">
      <g
         id="g5"
         transform="matrix(3.7795276,0,0,3.7795276,643.01383,-550.5941)">
        <rect
           x="-9.7932425"
           y="145.67802"
           width="124.61875"
           height="96.837502"
           id="rect4"
           style="stroke-width:0.264583" />
      </g>
    </clipPath>
    <clipPath
       clipPathUnits="userSpaceOnUse"
       id="clipPath5">
      <g
         id="g6"
         transform="matrix(3.7795276,0,0,3.7795276,643.01383,-550.5941)">
        <rect
           x="-9.7932425"
           y="145.67802"
           width="124.61875"
           height="96.837502"
           id="rect5"
           style="stroke-width:0.264583" />
      </g>
    </clipPath>
    <clipPath
       clipPathUnits="userSpaceOnUse"
       id="clipPath6">
      <g
         id="g7"
         transform="matrix(3.7795276,0,0,3.7795276,643.01383,-550.5941)">
        <rect
           x="-9.7932425"
           y="145.67802"
           width="124.61875"
           height="96.837502"
           id="rect6"
           style="stroke-width:0.264583" />
      </g>
    </clipPath>
    <clipPath
       clipPathUnits="userSpaceOnUse"
       id="clipPath7">
      <g
         id="g8"
         transform="matrix(3.7795276,0,0,3.7795276,643.01383,-550.5941)">
        <rect
           x="-9.7932425"
           y="145.67802"
           width="124.61875"
           height="96.837502"
           id="rect7"
           style="stroke-width:0.264583" />
      </g>
    </clipPath>
    <clipPath
       clipPathUnits="userSpaceOnUse"
       id="clipPath8">
      <g
         id="g9"
         transform="matrix(3.7795276,0,0,3.7795276,643.01383,-550.5941)">
        <rect
           x="-9.7932425"
           y="145.67802"
           width="124.61875"
           height="96.837502"
           id="rect8"
           style="stroke-width:0.264583" />
      </g>
    </clipPath>
    <clipPath
       clipPathUnits="userSpaceOnUse"
       id="clipPath9">
      <g
         id="g10"
         transform="matrix(3.7795276,0,0,3.7795276,643.01383,-550.5941)">
        <rect
           x="-9.7932425"
           y="145.67802"
           width="124.61875"
           height="96.837502"
           id="rect9"
           style="stroke-width:0.264583" />
      </g>
    </clipPath>
    <clipPath
       clipPathUnits="userSpaceOnUse"
       id="clipPath10">
      <g
         id="g11"
         transform="matrix(3.7795276,0,0,3.7795276,643.01383,-550.5941)">
        <rect
           x="-9.7932425"
           y="145.67802"
           width="124.61875"
           height="96.837502"
           id="rect10"
           style="stroke-width:0.264583" />
      </g>
    </clipPath>
    <clipPath
       clipPathUnits="userSpaceOnUse"
       id="clipPath11">
      <g
         id="g12"
         transform="matrix(3.7795276,0,0,3.7795276,643.01383,-550.5941)">
        <rect
           x="-9.7932425"
           y="145.67802"
           width="124.61875"
           height="96.837502"
           id="rect11"
           style="stroke-width:0.264583" />
      </g>
    </clipPath>
    <clipPath
       clipPathUnits="userSpaceOnUse"
       id="clipPath12">
      <g
         id="g13"
         transform="matrix(3.7795276,0,0,3.7795276,643.01383,-550.5941)">
        <rect
           x="-9.7932425"
           y="145.67802"
           width="124.61875"
           height="96.837502"
           id="rect12"
           style="stroke-width:0.264583" />
      </g>
    </clipPath>
    <clipPath
       clipPathUnits="userSpaceOnUse"
       id="clipPath13">
      <g
         id="g14"
         transform="matrix(3.7795276,0,0,3.7795276,643.01383,-550.5941)">
        <rect
           x="-9.7932425"
           y="145.67802"
           width="124.61875"
           height="96.837502"
           id="rect13"
           style="stroke-width:0.264583" />
      </g>
    </clipPath>
    <clipPath
       clipPathUnits="userSpaceOnUse"
       id="clipPath14">
      <g
         id="g15"
         transform="matrix(3.7795276,0,0,3.7795276,643.01383,-550.5941)">
        <rect
           x="-9.7932425"
           y="145.67802"
           width="124.61875"
           height="96.837502"
           id="rect14"
           style="stroke-width:0.264583" />
      </g>
    </clipPath>
    <clipPath
       clipPathUnits="userSpaceOnUse"
       id="clipPath15">
      <g
         id="g16"
         transform="matrix(3.7795276,0,0,3.7795276,643.01383,-550.5941)">
        <rect
           x="-9.7932425"
           y="145.67802"
           width="124.61875"
           height="96.837502"
           id="rect15"
           style="stroke-width:0.264583" />
      </g>
    </clipPath>
    <clipPath
       clipPathUnits="userSpaceOnUse"
       id="clipPath16">
      <g
         id="g17"
         transform="matrix(3.7795276,0,0,3.7795276,643.01383,-550.5941)">
        <rect
           x="-9.7932425"
           y="145.67802"
           width="124.61875"
           height="96.837502"
           id="rect16"
           style="stroke-width:0.264583" />
      </g>
    </clipPath>
    <clipPath
       clipPathUnits="userSpaceOnUse"
       id="clipPath17">
      <g
         id="g18">
        <rect
           x="-9.7932425"
           y="145.67802"
           width="124.61875"
           height="96.837502"
           id="rect17"
           style="stroke-width:0.264583" />
      </g>
    </clipPath>
  </defs>
  <g
     inkscape:label="Camada 1"
     inkscape:groupmode="layer"
     id="layer1"
     transform="translate(9.793242,-145.67802)">
    <rect
       x="-9.7932425"
       y="145.67802"
       width="124.61875"
       height="96.837502"
       fill="#ffffff"
       id="rect137"
       style="stroke-width:0.264583"
       clip-path="url(#clipPath17)" />
    <g
       id="g141"
       transform="matrix(0.26458333,0,0,0.26458333,-170.13074,145.67802)"
       clip-path="url(#clipPath16)">
      <path
         d="m 639.5,283.5 h 414 m -414,-27 h 414 m -414,-27 h 414 m -414,-27 h 414 m -414,-27 h 414 m -414,-53 h 414 m -414,-26.9999 h 414 m -414,-27 h 414 m -414,-27 h 414 m -414,-27 h 414"
         stroke="#d9d9d9"
         stroke-linejoin="round"
         stroke-miterlimit="10"
         fill="none"
         id="path139" />
    </g>
    <g
       id="g145"
       transform="matrix(0.26458333,0,0,0.26458333,-170.13074,145.67802)"
       clip-path="url(#clipPath15)">
      <path
         d="M 639.5,14.5001 V 283.5 M 758.5,14.5001 V 283.5 m 59,-268.9999 V 283.5 m 59,-268.9999 V 283.5 m 59,-268.9999 V 283.5 m 59,-268.9999 V 283.5 m 59,-268.9999 V 283.5"
         stroke="#d9d9d9"
         stroke-linejoin="round"
         stroke-miterlimit="10"
         fill="none"
         id="path143" />
    </g>
    <g
       id="g149"
       transform="matrix(0.26458333,0,0,0.26458333,-170.13074,145.67802)"
       clip-path="url(#clipPath14)">
      <rect
         x="639.5"
         y="14.5001"
         width="414"
         height="269"
         stroke="#000000"
         stroke-linejoin="round"
         stroke-miterlimit="10"
         fill="none"
         id="rect147" />
    </g>
    <g
       id="g153"
       transform="matrix(0.26458333,0,0,0.26458333,-170.13074,145.67802)"
       clip-path="url(#clipPath13)">
      <path
         d="M 0,0 1.04987e-4,269"
         stroke="#000000"
         stroke-linejoin="round"
         stroke-miterlimit="10"
         fill="none"
         fill-rule="evenodd"
         transform="matrix(1,0,0,-1,699.5,283.5)"
         id="path151" />
    </g>
    <g
       id="g157"
       transform="matrix(0.26458333,0,0,0.26458333,-170.13074,145.67802)"
       clip-path="url(#clipPath12)">
      <path
         d="m 699.5,283.5 h 2 m -2,-6 h 2 m -2,-5 h 2 m -2,-5 h 2 m -2,-6 h 2 m -2,-5 h 2 m -2,-5 h 2 m -2,-6 h 2 m -2,-5 h 2 m -2,-6 h 2 m -2,-5 h 2 m -2,-5 h 2 m -2,-6 h 2 m -2,-5 h 2 m -2,-5 h 2 m -2,-6 h 2 m -2,-5 h 2 m -2,-6 h 2 m -2,-5 h 2 m -2,-5 h 2 m -2,-6 h 2 m -2,-5 h 2 m -2,-5 h 2 m -2,-6 h 2 m -2,-5 h 2 m -2,-6 h 2 m -2,-5 h 2 m -2,-5 h 2 m -2,-6 h 2 m -2,-5 h 2 m -2,-5 h 2 m -2,-6 h 2 m -2,-5 h 2 m -2,-6 h 2 m -2,-5 h 2 m -2,-4.9999 h 2 m -2,-6 h 2 m -2,-5 h 2 m -2,-5 h 2 m -2,-6 h 2 m -2,-5 h 2 m -2,-5 h 2 m -2,-6 h 2 m -2,-5 h 2 m -2,-6.0001 h 2 m -2,-4.9999 h 2 m -2,-5 h 2 m -2,-6 h 2 m -2,-5 h 2 m -2,-5 h 2 m -2,-6 h 2 m -6,268.9999 h 7 m -7,-27 h 7 m -7,-27 h 7 m -7,-27 h 7 m -7,-27 h 7 m -7,-27 h 7 m -7,-26 h 7 m -7,-26.9999 h 7 m -7,-27 h 7 m -7,-27 h 7 m -7,-27 h 7"
         stroke="#000000"
         stroke-linejoin="round"
         stroke-miterlimit="10"
         fill="none"
         id="path155" />
    </g>
    <g
       id="g161"
       transform="matrix(0.26458333,0,0,0.26458333,-170.13074,145.67802)"
       clip-path="url(#clipPath11)">
      <path
         d="m 639.5,148.5 h 414"
         stroke="#000000"
         stroke-linejoin="round"
         stroke-miterlimit="10"
         fill="none"
         fill-rule="evenodd"
         id="path159" />
    </g>
    <g
       id="g165"
       transform="matrix(0.26458333,0,0,0.26458333,-170.13074,145.67802)"
       clip-path="url(#clipPath10)">
      <path
         d="m 639.5,146.5 v 2 m 12,-2 v 2 m 12,-2 v 2 m 12,-2 v 2 m 12,-2 v 2 m 12,-2 v 2 m 11,-2 v 2 m 12,-2 v 2 m 12,-2 v 2 m 12,-2 v 2 m 12,-2 v 2 m 12,-2 v 2 m 11,-2 v 2 m 12,-2 v 2 m 12,-2 v 2 m 12,-2 v 2 m 12,-2 v 2 m 11,-2 v 2 m 12,-2 v 2 m 12,-2 v 2 m 12,-2 v 2 m 12,-2 v 2 m 12,-2 v 2 m 11,-2 v 2 m 12,-2 v 2 m 12,-2 v 2 m 12,-2 v 2 m 12,-2 v 2 m 12,-2 v 2 m 11,-2 v 2 m 12,-2 v 2 m 12,-2 v 2 m 12,-2 v 2 m 12,-2 v 2 m 12,-2 v 2 m 11,-2 v 2 m -414,-3 v 7 m 60,-7 v 7 m 59,-7 v 7 m 59,-7 v 7 m 59,-7 v 7 m 59,-7 v 7 m 59,-7 v 7 m 59,-7 v 7"
         stroke="#000000"
         stroke-linejoin="round"
         stroke-miterlimit="10"
         fill="none"
         id="path163" />
    </g>
    <g
       id="g169"
       transform="matrix(0.26458333,0,0,0.26458333,-170.13074,145.67802)"
       clip-path="url(#clipPath9)">
      <path
         d="m 699,283 h 1 v 0 l 1,-1 h 1 v 0 h 1 l 1,-1 v 0 h 1 v 0 l 1,-1 h 1 v 0 l 1,-1 h 1 v 0 h 1 l 1,-1 v 0 h 1 v 0 l 1,-1 h 1 v 0 h 1 l 1,-1 v 0 h 1 l 1,-1 v 0 h 1 1 v -1 h 1 v 0 h 1 l 1,-1 v 0 h 1 1 v -1 h 1 1 v -1 h 1 1 v 0 l 1,-1 v 0 h 1 1 v -1 h 1 1 v -1 h 1 1 v 0 l 1,-1 h 1 v 0 h 1 l 1,-1 v 0 h 1 v 0 l 1,-1 h 1 v 0 l 1,-1 h 1 v 0 h 1 l 1,-1 v 0 h 1 1 v -1 h 1 1 v -1 h 1 1 v 0 l 1,-1 v 0 h 1 1 v -1 h 1 1 v 0 l 1,-1 h 1 v 0 l 1,-1 h 1 v 0 h 1 l 1,-1 v 0 h 1 1 v -1 h 1 1 v 0 l 1,-1 h 1 v 0 l 1,-1 v 0 h 1 1 v -1 h 1 1 v 0 l 1,-1 h 1 v 0 l 1,-1 h 1 v 0 h 1 l 1,-1 v 0 h 1 1 v -1 h 1 1 v 0 l 1,-1 h 1 v 0 l 1,-1 h 1 v 0 h 1 l 1,-1 v 0 h 1 1 v -1 h 1 1 v 0 l 1,-1 h 1 v 0 l 1,-1 h 1 v 0 h 1 l 1,-1 v 0 h 1 1 v -1 h 1 1 v -1 h 1 1 v 0 l 1,-1 h 1 v 0 h 1 l 1,-1 v 0 h 1 1 v -1 h 1 1 v -1 h 1 1 v 0 l 1,-1 h 1 v 0 h 1 l 1,-1 v 0 h 1 l 1,-1 v 0 h 1 1 v -1 h 1 1 v 0 l 1,-1 h 1 v 0 h 1 l 1,-1 v 0 h 1 l 1,-1 v 0 h 1 1 v -1 h 1 1 v 0 l 1,-1 h 1 1 v 0 l 1,-1 h 1 v 0 l 1,-1 h 1 v 0 h 1 l 1,-1 v 0 h 1 1 v -1 h 1 1 v -1 h 1 1 v 0 l 1,-1 h 1 1 v 0 l 1,-1 h 1 v 0 h 1 l 1,-1 v 0 h 1 l 1,-1 h 1 v 0 h 1 l 1,-1 h 1 v 0 h 1 l 1,-1 h 1 v 0 l 1,-1 h 1 v 0 h 1 l 1,-1 h 1 v 0 h 1 l 1,-1 v 0 h 1 1 l 1,-1 v 0 h 1 l 1,-1 v 0 h 1 1 v -1 h 1 1 v 0 l 1,-1 h 1 v 0 h 1 v -1 h 1 1 v -1 h 1 1 v 0 l 1,-1 h 1 v 0 h 1 v -1 h 1 1 v -1 h 1 v 0 h 1 l 1,-1 v 0 h 1 v 0 l 1,-1 v 0 h 1 1 v -1 h 1 v 0 l 1,-1 v 0 h 1 1 v -1 h 1 v 0 h 1 v -1 h 1 v 0 h 1 v -1 h 1 v 0 l 1,-1 v 0 h 1 v 0 l 1,-1 v 0 h 1 v 0 l 1,-1 v 0 h 1 v -1 h 1 v 0 h 1 v -1 h 1 v 0 h 1 v -1 0 h 1 v 0 l 1,-1 v 0 h 1 v -1 h 1 v 0 0 l 1,-1 v 0 h 1 v 0 -1 h 1 v 0 l 1,-1 v 0 h 1 v 0 -1 h 1 v 0 0 l 1,-1 v 0 h 1 v 0 -1 h 1 v 0 -1 h 1 v 0 0 l 1,-1 v 0 0 h 1 v -1 0 h 1 v 0 -1 h 1 v 0 -1 h 1 v 0 0 l 1,-1 v 0 0 h 1 v -1 0 0 l 1,-1 v 0 0 0 l 1,-1 v 0 0 h 1 v -1 0 0 h 1 v -1 0 0 -1 h 1 v 0 0 -1 h 1 v 0 0 -1 0 h 1 v -1 0 0 0 l 1,-1 v 0 0 0 -1 h 1 v 0 0 -1 0 0 l 1,-1 v 0 0 0 -1 0 0 h 1 v -1 0 0 0 -1 0 0 l 1,-1 v 0 0 0 -1 0 0 0 -1 0 h 1 v -1 0 0 0 -1 0 0 0 -1 0 0 0 -1 0 0 -1 h 1 v 0 0 l -1,-1 v 0 0 0 -1 0 0 -1 0 0 h -1 v -1 0 0 0 -1 0 0 h -1 v -1 0 0 -1 0 0 h -1 v -1 0 0 0 -1 h -1 v 0 0 -1 0 0 l -1,-1 v 0 0 0 -1 h -1 v 0 0 -1 0 h -1 v -1 0 0 0 l -1,-1 v 0 0 0 -1 h -1 v 0 0 -1 h -1 v 0 -1 0 h -1 v 0 -1 0 h -1 v 0 -1 0 h -1 v 0 -1 0 h -1 v -1 0 h -1 v 0 -1 0 h -1 v 0 -1 h -1 v 0 -1 h -1 v 0 0 -1 h -1 v 0 0 l -1,-1 v 0 0 h -1 v -1 0 h -1 v -1 0 h -1 v 0 -1 h -1 v 0 h -1 v -1 0 h -1 v -1 0 h -1 v 0 -1 h -1 v 0 h -1 v -1 0 h -1 v 0 l -1,-1 v 0 0 l -1,-1 v 0 h -1 v 0 -1 h -1 v 0 h -1 v -1 0 h -1 v 0 l -1,-1 v 0 h -1 v -1 0 h -1 v 0 l -1,-1 v 0 h -1 v 0 l -1,-1 v 0 h -1 v -1 0 h -1 v 0 l -1,-1 v 0 h -1 v 0 l -1,-1 v 0 h -1 v 0 l -1,-1 v 0 h -1 v -1 h -1 v 0 h -1 v -1 h -1 v 0 h -1 v -1 h -1 v 0 l -1,-1 v 0 h -1 v 0 l -1,-1 h -1 v 0 h -1 v -1 h -1 v 0 h -1 v -1 h -1 v 0 l -1,-1 h -1 v 0 h -1 v -1 h -1 v 0 h -1 l -1,-1 v 0 h -1 v 0 l -1,-1 h -1 v 0 l -1,-1 v 0 h -1 -1 v -1 h -1 v 0 h -1 l -1,-1 v 0 h -1 v -1 h -1 -1 v 0 l -1,-1 h -1 v 0 h -1 l -1,-1 v 0 h -1 -1 v -1 h -1 v 0 l -1,-1 h -1 v 0 h -1 l -1,-1 v 0 h -1 -1 l -1,-1 v 0 h -1 l -1,-1 v 0 h -1 -1 v -1 h -1 -1 v 0 l -1,-1 h -1 v 0 h -1 l -1,-1 v 0 h -1 l -1,-1 v 0 h -1 -1 v -1 h -1 v 0 h -1 l -1,-1 v 0 h -1 -1 v -1 h -1 -1 v -1 h -1 v 0 h -1 l -1,-1 v 0 h -1 -1 v -1 h -1 v 0 l -1,-1 h -1 v 0 h -1 l -1,-1 v 0 h -1 -1 v -1 h -1 v 0 h -1 l -1,-1 v 0 h -1 l -1,-1 v 0 h -1 v 0 l -1,-1 h -1 v 0 h -1 l -1,-1 v 0 h -1 -1 v -1 h -1 v 0 l -1,-1 h -1 v 0 h -1 l -1,-1 v 0 h -1 v 0 l -1,-1 h -1 v 0 l -1,-1 h -1 v 0 h -1 v -1 h -1 -1 v 0 l -1,-1 v 0 h -1 -1 v -1 h -1 -1 v -1 h -1 v 0 h -1 l -1,-1 v 0 h -1 -1 v -1 h -1 v 0 l -1,-1 h -1 v 0 h -1 v -1 h -1 -1 v 0 l -1,-1 h -1 v 0 h -1 v -1 h -1 -1 v -1 h -1 -1 v 0 l -1,-1 v 0 h -1 -1 v -1 h -1 v 0 h -1 l -1,-1 v 0 h -1 v -1 h -1 -1 v 0 l -1,-1 h -1 v 0 h -1 v -1 h -1 -1 v -1 h -1 v 0 h -1 l -1,-1 v 0 h -1 -1 v -1 h -1 v 0 h -1 l -1,-1 v 0 h -1 v -1 h -1 -1 v 0 l -1,-1 v 0 h -1 -1 v -1 h -1 v 0 l -1,-1 h -1 v 0 h -1 v -1 h -1 -1 v 0 l -1,-1 h -1 v 0 h -1 v -1 h -1 -1 v -1 h -1 v 0 h -1 l -1,-1 v 0 h -1 v 0 l -1,-1 h -1 v 0 h -1 v -1 h -1 -1 v -1 h -1 v 0 h -1 l -1,-1 v 0 h -1 v 0 l -1,-1 h -1 v 0 l -1,-1 v 0 h -1 -1 v -1 h -1 v 0 h -1 l -1,-1 v 0 h -1 v 0 l -1,-1 h -1 v 0 l -1,-1 v 0 h -1 -1 v -1 h -1 v 0 h -1 v -1 h -1 -1 v 0 l -1,-1 v 0 h -1 l -1,-1 v 0 h -1 v 0 l -1,-1 h -1 v 0 h -1 v -1 h -1 -1 v -1 h -1 v 0 h -1"
         stroke="#000000"
         stroke-width="2"
         stroke-linecap="round"
         stroke-linejoin="round"
         stroke-miterlimit="10"
         fill="none"
         id="path167" />
    </g>
    <g
       id="g173"
       transform="matrix(0.26458333,0,0,0.26458333,-170.13074,145.67802)"
       clip-path="url(#clipPath8)">
      <path
         d="m 699,283 h 2 1 l 2,-1 h 1 2 1 l 2,-1 h 1 2 1 l 2,-1 h 1 2 l 1,-1 h 1 2 1 l 2,-1 h 1 2 1 l 2,-1 h 1 2 1 l 2,-1 h 1 1 l 2,-1 h 1 2 1 l 2,-1 h 1 1 2 l 1,-1 h 2 1 2 l 1,-1 h 1 2 l 1,-1 h 2 1 1 l 2,-1 h 1 2 1 l 1,-1 h 2 1 l 1,-1 h 2 1 2 l 1,-1 h 1 2 1 l 1,-1 h 2 1 1 l 2,-1 h 1 1 l 2,-1 h 1 1 2 l 1,-1 h 1 2 1 l 1,-1 h 2 1 l 1,-1 h 2 1 1 l 2,-1 h 1 1 1 l 2,-1 h 1 1 2 l 1,-1 h 1 1 l 2,-1 h 1 1 2 l 1,-1 h 1 1 2 l 1,-1 h 1 1 2 l 1,-1 h 1 1 l 2,-1 h 1 1 1 l 1,-1 h 2 1 1 l 1,-1 h 2 1 l 1,-1 h 1 1 2 l 1,-1 h 1 1 1 l 2,-1 h 1 1 1 l 1,-1 h 1 2 l 1,-1 h 1 1 1 l 1,-1 h 2 1 1 l 1,-1 h 1 1 1 l 2,-1 h 1 1 l 1,-1 h 1 1 1 l 2,-1 h 1 1 1 l 1,-1 h 1 1 l 1,-1 h 1 2 1 l 1,-1 h 1 1 1 l 1,-1 h 1 1 1 l 1,-1 h 1 2 l 1,-1 h 1 1 1 l 1,-1 h 1 1 1 l 1,-1 h 1 1 l 1,-1 h 1 1 1 l 1,-1 h 1 1 1 l 1,-1 h 1 1 1 l 1,-1 h 1 1 l 2,-1 h 1 v 0 h 1 l 1,-1 h 1 1 1 l 1,-1 h 1 1 1 l 1,-1 h 1 1 l 1,-1 h 1 1 1 l 1,-1 h 1 1 1 l 1,-1 h 1 1 l 1,-1 h 1 1 v 0 l 1,-1 h 1 1 1 l 1,-1 h 1 1 1 v -1 h 1 1 l 1,-1 h 1 v 0 h 1 l 1,-1 h 1 1 v 0 l 1,-1 h 1 1 v -1 h 1 1 1 v -1 h 1 1 v 0 l 1,-1 h 1 v 0 h 1 l 1,-1 v 0 h 1 l 1,-1 v 0 h 1 v 0 l 1,-1 h 1 v 0 h 1 v -1 h 1 v 0 h 1 l 1,-1 v 0 h 1 v -1 h 1 v 0 h 1 v -1 h 1 v 0 0 l 1,-1 v 0 h 1 v -1 h 1 v 0 0 l 1,-1 v 0 h 1 v 0 -1 h 1 v 0 0 l 1,-1 v 0 0 l 1,-1 v 0 0 h 1 v -1 0 0 h 1 v -1 0 0 h 1 v -1 0 0 l 1,-1 v 0 0 0 -1 0 h 1 v 0 -1 0 0 -1 0 0 h 1 v -1 0 0 0 -1 0 0 0 -1 0 0 -1 0 0 0 -1 0 0 0 -1 0 0 -1 h -1 v 0 0 -1 0 0 0 -1 h -1 v 0 0 -1 0 0 l -1,-1 v 0 0 0 l -1,-1 v 0 0 0 l -1,-1 v 0 0 0 l -1,-1 v 0 0 l -1,-1 v 0 0 h -1 v -1 0 h -1 v 0 -1 h -1 v 0 l -1,-1 v 0 0 h -1 v -1 h -1 v 0 h -1 v -1 0 h -1 v 0 l -1,-1 v 0 h -1 v -1 h -1 v 0 h -1 l -1,-1 v 0 h -1 v 0 l -1,-1 v 0 h -1 l -1,-1 v 0 h -1 v 0 l -1,-1 h -1 v 0 h -1 l -1,-1 v 0 h -1 -1 v -1 h -1 -1 v -1 h -1 -1 -1 v -1 h -1 -1 -1 v -1 h -1 -1 -1 l -1,-1 v 0 h -1 l -1,-1 h -1 -1 -1 v -1 h -1 -1 -1 l -1,-1 h -1 -1 l -1,-1 h -1 v 0 h -1 l -1,-1 h -1 -1 -1 l -1,-1 h -1 -1 -1 l -1,-1 h -1 -1 l -1,-1 h -1 -1 -1 l -2,-1 h -1 -1 -1 l -1,-1 h -1 -1 l -1,-1 h -1 -2 -1 l -1,-1 h -1 -1 -1 l -1,-1 h -1 -1 -2 l -1,-1 h -1 -1 l -1,-1 h -1 -1 -1 l -1,-1 h -1 -2 -1 l -1,-1 h -1 -1 -1 l -1,-1 h -1 -1 l -1,-1 h -1 -1 -2 l -1,-1 h -1 -1 -1 l -1,-1 h -1 -1 l -1,-1 h -1 -1 -1 l -1,-1 h -1 -1 -1 l -2,-1 h -1 -1 -1 l -1,-1 h -1 -1 l -1,-1 h -1 -1 -1 l -1,-1 h -1 -1 -1 l -1,-1 h -1 -1 -1 l -1,-1 h -1 -1 l -1,-1 h -1 -1 -1 l -1,-1 h -1 -1 -1 l -1,-1 h -1 -1 l -1,-1 h -1 -1 -1 l -1,-1 h -1 -1 -1 l -1,-1 h -1 -1 -1 l -1,-1 h -1 -1 l -1,-1 h -1 -1 -1 l -1,-1 h -1 -1 -1 l -1,-1 h -1 -1 l -1,-1 h -1 -1 -1 l -1,-1 h -1 -1 -1 l -1,-1 h -1 -1 -1 l -1,-1 h -1 -1 l -1,-1 h -1 v 0 h -1 l -1,-1 h -1 -1 -1 l -1,-1 h -1 -1 -1 l -1,-1 h -1 -1 l -1,-1 h -1 -1 v 0 l -1,-1 h -1 -1 -1 l -1,-1 h -1 -1 l -1,-1 h -1 -1 -1 v -1 h -1 -1 -1 l -1,-1 h -1 -1 -1 l -1,-1 h -1 v 0 l -1,-1 h -1 -1 -1 l -1,-1 h -1 -1 -1 v -1 h -1 -1 l -1,-1 h -1 -1 -1 l -1,-1 h -1 v 0 h -1 l -1,-1 h -1 -1 -1 l -1,-1 v 0 h -1 l -1,-1 h -1 -1 -1 l -1,-1 v 0 h -1 -1 l -1,-1 h -1 -1 -1 v -1 h -1 -1 l -1,-1 h -1 v 0 h -1 l -1,-1 h -1 -1 v 0 l -1,-1 h -1 -1 l -1,-1 v 0 h -1 -1 l -1,-1 h -1 v 0 h -1 l -1,-1 h -1 -1 v 0 l -1,-1 h -1 -1 l -1,-1 v 0 h -1 -1 l -1,-1 v 0 h -1 -1 l -1,-1 v 0 h -1 l -1,-1 h -1 -1 v 0 l -1,-1 h -1 -1 v 0 l -1,-1 h -1 -1 v 0 l -1,-1 h -1 v 0 l -1,-1 v 0 h -1 v 0 l -1,-1 v 0 h -1 v 0 l -1,-1 v 0 h -1 v 0 l -1,-1 v 0 h -1 v -1 h -1 v 0 0 l -1,-1 v 0 h -1 v 0 l -1,-1 v 0 0 l -1,-1 v 0 h -1 v 0 -1 h -1 v 0 h -1 v -1 0 h -1 v 0 l -1,-1 v 0 0 l -1,-1 v 0 0 h -1 v -1 0 h -1 v 0 -1 h -1 v 0 0 l -1,-1 v 0 0 l -1,-1 v 0 0 0 l -1,-1 v 0 0 0 l -1,-1 v 0 0 -1 h -1 v 0 0 -1 h -1 v 0 0 -1 h -1 v 0 0 -1 0 h -1 v -1 0 0 0 l -1,-1 v 0 0 0 -1 0 h -1 v -1 0 0 0 -1 h -1 v 0 0 -1 0 0 0 -1 h -1 v 0 -1 0 0 0 -1 0 0 0 l -1,-1 v 0 0 0 -1 0 0 -1 0 0 0 -1 0 0 0 -1 0 h -1 v -1 0 0 0 -1 0 0 0 -1 0 0 0 -1 0 0 -1 0 h 1 v 0 -1 0 0 0 -1 0 0 -1 0 0 0 -1 0 0 0 l 1,-1 v 0 0 0 -1 0 0 -1 0 0 h 1 v -1 0 0 0 -1 0 h 1 v 0 -1 0 0 -1 0 h 1 v 0 -1 0 0 0 l 1,-1 v 0 0 -1 0 h 1 v 0 -1 0 0 h 1 v -1 0 0 h 1 v -1 0 0 l 1,-1 v 0 0 0 l 1,-1 v 0 0 0 l 1,-1 v 0 0 0 l 1,-1 v 0 0 l 1,-1 v 0 0 0 l 1,-1 v 0 0 h 1 v -1 0 h 1 v -1 0 h 1 v 0"
         stroke="#000000"
         stroke-width="2"
         stroke-linecap="round"
         stroke-linejoin="round"
         stroke-miterlimit="10"
         stroke-dasharray="4, 4"
         fill="none"
         id="path171" />
    </g>
    <g
       id="g215"
       transform="matrix(0.26458333,0,0,0.26458333,-170.13074,145.67802)"
       clip-path="url(#clipPath7)">
      <path
         d="m 702.615,286 -7,-7 m 0,7 7,-7"
         stroke="#4472c4"
         stroke-linejoin="round"
         stroke-miterlimit="10"
         fill="none"
         id="path175" />
      <path
         d="m 770.615,273 -7,-7 m 0,7 7,-7"
         stroke="#4472c4"
         stroke-linejoin="round"
         stroke-miterlimit="10"
         fill="none"
         id="path177" />
      <path
         d="m 828.615,258 -7,-7 m 0,7 7,-7"
         stroke="#4472c4"
         stroke-linejoin="round"
         stroke-miterlimit="10"
         fill="none"
         id="path179" />
      <path
         d="m 883.615,245 -7,-7 m 0,7 7,-7"
         stroke="#4472c4"
         stroke-linejoin="round"
         stroke-miterlimit="10"
         fill="none"
         id="path181" />
      <path
         d="m 936.615,232 -7,-7 m 0,7 7,-7"
         stroke="#4472c4"
         stroke-linejoin="round"
         stroke-miterlimit="10"
         fill="none"
         id="path183" />
      <path
         d="m 981.615,219 -7,-7 m 0,7 7,-7"
         stroke="#4472c4"
         stroke-linejoin="round"
         stroke-miterlimit="10"
         fill="none"
         id="path185" />
      <path
         d="m 1015.62,205 -7,-7 m 0,7 7,-7"
         stroke="#4472c4"
         stroke-linejoin="round"
         stroke-miterlimit="10"
         fill="none"
         id="path187" />
      <path
         d="m 1033.62,193 -7,-7 m 0,7 7,-7"
         stroke="#4472c4"
         stroke-linejoin="round"
         stroke-miterlimit="10"
         fill="none"
         id="path189" />
      <path
         d="m 1029.62,179 -7,-7 m 0,7 7,-7"
         stroke="#4472c4"
         stroke-linejoin="round"
         stroke-miterlimit="10"
         fill="none"
         id="path191" />
      <path
         d="m 1005.62,165 -7.005,-7 m 0,7 7.005,-7"
         stroke="#4472c4"
         stroke-linejoin="round"
         stroke-miterlimit="10"
         fill="none"
         id="path193" />
      <path
         d="m 965.615,151 -7,-7 m 0,7 7,-7"
         stroke="#4472c4"
         stroke-linejoin="round"
         stroke-miterlimit="10"
         fill="none"
         id="path195" />
      <path
         d="m 913.615,138 -7,-7 m 0,7 7,-7"
         stroke="#4472c4"
         stroke-linejoin="round"
         stroke-miterlimit="10"
         fill="none"
         id="path197" />
      <path
         d="m 857.615,124 -7,-7 m 0,7 7,-7"
         stroke="#4472c4"
         stroke-linejoin="round"
         stroke-miterlimit="10"
         fill="none"
         id="path199" />
      <path
         d="m 805.615,111 -7,-7 m 0,7 7,-7"
         stroke="#4472c4"
         stroke-linejoin="round"
         stroke-miterlimit="10"
         fill="none"
         id="path201" />
      <path
         d="m 764.615,98 -7,-7 m 0,7 7,-7"
         stroke="#4472c4"
         stroke-linejoin="round"
         stroke-miterlimit="10"
         fill="none"
         id="path203" />
      <path
         d="m 730.615,85 -7,-7 m 0,7 7,-7"
         stroke="#4472c4"
         stroke-linejoin="round"
         stroke-miterlimit="10"
         fill="none"
         id="path205" />
      <path
         d="m 707.615,71 -7,-7 m 0,7 7,-7"
         stroke="#4472c4"
         stroke-linejoin="round"
         stroke-miterlimit="10"
         fill="none"
         id="path207" />
      <path
         d="m 693.615,58 -7,-7 m 0,7 7,-7"
         stroke="#4472c4"
         stroke-linejoin="round"
         stroke-miterlimit="10"
         fill="none"
         id="path209" />
      <path
         d="m 688.615,45 -7,-7 m 0,7 7,-7"
         stroke="#4472c4"
         stroke-linejoin="round"
         stroke-miterlimit="10"
         fill="none"
         id="path211" />
      <path
         d="m 691.615,32 -7,-7 m 0,7 7,-7"
         stroke="#4472c4"
         stroke-linejoin="round"
         stroke-miterlimit="10"
         fill="none"
         id="path213" />
    </g>
    <g
       id="g257"
       transform="matrix(0.26458333,0,0,0.26458333,-170.13074,145.67802)"
       clip-path="url(#clipPath6)">
      <path
         d="m 727.115,266.5 h 6 v 6 h -6 z"
         stroke="#ff0000"
         stroke-linejoin="round"
         stroke-miterlimit="10"
         fill="none"
         id="path217" />
      <path
         d="m 760.115,252.5 h 6 v 6 h -6 z"
         stroke="#ff0000"
         stroke-linejoin="round"
         stroke-miterlimit="10"
         fill="none"
         id="path219" />
      <path
         d="m 793.115,239.5 h 6 v 6 h -6 z"
         stroke="#ff0000"
         stroke-linejoin="round"
         stroke-miterlimit="10"
         fill="none"
         id="path221" />
      <path
         d="m 826.115,226.5 h 6 v 6 h -6 z"
         stroke="#ff0000"
         stroke-linejoin="round"
         stroke-miterlimit="10"
         fill="none"
         id="path223" />
      <path
         d="m 859.115,212.5 h 6 v 6 h -6 z"
         stroke="#ff0000"
         stroke-linejoin="round"
         stroke-miterlimit="10"
         fill="none"
         id="path225" />
      <path
         d="m 890.115,199.5 h 6 v 6 h -6 z"
         stroke="#ff0000"
         stroke-linejoin="round"
         stroke-miterlimit="10"
         fill="none"
         id="path227" />
      <path
         d="m 915.115,186.5 h 6 v 6 h -6 z"
         stroke="#ff0000"
         stroke-linejoin="round"
         stroke-miterlimit="10"
         fill="none"
         id="path229" />
      <path
         d="m 935.115,173.5 h 6 v 6 h -6 z"
         stroke="#ff0000"
         stroke-linejoin="round"
         stroke-miterlimit="10"
         fill="none"
         id="path231" />
      <path
         d="m 947.115,159.5 h 6 v 6 h -6 z"
         stroke="#ff0000"
         stroke-linejoin="round"
         stroke-miterlimit="10"
         fill="none"
         id="path233" />
      <path
         d="m 948.115,145.5 h 6 v 6 h -6 z"
         stroke="#ff0000"
         stroke-linejoin="round"
         stroke-miterlimit="10"
         fill="none"
         id="path235" />
      <path
         d="m 942.115,131.5 h 6 v 6 h -6 z"
         stroke="#ff0000"
         stroke-linejoin="round"
         stroke-miterlimit="10"
         fill="none"
         id="path237" />
      <path
         d="m 927.115,119.5 h 6 v 6 h -6 z"
         stroke="#ff0000"
         stroke-linejoin="round"
         stroke-miterlimit="10"
         fill="none"
         id="path239" />
      <path
         d="m 904.115,106.5 h 6 v 6 h -6 z"
         stroke="#ff0000"
         stroke-linejoin="round"
         stroke-miterlimit="10"
         fill="none"
         id="path241" />
      <path
         d="m 877.115,92.5001 h 6 v 5.9998 h -6 z"
         stroke="#ff0000"
         stroke-linejoin="round"
         stroke-miterlimit="10"
         fill="none"
         id="path243" />
      <path
         d="m 847.115,79.5001 h 6 v 5.9998 h -6 z"
         stroke="#ff0000"
         stroke-linejoin="round"
         stroke-miterlimit="10"
         fill="none"
         id="path245" />
      <path
         d="m 816.115,65.5001 h 6 v 5.9998 h -6 z"
         stroke="#ff0000"
         stroke-linejoin="round"
         stroke-miterlimit="10"
         fill="none"
         id="path247" />
      <path
         d="m 785.115,51.5001 h 6 v 5.9998 h -6 z"
         stroke="#ff0000"
         stroke-linejoin="round"
         stroke-miterlimit="10"
         fill="none"
         id="path249" />
      <path
         d="m 755.115,38.5001 h 6 v 5.9998 h -6 z"
         stroke="#ff0000"
         stroke-linejoin="round"
         stroke-miterlimit="10"
         fill="none"
         id="path251" />
      <path
         d="m 725.115,24.5001 h 6 v 5.9998 h -6 z"
         stroke="#ff0000"
         stroke-linejoin="round"
         stroke-miterlimit="10"
         fill="none"
         id="path253" />
      <path
         d="m 696.115,11.5001 h 6 v 5.9998 h -6 z"
         stroke="#ff0000"
         stroke-linejoin="round"
         stroke-miterlimit="10"
         fill="none"
         id="path255" />
    </g>
    <g
       id="g261"
       transform="matrix(0.26458333,0,0,0.26458333,-170.13074,145.67802)">
      <text
         font-family="Arial, Arial_MSFontService, sans-serif"
         font-weight="400"
         font-size="12px"
         transform="translate(661.386,287)"
         id="text259">-1.00</text>
    </g>
    <g
       id="g265"
       transform="matrix(0.26458333,0,0,0.26458333,-170.13074,145.67802)">
      <text
         font-family="Arial, Arial_MSFontService, sans-serif"
         font-weight="400"
         font-size="12px"
         transform="translate(661.386,260)"
         id="text263">-0.80</text>
    </g>
    <g
       id="g269"
       transform="matrix(0.26458333,0,0,0.26458333,-170.13074,145.67802)">
      <text
         font-family="Arial, Arial_MSFontService, sans-serif"
         font-weight="400"
         font-size="12px"
         transform="translate(661.386,233)"
         id="text267">-0.60</text>
    </g>
    <g
       id="g273"
       transform="matrix(0.26458333,0,0,0.26458333,-170.13074,145.67802)">
      <text
         font-family="Arial, Arial_MSFontService, sans-serif"
         font-weight="400"
         font-size="12px"
         transform="translate(661.386,207)"
         id="text271">-0.40</text>
    </g>
    <g
       id="g277"
       transform="matrix(0.26458333,0,0,0.26458333,-170.13074,145.67802)">
      <text
         font-family="Arial, Arial_MSFontService, sans-serif"
         font-weight="400"
         font-size="12px"
         transform="translate(661.386,180)"
         id="text275">-0.20</text>
    </g>
    <g
       id="g281"
       transform="matrix(0.26458333,0,0,0.26458333,-170.13074,145.67802)">
      <text
         font-family="Arial, Arial_MSFontService, sans-serif"
         font-weight="400"
         font-size="12px"
         transform="translate(665.379,153)"
         id="text279">0.00</text>
    </g>
    <g
       id="g285"
       transform="matrix(0.26458333,0,0,0.26458333,-170.13074,145.67802)">
      <text
         font-family="Arial, Arial_MSFontService, sans-serif"
         font-weight="400"
         font-size="12px"
         transform="translate(665.379,126)"
         id="text283">0.20</text>
    </g>
    <g
       id="g289"
       transform="matrix(0.26458333,0,0,0.26458333,-170.13074,145.67802)">
      <text
         font-family="Arial, Arial_MSFontService, sans-serif"
         font-weight="400"
         font-size="12px"
         transform="translate(665.379,99)"
         id="text287">0.40</text>
    </g>
    <g
       id="g293"
       transform="matrix(0.26458333,0,0,0.26458333,-170.13074,145.67802)">
      <text
         font-family="Arial, Arial_MSFontService, sans-serif"
         font-weight="400"
         font-size="12px"
         transform="translate(665.379,72)"
         id="text291">0.60</text>
    </g>
    <g
       id="g297"
       transform="matrix(0.26458333,0,0,0.26458333,-170.13074,145.67802)">
      <text
         font-family="Arial, Arial_MSFontService, sans-serif"
         font-weight="400"
         font-size="12px"
         transform="translate(665.379,45)"
         id="text295">0.80</text>
    </g>
    <g
       id="g301"
       transform="matrix(0.26458333,0,0,0.26458333,-170.13074,145.67802)">
      <text
         font-family="Arial, Arial_MSFontService, sans-serif"
         font-weight="400"
         font-size="12px"
         transform="translate(665.379,19)"
         id="text299">1.00</text>
    </g>
    <g
       id="g305"
       transform="matrix(0.26458333,0,0,0.26458333,-170.13074,145.67802)">
      <text
         font-family="Arial, Arial_MSFontService, sans-serif"
         font-weight="400"
         font-size="12px"
         transform="translate(629.572,167)"
         id="text303">-0.2</text>
    </g>
    <g
       id="g309"
       transform="matrix(0.26458333,0,0,0.26458333,-170.13074,145.67802)">
      <text
         font-family="Arial, Arial_MSFontService, sans-serif"
         font-weight="400"
         font-size="12px"
         transform="translate(695.716,167)"
         id="text307">0</text>
    </g>
    <g
       id="g313"
       transform="matrix(0.26458333,0,0,0.26458333,-170.13074,145.67802)">
      <text
         font-family="Arial, Arial_MSFontService, sans-serif"
         font-weight="400"
         font-size="12px"
         transform="translate(749.857,167)"
         id="text311">0.2</text>
    </g>
    <g
       id="g317"
       transform="matrix(0.26458333,0,0,0.26458333,-170.13074,145.67802)">
      <text
         font-family="Arial, Arial_MSFontService, sans-serif"
         font-weight="400"
         font-size="12px"
         transform="translate(809.001,167)"
         id="text315">0.4</text>
    </g>
    <g
       id="g321"
       transform="matrix(0.26458333,0,0,0.26458333,-170.13074,145.67802)">
      <text
         font-family="Arial, Arial_MSFontService, sans-serif"
         font-weight="400"
         font-size="12px"
         transform="translate(868.144,167)"
         id="text319">0.6</text>
    </g>
    <g
       id="g325"
       transform="matrix(0.26458333,0,0,0.26458333,-170.13074,145.67802)">
      <text
         font-family="Arial, Arial_MSFontService, sans-serif"
         font-weight="400"
         font-size="12px"
         transform="translate(927.288,167)"
         id="text323">0.8</text>
    </g>
    <g
       id="g329"
       transform="matrix(0.26458333,0,0,0.26458333,-170.13074,145.67802)">
      <text
         font-family="Arial, Arial_MSFontService, sans-serif"
         font-weight="400"
         font-size="12px"
         transform="translate(991.436,167)"
         id="text327">1</text>
    </g>
    <g
       id="g333"
       transform="matrix(0.26458333,0,0,0.26458333,-170.13074,145.67802)">
      <text
         font-family="Arial, Arial_MSFontService, sans-serif"
         font-weight="400"
         font-size="12px"
         transform="translate(1045.58,167)"
         id="text331">1.2</text>
    </g>
    <g
       id="g337"
       transform="matrix(0.26458333,0,0,0.26458333,-170.13074,145.67802)">
      <text
         font-family="Cambria, Cambria_MSFontService, sans-serif"
         font-style="italic"
         font-weight="400"
         font-size="13px"
         transform="rotate(-90,394.641,-240.641)"
         id="text335">x</text>
    </g>
    <g
       id="g341"
       transform="matrix(0.26458333,0,0,0.26458333,-170.13074,145.67802)">
      <text
         font-family="Arial, Arial_MSFontService, sans-serif"
         font-weight="400"
         font-size="9px"
         transform="rotate(-90,392.641,-244.641)"
         id="text339">2</text>
    </g>
    <g
       id="g345"
       transform="matrix(0.26458333,0,0,0.26458333,-170.13074,145.67802)">
      <text
         font-family="Arial, Arial_MSFontService, sans-serif"
         font-weight="400"
         font-size="13px"
         transform="translate(813.932,298)"
         id="text343">Velocidade</text>
    </g>
    <g
       id="g349"
       transform="matrix(0.26458333,0,0,0.26458333,-170.13074,145.67802)"
       clip-path="url(#clipPath5)">
      <path
         d="m 650,328 h 34"
         stroke="#000000"
         stroke-width="2"
         stroke-linecap="round"
         stroke-linejoin="round"
         stroke-miterlimit="10"
         fill="none"
         fill-rule="evenodd"
         id="path347" />
    </g>
    <g
       id="g353"
       transform="matrix(0.26458333,0,0,0.26458333,-170.13074,145.67802)">
      <text
         font-family="Arial, Arial_MSFontService, sans-serif"
         font-weight="400"
         font-size="12px"
         transform="translate(687.348,332)"
         id="text351">Autor - x1 = 30</text>
    </g>
    <g
       id="g357"
       transform="matrix(0.26458333,0,0,0.26458333,-170.13074,145.67802)"
       clip-path="url(#clipPath4)">
      <path
         d="m 846,328 h 34"
         stroke="#000000"
         stroke-width="2"
         stroke-linecap="round"
         stroke-linejoin="round"
         stroke-miterlimit="10"
         stroke-dasharray="4, 4"
         fill="none"
         fill-rule="evenodd"
         id="path355" />
    </g>
    <g
       id="g361"
       transform="matrix(0.26458333,0,0,0.26458333,-170.13074,145.67802)">
      <text
         font-family="Arial, Arial_MSFontService, sans-serif"
         font-weight="400"
         font-size="12px"
         transform="translate(883.769,332)"
         id="text359">Autor - x1 = 14</text>
    </g>
    <g
       id="g365"
       transform="matrix(0.26458333,0,0,0.26458333,-170.13074,145.67802)"
       clip-path="url(#clipPath3)">
      <path
         d="m 670.5,353.5 -7,-7 m 0,7 7,-7"
         stroke="#4472c4"
         stroke-linejoin="round"
         stroke-miterlimit="10"
         fill="none"
         id="path363" />
    </g>
    <g
       id="g373"
       transform="matrix(0.26458333,0,0,0.26458333,-170.13074,145.67802)"
       clip-path="url(#clipPath2)">
      <path
         d="m 860.5,346.5 h 6 v 6 h -6 z"
         stroke="#ff0000"
         stroke-linejoin="round"
         stroke-miterlimit="10"
         fill="none"
         id="path371" />
    </g>
    <text
       xml:space="preserve"
       style="font-style:normal;font-variant:normal;font-weight:normal;font-stretch:normal;font-size:2.82222px;font-family:sans-serif;-inkscape-font-specification:'sans-serif, Normal';font-variant-ligatures:normal;font-variant-caps:normal;font-variant-numeric:normal;font-variant-east-asian:normal;text-align:center;text-anchor:middle;fill:#000000;stroke-width:0.264583"
       x="32.366894"
       y="239.14777"
       id="text1"><tspan
         sodipodi:role="line"
         id="tspan1"
         style="font-style:normal;font-variant:normal;font-weight:normal;font-stretch:normal;font-size:2.82222px;font-family:sans-serif;-inkscape-font-specification:'sans-serif, Normal';font-variant-ligatures:normal;font-variant-caps:normal;font-variant-numeric:normal;font-variant-east-asian:normal;stroke-width:0.264583"
         x="32.366894"
         y="239.14777">Chiang, Sheu (1999) - x1=30</tspan></text>
    <text
       xml:space="preserve"
       style="font-style:normal;font-variant:normal;font-weight:normal;font-stretch:normal;font-size:2.82222px;font-family:sans-serif;-inkscape-font-specification:'sans-serif, Normal';font-variant-ligatures:normal;font-variant-caps:normal;font-variant-numeric:normal;font-variant-east-asian:normal;text-align:center;text-anchor:middle;fill:#000000;stroke-width:0.264583"
       x="84.336601"
       y="238.91953"
       id="text1-9"><tspan
         sodipodi:role="line"
         id="tspan2"
         x="84.336601"
         y="238.91953">Chiang, Sheu (1999) - x1=14</tspan></text>
  </g>
</svg>
