<?xml version="1.0" encoding="UTF-8" standalone="no"?>
<!-- Created with Inkscape (http://www.inkscape.org/) -->

<svg
   width="128.85208mm"
   height="102.65833mm"
   viewBox="0 0 128.85208 102.65833"
   version="1.1"
   id="svg5"
   inkscape:version="1.3.2 (1:1.3.2+202311252150+091e20ef0f)"
   sodipodi:docname="resultado2D-1.svg"
   xmlns:inkscape="http://www.inkscape.org/namespaces/inkscape"
   xmlns:sodipodi="http://sodipodi.sourceforge.net/DTD/sodipodi-0.dtd"
   xmlns="http://www.w3.org/2000/svg"
   xmlns:svg="http://www.w3.org/2000/svg">
  <sodipodi:namedview
     id="namedview7"
     pagecolor="#ffffff"
     bordercolor="#000000"
     borderopacity="0.25"
     inkscape:showpageshadow="2"
     inkscape:pageopacity="0.0"
     inkscape:pagecheckerboard="0"
     inkscape:deskcolor="#d1d1d1"
     inkscape:document-units="mm"
     showgrid="false"
     inkscape:zoom="2.1089995"
     inkscape:cx="121.62165"
     inkscape:cy="320.76821"
     inkscape:window-width="1920"
     inkscape:window-height="997"
     inkscape:window-x="0"
     inkscape:window-y="0"
     inkscape:window-maximized="1"
     inkscape:current-layer="layer1" />
  <defs
     id="defs2">
    <clipPath
       clipPathUnits="userSpaceOnUse"
       id="clipPath1">
      <g
         id="g2"
         transform="matrix(3.7795276,0,0,3.7795276,681.78955,-569.80442)">
        <rect
           x="-16.877651"
           y="152.34825"
           width="128.85208"
           height="102.65833"
           id="rect1"
           style="stroke-width:0.264583" />
      </g>
    </clipPath>
    <clipPath
       clipPathUnits="userSpaceOnUse"
       id="clipPath2">
      <g
         id="g3"
         transform="matrix(3.7795276,0,0,3.7795276,681.78955,-569.80442)">
        <rect
           x="-16.877651"
           y="152.34825"
           width="128.85208"
           height="102.65833"
           id="rect2"
           style="stroke-width:0.264583" />
      </g>
    </clipPath>
    <clipPath
       clipPathUnits="userSpaceOnUse"
       id="clipPath3">
      <g
         id="g4"
         transform="matrix(3.7795276,0,0,3.7795276,681.78955,-569.80442)">
        <rect
           x="-16.877651"
           y="152.34825"
           width="128.85208"
           height="102.65833"
           id="rect3"
           style="stroke-width:0.264583" />
      </g>
    </clipPath>
    <clipPath
       clipPathUnits="userSpaceOnUse"
       id="clipPath4">
      <g
         id="g5"
         transform="matrix(3.7795276,0,0,3.7795276,681.78955,-569.80442)">
        <rect
           x="-16.877651"
           y="152.34825"
           width="128.85208"
           height="102.65833"
           id="rect4"
           style="stroke-width:0.264583" />
      </g>
    </clipPath>
    <clipPath
       clipPathUnits="userSpaceOnUse"
       id="clipPath5">
      <g
         id="g6"
         transform="matrix(3.7795276,0,0,3.7795276,681.78955,-569.80442)">
        <rect
           x="-16.877651"
           y="152.34825"
           width="128.85208"
           height="102.65833"
           id="rect5"
           style="stroke-width:0.264583" />
      </g>
    </clipPath>
    <clipPath
       clipPathUnits="userSpaceOnUse"
       id="clipPath6">
      <g
         id="g7"
         transform="matrix(3.7795276,0,0,3.7795276,681.78955,-569.80442)">
        <rect
           x="-16.877651"
           y="152.34825"
           width="128.85208"
           height="102.65833"
           id="rect6"
           style="stroke-width:0.264583" />
      </g>
    </clipPath>
    <clipPath
       clipPathUnits="userSpaceOnUse"
       id="clipPath7">
      <g
         id="g8"
         transform="matrix(3.7795276,0,0,3.7795276,681.78955,-569.80442)">
        <rect
           x="-16.877651"
           y="152.34825"
           width="128.85208"
           height="102.65833"
           id="rect7"
           style="stroke-width:0.264583" />
      </g>
    </clipPath>
    <clipPath
       clipPathUnits="userSpaceOnUse"
       id="clipPath8">
      <g
         id="g9"
         transform="matrix(3.7795276,0,0,3.7795276,681.78955,-569.80442)">
        <rect
           x="-16.877651"
           y="152.34825"
           width="128.85208"
           height="102.65833"
           id="rect8"
           style="stroke-width:0.264583" />
      </g>
    </clipPath>
    <clipPath
       clipPathUnits="userSpaceOnUse"
       id="clipPath9">
      <g
         id="g10"
         transform="matrix(3.7795276,0,0,3.7795276,681.78955,-569.80442)">
        <rect
           x="-16.877651"
           y="152.34825"
           width="128.85208"
           height="102.65833"
           id="rect9"
           style="stroke-width:0.264583" />
      </g>
    </clipPath>
    <clipPath
       clipPathUnits="userSpaceOnUse"
       id="clipPath10">
      <g
         id="g11"
         transform="matrix(3.7795276,0,0,3.7795276,681.78955,-569.80442)">
        <rect
           x="-16.877651"
           y="152.34825"
           width="128.85208"
           height="102.65833"
           id="rect10"
           style="stroke-width:0.264583" />
      </g>
    </clipPath>
    <clipPath
       clipPathUnits="userSpaceOnUse"
       id="clipPath11">
      <g
         id="g12"
         transform="matrix(3.7795276,0,0,3.7795276,681.78955,-569.80442)">
        <rect
           x="-16.877651"
           y="152.34825"
           width="128.85208"
           height="102.65833"
           id="rect11"
           style="stroke-width:0.264583" />
      </g>
    </clipPath>
    <clipPath
       clipPathUnits="userSpaceOnUse"
       id="clipPath12">
      <g
         id="g13"
         transform="matrix(3.7795276,0,0,3.7795276,681.78955,-569.80442)">
        <rect
           x="-16.877651"
           y="152.34825"
           width="128.85208"
           height="102.65833"
           id="rect12"
           style="stroke-width:0.264583" />
      </g>
    </clipPath>
    <clipPath
       clipPathUnits="userSpaceOnUse"
       id="clipPath13">
      <g
         id="g14"
         transform="matrix(3.7795276,0,0,3.7795276,681.78955,-569.80442)">
        <rect
           x="-16.877651"
           y="152.34825"
           width="128.85208"
           height="102.65833"
           id="rect13"
           style="stroke-width:0.264583" />
      </g>
    </clipPath>
    <clipPath
       clipPathUnits="userSpaceOnUse"
       id="clipPath14">
      <g
         id="g15"
         transform="matrix(3.7795276,0,0,3.7795276,681.78955,-569.80442)">
        <rect
           x="-16.877651"
           y="152.34825"
           width="128.85208"
           height="102.65833"
           id="rect14"
           style="stroke-width:0.264583" />
      </g>
    </clipPath>
    <clipPath
       clipPathUnits="userSpaceOnUse"
       id="clipPath15">
      <g
         id="g16"
         transform="matrix(3.7795276,0,0,3.7795276,681.78955,-569.80442)">
        <rect
           x="-16.877651"
           y="152.34825"
           width="128.85208"
           height="102.65833"
           id="rect15"
           style="stroke-width:0.264583" />
      </g>
    </clipPath>
    <clipPath
       clipPathUnits="userSpaceOnUse"
       id="clipPath16">
      <g
         id="g17">
        <rect
           x="-16.877651"
           y="152.34825"
           width="128.85208"
           height="102.65833"
           id="rect16"
           style="stroke-width:0.264583" />
      </g>
    </clipPath>
  </defs>
  <g
     inkscape:label="Camada 1"
     inkscape:groupmode="layer"
     id="layer1"
     transform="translate(16.877652,-152.34825)">
    <rect
       x="-16.877651"
       y="152.34825"
       width="128.85208"
       height="102.65833"
       fill="#ffffff"
       id="rect137"
       style="stroke-width:0.264583"
       clip-path="url(#clipPath16)" />
    <g
       id="g141"
       transform="matrix(0.26458333,0,0,0.26458333,-180.39015,150.76075)"
       clip-path="url(#clipPath15)">
      <path
         d="m 691.5,311.5 h 393 m -393,-49 h 393 m -393,-48 h 393 m -393,-49 h 393 m -393,-95.9999 h 393 m -393,-49 h 393"
         stroke="#d9d9d9"
         stroke-linejoin="round"
         stroke-miterlimit="10"
         fill="none"
         id="path139" />
    </g>
    <g
       id="g145"
       transform="matrix(0.26458333,0,0,0.26458333,-180.39015,150.76075)"
       clip-path="url(#clipPath14)">
      <path
         d="M 762.5,20.5001 V 311.5 m 72,-290.9999 V 311.5 m 71,-290.9999 V 311.5 m 71,-290.9999 V 311.5 m 72,-290.9999 V 311.5"
         stroke="#d9d9d9"
         stroke-linejoin="round"
         stroke-miterlimit="10"
         fill="none"
         id="path143" />
    </g>
    <g
       id="g149"
       transform="matrix(0.26458333,0,0,0.26458333,-180.39015,150.76075)"
       clip-path="url(#clipPath13)">
      <rect
         x="691.5"
         y="20.500099"
         width="393"
         height="291"
         stroke="#000000"
         stroke-linejoin="round"
         stroke-miterlimit="10"
         fill="none"
         id="rect147" />
    </g>
    <g
       id="g153"
       transform="matrix(0.26458333,0,0,0.26458333,-180.39015,150.76075)"
       clip-path="url(#clipPath12)">
      <path
         d="M 0,0 1.04987e-4,291"
         stroke="#000000"
         stroke-linejoin="round"
         stroke-miterlimit="10"
         fill="none"
         fill-rule="evenodd"
         transform="matrix(1,0,0,-1,691.5,311.5)"
         id="path151" />
    </g>
    <g
       id="g157"
       transform="matrix(0.26458333,0,0,0.26458333,-180.39015,150.76075)"
       clip-path="url(#clipPath11)">
      <path
         d="m 691.5,311.5 h 2 m -2,-10 h 2 m -2,-10 h 2 m -2,-10 h 2 m -2,-9 h 2 m -2,-10 h 2 m -2,-10 h 2 m -2,-9 h 2 m -2,-10 h 2 m -2,-10 h 2 m -2,-9 h 2 m -2,-10 h 2 m -2,-10 h 2 m -2,-9 h 2 m -2,-10 h 2 m -2,-10 h 2 m -2,-9 h 2 m -2,-10 h 2 m -2,-10 h 2 m -2,-9 h 2 m -2,-10 h 2 m -2,-10 h 2 m -2,-8.9999 h 2 m -2,-10 h 2 m -2,-10 h 2 m -2,-9 h 2 m -2,-10 h 2 m -2,-10 h 2 m -2,-9 h 2 m -2,-10 h 2 m -2,-10 h 2 m -6,290.9999 h 7 m -7,-49 h 7 m -7,-48 h 7 m -7,-49 h 7 m -7,-48 h 7 m -7,-47.9999 h 7 m -7,-49 h 7"
         stroke="#000000"
         stroke-linejoin="round"
         stroke-miterlimit="10"
         fill="none"
         id="path155" />
    </g>
    <g
       id="g161"
       transform="matrix(0.26458333,0,0,0.26458333,-180.39015,150.76075)"
       clip-path="url(#clipPath10)">
      <path
         d="m 691.5,117.5 h 393"
         stroke="#000000"
         stroke-linejoin="round"
         stroke-miterlimit="10"
         fill="none"
         fill-rule="evenodd"
         id="path159" />
    </g>
    <g
       id="g165"
       transform="matrix(0.26458333,0,0,0.26458333,-180.39015,150.76075)"
       clip-path="url(#clipPath9)">
      <path
         d="m 691.5,114.5 v 3 m 14,-3 v 3 m 14,-3 v 3 m 15,-3 v 3 m 14,-3 v 3 m 14,-3 v 3 m 14,-3 v 3 m 15,-3 v 3 m 14,-3 v 3 m 14,-3 v 3 m 15,-3 v 3 m 14,-3 v 3 m 14,-3 v 3 m 14,-3 v 3 m 15,-3 v 3 m 14,-3 v 3 m 14,-3 v 3 m 15,-3 v 3 m 14,-3 v 3 m 14,-3 v 3 m 14,-3 v 3 m 15,-3 v 3 m 14,-3 v 3 m 14,-3 v 3 m 15,-3 v 3 m 14,-3 v 3 m 14,-3 v 3 m 14,-3 v 3 m -385,-4 v 8 m 71,-8 v 8 m 72,-8 v 8 m 71,-8 v 8 m 71,-8 v 8 m 72,-8 v 8"
         stroke="#000000"
         stroke-linejoin="round"
         stroke-miterlimit="10"
         fill="none"
         id="path163" />
    </g>
    <g
       id="g169"
       transform="matrix(0.26458333,0,0,0.26458333,-180.39015,150.76075)"
       clip-path="url(#clipPath8)">
      <path
         d="m 691,288 h 1 v 0 0 h 1 v 0 h 1 v 0 0 h 1 v 0 h 1 v 0 0 h 1 v 0 h 1 v 0 0 h 1 v 0 h 1 v 0 0 h 1 v 0 0 h 1 v 0 h 1 v 0 0 h 1 v 0 h 1 v 0 0 l 1,-1 v 0 h 1 v 0 0 h 1 v 0 h 1 v 0 -1 h 1 v 0 h 1 v 0 0 h 1 v 0 0 h 1 v 0 h 1 v -1 0 h 1 v 0 h 1 v 0 0 l 1,-1 v 0 h 1 v 0 -1 h 1 v 0 h 1 v -1 0 h 1 v 0 h 1 v -1 0 h 1 v 0 -1 h 1 v 0 h 1 v -1 0 h 1 v 0 l 1,-1 v 0 0 h 1 v -1 h 1 v 0 0 l 1,-1 v 0 h 1 v 0 -1 h 1 v 0 l 1,-1 v 0 0 l 1,-1 v 0 -1 h 1 v 0 l 1,-1 v 0 0 l 1,-1 v 0 h 1 v -1 0 l 1,-1 v 0 h 1 v -1 0 l 1,-1 v 0 l 1,-1 v 0 0 l 1,-1 v 0 l 1,-1 v 0 -1 h 1 v -1 0 l 1,-1 v 0 l 1,-1 v 0 0 l 1,-1 v 0 l 1,-1 v 0 0 l 1,-1 v -1 h 1 v -1 -1 l 1,-2 v -1 l 1,-1 v -2 -1 l 1,-1 v -1 l 1,-1 v -1 -1 l 1,-1 v -1 -1 l 1,-1 v -1 l 1,-2 v -1 -2 l 1,-2 v -2 l 1,-2 v -2 -1 l 1,-2 v -3 l 1,-2 v -2 -3 l 1,-3 v -2 l 1,-3 v -3 -3 l 1,-3 v -3 l 1,-3 v -3 -3 l 1,-4 v -3 -4 l 1,-4 v -4 l 1,-4 v -5 -4 l 1,-5 v -4 l 1,-5 v -5 -6 l 1,-5 v -4 l 1,-3 v -3 -2 l 1,-2 v 0 h 1 v -1 -1 l 1,-1 v 0 h 1 v 0 0 h 1 v 0 0 l 1,-1 v -1 h 1 v 0 1 h 1 v 1 l 1,2 v 1 0 l 1,1 v 0 l 1,1 v 1 1 l 1,1 v 2 l 1,2 v 1 0 l 1,1 v 1 l 1,1 v 1 1 l 1,1 v 1 2 h 1 v 1 h 1 v 1 0 l 1,1 v 1 h 1 v 1 0 l 1,1 v 0 h 1 v 1 0 h 1 v 1 h 1 v 0 0 h 1 v 0 h 1 v 0 0 h 1 v 0 0 h 1 v 0 h 1 v 0 0 l 1,-1 v 0 h 1 v 0 -1 h 1 v 0 h 1 v 0 -1 h 1 v -1 h 1 v -1 0 h 1 v -1 h 1 v 0 -1 h 1 v -1 0 l 1,-1 v 0 l 1,-1 v 0 -1 h 1 v -1 h 1 v -1 -1 h 1 v -1 h 1 v 0 -1 h 1 v -1 h 1 v -1 -1 h 1 v -1 h 1 v -1 0 l 1,-1 v -1 0 l 1,-1 v 0 l 1,-1 v 0 -1 h 1 v 0 l 1,-1 v 0 -1 l 1,-1 v 0 l 1,-1 v 0 0 l 1,-1 v 0 l 1,-1 v 0 -1 h 1 v -1 h 1 v -1 0 l 1,-1 v 0 0 l 1,-1 v 0 l 1,-1 v 0 -1 h 1 v -1 h 1 v -1 0 l 1,-1 v 0 h 1 v -1 0 h 1 v -1 h 1 v -1 0 h 1 v -1 h 1 v -1 0 l 1,-1 v 0 0 l 1,-1 v 0 l 1,-1 v 0 0 l 1,-1 v 0 h 1 v -1 0 h 1 v -1 h 1 v 0 -1 h 1 v 0 l 1,-1 v 0 0 l 1,-1 v 0 h 1 v -1 0 h 1 v -1 0 h 1 v -1 h 1 v 0 0 l 1,-1 v 0 h 1 v 0 -1 h 1 v 0 l 1,-1 v 0 0 h 1 v -1 h 1 v 0 0 h 1 v -1 h 1 v 0 0 h 1 v -1 0 h 1 v 0 h 1 v -1 0 h 1 v 0 h 1 v -1 0 h 1 v 0 h 1 v -1 0 h 1 v 0 h 1 v 0 0 l 1,-1 v 0 h 1 v 0 0 h 1 v 0 -1 h 1 v 0 h 1 v 0 0 h 1 v 0 l 1,-1 v 0 0 h 1 v 0 h 1 v 0 0 h 1 v -1 h 1 v 0 0 h 1 v 0 h 1 v 0 0 h 1 v 0 -1 h 1 v 0 h 1 v 0 0 h 1 v 0 h 1 v 0 0 h 1 v 0 h 1 v 0 -1 h 1 v 0 h 1 v 0 0 h 1 v 0 h 1 v 0 0 h 1 v 0 0 h 1 v 0 h 1 v 0 0 h 1 v 0 h 1 v 0 0 h 1 v 0 h 1 v 0 0 h 1 v 0 h 1 v 0 0 h 1 v 0 h 1 v 0 0 h 1 v 0 0 h 1 v 0 h 1 v 0 0 h 1 v 0 h 1 v 0 0 h 1 v 0 h 1 v 0 0 h 1 v 0 h 1 v 0 0 h 1 v 0 h 1 v 0 1 h 1 v 0 0 h 1 v 0 h 1 v 0 0 h 1 v 0 h 1 v 0 0 h 1 v 0 h 1 v 0 0 h 1 v 0 l 1,1 v 0 0 h 1 v 0 h 1 v 0 0 h 1 v 0 0 h 1 v 0 h 1 v 0 0 l 1,1 v 0 h 1 v 0 0 h 1 v 0 h 1 v 0 0 h 1 v 0 h 1 v 1 0 h 1 v 0 0 h 1 v 0 h 1 v 0 0 h 1 v 0 l 1,1 v 0 0 h 1 v 0 h 1 v 0 0 h 1 v 0 h 1 v 1 0 h 1 v 0 h 1 v 0 0 h 1 v 0 0 l 1,1 v 0 h 1 v 0 0 h 1 v 0 h 1 v 0 0 l 1,1 v 0 h 1 v 0 0 h 1 v 0 h 1 v 1 0 h 1 v 0 h 1 v 0 0 h 1 v 0 1 h 1 v 0 h 1 v 0 0 h 1 v 0 h 1 v 1 0 h 1 v 0 h 1 v 0 0 h 1 v 1 h 1 v 0 0 h 1 v 0 h 1 v 0 1 h 1 v 0 0 h 1 v 0 h 1 v 1 0 h 1 v 0 h 1 v 0 0 h 1 v 1 h 1 v 0 0 h 1 v 0 h 1 v 0 1 h 1 v 0 h 1 v 0 0 h 1 v 1 0 h 1 v 0 h 1 v 0 0 l 1,1 v 0 h 1 v 0 0 h 1 v 0 l 1,1 v 0 0 h 1 v 0 h 1 v 0 1 h 1 v 0 h 1 v 0 0 l 1,1 v 0 0 h 1 v 0 h 1 v 0 1 h 1 v 0 h 1 v 0 0 l 1,1 v 0 h 1 v 0 0 h 1 v 0 l 1,1 v 0 0 h 1 v 0 h 1 v 0 1 h 1 v 0 0 h 1 v 0 l 1,1 v 0 0 h 1 v 0 h 1 v 1 0 h 1 v 0 h 1 v 0 1 h 1 v 0 h 1 v 0 0 h 1 v 1 h 1 v 0 0 h 1 v 0 1 h 1 v 0 h 1 v 0 0 l 1,1 v 0 h 1 v 0 0 h 1 v 1 h 1 v 0 0 h 1 v 0 l 1,1 v 0 0 h 1 v 0 h 1 v 1 0 h 1 v 0 0 h 1 v 1 h 1 v 0 0 h 1 v 0 l 1,1 v 0 0 h 1 v 0 l 1,1 v 0 0 h 1 v 0 h 1 v 1 0 h 1 v 0 h 1 v 0 1 h 1 v 0 0 h 1 v 0 l 1,1 v 0 0 h 1 v 0 l 1,1 v 0 0 h 1 v 0 h 1 v 1 0 h 1 v 0 h 1 v 0 1 h 1 v 0 h 1 v 0 1 h 1 v 0 0 h 1 v 0 l 1,1 v 0 0 h 1 v 0 l 1,1 v 0 0 h 1 v 0 h 1 v 1 0 h 1 v 0 h 1 v 0 1 h 1 v 0 h 1 v 0 1 h 1 v 0 0 h 1 v 0 l 1,1 v 0 0 h 1 v 0 l 1,1 v 0 0 h 1 v 0 h 1 v 1 0 h 1 v 0 h 1 v 1 0 h 1 v 0 h 1 v 1 0 h 1 v 0 0 h 1 v 1 h 1 v 0 0 h 1 v 1 h 1 v 0 0 h 1 v 0 l 1,1 v 0 0 h 1 v 0 l 1,1 v 0 0 h 1 v 0 l 1,1 v 0 0 h 1 v 0"
         stroke="#000000"
         stroke-width="2"
         stroke-linecap="round"
         stroke-linejoin="round"
         stroke-miterlimit="10"
         fill="none"
         id="path167" />
    </g>
    <g
       id="g173"
       transform="matrix(0.26458333,0,0,0.26458333,-180.39015,150.76075)"
       clip-path="url(#clipPath7)">
      <path
         d="m 691,267 h 1 v 1 0 l 1,1 v 1 l 1,1 v 1 1 l 1,2 v 1 l 1,1 v 1 0 l 1,1 v 1 h 1 v 0 0 l 1,2 v 1 h 1 v 1 0 l 1,1 v 0 0 h 1 v 0 l 1,1 v 0 0 l 1,1 v 0 l 1,-1 v 0 0 h 1 v 0 l 1,1 v 0 0 h 1 v 0 h 1 v -1 0 h 1 v 0 h 1 v 0 0 h 1 v -1 0 l 1,-1 v 1 h 1 v 0 -1 h 1 v 0 l 1,-1 v 0 0 h 1 v 0 l 1,-1 v 0 0 h 1 v -1 h 1 v 0 0 h 1 v 0 h 1 v 0 -1 h 1 v 0 0 l 1,-1 v -1 l 1,-1 v -1 0 l 1,-1 v -1 h 1 v -1 0 h 1 v -1 h 1 v 0 0 l 1,-1 v 0 l 1,-1 v 0 -1 l 1,-1 v 0 l 1,-1 v -1 -1 l 1,-1 v -1 -1 h 1 v -1 h 1 v -1 0 l 1,-1 v -1 l 1,-1 v 0 -1 l 1,-1 v -1 l 1,-1 v -2 -1 l 1,-1 v -2 l 1,-2 v 0 -1 l 1,-1 v -1 l 1,-1 v -1 -2 l 1,-1 v -2 -1 l 1,-1 v -1 l 1,-1 v -2 -1 l 1,-2 v -1 l 1,-2 v -2 -1 l 1,-1 v -1 l 1,-1 v -2 -1 l 1,-2 v -2 l 1,-2 v -1 -1 l 1,-1 v -1 l 1,-2 v -1 -2 l 1,-1 v -2 -1 l 1,-1 v -1 l 1,-1 v -2 -1 l 1,-1 v -1 l 1,-1 v -1 -1 l 1,-1 v -1 l 1,-1 v -1 0 l 1,-1 v -1 l 1,-1 v -1 -1 l 1,-1 v 0 l 1,-1 v -1 0 l 1,-1 v 0 -1 l 1,-1 v 0 l 1,-1 v 0 -1 h 1 v 0 l 1,-1 v 0 0 l 1,-1 v 0 h 1 v -1 0 h 1 v 0 h 1 v -1 0 h 1 v 0 h 1 v 0 -1 h 1 v 0 0 h 1 v 0 l 1,-1 v 0 0 h 1 v 0 l 1,-1 v 0 0 h 1 v -1 h 1 v 0 0 h 1 v -1 h 1 v 0 -1 h 1 v 0 l 1,-1 v 0 0 l 1,-1 v 0 -1 h 1 v 0 h 1 v -1 0 l 1,-1 v 0 h 1 v -1 0 h 1 v -1 h 1 v -1 0 h 1 v -1 h 1 v -1 0 l 1,-1 v 0 l 1,-1 v 0 0 l 1,-1 v 0 -1 h 1 v -1 h 1 v -1 -1 h 1 v -1 h 1 v -1 -1 h 1 v -1 h 1 v -1 -1 h 1 v -1 h 1 v -1 -1 h 1 v -1 h 1 v -1 0 l 1,-1 v -1 0 l 1,-1 v 0 l 1,-1 v 0 -1 l 1,-1 v 0 l 1,-1 v 0 -1 l 1,-1 v 0 l 1,-1 v -1 0 l 1,-1 v -1 h 1 v -1 0 l 1,-1 v -1 h 1 v -1 -1 h 1 v -1 -1 h 1 v -1 l 1,-1 v 0 -1 l 1,-1 v -1 h 1 v -1 0 l 1,-1 v -1 h 1 v -1 -1 h 1 v -1 l 1,-1 v 0 -1 h 1 v -1 l 1,-1 v 0 -1 l 1,-1 v 0 -1 h 1 v -1 h 1 v -1 0 l 1,-1 v 0 l 1,-1 v 0 -1 h 1 v -1 h 1 v -1 -1 h 1 v -1 h 1 v -1 0 h 1 v -1 h 1 v -1 0 h 1 v -1 0 h 1 v -1 h 1 v 0 -1 h 1 v -1 h 1 v 0 -1 h 1 v 0 l 1,-1 v 0 0 l 1,-1 v 0 h 1 v -1 0 h 1 v 0 h 1 v -1 0 h 1 v -1 0 h 1 v 0 l 1,-1 v 0 0 h 1 v 0 l 1,-1 v 0 0 h 1 v 0 l 1,-1 v 0 0 h 1 v 0 l 1,-1 v 0 0 h 1 v 0 l 1,-1 v 0 0 h 1 v 0 0 h 1 v 0 h 1 v -1 0 h 1 v 0 h 1 v 0 0 h 1 v 0 l 1,-1 v 0 0 h 1 v 0 h 1 v 0 0 h 1 v -1 h 1 v 0 0 h 1 v 0 0 h 1 v 0 h 1 v 0 -1 h 1 v 0 h 1 v 0 0 h 1 v 0 h 1 v 0 0 h 1 v 0 h 1 v 0 0 l 1,-1 v 0 h 1 v 0 0 h 1 v 0 0 h 1 v 0 h 1 v 0 0 h 1 v 0 h 1 v 0 0 h 1 v 0 h 1 v -1 0 h 1 v 0 h 1 v 0 0 h 1 v 0 h 1 v 0 0 h 1 v 0 0 h 1 v 0 h 1 v 0 0 h 1 v 0 h 1 v 0 0 h 1 v 0 h 1 v 0 0 h 1 v 0 h 1 v 0 0 h 1 v 0 h 1 v 0 0 h 1 v 0 0 h 1 v 0 h 1 v 0 0 h 1 v 0 h 1 v 0 0 h 1 v 0 h 1 v 0 0 h 1 v 0 h 1 v 0 0 h 1 v 0 h 1 v 1 0 h 1 v 0 0 h 1 v 0 h 1 v 0 0 h 1 v 0 h 1 v 0 0 h 1 v 0 h 1 v 0 0 h 1 v 1 h 1 v 0 0 h 1 v 0 h 1 v 0 0 h 1 v 0 0 h 1 v 0 h 1 v 0 0 l 1,1 v 0 h 1 v 0 0 h 1 v 0 h 1 v 0 0 h 1 v 0 h 1 v 1 0 h 1 v 0 0 h 1 v 0 h 1 v 0 0 h 1 v 0 l 1,1 v 0 0 h 1 v 0 h 1 v 0 0 h 1 v 0 h 1 v 1 0 h 1 v 0 h 1 v 0 0 h 1 v 0 0 l 1,1 v 0 h 1 v 0 0 h 1 v 0 h 1 v 0 0 l 1,1 v 0 h 1 v 0 0 h 1 v 0 h 1 v 0 1 h 1 v 0 h 1 v 0 0 h 1 v 0 1 h 1 v 0 h 1 v 0 0 h 1 v 0 h 1 v 1 0 h 1 v 0 h 1 v 0 0 h 1 v 1 h 1 v 0 0 h 1 v 0 h 1 v 0 1 h 1 v 0 0 h 1 v 0 h 1 v 1 0 h 1 v 0 h 1 v 0 0 h 1 v 1 h 1 v 0 0 h 1 v 0 h 1 v 0 1 h 1 v 0 h 1 v 0 0 h 1 v 1 0 h 1 v 0 h 1 v 0 0 l 1,1 v 0 h 1 v 0 0 h 1 v 0 l 1,1 v 0 0 h 1 v 0 h 1 v 0 1 h 1 v 0 h 1 v 0 0 l 1,1 v 0 0 h 1 v 0 h 1 v 0 1 h 1 v 0 h 1 v 0 0 h 1 v 1 h 1 v 0 0 h 1 v 0 l 1,1 v 0 0 h 1 v 0 h 1 v 0 1 h 1 v 0 0 h 1 v 0 l 1,1 v 0 0 h 1 v 0 h 1 v 1 0 h 1 v 0 h 1 v 0 1 h 1 v 0 h 1 v 0 0 h 1 v 1 h 1 v 0 0 h 1 v 0 1 h 1 v 0 h 1 v 0 0 l 1,1 v 0 h 1 v 0 0 h 1 v 1 h 1 v 0 0 h 1 v 0 l 1,1 v 0 0 h 1 v 0 h 1 v 1 0 h 1 v 0 0 h 1 v 1 h 1 v 0 0 h 1 v 0 l 1,1 v 0 0 h 1 v 0 l 1,1 v 0 0 h 1 v 0 h 1 v 1 0 h 1 v 0 h 1 v 0 1 h 1 v 0 0 h 1 v 0 l 1,1 v 0 0 h 1 v 0 l 1,1 v 0 0 h 1 v 0 h 1 v 1 0 h 1 v 0 h 1 v 0 1 h 1 v 0 h 1 v 0 1 h 1 v 0 0 h 1 v 0 l 1,1 v 0 0 h 1 v 0 l 1,1 v 0 0 h 1 v 0 h 1 v 1 0 h 1 v 0 h 1 v 0 1 h 1 v 0 h 1 v 0 1 h 1 v 0 0 h 1 v 0 l 1,1 v 0 0 h 1 v 0 l 1,1 v 0 0 h 1 v 0 h 1 v 1 0 h 1 v 0 h 1 v 1 0 h 1 v 0 h 1 v 1 0 h 1 v 0 0 h 1 v 1 h 1 v 0 0 h 1 v 1 h 1 v 0 0 h 1 v 0 l 1,1 v 0 0 h 1 v 0 l 1,1 v 0 0 h 1 v 0 l 1,1 v 0 0 h 1 v 0"
         stroke="#000000"
         stroke-width="2"
         stroke-linecap="round"
         stroke-linejoin="round"
         stroke-miterlimit="10"
         stroke-dasharray="4, 4"
         fill="none"
         id="path171" />
    </g>
    <g
       id="g249"
       transform="matrix(0.26458333,0,0,0.26458333,-180.39015,150.76075)"
       clip-path="url(#clipPath6)">
      <path
         d="m 694.616,287 -7,-7 m 0,7 7,-7"
         stroke="#4472c4"
         stroke-linejoin="round"
         stroke-miterlimit="10"
         fill="none"
         id="path175" />
      <path
         d="m 708.616,287 -7,-7 m 0,7 7,-7"
         stroke="#4472c4"
         stroke-linejoin="round"
         stroke-miterlimit="10"
         fill="none"
         id="path177" />
      <path
         d="m 719.616,284 -7,-7 m 0,7 7,-7"
         stroke="#4472c4"
         stroke-linejoin="round"
         stroke-miterlimit="10"
         fill="none"
         id="path179" />
      <path
         d="m 730.616,278 -7,-7 m 0,7 7,-7"
         stroke="#4472c4"
         stroke-linejoin="round"
         stroke-miterlimit="10"
         fill="none"
         id="path181" />
      <path
         d="m 742.616,267 -7,-7 m 0,7 7,-7"
         stroke="#4472c4"
         stroke-linejoin="round"
         stroke-miterlimit="10"
         fill="none"
         id="path183" />
      <path
         d="m 749.616,258 -7,-7 m 0,7 7,-7"
         stroke="#4472c4"
         stroke-linejoin="round"
         stroke-miterlimit="10"
         fill="none"
         id="path185" />
      <path
         d="m 756.616,246 -7,-7 m 0,7 7,-7"
         stroke="#4472c4"
         stroke-linejoin="round"
         stroke-miterlimit="10"
         fill="none"
         id="path187" />
      <path
         d="m 762.616,229 -7,-7 m 0,7 7,-7"
         stroke="#4472c4"
         stroke-linejoin="round"
         stroke-miterlimit="10"
         fill="none"
         id="path189" />
      <path
         d="m 765.616,214 -7,-7 m 0,7 7,-7"
         stroke="#4472c4"
         stroke-linejoin="round"
         stroke-miterlimit="10"
         fill="none"
         id="path191" />
      <path
         d="m 768.616,199 -7,-7 m 0,7 7,-7"
         stroke="#4472c4"
         stroke-linejoin="round"
         stroke-miterlimit="10"
         fill="none"
         id="path193" />
      <path
         d="m 771.616,178 -7,-7 m 0,7 7,-7"
         stroke="#4472c4"
         stroke-linejoin="round"
         stroke-miterlimit="10"
         fill="none"
         id="path195" />
      <path
         d="m 774.616,151 -7,-7 m 0,7 7,-7"
         stroke="#4472c4"
         stroke-linejoin="round"
         stroke-miterlimit="10"
         fill="none"
         id="path197" />
      <path
         d="m 777.616,135 -7,-7 m 0,7 7,-7"
         stroke="#4472c4"
         stroke-linejoin="round"
         stroke-miterlimit="10"
         fill="none"
         id="path199" />
      <path
         d="m 779.616,122 -7,-7 m 0,7 7,-7"
         stroke="#4472c4"
         stroke-linejoin="round"
         stroke-miterlimit="10"
         fill="none"
         id="path201" />
      <path
         d="m 781.616,113 -7,-7 m 0,7 7,-7"
         stroke="#4472c4"
         stroke-linejoin="round"
         stroke-miterlimit="10"
         fill="none"
         id="path203" />
      <path
         d="m 784.616,106 -7,-7 m 0,7 7,-7"
         stroke="#4472c4"
         stroke-linejoin="round"
         stroke-miterlimit="10"
         fill="none"
         id="path205" />
      <path
         d="m 787.616,105 -7,-7 m 0,7 7,-7"
         stroke="#4472c4"
         stroke-linejoin="round"
         stroke-miterlimit="10"
         fill="none"
         id="path207" />
      <path
         d="m 790.616,110 -7,-7 m 0,7 7,-7"
         stroke="#4472c4"
         stroke-linejoin="round"
         stroke-miterlimit="10"
         fill="none"
         id="path209" />
      <path
         d="m 796.616,117 -7,-7 m 0,7 7,-7"
         stroke="#4472c4"
         stroke-linejoin="round"
         stroke-miterlimit="10"
         fill="none"
         id="path211" />
      <path
         d="m 802.616,123 -7,-7 m 0,7 7,-7"
         stroke="#4472c4"
         stroke-linejoin="round"
         stroke-miterlimit="10"
         fill="none"
         id="path213" />
      <path
         d="m 809.616,124 -7,-7 m 0,7 7,-7"
         stroke="#4472c4"
         stroke-linejoin="round"
         stroke-miterlimit="10"
         fill="none"
         id="path215" />
      <path
         d="m 820.616,115 -7,-7 m 0,7 7,-7"
         stroke="#4472c4"
         stroke-linejoin="round"
         stroke-miterlimit="10"
         fill="none"
         id="path217" />
      <path
         d="m 835.616,100 -7,-7 m 0,7 7,-7"
         stroke="#4472c4"
         stroke-linejoin="round"
         stroke-miterlimit="10"
         fill="none"
         id="path219" />
      <path
         d="m 844.616,90 -7,-7 m 0,7 7,-7"
         stroke="#4472c4"
         stroke-linejoin="round"
         stroke-miterlimit="10"
         fill="none"
         id="path221" />
      <path
         d="m 855.616,79 -7,-7 m 0,7 7,-7"
         stroke="#4472c4"
         stroke-linejoin="round"
         stroke-miterlimit="10"
         fill="none"
         id="path223" />
      <path
         d="m 866.616,71 -7,-7 m 0,7 7,-7"
         stroke="#4472c4"
         stroke-linejoin="round"
         stroke-miterlimit="10"
         fill="none"
         id="path225" />
      <path
         d="m 877.616,66 -7,-7 m 0,7 7,-7"
         stroke="#4472c4"
         stroke-linejoin="round"
         stroke-miterlimit="10"
         fill="none"
         id="path227" />
      <path
         d="m 889.616,62 -7,-7 m 0,7 7,-7"
         stroke="#4472c4"
         stroke-linejoin="round"
         stroke-miterlimit="10"
         fill="none"
         id="path229" />
      <path
         d="m 906.616,61 -7,-7 m 0,7 7,-7"
         stroke="#4472c4"
         stroke-linejoin="round"
         stroke-miterlimit="10"
         fill="none"
         id="path231" />
      <path
         d="m 923.616,62 -7,-7 m 0,7 7,-7"
         stroke="#4472c4"
         stroke-linejoin="round"
         stroke-miterlimit="10"
         fill="none"
         id="path233" />
      <path
         d="m 944.616,66 -7,-7 m 0,7 7,-7"
         stroke="#4472c4"
         stroke-linejoin="round"
         stroke-miterlimit="10"
         fill="none"
         id="path235" />
      <path
         d="m 964.616,71 -7,-7 m 0,7 7,-7"
         stroke="#4472c4"
         stroke-linejoin="round"
         stroke-miterlimit="10"
         fill="none"
         id="path237" />
      <path
         d="m 988.616,79 -7,-7 m 0,7 7,-7"
         stroke="#4472c4"
         stroke-linejoin="round"
         stroke-miterlimit="10"
         fill="none"
         id="path239" />
      <path
         d="m 1011.62,88 -7,-7 m 0,7 7,-7"
         stroke="#4472c4"
         stroke-linejoin="round"
         stroke-miterlimit="10"
         fill="none"
         id="path241" />
      <path
         d="m 1028.62,94 -7,-7 m 0,7 7,-7"
         stroke="#4472c4"
         stroke-linejoin="round"
         stroke-miterlimit="10"
         fill="none"
         id="path243" />
      <path
         d="m 1051.62,104 -7,-7 m 0,7 7,-7"
         stroke="#4472c4"
         stroke-linejoin="round"
         stroke-miterlimit="10"
         fill="none"
         id="path245" />
      <path
         d="m 1071.62,112 -7,-7 m 0,7 7,-7"
         stroke="#4472c4"
         stroke-linejoin="round"
         stroke-miterlimit="10"
         fill="none"
         id="path247" />
    </g>
    <g
       id="g311"
       transform="matrix(0.26458333,0,0,0.26458333,-180.39015,150.76075)"
       clip-path="url(#clipPath5)">
      <path
         d="m 690.116,264.5 h 5.999 v 6 h -5.999 z"
         stroke="#ff0000"
         stroke-linejoin="round"
         stroke-miterlimit="10"
         fill="none"
         id="path251" />
      <path
         d="m 693.116,270.5 h 5.999 v 6 h -5.999 z"
         stroke="#ff0000"
         stroke-linejoin="round"
         stroke-miterlimit="10"
         fill="none"
         id="path253" />
      <path
         d="m 695.116,279.5 h 5.999 v 6 h -5.999 z"
         stroke="#ff0000"
         stroke-linejoin="round"
         stroke-miterlimit="10"
         fill="none"
         id="path255" />
      <path
         d="m 702.116,280.5 h 5.999 v 6 h -5.999 z"
         stroke="#ff0000"
         stroke-linejoin="round"
         stroke-miterlimit="10"
         fill="none"
         id="path257" />
      <path
         d="m 716.116,275.5 h 5.999 v 6 h -5.999 z"
         stroke="#ff0000"
         stroke-linejoin="round"
         stroke-miterlimit="10"
         fill="none"
         id="path259" />
      <path
         d="m 725.116,267.5 h 5.999 v 6 h -5.999 z"
         stroke="#ff0000"
         stroke-linejoin="round"
         stroke-miterlimit="10"
         fill="none"
         id="path261" />
      <path
         d="m 733.116,254.5 h 5.999 v 6 h -5.999 z"
         stroke="#ff0000"
         stroke-linejoin="round"
         stroke-miterlimit="10"
         fill="none"
         id="path263" />
      <path
         d="m 738.116,242.5 h 5.999 v 6 h -5.999 z"
         stroke="#ff0000"
         stroke-linejoin="round"
         stroke-miterlimit="10"
         fill="none"
         id="path265" />
      <path
         d="m 745.116,223.5 h 5.999 v 6 h -5.999 z"
         stroke="#ff0000"
         stroke-linejoin="round"
         stroke-miterlimit="10"
         fill="none"
         id="path267" />
      <path
         d="m 751.116,202.5 h 5.999 v 6 h -5.999 z"
         stroke="#ff0000"
         stroke-linejoin="round"
         stroke-miterlimit="10"
         fill="none"
         id="path269" />
      <path
         d="m 757.116,188.5 h 5.999 v 6 h -5.999 z"
         stroke="#ff0000"
         stroke-linejoin="round"
         stroke-miterlimit="10"
         fill="none"
         id="path271" />
      <path
         d="m 761.116,176.5 h 5.999 v 6 h -5.999 z"
         stroke="#ff0000"
         stroke-linejoin="round"
         stroke-miterlimit="10"
         fill="none"
         id="path273" />
      <path
         d="m 767.116,162.5 h 5.999 v 6 h -5.999 z"
         stroke="#ff0000"
         stroke-linejoin="round"
         stroke-miterlimit="10"
         fill="none"
         id="path275" />
      <path
         d="m 775.116,152.5 h 5.999 v 6 h -5.999 z"
         stroke="#ff0000"
         stroke-linejoin="round"
         stroke-miterlimit="10"
         fill="none"
         id="path277" />
      <path
         d="m 785.116,142.5 h 5.999 v 6 h -5.999 z"
         stroke="#ff0000"
         stroke-linejoin="round"
         stroke-miterlimit="10"
         fill="none"
         id="path279" />
      <path
         d="m 795.116,134.5 h 5.999 v 6 h -5.999 z"
         stroke="#ff0000"
         stroke-linejoin="round"
         stroke-miterlimit="10"
         fill="none"
         id="path281" />
      <path
         d="m 804.116,123.5 h 5.999 v 6 h -5.999 z"
         stroke="#ff0000"
         stroke-linejoin="round"
         stroke-miterlimit="10"
         fill="none"
         id="path283" />
      <path
         d="m 814.116,107.5 h 5.999 v 6 h -5.999 z"
         stroke="#ff0000"
         stroke-linejoin="round"
         stroke-miterlimit="10"
         fill="none"
         id="path285" />
      <path
         d="m 825.116,93.5001 h 5.999 v 5.9998 h -5.999 z"
         stroke="#ff0000"
         stroke-linejoin="round"
         stroke-miterlimit="10"
         fill="none"
         id="path287" />
      <path
         d="m 836.116,79.5001 h 5.999 v 5.9998 h -5.999 z"
         stroke="#ff0000"
         stroke-linejoin="round"
         stroke-miterlimit="10"
         fill="none"
         id="path289" />
      <path
         d="m 846.116,69.5001 h 5.999 v 5.9998 h -5.999 z"
         stroke="#ff0000"
         stroke-linejoin="round"
         stroke-miterlimit="10"
         fill="none"
         id="path291" />
      <path
         d="m 863.116,60.5001 h 5.999 v 5.9998 h -5.999 z"
         stroke="#ff0000"
         stroke-linejoin="round"
         stroke-miterlimit="10"
         fill="none"
         id="path293" />
      <path
         d="m 882.116,56.5001 h 5.999 v 5.9998 h -5.999 z"
         stroke="#ff0000"
         stroke-linejoin="round"
         stroke-miterlimit="10"
         fill="none"
         id="path295" />
      <path
         d="m 898.116,54.5001 h 5.999 v 5.9998 h -5.999 z"
         stroke="#ff0000"
         stroke-linejoin="round"
         stroke-miterlimit="10"
         fill="none"
         id="path297" />
      <path
         d="m 922.116,55.5001 h 5.999 v 5.9998 h -5.999 z"
         stroke="#ff0000"
         stroke-linejoin="round"
         stroke-miterlimit="10"
         fill="none"
         id="path299" />
      <path
         d="m 946.116,60.5001 h 5.999 v 5.9998 h -5.999 z"
         stroke="#ff0000"
         stroke-linejoin="round"
         stroke-miterlimit="10"
         fill="none"
         id="path301" />
      <path
         d="m 978.116,70.5001 h 5.999 v 5.9998 h -5.999 z"
         stroke="#ff0000"
         stroke-linejoin="round"
         stroke-miterlimit="10"
         fill="none"
         id="path303" />
      <path
         d="m 1008.12,81.5001 h 6 v 5.9998 h -6 z"
         stroke="#ff0000"
         stroke-linejoin="round"
         stroke-miterlimit="10"
         fill="none"
         id="path305" />
      <path
         d="m 1034.12,93.5001 h 6 v 5.9998 h -6 z"
         stroke="#ff0000"
         stroke-linejoin="round"
         stroke-miterlimit="10"
         fill="none"
         id="path307" />
      <path
         d="m 1060.12,102.5 h 6 v 6 h -6 z"
         stroke="#ff0000"
         stroke-linejoin="round"
         stroke-miterlimit="10"
         fill="none"
         id="path309" />
    </g>
    <g
       id="g315"
       transform="matrix(0.26458333,0,0,0.26458333,-180.39015,150.76075)">
      <text
         font-family="Arial, Arial_MSFontService, sans-serif"
         font-weight="400"
         font-size="12px"
         transform="translate(653.616,315)"
         id="text313">-0.20</text>
    </g>
    <g
       id="g319"
       transform="matrix(0.26458333,0,0,0.26458333,-180.39015,150.76075)">
      <text
         font-family="Arial, Arial_MSFontService, sans-serif"
         font-weight="400"
         font-size="12px"
         transform="translate(653.616,267)"
         id="text317">-0.15</text>
    </g>
    <g
       id="g323"
       transform="matrix(0.26458333,0,0,0.26458333,-180.39015,150.76075)">
      <text
         font-family="Arial, Arial_MSFontService, sans-serif"
         font-weight="400"
         font-size="12px"
         transform="translate(653.616,218)"
         id="text321">-0.10</text>
    </g>
    <g
       id="g327"
       transform="matrix(0.26458333,0,0,0.26458333,-180.39015,150.76075)">
      <text
         font-family="Arial, Arial_MSFontService, sans-serif"
         font-weight="400"
         font-size="12px"
         transform="translate(653.616,170)"
         id="text325">-0.05</text>
    </g>
    <g
       id="g331"
       transform="matrix(0.26458333,0,0,0.26458333,-180.39015,150.76075)">
      <text
         font-family="Arial, Arial_MSFontService, sans-serif"
         font-weight="400"
         font-size="12px"
         transform="translate(657.609,121)"
         id="text329">0.00</text>
    </g>
    <g
       id="g335"
       transform="matrix(0.26458333,0,0,0.26458333,-180.39015,150.76075)">
      <text
         font-family="Arial, Arial_MSFontService, sans-serif"
         font-weight="400"
         font-size="12px"
         transform="translate(657.609,73)"
         id="text333">0.05</text>
    </g>
    <g
       id="g339"
       transform="matrix(0.26458333,0,0,0.26458333,-180.39015,150.76075)">
      <text
         font-family="Arial, Arial_MSFontService, sans-serif"
         font-weight="400"
         font-size="12px"
         transform="translate(657.609,25)"
         id="text337">0.10</text>
    </g>
    <g
       id="g343"
       transform="matrix(0.26458333,0,0,0.26458333,-180.39015,150.76075)">
      <text
         font-family="Arial, Arial_MSFontService, sans-serif"
         font-weight="400"
         font-size="12px"
         transform="translate(687.946,136)"
         id="text341">0</text>
    </g>
    <g
       id="g347"
       transform="matrix(0.26458333,0,0,0.26458333,-180.39015,150.76075)">
      <text
         font-family="Arial, Arial_MSFontService, sans-serif"
         font-weight="400"
         font-size="12px"
         transform="translate(756.028,136)"
         id="text345">10</text>
    </g>
    <g
       id="g351"
       transform="matrix(0.26458333,0,0,0.26458333,-180.39015,150.76075)">
      <text
         font-family="Arial, Arial_MSFontService, sans-serif"
         font-weight="400"
         font-size="12px"
         transform="translate(827.447,136)"
         id="text349">20</text>
    </g>
    <g
       id="g355"
       transform="matrix(0.26458333,0,0,0.26458333,-180.39015,150.76075)">
      <text
         font-family="Arial, Arial_MSFontService, sans-serif"
         font-weight="400"
         font-size="12px"
         transform="translate(898.867,136)"
         id="text353">30</text>
    </g>
    <g
       id="g359"
       transform="matrix(0.26458333,0,0,0.26458333,-180.39015,150.76075)">
      <text
         font-family="Arial, Arial_MSFontService, sans-serif"
         font-weight="400"
         font-size="12px"
         transform="translate(970.286,136)"
         id="text357">40</text>
    </g>
    <g
       id="g363"
       transform="matrix(0.26458333,0,0,0.26458333,-180.39015,150.76075)">
      <text
         font-family="Arial, Arial_MSFontService, sans-serif"
         font-weight="400"
         font-size="12px"
         transform="translate(1041.71,136)"
         id="text361">50</text>
    </g>
    <g
       id="g367"
       transform="matrix(0.26458333,0,0,0.26458333,-180.39015,150.76075)">
      <text
         font-family="Arial, Arial_MSFontService, sans-serif"
         font-weight="400"
         font-size="13px"
         transform="rotate(-90,418.641,-228.641)"
         id="text365">Pressão</text>
    </g>
    <g
       id="g371"
       transform="matrix(0.26458333,0,0,0.26458333,-180.39015,150.76075)">
      <text
         font-family="Cambria, Cambria_MSFontService, sans-serif"
         font-style="italic"
         font-weight="400"
         font-size="13px"
         transform="translate(882.222,326)"
         id="text369">x</text>
    </g>
    <g
       id="g375"
       transform="matrix(0.26458333,0,0,0.26458333,-180.39015,150.76075)">
      <text
         font-family="Arial, Arial_MSFontService, sans-serif"
         font-weight="400"
         font-size="9px"
         transform="translate(888.209,328)"
         id="text373">1</text>
    </g>
    <g
       id="g379"
       transform="matrix(0.26458333,0,0,0.26458333,-180.39015,150.76075)"
       clip-path="url(#clipPath4)">
      <path
         d="m 690.5,359.5 -7,-7 m 0,7 7,-7"
         stroke="#4472c4"
         stroke-linejoin="round"
         stroke-miterlimit="10"
         fill="none"
         id="path377" />
    </g>
    <g
       id="g387"
       transform="matrix(0.26458333,0,0,0.26458333,-180.39015,150.76075)"
       clip-path="url(#clipPath3)">
      <path
         d="m 880.5,352.5 h 6 v 6 h -6 z"
         stroke="#ff0000"
         stroke-linejoin="round"
         stroke-miterlimit="10"
         fill="none"
         id="path385" />
    </g>
    <g
       id="g395"
       transform="matrix(0.26458333,0,0,0.26458333,-180.39015,150.76075)"
       clip-path="url(#clipPath2)">
      <path
         d="m 669,377 h 34"
         stroke="#000000"
         stroke-width="2"
         stroke-linecap="round"
         stroke-linejoin="round"
         stroke-miterlimit="10"
         fill="none"
         fill-rule="evenodd"
         id="path393" />
    </g>
    <g
       id="g399"
       transform="matrix(0.26458333,0,0,0.26458333,-180.39015,150.76075)">
      <text
         font-family="Arial, Arial_MSFontService, sans-serif"
         font-weight="400"
         font-size="12px"
         transform="translate(706.601,381)"
         id="text397">Autor - Fundo</text>
    </g>
    <g
       id="g403"
       transform="matrix(0.26458333,0,0,0.26458333,-180.39015,150.76075)"
       clip-path="url(#clipPath1)">
      <path
         d="m 867,377 h 33"
         stroke="#000000"
         stroke-width="2"
         stroke-linecap="round"
         stroke-linejoin="round"
         stroke-miterlimit="10"
         stroke-dasharray="4, 4"
         fill="none"
         fill-rule="evenodd"
         id="path401" />
    </g>
    <g
       id="g407"
       transform="matrix(0.26458333,0,0,0.26458333,-180.39015,150.76075)">
      <text
         font-family="Arial, Arial_MSFontService, sans-serif"
         font-weight="400"
         font-size="12px"
         transform="translate(904.022,381)"
         id="text405">Autor - Topo</text>
    </g>
    <text
       xml:space="preserve"
       style="font-style:normal;font-variant:normal;font-weight:normal;font-stretch:normal;font-size:2.82222px;font-family:sans-serif;-inkscape-font-specification:'sans-serif, Normal';font-variant-ligatures:normal;font-variant-caps:normal;font-variant-numeric:normal;font-variant-east-asian:normal;text-align:center;text-anchor:middle;fill:#000000;stroke-width:0.264583"
       x="26.772921"
       y="245.85434"
       id="text17"><tspan
         sodipodi:role="line"
         id="tspan17"
         style="font-style:normal;font-variant:normal;font-weight:normal;font-stretch:normal;font-size:2.82222px;font-family:sans-serif;-inkscape-font-specification:'sans-serif, Normal';font-variant-ligatures:normal;font-variant-caps:normal;font-variant-numeric:normal;font-variant-east-asian:normal;stroke-width:0.264583"
         x="26.772921"
         y="245.85434">Chiang, Sheu (1999) - Fundo</tspan></text>
    <text
       xml:space="preserve"
       style="font-style:normal;font-variant:normal;font-weight:normal;font-stretch:normal;font-size:2.82222px;font-family:sans-serif;-inkscape-font-specification:'sans-serif, Normal';font-variant-ligatures:normal;font-variant-caps:normal;font-variant-numeric:normal;font-variant-east-asian:normal;text-align:center;text-anchor:middle;fill:#000000;stroke-width:0.264583"
       x="77.969566"
       y="245.85434"
       id="text17-6"><tspan
         sodipodi:role="line"
         id="tspan18"
         x="77.969566"
         y="245.85434">Chiang, Sheu (1999) - Topo</tspan></text>
  </g>
</svg>
