<?xml version="1.0" encoding="UTF-8" standalone="no"?>
<!-- Created with Inkscape (http://www.inkscape.org/) -->

<svg
   width="139.7093mm"
   height="104.55021mm"
   viewBox="0 0 139.7093 104.55021"
   version="1.1"
   id="svg5"
   inkscape:version="1.2.1 (9c6d41e410, 2022-07-14)"
   sodipodi:docname="resultado2D-2.svg"
   xmlns:inkscape="http://www.inkscape.org/namespaces/inkscape"
   xmlns:sodipodi="http://sodipodi.sourceforge.net/DTD/sodipodi-0.dtd"
   xmlns="http://www.w3.org/2000/svg"
   xmlns:svg="http://www.w3.org/2000/svg">
  <sodipodi:namedview
     id="namedview7"
     pagecolor="#ffffff"
     bordercolor="#000000"
     borderopacity="0.25"
     inkscape:showpageshadow="2"
     inkscape:pageopacity="0.0"
     inkscape:pagecheckerboard="0"
     inkscape:deskcolor="#d1d1d1"
     inkscape:document-units="mm"
     showgrid="false"
     inkscape:zoom="1.0544998"
     inkscape:cx="319.58281"
     inkscape:cy="118.53962"
     inkscape:window-width="1920"
     inkscape:window-height="1017"
     inkscape:window-x="1912"
     inkscape:window-y="-8"
     inkscape:window-maximized="1"
     inkscape:current-layer="layer1" />
  <defs
     id="defs2">
    <clipPath
       clipPathUnits="userSpaceOnUse"
       id="clipPath840">
      <g
         id="g844"
         transform="matrix(3.7795276,0,0,3.7795276,814.0466,-552.41659)">
        <rect
           x="-39.170662"
           y="146.16022"
           width="150.01875"
           height="110.06667"
           id="rect842"
           style="stroke-width:0.264583" />
      </g>
    </clipPath>
    <clipPath
       clipPathUnits="userSpaceOnUse"
       id="clipPath846">
      <g
         id="g850"
         transform="matrix(3.7795276,0,0,3.7795276,814.0466,-552.41659)">
        <rect
           x="-39.170662"
           y="146.16022"
           width="150.01875"
           height="110.06667"
           id="rect848"
           style="stroke-width:0.264583" />
      </g>
    </clipPath>
    <clipPath
       clipPathUnits="userSpaceOnUse"
       id="clipPath852">
      <g
         id="g856"
         transform="matrix(3.7795276,0,0,3.7795276,814.0466,-552.41659)">
        <rect
           x="-39.170662"
           y="146.16022"
           width="150.01875"
           height="110.06667"
           id="rect854"
           style="stroke-width:0.264583" />
      </g>
    </clipPath>
    <clipPath
       clipPathUnits="userSpaceOnUse"
       id="clipPath858">
      <g
         id="g862"
         transform="matrix(3.7795276,0,0,3.7795276,814.0466,-552.41659)">
        <rect
           x="-39.170662"
           y="146.16022"
           width="150.01875"
           height="110.06667"
           id="rect860"
           style="stroke-width:0.264583" />
      </g>
    </clipPath>
    <clipPath
       clipPathUnits="userSpaceOnUse"
       id="clipPath864">
      <g
         id="g868"
         transform="matrix(3.7795276,0,0,3.7795276,814.0466,-552.41659)">
        <rect
           x="-39.170662"
           y="146.16022"
           width="150.01875"
           height="110.06667"
           id="rect866"
           style="stroke-width:0.264583" />
      </g>
    </clipPath>
    <clipPath
       clipPathUnits="userSpaceOnUse"
       id="clipPath870">
      <g
         id="g874"
         transform="matrix(3.7795276,0,0,3.7795276,814.0466,-552.41659)">
        <rect
           x="-39.170662"
           y="146.16022"
           width="150.01875"
           height="110.06667"
           id="rect872"
           style="stroke-width:0.264583" />
      </g>
    </clipPath>
    <clipPath
       clipPathUnits="userSpaceOnUse"
       id="clipPath876">
      <g
         id="g880"
         transform="matrix(3.7795276,0,0,3.7795276,814.0466,-552.41659)">
        <rect
           x="-39.170662"
           y="146.16022"
           width="150.01875"
           height="110.06667"
           id="rect878"
           style="stroke-width:0.264583" />
      </g>
    </clipPath>
    <clipPath
       clipPathUnits="userSpaceOnUse"
       id="clipPath882">
      <g
         id="g886"
         transform="matrix(3.7795276,0,0,3.7795276,814.0466,-552.41659)">
        <rect
           x="-39.170662"
           y="146.16022"
           width="150.01875"
           height="110.06667"
           id="rect884"
           style="stroke-width:0.264583" />
      </g>
    </clipPath>
    <clipPath
       clipPathUnits="userSpaceOnUse"
       id="clipPath888">
      <g
         id="g892"
         transform="matrix(3.7795276,0,0,3.7795276,814.0466,-552.41659)">
        <rect
           x="-39.170662"
           y="146.16022"
           width="150.01875"
           height="110.06667"
           id="rect890"
           style="stroke-width:0.264583" />
      </g>
    </clipPath>
    <clipPath
       clipPathUnits="userSpaceOnUse"
       id="clipPath894">
      <g
         id="g898"
         transform="matrix(3.7795276,0,0,3.7795276,814.0466,-552.41659)">
        <rect
           x="-39.170662"
           y="146.16022"
           width="150.01875"
           height="110.06667"
           id="rect896"
           style="stroke-width:0.264583" />
      </g>
    </clipPath>
    <clipPath
       clipPathUnits="userSpaceOnUse"
       id="clipPath900">
      <g
         id="g904"
         transform="matrix(3.7795276,0,0,3.7795276,814.0466,-552.41659)">
        <rect
           x="-39.170662"
           y="146.16022"
           width="150.01875"
           height="110.06667"
           id="rect902"
           style="stroke-width:0.264583" />
      </g>
    </clipPath>
    <clipPath
       clipPathUnits="userSpaceOnUse"
       id="clipPath906">
      <g
         id="g910"
         transform="matrix(3.7795276,0,0,3.7795276,814.0466,-552.41659)">
        <rect
           x="-39.170662"
           y="146.16022"
           width="150.01875"
           height="110.06667"
           id="rect908"
           style="stroke-width:0.264583" />
      </g>
    </clipPath>
    <clipPath
       clipPathUnits="userSpaceOnUse"
       id="clipPath912">
      <g
         id="g916"
         transform="matrix(3.7795276,0,0,3.7795276,814.0466,-552.41659)">
        <rect
           x="-39.170662"
           y="146.16022"
           width="150.01875"
           height="110.06667"
           id="rect914"
           style="stroke-width:0.264583" />
      </g>
    </clipPath>
    <clipPath
       clipPathUnits="userSpaceOnUse"
       id="clipPath918">
      <g
         id="g922"
         transform="matrix(3.7795276,0,0,3.7795276,814.0466,-552.41659)">
        <rect
           x="-39.170662"
           y="146.16022"
           width="150.01875"
           height="110.06667"
           id="rect920"
           style="stroke-width:0.264583" />
      </g>
    </clipPath>
    <clipPath
       clipPathUnits="userSpaceOnUse"
       id="clipPath924">
      <g
         id="g928"
         transform="matrix(3.7795276,0,0,3.7795276,814.0466,-552.41659)">
        <rect
           x="-39.170662"
           y="146.16022"
           width="150.01875"
           height="110.06667"
           id="rect926"
           style="stroke-width:0.264583" />
      </g>
    </clipPath>
    <clipPath
       clipPathUnits="userSpaceOnUse"
       id="clipPath930">
      <g
         id="g934"
         transform="matrix(3.7795276,0,0,3.7795276,814.0466,-552.41659)">
        <rect
           x="-39.170662"
           y="146.16022"
           width="150.01875"
           height="110.06667"
           id="rect932"
           style="stroke-width:0.264583" />
      </g>
    </clipPath>
    <clipPath
       clipPathUnits="userSpaceOnUse"
       id="clipPath936">
      <g
         id="g940"
         transform="matrix(3.7795276,0,0,3.7795276,814.0466,-552.41659)">
        <rect
           x="-39.170662"
           y="146.16022"
           width="150.01875"
           height="110.06667"
           id="rect938"
           style="stroke-width:0.264583" />
      </g>
    </clipPath>
    <clipPath
       clipPathUnits="userSpaceOnUse"
       id="clipPath942">
      <g
         id="g946"
         transform="matrix(3.7795276,0,0,3.7795276,814.0466,-552.41659)">
        <rect
           x="-39.170662"
           y="146.16022"
           width="150.01875"
           height="110.06667"
           id="rect944"
           style="stroke-width:0.264583" />
      </g>
    </clipPath>
    <clipPath
       clipPathUnits="userSpaceOnUse"
       id="clipPath948">
      <g
         id="g952"
         transform="matrix(3.7795276,0,0,3.7795276,814.0466,-552.41659)">
        <rect
           x="-39.170662"
           y="146.16022"
           width="150.01875"
           height="110.06667"
           id="rect950"
           style="stroke-width:0.264583" />
      </g>
    </clipPath>
    <clipPath
       clipPathUnits="userSpaceOnUse"
       id="clipPath954">
      <g
         id="g958">
        <rect
           x="-39.170662"
           y="146.16022"
           width="150.01875"
           height="110.06667"
           id="rect956"
           style="stroke-width:0.264583" />
      </g>
    </clipPath>
  </defs>
  <g
     inkscape:label="Camada 1"
     inkscape:groupmode="layer"
     id="layer1"
     transform="translate(33.02872,-148.90527)">
    <g
       id="g141"
       transform="matrix(0.26458333,0,0,0.26458333,-215.38316,146.16022)"
       clip-path="url(#clipPath948)">
      <path
         d="m 699.5,311.5 h 510 m -510,-29 h 510 m -510,-30 h 510 m -510,-30 h 510 m -510,-29 h 510 m -510,-60 h 510 m -510,-30 h 510 m -510,-28.9999 h 510 m -510,-30 h 510 m -510,-30 h 510"
         stroke="#d9d9d9"
         stroke-linejoin="round"
         stroke-miterlimit="10"
         fill="none"
         id="path139" />
    </g>
    <g
       id="g145"
       transform="matrix(0.26458333,0,0,0.26458333,-215.38316,146.16022)"
       clip-path="url(#clipPath942)">
      <path
         d="M 699.5,14.5001 V 311.5 M 845.5,14.5001 V 311.5 m 73,-296.9999 V 311.5 m 73,-296.9999 V 311.5 m 72,-296.9999 V 311.5 m 73,-296.9999 V 311.5 m 73,-296.9999 V 311.5"
         stroke="#d9d9d9"
         stroke-linejoin="round"
         stroke-miterlimit="10"
         fill="none"
         id="path143" />
    </g>
    <g
       id="g149"
       transform="matrix(0.26458333,0,0,0.26458333,-215.38316,146.16022)"
       clip-path="url(#clipPath936)">
      <rect
         x="699.5"
         y="14.5001"
         width="510"
         height="297"
         stroke="#000000"
         stroke-linejoin="round"
         stroke-miterlimit="10"
         fill="none"
         id="rect147" />
    </g>
    <g
       id="g153"
       transform="matrix(0.26458333,0,0,0.26458333,-215.38316,146.16022)"
       clip-path="url(#clipPath930)">
      <path
         d="M 0,0 1.04987e-4,297"
         stroke="#000000"
         stroke-linejoin="round"
         stroke-miterlimit="10"
         fill="none"
         fill-rule="evenodd"
         transform="matrix(1,0,0,-1,772.5,311.5)"
         id="path151" />
    </g>
    <g
       id="g157"
       transform="matrix(0.26458333,0,0,0.26458333,-215.38316,146.16022)"
       clip-path="url(#clipPath924)">
      <path
         d="m 772.5,311.5 h 3 m -3,-5 h 3 m -3,-6 h 3 m -3,-6 h 3 m -3,-6 h 3 m -3,-6 h 3 m -3,-6 h 3 m -3,-6 h 3 m -3,-6 h 3 m -3,-6 h 3 m -3,-6 h 3 m -3,-6 h 3 m -3,-6 h 3 m -3,-6 h 3 m -3,-6 h 3 m -3,-6 h 3 m -3,-6 h 3 m -3,-6 h 3 m -3,-6 h 3 m -3,-6 h 3 m -3,-5 h 3 m -3,-6 h 3 m -3,-6 h 3 m -3,-6 h 3 m -3,-6 h 3 m -3,-6 h 3 m -3,-6 h 3 m -3,-6 h 3 m -3,-6 h 3 m -3,-6 h 3 m -3,-6 h 3 m -3,-6 h 3 m -3,-6 h 3 m -3,-6 h 3 m -3,-6 h 3 m -3,-6 h 3 m -3,-5.9999 h 3 m -3,-6 h 3 m -3,-5 h 3 m -3,-6 h 3 m -3,-6 h 3 m -3,-6 h 3 m -3,-6 h 3 m -3,-6 h 3 m -3,-6 h 3 m -3,-6 h 3 m -3,-6 h 3 m -3,-6 h 3 m -3,-6 h 3 m -3,-6 h 3 m -3,-6 h 3 m -6,296.9999 h 7 m -7,-29 h 7 m -7,-30 h 7 m -7,-30 h 7 m -7,-29 h 7 m -7,-30 h 7 m -7,-30 h 7 m -7,-30 h 7 m -7,-28.9999 h 7 m -7,-30 h 7 m -7,-30 h 7"
         stroke="#000000"
         stroke-linejoin="round"
         stroke-miterlimit="10"
         fill="none"
         id="path155" />
    </g>
    <g
       id="g161"
       transform="matrix(0.26458333,0,0,0.26458333,-215.38316,146.16022)"
       clip-path="url(#clipPath918)">
      <path
         d="m 699.5,163.5 h 510"
         stroke="#000000"
         stroke-linejoin="round"
         stroke-miterlimit="10"
         fill="none"
         fill-rule="evenodd"
         id="path159" />
    </g>
    <g
       id="g165"
       transform="matrix(0.26458333,0,0,0.26458333,-215.38316,146.16022)"
       clip-path="url(#clipPath912)">
      <path
         d="m 699.5,160.5 v 3 m 15,-3 v 3 m 15,-3 v 3 m 14,-3 v 3 m 15,-3 v 3 m 14,-3 v 3 m 15,-3 v 3 m 14,-3 v 3 m 15,-3 v 3 m 14,-3 v 3 m 15,-3 v 3 m 15,-3 v 3 m 14,-3 v 3 m 15,-3 v 3 m 14,-3 v 3 m 15,-3 v 3 m 14,-3 v 3 m 15,-3 v 3 m 15,-3 v 3 m 14,-3 v 3 m 15,-3 v 3 m 14,-3 v 3 m 15,-3 v 3 m 14,-3 v 3 m 15,-3 v 3 m 14,-3 v 3 m 15,-3 v 3 m 15,-3 v 3 m 14,-3 v 3 m 15,-3 v 3 m 14,-3 v 3 m 15,-3 v 3 m 14,-3 v 3 m 15,-3 v 3 m 14,-3 v 3 m 15,-3 v 3 m -510,-4 v 7 m 73,-7 v 7 m 73,-7 v 7 m 73,-7 v 7 m 73,-7 v 7 m 72,-7 v 7 m 73,-7 v 7 m 73,-7 v 7"
         stroke="#000000"
         stroke-linejoin="round"
         stroke-miterlimit="10"
         fill="none"
         id="path163" />
    </g>
    <g
       id="g169"
       transform="matrix(0.26458333,0,0,0.26458333,-215.38316,146.16022)"
       clip-path="url(#clipPath906)">
      <path
         d="m 773,312 h 2 l 1,-1 h 2 2 l 2,-1 h 2 2 2 l 1,-1 h 2 2 l 2,-1 h 2 1 l 2,-1 h 2 2 2 l 2,-1 h 1 2 l 2,-1 h 2 2 1 l 2,-1 h 2 2 l 1,-1 h 2 2 l 2,-1 h 1 2 2 l 2,-1 h 2 1 l 2,-1 h 2 1 l 2,-1 h 2 2 1 l 2,-1 h 2 2 l 1,-1 h 2 2 l 1,-1 h 2 2 1 l 2,-1 h 2 2 l 1,-1 h 2 2 1 l 2,-1 h 2 1 l 2,-1 h 2 1 l 2,-1 h 2 1 2 l 1,-1 h 2 2 l 1,-1 h 2 2 l 1,-1 h 2 1 2 l 2,-1 h 1 2 l 1,-1 h 2 2 l 1,-1 h 2 1 2 l 2,-1 h 1 2 l 1,-1 h 2 1 2 l 2,-1 h 1 2 l 1,-1 h 2 1 l 2,-1 h 1 2 1 l 2,-1 h 1 2 l 1,-1 h 2 1 l 2,-1 h 1 2 1 l 2,-1 h 1 2 l 1,-1 h 2 1 l 2,-1 h 1 2 1 l 2,-1 h 1 2 l 1,-1 h 2 1 1 l 2,-1 h 1 2 l 1,-1 h 2 1 l 1,-1 h 2 1 2 l 1,-1 h 2 1 l 1,-1 h 2 1 l 2,-1 h 1 1 2 l 1,-1 h 1 2 l 1,-1 h 2 1 l 1,-1 h 2 1 1 l 2,-1 h 1 1 l 2,-1 h 1 1 2 l 1,-1 h 1 2 l 1,-1 h 1 2 l 1,-1 h 1 2 1 l 1,-1 h 1 2 l 1,-1 h 1 2 l 1,-1 h 1 1 2 l 1,-1 h 1 1 l 2,-1 h 1 1 l 1,-1 h 2 1 1 l 1,-1 h 2 1 l 1,-1 h 1 2 1 l 1,-1 h 1 1 l 2,-1 h 1 1 l 1,-1 h 1 2 1 l 1,-1 h 1 1 l 1,-1 h 2 1 l 1,-1 h 1 1 1 l 2,-1 h 1 1 l 1,-1 h 1 1 l 1,-1 h 1 1 1 l 1,-1 h 2 1 l 1,-1 h 1 1 1 l 1,-1 h 1 1 l 1,-1 v 0 h 1 l 1,-1 h 1 1 1 l 1,-1 h 1 1 l 1,-1 v 0 h 1 l 1,-1 h 1 1 1 v -1 h 1 1 l 1,-1 v 0 h 1 l 1,-1 h 1 v 0 h 1 l 1,-1 h 1 v 0 l 1,-1 h 1 v 0 h 1 l 1,-1 v 0 h 1 v -1 h 1 1 v -1 h 1 v 0 h 1 v -1 h 1 v 0 l 1,-1 v 0 h 1 l 1,-1 v 0 0 h 1 v -1 h 1 v 0 l 1,-1 v 0 0 l 1,-1 v 0 h 1 v 0 -1 h 1 v 0 -1 h 1 v 0 0 l 1,-1 v 0 0 -1 h 1 v 0 -1 0 h 1 v 0 -1 0 0 l 1,-1 v 0 0 -1 0 0 0 -1 h 1 v 0 -1 0 0 -1 0 0 0 -1 0 0 -1 0 0 0 -1 0 0 -1 h -1 v 0 -1 0 0 0 -1 h -1 v 0 -1 0 0 -1 h -1 v 0 0 -1 h -1 v 0 -1 0 h -1 v -1 0 h -1 v 0 -1 h -1 v 0 -1 h -1 v 0 h -1 v -1 0 h -1 v -1 h -1 v 0 l -1,-1 v 0 h -1 v 0 l -1,-1 v 0 h -1 v -1 h -1 v 0 l -1,-1 v 0 h -1 v 0 l -1,-1 h -1 v 0 l -1,-1 v 0 h -1 l -1,-1 v 0 h -1 -1 v -1 h -1 -1 l -1,-1 v 0 h -1 -1 l -1,-1 v 0 h -1 l -1,-1 h -1 v 0 l -1,-1 h -1 -1 -1 l -1,-1 v 0 h -1 l -1,-1 h -1 -1 l -1,-1 h -1 -1 -1 l -1,-1 h -1 v 0 l -1,-1 h -1 -1 l -1,-1 h -1 -1 -1 l -2,-1 h -1 -1 l -1,-1 h -1 -1 -1 l -1,-1 h -1 -1 l -1,-1 h -2 -1 l -1,-1 h -1 -1 -1 l -2,-1 h -1 -1 l -1,-1 h -1 -2 l -1,-1 h -1 -1 -2 l -1,-1 h -2 -1 l -1,-1 h -2 -1 l -1,-1 h -2 -1 -2 l -1,-1 h -1 -2 l -1,-1 h -1 -2 -1 l -2,-1 h -1 -1 l -2,-1 h -1 -1 l -2,-1 h -1 -1 -2 l -1,-1 h -1 -2 l -1,-1 h -1 -2 l -1,-1 h -1 -2 -1 l -1,-1 h -2 -1 l -1,-1 h -2 -1 l -1,-1 h -2 -1 -1 l -2,-1 h -1 -1 l -2,-1 h -1 -1 -1 l -2,-1 h -1 -1 l -2,-1 h -1 -1 l -2,-1 h -1 -1 -1 l -2,-1 h -1 -1 l -2,-1 h -1 -1 l -1,-1 h -2 -1 -1 l -1,-1 h -2 -1 l -1,-1 h -1 -2 l -1,-1 h -1 -1 -2 l -1,-1 h -1 -1 l -2,-1 h -1 -1 -1 l -2,-1 h -1 -1 l -1,-1 h -2 -1 l -1,-1 h -1 -2 -1 l -1,-1 h -1 -1 l -2,-1 h -1 -1 l -1,-1 h -1 -2 -1 l -1,-1 h -1 -1 l -2,-1 h -1 -1 l -1,-1 h -1 -2 -1 l -1,-1 h -1 -1 l -2,-1 h -1 -1 -1 l -1,-1 h -1 -2 l -1,-1 h -1 -1 l -1,-1 h -1 -2 -1 l -1,-1 h -1 -1 l -1,-1 h -2 -1 l -1,-1 h -1 -1 -1 l -1,-1 h -2 -1 l -1,-1 h -1 -1 l -1,-1 h -1 -2 -1 l -1,-1 h -1 -1 l -1,-1 h -1 -1 -1 l -2,-1 h -1 -1 l -1,-1 h -1 -1 l -1,-1 h -1 -1 -2 l -1,-1 h -1 -1 l -1,-1 h -1 -1 l -1,-1 h -1 -1 -1 l -2,-1 h -1 -1 l -1,-1 h -1 -1 -1 l -1,-1 h -1 -1 l -1,-1 h -1 -1 l -1,-1 h -1 -1 -2 l -1,-1 h -1 -1 l -1,-1 h -1 -1 l -1,-1 h -1 -1 -1 l -1,-1 h -1 -1 l -1,-1 h -1 -1 l -1,-1 h -1 -1 -1 l -1,-1 h -1 -1 l -1,-1 h -1 -1 -1 l -1,-1 h -1 -1 l -1,-1 h -1 -1 l -1,-1 h -1 -1 -1 v -1 h -1 -1 l -1,-1 h -1 -1 l -1,-1 h -1 -1 -1 l -1,-1 h -1 -1 l -1,-1 h -1 -1 l -1,-1 h -1 v 0 h -1 l -1,-1 h -1 -1 l -1,-1 h -1 -1 v 0 l -1,-1 h -1 v 0 l -1,-1 v 0 h -1 l -1,-1 v 0 h -1 v 0 l -1,-1 h -1 v 0 l -1,-1 v 0 h -1 v -1 h -1 v 0 h -1 v -1 h -1 -1 v -1 h -1 v 0 l -1,-1 v 0 h -1 v 0 l -1,-1 v 0 0 l -1,-1 v 0 h -1 v 0 l -1,-1 v 0 h -1 v -1 h -1 v 0 -1 h -1 v 0 h -1 v -1 h -1 v 0 -1 h -1 v 0 -1 h -1 v 0 h -1 v -1 0 h -1 v -1 0 h -1 v -1 0 0 h -1 v -1 0 h -1 v -1 0 h -1 v 0 -1 0 h -1 v -1 0 0 l -1,-1 v 0 0 0 l -1,-1 v 0 0 -1 0 h -1 v -1 0 0 0 l -1,-1 v 0 0 -1 0 h -1 v -1 0 0 0 -1 0 h -1 v -1 0 0 0 -1 0 h -1 v -1 0 0 -1 0 0 0 -1 0 0 -1 h -1 v 0 -1 0 0 0 -1 0 0 -1 0 0 -1 0 0 0 -1 0 0 -1 0 0 0 -1 0 0 -1 0 0 -1 0 0 h 1 v -1 0 0 -1 0 0 -1 0 0 0 -1 h 1 v 0 -1 0 0 -1 0 h 1 v 0 -1 0 0 -1 0 h 1 v 0 -1 0 0 l 1,-1 v 0 0 -1 0 h 1 v 0 -1 0 0 l 1,-1 v 0 0 -1 h 1 v 0 0 -1 h 1 v 0 -1 0 h 1 v -1 0 h 1 v 0 -1 h 1 v 0 -1 0 h 1 v 0 -1 h 1 v 0 -1 h 1 v 0 l 1,-1 v 0 0 h 1 v -1 0 h 1 v -1 0 h 1 v -1 h 1 v 0 0 l 1,-1 v 0 h 1"
         stroke="#4472c4"
         stroke-width="2"
         stroke-linecap="round"
         stroke-linejoin="round"
         stroke-miterlimit="10"
         stroke-dasharray="4, 4"
         fill="none"
         id="path167" />
    </g>
    <g
       id="g173"
       transform="matrix(0.26458333,0,0,0.26458333,-215.38316,146.16022)"
       clip-path="url(#clipPath900)">
      <path
         d="m 773,312 v 0 l 1,-1 h 1 1 l 1,-1 v 0 h 1 1 l 1,-1 h 1 v 0 l 1,-1 h 1 1 v -1 h 1 1 1 l 1,-1 v 0 h 1 l 1,-1 h 1 1 v 0 l 1,-1 h 1 1 l 1,-1 v 0 h 1 l 1,-1 h 1 v 0 h 1 l 1,-1 h 1 1 v -1 h 1 1 l 1,-1 h 1 v 0 h 1 l 1,-1 h 1 1 v -1 h 1 1 l 1,-1 h 1 v 0 h 1 l 1,-1 h 1 1 v -1 h 1 1 1 l 1,-1 v 0 h 1 l 1,-1 h 1 1 v -1 h 1 1 1 l 1,-1 v 0 h 1 l 1,-1 h 1 1 v -1 h 1 1 1 l 1,-1 v 0 h 1 l 1,-1 h 1 1 v -1 h 1 1 1 l 1,-1 v 0 h 1 l 1,-1 h 1 1 v 0 l 1,-1 h 1 1 l 1,-1 v 0 h 1 l 1,-1 h 1 1 v 0 l 1,-1 h 1 1 l 1,-1 h 1 v 0 l 1,-1 h 1 1 1 v -1 h 1 1 l 1,-1 h 1 v 0 l 1,-1 h 1 1 1 v -1 h 1 1 l 1,-1 h 1 1 v 0 l 1,-1 h 1 1 l 1,-1 v 0 h 1 l 1,-1 h 1 1 1 v -1 h 1 1 l 1,-1 h 1 v 0 l 1,-1 h 1 1 1 v -1 h 1 1 l 1,-1 h 1 1 v -1 h 1 1 1 l 1,-1 h 1 v 0 l 1,-1 h 1 1 1 v -1 h 1 1 l 1,-1 h 1 1 v -1 h 1 1 1 l 1,-1 h 1 v 0 l 1,-1 h 1 1 l 1,-1 v 0 h 1 1 l 1,-1 h 1 1 v -1 h 1 1 l 1,-1 h 1 1 v 0 l 1,-1 h 1 1 l 1,-1 h 1 v 0 h 1 l 1,-1 h 1 1 l 1,-1 v 0 h 1 l 1,-1 h 1 1 1 l 1,-1 v 0 h 1 l 1,-1 h 1 1 l 1,-1 v 0 h 1 1 l 1,-1 h 1 1 v -1 h 1 1 l 1,-1 h 1 1 v 0 l 1,-1 h 1 1 l 1,-1 h 1 1 1 l 1,-1 h 1 1 v -1 h 1 1 l 1,-1 h 1 1 1 l 1,-1 h 1 1 v -1 h 1 1 l 1,-1 h 1 1 1 v -1 h 1 1 l 1,-1 h 1 1 v -1 h 1 1 1 l 1,-1 v 0 h 1 l 1,-1 h 1 1 v 0 l 1,-1 h 1 1 l 1,-1 v 0 h 1 l 1,-1 h 1 v 0 h 1 l 1,-1 h 1 v 0 l 1,-1 h 1 1 v -1 h 1 1 v 0 l 1,-1 h 1 1 v -1 h 1 1 v -1 h 1 1 v 0 l 1,-1 h 1 v 0 l 1,-1 h 1 v 0 h 1 l 1,-1 v 0 h 1 l 1,-1 v 0 h 1 l 1,-1 v 0 h 1 v 0 l 1,-1 h 1 v 0 l 1,-1 v 0 h 1 l 1,-1 v 0 h 1 v 0 l 1,-1 v 0 h 1 l 1,-1 v 0 h 1 v -1 h 1 v 0 h 1 v -1 h 1 1 v -1 h 1 v 0 h 1 v -1 h 1 v 0 l 1,-1 v 0 h 1 v -1 h 1 v 0 h 1 v -1 h 1 v 0 -1 h 1 v 0 l 1,-1 v 0 h 1 v 0 l 1,-1 v 0 h 1 v -1 0 h 1 v -1 h 1 v 0 0 l 1,-1 v 0 h 1 v -1 0 h 1 v 0 l 1,-1 v 0 0 l 1,-1 v 0 0 l 1,-1 v 0 0 h 1 v -1 0 h 1 v -1 0 h 1 v -1 0 h 1 v 0 -1 h 1 v 0 -1 h 1 v 0 -1 0 h 1 v 0 -1 0 h 1 v -1 0 0 h 1 v -1 0 0 l 1,-1 v 0 0 -1 h 1 v 0 0 -1 0 h 1 v -1 0 0 -1 h 1 v 0 0 -1 0 0 l 1,-1 v 0 0 -1 0 0 0 l 1,-1 v 0 0 -1 0 0 0 -1 0 h 1 v -1 0 0 -1 0 0 0 -1 0 0 -1 0 h 1 v -1 0 0 0 -1 0 h -1 v -1 0 0 -1 0 0 0 l -1,-1 v 0 0 -1 0 0 0 l -1,-1 v 0 0 -1 0 0 l -1,-1 v 0 0 0 -1 h -1 v 0 -1 0 0 l -1,-1 v 0 0 0 -1 h -1 v 0 -1 0 h -1 v -1 0 0 h -1 v -1 0 0 l -1,-1 v 0 0 0 l -1,-1 v 0 0 -1 h -1 v 0 -1 h -1 v 0 0 -1 h -1 v 0 -1 h -1 v 0 -1 h -1 v 0 0 l -1,-1 v 0 0 l -1,-1 v 0 0 l -1,-1 v 0 0 h -1 v -1 0 h -1 v -1 0 h -1 v 0 l -1,-1 v 0 0 l -1,-1 v 0 h -1 v -1 0 h -1 v 0 l -1,-1 v 0 0 l -1,-1 v 0 h -1 v -1 0 h -1 v 0 l -1,-1 v 0 h -1 v -1 0 h -1 v -1 h -1 v 0 h -1 v -1 h -1 v 0 l -1,-1 v 0 h -1 v 0 l -1,-1 v 0 h -1 v -1 h -1 v 0 l -1,-1 v 0 h -1 v 0 l -1,-1 v 0 h -1 v -1 h -1 v 0 l -1,-1 v 0 h -1 v 0 l -1,-1 v 0 h -1 l -1,-1 v 0 h -1 v -1 h -1 v 0 h -1 v -1 h -1 -1 v -1 h -1 v 0 h -1 l -1,-1 v 0 h -1 v -1 h -1 -1 v -1 h -1 v 0 h -1 l -1,-1 v 0 h -1 l -1,-1 v 0 h -1 v -1 h -1 -1 v 0 l -1,-1 h -1 v 0 l -1,-1 h -1 v 0 h -1 l -1,-1 v 0 h -1 l -1,-1 v 0 h -1 l -1,-1 v 0 h -1 -1 l -1,-1 v 0 h -1 l -1,-1 v 0 h -1 l -1,-1 h -1 v 0 h -1 l -1,-1 h -1 v 0 l -1,-1 h -1 -1 v -1 h -1 -1 -1 v -1 h -1 -1 l -1,-1 v 0 h -1 -1 l -1,-1 h -1 v 0 l -1,-1 h -1 -1 v -1 h -1 -1 -1 l -1,-1 h -1 v 0 l -1,-1 h -1 -1 l -1,-1 h -1 v 0 h -1 l -1,-1 h -1 -1 l -1,-1 v 0 h -1 l -1,-1 h -1 -1 -1 v -1 h -1 -1 l -1,-1 h -1 v 0 h -1 l -1,-1 h -1 -1 v -1 h -1 -1 l -1,-1 v 0 h -1 -1 l -1,-1 h -1 v 0 l -1,-1 h -1 -1 l -1,-1 v 0 h -1 -1 l -1,-1 v 0 h -1 l -1,-1 h -1 -1 v -1 h -1 -1 -1 v -1 h -1 -1 l -1,-1 h -1 v 0 h -1 l -1,-1 h -1 v 0 l -1,-1 h -1 -1 l -1,-1 v 0 h -1 -1 l -1,-1 v 0 h -1 l -1,-1 h -1 v 0 l -1,-1 h -1 -1 -1 v -1 h -1 -1 l -1,-1 v 0 h -1 l -1,-1 h -1 v 0 h -1 l -1,-1 h -1 -1 v -1 h -1 -1 -1 v -1 h -1 -1 l -1,-1 v 0 h -1 l -1,-1 h -1 -1 v 0 l -1,-1 h -1 -1 v -1 h -1 -1 l -1,-1 v 0 h -1 -1 l -1,-1 v 0 h -1 l -1,-1 h -1 v 0 l -1,-1 h -1 -1 v 0 l -1,-1 h -1 -1 l -1,-1 v 0 h -1 -1 l -1,-1 v 0 h -1 l -1,-1 h -1 v 0 l -1,-1 h -1 -1 v 0 l -1,-1 h -1 -1 v -1 h -1 -1 l -1,-1 v 0 h -1 -1 l -1,-1 v 0 h -1 l -1,-1 h -1 v 0 l -1,-1 h -1 -1 v 0 l -1,-1 h -1 -1 v -1 h -1 -1 -1 v -1 h -1 -1 l -1,-1 v 0 h -1 l -1,-1 h -1 v 0 h -1 l -1,-1 h -1 v 0 l -1,-1 h -1 -1 v -1 h -1 -1 -1 v -1 h -1 -1 l -1,-1 v 0 h -1 l -1,-1 h -1 v 0 h -1 l -1,-1 h -1 v 0 l -1,-1 h -1 v 0 h -1 l -1,-1 h -1 v 0 l -1,-1 h -1 -1 v -1 h -1 -1 -1 v -1 h -1 -1 l -1,-1 v 0 h -1 l -1,-1 h -1 v 0 h -1 l -1,-1 v 0 h -1 l -1,-1 h -1 v 0 l -1,-1 h -1 -1 v 0 l -1,-1 h -1 -1 v -1 h -1 -1 v 0 l -1,-1 h -1 -1 v -1 h -1 -1 l -1,-1 v 0 h -1 -1 l -1,-1 v 0 h -1 l -1,-1 v 0 h -1 l -1,-1 h -1 v 0 h -1 l -1,-1 h -1 v 0"
         stroke="#4472c4"
         stroke-width="2"
         stroke-linecap="round"
         stroke-linejoin="round"
         stroke-miterlimit="10"
         fill="none"
         id="path171" />
    </g>
    <g
       id="g177"
       transform="matrix(0.26458333,0,0,0.26458333,-215.38316,146.16022)"
       clip-path="url(#clipPath894)">
      <path
         d="m 773,312 h 1 l 2,-1 h 2 1 l 2,-1 h 2 1 2 l 1,-1 h 2 2 l 1,-1 h 2 2 l 1,-1 h 2 2 1 l 2,-1 h 1 2 l 2,-1 h 1 2 1 l 2,-1 h 2 1 l 2,-1 h 2 1 l 2,-1 h 1 2 2 l 1,-1 h 2 1 l 2,-1 h 2 1 l 2,-1 h 1 2 1 l 2,-1 h 2 1 l 2,-1 h 1 2 l 2,-1 h 1 2 1 l 2,-1 h 1 2 l 2,-1 h 1 2 1 l 2,-1 h 1 2 l 1,-1 h 2 2 l 1,-1 h 2 1 2 l 1,-1 h 2 1 l 2,-1 h 1 2 l 2,-1 h 1 2 1 l 2,-1 h 1 2 l 1,-1 h 2 1 l 2,-1 h 1 2 1 l 2,-1 h 1 2 l 1,-1 h 2 2 1 l 2,-1 h 1 2 l 1,-1 h 2 1 l 2,-1 h 1 2 1 l 2,-1 h 1 2 l 1,-1 h 2 1 l 1,-1 h 2 1 2 l 1,-1 h 2 1 l 2,-1 h 1 2 l 1,-1 h 2 1 2 l 1,-1 h 2 1 l 2,-1 h 1 1 2 l 1,-1 h 2 1 l 2,-1 h 1 2 l 1,-1 h 2 1 1 l 2,-1 h 1 2 l 1,-1 h 2 1 l 1,-1 h 2 1 2 l 1,-1 h 2 1 l 1,-1 h 2 1 l 2,-1 h 1 2 1 l 1,-1 h 2 1 l 2,-1 h 1 1 2 l 1,-1 h 2 1 l 1,-1 h 2 1 l 2,-1 h 1 1 2 l 1,-1 h 2 1 l 1,-1 h 2 1 l 2,-1 h 1 1 2 l 1,-1 h 1 2 l 1,-1 h 2 1 l 1,-1 h 2 1 1 l 2,-1 h 1 1 l 2,-1 h 1 2 1 l 1,-1 h 2 1 l 1,-1 h 2 1 l 1,-1 h 2 1 1 l 2,-1 h 1 1 l 2,-1 h 1 1 l 2,-1 h 1 1 2 l 1,-1 h 1 1 l 1,-1 h 2 1 l 1,-1 h 1 1 1 l 1,-1 h 1 1 l 1,-1 h 1 1 1 l 1,-1 h 1 1 l 1,-1 h 1 1 l 1,-1 h 1 1 1 l 1,-1 h 1 1 v -1 h 1 1 l 1,-1 h 1 1 1 v -1 h 1 1 l 1,-1 h 1 v 0 l 1,-1 h 1 1 v 0 l 1,-1 h 1 v 0 l 1,-1 h 1 1 v 0 l 1,-1 h 1 v 0 l 1,-1 v 0 h 1 l 1,-1 v 0 h 1 1 v -1 h 1 v 0 l 1,-1 v 0 h 1 v -1 h 1 v 0 h 1 v -1 h 1 v 0 l 1,-1 v 0 h 1 v -1 h 1 v 0 0 l 1,-1 v 0 h 1 v -1 0 h 1 v 0 -1 h 1 v 0 -1 0 h 1 v -1 0 h 1 v 0 -1 0 h 1 v -1 0 0 -1 h 1 v 0 0 -1 0 0 -1 h 1 v 0 -1 0 0 0 -1 0 0 -1 0 0 0 -1 0 0 -1 0 0 -1 0 0 0 -1 0 0 -1 h -1 v 0 -1 0 0 0 l -1,-1 v 0 0 -1 0 h -1 v -1 0 0 h -1 v -1 0 0 l -1,-1 v 0 0 h -1 v -1 0 h -1 v -1 0 h -1 v -1 0 h -1 v 0 l -1,-1 v 0 h -1 v -1 0 h -1 v -1 h -1 v 0 h -1 v -1 h -1 v 0 l -1,-1 h -1 v 0 l -1,-1 v 0 h -1 v 0 l -1,-1 h -1 v 0 l -1,-1 v 0 h -1 -1 v -1 h -1 -1 v -1 h -1 -1 l -1,-1 v 0 h -1 -1 l -1,-1 v 0 h -1 l -1,-1 h -1 v 0 l -1,-1 h -1 -1 -1 l -1,-1 v 0 h -1 l -1,-1 h -1 -1 l -1,-1 h -1 -1 -1 l -1,-1 v 0 h -1 l -1,-1 h -1 -1 -1 l -1,-1 h -1 -1 l -1,-1 h -1 -1 l -1,-1 h -1 -2 -1 l -1,-1 h -1 -1 l -1,-1 h -1 -1 l -1,-1 h -2 -1 -1 l -2,-1 h -1 -2 l -1,-1 h -2 -1 l -2,-1 h -1 -2 -1 l -2,-1 h -1 -2 l -1,-1 h -2 -1 -2 l -1,-1 h -1 -2 l -1,-1 h -2 -1 l -2,-1 h -1 -2 -1 l -2,-1 h -1 -1 l -2,-1 h -1 -2 l -1,-1 h -2 -1 -1 l -2,-1 h -1 -2 l -1,-1 h -2 -1 l -1,-1 h -2 -1 -2 l -1,-1 h -1 -2 l -1,-1 h -1 -2 -1 l -2,-1 h -1 -1 l -2,-1 h -1 -1 l -2,-1 h -1 -1 -2 l -1,-1 h -1 -2 l -1,-1 h -1 -2 l -1,-1 h -1 -2 -1 l -1,-1 h -2 -1 l -1,-1 h -2 -1 l -1,-1 h -1 -2 -1 l -1,-1 h -2 -1 l -1,-1 h -1 -2 -1 l -1,-1 h -1 -2 l -1,-1 h -1 -1 l -2,-1 h -1 -1 -1 l -2,-1 h -1 -1 l -1,-1 h -2 -1 l -1,-1 h -1 -1 -2 l -1,-1 h -1 -1 l -1,-1 h -2 -1 l -1,-1 h -1 -1 -2 l -1,-1 h -1 -1 l -1,-1 h -1 -2 -1 l -1,-1 h -1 -1 l -1,-1 h -1 -2 l -1,-1 h -1 -1 -1 l -1,-1 h -1 -2 l -1,-1 h -1 -1 l -1,-1 h -1 -1 -1 l -1,-1 h -2 -1 l -1,-1 h -1 -1 l -1,-1 h -1 -1 -1 l -1,-1 h -1 -1 l -1,-1 h -2 -1 -1 l -1,-1 h -1 -1 l -1,-1 h -1 -1 l -1,-1 h -1 -1 -1 l -1,-1 h -1 -1 l -1,-1 h -1 -1 l -1,-1 h -1 -1 -1 l -1,-1 h -1 -1 l -1,-1 h -1 -1 -1 l -1,-1 h -1 -1 l -1,-1 h -1 -1 l -1,-1 h -1 -1 -1 l -1,-1 h -1 -1 v -1 h -1 -1 l -1,-1 h -1 -1 -1 l -1,-1 h -1 -1 v -1 h -1 -1 l -1,-1 h -1 -1 -1 v -1 h -1 -1 l -1,-1 h -1 -1 v 0 l -1,-1 h -1 -1 l -1,-1 v 0 h -1 l -1,-1 h -1 -1 v 0 l -1,-1 h -1 -1 l -1,-1 v 0 h -1 l -1,-1 h -1 -1 v 0 l -1,-1 h -1 -1 v -1 h -1 -1 l -1,-1 v 0 h -1 -1 l -1,-1 v 0 h -1 l -1,-1 v 0 h -1 -1 l -1,-1 h -1 -1 v -1 h -1 -1 l -1,-1 h -1 -1 v 0 l -1,-1 h -1 -1 l -1,-1 v 0 h -1 l -1,-1 h -1 v 0 h -1 l -1,-1 h -1 v 0 l -1,-1 h -1 -1 v -1 h -1 -1 v 0 l -1,-1 h -1 v 0 l -1,-1 h -1 v 0 h -1 l -1,-1 v 0 h -1 l -1,-1 v 0 h -1 l -1,-1 v 0 h -1 v 0 l -1,-1 h -1 v 0 l -1,-1 v 0 h -1 v -1 h -1 v 0 h -1 l -1,-1 v 0 h -1 v -1 h -1 v 0 l -1,-1 v 0 h -1 v 0 l -1,-1 v 0 0 l -1,-1 v 0 h -1 v 0 l -1,-1 v 0 0 l -1,-1 v 0 h -1 v -1 h -1 v 0 0 l -1,-1 v 0 0 l -1,-1 v 0 0 l -1,-1 v 0 0 h -1 v -1 0 h -1 v -1 0 h -1 v -1 0 0 h -1 v -1 0 0 l -1,-1 v 0 0 0 l -1,-1 v 0 0 -1 0 h -1 v -1 0 0 0 -1 h -1 v 0 -1 0 0 -1 0 0 h -1 v -1 0 0 -1 0 0 -1 0 0 0 -1 0 0 -1 h -1 v 0 0 -1 0 0 -1 0 h 1 v -1 0 0 0 -1 0 0 -1 0 0 -1 0 0 0 l 1,-1 v 0 0 -1 0 0 -1 0 h 1 v 0 -1 0 0 l 1,-1 v 0 0 0 -1 h 1 v 0 -1 0 0 l 1,-1 v 0 0 0 l 1,-1 v 0 0 l 1,-1 v 0 0 -1 h 1 v 0 0 l 1,-1 v 0 0 l 1,-1 v 0 0 l 1,-1 v 0 0 h 1 v -1 h 1 v 0 -1 h 1 v 0 h 1 v -1 0 h 1 v -1 h 1 v 0 l 1,-1 v 0 h 1 v 0 l 1,-1 v 0 h 1 v -1 h 1 v 0 l 1,-1 v 0 h 1 v 0 l 1,-1 v 0 h 1"
         stroke="#ed7d31"
         stroke-width="2"
         stroke-linecap="round"
         stroke-linejoin="round"
         stroke-miterlimit="10"
         stroke-dasharray="4, 4"
         fill="none"
         id="path175" />
    </g>
    <g
       id="g181"
       transform="matrix(0.26458333,0,0,0.26458333,-215.38316,146.16022)"
       clip-path="url(#clipPath888)">
      <path
         d="m 773,312 h 1 v -1 h 1 1 l 1,-1 h 1 1 v 0 l 1,-1 h 1 1 l 1,-1 h 1 v 0 l 1,-1 h 1 1 1 l 1,-1 h 1 v 0 l 1,-1 h 1 1 1 l 1,-1 v 0 h 1 l 1,-1 h 1 1 l 1,-1 v 0 h 1 1 l 1,-1 h 1 1 l 1,-1 v 0 h 1 l 1,-1 h 1 1 1 v -1 h 1 1 l 1,-1 h 1 1 v -1 h 1 1 1 l 1,-1 h 1 1 v -1 h 1 1 1 l 1,-1 h 1 v 0 l 1,-1 h 1 1 l 1,-1 h 1 1 v 0 l 1,-1 h 1 1 l 1,-1 h 1 v 0 l 1,-1 h 1 1 1 l 1,-1 v 0 h 1 l 1,-1 h 1 1 l 1,-1 h 1 v 0 h 1 l 1,-1 h 1 1 l 1,-1 v 0 h 1 1 l 1,-1 h 1 1 l 1,-1 v 0 h 1 l 1,-1 h 1 1 1 v -1 h 1 1 l 1,-1 h 1 1 v -1 h 1 1 1 l 1,-1 h 1 1 v -1 h 1 1 l 1,-1 h 1 1 v 0 l 1,-1 h 1 1 l 1,-1 h 1 1 v 0 l 1,-1 h 1 1 l 1,-1 h 1 v 0 l 1,-1 h 1 1 1 l 1,-1 h 1 v 0 l 1,-1 h 1 1 l 1,-1 h 1 v 0 h 1 l 1,-1 h 1 1 l 1,-1 h 1 v 0 l 1,-1 h 1 1 1 l 1,-1 v 0 h 1 l 1,-1 h 1 1 1 l 1,-1 v 0 h 1 l 1,-1 h 1 1 l 1,-1 v 0 h 1 1 l 1,-1 h 1 1 l 1,-1 v 0 h 1 l 1,-1 h 1 1 1 l 1,-1 v 0 h 1 l 1,-1 h 1 1 l 1,-1 v 0 h 1 1 l 1,-1 h 1 1 l 1,-1 v 0 h 1 1 l 1,-1 h 1 1 l 1,-1 v 0 h 1 l 1,-1 h 1 1 1 v -1 h 1 1 l 1,-1 h 1 1 l 1,-1 v 0 h 1 1 l 1,-1 h 1 1 l 1,-1 v 0 h 1 l 1,-1 h 1 1 1 l 1,-1 v 0 h 1 l 1,-1 h 1 1 1 l 1,-1 h 1 1 l 1,-1 v 0 h 1 l 1,-1 h 1 1 1 l 1,-1 h 1 1 v -1 h 1 1 l 1,-1 h 1 1 1 v -1 h 1 1 l 1,-1 h 1 v 0 l 1,-1 h 1 1 1 l 1,-1 v 0 h 1 l 1,-1 h 1 v 0 h 1 l 1,-1 h 1 1 v -1 h 1 1 l 1,-1 v 0 h 1 1 l 1,-1 v 0 h 1 l 1,-1 v 0 h 1 l 1,-1 h 1 v 0 h 1 l 1,-1 v 0 h 1 l 1,-1 v 0 h 1 l 1,-1 v 0 h 1 1 v -1 h 1 1 v -1 h 1 1 v 0 l 1,-1 h 1 v 0 l 1,-1 v 0 h 1 l 1,-1 v 0 h 1 v 0 l 1,-1 h 1 v 0 l 1,-1 v 0 h 1 l 1,-1 v 0 h 1 v 0 l 1,-1 v 0 h 1 v -1 h 1 1 v -1 h 1 v 0 h 1 v -1 h 1 v 0 l 1,-1 v 0 h 1 v 0 l 1,-1 v 0 h 1 v -1 h 1 v 0 l 1,-1 v 0 0 h 1 v -1 h 1 v 0 l 1,-1 v 0 h 1 v -1 0 h 1 v 0 l 1,-1 v 0 h 1 v -1 0 h 1 v -1 h 1 v 0 0 l 1,-1 v 0 0 l 1,-1 v 0 h 1 v 0 -1 h 1 v 0 -1 h 1 v 0 -1 h 1 v 0 0 l 1,-1 v 0 0 -1 h 1 v 0 -1 h 1 v 0 0 -1 h 1 v 0 -1 h 1 v 0 -1 0 h 1 v 0 -1 0 h 1 v -1 0 0 0 l 1,-1 v 0 0 -1 0 h 1 v -1 0 0 0 l 1,-1 v 0 0 -1 0 0 l 1,-1 v 0 0 0 -1 0 0 l 1,-1 v 0 0 -1 0 0 0 -1 0 0 l 1,-1 v 0 0 0 -1 0 0 -1 0 0 -1 0 0 0 -1 0 0 l 1,-1 v 0 0 -1 0 0 0 -1 h -1 v 0 -1 0 0 l -1,-1 v 0 0 0 l -1,-1 v 0 0 -1 0 h -1 v 0 -1 0 h -1 v -1 0 0 l -1,-1 v 0 0 0 l -1,-1 v 0 0 -1 h -1 v 0 -1 h -1 v 0 0 -1 h -1 v 0 -1 h -1 v 0 -1 0 h -1 v 0 -1 h -1 v 0 -1 h -1 v 0 0 l -1,-1 v 0 0 l -1,-1 v 0 0 l -1,-1 v 0 0 h -1 v -1 h -1 v 0 -1 h -1 v 0 -1 h -1 v 0 h -1 v -1 0 h -1 v -1 h -1 v 0 -1 h -1 v 0 h -1 v -1 0 h -1 v -1 h -1 v 0 h -1 v -1 0 h -1 v -1 h -1 v 0 l -1,-1 v 0 h -1 v 0 -1 h -1 v 0 l -1,-1 v 0 h -1 v -1 h -1 v 0 h -1 v -1 h -1 v 0 l -1,-1 v 0 h -1 v -1 h -1 v 0 h -1 v -1 h -1 v 0 l -1,-1 v 0 h -1 v 0 l -1,-1 v 0 h -1 l -1,-1 v 0 h -1 v -1 h -1 v 0 h -1 v -1 h -1 -1 v -1 h -1 v 0 l -1,-1 v 0 h -1 -1 v -1 h -1 v 0 l -1,-1 v 0 h -1 l -1,-1 v 0 h -1 -1 v -1 h -1 v 0 l -1,-1 h -1 v 0 h -1 v -1 h -1 -1 v -1 h -1 -1 v -1 h -1 -1 v 0 l -1,-1 h -1 v 0 l -1,-1 h -1 v 0 l -1,-1 h -1 v 0 h -1 l -1,-1 v 0 h -1 l -1,-1 v 0 h -1 -1 l -1,-1 v 0 h -1 l -1,-1 v 0 h -1 l -1,-1 h -1 v 0 h -1 l -1,-1 v 0 h -1 l -1,-1 h -1 v 0 l -1,-1 h -1 -1 v 0 l -1,-1 h -1 -1 l -1,-1 v 0 h -1 l -1,-1 h -1 v 0 h -1 l -1,-1 h -1 -1 v -1 h -1 -1 -1 l -1,-1 v 0 h -1 l -1,-1 h -1 -1 v -1 h -1 -1 -1 l -1,-1 h -1 v 0 l -1,-1 h -1 -1 l -1,-1 h -1 -1 v 0 l -1,-1 h -1 -1 l -1,-1 h -1 -1 v -1 h -1 -1 -1 l -1,-1 h -1 v 0 l -1,-1 h -1 -1 v 0 l -1,-1 h -1 -1 l -1,-1 v 0 h -1 l -1,-1 h -1 v 0 h -1 l -1,-1 h -1 v 0 l -1,-1 h -1 -1 v -1 h -1 -1 -1 l -1,-1 v 0 h -1 l -1,-1 h -1 v 0 l -1,-1 h -1 -1 v 0 l -1,-1 h -1 -1 v -1 h -1 -1 -1 v -1 h -1 -1 l -1,-1 v 0 h -1 l -1,-1 h -1 v 0 h -1 l -1,-1 h -1 v 0 l -1,-1 h -1 -1 v -1 h -1 -1 -1 v -1 h -1 -1 l -1,-1 v 0 h -1 l -1,-1 h -1 v 0 h -1 l -1,-1 h -1 v 0 l -1,-1 h -1 v 0 h -1 l -1,-1 h -1 v 0 l -1,-1 h -1 -1 v -1 h -1 -1 -1 v -1 h -1 -1 v -1 h -1 -1 l -1,-1 v 0 h -1 -1 l -1,-1 v 0 h -1 l -1,-1 v 0 h -1 l -1,-1 h -1 v 0 h -1 l -1,-1 v 0 h -1 l -1,-1 h -1 v 0 h -1 l -1,-1 h -1 v 0 l -1,-1 h -1 v 0 l -1,-1 h -1 -1 v 0 l -1,-1 h -1 v 0 l -1,-1 h -1 -1 v -1 h -1 -1 v 0 l -1,-1 h -1 -1 v -1 h -1 -1 v -1 h -1 -1 -1 v -1 h -1 -1 v -1 h -1 -1 v 0 l -1,-1 h -1 -1 v -1 h -1 -1 v -1 h -1 -1 -1 v -1 h -1 -1 v -1 h -1 -1 v -1 h -1 -1 -1 v -1 h -1 -1 v -1 h -1 -1 v -1 h -1 -1 v 0 l -1,-1 h -1 -1 v -1 h -1 -1 v 0 l -1,-1 h -1 v 0 l -1,-1 h -1 -1 v -1 h -1 -1 v 0 l -1,-1 h -1 v 0 l -1,-1 h -1 v 0 l -1,-1 h -1 v 0 h -1 l -1,-1 h -1 v 0 l -1,-1 h -1 v 0 l -1,-1 h -1 v 0 h -1 l -1,-1 v 0 h -1 l -1,-1 v 0 h -1 -1 v -1 h -1 -1 v -1 h -1 -1 v -1 h -1 -1 -1 v -1 h -1 -1 v -1 h -1 -1 v -1 h -1 -1 v 0 l -1,-1 h -1 v 0"
         stroke="#ed7d31"
         stroke-width="2"
         stroke-linecap="round"
         stroke-linejoin="round"
         stroke-miterlimit="10"
         fill="none"
         id="path179" />
    </g>
    <g
       id="g223"
       transform="matrix(0.26458333,0,0,0.26458333,-215.38316,146.16022)"
       clip-path="url(#clipPath882)">
      <path
         d="m 808.115,293.5 h 6 v 6 h -6 z"
         stroke="#000000"
         stroke-linejoin="round"
         stroke-miterlimit="10"
         fill="none"
         id="path183" />
      <path
         d="m 848.115,278.5 h 6 v 6 h -6 z"
         stroke="#000000"
         stroke-linejoin="round"
         stroke-miterlimit="10"
         fill="none"
         id="path185" />
      <path
         d="m 889.115,264.5 h 6 v 6 h -6 z"
         stroke="#000000"
         stroke-linejoin="round"
         stroke-miterlimit="10"
         fill="none"
         id="path187" />
      <path
         d="m 930.115,249.5 h 6 v 6 h -6 z"
         stroke="#000000"
         stroke-linejoin="round"
         stroke-miterlimit="10"
         fill="none"
         id="path189" />
      <path
         d="m 971.115,234.5 h 6 v 6 h -6 z"
         stroke="#000000"
         stroke-linejoin="round"
         stroke-miterlimit="10"
         fill="none"
         id="path191" />
      <path
         d="m 1009.12,219.5 h 6 v 6 h -6 z"
         stroke="#000000"
         stroke-linejoin="round"
         stroke-miterlimit="10"
         fill="none"
         id="path193" />
      <path
         d="m 1039.12,205.5 h 6 v 6 h -6 z"
         stroke="#000000"
         stroke-linejoin="round"
         stroke-miterlimit="10"
         fill="none"
         id="path195" />
      <path
         d="m 1064.12,190.5 h 6 v 6 h -6 z"
         stroke="#000000"
         stroke-linejoin="round"
         stroke-miterlimit="10"
         fill="none"
         id="path197" />
      <path
         d="m 1079.12,175.5 h 6 v 6 h -6 z"
         stroke="#000000"
         stroke-linejoin="round"
         stroke-miterlimit="10"
         fill="none"
         id="path199" />
      <path
         d="m 1080.12,160.5 h 6 v 6 h -6 z"
         stroke="#000000"
         stroke-linejoin="round"
         stroke-miterlimit="10"
         fill="none"
         id="path201" />
      <path
         d="m 1073.12,144.5 h 6 v 6 h -6 z"
         stroke="#000000"
         stroke-linejoin="round"
         stroke-miterlimit="10"
         fill="none"
         id="path203" />
      <path
         d="m 1054.12,131.5 h 6 v 6 h -6 z"
         stroke="#000000"
         stroke-linejoin="round"
         stroke-miterlimit="10"
         fill="none"
         id="path205" />
      <path
         d="m 1026.12,116.5 h 6 v 6 h -6 z"
         stroke="#000000"
         stroke-linejoin="round"
         stroke-miterlimit="10"
         fill="none"
         id="path207" />
      <path
         d="m 993.115,100.5 h 6 v 6 h -6 z"
         stroke="#000000"
         stroke-linejoin="round"
         stroke-miterlimit="10"
         fill="none"
         id="path209" />
      <path
         d="m 956.115,86.5001 h 6 v 5.9998 h -6 z"
         stroke="#000000"
         stroke-linejoin="round"
         stroke-miterlimit="10"
         fill="none"
         id="path211" />
      <path
         d="m 917.115,71.5001 h 6 v 5.9998 h -6 z"
         stroke="#000000"
         stroke-linejoin="round"
         stroke-miterlimit="10"
         fill="none"
         id="path213" />
      <path
         d="m 879.115,55.5001 h 6 v 5.9998 h -6 z"
         stroke="#000000"
         stroke-linejoin="round"
         stroke-miterlimit="10"
         fill="none"
         id="path215" />
      <path
         d="m 842.115,41.5001 h 6 v 5.9998 h -6 z"
         stroke="#000000"
         stroke-linejoin="round"
         stroke-miterlimit="10"
         fill="none"
         id="path217" />
      <path
         d="m 805.115,26.5001 h 6 v 5.9998 h -6 z"
         stroke="#000000"
         stroke-linejoin="round"
         stroke-miterlimit="10"
         fill="none"
         id="path219" />
      <path
         d="m 770.115,11.5001 h 6 v 5.9998 h -6 z"
         stroke="#000000"
         stroke-linejoin="round"
         stroke-miterlimit="10"
         fill="none"
         id="path221" />
    </g>
    <g
       id="g265"
       transform="matrix(0.26458333,0,0,0.26458333,-215.38316,146.16022)"
       clip-path="url(#clipPath876)">
      <path
         d="m 776.615,315 -7,-7 m 0,7 7,-7"
         stroke="#000000"
         stroke-linejoin="round"
         stroke-miterlimit="10"
         fill="none"
         id="path225" />
      <path
         d="m 859.615,300 -7,-7 m 0,7 7,-7"
         stroke="#000000"
         stroke-linejoin="round"
         stroke-miterlimit="10"
         fill="none"
         id="path227" />
      <path
         d="m 931.615,284 -7,-7 m 0,7 7,-7"
         stroke="#000000"
         stroke-linejoin="round"
         stroke-miterlimit="10"
         fill="none"
         id="path229" />
      <path
         d="m 999.615,269 -7,-7 m 0,7 7,-7"
         stroke="#000000"
         stroke-linejoin="round"
         stroke-miterlimit="10"
         fill="none"
         id="path231" />
      <path
         d="m 1064.62,255 -7,-7 m 0,7 7,-7"
         stroke="#000000"
         stroke-linejoin="round"
         stroke-miterlimit="10"
         fill="none"
         id="path233" />
      <path
         d="m 1120.62,240 -7,-7 m 0,7 7,-7"
         stroke="#000000"
         stroke-linejoin="round"
         stroke-miterlimit="10"
         fill="none"
         id="path235" />
      <path
         d="m 1161.62,225 -7,-7 m 0,7 7,-7"
         stroke="#000000"
         stroke-linejoin="round"
         stroke-miterlimit="10"
         fill="none"
         id="path237" />
      <path
         d="m 1183.62,211 -7,-7 m 0,7 7,-7"
         stroke="#000000"
         stroke-linejoin="round"
         stroke-miterlimit="10"
         fill="none"
         id="path239" />
      <path
         d="m 1178.62,196 -7,-7 m 0,7 7,-7"
         stroke="#000000"
         stroke-linejoin="round"
         stroke-miterlimit="10"
         fill="none"
         id="path241" />
      <path
         d="m 1148.62,181 -7,-7 m 0,7 7,-7"
         stroke="#000000"
         stroke-linejoin="round"
         stroke-miterlimit="10"
         fill="none"
         id="path243" />
      <path
         d="m 1100.62,165 -7,-7 m 0,7 7,-7"
         stroke="#000000"
         stroke-linejoin="round"
         stroke-miterlimit="10"
         fill="none"
         id="path245" />
      <path
         d="m 1035.62,151 -7,-7 m 0,7 7,-7"
         stroke="#000000"
         stroke-linejoin="round"
         stroke-miterlimit="10"
         fill="none"
         id="path247" />
      <path
         d="m 967.615,136 -7,-7 m 0,7 7,-7"
         stroke="#000000"
         stroke-linejoin="round"
         stroke-miterlimit="10"
         fill="none"
         id="path249" />
      <path
         d="m 903.615,121 -7,-7 m 0,7 7,-7"
         stroke="#000000"
         stroke-linejoin="round"
         stroke-miterlimit="10"
         fill="none"
         id="path251" />
      <path
         d="m 852.615,106 -7,-7 m 0,7 7,-7"
         stroke="#000000"
         stroke-linejoin="round"
         stroke-miterlimit="10"
         fill="none"
         id="path253" />
      <path
         d="m 810.615,92 -7,-7 m 0,7 7,-7"
         stroke="#000000"
         stroke-linejoin="round"
         stroke-miterlimit="10"
         fill="none"
         id="path255" />
      <path
         d="m 781.615,77 -7,-7 m 0,7 7,-7"
         stroke="#000000"
         stroke-linejoin="round"
         stroke-miterlimit="10"
         fill="none"
         id="path257" />
      <path
         d="m 765.615,62 -7,-7 m 0,7 7,-7"
         stroke="#000000"
         stroke-linejoin="round"
         stroke-miterlimit="10"
         fill="none"
         id="path259" />
      <path
         d="m 759.615,48 -7,-7 m 0,7 7,-7"
         stroke="#000000"
         stroke-linejoin="round"
         stroke-miterlimit="10"
         fill="none"
         id="path261" />
      <path
         d="m 762.615,33 -7,-7 m 0,7 7,-7"
         stroke="#000000"
         stroke-linejoin="round"
         stroke-miterlimit="10"
         fill="none"
         id="path263" />
    </g>
    <g
       id="g269"
       transform="matrix(0.26458333,0,0,0.26458333,-215.38316,146.16022)">
      <text
         font-family="Arial, Arial_MSFontService, sans-serif"
         font-weight="400"
         font-size="12px"
         transform="translate(741.719,316)"
         id="text267">-1.0</text>
    </g>
    <g
       id="g273"
       transform="matrix(0.26458333,0,0,0.26458333,-215.38316,146.16022)">
      <text
         font-family="Arial, Arial_MSFontService, sans-serif"
         font-weight="400"
         font-size="12px"
         transform="translate(741.719,286)"
         id="text271">-0.8</text>
    </g>
    <g
       id="g277"
       transform="matrix(0.26458333,0,0,0.26458333,-215.38316,146.16022)">
      <text
         font-family="Arial, Arial_MSFontService, sans-serif"
         font-weight="400"
         font-size="12px"
         transform="translate(741.719,256)"
         id="text275">-0.6</text>
    </g>
    <g
       id="g281"
       transform="matrix(0.26458333,0,0,0.26458333,-215.38316,146.16022)">
      <text
         font-family="Arial, Arial_MSFontService, sans-serif"
         font-weight="400"
         font-size="12px"
         transform="translate(741.719,227)"
         id="text279">-0.4</text>
    </g>
    <g
       id="g285"
       transform="matrix(0.26458333,0,0,0.26458333,-215.38316,146.16022)">
      <text
         font-family="Arial, Arial_MSFontService, sans-serif"
         font-weight="400"
         font-size="12px"
         transform="translate(741.719,197)"
         id="text283">-0.2</text>
    </g>
    <g
       id="g289"
       transform="matrix(0.26458333,0,0,0.26458333,-215.38316,146.16022)">
      <text
         font-family="Arial, Arial_MSFontService, sans-serif"
         font-weight="400"
         font-size="12px"
         transform="translate(745.713,167)"
         id="text287">0.0</text>
    </g>
    <g
       id="g293"
       transform="matrix(0.26458333,0,0,0.26458333,-215.38316,146.16022)">
      <text
         font-family="Arial, Arial_MSFontService, sans-serif"
         font-weight="400"
         font-size="12px"
         transform="translate(745.713,138)"
         id="text291">0.2</text>
    </g>
    <g
       id="g297"
       transform="matrix(0.26458333,0,0,0.26458333,-215.38316,146.16022)">
      <text
         font-family="Arial, Arial_MSFontService, sans-serif"
         font-weight="400"
         font-size="12px"
         transform="translate(745.713,108)"
         id="text295">0.4</text>
    </g>
    <g
       id="g301"
       transform="matrix(0.26458333,0,0,0.26458333,-215.38316,146.16022)">
      <text
         font-family="Arial, Arial_MSFontService, sans-serif"
         font-weight="400"
         font-size="12px"
         transform="translate(745.713,78)"
         id="text299">0.6</text>
    </g>
    <g
       id="g305"
       transform="matrix(0.26458333,0,0,0.26458333,-215.38316,146.16022)">
      <text
         font-family="Arial, Arial_MSFontService, sans-serif"
         font-weight="400"
         font-size="12px"
         transform="translate(745.713,48)"
         id="text303">0.8</text>
    </g>
    <g
       id="g309"
       transform="matrix(0.26458333,0,0,0.26458333,-215.38316,146.16022)">
      <text
         font-family="Arial, Arial_MSFontService, sans-serif"
         font-weight="400"
         font-size="12px"
         transform="translate(745.713,19)"
         id="text307">1.0</text>
    </g>
    <g
       id="g313"
       transform="matrix(0.26458333,0,0,0.26458333,-215.38316,146.16022)">
      <text
         font-family="Arial, Arial_MSFontService, sans-serif"
         font-weight="400"
         font-size="12px"
         transform="translate(689.572,182)"
         id="text311">-0.2</text>
    </g>
    <g
       id="g317"
       transform="matrix(0.26458333,0,0,0.26458333,-215.38316,146.16022)">
      <text
         font-family="Arial, Arial_MSFontService, sans-serif"
         font-weight="400"
         font-size="12px"
         transform="translate(769.376,182)"
         id="text315">0</text>
    </g>
    <g
       id="g321"
       transform="matrix(0.26458333,0,0,0.26458333,-215.38316,146.16022)">
      <text
         font-family="Arial, Arial_MSFontService, sans-serif"
         font-weight="400"
         font-size="12px"
         transform="translate(837.177,182)"
         id="text319">0.2</text>
    </g>
    <g
       id="g325"
       transform="matrix(0.26458333,0,0,0.26458333,-215.38316,146.16022)">
      <text
         font-family="Arial, Arial_MSFontService, sans-serif"
         font-weight="400"
         font-size="12px"
         transform="translate(909.981,182)"
         id="text323">0.4</text>
    </g>
    <g
       id="g329"
       transform="matrix(0.26458333,0,0,0.26458333,-215.38316,146.16022)">
      <text
         font-family="Arial, Arial_MSFontService, sans-serif"
         font-weight="400"
         font-size="12px"
         transform="translate(982.785,182)"
         id="text327">0.6</text>
    </g>
    <g
       id="g333"
       transform="matrix(0.26458333,0,0,0.26458333,-215.38316,146.16022)">
      <text
         font-family="Arial, Arial_MSFontService, sans-serif"
         font-weight="400"
         font-size="12px"
         transform="translate(1055.59,182)"
         id="text331">0.8</text>
    </g>
    <g
       id="g337"
       transform="matrix(0.26458333,0,0,0.26458333,-215.38316,146.16022)">
      <text
         font-family="Arial, Arial_MSFontService, sans-serif"
         font-weight="400"
         font-size="12px"
         transform="translate(1133.4,182)"
         id="text335">1</text>
    </g>
    <g
       id="g341"
       transform="matrix(0.26458333,0,0,0.26458333,-215.38316,146.16022)">
      <text
         font-family="Arial, Arial_MSFontService, sans-serif"
         font-weight="400"
         font-size="12px"
         transform="translate(1201.2,182)"
         id="text339">1.2</text>
    </g>
    <g
       id="g345"
       transform="matrix(0.26458333,0,0,0.26458333,-215.38316,146.16022)">
      <text
         font-family="Cambria, Cambria_MSFontService, sans-serif"
         font-style="italic"
         font-weight="400"
         font-size="13px"
         transform="rotate(-90,432.141,-263.141)"
         id="text343">x</text>
    </g>
    <g
       id="g349"
       transform="matrix(0.26458333,0,0,0.26458333,-215.38316,146.16022)">
      <text
         font-family="Arial, Arial_MSFontService, sans-serif"
         font-weight="400"
         font-size="9px"
         transform="rotate(-90,430.141,-267.141)"
         id="text347">2</text>
    </g>
    <g
       id="g353"
       transform="matrix(0.26458333,0,0,0.26458333,-215.38316,146.16022)">
      <text
         font-family="Arial, Arial_MSFontService, sans-serif"
         font-weight="400"
         font-size="13px"
         transform="translate(921.743,327)"
         id="text351">Velocidade</text>
    </g>
    <g
       id="g357"
       transform="matrix(0.26458333,0,0,0.26458333,-215.38316,146.16022)"
       clip-path="url(#clipPath870)">
      <path
         d="m 758,357 h 33"
         stroke="#4472c4"
         stroke-width="2"
         stroke-linecap="round"
         stroke-linejoin="round"
         stroke-miterlimit="10"
         stroke-dasharray="4, 4"
         fill="none"
         fill-rule="evenodd"
         id="path355" />
    </g>
    <g
       id="g361"
       transform="matrix(0.26458333,0,0,0.26458333,-215.38316,146.16022)">
      <text
         font-family="Arial, Arial_MSFontService, sans-serif"
         font-weight="400"
         font-size="12px"
         transform="translate(795.159,361)"
         id="text359">Autor - x1 = 14</text>
    </g>
    <g
       id="g365"
       transform="matrix(0.26458333,0,0,0.26458333,-215.38316,146.16022)"
       clip-path="url(#clipPath864)">
      <path
         d="m 954,357 h 34"
         stroke="#4472c4"
         stroke-width="2"
         stroke-linecap="round"
         stroke-linejoin="round"
         stroke-miterlimit="10"
         fill="none"
         fill-rule="evenodd"
         id="path363" />
    </g>
    <g
       id="g369"
       transform="matrix(0.26458333,0,0,0.26458333,-215.38316,146.16022)">
      <text
         font-family="Arial, Arial_MSFontService, sans-serif"
         font-weight="400"
         font-size="12px"
         transform="translate(991.58,361)"
         id="text367">Autor - x1 = 30</text>
    </g>
    <g
       id="g373"
       transform="matrix(0.26458333,0,0,0.26458333,-215.38316,146.16022)"
       clip-path="url(#clipPath858)">
      <path
         d="m 758,378 h 33"
         stroke="#ed7d31"
         stroke-width="2"
         stroke-linecap="round"
         stroke-linejoin="round"
         stroke-miterlimit="10"
         stroke-dasharray="4, 4"
         fill="none"
         fill-rule="evenodd"
         id="path371" />
    </g>
    <g
       id="g377"
       transform="matrix(0.26458333,0,0,0.26458333,-215.38316,146.16022)">
      <text
         font-family="Arial, Arial_MSFontService, sans-serif"
         font-weight="400"
         font-size="12px"
         transform="translate(795.159,382)"
         id="text375">P2P1 - x1 = 14</text>
    </g>
    <g
       id="g381"
       transform="matrix(0.26458333,0,0,0.26458333,-215.38316,146.16022)"
       clip-path="url(#clipPath852)">
      <path
         d="m 954,378 h 34"
         stroke="#ed7d31"
         stroke-width="2"
         stroke-linecap="round"
         stroke-linejoin="round"
         stroke-miterlimit="10"
         fill="none"
         fill-rule="evenodd"
         id="path379" />
    </g>
    <g
       id="g385"
       transform="matrix(0.26458333,0,0,0.26458333,-215.38316,146.16022)">
      <text
         font-family="Arial, Arial_MSFontService, sans-serif"
         font-weight="400"
         font-size="12px"
         transform="translate(991.58,382)"
         id="text383">P2P1 - x1 = 30</text>
    </g>
    <g
       id="g389"
       transform="matrix(0.26458333,0,0,0.26458333,-215.38316,146.16022)"
       clip-path="url(#clipPath846)">
      <path
         d="m 771.5,396.5 h 6 v 6 h -6 z"
         stroke="#000000"
         stroke-linejoin="round"
         stroke-miterlimit="10"
         fill="none"
         id="path387" />
    </g>
    <g
       id="g393"
       transform="matrix(0.26458333,0,0,0.26458333,-215.38316,146.16022)">
      <text
         font-family="Arial, Arial_MSFontService, sans-serif"
         font-weight="400"
         font-size="12px"
         transform="translate(795.159,403)"
         id="text391">Chiang, Sheu (1998) - x1=14</text>
    </g>
    <g
       id="g397"
       transform="matrix(0.26458333,0,0,0.26458333,-215.38316,146.16022)"
       clip-path="url(#clipPath840)">
      <path
         d="m 975.5,403.5 -7,-7 m 0,7 7,-7"
         stroke="#000000"
         stroke-linejoin="round"
         stroke-miterlimit="10"
         fill="none"
         id="path395" />
    </g>
    <g
       id="g401"
       transform="matrix(0.26458333,0,0,0.26458333,-215.38316,146.16022)">
      <text
         font-family="Arial, Arial_MSFontService, sans-serif"
         font-weight="400"
         font-size="12px"
         transform="translate(991.58,403)"
         id="text399">Chiang, Sheu (1998) - x1=30</text>
    </g>
  </g>
</svg>
