<?xml version="1.0" encoding="UTF-8" standalone="no"?>
<!-- Created with Inkscape (http://www.inkscape.org/) -->

<svg
   width="139.2382mm"
   height="104.513mm"
   viewBox="0 0 139.2382 104.513"
   version="1.1"
   id="svg5"
   inkscape:version="1.2.1 (9c6d41e410, 2022-07-14)"
   sodipodi:docname="resultado2D-1.svg"
   xmlns:inkscape="http://www.inkscape.org/namespaces/inkscape"
   xmlns:sodipodi="http://sodipodi.sourceforge.net/DTD/sodipodi-0.dtd"
   xmlns="http://www.w3.org/2000/svg"
   xmlns:svg="http://www.w3.org/2000/svg">
  <sodipodi:namedview
     id="namedview7"
     pagecolor="#ffffff"
     bordercolor="#000000"
     borderopacity="0.25"
     inkscape:showpageshadow="2"
     inkscape:pageopacity="0.0"
     inkscape:pagecheckerboard="0"
     inkscape:deskcolor="#d1d1d1"
     inkscape:document-units="mm"
     showgrid="false"
     inkscape:zoom="1.4912879"
     inkscape:cx="295.04699"
     inkscape:cy="244.75489"
     inkscape:window-width="1920"
     inkscape:window-height="1017"
     inkscape:window-x="1912"
     inkscape:window-y="-8"
     inkscape:window-maximized="1"
     inkscape:current-layer="layer1" />
  <defs
     id="defs2">
    <clipPath
       clipPathUnits="userSpaceOnUse"
       id="clipPath900">
      <g
         id="g904"
         transform="matrix(3.7795276,0,0,3.7795276,770.79894,-506.8184)">
        <rect
           x="-43.073887"
           y="134.0957"
           width="150.01875"
           height="110.06667"
           id="rect902"
           style="stroke-width:0.264583" />
      </g>
    </clipPath>
    <clipPath
       clipPathUnits="userSpaceOnUse"
       id="clipPath906">
      <g
         id="g910"
         transform="matrix(3.7795276,0,0,3.7795276,770.79894,-506.8184)">
        <rect
           x="-43.073887"
           y="134.0957"
           width="150.01875"
           height="110.06667"
           id="rect908"
           style="stroke-width:0.264583" />
      </g>
    </clipPath>
    <clipPath
       clipPathUnits="userSpaceOnUse"
       id="clipPath912">
      <g
         id="g916"
         transform="matrix(3.7795276,0,0,3.7795276,770.79894,-506.8184)">
        <rect
           x="-43.073887"
           y="134.0957"
           width="150.01875"
           height="110.06667"
           id="rect914"
           style="stroke-width:0.264583" />
      </g>
    </clipPath>
    <clipPath
       clipPathUnits="userSpaceOnUse"
       id="clipPath918">
      <g
         id="g922"
         transform="matrix(3.7795276,0,0,3.7795276,770.79894,-506.8184)">
        <rect
           x="-43.073887"
           y="134.0957"
           width="150.01875"
           height="110.06667"
           id="rect920"
           style="stroke-width:0.264583" />
      </g>
    </clipPath>
    <clipPath
       clipPathUnits="userSpaceOnUse"
       id="clipPath924">
      <g
         id="g928"
         transform="matrix(3.7795276,0,0,3.7795276,770.79894,-506.8184)">
        <rect
           x="-43.073887"
           y="134.0957"
           width="150.01875"
           height="110.06667"
           id="rect926"
           style="stroke-width:0.264583" />
      </g>
    </clipPath>
    <clipPath
       clipPathUnits="userSpaceOnUse"
       id="clipPath930">
      <g
         id="g934"
         transform="matrix(3.7795276,0,0,3.7795276,770.79894,-506.8184)">
        <rect
           x="-43.073887"
           y="134.0957"
           width="150.01875"
           height="110.06667"
           id="rect932"
           style="stroke-width:0.264583" />
      </g>
    </clipPath>
    <clipPath
       clipPathUnits="userSpaceOnUse"
       id="clipPath936">
      <g
         id="g940"
         transform="matrix(3.7795276,0,0,3.7795276,770.79894,-506.8184)">
        <rect
           x="-43.073887"
           y="134.0957"
           width="150.01875"
           height="110.06667"
           id="rect938"
           style="stroke-width:0.264583" />
      </g>
    </clipPath>
    <clipPath
       clipPathUnits="userSpaceOnUse"
       id="clipPath942">
      <g
         id="g946"
         transform="matrix(3.7795276,0,0,3.7795276,770.79894,-506.8184)">
        <rect
           x="-43.073887"
           y="134.0957"
           width="150.01875"
           height="110.06667"
           id="rect944"
           style="stroke-width:0.264583" />
      </g>
    </clipPath>
    <clipPath
       clipPathUnits="userSpaceOnUse"
       id="clipPath948">
      <g
         id="g952"
         transform="matrix(3.7795276,0,0,3.7795276,770.79894,-506.8184)">
        <rect
           x="-43.073887"
           y="134.0957"
           width="150.01875"
           height="110.06667"
           id="rect950"
           style="stroke-width:0.264583" />
      </g>
    </clipPath>
    <clipPath
       clipPathUnits="userSpaceOnUse"
       id="clipPath954">
      <g
         id="g958"
         transform="matrix(3.7795276,0,0,3.7795276,770.79894,-506.8184)">
        <rect
           x="-43.073887"
           y="134.0957"
           width="150.01875"
           height="110.06667"
           id="rect956"
           style="stroke-width:0.264583" />
      </g>
    </clipPath>
    <clipPath
       clipPathUnits="userSpaceOnUse"
       id="clipPath960">
      <g
         id="g964"
         transform="matrix(3.7795276,0,0,3.7795276,770.79894,-506.8184)">
        <rect
           x="-43.073887"
           y="134.0957"
           width="150.01875"
           height="110.06667"
           id="rect962"
           style="stroke-width:0.264583" />
      </g>
    </clipPath>
    <clipPath
       clipPathUnits="userSpaceOnUse"
       id="clipPath966">
      <g
         id="g970"
         transform="matrix(3.7795276,0,0,3.7795276,770.79894,-506.8184)">
        <rect
           x="-43.073887"
           y="134.0957"
           width="150.01875"
           height="110.06667"
           id="rect968"
           style="stroke-width:0.264583" />
      </g>
    </clipPath>
    <clipPath
       clipPathUnits="userSpaceOnUse"
       id="clipPath972">
      <g
         id="g976"
         transform="matrix(3.7795276,0,0,3.7795276,770.79894,-506.8184)">
        <rect
           x="-43.073887"
           y="134.0957"
           width="150.01875"
           height="110.06667"
           id="rect974"
           style="stroke-width:0.264583" />
      </g>
    </clipPath>
    <clipPath
       clipPathUnits="userSpaceOnUse"
       id="clipPath978">
      <g
         id="g982"
         transform="matrix(3.7795276,0,0,3.7795276,770.79894,-506.8184)">
        <rect
           x="-43.073887"
           y="134.0957"
           width="150.01875"
           height="110.06667"
           id="rect980"
           style="stroke-width:0.264583" />
      </g>
    </clipPath>
    <clipPath
       clipPathUnits="userSpaceOnUse"
       id="clipPath984">
      <g
         id="g988"
         transform="matrix(3.7795276,0,0,3.7795276,770.79894,-506.8184)">
        <rect
           x="-43.073887"
           y="134.0957"
           width="150.01875"
           height="110.06667"
           id="rect986"
           style="stroke-width:0.264583" />
      </g>
    </clipPath>
    <clipPath
       clipPathUnits="userSpaceOnUse"
       id="clipPath990">
      <g
         id="g994"
         transform="matrix(3.7795276,0,0,3.7795276,770.79894,-506.8184)">
        <rect
           x="-43.073887"
           y="134.0957"
           width="150.01875"
           height="110.06667"
           id="rect992"
           style="stroke-width:0.264583" />
      </g>
    </clipPath>
    <clipPath
       clipPathUnits="userSpaceOnUse"
       id="clipPath996">
      <g
         id="g1000"
         transform="matrix(3.7795276,0,0,3.7795276,770.79894,-506.8184)">
        <rect
           x="-43.073887"
           y="134.0957"
           width="150.01875"
           height="110.06667"
           id="rect998"
           style="stroke-width:0.264583" />
      </g>
    </clipPath>
    <clipPath
       clipPathUnits="userSpaceOnUse"
       id="clipPath1002">
      <g
         id="g1006"
         transform="matrix(3.7795276,0,0,3.7795276,770.79894,-506.8184)">
        <rect
           x="-43.073887"
           y="134.0957"
           width="150.01875"
           height="110.06667"
           id="rect1004"
           style="stroke-width:0.264583" />
      </g>
    </clipPath>
    <clipPath
       clipPathUnits="userSpaceOnUse"
       id="clipPath1008">
      <g
         id="g1012"
         transform="matrix(3.7795276,0,0,3.7795276,770.79894,-506.8184)">
        <rect
           x="-43.073887"
           y="134.0957"
           width="150.01875"
           height="110.06667"
           id="rect1010"
           style="stroke-width:0.264583" />
      </g>
    </clipPath>
    <clipPath
       clipPathUnits="userSpaceOnUse"
       id="clipPath1014">
      <g
         id="g1018">
        <rect
           x="-43.073887"
           y="134.0957"
           width="150.01875"
           height="110.06667"
           id="rect1016"
           style="stroke-width:0.264583" />
      </g>
    </clipPath>
  </defs>
  <g
     inkscape:label="Camada 1"
     inkscape:groupmode="layer"
     id="layer1"
     transform="translate(37.585015,-136.84075)">
    <g
       id="g141"
       transform="matrix(0.26458333,0,0,0.26458333,-203.94055,134.0957)"
       clip-path="url(#clipPath1008)">
      <path
         d="m 682.5,311.5 h 471 m -471,-49 h 471 m -471,-50 h 471 m -471,-49 h 471 m -471,-98.9999 h 471 m -471,-50 h 471"
         stroke="#d9d9d9"
         stroke-linejoin="round"
         stroke-miterlimit="10"
         fill="none"
         id="path139" />
    </g>
    <g
       id="g145"
       transform="matrix(0.26458333,0,0,0.26458333,-203.94055,134.0957)"
       clip-path="url(#clipPath1002)">
      <path
         d="M 767.5,14.5001 V 311.5 m 86,-296.9999 V 311.5 m 86,-296.9999 V 311.5 m 86,-296.9999 V 311.5 m 86,-296.9999 V 311.5"
         stroke="#d9d9d9"
         stroke-linejoin="round"
         stroke-miterlimit="10"
         fill="none"
         id="path143" />
    </g>
    <g
       id="g149"
       transform="matrix(0.26458333,0,0,0.26458333,-203.94055,134.0957)"
       clip-path="url(#clipPath996)">
      <rect
         x="682.5"
         y="14.5001"
         width="471"
         height="297"
         stroke="#000000"
         stroke-linejoin="round"
         stroke-miterlimit="10"
         fill="none"
         id="rect147" />
    </g>
    <g
       id="g153"
       transform="matrix(0.26458333,0,0,0.26458333,-203.94055,134.0957)"
       clip-path="url(#clipPath990)">
      <path
         d="M 0,0 1.04987e-4,297"
         stroke="#000000"
         stroke-linejoin="round"
         stroke-miterlimit="10"
         fill="none"
         fill-rule="evenodd"
         transform="matrix(1,0,0,-1,682.5,311.5)"
         id="path151" />
    </g>
    <g
       id="g157"
       transform="matrix(0.26458333,0,0,0.26458333,-203.94055,134.0957)"
       clip-path="url(#clipPath984)">
      <path
         d="m 682.5,311.5 h 2 m -2,-10 h 2 m -2,-10 h 2 m -2,-10 h 2 m -2,-9 h 2 m -2,-10 h 2 m -2,-10 h 2 m -2,-10 h 2 m -2,-10 h 2 m -2,-10 h 2 m -2,-10 h 2 m -2,-10 h 2 m -2,-10 h 2 m -2,-10 h 2 m -2,-9 h 2 m -2,-10 h 2 m -2,-10 h 2 m -2,-10 h 2 m -2,-10 h 2 m -2,-10 h 2 m -2,-10 h 2 m -2,-10 h 2 m -2,-9.9999 h 2 m -2,-10 h 2 m -2,-9 h 2 m -2,-10 h 2 m -2,-10 h 2 m -2,-10 h 2 m -2,-10 h 2 m -2,-10 h 2 m -2,-10 h 2 m -6,296.9999 h 7 m -7,-49 h 7 m -7,-50 h 7 m -7,-49 h 7 m -7,-50 h 7 m -7,-48.9999 h 7 m -7,-50 h 7"
         stroke="#000000"
         stroke-linejoin="round"
         stroke-miterlimit="10"
         fill="none"
         id="path155" />
    </g>
    <g
       id="g161"
       transform="matrix(0.26458333,0,0,0.26458333,-203.94055,134.0957)"
       clip-path="url(#clipPath978)">
      <path
         d="m 682.5,113.5 h 471"
         stroke="#000000"
         stroke-linejoin="round"
         stroke-miterlimit="10"
         fill="none"
         fill-rule="evenodd"
         id="path159" />
    </g>
    <g
       id="g165"
       transform="matrix(0.26458333,0,0,0.26458333,-203.94055,134.0957)"
       clip-path="url(#clipPath972)">
      <path
         d="m 682.5,110.5 v 3 m 17,-3 v 3 m 17,-3 v 3 m 17,-3 v 3 m 17,-3 v 3 m 17,-3 v 3 m 18,-3 v 3 m 17,-3 v 3 m 17,-3 v 3 m 17,-3 v 3 m 17,-3 v 3 m 17,-3 v 3 m 17,-3 v 3 m 18,-3 v 3 m 17,-3 v 3 m 17,-3 v 3 m 17,-3 v 3 m 17,-3 v 3 m 17,-3 v 3 m 18,-3 v 3 m 17,-3 v 3 m 17,-3 v 3 m 17,-3 v 3 m 17,-3 v 3 m 17,-3 v 3 m 18,-3 v 3 m 17,-3 v 3 m 17,-3 v 3 m -463,-3 v 7 m 85,-7 v 7 m 86,-7 v 7 m 86,-7 v 7 m 86,-7 v 7 m 86,-7 v 7"
         stroke="#000000"
         stroke-linejoin="round"
         stroke-miterlimit="10"
         fill="none"
         id="path163" />
    </g>
    <g
       id="g169"
       transform="matrix(0.26458333,0,0,0.26458333,-203.94055,134.0957)"
       clip-path="url(#clipPath966)">
      <path
         d="m 682,288 h 1 v 0 0 h 1 v 0 h 1 v 0 h 1 v 0 h 1 v 0 h 1 v 0 h 1 v 0 h 1 v 0 h 1 v 0 0 h 1 v 0 h 1 v 0 h 1 v 0 h 1 v 0 h 1 v 0 h 1 v 0 h 1 v 0 h 1 v 0 h 1 v -1 0 h 1 v 0 h 1 v 0 h 1 v 0 h 1 v -1 h 1 v 0 h 1 v 0 h 1 v 0 h 1 v 0 0 h 1 v 0 l 1,-1 v 0 h 1 v 0 h 1 v 0 l 1,-1 v 0 h 1 v 0 h 1 v -1 h 1 v 0 l 1,-1 v 0 0 h 1 v 0 l 1,-1 v 0 h 1 v 0 l 1,-1 v 0 h 1 v 0 l 1,-1 v 0 h 1 v -1 h 1 v 0 0 l 1,-1 v 0 h 1 v 0 l 1,-1 v 0 h 1 v 0 l 1,-1 v 0 h 1 v -1 h 1 v 0 l 1,-1 v 0 -1 h 1 v 0 l 1,-1 v 0 h 1 v -1 h 1 v 0 l 1,-1 v 0 l 1,-1 v 0 h 1 v -1 h 1 v -1 h 1 v 0 -1 h 1 v -1 h 1 v -1 h 1 v -1 h 1 v -1 h 1 v -1 h 1 v -1 h 1 v -1 h 1 v 0 -1 h 1 v -1 h 1 v -1 h 1 v -1 l 1,-1 v -1 l 1,-1 v -2 l 1,-1 v -1 l 1,-2 v -1 l 1,-1 v -1 l 1,-1 v -1 -1 l 1,-1 v -1 l 1,-1 v -1 l 1,-2 v -1 l 1,-2 v -2 l 1,-2 v -2 l 1,-2 v -2 l 1,-2 v -2 l 1,-2 v -3 -2 l 1,-3 v -3 l 1,-3 v -3 l 1,-3 v -3 l 1,-3 v -3 l 1,-3 v -4 l 1,-3 v -4 l 1,-3 v -5 l 1,-4 v -4 -5 l 1,-4 v -5 l 1,-5 v -5 l 1,-5 v -6 l 1,-4 v -5 l 1,-3 v -3 l 1,-2 v -2 h 1 v -1 h 1 v -1 l 1,-1 v 0 0 h 1 v 0 h 1 v 0 h 1 v -1 l 1,-1 v 0 h 1 v 0 l 1,1 v 1 l 1,2 v 1 h 1 v 0 1 l 1,1 v 1 l 1,1 v 1 l 1,2 v 2 l 1,1 v 0 l 1,1 v 1 l 1,1 v 1 l 1,1 v 1 l 1,2 v 1 h 1 v 1 1 h 1 v 1 h 1 v 1 l 1,1 v 1 h 1 v 0 l 1,1 v 0 h 1 v 1 h 1 v 0 h 1 v 0 1 h 1 v 0 h 1 v 0 h 1 v 0 h 1 v 0 h 1 v 0 h 1 v -1 h 1 v 0 h 1 v -1 0 h 1 v 0 h 1 v -1 h 1 v 0 l 1,-1 v 0 l 1,-1 v 0 l 1,-1 v 0 h 1 v -1 h 1 v 0 l 1,-1 v 0 -1 l 1,-1 v 0 h 1 v -1 h 1 v -1 l 1,-1 v 0 l 1,-1 v -1 h 1 v 0 l 1,-1 v 0 l 1,-1 v 0 -1 h 1 v -1 l 1,-1 v 0 l 1,-1 v 0 l 1,-1 v 0 l 1,-1 v -1 h 1 v -1 h 1 v -1 h 1 v -1 h 1 v -1 0 l 1,-1 v 0 l 1,-1 v 0 l 1,-1 v 0 l 1,-1 v 0 h 1 v -1 l 1,-1 v 0 l 1,-1 v 0 h 1 v -1 0 l 1,-1 v 0 l 1,-1 v 0 l 1,-1 v 0 l 1,-1 v 0 l 1,-1 v 0 l 1,-1 v 0 l 1,-1 v 0 l 1,-1 v 0 0 l 1,-1 v 0 h 1 v -1 h 1 v 0 l 1,-1 v 0 l 1,-1 v 0 l 1,-1 v 0 h 1 v -1 h 1 v -1 h 1 v -1 0 h 1 v -1 h 1 v 0 l 1,-1 v 0 h 1 v -1 h 1 v 0 l 1,-1 v 0 l 1,-1 v 0 h 1 v -1 0 h 1 v 0 l 1,-1 v 0 h 1 v -1 h 1 v 0 l 1,-1 v 0 h 1 v 0 l 1,-1 v 0 h 1 v -1 h 1 v 0 0 l 1,-1 v 0 h 1 v 0 l 1,-1 v 0 h 1 v 0 l 1,-1 v 0 h 1 v 0 h 1 v -1 h 1 v 0 0 h 1 v -1 h 1 v 0 h 1 v 0 l 1,-1 v 0 h 1 v 0 h 1 v -1 h 1 v 0 h 1 v 0 0 h 1 v -1 h 1 v 0 h 1 v 0 h 1 v 0 l 1,-1 v 0 h 1 v 0 h 1 v 0 h 1 v -1 h 1 v 0 0 h 1 v 0 h 1 v 0 h 1 v -1 h 1 v 0 h 1 v 0 h 1 v 0 h 1 v 0 h 1 v -1 0 h 1 v 0 h 1 v 0 h 1 v 0 h 1 v 0 h 1 v 0 h 1 v 0 h 1 v -1 h 1 v 0 h 1 v 0 0 h 1 v 0 h 1 v 0 h 1 v 0 h 1 v 0 h 1 v 0 h 1 v 0 h 1 v 0 h 1 v 0 0 h 1 v 0 h 1 v 0 h 1 v 0 h 1 v 0 h 1 v 0 h 1 v 0 h 1 v 0 h 1 v 0 0 h 1 v 0 h 1 v 0 h 1 v 0 h 1 v 0 h 1 v 0 h 1 v 0 h 1 v 0 h 1 v 0 h 1 v 0 0 h 1 v 0 h 1 v 0 h 1 v 0 h 1 v 0 h 1 v 0 h 1 v 0 h 1 v 0 l 1,1 v 0 0 h 1 v 0 h 1 v 0 h 1 v 0 h 1 v 0 h 1 v 0 h 1 v 0 h 1 v 0 h 1 v 0 l 1,1 v 0 0 h 1 v 0 h 1 v 0 h 1 v 0 h 1 v 0 h 1 v 0 h 1 v 1 h 1 v 0 h 1 v 0 0 h 1 v 0 h 1 v 0 h 1 v 0 h 1 v 1 h 1 v 0 h 1 v 0 h 1 v 0 h 1 v 0 0 h 1 v 0 l 1,1 v 0 h 1 v 0 h 1 v 0 h 1 v 0 h 1 v 0 l 1,1 v 0 h 1 v 0 h 1 v 0 0 h 1 v 0 h 1 v 1 h 1 v 0 h 1 v 0 h 1 v 0 h 1 v 0 l 1,1 v 0 h 1 v 0 0 h 1 v 0 h 1 v 0 l 1,1 v 0 h 1 v 0 h 1 v 0 h 1 v 0 h 1 v 1 h 1 v 0 h 1 v 0 0 h 1 v 0 l 1,1 v 0 h 1 v 0 h 1 v 0 h 1 v 0 l 1,1 v 0 h 1 v 0 h 1 v 0 0 h 1 v 1 h 1 v 0 h 1 v 0 h 1 v 0 l 1,1 v 0 h 1 v 0 h 1 v 0 h 1 v 0 1 h 1 v 0 h 1 v 0 h 1 v 0 l 1,1 v 0 h 1 v 0 h 1 v 0 h 1 v 1 h 1 v 0 h 1 v 0 0 h 1 v 1 h 1 v 0 h 1 v 0 h 1 v 0 l 1,1 v 0 h 1 v 0 h 1 v 0 l 1,1 v 0 0 h 1 v 0 h 1 v 0 l 1,1 v 0 h 1 v 0 h 1 v 0 h 1 v 1 h 1 v 0 h 1 v 0 h 1 v 1 0 h 1 v 0 h 1 v 0 h 1 v 1 h 1 v 0 h 1 v 0 h 1 v 1 h 1 v 0 h 1 v 0 0 l 1,1 v 0 h 1 v 0 h 1 v 0 l 1,1 v 0 h 1 v 0 h 1 v 0 l 1,1 v 0 h 1 v 0 0 h 1 v 0 l 1,1 v 0 h 1 v 0 h 1 v 1 h 1 v 0 h 1 v 0 h 1 v 0 l 1,1 v 0 h 1 v 0 0 l 1,1 v 0 h 1 v 0 h 1 v 0 l 1,1 v 0 h 1 v 0 h 1 v 0 l 1,1 v 0 h 1 v 0 0 h 1 v 1 h 1 v 0 h 1 v 0 h 1 v 1 h 1 v 0 h 1 v 0 l 1,1 v 0 h 1 v 0 h 1 v 0 1 h 1 v 0 h 1 v 0 h 1 v 1 h 1 v 0 h 1 v 0 l 1,1 v 0 h 1 v 0 h 1 v 0 1 h 1 v 0 h 1 v 0 h 1 v 1 h 1 v 0 h 1 v 0 l 1,1 v 0 h 1 v 0 h 1 v 0 l 1,1 v 0 0 h 1 v 0 l 1,1 v 0 h 1 v 0 h 1 v 0 l 1,1 v 0 h 1 v 0 h 1 v 1 h 1 v 0 0 h 1 v 0 l 1,1 v 0 h 1 v 0 h 1 v 1 h 1 v 0 h 1 v 0 l 1,1 v 0 h 1 v 0 0 h 1 v 1 h 1 v 0 h 1 v 0 l 1,1 v 0 h 1 v 0 h 1 v 1 h 1 v 0 h 1 v 0 h 1 v 1 0 h 1 v 0 h 1 v 1 h 1 v 0 h 1 v 0 l 1,1 v 0 h 1 v 0 h 1 v 0 l 1,1 v 0 0 h 1 v 0 l 1,1 v 0 h 1 v 0 h 1 v 1 h 1 v 0 h 1 v 0 l 1,1 v 0 h 1 v 0 h 1 v 0"
         stroke="#4472c4"
         stroke-width="2"
         stroke-linecap="round"
         stroke-linejoin="round"
         stroke-miterlimit="10"
         fill="none"
         id="path167" />
    </g>
    <g
       id="g173"
       transform="matrix(0.26458333,0,0,0.26458333,-203.94055,134.0957)"
       clip-path="url(#clipPath960)">
      <path
         d="m 682,267 h 1 v 1 0 l 1,1 v 1 l 1,1 v 1 l 1,1 v 1 l 1,2 v 1 l 1,1 v 0 l 1,1 v 0 l 1,1 v 0 h 1 v 2 1 h 1 v 1 l 1,1 v 0 h 1 v 0 h 1 v 0 l 1,1 v 0 l 1,1 v 0 h 1 v 0 l 1,-1 v 0 h 1 v 1 0 h 1 v 0 h 1 v 0 h 1 v 0 h 1 v 0 h 1 v -1 h 1 v 0 h 1 v -1 h 1 v 0 0 h 1 v 0 l 1,-1 v 0 h 1 v -1 h 1 v 0 h 1 v 0 l 1,-1 v 0 h 1 v 0 l 1,-1 v 0 h 1 v 0 0 h 1 v 0 h 1 v -1 h 1 v 0 h 1 v -1 l 1,-1 v -1 l 1,-1 v 0 l 1,-1 v -1 l 1,-1 v 0 0 l 1,-1 v 0 h 1 v 0 l 1,-1 v 0 h 1 v -1 h 1 v -1 l 1,-1 v -1 l 1,-1 v -1 h 1 v -1 -1 l 1,-1 v -1 h 1 v -1 h 1 v -1 l 1,-1 v 0 l 1,-1 v -1 l 1,-1 v -1 l 1,-1 v -1 l 1,-1 v -2 l 1,-1 v -2 -2 h 1 v -1 l 1,-1 v -1 l 1,-1 v -1 l 1,-2 v -1 l 1,-2 v -1 l 1,-1 v -1 l 1,-2 v -1 l 1,-1 v -2 -2 l 1,-1 v -2 l 1,-1 v -1 l 1,-2 v -1 l 1,-1 v -2 l 1,-2 v -1 l 1,-2 v -1 l 1,-2 v -1 l 1,-1 v -2 l 1,-1 v -1 -2 l 1,-2 v -1 l 1,-1 v -1 l 1,-1 v -2 l 1,-1 v -1 l 1,-1 v -1 l 1,-1 v -1 l 1,-1 v -1 l 1,-1 v -1 -1 l 1,-1 v -1 h 1 v -1 l 1,-1 v -1 l 1,-1 v -1 h 1 v -1 h 1 v -1 h 1 v -1 l 1,-1 v 0 -1 h 1 v -1 h 1 v 0 l 1,-1 v 0 h 1 v -1 h 1 v 0 l 1,-1 v 0 h 1 v 0 h 1 v 0 l 1,-1 v 0 0 h 1 v 0 h 1 v -1 h 1 v 0 h 1 v 0 l 1,-1 v 0 h 1 v 0 l 1,-1 v 0 h 1 v 0 0 l 1,-1 v 0 h 1 v 0 l 1,-1 v 0 h 1 v -1 h 1 v 0 l 1,-1 v 0 h 1 v -1 h 1 v 0 l 1,-1 v 0 0 l 1,-1 v 0 l 1,-1 v 0 h 1 v -1 h 1 v -1 h 1 v 0 l 1,-1 v 0 l 1,-1 v 0 l 1,-1 v 0 0 l 1,-1 v 0 l 1,-1 v 0 l 1,-1 v 0 l 1,-1 v 0 l 1,-1 v 0 l 1,-1 v 0 l 1,-1 v 0 l 1,-1 v -1 0 l 1,-1 v -1 h 1 v -1 h 1 v -1 l 1,-1 v 0 l 1,-1 v 0 l 1,-1 v -1 h 1 v -1 h 1 v -1 l 1,-1 v 0 -1 h 1 v -1 h 1 v -1 l 1,-1 v 0 l 1,-1 v 0 l 1,-1 v -1 h 1 v -1 l 1,-1 v 0 l 1,-1 v -1 0 l 1,-1 v -1 h 1 v -1 l 1,-1 v 0 l 1,-1 v -1 h 1 v -1 l 1,-1 v 0 l 1,-1 v -1 h 1 v -1 l 1,-1 v -1 0 l 1,-1 v 0 l 1,-1 v -1 h 1 v -1 l 1,-1 v 0 l 1,-1 v -1 h 1 v -1 l 1,-1 v 0 l 1,-1 v -1 0 l 1,-1 v -1 h 1 v -1 h 1 v -1 h 1 v -1 h 1 v -1 h 1 v -1 h 1 v -1 h 1 v -1 -1 h 1 v -1 h 1 v -1 h 1 v -1 h 1 v 0 l 1,-1 v 0 l 1,-1 v 0 h 1 v -1 h 1 v 0 l 1,-1 v 0 -1 h 1 v 0 l 1,-1 v 0 l 1,-1 v 0 h 1 v 0 l 1,-1 v 0 h 1 v -1 h 1 v 0 l 1,-1 v 0 0 h 1 v -1 h 1 v 0 l 1,-1 v 0 h 1 v 0 h 1 v -1 h 1 v 0 h 1 v -1 h 1 v 0 h 1 v 0 0 l 1,-1 v 0 h 1 v 0 l 1,-1 v 0 h 1 v 0 h 1 v -1 h 1 v 0 h 1 v 0 h 1 v 0 0 h 1 v -1 h 1 v 0 h 1 v 0 h 1 v 0 h 1 v -1 h 1 v 0 h 1 v 0 h 1 v 0 0 h 1 v 0 l 1,-1 v 0 h 1 v 0 h 1 v 0 h 1 v 0 h 1 v 0 l 1,-1 v 0 h 1 v 0 h 1 v 0 0 h 1 v 0 h 1 v 0 h 1 v 0 h 1 v 0 h 1 v -1 h 1 v 0 h 1 v 0 h 1 v 0 0 h 1 v 0 h 1 v 0 h 1 v 0 h 1 v 0 h 1 v 0 h 1 v 0 l 1,-1 v 0 h 1 v 0 h 1 v 0 0 h 1 v 0 h 1 v 0 h 1 v 0 h 1 v 0 h 1 v 0 h 1 v 0 h 1 v 0 h 1 v 0 0 h 1 v 0 h 1 v 0 h 1 v 0 h 1 v 0 h 1 v 0 h 1 v 0 h 1 v 0 h 1 v 0 0 h 1 v 0 h 1 v 0 h 1 v 0 h 1 v 0 h 1 v 0 h 1 v 0 h 1 v 0 h 1 v 0 h 1 v 0 0 h 1 v 0 h 1 v 0 h 1 v 0 h 1 v 0 h 1 v 0 h 1 v 1 h 1 v 0 h 1 v 0 0 h 1 v 0 h 1 v 0 h 1 v 0 h 1 v 0 h 1 v 0 h 1 v 0 h 1 v 0 h 1 v 1 h 1 v 0 0 h 1 v 0 h 1 v 0 h 1 v 0 h 1 v 0 h 1 v 0 h 1 v 1 h 1 v 0 h 1 v 0 0 h 1 v 0 h 1 v 0 h 1 v 0 h 1 v 1 h 1 v 0 h 1 v 0 h 1 v 0 h 1 v 0 0 h 1 v 0 l 1,1 v 0 h 1 v 0 h 1 v 0 h 1 v 0 h 1 v 0 l 1,1 v 0 h 1 v 0 h 1 v 0 0 h 1 v 0 h 1 v 1 h 1 v 0 h 1 v 0 h 1 v 0 h 1 v 0 l 1,1 v 0 h 1 v 0 0 h 1 v 0 h 1 v 0 l 1,1 v 0 h 1 v 0 h 1 v 0 h 1 v 0 h 1 v 1 h 1 v 0 h 1 v 0 0 h 1 v 0 l 1,1 v 0 h 1 v 0 h 1 v 0 h 1 v 0 l 1,1 v 0 h 1 v 0 h 1 v 0 0 h 1 v 1 h 1 v 0 h 1 v 0 h 1 v 0 l 1,1 v 0 h 1 v 0 h 1 v 0 h 1 v 0 1 h 1 v 0 h 1 v 0 h 1 v 0 l 1,1 v 0 h 1 v 0 h 1 v 0 h 1 v 1 h 1 v 0 h 1 v 0 0 h 1 v 1 h 1 v 0 h 1 v 0 h 1 v 0 l 1,1 v 0 h 1 v 0 h 1 v 0 h 1 v 1 0 h 1 v 0 h 1 v 0 l 1,1 v 0 h 1 v 0 h 1 v 0 h 1 v 1 h 1 v 0 h 1 v 0 h 1 v 1 0 h 1 v 0 h 1 v 0 h 1 v 1 h 1 v 0 h 1 v 0 h 1 v 1 h 1 v 0 h 1 v 0 0 l 1,1 v 0 h 1 v 0 h 1 v 0 l 1,1 v 0 h 1 v 0 h 1 v 0 h 1 v 1 h 1 v 0 0 h 1 v 0 l 1,1 v 0 h 1 v 0 h 1 v 0 l 1,1 v 0 h 1 v 0 h 1 v 0 l 1,1 v 0 h 1 v 0 0 l 1,1 v 0 h 1 v 0 h 1 v 0 l 1,1 v 0 h 1 v 0 h 1 v 0 l 1,1 v 0 h 1 v 0 0 h 1 v 1 h 1 v 0 h 1 v 0 h 1 v 1 h 1 v 0 h 1 v 0 l 1,1 v 0 h 1 v 0 h 1 v 0 1 h 1 v 0 h 1 v 0 h 1 v 1 h 1 v 0 h 1 v 0 h 1 v 1 h 1 v 0 h 1 v 0 1 h 1 v 0 h 1 v 0 h 1 v 1 h 1 v 0 h 1 v 0 l 1,1 v 0 h 1 v 0 h 1 v 0 l 1,1 v 0 0 h 1 v 0 l 1,1 v 0 h 1 v 0 h 1 v 0 l 1,1 v 0 h 1 v 0 h 1 v 1 h 1 v 0 0 h 1 v 0 l 1,1 v 0 h 1 v 0 h 1 v 1 h 1 v 0 h 1 v 0 l 1,1 v 0 h 1 v 0 0 h 1 v 1 h 1 v 0 h 1 v 0 l 1,1 v 0 h 1 v 0 h 1 v 1 h 1 v 0 h 1 v 0 h 1 v 1 0 h 1 v 0 h 1 v 1 h 1 v 0 h 1 v 0 l 1,1 v 0 h 1 v 0 h 1 v 0 l 1,1 v 0 0 h 1 v 0 l 1,1 v 0 h 1 v 0 h 1 v 1 h 1 v 0 h 1 v 0 l 1,1 v 0 h 1 v 0 h 1 v 0"
         stroke="#4472c4"
         stroke-width="2"
         stroke-linecap="round"
         stroke-linejoin="round"
         stroke-miterlimit="10"
         stroke-dasharray="4, 4"
         fill="none"
         id="path171" />
    </g>
    <g
       id="g177"
       transform="matrix(0.26458333,0,0,0.26458333,-203.94055,134.0957)"
       clip-path="url(#clipPath954)">
      <path
         d="m 682,305 h 1 v 0 0 h 1 v 0 h 1 v 0 h 1 v 0 h 1 v 0 h 1 v 0 h 1 v 0 h 1 v 0 h 1 v 0 0 h 1 v 0 h 1 v 0 h 1 v 0 h 1 v 0 h 1 v 0 l 1,-1 v 0 h 1 v 0 h 1 v 0 h 1 v 0 0 h 1 v 0 h 1 v 0 h 1 v 0 h 1 v 0 h 1 v 0 h 1 v 0 h 1 v -1 h 1 v 0 0 h 1 v 0 h 1 v 0 l 1,-1 v 0 h 1 v 0 h 1 v 0 h 1 v 0 l 1,-1 v 0 h 1 v 0 h 1 v 0 -1 h 1 v 0 l 1,-1 v 0 h 1 v -1 h 1 v 0 h 1 v 0 l 1,-1 v 0 h 1 v 0 h 1 v 0 -1 h 1 v -1 h 1 v 0 l 1,-1 v 0 l 1,-1 v 0 h 1 v -1 h 1 v 0 h 1 v 0 l 1,-1 v 0 0 h 1 v -1 h 1 v -1 h 1 v -1 h 1 v -1 h 1 v 0 l 1,-1 v 0 h 1 v 0 h 1 v -1 h 1 v 0 0 l 1,-1 v -1 h 1 v -1 h 1 v -1 h 1 v -1 l 1,-1 v 0 l 1,-1 v 0 h 1 v -1 h 1 v -1 0 l 1,-1 v 0 l 1,-1 v 0 l 1,-1 v 0 h 1 v -1 h 1 v 0 l 1,-1 v 0 h 1 v 0 h 1 v 0 h 1 v 0 0 h 1 v -3 l 1,-4 v -4 l 1,-4 v -3 l 1,-4 v -4 l 1,-3 v -4 l 1,-5 v -7 l 1,-7 v -7 l 1,-7 v -7 -7 l 1,-7 v -6 l 1,-7 v -5 l 1,-6 v -5 l 1,-5 v -6 l 1,-5 v -5 l 1,-5 v -6 l 1,-3 v -2 l 1,-2 v -2 -2 l 1,-2 v -2 l 1,-3 v -2 l 1,-2 v -1 l 1,-2 v -2 l 1,-1 v -2 l 1,-2 v -1 l 1,-2 v -1 l 1,2 v 2 l 1,3 v 2 2 l 1,3 v 2 l 1,2 v 3 l 1,1 v 0 h 1 v 0 h 1 v 1 h 1 v 0 h 1 v 0 l 1,2 v 2 2 l 1,2 v 2 l 1,1 v 2 l 1,2 v 2 h 1 v 1 h 1 v 0 h 1 v 1 h 1 v 0 h 1 v 0 h 1 v 0 0 h 1 v 0 h 1 v 0 h 1 v -1 l 1,1 v 0 h 1 v 1 h 1 v 0 l 1,1 v 0 h 1 v 0 0 l 1,-1 v 0 l 1,-1 v 0 l 1,-1 v 0 h 1 v -1 h 1 v 0 l 1,-1 v 0 h 1 v 0 h 1 v 0 -1 h 1 v -1 l 1,-1 v -1 l 1,-1 v -1 l 1,-1 v -1 l 1,-1 v -1 h 1 v 0 h 1 v 0 h 1 v 0 h 1 v 0 0 h 1 v -1 l 1,-1 v -1 l 1,-2 v -1 l 1,-1 v -1 l 1,-1 v -1 l 1,-1 v 0 h 1 v 0 h 1 v 0 0 h 1 v 0 l 1,-1 v 0 l 1,-1 v -1 l 1,-1 v -1 l 1,-1 v -1 l 1,-1 v -1 h 1 v -1 h 1 v 0 h 1 v 0 0 h 1 v -1 h 1 v 0 l 1,-1 v 0 l 1,-1 v 0 l 1,-1 v 0 l 1,-1 v 0 l 1,-1 v 0 l 1,-1 v 0 -1 h 1 v -1 h 1 v 0 l 1,-1 v 0 l 1,-1 v 0 h 1 v -1 h 1 v -1 h 1 v 0 l 1,-1 v 0 0 l 1,-1 v 0 h 1 v -1 h 1 v 0 l 1,-1 v 0 h 1 v -1 h 1 v -1 h 1 v -1 h 1 v 0 l 1,-1 v 0 0 l 1,-1 v 0 h 1 v -1 h 1 v 0 h 1 v -1 h 1 v 0 l 1,-1 v 0 h 1 v 0 l 1,-1 v 0 0 l 1,-1 v 0 h 1 v -1 h 1 v 0 h 1 v -1 h 1 v 0 h 1 v -1 h 1 v 0 h 1 v 0 l 1,-1 v 0 0 h 1 v 0 l 1,-1 v 0 h 1 v 0 h 1 v 0 l 1,-1 v 0 h 1 v 0 h 1 v -1 h 1 v 0 0 h 1 v -1 h 1 v 0 h 1 v 0 l 1,-1 v 0 h 1 v 0 h 1 v 0 l 1,-1 v 0 h 1 v 0 0 h 1 v 0 h 1 v 0 h 1 v 0 l 1,-1 v 0 h 1 v 0 h 1 v 0 h 1 v 0 h 1 v -1 h 1 v 0 0 h 1 v 0 h 1 v 0 h 1 v 0 l 1,-1 v 0 h 1 v 0 h 1 v 0 h 1 v 0 h 1 v 0 0 h 1 v -1 h 1 v 0 h 1 v 0 h 1 v 0 h 1 v 0 h 1 v 0 h 1 v 0 h 1 v 0 h 1 v 0 0 h 1 v 0 h 1 v 0 h 1 v 0 h 1 v 0 l 1,-1 v 0 h 1 v 0 h 1 v 0 h 1 v 1 0 h 1 v 0 h 1 v 0 h 1 v 0 h 1 v 0 l 1,-1 v 0 h 1 v 0 h 1 v 0 h 1 v 0 0 h 1 v 0 h 1 v 0 h 1 v 0 l 1,1 v 0 h 1 v 0 h 1 v 0 h 1 v 0 h 1 v 0 h 1 v 0 0 h 1 v 0 h 1 v 0 h 1 v 0 h 1 v 0 h 1 v 0 h 1 v 0 h 1 v 0 h 1 v 0 1 h 1 v 0 h 1 v 0 h 1 v 0 h 1 v 0 h 1 v 0 h 1 v 0 h 1 v 0 h 1 v 0 h 1 v 0 1 h 1 v 0 h 1 v 0 h 1 v 0 h 1 v 0 h 1 v 0 h 1 v 0 h 1 v 0 l 1,1 v 0 0 h 1 v 0 h 1 v 0 h 1 v 0 h 1 v 0 h 1 v 1 h 1 v 0 h 1 v 0 h 1 v 0 0 h 1 v 0 h 1 v 0 l 1,1 v 0 h 1 v 0 h 1 v 0 h 1 v 0 h 1 v 0 h 1 v 1 h 1 v 0 0 h 1 v 0 h 1 v 0 h 1 v 0 l 1,1 v 0 h 1 v 0 h 1 v 0 h 1 v 0 h 1 v 1 0 h 1 v 0 h 1 v 0 h 1 v 0 h 1 v 1 h 1 v 0 h 1 v 0 h 1 v 0 h 1 v 0 l 1,1 v 0 0 h 1 v 0 h 1 v 0 h 1 v 1 h 1 v 0 h 1 v 0 h 1 v 0 h 1 v 1 h 1 v 0 0 h 1 v 0 h 1 v 0 l 1,1 v 0 h 1 v 0 h 1 v 0 h 1 v 0 l 1,1 v 0 h 1 v 0 0 h 1 v 0 l 1,1 v 0 h 1 v 0 h 1 v 0 h 1 v 0 l 1,1 v 0 h 1 v 0 h 1 v 0 h 1 v 1 0 h 1 v 0 h 1 v 0 l 1,1 v 0 h 1 v 0 h 1 v 0 h 1 v 0 l 1,1 v 0 h 1 v 0 0 h 1 v 1 h 1 v 0 h 1 v 0 h 1 v 0 l 1,1 v 0 h 1 v 0 h 1 v 0 h 1 v 1 h 1 v 0 0 h 1 v 0 l 1,1 v 0 h 1 v 0 h 1 v 0 l 1,1 v 0 h 1 v 0 h 1 v 0 h 1 v 1 0 h 1 v 0 h 1 v 0 l 1,1 v 0 h 1 v 0 h 1 v 0 l 1,1 v 0 h 1 v 0 h 1 v 0 1 h 1 v 0 h 1 v 0 h 1 v 1 h 1 v 0 h 1 v 0 h 1 v 0 l 1,1 v 0 h 1 v 0 h 1 v 0 1 h 1 v 0 h 1 v 0 l 1,1 v 0 h 1 v 0 h 1 v 0 l 1,1 v 0 h 1 v 0 h 1 v 0 1 h 1 v 0 h 1 v 0 h 1 v 1 h 1 v 0 h 1 v 0 h 1 v 1 h 1 v 0 h 1 v 0 h 1 v 1 0 h 1 v 0 h 1 v 1 h 1 v 0 h 1 v 0 h 1 v 1 h 1 v 0 h 1 v 0 h 1 v 1 0 h 1 v 0 h 1 v 1 h 1 v 0 h 1 v 0 h 1 v 1 h 1 v 0 h 1 v 0 l 1,1 v 0 h 1 v 0 0 h 1 v 1 h 1 v 0 h 1 v 0 l 1,1 v 0 h 1 v 0 h 1 v 0 l 1,1 v 0 h 1 v 0 0 l 1,1 v 0 h 1 v 0 h 1 v 0 l 1,1 v 0 h 1 v 0 h 1 v 1 h 1 v 0 h 1 v 0 0 l 1,1 v 0 h 1 v 0 h 1 v 1 h 1 v 0 h 1 v 0 l 1,1 v 0 h 1 v 0 h 1 v 0 l 1,1 v 0 0 h 1 v 0 l 1,1 v 0 h 1 v 0 h 1 v 1 h 1 v 0 h 1 v 0 h 1 v 1 h 1 v 0 0 h 1 v 1 h 1 v 0 h 1 v 0 l 1,1 v 0 h 1 v 0 h 1 v 1 h 1 v 0 h 1 v 0 l 1,1 v 0"
         stroke="#ed7d31"
         stroke-width="2"
         stroke-linecap="round"
         stroke-linejoin="round"
         stroke-miterlimit="10"
         fill="none"
         id="path175" />
    </g>
    <g
       id="g181"
       transform="matrix(0.26458333,0,0,0.26458333,-203.94055,134.0957)"
       clip-path="url(#clipPath948)">
      <path
         d="m 682,269 1,5 v 5 4 l 1,5 v 4 l 1,5 v 4 l 1,5 v 4 l 1,-3 v -3 l 1,-3 v -4 l 1,-3 v -4 l 1,-3 v -3 l 1,-4 v 3 4 l 1,3 v 4 l 1,3 v 4 l 1,3 v 3 l 1,4 v -1 l 1,-1 v -2 l 1,-1 v -1 l 1,-2 v -1 l 1,-2 v -1 h 1 v 1 1 l 1,1 v 1 l 1,1 v 0 l 1,1 v 1 h 1 v 0 l 1,-1 v 0 l 1,-1 v 0 h 1 v -1 h 1 v -1 -1 l 1,-1 v -1 l 1,-1 v 0 l 1,-1 v -1 l 1,-1 v 0 l 1,1 v 1 l 1,1 v 1 l 1,1 v 1 l 1,1 v 1 l 1,1 v -1 0 h 1 v 0 l 1,-1 v 0 h 1 v 0 l 1,-1 v -2 l 1,-2 v -2 l 1,-2 v -2 l 1,-2 v -2 l 1,-2 v -2 2 l 1,3 v 2 l 1,2 v 2 l 1,3 v 2 l 1,2 v 2 l 1,-3 v -4 l 1,-5 v -5 l 1,-5 v -4 l 1,-5 v -5 -5 h 1 v 3 l 1,3 v 4 l 1,3 v 3 l 1,4 v 3 l 1,3 v 1 l 1,-5 v -6 l 1,-6 v -5 l 1,-6 v -6 l 1,-5 v -6 -5 l 1,1 v 2 l 1,2 v 2 l 1,2 v 2 l 1,1 v 2 l 1,2 v -3 l 1,-4 v -4 l 1,-5 v -4 l 1,-4 v -4 -5 l 1,-4 v -2 h 1 v 0 h 1 v 0 h 1 v 1 h 1 v 0 l 1,-1 v -1 l 1,-2 v -2 l 1,-2 v -2 l 1,-2 v -2 -1 l 1,-2 v -1 l 1,-1 v -1 l 1,-1 v -1 l 1,-1 v -1 l 1,-1 v -1 l 1,-1 v -1 l 1,-1 v -1 l 1,-1 v -1 0 l 1,-1 v -1 l 1,-1 v 0 l 1,-1 v 0 l 1,-1 v -1 h 1 v -1 h 1 v -1 h 1 v 0 h 1 v -1 0 h 1 v 0 l 1,-1 v 0 h 1 v 0 l 1,-1 v 0 h 1 v 0 h 1 v -1 h 1 v 0 l 1,-1 v 0 h 1 v -1 0 l 1,-1 v 0 l 1,-1 v 0 l 1,-1 v -1 l 1,-1 v 0 l 1,-1 v -1 l 1,-1 v -1 l 1,-1 v 0 l 1,-1 v -1 0 l 1,-1 v -1 h 1 v -1 l 1,-1 v 0 l 1,-1 v 0 l 1,-1 v -1 h 1 v -1 h 1 v -1 h 1 v -1 l 1,-1 v 0 -1 l 1,-1 v 0 l 1,-1 v -1 h 1 v -1 h 1 v -1 l 1,-1 v 0 l 1,-1 v 0 l 1,-1 v 0 l 1,-1 v -1 0 l 1,-1 v 0 l 1,-1 v -1 h 1 v -1 h 1 v -1 h 1 v -1 l 1,-1 v 0 l 1,-1 v -1 h 1 v -1 0 l 1,-1 v -1 h 1 v -1 l 1,-1 v 0 l 1,-1 v -1 h 1 v -1 l 1,-1 v 0 l 1,-1 v -1 h 1 v -1 l 1,-1 v 0 -1 l 1,-1 v 0 l 1,-1 v 0 l 1,-1 v 0 l 1,-1 v 0 l 1,-1 v 0 l 1,-1 v -1 h 1 v -1 l 1,-1 v 0 -1 l 1,-1 v 0 l 1,-1 v 0 l 1,-1 v 0 l 1,-1 v -1 h 1 v -1 h 1 v -1 h 1 v -1 l 1,-1 v 0 l 1,-1 v 0 -1 l 1,-1 v 0 l 1,-1 v -1 h 1 v -1 h 1 v -1 h 1 v -1 h 1 v -1 l 1,-1 v 0 l 1,-1 v 0 -1 h 1 v -1 h 1 v -1 h 1 v -1 h 1 v -1 h 1 v 0 l 1,-1 v 0 l 1,-1 v 0 h 1 v -1 0 l 1,-1 v 0 h 1 v -1 h 1 v -1 h 1 v -1 h 1 v 0 h 1 v -1 h 1 v 0 h 1 v -1 h 1 v 0 -1 h 1 v 0 l 1,-1 v 0 h 1 v 0 l 1,-1 v 0 h 1 v -1 h 1 v 0 h 1 v 0 l 1,-1 v 0 0 h 1 v 0 l 1,-1 v 0 h 1 v 0 h 1 v 0 l 1,-1 v 0 h 1 v 0 h 1 v -1 h 1 v 0 h 1 v 0 0 l 1,-1 v 0 h 1 v 0 h 1 v -1 h 1 v 0 h 1 v 0 h 1 v -1 h 1 v 0 h 1 v 0 0 h 1 v 0 h 1 v 0 h 1 v 0 h 1 v -1 h 1 v 0 h 1 v 0 h 1 v 0 l 1,-1 v 0 0 h 1 v 0 h 1 v 0 h 1 v 0 h 1 v 0 l 1,-1 v 0 h 1 v 0 h 1 v 0 h 1 v 0 h 1 v 0 0 h 1 v 0 h 1 v 0 l 1,-1 v 0 h 1 v 0 h 1 v 0 h 1 v 0 h 1 v 0 h 1 v 0 0 h 1 v 0 l 1,-1 v 0 h 1 v 0 h 1 v 0 h 1 v 0 h 1 v 0 h 1 v 0 h 1 v 0 h 1 v 0 0 h 1 v 0 h 1 v 0 h 1 v 0 h 1 v 0 h 1 v 0 h 1 v 0 h 1 v 0 h 1 v 0 -1 h 1 v 0 h 1 v 0 h 1 v 0 h 1 v 0 h 1 v 0 h 1 v 1 h 1 v 0 h 1 v 0 0 h 1 v 0 h 1 v 0 h 1 v 0 h 1 v -1 l 1,1 v 0 h 1 v 0 h 1 v 0 h 1 v 0 h 1 v 0 0 h 1 v 0 h 1 v 0 h 1 v 0 h 1 v 0 h 1 v 0 h 1 v 0 h 1 v 0 h 1 v 0 0 l 1,1 v 0 h 1 v 0 h 1 v 0 h 1 v 0 h 1 v 0 h 1 v 0 h 1 v 0 h 1 v 0 h 1 v 0 0 l 1,1 v 0 h 1 v 0 h 1 v 0 h 1 v 0 h 1 v 0 h 1 v 0 h 1 v 0 h 1 v 0 1 h 1 v 0 h 1 v 0 h 1 v 0 h 1 v 0 h 1 v 0 h 1 v 1 h 1 v 0 h 1 v 0 0 h 1 v 0 h 1 v 0 h 1 v 0 l 1,1 v 0 h 1 v 0 h 1 v 0 h 1 v 0 h 1 v 0 l 1,1 v 0 0 h 1 v 0 h 1 v 0 h 1 v 0 h 1 v 1 h 1 v 0 h 1 v 0 h 1 v 0 h 1 v 0 1 h 1 v 0 h 1 v 0 h 1 v 0 h 1 v 0 l 1,1 v 0 h 1 v 0 h 1 v 0 h 1 v 0 l 1,1 v 0 0 h 1 v 0 h 1 v 0 h 1 v 0 l 1,1 v 0 h 1 v 0 h 1 v 0 h 1 v 0 l 1,1 v 0 0 h 1 v 0 h 1 v 0 h 1 v 1 h 1 v 0 h 1 v 0 h 1 v 0 l 1,1 v 0 h 1 v 0 0 h 1 v 0 h 1 v 1 h 1 v 0 h 1 v 0 h 1 v 0 l 1,1 v 0 h 1 v 0 h 1 v 0 h 1 v 1 0 h 1 v 0 h 1 v 0 h 1 v 1 h 1 v 0 h 1 v 0 h 1 v 0 l 1,1 v 0 h 1 v 0 0 h 1 v 0 l 1,1 v 0 h 1 v 0 h 1 v 0 l 1,1 v 0 h 1 v 0 h 1 v 0 h 1 v 1 h 1 v 0 0 h 1 v 0 l 1,1 v 0 h 1 v 0 h 1 v 0 h 1 v 1 h 1 v 0 h 1 v 0 h 1 v 1 0 h 1 v 0 h 1 v 0 l 1,1 v 0 h 1 v 0 h 1 v 0 l 1,1 v 0 h 1 v 0 h 1 v 0 0 l 1,1 v 0 h 1 v 0 h 1 v 0 l 1,1 v 0 h 1 v 0 h 1 v 0 l 1,1 v 0 h 1 v 0 h 1 v 0 1 h 1 v 0 h 1 v 0 h 1 v 1 h 1 v 0 h 1 v 0 h 1 v 1 h 1 v 0 h 1 v 0 1 h 1 v 0 h 1 v 0 h 1 v 1 h 1 v 0 h 1 v 0 h 1 v 1 h 1 v 0 h 1 v 0 h 1 v 1 0 h 1 v 0 h 1 v 1 h 1 v 0 h 1 v 0 h 1 v 1 h 1 v 0 h 1 v 0 h 1 v 1 0 h 1 v 0 h 1 v 1 h 1 v 0 h 1 v 0 h 1 v 1 h 1 v 0 h 1 v 0 l 1,1 v 0 h 1 v 0 0 h 1 v 1 h 1 v 0 h 1 v 0 l 1,1 v 0 h 1 v 0 h 1 v 0 l 1,1 v 0 h 1 v 0 0 l 1,1 v 0 h 1 v 0 h 1 v 0 l 1,1 v 0 h 1 v 0 h 1 v 1 h 1 v 0 h 1 v 0 0 l 1,1 v 0 h 1 v 0 h 1 v 1 h 1 v 0 h 1 v 0 l 1,1 v 0 h 1 v 0 h 1 v 0 l 1,1 v 0 0 h 1 v 0 l 1,1 v 0 h 1 v 0 h 1 v 1 h 1 v 0 h 1 v 0 h 1 v 1 h 1 v 0 0 h 1 v 1 h 1 v 0 h 1 v 0 l 1,1 v 0 h 1 v 0 h 1 v 1 h 1 v 0 h 1 v 0 h 1 v 1"
         stroke="#ed7d31"
         stroke-width="2"
         stroke-linecap="round"
         stroke-linejoin="round"
         stroke-miterlimit="10"
         stroke-dasharray="4, 4"
         fill="none"
         id="path179" />
    </g>
    <g
       id="g257"
       transform="matrix(0.26458333,0,0,0.26458333,-203.94055,134.0957)"
       clip-path="url(#clipPath942)">
      <path
         d="m 686.385,287 -7,-7 m 0,7 7,-7"
         stroke="#000000"
         stroke-linejoin="round"
         stroke-miterlimit="10"
         fill="none"
         id="path183" />
      <path
         d="m 702.385,287 -7,-7 m 0,7 7,-7"
         stroke="#000000"
         stroke-linejoin="round"
         stroke-miterlimit="10"
         fill="none"
         id="path185" />
      <path
         d="m 715.385,284 -7,-7 m 0,7 7,-7"
         stroke="#000000"
         stroke-linejoin="round"
         stroke-miterlimit="10"
         fill="none"
         id="path187" />
      <path
         d="m 729.385,278 -7,-7 m 0,7 7,-7"
         stroke="#000000"
         stroke-linejoin="round"
         stroke-miterlimit="10"
         fill="none"
         id="path189" />
      <path
         d="m 743.385,267 -7,-7 m 0,7 7,-7"
         stroke="#000000"
         stroke-linejoin="round"
         stroke-miterlimit="10"
         fill="none"
         id="path191" />
      <path
         d="m 751.385,257 -7,-7 m 0,7 7,-7"
         stroke="#000000"
         stroke-linejoin="round"
         stroke-miterlimit="10"
         fill="none"
         id="path193" />
      <path
         d="m 760.385,245 -7,-7 m 0,7 7,-7"
         stroke="#000000"
         stroke-linejoin="round"
         stroke-miterlimit="10"
         fill="none"
         id="path195" />
      <path
         d="m 768.385,228 -7,-7 m 0,7 7,-7"
         stroke="#000000"
         stroke-linejoin="round"
         stroke-miterlimit="10"
         fill="none"
         id="path197" />
      <path
         d="m 771.385,213 -7,-7 m 0,7 7,-7"
         stroke="#000000"
         stroke-linejoin="round"
         stroke-miterlimit="10"
         fill="none"
         id="path199" />
      <path
         d="m 775.385,197 -7,-7 m 0,7 7,-7"
         stroke="#000000"
         stroke-linejoin="round"
         stroke-miterlimit="10"
         fill="none"
         id="path201" />
      <path
         d="m 779.385,176 -7,-7 m 0,7 7,-7"
         stroke="#000000"
         stroke-linejoin="round"
         stroke-miterlimit="10"
         fill="none"
         id="path203" />
      <path
         d="m 782.385,147 -7,-7 m 0,7 7,-7"
         stroke="#000000"
         stroke-linejoin="round"
         stroke-miterlimit="10"
         fill="none"
         id="path205" />
      <path
         d="m 785.385,131 -7,-7 m 0,7 7,-7"
         stroke="#000000"
         stroke-linejoin="round"
         stroke-miterlimit="10"
         fill="none"
         id="path207" />
      <path
         d="m 788.385,118 -7,-7 m 0,7 7,-7"
         stroke="#000000"
         stroke-linejoin="round"
         stroke-miterlimit="10"
         fill="none"
         id="path209" />
      <path
         d="m 791.385,109 -7,-7 m 0,7 7,-7"
         stroke="#000000"
         stroke-linejoin="round"
         stroke-miterlimit="10"
         fill="none"
         id="path211" />
      <path
         d="m 794.385,102 -7,-7 m 0,7 7,-7"
         stroke="#000000"
         stroke-linejoin="round"
         stroke-miterlimit="10"
         fill="none"
         id="path213" />
      <path
         d="m 798.385,101 -7,-7 m 0,7 7,-7"
         stroke="#000000"
         stroke-linejoin="round"
         stroke-miterlimit="10"
         fill="none"
         id="path215" />
      <path
         d="m 801.385,106 -7,-7 m 0,7 7,-7"
         stroke="#000000"
         stroke-linejoin="round"
         stroke-miterlimit="10"
         fill="none"
         id="path217" />
      <path
         d="m 808.385,113 -7,-7 m 0,7 7,-7"
         stroke="#000000"
         stroke-linejoin="round"
         stroke-miterlimit="10"
         fill="none"
         id="path219" />
      <path
         d="m 816.385,119 -7,-7 m 0,7 7,-7"
         stroke="#000000"
         stroke-linejoin="round"
         stroke-miterlimit="10"
         fill="none"
         id="path221" />
      <path
         d="m 823.385,120 -7,-7 m 0,7 7,-7"
         stroke="#000000"
         stroke-linejoin="round"
         stroke-miterlimit="10"
         fill="none"
         id="path223" />
      <path
         d="m 837.385,111 -7,-7 m 0,7 7,-7"
         stroke="#000000"
         stroke-linejoin="round"
         stroke-miterlimit="10"
         fill="none"
         id="path225" />
      <path
         d="m 855.385,96 -7,-7 m 0,7 7,-7"
         stroke="#000000"
         stroke-linejoin="round"
         stroke-miterlimit="10"
         fill="none"
         id="path227" />
      <path
         d="m 866.385,85 -7,-7 m 0,7 7,-7"
         stroke="#000000"
         stroke-linejoin="round"
         stroke-miterlimit="10"
         fill="none"
         id="path229" />
      <path
         d="m 880.385,74 -7,-7 m 0,7 7,-7"
         stroke="#000000"
         stroke-linejoin="round"
         stroke-miterlimit="10"
         fill="none"
         id="path231" />
      <path
         d="m 892.385,66 -7,-7 m 0,7 7,-7"
         stroke="#000000"
         stroke-linejoin="round"
         stroke-miterlimit="10"
         fill="none"
         id="path233" />
      <path
         d="m 906.385,61 -7,-7 m 0,7 7,-7"
         stroke="#000000"
         stroke-linejoin="round"
         stroke-miterlimit="10"
         fill="none"
         id="path235" />
      <path
         d="m 921.385,57 -7,-7 m 0,7 7,-7"
         stroke="#000000"
         stroke-linejoin="round"
         stroke-miterlimit="10"
         fill="none"
         id="path237" />
      <path
         d="m 940.385,55 -7,-7 m 0,7 7,-7"
         stroke="#000000"
         stroke-linejoin="round"
         stroke-miterlimit="10"
         fill="none"
         id="path239" />
      <path
         d="m 961.385,57 -7,-7 m 0,7 7,-7"
         stroke="#000000"
         stroke-linejoin="round"
         stroke-miterlimit="10"
         fill="none"
         id="path241" />
      <path
         d="m 986.385,61 -7,-7 m 0,7 7,-7"
         stroke="#000000"
         stroke-linejoin="round"
         stroke-miterlimit="10"
         fill="none"
         id="path243" />
      <path
         d="m 1010.38,66 -7,-7 m 0,7 7,-7"
         stroke="#000000"
         stroke-linejoin="round"
         stroke-miterlimit="10"
         fill="none"
         id="path245" />
      <path
         d="m 1039.38,74 -7,-7 m 0,7 7,-7"
         stroke="#000000"
         stroke-linejoin="round"
         stroke-miterlimit="10"
         fill="none"
         id="path247" />
      <path
         d="m 1067.38,83 -7,-7 m 0,7 7,-7"
         stroke="#000000"
         stroke-linejoin="round"
         stroke-miterlimit="10"
         fill="none"
         id="path249" />
      <path
         d="m 1087.38,89 -7,-7 m 0,7 7,-7"
         stroke="#000000"
         stroke-linejoin="round"
         stroke-miterlimit="10"
         fill="none"
         id="path251" />
      <path
         d="m 1114.38,100 -7,-7 m 0,7 7,-7"
         stroke="#000000"
         stroke-linejoin="round"
         stroke-miterlimit="10"
         fill="none"
         id="path253" />
      <path
         d="m 1138.38,108 -7,-7 m 0,7 7,-7"
         stroke="#000000"
         stroke-linejoin="round"
         stroke-miterlimit="10"
         fill="none"
         id="path255" />
    </g>
    <g
       id="g319"
       transform="matrix(0.26458333,0,0,0.26458333,-203.94055,134.0957)"
       clip-path="url(#clipPath936)">
      <path
         d="m 681.885,263.5 h 6 v 6 h -6 z"
         stroke="#000000"
         stroke-linejoin="round"
         stroke-miterlimit="10"
         fill="none"
         id="path259" />
      <path
         d="m 685.885,269.5 h 6 v 6 h -6 z"
         stroke="#000000"
         stroke-linejoin="round"
         stroke-miterlimit="10"
         fill="none"
         id="path261" />
      <path
         d="m 687.885,279.5 h 6 v 6 h -6 z"
         stroke="#000000"
         stroke-linejoin="round"
         stroke-miterlimit="10"
         fill="none"
         id="path263" />
      <path
         d="m 695.885,280.5 h 6 v 6 h -6 z"
         stroke="#000000"
         stroke-linejoin="round"
         stroke-miterlimit="10"
         fill="none"
         id="path265" />
      <path
         d="m 713.885,275.5 h 6 v 6 h -6 z"
         stroke="#000000"
         stroke-linejoin="round"
         stroke-miterlimit="10"
         fill="none"
         id="path267" />
      <path
         d="m 724.885,267.5 h 6 v 6 h -6 z"
         stroke="#000000"
         stroke-linejoin="round"
         stroke-miterlimit="10"
         fill="none"
         id="path269" />
      <path
         d="m 733.885,254.5 h 6 v 6 h -6 z"
         stroke="#000000"
         stroke-linejoin="round"
         stroke-miterlimit="10"
         fill="none"
         id="path271" />
      <path
         d="m 739.885,241.5 h 6 v 6 h -6 z"
         stroke="#000000"
         stroke-linejoin="round"
         stroke-miterlimit="10"
         fill="none"
         id="path273" />
      <path
         d="m 747.885,222.5 h 6 v 6 h -6 z"
         stroke="#000000"
         stroke-linejoin="round"
         stroke-miterlimit="10"
         fill="none"
         id="path275" />
      <path
         d="m 755.885,200.5 h 6 v 6 h -6 z"
         stroke="#000000"
         stroke-linejoin="round"
         stroke-miterlimit="10"
         fill="none"
         id="path277" />
      <path
         d="m 761.885,185.5 h 6 v 6 h -6 z"
         stroke="#000000"
         stroke-linejoin="round"
         stroke-miterlimit="10"
         fill="none"
         id="path279" />
      <path
         d="m 767.885,173.5 h 6 v 6 h -6 z"
         stroke="#000000"
         stroke-linejoin="round"
         stroke-miterlimit="10"
         fill="none"
         id="path281" />
      <path
         d="m 774.885,160.5 h 6 v 6 h -6 z"
         stroke="#000000"
         stroke-linejoin="round"
         stroke-miterlimit="10"
         fill="none"
         id="path283" />
      <path
         d="m 783.885,149.5 h 6 v 6 h -6 z"
         stroke="#000000"
         stroke-linejoin="round"
         stroke-miterlimit="10"
         fill="none"
         id="path285" />
      <path
         d="m 795.885,139.5 h 6 v 6 h -6 z"
         stroke="#000000"
         stroke-linejoin="round"
         stroke-miterlimit="10"
         fill="none"
         id="path287" />
      <path
         d="m 807.885,131.5 h 6 v 6 h -6 z"
         stroke="#000000"
         stroke-linejoin="round"
         stroke-miterlimit="10"
         fill="none"
         id="path289" />
      <path
         d="m 818.885,120.5 h 6 v 6 h -6 z"
         stroke="#000000"
         stroke-linejoin="round"
         stroke-miterlimit="10"
         fill="none"
         id="path291" />
      <path
         d="m 830.885,103.5 h 6 v 6 h -6 z"
         stroke="#000000"
         stroke-linejoin="round"
         stroke-miterlimit="10"
         fill="none"
         id="path293" />
      <path
         d="m 843.885,89.5001 h 6 v 5.9998 h -6 z"
         stroke="#000000"
         stroke-linejoin="round"
         stroke-miterlimit="10"
         fill="none"
         id="path295" />
      <path
         d="m 857.885,75.5001 h 6 v 5.9998 h -6 z"
         stroke="#000000"
         stroke-linejoin="round"
         stroke-miterlimit="10"
         fill="none"
         id="path297" />
      <path
         d="m 869.885,64.5001 h 6 v 5.9998 h -6 z"
         stroke="#000000"
         stroke-linejoin="round"
         stroke-miterlimit="10"
         fill="none"
         id="path299" />
      <path
         d="m 889.885,55.5001 h 6 v 5.9998 h -6 z"
         stroke="#000000"
         stroke-linejoin="round"
         stroke-miterlimit="10"
         fill="none"
         id="path301" />
      <path
         d="m 912.885,50.5001 h 6 v 5.9998 h -6 z"
         stroke="#000000"
         stroke-linejoin="round"
         stroke-miterlimit="10"
         fill="none"
         id="path303" />
      <path
         d="m 932.885,49.5001 h 6 v 5.9998 h -6 z"
         stroke="#000000"
         stroke-linejoin="round"
         stroke-miterlimit="10"
         fill="none"
         id="path305" />
      <path
         d="m 960.885,50.5001 h 6 v 5.9998 h -6 z"
         stroke="#000000"
         stroke-linejoin="round"
         stroke-miterlimit="10"
         fill="none"
         id="path307" />
      <path
         d="m 989.885,55.5001 h 6 v 5.9998 h -6 z"
         stroke="#000000"
         stroke-linejoin="round"
         stroke-miterlimit="10"
         fill="none"
         id="path309" />
      <path
         d="m 1028.88,65.5001 h 6 v 5.9998 h -6 z"
         stroke="#000000"
         stroke-linejoin="round"
         stroke-miterlimit="10"
         fill="none"
         id="path311" />
      <path
         d="m 1063.88,77.5001 h 6 v 5.9998 h -6 z"
         stroke="#000000"
         stroke-linejoin="round"
         stroke-miterlimit="10"
         fill="none"
         id="path313" />
      <path
         d="m 1095.88,89.5001 h 6 v 5.9998 h -6 z"
         stroke="#000000"
         stroke-linejoin="round"
         stroke-miterlimit="10"
         fill="none"
         id="path315" />
      <path
         d="m 1126.88,98.5001 h 6 V 104.5 h -6 z"
         stroke="#000000"
         stroke-linejoin="round"
         stroke-miterlimit="10"
         fill="none"
         id="path317" />
    </g>
    <g
       id="g323"
       transform="matrix(0.26458333,0,0,0.26458333,-203.94055,134.0957)">
      <text
         font-family="Arial, Arial_MSFontService, sans-serif"
         font-weight="400"
         font-size="12px"
         transform="translate(644.385,316)"
         id="text321">-0.20</text>
    </g>
    <g
       id="g327"
       transform="matrix(0.26458333,0,0,0.26458333,-203.94055,134.0957)">
      <text
         font-family="Arial, Arial_MSFontService, sans-serif"
         font-weight="400"
         font-size="12px"
         transform="translate(644.385,266)"
         id="text325">-0.15</text>
    </g>
    <g
       id="g331"
       transform="matrix(0.26458333,0,0,0.26458333,-203.94055,134.0957)">
      <text
         font-family="Arial, Arial_MSFontService, sans-serif"
         font-weight="400"
         font-size="12px"
         transform="translate(644.385,217)"
         id="text329">-0.10</text>
    </g>
    <g
       id="g335"
       transform="matrix(0.26458333,0,0,0.26458333,-203.94055,134.0957)">
      <text
         font-family="Arial, Arial_MSFontService, sans-serif"
         font-weight="400"
         font-size="12px"
         transform="translate(644.385,167)"
         id="text333">-0.05</text>
    </g>
    <g
       id="g339"
       transform="matrix(0.26458333,0,0,0.26458333,-203.94055,134.0957)">
      <text
         font-family="Arial, Arial_MSFontService, sans-serif"
         font-weight="400"
         font-size="12px"
         transform="translate(648.378,118)"
         id="text337">0.00</text>
    </g>
    <g
       id="g343"
       transform="matrix(0.26458333,0,0,0.26458333,-203.94055,134.0957)">
      <text
         font-family="Arial, Arial_MSFontService, sans-serif"
         font-weight="400"
         font-size="12px"
         transform="translate(648.378,68)"
         id="text341">0.05</text>
    </g>
    <g
       id="g347"
       transform="matrix(0.26458333,0,0,0.26458333,-203.94055,134.0957)">
      <text
         font-family="Arial, Arial_MSFontService, sans-serif"
         font-weight="400"
         font-size="12px"
         transform="translate(648.378,19)"
         id="text345">0.10</text>
    </g>
    <g
       id="g351"
       transform="matrix(0.26458333,0,0,0.26458333,-203.94055,134.0957)">
      <text
         font-family="Arial, Arial_MSFontService, sans-serif"
         font-weight="400"
         font-size="12px"
         transform="translate(678.715,132)"
         id="text349">0</text>
    </g>
    <g
       id="g355"
       transform="matrix(0.26458333,0,0,0.26458333,-203.94055,134.0957)">
      <text
         font-family="Arial, Arial_MSFontService, sans-serif"
         font-weight="400"
         font-size="12px"
         transform="translate(761.182,132)"
         id="text353">10</text>
    </g>
    <g
       id="g359"
       transform="matrix(0.26458333,0,0,0.26458333,-203.94055,134.0957)">
      <text
         font-family="Arial, Arial_MSFontService, sans-serif"
         font-weight="400"
         font-size="12px"
         transform="translate(846.986,132)"
         id="text357">20</text>
    </g>
    <g
       id="g363"
       transform="matrix(0.26458333,0,0,0.26458333,-203.94055,134.0957)">
      <text
         font-family="Arial, Arial_MSFontService, sans-serif"
         font-weight="400"
         font-size="12px"
         transform="translate(932.79,132)"
         id="text361">30</text>
    </g>
    <g
       id="g367"
       transform="matrix(0.26458333,0,0,0.26458333,-203.94055,134.0957)">
      <text
         font-family="Arial, Arial_MSFontService, sans-serif"
         font-weight="400"
         font-size="12px"
         transform="translate(1018.59,132)"
         id="text365">40</text>
    </g>
    <g
       id="g371"
       transform="matrix(0.26458333,0,0,0.26458333,-203.94055,134.0957)">
      <text
         font-family="Arial, Arial_MSFontService, sans-serif"
         font-weight="400"
         font-size="12px"
         transform="translate(1104.4,132)"
         id="text369">50</text>
    </g>
    <g
       id="g375"
       transform="matrix(0.26458333,0,0,0.26458333,-203.94055,134.0957)">
      <text
         font-family="Arial, Arial_MSFontService, sans-serif"
         font-weight="400"
         font-size="13px"
         transform="rotate(-90,413.0255,-225.0255)"
         id="text373">Pressão</text>
    </g>
    <g
       id="g379"
       transform="matrix(0.26458333,0,0,0.26458333,-203.94055,134.0957)">
      <text
         font-family="Cambria, Cambria_MSFontService, sans-serif"
         font-style="italic"
         font-weight="400"
         font-size="13px"
         transform="translate(912.549,327)"
         id="text377">x</text>
    </g>
    <g
       id="g383"
       transform="matrix(0.26458333,0,0,0.26458333,-203.94055,134.0957)">
      <text
         font-family="Arial, Arial_MSFontService, sans-serif"
         font-weight="400"
         font-size="9px"
         transform="translate(918.536,329)"
         id="text381">1</text>
    </g>
    <g
       id="g387"
       transform="matrix(0.26458333,0,0,0.26458333,-203.94055,134.0957)"
       clip-path="url(#clipPath930)">
      <path
         d="m 720.5,360.5 -7,-7 m 0,7 7,-7"
         stroke="#000000"
         stroke-linejoin="round"
         stroke-miterlimit="10"
         fill="none"
         id="path385" />
    </g>
    <g
       id="g391"
       transform="matrix(0.26458333,0,0,0.26458333,-203.94055,134.0957)">
      <text
         font-family="Arial, Arial_MSFontService, sans-serif"
         font-weight="400"
         font-size="12px"
         transform="translate(736.928,361)"
         id="text389">Chiang, Sheu (1998) - Fundo</text>
    </g>
    <g
       id="g395"
       transform="matrix(0.26458333,0,0,0.26458333,-203.94055,134.0957)"
       clip-path="url(#clipPath924)">
      <path
         d="m 910.5,353.5 h 6 v 6 h -6 z"
         stroke="#000000"
         stroke-linejoin="round"
         stroke-miterlimit="10"
         fill="none"
         id="path393" />
    </g>
    <g
       id="g399"
       transform="matrix(0.26458333,0,0,0.26458333,-203.94055,134.0957)">
      <text
         font-family="Arial, Arial_MSFontService, sans-serif"
         font-weight="400"
         font-size="12px"
         transform="translate(934.349,361)"
         id="text397">Chiang, Sheu (1998) - Topo</text>
    </g>
    <g
       id="g403"
       transform="matrix(0.26458333,0,0,0.26458333,-203.94055,134.0957)"
       clip-path="url(#clipPath918)">
      <path
         d="m 700,378 h 33"
         stroke="#4472c4"
         stroke-width="2"
         stroke-linecap="round"
         stroke-linejoin="round"
         stroke-miterlimit="10"
         fill="none"
         fill-rule="evenodd"
         id="path401" />
    </g>
    <g
       id="g407"
       transform="matrix(0.26458333,0,0,0.26458333,-203.94055,134.0957)">
      <text
         font-family="Arial, Arial_MSFontService, sans-serif"
         font-weight="400"
         font-size="12px"
         transform="translate(736.928,382)"
         id="text405">Qua - Fundo</text>
    </g>
    <g
       id="g411"
       transform="matrix(0.26458333,0,0,0.26458333,-203.94055,134.0957)"
       clip-path="url(#clipPath912)">
      <path
         d="m 897,378 h 34"
         stroke="#4472c4"
         stroke-width="2"
         stroke-linecap="round"
         stroke-linejoin="round"
         stroke-miterlimit="10"
         stroke-dasharray="4, 4"
         fill="none"
         fill-rule="evenodd"
         id="path409" />
    </g>
    <g
       id="g415"
       transform="matrix(0.26458333,0,0,0.26458333,-203.94055,134.0957)">
      <text
         font-family="Arial, Arial_MSFontService, sans-serif"
         font-weight="400"
         font-size="12px"
         transform="translate(934.349,382)"
         id="text413">Qua - Topo</text>
    </g>
    <g
       id="g419"
       transform="matrix(0.26458333,0,0,0.26458333,-203.94055,134.0957)"
       clip-path="url(#clipPath906)">
      <path
         d="m 700,399 h 33"
         stroke="#ed7d31"
         stroke-width="2"
         stroke-linecap="round"
         stroke-linejoin="round"
         stroke-miterlimit="10"
         fill="none"
         fill-rule="evenodd"
         id="path417" />
    </g>
    <g
       id="g423"
       transform="matrix(0.26458333,0,0,0.26458333,-203.94055,134.0957)">
      <text
         font-family="Arial, Arial_MSFontService, sans-serif"
         font-weight="400"
         font-size="12px"
         transform="translate(736.928,403)"
         id="text421">P2P1 - Fundo</text>
    </g>
    <g
       id="g427"
       transform="matrix(0.26458333,0,0,0.26458333,-203.94055,134.0957)"
       clip-path="url(#clipPath900)">
      <path
         d="m 897,399 h 34"
         stroke="#ed7d31"
         stroke-width="2"
         stroke-linecap="round"
         stroke-linejoin="round"
         stroke-miterlimit="10"
         stroke-dasharray="4, 4"
         fill="none"
         fill-rule="evenodd"
         id="path425" />
    </g>
    <g
       id="g431"
       transform="matrix(0.26458333,0,0,0.26458333,-203.94055,134.0957)">
      <text
         font-family="Arial, Arial_MSFontService, sans-serif"
         font-weight="400"
         font-size="12px"
         transform="translate(934.349,403)"
         id="text429">P2P1 - Topo</text>
    </g>
  </g>
</svg>
