<?xml version="1.0" encoding="UTF-8" standalone="no"?>
<!-- Created with Inkscape (http://www.inkscape.org/) -->

<svg
   width="165.09157mm"
   height="99.219162mm"
   viewBox="0 0 165.09157 99.219162"
   version="1.1"
   id="svg1739"
   sodipodi:docname="deslocamento.svg"
   inkscape:version="1.2.1 (9c6d41e410, 2022-07-14)"
   xmlns:inkscape="http://www.inkscape.org/namespaces/inkscape"
   xmlns:sodipodi="http://sodipodi.sourceforge.net/DTD/sodipodi-0.dtd"
   xmlns="http://www.w3.org/2000/svg"
   xmlns:svg="http://www.w3.org/2000/svg">
  <sodipodi:namedview
     id="namedview1741"
     pagecolor="#ffffff"
     bordercolor="#000000"
     borderopacity="0.25"
     inkscape:showpageshadow="2"
     inkscape:pageopacity="0.0"
     inkscape:pagecheckerboard="0"
     inkscape:deskcolor="#d1d1d1"
     inkscape:document-units="mm"
     showgrid="false"
     inkscape:zoom="1.4912879"
     inkscape:cx="238.71984"
     inkscape:cy="204.52121"
     inkscape:window-width="1920"
     inkscape:window-height="1017"
     inkscape:window-x="1912"
     inkscape:window-y="-8"
     inkscape:window-maximized="1"
     inkscape:current-layer="layer1" />
  <defs
     id="defs1736">
    <clipPath
       clipPathUnits="userSpaceOnUse"
       id="clipPath2122">
      <g
         id="g2126"
         transform="matrix(3.7795276,0,0,3.7795276,440.38761,-481.22023)">
        <rect
           x="-13.860888"
           y="127.32285"
           width="174.625"
           height="99.48333"
           id="rect2124"
           style="stroke-width:0.264583" />
      </g>
    </clipPath>
    <clipPath
       clipPathUnits="userSpaceOnUse"
       id="clipPath2128">
      <g
         id="g2132"
         transform="matrix(3.7795276,0,0,3.7795276,440.38761,-481.22023)">
        <rect
           x="-13.860888"
           y="127.32285"
           width="174.625"
           height="99.48333"
           id="rect2130"
           style="stroke-width:0.264583" />
      </g>
    </clipPath>
    <clipPath
       clipPathUnits="userSpaceOnUse"
       id="clipPath2134">
      <g
         id="g2138"
         transform="matrix(3.7795276,0,0,3.7795276,440.38761,-481.22023)">
        <rect
           x="-13.860888"
           y="127.32285"
           width="174.625"
           height="99.48333"
           id="rect2136"
           style="stroke-width:0.264583" />
      </g>
    </clipPath>
    <clipPath
       clipPathUnits="userSpaceOnUse"
       id="clipPath2140">
      <g
         id="g2144"
         transform="matrix(3.7795276,0,0,3.7795276,440.38761,-481.22023)">
        <rect
           x="-13.860888"
           y="127.32285"
           width="174.625"
           height="99.48333"
           id="rect2142"
           style="stroke-width:0.264583" />
      </g>
    </clipPath>
    <clipPath
       clipPathUnits="userSpaceOnUse"
       id="clipPath2146">
      <g
         id="g2150"
         transform="matrix(3.7795276,0,0,3.7795276,440.38761,-481.22023)">
        <rect
           x="-13.860888"
           y="127.32285"
           width="174.625"
           height="99.48333"
           id="rect2148"
           style="stroke-width:0.264583" />
      </g>
    </clipPath>
    <clipPath
       clipPathUnits="userSpaceOnUse"
       id="clipPath2152">
      <g
         id="g2156"
         transform="matrix(3.7795276,0,0,3.7795276,440.38761,-481.22023)">
        <rect
           x="-13.860888"
           y="127.32285"
           width="174.625"
           height="99.48333"
           id="rect2154"
           style="stroke-width:0.264583" />
      </g>
    </clipPath>
    <clipPath
       clipPathUnits="userSpaceOnUse"
       id="clipPath2158">
      <g
         id="g2162"
         transform="matrix(3.7795276,0,0,3.7795276,440.38761,-481.22023)">
        <rect
           x="-13.860888"
           y="127.32285"
           width="174.625"
           height="99.48333"
           id="rect2160"
           style="stroke-width:0.264583" />
      </g>
    </clipPath>
    <clipPath
       clipPathUnits="userSpaceOnUse"
       id="clipPath2164">
      <g
         id="g2168"
         transform="matrix(3.7795276,0,0,3.7795276,440.38761,-481.22023)">
        <rect
           x="-13.860888"
           y="127.32285"
           width="174.625"
           height="99.48333"
           id="rect2166"
           style="stroke-width:0.264583" />
      </g>
    </clipPath>
    <clipPath
       clipPathUnits="userSpaceOnUse"
       id="clipPath2170">
      <g
         id="g2174"
         transform="matrix(3.7795276,0,0,3.7795276,440.38761,-481.22023)">
        <rect
           x="-13.860888"
           y="127.32285"
           width="174.625"
           height="99.48333"
           id="rect2172"
           style="stroke-width:0.264583" />
      </g>
    </clipPath>
    <clipPath
       clipPathUnits="userSpaceOnUse"
       id="clipPath2176">
      <g
         id="g2180"
         transform="matrix(3.7795276,0,0,3.7795276,440.38761,-481.22023)">
        <rect
           x="-13.860888"
           y="127.32285"
           width="174.625"
           height="99.48333"
           id="rect2178"
           style="stroke-width:0.264583" />
      </g>
    </clipPath>
    <clipPath
       clipPathUnits="userSpaceOnUse"
       id="clipPath2182">
      <g
         id="g2186"
         transform="matrix(3.7795276,0,0,3.7795276,440.38761,-481.22023)">
        <rect
           x="-13.860888"
           y="127.32285"
           width="174.625"
           height="99.48333"
           id="rect2184"
           style="stroke-width:0.264583" />
      </g>
    </clipPath>
    <clipPath
       clipPathUnits="userSpaceOnUse"
       id="clipPath2188">
      <g
         id="g2192"
         transform="matrix(3.7795276,0,0,3.7795276,440.38761,-481.22023)">
        <rect
           x="-13.860888"
           y="127.32285"
           width="174.625"
           height="99.48333"
           id="rect2190"
           style="stroke-width:0.264583" />
      </g>
    </clipPath>
    <clipPath
       clipPathUnits="userSpaceOnUse"
       id="clipPath2194">
      <g
         id="g2198"
         transform="matrix(3.7795276,0,0,3.7795276,440.38761,-481.22023)">
        <rect
           x="-13.860888"
           y="127.32285"
           width="174.625"
           height="99.48333"
           id="rect2196"
           style="stroke-width:0.264583" />
      </g>
    </clipPath>
    <clipPath
       clipPathUnits="userSpaceOnUse"
       id="clipPath2200">
      <g
         id="g2204">
        <rect
           x="-13.860888"
           y="127.32285"
           width="174.625"
           height="99.48333"
           id="rect2202"
           style="stroke-width:0.264583" />
      </g>
    </clipPath>
    <clipPath
       id="clipPath871">
      <path
         clip-rule="nonzero"
         d="m 240,14 h 5 v 7.710938 h -5 z m 0,0"
         id="path4564" />
    </clipPath>
  </defs>
  <g
     inkscape:label="Camada 1"
     inkscape:groupmode="layer"
     id="layer1"
     transform="translate(8.4127637,-129.87773)">
    <g
       id="g1869"
       transform="matrix(0.26458333,0,0,0.26458333,-116.51922,127.32285)"
       clip-path="url(#clipPath2194)">
      <rect
         x="466"
         y="15"
         width="560"
         height="347"
         fill="#ffffff"
         id="rect1867" />
    </g>
    <g
       id="g1873"
       transform="matrix(0.26458333,0,0,0.26458333,-116.51922,127.32285)"
       clip-path="url(#clipPath2188)">
      <path
         d="m 466.5,14.5001 h 560 m -560,50 h 560 M 466.5,113.5 h 560 m -560,50 h 560 m -560,49 h 560 m -560,50 h 560 m -560,50 h 560"
         stroke="#d9d9d9"
         stroke-linejoin="round"
         stroke-miterlimit="10"
         fill="none"
         id="path1871" />
    </g>
    <g
       id="g1877"
       transform="matrix(0.26458333,0,0,0.26458333,-116.51922,127.32285)"
       clip-path="url(#clipPath2182)">
      <path
         d="M 578.5,14.5001 V 361.5 M 690.5,14.5001 V 361.5 M 802.5,14.5001 V 361.5 M 914.5,14.5001 V 361.5 m 112,-346.9999 V 361.5"
         stroke="#d9d9d9"
         stroke-linejoin="round"
         stroke-miterlimit="10"
         fill="none"
         id="path1875" />
    </g>
    <g
       id="g1881"
       transform="matrix(0.26458333,0,0,0.26458333,-116.51922,127.32285)"
       clip-path="url(#clipPath2176)">
      <rect
         x="466.5"
         y="14.5001"
         width="560"
         height="347"
         stroke="#000000"
         stroke-linejoin="round"
         stroke-miterlimit="10"
         fill="none"
         id="rect1879" />
    </g>
    <g
       id="g1885"
       transform="matrix(0.26458333,0,0,0.26458333,-116.51922,127.32285)"
       clip-path="url(#clipPath2170)">
      <path
         d="M 466.5,14.5001 V 361.5"
         stroke="#000000"
         stroke-linejoin="round"
         stroke-miterlimit="10"
         fill="none"
         fill-rule="evenodd"
         id="path1883" />
    </g>
    <g
       id="g1889"
       transform="matrix(0.26458333,0,0,0.26458333,-116.51922,127.32285)"
       clip-path="url(#clipPath2164)">
      <path
         d="m 466.5,14.5001 h 3 m -3,10 h 3 m -3,10 h 3 m -3,10 h 3 m -3,10 h 3 m -3,10 h 3 m -3,10 h 3 m -3,10 h 3 m -3,9 h 3 m -3,9.9999 h 3 m -3,10 h 3 m -3,10 h 3 m -3,10 h 3 m -3,10 h 3 m -3,10 h 3 m -3,10 h 3 m -3,10 h 3 m -3,10 h 3 m -3,10 h 3 m -3,9 h 3 m -3,10 h 3 m -3,10 h 3 m -3,10 h 3 m -3,10 h 3 m -3,10 h 3 m -3,10 h 3 m -3,10 h 3 m -3,10 h 3 m -3,10 h 3 m -3,10 h 3 m -3,10 h 3 m -3,9 h 3 m -3,10 h 3 m -3,10 h 3 m -3,10 h 3 m -3,10 h 3 m -7,-346.9999 h 8 m -8,50 h 8 m -8,48.9999 h 8 m -8,50 h 8 m -8,49 h 8 m -8,50 h 8 m -8,50 h 8 m -8,49 h 8"
         stroke="#000000"
         stroke-linejoin="round"
         stroke-miterlimit="10"
         fill="none"
         id="path1887" />
    </g>
    <g
       id="g1893"
       transform="matrix(0.26458333,0,0,0.26458333,-116.51922,127.32285)"
       clip-path="url(#clipPath2158)">
      <path
         d="m 466.5,361.5 h 560"
         stroke="#000000"
         stroke-linejoin="round"
         stroke-miterlimit="10"
         fill="none"
         fill-rule="evenodd"
         id="path1891" />
    </g>
    <g
       id="g1897"
       transform="matrix(0.26458333,0,0,0.26458333,-116.51922,127.32285)"
       clip-path="url(#clipPath2152)">
      <path
         d="m 466.5,361.5 v 3 m 22,-3 v 3 m 22,-3 v 3 m 23,-3 v 3 m 22,-3 v 3 m 23,-3 v 3 m 22,-3 v 3 m 22,-3 v 3 m 23,-3 v 3 m 22,-3 v 3 m 23,-3 v 3 m 22,-3 v 3 m 22,-3 v 3 m 23,-3 v 3 m 22,-3 v 3 m 23,-3 v 3 m 22,-3 v 3 m 22,-3 v 3 m 23,-3 v 3 m 22,-3 v 3 m 23,-3 v 3 m 22,-3 v 3 m 22,-3 v 3 m 23,-3 v 3 m 22,-3 v 3 m 23,-3 v 3 m -560,-7 v 8 m 112,-8 v 8 m 112,-8 v 8 m 112,-8 v 8 m 112,-8 v 8 m 112,-8 v 8"
         stroke="#000000"
         stroke-linejoin="round"
         stroke-miterlimit="10"
         fill="none"
         id="path1895" />
    </g>
    <g
       id="g1901"
       transform="matrix(0.26458333,0,0,0.26458333,-116.51922,127.32285)"
       clip-path="url(#clipPath2146)">
      <path
         d="m 466,362 18,-17 17,-16 18,-16 17,-15 18,-15 17,-15 18,-15 17,-14 18,-14 17,-13 18,-13 17,-12 18,-11 17,-12 18,-10 17,-10 18,-10 17,-9 18,-8 17,-8 18,-7 17,-6 18,-6 17,-5 18,-5 17,-4 18,-4 17,-2 18,-3 17,-1 18,-1 h 17"
         stroke="#ed7d31"
         stroke-width="2"
         stroke-linecap="round"
         stroke-linejoin="round"
         stroke-miterlimit="10"
         fill="none"
         id="path1899" />
    </g>
    <g
       id="g1905"
       transform="matrix(0.26458333,0,0,0.26458333,-116.51922,127.32285)"
       clip-path="url(#clipPath2140)">
      <path
         d="m 466,362 5,-5 5,-5 6,-5 5,-5 5,-5 5,-5 5,-4 6,-5 5,-5 5,-5 5,-4 5,-5 5,-5 6,-4 5,-5 5,-4 5,-5 5,-4 6,-5 5,-4 5,-5 5,-4 5,-4 6,-5 5,-4 5,-4 5,-4 5,-4 5,-4 6,-4 5,-4 5,-4 5,-4 5,-4 6,-4 5,-4 5,-3 5,-4 5,-4 5,-3 6,-4 5,-3 5,-4 5,-3 5,-4 6,-3 5,-3 5,-3 5,-4 5,-3 6,-3 5,-3 5,-3 5,-3 5,-3 5,-3 6,-2 5,-3 5,-3 5,-2 5,-3 6,-2 5,-3 5,-2 5,-3 5,-2 5,-2 6,-3 5,-2 5,-2 5,-2 5,-2 6,-2 5,-2 5,-2 5,-1 5,-2 5,-2 6,-1 5,-2 5,-2 5,-1 5,-1 6,-2 5,-1 5,-1 5,-1 5,-2 6,-1 5,-1 5,-1 5,-1 h 5 l 5,-1 6,-1 5,-1 h 5 l 5,-1 5,-1 h 6 5 l 5,-1 h 5 5 l 5,-1 h 6 5 5"
         stroke="#4472c4"
         stroke-width="2"
         stroke-linecap="round"
         stroke-linejoin="round"
         stroke-miterlimit="10"
         fill="none"
         id="path1903" />
    </g>
    <g
       id="g1909"
       transform="matrix(0.26458333,0,0,0.26458333,-116.51922,127.32285)">
      <text
         font-family="Arial, Arial_MSFontService, sans-serif"
         font-weight="400"
         font-size="13px"
         transform="translate(424.231,19)"
         id="text1907">-0.35</text>
    </g>
    <g
       id="g1913"
       transform="matrix(0.26458333,0,0,0.26458333,-116.51922,127.32285)">
      <text
         font-family="Arial, Arial_MSFontService, sans-serif"
         font-weight="400"
         font-size="13px"
         transform="translate(431.644,68)"
         id="text1911">-0.3</text>
    </g>
    <g
       id="g1917"
       transform="matrix(0.26458333,0,0,0.26458333,-116.51922,127.32285)">
      <text
         font-family="Arial, Arial_MSFontService, sans-serif"
         font-weight="400"
         font-size="13px"
         transform="translate(424.231,118)"
         id="text1915">-0.25</text>
    </g>
    <g
       id="g1921"
       transform="matrix(0.26458333,0,0,0.26458333,-116.51922,127.32285)">
      <text
         font-family="Arial, Arial_MSFontService, sans-serif"
         font-weight="400"
         font-size="13px"
         transform="translate(431.644,168)"
         id="text1919">-0.2</text>
    </g>
    <g
       id="g1925"
       transform="matrix(0.26458333,0,0,0.26458333,-116.51922,127.32285)">
      <text
         font-family="Arial, Arial_MSFontService, sans-serif"
         font-weight="400"
         font-size="13px"
         transform="translate(424.231,217)"
         id="text1923">-0.15</text>
    </g>
    <g
       id="g1929"
       transform="matrix(0.26458333,0,0,0.26458333,-116.51922,127.32285)">
      <text
         font-family="Arial, Arial_MSFontService, sans-serif"
         font-weight="400"
         font-size="13px"
         transform="translate(431.644,267)"
         id="text1927">-0.1</text>
    </g>
    <g
       id="g1933"
       transform="matrix(0.26458333,0,0,0.26458333,-116.51922,127.32285)">
      <text
         font-family="Arial, Arial_MSFontService, sans-serif"
         font-weight="400"
         font-size="13px"
         transform="translate(424.231,316)"
         id="text1931">-0.05</text>
    </g>
    <g
       id="g1937"
       transform="matrix(0.26458333,0,0,0.26458333,-116.51922,127.32285)">
      <text
         font-family="Arial, Arial_MSFontService, sans-serif"
         font-weight="400"
         font-size="13px"
         transform="translate(447.204,366)"
         id="text1935">0</text>
    </g>
    <g
       id="g1941"
       transform="matrix(0.26458333,0,0,0.26458333,-116.51922,127.32285)">
      <text
         font-family="Arial, Arial_MSFontService, sans-serif"
         font-weight="400"
         font-size="13px"
         transform="translate(462.385,350)"
         id="text1939">0</text>
    </g>
    <g
       id="g1945"
       transform="matrix(0.26458333,0,0,0.26458333,-116.51922,127.32285)">
      <text
         font-family="Arial, Arial_MSFontService, sans-serif"
         font-weight="400"
         font-size="13px"
         transform="translate(574.373,350)"
         id="text1943">5</text>
    </g>
    <g
       id="g1949"
       transform="matrix(0.26458333,0,0,0.26458333,-116.51922,127.32285)">
      <text
         font-family="Arial, Arial_MSFontService, sans-serif"
         font-weight="400"
         font-size="13px"
         transform="translate(682.654,350)"
         id="text1947">10</text>
    </g>
    <g
       id="g1953"
       transform="matrix(0.26458333,0,0,0.26458333,-116.51922,127.32285)">
      <text
         font-family="Arial, Arial_MSFontService, sans-serif"
         font-weight="400"
         font-size="13px"
         transform="translate(794.641,350)"
         id="text1951">15</text>
    </g>
    <g
       id="g1957"
       transform="matrix(0.26458333,0,0,0.26458333,-116.51922,127.32285)">
      <text
         font-family="Arial, Arial_MSFontService, sans-serif"
         font-weight="400"
         font-size="13px"
         transform="translate(906.629,350)"
         id="text1955">20</text>
    </g>
    <g
       id="g1961"
       transform="matrix(0.26458333,0,0,0.26458333,-116.51922,127.32285)">
      <text
         font-family="Arial, Arial_MSFontService, sans-serif"
         font-weight="400"
         font-size="13px"
         transform="translate(1018.62,350)"
         id="text1959">25</text>
    </g>
    <g
       id="g1965"
       transform="matrix(0.26458333,0,0,0.26458333,-116.51922,127.32285)">
      <text
         font-family="Arial, Arial_MSFontService, sans-serif"
         font-weight="400"
         font-size="13px"
         transform="rotate(-90,335.9485,-81.9485)"
         id="text1963">Deslocamento vertical</text>
    </g>
    <g
       id="g1969"
       transform="matrix(0.26458333,0,0,0.26458333,-116.51922,127.32285)"
       clip-path="url(#clipPath2134)">
      <rect
         x="533.5"
         y="61.500099"
         width="99"
         height="45"
         stroke="#000000"
         stroke-linejoin="round"
         stroke-miterlimit="10"
         fill="#ffffff"
         id="rect1967" />
    </g>
    <g
       id="g1973"
       transform="matrix(0.26458333,0,0,0.26458333,-116.51922,127.32285)"
       clip-path="url(#clipPath2128)">
      <path
         d="m 540,73 26,1e-4"
         stroke="#ed7d31"
         stroke-width="2"
         stroke-linecap="round"
         stroke-linejoin="round"
         stroke-miterlimit="10"
         fill="none"
         fill-rule="evenodd"
         id="path1971" />
    </g>
    <g
       id="g1977"
       transform="matrix(0.26458333,0,0,0.26458333,-116.51922,127.32285)">
      <text
         font-family="Arial, Arial_MSFontService, sans-serif"
         font-weight="400"
         font-size="13px"
         transform="translate(568.322,77)"
         id="text1975">Calculado</text>
    </g>
    <g
       id="g1981"
       transform="matrix(0.26458333,0,0,0.26458333,-116.51922,127.32285)"
       clip-path="url(#clipPath2122)">
      <path
         d="m 540,95 26,1e-4"
         stroke="#4472c4"
         stroke-width="2"
         stroke-linecap="round"
         stroke-linejoin="round"
         stroke-miterlimit="10"
         fill="none"
         fill-rule="evenodd"
         id="path1979" />
    </g>
    <g
       id="g1985"
       transform="matrix(0.26458333,0,0,0.26458333,-116.51922,127.32285)">
      <text
         font-family="Arial, Arial_MSFontService, sans-serif"
         font-weight="400"
         font-size="13px"
         transform="translate(568.322,99)"
         id="text1983">ANSYS</text>
    </g>
    <g
       inkscape:label=""
       transform="translate(78.700113,225.50713)"
       id="g2425">
      <g
         fill="#000000"
         fill-opacity="1"
         id="g19"
         transform="matrix(0.352778,0,0,0.352778,-81.4311,-4.06938)">
        <g
           id="use17"
           transform="translate(230.34399,19.129)">
          <path
             d="m 8.15625,-7.03125 c -0.546875,0.109375 -0.75,0.515625 -0.75,0.84375 0,0.421875 0.328125,0.5625 0.5625,0.5625 0.515625,0 0.875,-0.453125 0.875,-0.921875 0,-0.71875 -0.8125,-1.046875 -1.546875,-1.046875 -1.046875,0 -1.625,1.03125 -1.78125,1.359375 -0.40625,-1.296875 -1.46875,-1.359375 -1.78125,-1.359375 -1.75,0 -2.6875,2.25 -2.6875,2.640625 0,0.0625 0.078125,0.15625 0.1875,0.15625 0.140625,0 0.171875,-0.109375 0.21875,-0.171875 C 2.03125,-6.890625 3.1875,-7.25 3.6875,-7.25 c 0.765625,0 0.921875,0.71875 0.921875,1.140625 0,0.375 -0.09375,0.765625 -0.296875,1.59375 L 3.71875,-2.15625 c -0.25,1.03125 -0.75,1.984375 -1.671875,1.984375 -0.078125,0 -0.515625,0 -0.875,-0.21875 0.625,-0.125 0.75,-0.640625 0.75,-0.84375 0,-0.34375 -0.25,-0.5625 -0.578125,-0.5625 -0.40625,0 -0.859375,0.375 -0.859375,0.921875 0,0.71875 0.8125,1.046875 1.546875,1.046875 0.828125,0 1.40625,-0.65625 1.78125,-1.359375 0.265625,1.015625 1.125,1.359375 1.765625,1.359375 1.75,0 2.6875,-2.25 2.6875,-2.640625 0,-0.078125 -0.0625,-0.15625 -0.171875,-0.15625 -0.15625,0 -0.171875,0.09375 -0.21875,0.234375 -0.46875,1.515625 -1.46875,2.21875 -2.25,2.21875 -0.59375,0 -0.921875,-0.453125 -0.921875,-1.15625 0,-0.375 0.0625,-0.65625 0.34375,-1.78125 l 0.59375,-2.34375 C 5.90625,-6.484375 6.484375,-7.25 7.28125,-7.25 c 0.03125,0 0.515625,0 0.875,0.21875 z m 0,0"
             id="path31" />
        </g>
      </g>
      <g
         clip-path="url(#clipPath871)"
         id="g25"
         transform="matrix(0.352778,0,0,0.352778,-81.4311,-4.06938)">
        <g
           fill="#000000"
           fill-opacity="1"
           id="g23">
          <g
             id="use21"
             transform="translate(239.923,21.711)">
            <path
               d="m 1.390625,-0.84375 1.15625,-1.125 c 1.703125,-1.5 2.34375,-2.09375 2.34375,-3.171875 0,-1.25 -0.96875,-2.125 -2.3125,-2.125 -1.21875,0 -2.03125,1 -2.03125,1.96875 0,0.625 0.546875,0.625 0.578125,0.625 0.1875,0 0.5625,-0.140625 0.5625,-0.578125 0,-0.296875 -0.1875,-0.578125 -0.578125,-0.578125 -0.078125,0 -0.109375,0 -0.140625,0.015625 0.25,-0.703125 0.84375,-1.109375 1.46875,-1.109375 1,0 1.46875,0.875 1.46875,1.78125 0,0.859375 -0.546875,1.734375 -1.140625,2.40625 l -2.09375,2.328125 c -0.125,0.125 -0.125,0.140625 -0.125,0.40625 H 4.59375 L 4.890625,-1.890625 H 4.625 C 4.5625,-1.578125 4.5,-1.09375 4.390625,-0.921875 4.3125,-0.84375 3.59375,-0.84375 3.34375,-0.84375 Z m 0,0"
               id="path35" />
          </g>
        </g>
      </g>
    </g>
  </g>
</svg>
