<?xml version="1.0" encoding="UTF-8" standalone="no"?>
<!-- Created with Inkscape (http://www.inkscape.org/) -->

<svg
   width="148.08759mm"
   height="94.663071mm"
   viewBox="0 0 148.08759 94.66307"
   version="1.1"
   id="svg5"
   sodipodi:docname="deslocamento.svg"
   inkscape:version="1.2.1 (9c6d41e410, 2022-07-14)"
   xmlns:inkscape="http://www.inkscape.org/namespaces/inkscape"
   xmlns:sodipodi="http://sodipodi.sourceforge.net/DTD/sodipodi-0.dtd"
   xmlns="http://www.w3.org/2000/svg"
   xmlns:svg="http://www.w3.org/2000/svg">
  <sodipodi:namedview
     id="namedview7"
     pagecolor="#ffffff"
     bordercolor="#000000"
     borderopacity="0.25"
     inkscape:showpageshadow="2"
     inkscape:pageopacity="0.0"
     inkscape:pagecheckerboard="0"
     inkscape:deskcolor="#d1d1d1"
     inkscape:document-units="mm"
     showgrid="false"
     inkscape:zoom="1.4912879"
     inkscape:cx="188.42774"
     inkscape:cy="189.0983"
     inkscape:window-width="1920"
     inkscape:window-height="1017"
     inkscape:window-x="1912"
     inkscape:window-y="-8"
     inkscape:window-maximized="1"
     inkscape:current-layer="layer1" />
  <defs
     id="defs2">
    <clipPath
       clipPathUnits="userSpaceOnUse"
       id="clipPath552">
      <g
         id="g556"
         transform="matrix(3.7795276,0,0,3.7795276,460.69138,-395.31825)">
        <rect
           x="-19.232927"
           y="104.59462"
           width="157.69167"
           height="93.133331"
           id="rect554"
           style="stroke-width:0.264583" />
      </g>
    </clipPath>
    <clipPath
       clipPathUnits="userSpaceOnUse"
       id="clipPath558">
      <g
         id="g562"
         transform="matrix(3.7795276,0,0,3.7795276,460.69138,-395.31825)">
        <rect
           x="-19.232927"
           y="104.59462"
           width="157.69167"
           height="93.133331"
           id="rect560"
           style="stroke-width:0.264583" />
      </g>
    </clipPath>
    <clipPath
       clipPathUnits="userSpaceOnUse"
       id="clipPath564">
      <g
         id="g568"
         transform="matrix(3.7795276,0,0,3.7795276,460.69138,-395.31825)">
        <rect
           x="-19.232927"
           y="104.59462"
           width="157.69167"
           height="93.133331"
           id="rect566"
           style="stroke-width:0.264583" />
      </g>
    </clipPath>
    <clipPath
       clipPathUnits="userSpaceOnUse"
       id="clipPath570">
      <g
         id="g574"
         transform="matrix(3.7795276,0,0,3.7795276,460.69138,-395.31825)">
        <rect
           x="-19.232927"
           y="104.59462"
           width="157.69167"
           height="93.133331"
           id="rect572"
           style="stroke-width:0.264583" />
      </g>
    </clipPath>
    <clipPath
       clipPathUnits="userSpaceOnUse"
       id="clipPath576">
      <g
         id="g580"
         transform="matrix(3.7795276,0,0,3.7795276,460.69138,-395.31825)">
        <rect
           x="-19.232927"
           y="104.59462"
           width="157.69167"
           height="93.133331"
           id="rect578"
           style="stroke-width:0.264583" />
      </g>
    </clipPath>
    <clipPath
       clipPathUnits="userSpaceOnUse"
       id="clipPath582">
      <g
         id="g586"
         transform="matrix(3.7795276,0,0,3.7795276,460.69138,-395.31825)">
        <rect
           x="-19.232927"
           y="104.59462"
           width="157.69167"
           height="93.133331"
           id="rect584"
           style="stroke-width:0.264583" />
      </g>
    </clipPath>
    <clipPath
       clipPathUnits="userSpaceOnUse"
       id="clipPath588">
      <g
         id="g592"
         transform="matrix(3.7795276,0,0,3.7795276,460.69138,-395.31825)">
        <rect
           x="-19.232927"
           y="104.59462"
           width="157.69167"
           height="93.133331"
           id="rect590"
           style="stroke-width:0.264583" />
      </g>
    </clipPath>
    <clipPath
       clipPathUnits="userSpaceOnUse"
       id="clipPath594">
      <g
         id="g598"
         transform="matrix(3.7795276,0,0,3.7795276,460.69138,-395.31825)">
        <rect
           x="-19.232927"
           y="104.59462"
           width="157.69167"
           height="93.133331"
           id="rect596"
           style="stroke-width:0.264583" />
      </g>
    </clipPath>
    <clipPath
       clipPathUnits="userSpaceOnUse"
       id="clipPath600">
      <g
         id="g604"
         transform="matrix(3.7795276,0,0,3.7795276,460.69138,-395.31825)">
        <rect
           x="-19.232927"
           y="104.59462"
           width="157.69167"
           height="93.133331"
           id="rect602"
           style="stroke-width:0.264583" />
      </g>
    </clipPath>
    <clipPath
       clipPathUnits="userSpaceOnUse"
       id="clipPath606">
      <g
         id="g610"
         transform="matrix(3.7795276,0,0,3.7795276,460.69138,-395.31825)">
        <rect
           x="-19.232927"
           y="104.59462"
           width="157.69167"
           height="93.133331"
           id="rect608"
           style="stroke-width:0.264583" />
      </g>
    </clipPath>
    <clipPath
       clipPathUnits="userSpaceOnUse"
       id="clipPath612">
      <g
         id="g616"
         transform="matrix(3.7795276,0,0,3.7795276,460.69138,-395.31825)">
        <rect
           x="-19.232927"
           y="104.59462"
           width="157.69167"
           height="93.133331"
           id="rect614"
           style="stroke-width:0.264583" />
      </g>
    </clipPath>
    <clipPath
       clipPathUnits="userSpaceOnUse"
       id="clipPath618">
      <g
         id="g622"
         transform="matrix(3.7795276,0,0,3.7795276,460.69138,-395.31825)">
        <rect
           x="-19.232927"
           y="104.59462"
           width="157.69167"
           height="93.133331"
           id="rect620"
           style="stroke-width:0.264583" />
      </g>
    </clipPath>
    <clipPath
       clipPathUnits="userSpaceOnUse"
       id="clipPath624">
      <g
         id="g628"
         transform="matrix(3.7795276,0,0,3.7795276,460.69138,-395.31825)">
        <rect
           x="-19.232927"
           y="104.59462"
           width="157.69167"
           height="93.133331"
           id="rect626"
           style="stroke-width:0.264583" />
      </g>
    </clipPath>
    <clipPath
       clipPathUnits="userSpaceOnUse"
       id="clipPath630">
      <g
         id="g634">
        <rect
           x="-19.232927"
           y="104.59462"
           width="157.69167"
           height="93.133331"
           id="rect632"
           style="stroke-width:0.264583" />
      </g>
    </clipPath>
    <clipPath
       id="clipPath6726">
      <path
         clip-rule="nonzero"
         d="m 119,6 h 4 v 4.570313 h -4 z m 0,0"
         id="path1406" />
    </clipPath>
    <clipPath
       id="clipPath8603">
      <path
         clip-rule="nonzero"
         d="m 240,14 h 5 v 7.710938 h -5 z m 0,0"
         id="path6364" />
    </clipPath>
    <clipPath
       id="clipPath4949">
      <path
         clip-rule="nonzero"
         d="m 219,21 h 8 v 11.410156 h -8 z m 0,0"
         id="path3338" />
    </clipPath>
    <clipPath
       id="clipPath2695">
      <path
         clip-rule="nonzero"
         d="m 225,18 h 7 v 10.007813 h -7 z m 0,0"
         id="path3205" />
    </clipPath>
  </defs>
  <g
     inkscape:label="Camada 1"
     inkscape:groupmode="layer"
     id="layer1"
     transform="translate(13.7848, -107.15)">
    <g
       id="g141"
       transform="matrix(0.26458333,0,0,0.26458333,-121.89126,104.59462)"
       clip-path="url(#clipPath624)">
      <rect
         x="466"
         y="15"
         width="496"
         height="322"
         fill="#ffffff"
         id="rect139" />
    </g>
    <g
       id="g145"
       transform="matrix(0.26458333,0,0,0.26458333,-121.89126,104.59462)"
       clip-path="url(#clipPath618)">
      <path
         d="m 466.5,14.5001 h 495 m -495,46 h 495 M 466.5,106.5 h 495 m -495,46 h 495 m -495,46 h 495 m -495,46 h 495 m -495,46 h 495"
         stroke="#d9d9d9"
         stroke-linejoin="round"
         stroke-miterlimit="10"
         fill="none"
         id="path143" />
    </g>
    <g
       id="g149"
       transform="matrix(0.26458333,0,0,0.26458333,-121.89126,104.59462)"
       clip-path="url(#clipPath612)">
      <path
         d="M 565.5,14.5001 V 336.5 m 99,-321.9999 V 336.5 m 99,-321.9999 V 336.5 m 99,-321.9999 V 336.5 m 99,-321.9999 V 336.5"
         stroke="#d9d9d9"
         stroke-linejoin="round"
         stroke-miterlimit="10"
         fill="none"
         id="path147" />
    </g>
    <g
       id="g153"
       transform="matrix(0.26458333,0,0,0.26458333,-121.89126,104.59462)"
       clip-path="url(#clipPath606)">
      <rect
         x="466.5"
         y="14.5001"
         width="495"
         height="322"
         stroke="#000000"
         stroke-linejoin="round"
         stroke-miterlimit="10"
         fill="none"
         id="rect151" />
    </g>
    <g
       id="g157"
       transform="matrix(0.26458333,0,0,0.26458333,-121.89126,104.59462)"
       clip-path="url(#clipPath600)">
      <path
         d="M 466.5,14.5001 V 336.5"
         stroke="#000000"
         stroke-linejoin="round"
         stroke-miterlimit="10"
         fill="none"
         fill-rule="evenodd"
         id="path155" />
    </g>
    <g
       id="g161"
       transform="matrix(0.26458333,0,0,0.26458333,-121.89126,104.59462)"
       clip-path="url(#clipPath594)">
      <path
         d="m 466.5,14.5001 h 3 m -3,9 h 3 m -3,10 h 3 m -3,9 h 3 m -3,9 h 3 m -3,9 h 3 m -3,9 h 3 m -3,10 h 3 m -3,9 h 3 m -3,9 h 3 m -3,8.9999 h 3 m -3,9 h 3 m -3,10 h 3 m -3,9 h 3 m -3,9 h 3 m -3,9 h 3 m -3,9 h 3 m -3,10 h 3 m -3,9 h 3 m -3,9 h 3 m -3,9 h 3 m -3,9 h 3 m -3,10 h 3 m -3,9 h 3 m -3,9 h 3 m -3,9 h 3 m -3,10 h 3 m -3,9 h 3 m -3,9 h 3 m -3,9 h 3 m -3,9 h 3 m -3,10 h 3 m -3,9 h 3 m -3,9 h 3 m -3,9 h 3 m -3,9 h 3 m -7,-321.9999 h 8 m -8,46 h 8 m -8,45.9999 h 8 m -8,46 h 8 m -8,46 h 8 m -8,46 h 8 m -8,46 h 8 m -8,46 h 8"
         stroke="#000000"
         stroke-linejoin="round"
         stroke-miterlimit="10"
         fill="none"
         id="path159" />
    </g>
    <g
       id="g165"
       transform="matrix(0.26458333,0,0,0.26458333,-121.89126,104.59462)"
       clip-path="url(#clipPath588)">
      <path
         d="m 466.5,336.5 h 495"
         stroke="#000000"
         stroke-linejoin="round"
         stroke-miterlimit="10"
         fill="none"
         fill-rule="evenodd"
         id="path163" />
    </g>
    <g
       id="g169"
       transform="matrix(0.26458333,0,0,0.26458333,-121.89126,104.59462)"
       clip-path="url(#clipPath582)">
      <path
         d="m 466.5,336.5 v 3 m 19,-3 v 3 m 20,-3 v 3 m 20,-3 v 3 m 20,-3 v 3 m 20,-3 v 3 m 20,-3 v 3 m 19,-3 v 3 m 20,-3 v 3 m 20,-3 v 3 m 20,-3 v 3 m 20,-3 v 3 m 20,-3 v 3 m 19,-3 v 3 m 20,-3 v 3 m 20,-3 v 3 m 20,-3 v 3 m 20,-3 v 3 m 19,-3 v 3 m 20,-3 v 3 m 20,-3 v 3 m 20,-3 v 3 m 20,-3 v 3 m 20,-3 v 3 m 19,-3 v 3 m 20,-3 v 3 m -495,-7 v 8 m 99,-8 v 8 m 99,-8 v 8 m 99,-8 v 8 m 99,-8 v 8 m 99,-8 v 8"
         stroke="#000000"
         stroke-linejoin="round"
         stroke-miterlimit="10"
         fill="none"
         id="path167" />
    </g>
    <g
       id="g173"
       transform="matrix(0.26458333,0,0,0.26458333,-121.89126,104.59462)"
       clip-path="url(#clipPath576)">
      <path
         d="m 466,337 16,-15 15,-15 16,-15 15,-14 16,-15 15,-13 16,-14 15,-13 16,-13 15,-12 15,-12 16,-11 15,-11 16,-10 15,-10 16,-9 15,-9 16,-8 15,-8 16,-7 15,-7 16,-6 15,-6 16,-4 15,-5 16,-4 15,-3 16,-2 15,-2 16,-2 15,-1 h 16"
         stroke="#ed7d31"
         stroke-width="2"
         stroke-linecap="round"
         stroke-linejoin="round"
         stroke-miterlimit="10"
         fill="none"
         id="path171" />
    </g>
    <g
       id="g177"
       transform="matrix(0.26458333,0,0,0.26458333,-121.89126,104.59462)"
       clip-path="url(#clipPath570)">
      <path
         d="m 466,337 14,-14 14,-13 13,-13 14,-13 14,-13 14,-13 13,-12 14,-12 14,-12 14,-11 14,-11 13,-11 14,-10 14,-10 14,-9 13,-10 14,-8 14,-9 14,-7 13,-8 14,-7 14,-7 14,-6 14,-5 13,-6 14,-5 14,-4 14,-4 13,-3 14,-3 14,-3 14,-2 13,-2 14,-1 14,-1 h 14"
         stroke="#4472c4"
         stroke-width="2"
         stroke-linecap="round"
         stroke-linejoin="round"
         stroke-miterlimit="10"
         stroke-dasharray="4, 4"
         fill="none"
         id="path175" />
    </g>
    <g
       id="g181"
       transform="matrix(0.26458333,0,0,0.26458333,-121.89126,104.59462)">
      <text
         font-family="Arial, Arial_MSFontService, sans-serif"
         font-weight="400"
         font-size="13px"
         transform="translate(424.231,19)"
         id="text179">-0.35</text>
    </g>
    <g
       id="g185"
       transform="matrix(0.26458333,0,0,0.26458333,-121.89126,104.59462)">
      <text
         font-family="Arial, Arial_MSFontService, sans-serif"
         font-weight="400"
         font-size="13px"
         transform="translate(431.644,65)"
         id="text183">-0.3</text>
    </g>
    <g
       id="g189"
       transform="matrix(0.26458333,0,0,0.26458333,-121.89126,104.59462)">
      <text
         font-family="Arial, Arial_MSFontService, sans-serif"
         font-weight="400"
         font-size="13px"
         transform="translate(424.231,111)"
         id="text187">-0.25</text>
    </g>
    <g
       id="g193"
       transform="matrix(0.26458333,0,0,0.26458333,-121.89126,104.59462)">
      <text
         font-family="Arial, Arial_MSFontService, sans-serif"
         font-weight="400"
         font-size="13px"
         transform="translate(431.644,157)"
         id="text191">-0.2</text>
    </g>
    <g
       id="g197"
       transform="matrix(0.26458333,0,0,0.26458333,-121.89126,104.59462)">
      <text
         font-family="Arial, Arial_MSFontService, sans-serif"
         font-weight="400"
         font-size="13px"
         transform="translate(424.231,203)"
         id="text195">-0.15</text>
    </g>
    <g
       id="g201"
       transform="matrix(0.26458333,0,0,0.26458333,-121.89126,104.59462)">
      <text
         font-family="Arial, Arial_MSFontService, sans-serif"
         font-weight="400"
         font-size="13px"
         transform="translate(431.644,249)"
         id="text199">-0.1</text>
    </g>
    <g
       id="g205"
       transform="matrix(0.26458333,0,0,0.26458333,-121.89126,104.59462)">
      <text
         font-family="Arial, Arial_MSFontService, sans-serif"
         font-weight="400"
         font-size="13px"
         transform="translate(424.231,295)"
         id="text203">-0.05</text>
    </g>
    <g
       id="g209"
       transform="matrix(0.26458333,0,0,0.26458333,-121.89126,104.59462)">
      <text
         font-family="Arial, Arial_MSFontService, sans-serif"
         font-weight="400"
         font-size="13px"
         transform="translate(447.204,341)"
         id="text207">0</text>
    </g>
    <g
       id="g213"
       transform="matrix(0.26458333,0,0,0.26458333,-121.89126,104.59462)">
      <text
         font-family="Arial, Arial_MSFontService, sans-serif"
         font-weight="400"
         font-size="13px"
         transform="translate(462.385,325)"
         id="text211">0</text>
    </g>
    <g
       id="g217"
       transform="matrix(0.26458333,0,0,0.26458333,-121.89126,104.59462)">
      <text
         font-family="Arial, Arial_MSFontService, sans-serif"
         font-weight="400"
         font-size="13px"
         transform="translate(561.52,325)"
         id="text215">5</text>
    </g>
    <g
       id="g221"
       transform="matrix(0.26458333,0,0,0.26458333,-121.89126,104.59462)">
      <text
         font-family="Arial, Arial_MSFontService, sans-serif"
         font-weight="400"
         font-size="13px"
         transform="translate(656.948,325)"
         id="text219">10</text>
    </g>
    <g
       id="g225"
       transform="matrix(0.26458333,0,0,0.26458333,-121.89126,104.59462)">
      <text
         font-family="Arial, Arial_MSFontService, sans-serif"
         font-weight="400"
         font-size="13px"
         transform="translate(756.083,325)"
         id="text223">15</text>
    </g>
    <g
       id="g229"
       transform="matrix(0.26458333,0,0,0.26458333,-121.89126,104.59462)">
      <text
         font-family="Arial, Arial_MSFontService, sans-serif"
         font-weight="400"
         font-size="13px"
         transform="translate(855.218,325)"
         id="text227">20</text>
    </g>
    <g
       id="g233"
       transform="matrix(0.26458333,0,0,0.26458333,-121.89126,104.59462)">
      <text
         font-family="Arial, Arial_MSFontService, sans-serif"
         font-weight="400"
         font-size="13px"
         transform="translate(954.353,325)"
         id="text231">25</text>
    </g>
    <g
       id="g237"
       transform="matrix(0.26458333,0,0,0.26458333,-121.89126,104.59462)">
      <text
         font-family="Arial, Arial_MSFontService, sans-serif"
         font-weight="400"
         font-size="13px"
         transform="rotate(-90,329.4485,-88.4485)"
         id="text235">Deslocamento vertical</text>
    </g>
    <g
       id="g241"
       transform="matrix(0.26458333,0,0,0.26458333,-121.89126,104.59462)"
       clip-path="url(#clipPath564)">
      <rect
         x="519.5"
         y="57.500099"
         width="110"
         height="49"
         stroke="#000000"
         stroke-linejoin="round"
         stroke-miterlimit="10"
         fill="#ffffff"
         id="rect239" />
    </g>
    <g
       id="g245"
       transform="matrix(0.26458333,0,0,0.26458333,-121.89126,104.59462)"
       clip-path="url(#clipPath558)">
      <path
         d="m 527,70 34,1e-4"
         stroke="#ed7d31"
         stroke-width="2"
         stroke-linecap="round"
         stroke-linejoin="round"
         stroke-miterlimit="10"
         fill="none"
         fill-rule="evenodd"
         id="path243" />
    </g>
    <g
       id="g249"
       transform="matrix(0.26458333,0,0,0.26458333,-121.89126,104.59462)">
      <text
         font-family="Arial, Arial_MSFontService, sans-serif"
         font-weight="400"
         font-size="13px"
         transform="translate(564.538,74)"
         id="text247">Calculado</text>
    </g>
    <g
       id="g253"
       transform="matrix(0.26458333,0,0,0.26458333,-121.89126,104.59462)"
       clip-path="url(#clipPath552)">
      <path
         d="m 527,94 34,1e-4"
         stroke="#4472c4"
         stroke-width="2"
         stroke-linecap="round"
         stroke-linejoin="round"
         stroke-miterlimit="10"
         stroke-dasharray="4, 4"
         fill="none"
         fill-rule="evenodd"
         id="path251" />
    </g>
    <g
       id="g257"
       transform="matrix(0.26458333,0,0,0.26458333,-121.89126,104.59462)">
      <text
         font-family="Arial, Arial_MSFontService, sans-serif"
         font-weight="400"
         font-size="13px"
         transform="translate(564.538,98)"
         id="text255">ANSYS</text>
    </g>
    <g
       inkscape:label=""
       transform="translate(61.263548,197.50622)"
       id="g1821">
      <g
         fill="#000000"
         fill-opacity="1"
         id="g19"
         transform="matrix(0.352778,0,0,0.352778,-75.5993,-5.57305)">
        <g
           id="use17"
           transform="translate(213.71899,24.907)">
          <path
             d="m 9.796875,-8.421875 c -0.671875,0.125 -0.921875,0.609375 -0.921875,1 0,0.5 0.40625,0.671875 0.6875,0.671875 0.625,0 1.0625,-0.546875 1.0625,-1.09375 0,-0.875 -1,-1.265625 -1.859375,-1.265625 -1.265625,0 -1.96875,1.234375 -2.15625,1.625 -0.46875,-1.546875 -1.75,-1.625 -2.125,-1.625 -2.109375,0 -3.21875,2.703125 -3.21875,3.15625 0,0.09375 0.078125,0.1875 0.21875,0.1875 0.171875,0 0.203125,-0.125 0.25,-0.203125 0.703125,-2.296875 2.09375,-2.734375 2.6875,-2.734375 0.921875,0 1.109375,0.875 1.109375,1.375 0,0.453125 -0.125,0.921875 -0.359375,1.921875 L 4.46875,-2.578125 c -0.3125,1.234375 -0.921875,2.375 -2.015625,2.375 -0.09375,0 -0.609375,0 -1.046875,-0.265625 C 2.140625,-0.625 2.3125,-1.234375 2.3125,-1.484375 2.3125,-1.90625 2,-2.140625 1.609375,-2.140625 c -0.5,0 -1.03125,0.421875 -1.03125,1.09375 0,0.859375 0.96875,1.25 1.859375,1.25 0.984375,0 1.6875,-0.78125 2.125,-1.625 0.328125,1.21875 1.359375,1.625 2.125,1.625 2.109375,0 3.234375,-2.703125 3.234375,-3.15625 0,-0.109375 -0.09375,-0.1875 -0.21875,-0.1875 -0.1875,0 -0.203125,0.109375 -0.265625,0.265625 -0.5625,1.828125 -1.75,2.671875 -2.6875,2.671875 -0.71875,0 -1.109375,-0.546875 -1.109375,-1.390625 0,-0.453125 0.078125,-0.78125 0.40625,-2.140625 l 0.734375,-2.8125 c 0.296875,-1.234375 1,-2.15625 1.953125,-2.15625 0.046875,0 0.625,0 1.0625,0.28125 z m 0,0"
             id="path31" />
        </g>
      </g>
      <g
         clip-path="url(#clipPath2695)"
         id="g25"
         transform="matrix(0.352778,0,0,0.352778,-75.5993,-5.57305)">
        <g
           fill="#000000"
           fill-opacity="1"
           id="g23">
          <g
             id="use21"
             transform="translate(225.216,28.006001)">
            <path
               d="M 6.3125,-2.40625 H 6 c -0.046875,0.234375 -0.15625,1.03125 -0.3125,1.265625 -0.09375,0.125 -0.90625,0.125 -1.34375,0.125 H 1.6875 c 0.390625,-0.328125 1.265625,-1.25 1.640625,-1.59375 2.1875,-2.015625 2.984375,-2.75 2.984375,-4.171875 0,-1.65625 -1.3125,-2.75 -2.96875,-2.75 -1.671875,0 -2.640625,1.40625 -2.640625,2.640625 0,0.734375 0.625,0.734375 0.671875,0.734375 0.296875,0 0.671875,-0.21875 0.671875,-0.671875 C 2.046875,-7.234375 1.78125,-7.5 1.375,-7.5 1.25,-7.5 1.21875,-7.5 1.171875,-7.484375 1.453125,-8.46875 2.21875,-9.125 3.15625,-9.125 4.375,-9.125 5.125,-8.109375 5.125,-6.78125 5.125,-5.5625 4.421875,-4.5 3.59375,-3.578125 L 0.703125,-0.34375 V 0 H 5.9375 Z m 0,0"
               id="path35" />
          </g>
        </g>
      </g>
    </g>
  </g>
</svg>
