<?xml version="1.0" encoding="UTF-8" standalone="no"?>
<!-- Created with Inkscape (http://www.inkscape.org/) -->

<svg
   width="253.47083mm"
   height="107.68542mm"
   viewBox="0 0 253.47083 107.68542"
   version="1.1"
   id="svg1"
   inkscape:version="1.3.2 (091e20e, 2023-11-25, custom)"
   sodipodi:docname="Cd-coarse2.svg"
   xmlns:inkscape="http://www.inkscape.org/namespaces/inkscape"
   xmlns:sodipodi="http://sodipodi.sourceforge.net/DTD/sodipodi-0.dtd"
   xmlns="http://www.w3.org/2000/svg"
   xmlns:svg="http://www.w3.org/2000/svg">
  <sodipodi:namedview
     id="namedview1"
     pagecolor="#ffffff"
     bordercolor="#000000"
     borderopacity="0.25"
     inkscape:showpageshadow="2"
     inkscape:pageopacity="0.0"
     inkscape:pagecheckerboard="0"
     inkscape:deskcolor="#d1d1d1"
     inkscape:document-units="mm"
     inkscape:zoom="0.73139029"
     inkscape:cx="767.03233"
     inkscape:cy="245.423"
     inkscape:window-width="1920"
     inkscape:window-height="1017"
     inkscape:window-x="1912"
     inkscape:window-y="-8"
     inkscape:window-maximized="1"
     inkscape:current-layer="layer1" />
  <defs
     id="defs1">
    <clipPath
       id="clip0">
      <rect
         x="1053"
         y="0"
         width="960"
         height="811"
         id="rect1" />
    </clipPath>
    <clipPath
       id="clip1">
      <rect
         x="1119"
         y="14"
         width="871"
         height="331"
         id="rect2" />
    </clipPath>
    <clipPath
       id="clip2">
      <rect
         x="1121"
         y="418"
         width="871"
         height="331"
         id="rect3" />
    </clipPath>
    <clipPath
       id="clip0-0">
      <rect
         x="1053"
         y="0"
         width="958"
         height="407"
         id="rect1-5" />
    </clipPath>
    <clipPath
       id="clip1-7">
      <rect
         x="1119"
         y="14"
         width="871"
         height="331"
         id="rect2-4" />
    </clipPath>
  </defs>
  <g
     inkscape:label="Camada 1"
     inkscape:groupmode="layer"
     id="layer1"
     transform="translate(97.895834,-83.608333)">
    <g
       clip-path="url(#clip0-0)"
       transform="matrix(0.26458333,0,0,0.26458333,-376.50208,83.608333)"
       id="g49">
      <rect
         x="1053"
         y="0"
         width="958"
         height="407"
         fill="#ffffff"
         id="rect3-9" />
      <g
         id="g3">
        <path
           d="m 1119.5,344.5 h 870 m -870,-33 h 870 m -870,-33 h 870 m -870,-33 h 870 m -870,-33 h 870 m -870,-33 h 870 m -870,-33 h 870 m -870,-33 h 870 m -870,-32.9999 h 870 m -870,-33 h 870 m -870,-33 h 870"
           stroke="#d9d9d9"
           stroke-linejoin="round"
           stroke-miterlimit="10"
           fill="none"
           id="path3" />
      </g>
      <g
         id="g4">
        <path
           d="M 1206.5,14.5001 V 344.5 m 87,-329.9999 V 344.5 m 87,-329.9999 V 344.5 m 87,-329.9999 V 344.5 m 87,-329.9999 V 344.5 m 87,-329.9999 V 344.5 m 87,-329.9999 V 344.5 m 87,-329.9999 V 344.5 m 87,-329.9999 V 344.5 m 87,-329.9999 V 344.5"
           stroke="#d9d9d9"
           stroke-linejoin="round"
           stroke-miterlimit="10"
           fill="none"
           id="path4" />
      </g>
      <g
         id="g5">
        <rect
           x="1119.5"
           y="14.5001"
           width="870"
           height="330"
           stroke="#000000"
           stroke-linejoin="round"
           stroke-miterlimit="10"
           fill="none"
           id="rect4" />
      </g>
      <g
         id="g6">
        <path
           d="M 0,0 1.04987e-4,330"
           stroke="#000000"
           stroke-linejoin="round"
           stroke-miterlimit="10"
           fill="none"
           fill-rule="evenodd"
           transform="matrix(1,0,0,-1,1119.5,344.5)"
           id="path5" />
      </g>
      <g
         id="g7">
        <path
           d="m 1119.5,344.5 h 3 m -3,-7 h 3 m -3,-6 h 3 m -3,-7 h 3 m -3,-7 h 3 m -3,-6 h 3 m -3,-7 h 3 m -3,-6 h 3 m -3,-7 h 3 m -3,-7 h 3 m -3,-6 h 3 m -3,-7 h 3 m -3,-6 h 3 m -3,-7 h 3 m -3,-7 h 3 m -3,-6 h 3 m -3,-7 h 3 m -3,-6 h 3 m -3,-7 h 3 m -3,-7 h 3 m -3,-6 h 3 m -3,-7 h 3 m -3,-6 h 3 m -3,-7 h 3 m -3,-6 h 3 m -3,-7 h 3 m -3,-7 h 3 m -3,-6 h 3 m -3,-7 h 3 m -3,-6 h 3 m -3,-7 h 3 m -3,-7 h 3 m -3,-6 h 3 m -3,-7 h 3 m -3,-6 h 3 m -3,-7 h 3 m -3,-7 h 3 m -3,-6 h 3 m -3,-6.9999 h 3 m -3,-6 h 3 m -3,-7 h 3 m -3,-7 h 3 m -3,-6 h 3 m -3,-7 h 3 m -3,-6 h 3 m -3,-7 h 3 m -3,-6 h 3 m -3,-7 h 3 m -3,-7 h 3 m -3,-6 h 3 m -3,-7 h 3 m -6,329.9999 h 7 m -7,-33 h 7 m -7,-33 h 7 m -7,-33 h 7 m -7,-33 h 7 m -7,-33 h 7 m -7,-33 h 7 m -7,-33 h 7 m -7,-32.9999 h 7 m -7,-33 h 7 m -7,-33 h 7"
           stroke="#000000"
           stroke-linejoin="round"
           stroke-miterlimit="10"
           fill="none"
           id="path6" />
      </g>
      <g
         id="g8">
        <path
           d="m 1119.5,261.5 h 870"
           stroke="#000000"
           stroke-linejoin="round"
           stroke-miterlimit="10"
           fill="none"
           fill-rule="evenodd"
           id="path7" />
      </g>
      <g
         id="g9">
        <path
           d="m 1119.5,259.5 v 2 m 18,-2 v 2 m 17,-2 v 2 m 18,-2 v 2 m 17,-2 v 2 m 17,-2 v 2 m 18,-2 v 2 m 17,-2 v 2 m 18,-2 v 2 m 17,-2 v 2 m 17,-2 v 2 m 18,-2 v 2 m 17,-2 v 2 m 18,-2 v 2 m 17,-2 v 2 m 17,-2 v 2 m 18,-2 v 2 m 17,-2 v 2 m 18,-2 v 2 m 17,-2 v 2 m 17,-2 v 2 m 18,-2 v 2 m 17,-2 v 2 m 18,-2 v 2 m 17,-2 v 2 m 17,-2 v 2 m 18,-2 v 2 m 17,-2 v 2 m 18,-2 v 2 m 17,-2 v 2 m 17,-2 v 2 m 18,-2 v 2 m 17,-2 v 2 m 17,-2 v 2 m 18,-2 v 2 m 17,-2 v 2 m 18,-2 v 2 m 17,-2 v 2 m 17,-2 v 2 m 18,-2 v 2 m 17,-2 v 2 m 18,-2 v 2 m 17,-2 v 2 m 17,-2 v 2 m 18,-2 v 2 m 17,-2 v 2 m 18,-2 v 2 m 17,-2 v 2 m 17,-2 v 2 m 18,-2 v 2 m 17,-2 v 2 m -870,-3 v 7 m 87,-7 v 7 m 87,-7 v 7 m 87,-7 v 7 m 87,-7 v 7 m 87,-7 v 7 m 87,-7 v 7 m 87,-7 v 7 m 87,-7 v 7 m 87,-7 v 7 m 87,-7 v 7"
           stroke="#000000"
           stroke-linejoin="round"
           stroke-miterlimit="10"
           fill="none"
           id="path8" />
      </g>
      <g
         id="g10">
        <path
           d="m 1120,233 1,-11 1,-7 1,-9 v -9 l 1,-11 1,-13 1,-14 1,-16 1,-17 1,-17 1,-17 V 77 l 1,-14 1,-10 1,-7 1,-4 1,1 1,6 1,9 v 12 l 1,16 1,18 1,19 1,20 1,19 1,18 v 16 l 1,15 1,12 1,10 1,8 1,6 1,5 1,4 v 3 l 1,3 1,1 1,1 1,1 1,-1 1,-1 1,-2 v -3 l 1,-3 1,-3 1,-4 1,-5 1,-4 1,-5 v -6 l 1,-7 1,-8 1,-9 1,-10 1,-13 1,-13 1,-16 v -17 l 1,-17 1,-18 1,-17 1,-16 1,-13 1,-11 1,-7 v -4 l 1,1 1,5 1,8 1,12 1,15 1,16 v 18 l 1,19 1,18 1,16 1,16 1,14 1,11 1,10 v 8 l 1,8 1,6 1,6 1,5 1,5 1,3 1,2 v 1 l 1,-1 1,-1 1,-2 1,-3 1,-3 1,-4 v -4 l 1,-3 1,-4 1,-4 1,-5 1,-5 1,-6 1,-8 v -8 l 1,-11 1,-13 1,-14 1,-15 1,-17 1,-18 1,-16 V 75 l 1,-13 1,-10 1,-6 1,-3 1,2 1,6 v 11 l 1,14 1,17 1,19 1,20 1,21 1,20 1,20 v 18 l 1,16 1,13 1,12 1,9 1,8 1,5 1,3 v 1 l 1,-1 1,-2 1,-4 1,-4 1,-5 1,-4 v -5 l 1,-4 1,-4 1,-3 1,-4 1,-3 1,-3 1,-3 v -3 l 1,-4 1,-5 1,-6 1,-8 1,-10 1,-11 1,-14 v -15 l 1,-16 1,-17 1,-16 1,-15 1,-12 1,-10 v -7 l 1,-2 1,2 1,7 1,10 1,14 1,17 1,19 v 21 l 1,21 1,21 1,20 1,18 1,16 1,14 1,11 v 8 l 1,6 1,3 1,1 1,-1 1,-3 1,-3 v -4 l 1,-5 1,-5 1,-4 1,-4 1,-4 1,-4 1,-3 v -3 l 1,-3 1,-3 1,-2 1,-3 1,-4 1,-4 1,-6 v -7 l 1,-9 1,-10 1,-13 1,-15 1,-16 1,-16 v -16 l 1,-15 1,-13 1,-11 1,-7 1,-4 1,1 1,6 v 9 l 1,14 1,16 1,19 1,20 1,21 1,21 1,21 v 19 l 1,18 1,15 1,12 1,9 1,7 1,5 v 1 h 1 l 1,-1 1,-4 1,-4 1,-5 1,-6 1,-5 v -6 l 1,-5 1,-5 1,-5 1,-4 1,-3 1,-4 1,-3 v -3 l 1,-3 1,-5 1,-5 1,-6 1,-9 1,-10 v -11 l 1,-14 1,-15 1,-16 1,-16 1,-14 1,-14 1,-10 v -8 l 1,-4 1,1 1,4 1,9 1,12 1,15 1,17 v 19 l 1,20 1,20 1,19 1,18 1,16 1,14 1,11 v 8 l 1,6 1,4 1,1 1,-1 1,-1 1,-4 v -4 l 1,-4 1,-5 1,-5 1,-5 1,-5 1,-4 1,-4 v -3 l 1,-3 1,-3 1,-3 1,-3 1,-4 1,-4 1,-6 v -6 l 1,-9 1,-10 1,-12 1,-13 1,-15 1,-16 v -15 l 1,-14 1,-13 1,-10 1,-6 1,-3 1,1 1,5 v 9 l 1,13 1,16 1,18 1,20 1,20 1,21 1,20 v 18 l 1,17 1,14 1,12 1,9 1,6 1,3 v 1 l 1,-1 1,-2 1,-4 1,-5 1,-6 1,-6 1,-5 v -6 l 1,-5 1,-4 1,-4 1,-4 1,-3 1,-3 1,-3 v -3 l 1,-4 1,-4 1,-6 1,-6 1,-9 1,-11 v -12 l 1,-14 1,-16 1,-16 1,-17 1,-15 1,-14 1,-12 v -8 l 1,-4 1,-1 1,4 1,8 1,12 1,15 1,17 v 19 l 1,21 1,20 1,19 1,19 1,17 1,14 v 13 l 1,9 1,8 1,5 1,3 1,2 h 1 l 1,-2 v -3 l 1,-4 1,-5 1,-5 1,-5 1,-6 1,-5 1,-4 v -5 l 1,-4 1,-4 1,-3 1,-4 1,-4 1,-5 v -6 l 1,-8 1,-9 1,-11 1,-12 1,-14 1,-16 1,-15 v -16 l 1,-15 1,-13 1,-11 1,-7 1,-4 1,1 1,4 v 9 l 1,12 1,15 1,17 1,19 1,20 1,19 v 19 l 1,17 1,15 1,13 1,10 1,8 1,5 1,3 v 1 l 1,-1 1,-1 1,-2 1,-3 1,-3 1,-3 1,-4 v -3 l 1,-3 1,-3 1,-3 1,-3 1,-3 1,-4 v -3 l 1,-4 1,-4 1,-6 1,-7 1,-8 1,-10 1,-11 v -14 l 1,-14 1,-16 1,-16 1,-16 1,-15 1,-13 1,-11 v -7 l 1,-3 1,1 1,6 1,9 1,13 1,17 v 19 l 1,20 1,21 1,22 1,21 1,19 1,18 1,16 v 12 l 1,10 1,7 1,4 1,2 h 1 l 1,-2 1,-3 v -5 l 1,-5 1,-5 1,-5 1,-6 1,-4 1,-5 v -4 l 1,-4 1,-4 1,-3 1,-4 1,-3 1,-4 1,-5 v -7 l 1,-7 1,-9 1,-11 1,-12 1,-15 1,-15 1,-16 v -16 l 1,-14 1,-14 1,-10 1,-7 1,-4 h 1 v 5 l 1,8 1,12 1,15 1,17 1,19 1,19 1,20 v 18 l 1,17 1,15 1,13 1,10 1,8 1,5 1,3 v 1 h 1 l 1,-1 1,-2 1,-2 1,-3 1,-4 v -3 l 1,-4 1,-3 1,-3 1,-3 1,-4 1,-3 1,-3 v -3 l 1,-4 1,-5 1,-6 1,-7 1,-9 1,-10 1,-13 v -14 l 1,-16 1,-17 1,-18 1,-17 1,-16 1,-14 V 55 l 1,-8 1,-4 1,1 1,5 1,10 1,13 1,17 v 19 l 1,21 1,22 1,23 1,21 1,21 1,18 1,16 v 14 l 1,11 1,9 1,6 1,4 1,2 1,-1 v -2 l 1,-3 1,-4 1,-5 1,-6 1,-5 1,-6 1,-6 v -5 l 1,-5 1,-4 1,-5 1,-4 1,-5 1,-5 1,-6 v -7 l 1,-8 1,-10 1,-12 1,-14 1,-16 1,-16 v -17 l 1,-17 1,-15 1,-14 1,-11 1,-8 1,-4 h 1 v 5 l 1,8 1,12 1,15 1,18 1,18 1,20 1,19 v 18 l 1,16 1,15 1,12 1,10 1,7 1,6 v 3 l 1,3 h 1 1 l 1,-1 1,-1 1,-2 1,-2 v -2 l 1,-2 1,-2 1,-2 1,-2 1,-3 1,-3 1,-3 v -4 l 1,-5 1,-5 1,-7 1,-8 1,-10 1,-12 v -14 l 1,-15 1,-17 1,-18 1,-18 1,-17 1,-17 1,-14 V 38 l 1,-7 1,-3 1,2 1,6 1,11 1,14 1,18 v 20 l 1,22 1,23 1,22 1,21 1,21 1,18 v 16 l 1,13 1,12 1,9 1,7 1,6 1,3 h 1 v -1 l 1,-2 1,-4 1,-6 1,-5 1,-7 1,-6 1,-6 v -5 l 1,-5 1,-5 1,-5 1,-4 1,-5 1,-5 v -6 l 1,-7 1,-9 1,-10 1,-11 1,-14 1,-15 1,-16 v -16 l 1,-16 1,-16 1,-13 1,-10 1,-7 1,-3 1,1 v 5 l 1,9 1,12 1,15 1,17 1,19 1,19 1,19 v 17 l 1,16 1,14 1,11 1,9 1,7 1,4 v 3 l 1,1 h 1 l 1,-1 1,-2 1,-1 1,-2 1,-2 v -2 l 1,-1 1,-2 1,-2 1,-1 1,-3 1,-2 1,-3 v -4 l 1,-4 1,-6 1,-6 1,-8 1,-10 1,-11 v -13 l 1,-15 1,-16 1,-17 1,-18 1,-16 1,-16 1,-13 V 43 l 1,-7 1,-2 1,2 1,6 1,11 1,15 1,18 v 20 l 1,22 1,23 1,23 1,21 1,20 1,18 v 16 l 1,14 1,12 1,10 1,7 1,6 1,3 1,1 v -2 l 1,-3 1,-5 1,-6 1,-7 1,-7 1,-6 1,-6 v -6 l 1,-5 1,-5 1,-5 1,-4 1,-4 1,-5 v -6 l 1,-6 1,-9 1,-10 1,-12 1,-13 1,-16 1,-16 v -17 l 1,-16 1,-15 1,-14 1,-11 1,-7 1,-3 h 1 v 5 l 1,8 1,12 1,15 1,17 1,19 1,19 v 19 l 1,18 1,17 1,15 1,12 1,11 1,8 1,6 v 4 l 1,2 1,1 1,-1 1,-3 1,-3 1,-4 1,-3 v -4 l 1,-4 1,-3 1,-3 1,-2 1,-2 1,-3 v -2 l 1,-3 1,-3 1,-5 1,-5 1,-7 1,-8 1,-10 v -12 l 1,-13 1,-15 1,-15 1,-16 1,-16 1,-15 1,-12 V 61 l 1,-6 1,-3 1,2 1,6 1,10 1,13 v 17 l 1,19 1,20 1,21 1,21 1,20 1,19 1,16 v 14 l 1,12 1,9 1,7 1,5 1,3 1,1 1,-1 v -2 l 1,-4 1,-5 1,-5 1,-5 1,-5 1,-5 v -4 l 1,-4 1,-4 1,-3 1,-4 1,-3 1,-4 1,-4 v -5 l 1,-6 1,-8 1,-10 1,-12 1,-14 1,-16 1,-16 v -17 l 1,-17 1,-15 1,-14 1,-11 1,-8 1,-3 v 0 l 1,5 1,8 1,13 1,15 1,17 1,19 1,19 v 20 l 1,19 1,17 1,16 1,14 1,12 1,9 1,8 v 5 l 1,4 1,2 h 1 l 1,-1 1,-3 1,-3 v -4 l 1,-5 1,-4 1,-4 1,-4 1,-4 1,-3 1,-3 v -3 l 1,-4 1,-3 1,-4 1,-5 1,-6 1,-8 1,-9 v -11 l 1,-12 1,-15 1,-15 1,-16 1,-15 1,-15 V 84 l 1,-10 1,-7 1,-2 1,2 1,5 1,10 1,14 v 16 l 1,18 1,20 1,21 1,20 1,19 1,18 1,15 v 13 l 1,10 1,8 1,5 1,3 h 1 1 v -3 l 1,-3 1,-3 1,-4 1,-5 1,-4 1,-4 1,-3 v -4 l 1,-3 1,-3 1,-3 1,-3 1,-2"
           stroke="#e97132"
           stroke-width="2"
           stroke-linecap="round"
           stroke-linejoin="round"
           stroke-miterlimit="10"
           fill="none"
           id="path9" />
      </g>
      <g
         id="g11">
        <path
           d="m 1120,234 1,-11 1,-7 1,-9 v -9 l 1,-11 1,-13 1,-14 1,-16 1,-16 1,-17 1,-16 V 79 l 1,-13 1,-10 1,-7 1,-3 1,1 1,6 1,9 v 13 l 1,16 1,18 1,19 1,20 1,20 1,19 v 16 l 1,16 1,12 1,10 1,8 1,6 1,4 1,3 v 2 l 1,1 1,1 h 1 1 l 1,-1 1,-2 1,-2 v -3 l 1,-3 1,-4 1,-4 1,-4 1,-4 1,-5 v -6 l 1,-6 1,-8 1,-9 1,-10 1,-12 1,-14 1,-15 v -16 l 1,-17 1,-17 1,-17 1,-16 1,-13 1,-10 1,-8 v -3 l 1,1 1,5 1,8 1,12 1,15 1,17 v 18 l 1,18 1,19 1,17 1,16 1,14 1,11 1,10 v 9 l 1,6 1,6 1,4 1,4 1,4 1,2 1,2 v 0 h 1 l 1,-2 1,-2 1,-3 1,-3 1,-3 v -4 l 1,-4 1,-3 1,-5 1,-4 1,-5 1,-6 1,-8 v -9 l 1,-10 1,-12 1,-14 1,-16 1,-16 1,-17 1,-17 V 78 l 1,-13 1,-10 1,-6 1,-3 1,2 1,6 v 10 l 1,14 1,17 1,19 1,20 1,20 1,20 1,20 v 18 l 1,16 1,13 1,12 1,9 1,7 1,5 1,3 v 1 l 1,-1 1,-2 1,-3 1,-4 1,-5 1,-4 v -5 l 1,-4 1,-4 1,-3 1,-4 1,-3 1,-3 1,-3 v -3 l 1,-4 1,-5 1,-7 1,-7 1,-10 1,-11 1,-13 v -15 l 1,-16 1,-17 1,-16 1,-14 1,-13 1,-10 v -6 l 1,-3 1,2 1,6 1,11 1,13 1,17 1,19 v 20 l 1,20 1,21 1,19 1,19 1,15 1,14 1,11 v 8 l 1,6 1,3 1,1 1,-1 1,-1 1,-4 v -3 l 1,-5 1,-4 1,-5 1,-4 1,-4 1,-4 1,-3 v -3 l 1,-3 1,-3 1,-3 1,-3 1,-3 1,-5 1,-5 v -8 l 1,-8 1,-11 1,-13 1,-14 1,-15 1,-16 v -16 l 1,-15 1,-13 1,-10 1,-7 1,-3 1,1 1,5 v 10 l 1,13 1,16 1,18 1,20 1,21 1,21 1,19 v 19 l 1,17 1,14 1,12 1,9 1,6 1,3 v 2 l 1,-1 1,-2 1,-3 1,-5 1,-4 1,-6 1,-5 v -5 l 1,-5 1,-4 1,-4 1,-4 1,-3 1,-3 1,-3 v -3 l 1,-4 1,-4 1,-5 1,-7 1,-8 1,-10 v -12 l 1,-13 1,-15 1,-16 1,-15 1,-14 1,-13 1,-10 v -8 l 1,-3 1,1 1,4 1,9 1,12 1,15 1,18 v 19 l 1,20 1,20 1,19 1,17 1,16 1,14 1,11 v 8 l 1,6 1,3 1,1 h 1 l 1,-2 1,-3 v -4 l 1,-5 1,-4 1,-5 1,-5 1,-4 1,-5 1,-3 v -4 l 1,-3 1,-3 1,-3 1,-3 1,-4 1,-4 1,-6 v -6 l 1,-9 1,-10 1,-11 1,-14 1,-14 1,-15 v -16 l 1,-14 1,-12 1,-10 1,-7 1,-3 1,1 1,5 v 9 l 1,12 1,16 1,17 1,19 1,20 1,20 1,20 v 18 l 1,16 1,14 1,11 1,8 1,6 1,3 v 1 l 1,-1 1,-2 1,-4 1,-5 1,-4 1,-6 1,-5 v -5 l 1,-4 1,-5 1,-3 1,-4 1,-3 1,-3 1,-3 v -3 l 1,-4 1,-4 1,-5 1,-7 1,-8 1,-10 v -12 l 1,-13 1,-14 1,-15 1,-15 1,-14 1,-13 1,-10 v -7 l 1,-3 h 1 l 1,5 1,9 1,12 1,15 1,17 v 19 l 1,20 1,19 1,20 1,17 1,16 1,14 v 11 l 1,9 1,5 1,4 1,1 h 1 l 1,-2 1,-3 v -4 l 1,-5 1,-5 1,-5 1,-4 1,-5 1,-4 1,-4 v -4 l 1,-3 1,-3 1,-4 1,-3 1,-4 1,-4 v -6 l 1,-6 1,-9 1,-10 1,-12 1,-13 1,-14 1,-16 v -15 l 1,-14 1,-12 1,-11 1,-7 1,-3 h 1 l 1,4 v 9 l 1,11 1,15 1,17 1,19 1,19 1,20 v 18 l 1,18 1,16 1,13 1,11 1,9 1,5 1,4 v 1 h 1 l 1,-2 1,-3 1,-4 1,-4 1,-4 1,-5 v -5 l 1,-4 1,-4 1,-4 1,-3 1,-4 1,-3 v -3 l 1,-4 1,-4 1,-5 1,-6 1,-7 1,-9 1,-11 v -12 l 1,-14 1,-15 1,-16 1,-15 1,-15 1,-13 1,-10 v -7 l 1,-4 1,1 1,5 1,8 1,13 1,15 v 18 l 1,19 1,20 1,21 1,20 1,19 1,17 1,15 v 12 l 1,10 1,7 1,4 1,2 h 1 l 1,-1 1,-3 v -5 l 1,-5 1,-5 1,-5 1,-6 1,-5 1,-4 v -5 l 1,-4 1,-3 1,-4 1,-3 1,-4 1,-4 1,-5 v -6 l 1,-7 1,-9 1,-11 1,-13 1,-14 1,-15 1,-16 v -16 l 1,-15 1,-13 1,-11 1,-8 1,-4 h 1 v 4 l 1,8 1,12 1,15 1,17 1,18 1,20 1,19 v 19 l 1,17 1,16 1,14 1,11 1,8 1,7 1,4 v 2 l 1,1 1,-1 1,-1 1,-3 1,-3 1,-4 v -4 l 1,-4 1,-4 1,-4 1,-4 1,-4 1,-3 1,-4 v -4 l 1,-4 1,-4 1,-6 1,-7 1,-8 1,-10 1,-12 v -14 l 1,-15 1,-16 1,-17 1,-16 1,-16 1,-13 V 65 l 1,-8 1,-3 1,1 1,5 1,9 1,13 1,16 v 19 l 1,20 1,22 1,22 1,20 1,20 1,18 1,16 v 13 l 1,11 1,8 1,5 1,4 1,1 1,-1 v -3 l 1,-3 1,-5 1,-5 1,-6 1,-5 1,-6 1,-5 v -4 l 1,-5 1,-4 1,-4 1,-4 1,-4 1,-5 1,-5 v -7 l 1,-8 1,-9 1,-11 1,-14 1,-14 1,-16 v -17 l 1,-16 1,-15 1,-14 1,-11 1,-7 1,-4 h 1 v 5 l 1,8 1,12 1,15 1,17 1,19 1,19 1,20 v 18 l 1,17 1,15 1,13 1,10 1,8 1,6 v 4 l 1,2 1,1 1,-1 1,-1 1,-2 1,-3 1,-3 v -3 l 1,-3 1,-4 1,-3 1,-3 1,-3 1,-3 1,-3 v -4 l 1,-4 1,-5 1,-6 1,-8 1,-9 1,-11 v -12 l 1,-15 1,-16 1,-17 1,-17 1,-17 1,-16 1,-14 V 52 l 1,-7 1,-3 1,1 1,5 1,10 1,14 1,17 v 19 l 1,22 1,22 1,22 1,21 1,20 1,18 v 16 l 1,14 1,11 1,9 1,6 1,4 1,2 1,-1 v -2 l 1,-3 1,-4 1,-5 1,-6 1,-6 1,-5 1,-6 v -5 l 1,-5 1,-4 1,-4 1,-5 1,-4 1,-5 v -6 l 1,-7 1,-8 1,-10 1,-12 1,-13 1,-15 1,-16 v -17 l 1,-16 1,-15 1,-14 1,-10 1,-8 1,-3 h 1 v 5 l 1,8 1,12 1,15 1,18 1,18 1,19 1,19 v 18 l 1,17 1,14 1,12 1,10 1,7 1,5 v 3 l 1,2 1,1 h 1 l 1,-2 1,-1 1,-2 1,-2 v -3 l 1,-2 1,-2 1,-3 1,-2 1,-3 1,-3 1,-3 v -3 l 1,-5 1,-5 1,-6 1,-8 1,-10 1,-11 v -13 l 1,-14 1,-16 1,-18 1,-17 1,-17 1,-16 1,-13 V 47 l 1,-7 1,-3 1,2 1,6 1,10 1,14 1,17 v 20 l 1,22 1,22 1,22 1,22 1,20 1,18 v 16 l 1,14 1,11 1,9 1,7 1,5 1,2 h 1 v -2 l 1,-3 1,-5 1,-5 1,-6 1,-7 1,-6 1,-5 v -6 l 1,-5 1,-4 1,-4 1,-5 1,-4 1,-5 v -6 l 1,-6 1,-9 1,-9 1,-12 1,-13 1,-15 1,-16 v -16 l 1,-17 1,-15 1,-13 1,-11 1,-7 1,-4 1,1 v 4 l 1,9 1,12 1,14 1,17 1,18 1,19 v 18 l 1,17 1,16 1,13 1,12 1,9 1,7 1,5 v 3 l 1,2 1,1 1,-1 h 1 l 1,-2 1,-1 1,-2 v -2 l 1,-2 1,-2 1,-2 1,-2 1,-2 1,-3 v -3 l 1,-4 1,-4 1,-5 1,-7 1,-8 1,-9 1,-11 v -13 l 1,-15 1,-16 1,-17 1,-18 1,-16 1,-16 1,-13 V 45 l 1,-7 1,-3 1,2 1,6 1,10 1,14 v 18 l 1,19 1,22 1,22 1,22 1,21 1,20 1,18 v 16 l 1,13 1,12 1,9 1,7 1,5 1,3 1,1 v -2 l 1,-3 1,-4 1,-6 1,-6 1,-6 1,-6 v -6 l 1,-5 1,-5 1,-5 1,-4 1,-5 1,-4 1,-5 v -6 l 1,-7 1,-8 1,-10 1,-11 1,-14 1,-14 1,-16 v -17 l 1,-16 1,-15 1,-14 1,-10 1,-7 1,-4 v 1 l 1,4 1,9 1,11 1,15 1,16 1,18 1,19 v 17 l 1,17 1,16 1,13 1,11 1,9 1,7 1,5 v 4 l 1,2 1,1 h 1 l 1,-1 1,-1 1,-1 v -2 l 1,-2 1,-2 1,-1 1,-2 1,-2 1,-3 1,-2 v -3 l 1,-4 1,-4 1,-5 1,-7 1,-8 1,-9 1,-11 v -13 l 1,-15 1,-16 1,-16 1,-18 1,-16 1,-16 V 56 l 1,-10 1,-7 1,-3 1,2 1,6 1,10 1,14 v 18 l 1,19 1,22 1,22 1,21 1,21 1,20 1,18 v 15 l 1,14 1,11 1,9 1,7 1,5 1,3 v 1 l 1,-2 1,-3 1,-5 1,-5 1,-6 1,-6 1,-6 v -6 l 1,-5 1,-5 1,-5 1,-4 1,-4"
           stroke="#196b24"
           stroke-width="2"
           stroke-linecap="round"
           stroke-linejoin="round"
           stroke-miterlimit="10"
           fill="none"
           id="path10" />
      </g>
      <g
         id="g12">
        <path
           d="m 1120,234 1,-11 1,-7 1,-9 v -10 l 1,-11 1,-12 1,-14 1,-16 1,-17 1,-17 1,-16 V 78 l 1,-13 1,-10 1,-7 1,-3 1,2 1,6 1,9 v 14 l 1,16 1,18 1,20 1,21 1,19 1,19 v 17 l 1,16 1,12 1,10 1,8 1,5 1,4 1,3 v 1 l 1,1 1,1 h 1 l 1,-1 1,-1 1,-2 1,-2 v -3 l 1,-3 1,-4 1,-4 1,-4 1,-5 1,-5 v -6 l 1,-7 1,-7 1,-10 1,-10 1,-12 1,-14 1,-16 v -16 l 1,-18 1,-17 1,-17 1,-16 1,-13 1,-11 1,-7 v -3 l 1,1 1,5 1,10 1,12 1,15 1,17 v 19 l 1,19 1,19 1,17 1,17 1,14 1,12 1,10 v 8 l 1,7 1,6 1,5 1,4 1,3 1,3 1,1 v 0 h 1 l 1,-2 1,-3 1,-3 1,-3 1,-4 v -4 l 1,-4 1,-4 1,-4 1,-5 1,-5 1,-7 1,-7 v -9 l 1,-11 1,-12 1,-15 1,-15 1,-17 1,-17 1,-16 V 75 l 1,-13 1,-10 1,-6 1,-2 1,2 1,7 v 11 l 1,14 1,18 1,19 1,21 1,21 1,21 1,20 v 18 l 1,16 1,14 1,12 1,9 1,7 1,5 1,2 v 0 l 1,-1 1,-3 1,-4 1,-5 1,-5 1,-5 v -4 l 1,-5 1,-3 1,-4 1,-3 1,-4 1,-3 1,-3 v -4 l 1,-4 1,-5 1,-7 1,-8 1,-9 1,-12 1,-13 v -15 l 1,-16 1,-17 1,-16 1,-15 1,-13 1,-10 v -6 l 1,-2 1,3 1,7 1,11 1,15 1,17 1,20 v 21 l 1,21 1,22 1,20 1,19 1,16 1,14 1,11 v 8 l 1,5 1,3 h 1 l 1,-1 1,-3 1,-3 v -5 l 1,-5 1,-5 1,-4 1,-5 1,-4 1,-4 1,-3 v -4 l 1,-3 1,-2 1,-3 1,-4 1,-3 1,-5 1,-6 v -7 l 1,-9 1,-11 1,-13 1,-14 1,-16 1,-16 v -16 l 1,-15 1,-14 1,-10 1,-7 1,-3 1,2 1,6 v 10 l 1,13 1,17 1,19 1,20 1,22 1,21 1,21 v 19 l 1,17 1,15 1,12 1,9 1,6 1,3 v 1 h 1 l 1,-2 1,-4 1,-5 1,-5 1,-5 1,-6 v -5 l 1,-5 1,-5 1,-5 1,-3 1,-4 1,-3 1,-3 v -4 l 1,-3 1,-5 1,-5 1,-7 1,-8 1,-10 v -12 l 1,-14 1,-14 1,-16 1,-16 1,-14 1,-13 1,-10 v -7 l 1,-4 1,1 1,6 1,9 1,12 1,15 1,18 v 20 l 1,20 1,20 1,19 1,18 1,15 1,14 1,10 v 8 l 1,5 1,2 1,1 1,-2 1,-2 1,-4 v -4 l 1,-5 1,-5 1,-5 1,-4 1,-4 1,-4 1,-4 v -3 l 1,-3 1,-3 1,-3 1,-3 1,-4 1,-5 1,-6 v -7 l 1,-9 1,-10 1,-13 1,-14 1,-15 1,-15 v -16 l 1,-14 1,-12 1,-11 1,-6 1,-3 1,2 1,5 v 10 l 1,13 1,17 1,18 1,20 1,21 1,21 1,21 v 19 l 1,17 1,15 1,13 1,9 1,7 1,4 v 1 l 1,-1 1,-3 1,-4 1,-6 1,-6 1,-6 1,-6 v -6 l 1,-5 1,-5 1,-4 1,-4 1,-4 1,-3 1,-3 v -4 l 1,-4 1,-4 1,-6 1,-7 1,-9 1,-11 v -13 l 1,-15 1,-15 1,-17 1,-16 1,-16 1,-14 1,-11 v -8 l 1,-5 h 1 l 1,4 1,9 1,11 1,15 1,17 v 19 l 1,19 1,20 1,19 1,17 1,16 1,14 v 12 l 1,9 1,7 1,5 1,4 1,1 1,1 1,-1 v -2 l 1,-4 1,-3 1,-5 1,-5 1,-4 1,-5 1,-4 v -4 l 1,-4 1,-4 1,-3 1,-4 1,-5 1,-6 v -6 l 1,-8 1,-10 1,-11 1,-13 1,-15 1,-16 1,-16 v -16 l 1,-15 1,-14 1,-10 1,-7 1,-3 1,1 1,6 v 9 l 1,13 1,16 1,19 1,20 1,21 1,22 v 20 l 1,19 1,18 1,15 1,12 1,10 1,6 1,5 v 1 h 1 l 1,-2 1,-3 1,-5 1,-5 1,-5 1,-5 v -5 l 1,-5 1,-5 1,-4 1,-3 1,-4 1,-4 v -3 l 1,-4 1,-4 1,-5 1,-7 1,-8 1,-9 1,-11 v -13 l 1,-15 1,-15 1,-17 1,-16 1,-15 1,-13 1,-11 v -7 l 1,-3 1,1 1,5 1,10 1,12 1,16 v 18 l 1,19 1,20 1,20 1,19 1,17 1,16 1,13 v 10 l 1,7 1,6 1,3 1,2 h 1 l 1,-1 1,-1 v -3 l 1,-3 1,-3 1,-4 1,-4 1,-3 1,-4 v -4 l 1,-3 1,-4 1,-3 1,-4 1,-4 1,-5 1,-6 v -7 l 1,-8 1,-10 1,-12 1,-14 1,-15 1,-17 1,-16 v -17 l 1,-15 1,-14 1,-10 1,-7 1,-3 1,1 v 6 l 1,10 1,13 1,17 1,19 1,21 1,22 1,22 v 21 l 1,20 1,18 1,16 1,13 1,11 1,7 1,5 v 3 h 1 l 1,-1 1,-3 1,-5 1,-5 1,-5 v -6 l 1,-6 1,-5 1,-5 1,-5 1,-4 1,-4 1,-4 v -4 l 1,-4 1,-5 1,-5 1,-7 1,-8 1,-9 1,-12 v -13 l 1,-15 1,-17 1,-16 1,-17 1,-16 1,-13 V 68 l 1,-8 1,-4 1,1 1,5 1,8 1,13 1,15 v 17 l 1,19 1,20 1,20 1,18 1,17 1,15 1,13 v 10 l 1,8 1,6 1,4 1,2 1,1 h 1 v -2 l 1,-2 1,-2 1,-3 1,-3 1,-4 1,-3 1,-3 v -3 l 1,-4 1,-3 1,-3 1,-4 1,-5 1,-5 1,-7 v -8 l 1,-9 1,-12 1,-13 1,-15 1,-16 1,-18 v -18 l 1,-17 1,-17 1,-14 1,-11 1,-7 1,-3 1,1 v 6 l 1,11 1,14 1,18 1,20 1,22 1,22 1,23 v 22 l 1,21 1,18 1,16 1,14 1,12 1,8 v 7 l 1,4 1,2 h 1 l 1,-2 1,-3 1,-5 1,-5 v -5 l 1,-6 1,-6 1,-6 1,-5 1,-5 1,-5 1,-5 v -4 l 1,-5 1,-6 1,-6 1,-8 1,-8 1,-11 v -12 l 1,-14 1,-15 1,-17 1,-17 1,-16 1,-16 1,-13 V 58 l 1,-7 1,-3 1,1 1,5 1,10 1,12 1,16 v 18 l 1,19 1,20 1,19 1,18 1,17 1,14 v 12 l 1,9 1,7 1,4 1,3 1,1 h 1 1 v -2 l 1,-1 1,-2 1,-2 1,-2 1,-2 1,-2 1,-2 v -2 l 1,-3 1,-3 1,-3 1,-4 1,-5 1,-5 v -7 l 1,-9 1,-10 1,-12 1,-13 1,-15 1,-17 1,-17 V 95 l 1,-17 1,-15 1,-14 1,-11 1,-6 1,-3 1,3 v 6 l 1,12 1,15 1,19 1,20 1,23 1,23 1,22 v 22 l 1,21 1,19 1,16 1,14 1,12 1,10 v 8 l 1,5 1,3 h 1 l 1,-2 1,-4 1,-5 1,-7 v -7 l 1,-7 1,-7 1,-6 1,-6 1,-5 1,-5 1,-5 v -4 l 1,-5 1,-5 1,-6 1,-7 1,-8 1,-10 v -12 l 1,-14 1,-15 1,-16 1,-16 1,-16 1,-15 1,-14 V 63 l 1,-7 1,-3 1,1 1,5 1,9 1,12 1,15 v 17 l 1,18 1,18 1,18 1,16 1,15 1,13 v 11 l 1,8 1,6 1,5 1,3 1,1 1,1 h 1 v -1 l 1,-1 1,-2 1,-1 1,-2 1,-1 1,-2 1,-1 v -2 l 1,-2 1,-3 1,-3 1,-4 1,-4 1,-6 v -7 l 1,-8 1,-10 1,-12 1,-13 1,-15 1,-16 1,-17 V 95 l 1,-17 1,-15 1,-14 1,-10 1,-7 1,-2 1,2 v 7 l 1,11 1,14 1,19 1,20 1,22 1,22 v 23 l 1,21 1,20 1,18 1,16 1,14 1,11 1,10 v 7 l 1,6 1,3 h 1 l 1,-1 1,-4 1,-5 1,-6 v -7 l 1,-6 1,-7 1,-6 1,-5 1,-6 1,-4 v -5 l 1,-4 1,-5 1,-5 1,-6 1,-7 1,-8 1,-10 v -12 l 1,-14 1,-15 1,-16 1,-16 1,-16 1,-15 1,-13 V 62 l 1,-7 1,-3 1,2 1,5 1,9 1,12 v 15 l 1,17 1,18 1,18 1,17 1,17 1,15 1,13 v 10 l 1,9 1,6 1,5 1,3 1,2 1,1 h 1 v -1 l 1,-2 1,-1 1,-2 1,-2 1,-2 1,-1 v -2 l 1,-2 1,-2 1,-2 1,-3 1,-3 1,-5 1,-5 v -6 l 1,-8 1,-10 1,-11 1,-13 1,-14 1,-16 1,-16 v -17 l 1,-16 1,-15 1,-13 1,-10 1,-7 1,-2 v 2 l 1,7 1,10 1,15 1,18 1,20 1,21 1,22 v 22 l 1,21 1,19 1,18 1,15 1,13 1,11 1,9 v 6 l 1,5 1,2 1,-1 1,-2 1,-4 1,-5 v -6 l 1,-6 1,-7 1,-5 1,-6 1,-5 1,-4 1,-4 v -4 l 1,-4 1,-4 1,-5 1,-5 1,-7 1,-9 1,-10 v -12 l 1,-13 1,-15 1,-17 1,-16 1,-16 1,-15 V 73 l 1,-10 1,-7 1,-3 1,1 1,6 1,9 1,12 v 15 l 1,17 1,18 1,19 1,18 1,17 1,16 1,14 v 12 l 1,10 1,8 1,6 1,5 1,2 1,2 v 0 l 1,-1 1,-3 1,-2 1,-3 1,-4 1,-3 1,-3 v -3 l 1,-2 1,-3 1,-2 1,-3 1,-3"
           stroke="#0f9ed5"
           stroke-width="2"
           stroke-linecap="round"
           stroke-linejoin="round"
           stroke-miterlimit="10"
           fill="none"
           id="path11" />
      </g>
      <g
         id="g13">
        <path
           d="m 1120,233 1,-11 1,-7 1,-9 v -9 l 1,-12 1,-12 1,-15 1,-15 1,-17 1,-17 1,-16 V 77 l 1,-13 1,-10 1,-7 1,-3 1,2 1,5 1,10 v 13 l 1,16 1,18 1,20 1,20 1,20 1,19 v 17 l 1,15 1,12 1,10 1,8 1,6 1,5 1,3 v 2 l 1,2 1,1 h 1 l 1,-1 1,-1 1,-2 1,-2 v -3 l 1,-4 1,-3 1,-4 1,-5 1,-4 1,-6 v -6 l 1,-6 1,-8 1,-9 1,-11 1,-12 1,-13 1,-16 v -16 l 1,-17 1,-18 1,-16 1,-16 1,-13 1,-11 1,-7 v -3 l 1,1 1,5 1,9 1,12 1,15 1,16 v 18 l 1,19 1,18 1,18 1,16 1,13 1,12 1,10 v 9 l 1,7 1,6 1,5 1,5 1,3 1,3 1,2 v 0 l 1,-1 1,-2 1,-2 1,-3 1,-3 1,-4 v -4 l 1,-4 1,-4 1,-4 1,-5 1,-5 1,-7 1,-7 v -9 l 1,-11 1,-13 1,-14 1,-15 1,-17 1,-17 1,-16 V 75 l 1,-13 1,-10 1,-6 1,-2 1,2 1,7 v 11 l 1,14 1,17 1,19 1,20 1,21 1,21 1,20 v 18 l 1,16 1,14 1,11 1,10 1,6 1,5 1,2 v 1 l 1,-1 1,-3 1,-4 1,-4 1,-5 1,-4 v -5 l 1,-4 1,-4 1,-3 1,-4 1,-3 1,-3 1,-3 v -4 l 1,-4 1,-6 1,-6 1,-8 1,-9 1,-12 1,-13 v -15 l 1,-16 1,-16 1,-16 1,-14 1,-13 1,-10 v -6 l 1,-2 1,2 1,7 1,11 1,14 1,17 1,19 v 20 l 1,21 1,21 1,20 1,18 1,16 1,13 1,11 v 8 l 1,6 1,3 1,1 1,-1 1,-2 1,-3 v -4 l 1,-5 1,-4 1,-5 1,-4 1,-4 1,-4 1,-4 v -3 l 1,-3 1,-3 1,-3 1,-3 1,-4 1,-5 1,-6 v -7 l 1,-9 1,-11 1,-13 1,-14 1,-16 1,-16 v -16 l 1,-14 1,-14 1,-10 1,-7 1,-2 1,1 1,6 v 10 l 1,13 1,17 1,18 1,21 1,21 1,21 1,20 v 19 l 1,17 1,14 1,11 1,9 1,6 1,4 v 1 l 1,-1 1,-2 1,-4 1,-4 1,-5 1,-5 1,-5 v -5 l 1,-5 1,-5 1,-4 1,-4 1,-3 1,-3 1,-3 v -4 l 1,-3 1,-5 1,-6 1,-6 1,-9 1,-10 v -12 l 1,-13 1,-15 1,-16 1,-15 1,-14 1,-13 1,-10 v -7 l 1,-3 1,1 1,5 1,8 1,13 1,15 1,17 v 19 l 1,20 1,20 1,19 1,17 1,16 1,13 1,11 v 7 l 1,6 1,3 h 1 1 l 1,-2 1,-4 v -3 l 1,-5 1,-4 1,-5 1,-4 1,-4 1,-4 1,-4 v -3 l 1,-3 1,-3 1,-3 1,-4 1,-4 1,-5 1,-6 v -7 l 1,-9 1,-10 1,-13 1,-13 1,-15 1,-15 v -16 l 1,-14 1,-12 1,-10 1,-7 1,-3 1,1 1,6 v 9 l 1,13 1,16 1,18 1,20 1,21 1,20 1,20 v 19 l 1,17 1,14 1,12 1,9 1,7 1,3 v 2 l 1,-1 1,-2 1,-4 1,-5 1,-5 1,-6 1,-6 v -5 l 1,-5 1,-4 1,-5 1,-3 1,-4 1,-3 1,-4 v -3 l 1,-4 1,-5 1,-5 1,-7 1,-9 1,-11 v -12 l 1,-14 1,-15 1,-15 1,-16 1,-15 1,-13 1,-11 v -7 l 1,-4 1,1 1,4 1,8 1,12 1,15 1,17 v 18 l 1,19 1,20 1,18 1,18 1,15 1,14 v 10 l 1,9 1,6 1,4 1,3 1,1 1,-1 1,-2 v -2 l 1,-3 1,-4 1,-5 1,-4 1,-4 1,-5 1,-4 v -4 l 1,-3 1,-4 1,-3 1,-4 1,-5 1,-5 v -7 l 1,-8 1,-9 1,-11 1,-13 1,-15 1,-16 1,-16 v -16 l 1,-14 1,-14 1,-10 1,-7 1,-3 1,1 1,5 v 9 l 1,13 1,16 1,19 1,20 1,20 1,22 v 20 l 1,19 1,18 1,15 1,12 1,10 1,7 1,4 v 2 h 1 l 1,-1 1,-3 1,-5 1,-5 1,-5 1,-5 v -6 l 1,-5 1,-4 1,-5 1,-4 1,-3 1,-4 v -3 l 1,-4 1,-5 1,-5 1,-6 1,-8 1,-9 1,-11 v -13 l 1,-14 1,-15 1,-16 1,-16 1,-15 1,-13 1,-11 v -7 l 1,-3 1,1 1,5 1,8 1,13 1,15 v 18 l 1,19 1,20 1,20 1,19 1,18 1,16 1,13 v 11 l 1,8 1,6 1,4 1,1 1,1 1,-1 1,-2 v -3 l 1,-3 1,-4 1,-5 1,-4 1,-4 1,-4 v -4 l 1,-3 1,-4 1,-4 1,-3 1,-4 1,-5 1,-6 v -6 l 1,-9 1,-9 1,-12 1,-13 1,-15 1,-16 1,-17 v -16 l 1,-15 1,-13 1,-11 1,-6 1,-3 1,1 v 5 l 1,10 1,13 1,17 1,19 1,20 1,22 1,21 v 21 l 1,20 1,18 1,15 1,13 1,10 1,8 1,5 v 2 h 1 l 1,-1 1,-4 1,-4 1,-5 1,-6 v -6 l 1,-5 1,-6 1,-5 1,-4 1,-4 1,-4 1,-4 v -4 l 1,-4 1,-4 1,-5 1,-6 1,-8 1,-9 1,-12 v -12 l 1,-15 1,-16 1,-16 1,-16 1,-15 1,-14 V 74 l 1,-7 1,-4 1,1 1,5 1,8 1,13 1,15 v 17 l 1,19 1,20 1,19 1,19 1,18 1,15 1,13 v 11 l 1,8 1,6 1,4 1,2 1,1 h 1 v -2 l 1,-2 1,-3 1,-4 1,-4 1,-4 1,-4 1,-4 v -3 l 1,-4 1,-3 1,-4 1,-4 1,-4 1,-5 1,-6 v -7 l 1,-8 1,-11 1,-12 1,-14 1,-15 1,-16 v -17 l 1,-17 1,-15 1,-14 1,-10 1,-7 1,-3 1,1 v 6 l 1,10 1,13 1,17 1,19 1,21 1,22 1,22 v 21 l 1,20 1,19 1,16 1,13 1,11 1,8 v 6 l 1,3 1,1 1,-2 1,-2 1,-5 1,-5 1,-5 v -6 l 1,-6 1,-6 1,-5 1,-5 1,-5 1,-4 1,-4 v -4 l 1,-4 1,-5 1,-6 1,-6 1,-8 1,-10 v -12 l 1,-13 1,-15 1,-16 1,-17 1,-16 1,-15 1,-14 V 68 l 1,-7 1,-4 1,1 1,4 1,9 1,12 1,15 v 17 l 1,19 1,20 1,19 1,18 1,17 1,15 v 13 l 1,10 1,8 1,5 1,4 1,3 1,1 1,-1 v -1 l 1,-2 1,-2 1,-3 1,-3 1,-3 1,-4 1,-3 v -3 l 1,-3 1,-3 1,-4 1,-3 1,-5 1,-5 v -7 l 1,-7 1,-10 1,-11 1,-13 1,-15 1,-16 1,-17 v -17 l 1,-17 1,-16 1,-14 1,-11 1,-7 1,-3 1,2 v 6 l 1,10 1,15 1,17 1,20 1,21 1,22 1,23 v 21 l 1,21 1,18 1,16 1,14 1,12 1,8 v 6 l 1,4 1,2 h 1 l 1,-2 1,-4 1,-5 1,-5 v -6 l 1,-6 1,-6 1,-5 1,-6 1,-4 1,-5 1,-4 v -5 l 1,-5 1,-5 1,-6 1,-7 1,-8 1,-10 v -12 l 1,-14 1,-15 1,-16 1,-17 1,-16 1,-15 1,-13 V 63 l 1,-7 1,-3 1,1 1,5 1,9 1,12 1,16 v 17 l 1,19 1,19 1,19 1,18 1,17 1,14 v 12 l 1,10 1,7 1,5 1,3 1,2 h 1 1 v -2 l 1,-1 1,-2 1,-3 1,-2 1,-2 1,-3 1,-2 v -3 l 1,-2 1,-3 1,-4 1,-3 1,-5 1,-5 v -7 l 1,-8 1,-9 1,-11 1,-13 1,-15 1,-16 1,-17 v -17 l 1,-17 1,-15 1,-14 1,-10 1,-7 1,-3 1,2 v 7 l 1,10 1,15 1,18 1,20 1,22 1,22 v 23 l 1,21 1,21 1,18 1,17 1,14 1,11 1,9 v 7 l 1,4 1,2 1,-1 1,-2 1,-4 1,-5 1,-6 v -7 l 1,-6 1,-7 1,-6 1,-5 1,-5 1,-4 v -5 l 1,-4 1,-4 1,-5 1,-6 1,-7 1,-8 1,-10 v -12 l 1,-13 1,-15 1,-16 1,-16 1,-16 1,-16 1,-13 V 66 l 1,-8 1,-3 1,1 1,5 1,9 1,12 v 15 l 1,17 1,18 1,19 1,18 1,17 1,17 1,13 v 12 l 1,9 1,7 1,5 1,4 1,2 h 1 1 v -1 l 1,-1 1,-2 1,-3 1,-2 1,-2 1,-3 v -2 l 1,-2 1,-3 1,-3 1,-3 1,-3 1,-5 1,-5 v -7 l 1,-7 1,-10 1,-11 1,-13 1,-15 1,-15 1,-17 v -17 l 1,-17 1,-15 1,-13 1,-11 1,-7 1,-2 v 2 l 1,6 1,11 1,14 1,18 1,20 1,21 1,22 v 22 l 1,22 1,20 1,18 1,16 1,14 1,11 1,10 v 6 l 1,5 1,2 h 1 l 1,-3 1,-4 1,-5 v -6 l 1,-6 1,-7 1,-6 1,-6 1,-5 1,-5 1,-4 v -5 l 1,-4 1,-4 1,-5 1,-6 1,-7 1,-8 1,-10 v -12 l 1,-13 1,-15 1,-16 1,-17 1,-16 1,-15 V 75 l 1,-11 1,-7 1,-3 1,1 1,4 1,9 1,12 v 15 l 1,17 1,18 1,19 1,18 1,17 1,16 1,14 v 11 l 1,10 1,7 1,6 1,4 1,2 1,1 v 0 l 1,-1 1,-1 1,-2 1,-2 1,-3 1,-2 1,-3 v -2 l 1,-3 1,-2 1,-3 1,-3 1,-4"
           stroke="#d86ecc"
           stroke-width="2"
           stroke-linecap="round"
           stroke-linejoin="round"
           stroke-miterlimit="10"
           fill="none"
           id="path12" />
      </g>
      <g
         clip-path="url(#clip1-7)"
         id="g14">
        <path
           d="m 1120,249 3,-37 3,-33 1,-34 1,-42 2,-29 2,-25 2,-15 4,18 1,37 3,41 v 40 l 2,34 2,25 3,24 5,16 6,-12 5,-31 2,-31 4,-56 2,-45 1,-29 2,-25 2,-9 3,18 2,37 1,28 2,53 2,38 5,31 2,24 5,1 6,-29 5,-31 2,-31 2,-36 2,-43 1,-28 3,-19 2,5 2,31 3,36 2,40 1,52 1,28 3,25 3,14 6,-12 4,-27 5,-17 3,-35 2,-33 2,-35 1,-34 2,-24 2,-7 4,27 1,30 3,37 1,48 1,40 1,25 2,20 3,11 4,-13 5,-23 6,-25 3,-31 3,-37 1,-32 2,-33 1,-20 2,-12 4,20 3,37 v 47 l 2,43 2,39 2,27 4,20 5,-17 6,-31 5,-26 3,-37 2,-32 2,-33 1,-26 3,-23 3,23 3,34 2,43 2,40 2,33 2,31 3,14 4,-19 6,-22 6,-24 2,-30 2,-32 3,-30 1,-34 1,-20 2,-9 4,25 2,37 1,42 2,40 2,34 2,29 3,22 5,-17 5,-28 7,-26 2,-39 2,-34 3,-36 1,-29 2,-17 1,-6 3,23 2,31 2,42 3,46 2,40 2,30 2,7 5,-14 6,-30 6,-22 2,-40 1,-28 1,-31 3,-30 V 64 l 4,-8 3,39 2,25 1,46 1,54 2,28 3,28 3,20 6,-20 6,-37 5,-30 3,-40 2,-28 3,-38 V 78 l 2,-17 5,31 2,32 1,39 1,31 2,39 1,26 4,22 5,-5 4,-23 5,-25 5,-37 2,-39 2,-34 2,-40 1,-17 2,-6 3,23 3,29 1,47 1,46 1,33 2,24 2,20 4,16 4,-16 4,-26 5,-22 3,-29 2,-31 2,-34 1,-32 1,-25 3,-17 4,32 3,31 1,33 1,37 2,35 2,31 3,19 2,5 2,-8 5,-22 7,-29 4,-33 v -37 l 3,-31 1,-31 1,-23 2,-14 4,28 2,31 2,39 1,34 1,37 2,31 2,24 3,13 6,-19 4,-25 5,-24 3,-36 4,-42 2,-40 1,-32 2,-14 4,20 2,28 1,37 3,46 1,37 2,39 3,17 5,-12 5,-28 7,-31 3,-50 2,-35 2,-39 2,-22 2,-9 2,25 2,26 3,37 v 42 l 2,46 3,34 4,21 5,-16 5,-32 6,-24 2,-35 3,-33 3,-48 V 74 l 2,-15 4,28 3,38 v 45 l 4,54 1,36 4,28 5,-11 7,-34 5,-32 4,-39 2,-45 1,-37 4,-30 2,16 3,42 2,34 2,43 2,43 1,28 4,20 5,-4 3,-25 6,-28 4,-28 3,-34 2,-45 2,-37 2,-18 2,-7 3,20 1,31 2,53 2,42 1,29 3,30 2,26 3,5 3,-19 4,-22 7,-28 2,-32 2,-26 3,-42 1,-26 1,-24 3,-12 2,22 3,35 2,42 1,42 2,31 1,27 3,21 2,4 5,-14 4,-23 3,-15 4,-27 3,-32 2,-37 2,-25 V 82 l 3,-19 2,-3 4,26 1,28 1,37 1,28 v 31 l 2,30 1,21 1,22 3,15 5,-7 4,-24 4,-21 3,-20 4,-33 3,-40 2,-33 1,-29 2,-18 2,-10 3,25 1,23 2,31 1,33 2,35 v 34 l 4,27 2,15 5,-11 5,-18 2,-17"
           stroke="#000000"
           stroke-width="2"
           stroke-linecap="round"
           stroke-linejoin="round"
           stroke-miterlimit="10"
           stroke-dasharray="4, 4"
           fill="none"
           id="path13" />
      </g>
      <g
         id="g15">
        <text
           font-family="Arial, Arial_MSFontService, sans-serif"
           font-weight="400"
           font-size="12px"
           transform="translate(1089,348)"
           id="text14">-0.5</text>
      </g>
      <g
         id="g16">
        <text
           font-family="Arial, Arial_MSFontService, sans-serif"
           font-weight="400"
           font-size="12px"
           transform="translate(1089,315)"
           id="text15">-0.3</text>
      </g>
      <g
         id="g17">
        <text
           font-family="Arial, Arial_MSFontService, sans-serif"
           font-weight="400"
           font-size="12px"
           transform="translate(1089,282)"
           id="text16">-0.1</text>
      </g>
      <g
         id="g18">
        <text
           font-family="Arial, Arial_MSFontService, sans-serif"
           font-weight="400"
           font-size="12px"
           transform="translate(1092.99,249)"
           id="text17">0.1</text>
      </g>
      <g
         id="g19">
        <text
           font-family="Arial, Arial_MSFontService, sans-serif"
           font-weight="400"
           font-size="12px"
           transform="translate(1092.99,216)"
           id="text18">0.3</text>
      </g>
      <g
         id="g20">
        <text
           font-family="Arial, Arial_MSFontService, sans-serif"
           font-weight="400"
           font-size="12px"
           transform="translate(1092.99,183)"
           id="text19">0.5</text>
      </g>
      <g
         id="g21">
        <text
           font-family="Arial, Arial_MSFontService, sans-serif"
           font-weight="400"
           font-size="12px"
           transform="translate(1092.99,150)"
           id="text20">0.7</text>
      </g>
      <g
         id="g22">
        <text
           font-family="Arial, Arial_MSFontService, sans-serif"
           font-weight="400"
           font-size="12px"
           transform="translate(1092.99,117)"
           id="text21">0.9</text>
      </g>
      <g
         id="g23">
        <text
           font-family="Arial, Arial_MSFontService, sans-serif"
           font-weight="400"
           font-size="12px"
           transform="translate(1092.99,85)"
           id="text22">1.1</text>
      </g>
      <g
         id="g24">
        <text
           font-family="Arial, Arial_MSFontService, sans-serif"
           font-weight="400"
           font-size="12px"
           transform="translate(1092.99,52)"
           id="text23">1.3</text>
      </g>
      <g
         id="g25">
        <text
           font-family="Arial, Arial_MSFontService, sans-serif"
           font-weight="400"
           font-size="12px"
           transform="translate(1092.99,19)"
           id="text24">1.5</text>
      </g>
      <g
         id="g26">
        <text
           font-family="Arial, Arial_MSFontService, sans-serif"
           font-weight="400"
           font-size="12px"
           transform="translate(1116.66,280)"
           id="text25">0</text>
      </g>
      <g
         id="g27">
        <text
           font-family="Arial, Arial_MSFontService, sans-serif"
           font-weight="400"
           font-size="12px"
           transform="translate(1203.62,280)"
           id="text26">2</text>
      </g>
      <g
         id="g28">
        <text
           font-family="Arial, Arial_MSFontService, sans-serif"
           font-weight="400"
           font-size="12px"
           transform="translate(1290.59,280)"
           id="text27">4</text>
      </g>
      <g
         id="g29">
        <text
           font-family="Arial, Arial_MSFontService, sans-serif"
           font-weight="400"
           font-size="12px"
           transform="translate(1377.56,280)"
           id="text28">6</text>
      </g>
      <g
         id="g30">
        <text
           font-family="Arial, Arial_MSFontService, sans-serif"
           font-weight="400"
           font-size="12px"
           transform="translate(1464.52,280)"
           id="text29">8</text>
      </g>
      <g
         id="g31">
        <text
           font-family="Arial, Arial_MSFontService, sans-serif"
           font-weight="400"
           font-size="12px"
           transform="translate(1548.15,280)"
           id="text30">10</text>
      </g>
      <g
         id="g32">
        <text
           font-family="Arial, Arial_MSFontService, sans-serif"
           font-weight="400"
           font-size="12px"
           transform="translate(1635.12,280)"
           id="text31">12</text>
      </g>
      <g
         id="g33">
        <text
           font-family="Arial, Arial_MSFontService, sans-serif"
           font-weight="400"
           font-size="12px"
           transform="translate(1722.09,280)"
           id="text32">14</text>
      </g>
      <g
         id="g34">
        <text
           font-family="Arial, Arial_MSFontService, sans-serif"
           font-weight="400"
           font-size="12px"
           transform="translate(1809.05,280)"
           id="text33">16</text>
      </g>
      <g
         id="g35">
        <text
           font-family="Arial, Arial_MSFontService, sans-serif"
           font-weight="400"
           font-size="12px"
           transform="translate(1896.02,280)"
           id="text34">18</text>
      </g>
      <g
         id="g36">
        <text
           font-family="Arial, Arial_MSFontService, sans-serif"
           font-weight="400"
           font-size="12px"
           transform="translate(1982.99,280)"
           id="text35">20</text>
      </g>
      <g
         id="g37">
        <text
           font-family="Arial, Arial_MSFontService, sans-serif"
           font-weight="400"
           font-size="13px"
           transform="rotate(-90,663.835,-418.835)"
           id="text36">Coeficiente de arrasto</text>
      </g>
      <g
         id="g38">
        <text
           font-family="Arial, Arial_MSFontService, sans-serif"
           font-weight="400"
           font-size="13px"
           transform="translate(1534.08,359)"
           id="text37">Tempo</text>
      </g>
      <g
         id="g39">
        <path
           d="m 1276,389 h 34"
           stroke="#e97132"
           stroke-width="2"
           stroke-linecap="round"
           stroke-linejoin="round"
           stroke-miterlimit="10"
           fill="none"
           fill-rule="evenodd"
           id="path38" />
      </g>
      <g
         id="g40">
        <text
           font-family="Arial, Arial_MSFontService, sans-serif"
           font-weight="400"
           font-size="12px"
           transform="translate(1313.78,393)"
           id="text39">DNS</text>
      </g>
      <g
         id="g41">
        <path
           d="m 1359,389 h 34"
           stroke="#196b24"
           stroke-width="2"
           stroke-linecap="round"
           stroke-linejoin="round"
           stroke-miterlimit="10"
           fill="none"
           fill-rule="evenodd"
           id="path40" />
      </g>
      <g
         id="g42">
        <text
           font-family="Arial, Arial_MSFontService, sans-serif"
           font-weight="400"
           font-size="12px"
           transform="translate(1396.46,393)"
           id="text41">LES</text>
      </g>
      <g
         id="g43">
        <path
           d="m 1439,389 h 34"
           stroke="#0f9ed5"
           stroke-width="2"
           stroke-linecap="round"
           stroke-linejoin="round"
           stroke-miterlimit="10"
           fill="none"
           fill-rule="evenodd"
           id="path42" />
      </g>
      <g
         id="g44">
        <text
           font-family="Arial, Arial_MSFontService, sans-serif"
           font-weight="400"
           font-size="12px"
           transform="translate(1476.48,393)"
           id="text43">VMS</text>
      </g>
      <g
         id="g45">
        <path
           d="m 1523,389 h 33"
           stroke="#d86ecc"
           stroke-width="2"
           stroke-linecap="round"
           stroke-linejoin="round"
           stroke-miterlimit="10"
           fill="none"
           fill-rule="evenodd"
           id="path44" />
      </g>
      <g
         id="g46">
        <text
           font-family="Arial, Arial_MSFontService, sans-serif"
           font-weight="400"
           font-size="12px"
           transform="translate(1559.83,393)"
           id="text45">LES-VMS</text>
      </g>
      <g
         id="g47">
        <path
           d="m 1633,389 h 33"
           stroke="#000000"
           stroke-width="2"
           stroke-linecap="round"
           stroke-linejoin="round"
           stroke-miterlimit="10"
           stroke-dasharray="4, 4"
           fill="none"
           fill-rule="evenodd"
           id="path46" />
      </g>
      <g
         id="g48">
        <text
           font-family="Arial, Arial_MSFontService, sans-serif"
           font-weight="400"
           font-size="12px"
           transform="translate(1669.85,393)"
           id="text47">Mittal, Tezduyar (1992)</text>
      </g>
    </g>
  </g>
</svg>
