<?xml version="1.0" encoding="UTF-8" standalone="no"?>
<!-- Created with Inkscape (http://www.inkscape.org/) -->

<svg
   width="253.47083mm"
   height="107.68542mm"
   viewBox="0 0 253.47083 107.68542"
   version="1.1"
   id="svg1"
   inkscape:version="1.3.2 (091e20e, 2023-11-25, custom)"
   sodipodi:docname="cl-m4.svg"
   xmlns:inkscape="http://www.inkscape.org/namespaces/inkscape"
   xmlns:sodipodi="http://sodipodi.sourceforge.net/DTD/sodipodi-0.dtd"
   xmlns="http://www.w3.org/2000/svg"
   xmlns:svg="http://www.w3.org/2000/svg">
  <sodipodi:namedview
     id="namedview1"
     pagecolor="#ffffff"
     bordercolor="#000000"
     borderopacity="0.25"
     inkscape:showpageshadow="2"
     inkscape:pageopacity="0.0"
     inkscape:pagecheckerboard="0"
     inkscape:deskcolor="#d1d1d1"
     inkscape:document-units="mm"
     inkscape:zoom="0.73139029"
     inkscape:cx="885.98387"
     inkscape:cy="175.69279"
     inkscape:window-width="1920"
     inkscape:window-height="1017"
     inkscape:window-x="1912"
     inkscape:window-y="-8"
     inkscape:window-maximized="1"
     inkscape:current-layer="layer1" />
  <defs
     id="defs1">
    <clipPath
       id="clip0">
      <rect
         x="913"
         y="404"
         width="958"
         height="407"
         id="rect1" />
    </clipPath>
    <clipPath
       id="clip1">
      <rect
         x="979"
         y="418"
         width="871"
         height="331"
         id="rect2" />
    </clipPath>
  </defs>
  <g
     inkscape:label="Camada 1"
     inkscape:groupmode="layer"
     id="layer1"
     transform="translate(129.64583,-102.12916)">
    <g
       clip-path="url(#clip0)"
       transform="matrix(0.26458333,0,0,0.26458333,-371.21041,-4.7625033)"
       id="g47">
      <rect
         x="913"
         y="404"
         width="958"
         height="407"
         fill="#ffffff"
         id="rect3" />
      <g
         id="g3">
        <path
           d="m 979.5,748.5 h 870 m -870,-41 h 870 m -870,-83 h 870 m -870,-41 h 870 m -870,-41 h 870 m -870,-41 h 870 m -870,-42 h 870 m -870,-41 h 870"
           stroke="#d9d9d9"
           stroke-linejoin="round"
           stroke-miterlimit="10"
           fill="none"
           id="path3" />
      </g>
      <g
         id="g4">
        <path
           d="m 1066.5,418.5 v 330 m 87,-330 v 330 m 87,-330 v 330 m 87,-330 v 330 m 87,-330 v 330 m 87,-330 v 330 m 87,-330 v 330 m 87,-330 v 330 m 87,-330 v 330 m 87,-330 v 330"
           stroke="#d9d9d9"
           stroke-linejoin="round"
           stroke-miterlimit="10"
           fill="none"
           id="path4" />
      </g>
      <g
         id="g5">
        <rect
           x="979.5"
           y="418.5"
           width="870"
           height="330"
           stroke="#000000"
           stroke-linejoin="round"
           stroke-miterlimit="10"
           fill="none"
           id="rect4" />
      </g>
      <g
         id="g6">
        <path
           d="M 0,0 1.04987e-4,330"
           stroke="#000000"
           stroke-linejoin="round"
           stroke-miterlimit="10"
           fill="none"
           fill-rule="evenodd"
           transform="matrix(1,0,0,-1,979.5,748.5)"
           id="path5" />
      </g>
      <g
         id="g7">
        <path
           d="m 979.5,748.5 h 3 m -3,-9 h 3 m -3,-8 h 3 m -3,-8 h 3 m -3,-8 h 3 m -3,-8 h 3 m -3,-9 h 3 m -3,-8 h 3 m -3,-8 h 3 m -3,-8 h 3 m -3,-9 h 3 m -3,-8 h 3 m -3,-8 h 3 m -3,-8 h 3 m -3,-9 h 3 m -3,-8 h 3 m -3,-8 h 3 m -3,-8 h 3 m -3,-9 h 3 m -3,-8 h 3 m -3,-8 h 3 m -3,-8 h 3 m -3,-9 h 3 m -3,-8 h 3 m -3,-8 h 3 m -3,-8 h 3 m -3,-8 h 3 m -3,-9 h 3 m -3,-8 h 3 m -3,-8 h 3 m -3,-8 h 3 m -3,-9 h 3 m -3,-8 h 3 m -3,-8 h 3 m -3,-8 h 3 m -3,-9 h 3 m -3,-8 h 3 m -3,-8 h 3 m -3,-8 h 3 m -3,-9 h 3 m -3,-8 h 3 m -6,330 h 7 m -7,-41 h 7 m -7,-42 h 7 m -7,-41 h 7 m -7,-41 h 7 m -7,-41 h 7 m -7,-41 h 7 m -7,-42 h 7 m -7,-41 h 7"
           stroke="#000000"
           stroke-linejoin="round"
           stroke-miterlimit="10"
           fill="none"
           id="path6" />
      </g>
      <g
         id="g8">
        <path
           d="m 979.5,665.5 h 870"
           stroke="#000000"
           stroke-linejoin="round"
           stroke-miterlimit="10"
           fill="none"
           fill-rule="evenodd"
           id="path7" />
      </g>
      <g
         id="g9">
        <path
           d="m 979.5,663.5 v 2 m 18,-2 v 2 m 17,-2 v 2 m 18,-2 v 2 m 17,-2 v 2 m 17,-2 v 2 m 18,-2 v 2 m 17,-2 v 2 m 18,-2 v 2 m 17,-2 v 2 m 17,-2 v 2 m 18,-2 v 2 m 17,-2 v 2 m 18,-2 v 2 m 17,-2 v 2 m 17,-2 v 2 m 18,-2 v 2 m 17,-2 v 2 m 18,-2 v 2 m 17,-2 v 2 m 17,-2 v 2 m 18,-2 v 2 m 17,-2 v 2 m 18,-2 v 2 m 17,-2 v 2 m 17,-2 v 2 m 18,-2 v 2 m 17,-2 v 2 m 18,-2 v 2 m 17,-2 v 2 m 17,-2 v 2 m 18,-2 v 2 m 17,-2 v 2 m 17,-2 v 2 m 18,-2 v 2 m 17,-2 v 2 m 18,-2 v 2 m 17,-2 v 2 m 17,-2 v 2 m 18,-2 v 2 m 17,-2 v 2 m 18,-2 v 2 m 17,-2 v 2 m 17,-2 v 2 m 18,-2 v 2 m 17,-2 v 2 m 18,-2 v 2 m 17,-2 v 2 m 17,-2 v 2 m 18,-2 v 2 m 17,-2 v 2 m -870,-3 v 7 m 87,-7 v 7 m 87,-7 v 7 m 87,-7 v 7 m 87,-7 v 7 m 87,-7 v 7 m 87,-7 v 7 m 87,-7 v 7 m 87,-7 v 7 m 87,-7 v 7 m 87,-7 v 7"
           stroke="#000000"
           stroke-linejoin="round"
           stroke-miterlimit="10"
           fill="none"
           id="path8" />
      </g>
      <g
         id="g10">
        <path
           d="m 980,633 1,-26 1,-14 1,-16 v -17 l 1,-17 1,-17 1,-18 1,-16 1,-16 1,-13 1,-11 v -8 l 1,-5 1,-2 1,1 1,4 1,6 1,7 1,9 v 10 l 1,11 1,11 1,10 1,10 1,10 1,8 v 8 l 1,7 1,6 1,6 1,6 1,5 1,6 1,7 v 8 l 1,8 1,10 1,9 1,9 1,8 1,7 1,5 v 3 l 1,1 1,-2 1,-4 1,-6 1,-8 1,-10 v -12 l 1,-14 1,-16 1,-16 1,-18 1,-18 1,-18 1,-18 v -16 l 1,-16 1,-13 1,-10 1,-8 1,-4 1,-1 1,1 v 4 l 1,5 1,8 1,9 1,9 1,10 1,10 v 9 l 1,9 1,9 1,8 1,7 1,7 1,6 1,6 v 7 l 1,7 1,8 1,9 1,9 1,10 1,9 1,9 v 8 l 1,5 1,4 1,2 1,-1 1,-2 1,-3 v -4 l 1,-6 1,-6 1,-7 1,-8 1,-9 1,-10 1,-11 v -13 l 1,-13 1,-15 1,-15 1,-15 1,-14 1,-12 1,-10 v -7 l 1,-4 h 1 l 1,2 1,5 1,8 1,9 v 10 l 1,11 1,12 1,13 1,11 1,12 1,12 1,12 v 10 l 1,10 1,10 1,10 1,8 1,9 1,8 1,7 v 6 l 1,4 1,4 1,2 h 1 1 l 1,-2 v -2 l 1,-3 1,-3 1,-3 1,-3 1,-4 1,-5 1,-6 v -6 l 1,-8 1,-8 1,-10 1,-12 1,-13 1,-14 1,-15 v -14 l 1,-14 1,-13 1,-10 1,-7 1,-3 h 1 v 2 l 1,6 1,7 1,10 1,11 1,11 1,13 1,13 v 12 l 1,13 1,12 1,12 1,11 1,11 1,9 1,10 v 8 l 1,8 1,7 1,7 1,5 1,5 1,3 v 2 l 1,1 h 1 l 1,-1 1,-1 1,-3 1,-2 1,-3 v -4 l 1,-4 1,-5 1,-6 1,-7 1,-8 1,-10 1,-11 v -13 l 1,-15 1,-15 1,-16 1,-17 1,-15 1,-14 v -11 l 1,-8 1,-4 1,-2 1,2 1,4 1,7 1,8 v 11 l 1,11 1,13 1,14 1,12 1,14 1,13 1,13 v 13 l 1,12 1,11 1,11 1,11 1,10 1,9 v 8 l 1,7 1,6 1,4 1,3 1,2 h 1 l 1,-2 v -3 l 1,-4 1,-5 1,-6 1,-7 1,-8 1,-8 1,-9 v -10 l 1,-10 1,-11 1,-12 1,-12 1,-14 1,-15 v -15 l 1,-15 1,-14 1,-13 1,-11 1,-8 1,-5 1,-2 v 1 l 1,3 1,6 1,7 1,9 1,11 1,11 1,12 v 11 l 1,11 1,11 1,10 1,9 1,8 1,8 1,7 v 5 l 1,6 1,4 1,4 1,4 1,4 1,3 v 3 l 1,2 1,2 1,1 1,-1 1,-1 1,-2 1,-3 v -4 l 1,-6 1,-6 1,-7 1,-8 1,-10 1,-11 1,-12 v -13 l 1,-15 1,-14 1,-16 1,-15 1,-14 1,-12 v -10 l 1,-7 1,-4 1,-1 1,2 1,4 1,7 1,9 v 10 l 1,12 1,12 1,14 1,12 1,13 1,13 1,14 v 12 l 1,12 1,12 1,11 1,11 1,11 1,10 v 9 l 1,8 1,7 1,6 1,4 1,2 1,1 1,-1 v -3 l 1,-4 1,-5 1,-7 1,-7 1,-8 1,-9 1,-10 v -11 l 1,-12 1,-13 1,-14 1,-15 1,-16 1,-17 v -18 l 1,-17 1,-16 1,-14 1,-12 1,-9 1,-5 1,-3 v 1 l 1,3 1,5 1,8 1,9 1,11 1,11 1,12 v 11 l 1,12 1,11 1,11 1,11 1,10 1,10 v 9 l 1,10 1,9 1,9 1,8 1,9 1,7 1,6 v 6 l 1,3 1,2 h 1 l 1,-1 1,-3 1,-4 1,-6 v -6 l 1,-7 1,-8 1,-9 1,-10 1,-11 1,-12 v -13 l 1,-13 1,-15 1,-16 1,-16 1,-15 1,-15 1,-12 v -11 l 1,-7 1,-5 1,-1 1,2 1,4 1,7 1,8 v 11 l 1,11 1,12 1,13 1,12 1,12 1,12 v 13 l 1,11 1,10 1,11 1,9 1,9 1,9 1,7 v 7 l 1,6 1,6 1,4 1,3 1,2 1,2 h 1 v -1 l 1,-2 1,-4 1,-4 1,-5 1,-6 1,-8 v -8 l 1,-9 1,-10 1,-12 1,-13 1,-13 1,-15 1,-16 v -15 l 1,-16 1,-15 1,-13 1,-10 1,-8 1,-5 1,-2 v 1 l 1,4 1,6 1,8 1,10 1,10 1,12 v 12 l 1,11 1,12 1,12 1,11 1,10 1,10 1,9 v 8 l 1,8 1,7 1,7 1,6 1,6 1,6 1,5 v 4 l 1,3 1,1 1,1 h 1 l 1,-2 1,-3 v -4 l 1,-4 1,-6 1,-6 1,-8 1,-9 1,-10 1,-12 v -13 l 1,-14 1,-16 1,-16 1,-16 1,-16 1,-15 1,-13 v -11 l 1,-8 1,-4 1,-2 1,2 1,4 1,7 v 9 l 1,11 1,11 1,13 1,14 1,12 1,13 1,13 v 14 l 1,12 1,12 1,11 1,12 1,10 1,11 1,9 v 10 l 1,8 1,7 1,6 1,4 1,2 1,1 v -1 l 1,-2 1,-4 1,-5 1,-6 1,-7 1,-8 1,-9 v -9 l 1,-10 1,-11 1,-11 1,-13 1,-14 1,-14 1,-16 v -15 l 1,-16 1,-14 1,-13 1,-11 1,-8 1,-5 v -2 l 1,1 1,4 1,5 1,8 1,10 1,10 1,11 v 12 l 1,11 1,11 1,11 1,11 1,9 1,8 1,8 v 8 l 1,6 1,6 1,5 1,5 1,5 1,4 v 3 l 1,3 1,2 1,2 1,1 h 1 l 1,-1 1,-1 v -3 l 1,-3 1,-5 1,-6 1,-7 1,-9 1,-11 1,-12 v -13 l 1,-15 1,-17 1,-17 1,-17 1,-16 1,-15 v -13 l 1,-11 1,-7 1,-5 1,-1 1,2 1,5 1,7 v 9 l 1,10 1,12 1,13 1,14 1,13 1,13 1,13 v 13 l 1,12 1,12 1,12 1,11 1,11 1,11 v 11 l 1,11 1,10 1,9 1,7 1,6 1,3 1,2 v -1 l 1,-3 1,-5 1,-6 1,-8 1,-9 1,-9 1,-11 v -11 l 1,-11 1,-12 1,-13 1,-14 1,-15 1,-15 v -16 l 1,-16 1,-15 1,-15 1,-13 1,-10 1,-8 1,-4 v -2 l 1,1 1,4 1,6 1,7 1,10 1,10 1,11 v 12 l 1,10 1,11 1,10 1,9 1,9 1,8 v 7 l 1,6 1,6 1,4 1,5 1,4 1,4 1,3 v 4 l 1,2 1,3 1,2 1,2 1,2 1,1 h 1 v -1 l 1,-2 1,-3 1,-6 1,-6 1,-9 1,-10 v -12 l 1,-14 1,-16 1,-17 1,-17 1,-17 1,-16 1,-15 v -13 l 1,-10 1,-7 1,-4 h 1 l 1,2 1,5 1,8 v 9 l 1,11 1,13 1,12 1,15 1,12 1,13 1,13 v 12 l 1,12 1,12 1,11 1,11 1,11 1,12 v 11 l 1,11 1,10 1,9 1,8 1,6 1,4 1,1 v -1 l 1,-4 1,-5 1,-7 1,-8 1,-9 1,-9 1,-10 v -11 l 1,-11 1,-11 1,-13 1,-13 1,-14 1,-15 v -15 l 1,-15 1,-15 1,-13 1,-13 1,-9 1,-8 1,-4 v -1 l 1,2 1,4 1,6 1,8 1,10 1,10 1,11 v 12 l 1,11 1,11 1,10 1,10 1,9 1,8 v 7 l 1,6 1,6 1,5 1,5 1,4 1,3 1,3 v 2 l 1,2 1,2 1,1 1,1 h 1 l 1,1 h 1 v -1 l 1,-2 1,-3 1,-5 1,-6 1,-7 1,-10 v -10 l 1,-13 1,-14 1,-15 1,-15 1,-16 1,-16 1,-14 v -12 l 1,-10 1,-6 1,-4 h 1 l 1,3 1,6 1,8 v 9 l 1,12 1,12 1,14 1,14 1,13 1,14 v 13 l 1,14 1,12 1,12 1,13 1,12 1,36 1,-35 v 32 l 1,13 1,11 1,8 1,8 1,5 1,4 1,1 v -1 l 1,-3 1,-4 1,-6 1,-7 1,-9 1,-9 v -9 l 1,-11 1,-12 1,-12 1,-13 1,-15 1,-15 1,-17 v -17 l 1,-18 1,-16 1,-16 1,-13 1,-11 1,-8 1,-5 v -2 l 1,1 1,4 1,7 1,8 1,9 1,11 v 11 l 1,12 1,11 1,11 1,11 1,11 1,9 1,9 v 9 l 1,8 1,8 1,7 1,8 1,7 1,6 1,5 v 4 l 1,3 1,1 h 1 l 1,-1 1,-3 1,-4 v -4 l 1,-4 1,-4 1,-6 1,-5 1,-7 1,-7 1,-9 v -9 l 1,-11 1,-12 1,-13 1,-14 1,-14 1,-14 1,-14 v -11 l 1,-10 1,-7 1,-4 h 1 l 1,3 1,5 v 7 l 1,9 1,11 1,12 1,12 1,13 1,12 1,13 v 12 l 1,13 1,11 1,11 1,11 1,10 1,10 1,8 v 9 l 1,7 1,6 1,6 1,4 1,3 1,2 v 0 l 1,-1 1,-1 1,-3 1,-3 1,-4 1,-5 1,-5 v -7 l 1,-7 1,-9 1,-10 1,-11 1,-12 1,-15 1,-15 v -17 l 1,-18 1,-17 1,-16 1,-14 1,-11 1,-9 v -5 l 1,-3 1,1 1,3 1,6 1,8 1,10 1,10 v 12 l 1,12 1,11 1,12 1,11 1,12 1,10 1,11 v 10 l 1,9 1,10 1,9 1,9 1,8 1,8 v 7 l 1,6 1,5 1,3 1,2 h 1 l 1,-2 1,-3 v -4 l 1,-5 1,-7 1,-7 1,-8 1,-8"
           stroke="#e97132"
           stroke-width="2"
           stroke-linecap="round"
           stroke-linejoin="round"
           stroke-miterlimit="10"
           fill="none"
           id="path9" />
      </g>
      <g
         id="g11">
        <path
           d="m 980,634 1,-26 1,-14 1,-15 v -17 l 1,-17 1,-18 1,-17 1,-17 1,-15 1,-14 1,-11 v -8 l 1,-5 1,-2 1,1 1,3 1,6 1,8 1,9 v 10 l 1,11 1,11 1,10 1,10 1,9 1,10 v 7 l 1,8 1,6 1,6 1,6 1,6 1,7 1,7 v 7 l 1,9 1,9 1,9 1,8 1,8 1,6 1,5 v 3 h 1 l 1,-2 1,-4 1,-6 1,-8 1,-10 v -12 l 1,-14 1,-15 1,-16 1,-17 1,-18 1,-17 1,-18 v -17 l 1,-15 1,-12 1,-11 1,-7 1,-5 1,-1 1,1 v 4 l 1,5 1,8 1,8 1,9 1,10 1,11 v 8 l 1,10 1,8 1,8 1,7 1,7 1,6 1,6 v 6 l 1,7 1,8 1,8 1,9 1,10 1,9 1,9 v 7 l 1,6 1,4 1,2 h 1 l 1,-2 1,-3 v -5 l 1,-5 1,-6 1,-7 1,-8 1,-9 1,-10 1,-12 v -12 l 1,-14 1,-14 1,-15 1,-14 1,-14 1,-12 1,-10 v -7 l 1,-4 h 1 l 1,2 1,5 1,7 1,9 v 10 l 1,12 1,12 1,13 1,10 1,12 1,12 1,12 v 10 l 1,10 1,10 1,9 1,9 1,8 1,8 1,7 v 6 l 1,5 1,4 1,2 h 1 1 l 1,-1 v -2 l 1,-3 1,-3 1,-3 1,-4 1,-4 1,-5 1,-5 v -7 l 1,-7 1,-9 1,-10 1,-11 1,-13 1,-14 1,-15 v -14 l 1,-14 1,-12 1,-10 1,-8 1,-3 h 1 v 2 l 1,5 1,8 1,9 1,11 1,11 1,13 1,14 v 10 l 1,13 1,12 1,13 1,10 1,10 1,10 1,9 v 8 l 1,8 1,7 1,7 1,5 1,4 1,3 v 2 l 1,1 h 1 1 l 1,-2 1,-2 1,-3 1,-3 v -3 l 1,-5 1,-5 1,-6 1,-7 1,-8 1,-10 1,-11 v -12 l 1,-14 1,-15 1,-16 1,-16 1,-15 1,-13 v -11 l 1,-8 1,-4 1,-2 1,2 1,4 1,7 1,9 v 10 l 1,12 1,12 1,15 1,11 1,14 1,13 1,14 v 11 l 1,12 1,11 1,11 1,10 1,9 1,9 v 7 l 1,6 1,5 1,4 1,3 1,1 h 1 l 1,-1 v -3 l 1,-4 1,-4 1,-6 1,-6 1,-7 1,-8 1,-8 v -9 l 1,-9 1,-11 1,-12 1,-12 1,-14 1,-14 v -15 l 1,-15 1,-14 1,-13 1,-11 1,-8 1,-5 1,-2 v 1 l 1,3 1,6 1,8 1,9 1,10 1,12 1,12 v 11 l 1,11 1,12 1,11 1,9 1,9 1,9 1,7 v 7 l 1,6 1,6 1,4 1,4 1,4 1,3 v 2 l 1,2 1,1 h 1 l 1,-1 1,-2 1,-3 1,-4 v -5 l 1,-5 1,-6 1,-7 1,-9 1,-9 1,-10 1,-11 v -13 l 1,-13 1,-14 1,-15 1,-14 1,-13 1,-12 v -10 l 1,-8 1,-4 1,-1 1,2 1,4 1,7 1,9 v 10 l 1,11 1,13 1,14 1,11 1,13 1,13 1,13 v 12 l 1,12 1,11 1,11 1,11 1,9 1,9 v 8 l 1,7 1,5 1,5 1,2 1,2 h 1 l 1,-1 v -3 l 1,-3 1,-4 1,-6 1,-6 1,-6 1,-8 1,-9 v -9 l 1,-10 1,-12 1,-13 1,-15 1,-15 1,-17 v -17 l 1,-17 1,-16 1,-14 1,-12 1,-9 1,-6 1,-3 v 0 l 1,3 1,6 1,8 1,9 1,11 1,11 1,13 v 11 l 1,12 1,12 1,12 1,11 1,11 1,10 v 10 l 1,9 1,9 1,9 1,8 1,8 1,7 1,6 v 4 l 1,4 1,1 1,1 1,-2 1,-3 1,-4 1,-6 v -7 l 1,-8 1,-9 1,-10 1,-10 1,-11 1,-12 v -13 l 1,-14 1,-14 1,-15 1,-15 1,-14 1,-14 1,-13 v -10 l 1,-8 1,-4 1,-2 1,1 1,4 1,6 1,7 v 10 l 1,10 1,12 1,12 1,11 1,11 1,12 v 11 l 1,10 1,10 1,9 1,8 1,7 1,7 1,6 v 6 l 1,5 1,4 1,4 1,3 1,2 1,2 1,1 v 0 l 1,-1 1,-2 1,-4 1,-4 1,-5 1,-7 v -7 l 1,-9 1,-10 1,-11 1,-12 1,-13 1,-15 1,-15 v -15 l 1,-15 1,-14 1,-12 1,-10 1,-8 1,-4 1,-1 v 1 l 1,4 1,7 1,8 1,10 1,11 1,12 v 14 l 1,11 1,13 1,12 1,13 1,11 1,11 1,11 v 10 l 1,9 1,9 1,7 1,7 1,6 1,5 1,4 v 3 l 1,2 1,1 1,-1 1,-1 1,-3 1,-3 v -5 l 1,-6 1,-6 1,-8 1,-8 1,-9 1,-10 1,-11 v -13 l 1,-13 1,-14 1,-15 1,-15 1,-15 1,-14 1,-12 v -10 l 1,-8 1,-4 1,-2 1,1 1,4 1,7 v 8 l 1,10 1,11 1,11 1,14 1,11 1,12 1,12 v 12 l 1,11 1,10 1,10 1,10 1,8 1,8 1,7 v 6 l 1,6 1,4 1,4 1,2 1,2 1,1 v 0 l 1,-1 1,-2 1,-4 1,-3 1,-5 1,-6 1,-7 v -7 l 1,-9 1,-10 1,-11 1,-12 1,-14 1,-14 1,-15 v -15 l 1,-15 1,-14 1,-13 1,-10 1,-8 1,-4 v -1 l 1,1 1,4 1,7 1,8 1,10 1,11 1,12 v 14 l 1,12 1,13 1,12 1,14 1,11 1,12 1,11 v 11 l 1,10 1,9 1,9 1,7 1,7 1,6 v 4 l 1,3 1,2 1,1 1,-1 1,-2 1,-3 1,-5 v -5 l 1,-6 1,-7 1,-9 1,-8 1,-10 1,-11 1,-11 v -13 l 1,-13 1,-15 1,-14 1,-16 1,-15 1,-14 v -12 l 1,-11 1,-7 1,-5 1,-2 1,1 1,3 1,6 v 8 l 1,9 1,11 1,11 1,13 1,10 1,12 1,11 v 12 l 1,10 1,9 1,9 1,8 1,8 1,6 v 6 l 1,6 1,5 1,5 1,4 1,3 1,3 1,1 v 1 h 1 l 1,-2 1,-3 1,-4 1,-5 1,-6 1,-7 v -8 l 1,-10 1,-10 1,-12 1,-14 1,-14 1,-15 v -16 l 1,-16 1,-16 1,-15 1,-13 1,-10 1,-8 1,-4 v -2 l 1,2 1,4 1,6 1,9 1,10 1,11 1,13 v 14 l 1,11 1,14 1,13 1,13 1,12 1,12 v 12 l 1,12 1,11 1,10 1,11 1,9 1,9 1,7 v 7 l 1,4 1,3 1,1 1,-1 1,-2 1,-4 1,-6 v -7 l 1,-7 1,-9 1,-9 1,-11 1,-11 1,-11 v -13 l 1,-14 1,-14 1,-15 1,-16 1,-16 1,-16 1,-15 v -13 l 1,-11 1,-8 1,-6 1,-2 1,1 1,3 1,6 v 7 l 1,9 1,11 1,11 1,12 1,10 1,11 1,11 v 11 l 1,8 1,9 1,8 1,7 1,7 1,6 v 6 l 1,5 1,5 1,4 1,5 1,3 1,3 1,2 v 2 h 1 1 l 1,-2 1,-3 1,-3 1,-5 1,-7 v -7 l 1,-10 1,-10 1,-13 1,-14 1,-15 1,-17 v -17 l 1,-17 1,-16 1,-15 1,-14 1,-10 1,-8 1,-4 v -1 l 1,1 1,5 1,7 1,9 1,11 1,12 1,12 v 15 l 1,11 1,14 1,13 1,13 1,12 1,11 v 12 l 1,12 1,11 1,11 1,10 1,11 1,9 1,9 v 7 l 1,6 1,3 1,1 h 1 l 1,-3 1,-5 1,-6 v -7 l 1,-8 1,-10 1,-10 1,-10 1,-11 1,-12 v -13 l 1,-13 1,-14 1,-15 1,-16 1,-15 1,-15 1,-14 v -13 l 1,-10 1,-8 1,-4 1,-2 1,1 1,4 1,6 v 8 l 1,10 1,10 1,11 1,13 1,10 1,11 v 11 l 1,10 1,9 1,8 1,8 1,7 1,6 1,6 v 4 l 1,5 1,3 1,4 1,2 1,3 1,2 1,1 v 1 l 1,1 h 1 1 l 1,-1 1,-3 1,-3 v -5 l 1,-7 1,-8 1,-10 1,-11 1,-13 1,-15 1,-15 v -17 l 1,-17 1,-16 1,-14 1,-13 1,-10 1,-7 1,-4 v -1 l 1,2 1,5 1,8 1,9 1,11 1,12 v 13 l 1,15 1,12 1,13 1,13 1,14 1,12 1,12 v 12 l 1,12 1,11 1,11 1,11 1,11 1,9 1,9 v 7 l 1,6 1,3 1,1 1,-1 1,-4 1,-5 v -6 l 1,-8 1,-8 1,-10 1,-10 1,-10 1,-11 1,-12 v -12 l 1,-14 1,-14 1,-15 1,-15 1,-16 1,-15 1,-15 v -12 l 1,-11 1,-7 1,-5 1,-2 1,1 1,4 v 6 l 1,7 1,10 1,10 1,11 1,12 1,9 1,11 v 9 l 1,10 1,8 1,8 1,7 1,6 1,5 1,5 v 5 l 1,3 1,4 1,3 1,3 1,2 1,2 v 2 l 1,1 1,1 1,1 h 1 l 1,-1 1,-2 1,-3 v -5 l 1,-7 1,-8 1,-10 1,-11 1,-13 1,-15 1,-16 v -16 l 1,-17 1,-16 1,-14 1,-12 1,-10 1,-7 v -3 l 1,-1 1,3 1,5 1,8 1,9 1,11 1,13 v 13 l 1,14 1,12 1,13 1,13 1,13 1,12 1,11 v 12 l 1,12 1,11 1,11 1,11 1,11 1,10 v 9 l 1,8 1,6 1,3 1,2 1,-1 1,-3 1,-5 v -7 l 1,-8 1,-8 1,-10 1,-10 1,-10"
           stroke="#196b24"
           stroke-width="2"
           stroke-linecap="round"
           stroke-linejoin="round"
           stroke-miterlimit="10"
           fill="none"
           id="path10" />
      </g>
      <g
         id="g12">
        <path
           d="m 980,634 1,-26 1,-14 1,-17 v -16 l 1,-18 1,-18 1,-17 1,-17 1,-16 1,-13 1,-11 v -8 l 1,-5 1,-2 1,1 1,3 1,6 1,8 1,9 v 11 l 1,10 1,12 1,9 1,11 1,9 1,9 v 8 l 1,7 1,7 1,6 1,6 1,6 1,6 1,8 v 8 l 1,9 1,9 1,9 1,9 1,8 1,6 1,5 v 3 h 1 l 1,-2 1,-4 1,-6 1,-9 1,-10 v -12 l 1,-14 1,-16 1,-16 1,-18 1,-18 1,-18 1,-18 v -16 l 1,-15 1,-13 1,-11 1,-7 1,-5 1,-1 1,1 v 4 l 1,6 1,7 1,9 1,9 1,10 1,11 v 8 l 1,9 1,9 1,8 1,7 1,6 1,6 1,7 v 6 l 1,7 1,8 1,9 1,9 1,10 1,10 1,9 v 7 l 1,6 1,4 1,2 1,-1 1,-1 1,-4 v -4 l 1,-6 1,-6 1,-7 1,-8 1,-10 1,-10 1,-12 v -12 l 1,-14 1,-15 1,-15 1,-14 1,-14 1,-12 1,-10 v -6 l 1,-4 1,-1 1,2 1,5 1,8 1,9 v 11 l 1,11 1,12 1,14 1,10 1,13 1,11 1,13 v 10 l 1,10 1,9 1,10 1,8 1,8 1,8 1,7 v 5 l 1,5 1,3 1,1 1,1 1,-1 1,-1 v -3 l 1,-2 1,-3 1,-3 1,-4 1,-4 1,-5 1,-6 v -6 l 1,-8 1,-9 1,-10 1,-11 1,-13 1,-14 1,-14 v -15 l 1,-13 1,-13 1,-9 1,-7 1,-4 h 1 v 3 l 1,5 1,8 1,10 1,11 1,12 1,13 1,14 v 11 l 1,13 1,12 1,13 1,11 1,10 1,10 1,10 v 8 l 1,8 1,8 1,6 1,5 1,5 1,3 v 2 l 1,1 h 1 l 1,-1 1,-2 1,-2 1,-2 1,-3 v -4 l 1,-4 1,-5 1,-6 1,-7 1,-9 1,-10 1,-11 v -13 l 1,-14 1,-16 1,-17 1,-16 1,-16 1,-13 v -11 l 1,-9 1,-5 1,-1 1,1 1,4 1,7 1,9 v 10 l 1,12 1,13 1,15 1,11 1,13 1,13 1,14 v 12 l 1,12 1,11 1,11 1,11 1,9 1,9 v 8 l 1,7 1,6 1,4 1,3 1,1 h 1 l 1,-2 v -3 l 1,-4 1,-6 1,-6 1,-7 1,-7 1,-8 1,-9 v -10 l 1,-10 1,-11 1,-12 1,-13 1,-14 1,-14 v -15 l 1,-15 1,-14 1,-13 1,-10 1,-8 1,-5 1,-2 v 1 l 1,4 1,6 1,7 1,9 1,11 1,11 1,12 v 9 l 1,11 1,10 1,10 1,8 1,8 1,6 1,6 v 6 l 1,4 1,5 1,4 1,3 1,4 1,4 v 3 l 1,3 1,2 1,1 1,1 1,-1 1,-2 1,-2 v -4 l 1,-5 1,-6 1,-8 1,-8 1,-10 1,-11 1,-13 v -13 l 1,-15 1,-16 1,-15 1,-15 1,-14 1,-13 v -10 l 1,-7 1,-4 1,-1 1,1 1,5 1,7 1,8 v 11 l 1,11 1,13 1,14 1,11 1,13 1,13 1,13 v 12 l 1,12 1,11 1,12 1,11 1,10 1,10 v 9 l 1,9 1,7 1,6 1,5 1,2 1,1 1,-1 v -3 l 1,-4 1,-6 1,-7 1,-8 1,-9 1,-9 1,-10 v -12 l 1,-12 1,-13 1,-14 1,-15 1,-16 1,-16 v -17 l 1,-16 1,-15 1,-13 1,-11 1,-8 1,-5 1,-2 v 1 l 1,3 1,6 1,8 1,10 1,10 1,11 1,12 v 10 l 1,11 1,11 1,10 1,9 1,8 1,8 v 7 l 1,6 1,6 1,6 1,5 1,5 1,5 1,4 v 4 l 1,3 1,2 1,2 1,1 h 1 l 1,-1 1,-2 v -3 l 1,-5 1,-6 1,-7 1,-9 1,-11 1,-12 v -14 l 1,-16 1,-16 1,-17 1,-17 1,-17 1,-15 1,-13 v -10 l 1,-8 1,-4 1,-1 1,2 1,5 1,7 1,9 v 11 l 1,11 1,13 1,14 1,11 1,13 1,13 v 13 l 1,11 1,11 1,11 1,11 1,10 1,11 1,10 v 10 l 1,9 1,9 1,7 1,6 1,3 1,2 h 1 v -2 l 1,-4 1,-5 1,-7 1,-8 1,-9 1,-9 v -11 l 1,-11 1,-12 1,-13 1,-13 1,-15 1,-15 1,-16 v -16 l 1,-15 1,-14 1,-12 1,-10 1,-7 1,-5 1,-1 v 2 l 1,4 1,6 1,9 1,10 1,11 1,11 v 13 l 1,11 1,11 1,11 1,11 1,9 1,9 1,8 v 7 l 1,7 1,5 1,6 1,4 1,4 1,3 1,2 v 2 l 1,1 1,1 h 1 1 1 l 1,-1 v -1 l 1,-3 1,-4 1,-4 1,-7 1,-7 1,-10 1,-10 v -13 l 1,-13 1,-15 1,-16 1,-16 1,-16 1,-14 1,-12 v -10 l 1,-6 1,-4 h 1 l 1,3 1,5 1,8 v 10 l 1,12 1,12 1,14 1,15 1,12 1,14 1,14 v 14 l 1,12 1,13 1,12 1,12 1,12 1,11 1,11 v 10 l 1,9 1,7 1,6 1,3 1,2 h 1 v -2 l 1,-3 1,-5 1,-5 1,-7 1,-7 1,-8 1,-9 v -9 l 1,-10 1,-12 1,-12 1,-13 1,-15 1,-15 1,-17 v -17 l 1,-16 1,-15 1,-13 1,-11 1,-8 1,-5 v -2 l 1,1 1,4 1,6 1,8 1,9 1,11 1,11 v 13 l 1,9 1,11 1,11 1,11 1,9 1,8 1,8 v 8 l 1,8 1,7 1,6 1,7 1,5 1,5 v 4 l 1,3 1,2 1,1 h 1 l 1,-2 1,-2 1,-3 v -3 l 1,-4 1,-5 1,-6 1,-7 1,-8 1,-9 1,-10 v -12 l 1,-13 1,-14 1,-15 1,-15 1,-15 1,-14 v -12 l 1,-10 1,-7 1,-3 1,-1 1,2 1,5 1,8 v 9 l 1,11 1,12 1,12 1,15 1,11 1,13 1,13 v 14 l 1,11 1,12 1,12 1,11 1,10 1,10 v 9 l 1,9 1,7 1,6 1,5 1,3 1,1 1,1 v -2 l 1,-2 1,-4 1,-4 1,-6 1,-6 1,-6 1,-8 v -9 l 1,-9 1,-11 1,-12 1,-13 1,-14 1,-16 v -16 l 1,-17 1,-17 1,-15 1,-14 1,-11 1,-8 1,-5 v -3 l 1,1 1,4 1,6 1,8 1,9 1,10 1,11 v 13 l 1,10 1,11 1,11 1,11 1,10 1,9 v 9 l 1,9 1,9 1,9 1,8 1,9 1,7 1,7 v 7 l 1,4 1,4 1,2 h 1 l 1,-1 1,-2 1,-4 v -5 l 1,-5 1,-7 1,-7 1,-9 1,-9 1,-10 v -12 l 1,-12 1,-14 1,-14 1,-16 1,-15 1,-15 1,-14 v -13 l 1,-10 1,-7 1,-4 1,-2 1,2 1,4 1,7 v 9 l 1,10 1,11 1,12 1,14 1,11 1,12 1,12 v 12 l 1,11 1,10 1,10 1,10 1,9 1,8 v 8 l 1,7 1,7 1,5 1,4 1,3 1,2 1,1 v 0 l 1,-1 1,-2 1,-4 1,-4 1,-5 1,-6 1,-7 v -8 l 1,-9 1,-10 1,-11 1,-12 1,-14 1,-14 v -15 l 1,-16 1,-15 1,-14 1,-13 1,-10 1,-8 1,-4 v -2 l 1,1 1,4 1,6 1,8 1,10 1,10 1,12 v 13 l 1,10 1,12 1,11 1,11 1,10 1,9 v 9 l 1,8 1,7 1,7 1,6 1,6 1,6 1,5 v 4 l 1,4 1,3 1,2 1,1 h 1 l 1,-1 1,-2 v -4 l 1,-4 1,-6 1,-7 1,-8 1,-9 1,-11 v -12 l 1,-13 1,-15 1,-15 1,-17 1,-16 1,-16 1,-15 v -13 l 1,-10 1,-8 1,-4 1,-2 1,2 1,4 1,7 v 9 l 1,10 1,12 1,12 1,14 1,12 1,13 v 13 l 1,13 1,11 1,12 1,11 1,12 1,10 1,11 v 9 l 1,10 1,8 1,7 1,6 1,4 1,3 1,1 v -1 l 1,-2 1,-4 1,-5 1,-6 1,-7 1,-8 v -9 l 1,-10 1,-10 1,-12 1,-12 1,-13 1,-14 1,-16 v -15 l 1,-16 1,-16 1,-15 1,-13 1,-10 1,-8 1,-5 v -2 l 1,1 1,3 1,6 1,8 1,10 1,10 v 12 l 1,12 1,10 1,12 1,10 1,11 1,9 1,9 v 8 l 1,7 1,7 1,6 1,5 1,6 1,4 1,5 v 3 l 1,4 1,2 1,2 1,1 1,1 1,-1 v -2 l 1,-2 1,-4 1,-5 1,-6 1,-7 1,-10 1,-10 v -13 l 1,-14 1,-15 1,-17 1,-17 1,-17 1,-16 1,-16 v -13 l 1,-10 1,-8 1,-4 1,-1 1,2 1,5 v 7 l 1,9 1,11 1,13 1,12 1,15 1,12 1,13 v 13 l 1,14 1,11 1,12 1,12 1,11 1,11 1,11 v 11 l 1,10 1,10 1,8 1,7 1,6 1,3 v 1 l 1,-1 1,-3 1,-5 1,-6 1,-7 1,-9 1,-9 v -10 l 1,-11 1,-11 1,-12 1,-13 1,-14 1,-14 1,-16 v -16 l 1,-15 1,-16 1,-14 1,-13 1,-10 1,-7 v -5 l 1,-1 1,1 1,4 1,6 1,9 1,9 1,11 v 11 l 1,13 1,10 1,11 1,10 1,11 1,8 1,9 v 7 l 1,7 1,6 1,6 1,5 1,4 1,4 v 3 l 1,3 1,2 1,2 1,2 1,1 1,1 h 1 v 0 l 1,-1 1,-3 1,-3 1,-5 1,-7"
           stroke="#0f9ed5"
           stroke-width="2"
           stroke-linecap="round"
           stroke-linejoin="round"
           stroke-miterlimit="10"
           fill="none"
           id="path11" />
      </g>
      <g
         id="g13">
        <path
           d="m 980,628 1,-21 1,-14 1,-16 v -17 l 1,-17 1,-18 1,-18 1,-18 1,-16 1,-13 1,-11 v -8 l 1,-5 1,-1 1,1 1,5 1,6 1,9 1,10 v 10 l 1,12 1,11 1,12 1,11 1,10 1,10 v 9 l 1,9 1,8 1,7 1,6 1,6 1,5 1,6 v 6 l 1,6 1,6 1,6 1,6 1,6 1,6 1,4 v 2 l 1,1 1,-2 1,-3 1,-5 1,-8 1,-9 v -12 l 1,-13 1,-15 1,-17 1,-17 1,-18 1,-19 1,-17 v -17 l 1,-15 1,-13 1,-10 1,-7 1,-4 1,-1 1,2 v 4 l 1,6 1,8 1,9 1,10 1,10 1,10 v 11 l 1,9 1,9 1,9 1,7 1,8 1,7 1,6 v 7 l 1,7 1,7 1,7 1,8 1,8 1,7 1,7 v 7 l 1,5 1,3 1,2 h 1 l 1,-1 1,-3 v -4 l 1,-5 1,-6 1,-7 1,-8 1,-9 1,-10 1,-12 v -13 l 1,-14 1,-15 1,-16 1,-15 1,-14 1,-12 1,-9 v -7 l 1,-3 h 1 l 1,3 1,5 1,7 1,10 v 10 l 1,12 1,13 1,12 1,13 1,13 1,12 1,12 v 12 l 1,11 1,10 1,11 1,9 1,9 1,8 1,7 v 6 l 1,4 1,3 1,1 1,1 1,-1 1,-1 v -1 l 1,-3 1,-2 1,-3 1,-4 1,-4 1,-5 1,-6 v -7 l 1,-8 1,-10 1,-12 1,-13 1,-15 1,-16 1,-16 v -16 l 1,-15 1,-13 1,-10 1,-6 1,-4 h 1 v 2 l 1,6 1,7 1,10 1,11 1,13 1,13 1,14 v 13 l 1,14 1,13 1,13 1,13 1,12 1,11 1,11 v 9 l 1,9 1,7 1,5 1,4 1,2 1,1 v 0 l 1,-1 1,-2 1,-2 1,-2 1,-2 1,-2 1,-3 v -3 l 1,-4 1,-5 1,-6 1,-7 1,-9 1,-10 1,-12 v -13 l 1,-14 1,-16 1,-16 1,-16 1,-15 1,-13 v -10 l 1,-8 1,-4 1,-1 1,2 1,4 1,7 1,9 v 11 l 1,12 1,13 1,13 1,14 1,14 1,14 1,13 v 13 l 1,12 1,12 1,11 1,10 1,9 1,9 v 7 l 1,6 1,4 1,3 1,2 h 1 l 1,-1 1,-2 v -3 l 1,-4 1,-5 1,-6 1,-6 1,-7 1,-7 1,-8 v -9 l 1,-9 1,-11 1,-12 1,-13 1,-14 1,-15 v -15 l 1,-15 1,-14 1,-13 1,-10 1,-8 1,-4 1,-1 v 2 l 1,4 1,7 1,9 1,10 1,12 1,12 1,12 v 13 l 1,13 1,12 1,11 1,11 1,10 1,9 1,9 v 6 l 1,6 1,3 1,3 1,1 1,1 1,-1 v 0 l 1,-1 1,-1 1,-1 1,-1 1,-2 1,-2 1,-2 v -4 l 1,-4 1,-5 1,-7 1,-8 1,-10 1,-11 1,-13 v -14 l 1,-15 1,-15 1,-16 1,-16 1,-14 1,-12 v -10 l 1,-6 1,-4 h 1 l 1,2 1,5 1,7 1,9 v 11 l 1,13 1,13 1,13 1,14 1,14 1,13 1,14 v 13 l 1,13 1,13 1,12 1,11 1,11 1,10 v 8 l 1,7 1,5 1,4 1,2 h 1 l 1,-1 1,-2 v -4 l 1,-4 1,-6 1,-6 1,-7 1,-8 1,-9 1,-10 v -11 l 1,-12 1,-13 1,-15 1,-15 1,-17 1,-18 v -17 l 1,-17 1,-16 1,-14 1,-12 1,-8 1,-5 1,-2 v 1 l 1,3 1,7 1,8 1,10 1,11 1,11 1,12 v 12 l 1,11 1,12 1,11 1,10 1,10 1,9 v 8 l 1,8 1,8 1,6 1,6 1,5 1,4 1,4 v 2 l 1,3 1,1 1,1 h 1 l 1,-1 1,-2 1,-2 v -4 l 1,-5 1,-6 1,-8 1,-9 1,-11 1,-13 v -14 l 1,-15 1,-17 1,-17 1,-17 1,-17 1,-15 1,-13 v -10 l 1,-7 1,-4 1,-1 1,2 1,5 1,7 1,9 v 11 l 1,11 1,13 1,13 1,13 1,13 1,13 v 12 l 1,12 1,12 1,12 1,11 1,11 1,10 1,10 v 9 l 1,8 1,7 1,5 1,4 1,2 h 1 l 1,-1 v -2 l 1,-4 1,-5 1,-6 1,-6 1,-8 1,-9 v -10 l 1,-10 1,-12 1,-12 1,-14 1,-14 1,-16 1,-15 v -17 l 1,-15 1,-15 1,-12 1,-11 1,-7 1,-4 1,-2 v 2 l 1,4 1,7 1,9 1,10 1,11 1,11 v 12 l 1,12 1,12 1,12 1,10 1,11 1,9 1,9 v 8 l 1,8 1,6 1,6 1,4 1,4 1,3 1,2 v 1 l 1,1 1,1 h 1 1 1 l 1,-1 v -1 l 1,-3 1,-4 1,-5 1,-7 1,-8 1,-11 1,-12 v -14 l 1,-15 1,-17 1,-17 1,-18 1,-16 1,-15 1,-13 v -10 l 1,-6 1,-4 h 1 l 1,2 1,6 1,8 v 10 l 1,12 1,12 1,14 1,14 1,14 1,14 1,13 v 14 l 1,13 1,13 1,12 1,13 1,12 1,12 1,12 v 11 l 1,9 1,9 1,6 1,5 1,2 1,1 v -2 l 1,-3 1,-5 1,-6 1,-8 1,-8 1,-9 1,-9 v -11 l 1,-11 1,-12 1,-13 1,-14 1,-15 1,-16 1,-17 v -17 l 1,-16 1,-16 1,-14 1,-11 1,-8 1,-5 v -1 l 1,1 1,4 1,7 1,8 1,10 1,11 1,11 v 12 l 1,11 1,11 1,11 1,10 1,9 1,9 1,8 v 8 l 1,6 1,6 1,5 1,4 1,3 1,2 v 2 l 1,1 h 1 l 1,1 1,1 h 1 1 l 1,-1 v -1 l 1,-2 1,-4 1,-5 1,-7 1,-9 1,-11 1,-12 v -15 l 1,-16 1,-17 1,-18 1,-17 1,-17 1,-15 v -12 l 1,-9 1,-7 1,-3 h 1 l 1,3 1,6 1,8 v 10 l 1,12 1,12 1,14 1,13 1,14 1,13 1,14 v 12 l 1,13 1,12 1,13 1,12 1,12 1,12 v 12 l 1,11 1,10 1,9 1,8 1,6 1,3 1,1 v -1 l 1,-3 1,-5 1,-6 1,-8 1,-9 1,-10 1,-10 v -12 l 1,-12 1,-13 1,-13 1,-15 1,-15 1,-16 v -16 l 1,-17 1,-15 1,-15 1,-13 1,-10 1,-8 1,-4 v -2 l 1,2 1,4 1,7 1,8 1,9 1,11 1,11 v 11 l 1,10 1,11 1,10 1,9 1,8 1,8 v 7 l 1,7 1,6 1,4 1,4 1,4 1,2 1,2 v 2 l 1,1 1,1 1,2 1,2 1,2 1,1 1,1 v 0 l 1,-2 1,-3 1,-5 1,-7 1,-10 1,-11 v -13 l 1,-15 1,-17 1,-18 1,-17 1,-18 1,-16 1,-14 v -12 l 1,-8 1,-6 1,-2 1,1 1,3 1,7 1,9 v 11 l 1,12 1,13 1,13 1,14 1,13 1,14 1,13 v 12 l 1,13 1,12 1,12 1,13 1,12 1,12 v 12 l 1,12 1,11 1,10 1,8 1,5 1,4 1,1 v -2 l 1,-4 1,-5 1,-8 1,-8 1,-10 1,-10 1,-10 v -11 l 1,-12 1,-12 1,-13 1,-13 1,-14 1,-15 v -16 l 1,-16 1,-15 1,-14 1,-12 1,-10 1,-7 1,-4 v -1 l 1,2 1,4 1,7 1,8 1,10 1,10 1,11 v 11 l 1,11 1,11 1,10 1,9 1,9 1,8 v 8 l 1,6 1,6 1,5 1,4 1,3 1,2 1,2 v 1 l 1,1 1,1 1,1 1,1 1,1 1,1 1,1 v -1 l 1,-1 1,-4 1,-5 1,-7 1,-8 1,-11 v -13 l 1,-14 1,-16 1,-17 1,-17 1,-17 1,-16 1,-14 v -11 l 1,-8 1,-6 1,-2 1,2 1,4 1,6 1,9 v 11 l 1,13 1,13 1,14 1,14 1,14 1,14 v 13 l 1,13 1,13 1,13 1,12 1,13 1,12 1,13 v 12 l 1,12 1,11 1,10 1,8 1,6 1,3 1,1 v -1 l 1,-4 1,-6 1,-7 1,-9 1,-9 1,-10 v -11 l 1,-11 1,-12 1,-13 1,-14 1,-15 1,-16 1,-16 v -17 l 1,-18 1,-16 1,-15 1,-13 1,-11 1,-7 1,-4 v -1 l 1,1 1,5 1,7 1,8 1,10 1,11 v 11 l 1,11 1,12 1,11 1,10 1,10 1,9 1,9 v 8 l 1,7 1,7 1,6 1,6 1,4 1,4 1,3 v 3 l 1,1 1,1 h 1 1 l 1,-1 1,-1 v -1 l 1,-2 1,-3 1,-4 1,-5 1,-7 1,-9 1,-10 v -12 l 1,-14 1,-15 1,-16 1,-17 1,-16 1,-16 1,-14 v -11 l 1,-9 1,-5 1,-3 1,1 1,4 1,6 v 8 l 1,11 1,12 1,13 1,13 1,14 1,14 1,14 v 13 l 1,13 1,13 1,12 1,13 1,12 1,13 1,12 v 12 l 1,11 1,10 1,8 1,7 1,4 1,2 v 0 l 1,-2 1,-3 1,-5 1,-7 1,-7 1,-8 1,-8 v -9 l 1,-10 1,-11 1,-12 1,-13 1,-14 1,-15 1,-16 v -17 l 1,-18 1,-17 1,-15 1,-13 1,-11 1,-7 v -5 l 1,-1 1,2 1,4 1,7 1,8 1,10 1,11 v 11 l 1,11 1,11 1,11 1,10 1,10 1,9 1,9 v 8 l 1,7 1,8 1,6 1,6 1,6 1,5 v 5 l 1,4 1,3 1,2 1,2 h 1 1 l 1,-1 v -1 l 1,-3 1,-3 1,-5 1,-5 1,-7"
           stroke="#d86ecc"
           stroke-width="2"
           stroke-linecap="round"
           stroke-linejoin="round"
           stroke-miterlimit="10"
           fill="none"
           id="path12" />
      </g>
      <g
         clip-path="url(#clip1)"
         id="g14">
        <path
           d="m 979,635 2,-36 4,-37 1,-28 1,-35 2,-29 1,-18 3,-10 3,17 2,30 3,28 3,32 4,39 4,28 1,16 3,17 2,2 4,-16 1,-20 2,-25 2,-35 2,-28 1,-31 2,-31 2,-18 2,-12 3,16 3,26 2,23 2,25 4,36 2,17 3,29 2,21 3,12 6,-10 3,-32 2,-29 2,-34 2,-26 v -27 l 3,-18 1,-10 3,10 3,23 2,26 2,30 1,27 3,20 1,22 2,24 3,15 4,4 5,-12 3,-23 3,-32 3,-34 v -25 l 2,-19 2,-21 1,-13 2,-5 2,16 2,21 3,33 2,27 3,33 1,38 2,22 3,17 3,10 5,-11 3,-22 3,-26 2,-31 2,-27 1,-22 2,-23 1,-19 1,-16 3,-5 3,24 2,22 2,30 2,27 2,28 1,24 2,28 3,21 3,10 5,-10 3,-20 1,-26 3,-30 2,-21 2,-22 1,-23 2,-24 2,-21 2,-8 3,16 3,27 3,32 1,23 2,31 2,27 2,20 4,12 4,-4 6,-19 2,-25 2,-33 3,-28 v -25 l 2,-24 2,-20 2,-14 4,15 3,34 2,40 3,34 2,31 2,26 2,22 3,13 5,-5 3,-23 3,-30 1,-27 3,-31 2,-33 1,-27 3,-27 3,-14 2,17 3,34 4,32 2,38 2,34 2,21 5,21 3,-2 5,-23 2,-31 3,-35 1,-34 2,-30 3,-39 2,-15 5,25 2,32 2,30 3,40 2,38 3,25 3,19 3,12 4,-11 4,-30 2,-28 4,-41 1,-32 3,-34 1,-33 4,-11 2,21 2,25 3,38 3,34 3,38 3,26 3,17 3,4 3,-17 3,-26 3,-23 4,-47 v -29 l 2,-27 1,-20 4,-15 4,20 2,25 2,37 1,26 1,25 3,33 5,32 2,23 4,-5 3,-21 3,-27 2,-27 4,-34 1,-33 1,-30 2,-23 2,-16 4,14 2,25 2,28 2,28 3,38 2,27 2,22 5,23 5,-11 4,-29 2,-25 2,-29 2,-31 1,-35 2,-26 2,-19 2,-5 3,19 3,27 2,25 1,29 2,32 2,27 2,26 4,27 2,8 3,-8 5,-23 2,-22 2,-33 3,-38 3,-42 1,-29 2,-15 2,-5 3,18 1,17 2,23 2,23 1,20 3,25 v 24 l 2,20 3,14 2,15 4,7 3,-15 3,-18 2,-22 1,-29 2,-29 3,-24 v -29 l 1,-16 2,-23 3,-5 3,19 1,21 2,18 1,23 1,20 3,31 2,19 2,30 3,20 2,14 4,-10 5,-20 1,-26 3,-25 3,-40 v -25 l 2,-29 2,-19 3,-19 2,17 2,31 3,29 3,33 2,39 4,29 2,21 3,14 4,-12 3,-29 4,-27 2,-30 2,-35 1,-28 2,-29 2,-15 3,-5 2,27 2,24 4,36 3,36 2,37 3,29 4,15 5,-4 4,-23 3,-36 2,-44 2,-28 2,-33 2,-17 3,-18 3,11 2,30 2,31 2,35 3,39 2,25 2,20 3,18 4,6 3,-12 4,-26 2,-28 2,-30 2,-35 1,-26 2,-31 3,-16 3,-11 4,31 1,34 3,41 2,35 2,23 4,25 3,14 5,-5 3,-26 2,-27 4,-34 2,-27 1,-29 v -23 l 3,-20 2,-11 5,22 1,28 3,26 1,26 1,32 3,34 2,23 2,15 4,13 5,-10 3,-29 3,-31 3,-32 1,-40 2,-25 1,-23 2,-18 2,-10 4,23 2,26 2,27 3,33 2,28 2,27 3,27 4,10 5,-15 3,-18 1,-13"
           stroke="#000000"
           stroke-width="2"
           stroke-linecap="round"
           stroke-linejoin="round"
           stroke-miterlimit="10"
           stroke-dasharray="4, 4"
           fill="none"
           id="path13" />
      </g>
      <g
         id="g15">
        <text
           font-family="Arial, Arial_MSFontService, sans-serif"
           font-weight="400"
           font-size="12px"
           transform="translate(949,752)"
           id="text14">-1.0</text>
      </g>
      <g
         id="g16">
        <text
           font-family="Arial, Arial_MSFontService, sans-serif"
           font-weight="400"
           font-size="12px"
           transform="translate(949,711)"
           id="text15">-0.5</text>
      </g>
      <g
         id="g17">
        <text
           font-family="Arial, Arial_MSFontService, sans-serif"
           font-weight="400"
           font-size="12px"
           transform="translate(952.993,670)"
           id="text16">0.0</text>
      </g>
      <g
         id="g18">
        <text
           font-family="Arial, Arial_MSFontService, sans-serif"
           font-weight="400"
           font-size="12px"
           transform="translate(952.993,629)"
           id="text17">0.5</text>
      </g>
      <g
         id="g19">
        <text
           font-family="Arial, Arial_MSFontService, sans-serif"
           font-weight="400"
           font-size="12px"
           transform="translate(952.993,587)"
           id="text18">1.0</text>
      </g>
      <g
         id="g20">
        <text
           font-family="Arial, Arial_MSFontService, sans-serif"
           font-weight="400"
           font-size="12px"
           transform="translate(952.993,546)"
           id="text19">1.5</text>
      </g>
      <g
         id="g21">
        <text
           font-family="Arial, Arial_MSFontService, sans-serif"
           font-weight="400"
           font-size="12px"
           transform="translate(952.993,505)"
           id="text20">2.0</text>
      </g>
      <g
         id="g22">
        <text
           font-family="Arial, Arial_MSFontService, sans-serif"
           font-weight="400"
           font-size="12px"
           transform="translate(952.993,464)"
           id="text21">2.5</text>
      </g>
      <g
         id="g23">
        <text
           font-family="Arial, Arial_MSFontService, sans-serif"
           font-weight="400"
           font-size="12px"
           transform="translate(952.993,423)"
           id="text22">3.0</text>
      </g>
      <g
         id="g24">
        <text
           font-family="Arial, Arial_MSFontService, sans-serif"
           font-weight="400"
           font-size="12px"
           transform="translate(976.657,684)"
           id="text23">0</text>
      </g>
      <g
         id="g25">
        <text
           font-family="Arial, Arial_MSFontService, sans-serif"
           font-weight="400"
           font-size="12px"
           transform="translate(1063.62,684)"
           id="text24">2</text>
      </g>
      <g
         id="g26">
        <text
           font-family="Arial, Arial_MSFontService, sans-serif"
           font-weight="400"
           font-size="12px"
           transform="translate(1150.59,684)"
           id="text25">4</text>
      </g>
      <g
         id="g27">
        <text
           font-family="Arial, Arial_MSFontService, sans-serif"
           font-weight="400"
           font-size="12px"
           transform="translate(1237.56,684)"
           id="text26">6</text>
      </g>
      <g
         id="g28">
        <text
           font-family="Arial, Arial_MSFontService, sans-serif"
           font-weight="400"
           font-size="12px"
           transform="translate(1324.52,684)"
           id="text27">8</text>
      </g>
      <g
         id="g29">
        <text
           font-family="Arial, Arial_MSFontService, sans-serif"
           font-weight="400"
           font-size="12px"
           transform="translate(1408.15,684)"
           id="text28">10</text>
      </g>
      <g
         id="g30">
        <text
           font-family="Arial, Arial_MSFontService, sans-serif"
           font-weight="400"
           font-size="12px"
           transform="translate(1495.12,684)"
           id="text29">12</text>
      </g>
      <g
         id="g31">
        <text
           font-family="Arial, Arial_MSFontService, sans-serif"
           font-weight="400"
           font-size="12px"
           transform="translate(1582.09,684)"
           id="text30">14</text>
      </g>
      <g
         id="g32">
        <text
           font-family="Arial, Arial_MSFontService, sans-serif"
           font-weight="400"
           font-size="12px"
           transform="translate(1669.05,684)"
           id="text31">16</text>
      </g>
      <g
         id="g33">
        <text
           font-family="Arial, Arial_MSFontService, sans-serif"
           font-weight="400"
           font-size="12px"
           transform="translate(1756.02,684)"
           id="text32">18</text>
      </g>
      <g
         id="g34">
        <text
           font-family="Arial, Arial_MSFontService, sans-serif"
           font-weight="400"
           font-size="12px"
           transform="translate(1842.99,684)"
           id="text33">20</text>
      </g>
      <g
         id="g35">
        <text
           font-family="Arial, Arial_MSFontService, sans-serif"
           font-weight="400"
           font-size="13px"
           transform="rotate(-90,803.3335,-139.3335)"
           id="text34">Coeficiente de sustentação</text>
      </g>
      <g
         id="g36">
        <text
           font-family="Arial, Arial_MSFontService, sans-serif"
           font-weight="400"
           font-size="13px"
           transform="translate(1394.08,763)"
           id="text35">Tempo</text>
      </g>
      <g
         id="g37">
        <path
           d="m 1064,793 h 34"
           stroke="#e97132"
           stroke-width="2"
           stroke-linecap="round"
           stroke-linejoin="round"
           stroke-miterlimit="10"
           fill="none"
           fill-rule="evenodd"
           id="path36" />
      </g>
      <g
         id="g38">
        <text
           font-family="Arial, Arial_MSFontService, sans-serif"
           font-weight="400"
           font-size="12px"
           transform="translate(1101.25,797)"
           id="text37">SUPG/PSPG-m1</text>
      </g>
      <g
         id="g39">
        <path
           d="m 1217,793 h 34"
           stroke="#196b24"
           stroke-width="2"
           stroke-linecap="round"
           stroke-linejoin="round"
           stroke-miterlimit="10"
           fill="none"
           fill-rule="evenodd"
           id="path38" />
      </g>
      <g
         id="g40">
        <text
           font-family="Arial, Arial_MSFontService, sans-serif"
           font-weight="400"
           font-size="12px"
           transform="translate(1254.21,797)"
           id="text39">LES-m1</text>
      </g>
      <g
         id="g41">
        <path
           d="m 1322,793 h 33"
           stroke="#0f9ed5"
           stroke-width="2"
           stroke-linecap="round"
           stroke-linejoin="round"
           stroke-miterlimit="10"
           fill="none"
           fill-rule="evenodd"
           id="path40" />
      </g>
      <g
         id="g42">
        <text
           font-family="Arial, Arial_MSFontService, sans-serif"
           font-weight="400"
           font-size="12px"
           transform="translate(1359.16,797)"
           id="text41">VMS-m1</text>
      </g>
      <g
         id="g43">
        <path
           d="m 1430,793 h 34"
           stroke="#d86ecc"
           stroke-width="2"
           stroke-linecap="round"
           stroke-linejoin="round"
           stroke-miterlimit="10"
           fill="none"
           fill-rule="evenodd"
           id="path42" />
      </g>
      <g
         id="g44">
        <text
           font-family="Arial, Arial_MSFontService, sans-serif"
           font-weight="400"
           font-size="12px"
           transform="translate(1467.43,797)"
           id="text43">LES-VMS-m1</text>
      </g>
      <g
         id="g45">
        <path
           d="m 1565,793 h 34"
           stroke="#000000"
           stroke-width="2"
           stroke-linecap="round"
           stroke-linejoin="round"
           stroke-miterlimit="10"
           stroke-dasharray="4, 4"
           fill="none"
           fill-rule="evenodd"
           id="path44" />
      </g>
      <g
         id="g46">
        <text
           font-family="Arial, Arial_MSFontService, sans-serif"
           font-weight="400"
           font-size="12px"
           transform="translate(1602.38,797)"
           id="text45">Mittal, Tezduyar (1992)</text>
      </g>
    </g>
  </g>
</svg>
