<?xml version="1.0" encoding="UTF-8" standalone="no"?>
<!-- Created with Inkscape (http://www.inkscape.org/) -->

<svg
   width="255.05833mm"
   height="110.33125mm"
   viewBox="0 0 255.05833 110.33125"
   version="1.1"
   id="svg1"
   inkscape:version="1.3.2 (091e20e, 2023-11-25, custom)"
   sodipodi:docname="Cl.svg"
   xmlns:inkscape="http://www.inkscape.org/namespaces/inkscape"
   xmlns:sodipodi="http://sodipodi.sourceforge.net/DTD/sodipodi-0.dtd"
   xmlns="http://www.w3.org/2000/svg"
   xmlns:svg="http://www.w3.org/2000/svg">
  <sodipodi:namedview
     id="namedview1"
     pagecolor="#ffffff"
     bordercolor="#000000"
     borderopacity="0.25"
     inkscape:showpageshadow="2"
     inkscape:pageopacity="0.0"
     inkscape:pagecheckerboard="0"
     inkscape:deskcolor="#d1d1d1"
     inkscape:document-units="mm"
     inkscape:zoom="0.73139029"
     inkscape:cx="535.96555"
     inkscape:cy="146.98035"
     inkscape:window-width="1920"
     inkscape:window-height="1017"
     inkscape:window-x="1912"
     inkscape:window-y="-8"
     inkscape:window-maximized="1"
     inkscape:current-layer="layer1" />
  <defs
     id="defs1">
    <clipPath
       id="clip0">
      <rect
         x="748"
         y="413"
         width="964"
         height="417"
         id="rect1" />
    </clipPath>
    <clipPath
       id="clip1">
      <rect
         x="815"
         y="427"
         width="876"
         height="340"
         id="rect2" />
    </clipPath>
  </defs>
  <g
     inkscape:label="Camada 1"
     inkscape:groupmode="layer"
     id="layer1"
     transform="translate(110.06667,-139.17083)">
    <g
       clip-path="url(#clip0)"
       transform="matrix(0.26458333,0,0,0.26458333,-307.975,29.897913)"
       id="g44">
      <rect
         x="748"
         y="413"
         width="964"
         height="417"
         fill="#ffffff"
         id="rect3" />
      <g
         id="g3">
        <path
           d="m 815.5,766.5 h 875 m -875,-42 h 875 m -875,-85 h 875 m -875,-42 h 875 m -875,-43 h 875 m -875,-42 h 875 m -875,-42 h 875 m -875,-43 h 875"
           stroke="#d9d9d9"
           stroke-linejoin="round"
           stroke-miterlimit="10"
           fill="none"
           id="path3" />
      </g>
      <g
         id="g4">
        <path
           d="m 902.5,427.5 v 339 m 88,-339 v 339 m 87,-339 v 339 m 88,-339 v 339 m 87,-339 v 339 m 88,-339 v 339 m 87,-339 v 339 m 88,-339 v 339 m 87,-339 v 339 m 88,-339 v 339"
           stroke="#d9d9d9"
           stroke-linejoin="round"
           stroke-miterlimit="10"
           fill="none"
           id="path4" />
      </g>
      <g
         id="g5">
        <rect
           x="815.5"
           y="427.5"
           width="875"
           height="339"
           stroke="#000000"
           stroke-linejoin="round"
           stroke-miterlimit="10"
           fill="none"
           id="rect4" />
      </g>
      <g
         id="g6">
        <path
           d="M 0,0 1.04987e-4,339"
           stroke="#000000"
           stroke-linejoin="round"
           stroke-miterlimit="10"
           fill="none"
           fill-rule="evenodd"
           transform="matrix(1,0,0,-1,815.5,766.5)"
           id="path5" />
      </g>
      <g
         id="g7">
        <path
           d="m 815.5,766.5 h 3 m -3,-8 h 3 m -3,-9 h 3 m -3,-8 h 3 m -3,-9 h 3 m -3,-8 h 3 m -3,-9 h 3 m -3,-8 h 3 m -3,-9 h 3 m -3,-8 h 3 m -3,-9 h 3 m -3,-8 h 3 m -3,-9 h 3 m -3,-8 h 3 m -3,-9 h 3 m -3,-8 h 3 m -3,-8 h 3 m -3,-9 h 3 m -3,-8 h 3 m -3,-9 h 3 m -3,-8 h 3 m -3,-9 h 3 m -3,-8 h 3 m -3,-9 h 3 m -3,-8 h 3 m -3,-9 h 3 m -3,-8 h 3 m -3,-9 h 3 m -3,-8 h 3 m -3,-9 h 3 m -3,-8 h 3 m -3,-9 h 3 m -3,-8 h 3 m -3,-9 h 3 m -3,-8 h 3 m -3,-8 h 3 m -3,-9 h 3 m -3,-8 h 3 m -3,-9 h 3 m -3,-8 h 3 m -3,-9 h 3 m -7,339 h 8 m -8,-42 h 8 m -8,-43 h 8 m -8,-42 h 8 m -8,-42 h 8 m -8,-43 h 8 m -8,-42 h 8 m -8,-42 h 8 m -8,-43 h 8"
           stroke="#000000"
           stroke-linejoin="round"
           stroke-miterlimit="10"
           fill="none"
           id="path6" />
      </g>
      <g
         id="g8">
        <path
           d="m 815.5,681.5 h 875"
           stroke="#000000"
           stroke-linejoin="round"
           stroke-miterlimit="10"
           fill="none"
           fill-rule="evenodd"
           id="path7" />
      </g>
      <g
         id="g9">
        <path
           d="m 815.5,679.5 v 2 m 17,-2 v 2 m 18,-2 v 2 m 17,-2 v 2 m 18,-2 v 2 m 17,-2 v 2 m 18,-2 v 2 m 17,-2 v 2 m 18,-2 v 2 m 17,-2 v 2 m 18,-2 v 2 m 17,-2 v 2 m 18,-2 v 2 m 17,-2 v 2 m 18,-2 v 2 m 17,-2 v 2 m 18,-2 v 2 m 17,-2 v 2 m 18,-2 v 2 m 17,-2 v 2 m 18,-2 v 2 m 17,-2 v 2 m 18,-2 v 2 m 17,-2 v 2 m 18,-2 v 2 m 17,-2 v 2 m 18,-2 v 2 m 17,-2 v 2 m 18,-2 v 2 m 17,-2 v 2 m 18,-2 v 2 m 17,-2 v 2 m 18,-2 v 2 m 17,-2 v 2 m 18,-2 v 2 m 17,-2 v 2 m 18,-2 v 2 m 17,-2 v 2 m 18,-2 v 2 m 17,-2 v 2 m 18,-2 v 2 m 17,-2 v 2 m 18,-2 v 2 m 17,-2 v 2 m 18,-2 v 2 m 17,-2 v 2 m 18,-2 v 2 m 17,-2 v 2 m 18,-2 v 2 m 17,-2 v 2 m 18,-2 v 2 m -875,-3 v 7 m 87,-7 v 7 m 88,-7 v 7 m 87,-7 v 7 m 88,-7 v 7 m 87,-7 v 7 m 88,-7 v 7 m 87,-7 v 7 m 88,-7 v 7 m 87,-7 v 7 m 88,-7 v 7"
           stroke="#000000"
           stroke-linejoin="round"
           stroke-miterlimit="10"
           fill="none"
           id="path8" />
      </g>
      <g
         id="g10">
        <path
           d="m 815,641 1,-20 1,-15 1,-16 1,-17 1,-18 1,-18 1,-18 v -17 l 1,-16 1,-13 1,-11 1,-8 1,-4 1,-1 1,2 v 4 l 1,7 1,9 1,10 1,11 1,12 1,11 1,11 v 11 l 1,11 1,9 1,8 1,8 1,7 1,5 1,6 v 4 l 1,5 1,5 1,6 1,7 1,7 1,7 1,8 v 7 l 1,6 1,5 1,3 1,1 h 1 l 1,-3 1,-6 v -8 l 1,-10 1,-13 1,-14 1,-17 1,-17 1,-19 1,-20 v -19 l 1,-18 1,-17 1,-15 1,-13 1,-10 1,-7 1,-4 v 0 l 1,2 1,4 1,7 1,8 1,10 1,10 1,11 v 10 l 1,10 1,10 1,9 1,8 1,8 1,7 1,7 v 7 l 1,7 1,8 1,8 1,9 1,10 1,9 1,10 v 8 l 1,7 1,5 1,3 1,2 1,-1 1,-2 1,-3 v -5 l 1,-5 1,-7 1,-7 1,-7 1,-10 1,-10 1,-12 v -14 l 1,-15 1,-16 1,-16 1,-15 1,-15 1,-12 1,-9 v -7 l 1,-3 h 1 l 1,2 1,6 1,7 1,10 1,11 v 12 l 1,13 1,13 1,14 1,13 1,12 1,12 1,12 v 12 l 1,11 1,10 1,10 1,10 1,8 1,8 1,6 v 5 l 1,3 1,2 h 1 1 l 1,-2 1,-2 1,-2 v -3 l 1,-3 1,-3 1,-4 1,-5 1,-6 1,-8 1,-8 v -11 l 1,-13 1,-14 1,-16 1,-17 1,-17 1,-17 1,-15 v -12 l 1,-10 1,-7 1,-3 h 1 l 1,2 1,6 1,8 v 10 l 1,12 1,13 1,14 1,14 1,15 1,14 1,13 v 14 l 1,13 1,12 1,11 1,10 1,10 1,8 1,6 v 5 l 1,3 1,2 1,1 h 1 l 1,-1 1,-1 1,-2 v -2 l 1,-2 1,-2 1,-3 1,-3 1,-4 1,-5 1,-6 v -7 l 1,-9 1,-10 1,-12 1,-13 1,-15 1,-16 1,-17 v -15 l 1,-15 1,-13 1,-10 1,-7 1,-5 1,-1 1,1 v 5 l 1,7 1,9 1,11 1,13 1,13 1,14 1,14 v 13 l 1,14 1,13 1,13 1,13 1,12 1,11 1,10 v 9 l 1,8 1,7 1,5 1,4 1,1 1,1 1,-2 v -2 l 1,-4 1,-3 1,-5 1,-4 1,-5 1,-5 1,-6 v -7 l 1,-7 1,-9 1,-10 1,-11 1,-13 1,-15 1,-15 v -17 l 1,-16 1,-16 1,-14 1,-12 1,-9 1,-7 1,-3 v 0 l 1,2 1,6 1,8 1,11 1,12 1,13 1,14 v 15 l 1,15 1,14 1,15 1,14 1,14 1,13 1,13 v 11 l 1,10 1,8 1,6 1,3 1,2 h 1 l 1,-2 v -3 l 1,-3 1,-4 1,-3 1,-4 1,-4 1,-3 1,-4 v -4 l 1,-6 1,-6 1,-7 1,-8 1,-10 1,-11 1,-13 v -14 l 1,-15 1,-16 1,-16 1,-15 1,-14 1,-12 1,-10 v -6 l 1,-4 h 1 l 1,2 1,5 1,8 1,10 1,11 v 13 l 1,14 1,15 1,14 1,15 1,14 1,15 1,14 v 14 l 1,13 1,13 1,11 1,11 1,10 1,8 1,7 v 5 l 1,3 1,1 h 1 l 1,-2 1,-3 1,-4 1,-5 v -5 l 1,-6 1,-7 1,-7 1,-8 1,-9 1,-10 1,-12 v -12 l 1,-14 1,-16 1,-17 1,-18 1,-19 1,-17 1,-17 v -15 l 1,-12 1,-10 1,-6 1,-2 1,1 1,3 1,7 v 8 l 1,10 1,12 1,12 1,13 1,13 1,13 1,12 v 13 l 1,11 1,12 1,11 1,10 1,10 1,9 1,9 v 8 l 1,7 1,6 1,5 1,3 1,2 h 1 l 1,-1 v -2 l 1,-3 1,-5 1,-6 1,-6 1,-8 1,-8 1,-10 v -11 l 1,-12 1,-13 1,-14 1,-16 1,-16 1,-16 1,-17 v -16 l 1,-14 1,-13 1,-10 1,-7 1,-4 1,-1 1,2 v 5 l 1,7 1,8 1,11 1,12 1,12 1,13 1,12 v 13 l 1,12 1,12 1,11 1,11 1,9 1,9 1,8 v 6 l 1,5 1,4 1,3 1,2 1,1 1,1 h 1 v 0 h 1 l 1,-1 1,-1 1,-1 1,-3 1,-4 1,-5 v -6 l 1,-8 1,-9 1,-11 1,-13 1,-14 1,-15 1,-16 v -16 l 1,-16 1,-15 1,-14 1,-12 1,-9 1,-6 v -3 l 1,-1 1,3 1,5 1,8 1,9 1,12 1,12 v 13 l 1,14 1,14 1,13 1,14 1,13 1,13 1,13 v 12 l 1,11 1,11 1,10 1,9 1,7 1,6 1,5 v 3 l 1,1 h 1 l 1,-1 1,-2 1,-4 1,-3 1,-5 v -5 l 1,-6 1,-6 1,-8 1,-8 1,-9 1,-10 1,-12 v -13 l 1,-14 1,-15 1,-16 1,-16 1,-15 1,-14 1,-13 v -9 l 1,-8 1,-4 1,-1 1,1 1,5 1,7 1,8 v 11 l 1,11 1,12 1,13 1,13 1,12 1,12 1,12 v 11 l 1,11 1,9 1,9 1,8 1,7 1,5 1,5 v 4 l 1,3 1,2 1,2 h 1 l 1,1 1,-1 1,-1 v -2 l 1,-2 1,-3 1,-4 1,-5 1,-7 1,-8 1,-9 v -11 l 1,-12 1,-14 1,-15 1,-17 1,-17 1,-17 1,-16 v -15 l 1,-12 1,-10 1,-7 1,-4 1,-1 1,2 1,5 v 8 l 1,9 1,11 1,13 1,13 1,13 1,14 1,13 v 13 l 1,13 1,13 1,12 1,12 1,12 1,11 1,11 v 9 l 1,9 1,8 1,7 1,5 1,3 1,2 1,1 v -2 l 1,-2 1,-5 1,-5 1,-7 1,-7 1,-9 1,-9 v -10 l 1,-12 1,-12 1,-13 1,-15 1,-16 1,-17 1,-17 v -18 l 1,-16 1,-16 1,-13 1,-11 1,-8 1,-4 1,-2 v 2 l 1,4 1,7 1,8 1,11 1,11 1,12 1,13 v 12 l 1,12 1,11 1,11 1,11 1,9 1,9 1,9 v 8 l 1,7 1,6 1,6 1,5 1,5 1,4 1,2 v 3 l 1,1 1,1 h 1 l 1,-1 1,-1 1,-2 1,-4 v -5 l 1,-6 1,-7 1,-10 1,-11 1,-13 1,-15 1,-16 v -17 l 1,-18 1,-18 1,-16 1,-15 1,-13 1,-10 1,-7 v -4 l 1,-1 1,3 1,5 1,8 1,10 1,11 1,12 v 14 l 1,13 1,14 1,13 1,13 1,13 1,13 1,12 v 12 l 1,12 1,11 1,11 1,11 1,10 1,8 1,8 v 6 l 1,4 1,3 h 1 l 1,-1 1,-3 1,-4 1,-6 v -7 l 1,-8 1,-8 1,-10 1,-10 1,-11 1,-12 1,-13 v -14 l 1,-15 1,-16 1,-16 1,-17 1,-16 1,-15 1,-13 v -10 l 1,-8 1,-4 1,-2 1,2 1,4 1,7 1,8 v 10 l 1,12 1,11 1,12 1,12 1,11 1,11 1,11 v 9 l 1,9 1,9 1,7 1,7 1,6 1,5 1,5 v 4 l 1,3 1,3 1,2 1,2 1,1 1,1 1,1 v 0 h 1 l 1,-1 1,-3 1,-4 1,-6 1,-7 1,-10 v -12 l 1,-13 1,-16 1,-17 1,-19 1,-18 1,-18 1,-18 v -15 l 1,-12 1,-10 1,-7 1,-3 h 1 l 1,3 1,6 v 8 l 1,11 1,12 1,13 1,13 1,14 1,14 1,13 v 14 l 1,13 1,13 1,12 1,13 1,12 1,12 1,13 v 12 l 1,12 1,11 1,10 1,8 1,6 1,4 1,1 v 0 l 1,-3 1,-5 1,-7 1,-8 1,-9 1,-10 1,-11 v -12 l 1,-13 1,-13 1,-14 1,-15 1,-16 1,-16 1,-17 v -17 l 1,-17 1,-15 1,-13 1,-10 1,-8 1,-4 1,-2 v 2 l 1,4 1,6 1,9 1,9 1,11 1,11 1,11 v 11 l 1,11 1,9 1,9 1,9 1,7 1,7 1,6 v 4 l 1,5 1,3 1,3 1,2 1,2 1,2 1,2 v 1 l 1,3 1,2 1,3 1,2 1,1 h 1 l 1,-2 v -4 l 1,-6 1,-8 1,-11 1,-13 1,-16 1,-17 1,-18 v -19 l 1,-18 1,-18 1,-16 1,-14 1,-11 1,-9 1,-5 v -1 l 1,1 1,5 1,7 1,10 1,11 1,13 1,13 v 14 l 1,14 1,14 1,13 1,13 1,13 1,13 1,12 v 12 l 1,12 1,13 1,12 1,14 1,13 1,12 1,11 v 10 l 1,7 1,4 1,2 1,-1 1,-4 1,-6 1,-8 v -9 l 1,-10 1,-12 1,-11 1,-13 1,-12 1,-13 1,-14 v -14 l 1,-15 1,-15 1,-16 1,-16 1,-15 1,-14 1,-12 v -10 l 1,-6 1,-4 1,-1 1,2 1,5 1,7 1,9 v 10 l 1,11 1,11 1,11 1,12 1,10 1,10 1,10 v 9 l 1,7 1,7 1,6 1,5 1,4 1,3 1,3 v 1 l 1,1 h 1 l 1,1 h 1 l 1,1 1,2 1,2 v 1 h 1 l 1,-1 1,-2 1,-4 1,-6 1,-8 1,-9 v -12 l 1,-13 1,-15 1,-17 1,-16 1,-17 1,-16 1,-14 v -12 l 1,-10 1,-7 1,-4 h 1 l 1,2 1,5 1,8 v 10 l 1,12 1,13 1,14 1,15 1,14 1,14 1,14 v 14 l 1,13 1,13 1,13 1,12 1,13 1,13 1,13 v 13 l 1,13 1,12 1,10 1,8 1,6 1,2 1,-1 v -3 l 1,-5 1,-6 1,-8 1,-9 1,-9 1,-10 1,-10 v -11"
           stroke="#e97132"
           stroke-width="2"
           stroke-linecap="round"
           stroke-linejoin="round"
           stroke-miterlimit="10"
           fill="none"
           id="path9" />
      </g>
      <g
         id="g11">
        <path
           d="m 815,647 1,-25 1,-14 1,-16 1,-17 1,-18 1,-19 1,-18 v -18 l 1,-16 1,-14 1,-11 1,-8 1,-5 1,-1 1,1 v 4 l 1,7 1,8 1,10 1,11 1,11 1,11 1,10 v 11 l 1,9 1,9 1,8 1,7 1,7 1,6 1,5 v 6 l 1,7 1,7 1,8 1,8 1,10 1,9 1,9 v 7 l 1,7 1,5 1,3 1,1 1,-1 1,-4 1,-6 v -8 l 1,-11 1,-13 1,-14 1,-16 1,-17 1,-19 1,-19 v -19 l 1,-18 1,-17 1,-15 1,-13 1,-11 1,-7 1,-4 v -1 l 1,2 1,4 1,7 1,8 1,9 1,10 1,10 v 10 l 1,9 1,10 1,8 1,8 1,8 1,6 1,7 v 6 l 1,7 1,7 1,8 1,9 1,9 1,10 1,9 v 9 l 1,7 1,5 1,4 1,2 h 1 l 1,-2 1,-3 v -5 l 1,-5 1,-7 1,-7 1,-7 1,-9 1,-10 1,-11 v -13 l 1,-14 1,-15 1,-16 1,-16 1,-14 1,-13 1,-9 v -7 l 1,-3 1,-1 1,3 1,5 1,8 1,9 1,11 v 12 l 1,13 1,13 1,13 1,13 1,12 1,12 1,12 v 11 l 1,11 1,10 1,9 1,10 1,8 1,7 1,7 v 5 l 1,3 1,3 1,1 h 1 l 1,-1 1,-1 1,-2 v -3 l 1,-3 1,-4 1,-4 1,-5 1,-6 1,-7 1,-9 v -10 l 1,-12 1,-14 1,-16 1,-17 1,-18 1,-17 1,-15 v -14 l 1,-10 1,-6 1,-4 h 1 l 1,3 1,6 1,9 v 10 l 1,12 1,13 1,14 1,14 1,14 1,14 1,14 v 13 l 1,13 1,12 1,11 1,10 1,9 1,8 1,7 v 5 l 1,4 1,2 1,2 1,1 h 1 1 l 1,-1 v -1 l 1,-2 1,-2 1,-3 1,-4 1,-4 1,-5 1,-6 v -7 l 1,-8 1,-10 1,-11 1,-13 1,-15 1,-17 1,-17 v -16 l 1,-16 1,-14 1,-11 1,-9 1,-5 1,-2 1,1 v 4 l 1,6 1,9 1,11 1,12 1,13 1,13 1,14 v 14 l 1,13 1,13 1,13 1,12 1,12 1,11 1,10 v 10 l 1,10 1,8 1,7 1,6 1,5 1,2 1,1 v -1 l 1,-2 1,-4 1,-6 1,-6 1,-7 1,-8 1,-8 v -8 l 1,-8 1,-9 1,-9 1,-10 1,-12 1,-12 1,-14 v -14 l 1,-15 1,-15 1,-14 1,-12 1,-10 1,-7 1,-4 v 0 l 1,2 1,4 1,7 1,9 1,10 1,11 1,12 v 12 l 1,12 1,11 1,12 1,10 1,11 1,9 1,8 v 8 l 1,7 1,5 1,4 1,4 1,2 1,2 h 1 v 0 l 1,-1 1,-1 1,-2 1,-2 1,-3 1,-2 1,-3 v -4 l 1,-4 1,-5 1,-6 1,-8 1,-9 1,-10 1,-11 v -13 l 1,-14 1,-15 1,-16 1,-15 1,-14 1,-13 1,-9 v -7 l 1,-4 h 1 l 1,2 1,5 1,8 1,9 1,11 v 12 l 1,13 1,13 1,13 1,14 1,13 1,13 1,13 v 13 l 1,12 1,11 1,11 1,9 1,9 1,8 1,7 v 5 l 1,4 1,3 1,1 1,-1 1,-1 1,-3 1,-3 v -5 l 1,-6 1,-8 1,-8 1,-9 1,-10 1,-11 1,-12 v -14 l 1,-15 1,-17 1,-18 1,-18 1,-19 1,-18 1,-16 v -14 l 1,-12 1,-8 1,-5 1,-2 1,1 1,4 1,7 v 9 l 1,10 1,11 1,12 1,12 1,12 1,11 1,11 v 11 l 1,9 1,9 1,9 1,7 1,7 1,7 1,6 v 5 l 1,5 1,4 1,4 1,4 1,2 1,2 1,1 v 1 l 1,-1 1,-2 1,-2 1,-4 1,-4 1,-6 1,-8 v -9 l 1,-11 1,-12 1,-15 1,-15 1,-17 1,-18 1,-17 v -17 l 1,-15 1,-13 1,-10 1,-7 1,-4 1,-1 1,2 v 5 l 1,7 1,10 1,11 1,12 1,12 1,13 1,13 v 13 l 1,13 1,13 1,12 1,11 1,11 1,11 1,11 v 10 l 1,9 1,9 1,8 1,7 1,6 1,4 1,2 v 1 l 1,-1 1,-2 1,-3 1,-5 1,-6 1,-7 1,-8 v -8 l 1,-10 1,-10 1,-11 1,-12 1,-14 1,-14 1,-16 v -16 l 1,-16 1,-16 1,-15 1,-12 1,-10 1,-8 v -4 l 1,-1 1,2 1,5 1,7 1,9 1,10 1,11 v 12 l 1,12 1,12 1,12 1,11 1,11 1,10 1,10 v 8 l 1,8 1,7 1,7 1,6 1,5 1,4 1,4 v 3 l 1,3 1,2 1,1 1,1 h 1 1 l 1,-2 v -1 l 1,-3 1,-3 1,-5 1,-7 1,-8 1,-9 1,-12 v -14 l 1,-15 1,-17 1,-17 1,-18 1,-17 1,-16 1,-13 v -11 l 1,-7 1,-4 h 1 l 1,2 1,6 1,7 1,10 v 12 l 1,13 1,13 1,14 1,14 1,14 1,13 1,14 v 13 l 1,13 1,13 1,12 1,12 1,12 1,11 1,11 v 10 l 1,8 1,7 1,5 1,3 1,1 1,-1 1,-2 v -4 l 1,-6 1,-6 1,-8 1,-9 1,-10 1,-10 1,-12 v -12 l 1,-14 1,-14 1,-16 1,-17 1,-18 1,-18 1,-17 v -16 l 1,-14 1,-12 1,-8 1,-5 1,-2 1,2 1,4 v 7 l 1,8 1,11 1,11 1,12 1,11 1,12 1,11 v 11 l 1,10 1,10 1,9 1,8 1,6 1,7 1,5 v 4 l 1,4 1,3 1,2 1,2 1,1 1,1 h 1 v 0 h 1 l 1,-1 h 1 l 1,-2 1,-2 1,-4 1,-5 v -7 l 1,-9 1,-11 1,-13 1,-15 1,-16 1,-18 1,-19 v -18 l 1,-18 1,-15 1,-12 1,-10 1,-6 1,-3 h 1 v 4 l 1,6 1,8 1,11 1,12 1,13 1,13 1,14 v 14 l 1,14 1,13 1,13 1,13 1,13 1,12 1,13 v 12 l 1,12 1,12 1,12 1,11 1,10 1,8 1,6 v 4 l 1,2 1,-1 1,-3 1,-5 1,-6 1,-8 1,-9 v -10 l 1,-12 1,-11 1,-13 1,-13 1,-14 1,-14 1,-16 v -16 l 1,-17 1,-17 1,-16 1,-15 1,-13 1,-10 1,-8 v -4 l 1,-1 1,1 1,4 1,7 1,8 1,10 1,10 v 11 l 1,11 1,10 1,10 1,10 1,8 1,8 1,7 v 6 l 1,5 1,5 1,4 1,3 1,2 1,3 1,2 v 2 l 1,2 1,2 1,3 1,2 1,3 1,3 1,2 v 0 l 1,-1 1,-3 1,-5 1,-7 1,-10 1,-11 1,-14 v -17 l 1,-18 1,-19 1,-19 1,-18 1,-16 1,-15 1,-11 v -9 l 1,-5 1,-2 1,1 1,4 1,7 1,9 1,11 v 12 l 1,13 1,14 1,13 1,14 1,13 1,13 1,13 v 12 l 1,12 1,12 1,12 1,12 1,13 1,12 1,12 v 12 l 1,10 1,9 1,6 1,4 1,2 1,-1 1,-3 v -5 l 1,-8 1,-8 1,-10 1,-11 1,-11 1,-12 1,-12 v -13 l 1,-13 1,-13 1,-14 1,-15 1,-16 1,-15 1,-15 v -14 l 1,-12 1,-10 1,-6 1,-4 1,-1 1,2 1,5 v 6 l 1,9 1,10 1,11 1,11 1,11 1,11 1,11 v 10 l 1,9 1,9 1,7 1,7 1,5 1,5 1,3 v 3 l 1,3 1,1 1,2 1,1 1,1 h 1 l 1,2 v 1 l 1,1 1,2 h 1 1 l 1,-1 1,-3 1,-6 v -7 l 1,-8 1,-11 1,-12 1,-13 1,-16 1,-17 1,-17 v -17 l 1,-15 1,-14 1,-11 1,-8 1,-4 1,-1 1,2 v 5 l 1,8 1,9 1,12 1,13 1,13 1,15 1,14 v 14 l 1,14 1,14 1,13 1,13 1,12 1,13 1,12 v 13 l 1,13 1,12 1,13 1,11 1,10 1,8 1,6 v 3 h 1 l 1,-2 1,-4 1,-6 1,-7 1,-9 1,-9 v -9 l 1,-11 1,-11 1,-12 1,-12 1,-14 1,-15 1,-17 v -17 l 1,-18 1,-18 1,-16 1,-15 1,-13 1,-10 1,-7 v -3 l 1,-1 1,3 1,5 1,7 1,9 1,11 1,11 v 11 l 1,12 1,11 1,11 1,11 1,10 1,10 1,9 v 8 l 1,7 1,8 1,7 1,6 1,5 1,3 1,3 v 0 l 1,-1 1,-2 1,-4 1,-5 1,-4 1,-5 1,-4 v -4 l 1,-4 1,-3 1,-5 1,-6 1,-7 1,-9 1,-9 v -11 l 1,-11 1,-13 1,-14 1,-14 1,-13 1,-13 1,-10 v -8 l 1,-4 1,-1 1,2 1,5 1,8 1,10 1,11 v 12 l 1,13 1,13 1,14 1,13 1,13 1,13 1,12 v 12 l 1,12 1,11 1,11 1,10 1,10 1,9 1,7 v 7 l 1,6 1,3 1,3 1,1 h 1 1 l 1,-2 v -3 l 1,-3 1,-4 1,-5 1,-7 1,-7 1,-8 1,-10 v -11 l 1,-14 1,-15 1,-17 1,-18 1,-19 1,-19 1,-18 v -16 l 1,-14 1,-11 1,-8 1,-5 1,-1 1,2 1,4 v 7 l 1,9 1,10 1,11 1,12 1,13 1,13 1,12 v 13 l 1,12 1,12 1,12 1,11 1,11 1,11 1,11 v 10 l 1,10 1,8 1,7 1,5 1,3 h 1 l 1,-2 v -3 l 1,-5 1,-6 1,-7 1,-8 1,-7 1,-8 1,-8 v -8"
           stroke="#196b24"
           stroke-width="2"
           stroke-linecap="round"
           stroke-linejoin="round"
           stroke-miterlimit="10"
           fill="none"
           id="path10" />
      </g>
      <g
         id="g12">
        <path
           d="m 815,644 1,-24 1,-14 1,-15 1,-17 1,-17 1,-18 1,-17 v -17 l 1,-16 1,-13 1,-11 1,-7 1,-5 1,-1 1,2 v 5 l 1,7 1,9 1,10 1,11 1,12 1,12 1,11 v 11 l 1,11 1,10 1,9 1,8 1,7 1,6 1,6 v 5 l 1,5 1,5 1,5 1,5 1,6 1,6 1,6 v 6 l 1,5 1,4 1,3 1,1 1,-1 1,-3 1,-5 v -8 l 1,-9 1,-12 1,-14 1,-15 1,-17 1,-18 1,-18 v -19 l 1,-18 1,-17 1,-15 1,-12 1,-10 1,-7 1,-4 v 0 l 1,2 1,4 1,7 1,9 1,9 1,11 1,10 v 11 l 1,11 1,10 1,9 1,9 1,8 1,8 1,7 v 7 l 1,6 1,7 1,7 1,8 1,8 1,8 1,8 v 8 l 1,7 1,5 1,3 1,2 h 1 l 1,-2 1,-3 v -5 l 1,-5 1,-7 1,-7 1,-8 1,-9 1,-10 1,-11 v -13 l 1,-15 1,-15 1,-15 1,-16 1,-14 1,-12 1,-10 v -6 l 1,-4 h 1 l 1,3 1,5 1,7 1,10 1,10 v 12 l 1,13 1,13 1,13 1,12 1,13 1,12 1,11 v 11 l 1,11 1,10 1,9 1,9 1,8 1,7 1,6 v 5 l 1,3 1,2 1,1 1,1 1,-1 1,-1 1,-2 v -3 l 1,-3 1,-3 1,-5 1,-5 1,-6 1,-7 1,-8 v -10 l 1,-13 1,-14 1,-15 1,-17 1,-17 1,-17 1,-16 v -13 l 1,-10 1,-7 1,-3 h 1 l 1,3 1,5 1,8 v 10 l 1,12 1,13 1,13 1,14 1,14 1,14 1,14 v 13 l 1,12 1,12 1,12 1,10 1,9 1,8 1,7 v 5 l 1,4 1,3 1,2 1,1 h 1 l 1,-1 1,-1 v -1 l 1,-2 1,-3 1,-4 1,-4 1,-4 1,-6 1,-6 v -7 l 1,-8 1,-10 1,-12 1,-13 1,-14 1,-16 1,-16 v -16 l 1,-16 1,-13 1,-11 1,-8 1,-5 1,-1 1,1 v 4 l 1,6 1,9 1,10 1,12 1,12 1,13 1,13 v 14 l 1,13 1,12 1,12 1,12 1,11 1,10 1,10 v 9 l 1,7 1,7 1,6 1,5 1,3 1,3 1,1 v -1 l 1,-2 1,-2 1,-4 1,-5 1,-5 1,-6 1,-7 v -7 l 1,-7 1,-9 1,-9 1,-11 1,-12 1,-13 1,-14 v -16 l 1,-15 1,-16 1,-14 1,-12 1,-10 1,-7 1,-4 v -1 l 1,3 1,4 1,8 1,9 1,11 1,12 1,12 v 14 l 1,13 1,13 1,13 1,13 1,12 1,11 1,10 v 10 l 1,8 1,7 1,6 1,4 1,3 1,2 1,1 v 1 l 1,-1 1,-1 1,-2 1,-3 1,-3 1,-3 1,-4 v -5 l 1,-5 1,-6 1,-6 1,-8 1,-9 1,-11 1,-12 v -13 l 1,-14 1,-16 1,-15 1,-16 1,-14 1,-13 1,-9 v -7 l 1,-4 1,-1 1,3 1,4 1,8 1,9 1,11 v 12 l 1,14 1,13 1,14 1,14 1,14 1,14 1,13 v 13 l 1,12 1,11 1,11 1,9 1,9 1,7 1,5 v 4 l 1,3 1,1 1,1 1,-1 1,-2 1,-3 1,-4 v -5 l 1,-6 1,-6 1,-7 1,-8 1,-8 1,-9 1,-11 v -11 l 1,-13 1,-14 1,-15 1,-16 1,-16 1,-16 1,-15 v -13 l 1,-11 1,-8 1,-5 1,-2 1,1 1,4 1,6 v 8 l 1,10 1,11 1,12 1,13 1,13 1,12 1,13 v 12 l 1,11 1,11 1,10 1,10 1,8 1,8 1,7 v 6 l 1,5 1,4 1,3 1,2 1,1 1,-1 1,-1 v -3 l 1,-3 1,-5 1,-5 1,-6 1,-6 1,-7 1,-9 v -9 l 1,-11 1,-12 1,-13 1,-15 1,-15 1,-17 1,-16 v -16 l 1,-15 1,-12 1,-10 1,-8 1,-4 1,-1 1,2 v 5 l 1,7 1,9 1,11 1,11 1,13 1,13 1,14 v 13 l 1,13 1,13 1,12 1,12 1,12 1,11 1,10 v 9 l 1,9 1,7 1,7 1,5 1,3 1,3 1,1 v 0 l 1,-1 1,-3 1,-3 1,-5 1,-5 1,-7 1,-7 v -8 l 1,-9 1,-10 1,-10 1,-12 1,-14 1,-14 1,-16 v -17 l 1,-16 1,-17 1,-15 1,-13 1,-11 1,-8 v -5 l 1,-2 1,2 1,3 1,7 1,8 1,10 1,11 v 11 l 1,12 1,12 1,12 1,11 1,11 1,10 1,10 v 9 l 1,8 1,7 1,7 1,6 1,5 1,5 1,4 v 4 l 1,2 1,2 1,2 h 1 1 l 1,-2 1,-2 v -3 l 1,-4 1,-5 1,-7 1,-8 1,-9 1,-11 1,-12 v -14 l 1,-15 1,-16 1,-18 1,-17 1,-16 1,-15 1,-13 v -10 l 1,-7 1,-4 h 1 l 1,2 1,5 1,7 1,9 v 11 l 1,12 1,13 1,13 1,13 1,13 1,13 1,13 v 12 l 1,12 1,11 1,11 1,11 1,10 1,9 1,9 v 8 l 1,6 1,5 1,4 1,2 1,1 1,-1 1,-2 v -3 l 1,-5 1,-6 1,-7 1,-8 1,-9 1,-9 1,-11 v -11 l 1,-13 1,-13 1,-15 1,-16 1,-16 1,-17 1,-16 v -15 l 1,-12 1,-11 1,-7 1,-5 1,-1 1,1 1,5 v 6 l 1,9 1,10 1,11 1,12 1,12 1,12 1,11 v 12 l 1,10 1,11 1,9 1,9 1,8 1,7 1,7 v 6 l 1,5 1,5 1,4 1,3 1,3 1,2 1,2 v 0 l 1,1 1,-1 1,-1 1,-3 1,-3 1,-4 1,-5 v -7 l 1,-9 1,-10 1,-12 1,-14 1,-15 1,-16 1,-18 v -17 l 1,-17 1,-15 1,-13 1,-10 1,-8 1,-4 h 1 v 2 l 1,5 1,7 1,10 1,11 1,12 1,13 1,14 v 13 l 1,14 1,13 1,13 1,13 1,12 1,12 1,12 v 11 l 1,11 1,11 1,9 1,9 1,7 1,6 1,4 v 2 l 1,1 1,-1 1,-3 1,-4 1,-5 1,-7 1,-7 v -9 l 1,-9 1,-11 1,-10 1,-12 1,-13 1,-14 1,-15 v -15 l 1,-17 1,-17 1,-16 1,-15 1,-13 1,-11 1,-7 v -5 l 1,-2 1,2 1,3 1,7 1,8 1,10 1,10 v 12 l 1,11 1,12 1,11 1,10 1,10 1,9 1,9 v 7 l 1,7 1,7 1,5 1,5 1,5 1,4 1,3 v 3 l 1,3 1,2 1,1 1,2 h 1 l 1,1 1,-1 v -1 l 1,-2 1,-3 1,-6 1,-7 1,-9 1,-11 1,-13 v -15 l 1,-17 1,-18 1,-19 1,-18 1,-18 1,-15 1,-13 v -11 l 1,-6 1,-4 h 1 l 1,3 1,5 1,9 1,10 v 11 l 1,13 1,13 1,14 1,14 1,13 1,13 1,13 v 13 l 1,12 1,13 1,12 1,11 1,12 1,12 1,11 v 10 l 1,9 1,7 1,6 1,3 1,1 1,-1 1,-2 v -5 l 1,-6 1,-8 1,-9 1,-10 1,-11 1,-11 1,-12 v -13 l 1,-13 1,-14 1,-15 1,-16 1,-16 1,-17 1,-15 v -15 l 1,-12 1,-10 1,-8 1,-4 1,-1 1,2 1,4 v 6 l 1,9 1,10 1,10 1,11 1,12 1,11 1,10 v 10 l 1,10 1,8 1,8 1,7 1,5 1,6 1,4 v 4 l 1,3 1,2 1,3 1,2 1,2 1,1 1,2 v 2 l 1,2 1,2 h 1 1 l 1,-1 1,-3 1,-5 v -7 l 1,-9 1,-11 1,-13 1,-16 1,-16 1,-18 1,-19 v -18 l 1,-17 1,-14 1,-12 1,-9 1,-5 1,-2 1,1 v 4 l 1,6 1,9 1,11 1,13 1,13 1,14 1,14 v 14 l 1,13 1,14 1,13 1,13 1,13 1,12 1,13 v 13 l 1,13 1,12 1,13 1,12 1,10 1,8 1,6 v 4 l 1,1 1,-2 1,-4 1,-6 1,-7 1,-9 1,-10 v -10 l 1,-12 1,-11 1,-12 1,-13 1,-13 1,-14 1,-15 v -16 l 1,-16 1,-17 1,-16 1,-14 1,-13 1,-10 1,-7 v -4 l 1,-1 1,2 1,5 1,7 1,8 1,10 1,11 v 12 l 1,11 1,11 1,11 1,10 1,9 1,9 1,8 v 7 l 1,6 1,5 1,4 1,4 1,3 1,2 1,2 v 2 l 1,1 1,1 1,1 h 1 l 1,1 1,1 h 1 v 0 l 1,-2 1,-3 1,-5 1,-7 1,-8 1,-11 1,-12 v -15 l 1,-16 1,-17 1,-18 1,-18 1,-16 1,-15 1,-12 v -8 l 1,-6 1,-2 1,1 1,4 1,7 1,9 1,11 v 12 l 1,14 1,14 1,14 1,14 1,13 1,14 1,13 v 13 l 1,13 1,12 1,13 1,12 1,13 1,13 1,13 v 12 l 1,10 1,10 1,7 1,4 1,2 1,-1 1,-3 v -5 l 1,-7 1,-9 1,-10 1,-11 1,-11 1,-13 1,-13 v -14 l 1,-14 1,-16 1,-17 1,-17 1,-18 1,-17 1,-17 v -15 l 1,-13 1,-10 1,-7 1,-4 h 1 l 1,2 1,5 v 7 l 1,8 1,10 1,11 1,11 1,11 1,11 1,10 v 10 l 1,8 1,8 1,8 1,6 1,5 1,5 1,4 v 4 l 1,3 1,2 1,2 1,1 h 1 1 1 v 0 h 1 l 1,1 h 1 1 l 1,-2 1,-3 1,-4 v -7"
           stroke="#0f9ed5"
           stroke-width="2"
           stroke-linecap="round"
           stroke-linejoin="round"
           stroke-miterlimit="10"
           fill="none"
           id="path11" />
      </g>
      <g
         clip-path="url(#clip1)"
         id="g13">
        <path
           d="m 815,650 2,-37 3,-38 1,-29 1,-36 3,-29 1,-19 3,-11 3,18 2,31 2,29 3,32 4,41 5,29 1,17 3,16 2,3 4,-17 1,-21 2,-25 2,-36 2,-29 1,-32 1,-32 3,-18 2,-13 3,17 3,26 2,24 1,26 5,37 2,18 3,29 2,22 3,13 6,-11 2,-32 3,-31 2,-35 2,-26 v -28 l 3,-18 1,-11 4,11 2,23 2,27 3,30 v 28 l 3,21 1,22 3,25 2,16 4,4 5,-13 3,-23 3,-34 3,-35 1,-25 1,-19 2,-22 1,-13 2,-5 3,16 2,21 2,35 2,28 4,33 v 39 l 2,22 3,19 4,9 5,-11 2,-22 3,-27 3,-32 1,-28 2,-22 1,-23 2,-20 1,-17 2,-5 4,25 2,22 2,31 1,28 2,29 2,25 2,28 3,22 3,10 5,-10 3,-21 1,-26 3,-31 2,-22 2,-23 1,-23 1,-25 2,-21 3,-9 2,17 4,28 3,32 1,24 2,32 2,27 2,21 4,13 4,-4 6,-20 2,-26 2,-34 3,-29 v -25 l 2,-25 2,-21 2,-14 4,15 3,35 2,42 3,35 2,32 2,26 2,22 3,14 5,-5 3,-24 3,-31 2,-27 2,-32 2,-34 1,-28 3,-28 3,-14 3,17 3,35 3,33 2,39 3,35 1,22 5,21 4,-1 5,-24 2,-32 3,-36 1,-35 1,-30 3,-41 3,-15 4,25 3,33 2,31 3,42 2,39 3,25 3,19 2,13 5,-11 4,-31 2,-29 3,-42 2,-34 3,-34 1,-34 4,-11 2,21 2,26 3,39 3,35 3,39 3,27 3,18 3,4 3,-18 3,-27 3,-23 4,-49 v -29 l 2,-28 1,-21 4,-15 4,20 2,26 2,38 1,27 1,25 4,35 4,32 3,23 3,-4 4,-22 2,-28 3,-28 4,-35 v -33 l 1,-31 2,-23 2,-17 5,14 2,26 2,28 2,29 3,39 2,28 1,23 6,23 4,-11 4,-29 2,-27 2,-29 3,-32 1,-36 1,-27 2,-19 3,-6 3,20 2,28 2,26 2,29 2,34 2,28 2,26 4,28 2,8 3,-8 4,-24 2,-22 3,-35 3,-39 3,-43 1,-29 2,-16 2,-5 3,18 1,18 2,24 2,23 1,21 3,25 v 25 l 2,21 3,14 2,15 4,7 3,-15 3,-18 2,-22 1,-31 2,-29 3,-25 1,-30 v -16 l 2,-24 3,-6 3,20 1,22 3,18 v 24 l 2,21 2,32 2,19 3,31 2,21 3,14 4,-10 4,-21 1,-26 3,-27 3,-40 1,-27 2,-29 1,-19 3,-20 3,17 2,32 3,30 3,34 2,40 3,29 2,23 4,14 4,-13 3,-29 3,-28 3,-31 1,-36 1,-29 3,-29 2,-16 3,-5 2,28 2,25 4,36 2,37 3,38 3,31 4,15 5,-4 4,-24 2,-38 3,-44 2,-29 2,-34 2,-18 3,-18 2,11 3,31 2,32 2,36 3,40 2,25 2,21 3,18 5,7 2,-12 4,-27 3,-29 1,-31 2,-36 2,-26 2,-32 2,-17 3,-11 4,32 1,35 4,41 1,37 2,23 4,27 3,14 5,-6 4,-26 2,-28 3,-35 2,-28 2,-29 v -24 l 3,-21 2,-11 5,22 1,30 3,26 v 27 l 1,33 4,35 2,23 2,16 3,14 6,-12 3,-29 3,-32 3,-33 1,-41 2,-26 1,-24 2,-18 2,-10 4,24 1,26 3,28 3,34 2,29 2,28 3,28 4,9 5,-15 3,-18 1,-14"
           stroke="#000000"
           stroke-width="2"
           stroke-linecap="round"
           stroke-linejoin="round"
           stroke-miterlimit="10"
           stroke-dasharray="4, 4"
           fill="none"
           id="path12" />
      </g>
      <g
         id="g14">
        <text
           font-family="Arial, Arial_MSFontService, sans-serif"
           font-weight="400"
           font-size="12px"
           transform="translate(784.435,771)"
           id="text13">-1.0</text>
      </g>
      <g
         id="g15">
        <text
           font-family="Arial, Arial_MSFontService, sans-serif"
           font-weight="400"
           font-size="12px"
           transform="translate(784.435,728)"
           id="text14">-0.5</text>
      </g>
      <g
         id="g16">
        <text
           font-family="Arial, Arial_MSFontService, sans-serif"
           font-weight="400"
           font-size="12px"
           transform="translate(788.428,686)"
           id="text15">0.0</text>
      </g>
      <g
         id="g17">
        <text
           font-family="Arial, Arial_MSFontService, sans-serif"
           font-weight="400"
           font-size="12px"
           transform="translate(788.428,643)"
           id="text16">0.5</text>
      </g>
      <g
         id="g18">
        <text
           font-family="Arial, Arial_MSFontService, sans-serif"
           font-weight="400"
           font-size="12px"
           transform="translate(788.428,601)"
           id="text17">1.0</text>
      </g>
      <g
         id="g19">
        <text
           font-family="Arial, Arial_MSFontService, sans-serif"
           font-weight="400"
           font-size="12px"
           transform="translate(788.428,559)"
           id="text18">1.5</text>
      </g>
      <g
         id="g20">
        <text
           font-family="Arial, Arial_MSFontService, sans-serif"
           font-weight="400"
           font-size="12px"
           transform="translate(788.428,516)"
           id="text19">2.0</text>
      </g>
      <g
         id="g21">
        <text
           font-family="Arial, Arial_MSFontService, sans-serif"
           font-weight="400"
           font-size="12px"
           transform="translate(788.428,474)"
           id="text20">2.5</text>
      </g>
      <g
         id="g22">
        <text
           font-family="Arial, Arial_MSFontService, sans-serif"
           font-weight="400"
           font-size="12px"
           transform="translate(788.428,432)"
           id="text21">3.0</text>
      </g>
      <g
         id="g23">
        <text
           font-family="Arial, Arial_MSFontService, sans-serif"
           font-weight="400"
           font-size="12px"
           transform="translate(812.092,700)"
           id="text22">0</text>
      </g>
      <g
         id="g24">
        <text
           font-family="Arial, Arial_MSFontService, sans-serif"
           font-weight="400"
           font-size="12px"
           transform="translate(899.58,700)"
           id="text23">2</text>
      </g>
      <g
         id="g25">
        <text
           font-family="Arial, Arial_MSFontService, sans-serif"
           font-weight="400"
           font-size="12px"
           transform="translate(987.068,700)"
           id="text24">4</text>
      </g>
      <g
         id="g26">
        <text
           font-family="Arial, Arial_MSFontService, sans-serif"
           font-weight="400"
           font-size="12px"
           transform="translate(1074.56,700)"
           id="text25">6</text>
      </g>
      <g
         id="g27">
        <text
           font-family="Arial, Arial_MSFontService, sans-serif"
           font-weight="400"
           font-size="12px"
           transform="translate(1162.05,700)"
           id="text26">8</text>
      </g>
      <g
         id="g28">
        <text
           font-family="Arial, Arial_MSFontService, sans-serif"
           font-weight="400"
           font-size="12px"
           transform="translate(1246.2,700)"
           id="text27">10</text>
      </g>
      <g
         id="g29">
        <text
           font-family="Arial, Arial_MSFontService, sans-serif"
           font-weight="400"
           font-size="12px"
           transform="translate(1333.69,700)"
           id="text28">12</text>
      </g>
      <g
         id="g30">
        <text
           font-family="Arial, Arial_MSFontService, sans-serif"
           font-weight="400"
           font-size="12px"
           transform="translate(1421.17,700)"
           id="text29">14</text>
      </g>
      <g
         id="g31">
        <text
           font-family="Arial, Arial_MSFontService, sans-serif"
           font-weight="400"
           font-size="12px"
           transform="translate(1508.66,700)"
           id="text30">16</text>
      </g>
      <g
         id="g32">
        <text
           font-family="Arial, Arial_MSFontService, sans-serif"
           font-weight="400"
           font-size="12px"
           transform="translate(1596.15,700)"
           id="text31">18</text>
      </g>
      <g
         id="g33">
        <text
           font-family="Arial, Arial_MSFontService, sans-serif"
           font-weight="400"
           font-size="12px"
           transform="translate(1683.64,700)"
           id="text32">20</text>
      </g>
      <g
         id="g34">
        <text
           font-family="Arial, Arial_MSFontService, sans-serif"
           font-weight="400"
           font-size="13px"
           transform="rotate(-90,728.0505,-50.0505)"
           id="text33">Coeficiente de sustentação</text>
      </g>
      <g
         id="g35">
        <text
           font-family="Arial, Arial_MSFontService, sans-serif"
           font-weight="400"
           font-size="13px"
           transform="translate(1232.12,782)"
           id="text34">Tempo</text>
      </g>
      <g
         id="g36">
        <path
           d="m 996,811 h 34"
           stroke="#e97132"
           stroke-width="2"
           stroke-linecap="round"
           stroke-linejoin="round"
           stroke-miterlimit="10"
           fill="none"
           fill-rule="evenodd"
           id="path35" />
      </g>
      <g
         id="g37">
        <text
           font-family="Arial, Arial_MSFontService, sans-serif"
           font-weight="400"
           font-size="12px"
           transform="translate(1033.58,815)"
           id="text36">DNS-m1</text>
      </g>
      <g
         id="g38">
        <path
           d="m 1101,811 h 34"
           stroke="#196b24"
           stroke-width="2"
           stroke-linecap="round"
           stroke-linejoin="round"
           stroke-miterlimit="10"
           fill="none"
           fill-rule="evenodd"
           id="path37" />
      </g>
      <g
         id="g39">
        <text
           font-family="Arial, Arial_MSFontService, sans-serif"
           font-weight="400"
           font-size="12px"
           transform="translate(1138.65,815)"
           id="text38">DNS-m2</text>
      </g>
      <g
         id="g40">
        <path
           d="m 1206,811 h 34"
           stroke="#0f9ed5"
           stroke-width="2"
           stroke-linecap="round"
           stroke-linejoin="round"
           stroke-miterlimit="10"
           fill="none"
           fill-rule="evenodd"
           id="path39" />
      </g>
      <g
         id="g41">
        <text
           font-family="Arial, Arial_MSFontService, sans-serif"
           font-weight="400"
           font-size="12px"
           transform="translate(1243.72,815)"
           id="text40">LES-m2</text>
      </g>
      <g
         id="g42">
        <path
           d="m 1309,811 h 33"
           stroke="#000000"
           stroke-width="2"
           stroke-linecap="round"
           stroke-linejoin="round"
           stroke-miterlimit="10"
           stroke-dasharray="4, 4"
           fill="none"
           fill-rule="evenodd"
           id="path41" />
      </g>
      <g
         id="g43">
        <text
           font-family="Arial, Arial_MSFontService, sans-serif"
           font-weight="400"
           font-size="12px"
           transform="translate(1346.14,815)"
           id="text42">Mittal, Tezduyar (1992)</text>
      </g>
    </g>
  </g>
</svg>
