<?xml version="1.0" encoding="UTF-8" standalone="no"?>
<!-- Created with Inkscape (http://www.inkscape.org/) -->

<svg
   version="1.1"
   id="svg1"
   width="926.05194"
   height="470.90659"
   viewBox="0 0 926.05196 470.90659"
   sodipodi:docname="NACA0012-Moving-Coarse.svg"
   inkscape:version="1.3.2 (091e20e, 2023-11-25, custom)"
   xmlns:inkscape="http://www.inkscape.org/namespaces/inkscape"
   xmlns:sodipodi="http://sodipodi.sourceforge.net/DTD/sodipodi-0.dtd"
   xmlns:xlink="http://www.w3.org/1999/xlink"
   xmlns="http://www.w3.org/2000/svg"
   xmlns:svg="http://www.w3.org/2000/svg">
  <sodipodi:namedview
     id="namedview1"
     pagecolor="#ffffff"
     bordercolor="#000000"
     borderopacity="0.25"
     inkscape:showpageshadow="2"
     inkscape:pageopacity="0.0"
     inkscape:pagecheckerboard="0"
     inkscape:deskcolor="#d1d1d1"
     showgrid="false"
     inkscape:zoom="1.3112416"
     inkscape:cx="457.58159"
     inkscape:cy="242.13693"
     inkscape:window-width="1920"
     inkscape:window-height="1017"
     inkscape:window-x="1912"
     inkscape:window-y="-8"
     inkscape:window-maximized="1"
     inkscape:current-layer="svg1">
    <inkscape:page
       x="0"
       y="0"
       inkscape:label="[1] Layout1"
       id="page1"
       width="926.05194"
       height="470.90659"
       margin="0"
       bleed="0" />
    <inkscape:grid
       id="grid91"
       units="px"
       originx="-413.50328"
       originy="-1341.3241"
       spacingx="10"
       spacingy="10"
       empcolor="#0099e5"
       empopacity="0.30196078"
       color="#0099e5"
       opacity="0.14901961"
       empspacing="5"
       dotted="false"
       gridanglex="30"
       gridanglez="30"
       visible="false" />
  </sodipodi:namedview>
  <defs
     id="defs1">
    <marker
       style="overflow:visible"
       id="Triangle"
       refX="3"
       refY="0"
       orient="auto-start-reverse"
       inkscape:stockid="Triangle arrow"
       markerWidth="2"
       markerHeight="1"
       viewBox="0 0 1 1"
       inkscape:isstock="true"
       inkscape:collect="always"
       preserveAspectRatio="none">
      <path
         transform="scale(0.5)"
         style="fill:context-stroke;fill-rule:evenodd;stroke:context-stroke;stroke-width:1pt"
         d="M 5.77,0 -2.88,5 V -5 Z"
         id="path135" />
    </marker>
    <linearGradient
       id="linearGradient95"
       inkscape:collect="always">
      <stop
         style="stop-color:#000000;stop-opacity:0;"
         offset="0"
         id="stop96" />
      <stop
         style="stop-color:#000000;stop-opacity:0.30000001;"
         offset="1"
         id="stop95" />
    </linearGradient>
    <clipPath
       clipPathUnits="userSpaceOnUse"
       id="clipPath12">
      <path
         d="M 982,719 H 19123 V 13556 H 982 V 719"
         transform="translate(0,-2.0833333e-4)"
         id="path12" />
    </clipPath>
    <clipPath
       clipPathUnits="userSpaceOnUse"
       id="clipPath14">
      <path
         d="M 982,719 H 19123 V 13556 H 982 V 719"
         transform="translate(0,-2.0833333e-4)"
         id="path14" />
    </clipPath>
    <clipPath
       clipPathUnits="userSpaceOnUse"
       id="clipPath20">
      <path
         d="M 982,719 H 19123 V 13556 H 982 V 719"
         transform="translate(0,-2.0833333e-4)"
         id="path20" />
    </clipPath>
    <clipPath
       clipPathUnits="userSpaceOnUse"
       id="clipPath22">
      <path
         d="M 982,719 H 19123 V 13556 H 982 V 719"
         transform="translate(0,-2.0833333e-4)"
         id="path22" />
    </clipPath>
    <clipPath
       clipPathUnits="userSpaceOnUse"
       id="clipPath23">
      <path
         d="M 982,719 H 19123 V 13556 H 982 V 719"
         transform="matrix(1,0,0,-1,-5680,11043)"
         id="path23" />
    </clipPath>
    <clipPath
       clipPathUnits="userSpaceOnUse"
       id="clipPath25">
      <path
         d="M 982,719 H 19123 V 13556 H 982 V 719"
         transform="translate(0,-2.0833333e-4)"
         id="path25" />
    </clipPath>
    <clipPath
       clipPathUnits="userSpaceOnUse"
       id="clipPath26">
      <path
         d="M 982,719 H 19123 V 13556 H 982 V 719"
         transform="matrix(1,0,0,-1,-3443,6320.0002)"
         id="path26" />
    </clipPath>
    <clipPath
       clipPathUnits="userSpaceOnUse"
       id="clipPath28">
      <path
         d="M 982,719 H 19123 V 13556 H 982 V 719"
         transform="translate(0,-2.0833333e-4)"
         id="path28" />
    </clipPath>
    <clipPath
       clipPathUnits="userSpaceOnUse"
       id="clipPath30">
      <path
         d="M 982,719 H 19123 V 13556 H 982 V 719"
         transform="translate(0,-2.0833333e-4)"
         id="path30" />
    </clipPath>
    <clipPath
       clipPathUnits="userSpaceOnUse"
       id="clipPath32">
      <path
         d="M 982,719 H 19123 V 13556 H 982 V 719"
         transform="translate(0,-2.0833333e-4)"
         id="path32" />
    </clipPath>
    <clipPath
       clipPathUnits="userSpaceOnUse"
       id="clipPath34">
      <path
         d="M 982,719 H 19123 V 13556 H 982 V 719"
         transform="translate(0,-2.0833333e-4)"
         id="path34" />
    </clipPath>
    <clipPath
       clipPathUnits="userSpaceOnUse"
       id="clipPath36">
      <path
         d="M 982,719 H 19123 V 13556 H 982 V 719"
         transform="translate(0,-2.0833333e-4)"
         id="path36" />
    </clipPath>
    <clipPath
       clipPathUnits="userSpaceOnUse"
       id="clipPath38">
      <path
         d="M 982,719 H 19123 V 13556 H 982 V 719"
         transform="translate(0,-2.0833333e-4)"
         id="path38" />
    </clipPath>
    <clipPath
       clipPathUnits="userSpaceOnUse"
       id="clipPath40">
      <path
         d="M 982,719 H 19123 V 13556 H 982 V 719"
         transform="translate(0,-2.0833333e-4)"
         id="path40" />
    </clipPath>
    <clipPath
       clipPathUnits="userSpaceOnUse"
       id="clipPath41">
      <path
         d="M 982,719 H 19123 V 13556 H 982 V 719"
         transform="matrix(1,0,0,-1,-10850,5075.0002)"
         id="path41" />
    </clipPath>
    <clipPath
       clipPathUnits="userSpaceOnUse"
       id="clipPath43">
      <path
         d="M 982,719 H 19123 V 13556 H 982 V 719"
         transform="translate(0,-2.0833333e-4)"
         id="path43" />
    </clipPath>
    <clipPath
       clipPathUnits="userSpaceOnUse"
       id="clipPath45">
      <path
         d="M 982,719 H 19123 V 13556 H 982 V 719"
         transform="translate(0,-2.0833333e-4)"
         id="path45" />
    </clipPath>
    <clipPath
       clipPathUnits="userSpaceOnUse"
       id="clipPath47">
      <path
         d="M 982,719 H 19123 V 13556 H 982 V 719"
         transform="translate(0,-2.0833333e-4)"
         id="path47" />
    </clipPath>
    <clipPath
       clipPathUnits="userSpaceOnUse"
       id="clipPath49">
      <path
         d="M 982,719 H 19123 V 13556 H 982 V 719"
         transform="translate(0,-2.0833333e-4)"
         id="path49" />
    </clipPath>
    <clipPath
       clipPathUnits="userSpaceOnUse"
       id="clipPath51">
      <path
         d="M 982,719 H 19123 V 13556 H 982 V 719"
         transform="translate(0,-2.0833333e-4)"
         id="path51" />
    </clipPath>
    <clipPath
       clipPathUnits="userSpaceOnUse"
       id="clipPath53">
      <path
         d="M 982,719 H 19123 V 13556 H 982 V 719"
         transform="translate(0,-2.0833333e-4)"
         id="path53" />
    </clipPath>
    <clipPath
       clipPathUnits="userSpaceOnUse"
       id="clipPath54">
      <path
         d="M 982,719 H 19123 V 13556 H 982 V 719"
         transform="matrix(1,0,0,-1,-13592,8121)"
         id="path54" />
    </clipPath>
    <clipPath
       clipPathUnits="userSpaceOnUse"
       id="clipPath56">
      <path
         d="M 982,719 H 19123 V 13556 H 982 V 719"
         transform="translate(0,-2.0833333e-4)"
         id="path56" />
    </clipPath>
    <clipPath
       clipPathUnits="userSpaceOnUse"
       id="clipPath58">
      <path
         d="M 982,719 H 19123 V 13556 H 982 V 719"
         transform="translate(0,-2.0833333e-4)"
         id="path58" />
    </clipPath>
    <clipPath
       clipPathUnits="userSpaceOnUse"
       id="clipPath60">
      <path
         d="M 982,719 H 19123 V 13556 H 982 V 719"
         transform="translate(0,-2.0833333e-4)"
         id="path60" />
    </clipPath>
    <clipPath
       clipPathUnits="userSpaceOnUse"
       id="clipPath62">
      <path
         d="M 982,719 H 19123 V 13556 H 982 V 719"
         transform="translate(0,-2.0833333e-4)"
         id="path62" />
    </clipPath>
    <clipPath
       clipPathUnits="userSpaceOnUse"
       id="clipPath64">
      <path
         d="M 982,719 H 19123 V 13556 H 982 V 719"
         transform="translate(0,-2.0833333e-4)"
         id="path64" />
    </clipPath>
    <clipPath
       clipPathUnits="userSpaceOnUse"
       id="clipPath66">
      <path
         d="M 982,719 H 19123 V 13556 H 982 V 719"
         transform="translate(0,-2.0833333e-4)"
         id="path66" />
    </clipPath>
    <clipPath
       clipPathUnits="userSpaceOnUse"
       id="clipPath68">
      <path
         d="M 982,719 H 19123 V 13556 H 982 V 719"
         transform="translate(0,-2.0833333e-4)"
         id="path68" />
    </clipPath>
    <clipPath
       clipPathUnits="userSpaceOnUse"
       id="clipPath70">
      <path
         d="M 982,719 H 19123 V 13556 H 982 V 719"
         transform="translate(0,-2.0833333e-4)"
         id="path70" />
    </clipPath>
    <clipPath
       clipPathUnits="userSpaceOnUse"
       id="clipPath72">
      <path
         d="M 982,719 H 19123 V 13556 H 982 V 719"
         transform="translate(0,-2.0833333e-4)"
         id="path72" />
    </clipPath>
    <clipPath
       clipPathUnits="userSpaceOnUse"
       id="clipPath74">
      <path
         d="M 982,719 H 19123 V 13556 H 982 V 719"
         transform="translate(0,-2.0833333e-4)"
         id="path74" />
    </clipPath>
    <clipPath
       clipPathUnits="userSpaceOnUse"
       id="clipPath76">
      <path
         d="M 982,719 H 19123 V 13556 H 982 V 719"
         transform="translate(0,-2.0833333e-4)"
         id="path76" />
    </clipPath>
    <clipPath
       clipPathUnits="userSpaceOnUse"
       id="clipPath78">
      <path
         d="M 982,719 H 19123 V 13556 H 982 V 719"
         transform="translate(0,-2.0833333e-4)"
         id="path78" />
    </clipPath>
    <clipPath
       clipPathUnits="userSpaceOnUse"
       id="clipPath80">
      <path
         d="M 982,719 H 19123 V 13556 H 982 V 719"
         transform="translate(0,-2.0833333e-4)"
         id="path80" />
    </clipPath>
    <clipPath
       clipPathUnits="userSpaceOnUse"
       id="clipPath82">
      <path
         d="M 0,0 H 19866 V 14031 H 0 V 0"
         transform="translate(0,-2.0833333e-4)"
         id="path82" />
    </clipPath>
    <clipPath
       clipPathUnits="userSpaceOnUse"
       id="clipPath84">
      <path
         d="M 0,0 H 19866 V 14031 H 0 V 0"
         transform="translate(0,-2.0833333e-4)"
         id="path84" />
    </clipPath>
    <radialGradient
       inkscape:collect="always"
       xlink:href="#linearGradient95"
       id="radialGradient98"
       cx="3844.8069"
       cy="-986.17767"
       fx="3844.8069"
       fy="-986.17767"
       r="1527.2855"
       gradientTransform="matrix(-0.51119051,4.6224105e-4,-1.8562177e-4,-0.20527387,3988.1632,844.08144)"
       gradientUnits="userSpaceOnUse" />
  </defs>
  <g
     id="layer-oc1"
     inkscape:groupmode="layer"
     inkscape:label="0"
     transform="translate(-1118.194,-973.10977)">
    <path
       style="fill:url(#radialGradient98);fill-opacity:1;stroke:none;stroke-width:2.96092;stroke-dasharray:none;stroke-dashoffset:0;stroke-opacity:1"
       d="m 1578.3312,1362.0096 c -218.6505,-0.4839 -203.1963,-0.1923 -220.1939,-4.1542 -18.8014,-4.3823 -40.9368,-15.0586 -58.09,-28.0178 -8.5929,-6.4919 -23.3271,-21.326 -29.736,-29.9376 -15.8093,-21.2428 -26.1794,-46.1563 -30.0546,-72.2035 -1.825,-12.2665 -1.8576,-33.6346 -0.069,-45.0462 11.1722,-71.2726 66.9078,-124.8272 138.765,-133.3348 6.945,-0.8223 70.274,-1.0203 326.2911,-1.0203 h 317.6735 l 0.1978,156.7558 0.1978,156.7559 -11.8777,0.5141 c -12.1313,0.5251 -75.7101,0.4794 -433.1041,-0.3114 z"
       id="path94" />
    <path
       id="path6"
       d="m 1472.654,1211.887 h -0.072 -0.1437 -0.2155 -0.2874 l -0.4311,-0.072 h -0.5029 -0.5748 -0.6466 l -0.7903,-0.072 h -0.7903 l -0.934,-0.072 -1.0058,-0.072 h -1.0777 l -1.1495,-0.072 -1.2214,-0.072 -1.2933,-0.072 -1.365,-0.072 -1.3651,-0.072 -1.5087,-0.1437 -1.5088,-0.072 -1.5806,-0.1437 -1.5805,-0.072 -1.6525,-0.1438 -1.7243,-0.1436 -1.7243,-0.1437 -1.7961,-0.1437 -1.7961,-0.1437 -1.7962,-0.1437 -1.8679,-0.1437 -1.868,-0.2155 -1.868,-0.2155 -1.868,-0.1438 -1.8679,-0.2155 -1.868,-0.2155 -1.868,-0.2874 -1.7962,-0.2155 -1.8679,-0.2156 -1.7961,-0.2873 -1.7243,-0.2874 -1.7962,-0.2874 -1.7243,-0.2874 -1.6524,-0.2874 -1.6525,-0.2873 -1.5805,-0.3593 -1.5088,-0.3592 -1.5088,-0.2874 -1.365,-0.3592 -1.3651,-0.3593 -1.2932,-0.3592 -1.2932,-0.4311 -1.1495,-0.3592 -1.0777,-0.3592 -1.0059,-0.4311 -0.9339,-0.3592 -0.8622,-0.3592 -0.7903,-0.4311 -0.6466,-0.3592 -0.6466,-0.3593 -0.5029,-0.431 -0.4311,-0.3593 -0.3592,-0.3592 -0.2874,-0.3592 -0.1437,-0.3592 -0.072,-0.2874 v -0.3592 l 0.1437,-0.3592 0.1436,-0.2874 0.2874,-0.2156 0.3593,-0.2873 0.431,-0.2156 0.5748,-0.2156 0.5747,-0.1436 0.7185,-0.1437 0.7903,-0.1437 0.8622,-0.072 0.934,-0.072 1.0058,-0.072 h 1.0776 1.1496 l 1.2213,0.072 1.2933,0.072 1.3651,0.072 1.4368,0.1437 1.4369,0.1437 1.5088,0.2155 1.5087,0.1437 1.6525,0.2874 1.6524,0.2155 1.6525,0.2874 1.7243,0.3592 1.7242,0.2874 1.7244,0.3592 1.796,0.3593 1.7962,0.431 1.868,0.4311 1.7961,0.3592 1.7962,0.4311 1.868,0.5029 1.796,0.4311 1.7962,0.4311 1.868,0.5029 1.7242,0.431 1.7962,0.5029 1.7243,0.4312 1.7243,0.5029 1.7243,0.431 1.5806,0.5029 1.6524,0.4312 1.5806,0.431 1.5087,0.4311 1.4369,0.431 1.437,0.4311 1.365,0.4311 1.2932,0.3592 1.2214,0.3592 1.1495,0.3593 1.0777,0.3592 1.0777,0.2874 0.934,0.3592 0.8622,0.2155 0.7902,0.2874 0.7185,0.2156 0.6466,0.2155 0.5748,0.1437 0.431,0.1437 0.4311,0.1436 0.2874,0.1438 0.2155,0.072 h 0.1437 l 0.7903,0.2155 h -0.7903"
       style="fill:#ffffff;fill-opacity:1;stroke:#000000;stroke-width:1;stroke-linecap:round;stroke-linejoin:round;stroke-miterlimit:10;stroke-dasharray:none;stroke-opacity:1" />
    <path
       id="path1"
       d="m 1395.6358,1361.9001 h 627.2816 v -313.6049"
       style="fill:none;stroke:#000000;stroke-width:1;stroke-linecap:round;stroke-linejoin:round;stroke-miterlimit:10;stroke-dasharray:none;stroke-opacity:1" />
    <path
       id="path3"
       d="m 1395.6717,1048.2952 c -86.5996,0 -156.8024,70.2028 -156.8024,156.8025 0,86.5995 70.2028,156.8024 156.8024,156.8024"
       style="fill:none;stroke:#000000;stroke-width:1;stroke-linecap:round;stroke-linejoin:round;stroke-miterlimit:10;stroke-dasharray:none;stroke-opacity:1" />
    <path
       id="path4"
       d="m 1396.2106,1198.3083 77.2337,13.5787"
       style="fill:none;stroke:#000000;stroke-width:1;stroke-linecap:round;stroke-linejoin:round;stroke-miterlimit:10;stroke-dasharray:none;stroke-opacity:1" />
    <path
       id="path5"
       d="M 1434.7915,1205.1336 V 1087.5227"
       style="fill:none;stroke:#000000;stroke-width:1;stroke-linecap:round;stroke-linejoin:round;stroke-miterlimit:10;stroke-dasharray:none;stroke-opacity:1;marker-end:url(#Triangle)" />
    <path
       id="path7"
       d="m 1434.7915,1205.1336 h 108.8457"
       style="fill:none;stroke:#000000;stroke-width:1;stroke-linecap:round;stroke-linejoin:round;stroke-miterlimit:10;stroke-dasharray:none;stroke-opacity:1;marker-end:url(#Triangle)" />
    <path
       id="path8"
       d="m 1392.8338,1217.6347 -8.1185,45.9092"
       style="fill:none;stroke:#000000;stroke-width:1;stroke-linecap:round;stroke-linejoin:round;stroke-miterlimit:10;stroke-dasharray:none;stroke-opacity:1" />
    <path
       id="path9"
       d="m 1469.9957,1231.2134 -8.0466,45.9092"
       style="fill:none;stroke:#000000;stroke-width:1;stroke-linecap:round;stroke-linejoin:round;stroke-miterlimit:10;stroke-dasharray:none;stroke-opacity:1" />
    <path
       id="path15"
       d="M 1434.7915,1067.909 V 975.51586"
       style="fill:none;stroke:#000000;stroke-width:1;stroke-linecap:round;stroke-linejoin:round;stroke-miterlimit:10;stroke-dasharray:none;stroke-opacity:1" />
    <path
       id="path16"
       d="M 1238.7974,1185.5198 V 975.51586"
       style="fill:none;stroke:#000000;stroke-width:1;stroke-linecap:round;stroke-linejoin:round;stroke-miterlimit:10;stroke-dasharray:none;stroke-opacity:1" />
    <path
       id="path17"
       d="M 1434.7915,995.12964 H 1238.7974"
       style="fill:none;stroke:#000000;stroke-width:1;stroke-linecap:round;stroke-linejoin:round;stroke-miterlimit:10;stroke-dasharray:none;stroke-opacity:1;marker-start:url(#Triangle);marker-end:url(#Triangle)" />
    <path
       id="path29"
       d="M 6742,5799 V 4936"
       style="fill:none;stroke:#000000;stroke-width:13.9188;stroke-linecap:round;stroke-linejoin:round;stroke-miterlimit:10;stroke-dasharray:none;stroke-opacity:1"
       transform="matrix(0.07184533,0,0,-0.07184533,911.25454,1798.1449)"
       clip-path="url(#clipPath30)" />
    <path
       id="path31"
       d="M 15473,5799 V 4936"
       style="fill:none;stroke:#000000;stroke-width:13.9188;stroke-linecap:round;stroke-linejoin:round;stroke-miterlimit:10;stroke-dasharray:none;stroke-opacity:1"
       transform="matrix(0.07184533,0,0,-0.07184533,911.25454,1798.1449)"
       clip-path="url(#clipPath32)" />
    <path
       id="path33"
       d="m 7015,5209 h 3641"
       style="fill:none;stroke:#000000;stroke-width:5.80441;stroke-linecap:round;stroke-linejoin:round;stroke-miterlimit:10;stroke-dasharray:none;stroke-opacity:1;marker-start:url(#Triangle);marker-end:url(#Triangle)"
       transform="matrix(0.17228279,0,0,-0.17228279,187.07206,2321.3236)"
       clip-path="url(#clipPath34)" />
    <path
       id="path48"
       d="M 13839,10164 V 8612"
       style="fill:none;stroke:#000000;stroke-width:4.9489;stroke-linecap:round;stroke-linejoin:round;stroke-miterlimit:10;stroke-dasharray:none;stroke-opacity:1;marker-start:url(#Triangle);marker-end:url(#Triangle)"
       transform="matrix(0.202065,0,0,-0.202065,-890.85535,3102.0838)"
       clip-path="url(#clipPath49)" />
    <path
       id="path55"
       d="m 6815,8527 945,-545"
       style="fill:none;stroke:#000000;stroke-width:13.9188;stroke-linecap:round;stroke-linejoin:round;stroke-miterlimit:10;stroke-dasharray:27.8376, 27.8376;stroke-dashoffset:0;stroke-opacity:1"
       transform="matrix(0.07184533,0,0,-0.07184533,911.25453,1798.1449)"
       clip-path="url(#clipPath56)" />
    <path
       id="path57"
       d="m 7750,7986 h -1 l -1,1 -3,1 -4,1 -6,3 -6,2 -8,3 -8,4 -10,4 -11,4 -12,5 -12,6 -14,5 -15,7 -16,6 -16,7 -17,8 -18,8 -19,8 -20,8 -20,9 -20,9 -21,10 -22,10 -22,10 -23,10 -23,11 -23,11 -23,11 -23,11 -24,11 -23,12 -24,11 -23,12 -23,12 -23,12 -23,12 -22,12 -22,12 -21,12 -22,12 -20,12 -20,12 -19,11 -18,12 -18,12 -17,11 -16,11 -15,11 -15,11 -13,10 -13,10 -11,10 -10,10 -10,9 -8,9 -7,8 -7,8 -5,7 -4,7 -2,7 -2,6 v 5 5 l 2,4 3,4 4,3 5,2 5,2 h 7 8 9 l 10,-2 11,-2 12,-3 12,-3 14,-4 14,-5 15,-6 16,-6 16,-7 18,-8 17,-9 19,-8 18,-10 20,-10 20,-11 20,-11 20,-12 21,-12 21,-13 22,-13 21,-13 22,-14 22,-14 22,-14 22,-14 21,-15 22,-14 22,-15 21,-15 21,-14 21,-15 20,-14 21,-15 19,-14 20,-13 19,-14 18,-13 18,-13 17,-13 16,-12 16,-12 15,-11 15,-11 13,-10 13,-10 12,-9 11,-8 10,-8 9,-7 9,-6 7,-6 6,-5 6,-4 4,-4 4,-3 2,-2 2,-1 9,-6 -10,4"
       style="fill:none;stroke:#000000;stroke-width:13.9188;stroke-linecap:round;stroke-linejoin:round;stroke-miterlimit:10;stroke-dasharray:27.8376, 27.8376;stroke-dashoffset:0;stroke-opacity:1"
       transform="matrix(0.07184533,0,0,-0.07184533,911.25453,1798.1449)"
       clip-path="url(#clipPath58)" />
    <path
       id="path61"
       d="m 7878,7913 931,-537"
       style="fill:none;stroke:#000000;stroke-width:13.9188;stroke-linecap:round;stroke-linejoin:round;stroke-miterlimit:10;stroke-dasharray:none;stroke-opacity:1"
       transform="matrix(0.07184533,0,0,-0.07184533,911.25453,1798.1449)"
       clip-path="url(#clipPath62)" />
    <path
       id="path63"
       d="M 7959,8136 9017,7949"
       style="fill:none;stroke:#000000;stroke-width:13.9188;stroke-linecap:round;stroke-linejoin:round;stroke-miterlimit:10;stroke-dasharray:none;stroke-opacity:1"
       transform="matrix(0.07184533,0,0,-0.07184533,911.25453,1798.1449)"
       clip-path="url(#clipPath64)" />
    <path
       id="path71"
       d="M 7959,8136 9017,7949"
       style="fill:none;stroke:#000000;stroke-width:13.9188;stroke-linecap:round;stroke-linejoin:round;stroke-miterlimit:10;stroke-dasharray:none;stroke-opacity:1"
       transform="matrix(0.07184533,0,0,-0.07184533,911.25453,1798.1449)"
       clip-path="url(#clipPath72)" />
    <path
       id="path73"
       d="m 8938,8254 h 106"
       style="fill:none;stroke:#000000;stroke-width:13.9188;stroke-linecap:round;stroke-linejoin:round;stroke-miterlimit:10;stroke-dasharray:none;stroke-opacity:1"
       transform="matrix(0.07184533,0,0,-0.07184533,911.25453,1798.1449)"
       clip-path="url(#clipPath74)" />
    <path
       style="fill:none;stroke:#000000;stroke-width:1;stroke-dasharray:none;stroke-opacity:1"
       d="M 2022.9174,1048.2952 H 1395.6717"
       id="path85" />
    <path
       style="fill:none;stroke:#000000;stroke-width:1;stroke-dasharray:none;stroke-opacity:1;marker-start:url(#Triangle)"
       d="m 1277.8512,1308.5673 -29.4983,25.8879 h -19.6138"
       id="path88" />
    <path
       style="fill:none;stroke:#000000;stroke-width:1;stroke-dasharray:none;stroke-opacity:1;marker-start:url(#Triangle);marker-end:url(#Triangle)"
       d="m 1388.0784,1244.5258 77.2548,13.2891"
       id="path90" />
    <path
       style="fill:none;fill-opacity:1;stroke:#000000;stroke-width:1;stroke-dasharray:none;stroke-dashoffset:0;stroke-opacity:1;marker-start:url(#Triangle);marker-end:url(#Triangle)"
       d="m 1535.622,1263.3005 c 11.8924,-19.9698 15.2247,-37.5117 15.2247,-37.5117"
       id="path98"
       sodipodi:nodetypes="cc" />
    <path
       style="fill:none;fill-opacity:1;stroke:#000000;stroke-width:1;stroke-dasharray:none;stroke-dashoffset:0;stroke-opacity:1;marker-start:url(#Triangle);marker-end:url(#Triangle)"
       d="m 1550.8467,1225.7888 c 1.3193,-7.1178 2.3444,-14.0886 2.5614,-20.6553"
       id="path99"
       sodipodi:nodetypes="cc" />
    <text
       xml:space="preserve"
       style="font-size:16.4359px;font-family:Sans;-inkscape-font-specification:'Sans, Normal';text-align:justify;fill:#000000;fill-opacity:1;stroke:none;stroke-width:1;stroke-dasharray:none;stroke-dashoffset:0;stroke-opacity:1"
       x="1301.5963"
       y="1184.2015"
       id="text99"><tspan
         sodipodi:role="line"
         id="tspan99"
         x="1301.5963"
         y="1184.2015"
         style="stroke-width:1;stroke-dasharray:none">NACA0012</tspan></text>
    <path
       style="fill:none;fill-opacity:1;stroke:#000000;stroke-width:1;stroke-dasharray:none;stroke-dashoffset:0;stroke-opacity:1;marker-start:url(#Triangle)"
       d="m 1213.0167,1205.0977 h -93.9553"
       id="path100" />
    <g
       inkscape:label=""
       transform="translate(1118.1942,1137.3407)"
       id="g105">
      <g
         fill="#000000"
         fill-opacity="1"
         id="g8"
         transform="matrix(1.33333,0,0,1.33333,-273.194,-3.9805)">
        <g
           id="use7"
           transform="translate(204.349,26.421)">
          <path
             d="m 9.6875,-5.453125 c 0.125,-0.484375 0.328125,-1.3125 0.328125,-1.4375 0,-0.359375 -0.265625,-0.75 -0.796875,-0.75 -0.28125,0 -0.921875,0.15625 -1.140625,0.90625 C 8,-6.484375 7.234375,-3.375 7.09375,-2.8125 6.984375,-2.40625 6.875,-1.90625 6.828125,-1.59375 6.53125,-1.1875 5.859375,-0.484375 4.96875,-0.484375 c -1.015625,0 -1.03125,-0.859375 -1.03125,-1.25 0,-1.0625 0.546875,-2.390625 1.015625,-3.640625 C 5.125,-5.8125 5.1875,-5.9375 5.1875,-6.234375 c 0,-1 -1,-1.546875 -1.953125,-1.546875 -1.828125,0 -2.6875,2.34375 -2.6875,2.6875 0,0.234375 0.265625,0.234375 0.421875,0.234375 0.203125,0 0.328125,0 0.390625,-0.21875 0.5625,-1.90625 1.5,-2.078125 1.78125,-2.078125 0.109375,0 0.28125,0 0.28125,0.359375 0,0.390625 -0.203125,0.875 -0.265625,1.078125 -0.734375,1.8125 -1.0625,2.78125 -1.0625,3.625 0,1.953125 1.734375,2.234375 2.75,2.234375 0.5,0 1.25,-0.078125 2.1875,-0.953125 0.546875,0.84375 1.546875,0.953125 1.953125,0.953125 0.640625,0 1.140625,-0.359375 1.5,-0.984375 0.4375,-0.6875 0.65625,-1.625 0.65625,-1.703125 0,-0.25 -0.265625,-0.25 -0.40625,-0.25 -0.203125,0 -0.265625,0 -0.34375,0.09375 -0.04687,0.03125 -0.04687,0.0625 -0.140625,0.5 -0.34375,1.34375 -0.734375,1.71875 -1.171875,1.71875 -0.265625,0 -0.40625,-0.171875 -0.40625,-0.640625 0,-0.28125 0.078125,-0.5625 0.25,-1.25 0.125,-0.484375 0.296875,-1.171875 0.375,-1.546875 z m 0,0"
             id="path101" />
        </g>
      </g>
      <g
         fill="#000000"
         fill-opacity="1"
         id="g9"
         transform="matrix(1.33333,0,0,1.33333,-273.194,-3.9805)">
        <g
           id="use8"
           transform="translate(220.855,26.421)">
          <path
             d="m 11.078125,-5.53125 c 0.25,0 0.515625,0 0.515625,-0.28125 C 11.59375,-6.125 11.296875,-6.125 11,-6.125 H 1.375 c -0.296875,0 -0.578125,0 -0.578125,0.3125 0,0.28125 0.25,0.28125 0.515625,0.28125 z M 11,-2.46875 c 0.296875,0 0.59375,0 0.59375,-0.296875 0,-0.296875 -0.265625,-0.296875 -0.515625,-0.296875 H 1.3125 c -0.265625,0 -0.515625,0 -0.515625,0.296875 0,0.296875 0.28125,0.296875 0.578125,0.296875 z m 0,0"
             id="path102" />
        </g>
      </g>
      <g
         fill="#000000"
         fill-opacity="1"
         id="g10"
         transform="matrix(1.33333,0,0,1.33333,-273.194,-3.9805)">
        <g
           id="use9"
           transform="translate(238.02901,3.6259999)">
          <path
             d="m 3.984375,37.59375 h 4.1875 v -0.875 h -3.3125 V 0.234375 h 3.3125 v -0.875 h -4.1875 z m 0,0"
             id="path103" />
        </g>
      </g>
      <g
         fill="#000000"
         fill-opacity="1"
         id="g11"
         transform="matrix(1.33333,0,0,1.33333,-273.194,-3.9805)">
        <g
           id="use10"
           transform="translate(246.442,16.378)">
          <path
             d="m 5.875,-1 c 0.21875,0.96875 1.046875,1.171875 1.453125,1.171875 0.5625,0 0.96875,-0.359375 1.25,-0.953125 0.296875,-0.609375 0.515625,-1.625 0.515625,-1.6875 0,-0.078125 -0.078125,-0.15625 -0.171875,-0.15625 -0.15625,0 -0.171875,0.09375 -0.25,0.359375 -0.296875,1.1875 -0.609375,2.09375 -1.296875,2.09375 -0.515625,0 -0.515625,-0.5625 -0.515625,-0.796875 0,-0.390625 0.046875,-0.5625 0.21875,-1.28125 0.125,-0.46875 0.234375,-0.9375 0.34375,-1.421875 L 8.125,-6.46875 C 8.25,-6.90625 8.25,-6.9375 8.25,-6.984375 c 0,-0.265625 -0.203125,-0.4375 -0.46875,-0.4375 -0.5,0 -0.625,0.4375 -0.71875,0.859375 -0.171875,0.671875 -1.109375,4.375 -1.21875,4.984375 -0.03125,0 -0.703125,1.40625 -1.953125,1.40625 -0.890625,0 -1.0625,-0.78125 -1.0625,-1.40625 0,-0.984375 0.484375,-2.359375 0.921875,-3.515625 0.203125,-0.546875 0.296875,-0.78125 0.296875,-1.125 0,-0.734375 -0.53125,-1.375 -1.359375,-1.375 -1.578125,0 -2.21875,2.5 -2.21875,2.640625 0,0.0625 0.0625,0.15625 0.1875,0.15625 0.15625,0 0.171875,-0.078125 0.234375,-0.3125 C 1.3125,-6.59375 1.984375,-7.25 2.640625,-7.25 c 0.171875,0 0.4375,0.015625 0.4375,0.5625 0,0.453125 -0.1875,0.953125 -0.4375,1.609375 -0.765625,2.046875 -0.84375,2.703125 -0.84375,3.21875 0,1.75 1.3125,2.03125 2.03125,2.03125 1.09375,0 1.703125,-0.75 2.046875,-1.171875 z m 0,0"
             id="path104" />
        </g>
      </g>
      <g
         fill="#000000"
         fill-opacity="1"
         id="g12"
         transform="matrix(1.33333,0,0,1.33333,-273.194,-3.9805)">
        <g
           id="use11"
           transform="translate(256.03601,18.961)">
          <path
             d="m 5.546875,-2.953125 c -0.59375,-0.75 -0.71875,-0.90625 -1.0625,-1.1875 -0.609375,-0.484375 -1.21875,-0.6875 -1.78125,-0.6875 -1.28125,0 -2.109375,1.203125 -2.109375,2.484375 0,1.25 0.8125,2.46875 2.0625,2.46875 1.265625,0 2.171875,-1 2.703125,-1.875 0.578125,0.75 0.71875,0.90625 1.046875,1.1875 0.625,0.484375 1.234375,0.6875 1.78125,0.6875 1.28125,0 2.109375,-1.203125 2.109375,-2.484375 0,-1.25 -0.8125,-2.46875 -2.0625,-2.46875 -1.25,0 -2.15625,1 -2.6875,1.875 z m 0.28125,0.375 c 0.4375,-0.796875 1.25,-1.890625 2.484375,-1.890625 1.15625,0 1.75,1.125 1.75,2.109375 0,1.078125 -0.734375,1.953125 -1.703125,1.953125 -0.625,0 -1.125,-0.453125 -1.34375,-0.6875 -0.28125,-0.296875 -0.53125,-0.625 -1.1875,-1.484375 z m -0.75,0.46875 c -0.453125,0.78125 -1.265625,1.875 -2.5,1.875 -1.15625,0 -1.734375,-1.125 -1.734375,-2.109375 0,-1.0625 0.734375,-1.953125 1.6875,-1.953125 0.625,0 1.125,0.453125 1.34375,0.6875 0.28125,0.296875 0.53125,0.625 1.203125,1.5 z m 0,0"
             id="path18" />
        </g>
      </g>
      <g
         fill="#000000"
         fill-opacity="1"
         id="g13"
         transform="matrix(1.33333,0,0,1.33333,-273.194,-3.9805)">
        <g
           id="use12"
           transform="translate(252.995,35.507)">
          <path
             d="m 7.234375,-5.53125 c 0,-1.046875 -0.015625,-2.84375 -0.75,-4.21875 -0.625,-1.203125 -1.640625,-1.625 -2.546875,-1.625 -0.828125,0 -1.875,0.375 -2.53125,1.609375 -0.6875,1.296875 -0.75,2.890625 -0.75,4.234375 0,0.984375 0.015625,2.484375 0.546875,3.796875 0.75,1.765625 2.0625,2.015625 2.734375,2.015625 0.796875,0 2,-0.328125 2.703125,-1.96875 0.515625,-1.1875 0.59375,-2.578125 0.59375,-3.84375 z M 3.9375,0 C 2.84375,0 2.1875,-0.953125 1.953125,-2.25 1.75,-3.265625 1.75,-4.75 1.75,-5.71875 c 0,-1.328125 0,-2.421875 0.234375,-3.46875 0.328125,-1.46875 1.28125,-1.921875 1.953125,-1.921875 0.71875,0 1.625,0.46875 1.953125,1.875 C 6.109375,-8.25 6.125,-7.09375 6.125,-5.71875 c 0,1.125 0,2.5 -0.203125,3.515625 C 5.5625,-0.328125 4.546875,0 3.9375,0 Z m 0,0"
             id="path19" />
        </g>
      </g>
      <g
         fill="#000000"
         fill-opacity="1"
         id="g14"
         transform="matrix(1.33333,0,0,1.33333,-273.194,-3.9805)">
        <g
           id="use13"
           transform="translate(267.444,3.6259999)">
          <path
             d="m 3.53125,36.71875 h -3.3125 v 0.875 H 4.421875 V -0.640625 H 0.21875 v 0.875 h 3.3125 z m 0,0"
             id="path105" />
        </g>
      </g>
    </g>
    <g
       inkscape:label=""
       transform="translate(1528.4866,1185.8872)"
       id="g185">
      <g
         fill="#000000"
         fill-opacity="1"
         id="g3"
         transform="matrix(1.33333,0,0,1.33333,-310.429,-18.0363)">
        <g
           id="use2"
           transform="translate(232.33701,21.121)">
          <path
             d="m 8.15625,-7.03125 c -0.546875,0.109375 -0.75,0.515625 -0.75,0.84375 0,0.421875 0.328125,0.5625 0.5625,0.5625 0.515625,0 0.875,-0.453125 0.875,-0.921875 0,-0.71875 -0.8125,-1.046875 -1.546875,-1.046875 -1.046875,0 -1.625,1.03125 -1.78125,1.359375 -0.40625,-1.296875 -1.46875,-1.359375 -1.78125,-1.359375 -1.75,0 -2.6875,2.25 -2.6875,2.640625 0,0.0625 0.078125,0.15625 0.1875,0.15625 0.140625,0 0.171875,-0.109375 0.21875,-0.171875 C 2.03125,-6.890625 3.1875,-7.25 3.6875,-7.25 c 0.765625,0 0.921875,0.71875 0.921875,1.140625 0,0.375 -0.09375,0.765625 -0.296875,1.59375 L 3.71875,-2.15625 c -0.25,1.03125 -0.75,1.984375 -1.671875,1.984375 -0.078125,0 -0.515625,0 -0.875,-0.21875 0.625,-0.125 0.75,-0.640625 0.75,-0.84375 0,-0.34375 -0.25,-0.5625 -0.578125,-0.5625 -0.40625,0 -0.859375,0.375 -0.859375,0.921875 0,0.71875 0.8125,1.046875 1.546875,1.046875 0.828125,0 1.40625,-0.65625 1.78125,-1.359375 0.265625,1.015625 1.125,1.359375 1.765625,1.359375 1.75,0 2.6875,-2.25 2.6875,-2.640625 0,-0.078125 -0.0625,-0.15625 -0.171875,-0.15625 -0.15625,0 -0.171875,0.09375 -0.21875,0.234375 -0.46875,1.515625 -1.46875,2.21875 -2.25,2.21875 -0.59375,0 -0.921875,-0.453125 -0.921875,-1.15625 0,-0.375 0.0625,-0.65625 0.34375,-1.78125 l 0.59375,-2.34375 C 5.90625,-6.484375 6.484375,-7.25 7.28125,-7.25 c 0.03125,0 0.515625,0 0.875,0.21875 z m 0,0"
             id="path184" />
        </g>
      </g>
      <g
         fill="#000000"
         fill-opacity="1"
         id="g4"
         transform="matrix(1.33333,0,0,1.33333,-310.429,-18.0363)">
        <g
           id="use3"
           transform="translate(241.916,23.702999)">
          <path
             d="m 3.203125,-6.984375 c 0,-0.25 0,-0.28125 -0.25,-0.28125 C 2.28125,-6.5625 1.3125,-6.5625 0.96875,-6.5625 v 0.328125 c 0.21875,0 0.859375,0 1.4375,-0.28125 v 5.65625 c 0,0.390625 -0.046875,0.515625 -1.015625,0.515625 H 1.03125 V 0 c 0.390625,-0.03125 1.328125,-0.03125 1.765625,-0.03125 0.4375,0 1.390625,0 1.765625,0.03125 V -0.34375 H 4.21875 c -0.984375,0 -1.015625,-0.109375 -1.015625,-0.515625 z m 0,0"
             id="path185" />
        </g>
      </g>
    </g>
  </g>
  <g
     inkscape:label=""
     transform="translate(795.42868,221.92707)"
     id="g154">
    <g
       fill="#000000"
       fill-opacity="1"
       id="g151"
       transform="matrix(1.33333,0,0,1.33333,-306.759,-11.9933)">
      <g
         id="g150"
         transform="translate(229.507,21.120001)">
        <path
           d="M 4.6875,-6.203125 C 5.765625,-6.75 6.875,-7.578125 6.875,-8.90625 c 0,-1.5625 -1.515625,-2.46875 -2.921875,-2.46875 -1.5625,0 -2.9375,1.125 -2.9375,2.703125 0,0.421875 0.109375,1.171875 0.78125,1.8125 C 1.96875,-6.6875 2.6875,-6.171875 3.15625,-5.84375 2.375,-5.4375 0.5625,-4.5 0.5625,-2.59375 c 0,1.765625 1.6875,2.875 3.359375,2.875 1.84375,0 3.390625,-1.328125 3.390625,-3.09375 0,-1.5625 -1.046875,-2.28125 -1.734375,-2.75 z M 2.421875,-7.71875 c -0.125,-0.078125 -0.828125,-0.609375 -0.828125,-1.421875 0,-1.046875 1.09375,-1.84375 2.328125,-1.84375 1.359375,0 2.359375,0.96875 2.359375,2.078125 0,1.609375 -1.78125,2.515625 -1.875,2.515625 -0.015625,0 -0.03125,0 -0.171875,-0.09375 z M 5.59375,-4.1875 C 5.859375,-4 6.6875,-3.421875 6.6875,-2.375 c 0,1.265625 -1.28125,2.234375 -2.734375,2.234375 -1.5625,0 -2.75,-1.109375 -2.75,-2.484375 0,-1.359375 1.046875,-2.484375 2.234375,-3.015625 z m 0,0"
           id="path149" />
      </g>
    </g>
    <g
       fill="#000000"
       fill-opacity="1"
       id="g153"
       transform="matrix(1.33333,0,0,1.33333,-306.759,-11.9933)">
      <g
         id="g152"
         transform="translate(237.40199,21.120001)">
        <path
           d="m 12.859375,-11.96875 c 0,-0.15625 -0.125,-0.15625 -0.15625,-0.15625 -0.03125,0 -0.09375,0 -0.234375,0.171875 L 11.28125,-10.5 c -0.609375,-1.03125 -1.546875,-1.625 -2.84375,-1.625 -3.71875,0 -7.578125,3.78125 -7.578125,7.8125 0,2.890625 2.015625,4.671875 4.53125,4.671875 1.375,0 2.578125,-0.578125 3.578125,-1.421875 1.5,-1.265625 1.953125,-2.9375 1.953125,-3.0625 0,-0.15625 -0.140625,-0.15625 -0.1875,-0.15625 -0.15625,0 -0.171875,0.09375 -0.21875,0.171875 -0.78125,2.6875 -3.109375,3.96875 -4.828125,3.96875 -1.828125,0 -3.421875,-1.171875 -3.421875,-3.609375 0,-0.5625 0.171875,-3.546875 2.125,-5.8125 0.953125,-1.09375 2.5625,-2.0625 4.203125,-2.0625 1.890625,0 2.734375,1.5625 2.734375,3.328125 0,0.4375 -0.04687,0.828125 -0.04687,0.890625 0,0.15625 0.171875,0.15625 0.21875,0.15625 0.1875,0 0.203125,-0.015625 0.28125,-0.328125 z m 0,0"
           id="path151" />
      </g>
    </g>
  </g>
  <g
     inkscape:label=""
     transform="translate(550.62253,427.83878)"
     id="g160">
    <g
       fill="#000000"
       fill-opacity="1"
       id="g157"
       transform="matrix(1.33333,0,0,1.33333,-302.745,-11.9933)">
      <g
         id="g155"
         transform="translate(225.55901,21.120001)">
        <path
           d="m 4.578125,-11 c 0,-0.359375 -0.015625,-0.375 -0.25,-0.375 -0.671875,0.796875 -1.6875,1.0625 -2.65625,1.09375 -0.046875,0 -0.140625,0 -0.15625,0.03125 C 1.5,-10.203125 1.5,-10.171875 1.5,-9.8125 c 0.53125,0 1.421875,-0.109375 2.109375,-0.515625 V -1.25 c 0,0.59375 -0.03125,0.796875 -1.515625,0.796875 H 1.578125 V 0 c 0.828125,-0.015625 1.6875,-0.03125 2.515625,-0.03125 0.828125,0 1.6875,0.015625 2.515625,0.03125 V -0.453125 H 6.09375 c -1.484375,0 -1.515625,-0.1875 -1.515625,-0.796875 z m 0,0"
           id="path154" />
      </g>
      <g
         id="g156"
         transform="translate(233.45398,21.120001)">
        <path
           d="m 1.828125,-5.9375 c 0,-4.125 1.921875,-5.046875 3.046875,-5.046875 0.359375,0 1.234375,0.0625 1.578125,0.734375 -0.265625,0 -0.78125,0 -0.78125,0.609375 0,0.46875 0.375,0.625 0.609375,0.625 0.15625,0 0.625,-0.078125 0.625,-0.65625 0,-1.09375 -0.859375,-1.703125 -2.046875,-1.703125 -2.046875,0 -4.203125,2.125 -4.203125,5.9375 0,4.6875 1.9375,5.71875 3.328125,5.71875 1.65625,0 3.25,-1.5 3.25,-3.8125 0,-2.15625 -1.390625,-3.71875 -3.15625,-3.71875 -1.046875,0 -1.828125,0.6875 -2.25,1.890625 z m 2.15625,5.796875 c -2.125,0 -2.125,-3.171875 -2.125,-3.796875 0,-1.25 0.578125,-3.03125 2.1875,-3.03125 0.296875,0 1.140625,0 1.703125,1.1875 0.3125,0.671875 0.3125,1.375 0.3125,2.234375 0,0.921875 0,1.625 -0.359375,2.3125 -0.375,0.703125 -0.9375,1.09375 -1.71875,1.09375 z m 0,0"
           id="path155" />
      </g>
    </g>
    <g
       fill="#000000"
       fill-opacity="1"
       id="g159"
       transform="matrix(1.33333,0,0,1.33333,-302.745,-11.9933)">
      <g
         id="g158"
         transform="translate(241.35001,21.120001)">
        <path
           d="m 12.859375,-11.96875 c 0,-0.15625 -0.125,-0.15625 -0.15625,-0.15625 -0.03125,0 -0.09375,0 -0.234375,0.171875 L 11.28125,-10.5 c -0.609375,-1.03125 -1.546875,-1.625 -2.84375,-1.625 -3.71875,0 -7.578125,3.78125 -7.578125,7.8125 0,2.890625 2.015625,4.671875 4.53125,4.671875 1.375,0 2.578125,-0.578125 3.578125,-1.421875 1.5,-1.265625 1.953125,-2.9375 1.953125,-3.0625 0,-0.15625 -0.140625,-0.15625 -0.1875,-0.15625 -0.15625,0 -0.171875,0.09375 -0.21875,0.171875 -0.78125,2.6875 -3.109375,3.96875 -4.828125,3.96875 -1.828125,0 -3.421875,-1.171875 -3.421875,-3.609375 0,-0.5625 0.171875,-3.546875 2.125,-5.8125 0.953125,-1.09375 2.5625,-2.0625 4.203125,-2.0625 1.890625,0 2.734375,1.5625 2.734375,3.328125 0,0.4375 -0.04687,0.828125 -0.04687,0.890625 0,0.15625 0.171875,0.15625 0.21875,0.15625 0.1875,0 0.203125,-0.015625 0.28125,-0.328125 z m 0,0"
           id="path157" />
      </g>
    </g>
  </g>
  <g
     inkscape:label=""
     transform="translate(201.33525)"
     id="g177">
    <g
       fill="#000000"
       fill-opacity="1"
       id="g174"
       transform="matrix(1.33333,0,0,1.33333,-306.947,-11.9933)">
      <g
         id="g173"
         transform="translate(229.507,21.120001)">
        <path
           d="M 1.96875,-10.078125 C 2.140625,-10 2.84375,-9.78125 3.5625,-9.78125 c 1.609375,0 2.484375,-0.859375 2.984375,-1.359375 0,-0.140625 0,-0.21875 -0.109375,-0.21875 -0.015625,0 -0.046875,0 -0.1875,0.0625 -0.609375,0.265625 -1.3125,0.46875 -2.171875,0.46875 -0.515625,0 -1.28125,-0.07813 -2.125,-0.453125 -0.203125,-0.07813 -0.234375,-0.07813 -0.25,-0.07813 -0.078125,0 -0.109375,0.01563 -0.109375,0.359375 v 4.984375 c 0,0.3125 0,0.40625 0.1875,0.40625 0.078125,0 0.109375,-0.03125 0.203125,-0.15625 C 2.53125,-6.546875 3.28125,-6.875 4.15625,-6.875 c 0.59375,0 1.890625,0.390625 1.890625,3.328125 0,0.546875 0,1.546875 -0.515625,2.34375 -0.4375,0.703125 -1.109375,1.0625 -1.84375,1.0625 -1.140625,0 -2.296875,-0.796875 -2.609375,-2.109375 0.078125,0.015625 0.21875,0.046875 0.28125,0.046875 0.21875,0 0.65625,-0.125 0.65625,-0.65625 0,-0.46875 -0.328125,-0.65625 -0.65625,-0.65625 -0.390625,0 -0.65625,0.25 -0.65625,0.71875 0,1.5 1.1875,3.078125 3.015625,3.078125 1.78125,0 3.46875,-1.53125 3.46875,-3.765625 0,-2.0625 -1.34375,-3.65625 -3.015625,-3.65625 -0.890625,0 -1.625,0.328125 -2.203125,0.9375 z m 0,0"
           id="path172" />
      </g>
    </g>
    <g
       fill="#000000"
       fill-opacity="1"
       id="g176"
       transform="matrix(1.33333,0,0,1.33333,-306.947,-11.9933)">
      <g
         id="g175"
         transform="translate(237.40199,21.120001)">
        <path
           d="m 12.859375,-11.96875 c 0,-0.15625 -0.125,-0.15625 -0.15625,-0.15625 -0.03125,0 -0.09375,0 -0.234375,0.171875 L 11.28125,-10.5 c -0.609375,-1.03125 -1.546875,-1.625 -2.84375,-1.625 -3.71875,0 -7.578125,3.78125 -7.578125,7.8125 0,2.890625 2.015625,4.671875 4.53125,4.671875 1.375,0 2.578125,-0.578125 3.578125,-1.421875 1.5,-1.265625 1.953125,-2.9375 1.953125,-3.0625 0,-0.15625 -0.140625,-0.15625 -0.1875,-0.15625 -0.15625,0 -0.171875,0.09375 -0.21875,0.171875 -0.78125,2.6875 -3.109375,3.96875 -4.828125,3.96875 -1.828125,0 -3.421875,-1.171875 -3.421875,-3.609375 0,-0.5625 0.171875,-3.546875 2.125,-5.8125 0.953125,-1.09375 2.5625,-2.0625 4.203125,-2.0625 1.890625,0 2.734375,1.5625 2.734375,3.328125 0,0.4375 -0.04687,0.828125 -0.04687,0.890625 0,0.15625 0.171875,0.15625 0.21875,0.15625 0.1875,0 0.203125,-0.015625 0.28125,-0.328125 z m 0,0"
           id="path174" />
      </g>
    </g>
  </g>
  <g
     inkscape:label=""
     transform="translate(63.298144,351.57519)"
     id="g183">
    <g
       fill="#000000"
       fill-opacity="1"
       id="g179"
       transform="matrix(1.33333,0,0,1.33333,-298.445,-11.9933)">
      <g
         id="g178"
         transform="translate(223.021,21.120001)">
        <path
           d="m 6.34375,-10.59375 c 0.140625,-0.640625 0.21875,-0.671875 0.890625,-0.671875 H 8.46875 c 1.484375,0 2.578125,0.453125 2.578125,1.796875 0,0.875 -0.4375,3.40625 -3.90625,3.40625 h -1.9375 z m 2.390625,4.734375 c 2.125,-0.453125 3.796875,-1.84375 3.796875,-3.3125 0,-1.34375 -1.359375,-2.59375 -3.75,-2.59375 H 4.109375 c -0.34375,0 -0.5,0 -0.5,0.328125 0,0.171875 0.125,0.171875 0.453125,0.171875 1.03125,0 1.03125,0.140625 1.03125,0.328125 0,0.03125 0,0.140625 -0.0625,0.40625 l -2.328125,9.25 C 2.546875,-0.671875 2.515625,-0.5 1.328125,-0.5 0.9375,-0.5 0.8125,-0.5 0.8125,-0.171875 0.8125,0 1,0 1.046875,0 c 0.3125,0 0.671875,-0.03125 1,-0.03125 h 2.03125 C 4.390625,-0.03125 4.75,0 5.0625,0 5.203125,0 5.390625,0 5.390625,-0.328125 5.390625,-0.5 5.234375,-0.5 4.96875,-0.5 c -1.046875,0 -1.046875,-0.140625 -1.046875,-0.3125 0,-0.015625 0,-0.140625 0.03125,-0.265625 L 5.109375,-5.71875 H 7.1875 c 1.625,0 1.9375,1.03125 1.9375,1.609375 0,0.25 -0.171875,0.921875 -0.296875,1.375 -0.1875,0.78125 -0.234375,0.984375 -0.234375,1.3125 0,1.21875 1,1.78125 2.15625,1.78125 1.390625,0 1.984375,-1.703125 1.984375,-1.9375 0,-0.125 -0.07813,-0.171875 -0.1875,-0.171875 -0.125,0 -0.171875,0.09375 -0.203125,0.234375 -0.40625,1.21875 -1.109375,1.53125 -1.546875,1.53125 -0.4375,0 -0.703125,-0.1875 -0.703125,-0.96875 0,-0.40625 0.203125,-1.96875 0.21875,-2.0625 0.09375,-0.640625 0.09375,-0.703125 0.09375,-0.84375 0,-1.25 -1.015625,-1.78125 -1.671875,-2 z m 0,0"
           id="path177" />
      </g>
    </g>
    <g
       fill="#000000"
       fill-opacity="1"
       id="g181"
       transform="matrix(1.33333,0,0,1.33333,-298.445,-11.9933)">
      <g
         id="g180"
         transform="translate(235.993,21.120001)">
        <path
           d="m 5.78125,-11.140625 c 0,-0.359375 -0.015625,-0.375 -0.328125,-0.375 L 0.34375,-3.375 v 0.453125 h 4.4375 v 1.6875 c 0,0.609375 -0.03125,0.78125 -1.234375,0.78125 H 3.21875 V 0 c 0.546875,-0.03125 1.484375,-0.03125 2.0625,-0.03125 0.59375,0 1.515625,0 2.078125,0.03125 V -0.453125 H 7.03125 c -1.21875,0 -1.25,-0.171875 -1.25,-0.78125 v -1.6875 H 7.546875 V -3.375 H 5.78125 Z M 4.84375,-10 v 6.625 H 0.6875 Z m 0,0"
           id="path179" />
      </g>
    </g>
    <g
       fill="#000000"
       fill-opacity="1"
       id="g6"
       transform="matrix(1.33333,0,0,1.33333,-298.445,-11.9933)">
      <g
         id="g182"
         transform="translate(243.888,21.120001)">
        <path
           d="m 12.859375,-11.96875 c 0,-0.15625 -0.125,-0.15625 -0.15625,-0.15625 -0.03125,0 -0.09375,0 -0.234375,0.171875 L 11.28125,-10.5 c -0.609375,-1.03125 -1.546875,-1.625 -2.84375,-1.625 -3.71875,0 -7.578125,3.78125 -7.578125,7.8125 0,2.890625 2.015625,4.671875 4.53125,4.671875 1.375,0 2.578125,-0.578125 3.578125,-1.421875 1.5,-1.265625 1.953125,-2.9375 1.953125,-3.0625 0,-0.15625 -0.140625,-0.15625 -0.1875,-0.15625 -0.15625,0 -0.171875,0.09375 -0.21875,0.171875 -0.78125,2.6875 -3.109375,3.96875 -4.828125,3.96875 -1.828125,0 -3.421875,-1.171875 -3.421875,-3.609375 0,-0.5625 0.171875,-3.546875 2.125,-5.8125 0.953125,-1.09375 2.5625,-2.0625 4.203125,-2.0625 1.890625,0 2.734375,1.5625 2.734375,3.328125 0,0.4375 -0.04687,0.828125 -0.04687,0.890625 0,0.15625 0.171875,0.15625 0.21875,0.15625 0.1875,0 0.203125,-0.015625 0.28125,-0.328125 z m 0,0"
           id="path181" />
      </g>
    </g>
  </g>
  <g
     inkscape:label=""
     transform="translate(302.83751,256.74301)"
     id="g184">
    <g
       fill="#000000"
       fill-opacity="1"
       id="g2"
       transform="matrix(1.33333,0,0,1.33333,-312.419,-11.9933)">
      <g
         id="use1"
         transform="translate(233.455,21.120001)">
        <path
           d="m 12.859375,-11.96875 c 0,-0.15625 -0.125,-0.15625 -0.15625,-0.15625 -0.03125,0 -0.09375,0 -0.234375,0.171875 L 11.28125,-10.5 c -0.609375,-1.03125 -1.546875,-1.625 -2.84375,-1.625 -3.71875,0 -7.578125,3.78125 -7.578125,7.8125 0,2.890625 2.015625,4.671875 4.53125,4.671875 1.375,0 2.578125,-0.578125 3.578125,-1.421875 1.5,-1.265625 1.953125,-2.9375 1.953125,-3.0625 0,-0.15625 -0.140625,-0.15625 -0.1875,-0.15625 -0.15625,0 -0.171875,0.09375 -0.21875,0.171875 -0.78125,2.6875 -3.109375,3.96875 -4.828125,3.96875 -1.828125,0 -3.421875,-1.171875 -3.421875,-3.609375 0,-0.5625 0.171875,-3.546875 2.125,-5.8125 0.953125,-1.09375 2.5625,-2.0625 4.203125,-2.0625 1.890625,0 2.734375,1.5625 2.734375,3.328125 0,0.4375 -0.04687,0.828125 -0.04687,0.890625 0,0.15625 0.171875,0.15625 0.21875,0.15625 0.1875,0 0.203125,-0.015625 0.28125,-0.328125 z m 0,0"
           id="path2" />
      </g>
    </g>
  </g>
  <g
     inkscape:label=""
     transform="translate(324.88228,116.6833)"
     id="g190">
    <g
       fill="#000000"
       fill-opacity="1"
       id="g187"
       transform="matrix(1.33333,0,0,1.33333,-310.429,-18.0363)">
      <g
         id="g186"
         transform="translate(232.33701,21.121)">
        <path
           d="m 8.15625,-7.03125 c -0.546875,0.109375 -0.75,0.515625 -0.75,0.84375 0,0.421875 0.328125,0.5625 0.5625,0.5625 0.515625,0 0.875,-0.453125 0.875,-0.921875 0,-0.71875 -0.8125,-1.046875 -1.546875,-1.046875 -1.046875,0 -1.625,1.03125 -1.78125,1.359375 -0.40625,-1.296875 -1.46875,-1.359375 -1.78125,-1.359375 -1.75,0 -2.6875,2.25 -2.6875,2.640625 0,0.0625 0.078125,0.15625 0.1875,0.15625 0.140625,0 0.171875,-0.109375 0.21875,-0.171875 C 2.03125,-6.890625 3.1875,-7.25 3.6875,-7.25 c 0.765625,0 0.921875,0.71875 0.921875,1.140625 0,0.375 -0.09375,0.765625 -0.296875,1.59375 L 3.71875,-2.15625 c -0.25,1.03125 -0.75,1.984375 -1.671875,1.984375 -0.078125,0 -0.515625,0 -0.875,-0.21875 0.625,-0.125 0.75,-0.640625 0.75,-0.84375 0,-0.34375 -0.25,-0.5625 -0.578125,-0.5625 -0.40625,0 -0.859375,0.375 -0.859375,0.921875 0,0.71875 0.8125,1.046875 1.546875,1.046875 0.828125,0 1.40625,-0.65625 1.78125,-1.359375 0.265625,1.015625 1.125,1.359375 1.765625,1.359375 1.75,0 2.6875,-2.25 2.6875,-2.640625 0,-0.078125 -0.0625,-0.15625 -0.171875,-0.15625 -0.15625,0 -0.171875,0.09375 -0.21875,0.234375 -0.46875,1.515625 -1.46875,2.21875 -2.25,2.21875 -0.59375,0 -0.921875,-0.453125 -0.921875,-1.15625 0,-0.375 0.0625,-0.65625 0.34375,-1.78125 l 0.59375,-2.34375 C 5.90625,-6.484375 6.484375,-7.25 7.28125,-7.25 c 0.03125,0 0.515625,0 0.875,0.21875 z m 0,0"
           id="path186" />
      </g>
    </g>
    <g
       fill="#000000"
       fill-opacity="1"
       id="g189"
       transform="matrix(1.33333,0,0,1.33333,-310.429,-18.0363)">
      <g
         id="g188"
         transform="translate(241.916,23.702999)">
        <path
           d="m 1.390625,-0.84375 1.15625,-1.125 c 1.703125,-1.5 2.34375,-2.09375 2.34375,-3.171875 0,-1.25 -0.96875,-2.125 -2.3125,-2.125 -1.21875,0 -2.03125,1 -2.03125,1.96875 0,0.625 0.546875,0.625 0.578125,0.625 0.1875,0 0.5625,-0.140625 0.5625,-0.578125 0,-0.296875 -0.1875,-0.578125 -0.578125,-0.578125 -0.078125,0 -0.109375,0 -0.140625,0.015625 0.25,-0.703125 0.84375,-1.109375 1.46875,-1.109375 1,0 1.46875,0.875 1.46875,1.78125 0,0.859375 -0.546875,1.734375 -1.140625,2.40625 l -2.09375,2.328125 c -0.125,0.125 -0.125,0.140625 -0.125,0.40625 H 4.59375 L 4.890625,-1.890625 H 4.625 C 4.5625,-1.578125 4.5,-1.09375 4.390625,-0.921875 4.3125,-0.84375 3.59375,-0.84375 3.34375,-0.84375 Z m 0,0"
           id="path187" />
      </g>
    </g>
  </g>
  <g
     inkscape:label=""
     transform="translate(446.1414,236.41716)"
     id="g193">
    <g
       fill="#000000"
       fill-opacity="1"
       id="g192"
       transform="matrix(1.33333,0,0,1.33333,-307.641,-12.2243)">
      <g
         id="g191"
         transform="translate(229.231,21.120001)">
        <path
           d="m 4.578125,-11 c 0,-0.359375 -0.015625,-0.375 -0.25,-0.375 -0.671875,0.796875 -1.6875,1.0625 -2.65625,1.09375 -0.046875,0 -0.140625,0 -0.15625,0.03125 C 1.5,-10.203125 1.5,-10.171875 1.5,-9.8125 c 0.53125,0 1.421875,-0.109375 2.109375,-0.515625 V -1.25 c 0,0.59375 -0.03125,0.796875 -1.515625,0.796875 H 1.578125 V 0 c 0.828125,-0.015625 1.6875,-0.03125 2.515625,-0.03125 0.828125,0 1.6875,0.015625 2.515625,0.03125 V -0.453125 H 6.09375 c -1.484375,0 -1.515625,-0.1875 -1.515625,-0.796875 z m 0,0"
           id="path190" />
      </g>
      <g
         id="use4"
         transform="translate(237.12598,21.120001)">
        <path
           d="m 7.234375,-5.53125 c 0,-1.046875 -0.015625,-2.84375 -0.75,-4.21875 -0.625,-1.203125 -1.640625,-1.625 -2.546875,-1.625 -0.828125,0 -1.875,0.375 -2.53125,1.609375 -0.6875,1.296875 -0.75,2.890625 -0.75,4.234375 0,0.984375 0.015625,2.484375 0.546875,3.796875 0.75,1.765625 2.0625,2.015625 2.734375,2.015625 0.796875,0 2,-0.328125 2.703125,-1.96875 0.515625,-1.1875 0.59375,-2.578125 0.59375,-3.84375 z M 3.9375,0 C 2.84375,0 2.1875,-0.953125 1.953125,-2.25 1.75,-3.265625 1.75,-4.75 1.75,-5.71875 c 0,-1.328125 0,-2.421875 0.234375,-3.46875 0.328125,-1.46875 1.28125,-1.921875 1.953125,-1.921875 0.71875,0 1.625,0.46875 1.953125,1.875 C 6.109375,-8.25 6.125,-7.09375 6.125,-5.71875 c 0,1.125 0,2.5 -0.203125,3.515625 C 5.5625,-0.328125 4.546875,0 3.9375,0 Z m 0,0"
           id="path191" />
      </g>
    </g>
    <g
       fill="#000000"
       fill-opacity="1"
       id="g5"
       transform="matrix(1.33333,0,0,1.33333,-307.641,-12.2243)">
      <g
         id="use5"
         transform="translate(245.022,14.012)">
        <path
           d="m 4.84375,-2.71875 c 0,-1.171875 -0.96875,-2.125 -2.125,-2.125 -1.171875,0 -2.125,0.96875 -2.125,2.125 0,1.140625 0.953125,2.109375 2.125,2.109375 1.15625,0 2.125,-0.953125 2.125,-2.109375 z m -2.125,1.671875 c -0.9375,0 -1.6875,-0.765625 -1.6875,-1.671875 0,-0.921875 0.75,-1.6875 1.6875,-1.6875 0.90625,0 1.6875,0.734375 1.6875,1.6875 0,0.9375 -0.78125,1.671875 -1.6875,1.671875 z m 0,0"
           id="path192" />
      </g>
    </g>
  </g>
  <g
     inkscape:label=""
     transform="translate(434.70186,267.68523)"
     id="g199">
    <g
       fill="#000000"
       fill-opacity="1"
       id="g196"
       transform="matrix(1.33333,0,0,1.33333,-306.579,-12.2243)">
      <g
         id="g194"
         transform="translate(229.231,21.120001)">
        <path
           d="M 7.1875,-2.671875 H 6.875 c -0.171875,1.21875 -0.3125,1.4375 -0.390625,1.53125 C 6.40625,-1 5.171875,-1 4.921875,-1 H 1.625 c 0.609375,-0.671875 1.8125,-1.890625 3.28125,-3.3125 1.046875,-0.984375 2.28125,-2.15625 2.28125,-3.859375 0,-2.03125 -1.625,-3.203125 -3.4375,-3.203125 -1.890625,0 -3.046875,1.65625 -3.046875,3.21875 0,0.671875 0.5,0.75 0.703125,0.75 0.171875,0 0.6875,-0.09375 0.6875,-0.703125 0,-0.53125 -0.4375,-0.6875 -0.6875,-0.6875 -0.09375,0 -0.203125,0.015625 -0.265625,0.046875 0.328125,-1.453125 1.328125,-2.1875 2.375,-2.1875 1.5,0 2.46875,1.1875 2.46875,2.765625 0,1.484375 -0.875,2.78125 -1.859375,3.90625 l -3.421875,3.875 V 0 h 6.0625 z m 0,0"
           id="path193" />
      </g>
      <g
         id="g195"
         transform="translate(237.12598,21.120001)">
        <path
           d="m 7.234375,-5.53125 c 0,-1.046875 -0.015625,-2.84375 -0.75,-4.21875 -0.625,-1.203125 -1.640625,-1.625 -2.546875,-1.625 -0.828125,0 -1.875,0.375 -2.53125,1.609375 -0.6875,1.296875 -0.75,2.890625 -0.75,4.234375 0,0.984375 0.015625,2.484375 0.546875,3.796875 0.75,1.765625 2.0625,2.015625 2.734375,2.015625 0.796875,0 2,-0.328125 2.703125,-1.96875 0.515625,-1.1875 0.59375,-2.578125 0.59375,-3.84375 z M 3.9375,0 C 2.84375,0 2.1875,-0.953125 1.953125,-2.25 1.75,-3.265625 1.75,-4.75 1.75,-5.71875 c 0,-1.328125 0,-2.421875 0.234375,-3.46875 0.328125,-1.46875 1.28125,-1.921875 1.953125,-1.921875 0.71875,0 1.625,0.46875 1.953125,1.875 C 6.109375,-8.25 6.125,-7.09375 6.125,-5.71875 c 0,1.125 0,2.5 -0.203125,3.515625 C 5.5625,-0.328125 4.546875,0 3.9375,0 Z m 0,0"
           id="path194" />
      </g>
    </g>
    <g
       fill="#000000"
       fill-opacity="1"
       id="g198"
       transform="matrix(1.33333,0,0,1.33333,-306.579,-12.2243)">
      <g
         id="g197"
         transform="translate(245.022,14.012)">
        <path
           d="m 4.84375,-2.71875 c 0,-1.171875 -0.96875,-2.125 -2.125,-2.125 -1.171875,0 -2.125,0.96875 -2.125,2.125 0,1.140625 0.953125,2.109375 2.125,2.109375 1.15625,0 2.125,-0.953125 2.125,-2.109375 z m -2.125,1.671875 c -0.9375,0 -1.6875,-0.765625 -1.6875,-1.671875 0,-0.921875 0.75,-1.6875 1.6875,-1.6875 0.90625,0 1.6875,0.734375 1.6875,1.6875 0,0.9375 -0.78125,1.671875 -1.6875,1.671875 z m 0,0"
           id="path196" />
      </g>
    </g>
  </g>
  <text
     xml:space="preserve"
     style="font-style:normal;font-variant:normal;font-weight:normal;font-stretch:normal;font-size:21.3333px;font-family:Sans;-inkscape-font-specification:'Sans, Normal';font-variant-ligatures:normal;font-variant-caps:normal;font-variant-numeric:normal;font-variant-east-asian:normal;text-align:justify;fill:#000000;fill-opacity:1;stroke:none;stroke-width:1;stroke-dasharray:none;stroke-dashoffset:0;stroke-opacity:1"
     x="-254.63297"
     y="925.729"
     id="text199"
     transform="rotate(-90)"><tspan
       sodipodi:role="line"
       id="tspan199"
       x="-254.63297"
       y="925.729">Sada</tspan></text>
  <g
     inkscape:label=""
     transform="translate(527.74449,78.932893)"
     id="g206">
    <g
       fill="#000000"
       fill-opacity="1"
       id="g201"
       transform="matrix(1.33333,0,0,1.33333,-290.497,-12.9947)">
      <g
         id="g200"
         transform="translate(217.40401,21.121)">
        <path
           d="m 5.875,-1 c 0.21875,0.96875 1.046875,1.171875 1.453125,1.171875 0.5625,0 0.96875,-0.359375 1.25,-0.953125 0.296875,-0.609375 0.515625,-1.625 0.515625,-1.6875 0,-0.078125 -0.078125,-0.15625 -0.171875,-0.15625 -0.15625,0 -0.171875,0.09375 -0.25,0.359375 -0.296875,1.1875 -0.609375,2.09375 -1.296875,2.09375 -0.515625,0 -0.515625,-0.5625 -0.515625,-0.796875 0,-0.390625 0.046875,-0.5625 0.21875,-1.28125 0.125,-0.46875 0.234375,-0.9375 0.34375,-1.421875 L 8.125,-6.46875 C 8.25,-6.90625 8.25,-6.9375 8.25,-6.984375 c 0,-0.265625 -0.203125,-0.4375 -0.46875,-0.4375 -0.5,0 -0.625,0.4375 -0.71875,0.859375 -0.171875,0.671875 -1.109375,4.375 -1.21875,4.984375 -0.03125,0 -0.703125,1.40625 -1.953125,1.40625 -0.890625,0 -1.0625,-0.78125 -1.0625,-1.40625 0,-0.984375 0.484375,-2.359375 0.921875,-3.515625 0.203125,-0.546875 0.296875,-0.78125 0.296875,-1.125 0,-0.734375 -0.53125,-1.375 -1.359375,-1.375 -1.578125,0 -2.21875,2.5 -2.21875,2.640625 0,0.0625 0.0625,0.15625 0.1875,0.15625 0.15625,0 0.171875,-0.078125 0.234375,-0.3125 C 1.3125,-6.59375 1.984375,-7.25 2.640625,-7.25 c 0.171875,0 0.4375,0.015625 0.4375,0.5625 0,0.453125 -0.1875,0.953125 -0.4375,1.609375 -0.765625,2.046875 -0.84375,2.703125 -0.84375,3.21875 0,1.75 1.3125,2.03125 2.03125,2.03125 1.09375,0 1.703125,-0.75 2.046875,-1.171875 z m 0,0"
           id="path199" />
      </g>
    </g>
    <g
       fill="#000000"
       fill-opacity="1"
       id="g203"
       transform="matrix(1.33333,0,0,1.33333,-290.497,-12.9947)">
      <g
         id="g202"
         transform="translate(226.998,23.702999)">
        <path
           d="m 1.390625,-0.84375 1.15625,-1.125 c 1.703125,-1.5 2.34375,-2.09375 2.34375,-3.171875 0,-1.25 -0.96875,-2.125 -2.3125,-2.125 -1.21875,0 -2.03125,1 -2.03125,1.96875 0,0.625 0.546875,0.625 0.578125,0.625 0.1875,0 0.5625,-0.140625 0.5625,-0.578125 0,-0.296875 -0.1875,-0.578125 -0.578125,-0.578125 -0.078125,0 -0.109375,0 -0.140625,0.015625 0.25,-0.703125 0.84375,-1.109375 1.46875,-1.109375 1,0 1.46875,0.875 1.46875,1.78125 0,0.859375 -0.546875,1.734375 -1.140625,2.40625 l -2.09375,2.328125 c -0.125,0.125 -0.125,0.140625 -0.125,0.40625 H 4.59375 L 4.890625,-1.890625 H 4.625 C 4.5625,-1.578125 4.5,-1.09375 4.390625,-0.921875 4.3125,-0.84375 3.59375,-0.84375 3.34375,-0.84375 Z m 0,0"
           id="path201" />
      </g>
    </g>
    <g
       fill="#000000"
       fill-opacity="1"
       id="g7"
       transform="matrix(1.33333,0,0,1.33333,-290.497,-12.9947)">
      <g
         id="use6"
         transform="translate(237.73199,21.121)">
        <path
           d="m 11.078125,-5.53125 c 0.25,0 0.515625,0 0.515625,-0.28125 C 11.59375,-6.125 11.296875,-6.125 11,-6.125 H 1.375 c -0.296875,0 -0.578125,0 -0.578125,0.3125 0,0.28125 0.25,0.28125 0.515625,0.28125 z M 11,-2.46875 c 0.296875,0 0.59375,0 0.59375,-0.296875 0,-0.296875 -0.265625,-0.296875 -0.515625,-0.296875 H 1.3125 c -0.265625,0 -0.515625,0 -0.515625,0.296875 0,0.296875 0.28125,0.296875 0.578125,0.296875 z m 0,0"
           id="path10" />
      </g>
    </g>
    <g
       fill="#000000"
       fill-opacity="1"
       id="g205"
       transform="matrix(1.33333,0,0,1.33333,-290.497,-12.9947)">
      <g
         id="g204"
         transform="translate(254.90953,21.121)">
        <path
           d="m 7.234375,-5.53125 c 0,-1.046875 -0.015625,-2.84375 -0.75,-4.21875 -0.625,-1.203125 -1.640625,-1.625 -2.546875,-1.625 -0.828125,0 -1.875,0.375 -2.53125,1.609375 -0.6875,1.296875 -0.75,2.890625 -0.75,4.234375 0,0.984375 0.015625,2.484375 0.546875,3.796875 0.75,1.765625 2.0625,2.015625 2.734375,2.015625 0.796875,0 2,-0.328125 2.703125,-1.96875 0.515625,-1.1875 0.59375,-2.578125 0.59375,-3.84375 z M 3.9375,0 C 2.84375,0 2.1875,-0.953125 1.953125,-2.25 1.75,-3.265625 1.75,-4.75 1.75,-5.71875 c 0,-1.328125 0,-2.421875 0.234375,-3.46875 0.328125,-1.46875 1.28125,-1.921875 1.953125,-1.921875 0.71875,0 1.625,0.46875 1.953125,1.875 C 6.109375,-8.25 6.125,-7.09375 6.125,-5.71875 c 0,1.125 0,2.5 -0.203125,3.515625 C 5.5625,-0.328125 4.546875,0 3.9375,0 Z m 0,0"
           id="path11" />
      </g>
    </g>
  </g>
  <g
     inkscape:label=""
     transform="translate(542.23457,366.44667)"
     id="g215">
    <g
       fill="#000000"
       fill-opacity="1"
       id="g208"
       transform="matrix(1.33333,0,0,1.33333,-290.497,-12.9947)">
      <g
         id="g207"
         transform="translate(217.40401,21.121)">
        <path
           d="m 5.875,-1 c 0.21875,0.96875 1.046875,1.171875 1.453125,1.171875 0.5625,0 0.96875,-0.359375 1.25,-0.953125 0.296875,-0.609375 0.515625,-1.625 0.515625,-1.6875 0,-0.078125 -0.078125,-0.15625 -0.171875,-0.15625 -0.15625,0 -0.171875,0.09375 -0.25,0.359375 -0.296875,1.1875 -0.609375,2.09375 -1.296875,2.09375 -0.515625,0 -0.515625,-0.5625 -0.515625,-0.796875 0,-0.390625 0.046875,-0.5625 0.21875,-1.28125 0.125,-0.46875 0.234375,-0.9375 0.34375,-1.421875 L 8.125,-6.46875 C 8.25,-6.90625 8.25,-6.9375 8.25,-6.984375 c 0,-0.265625 -0.203125,-0.4375 -0.46875,-0.4375 -0.5,0 -0.625,0.4375 -0.71875,0.859375 -0.171875,0.671875 -1.109375,4.375 -1.21875,4.984375 -0.03125,0 -0.703125,1.40625 -1.953125,1.40625 -0.890625,0 -1.0625,-0.78125 -1.0625,-1.40625 0,-0.984375 0.484375,-2.359375 0.921875,-3.515625 0.203125,-0.546875 0.296875,-0.78125 0.296875,-1.125 0,-0.734375 -0.53125,-1.375 -1.359375,-1.375 -1.578125,0 -2.21875,2.5 -2.21875,2.640625 0,0.0625 0.0625,0.15625 0.1875,0.15625 0.15625,0 0.171875,-0.078125 0.234375,-0.3125 C 1.3125,-6.59375 1.984375,-7.25 2.640625,-7.25 c 0.171875,0 0.4375,0.015625 0.4375,0.5625 0,0.453125 -0.1875,0.953125 -0.4375,1.609375 -0.765625,2.046875 -0.84375,2.703125 -0.84375,3.21875 0,1.75 1.3125,2.03125 2.03125,2.03125 1.09375,0 1.703125,-0.75 2.046875,-1.171875 z m 0,0"
           id="path206" />
      </g>
    </g>
    <g
       fill="#000000"
       fill-opacity="1"
       id="g210"
       transform="matrix(1.33333,0,0,1.33333,-290.497,-12.9947)">
      <g
         id="g209"
         transform="translate(226.998,23.702999)">
        <path
           d="m 1.390625,-0.84375 1.15625,-1.125 c 1.703125,-1.5 2.34375,-2.09375 2.34375,-3.171875 0,-1.25 -0.96875,-2.125 -2.3125,-2.125 -1.21875,0 -2.03125,1 -2.03125,1.96875 0,0.625 0.546875,0.625 0.578125,0.625 0.1875,0 0.5625,-0.140625 0.5625,-0.578125 0,-0.296875 -0.1875,-0.578125 -0.578125,-0.578125 -0.078125,0 -0.109375,0 -0.140625,0.015625 0.25,-0.703125 0.84375,-1.109375 1.46875,-1.109375 1,0 1.46875,0.875 1.46875,1.78125 0,0.859375 -0.546875,1.734375 -1.140625,2.40625 l -2.09375,2.328125 c -0.125,0.125 -0.125,0.140625 -0.125,0.40625 H 4.59375 L 4.890625,-1.890625 H 4.625 C 4.5625,-1.578125 4.5,-1.09375 4.390625,-0.921875 4.3125,-0.84375 3.59375,-0.84375 3.34375,-0.84375 Z m 0,0"
           id="path208" />
      </g>
    </g>
    <g
       fill="#000000"
       fill-opacity="1"
       id="g212"
       transform="matrix(1.33333,0,0,1.33333,-290.497,-12.9947)">
      <g
         id="g211"
         transform="translate(237.73199,21.121)">
        <path
           d="m 11.078125,-5.53125 c 0.25,0 0.515625,0 0.515625,-0.28125 C 11.59375,-6.125 11.296875,-6.125 11,-6.125 H 1.375 c -0.296875,0 -0.578125,0 -0.578125,0.3125 0,0.28125 0.25,0.28125 0.515625,0.28125 z M 11,-2.46875 c 0.296875,0 0.59375,0 0.59375,-0.296875 0,-0.296875 -0.265625,-0.296875 -0.515625,-0.296875 H 1.3125 c -0.265625,0 -0.515625,0 -0.515625,0.296875 0,0.296875 0.28125,0.296875 0.578125,0.296875 z m 0,0"
           id="path210" />
      </g>
    </g>
    <g
       fill="#000000"
       fill-opacity="1"
       id="g214"
       transform="matrix(1.33333,0,0,1.33333,-290.497,-12.9947)">
      <g
         id="g213"
         transform="translate(254.90953,21.121)">
        <path
           d="m 7.234375,-5.53125 c 0,-1.046875 -0.015625,-2.84375 -0.75,-4.21875 -0.625,-1.203125 -1.640625,-1.625 -2.546875,-1.625 -0.828125,0 -1.875,0.375 -2.53125,1.609375 -0.6875,1.296875 -0.75,2.890625 -0.75,4.234375 0,0.984375 0.015625,2.484375 0.546875,3.796875 0.75,1.765625 2.0625,2.015625 2.734375,2.015625 0.796875,0 2,-0.328125 2.703125,-1.96875 0.515625,-1.1875 0.59375,-2.578125 0.59375,-3.84375 z M 3.9375,0 C 2.84375,0 2.1875,-0.953125 1.953125,-2.25 1.75,-3.265625 1.75,-4.75 1.75,-5.71875 c 0,-1.328125 0,-2.421875 0.234375,-3.46875 0.328125,-1.46875 1.28125,-1.921875 1.953125,-1.921875 0.71875,0 1.625,0.46875 1.953125,1.875 C 6.109375,-8.25 6.125,-7.09375 6.125,-5.71875 c 0,1.125 0,2.5 -0.203125,3.515625 C 5.5625,-0.328125 4.546875,0 3.9375,0 Z m 0,0"
           id="path212" />
      </g>
    </g>
  </g>
</svg>
