<?xml version="1.0" encoding="UTF-8" standalone="no"?>
<!-- Created with Inkscape (http://www.inkscape.org/) -->

<svg
   version="1.1"
   id="svg1"
   width="938.15973"
   height="484.5065"
   viewBox="0 0 938.15973 484.50653"
   sodipodi:docname="rotating-airfoil.svg"
   inkscape:version="1.3.2 (091e20e, 2023-11-25, custom)"
   xmlns:inkscape="http://www.inkscape.org/namespaces/inkscape"
   xmlns:sodipodi="http://sodipodi.sourceforge.net/DTD/sodipodi-0.dtd"
   xmlns:xlink="http://www.w3.org/1999/xlink"
   xmlns="http://www.w3.org/2000/svg"
   xmlns:svg="http://www.w3.org/2000/svg">
  <sodipodi:namedview
     id="namedview1"
     pagecolor="#ffffff"
     bordercolor="#000000"
     borderopacity="0.25"
     inkscape:showpageshadow="2"
     inkscape:pageopacity="0.0"
     inkscape:pagecheckerboard="0"
     inkscape:deskcolor="#d1d1d1"
     inkscape:zoom="1"
     inkscape:cx="421"
     inkscape:cy="254.5"
     inkscape:window-width="1920"
     inkscape:window-height="1017"
     inkscape:window-x="1912"
     inkscape:window-y="-8"
     inkscape:window-maximized="1"
     inkscape:current-layer="layer-oc1">
    <inkscape:page
       x="0"
       y="0"
       inkscape:label="[1] Layout1"
       id="page1"
       width="938.15973"
       height="484.50653"
       margin="0"
       bleed="0" />
  </sodipodi:namedview>
  <defs
     id="defs1">
    <linearGradient
       id="linearGradient54"
       inkscape:collect="always">
      <stop
         style="stop-color:#000000;stop-opacity:0;"
         offset="0"
         id="stop55" />
      <stop
         style="stop-color:#000000;stop-opacity:0.2;"
         offset="1"
         id="stop54" />
    </linearGradient>
    <marker
       style="overflow:visible"
       id="marker52"
       refX="0"
       refY="0"
       orient="auto-start-reverse"
       inkscape:stockid="Triangle arrow"
       markerWidth="1"
       markerHeight="0.5"
       viewBox="0 0 1 1"
       inkscape:isstock="true"
       inkscape:collect="always"
       preserveAspectRatio="none">
      <path
         transform="scale(0.5)"
         style="fill:context-stroke;fill-rule:evenodd;stroke:context-stroke;stroke-width:1pt"
         d="M 5.77,0 -2.88,5 V -5 Z"
         id="path52" />
    </marker>
    <marker
       style="overflow:visible"
       id="Triangle"
       refX="2"
       refY="0"
       orient="auto-start-reverse"
       inkscape:stockid="Triangle arrow"
       markerWidth="2"
       markerHeight="1"
       viewBox="0 0 1 1"
       inkscape:isstock="true"
       inkscape:collect="always"
       preserveAspectRatio="none">
      <path
         transform="scale(0.5)"
         style="fill:context-stroke;fill-rule:evenodd;stroke:context-stroke;stroke-width:1pt"
         d="M 5.77,0 -2.88,5 V -5 Z"
         id="path135" />
    </marker>
    <clipPath
       clipPathUnits="userSpaceOnUse"
       id="clipPath7">
      <path
         d="M 982,719 H 19123 V 13556 H 982 V 719"
         transform="translate(0,-2.0833333e-4)"
         id="path7" />
    </clipPath>
    <clipPath
       clipPathUnits="userSpaceOnUse"
       id="clipPath9">
      <path
         d="M 982,719 H 19123 V 13556 H 982 V 719"
         transform="translate(0,-2.0833333e-4)"
         id="path9" />
    </clipPath>
    <clipPath
       clipPathUnits="userSpaceOnUse"
       id="clipPath14">
      <path
         d="M 982,719 H 19123 V 13556 H 982 V 719"
         transform="translate(0,-2.0833333e-4)"
         id="path14" />
    </clipPath>
    <clipPath
       clipPathUnits="userSpaceOnUse"
       id="clipPath16">
      <path
         d="M 982,719 H 19123 V 13556 H 982 V 719"
         transform="translate(0,-2.0833333e-4)"
         id="path16" />
    </clipPath>
    <clipPath
       clipPathUnits="userSpaceOnUse"
       id="clipPath21">
      <path
         d="M 982,719 H 19123 V 13556 H 982 V 719"
         transform="translate(0,-2.0833333e-4)"
         id="path21" />
    </clipPath>
    <clipPath
       clipPathUnits="userSpaceOnUse"
       id="clipPath23">
      <path
         d="M 982,719 H 19123 V 13556 H 982 V 719"
         transform="translate(0,-2.0833333e-4)"
         id="path23" />
    </clipPath>
    <clipPath
       clipPathUnits="userSpaceOnUse"
       id="clipPath28">
      <path
         d="M 982,719 H 19123 V 13556 H 982 V 719"
         transform="translate(0,-2.0833333e-4)"
         id="path28" />
    </clipPath>
    <clipPath
       clipPathUnits="userSpaceOnUse"
       id="clipPath30">
      <path
         d="M 982,719 H 19123 V 13556 H 982 V 719"
         transform="translate(0,-2.0833333e-4)"
         id="path30" />
    </clipPath>
    <clipPath
       clipPathUnits="userSpaceOnUse"
       id="clipPath33">
      <path
         d="M 982,719 H 19123 V 13556 H 982 V 719"
         transform="translate(0,-2.0833333e-4)"
         id="path33" />
    </clipPath>
    <clipPath
       clipPathUnits="userSpaceOnUse"
       id="clipPath35">
      <path
         d="M 982,719 H 19123 V 13556 H 982 V 719"
         transform="translate(0,-2.0833333e-4)"
         id="path35" />
    </clipPath>
    <clipPath
       clipPathUnits="userSpaceOnUse"
       id="clipPath42">
      <path
         d="M 982,719 H 19123 V 13556 H 982 V 719"
         transform="translate(0,-2.0833333e-4)"
         id="path42" />
    </clipPath>
    <clipPath
       clipPathUnits="userSpaceOnUse"
       id="clipPath44">
      <path
         d="M 982,719 H 19123 V 13556 H 982 V 719"
         transform="translate(0,-2.0833333e-4)"
         id="path44" />
    </clipPath>
    <clipPath
       clipPathUnits="userSpaceOnUse"
       id="clipPath47">
      <path
         d="M 982,719 H 19123 V 13556 H 982 V 719"
         transform="translate(0,-2.0833333e-4)"
         id="path47" />
    </clipPath>
    <clipPath
       clipPathUnits="userSpaceOnUse"
       id="clipPath49">
      <path
         d="M 0,0 H 19866 V 14031 H 0 V 0"
         transform="translate(0,-2.0833333e-4)"
         id="path49" />
    </clipPath>
    <clipPath
       clipPathUnits="userSpaceOnUse"
       id="clipPath51">
      <path
         d="M 0,0 H 19866 V 14031 H 0 V 0"
         transform="translate(0,-2.0833333e-4)"
         id="path51" />
    </clipPath>
    <radialGradient
       inkscape:collect="always"
       xlink:href="#linearGradient54"
       id="radialGradient55"
       cx="1477.869"
       cy="548.6012"
       fx="1477.869"
       fy="548.6012"
       r="335.40609"
       gradientTransform="matrix(-2.0000002,-6.6998389e-8,1.5193942e-8,-1.2015809,4433.6074,1342.2708)"
       gradientUnits="userSpaceOnUse" />
    <clipPath
       clipPathUnits="userSpaceOnUse"
       id="clipPath21-7">
      <path
         d="M 982,719 H 19123 V 13556 H 982 V 719"
         transform="translate(0,-2.0833333e-4)"
         id="path21-5" />
    </clipPath>
    <clipPath
       clipPathUnits="userSpaceOnUse"
       id="clipPath23-5">
      <path
         d="M 982,719 H 19123 V 13556 H 982 V 719"
         transform="translate(0,-2.0833333e-4)"
         id="path23-1" />
    </clipPath>
  </defs>
  <g
     id="layer-oc1"
     inkscape:groupmode="layer"
     inkscape:label="0"
     transform="translate(-629.74, -680.514)">
    <path
       style="fill:url(#radialGradient55);fill-opacity:1;stroke:none;stroke-width:1;stroke-dasharray:2;stroke-dashoffset:0"
       d="M 806.55681,1086.0992 H 1477.369 V 683.58196 H 806.55681 Z"
       id="path53" />
    <path
       id="path1"
       d="m 1072.2302,896.00081 h -0.075 l -0.2247,-0.0749 -0.3745,-0.14976 -0.5243,-0.14977 -0.6741,-0.22471 -0.749,-0.22469 -0.9737,-0.29961 -1.0487,-0.37451 -1.2733,-0.3745 -1.3482,-0.4494 -1.498,-0.44941 -1.6478,-0.5243 -1.7227,-0.52431 -1.8726,-0.52431 -1.9474,-0.67411 -2.0972,-0.59921 -2.247,-0.6741 -2.322,-0.67412 -2.3968,-0.6741 -2.4717,-0.749 -2.5466,-0.74902 -2.6965,-0.749 -2.6964,-0.82391 -2.8462,-0.74901 -2.8463,-0.82391 -2.9211,-0.74902 -2.996,-0.8239 -2.9961,-0.82391 -2.996,-0.749 -3.0709,-0.82392 -3.1459,-0.749 -3.0709,-0.74902 -3.1459,-0.82391 -3.0709,-0.6741 -3.0709,-0.74901 -3.14587,-0.67411 -3.07093,-0.67411 -2.99603,-0.5992 -2.99604,-0.5992 -2.99604,-0.59922 -2.92113,-0.52431 -2.84623,-0.5243 -2.77134,-0.3745 -2.69642,-0.4494 -2.69644,-0.37451 -2.54663,-0.29961 -2.47173,-0.2247 -2.39682,-0.22471 -2.32193,-0.22469 -2.17212,-0.0749 -2.02232,-0.0749 -2.02233,-0.0749 -1.79762,0.0749 -1.72272,0.0749 -1.64783,0.0749 -1.4231,0.22469 -1.34822,0.14977 -1.19841,0.29959 -1.04861,0.29961 -0.89881,0.29961 -0.82392,0.37449 -0.5992,0.44941 -0.44941,0.44941 -0.29961,0.5243 -0.2247,0.52431 v 0.5992 l 0.14977,0.59921 0.22471,0.59922 0.44941,0.5992 0.5992,0.5992 0.749,0.59921 0.89882,0.67412 1.04861,0.6741 1.19842,0.5992 1.27331,0.6741 1.49802,0.67412 1.57291,0.67411 1.72273,0.6741 1.87251,0.59922 1.94743,0.6741 2.09722,0.5992 2.24703,0.67412 2.32192,0.59921 2.39683,0.5992 2.54663,0.5992 2.54663,0.52431 2.69644,0.5243 2.84622,0.59921 2.84624,0.5243 2.84624,0.44941 2.99602,0.52431 3.07095,0.4494 3.07093,0.44941 3.07094,0.37451 3.14583,0.44941 3.14579,0.37449 3.2208,0.37451 3.1458,0.3745 3.1459,0.29961 3.2207,0.3745 3.1458,0.29961 3.1459,0.29959 3.0709,0.22471 3.0709,0.29961 2.9961,0.2247 2.996,0.22469 2.8462,0.22471 2.8463,0.2247 2.7713,0.22471 2.6964,0.14977 2.6216,0.14976 2.4717,0.14977 2.3968,0.14977 2.322,0.14976 2.1721,0.14977 2.0223,0.0749 2.0223,0.14977 1.7976,0.0749 1.7228,0.0749 1.5729,0.0749 1.3482,0.0749 h 1.3482 l 1.1235,0.0749 h 0.9737 l 0.8239,0.0749 h 0.7491 0.5243 l 0.3745,0.0749 h 0.2247 0.075 l 1.3483,0.0749 -1.2734,-0.44941"
       style="fill:#ffffff;stroke:#000000;stroke-width:1;stroke-linecap:round;stroke-linejoin:round;stroke-miterlimit:10;stroke-dasharray:none;stroke-opacity:1;fill-opacity:1" />
    <path
       id="path2"
       d="M 806.55681,683.58196 H 1477.369 V 1086.0992 H 806.55681"
       style="fill:none;stroke:#000000;stroke-width:1;stroke-linecap:round;stroke-linejoin:round;stroke-miterlimit:10;stroke-dasharray:none;stroke-opacity:1" />
    <path
       id="path3"
       d="m 942.05248,873.23095 131.45102,23.21926"
       style="fill:none;stroke:#000000;stroke-width:1;stroke-linecap:round;stroke-linejoin:round;stroke-miterlimit:10;stroke-dasharray:none;stroke-opacity:1" />
    <path
       id="path4"
       d="m 1076.7991,897.04942 34.8289,6.14188"
       style="fill:none;stroke:#000000;stroke-width:1;stroke-linecap:round;stroke-linejoin:round;stroke-miterlimit:10;stroke-dasharray:none;stroke-opacity:1" />
    <path
       id="path5"
       d="m 1108.9539,899.24572 c 0.5248,-3.67452 0.8491,-7.37496 0.9711,-11.08477"
       style="fill:none;stroke:#000000;stroke-width:1;stroke-linecap:round;stroke-linejoin:round;stroke-miterlimit:10;stroke-dasharray:none;stroke-opacity:1;marker-start:url(#marker52);marker-end:url(#marker52)" />
    <path
       id="path6"
       d="m 10343,6837 -14,2 v -45 z"
       style="fill:#000000;fill-opacity:1;fill-rule:nonzero;stroke:#000000;stroke-width:13.351;stroke-linecap:round;stroke-linejoin:miter;stroke-miterlimit:10;stroke-dasharray:none;stroke-opacity:1"
       transform="matrix(0.07490087,0,0,-0.07490087,334.68136,1411.4686)"
       clip-path="url(#clipPath7)" />
    <path
       id="path10"
       d="m 1494.1467,683.58196 h 73.2532"
       style="fill:none;stroke:#000000;stroke-width:1;stroke-linecap:round;stroke-linejoin:round;stroke-miterlimit:10;stroke-dasharray:none;stroke-opacity:1" />
    <path
       id="path11"
       d="m 1494.1467,1086.0992 h 73.2532"
       style="fill:none;stroke:#000000;stroke-width:1;stroke-linecap:round;stroke-linejoin:round;stroke-miterlimit:10;stroke-dasharray:none;stroke-opacity:1" />
    <path
       id="path12"
       d="M 1550.622,700.35975 V 1069.3214"
       style="fill:none;stroke:#000000;stroke-width:1;stroke-linecap:round;stroke-linejoin:round;stroke-miterlimit:10;stroke-dasharray:none;stroke-opacity:1" />
    <path
       id="path13"
       d="m 16197,9494 h 74 l -37,224 z"
       style="fill:#000000;fill-opacity:1;fill-rule:nonzero;stroke:#000000;stroke-width:13.351;stroke-linecap:round;stroke-linejoin:miter;stroke-miterlimit:10;stroke-dasharray:none;stroke-opacity:1"
       transform="matrix(0.07490087,0,0,-0.07490087,334.68136,1411.4686)"
       clip-path="url(#clipPath14)" />
    <path
       id="path15"
       d="m 16197,4568 h 74 l -37,-224 z"
       style="fill:#000000;fill-opacity:1;fill-rule:nonzero;stroke:#000000;stroke-width:13.351;stroke-linecap:round;stroke-linejoin:miter;stroke-miterlimit:10;stroke-dasharray:none;stroke-opacity:1"
       transform="matrix(0.07490087,0,0,-0.07490087,334.68136,1411.4686)"
       clip-path="url(#clipPath16)" />
    <path
       id="path17"
       d="m 1477.369,1102.877 v 61.6434"
       style="fill:none;stroke:#000000;stroke-width:1;stroke-linecap:round;stroke-linejoin:round;stroke-miterlimit:10;stroke-dasharray:none;stroke-opacity:1" />
    <path
       id="path18"
       d="m 806.55681,1102.877 v 61.6434"
       style="fill:none;stroke:#000000;stroke-width:1;stroke-linecap:round;stroke-linejoin:round;stroke-miterlimit:10;stroke-dasharray:none;stroke-opacity:1" />
    <path
       id="path19"
       d="M 1460.5912,1147.7426 H 823.3346"
       style="fill:none;stroke:#000000;stroke-width:1;stroke-linecap:round;stroke-linejoin:round;stroke-miterlimit:10;stroke-dasharray:none;stroke-opacity:1" />
    <path
       id="path20"
       d="m 15032,3559 v -75 l 224,37 z"
       style="fill:#000000;fill-opacity:1;fill-rule:nonzero;stroke:#000000;stroke-width:13.351;stroke-linecap:round;stroke-linejoin:miter;stroke-miterlimit:10;stroke-dasharray:none;stroke-opacity:1"
       transform="matrix(0.07490087,0,0,-0.07490087,334.68136,1411.4686)"
       clip-path="url(#clipPath21)" />
    <path
       id="path22"
       d="m 6524,3559 v -75 l -224,37 z"
       style="fill:#000000;fill-opacity:1;fill-rule:nonzero;stroke:#000000;stroke-width:13.351;stroke-linecap:round;stroke-linejoin:miter;stroke-miterlimit:10;stroke-dasharray:none;stroke-opacity:1"
       transform="matrix(0.07490087,0,0,-0.07490087,334.68136,1411.4686)"
       clip-path="url(#clipPath23)" />
    <path
       id="path17-8"
       d="m 1007.3154,956.24802 v 61.64338"
       style="fill:none;stroke:#000000;stroke-width:1;stroke-linecap:round;stroke-linejoin:round;stroke-miterlimit:10;stroke-dasharray:none;stroke-opacity:1" />
    <path
       id="path18-6"
       d="m 806.55681,956.24802 v 61.64338"
       style="fill:none;stroke:#000000;stroke-width:1;stroke-linecap:round;stroke-linejoin:round;stroke-miterlimit:10;stroke-dasharray:none;stroke-opacity:1" />
    <path
       id="path19-5"
       d="M 1007.6705,1001.1136 H 822.97951"
       style="fill:none;stroke:#000000;stroke-width:1;stroke-linecap:round;stroke-linejoin:round;stroke-miterlimit:10;stroke-dasharray:none;stroke-opacity:1" />
    <path
       id="path20-1"
       d="m 15032,3559 v -75 l 224,37 z"
       style="fill:#000000;fill-opacity:1;fill-rule:nonzero;stroke:#000000;stroke-width:13.351;stroke-linecap:round;stroke-linejoin:miter;stroke-miterlimit:10;stroke-dasharray:none;stroke-opacity:1"
       transform="matrix(0.07490087,0,0,-0.07490087,-135.98638,1264.8396)"
       clip-path="url(#clipPath21-7)" />
    <path
       id="path22-7"
       d="m 6524,3559 v -75 l -224,37 z"
       style="fill:#000000;fill-opacity:1;fill-rule:nonzero;stroke:#000000;stroke-width:13.351;stroke-linecap:round;stroke-linejoin:miter;stroke-miterlimit:10;stroke-dasharray:none;stroke-opacity:1"
       transform="matrix(0.07490087,0,0,-0.07490087,334.68136,1264.8396)"
       clip-path="url(#clipPath23-5)" />
    <path
       id="path24"
       d="m 941.45327,876.52659 -7.86459,44.64091"
       style="fill:none;stroke:#000000;stroke-width:1;stroke-linecap:round;stroke-linejoin:round;stroke-miterlimit:10;stroke-dasharray:none;stroke-opacity:1" />
    <path
       id="path25"
       d="m 1072.9043,899.74586 -7.8646,44.56601"
       style="fill:none;stroke:#000000;stroke-width:1;stroke-linecap:round;stroke-linejoin:round;stroke-miterlimit:10;stroke-dasharray:none;stroke-opacity:1" />
    <path
       id="path26"
       d="m 937.48353,918.39617 124.85977,22.09576"
       style="fill:none;stroke:#000000;stroke-width:1;stroke-linecap:round;stroke-linejoin:round;stroke-miterlimit:10;stroke-dasharray:none;stroke-opacity:1;marker-start:url(#Triangle);marker-end:url(#Triangle)" />
    <path
       id="path31"
       d="m 1276.1104,884.84058 h -268.295 v -67.11117"
       style="fill:none;stroke:#000000;stroke-width:1;stroke-linecap:round;stroke-linejoin:round;stroke-miterlimit:10;stroke-dasharray:none;stroke-opacity:1" />
    <path
       id="path32"
       d="m 12345,7068 v -74 l 224,37 z"
       style="fill:#000000;fill-opacity:1;fill-rule:nonzero;stroke:#000000;stroke-width:13.351;stroke-linecap:round;stroke-linejoin:miter;stroke-miterlimit:10;stroke-dasharray:none;stroke-opacity:1"
       transform="matrix(0.07490087,0,0,-0.07490087,334.68136,1411.4686)"
       clip-path="url(#clipPath33)" />
    <path
       id="path34"
       d="m 8949,7703 h 75 l -37,224 z"
       style="fill:#000000;fill-opacity:1;fill-rule:nonzero;stroke:#000000;stroke-width:13.351;stroke-linecap:round;stroke-linejoin:miter;stroke-miterlimit:10;stroke-dasharray:none;stroke-opacity:1"
       transform="matrix(0.07490087,0,0,-0.07490087,334.68136,1411.4686)"
       clip-path="url(#clipPath35)" />
    <path
       id="path36"
       d="M 806.55681,683.58196 V 1086.0992"
       style="fill:none;stroke:#000000;stroke-width:1;stroke-linecap:round;stroke-linejoin:round;stroke-miterlimit:10;stroke-dasharray:none;stroke-opacity:1" />
    <path
       id="path37"
       d="m 1064.5154,917.42246 -0.075,-0.0749 -0.1498,-0.14977 -0.2996,-0.22469 -0.4494,-0.29961 -0.5243,-0.44941 -0.6741,-0.5243 -0.8239,-0.59921 -0.8988,-0.749 -0.9737,-0.74902 -1.1984,-0.89881 -1.1984,-0.8988 -1.3483,-1.04861 -1.498,-1.12352 -1.498,-1.19841 -1.6478,-1.19841 -1.7976,-1.34822 -1.8726,-1.34822 -1.8725,-1.42312 -2.0223,-1.49802 -2.0972,-1.57291 -2.1722,-1.57292 -2.247,-1.64782 -2.3219,-1.64781 -2.3968,-1.64783 -2.3969,-1.72271 -2.4717,-1.79763 -2.4717,-1.72271 -2.5466,-1.79763 -2.6216,-1.79761 -2.6215,-1.79763 -2.6215,-1.79761 -2.6216,-1.72273 -2.6964,-1.79761 -2.6964,-1.72273 -2.6216,-1.79762 -2.6964,-1.64783 -2.62153,-1.72271 -2.69642,-1.64781 -2.54663,-1.57292 -2.62153,-1.49802 -2.54663,-1.49802 -2.54663,-1.42312 -2.47173,-1.42311 -2.39683,-1.27331 -2.39683,-1.27332 -2.24702,-1.12351 -2.24703,-1.12351 -2.17212,-1.04863 -2.09722,-0.8988 -2.02233,-0.89881 -1.94742,-0.74902 -1.79761,-0.749 -1.79763,-0.5992 -1.64782,-0.52431 -1.49801,-0.37451 -1.42312,-0.3745 -1.34822,-0.2247 -1.19841,-0.22471 -1.12351,-0.0749 h -0.97371 l -0.82392,0.14976 -0.749,0.14977 -0.59922,0.29959 -0.44941,0.37451 -0.37449,0.37451 -0.22471,0.5992 -0.0749,0.52431 0.0749,0.6741 0.22471,0.74902 0.29959,0.749 0.52431,0.89881 0.59922,0.89882 0.749,0.97371 0.89881,0.97371 0.97372,1.12351 1.1984,1.04861 1.27333,1.19842 1.3482,1.19841 1.57292,1.27331 1.64783,1.27332 1.72271,1.27331 1.87253,1.34822 1.94742,1.34822 2.09722,1.42312 2.17212,1.4231 2.24704,1.42312 2.32192,1.42312 2.47173,1.49802 2.47173,1.42312 2.54663,1.49801 2.62152,1.42312 2.69644,1.49802 2.77133,1.49802 2.77134,1.4231 2.77132,1.42312 2.84624,1.49802 2.84621,1.42312 2.8463,1.42312 2.9211,1.42312 2.8462,1.3482 2.8462,1.34822 2.8463,1.42312 2.8462,1.27331 2.7714,1.27332 2.7713,1.27332 2.6964,1.27331 2.6215,1.19841 2.6216,1.12352 2.5466,1.12351 2.3968,1.12351 2.3969,1.04861 2.3219,0.97371 2.1721,0.97372 2.0972,0.89881 2.0224,0.89881 1.9474,0.74901 1.7976,0.82391 1.6478,0.6741 1.5729,0.67411 1.4981,0.59922 1.2733,0.5243 1.1984,0.52431 1.0486,0.4494 0.8988,0.3745 0.8239,0.29961 0.5992,0.22469 0.5243,0.22471 0.3745,0.14977 0.2247,0.0749 0.075,0.0749 1.1984,0.52431 -1.0486,-0.8239"
       style="fill:none;stroke:#000000;stroke-width:1;stroke-linecap:round;stroke-linejoin:round;stroke-miterlimit:10;stroke-dasharray:2;stroke-opacity:1;stroke-dashoffset:0" />
    <path
       id="path38"
       d="M 949.99197,851.4348 1065.564,918.24636"
       style="fill:none;stroke:#000000;stroke-width:1;stroke-linecap:round;stroke-linejoin:round;stroke-miterlimit:10;stroke-dasharray:2;stroke-opacity:1;stroke-dashoffset:0" />
    <path
       id="path39"
       d="m 1068.4851,919.89419 30.6345,17.67661"
       style="fill:none;stroke:#000000;stroke-width:1;stroke-linecap:round;stroke-linejoin:round;stroke-miterlimit:10;stroke-dasharray:2;stroke-opacity:1;stroke-dashoffset:0" />
    <path
       id="path40"
       d="m 1097.9165,932.95426 c 4.5564,-8.52235 7.8801,-17.6483 9.8715,-27.10479"
       style="fill:none;stroke:#000000;stroke-width:1;stroke-linecap:round;stroke-linejoin:round;stroke-miterlimit:10;stroke-dasharray:2;stroke-opacity:1;stroke-dashoffset:0;marker-start:url(#marker52);marker-end:url(#marker52)" />
    <path
       id="path45"
       d="M 739.44564,884.84058 H 630.24017"
       style="fill:none;stroke:#000000;stroke-width:1;stroke-linecap:round;stroke-linejoin:round;stroke-miterlimit:10;stroke-dasharray:none;stroke-opacity:1" />
    <path
       id="path46"
       d="m 5180,7068 v -74 l 224,37 z"
       style="fill:#000000;fill-opacity:1;fill-rule:nonzero;stroke:#000000;stroke-width:13.351;stroke-linecap:round;stroke-linejoin:miter;stroke-miterlimit:10;stroke-dasharray:none;stroke-opacity:1"
       transform="matrix(0.07490087,0,0,-0.07490087,334.68136,1411.4686)"
       clip-path="url(#clipPath47)" />
    <text
       xml:space="preserve"
       style="font-size:21.3333px;font-family:Arial;-inkscape-font-specification:'Arial, Normal';fill:#000000;fill-opacity:1;stroke:none;stroke-width:1;stroke-dasharray:2;stroke-dashoffset:0"
       x="839.95093"
       y="840.38538"
       id="text52"><tspan
         sodipodi:role="line"
         id="tspan52"
         x="839.95093"
         y="840.38538">NACA0012</tspan></text>
    <g
       inkscape:label=""
       transform="translate(1105.9507,1052.8057)"
       id="g59">
      <g
         fill="#000000"
         fill-opacity="1"
         id="g5"
         transform="matrix(1.33333,0,0,1.33333,-290.497,-12.9947)">
        <g
           id="use4"
           transform="translate(217.40401,21.121)">
          <path
             d="m 5.875,-1 c 0.21875,0.96875 1.046875,1.171875 1.453125,1.171875 0.5625,0 0.96875,-0.359375 1.25,-0.953125 0.296875,-0.609375 0.515625,-1.625 0.515625,-1.6875 0,-0.078125 -0.078125,-0.15625 -0.171875,-0.15625 -0.15625,0 -0.171875,0.09375 -0.25,0.359375 -0.296875,1.1875 -0.609375,2.09375 -1.296875,2.09375 -0.515625,0 -0.515625,-0.5625 -0.515625,-0.796875 0,-0.390625 0.046875,-0.5625 0.21875,-1.28125 0.125,-0.46875 0.234375,-0.9375 0.34375,-1.421875 L 8.125,-6.46875 C 8.25,-6.90625 8.25,-6.9375 8.25,-6.984375 c 0,-0.265625 -0.203125,-0.4375 -0.46875,-0.4375 -0.5,0 -0.625,0.4375 -0.71875,0.859375 -0.171875,0.671875 -1.109375,4.375 -1.21875,4.984375 -0.03125,0 -0.703125,1.40625 -1.953125,1.40625 -0.890625,0 -1.0625,-0.78125 -1.0625,-1.40625 0,-0.984375 0.484375,-2.359375 0.921875,-3.515625 0.203125,-0.546875 0.296875,-0.78125 0.296875,-1.125 0,-0.734375 -0.53125,-1.375 -1.359375,-1.375 -1.578125,0 -2.21875,2.5 -2.21875,2.640625 0,0.0625 0.0625,0.15625 0.1875,0.15625 0.15625,0 0.171875,-0.078125 0.234375,-0.3125 C 1.3125,-6.59375 1.984375,-7.25 2.640625,-7.25 c 0.171875,0 0.4375,0.015625 0.4375,0.5625 0,0.453125 -0.1875,0.953125 -0.4375,1.609375 -0.765625,2.046875 -0.84375,2.703125 -0.84375,3.21875 0,1.75 1.3125,2.03125 2.03125,2.03125 1.09375,0 1.703125,-0.75 2.046875,-1.171875 z m 0,0"
             id="path8" />
        </g>
      </g>
      <g
         fill="#000000"
         fill-opacity="1"
         id="g6"
         transform="matrix(1.33333,0,0,1.33333,-290.497,-12.9947)">
        <g
           id="use5"
           transform="translate(226.998,23.702999)">
          <path
             d="m 1.390625,-0.84375 1.15625,-1.125 c 1.703125,-1.5 2.34375,-2.09375 2.34375,-3.171875 0,-1.25 -0.96875,-2.125 -2.3125,-2.125 -1.21875,0 -2.03125,1 -2.03125,1.96875 0,0.625 0.546875,0.625 0.578125,0.625 0.1875,0 0.5625,-0.140625 0.5625,-0.578125 0,-0.296875 -0.1875,-0.578125 -0.578125,-0.578125 -0.078125,0 -0.109375,0 -0.140625,0.015625 0.25,-0.703125 0.84375,-1.109375 1.46875,-1.109375 1,0 1.46875,0.875 1.46875,1.78125 0,0.859375 -0.546875,1.734375 -1.140625,2.40625 l -2.09375,2.328125 c -0.125,0.125 -0.125,0.140625 -0.125,0.40625 H 4.59375 L 4.890625,-1.890625 H 4.625 C 4.5625,-1.578125 4.5,-1.09375 4.390625,-0.921875 4.3125,-0.84375 3.59375,-0.84375 3.34375,-0.84375 Z m 0,0"
             id="path57" />
        </g>
      </g>
      <g
         fill="#000000"
         fill-opacity="1"
         id="g7"
         transform="matrix(1.33333,0,0,1.33333,-290.497,-12.9947)">
        <g
           id="use6"
           transform="translate(237.73199,21.121)">
          <path
             d="m 11.078125,-5.53125 c 0.25,0 0.515625,0 0.515625,-0.28125 C 11.59375,-6.125 11.296875,-6.125 11,-6.125 H 1.375 c -0.296875,0 -0.578125,0 -0.578125,0.3125 0,0.28125 0.25,0.28125 0.515625,0.28125 z M 11,-2.46875 c 0.296875,0 0.59375,0 0.59375,-0.296875 0,-0.296875 -0.265625,-0.296875 -0.515625,-0.296875 H 1.3125 c -0.265625,0 -0.515625,0 -0.515625,0.296875 0,0.296875 0.28125,0.296875 0.578125,0.296875 z m 0,0"
             id="path58" />
        </g>
      </g>
      <g
         fill="#000000"
         fill-opacity="1"
         id="g8"
         transform="matrix(1.33333,0,0,1.33333,-290.497,-12.9947)">
        <g
           id="use7"
           transform="translate(254.90953,21.121)">
          <path
             d="m 7.234375,-5.53125 c 0,-1.046875 -0.015625,-2.84375 -0.75,-4.21875 -0.625,-1.203125 -1.640625,-1.625 -2.546875,-1.625 -0.828125,0 -1.875,0.375 -2.53125,1.609375 -0.6875,1.296875 -0.75,2.890625 -0.75,4.234375 0,0.984375 0.015625,2.484375 0.546875,3.796875 0.75,1.765625 2.0625,2.015625 2.734375,2.015625 0.796875,0 2,-0.328125 2.703125,-1.96875 0.515625,-1.1875 0.59375,-2.578125 0.59375,-3.84375 z M 3.9375,0 C 2.84375,0 2.1875,-0.953125 1.953125,-2.25 1.75,-3.265625 1.75,-4.75 1.75,-5.71875 c 0,-1.328125 0,-2.421875 0.234375,-3.46875 0.328125,-1.46875 1.28125,-1.921875 1.953125,-1.921875 0.71875,0 1.625,0.46875 1.953125,1.875 C 6.109375,-8.25 6.125,-7.09375 6.125,-5.71875 c 0,1.125 0,2.5 -0.203125,3.515625 C 5.5625,-0.328125 4.546875,0 3.9375,0 Z m 0,0"
             id="path59" />
        </g>
      </g>
    </g>
    <g
       inkscape:label=""
       transform="translate(1100.5784,687.44468)"
       id="g68">
      <g
         fill="#000000"
         fill-opacity="1"
         id="g61"
         transform="matrix(1.33333,0,0,1.33333,-290.497,-12.9947)">
        <g
           id="g60"
           transform="translate(217.40401,21.121)">
          <path
             d="m 5.875,-1 c 0.21875,0.96875 1.046875,1.171875 1.453125,1.171875 0.5625,0 0.96875,-0.359375 1.25,-0.953125 0.296875,-0.609375 0.515625,-1.625 0.515625,-1.6875 0,-0.078125 -0.078125,-0.15625 -0.171875,-0.15625 -0.15625,0 -0.171875,0.09375 -0.25,0.359375 -0.296875,1.1875 -0.609375,2.09375 -1.296875,2.09375 -0.515625,0 -0.515625,-0.5625 -0.515625,-0.796875 0,-0.390625 0.046875,-0.5625 0.21875,-1.28125 0.125,-0.46875 0.234375,-0.9375 0.34375,-1.421875 L 8.125,-6.46875 C 8.25,-6.90625 8.25,-6.9375 8.25,-6.984375 c 0,-0.265625 -0.203125,-0.4375 -0.46875,-0.4375 -0.5,0 -0.625,0.4375 -0.71875,0.859375 -0.171875,0.671875 -1.109375,4.375 -1.21875,4.984375 -0.03125,0 -0.703125,1.40625 -1.953125,1.40625 -0.890625,0 -1.0625,-0.78125 -1.0625,-1.40625 0,-0.984375 0.484375,-2.359375 0.921875,-3.515625 0.203125,-0.546875 0.296875,-0.78125 0.296875,-1.125 0,-0.734375 -0.53125,-1.375 -1.359375,-1.375 -1.578125,0 -2.21875,2.5 -2.21875,2.640625 0,0.0625 0.0625,0.15625 0.1875,0.15625 0.15625,0 0.171875,-0.078125 0.234375,-0.3125 C 1.3125,-6.59375 1.984375,-7.25 2.640625,-7.25 c 0.171875,0 0.4375,0.015625 0.4375,0.5625 0,0.453125 -0.1875,0.953125 -0.4375,1.609375 -0.765625,2.046875 -0.84375,2.703125 -0.84375,3.21875 0,1.75 1.3125,2.03125 2.03125,2.03125 1.09375,0 1.703125,-0.75 2.046875,-1.171875 z m 0,0"
             id="path60" />
        </g>
      </g>
      <g
         fill="#000000"
         fill-opacity="1"
         id="g63"
         transform="matrix(1.33333,0,0,1.33333,-290.497,-12.9947)">
        <g
           id="g62"
           transform="translate(226.998,23.702999)">
          <path
             d="m 1.390625,-0.84375 1.15625,-1.125 c 1.703125,-1.5 2.34375,-2.09375 2.34375,-3.171875 0,-1.25 -0.96875,-2.125 -2.3125,-2.125 -1.21875,0 -2.03125,1 -2.03125,1.96875 0,0.625 0.546875,0.625 0.578125,0.625 0.1875,0 0.5625,-0.140625 0.5625,-0.578125 0,-0.296875 -0.1875,-0.578125 -0.578125,-0.578125 -0.078125,0 -0.109375,0 -0.140625,0.015625 0.25,-0.703125 0.84375,-1.109375 1.46875,-1.109375 1,0 1.46875,0.875 1.46875,1.78125 0,0.859375 -0.546875,1.734375 -1.140625,2.40625 l -2.09375,2.328125 c -0.125,0.125 -0.125,0.140625 -0.125,0.40625 H 4.59375 L 4.890625,-1.890625 H 4.625 C 4.5625,-1.578125 4.5,-1.09375 4.390625,-0.921875 4.3125,-0.84375 3.59375,-0.84375 3.34375,-0.84375 Z m 0,0"
             id="path61" />
        </g>
      </g>
      <g
         fill="#000000"
         fill-opacity="1"
         id="g65"
         transform="matrix(1.33333,0,0,1.33333,-290.497,-12.9947)">
        <g
           id="g64"
           transform="translate(237.73199,21.121)">
          <path
             d="m 11.078125,-5.53125 c 0.25,0 0.515625,0 0.515625,-0.28125 C 11.59375,-6.125 11.296875,-6.125 11,-6.125 H 1.375 c -0.296875,0 -0.578125,0 -0.578125,0.3125 0,0.28125 0.25,0.28125 0.515625,0.28125 z M 11,-2.46875 c 0.296875,0 0.59375,0 0.59375,-0.296875 0,-0.296875 -0.265625,-0.296875 -0.515625,-0.296875 H 1.3125 c -0.265625,0 -0.515625,0 -0.515625,0.296875 0,0.296875 0.28125,0.296875 0.578125,0.296875 z m 0,0"
             id="path63" />
        </g>
      </g>
      <g
         fill="#000000"
         fill-opacity="1"
         id="g67"
         transform="matrix(1.33333,0,0,1.33333,-290.497,-12.9947)">
        <g
           id="g66"
           transform="translate(254.90953,21.121)">
          <path
             d="m 7.234375,-5.53125 c 0,-1.046875 -0.015625,-2.84375 -0.75,-4.21875 -0.625,-1.203125 -1.640625,-1.625 -2.546875,-1.625 -0.828125,0 -1.875,0.375 -2.53125,1.609375 -0.6875,1.296875 -0.75,2.890625 -0.75,4.234375 0,0.984375 0.015625,2.484375 0.546875,3.796875 0.75,1.765625 2.0625,2.015625 2.734375,2.015625 0.796875,0 2,-0.328125 2.703125,-1.96875 0.515625,-1.1875 0.59375,-2.578125 0.59375,-3.84375 z M 3.9375,0 C 2.84375,0 2.1875,-0.953125 1.953125,-2.25 1.75,-3.265625 1.75,-4.75 1.75,-5.71875 c 0,-1.328125 0,-2.421875 0.234375,-3.46875 0.328125,-1.46875 1.28125,-1.921875 1.953125,-1.921875 0.71875,0 1.625,0.46875 1.953125,1.875 C 6.109375,-8.25 6.125,-7.09375 6.125,-5.71875 c 0,1.125 0,2.5 -0.203125,3.515625 C 5.5625,-0.328125 4.546875,0 3.9375,0 Z m 0,0"
             id="path65" />
        </g>
      </g>
    </g>
    <g
       inkscape:label=""
       transform="translate(706.76347,896.17799)"
       id="g75">
      <g
         fill="#000000"
         fill-opacity="1"
         id="g70"
         transform="matrix(1.33333,0,0,1.33333,-273.194,-3.9805)">
        <g
           id="g69"
           transform="translate(204.349,26.421)">
          <path
             d="m 9.6875,-5.453125 c 0.125,-0.484375 0.328125,-1.3125 0.328125,-1.4375 0,-0.359375 -0.265625,-0.75 -0.796875,-0.75 -0.28125,0 -0.921875,0.15625 -1.140625,0.90625 C 8,-6.484375 7.234375,-3.375 7.09375,-2.8125 6.984375,-2.40625 6.875,-1.90625 6.828125,-1.59375 6.53125,-1.1875 5.859375,-0.484375 4.96875,-0.484375 c -1.015625,0 -1.03125,-0.859375 -1.03125,-1.25 0,-1.0625 0.546875,-2.390625 1.015625,-3.640625 C 5.125,-5.8125 5.1875,-5.9375 5.1875,-6.234375 c 0,-1 -1,-1.546875 -1.953125,-1.546875 -1.828125,0 -2.6875,2.34375 -2.6875,2.6875 0,0.234375 0.265625,0.234375 0.421875,0.234375 0.203125,0 0.328125,0 0.390625,-0.21875 0.5625,-1.90625 1.5,-2.078125 1.78125,-2.078125 0.109375,0 0.28125,0 0.28125,0.359375 0,0.390625 -0.203125,0.875 -0.265625,1.078125 -0.734375,1.8125 -1.0625,2.78125 -1.0625,3.625 0,1.953125 1.734375,2.234375 2.75,2.234375 0.5,0 1.25,-0.078125 2.1875,-0.953125 0.546875,0.84375 1.546875,0.953125 1.953125,0.953125 0.640625,0 1.140625,-0.359375 1.5,-0.984375 0.4375,-0.6875 0.65625,-1.625 0.65625,-1.703125 0,-0.25 -0.265625,-0.25 -0.40625,-0.25 -0.203125,0 -0.265625,0 -0.34375,0.09375 -0.04687,0.03125 -0.04687,0.0625 -0.140625,0.5 -0.34375,1.34375 -0.734375,1.71875 -1.171875,1.71875 -0.265625,0 -0.40625,-0.171875 -0.40625,-0.640625 0,-0.28125 0.078125,-0.5625 0.25,-1.25 0.125,-0.484375 0.296875,-1.171875 0.375,-1.546875 z m 0,0"
             id="path68" />
        </g>
      </g>
      <g
         fill="#000000"
         fill-opacity="1"
         id="g9"
         transform="matrix(1.33333,0,0,1.33333,-273.194,-3.9805)">
        <g
           id="use8"
           transform="translate(220.855,26.421)">
          <path
             d="m 11.078125,-5.53125 c 0.25,0 0.515625,0 0.515625,-0.28125 C 11.59375,-6.125 11.296875,-6.125 11,-6.125 H 1.375 c -0.296875,0 -0.578125,0 -0.578125,0.3125 0,0.28125 0.25,0.28125 0.515625,0.28125 z M 11,-2.46875 c 0.296875,0 0.59375,0 0.59375,-0.296875 0,-0.296875 -0.265625,-0.296875 -0.515625,-0.296875 H 1.3125 c -0.265625,0 -0.515625,0 -0.515625,0.296875 0,0.296875 0.28125,0.296875 0.578125,0.296875 z m 0,0"
             id="path70" />
        </g>
      </g>
      <g
         fill="#000000"
         fill-opacity="1"
         id="g10"
         transform="matrix(1.33333,0,0,1.33333,-273.194,-3.9805)">
        <g
           id="use9"
           transform="translate(238.02901,3.6259999)">
          <path
             d="m 3.984375,37.59375 h 4.1875 v -0.875 h -3.3125 V 0.234375 h 3.3125 v -0.875 h -4.1875 z m 0,0"
             id="path71" />
        </g>
      </g>
      <g
         fill="#000000"
         fill-opacity="1"
         id="g11"
         transform="matrix(1.33333,0,0,1.33333,-273.194,-3.9805)">
        <g
           id="use10"
           transform="translate(246.442,16.378)">
          <path
             d="m 5.875,-1 c 0.21875,0.96875 1.046875,1.171875 1.453125,1.171875 0.5625,0 0.96875,-0.359375 1.25,-0.953125 0.296875,-0.609375 0.515625,-1.625 0.515625,-1.6875 0,-0.078125 -0.078125,-0.15625 -0.171875,-0.15625 -0.15625,0 -0.171875,0.09375 -0.25,0.359375 -0.296875,1.1875 -0.609375,2.09375 -1.296875,2.09375 -0.515625,0 -0.515625,-0.5625 -0.515625,-0.796875 0,-0.390625 0.046875,-0.5625 0.21875,-1.28125 0.125,-0.46875 0.234375,-0.9375 0.34375,-1.421875 L 8.125,-6.46875 C 8.25,-6.90625 8.25,-6.9375 8.25,-6.984375 c 0,-0.265625 -0.203125,-0.4375 -0.46875,-0.4375 -0.5,0 -0.625,0.4375 -0.71875,0.859375 -0.171875,0.671875 -1.109375,4.375 -1.21875,4.984375 -0.03125,0 -0.703125,1.40625 -1.953125,1.40625 -0.890625,0 -1.0625,-0.78125 -1.0625,-1.40625 0,-0.984375 0.484375,-2.359375 0.921875,-3.515625 0.203125,-0.546875 0.296875,-0.78125 0.296875,-1.125 0,-0.734375 -0.53125,-1.375 -1.359375,-1.375 -1.578125,0 -2.21875,2.5 -2.21875,2.640625 0,0.0625 0.0625,0.15625 0.1875,0.15625 0.15625,0 0.171875,-0.078125 0.234375,-0.3125 C 1.3125,-6.59375 1.984375,-7.25 2.640625,-7.25 c 0.171875,0 0.4375,0.015625 0.4375,0.5625 0,0.453125 -0.1875,0.953125 -0.4375,1.609375 -0.765625,2.046875 -0.84375,2.703125 -0.84375,3.21875 0,1.75 1.3125,2.03125 2.03125,2.03125 1.09375,0 1.703125,-0.75 2.046875,-1.171875 z m 0,0"
             id="path72" />
        </g>
      </g>
      <g
         fill="#000000"
         fill-opacity="1"
         id="g12"
         transform="matrix(1.33333,0,0,1.33333,-273.194,-3.9805)">
        <g
           id="use11"
           transform="translate(256.03601,18.961)">
          <path
             d="m 5.546875,-2.953125 c -0.59375,-0.75 -0.71875,-0.90625 -1.0625,-1.1875 -0.609375,-0.484375 -1.21875,-0.6875 -1.78125,-0.6875 -1.28125,0 -2.109375,1.203125 -2.109375,2.484375 0,1.25 0.8125,2.46875 2.0625,2.46875 1.265625,0 2.171875,-1 2.703125,-1.875 0.578125,0.75 0.71875,0.90625 1.046875,1.1875 0.625,0.484375 1.234375,0.6875 1.78125,0.6875 1.28125,0 2.109375,-1.203125 2.109375,-2.484375 0,-1.25 -0.8125,-2.46875 -2.0625,-2.46875 -1.25,0 -2.15625,1 -2.6875,1.875 z m 0.28125,0.375 c 0.4375,-0.796875 1.25,-1.890625 2.484375,-1.890625 1.15625,0 1.75,1.125 1.75,2.109375 0,1.078125 -0.734375,1.953125 -1.703125,1.953125 -0.625,0 -1.125,-0.453125 -1.34375,-0.6875 -0.28125,-0.296875 -0.53125,-0.625 -1.1875,-1.484375 z m -0.75,0.46875 c -0.453125,0.78125 -1.265625,1.875 -2.5,1.875 -1.15625,0 -1.734375,-1.125 -1.734375,-2.109375 0,-1.0625 0.734375,-1.953125 1.6875,-1.953125 0.625,0 1.125,0.453125 1.34375,0.6875 0.28125,0.296875 0.53125,0.625 1.203125,1.5 z m 0,0"
             id="path73" />
        </g>
      </g>
      <g
         fill="#000000"
         fill-opacity="1"
         id="g13"
         transform="matrix(1.33333,0,0,1.33333,-273.194,-3.9805)">
        <g
           id="use12"
           transform="translate(252.995,35.507)">
          <path
             d="m 7.234375,-5.53125 c 0,-1.046875 -0.015625,-2.84375 -0.75,-4.21875 -0.625,-1.203125 -1.640625,-1.625 -2.546875,-1.625 -0.828125,0 -1.875,0.375 -2.53125,1.609375 -0.6875,1.296875 -0.75,2.890625 -0.75,4.234375 0,0.984375 0.015625,2.484375 0.546875,3.796875 0.75,1.765625 2.0625,2.015625 2.734375,2.015625 0.796875,0 2,-0.328125 2.703125,-1.96875 0.515625,-1.1875 0.59375,-2.578125 0.59375,-3.84375 z M 3.9375,0 C 2.84375,0 2.1875,-0.953125 1.953125,-2.25 1.75,-3.265625 1.75,-4.75 1.75,-5.71875 c 0,-1.328125 0,-2.421875 0.234375,-3.46875 0.328125,-1.46875 1.28125,-1.921875 1.953125,-1.921875 0.71875,0 1.625,0.46875 1.953125,1.875 C 6.109375,-8.25 6.125,-7.09375 6.125,-5.71875 c 0,1.125 0,2.5 -0.203125,3.515625 C 5.5625,-0.328125 4.546875,0 3.9375,0 Z m 0,0"
             id="path74" />
        </g>
      </g>
      <g
         fill="#000000"
         fill-opacity="1"
         id="g14"
         transform="matrix(1.33333,0,0,1.33333,-273.194,-3.9805)">
        <g
           id="use13"
           transform="translate(267.444,3.6259999)">
          <path
             d="m 3.53125,36.71875 h -3.3125 v 0.875 H 4.421875 V -0.640625 H 0.21875 v 0.875 h 3.3125 z m 0,0"
             id="path75" />
        </g>
      </g>
    </g>
    <g
       inkscape:label=""
       transform="translate(1120.6908,889.86224)"
       id="g85">
      <g
         fill="#000000"
         fill-opacity="1"
         id="g78"
         transform="matrix(1.33333,0,0,1.33333,-297.344,-12.2257)">
        <g
           id="g76"
           transform="translate(221.508,21.121)">
          <path
             d="m 4.578125,-11 c 0,-0.359375 -0.015625,-0.375 -0.25,-0.375 -0.671875,0.796875 -1.6875,1.0625 -2.65625,1.09375 -0.046875,0 -0.140625,0 -0.15625,0.03125 C 1.5,-10.203125 1.5,-10.171875 1.5,-9.8125 c 0.53125,0 1.421875,-0.109375 2.109375,-0.515625 V -1.25 c 0,0.59375 -0.03125,0.796875 -1.515625,0.796875 H 1.578125 V 0 c 0.828125,-0.015625 1.6875,-0.03125 2.515625,-0.03125 0.828125,0 1.6875,0.015625 2.515625,0.03125 V -0.453125 H 6.09375 c -1.484375,0 -1.515625,-0.1875 -1.515625,-0.796875 z m 0,0"
             id="path76" />
        </g>
        <g
           id="g77"
           transform="translate(229.40298,21.121)">
          <path
             d="m 7.234375,-5.53125 c 0,-1.046875 -0.015625,-2.84375 -0.75,-4.21875 -0.625,-1.203125 -1.640625,-1.625 -2.546875,-1.625 -0.828125,0 -1.875,0.375 -2.53125,1.609375 -0.6875,1.296875 -0.75,2.890625 -0.75,4.234375 0,0.984375 0.015625,2.484375 0.546875,3.796875 0.75,1.765625 2.0625,2.015625 2.734375,2.015625 0.796875,0 2,-0.328125 2.703125,-1.96875 0.515625,-1.1875 0.59375,-2.578125 0.59375,-3.84375 z M 3.9375,0 C 2.84375,0 2.1875,-0.953125 1.953125,-2.25 1.75,-3.265625 1.75,-4.75 1.75,-5.71875 c 0,-1.328125 0,-2.421875 0.234375,-3.46875 0.328125,-1.46875 1.28125,-1.921875 1.953125,-1.921875 0.71875,0 1.625,0.46875 1.953125,1.875 C 6.109375,-8.25 6.125,-7.09375 6.125,-5.71875 c 0,1.125 0,2.5 -0.203125,3.515625 C 5.5625,-0.328125 4.546875,0 3.9375,0 Z m 0,0"
             id="path77" />
        </g>
      </g>
      <g
         fill="#000000"
         fill-opacity="1"
         id="g80"
         transform="matrix(1.33333,0,0,1.33333,-297.344,-12.2257)">
        <g
           id="g79"
           transform="translate(237.298,21.121)">
          <path
             d="m 3.359375,0.0625 c 0,-1 -0.328125,-1.734375 -1.03125,-1.734375 C 1.78125,-1.671875 1.5,-1.21875 1.5,-0.84375 1.5,-0.46875 1.75,0 2.34375,0 2.5625,0 2.75,-0.0625 2.90625,-0.21875 c 0.03125,-0.046875 0.0625,-0.046875 0.078125,-0.046875 0.03125,0 0.03125,0.25 0.03125,0.328125 0,0.578125 -0.109375,1.6875 -1.109375,2.8125 -0.1875,0.203125 -0.1875,0.234375 -0.1875,0.28125 0,0.078125 0.09375,0.171875 0.171875,0.171875 0.140625,0 1.46875,-1.28125 1.46875,-3.265625 z m 0,0"
             id="path78" />
        </g>
      </g>
      <g
         fill="#000000"
         fill-opacity="1"
         id="g82"
         transform="matrix(1.33333,0,0,1.33333,-297.344,-12.2257)">
        <g
           id="g81"
           transform="translate(244.85001,21.121)">
          <path
             d="m 7.234375,-5.53125 c 0,-1.046875 -0.015625,-2.84375 -0.75,-4.21875 -0.625,-1.203125 -1.640625,-1.625 -2.546875,-1.625 -0.828125,0 -1.875,0.375 -2.53125,1.609375 -0.6875,1.296875 -0.75,2.890625 -0.75,4.234375 0,0.984375 0.015625,2.484375 0.546875,3.796875 0.75,1.765625 2.0625,2.015625 2.734375,2.015625 0.796875,0 2,-0.328125 2.703125,-1.96875 0.515625,-1.1875 0.59375,-2.578125 0.59375,-3.84375 z M 3.9375,0 C 2.84375,0 2.1875,-0.953125 1.953125,-2.25 1.75,-3.265625 1.75,-4.75 1.75,-5.71875 c 0,-1.328125 0,-2.421875 0.234375,-3.46875 0.328125,-1.46875 1.28125,-1.921875 1.953125,-1.921875 0.71875,0 1.625,0.46875 1.953125,1.875 C 6.109375,-8.25 6.125,-7.09375 6.125,-5.71875 c 0,1.125 0,2.5 -0.203125,3.515625 C 5.5625,-0.328125 4.546875,0 3.9375,0 Z m 0,0"
             id="path80" />
        </g>
      </g>
      <g
         fill="#000000"
         fill-opacity="1"
         id="g84"
         transform="matrix(1.33333,0,0,1.33333,-297.344,-12.2257)">
        <g
           id="g83"
           transform="translate(252.745,14.013)">
          <path
             d="m 4.84375,-2.71875 c 0,-1.171875 -0.96875,-2.125 -2.125,-2.125 -1.171875,0 -2.125,0.96875 -2.125,2.125 0,1.140625 0.953125,2.109375 2.125,2.109375 1.15625,0 2.125,-0.953125 2.125,-2.109375 z m -2.125,1.671875 c -0.9375,0 -1.6875,-0.765625 -1.6875,-1.671875 0,-0.921875 0.75,-1.6875 1.6875,-1.6875 0.90625,0 1.6875,0.734375 1.6875,1.6875 0,0.9375 -0.78125,1.671875 -1.6875,1.671875 z m 0,0"
             id="path82" />
        </g>
      </g>
    </g>
    <g
       inkscape:label=""
       transform="translate(1118.3781,918.296)"
       id="g95">
      <g
         fill="#000000"
         fill-opacity="1"
         id="g88"
         transform="matrix(1.33333,0,0,1.33333,-296.281,-12.2257)">
        <g
           id="g86"
           transform="translate(221.508,21.121)">
          <path
             d="M 7.1875,-2.671875 H 6.875 c -0.171875,1.21875 -0.3125,1.4375 -0.390625,1.53125 C 6.40625,-1 5.171875,-1 4.921875,-1 H 1.625 c 0.609375,-0.671875 1.8125,-1.890625 3.28125,-3.3125 1.046875,-0.984375 2.28125,-2.15625 2.28125,-3.859375 0,-2.03125 -1.625,-3.203125 -3.4375,-3.203125 -1.890625,0 -3.046875,1.65625 -3.046875,3.21875 0,0.671875 0.5,0.75 0.703125,0.75 0.171875,0 0.6875,-0.09375 0.6875,-0.703125 0,-0.53125 -0.4375,-0.6875 -0.6875,-0.6875 -0.09375,0 -0.203125,0.015625 -0.265625,0.046875 0.328125,-1.453125 1.328125,-2.1875 2.375,-2.1875 1.5,0 2.46875,1.1875 2.46875,2.765625 0,1.484375 -0.875,2.78125 -1.859375,3.90625 l -3.421875,3.875 V 0 h 6.0625 z m 0,0"
             id="path85" />
        </g>
        <g
           id="g87"
           transform="translate(229.40298,21.121)">
          <path
             d="m 7.234375,-5.53125 c 0,-1.046875 -0.015625,-2.84375 -0.75,-4.21875 -0.625,-1.203125 -1.640625,-1.625 -2.546875,-1.625 -0.828125,0 -1.875,0.375 -2.53125,1.609375 -0.6875,1.296875 -0.75,2.890625 -0.75,4.234375 0,0.984375 0.015625,2.484375 0.546875,3.796875 0.75,1.765625 2.0625,2.015625 2.734375,2.015625 0.796875,0 2,-0.328125 2.703125,-1.96875 0.515625,-1.1875 0.59375,-2.578125 0.59375,-3.84375 z M 3.9375,0 C 2.84375,0 2.1875,-0.953125 1.953125,-2.25 1.75,-3.265625 1.75,-4.75 1.75,-5.71875 c 0,-1.328125 0,-2.421875 0.234375,-3.46875 0.328125,-1.46875 1.28125,-1.921875 1.953125,-1.921875 0.71875,0 1.625,0.46875 1.953125,1.875 C 6.109375,-8.25 6.125,-7.09375 6.125,-5.71875 c 0,1.125 0,2.5 -0.203125,3.515625 C 5.5625,-0.328125 4.546875,0 3.9375,0 Z m 0,0"
             id="path86" />
        </g>
      </g>
      <g
         fill="#000000"
         fill-opacity="1"
         id="g90"
         transform="matrix(1.33333,0,0,1.33333,-296.281,-12.2257)">
        <g
           id="g89"
           transform="translate(237.298,21.121)">
          <path
             d="m 3.359375,0.0625 c 0,-1 -0.328125,-1.734375 -1.03125,-1.734375 C 1.78125,-1.671875 1.5,-1.21875 1.5,-0.84375 1.5,-0.46875 1.75,0 2.34375,0 2.5625,0 2.75,-0.0625 2.90625,-0.21875 c 0.03125,-0.046875 0.0625,-0.046875 0.078125,-0.046875 0.03125,0 0.03125,0.25 0.03125,0.328125 0,0.578125 -0.109375,1.6875 -1.109375,2.8125 -0.1875,0.203125 -0.1875,0.234375 -0.1875,0.28125 0,0.078125 0.09375,0.171875 0.171875,0.171875 0.140625,0 1.46875,-1.28125 1.46875,-3.265625 z m 0,0"
             id="path88" />
        </g>
      </g>
      <g
         fill="#000000"
         fill-opacity="1"
         id="g92"
         transform="matrix(1.33333,0,0,1.33333,-296.281,-12.2257)">
        <g
           id="g91"
           transform="translate(244.85001,21.121)">
          <path
             d="m 7.234375,-5.53125 c 0,-1.046875 -0.015625,-2.84375 -0.75,-4.21875 -0.625,-1.203125 -1.640625,-1.625 -2.546875,-1.625 -0.828125,0 -1.875,0.375 -2.53125,1.609375 -0.6875,1.296875 -0.75,2.890625 -0.75,4.234375 0,0.984375 0.015625,2.484375 0.546875,3.796875 0.75,1.765625 2.0625,2.015625 2.734375,2.015625 0.796875,0 2,-0.328125 2.703125,-1.96875 0.515625,-1.1875 0.59375,-2.578125 0.59375,-3.84375 z M 3.9375,0 C 2.84375,0 2.1875,-0.953125 1.953125,-2.25 1.75,-3.265625 1.75,-4.75 1.75,-5.71875 c 0,-1.328125 0,-2.421875 0.234375,-3.46875 0.328125,-1.46875 1.28125,-1.921875 1.953125,-1.921875 0.71875,0 1.625,0.46875 1.953125,1.875 C 6.109375,-8.25 6.125,-7.09375 6.125,-5.71875 c 0,1.125 0,2.5 -0.203125,3.515625 C 5.5625,-0.328125 4.546875,0 3.9375,0 Z m 0,0"
             id="path90" />
        </g>
      </g>
      <g
         fill="#000000"
         fill-opacity="1"
         id="g94"
         transform="matrix(1.33333,0,0,1.33333,-296.281,-12.2257)">
        <g
           id="g93"
           transform="translate(252.745,14.013)">
          <path
             d="m 4.84375,-2.71875 c 0,-1.171875 -0.96875,-2.125 -2.125,-2.125 -1.171875,0 -2.125,0.96875 -2.125,2.125 0,1.140625 0.953125,2.109375 2.125,2.109375 1.15625,0 2.125,-0.953125 2.125,-2.109375 z m -2.125,1.671875 c -0.9375,0 -1.6875,-0.765625 -1.6875,-1.671875 0,-0.921875 0.75,-1.6875 1.6875,-1.6875 0.90625,0 1.6875,0.734375 1.6875,1.6875 0,0.9375 -0.78125,1.671875 -1.6875,1.671875 z m 0,0"
             id="path92" />
        </g>
      </g>
    </g>
    <g
       inkscape:label=""
       transform="translate(889.03483,978.74681)"
       id="g96">
      <g
         fill="#000000"
         fill-opacity="1"
         id="g3"
         transform="matrix(1.33333,0,0,1.33333,-306.884,-11.9933)">
        <g
           id="use2"
           transform="translate(229.507,21.120001)">
          <path
             d="m 6.0625,-5.09375 c 0,3.78125 -1.5625,4.953125 -2.859375,4.953125 -0.390625,0 -1.359375,-0.046875 -1.75,-0.71875 0.4375,0.0625 0.765625,-0.171875 0.765625,-0.609375 0,-0.453125 -0.375,-0.609375 -0.625,-0.609375 -0.140625,0 -0.609375,0.0625 -0.609375,0.65625 0,1.15625 1.015625,1.703125 2.25,1.703125 1.984375,0 4,-2.171875 4,-5.96875 0,-4.71875 -1.9375,-5.6875 -3.234375,-5.6875 -1.703125,0 -3.34375,1.484375 -3.34375,3.796875 0,2.140625 1.390625,3.71875 3.15625,3.71875 1.4375,0 2.078125,-1.34375 2.25,-1.90625 z M 3.84375,-4.125 C 3.375,-4.125 2.71875,-4.21875 2.1875,-5.25 1.828125,-5.921875 1.828125,-6.71875 1.828125,-7.5625 c 0,-1.015625 0,-1.71875 0.484375,-2.46875 C 2.546875,-10.40625 3,-10.984375 4,-10.984375 c 2.03125,0 2.03125,3.109375 2.03125,3.796875 0,1.234375 -0.5625,3.0625 -2.1875,3.0625 z m 0,0"
             id="path95" />
        </g>
      </g>
      <g
         fill="#000000"
         fill-opacity="1"
         id="g4"
         transform="matrix(1.33333,0,0,1.33333,-306.884,-11.9933)">
        <g
           id="use3"
           transform="translate(237.40199,21.120001)">
          <path
             d="m 12.859375,-11.96875 c 0,-0.15625 -0.125,-0.15625 -0.15625,-0.15625 -0.03125,0 -0.09375,0 -0.234375,0.171875 L 11.28125,-10.5 c -0.609375,-1.03125 -1.546875,-1.625 -2.84375,-1.625 -3.71875,0 -7.578125,3.78125 -7.578125,7.8125 0,2.890625 2.015625,4.671875 4.53125,4.671875 1.375,0 2.578125,-0.578125 3.578125,-1.421875 1.5,-1.265625 1.953125,-2.9375 1.953125,-3.0625 0,-0.15625 -0.140625,-0.15625 -0.1875,-0.15625 -0.15625,0 -0.171875,0.09375 -0.21875,0.171875 -0.78125,2.6875 -3.109375,3.96875 -4.828125,3.96875 -1.828125,0 -3.421875,-1.171875 -3.421875,-3.609375 0,-0.5625 0.171875,-3.546875 2.125,-5.8125 0.953125,-1.09375 2.5625,-2.0625 4.203125,-2.0625 1.890625,0 2.734375,1.5625 2.734375,3.328125 0,0.4375 -0.04687,0.828125 -0.04687,0.890625 0,0.15625 0.171875,0.15625 0.21875,0.15625 0.1875,0 0.203125,-0.015625 0.28125,-0.328125 z m 0,0"
             id="path96" />
        </g>
      </g>
    </g>
    <g
       inkscape:label=""
       transform="translate(1114.014,1119.2737)"
       id="g102">
      <g
         fill="#000000"
         fill-opacity="1"
         id="g99"
         transform="matrix(1.33333,0,0,1.33333,-301.495,-11.9933)">
        <g
           id="g97"
           transform="translate(225.55901,21.120001)">
          <path
             d="m 3.8125,-5.859375 c 1.53125,0 2.203125,1.328125 2.203125,2.859375 0,2.0625 -1.109375,2.859375 -2.109375,2.859375 C 3,-0.140625 1.515625,-0.578125 1.046875,-1.90625 1.140625,-1.875 1.21875,-1.875 1.3125,-1.875 c 0.40625,0 0.71875,-0.28125 0.71875,-0.71875 0,-0.5 -0.375,-0.734375 -0.71875,-0.734375 -0.296875,0 -0.75,0.140625 -0.75,0.78125 0,1.578125 1.5625,2.828125 3.375,2.828125 1.921875,0 3.375,-1.5 3.375,-3.265625 0,-1.671875 -1.375,-2.875 -3,-3.0625 1.296875,-0.265625 2.5625,-1.4375 2.5625,-3.015625 0,-1.34375 -1.359375,-2.3125 -2.921875,-2.3125 -1.5625,0 -2.9375,0.953125 -2.9375,2.328125 0,0.609375 0.453125,0.71875 0.671875,0.71875 0.359375,0 0.671875,-0.234375 0.671875,-0.671875 0,-0.453125 -0.3125,-0.671875 -0.671875,-0.671875 -0.0625,0 -0.15625,0 -0.21875,0.03125 0.5,-1.140625 1.859375,-1.34375 2.453125,-1.34375 0.609375,0 1.75,0.296875 1.75,1.9375 0,0.484375 -0.078125,1.34375 -0.65625,2.109375 C 4.5,-6.265625 3.90625,-6.234375 3.34375,-6.1875 c -0.09375,0 -0.484375,0.046875 -0.546875,0.046875 -0.125,0.015625 -0.203125,0.03125 -0.203125,0.15625 0,0.109375 0.03125,0.125 0.375,0.125 z m 0,0"
             id="path97" />
        </g>
        <g
           id="g98"
           transform="translate(233.45398,21.120001)">
          <path
             d="m 7.234375,-5.53125 c 0,-1.046875 -0.015625,-2.84375 -0.75,-4.21875 -0.625,-1.203125 -1.640625,-1.625 -2.546875,-1.625 -0.828125,0 -1.875,0.375 -2.53125,1.609375 -0.6875,1.296875 -0.75,2.890625 -0.75,4.234375 0,0.984375 0.015625,2.484375 0.546875,3.796875 0.75,1.765625 2.0625,2.015625 2.734375,2.015625 0.796875,0 2,-0.328125 2.703125,-1.96875 0.515625,-1.1875 0.59375,-2.578125 0.59375,-3.84375 z M 3.9375,0 C 2.84375,0 2.1875,-0.953125 1.953125,-2.25 1.75,-3.265625 1.75,-4.75 1.75,-5.71875 c 0,-1.328125 0,-2.421875 0.234375,-3.46875 0.328125,-1.46875 1.28125,-1.921875 1.953125,-1.921875 0.71875,0 1.625,0.46875 1.953125,1.875 C 6.109375,-8.25 6.125,-7.09375 6.125,-5.71875 c 0,1.125 0,2.5 -0.203125,3.515625 C 5.5625,-0.328125 4.546875,0 3.9375,0 Z m 0,0"
             id="path98" />
        </g>
      </g>
      <g
         fill="#000000"
         fill-opacity="1"
         id="g101"
         transform="matrix(1.33333,0,0,1.33333,-301.495,-11.9933)">
        <g
           id="g100"
           transform="translate(241.35001,21.120001)">
          <path
             d="m 12.859375,-11.96875 c 0,-0.15625 -0.125,-0.15625 -0.15625,-0.15625 -0.03125,0 -0.09375,0 -0.234375,0.171875 L 11.28125,-10.5 c -0.609375,-1.03125 -1.546875,-1.625 -2.84375,-1.625 -3.71875,0 -7.578125,3.78125 -7.578125,7.8125 0,2.890625 2.015625,4.671875 4.53125,4.671875 1.375,0 2.578125,-0.578125 3.578125,-1.421875 1.5,-1.265625 1.953125,-2.9375 1.953125,-3.0625 0,-0.15625 -0.140625,-0.15625 -0.1875,-0.15625 -0.15625,0 -0.171875,0.09375 -0.21875,0.171875 -0.78125,2.6875 -3.109375,3.96875 -4.828125,3.96875 -1.828125,0 -3.421875,-1.171875 -3.421875,-3.609375 0,-0.5625 0.171875,-3.546875 2.125,-5.8125 0.953125,-1.09375 2.5625,-2.0625 4.203125,-2.0625 1.890625,0 2.734375,1.5625 2.734375,3.328125 0,0.4375 -0.04687,0.828125 -0.04687,0.890625 0,0.15625 0.171875,0.15625 0.21875,0.15625 0.1875,0 0.203125,-0.015625 0.28125,-0.328125 z m 0,0"
             id="path99" />
        </g>
      </g>
    </g>
    <g
       inkscape:label=""
       transform="translate(1506.5481,873.15699)"
       id="g108">
      <g
         fill="#000000"
         fill-opacity="1"
         id="g105"
         transform="matrix(1.33333,0,0,1.33333,-301.683,-11.9933)">
        <g
           id="g103"
           transform="translate(225.55901,21.120001)">
          <path
             d="M 7.1875,-2.671875 H 6.875 c -0.171875,1.21875 -0.3125,1.4375 -0.390625,1.53125 C 6.40625,-1 5.171875,-1 4.921875,-1 H 1.625 c 0.609375,-0.671875 1.8125,-1.890625 3.28125,-3.3125 1.046875,-0.984375 2.28125,-2.15625 2.28125,-3.859375 0,-2.03125 -1.625,-3.203125 -3.4375,-3.203125 -1.890625,0 -3.046875,1.65625 -3.046875,3.21875 0,0.671875 0.5,0.75 0.703125,0.75 0.171875,0 0.6875,-0.09375 0.6875,-0.703125 0,-0.53125 -0.4375,-0.6875 -0.6875,-0.6875 -0.09375,0 -0.203125,0.015625 -0.265625,0.046875 0.328125,-1.453125 1.328125,-2.1875 2.375,-2.1875 1.5,0 2.46875,1.1875 2.46875,2.765625 0,1.484375 -0.875,2.78125 -1.859375,3.90625 l -3.421875,3.875 V 0 h 6.0625 z m 0,0"
             id="path102" />
        </g>
        <g
           id="g104"
           transform="translate(233.45398,21.120001)">
          <path
             d="m 7.234375,-5.53125 c 0,-1.046875 -0.015625,-2.84375 -0.75,-4.21875 -0.625,-1.203125 -1.640625,-1.625 -2.546875,-1.625 -0.828125,0 -1.875,0.375 -2.53125,1.609375 -0.6875,1.296875 -0.75,2.890625 -0.75,4.234375 0,0.984375 0.015625,2.484375 0.546875,3.796875 0.75,1.765625 2.0625,2.015625 2.734375,2.015625 0.796875,0 2,-0.328125 2.703125,-1.96875 0.515625,-1.1875 0.59375,-2.578125 0.59375,-3.84375 z M 3.9375,0 C 2.84375,0 2.1875,-0.953125 1.953125,-2.25 1.75,-3.265625 1.75,-4.75 1.75,-5.71875 c 0,-1.328125 0,-2.421875 0.234375,-3.46875 0.328125,-1.46875 1.28125,-1.921875 1.953125,-1.921875 0.71875,0 1.625,0.46875 1.953125,1.875 C 6.109375,-8.25 6.125,-7.09375 6.125,-5.71875 c 0,1.125 0,2.5 -0.203125,3.515625 C 5.5625,-0.328125 4.546875,0 3.9375,0 Z m 0,0"
             id="path103" />
        </g>
      </g>
      <g
         fill="#000000"
         fill-opacity="1"
         id="g107"
         transform="matrix(1.33333,0,0,1.33333,-301.683,-11.9933)">
        <g
           id="g106"
           transform="translate(241.35001,21.120001)">
          <path
             d="m 12.859375,-11.96875 c 0,-0.15625 -0.125,-0.15625 -0.15625,-0.15625 -0.03125,0 -0.09375,0 -0.234375,0.171875 L 11.28125,-10.5 c -0.609375,-1.03125 -1.546875,-1.625 -2.84375,-1.625 -3.71875,0 -7.578125,3.78125 -7.578125,7.8125 0,2.890625 2.015625,4.671875 4.53125,4.671875 1.375,0 2.578125,-0.578125 3.578125,-1.421875 1.5,-1.265625 1.953125,-2.9375 1.953125,-3.0625 0,-0.15625 -0.140625,-0.15625 -0.1875,-0.15625 -0.15625,0 -0.171875,0.09375 -0.21875,0.171875 -0.78125,2.6875 -3.109375,3.96875 -4.828125,3.96875 -1.828125,0 -3.421875,-1.171875 -3.421875,-3.609375 0,-0.5625 0.171875,-3.546875 2.125,-5.8125 0.953125,-1.09375 2.5625,-2.0625 4.203125,-2.0625 1.890625,0 2.734375,1.5625 2.734375,3.328125 0,0.4375 -0.04687,0.828125 -0.04687,0.890625 0,0.15625 0.171875,0.15625 0.21875,0.15625 0.1875,0 0.203125,-0.015625 0.28125,-0.328125 z m 0,0"
             id="path105" />
        </g>
      </g>
    </g>
    <g
       inkscape:label=""
       transform="translate(981.42413,933.88457)"
       id="g109">
      <g
         fill="#000000"
         fill-opacity="1"
         id="g2"
         transform="matrix(1.33333,0,0,1.33333,-312.419,-11.9933)">
        <g
           id="use1"
           transform="translate(233.455,21.120001)">
          <path
             d="m 12.859375,-11.96875 c 0,-0.15625 -0.125,-0.15625 -0.15625,-0.15625 -0.03125,0 -0.09375,0 -0.234375,0.171875 L 11.28125,-10.5 c -0.609375,-1.03125 -1.546875,-1.625 -2.84375,-1.625 -3.71875,0 -7.578125,3.78125 -7.578125,7.8125 0,2.890625 2.015625,4.671875 4.53125,4.671875 1.375,0 2.578125,-0.578125 3.578125,-1.421875 1.5,-1.265625 1.953125,-2.9375 1.953125,-3.0625 0,-0.15625 -0.140625,-0.15625 -0.1875,-0.15625 -0.15625,0 -0.171875,0.09375 -0.21875,0.171875 -0.78125,2.6875 -3.109375,3.96875 -4.828125,3.96875 -1.828125,0 -3.421875,-1.171875 -3.421875,-3.609375 0,-0.5625 0.171875,-3.546875 2.125,-5.8125 0.953125,-1.09375 2.5625,-2.0625 4.203125,-2.0625 1.890625,0 2.734375,1.5625 2.734375,3.328125 0,0.4375 -0.04687,0.828125 -0.04687,0.890625 0,0.15625 0.171875,0.15625 0.21875,0.15625 0.1875,0 0.203125,-0.015625 0.28125,-0.328125 z m 0,0"
             id="path108" />
        </g>
      </g>
    </g>
    <text
       xml:space="preserve"
       style="font-size:21.3333px;font-family:Arial;-inkscape-font-specification:'Arial, Normal';fill:#000000;fill-opacity:1;stroke:none;stroke-width:1;stroke-dasharray:none;stroke-dashoffset:0"
       x="-906.12866"
       y="1495.9285"
       id="text109"
       transform="rotate(-90)"><tspan
         sodipodi:role="line"
         id="tspan109"
         x="-906.12866"
         y="1495.9285">Sada</tspan></text>
  </g>
</svg>
