<?xml version="1.0" encoding="UTF-8" standalone="no"?>
<!-- Created with Inkscape (http://www.inkscape.org/) -->

<svg
   width="200.02499mm"
   height="100.0125mm"
   viewBox="0 0 200.02499 100.0125"
   version="1.1"
   id="svg937"
   inkscape:version="1.2.1 (9c6d41e410, 2022-07-14)"
   sodipodi:docname="respre.svg"
   xmlns:inkscape="http://www.inkscape.org/namespaces/inkscape"
   xmlns:sodipodi="http://sodipodi.sourceforge.net/DTD/sodipodi-0.dtd"
   xmlns="http://www.w3.org/2000/svg"
   xmlns:svg="http://www.w3.org/2000/svg">
  <sodipodi:namedview
     id="namedview939"
     pagecolor="#ffffff"
     bordercolor="#000000"
     borderopacity="0.25"
     inkscape:showpageshadow="2"
     inkscape:pageopacity="0.0"
     inkscape:pagecheckerboard="0"
     inkscape:deskcolor="#d1d1d1"
     inkscape:document-units="mm"
     showgrid="false"
     inkscape:zoom="0.76880612"
     inkscape:cx="379.80967"
     inkscape:cy="189.90484"
     inkscape:window-width="1920"
     inkscape:window-height="1017"
     inkscape:window-x="-8"
     inkscape:window-y="-8"
     inkscape:window-maximized="1"
     inkscape:current-layer="layer1" />
  <defs
     id="defs934">
    <clipPath
       id="clip0">
      <rect
         x="632"
         y="382"
         width="756"
         height="378"
         id="rect1058" />
    </clipPath>
    <clipPath
       id="clip1">
      <rect
         x="632"
         y="382"
         width="755"
         height="377"
         id="rect1061" />
    </clipPath>
    <clipPath
       id="clip2">
      <rect
         x="632"
         y="382"
         width="755"
         height="377"
         id="rect1064" />
    </clipPath>
    <clipPath
       id="clip3">
      <rect
         x="632"
         y="382"
         width="755"
         height="377"
         id="rect1067" />
    </clipPath>
    <clipPath
       id="clip4">
      <rect
         x="632"
         y="382"
         width="755"
         height="377"
         id="rect1070" />
    </clipPath>
    <clipPath
       id="clip5">
      <rect
         x="632"
         y="382"
         width="755"
         height="377"
         id="rect1073" />
    </clipPath>
    <clipPath
       id="clip6">
      <rect
         x="632"
         y="382"
         width="755"
         height="377"
         id="rect1076" />
    </clipPath>
    <clipPath
       id="clip7">
      <rect
         x="632"
         y="382"
         width="755"
         height="377"
         id="rect1079" />
    </clipPath>
    <clipPath
       id="clip8">
      <rect
         x="720"
         y="396"
         width="640"
         height="330"
         id="rect1082" />
    </clipPath>
    <clipPath
       id="clip9">
      <rect
         x="720"
         y="396"
         width="640"
         height="330"
         id="rect1085" />
    </clipPath>
    <clipPath
       id="clip10">
      <rect
         x="720"
         y="396"
         width="640"
         height="330"
         id="rect1088" />
    </clipPath>
    <clipPath
       id="clip11">
      <rect
         x="632"
         y="382"
         width="755"
         height="377"
         id="rect1091" />
    </clipPath>
    <clipPath
       id="clip12">
      <rect
         x="632"
         y="382"
         width="755"
         height="377"
         id="rect1094" />
    </clipPath>
    <clipPath
       id="clip13">
      <rect
         x="632"
         y="382"
         width="755"
         height="377"
         id="rect1097" />
    </clipPath>
    <clipPath
       id="clip14">
      <rect
         x="632"
         y="382"
         width="755"
         height="377"
         id="rect1100" />
    </clipPath>
    <clipPath
       id="clip15">
      <rect
         x="632"
         y="382"
         width="755"
         height="377"
         id="rect1103" />
    </clipPath>
    <clipPath
       id="clip16">
      <rect
         x="632"
         y="382"
         width="755"
         height="377"
         id="rect1106" />
    </clipPath>
    <clipPath
       id="clip17">
      <rect
         x="632"
         y="382"
         width="755"
         height="377"
         id="rect1109" />
    </clipPath>
    <clipPath
       id="clip18">
      <rect
         x="632"
         y="382"
         width="755"
         height="377"
         id="rect1112" />
    </clipPath>
    <clipPath
       id="clip19">
      <rect
         x="632"
         y="382"
         width="755"
         height="377"
         id="rect1115" />
    </clipPath>
    <clipPath
       id="clip20">
      <rect
         x="632"
         y="382"
         width="755"
         height="377"
         id="rect1118" />
    </clipPath>
    <clipPath
       id="clip21">
      <rect
         x="632"
         y="382"
         width="755"
         height="377"
         id="rect1121" />
    </clipPath>
    <clipPath
       id="clip22">
      <rect
         x="632"
         y="382"
         width="755"
         height="377"
         id="rect1124" />
    </clipPath>
    <clipPath
       id="clip23">
      <rect
         x="632"
         y="382"
         width="755"
         height="377"
         id="rect1127" />
    </clipPath>
    <clipPath
       id="clip24">
      <rect
         x="632"
         y="382"
         width="755"
         height="377"
         id="rect1130" />
    </clipPath>
    <clipPath
       id="clip25">
      <rect
         x="632"
         y="382"
         width="755"
         height="377"
         id="rect1133" />
    </clipPath>
    <clipPath
       id="clip26">
      <rect
         x="632"
         y="382"
         width="755"
         height="377"
         id="rect1136" />
    </clipPath>
    <clipPath
       id="clip27">
      <rect
         x="632"
         y="382"
         width="755"
         height="377"
         id="rect1139" />
    </clipPath>
    <clipPath
       id="clip28">
      <rect
         x="632"
         y="382"
         width="755"
         height="377"
         id="rect1142" />
    </clipPath>
    <clipPath
       id="clip29">
      <rect
         x="632"
         y="382"
         width="755"
         height="377"
         id="rect1145" />
    </clipPath>
    <clipPath
       id="clip30">
      <rect
         x="632"
         y="382"
         width="755"
         height="377"
         id="rect1148" />
    </clipPath>
    <clipPath
       id="clip31">
      <rect
         x="632"
         y="382"
         width="755"
         height="377"
         id="rect1151" />
    </clipPath>
    <clipPath
       id="clip32">
      <rect
         x="632"
         y="382"
         width="755"
         height="377"
         id="rect1154" />
    </clipPath>
    <clipPath
       id="clip33">
      <rect
         x="632"
         y="382"
         width="755"
         height="377"
         id="rect1157" />
    </clipPath>
    <clipPath
       id="clip34">
      <rect
         x="632"
         y="382"
         width="755"
         height="377"
         id="rect1160" />
    </clipPath>
    <clipPath
       id="clip35">
      <rect
         x="632"
         y="382"
         width="755"
         height="377"
         id="rect1163" />
    </clipPath>
    <clipPath
       id="clip36">
      <rect
         x="632"
         y="382"
         width="755"
         height="377"
         id="rect1166" />
    </clipPath>
    <clipPath
       id="clip37">
      <rect
         x="632"
         y="382"
         width="755"
         height="377"
         id="rect1169" />
    </clipPath>
    <clipPath
       id="clip38">
      <rect
         x="632"
         y="382"
         width="755"
         height="377"
         id="rect1172" />
    </clipPath>
    <clipPath
       id="clip39">
      <rect
         x="632"
         y="382"
         width="755"
         height="377"
         id="rect1175" />
    </clipPath>
    <clipPath
       id="clip40">
      <rect
         x="632"
         y="382"
         width="755"
         height="377"
         id="rect1178" />
    </clipPath>
    <clipPath
       id="clip41">
      <rect
         x="632"
         y="382"
         width="755"
         height="377"
         id="rect1181" />
    </clipPath>
    <clipPath
       id="clip42">
      <rect
         x="632"
         y="382"
         width="755"
         height="377"
         id="rect1184" />
    </clipPath>
    <clipPath
       id="clip43">
      <rect
         x="632"
         y="382"
         width="755"
         height="377"
         id="rect1187" />
    </clipPath>
    <clipPath
       id="clip44">
      <rect
         x="632"
         y="382"
         width="755"
         height="377"
         id="rect1190" />
    </clipPath>
  </defs>
  <g
     inkscape:label="Camada 1"
     inkscape:groupmode="layer"
     id="layer1"
     transform="translate(18.105195,-98.321676)">
    <g
       clip-path="url(#clip0)"
       transform="matrix(0.26458333,0,0,0.26458333,-185.32186,-2.7491556)"
       id="g1373">
      <rect
         x="632"
         y="382"
         width="756"
         height="378"
         fill="#ffffff"
         id="rect1195" />
      <g
         clip-path="url(#clip1)"
         id="g1199">
        <rect
           x="721"
           y="397"
           width="639"
           height="329"
           fill="#ffffff"
           id="rect1197" />
      </g>
      <g
         clip-path="url(#clip2)"
         id="g1203">
        <path
           d="m 720.5,725.5 h 639 m -639,-19 h 639 m -639,-19 h 639 m -639,-20 h 639 m -639,-19 h 639 m -639,-19 h 639 m -639,-20 h 639 m -639,-19 h 639 m -639,-20 h 639 m -639,-19 h 639 m -639,-19 h 639 m -639,-20 h 639 m -639,-19 h 639 m -639,-19 h 639 m -639,-20 h 639 m -639,-19 h 639 m -639,-19 h 639"
           stroke="#d9d9d9"
           stroke-linejoin="round"
           stroke-miterlimit="10"
           fill="none"
           id="path1201" />
      </g>
      <g
         clip-path="url(#clip3)"
         id="g1207">
        <path
           d="m 827.5,396.5 v 329 m 106,-329 v 329 m 107,-329 v 329 m 106,-329 v 329 m 107,-329 v 329 m 106,-329 v 329"
           stroke="#d9d9d9"
           stroke-linejoin="round"
           stroke-miterlimit="10"
           fill="none"
           id="path1205" />
      </g>
      <g
         clip-path="url(#clip4)"
         id="g1211">
        <path
           d="M 0,0 1.04987e-4,329"
           stroke="#000000"
           stroke-linejoin="round"
           stroke-miterlimit="10"
           fill="none"
           fill-rule="evenodd"
           transform="matrix(1,0,0,-1,720.5,725.5)"
           id="path1209" />
      </g>
      <g
         clip-path="url(#clip5)"
         id="g1215">
        <path
           d="m 720.5,725.5 h 3 m -3,-5 h 3 m -3,-4 h 3 m -3,-2 h 3 m -3,-2 h 3 m -3,-2 h 3 m -3,-1 h 3 m -3,-1 h 3 m -3,-1 h 3 m -3,-1 h 3 m -3,-6 h 3 m -3,-3 h 3 m -3,-3 h 3 m -3,-1 h 3 m -3,-2 h 3 m -3,-1 h 3 m -3,-1 h 3 m -3,-1 h 3 m -3,-1 h 3 m -3,-6 h 3 m -3,-4 h 3 m -3,-2 h 3 m -3,-2 h 3 m -3,-1 h 3 m -3,-2 h 3 m -3,-1 h 3 m -3,-1 h 3 m -3,-1 h 3 m -3,-5 h 3 m -3,-4 h 3 m -3,-2 h 3 m -3,-2 h 3 m -3,-2 h 3 m -3,-1 h 3 m -3,-1 h 3 m -3,-1 h 3 m -3,-1 h 3 m -3,-6 h 3 m -3,-3 h 3 m -3,-3 h 3 m -3,-2 h 3 m -3,-1 h 3 m -3,-1 h 3 m -3,-2 h 3 m -3,-1 h 3 m -3,0 h 3 m -3,-6 h 3 m -3,-4 h 3 m -3,-2 h 3 m -3,-2 h 3 m -3,-1 h 3 m -3,-2 h 3 m -3,-1 h 3 m -3,-1 h 3 m -3,-1 h 3 m -3,-6 h 3 m -3,-3 h 3 m -3,-2 h 3 m -3,-2 h 3 m -3,-2 h 3 m -3,-1 h 3 m -3,-1 h 3 m -3,-1 h 3 m -3,-1 h 3 m -3,-6 h 3 m -3,-3 h 3 m -3,-3 h 3 m -3,-2 h 3 m -3,-1 h 3 m -3,-2 h 3 m -3,-1 h 3 m -3,-1 h 3 m -3,-1 h 3 m -3,-5 h 3 m -3,-4 h 3 m -3,-2 h 3 m -3,-2 h 3 m -3,-2 h 3 m -3,-1 h 3 m -3,-1 h 3 m -3,-1 h 3 m -3,-1 h 3 m -3,-6 h 3 m -3,-3 h 3 m -3,-3 h 3 m -3,-1 h 3 m -3,-2 h 3 m -3,-1 h 3 m -3,-1 h 3 m -3,-1 h 3 m -3,-1 h 3 m -3,-6 h 3 m -3,-3 h 3 m -3,-3 h 3 m -3,-2 h 3 m -3,-1 h 3 m -3,-2 h 3 m -3,-1 h 3 m -3,-1 h 3 m -3,-1 h 3 m -3,-5 h 3 m -3,-4 h 3 m -3,-2 h 3 m -3,-2 h 3 m -3,-2 h 3 m -3,-1 h 3 m -3,-1 h 3 m -3,-1 h 3 m -3,-1 h 3 m -3,-6 h 3 m -3,-3 h 3 m -3,-3 h 3 m -3,-2 h 3 m -3,-1 h 3 m -3,-1 h 3 m -3,-1 h 3 m -3,-1 h 3 m -3,-1 h 3 m -3,-6 h 3 m -3,-4 h 3 m -3,-2 h 3 m -3,-2 h 3 m -3,-1 h 3 m -3,-2 h 3 m -3,-1 h 3 m -3,-1 h 3 m -3,-1 h 3 m -3,-6 h 3 m -3,-3 h 3 m -3,-2 h 3 m -3,-2 h 3 m -3,-2 h 3 m -3,-1 h 3 m -3,-1 h 3 m -3,-1 h 3 m -3,-1 h 3 m -3,-6 h 3 m -3,-3 h 3 m -3,-3 h 3 m -3,-2 h 3 m -3,-1 h 3 m -3,-1 h 3 m -3,-2 h 3 m -3,-1 h 3 m -3,0 h 3 m -3,-6 h 3 m -3,-4 h 3 m -3,-2 h 3 m -3,-2 h 3 m -3,-2 h 3 m -3,-1 h 3 m -3,-1 h 3 m -3,-1 h 3 m -3,-1 h 3 m -6,329 h 7 m -7,-19 h 7 m -7,-19 h 7 m -7,-20 h 7 m -7,-19 h 7 m -7,-19 h 7 m -7,-20 h 7 m -7,-19 h 7 m -7,-20 h 7 m -7,-19 h 7 m -7,-19 h 7 m -7,-20 h 7 m -7,-19 h 7 m -7,-19 h 7 m -7,-20 h 7 m -7,-19 h 7 m -7,-19 h 7 m -7,-20 h 7"
           stroke="#000000"
           stroke-linejoin="round"
           stroke-miterlimit="10"
           fill="none"
           id="path1213" />
      </g>
      <g
         clip-path="url(#clip6)"
         id="g1219">
        <path
           d="m 720.5,396.5 h 639"
           stroke="#000000"
           stroke-linejoin="round"
           stroke-miterlimit="10"
           fill="none"
           fill-rule="evenodd"
           id="path1217" />
      </g>
      <g
         clip-path="url(#clip7)"
         id="g1223">
        <path
           d="m 720.5,393.5 v 3 m 21,-3 v 3 m 22,-3 v 3 m 21,-3 v 3 m 21,-3 v 3 m 22,-3 v 3 m 21,-3 v 3 m 21,-3 v 3 m 22,-3 v 3 m 21,-3 v 3 m 21,-3 v 3 m 22,-3 v 3 m 21,-3 v 3 m 21,-3 v 3 m 21,-3 v 3 m 22,-3 v 3 m 21,-3 v 3 m 21,-3 v 3 m 22,-3 v 3 m 21,-3 v 3 m 21,-3 v 3 m 22,-3 v 3 m 21,-3 v 3 m 21,-3 v 3 m 22,-3 v 3 m 21,-3 v 3 m 21,-3 v 3 m 21,-3 v 3 m 22,-3 v 3 m 21,-3 v 3 m 21,-3 v 3 m -639,-3 v 7 m 107,-7 v 7 m 106,-7 v 7 m 107,-7 v 7 m 106,-7 v 7 m 107,-7 v 7 m 106,-7 v 7"
           stroke="#000000"
           stroke-linejoin="round"
           stroke-miterlimit="10"
           fill="none"
           id="path1221" />
      </g>
      <g
         clip-path="url(#clip8)"
         id="g1227">
        <path
           d="m 721,440 v 1 l 1,17 v 10 l 1,1 v 1 l 1,2 v 1 l 1,1 v 1 h 1 l 1,1 v 1 l 1,1 v 0 l 1,1 v 1 h 1 v 1 l 1,1 v 0 l 1,1 v 0 l 1,1 v 0 l 1,1 h 1 v 1 h 1 v 0 l 1,1 v 0 l 1,1 v 0 h 1 v 1 h 1 v 0 l 1,1 v 0 h 1 l 1,1 v 0 h 1 v 1 h 1 v 0 l 1,1 v 0 h 1 v 1 h 1 v 0 h 1 v 1 h 1 1 v 0 l 1,1 v 0 h 1 v 1 h 1 v 0 h 1 v 1 h 1 v 0 h 1 v 0 l 1,1 h 1 v 0 h 1 v 1 h 1 v 0 h 1 v 0 l 1,1 v 0 h 1 v 0 l 1,1 v 0 h 1 v 0 h 1 l 1,1 v 0 h 1 v 0 h 1 v 1 h 1 v 0 h 1 v 0 h 1 v 1 h 1 v 0 h 1 1 v 1 h 1 v 0 h 1 v 0 h 1 v 1 h 1 v 0 h 1 v 0 h 1 v 1 h 1 1 v 0 h 1 v 0 l 1,1 v 0 h 1 v 0 h 1 v 0 h 1 v 1 h 1 v 0 h 1 1 v 0 h 1 v 1 h 1 v 0 h 1 v 0 h 1 v 0 l 1,1 v 0 h 1 v 0 h 1 1 v 0 h 1 v 1 h 1 v 0 h 1 v 0 h 1 v 0 h 1 v 1 h 1 v 0 h 1 1 v 0 h 1 v 0 h 1 v 1 h 1 v 0 h 1 v 0 h 1 v 0 h 1 v 0 l 1,1 v 0 h 1 1 v 0 h 1 v 0 h 1 v 0 h 1 v 1 h 1 v 0 h 1 v 0 h 1 v 0 h 1 1 v 0 h 1 v 1 h 1 v 0 h 1 v 0 h 1 v 0 h 1 v 0 h 1 v 0 l 1,1 h 1 v 0 h 1 v 0 h 1 v 0 h 1 v 0 h 1 v 0 h 1 v 1 h 1 v 0 h 1 1 v 0 h 1 v 0 h 1 v 0 h 1 v 0 h 1 v 1 h 1 v 0 h 1 v 0 h 1 1 v 0 h 1 v 0 h 1 v 0 h 1 v 0 h 1 v 1 h 1 v 0 h 1 v 0 h 1 1 v 0 h 1 v 0 h 1 v 0 h 1 v 0 h 1 v 0 l 1,1 v 0 h 1 v 0 h 1 1 v 0 h 1 v 0 h 1 v 0 h 1 v 0 h 1 v 0 h 1 v 0 l 1,1 v 0 h 1 v 0 h 1 1 v 0 h 1 v 0 h 1 v 0 h 1 v 0 h 1 v 0 h 1 v 0 h 1 v 0 h 1 1 v 1 h 1 v 0 h 1 v 0 h 1 v 0 h 1 v 0 h 1 v 0 h 1 v 0 h 1 1 v 0 h 1 v 0 h 1 v 0 h 1 v 0 h 1 v 0 l 1,1 v 0 h 1 v 0 h 1 1 v 0 h 1 v 0 h 1 v 0 h 1 v 0 h 1 v 0 h 1 v 0 h 1 v 0 h 1 1 v 0 h 1 v 0 h 1 v 0 h 1 v 0 h 1 v 0 h 1 v 0 h 1 v 1 h 1 1 v 0 h 1 v 0 h 1 v 0 h 1 v 0 h 1 v 0 h 1 v 0 h 1 v 0 h 1 v 0 h 1 1 v 0 h 1 v 0 h 1 v 0 h 1 v 0 h 1 v 0 h 1 v 0 h 1 v 0 h 1 1 v 0 h 1 v 0 h 1 v 0 h 1 v 0 h 1 v 0 h 1 v 0 h 1 v 0 h 1 1 v 1 h 1 v 0 h 1 v 0 h 1 v 0 h 1 v 0 h 1 v 0 h 1 v 0 h 1 1 v 0 h 1 v 0 h 1 v 0 h 1 v 0 h 1 v 0 h 1 v 0 h 1 v 0 h 1 1 v 0 h 1 v 0 h 1 v 0 h 1 v 0 h 1 v 0 h 1 v 0 h 1 v 0 h 1 1 v 0 h 1 v 0 h 1 v 0 h 1 v 0 h 1 v 0 h 1 v 0 h 1 v 0 h 1 1 v 0 h 1 v 0 h 1 v 0 h 1 v 1 h 1 v 0 h 1 v 0 h 1 v 0 h 1 v 0 h 1 1 v 0 h 1 v 0 h 1 v 0 h 1 v 0 h 1 v 0 h 1 v 0 h 1 v 0 h 1 1 v 0 h 1 v 0 h 1 v 0 h 1 v 0 h 1 v 0 h 1 v 0 h 1 v 0 h 1 1 v 0 h 1 v 0 h 1 v 0 h 1 v 0 h 1 v 0 h 1 v 0 h 1 v 0 h 1 1 v 0 l 1,1 v 0 h 1 v 0 h 1 v 0 h 1 v 0 h 1 v 0 h 1 v 0 h 1 1 v 0 h 1 v 0 h 1 v 0 h 1 v 0 h 1 v 0 h 1 v 0 h 1 v 0 h 1 1 v 0 h 1 v 0 h 1 v 0 h 1 v 0 h 1 v 0 h 1 v 0 h 1 v 0 h 1 1 v 0 h 1 v 0 h 1 v 1 h 1 v 0 h 1 v 0 h 1 v 0 h 1 v 0 h 1 v 0 h 1 1 v 0 h 1 v 0 h 1 v 0 h 1 v 0 h 1 v 0 h 1 v 0 h 1 v 0 h 1 1 v 0 h 1 v 0 h 1 v 0 h 1 v 0 h 1 v 0 h 1 v 0 h 1 v 0 h 1 l 1,1 v 0 h 1 v 0 h 1 v 0 h 1 v 0 h 1 v 0 h 1 v 0 h 1 v 0 h 1 1 v 0 h 1 v 0 h 1 v 0 h 1 v 0 h 1 v 0 h 1 v 0 h 1 v 0 h 1 1 v 0 h 1 v 0 h 1 v 0 l 1,1 v 0 h 1 v 0 h 1 v 0 h 1 v 0 h 1 1 v 0 h 1 v 0 h 1 v 0 h 1 v 0 h 1 v 0 h 1 v 0 h 1 v 0 h 1 v 0 h 1 1 v 0 h 1 v 0 h 1 v 0 l 1,1 v 0 h 1 v 0 h 1 v 0 h 1 v 0 h 1 1 v 0 h 1 v 0 h 1 v 0 h 1 v 0 h 1 v 0 h 1 v 0 h 1 v 0 h 1 1 v 0 h 1 v 0 h 1 v 1 h 1 v 0 h 1 v 0 h 1 v 0 h 1 v 0 h 1 1 v 0 h 1 v 0 h 1 v 0 h 1 v 0 h 1 v 0 h 1 v 0 h 1 v 0 h 1 1 v 1 h 1 v 0 h 1 v 0 h 1 v 0 h 1 v 0 h 1 v 0 h 1 v 0 h 1 1 v 0 h 1 v 0 h 1 v 0 h 1 v 0 h 1 v 0 h 1 v 1 h 1 v 0 h 1 1 v 0 h 1 v 0 h 1 v 0 h 1 v 0 h 1 v 0 h 1 v 0 h 1 v 0 h 1 v 0 h 1 1 v 0 h 1 v 1 h 1 v 0 h 1 v 0 h 1 v 0 h 1 v 0 h 1 v 0 h 1 1 v 0 h 1 v 0 h 1 v 0 h 1 v 0 h 1 v 0 h 1 v 1 h 1 v 0 h 1 1 v 0 h 1 v 0 h 1 v 0 h 1 v 0 h 1 v 0 h 1 v 0 h 1 v 0 h 1 1 v 0 h 1 v 1 h 1 v 0 h 1 v 0 h 1 v 0 h 1 v 0 h 1 v 0 h 1 1 v 0 h 1 v 0 h 1 v 0 h 1 v 0 h 1 v 0 l 1,1 v 0 h 1 v 0 h 1 1 v 0 h 1 v 0 h 1 v 0 h 1 v 0 h 1 v 0 h 1 v 0 h 1 v 0 h 1 1 v 0 l 1,1 v 0 h 1 v 0 h 1 v 0 h 1 v 0 h 1 v 0 h 1 v 0 h 1 v 0 h 1 1 v 0 h 1 v 0 h 1 v 0 h 1 v 1 h 1 v 0 h 1 v 0 h 1 v 0 h 1 1 v 0 h 1 v 0 h 1 v 0 h 1 v 0 h 1 v 0 h 1 v 0 h 1 v 1 h 1 1 v 0 h 1 v 0 h 1 v 0 h 1 v 0 h 1 v 0 h 1 v 0 h 1 v 0 h 1 1 v 0 h 1 v 0 l 1,1 v 0 h 1 v 0 h 1 v 0 h 1 v 0 h 1 v 0 h 1 1 v 0 h 1 v 0 h 1 v 0 h 1 v 0 h 1 v 1 h 1 v 0 h 1 v 0 h 1 1 v 0 h 1 v 0 h 1 v 0 h 1 v 0 h 1 v 0 h 1 v 0 h 1 v 0 h 1 v 1 h 1 1 v 0 h 1 v 0 h 1 v 0 h 1 v 0 h 1 v 0 h 1 v 0 h 1 v 0 h 1 1 v 0 h 1 v 1 h 1 v 0 h 1 v 0 h 1 v 0 h 1 v 0 h 1 v 0 h 1 1 v 0 h 1 v 0 h 1 v 0 h 1 v 0 h 1 v 1 h 1 v 0 h 1 v 0 h 1 1 v 0 h 1 v 0 h 1 v 0 h 1 v 0 h 1 v 0 h 1 v 0 h 1 v 0 l 1,1 h 1 v 0 h 1 v 0 h 1 v 0 h 1 v 0 h 1 v 0 h 1 v 0 h 1 v 0 h 1 1 v 0 h 1 v 0 l 1,1 v 0 h 1 v 0 h 1 v 0 h 1 v 0 h 1 v 0 h 1 1 v 0 h 1 v 0 h 1 v 0 h 1 v 0 h 1 v 0 l 1,1 v 0 h 1 v 0 h 1 v 0 h 1 1 v 0 h 1 v 0 h 1 v 0 h 1 v 0 h 1 v 0 h 1 v 0 h 1 v 0 l 1,1 h 1 v 0 h 1 v 0 h 1 v 0 h 1 v 0 h 1 v 0 h 1 v 0 h 1 v 0 h 1 1 v 0 h 1 v 0 h 1 v 1 h 1 v 0 h 1 v 0 h 1 v 0 h 1 v 0 h 1 1 v 0 h 1 v 0 h 1 v 0 h 1 v 0 h 1 v 0 h 1 v 0 l 1,1 v 0 h 1 1 v 0 h 1 v 0 h 1 v 0 h 1 v 0 h 1 v 0 h 1 v 0 h 1 v 0 h 1 1 v 0 h 1 v 1 h 1 v 0 h 1 v 0 h 1 v 0 h 1 v 0 h 1 v 0 h 1 1 v 0 h 1 v 0 h 1 v 0 h 1 v 0 h 1 v 1 h 1 v 0 h 1 v 0 h 1 v 0 h 1 1 v 0 h 1 v 0 h 1 v 0 h 1 v 0 h 1 v 0 h 1 v 0 h 1 v 1 h 1 1 v 0 h 1 v 0 h 1 v 0 h 1 v 0 h 1 v 0 h 1 v 0 h 1 v 0 h 1 1 v 0 h 1 v 0 h 1 v 1 h 1 v 0 h 1 v 0 h 1 v 0 h 1 v 0 h 1 1 v 0 h 1 v 0 h 1 v 0 h 1 v 0 h 1 v 0 h 1 v 1 h 1 v 0 h 1 1 v 0 h 1 v 0 h 1 v 0 h 1 v 0 h 1 v 0 h 1 v 0 h 1 v 0 h 1 1 v 0 h 1 v 1 h 1 v 0 h 1 v 0 h 1 v 0 h 1 v 0 h 1 v 0 h 1 v 0 h 1 1 v 0 h 1 v 0 h 1 v 0 h 1 v 0 h 1 v 1 h 1 v 0 h 1 v 0 h 1 1 v 0 h 1 v 0 h 1 v 0 h 1 v 0 h 1 v 0 h 1 v 0 h 1 v 0 h 1 1 v 0 l 1,1 v 0 h 1 v 0 h 1 v 0 h 1 v 0 h 1 v 0 h 1 v 0 h 1 1 v 0 h 1 v 0 h 1 v 0 h 1 v 0 h 1 v 0 l 1,1 v 0 h 1 v 0 h 1 1 v 0 h 1 v 0 h 1 v 0 h 1 v 0 h 1 v 0 h 1 v 0 h 1 v 0 h 1 1 v 0 h 1 v 0 l 1,1 v 0 h 1 v 0 h 1 v 0 h 1 v 0 h 1 v 0 h 1 1 v 0 h 1 v 0 h 1 v 0 h 1 v 0 h 1 v 0 h 1 v 0 h 1 v 1 h 1 v 0 h 1 1 v 0 h 1 v 0 h 1 v 0 h 1 v 0 h 1 v 0 h 1 v 0 h 1 v 0 h 1 1 v 0 h 1 v 0 h 1 v 0 l 1,1 v 0 h 1 v 0 h 1 v 0 h 1 v 0 h 1 1 v 0 h 1 v 0 h 1 v 0 h 1 v 0 h 1 v 0 h 1 v 0 h 1 v 0 h 1 l 1,1 v 0 h 1 v 0 h 1 v 0 h 1 v 0 h 1 v 0 h 1 v 0 h 1 v 0 h 1 1 v 0 h 1 v 0 h 1 v 0 h 1 v 0 h 1 v 0 l 1,1 v 0 h 1 v 0 h 1 1 v 0 h 1 v 0 h 1 v 0 h 1 v 0 h 1 v 0 h 1 v 0 h 1 v 0 h 1 v 0 h 1 1 v 0 h 1 v 0 l 1,1 v 0 h 1 v 0 h 1 v 0 h 1 v 0 h 1 v 0 h 1 1 v 0 h 1 v 0 h 1 v 0 h 1 v 0 h 1 v 0 h 1 v 0 h 1 v 0 h 1 l 1,1 v 0 h 1 v 0 h 1 v 0 h 1 v 0 h 1 v 0 h 1 v 0 h 1 v 0 h 1 1 v 0 h 1 v 0 h 1 v 0 h 1 v 0 h 1 v 0 h 1 v 0 h 1 v 1 h 1 1 v 0 h 1 v 0 h 1 v 0 h 1 v 0 h 1 v 0 h 1 v 0 h 1 v 0 h 1 1 v 0 h 1 v 0 h 1 v 0 h 1 v 0 h 1 v 0 h 1 v 0 l 1,1 v 0 h 1 1 v 0 h 1 v 0 h 1 v 0 h 1 v 0 h 1 v 0 h 1 v 0 h 1 v 0 h 1 v 0 h 1 1 v 0 h 1 v 0 h 1 v 0 h 1 v 0 h 1 v 0 l 1,1 v 0 h 1 v 0 h 1 1 v 0 h 1 v 0 h 1 v 0 h 1 v 0 h 1 v 0 h 1 v 0 h 1 v 0 h 1 1 v 0 h 1 v 0 h 1 v 0 h 1 v 0 h 1 v 1 h 1 v 0 h 1 v 0 h 1 1 v 0 h 1 v 0 h 1 v 0 h 1 v 0 h 1 v 0 h 1 v 0 h 1 v 0 h 1 1 v 0 h 1 v 0 h 1 v 0 h 1 v 0 h 1 v 0 l 1,1 v 0 h 1 v 0 h 1 1 v 0 h 1 v 0 h 1 v 0 h 1 v 0 h 1 v 0 h 1 v 0 h 1 v 0 h 1 1 v 0 h 1 v 0 h 1 v 0 h 1 v 0 h 1 v 0 h 1 v 1 h 1 v 0 h 1 v 0 h 1 1 v 0 h 1 v 0 h 1 v 0 h 1 v 0 h 1 v 0 h 1 v 0 h 1 v 0 h 1 1 v 0 h 1 v 0 h 1 v 0 h 1 v 0 h 1 v 0 h 1 v 0 l 1,1 v 0 h 1 1 v 0 h 1 v 0 h 1 v 0 h 1 v 0 h 1 v 0 h 1 v 0 h 1 v 0 h 1 1 v 0 h 1 v 0 h 1 v 0 h 1 v 0 h 1 v 0 h 1 v 0 h 1 v 0 h 1 1 v 0 l 1,1 v 0 h 1 v 0 h 1 v 0 h 1 v 0 h 1 v 0 h 1 v 0 h 1 1 v 0 h 1 v 0 h 1 v 0 h 1 v 0 h 1 v 0 h 1 v 0 h 1 v 0 h 1 v 0 h 1 1 v 0 h 1 v 0 h 1 v 0 l 1,1 v 0 h 1 v 0 h 1 v 0 h 1 v 0 h 1 1 v 0 h 1 v 0 h 1 v 0 h 1 v 0 h 1 v 0 h 1 v 0 h 1 v 0 h 1 1 v 0 h 1 v 0 h 1 v 0 h 1 v 0 h 1 v 0 h 1 v 0 h 1 v 1 h 1 1 v 0 h 1 v 0 h 1 v 0 h 1 v 0 h 1 v 0 h 1 v 0 h 1 v 0 h 1 1 v 0 h 1 v 0 h 1 v 0 h 1 v 0 h 1 v 0 h 1 v 0 h 1 v 0 h 1 1 v 0 h 1 v 0 h 1 v 1 h 1 v 0 h 1 v 0 h 1 v 0 h 1 v 0 h 1 1 v 0 h 1 v 0 h 1 v 0 h 1 v 0 h 1 v 0 h 1 v 0 h 1 v 0 h 1 v 0 h 1 1 v 0 h 1 v 0 h 1 v 0 h 1 v 0 h 1 v 0 h 1 v 1 h 1 v 0 h 1 1 v 0 h 1 v 0 h 1 v 0 h 1 v 0 h 1 v 0 h 1 v 0 h 1 v 0 h 1 1 v 0 h 1 v 0 h 1 v 0 h 1 v 0 h 1 v 0 h 1 v 0 h 1 v 0 h 1 1 v 0 h 1 v 0 h 1 v 0 h 1 v 1 h 1 v 0 h 1 v 0 h 1 v 0 h 1 1 v 0 h 1 v 0 h 1 v 0 h 1 v 0 h 1 v 0 h 1 v 0 h 1 v 0 h 1 1 v 0 h 1 v 0 h 1 v 0 h 1 v 0 h 1 v 0 h 1 v 0 h 1 v 0 h 1 1 v 0 h 1 v 0 l 1,1 v 0 h 1 v 0 h 1 v 0 h 1 v 0 h 1 v 0 h 1 v 0 h 1 1 v 0 h 1 v 0 h 1 v 0 h 1 v 0 h 1 v 0 h 1 v 0 h 1 v 0 h 1 1 v 0 h 1 v 0 h 1 v 0 h 1 v 0 h 1 v 0 h 1 v 0 h 1 v 0 h 1 l 1,1 v 0 h 1 v 0 h 1 v 0 h 1 v 0 h 1 v 0 h 1 v 0 h 1 v 0 h 1 1 v 0 h 1 v 0 h 1 v 0 h 1 v 0 h 1 v 0 h 1 v 0 h 1 v 0 h 1 1 v 0 h 1 v 0 h 1 v 0 h 1 v 0 h 1 v 0 h 1 v 0 h 1 v 1 h 1 1 v 0 h 1 v 0 h 1 v 0 h 1 v 0 h 1 v 0 h 1 v 0 h 1 v 0 h 1 v 0 h 1 1 v 0 h 1 v 0 h 1 v 0 h 1 v 0 h 1 v 0 h 1 v 0 h 1 v 0 h 1 1 v 0 h 1 v 0 h 1 v 0 h 1 v 0 h 1 v 0 l 1,1 v 0 h 1 v 0 h 1 1 v 0 h 1 v 0 h 1 v 0 h 1 v 0 h 1 v 0 h 1 v 0 h 1 v 0 h 1 1 v 0 h 1 v 0 h 1 v 0 h 1 v 0 h 1 v 0 h 1 v 0 h 1 v 0 h 1 1 v 0 h 1 v 0 h 1 v 0 h 1 v 0 h 1 v 0 h 1 v 1 h 1 v 0 h 1 1 v 0 h 1 v 0 h 1 v 0 h 1 v 0 h 1 v 0 h 1 v 0 h 1 v 0 h 1 1 v 0 h 1 v 0 h 1 v 0 h 1 v 0 h 1 v 0 h 1 v 0 h 1 v 0 h 1 v 0 h 1 1 v 0 h 1 v 0 h 1 v 0 h 1 v 0 h 1 v 0 h 1 v 1 h 1 v 0 h 1 1 v 0 h 1 v 0 h 1 v 0 h 1 v 0 h 1 v 0 h 1 v 0 h 1 v 0 h 1 1 v 0 h 1 v 0 h 1 v 0 h 1 v 0 h 1 v 0 h 1 v 0 h 1 v 0 h 1 1 v 0 h 1 v 0 h 1 v 0 h 1 v 0 h 1 v 0 h 1 v 0 h 1 v 1 h 1 1 v 0 h 1 v 0 h 1 v 0 h 1 v 0 h 1 v 0 h 1 v 0 h 1 v 0 h 1 1 v 0 h 1 v 0 h 1 v 0 h 1 v 0 h 1 v 0 h 1 v 0 h 1 v 0 h 1 v 0 h 1 1 v 0 h 1 v 0 h 1 v 0 h 1 v 0 h 1 v 0 h 1 v 0 h 1 v 0 l 1,1 h 1 v 0 h 1 v 0 h 1 v 0 h 1 v 0 h 1 v 0 h 1 v 0 h 1 v 0 h 1 1 v 0 h 1 v 0 h 1 v 0 h 1 v 0 h 1 v 0 h 1 v 0 h 1 v 0 h 1 1 v 0 h 1 v 0 h 1 v 0 h 1 v 0 h 1 v 0 h 1 v 0 h 1 v 0 h 1 1 v 0 l 1,1 v 0 h 1 v 0 h 1 v 0 h 1 v 0 h 1 v 0 h 1 v 0 h 1 1 v 0 h 1 v 0 h 1 v 0 h 1 v 0 h 1 v 0 h 1 v 0 h 1 v 0 h 1 1 v 0 h 1 v 0 h 1 v 0 h 1 v 0 h 1 v 0 h 1 v 0 h 1 v 0 h 1 v 0 h 1 1 v 0 h 1 v 1 h 1 v 0 h 1 v 0 h 1 v 0 h 1 v 0 h 1 v 0 h 1 1 v 0 h 1 v 0 h 1 v 0 h 1 v 0 h 1 v 0 h 1 v 0 h 1 v 0 h 1 1 v 0 h 1 v 0 h 1 v 0 h 1 v 0 h 1 v 0 h 1 v 0 h 1 v 0 h 1 1 v 0 h 1 v 0 h 1 v 0 h 1 v 0 l 1,1 v 0 h 1 v 0 h 1 v 0 h 1 1 v 0 h 1 v 0 h 1 v 0 h 1 v 0 h 1 v 0 h 1 v 0 h 1 v 0 h 1 1 v 0 h 1 v 0 h 1 v 0 h 1 v 0 h 1 v 0 h 1 v 0 h 1 v 0 h 1 1 v 0 h 1 v 0 h 1 v 0 h 1 v 0 h 1 v 0 h 1 v 0 l 1,1 v 0 h 1 v 0 h 1 1 v 0 h 1 v 0 h 1 v 0 h 1 v 0 h 1 v 0 h 1 v 0 h 1 v 0 h 1 1 v 0 h 1 v 0 h 1 v 0 h 1 v 0 h 1 v 0 h 1 v 0 h 1 v 0 h 1 1 v 0 h 1 v 0 h 1 v 0 h 1 v 0 h 1 v 0 h 1 v 0 h 1 v 0 h 1 l 1,1 v 0 h 1 v 0 h 1 v 0 h 1 v 0 h 1 v 0 h 1 v 0 h 1 v 0 h 1 1 v 0 h 1 v 0 h 1 v 0 h 1 v 0 h 1 v 0 h 1 v 0 h 1 v 0 h 1 1 v 0 h 1 v 0 h 1 v 0 h 1 v 0 h 1 v 0 h 1 v 0 h 1 v 0 h 1 v 0 h 1 1 v 0 h 1 v 1 h 1 v 0 h 1 v 0 h 1 v 0 h 1 v 0 h 1 v 0 h 1 1 v 0 h 1 v 0 h 1 v 0 h 1 v 0 h 1 v 0 h 1 v 0 h 1 v 0 h 1 1 v 0 h 1 v 0 h 1 v 0 h 1 v 0 h 1 v 0 h 1 v 0 h 1 v 0 h 1 1 v 0 h 1 v 0 h 1 v 0 h 1 v 0 l 1,1 v 0 h 1 v 0 h 1 v 0 h 1 1 v 0 h 1 v 0 h 1 v 0 h 1 v 0 h 1 v 0 h 1 v 0 h 1 v 0 h 1 1 v 0 h 1 v 0 h 1 v 0 h 1 v 0 h 1 v 0 h 1 v 0 h 1 v 0 h 1 1 v 0 h 1 v 0 h 1 v 0 h 1 v 0 h 1 v 0 h 1 v 0 h 1 v 0 l 1,1 v 0 h 1 1 v 0 h 1 v 0 h 1 v 0 h 1 v 0 h 1 v 0 h 1 v 0 h 1 v 0 h 1 1 v 0 h 1 v 0 h 1 v 0 h 1 v 0 h 1 v 0 h 1 v 0 h 1 v 0 h 1 1 v 0 h 1 v 0 h 1 v 0 h 1 v 0 h 1 v 0 h 1 v 0 h 1 v 0 h 1 1 v 0 l 1,1 v 0 h 1 v 0 h 1 v 0 h 1 v 0 h 1 v 0 h 1 v 0 h 1 1 v 0 h 1 v 0 h 1 v 0 h 1 v 0 h 1 v 0 h 1 v 0 h 1 v 0 h 1 1 v 0 h 1 v 0 h 1 v 0 h 1 v 0 h 1 v 0 h 1 v 0 h 1 v 0 h 1 1 v 0 h 1 v 0 h 1 v 0 h 1 v 0 l 1,1 v 0 h 1 v 0 h 1 v 0 h 1 v 0 h 1 1 v 0 h 1 v 0 h 1 v 0 h 1 v 0 h 1 v 0 h 1 v 0 h 1 v 0 h 1 1 v 0 h 1 v 0 h 1 v 0 h 1 v 0 h 1 v 0 h 1 v 0 h 1 v 0 h 1 1 v 0 h 1 v 0 h 1 v 0 h 1 v 0 h 1 v 0 h 1 v 0 l 1,1 v 0 h 1 1 v 0 h 1 v 0 h 1 v 0 h 1 v 0 h 1 v 0 h 1 v 0 h 1 v 0 h 1 1 v 0 h 1 v 0 h 1 v 0 h 1 v 0 h 1 v 0 h 1 v 0 h 1 v 0 h 1 1 v 0 h 1 v 0 h 1 v 0 h 1 v 0 h 1 v 0 h 1 v 0 h 1 v 0 h 1 v 0 h 1 1 v 1 h 1 v 0 h 1 v 0 h 1 v 0 h 1 v 0 h 1 v 0 h 1 v 0 h 1 1 v 0 h 1 v 0 h 1 v 0 h 1 v 0 h 1 v 0 h 1 v 0 h 1 v 0 h 1 1 v 0 h 1 v 0 h 1 v 0 h 1 v 0 h 1 v 0 h 1 v 0 h 1 v 0 h 1 1 v 0 h 1 v 0 h 1 v 0 h 1 v 1 h 1 v 0 h 1 v 0 h 1 v 0 h 1 1 v 0 h 1 v 0 h 1 v 0 h 1 v 0 h 1 v 0 h 1 v 0 h 1 v 0 h 1 1 v 0 h 1 v 0 h 1 v 0 h 1 v 0 h 1 v 0 h 1 v 0 h 1 v 0 h 1 1 v 0 h 1 v 0 h 1 v 0 h 1 v 0 h 1 v 0 h 1 v 0 h 1 v 1 h 1 v 0 h 1 1 v 0 h 1 v 0 h 1 v 0 h 1 v 0 h 1 v 0 h 1 v 0 h 1 v 0 h 1 1 v 0 h 1 v 0 h 1 v 0 h 1 v 0 h 1 v 0 h 1 v 0 h 1 v 0 h 1 1 v 0 h 1 v 0 h 1 v 0 h 1 v 0 h 1 v 0 h 1 v 0 h 1 v 0 h 1 1 v 0 l 1,1 v 0 h 1 v 0 h 1 v 0 h 1 v 0 h 1 v 0 h 1 v 0 h 1 1 v 0 h 1 v 0 h 1 v 0 h 1 v 0 h 1 v 0 h 1 v 0 h 1 v 0 h 1 1 v 0 h 1 v 0 h 1 v 0 h 1 v 0 h 1 v 0 h 1 v 0 h 1 v 0 h 1 1 v 0 h 1 v 0 h 1 v 0 h 1 v 0 l 1,1 v 0 h 1 v 0 h 1 v 0 h 1 v 0 h 1 1 v 0 h 1 v 0 h 1 v 0 h 1 v 0 h 1 v 0 h 1 v 0 h 1 v 0 h 1 1 v 0 h 1 v 0 h 1 v 0 h 1 v 0 h 1 v 0 h 1 v 0 h 1 v 0 h 1 1 v 0 h 1 v 0 h 1 v 0 h 1 v 0 h 1 v 0 h 1 v 0 l 1,1 v 0 h 1 1 v 0 h 1 v 0 h 1 v 0 h 1 v 0 h 1 v 0 h 1 v 0 h 1 v 0 h 1 1 v 0 h 1 v 0 h 1 v 0 h 1 v 0 h 1 v 0 h 1 v 0 h 1 v 0 h 1 1 v 0 h 1 v 0 h 1 v 0 h 1 v 0 h 1 v 0"
           stroke="#70ad47"
           stroke-width="2"
           stroke-linecap="round"
           stroke-linejoin="round"
           stroke-miterlimit="10"
           fill="none"
           id="path1225" />
      </g>
      <g
         clip-path="url(#clip9)"
         id="g1231">
        <path
           d="m 721,433 v 1 l 1,11 v 17 l 1,4 v 4 l 1,2 v 2 l 1,1 v 2 l 1,1 1,1 v 1 l 1,1 v 1 l 1,1 v 1 l 1,1 v 0 l 1,1 v 1 h 1 v 1 l 1,1 v 0 l 1,1 h 1 v 1 h 1 v 1 h 1 v 1 h 1 v 0 l 1,1 v 0 l 1,1 v 0 h 1 v 1 h 1 l 1,1 v 0 h 1 v 1 h 1 v 0 l 1,1 v 0 h 1 v 1 h 1 v 0 l 1,1 v 0 h 1 1 v 1 h 1 v 0 l 1,1 v 0 h 1 v 0 l 1,1 v 0 h 1 v 0 l 1,1 v 0 h 1 1 v 1 h 1 v 0 h 1 v 1 h 1 v 0 h 1 v 0 l 1,1 v 0 h 1 v 0 h 1 v 1 h 1 1 v 0 l 1,1 v 0 h 1 v 0 h 1 v 0 l 1,1 v 0 h 1 v 0 h 1 v 1 h 1 1 v 0 h 1 v 0 l 1,1 v 0 h 1 v 0 h 1 v 0 l 1,1 v 0 h 1 v 0 h 1 1 v 1 h 1 v 0 h 1 v 0 h 1 v 0 l 1,1 v 0 h 1 v 0 h 1 v 0 h 1 l 1,1 v 0 h 1 v 0 h 1 v 0 h 1 v 1 h 1 v 0 h 1 v 0 h 1 v 0 h 1 l 1,1 v 0 h 1 v 0 h 1 v 0 h 1 v 0 h 1 v 1 h 1 v 0 h 1 v 0 h 1 1 v 0 h 1 v 1 h 1 v 0 h 1 v 0 h 1 v 0 h 1 v 0 l 1,1 v 0 h 1 v 0 h 1 1 v 0 h 1 v 0 h 1 v 0 l 1,1 v 0 h 1 v 0 h 1 v 0 h 1 v 0 h 1 1 v 0 l 1,1 v 0 h 1 v 0 h 1 v 0 h 1 v 0 h 1 v 0 h 1 v 0 h 1 l 1,1 v 0 h 1 v 0 h 1 v 0 h 1 v 0 h 1 v 0 h 1 v 0 h 1 v 0 l 1,1 h 1 v 0 h 1 v 0 h 1 v 0 h 1 v 0 h 1 v 0 h 1 v 0 h 1 v 0 l 1,1 h 1 v 0 h 1 v 0 h 1 v 0 h 1 v 0 h 1 v 0 h 1 v 0 h 1 v 0 h 1 1 v 1 h 1 v 0 h 1 v 0 h 1 v 0 h 1 v 0 h 1 v 0 h 1 v 0 h 1 1 v 0 h 1 v 0 h 1 v 1 h 1 v 0 h 1 v 0 h 1 v 0 h 1 v 0 h 1 v 0 h 1 1 v 0 h 1 v 0 h 1 v 0 h 1 v 0 h 1 v 0 h 1 v 0 h 1 v 1 h 1 1 v 0 h 1 v 0 h 1 v 0 h 1 v 0 h 1 v 0 h 1 v 0 h 1 v 0 h 1 1 v 0 h 1 v 0 h 1 v 0 h 1 v 0 h 1 v 0 h 1 v 0 h 1 v 0 h 1 1 v 0 h 1 v 0 h 1 v 0 h 1 v 0 h 1 v 0 h 1 v 0 h 1 v 0 h 1 1 v 0 l 1,1 v 0 h 1 v 0 h 1 v 0 h 1 v 0 h 1 v 0 h 1 v 0 h 1 1 v 0 h 1 v 0 h 1 v 0 h 1 v 0 h 1 v 0 h 1 v 0 h 1 v 0 h 1 v 0 h 1 1 v 0 h 1 v 0 h 1 v 0 h 1 v 0 h 1 v 0 h 1 v 0 h 1 v 0 h 1 1 v 0 h 1 v 0 h 1 v 0 h 1 v 0 h 1 v 0 h 1 v 0 h 1 v 0 h 1 1 v 0 h 1 v 0 h 1 v 0 h 1 v 0 h 1 v 0 h 1 v 0 h 1 v 0 h 1 1 v 0 h 1 v 0 h 1 v 0 h 1 v 0 h 1 v 0 h 1 v 0 h 1 v 0 h 1 1 v 0 h 1 v 0 h 1 v 0 h 1 v 0 h 1 v 0 h 1 v 0 h 1 v 0 h 1 1 v 0 h 1 v 0 h 1 v 0 h 1 v 0 h 1 v 0 h 1 v 1 h 1 v 0 h 1 1 v 0 h 1 v 0 h 1 v 0 h 1 v 0 h 1 v 0 h 1 v 0 h 1 v 0 h 1 v 0 h 1 1 v 0 h 1 v 0 h 1 v 0 h 1 v 0 h 1 v 0 h 1 v 0 h 1 v 0 h 1 1 v 0 h 1 v 0 h 1 v 0 h 1 v 0 h 1 v 0 h 1 v 0 h 1 v 0 h 1 1 v 0 h 1 v 0 h 1 v 0 h 1 v 0 h 1 v 0 h 1 v 0 h 1 v 1 h 1 1 v 0 h 1 v 0 h 1 v 0 h 1 v 0 h 1 v 0 h 1 v 0 h 1 v 0 h 1 1 v 0 h 1 v 0 h 1 v 0 h 1 v 0 h 1 v 0 h 1 v 0 h 1 v 0 h 1 1 v 0 h 1 v 0 h 1 v 0 h 1 v 0 h 1 v 0 h 1 v 0 h 1 v 0 h 1 1 v 0 l 1,1 v 0 h 1 v 0 h 1 v 0 h 1 v 0 h 1 v 0 h 1 v 0 h 1 v 0 h 1 1 v 0 h 1 v 0 h 1 v 0 h 1 v 0 h 1 v 0 h 1 v 0 h 1 v 0 h 1 1 v 0 h 1 v 0 h 1 v 0 h 1 v 0 l 1,1 v 0 h 1 v 0 h 1 v 0 h 1 1 v 0 h 1 v 0 h 1 v 0 h 1 v 0 h 1 v 0 h 1 v 0 h 1 v 0 h 1 1 v 0 h 1 v 0 h 1 v 0 h 1 v 0 h 1 v 0 l 1,1 v 0 h 1 v 0 h 1 1 v 0 h 1 v 0 h 1 v 0 h 1 v 0 h 1 v 0 h 1 v 0 h 1 v 0 h 1 1 v 0 h 1 v 0 h 1 v 0 h 1 v 1 h 1 v 0 h 1 v 0 h 1 v 0 h 1 v 0 h 1 1 v 0 h 1 v 0 h 1 v 0 h 1 v 0 h 1 v 0 h 1 v 0 h 1 v 0 h 1 l 1,1 v 0 h 1 v 0 h 1 v 0 h 1 v 0 h 1 v 0 h 1 v 0 h 1 v 0 h 1 1 v 0 h 1 v 0 h 1 v 0 h 1 v 0 l 1,1 v 0 h 1 v 0 h 1 v 0 h 1 1 v 0 h 1 v 0 h 1 v 0 h 1 v 0 h 1 v 0 h 1 v 0 h 1 v 0 h 1 l 1,1 v 0 h 1 v 0 h 1 v 0 h 1 v 0 h 1 v 0 h 1 v 0 h 1 v 0 h 1 1 v 0 h 1 v 0 h 1 v 0 h 1 v 1 h 1 v 0 h 1 v 0 h 1 v 0 h 1 1 v 0 h 1 v 0 h 1 v 0 h 1 v 0 h 1 v 0 h 1 v 0 h 1 v 1 h 1 v 0 h 1 1 v 0 h 1 v 0 h 1 v 0 h 1 v 0 h 1 v 0 h 1 v 0 h 1 v 0 h 1 1 v 0 l 1,1 v 0 h 1 v 0 h 1 v 0 h 1 v 0 h 1 v 0 h 1 v 0 h 1 1 v 0 h 1 v 0 h 1 v 0 h 1 v 1 h 1 v 0 h 1 v 0 h 1 v 0 h 1 1 v 0 h 1 v 0 h 1 v 0 h 1 v 0 h 1 v 0 h 1 v 1 h 1 v 0 h 1 1 v 0 h 1 v 0 h 1 v 0 h 1 v 0 h 1 v 0 h 1 v 0 h 1 v 0 h 1 l 1,1 v 0 h 1 v 0 h 1 v 0 h 1 v 0 h 1 v 0 h 1 v 0 h 1 v 0 h 1 1 v 0 h 1 v 0 l 1,1 v 0 h 1 v 0 h 1 v 0 h 1 v 0 h 1 v 0 h 1 v 0 h 1 1 v 0 h 1 v 0 h 1 v 1 h 1 v 0 h 1 v 0 h 1 v 0 h 1 v 0 h 1 1 v 0 h 1 v 0 h 1 v 0 h 1 v 0 l 1,1 v 0 h 1 v 0 h 1 v 0 h 1 1 v 0 h 1 v 0 h 1 v 0 h 1 v 0 h 1 v 0 h 1 v 0 l 1,1 v 0 h 1 1 v 0 h 1 v 0 h 1 v 0 h 1 v 0 h 1 v 0 h 1 v 0 h 1 v 0 h 1 l 1,1 v 0 h 1 v 0 h 1 v 0 h 1 v 0 h 1 v 0 h 1 v 0 h 1 v 0 h 1 1 v 0 h 1 v 0 l 1,1 v 0 h 1 v 0 h 1 v 0 h 1 v 0 h 1 v 0 h 1 v 0 h 1 1 v 0 h 1 v 0 h 1 v 1 h 1 v 0 h 1 v 0 h 1 v 0 h 1 v 0 h 1 1 v 0 h 1 v 0 h 1 v 0 h 1 v 0 h 1 v 1 h 1 v 0 h 1 v 0 h 1 1 v 0 h 1 v 0 h 1 v 0 h 1 v 0 h 1 v 0 h 1 v 0 h 1 v 1 h 1 1 v 0 h 1 v 0 h 1 v 0 h 1 v 0 h 1 v 0 h 1 v 0 h 1 v 0 h 1 1 v 0 l 1,1 v 0 h 1 v 0 h 1 v 0 h 1 v 0 h 1 v 0 h 1 v 0 h 1 1 v 0 h 1 v 0 h 1 v 0 l 1,1 v 0 h 1 v 0 h 1 v 0 h 1 v 0 h 1 1 v 0 h 1 v 0 h 1 v 0 h 1 v 0 h 1 v 1 h 1 v 0 h 1 v 0 h 1 v 0 h 1 1 v 0 h 1 v 0 h 1 v 0 h 1 v 0 h 1 v 0 l 1,1 v 0 h 1 v 0 h 1 1 v 0 h 1 v 0 h 1 v 0 h 1 v 0 h 1 v 0 h 1 v 0 h 1 v 0 l 1,1 h 1 v 0 h 1 v 0 h 1 v 0 h 1 v 0 h 1 v 0 h 1 v 0 h 1 v 0 h 1 1 v 0 l 1,1 v 0 h 1 v 0 h 1 v 0 h 1 v 0 h 1 v 0 h 1 v 0 h 1 1 v 0 h 1 v 0 h 1 v 0 l 1,1 v 0 h 1 v 0 h 1 v 0 h 1 v 0 h 1 1 v 0 h 1 v 0 h 1 v 0 h 1 v 0 h 1 v 0 l 1,1 v 0 h 1 v 0 h 1 1 v 0 h 1 v 0 h 1 v 0 h 1 v 0 h 1 v 0 h 1 v 0 h 1 v 0 h 1 v 1 h 1 1 v 0 h 1 v 0 h 1 v 0 h 1 v 0 h 1 v 0 h 1 v 0 h 1 v 0 h 1 1 v 0 h 1 v 0 l 1,1 v 0 h 1 v 0 h 1 v 0 h 1 v 0 h 1 v 0 h 1 1 v 0 h 1 v 0 h 1 v 0 h 1 v 0 h 1 v 1 h 1 v 0 h 1 v 0 h 1 1 v 0 h 1 v 0 h 1 v 0 h 1 v 0 h 1 v 0 h 1 v 0 h 1 v 0 l 1,1 h 1 v 0 h 1 v 0 h 1 v 0 h 1 v 0 h 1 v 0 h 1 v 0 h 1 v 0 h 1 1 v 0 h 1 v 0 l 1,1 v 0 h 1 v 0 h 1 v 0 h 1 v 0 h 1 v 0 h 1 v 0 h 1 1 v 0 h 1 v 0 h 1 v 0 h 1 v 1 h 1 v 0 h 1 v 0 h 1 v 0 h 1 1 v 0 h 1 v 0 h 1 v 0 h 1 v 0 h 1 v 0 h 1 v 1 h 1 v 0 h 1 1 v 0 h 1 v 0 h 1 v 0 h 1 v 0 h 1 v 0 h 1 v 0 h 1 v 0 h 1 1 v 0 l 1,1 v 0 h 1 v 0 h 1 v 0 h 1 v 0 h 1 v 0 h 1 v 0 h 1 1 v 0 h 1 v 0 h 1 v 0 h 1 v 1 h 1 v 0 h 1 v 0 h 1 v 0 h 1 1 v 0 h 1 v 0 h 1 v 0 h 1 v 0 h 1 v 0 h 1 v 0 h 1 v 0 l 1,1 h 1 v 0 h 1 v 0 h 1 v 0 h 1 v 0 h 1 v 0 h 1 v 0 h 1 v 0 h 1 v 0 h 1 1 v 0 h 1 v 0 h 1 v 1 h 1 v 0 h 1 v 0 h 1 v 0 h 1 v 0 h 1 1 v 0 h 1 v 0 h 1 v 0 h 1 v 0 h 1 v 0 h 1 v 0 h 1 v 1 h 1 1 v 0 h 1 v 0 h 1 v 0 h 1 v 0 h 1 v 0 h 1 v 0 h 1 v 0 h 1 1 v 0 h 1 v 0 h 1 v 0 h 1 v 1 h 1 v 0 h 1 v 0 h 1 v 0 h 1 1 v 0 h 1 v 0 h 1 v 0 h 1 v 0 h 1 v 0 h 1 v 0 h 1 v 0 h 1 l 1,1 v 0 h 1 v 0 h 1 v 0 h 1 v 0 h 1 v 0 h 1 v 0 h 1 v 0 h 1 v 0 h 1 1 v 0 h 1 v 0 h 1 v 0 l 1,1 v 0 h 1 v 0 h 1 v 0 h 1 v 0 h 1 1 v 0 h 1 v 0 h 1 v 0 h 1 v 0 h 1 v 0 h 1 v 0 h 1 v 0 l 1,1 h 1 v 0 h 1 v 0 h 1 v 0 h 1 v 0 h 1 v 0 h 1 v 0 h 1 v 0 h 1 1 v 0 h 1 v 0 h 1 v 0 h 1 v 0 l 1,1 v 0 h 1 v 0 h 1 v 0 h 1 1 v 0 h 1 v 0 h 1 v 0 h 1 v 0 h 1 v 0 h 1 v 0 h 1 v 0 h 1 1 v 0 h 1 v 1 h 1 v 0 h 1 v 0 h 1 v 0 h 1 v 0 h 1 v 0 h 1 1 v 0 h 1 v 0 h 1 v 0 h 1 v 0 h 1 v 0 h 1 v 0 h 1 v 0 h 1 v 0 l 1,1 h 1 v 0 h 1 v 0 h 1 v 0 h 1 v 0 h 1 v 0 h 1 v 0 h 1 v 0 h 1 1 v 0 h 1 v 0 h 1 v 0 h 1 v 0 h 1 v 0 h 1 v 0 h 1 v 1 h 1 1 v 0 h 1 v 0 h 1 v 0 h 1 v 0 h 1 v 0 h 1 v 0 h 1 v 0 h 1 1 v 0 h 1 v 0 h 1 v 0 h 1 v 0 h 1 v 0 h 1 v 0 h 1 v 1 h 1 1 v 0 h 1 v 0 h 1 v 0 h 1 v 0 h 1 v 0 h 1 v 0 h 1 v 0 h 1 1 v 0 h 1 v 0 h 1 v 0 h 1 v 0 h 1 v 0 h 1 v 0 l 1,1 v 0 h 1 1 v 0 h 1 v 0 h 1 v 0 h 1 v 0 h 1 v 0 h 1 v 0 h 1 v 0 h 1 v 0 h 1 1 v 0 h 1 v 0 h 1 v 0 h 1 v 0 h 1 v 1 h 1 v 0 h 1 v 0 h 1 1 v 0 h 1 v 0 h 1 v 0 h 1 v 0 h 1 v 0 h 1 v 0 h 1 v 0 h 1 1 v 0 h 1 v 0 h 1 v 0 h 1 v 0 l 1,1 v 0 h 1 v 0 h 1 v 0 h 1 1 v 0 h 1 v 0 h 1 v 0 h 1 v 0 h 1 v 0 h 1 v 0 h 1 v 0 h 1 1 v 0 h 1 v 0 h 1 v 0 h 1 v 0 h 1 v 0 h 1 v 1 h 1 v 0 h 1 1 v 0 h 1 v 0 h 1 v 0 h 1 v 0 h 1 v 0 h 1 v 0 h 1 v 0 h 1 v 0 h 1 1 v 0 h 1 v 0 h 1 v 0 h 1 v 0 h 1 v 0 h 1 v 0 h 1 v 0 l 1,1 h 1 v 0 h 1 v 0 h 1 v 0 h 1 v 0 h 1 v 0 h 1 v 0 h 1 v 0 h 1 1 v 0 h 1 v 0 h 1 v 0 h 1 v 0 h 1 v 0 h 1 v 0 h 1 v 0 h 1 1 v 0 h 1 v 0 h 1 v 0 h 1 v 1 h 1 v 0 h 1 v 0 h 1 v 0 h 1 1 v 0 h 1 v 0 h 1 v 0 h 1 v 0 h 1 v 0 h 1 v 0 h 1 v 0 h 1 1 v 0 h 1 v 0 h 1 v 0 h 1 v 0 h 1 v 0 h 1 v 0 h 1 v 0 h 1 l 1,1 v 0 h 1 v 0 h 1 v 0 h 1 v 0 h 1 v 0 h 1 v 0 h 1 v 0 h 1 v 0 h 1 1 v 0 h 1 v 0 h 1 v 0 h 1 v 0 h 1 v 0 h 1 v 0 h 1 v 0 h 1 1 v 0 h 1 v 0 l 1,1 v 0 h 1 v 0 h 1 v 0 h 1 v 0 h 1 v 0 h 1 1 v 0 h 1 v 0 h 1 v 0 h 1 v 0 h 1 v 0 h 1 v 0 h 1 v 0 h 1 1 v 0 h 1 v 0 h 1 v 0 h 1 v 0 h 1 v 0 h 1 v 0 l 1,1 v 0 h 1 1 v 0 h 1 v 0 h 1 v 0 h 1 v 0 h 1 v 0 h 1 v 0 h 1 v 0 h 1 1 v 0 h 1 v 0 h 1 v 0 h 1 v 0 h 1 v 0 h 1 v 0 h 1 v 0 h 1 1 v 0 h 1 v 0 h 1 v 0 h 1 v 0 h 1 v 1 h 1 v 0 h 1 v 0 h 1 v 0 h 1 1 v 0 h 1 v 0 h 1 v 0 h 1 v 0 h 1 v 0 h 1 v 0 h 1 v 0 h 1 1 v 0 h 1 v 0 h 1 v 0 h 1 v 0 h 1 v 0 h 1 v 0 h 1 v 0 h 1 1 v 0 h 1 v 0 h 1 v 0 h 1 v 1 h 1 v 0 h 1 v 0 h 1 v 0 h 1 1 v 0 h 1 v 0 h 1 v 0 h 1 v 0 h 1 v 0 h 1 v 0 h 1 v 0 h 1 1 v 0 h 1 v 0 h 1 v 0 h 1 v 0 h 1 v 0 h 1 v 0 h 1 v 0 h 1 1 v 0 h 1 v 0 h 1 v 0 l 1,1 v 0 h 1 v 0 h 1 v 0 h 1 v 0 h 1 v 0 h 1 1 v 0 h 1 v 0 h 1 v 0 h 1 v 0 h 1 v 0 h 1 v 0 h 1 v 0 h 1 1 v 0 h 1 v 0 h 1 v 0 h 1 v 0 h 1 v 0 h 1 v 0 h 1 v 0 h 1 1 v 0 l 1,1 v 0 h 1 v 0 h 1 v 0 h 1 v 0 h 1 v 0 h 1 v 0 h 1 1 v 0 h 1 v 0 h 1 v 0 h 1 v 0 h 1 v 0 h 1 v 0 h 1 v 0 h 1 1 v 0 h 1 v 0 h 1 v 0 h 1 v 0 h 1 v 0 h 1 v 0 h 1 v 0 h 1 1 v 0 l 1,1 v 0 h 1 v 0 h 1 v 0 h 1 v 0 h 1 v 0 h 1 v 0 h 1 1 v 0 h 1 v 0 h 1 v 0 h 1 v 0 h 1 v 0 h 1 v 0 h 1 v 0 h 1 v 0 h 1 1 v 0 h 1 v 0 h 1 v 0 h 1 v 0 h 1 v 0 h 1 v 0 h 1 v 0 h 1 1 v 0 h 1 v 1 h 1 v 0 h 1 v 0 h 1 v 0 h 1 v 0 h 1 v 0 h 1 1 v 0 h 1 v 0 h 1 v 0 h 1 v 0 h 1 v 0 h 1 v 0 h 1 v 0 h 1 1 v 0 h 1 v 0 h 1 v 0 h 1 v 0 h 1 v 0 h 1 v 0 h 1 v 0 h 1 1 v 0 h 1 v 0 h 1 v 0 h 1 v 1 h 1 v 0 h 1 v 0 h 1 v 0 h 1 1 v 0 h 1 v 0 h 1 v 0 h 1 v 0 h 1 v 0 h 1 v 0 h 1 v 0 h 1 v 0 h 1 1 v 0 h 1 v 0 h 1 v 0 h 1 v 0 h 1 v 0 h 1 v 0 h 1 v 0 h 1 1 v 0 h 1 v 0 h 1 v 0 h 1 v 1 h 1 v 0 h 1 v 0 h 1 v 0 h 1 1 v 0 h 1 v 0 h 1 v 0 h 1 v 0 h 1 v 0 h 1 v 0 h 1 v 0 h 1 1 v 0 h 1 v 0 h 1 v 0 h 1 v 0 h 1 v 0 h 1 v 0 h 1 v 0 h 1 1 v 0 h 1 v 0 h 1 v 0 h 1 v 0 h 1 v 0 l 1,1 v 0 h 1 v 0 h 1 1 v 0 h 1 v 0 h 1 v 0 h 1 v 0 h 1 v 0 h 1 v 0 h 1 v 0 h 1 1 v 0 h 1 v 0 h 1 v 0 h 1 v 0 h 1 v 0 h 1 v 0 h 1 v 0 h 1 v 0 h 1 1 v 0 h 1 v 0 h 1 v 0 h 1 v 0 h 1 v 0 h 1 v 0 h 1 v 0 l 1,1 h 1 v 0 h 1 v 0 h 1 v 0 h 1 v 0 h 1 v 0 h 1 v 0 h 1 v 0 h 1 1 v 0 h 1 v 0 h 1 v 0 h 1 v 0 h 1 v 0 h 1 v 0 h 1 v 0 h 1 1 v 0 h 1 v 0 h 1 v 0 h 1 v 0 h 1 v 0 h 1 v 0 h 1 v 0 h 1 1 v 0 h 1 v 0 l 1,1 v 0 h 1 v 0 h 1 v 0 h 1 v 0 h 1 v 0 h 1 1 v 0 h 1 v 0 h 1 v 0 h 1 v 0 h 1 v 0 h 1 v 0 h 1 v 0 h 1 1 v 0 h 1 v 0 h 1 v 0 h 1 v 0 h 1 v 0 h 1 v 0 h 1 v 0 h 1 v 0 h 1 1 v 0 h 1 v 0 h 1 v 0 h 1 v 1 h 1 v 0 h 1 v 0 h 1 v 0 h 1 1 v 0 h 1 v 0 h 1 v 0 h 1 v 0 h 1 v 0 h 1 v 0 h 1 v 0 h 1 1 v 0 h 1 v 0 h 1 v 0 h 1 v 0 h 1 v 0 h 1 v 0 h 1 v 0 h 1 1 v 0 h 1 v 0 h 1 v 0 h 1 v 0 h 1 v 0 h 1 v 0 l 1,1 v 0 h 1 1 v 0 h 1 v 0 h 1 v 0 h 1 v 0 h 1 v 0 h 1 v 0 h 1 v 0 h 1 1 v 0 h 1 v 0 h 1 v 0 h 1 v 0 h 1 v 0 h 1 v 0 h 1 v 0 h 1 v 0 h 1 1 v 0 h 1 v 0 h 1 v 0 h 1 v 0 h 1 v 0 h 1 v 0 h 1 v 0 h 1 1 v 0 l 1,1 v 0 h 1 v 0 h 1 v 0 h 1 v 0 h 1 v 0 h 1 v 0 h 1 1 v 0 h 1 v 0 h 1 v 0 h 1 v 0 h 1 v 0 h 1 v 0 h 1 v 0 h 1 1 v 0 h 1 v 0 h 1 v 0 h 1 v 0 h 1 v 0 h 1 v 0 h 1 v 0 h 1 1 v 0 h 1 v 0 h 1 v 0 h 1 v 0 l 1,1 v 0 h 1 v 0 h 1 v 0 h 1 1 v 0 h 1 v 0 h 1 v 0 h 1 v 0 h 1 v 0 h 1 v 0 h 1 v 0 h 1 1 v 0 h 1 v 0 h 1 v 0 h 1 v 0 h 1 v 0 h 1 v 0 h 1 v 0 h 1 v 0 h 1 1 v 0 h 1 v 0 h 1 v 0 h 1 v 0 h 1 v 0 h 1 v 0 l 1,1 v 0 h 1 1 v 0 h 1 v 0 h 1 v 0 h 1 v 0 h 1 v 0 h 1 v 0 h 1 v 0 h 1 1 v 0 h 1 v 0 h 1 v 0 h 1 v 0 h 1 v 0 h 1 v 0 h 1 v 0 h 1 1 v 0 h 1 v 0 h 1 v 0 h 1 v 0 h 1 v 0 h 1 v 0 h 1 v 0 h 1 1 v 0 h 1 v 1 h 1 v 0 h 1 v 0"
           stroke="#4472c4"
           stroke-width="2"
           stroke-linecap="round"
           stroke-linejoin="round"
           stroke-miterlimit="10"
           fill="none"
           id="path1229" />
      </g>
      <g
         clip-path="url(#clip10)"
         id="g1235">
        <path
           d="m 721,673 v -63 l 1,39 v 2 l 1,-8 v 2 l 1,3 v 14 l 1,-3 v 8 l 1,-17 1,3 v -5 l 1,2 v 20 l 1,-11 v -4 l 1,5 v 13 l 1,-16 v 17 l 1,-14 v -1 l 1,3 v -5 l 1,-3 1,10 v 4 l 1,-8 v 19 l 1,-9 v 14 l 1,-24 v 4 l 1,-4 v 6 l 1,6 v -7 l 1,-2 v 1 l 1,1 1,9 v -3 l 1,2 v 16 l 1,-11 v 7 l 1,-24 v 14 l 1,8 v -19 l 1,11 v -2 l 1,3 v -2 l 1,-6 1,9 v -1 l 1,20 v -20 l 1,2 v -10 l 1,2 v 21 l 1,-10 v 1 l 1,-2 v -8 l 1,24 v -16 l 1,5 1,-1 v 8 l 1,-10 v 3 l 1,-7 v 23 l 1,-10 v 7 l 1,-3 v 4 l 1,-9 v 13 l 1,-4 v 4 l 1,-12 v -8 l 1,-1 1,6 v -4 l 1,-5 v 5 l 1,-2 v 0 l 1,8 v -13 l 1,13 v 14 l 1,-27 v 7 l 1,-10 v -1 l 1,8 1,-3 v 4 l 1,-8 v 6 l 1,-3 v 8 l 1,6 v -11 l 1,4 v -8 l 1,14 v -13 l 1,19 v -7 l 1,-7 1,11 v -8 l 1,-3 v 9 l 1,-5 v -12 l 1,11 v -12 l 1,15 v -13 l 1,8 v -4 l 1,11 v 2 l 1,-6 1,-8 v 4 l 1,9 v -17 l 1,12 v -7 l 1,1 v -6 l 1,16 v 1 l 1,-8 v 13 l 1,-7 v 4 l 1,-3 1,-4 v -5 l 1,-3 v -1 l 1,6 v 3 l 1,-16 v 10 l 1,4 v -9 l 1,-4 v 10 l 1,-5 v -5 l 1,6 1,-1 v 5 l 1,-1 v -3 l 1,22 v -18 l 1,-5 v 15 l 1,-11 v -4 h 1 v 5 l 1,20 v -31 l 1,-2 v 25 l 1,-13 1,-5 v -4 l 1,19 v -1 l 1,-1 v 3 l 1,-16 v -8 l 1,24 v -13 l 1,-1 v 15 l 1,-18 v -2 l 1,5 1,3 v 3 l 1,-9 v 16 l 1,-1 v -17 h 1 v 9 l 1,8 v -1 l 1,2 v -16 l 1,-9 v 4 l 1,15 1,-15 v 0 l 1,11 v 1 l 1,-7 v 10 l 1,-12 v -4 l 1,25 v -20 l 1,-3 v -3 l 1,15 v -11 l 1,-8 1,2 v 9 l 1,-6 v -8 l 1,14 v -11 l 1,31 v -25 l 1,-12 v 6 l 1,-6 v 26 l 1,-18 v 5 l 1,1 1,-2 v -12 l 1,1 v 5 l 1,8 v -13 l 1,10 v 0 l 1,-9 v 6 l 1,2 v -2 l 1,46 v -2 l 1,-7 1,1 v 0 l 1,-4 v 12 h 1 v -1 l 1,-2 v 4 l 1,-14 v 3 l 1,1 v 0 l 1,-4 v 1 h 1 l 1,10 v -5 h 1 v 0 l 1,-7 v 0 l 1,10 v -4 l 1,1 v -8 l 1,18 v -2 l 1,-7 v 0 l 1,8 v -13 l 1,-3 1,14 v -15 l 1,-1 v 12 l 1,-8 v 13 l 1,1 v -15 l 1,8 v 7 l 1,-14 v 1 l 1,11 v 1 l 1,-3 1,-11 v 9 l 1,5 v -20 l 1,15 v 1 l 1,-15 v 5 l 1,15 v -10 l 1,7 v 0 l 1,-5 v 7 l 1,-5 1,-11 v 8 l 1,-6 v -1 l 1,8 v -9 l 1,10 v 6 l 1,-13 v 14 l 1,-4 v -10 l 1,-1 v 6 l 1,4 1,-13 v 10 l 1,-4 v -6 l 1,2 v 8 l 1,4 v -15 l 1,19 v -16 l 1,2 v 0 l 1,-6 v 11 l 1,6 1,-5 v -4 l 1,-4 v 12 l 1,-17 v 8 l 1,-1 v 12 l 1,-12 v 0 l 1,15 v 0 l 1,-1 v 0 h 1 1 v 0 h 1 v 0 h 1 v 0 h 1 v 0 h 1 v 0 l 1,1 v 0 l 1,-1 v 0 h 1 v 0 l 1,1 h 1 v 0 l 1,-1 v 0 h 1 v 0 h 1 v 0 h 1 v 0 h 1 v 0 h 1 v 0 h 1 1 v 0 h 1 v 0 h 1 v 0 h 1 v 0 h 1 v 0 h 1 v 0 h 1 v 0 h 1 1 v 0 h 1 v 0 h 1 v 0 h 1 v 0 h 1 v 0 h 1 v 0 h 1 v 0 h 1 1 v 0 h 1 v 0 h 1 v 0 h 1 v 0 h 1 v 0 h 1 v 0 h 1 v 0 h 1 1 v 0 h 1 v 0 h 1 v 0 h 1 v 0 h 1 v 0 h 1 v 0 h 1 v 0 h 1 1 v 0 h 1 v 0 h 1 v 0 h 1 v 0 h 1 v 0 h 1 v 0 h 1 v 0 h 1 1 v 0 h 1 v 0 h 1 v 0 h 1 v 0 h 1 v 0 h 1 v 0 h 1 v 0 h 1 v 0 h 1 1 v 0 h 1 v 0 h 1 v 0 h 1 v 0 h 1 v 0 h 1 v 0 h 1 v 0 h 1 1 v 0 h 1 v 0 h 1 v 0 h 1 v 0 h 1 v 0 h 1 v 0 h 1 v 0 h 1 1 v 0 h 1 v 0 h 1 v 0 h 1 v 0 h 1 v 0 h 1 v 0 h 1 v 0 h 1 1 v 0 h 1 v 0 h 1 v 0 h 1 v 0 h 1 v 0 h 1 v 0 h 1 v 0 h 1 1 v 0 h 1 v 0 h 1 v 0 h 1 v 0 h 1 v 0 h 1 v 0 h 1 v 0 h 1 1 v 0 h 1 v 0 l 1,-1 v 1 h 1 v 0 h 1 v 0 h 1 v 0 h 1 v 0 h 1 1 v 0 h 1 v -1 l 1,1 v 0 h 1 v 0 h 1 v -1 l 1,1 v 0 h 1 v 0 h 1 v 0 h 1 1 v 0 h 1 v -1 l 1,1 v 0 h 1 v 0 h 1 v -1 l 1,1 v -1 h 1 v 1 h 1 1 v 0 h 1 v 0 l 1,-1 v 0 h 1 v 1 h 1 v 0 h 1 v -1 l 1,1 v 0 l 1,-1 1,1 v 0 h 1 v 0 l 1,-1 v 0 h 1 v 1 h 1 v -1 h 1 v 1 l 1,-1 v 0 l 1,1 1,-1 v 1 l 1,-1 v 0 h 1 v 1 l 1,-1 v 0 h 1 v 0 l 1,1 v 0 l 1,-1 v 1 h 1 1 v 0 l 1,-1 v 1 l 1,-1 v 1 l 1,-1 v 0 h 1 v 0 l 1,1 v -1 h 1 v 0 l 1,1 1,-1 v 0 h 1 v 0 h 1 v 1 l 1,-1 v 1 l 1,-1 v 0 l 1,1 v 0 h 1 v -1 h 1 v 0 h 1 l 1,1 v -1 h 1 v 1 h 1 v -1 h 1 v 0 h 1 v 0 h 1 v 1 h 1 v 0 l 1,-1 h 1 v 0 h 1 v 1 l 1,-1 v 0 l 1,1 v 0 h 1 v -1 l 1,1 v 0 h 1 v -1 h 1 1 v 0 l 1,1 v 0 l 1,-1 v 1 h 1 v 0 l 1,-1 v 0 h 1 v 0 h 1 v 0 h 1 1 v 0 h 1 v 0 h 1 v 1 l 1,-1 v 0 h 1 v 0 h 1 v 0 h 1 v 0 h 1 l 1,1 v -1 l 1,1 v 0 l 1,-1 v 0 h 1 v 0 l 1,1 v -1 h 1 v 0 h 1 v 0 h 1 1 v 0 h 1 v 1 h 1 v 0 l 1,-1 v 0 l 1,1 v 0 l 1,-1 v 0 l 1,1 v -1 l 1,1 1,-1 v 1 h 1 v -1 h 1 v 1 h 1 v -1 h 1 v 0 h 1 v 1 l 1,-1 v 0 h 1 v 1 l 1,-1 1,1 v 0 l 1,-1 v 0 l 1,1 v -1 h 1 v 0 h 1 v 1 h 1 v -1 h 1 v 0 h 1 1 v 1 h 1 v 0 l 1,-1 v 1 h 1 v -1 h 1 v 0 h 1 v 0 h 1 v 0 h 1 l 1,1 v -1 h 1 v 0 h 1 v 1 l 1,-1 v 0 h 1 v 0 l 1,1 v -1 h 1 v 0 l 1,1 h 1 v -1 h 1 v 0 h 1 v 0 l 1,1 v -1 h 1 v 1 h 1 v 0 h 1 v -1 l 1,1 1,-1 v 0 h 1 v 0 l 1,1 v 0 h 1 v -1 h 1 v 0 l 1,1 v 0 h 1 v 0 l 1,-1 h 1 v 1 h 1 v -1 h 1 v 1 h 1 v -1 h 1 v 0 h 1 v 0 h 1 v 0 l 1,1 h 1 v -1 l 1,1 v -1 l 1,1 v 0 l 1,-1 v 0 l 1,1 v -1 h 1 v 1 h 1 v 0 l 1,-1 v 0 l 1,1 h 1 v 0 h 1 v -1 l 1,1 v 0 h 1 v 0 h 1 v -1 l 1,1 v -1 l 1,1 v 0 l 1,-1 1,1 v 0 h 1 v 0 h 1 v 0 l 1,-1 v 1 h 1 v 0 h 1 v 0 l 1,-1 v 0 h 1 1 v 1 h 1 v 0 h 1 v 0 h 1 v -1 l 1,1 v 0 l 1,-1 v 1 l 1,-1 v 0 h 1 1 v 1 h 1 v -1 l 1,1 v 0 h 1 v 0 l 1,-1 v 1 h 1 v 0 h 1 v 0 l 1,-1 1,1 v 0 h 1 v -1 l 1,1 v -1 h 1 v 0 h 1 v 0 l 1,1 v -1 h 1 v 1 h 1 1 v -1 l 1,1 v -1 l 1,1 v 0 h 1 v 0 h 1 v -1 l 1,1 v 0 l 1,-1 v 0 l 1,1 v -1 l 1,1 1,-1 v 0 l 1,1 v 0 h 1 v 0 h 1 v 0 h 1 v 0 h 1 v -1 l 1,1 v 0 l 1,-1 1,1 v 0 l 1,-1 v 0 h 1 v 1 h 1 v -1 l 1,1 v 0 h 1 v -1 l 1,1 v 0 h 1 l 1,-1 v 0 h 1 v 0 l 1,1 v 0 h 1 v 0 h 1 v 0 h 1 v -1 l 1,1 v 0 h 1 l 1,-1 v 1 h 1 v 0 h 1 v 0 h 1 v 0 h 1 v 0 l 1,-1 v 1 h 1 v 0 h 1 l 1,-1 v 1 h 1 v 0 h 1 v 0 h 1 v 0 h 1 v 0 h 1 v 0 h 1 v 0 h 1 1 v 0 h 1 v 0 h 1 v -1 l 1,1 v 0 h 1 v 0 h 1 v 0 h 1 v -1 l 1,1 h 1 v -1 h 1 v 1 h 1 v 0 l 1,-1 v 1 h 1 v 0 h 1 v 0 h 1 v -1 l 1,1 v -1 l 1,1 h 1 v -1 h 1 v 1 l 1,-1 v 1 h 1 v -1 l 1,1 v 0 h 1 v 0 h 1 v 0 h 1 1 v 0 h 1 v 0 h 1 v 0 h 1 v 0 l 1,-1 v 1 l 1,-1 v 0 l 1,1 v 0 h 1 1 v 0 h 1 v 0 h 1 v 0 l 1,-1 v 1 h 1 v 0 h 1 v 0 h 1 v -1 l 1,1 h 1 v 0 h 1 v 0 h 1 v 0 h 1 v -1 l 1,1 v 0 h 1 v 0 h 1 v 0 h 1 1 v 0 l 1,-1 v 1 h 1 v 0 h 1 v -1 h 1 v 1 h 1 v 0 h 1 v 0 h 1 1 v 0 l 1,-1 v 1 h 1 v 0 h 1 v 0 h 1 v -1 l 1,1 v 0 l 1,-1 v 1 h 1 1 v 0 h 1 v 0 h 1 v 0 h 1 v -1 l 1,1 v 0 l 1,-1 v 0 l 1,1 v 0 h 1 v 0 h 1 1 v 0 h 1 v 0 h 1 v 0 l 1,-1 v 1 l 1,-1 v 0 l 1,1 v -1 h 1 v 1 l 1,-1 1,1 v 0 h 1 v 0 h 1 v 0 h 1 v 0 h 1 v 0 h 1 v 0 h 1 v 0 h 1 1 v 0 h 1 v 0 l 1,-1 v 1 h 1 v 0 h 1 v 0 h 1 v 0 h 1 v 0 h 1 1 v 0 h 1 v 0 h 1 v -1 l 1,1 v 0 h 1 v 0 h 1 v 0 h 1 v 0 h 1 1 v 0 h 1 v 0 h 1 v 0 h 1 v 0 h 1 v 0 h 1 v 0 h 1 v 0 h 1 1 v 0 h 1 v 0 h 1 v 0 h 1 v 0 h 1 v 0 l 1,-1 v 1 h 1 v -1 l 1,1 v 0 h 1 l 1,-1 v 1 h 1 v 0 l 1,-1 v 1 h 1 v -1 l 1,1 v 0 h 1 v 0 h 1 v 0 h 1 1 v 0 h 1 v 0 h 1 v 0 h 1 v 0 h 1 v -1 l 1,1 v 0 h 1 v 0 h 1 1 v 0 l 1,-1 v 0 h 1 v 0 l 1,1 v 0 h 1 v 0 l 1,-1 v 1 h 1 v 0 h 1 1 v 0 h 1 v 0 h 1 v 0 h 1 v 0 h 1 v 0 h 1 v 0 h 1 v 0 h 1 1 v 0 h 1 v -1 l 1,1 v 0 h 1 v 0 l 1,-1 v 1 h 1 v 0 h 1 v -1 l 1,1 h 1 v 0 h 1 v 0 h 1 v 0 h 1 v 0 h 1 v 0 h 1 v 0 h 1 v 0 h 1 1 v 0 h 1 v 0 l 1,-1 v 0 l 1,1 v 0 h 1 v 0 h 1 v 0 h 1 v 0 h 1 v 0 h 1 1 v 0 h 1 v 0 h 1 v 0 h 1 v 0 h 1 v 0 h 1 v 0 h 1 v 0 h 1 1 v 0 h 1 v 0 h 1 v 0 h 1 v 0 h 1 v 0 h 1 v 0 h 1 v 0 h 1 1 v 0 h 1 v 0 h 1 v 0 l 1,-1 v 1 h 1 v 0 h 1 v 0 h 1 v 0 h 1 l 1,-1 v 1 h 1 v -1 l 1,1 v 0 h 1 v 0 h 1 v 0 l 1,-1 v 1 l 1,-1 v 1 h 1 1 v 0 h 1 v 0 h 1 v 0 h 1 v 0 h 1 v 0 h 1 v 0 h 1 v 0 h 1 1 v 0 h 1 v 0 h 1 v 0 h 1 v 0 h 1 v 0 h 1 v -1 l 1,1 v 0 h 1 v 0 h 1 1 v -1 h 1 v 1 h 1 v 0 h 1 v -1 l 1,1 v 0 h 1 v 0 h 1 v 0 h 1 1 v -1 l 1,1 v 0 h 1 v 0 h 1 v 0 h 1 v 0 h 1 v 0 h 1 v 0 h 1 1 v 0 h 1 v 0 h 1 v 0 h 1 v 0 h 1 v -1 l 1,1 v 0 h 1 v 0 h 1 1 v 0 h 1 v 0 h 1 v 0 h 1 v 0 h 1 v 0 h 1 v 0 h 1 v -1 l 1,1 h 1 v 0 h 1 v 0 h 1 v 0 h 1 v 0 h 1 v 0 h 1 v 0 h 1 v 0 h 1 1 v 0 h 1 v 0 h 1 v 0 h 1 v 0 h 1 v 0 h 1 v 0 h 1 v 0 h 1 1 v 0 h 1 v 0 h 1 v 0 h 1 v 0 h 1 v 0 h 1 v -1 l 1,1 v 0 h 1 v 0 h 1 1 v 0 h 1 v 0 h 1 v 0 h 1 v 0 h 1 v 0 h 1 v 0 h 1 v 0 h 1 1 v 0 h 1 v 0 h 1 v 0 h 1 v 0 h 1 v 0 h 1 v 0 h 1 v 0 h 1 1 v 0 h 1 v 0 h 1 v 0 h 1 v -1 l 1,1 v 0 h 1 v 0 h 1 v 0 h 1 1 v -1 l 1,1 v 0 h 1 v 0 h 1 v 0 h 1 v 0 h 1 v 0 h 1 v 0 l 1,-1 1,1 v 0 h 1 v 0 h 1 v -1 h 1 v 1 h 1 v 0 h 1 v 0 h 1 v 0 h 1 l 1,-1 v 1 h 1 v 0 h 1 v 0 h 1 v 0 h 1 v 0 h 1 v 0 h 1 v 0 h 1 l 1,-1 v 0 l 1,1 v 0 h 1 v 0 l 1,-1 v 1 h 1 v 0 h 1 v 0 h 1 v 0 h 1 v -1 l 1,1 h 1 v 0 h 1 v 0 l 1,-1 v 1 h 1 v 0 h 1 v 0 h 1 v 0 h 1 v 0 h 1 1 v 0 h 1 v 0 l 1,-1 v 1 h 1 v 0 h 1 v 0 h 1 v 0 h 1 v 0 h 1 1 v 0 h 1 v 0 h 1 v 0 h 1 v 0 l 1,-1 v 1 h 1 v 0 h 1 v 0 h 1 1 v 0 h 1 v 0 h 1 v 0 h 1 v 0 h 1 v 0 h 1 v 0 h 1 v 0 h 1 1 v 0 h 1 v 0 l 1,-1 v 1 h 1 v 0 h 1 v 0 h 1 v 0 h 1 v 0 h 1 1 v -1 l 1,1 v 0 h 1 v 0 h 1 v 0 h 1 v 0 h 1 v 0 h 1 v 0 l 1,-1 v 0 l 1,1 h 1 v 0 h 1 v 0 h 1 v 0 h 1 v 0 h 1 v 0 h 1 v 0 h 1 v -1 l 1,1 h 1 v 0 h 1 v 0 h 1 v 0 h 1 v 0 h 1 v 0 h 1 v 0 h 1 v -1 h 1 l 1,1 v 0 h 1 v 0 h 1 v 0 h 1 v 0 h 1 v 0 h 1 v 0 h 1 v -1 l 1,1 h 1 v 0 h 1 v 0 h 1 v 0 h 1 v 0 h 1 v 0 l 1,-1 v 0 l 1,1 v 0 h 1 1 v 0 h 1 v 0 l 1,-1 v 1 h 1 v 0 h 1 v 0 h 1 v 0 h 1 v 0 h 1 1 v 0 h 1 v 0 h 1 v 0 h 1 v 0 h 1 v 0 h 1 v 0 h 1 v 0 h 1 1 v 0 h 1 v 0 h 1 v 0 h 1 v 0 h 1 v 0 l 1,-1 v 1 h 1 v 0 h 1 v 0 h 1 1 v 0 h 1 v 0 h 1 v 0 h 1 v 0 h 1 v 0 h 1 v -1 h 1 v 1 h 1 1 v 0 l 1,-1 v 1 h 1 v 0 h 1 v 0 h 1 v 0 h 1 v 0 h 1 v 0 h 1 1 v 0 h 1 v 0 h 1 v 0 h 1 v 0 h 1 v 0 h 1 v 0 h 1 v 0 h 1 1 v 0 h 1 v 0 h 1 v 0 h 1 v 0 h 1 v 0 l 1,-1 v 0 l 1,1 v 0 h 1 1 v 0 h 1 v 0 l 1,-1 v 1 h 1 v 0 h 1 v -1 l 1,1 v 0 h 1 v 0 l 1,-1 1,1 v 0 h 1 v 0 h 1 v -1 l 1,1 v 0 h 1 v 0 l 1,-1 v 0 l 1,1 v 0 h 1 1 v 0 h 1 v 0 h 1 v 0 h 1 v 0 h 1 v 0 h 1 v 0 h 1 v 0 h 1 v 0 h 1 l 1,-1 v 1 h 1 v 0 h 1 v 0 h 1 v 0 h 1 v 0 h 1 v 0 h 1 v 0 h 1 l 1,-1 v 1 h 1 v 0 h 1 v 0 h 1 v 0 h 1 v 0 h 1 v 0 h 1 v -1 l 1,1 h 1 v -1 l 1,1 v 0 h 1 v 0 h 1 v 0 h 1 v 0 h 1 v 0 h 1 v 0 l 1,-1 1,1 v 0 h 1 v 0 h 1 v 0 h 1 v 0 h 1 v 0 h 1 v 0 l 1,-1 v 1 h 1 l 1,-1 v 1 h 1 v 0 l 1,-1 v 0 l 1,1 v 0 h 1 v 0 h 1 v 0 h 1 v 0 h 1 1 v -1 h 1 v 1 h 1 v 0 h 1 v 0 h 1 v 0 h 1 v 0 h 1 v 0 h 1 v 0 h 1 1 v -1 l 1,1 v 0 h 1 v 0 h 1 v 0 h 1 v 0 h 1 v -1 l 1,1 v 0 h 1 1 v 0 h 1 v 0 h 1 v 0 h 1 v 0 h 1 v 0 h 1 v -1 h 1 v 1 h 1 1 v -1 h 1 v 1 h 1 v 0 h 1 v 0 l 1,-1 v 1 h 1 v 0 h 1 v 0 h 1 1 v 0 h 1 v 0 h 1 v 0 h 1 v 0 h 1 v 0 h 1 v 0 h 1 v 0 h 1 l 1,-1 v 1 h 1 v 0 h 1 v 0 h 1 v 0 h 1 v 0 h 1 v 0 h 1 v 0 h 1 1 v 0 h 1 v 0 h 1 v 0 h 1 v 0 h 1 v 0 h 1 v -1 l 1,1 v 0 h 1 1 v 0 h 1 v -1 h 1 v 1 h 1 v 0 h 1 v 0 h 1 v 0 h 1 v 0 h 1 v -1 l 1,1 h 1 v 0 l 1,-1 v 1 h 1 v 0 h 1 v 0 h 1 v 0 h 1 v 0 l 1,-1 v 1 h 1 1 v 0 h 1 v 0 h 1 v 0 h 1 v -1 l 1,1 v 0 h 1 v 0 h 1 v 0 h 1 1 v 0 h 1 v 0 h 1 v 0 l 1,-1 v 1 h 1 v -1 l 1,1 v 0 l 1,-1 v 1 h 1 1 v 0 h 1 v 0 h 1 v 0 h 1 v 0 l 1,-1 v 1 h 1 v 0 h 1 v 0 h 1 1 v 0 h 1 v 0 h 1 v 0 h 1 v 0 h 1 v -1 l 1,1 v 0 h 1 v 0 h 1 1 v 0 h 1 v 0 h 1 v 0 h 1 v 0 h 1 v 0 l 1,-1 v 1 h 1 v 0 h 1 v 0 h 1 1 v 0 h 1 v 0 l 1,-1 v 1 h 1 v 0 h 1 v 0 h 1 v 0 h 1 v 0 l 1,-1 1,1 v 0 h 1 v 0 h 1 v 0 h 1 v 0 h 1 v 0 h 1 v 0 h 1 v 0 l 1,-1 1,1 v 0 l 1,-1 v 1 h 1 v 0 l 1,-1 v 1 h 1 v 0 h 1 v 0 h 1 v 0 h 1 1 v 0 h 1 v 0 h 1 v 0 h 1 v 0 h 1 v 0 h 1 v 0 h 1 v 0 l 1,-1 1,1 v 0 h 1 v 0 h 1 v 0 h 1 v 0 h 1 v 0 h 1 v 0 h 1 v 0 h 1 1 v 0 h 1 v -1 l 1,1 v 0 h 1 v 0 h 1 v 0 h 1 v 0 h 1 v 0 h 1 1 v 0 h 1 v 0 h 1 v 0 h 1 v 0 l 1,-1 v 1 h 1 v 0 h 1 v 0 h 1 v 0 h 1 1 v 0 h 1 v 0 h 1 v 0 h 1 v 0 h 1 v 0 h 1 v 0 h 1 v 0 h 1 1 v 0 h 1 v 0 h 1 v 0 l 1,-1 v 1 h 1 v 0 h 1 v 0 h 1 v 0 h 1 1 v 0 h 1 v 0 h 1 v 0 h 1 v 0 h 1 v 0 h 1 v 0 h 1 v 0 h 1 1 v 0 l 1,-1 v 1 h 1 v 0 h 1 v 0 h 1 v 0 h 1 v 0 l 1,-1 v 1 l 1,-1 1,1 v 0 h 1 v 0 h 1 v 0 h 1 v 0 h 1 v 0 h 1 v 0 h 1 v 0 h 1 1 v 0 h 1 v 0 h 1 v 0 h 1 v 0 h 1 v 0 h 1 v 0 h 1 v 0 h 1 1 v -1 l 1,1 v -1 h 1 v 1 h 1 v 0 h 1 v 0 h 1 v 0 h 1 v 0 h 1 v -1 l 1,1 h 1 v 0 h 1 v -1 l 1,1 v 0 h 1 v -1 l 1,1 v 0 h 1 v 0 l 1,-1 v 0 h 1 l 1,1 v 0 h 1 v 0 h 1 v 0 h 1 v 0 h 1 v 0 h 1 v 0 l 1,-1 v 1 h 1 1 v 0 l 1,-1 v 1 h 1 v 0 h 1 v 0 h 1 v 0 h 1 v 0 h 1 v 0 h 1 l 1,-1 v 0 h 1 v 0 l 1,1 v 0 h 1 v 0 h 1 v -1 l 1,1 v 0 h 1 v 0 h 1 1 v 0 h 1 v 0 h 1 v 0 h 1 v 0 h 1 v 0 h 1 v -1 l 1,1 v 0 h 1 1 v 0 h 1 v 0 h 1 v 0 h 1 v 0 h 1 v 0 h 1 v 0 h 1 v 0 l 1,-1 v 1 h 1 1 v 0 h 1 v 0 h 1 v -1 l 1,1 v 0 h 1 v 0 h 1 v 0 h 1 v 0 h 1 1 v 0 h 1 v 0 h 1 v 0 h 1 v 0 h 1 v 0 h 1 v 0 h 1 v 0 h 1 1 v 0 h 1 v 0 h 1 v 0 h 1 v 0 h 1 v 0 h 1 v 0 h 1 v 0 h 1 1 v 0 h 1 v 0 h 1 v 0 h 1 v 0 h 1 v 0 h 1 v 0 l 1,-1 v 1 h 1 1 v 0 h 1 v 0 h 1 v 0 l 1,-1 v 1 l 1,-1 v 1 h 1 v 0 h 1 v 0 h 1 1 v 0 h 1 v 0 h 1 v 0 h 1 v 0 h 1 v 0 h 1 v 0 h 1 v 0 h 1 1 v 0 h 1 v 0 h 1 v 0 h 1 v 0 h 1 v 0 h 1 v 0 l 1,-1 v 1 h 1 v 0 h 1 1 v 0 h 1 v 0 h 1 v 0 h 1 v 0 h 1 v -1 l 1,1 v 0 h 1 v 0 h 1 1 v 0 h 1 v 0 h 1 v 0 h 1 v 0 h 1 v 0 h 1 v 0 h 1 v 0 h 1 1 v 0 h 1 v 0 h 1 v -1 l 1,1 v 0 h 1 v 0 h 1 v 0 h 1 v 0 l 1,-1 1,1 v 0 h 1 v 0 h 1 v 0 h 1 v 0 h 1 v 0 h 1 v 0 h 1 v 0 h 1 1 v 0 h 1 v 0 l 1,-1 v 0 l 1,1 v 0 h 1 v 0 h 1 v 0 h 1 v 0 h 1 1 v 0 h 1 v 0 h 1 v 0 h 1 v 0 h 1 v 0 h 1 v -1 l 1,1 v 0 h 1 1 v -1 l 1,1 v 0 h 1 v 0 l 1,-1 v 1 h 1 v -1 l 1,1 v 0 l 1,-1 v 1 h 1 v 0 l 1,-1 1,1 v 0 h 1 v 0 h 1 v 0 h 1 v -1 l 1,1 v 0 h 1 v 0 h 1 v 0 h 1 1 v 0 h 1 v 0 h 1 v 0 h 1 v 0 h 1 v 0 h 1 v -1 l 1,1 v 0 h 1 1 v 0 h 1 v 0 h 1 v 0 l 1,-1 v 1 h 1 v 0 h 1 v 0 h 1 v 0 h 1 1 v 0 h 1 v -1 l 1,1 v 0 h 1 v 0 h 1 v 0 h 1 v -1 l 1,1 v -1 l 1,1 1,-1 v 1 h 1 v 0 l 1,-1 v 1 h 1 v 0 h 1 v 0 h 1 v 0 h 1 v 0 h 1 1 v 0 h 1 v 0 h 1 v 0 h 1 v -1 l 1,1 v 0 h 1 v 0 h 1 v 0 h 1 v 0 h 1 1 v 0 h 1 v 0 h 1 v 0 h 1 v 0 h 1 v 0 l 1,-1 v 1 h 1 v 0 h 1 1 v 0 h 1 v 0 h 1 v 0 h 1 v 0 h 1 v 0 h 1 v 0 h 1 v 0 h 1 1 v 0 h 1 v 0 h 1 v 0 h 1 v 0 h 1 v 0 h 1 v 0 h 1 v 0 h 1 1 v 0 h 1 v 0 h 1 v 0 h 1 v 0 l 1,-1 v 1 h 1 v 0 h 1 v 0 h 1 1 v 0 h 1 v 0 h 1 v 0 h 1 v 0 h 1 v 0 h 1 v 0 h 1 v 0 l 1,-1 1,1 v 0 h 1 v 0 h 1 v 0 h 1 v -1 l 1,1 v 0 h 1 v 0 h 1 v 0 h 1 1 v 0 h 1 v 0 l 1,-1 v 1 h 1 v 0 h 1 v 0 h 1 v 0 h 1 v 0 h 1 v 0 h 1 1 v 0 h 1 v 0 h 1 v 0 h 1 v 0 h 1 v 0 h 1 v 0 h 1 v 0 l 1,-1 1,1 v 0 l 1,-1 v 1 h 1 v 0 h 1 v 0 h 1 v -1 l 1,1 v 0 h 1 v 0 h 1 1 v 0 l 1,-1 v 1 h 1 v 0 h 1 v 0 h 1 v 0 h 1 v -1 l 1,1 v 0 h 1 1 v 0 h 1 v 0 h 1 v 0 h 1 v 0 h 1 v 0 h 1 v 0 h 1 v 0 h 1 1 v 0 l 1,-1 v 1 h 1 v 0 h 1 v 0 h 1 v 0 h 1 v 0 h 1 v 0 h 1 1 v 0 h 1 v 0 h 1 v 0 h 1 v 0 h 1 v 0 h 1 v 0 l 1,-1 v 1 l 1,-1 1,1 v 0 h 1 v 0 h 1 v 0 h 1 v 0 l 1,-1 v 1 h 1 v 0 h 1 v 0 h 1 v 0 h 1 1 v 0 h 1 v 0 h 1 v 0 h 1 v 0 h 1 v 0 h 1 v 0 h 1 v 0 h 1 1 v 0 h 1 v 0 h 1 v 0 h 1 v 0 h 1 v 0 l 1,-1 v 1 h 1 v 0 h 1 1 v 0 h 1 v 0 h 1 v 0 h 1 v 0 h 1 v 0 h 1 v 0 h 1 v 0 h 1 1 v 0 h 1 v 0"
           stroke="#ffc000"
           stroke-width="2"
           stroke-linecap="round"
           stroke-linejoin="round"
           stroke-miterlimit="10"
           fill="none"
           id="path1233" />
      </g>
      <g
         clip-path="url(#clip11)"
         id="g1239">
        <text
           font-family="Arial, Arial_MSFontService, sans-serif"
           font-weight="400"
           font-size="12px"
           transform="translate(675.007,730)"
           id="text1237">1.E-17</text>
      </g>
      <g
         clip-path="url(#clip12)"
         id="g1243">
        <text
           font-family="Arial, Arial_MSFontService, sans-serif"
           font-weight="400"
           font-size="12px"
           transform="translate(675.007,711)"
           id="text1241">1.E-16</text>
      </g>
      <g
         clip-path="url(#clip13)"
         id="g1247">
        <text
           font-family="Arial, Arial_MSFontService, sans-serif"
           font-weight="400"
           font-size="12px"
           transform="translate(675.007,691)"
           id="text1245">1.E-15</text>
      </g>
      <g
         clip-path="url(#clip14)"
         id="g1251">
        <text
           font-family="Arial, Arial_MSFontService, sans-serif"
           font-weight="400"
           font-size="12px"
           transform="translate(675.007,672)"
           id="text1249">1.E-14</text>
      </g>
      <g
         clip-path="url(#clip15)"
         id="g1255">
        <text
           font-family="Arial, Arial_MSFontService, sans-serif"
           font-weight="400"
           font-size="12px"
           transform="translate(675.007,652)"
           id="text1253">1.E-13</text>
      </g>
      <g
         clip-path="url(#clip16)"
         id="g1259">
        <text
           font-family="Arial, Arial_MSFontService, sans-serif"
           font-weight="400"
           font-size="12px"
           transform="translate(675.007,633)"
           id="text1257">1.E-12</text>
      </g>
      <g
         clip-path="url(#clip17)"
         id="g1263">
        <text
           font-family="Arial, Arial_MSFontService, sans-serif"
           font-weight="400"
           font-size="12px"
           transform="translate(675.007,614)"
           id="text1261">1.E-11</text>
      </g>
      <g
         clip-path="url(#clip18)"
         id="g1267">
        <text
           font-family="Arial, Arial_MSFontService, sans-serif"
           font-weight="400"
           font-size="12px"
           transform="translate(675.007,594)"
           id="text1265">1.E-10</text>
      </g>
      <g
         clip-path="url(#clip19)"
         id="g1271">
        <text
           font-family="Arial, Arial_MSFontService, sans-serif"
           font-weight="400"
           font-size="12px"
           transform="translate(675.007,575)"
           id="text1269">1.E-09</text>
      </g>
      <g
         clip-path="url(#clip20)"
         id="g1275">
        <text
           font-family="Arial, Arial_MSFontService, sans-serif"
           font-weight="400"
           font-size="12px"
           transform="translate(675.007,556)"
           id="text1273">1.E-08</text>
      </g>
      <g
         clip-path="url(#clip21)"
         id="g1279">
        <text
           font-family="Arial, Arial_MSFontService, sans-serif"
           font-weight="400"
           font-size="12px"
           transform="translate(675.007,536)"
           id="text1277">1.E-07</text>
      </g>
      <g
         clip-path="url(#clip22)"
         id="g1283">
        <text
           font-family="Arial, Arial_MSFontService, sans-serif"
           font-weight="400"
           font-size="12px"
           transform="translate(675.007,517)"
           id="text1281">1.E-06</text>
      </g>
      <g
         clip-path="url(#clip23)"
         id="g1287">
        <text
           font-family="Arial, Arial_MSFontService, sans-serif"
           font-weight="400"
           font-size="12px"
           transform="translate(675.007,497)"
           id="text1285">1.E-05</text>
      </g>
      <g
         clip-path="url(#clip24)"
         id="g1291">
        <text
           font-family="Arial, Arial_MSFontService, sans-serif"
           font-weight="400"
           font-size="12px"
           transform="translate(675.007,478)"
           id="text1289">1.E-04</text>
      </g>
      <g
         clip-path="url(#clip25)"
         id="g1295">
        <text
           font-family="Arial, Arial_MSFontService, sans-serif"
           font-weight="400"
           font-size="12px"
           transform="translate(675.007,459)"
           id="text1293">1.E-03</text>
      </g>
      <g
         clip-path="url(#clip26)"
         id="g1299">
        <text
           font-family="Arial, Arial_MSFontService, sans-serif"
           font-weight="400"
           font-size="12px"
           transform="translate(675.007,439)"
           id="text1297">1.E-02</text>
      </g>
      <g
         clip-path="url(#clip27)"
         id="g1303">
        <text
           font-family="Arial, Arial_MSFontService, sans-serif"
           font-weight="400"
           font-size="12px"
           transform="translate(675.007,420)"
           id="text1301">1.E-01</text>
      </g>
      <g
         clip-path="url(#clip28)"
         id="g1307">
        <text
           font-family="Arial, Arial_MSFontService, sans-serif"
           font-weight="400"
           font-size="12px"
           transform="translate(671.993,401)"
           id="text1305">1.E+00</text>
      </g>
      <g
         clip-path="url(#clip29)"
         id="g1311">
        <text
           font-family="Arial, Arial_MSFontService, sans-serif"
           font-weight="400"
           font-size="12px"
           transform="translate(717.344,415)"
           id="text1309">0</text>
      </g>
      <g
         clip-path="url(#clip30)"
         id="g1315">
        <text
           font-family="Arial, Arial_MSFontService, sans-serif"
           font-weight="400"
           font-size="12px"
           transform="translate(817.206,415)"
           id="text1313">200</text>
      </g>
      <g
         clip-path="url(#clip31)"
         id="g1319">
        <text
           font-family="Arial, Arial_MSFontService, sans-serif"
           font-weight="400"
           font-size="12px"
           transform="translate(923.741,415)"
           id="text1317">400</text>
      </g>
      <g
         clip-path="url(#clip32)"
         id="g1323">
        <text
           font-family="Arial, Arial_MSFontService, sans-serif"
           font-weight="400"
           font-size="12px"
           transform="translate(1030.28,415)"
           id="text1321">600</text>
      </g>
      <g
         clip-path="url(#clip33)"
         id="g1327">
        <text
           font-family="Arial, Arial_MSFontService, sans-serif"
           font-weight="400"
           font-size="12px"
           transform="translate(1136.81,415)"
           id="text1325">800</text>
      </g>
      <g
         clip-path="url(#clip34)"
         id="g1331">
        <text
           font-family="Arial, Arial_MSFontService, sans-serif"
           font-weight="400"
           font-size="12px"
           transform="translate(1240.01,415)"
           id="text1329">1000</text>
      </g>
      <g
         clip-path="url(#clip35)"
         id="g1335">
        <text
           font-family="Arial, Arial_MSFontService, sans-serif"
           font-weight="400"
           font-size="12px"
           transform="translate(1346.55,415)"
           id="text1333">1200</text>
      </g>
      <g
         clip-path="url(#clip36)"
         id="g1339">
        <text
           font-family="Arial, Arial_MSFontService, sans-serif"
           font-weight="400"
           font-size="13px"
           transform="rotate(-90,641.3335,-20.3335)"
           id="text1337">Resduo da presso</text>
      </g>
      <g
         clip-path="url(#clip37)"
         id="g1343">
        <text
           font-family="Arial, Arial_MSFontService, sans-serif"
           font-weight="400"
           font-size="13px"
           transform="translate(1016.2,741)"
           id="text1341">Iterao</text>
      </g>
      <g
         clip-path="url(#clip38)"
         id="g1347">
        <rect
           x="1210.5"
           y="586.5"
           width="107"
           height="75"
           stroke="#000000"
           stroke-linejoin="round"
           stroke-miterlimit="10"
           fill="#ffffff"
           id="rect1345" />
      </g>
      <g
         clip-path="url(#clip39)"
         id="g1351">
        <path
           d="m 1221,599 h 26"
           stroke="#70ad47"
           stroke-width="2"
           stroke-linecap="round"
           stroke-linejoin="round"
           stroke-miterlimit="10"
           fill="none"
           fill-rule="evenodd"
           id="path1349" />
      </g>
      <g
         clip-path="url(#clip40)"
         id="g1355">
        <text
           font-family="Arial, Arial_MSFontService, sans-serif"
           font-weight="400"
           font-size="13px"
           transform="translate(1249.54,603)"
           id="text1353">VMS-Lin</text>
      </g>
      <g
         clip-path="url(#clip41)"
         id="g1359">
        <path
           d="m 1221,624 h 26"
           stroke="#4472c4"
           stroke-width="2"
           stroke-linecap="round"
           stroke-linejoin="round"
           stroke-miterlimit="10"
           fill="none"
           fill-rule="evenodd"
           id="path1357" />
      </g>
      <g
         clip-path="url(#clip42)"
         id="g1363">
        <text
           font-family="Arial, Arial_MSFontService, sans-serif"
           font-weight="400"
           font-size="13px"
           transform="translate(1249.54,628)"
           id="text1361">VMS-Qua</text>
      </g>
      <g
         clip-path="url(#clip43)"
         id="g1367">
        <path
           d="m 1221,649 h 26"
           stroke="#ffc000"
           stroke-width="2"
           stroke-linecap="round"
           stroke-linejoin="round"
           stroke-miterlimit="10"
           fill="none"
           fill-rule="evenodd"
           id="path1365" />
      </g>
      <g
         clip-path="url(#clip44)"
         id="g1371">
        <text
           font-family="Arial, Arial_MSFontService, sans-serif"
           font-weight="400"
           font-size="13px"
           transform="translate(1249.54,653)"
           id="text1369">LES</text>
      </g>
    </g>
  </g>
</svg>
