<?xml version="1.0" encoding="UTF-8" standalone="no"?>
<!-- Created with Inkscape (http://www.inkscape.org/) -->

<svg
   width="200.02499mm"
   height="100.0125mm"
   viewBox="0 0 200.02499 100.0125"
   version="1.1"
   id="svg5"
   inkscape:version="1.2.1 (9c6d41e410, 2022-07-14)"
   sodipodi:docname="resvel.svg"
   xmlns:inkscape="http://www.inkscape.org/namespaces/inkscape"
   xmlns:sodipodi="http://sodipodi.sourceforge.net/DTD/sodipodi-0.dtd"
   xmlns="http://www.w3.org/2000/svg"
   xmlns:svg="http://www.w3.org/2000/svg">
  <sodipodi:namedview
     id="namedview7"
     pagecolor="#ffffff"
     bordercolor="#000000"
     borderopacity="0.25"
     inkscape:showpageshadow="2"
     inkscape:pageopacity="0.0"
     inkscape:pagecheckerboard="0"
     inkscape:deskcolor="#d1d1d1"
     inkscape:document-units="mm"
     showgrid="false"
     inkscape:zoom="1.087256"
     inkscape:cx="262.12777"
     inkscape:cy="200.50475"
     inkscape:window-width="1920"
     inkscape:window-height="1017"
     inkscape:window-x="-8"
     inkscape:window-y="-8"
     inkscape:window-maximized="1"
     inkscape:current-layer="layer1" />
  <defs
     id="defs2">
    <clipPath
       id="clip0">
      <rect
         x="638"
         y="0"
         width="756"
         height="378"
         id="rect132" />
    </clipPath>
    <clipPath
       id="clip1">
      <rect
         x="637"
         y="0"
         width="756"
         height="377"
         id="rect135" />
    </clipPath>
    <clipPath
       id="clip2">
      <rect
         x="637"
         y="0"
         width="756"
         height="377"
         id="rect138" />
    </clipPath>
    <clipPath
       id="clip3">
      <rect
         x="637"
         y="0"
         width="756"
         height="377"
         id="rect141" />
    </clipPath>
    <clipPath
       id="clip4">
      <rect
         x="637"
         y="0"
         width="756"
         height="377"
         id="rect144" />
    </clipPath>
    <clipPath
       id="clip5">
      <rect
         x="637"
         y="0"
         width="756"
         height="377"
         id="rect147" />
    </clipPath>
    <clipPath
       id="clip6">
      <rect
         x="637"
         y="0"
         width="756"
         height="377"
         id="rect150" />
    </clipPath>
    <clipPath
       id="clip7">
      <rect
         x="637"
         y="0"
         width="756"
         height="377"
         id="rect153" />
    </clipPath>
    <clipPath
       id="clip8">
      <rect
         x="637"
         y="0"
         width="756"
         height="377"
         id="rect156" />
    </clipPath>
    <clipPath
       id="clip9">
      <rect
         x="726"
         y="14"
         width="640"
         height="330"
         id="rect159" />
    </clipPath>
    <clipPath
       id="clip10">
      <rect
         x="726"
         y="14"
         width="640"
         height="330"
         id="rect162" />
    </clipPath>
    <clipPath
       id="clip11">
      <rect
         x="726"
         y="14"
         width="640"
         height="330"
         id="rect165" />
    </clipPath>
    <clipPath
       id="clip12">
      <rect
         x="637"
         y="0"
         width="756"
         height="377"
         id="rect168" />
    </clipPath>
    <clipPath
       id="clip13">
      <rect
         x="637"
         y="0"
         width="756"
         height="377"
         id="rect171" />
    </clipPath>
    <clipPath
       id="clip14">
      <rect
         x="637"
         y="0"
         width="756"
         height="377"
         id="rect174" />
    </clipPath>
    <clipPath
       id="clip15">
      <rect
         x="637"
         y="0"
         width="756"
         height="377"
         id="rect177" />
    </clipPath>
    <clipPath
       id="clip16">
      <rect
         x="637"
         y="0"
         width="756"
         height="377"
         id="rect180" />
    </clipPath>
    <clipPath
       id="clip17">
      <rect
         x="637"
         y="0"
         width="756"
         height="377"
         id="rect183" />
    </clipPath>
    <clipPath
       id="clip18">
      <rect
         x="637"
         y="0"
         width="756"
         height="377"
         id="rect186" />
    </clipPath>
    <clipPath
       id="clip19">
      <rect
         x="637"
         y="0"
         width="756"
         height="377"
         id="rect189" />
    </clipPath>
    <clipPath
       id="clip20">
      <rect
         x="637"
         y="0"
         width="756"
         height="377"
         id="rect192" />
    </clipPath>
    <clipPath
       id="clip21">
      <rect
         x="637"
         y="0"
         width="756"
         height="377"
         id="rect195" />
    </clipPath>
    <clipPath
       id="clip22">
      <rect
         x="637"
         y="0"
         width="756"
         height="377"
         id="rect198" />
    </clipPath>
    <clipPath
       id="clip23">
      <rect
         x="637"
         y="0"
         width="756"
         height="377"
         id="rect201" />
    </clipPath>
    <clipPath
       id="clip24">
      <rect
         x="637"
         y="0"
         width="756"
         height="377"
         id="rect204" />
    </clipPath>
    <clipPath
       id="clip25">
      <rect
         x="637"
         y="0"
         width="756"
         height="377"
         id="rect207" />
    </clipPath>
    <clipPath
       id="clip26">
      <rect
         x="637"
         y="0"
         width="756"
         height="377"
         id="rect210" />
    </clipPath>
    <clipPath
       id="clip27">
      <rect
         x="637"
         y="0"
         width="756"
         height="377"
         id="rect213" />
    </clipPath>
    <clipPath
       id="clip28">
      <rect
         x="637"
         y="0"
         width="756"
         height="377"
         id="rect216" />
    </clipPath>
    <clipPath
       id="clip29">
      <rect
         x="637"
         y="0"
         width="756"
         height="377"
         id="rect219" />
    </clipPath>
    <clipPath
       id="clip30">
      <rect
         x="637"
         y="0"
         width="756"
         height="377"
         id="rect222" />
    </clipPath>
    <clipPath
       id="clip31">
      <rect
         x="637"
         y="0"
         width="756"
         height="377"
         id="rect225" />
    </clipPath>
    <clipPath
       id="clip32">
      <rect
         x="637"
         y="0"
         width="756"
         height="377"
         id="rect228" />
    </clipPath>
    <clipPath
       id="clip33">
      <rect
         x="637"
         y="0"
         width="756"
         height="377"
         id="rect231" />
    </clipPath>
    <clipPath
       id="clip34">
      <rect
         x="637"
         y="0"
         width="756"
         height="377"
         id="rect234" />
    </clipPath>
    <clipPath
       id="clip35">
      <rect
         x="637"
         y="0"
         width="756"
         height="377"
         id="rect237" />
    </clipPath>
  </defs>
  <g
     inkscape:label="Camada 1"
     inkscape:groupmode="layer"
     id="layer1"
     transform="translate(-124.02806,-63.906844)">
    <g
       clip-path="url(#clip0)"
       transform="matrix(0.26458333,0,0,0.26458333,-44.776107,63.906844)"
       id="g384">
      <rect
         x="638"
         y="0"
         width="756"
         height="378"
         fill="#ffffff"
         id="rect242" />
      <g
         clip-path="url(#clip1)"
         id="g246">
        <rect
           x="727"
           y="15"
           width="639"
           height="329"
           fill="#ffffff"
           id="rect244" />
      </g>
      <g
         clip-path="url(#clip2)"
         id="g250">
        <path
           d="m 726.5,343.5 h 639 m -639,-14 h 639 m -639,-8 h 639 m -639,-6 h 639 m -639,-4 h 639 m -639,-4 h 639 m -639,-3 h 639 m -639,-3 h 639 m -639,-2 h 639 m -639,-3 h 639 m -639,-14 h 639 m -639,-8 h 639 m -639,-6 h 639 m -639,-4 h 639 m -639,-4 h 639 m -639,-3 h 639 m -639,-3 h 639 m -639,-2 h 639 m -639,-3 h 639 m -639,-14 h 639 m -639,-8 h 639 m -639,-6 h 639 m -639,-5 h 639 m -639,-3 h 639 m -639,-3 h 639 m -639,-3 h 639 m -639,-3 h 639 m -639,-2 h 639 m -639,-14 h 639 m -639,-8 h 639 m -639,-6 h 639 m -639,-5 h 639 m -639,-3 h 639 m -639,-3 h 639 m -639,-3 h 639 m -639,-3 h 639 m -639,-2 h 639 m -639,-14 h 639 m -639,-8 h 639 m -639,-6 h 639 m -639,-5 h 639 m -639,-3 h 639 m -639,-3 h 639 m -639,-3 h 639 m -639,-3 h 639 m -639,-2 h 639 m -639,-14 h 639 m -639,-8 h 639 m -639,-6 h 639 m -639,-5 h 639 m -639,-3 h 639 m -639,-4 h 639 m -639,-2 h 639 m -639,-3 h 639 m -639,-2 h 639 m -639,-14 h 639 m -639,-8 h 639 m -639,-6 h 639 m -639,-5 h 639 m -639,-3 h 639 m -639,-4 h 639 m -639,-2 h 639 m -639,-3 h 639"
           stroke="#f2f2f2"
           stroke-linejoin="round"
           stroke-miterlimit="10"
           fill="none"
           id="path248" />
      </g>
      <g
         clip-path="url(#clip3)"
         id="g254">
        <path
           d="m 726.5,343.5 h 639 m -639,-47 h 639 m -639,-47 h 639 m -639,-47 h 639 m -639,-47 h 639 m -639,-47 h 639 m -639,-47 h 639"
           stroke="#d9d9d9"
           stroke-linejoin="round"
           stroke-miterlimit="10"
           fill="none"
           id="path252" />
      </g>
      <g
         clip-path="url(#clip4)"
         id="g258">
        <path
           d="m 823.5,14.5 v 329 m 97,-329 v 329 m 97,-329 v 329 m 97,-329 v 329 m 96,-329 v 329 m 97,-329 v 329"
           stroke="#d9d9d9"
           stroke-linejoin="round"
           stroke-miterlimit="10"
           fill="none"
           id="path256" />
      </g>
      <g
         clip-path="url(#clip5)"
         id="g262">
        <path
           d="M 0,0 1.04987e-4,329"
           stroke="#000000"
           stroke-linejoin="round"
           stroke-miterlimit="10"
           fill="none"
           fill-rule="evenodd"
           transform="matrix(1,0,0,-1,726.5,343.5)"
           id="path260" />
      </g>
      <g
         clip-path="url(#clip6)"
         id="g266">
        <path
           d="m 726.5,343.5 h 3 m -3,-14 h 3 m -3,-8 h 3 m -3,-6 h 3 m -3,-4 h 3 m -3,-4 h 3 m -3,-3 h 3 m -3,-3 h 3 m -3,-2 h 3 m -3,-3 h 3 m -3,-14 h 3 m -3,-8 h 3 m -3,-6 h 3 m -3,-4 h 3 m -3,-4 h 3 m -3,-3 h 3 m -3,-3 h 3 m -3,-2 h 3 m -3,-3 h 3 m -3,-14 h 3 m -3,-8 h 3 m -3,-6 h 3 m -3,-5 h 3 m -3,-3 h 3 m -3,-3 h 3 m -3,-3 h 3 m -3,-3 h 3 m -3,-2 h 3 m -3,-14 h 3 m -3,-8 h 3 m -3,-6 h 3 m -3,-5 h 3 m -3,-3 h 3 m -3,-3 h 3 m -3,-3 h 3 m -3,-3 h 3 m -3,-2 h 3 m -3,-14 h 3 m -3,-8 h 3 m -3,-6 h 3 m -3,-5 h 3 m -3,-3 h 3 m -3,-3 h 3 m -3,-3 h 3 m -3,-3 h 3 m -3,-2 h 3 m -3,-14 h 3 m -3,-8 h 3 m -3,-6 h 3 m -3,-5 h 3 m -3,-3 h 3 m -3,-4 h 3 m -3,-2 h 3 m -3,-3 h 3 m -3,-2 h 3 m -3,-14 h 3 m -3,-8 h 3 m -3,-6 h 3 m -3,-5 h 3 m -3,-3 h 3 m -3,-4 h 3 m -3,-2 h 3 m -3,-3 h 3 m -3,-2 h 3 m -6,329 h 7 m -7,-47 h 7 m -7,-47 h 7 m -7,-47 h 7 m -7,-47 h 7 m -7,-47 h 7 m -7,-47 h 7 m -7,-47 h 7"
           stroke="#000000"
           stroke-linejoin="round"
           stroke-miterlimit="10"
           fill="none"
           id="path264" />
      </g>
      <g
         clip-path="url(#clip7)"
         id="g270">
        <path
           d="m 726.5,14.5001 639,10e-5"
           stroke="#000000"
           stroke-linejoin="round"
           stroke-miterlimit="10"
           fill="none"
           fill-rule="evenodd"
           id="path268" />
      </g>
      <g
         clip-path="url(#clip8)"
         id="g274">
        <path
           d="m 726.5,11.5 v 3 m 20,-3 v 3 m 19,-3 v 3 m 19,-3 v 3 m 20,-3 v 3 m 19,-3 v 3 m 19,-3 v 3 m 20,-3 v 3 m 19,-3 v 3 m 20,-3 v 3 m 19,-3 v 3 m 19,-3 v 3 m 20,-3 v 3 m 19,-3 v 3 m 19,-3 v 3 m 20,-3 v 3 m 19,-3 v 3 m 19,-3 v 3 m 20,-3 v 3 m 19,-3 v 3 m 20,-3 v 3 m 19,-3 v 3 m 19,-3 v 3 m 20,-3 v 3 m 19,-3 v 3 m 19,-3 v 3 m 20,-3 v 3 m 19,-3 v 3 m 20,-3 v 3 m 19,-3 v 3 m 19,-3 v 3 m 20,-3 v 3 m 19,-3 v 3 m 19,-3 v 3 m -639,-3 v 7 m 97,-7 v 7 m 97,-7 v 7 m 97,-7 v 7 m 97,-7 v 7 m 96,-7 v 7 m 97,-7 v 7"
           stroke="#000000"
           stroke-linejoin="round"
           stroke-miterlimit="10"
           fill="none"
           id="path272" />
      </g>
      <g
         clip-path="url(#clip9)"
         id="g278">
        <path
           d="m 727,-2 v 15 8 6 4 l 1,3 v 3 2 2 2 l 1,1 v 2 1 1 1 l 1,1 v 1 1 1 0 l 1,1 v 0 1 0 1 h 1 v 0 1 0 0 1 h 1 v 0 0 0 1 h 1 v 0 0 0 0 h 1 v 1 0 0 0 h 1 v 0 0 0 0 l 1,1 v 0 0 0 0 h 1 v 0 0 0 0 0 l 1,1 v 0 0 0 0 h 1 v 0 0 0 0 h 1 v 0 1 0 0 h 1 v 0 0 0 0 h 1 v 0 0 1 0 h 1 v 0 0 0 0 h 1 v 0 0 1 0 0 h 1 v 0 0 0 0 h 1 v 1 0 0 0 h 1 v 0 0 0 0 h 1 v 1 0 0 0 h 1 v 0 0 0 0 l 1,1 v 0 0 0 0 0 h 1 v 0 0 0 1 h 1 v 0 0 0 0 h 1 v 0 0 1 0 h 1 v 0 0 0 0 h 1 v 0 0 1 0 h 1 v 0 0 0 0 0 h 1 v 0 1 0 0 h 1 v 0 0 0 0 h 1 v 0 1 0 0 h 1 v 0 0 0 0 h 1 v 0 0 1 0 h 1 v 0 0 0 0 0 h 1 v 0 1 0 0 h 1 v 0 0 0 0 h 1 v 0 0 1 0 h 1 v 0 0 0 0 h 1 v 0 0 0 1 h 1 v 0 0 0 0 0 h 1 v 0 0 0 1 h 1 v 0 0 0 0 h 1 v 0 0 0 0 l 1,1 v 0 0 0 0 h 1 v 0 0 0 0 h 1 v 1 0 0 0 0 h 1 v 0 0 0 0 h 1 v 0 1 0 0 h 1 v 0 0 0 0 h 1 v 0 0 1 0 h 1 v 0 0 0 0 h 1 v 0 0 0 0 1 h 1 v 0 0 0 0 h 1 v 0 0 0 0 h 1 v 1 0 0 0 h 1 v 0 0 0 0 h 1 v 0 0 0 1 h 1 v 0 0 0 0 h 1 v 0 0 0 0 0 l 1,1 v 0 0 0 0 h 1 v 0 0 0 0 h 1 v 0 1 0 0 h 1 v 0 0 0 0 h 1 v 0 0 0 0 l 1,1 v 0 0 0 0 0 h 1 v 0 0 0 0 h 1 v 1 0 0 0 h 1 v 0 0 0 0 h 1 v 0 0 0 1 h 1 v 0 0 0 0 h 1 v 0 0 0 0 0 h 1 v 1 0 0 0 h 1 v 0 0 0 0 h 1 v 0 0 1 0 h 1 v 0 0 0 0 h 1 v 0 0 0 0 h 1 v 1 0 0 0 0 h 1 v 0 0 0 0 h 1 v 0 0 1 0 h 1 v 0 0 0 0 h 1 v 0 0 0 0 h 1 v 1 0 0 0 h 1 v 0 0 0 0 0 h 1 v 0 1 0 0 h 1 v 0 0 0 0 h 1 v 0 0 0 0 l 1,1 v 0 0 0 0 h 1 v 0 0 0 0 h 1 v 0 0 1 0 0 h 1 v 0 0 0 0 h 1 v 0 0 0 1 h 1 v 0 0 0 0 h 1 v 0 0 0 0 h 1 v 0 1 0 0 h 1 v 0 0 0 0 0 h 1 v 0 0 1 0 h 1 v 0 0 0 0 h 1 v 0 0 0 0 h 1 v 1 0 0 0 h 1 v 0 0 0 0 h 1 v 0 0 1 0 h 1 v 0 0 0 0 0 h 1 v 0 0 0 1 h 1 v 0 0 0 0 h 1 v 0 0 0 0 l 1,1 v 0 0 0 0 h 1 v 0 0 0 0 h 1 v 0 1 0 0 0 h 1 v 0 0 0 0 h 1 v 0 1 0 0 h 1 v 0 0 0 0 h 1 v 0 0 1 0 h 1 v 0 0 0 0 h 1 v 0 0 0 1 0 h 1 v 0 0 0 0 h 1 v 0 0 1 0 h 1 v 0 0 0 0 h 1 v 0 0 0 1 h 1 v 0 0 0 0 h 1 v 0 0 0 1 0 h 1 v 0 0 0 0 h 1 v 0 0 1 0 h 1 v 0 0 0 0 h 1 v 0 0 1 0 h 1 v 0 0 0 0 h 1 v 0 1 0 0 0 h 1 v 0 0 0 0 h 1 v 1 0 0 0 h 1 v 0 0 0 0 l 1,1 v 0 0 0 0 h 1 v 0 0 0 1 h 1 v 0 0 0 0 0 h 1 v 0 1 0 0 h 1 v 0 0 0 0 h 1 v 1 0 0 0 h 1 v 0 0 0 0 l 1,1 v 0 0 0 0 h 1 v 0 0 0 1 h 1 v 0 0 0 0 0 h 1 v 0 1 0 0 h 1 v 0 0 0 0 l 1,1 v 0 0 0 0 h 1 v 0 0 0 1 h 1 v 0 0 0 0 h 1 v 0 0 1 0 0 h 1 v 0 0 0 0 l 1,1 v 0 0 0 0 h 1 v 0 0 0 1 h 1 v 0 0 0 0 h 1 v 0 1 0 0 h 1 v 0 0 0 0 0 l 1,1 v 0 0 0 0 h 1 v 0 0 1 0 h 1 v 0 0 0 0 h 1 v 1 0 0 0 h 1 v 0 0 0 0 l 1,1 v 0 0 0 0 0 h 1 v 0 1 0 0 h 1 v 0 0 0 0 l 1,1 v 0 0 0 0 h 1 v 0 0 0 1 h 1 v 0 0 0 0 h 1 v 0 1 0 0 0 h 1 v 0 0 0 1 h 1 v 0 0 0 0 h 1 v 0 1 0 0 h 1 v 0 0 0 0 l 1,1 v 0 0 0 0 h 1 v 0 0 1 0 0 h 1 v 0 0 0 0 l 1,1 v 0 0 0 0 h 1 v 0 0 0 1 h 1 v 0 0 0 0 h 1 v 0 1 0 0 h 1 v 0 0 0 0 1 h 1 v 0 0 0 0 h 1 v 0 1 0 0 h 1 v 0 0 0 0 l 1,1 v 0 0 0 0 h 1 v 0 0 1 0 h 1 v 0 0 0 0 h 1 v 1 0 0 0 0 h 1 v 0 0 1 0 h 1 v 0 0 0 0 h 1 v 1 0 0 0 h 1 v 0 0 0 1 h 1 v 0 0 0 0 h 1 v 0 1 0 0 0 h 1 v 0 0 0 1 h 1 v 0 0 0 0 h 1 v 0 1 0 0 h 1 v 0 0 0 0 h 1 v 1 0 0 0 h 1 v 0 0 0 1 0 h 1 v 0 0 0 0 h 1 v 1 0 0 0 h 1 v 0 0 0 1 h 1 v 0 0 0 0 h 1 v 0 1 0 0 h 1 v 0 0 0 0 0 l 1,1 v 0 0 0 0 h 1 v 0 0 1 0 h 1 v 0 0 0 0 h 1 v 1 0 0 0 h 1 v 0 0 0 0 l 1,1 v 0 0 0 0 0 h 1 v 0 1 0 0 h 1 v 0 0 0 0 l 1,1 v 0 0 0 0 h 1 v 0 0 1 0 h 1 v 0 0 0 0 h 1 v 0 1 0 0 0 h 1 v 0 0 0 1 h 1 v 0 0 0 0 h 1 v 0 0 1 0 h 1 v 0 0 0 0 h 1 v 1 0 0 0 h 1 v 0 0 0 1 0 h 1 v 0 0 0 0 h 1 v 0 1 0 0 h 1 v 0 0 0 0 l 1,1 v 0 0 0 0 h 1 v 0 0 0 1 h 1 v 0 0 0 0 h 1 v 0 1 0 0 0 h 1 v 0 0 0 0 l 1,1 v 0 0 0 0 h 1 v 0 0 0 1 h 1 v 0 0 0 0 h 1 v 0 0 1 0 h 1 v 0 0 0 0 0 l 1,1 v 0 0 0 0 h 1 v 0 0 0 1 h 1 v 0 0 0 0 h 1 v 0 0 1 0 h 1 v 0 0 0 0 h 1 v 0 1 0 0 0 h 1 v 0 0 0 0 l 1,1 v 0 0 0 0 h 1 v 0 0 0 1 h 1 v 0 0 0 0 h 1 v 0 0 1 0 h 1 v 0 0 0 0 0 h 1 v 0 1 0 0 h 1 v 0 0 0 0 h 1 v 1 0 0 0 h 1 v 0 0 0 0 l 1,1 v 0 0 0 0 h 1 v 0 0 0 0 1 h 1 v 0 0 0 0 h 1 v 0 0 1 0 h 1 v 0 0 0 0 h 1 v 0 0 1 0 h 1 v 0 0 0 0 h 1 v 0 0 1 0 0 h 1 v 0 0 0 0 h 1 v 0 1 0 0 h 1 v 0 0 0 0 h 1 v 1 0 0 0 h 1 v 0 0 0 0 h 1 v 1 0 0 0 h 1 v 0 0 0 0 0 h 1 v 1 0 0 0 h 1 v 0 0 0 0 h 1 v 1 0 0 0 h 1 v 0 0 0 0 h 1 v 1 0 0 0 h 1 v 0 0 0 0 0 h 1 v 1 0 0 0 h 1 v 0 0 0 0 h 1 v 1 0 0 0 h 1 v 0 0 0 0 h 1 v 0 1 0 0 h 1 v 0 0 0 0 0 h 1 v 0 1 0 0 h 1 v 0 0 0 0 h 1 v 0 0 1 0 h 1 v 0 0 0 0 h 1 v 0 0 0 0 l 1,1 v 0 0 0 0 0 h 1 v 0 0 0 0 l 1,1 v 0 0 0 0 h 1 v 0 0 0 0 h 1 v 0 1 0 0 h 1 v 0 0 0 0 h 1 v 0 0 0 1 0 h 1 v 0 0 0 0 h 1 v 0 0 0 0 h 1 v 1 0 0 0 h 1 v 0 0 0 0 h 1 v 0 0 1 0 h 1 v 0 0 0 0 0 h 1 v 0 0 0 0 l 1,1 v 0 0 0 0 h 1 v 0 0 0 0 h 1 v 0 0 1 0 h 1 v 0 0 0 0 h 1 v 0 0 0 0 0 l 1,1 v 0 0 0 0 h 1 v 0 0 0 0 h 1 v 0 0 0 1 h 1 v 0 0 0 0 h 1 v 0 0 0 0 h 1 v 0 1 0 0 h 1 v 0 0 0 0 0 h 1 v 0 0 0 0 l 1,1 v 0 0 0 0 h 1 v 0 0 0 0 h 1 v 0 0 0 0 l 1,1 v 0 0 0 0 h 1 v 0 0 0 0 0 h 1 v 0 0 1 0 h 1 v 0 0 0 0 h 1 v 0 0 0 0 h 1 v 0 0 1 0 h 1 v 0 0 0 0 h 1 v 0 0 0 0 0 h 1 v 0 1 0 0 h 1 v 0 0 0 0 h 1 v 0 0 0 0 h 1 v 0 0 1 0 h 1 v 0 0 0 0 h 1 v 0 0 0 0 0 h 1 v 0 0 1 0 h 1 v 0 0 0 0 h 1 v 0 0 0 0 h 1 v 0 0 0 1 h 1 v 0 0 0 0 h 1 v 0 0 0 0 0 h 1 v 0 0 0 0 l 1,1 v 0 0 0 0 h 1 v 0 0 0 0 h 1 v 0 0 0 0 h 1 v 0 1 0 0 h 1 v 0 0 0 0 0 h 1 v 0 0 0 0 h 1 v 0 0 1 0 h 1 v 0 0 0 0 h 1 v 0 0 0 0 h 1 v 0 0 0 0 l 1,1 v 0 0 0 0 0 h 1 v 0 0 0 0 h 1 v 0 0 0 0 h 1 v 0 1 0 0 h 1 v 0 0 0 0 h 1 v 0 0 0 0 h 1 v 0 0 0 0 l 1,1 v 0 0 0 0 0 h 1 v 0 0 0 0 h 1 v 0 0 0 0 h 1 v 0 1 0 0 h 1 v 0 0 0 0 h 1 v 0 0 0 0 h 1 v 0 0 0 0 1 h 1 v 0 0 0 0 h 1 v 0 0 0 0 h 1 v 0 0 0 0 h 1 v 0 0 1 0 h 1 v 0 0 0 0 h 1 v 0 0 0 0 0 h 1 v 0 0 0 0 h 1 v 1 0 0 0 h 1 v 0 0 0 0 h 1 v 0 0 0 0 h 1 v 0 0 0 0 l 1,1 v 0 0 0 0 0 h 1 v 0 0 0 0 h 1 v 0 0 0 0 h 1 v 0 0 1 0 h 1 v 0 0 0 0 h 1 v 0 0 0 0 h 1 v 0 0 0 0 0 h 1 v 1 0 0 0 h 1 v 0 0 0 0 h 1 v 0 0 0 0 h 1 v 0 0 0 0 h 1 v 1 0 0 0 h 1 v 0 0 0 0 0 h 1 v 0 0 0 0 h 1 v 0 0 0 0 l 1,1 v 0 0 0 0 h 1 v 0 0 0 0 h 1 v 0 0 0 0 h 1 v 0 0 0 1 h 1 v 0 0 0 0 0 h 1 v 0 0 0 0 h 1 v 0 0 0 0 h 1 v 0 0 1 0 h 1 v 0 0 0 0 h 1 v 0 0 0 0 h 1 v 0 0 0 0 0 h 1 v 0 1 0 0 h 1 v 0 0 0 0 h 1 v 0 0 0 0 h 1 v 0 0 0 0 h 1 v 0 1 0 0 h 1 v 0 0 0 0 0 h 1 v 0 0 0 0 h 1 v 0 0 0 0 h 1 v 0 1 0 0 h 1 v 0 0 0 0 h 1 v 0 0 0 0 h 1 v 0 0 0 0 0 h 1 v 1 0 0 0 h 1 v 0 0 0 0 h 1 v 0 0 0 0 h 1 v 0 0 0 0 h 1 v 1 0 0 0 h 1 v 0 0 0 0 0 h 1 v 0 0 0 0 h 1 v 0 0 0 0 h 1 v 1 0 0 0 h 1 v 0 0 0 0 h 1 v 0 0 0 0 h 1 v 0 0 0 0 0 l 1,1 v 0 0 0 0 h 1 v 0 0 0 0 h 1 v 0 0 0 0 h 1 v 0 0 0 0 h 1 v 1 0 0 0 h 1 v 0 0 0 0 0 h 1 v 0 0 0 0 h 1 v 0 0 0 0 h 1 v 1 0 0 0 h 1 v 0 0 0 0 h 1 v 0 0 0 0 h 1 v 0 0 0 0 h 1 v 1 0 0 0 0 h 1 v 0 0 0 0 h 1 v 0 0 0 0 h 1 v 0 0 0 0 h 1 v 1 0 0 0 h 1 v 0 0 0 0 h 1 v 0 0 0 0 0 h 1 v 0 0 0 0 h 1 v 1 0 0 0 h 1 v 0 0 0 0 h 1 v 0 0 0 0 h 1 v 0 0 0 0 h 1 v 1 0 0 0 0 h 1 v 0 0 0 0 h 1 v 0 0 0 0 h 1 v 0 0 0 0 h 1 v 1 0 0 0 h 1 v 0 0 0 0 h 1 v 0 0 0 0 0 h 1 v 0 0 0 0 h 1 v 1 0 0 0 h 1 v 0 0 0 0 h 1 v 0 0 0 0 h 1 v 0 0 0 0 h 1 v 0 1 0 0 0 h 1 v 0 0 0 0 h 1 v 0 0 0 0 h 1 v 0 0 0 0 h 1 v 0 1 0 0 h 1 v 0 0 0 0 h 1 v 0 0 0 0 0 h 1 v 0 0 0 0 h 1 v 0 1 0 0 h 1 v 0 0 0 0 h 1 v 0 0 0 0 h 1 v 0 0 0 0 h 1 v 0 0 1 0 0 h 1 v 0 0 0 0 h 1 v 0 0 0 0 h 1 v 0 0 0 0 h 1 v 0 0 1 0 h 1 v 0 0 0 0 h 1 v 0 0 0 0 h 1 v 0 0 0 0 0 h 1 v 0 0 1 0 h 1 v 0 0 0 0 h 1 v 0 0 0 0 h 1 v 0 0 0 0 h 1 v 0 0 0 1 h 1 v 0 0 0 0 0 h 1 v 0 0 0 0 h 1 v 0 0 0 0 h 1 v 0 0 1 0 h 1 v 0 0 0 0 h 1 v 0 0 0 0 h 1 v 0 0 0 0 0 h 1 v 0 0 1 0 h 1 v 0 0 0 0 h 1 v 0 0 0 0 h 1 v 0 0 0 0 h 1 v 0 0 0 1 h 1 v 0 0 0 0 0 h 1 v 0 0 0 0 h 1 v 0 0 0 0 h 1 v 0 0 0 0 l 1,1 v 0 0 0 0 h 1 v 0 0 0 0 h 1 v 0 0 0 0 0 h 1 v 0 0 0 0 l 1,1 v 0 0 0 0 h 1 v 0 0 0 0 h 1 v 0 0 0 0 h 1 v 0 0 0 0 h 1 v 1 0 0 0 0 h 1 v 0 0 0 0 h 1 v 0 0 0 0 h 1 v 0 0 0 0 h 1 v 1 0 0 0 h 1 v 0 0 0 0 h 1 v 0 0 0 0 h 1 v 0 0 0 0 0 h 1 v 1 0 0 0 h 1 v 0 0 0 0 h 1 v 0 0 0 0 h 1 v 0 0 0 0 h 1 v 0 1 0 0 h 1 v 0 0 0 0 0 h 1 v 0 0 0 0 h 1 v 0 0 0 0 h 1 v 0 1 0 0 h 1 v 0 0 0 0 h 1 v 0 0 0 0 h 1 v 0 0 0 0 0 h 1 v 0 1 0 0 h 1 v 0 0 0 0 h 1 v 0 0 0 0 h 1 v 0 0 0 0 h 1 v 0 0 1 0 h 1 v 0 0 0 0 0 h 1 v 0 0 0 0 h 1 v 0 0 0 0 h 1 v 0 0 1 0 h 1 v 0 0 0 0 h 1 v 0 0 0 0 h 1 v 0 0 0 0 0 h 1 v 0 0 1 0 h 1 v 0 0 0 0 h 1 v 0 0 0 0 h 1 v 0 0 0 0 h 1 v 0 0 0 1 h 1 v 0 0 0 0 0 h 1 v 0 0 0 0 h 1 v 0 0 0 0 h 1 v 0 0 0 1 h 1 v 0 0 0 0 h 1 v 0 0 0 0 h 1 v 0 0 0 0 0 h 1 v 0 0 0 1 h 1 v 0 0 0 0 h 1 v 0 0 0 0 h 1 v 0 0 0 0 h 1 v 0 0 0 0 l 1,1 v 0 0 0 0 h 1 v 0 0 0 0 0 h 1 v 0 0 0 0 h 1 v 0 0 0 0 h 1 v 1 0 0 0 h 1 v 0 0 0 0 h 1 v 0 0 0 0 h 1 v 0 0 0 0 0 h 1 v 1 0 0 0 h 1 v 0 0 0 0 h 1 v 0 0 0 0 h 1 v 0 0 0 0 h 1 v 0 1 0 0 h 1 v 0 0 0 0 0 h 1 v 0 0 0 0 h 1 v 0 0 0 0 h 1 v 0 1 0 0 h 1 v 0 0 0 0 h 1 v 0 0 0 0 h 1 v 0 0 0 0 0 h 1 v 0 1 0 0 h 1 v 0 0 0 0 h 1 v 0 0 0 0 h 1 v 0 0 0 0 h 1 v 0 0 1 0 h 1 v 0 0 0 0 0 h 1 v 0 0 0 0 h 1 v 0 0 0 0 h 1 v 0 0 1 0 h 1 v 0 0 0 0 h 1 v 0 0 0 0 h 1 v 0 0 0 0 0 h 1 v 0 0 1 0 h 1 v 0 0 0 0 h 1 v 0 0 0 0 h 1 v 0 0 0 0 h 1 v 0 0 0 1 h 1 v 0 0 0 0 0 h 1 v 0 0 0 0 h 1 v 0 0 0 0 h 1 v 0 0 0 0 l 1,1 v 0 0 0 0 h 1 v 0 0 0 0 h 1 v 0 0 0 0 h 1 v 0 0 0 0 0 l 1,1 v 0 0 0 0 h 1 v 0 0 0 0 h 1 v 0 0 0 0 h 1 v 0 0 0 0 h 1 v 1 0 0 0 h 1 v 0 0 0 0 0 h 1 v 0 0 0 0 h 1 v 0 0 0 0 h 1 v 1 0 0 0 h 1 v 0 0 0 0 h 1 v 0 0 0 0 h 1 v 0 0 0 0 0 h 1 v 1 0 0 0 h 1 v 0 0 0 0 h 1 v 0 0 0 0 h 1 v 0 0 0 0 h 1 v 0 1 0 0 h 1 v 0 0 0 0 0 h 1 v 0 0 0 0 h 1 v 0 0 0 0 h 1 v 0 1 0 0 h 1 v 0 0 0 0 h 1 v 0 0 0 0 h 1 v 0 0 0 0 0 h 1 v 0 1 0 0 h 1 v 0 0 0 0 h 1 v 0"
           stroke="#70ad47"
           stroke-width="2"
           stroke-linecap="round"
           stroke-linejoin="round"
           stroke-miterlimit="10"
           fill="none"
           id="path276" />
      </g>
      <g
         clip-path="url(#clip10)"
         id="g282">
        <path
           d="m 727,-13 v 15 23 8 5 l 1,4 v 3 3 2 2 l 1,1 v 2 1 1 1 l 1,1 v 0 1 1 0 l 1,1 v 0 1 0 0 l 1,1 v 0 0 0 1 0 h 1 v 0 0 0 1 h 1 v 0 0 0 0 h 1 v 0 1 0 0 h 1 v 0 0 0 0 h 1 v 0 1 0 0 h 1 v 0 0 0 0 0 h 1 v 1 0 0 0 h 1 v 0 0 0 0 l 1,1 v 0 0 0 0 h 1 v 0 0 0 1 h 1 v 0 0 0 0 h 1 v 0 0 1 0 h 1 v 0 0 0 0 0 l 1,1 v 0 0 0 0 h 1 v 0 0 0 1 h 1 v 0 0 0 0 h 1 v 0 1 0 0 h 1 v 0 0 0 0 h 1 v 1 0 0 0 0 h 1 v 0 0 1 0 h 1 v 0 0 0 0 h 1 v 0 1 0 0 h 1 v 0 0 0 0 h 1 v 1 0 0 0 h 1 v 0 0 0 0 1 h 1 v 0 0 0 0 h 1 v 0 0 0 1 h 1 v 0 0 0 0 h 1 v 0 0 0 1 h 1 v 0 0 0 0 h 1 v 0 0 0 1 0 h 1 v 0 0 0 0 h 1 v 0 0 1 0 h 1 v 0 0 0 0 h 1 v 0 0 0 1 h 1 v 0 0 0 0 h 1 v 0 0 0 0 1 h 1 v 0 0 0 0 h 1 v 0 0 0 0 l 1,1 v 0 0 0 0 h 1 v 0 0 0 0 h 1 v 1 0 0 0 h 1 v 0 0 0 0 0 h 1 v 1 0 0 0 h 1 v 0 0 0 0 h 1 v 0 0 1 0 h 1 v 0 0 0 0 h 1 v 0 0 0 1 h 1 v 0 0 0 0 0 h 1 v 0 0 0 0 l 1,1 v 0 0 0 0 h 1 v 0 0 0 0 h 1 v 1 0 0 0 h 1 v 0 0 0 0 h 1 v 0 0 1 0 h 1 v 0 0 0 0 0 h 1 v 0 0 1 0 h 1 v 0 0 0 0 h 1 v 0 0 0 0 l 1,1 v 0 0 0 0 h 1 v 0 0 0 0 h 1 v 0 1 0 0 0 h 1 v 0 0 0 0 h 1 v 0 1 0 0 h 1 v 0 0 0 0 h 1 v 0 0 0 1 h 1 v 0 0 0 0 h 1 v 0 0 0 0 1 h 1 v 0 0 0 0 h 1 v 0 0 0 0 h 1 v 1 0 0 0 h 1 v 0 0 0 0 h 1 v 0 0 1 0 h 1 v 0 0 0 0 0 h 1 v 0 0 0 1 h 1 v 0 0 0 0 h 1 v 0 0 0 0 h 1 v 1 0 0 0 h 1 v 0 0 0 0 h 1 v 0 0 1 0 0 h 1 v 0 0 0 0 h 1 v 0 0 0 1 h 1 v 0 0 0 0 h 1 v 0 0 0 0 h 1 v 1 0 0 0 h 1 v 0 0 0 0 0 h 1 v 0 1 0 0 h 1 v 0 0 0 0 h 1 v 0 0 1 0 h 1 v 0 0 0 0 h 1 v 0 0 0 0 l 1,1 v 0 0 0 0 0 h 1 v 0 0 0 0 l 1,1 v 0 0 0 0 h 1 v 0 0 0 0 h 1 v 1 0 0 0 h 1 v 0 0 0 0 h 1 v 0 1 0 0 h 1 v 0 0 0 0 0 h 1 v 0 1 0 0 h 1 v 0 0 0 0 h 1 v 0 1 0 0 h 1 v 0 0 0 0 h 1 v 0 1 0 0 h 1 v 0 0 0 0 0 h 1 v 1 0 0 0 h 1 v 0 0 0 0 l 1,1 v 0 0 0 0 h 1 v 0 0 0 0 l 1,1 v 0 0 0 0 h 1 v 0 0 0 1 0 h 1 v 0 0 0 0 h 1 v 0 1 0 0 h 1 v 0 0 0 0 h 1 v 1 0 0 0 h 1 v 0 0 0 0 l 1,1 v 0 0 0 0 0 h 1 v 0 1 0 0 h 1 v 0 0 0 0 h 1 v 1 0 0 0 h 1 v 0 0 0 0 l 1,1 v 0 0 0 0 h 1 v 0 0 1 0 0 h 1 v 0 0 0 0 l 1,1 v 0 0 0 0 h 1 v 0 0 0 1 h 1 v 0 0 0 0 h 1 v 0 1 0 0 h 1 v 0 0 0 0 1 h 1 v 0 0 0 0 h 1 v 0 1 0 0 h 1 v 0 0 0 0 l 1,1 v 0 0 0 0 h 1 v 0 0 1 0 h 1 v 0 0 0 0 h 1 v 1 0 0 0 0 h 1 v 0 0 1 0 h 1 v 0 0 0 0 h 1 v 1 0 0 0 h 1 v 0 0 0 1 h 1 v 0 0 0 0 h 1 v 0 1 0 0 0 h 1 v 0 0 1 0 h 1 v 0 0 0 0 h 1 v 1 0 0 0 h 1 v 0 0 1 0 h 1 v 0 0 0 0 h 1 v 1 0 0 0 0 h 1 v 0 0 1 0 h 1 v 0 0 0 0 l 1,1 v 0 0 0 0 h 1 v 0 1 0 0 h 1 v 0 0 0 0 l 1,1 v 0 0 0 0 0 h 1 v 1 0 0 0 h 1 v 0 0 0 1 h 1 v 0 0 0 0 h 1 v 1 0 0 0 h 1 v 0 0 1 0 h 1 v 0 0 0 0 0 l 1,1 v 0 0 0 0 h 1 v 0 1 0 0 h 1 v 0 0 0 1 h 1 v 0 0 0 0 h 1 v 0 1 0 0 h 1 v 0 0 0 1 0 h 1 v 0 0 0 0 h 1 v 1 0 0 0 h 1 v 0 0 1 0 h 1 v 0 0 0 0 l 1,1 v 0 0 0 0 h 1 v 0 0 1 0 0 h 1 v 0 0 0 1 h 1 v 0 0 0 0 h 1 v 0 1 0 0 h 1 v 0 0 0 1 h 1 v 0 0 0 0 h 1 v 0 1 0 0 h 1 v 0 0 0 0 1 h 1 v 0 0 0 0 h 1 v 1 0 0 0 h 1 v 0 0 0 1 h 1 v 0 0 0 0 h 1 v 1 0 0 0 h 1 v 0 0 1 0 0 h 1 v 0 0 0 0 l 1,1 v 0 0 0 0 h 1 v 0 1 0 0 h 1 v 0 0 0 0 l 1,1 v 0 0 0 0 h 1 v 0 1 0 0 0 h 1 v 0 0 0 1 h 1 v 0 0 0 0 h 1 v 1 0 0 0 h 1 v 0 0 0 1 h 1 v 0 0 0 0 h 1 v 1 0 0 0 0 h 1 v 0 1 0 0 h 1 v 0 0 0 0 l 1,1 v 0 0 0 0 h 1 v 0 1 0 0 h 1 v 0 0 0 0 l 1,1 v 0 0 0 0 0 h 1 v 0 1 0 0 h 1 v 0 0 0 1 h 1 v 0 0 0 0 h 1 v 0 1 0 0 h 1 v 0 0 0 0 l 1,1 v 0 0 0 0 0 h 1 v 1 0 0 0 h 1 v 0 0 0 1 h 1 v 0 0 0 0 h 1 v 0 1 0 0 h 1 v 0 0 0 0 l 1,1 v 0 0 0 0 0 h 1 v 0 1 0 0 h 1 v 0 0 0 0 l 1,1 v 0 0 0 0 h 1 v 0 0 1 0 h 1 v 0 0 0 0 h 1 v 1 0 0 0 h 1 v 0 0 0 1 0 h 1 v 0 0 0 0 h 1 v 1 0 0 0 h 1 v 0 0 0 1 h 1 v 0 0 0 0 h 1 v 0 1 0 0 h 1 v 0 0 0 0 1 h 1 v 0 0 0 0 h 1 v 0 1 0 0 h 1 v 0 0 0 0 l 1,1 v 0 0 0 0 h 1 v 0 0 1 0 h 1 v 0 0 0 0 0 l 1,1 v 0 0 0 0 h 1 v 0 0 1 0 h 1 v 0 0 0 0 h 1 v 1 0 0 0 h 1 v 0 0 0 0 l 1,1 v 0 0 0 0 0 h 1 v 0 1 0 0 h 1 v 0 0 0 0 l 1,1 v 0 0 0 0 h 1 v 0 0 0 1 h 1 v 0 0 0 0 h 1 v 0 0 1 0 0 h 1 v 0 0 0 0 l 1,1 v 0 0 0 0 h 1 v 0 0 0 1 h 1 v 0 0 0 0 h 1 v 0 0 1 0 h 1 v 0 0 0 0 0 h 1 v 1 0 0 0 h 1 v 0 0 0 0 l 1,1 v 0 0 0 0 h 1 v 0 0 0 0 l 1,1 v 0 0 0 0 h 1 v 0 0 0 1 h 1 v 0 0 0 0 0 h 1 v 0 1 0 0 h 1 v 0 0 0 0 h 1 v 0 1 0 0 h 1 v 0 0 0 0 h 1 v 0 1 0 0 h 1 v 0 0 0 0 0 l 1,1 v 0 0 0 0 h 1 v 0 0 0 0 l 1,1 v 0 0 0 0 h 1 v 0 0 0 0 l 1,1 v 0 0 0 0 h 1 v 0 0 0 0 1 h 1 v 0 0 0 0 h 1 v 0 0 0 1 h 1 v 0 0 0 0 h 1 v 0 0 0 1 h 1 v 0 0 0 0 h 1 v 0 0 0 0 1 h 1 v 0 0 0 0 h 1 v 0 0 0 1 h 1 v 0 0 0 0 h 1 v 0 0 0 0 l 1,1 v 0 0 0 0 h 1 v 0 0 0 0 0 l 1,1 v 0 0 0 0 h 1 v 0 0 0 0 h 1 v 0 1 0 0 h 1 v 0 0 0 0 h 1 v 0 0 0 1 h 1 v 0 0 0 0 0 h 1 v 0 0 0 0 l 1,1 v 0 0 0 0 h 1 v 0 0 0 0 h 1 v 0 1 0 0 h 1 v 0 0 0 0 h 1 v 0 0 0 0 1 h 1 v 0 0 0 0 h 1 v 0 0 0 0 h 1 v 0 1 0 0 h 1 v 0 0 0 0 h 1 v 0 0 0 0 h 1 v 1 0 0 0 h 1 v 0 0 0 0 0 h 1 v 0 0 1 0 h 1 v 0 0 0 0 h 1 v 0 0 0 0 h 1 v 0 1 0 0 h 1 v 0 0 0 0 h 1 v 0 0 0 0 0 l 1,1 v 0 0 0 0 h 1 v 0 0 0 0 h 1 v 0 0 0 1 h 1 v 0 0 0 0 h 1 v 0 0 0 0 h 1 v 0 0 0 1 0 h 1 v 0 0 0 0 h 1 v 0 0 0 0 h 1 v 0 0 1 0 h 1 v 0 0 0 0 h 1 v 0 0 0 0 h 1 v 0 0 1 0 0 h 1 v 0 0 0 0 h 1 v 0 0 0 0 h 1 v 0 0 1 0 h 1 v 0 0 0 0 h 1 v 0 0 0 0 h 1 v 0 0 0 0 1 h 1 v 0 0 0 0 h 1 v 0 0 0 0 h 1 v 0 0 0 0 h 1 v 1 0 0 0 h 1 v 0 0 0 0 h 1 v 0 0 0 0 0 h 1 v 0 1 0 0 h 1 v 0 0 0 0 h 1 v 0 0 0 0 h 1 v 0 0 0 0 l 1,1 v 0 0 0 0 h 1 v 0 0 0 0 0 h 1 v 0 0 0 0 h 1 v 0 1 0 0 h 1 v 0 0 0 0 h 1 v 0 0 0 0 h 1 v 0 0 0 0 l 1,1 v 0 0 0 0 h 1 v 0 0 0 0 0 h 1 v 0 0 0 0 h 1 v 0 1 0 0 h 1 v 0 0 0 0 h 1 v 0 0 0 0 h 1 v 0 0 0 0 h 1 v 1 0 0 0 0 h 1 v 0 0 0 0 h 1 v 0 0 0 0 h 1 v 0 0 1 0 h 1 v 0 0 0 0 h 1 v 0 0 0 0 h 1 v 0 0 0 0 0 h 1 v 1 0 0 0 h 1 v 0 0 0 0 h 1 v 0 0 0 0 h 1 v 0 0 0 0 h 1 v 1 0 0 0 h 1 v 0 0 0 0 0 h 1 v 0 0 0 0 h 1 v 0 0 0 1 h 1 v 0 0 0 0 h 1 v 0 0 0 0 h 1 v 0 0 0 0 h 1 v 0 0 0 1 0 h 1 v 0 0 0 0 h 1 v 0 0 0 0 h 1 v 0 0 0 0 h 1 v 0 0 1 0 h 1 v 0 0 0 0 h 1 v 0 0 0 0 0 h 1 v 0 0 0 0 h 1 v 0 1 0 0 h 1 v 0 0 0 0 h 1 v 0 0 0 0 h 1 v 0 0 0 0 h 1 v 0 0 1 0 h 1 v 0 0 0 0 0 h 1 v 0 0 0 0 h 1 v 0 0 0 0 h 1 v 0 1 0 0 h 1 v 0 0 0 0 h 1 v 0 0 0 0 h 1 v 0 0 0 0 0 h 1 v 0 1 0 0 h 1 v 0 0 0 0 h 1 v 0 0 0 0 h 1 v 0 0 0 0 h 1 v 0 1 0 0 h 1 v 0 0 0 0 0 h 1 v 0 0 0 0 h 1 v 0 0 0 0 h 1 v 0 1 0 0 h 1 v 0 0 0 0 h 1 v 0 0 0 0 h 1 v 0 0 0 0 0 h 1 v 1 0 0 0 h 1 v 0 0 0 0 h 1 v 0 0 0 0 h 1 v 0 0 0 0 h 1 v 0 1 0 0 h 1 v 0 0 0 0 0 h 1 v 0 0 0 0 h 1 v 0 0 0 0 h 1 v 0 1 0 0 h 1 v 0 0 0 0 h 1 v 0 0 0 0 h 1 v 0 0 0 0 0 h 1 v 0 1 0 0 h 1 v 0 0 0 0 h 1 v 0 0 0 0 h 1 v 0 0 0 0 h 1 v 0 0 1 0 h 1 v 0 0 0 0 0 h 1 v 0 0 0 0 h 1 v 0 0 0 0 h 1 v 0 0 1 0 h 1 v 0 0 0 0 h 1 v 0 0 0 0 h 1 v 0 0 0 0 h 1 v 0 0 0 1 0 h 1 v 0 0 0 0 h 1 v 0 0 0 0 h 1 v 0 0 0 0 h 1 v 0 0 0 1 h 1 v 0 0 0 0 h 1 v 0 0 0 0 0 h 1 v 0 0 0 0 h 1 v 0 0 0 1 h 1 v 0 0 0 0 h 1 v 0 0 0 0 h 1 v 0 0 0 0 h 1 v 0 0 0 0 0 l 1,1 v 0 0 0 0 h 1 v 0 0 0 0 h 1 v 0 0 0 0 h 1 v 0 0 0 0 h 1 v 1 0 0 0 h 1 v 0 0 0 0 0 h 1 v 0 0 0 0 h 1 v 0 0 0 0 h 1 v 1 0 0 0 h 1 v 0 0 0 0 h 1 v 0 0 0 0 h 1 v 0 0 0 0 0 h 1 v 1 0 0 0 h 1 v 0 0 0 0 h 1 v 0 0 0 0 h 1 v 0 0 0 0 h 1 v 0 0 1 0 h 1 v 0 0 0 0 0 h 1 v 0 0 0 0 h 1 v 0 0 0 0 h 1 v 0 0 1 0 h 1 v 0 0 0 0 h 1 v 0 0 0 0 h 1 v 0 0 0 0 0 h 1 v 0 0 1 0 h 1 v 0 0 0 0 h 1 v 0 0 0 0 h 1 v 0 0 0 0 h 1 v 0 0 0 1 h 1 v 0 0 0 0 h 1 v 0 0 0 0 0 h 1 v 0 0 0 0 h 1 v 0 0 0 0 l 1,1 v 0 0 0 0 h 1 v 0 0 0 0 h 1 v 0 0 0 0 h 1 v 0 0 0 0 0 l 1,1 v 0 0 0 0 h 1 v 0 0 0 0 h 1 v 0 0 0 0 h 1 v 0 0 0 0 h 1 v 1 0 0 0 h 1 v 0 0 0 0 0 h 1 v 0 0 0 0 h 1 v 0 0 0 0 h 1 v 0 1 0 0 h 1 v 0 0 0 0 h 1 v 0 0 0 0 h 1 v 0 0 0 0 0 h 1 v 0 1 0 0 h 1 v 0 0 0 0 h 1 v 0 0 0 0 h 1 v 0 0 0 0 h 1 v 0 0 1 0 h 1 v 0 0 0 0 0 h 1 v 0 0 0 0 h 1 v 0 0 0 0 h 1 v 0 0 0 1 h 1 v 0 0 0 0 h 1 v 0 0 0 0 h 1 v 0 0 0 0 0 h 1 v 0 0 0 1 h 1 v 0 0 0 0 h 1 v 0 0 0 0 h 1 v 0 0 0 0 h 1 v 0 0 0 0 h 1 v 1 0 0 0 h 1 v 0 0 0 0 0 h 1 v 0 0 0 0 h 1 v 0 0 0 0 h 1 v 1 0 0 0 h 1 v 0 0 0 0 h 1 v 0 0 0 0 h 1 v 0 0 0 0 0 h 1 v 1 0 0 0 h 1 v 0 0 0 0 h 1 v 0 0 0 0 h 1 v 0 0 0 0 h 1 v 0 0 1 0 h 1 v 0 0 0 0 0 h 1 v 0 0 0 0 h 1 v 0 0 0 0 h 1 v 0 0 1 0 h 1 v 0 0 0 0 h 1 v 0 0 0 0 h 1 v 0 0 0 0 0 h 1 v 0 0 1 0 h 1 v 0 0 0 0 h 1 v 0 0 0 0 h 1 v 0 0 0 0 h 1 v 0 0 0 0 l 1,1 v 0 0 0 0 0 h 1 v 0 0 0 0 h 1 v 0 0 0 0 h 1 v 0 0 0 0 l 1,1 v 0 0 0 0 h 1 v 0 0 0 0 h 1"
           stroke="#4472c4"
           stroke-width="2"
           stroke-linecap="round"
           stroke-linejoin="round"
           stroke-miterlimit="10"
           fill="none"
           id="path280" />
      </g>
      <g
         clip-path="url(#clip11)"
         id="g286">
        <path
           d="m 727,-16 v 27 14 8 5 l 1,4 v 3 3 2 2 l 1,1 v 2 1 1 1 l 1,1 v 0 1 1 0 l 1,1 v 0 0 1 0 h 1 v 1 0 0 0 0 l 1,1 v 0 0 0 0 h 1 v 1 0 0 0 h 1 v 0 0 0 0 h 1 v 1 0 0 0 h 1 v 0 0 0 0 h 1 v 0 1 0 0 0 h 1 v 0 0 0 0 h 1 v 1 0 0 0 h 1 v 0 0 0 0 h 1 v 1 0 0 0 h 1 v 0 0 0 0 l 1,1 v 0 0 0 0 h 1 v 0 0 0 1 0 h 1 v 0 0 0 0 h 1 v 0 1 0 0 h 1 v 0 0 0 0 l 1,1 v 0 0 0 0 h 1 v 0 0 0 1 h 1 v 0 0 0 0 0 h 1 v 1 0 0 0 h 1 v 0 0 0 0 l 1,1 v 0 0 0 0 h 1 v 0 0 0 1 h 1 v 0 0 0 0 h 1 v 0 0 1 0 0 h 1 v 0 0 0 0 h 1 v 0 1 0 0 h 1 v 0 0 0 0 h 1 v 1 0 0 0 h 1 v 0 0 0 0 h 1 v 1 0 0 0 0 h 1 v 0 0 0 0 l 1,1 v 0 0 0 0 h 1 v 0 0 0 0 l 1,1 v 0 0 0 0 h 1 v 0 0 0 0 l 1,1 v 0 0 0 0 0 h 1 v 0 0 0 0 l 1,1 v 0 0 0 0 h 1 v 0 0 0 0 l 1,1 v 0 0 0 0 h 1 v 0 0 0 0 h 1 v 1 0 0 0 0 h 1 v 0 0 0 0 h 1 v 1 0 0 0 h 1 v 0 0 0 0 h 1 v 0 1 0 0 h 1 v 0 0 0 0 h 1 v 0 1 0 0 0 h 1 v 0 0 0 0 h 1 v 0 1 0 0 h 1 v 0 0 0 0 h 1 v 0 0 1 0 h 1 v 0 0 0 0 h 1 v 0 0 0 1 h 1 v 0 0 0 0 0 h 1 v 0 0 0 1 h 1 v 0 0 0 0 h 1 v 0 0 0 0 l 1,1 v 0 0 0 0 h 1 v 0 0 0 0 h 1 v 1 0 0 0 0 h 1 v 0 0 0 0 h 1 v 1 0 0 0 h 1 v 0 0 0 0 h 1 v 0 1 0 0 h 1 v 0 0 0 0 h 1 v 0 0 1 0 0 h 1 v 0 0 0 0 h 1 v 0 0 1 0 h 1 v 0 0 0 0 h 1 v 0 0 0 1 h 1 v 0 0 0 0 h 1 v 0 0 0 0 1 h 1 v 0 0 0 0 h 1 v 0 0 0 0 l 1,1 v 0 0 0 0 h 1 v 0 0 0 0 h 1 v 1 0 0 0 h 1 v 0 0 0 0 0 h 1 v 1 0 0 0 h 1 v 0 0 0 0 h 1 v 0 1 0 0 h 1 v 0 0 0 0 h 1 v 0 0 1 0 h 1 v 0 0 0 0 0 h 1 v 0 0 1 0 h 1 v 0 0 0 0 h 1 v 0 0 1 0 h 1 v 0 0 0 0 h 1 v 0 0 1 0 h 1 v 0 0 0 0 0 h 1 v 0 1 0 0 h 1 v 0 0 0 0 h 1 v 0 1 0 0 h 1 v 0 0 0 0 h 1 v 0 1 0 0 h 1 v 0 0 0 0 h 1 v 1 0 0 0 0 h 1 v 0 0 0 1 h 1 v 0 0 0 0 h 1 v 0 0 1 0 h 1 v 0 0 0 0 h 1 v 0 1 0 0 h 1 v 0 0 0 0 0 l 1,1 v 0 0 0 0 h 1 v 0 0 1 0 h 1 v 0 0 0 0 h 1 v 0 1 0 0 h 1 v 0 0 0 0 l 1,1 v 0 0 0 0 0 h 1 v 0 1 0 0 h 1 v 0 0 0 0 l 1,1 v 0 0 0 0 h 1 v 0 0 1 0 h 1 v 0 0 0 0 h 1 v 1 0 0 0 0 h 1 v 0 0 1 0 h 1 v 0 0 0 0 h 1 v 1 0 0 0 h 1 v 0 0 0 1 h 1 v 0 0 0 0 h 1 v 0 1 0 0 0 h 1 v 0 0 1 0 h 1 v 0 0 0 0 h 1 v 1 0 0 0 h 1 v 0 0 0 1 h 1 v 0 0 0 0 h 1 v 1 0 0 0 0 h 1 v 0 0 1 0 h 1 v 0 0 0 0 h 1 v 1 0 0 0 h 1 v 0 0 1 0 h 1 v 0 0 0 0 h 1 v 1 0 0 0 h 1 v 0 0 1 0 0 h 1 v 0 0 0 0 l 1,1 v 0 0 0 0 h 1 v 0 1 0 0 h 1 v 0 0 0 1 h 1 v 0 0 0 0 h 1 v 0 1 0 0 0 h 1 v 0 0 1 0 h 1 v 0 0 0 0 l 1,1 v 0 0 0 0 h 1 v 0 0 1 0 h 1 v 0 0 0 0 l 1,1 v 0 0 0 0 0 h 1 v 1 0 0 0 h 1 v 0 0 0 1 h 1 v 0 0 0 0 h 1 v 1 0 0 0 h 1 v 0 0 1 0 h 1 v 0 0 0 0 1 h 1 v 0 0 0 0 h 1 v 0 1 0 0 h 1 v 0 0 0 1 h 1 v 0 0 0 0 h 1 v 0 1 0 0 h 1 v 0 0 0 1 0 h 1 v 0 0 0 0 l 1,1 v 0 0 0 0 h 1 v 0 0 1 0 h 1 v 0 0 0 0 l 1,1 v 0 0 0 0 h 1 v 0 0 1 0 0 h 1 v 0 0 0 0 l 1,1 v 0 0 0 0 h 1 v 0 1 0 0 h 1 v 0 0 0 0 l 1,1 v 0 0 0 0 h 1 v 0 0 1 0 0 h 1 v 0 0 0 0 l 1,1 v 0 0 0 0 h 1 v 0 1 0 0 h 1 v 0 0 0 0 l 1,1 v 0 0 0 0 h 1 v 0 0 1 0 h 1 v 0 0 0 0 0 l 1,1 v 0 0 0 0 h 1 v 0 0 1 0 h 1 v 0 0 0 0 h 1 v 1 0 0 0 h 1 v 0 0 0 1 h 1 v 0 0 0 0 0 h 1 v 1 0 0 0 h 1 v 0 0 0 1 h 1 v 0 0 0 0 h 1 v 0 1 0 0 h 1 v 0 0 0 0 l 1,1 v 0 0 0 0 0 h 1 v 0 1 0 0 h 1 v 0 0 0 0 l 1,1 v 0 0 0 0 h 1 v 0 0 1 0 h 1 v 0 0 0 0 h 1 v 0 1 0 0 0 h 1 v 0 0 0 1 h 1 v 0 0 0 0 h 1 v 0 0 1 0 h 1 v 0 0 0 0 h 1 v 0 1 0 0 h 1 v 0 0 0 0 0 l 1,1 v 0 0 0 0 h 1 v 0 0 0 1 h 1 v 0 0 0 0 h 1 v 0 0 1 0 h 1 v 0 0 0 0 h 1 v 0 1 0 0 0 h 1 v 0 0 0 0 h 1 v 1 0 0 0 h 1 v 0 0 0 0 l 1,1 v 0 0 0 0 h 1 v 0 0 0 0 l 1,1 v 0 0 0 0 0 h 1 v 0 0 0 1 h 1 v 0 0 0 0 h 1 v 0 0 0 1 h 1 v 0 0 0 0 h 1 v 0 0 0 1 h 1 v 0 0 0 0 h 1 v 0 0 0 1 0 h 1 v 0 0 0 0 h 1 v 0 0 0 1 h 1 v 0 0 0 0 h 1 v 0 0 0 1 h 1 v 0 0 0 0 h 1 v 0 0 0 0 1 h 1 v 0 0 0 0 h 1 v 0 0 0 0 l 1,1 v 0 0 0 0 h 1 v 0 0 0 0 h 1 v 1 0 0 0 h 1 v 0 0 0 0 0 h 1 v 1 0 0 0 h 1 v 0 0 0 0 h 1 v 0 0 1 0 h 1 v 0 0 0 0 h 1 v 0 0 0 0 l 1,1 v 0 0 0 0 0 h 1 v 0 0 0 0 h 1 v 0 1 0 0 h 1 v 0 0 0 0 h 1 v 0 0 0 0 l 1,1 v 0 0 0 0 h 1 v 0 0 0 0 0 h 1 v 0 1 0 0 h 1 v 0 0 0 0 h 1 v 0 0 0 0 h 1 v 1 0 0 0 h 1 v 0 0 0 0 h 1 v 0 0 0 0 1 h 1 v 0 0 0 0 h 1 v 0 0 0 0 h 1 v 0 0 0 1 h 1 v 0 0 0 0 h 1 v 0 0 0 0 h 1 v 0 0 1 0 h 1 v 0 0 0 0 0 h 1 v 0 0 0 0 h 1 v 0 1 0 0 h 1 v 0 0 0 0 h 1 v 0 0 0 0 h 1 v 0 0 1 0 h 1 v 0 0 0 0 0 h 1 v 0 0 0 0 h 1 v 0 1 0 0 h 1 v 0 0 0 0 h 1 v 0 0 0 0 h 1 v 0 0 1 0 h 1 v 0 0 0 0 0 h 1 v 0 0 0 0 h 1 v 0 0 0 1 h 1 v 0 0 0 0 h 1 v 0 0 0 0 h 1 v 0 0 0 0 l 1,1 v 0 0 0 0 0 h 1 v 0 0 0 0 h 1 v 0 0 0 0 h 1 v 0 1 0 0 h 1 v 0 0 0 0 h 1 v 0 0 0 0 h 1 v 0 0 0 0 1 h 1 v 0 0 0 0 h 1 v 0 0 0 0 h 1 v 0 0 0 0 h 1 v 0 1 0 0 h 1 v 0 0 0 0 h 1 v 0 0 0 0 0 h 1 v 0 0 0 1 h 1 v 0 0 0 0 h 1 v 0 0 0 0 h 1 v 0 0 0 0 h 1 v 0 0 1 0 h 1 v 0 0 0 0 0 h 1 v 0 0 0 0 h 1 v 0 0 0 0 h 1 v 1 0 0 0 h 1 v 0 0 0 0 h 1 v 0 0 0 0 h 1 v 0 0 0 0 l 1,1 v 0 0 0 0 0 h 1 v 0 0 0 0 h 1 v 0 0 0 0 h 1 v 0 0 1 0 h 1 v 0 0 0 0 h 1 v 0 0 0 0 h 1 v 0 0 0 0 0 h 1 v 0 1 0 0 h 1 v 0 0 0 0 h 1 v 0 0 0 0 h 1 v 0 0 0 0 h 1 v 1 0 0 0 h 1 v 0 0 0 0 0 h 1 v 0 0 0 0 h 1 v 0 0 0 0 l 1,1 v 0 0 0 0 h 1 v 0 0 0 0 h 1 v 0 0 0 0 h 1 v 0 0 0 0 0 l 1,1 v 0 0 0 0 h 1 v 0 0 0 0 h 1 v 0 0 0 0 h 1 v 0 0 0 0 l 1,1 v 0 0 0 0 h 1 v 0 0 0 0 0 h 1 v 0 0 0 0 h 1 v 0 0 0 1 h 1 v 0 0 0 0 h 1 v 0 0 0 0 h 1 v 0 0 0 0 h 1 v 0 0 0 0 1 h 1 v 0 0 0 0 h 1 v 0 0 0 0 h 1 v 0 0 0 0 h 1 v 0 0 0 0 l 1,1 v 0 0 0 0 h 1 v 0 0 0 0 0 h 1 v 0 0 0 0 h 1 v 0 0 0 1 h 1 v 0 0 0 0 h 1 v 0 0 0 0 h 1 v 0 0 0 0 h 1 v 0 0 0 0 l 1,1 v 0 0 0 0 0 h 1 v 0 0 0 0 h 1 v 0 0 0 0 h 1 v 0 0 0 0 l 1,1 v 0 0 0 0 h 1 v 0 0 0 0 h 1 v 0 0 0 0 0 h 1 v 0 0 0 0 l 1,1 v 0 0 0 0 h 1 v 0 0 0 0 h 1 v 0 0 0 0 h 1 v 0 0 0 0 h 1 v 1 0 0 0 0 h 1 v 0 0 0 0 h 1 v 0 0 0 0 h 1 v 0 0 0 0 h 1 v 1 0 0 0 h 1 v 0 0 0 0 h 1 v 0 0 0 0 0 h 1 v 0 0 0 0 h 1 v 1 0 0 0 h 1 v 0 0 0 0 h 1 v 0 0 0 0 h 1 v 0 0 0 0 h 1 v 0 1 0 0 0 h 1 v 0 0 0 0 h 1 v 0 0 0 0 h 1 v 0 0 0 0 h 1 v 0 1 0 0 h 1 v 0 0 0 0 h 1 v 0 0 0 0 0 h 1 v 0 0 0 0 h 1 v 0 1 0 0 h 1 v 0 0 0 0 h 1 v 0 0 0 0 h 1 v 0 0 0 0 h 1 v 0 0 1 0 h 1 v 0 0 0 0 0 h 1 v 0 0 0 0 h 1 v 0 0 0 0 h 1 v 0 0 0 1 h 1 v 0 0 0 0 h 1 v 0 0 0 0 h 1 v 0 0 0 0 0 h 1 v 0 0 0 1 h 1 v 0 0 0 0 h 1 v 0 0 0 0 h 1 v 0 0 0 0 h 1 v 0 0 0 0 l 1,1 v 0 0 0 0 0 h 1 v 0 0 0 0 h 1 v 0 0 0 0 h 1 v 0 0 0 0 l 1,1 v 0 0 0 0 h 1 v 0 0 0 0 h 1 v 0 0 0 0 0 h 1 v 0 0 0 0 h 1 v 1 0 0 0 h 1 v 0 0 0 0 h 1 v 0 0 0 0 h 1 v 0 0 0 0 h 1 v 0 1 0 0 0 h 1 v 0 0 0 0 h 1 v 0 0 0 0 h 1 v 0 0 0 0 h 1 v 0 1 0 0 h 1 v 0 0 0 0 h 1 v 0 0 0 0 0 h 1 v 0 0 0 0 h 1 v 0 0 1 0 h 1 v 0 0 0 0 h 1 v 0 0 0 0 h 1 v 0 0 0 0 h 1 v 0 0 0 1 0 h 1 v 0 0 0 0 h 1 v 0 0 0 0 h 1 v 0 0 0 0 h 1 v 0 0 0 1 h 1 v 0 0 0 0 h 1 v 0 0 0 0 h 1 v 0 0 0 0 0 h 1 v 0 0 0 0 l 1,1 v 0 0 0 0 h 1 v 0 0 0 0 h 1 v 0 0 0 0 h 1 v 0 0 0 0 h 1 v 1 0 0 0 0 h 1 v 0 0 0 0 h 1 v 0 0 0 0 h 1 v 0 0 0 0 h 1 v 1 0 0 0 h 1 v 0 0 0 0 h 1 v 0 0 0 0 0 h 1 v 0 0 0 0 h 1 v 0 1 0 0 h 1 v 0 0 0 0 h 1 v 0 0 0 0 h 1 v 0 0 0 0 h 1 v 0 0 1 0 0 h 1 v 0 0 0 0 h 1 v 0 0 0 0 h 1 v 0 0 0 0 h 1 v 0 0 0 1 h 1 v 0 0 0 0 h 1 v 0 0 0 0 0 h 1 v 0 0 0 0 h 1 v 0 0 0 1 h 1 v 0 0 0 0 h 1 v 0 0 0 0 h 1 v 0 0 0 0 h 1 v 0 0 0 0 1 h 1 v 0 0 0 0 h 1 v 0 0 0 0 h 1 v 0 0 0 0 h 1 v 0 0 0 0 h 1 v 1 0 0 0 h 1 v 0 0 0 0 0 h 1 v 0 0 0 0 h 1 v 0 0 0 0 h 1 v 1 0 0 0 h 1 v 0 0 0 0 h 1 v 0 0 0 0 h 1 v 0 0 0 0 h 1 v 0 0 1 0 0 h 1 v 0 0 0 0 h 1 v 0 0 0 0 h 1 v 0 0 0 0 h 1 v 0 0 1 0 h 1 v 0 0 0 0 h 1 v 0 0 0 0 0 h 1 v 0 0 0 0 h 1 v 0 0 1 0 h 1 v 0 0 0 0 h 1 v 0 0 0 0 h 1 v 0 0 0 0 h 1 v 0 0 0 0 1 h 1 v 0 0 0 0 h 1 v 0 0 0 0 h 1 v 0 0 0 0 h 1 v 0 0 0 0 l 1,1 v 0 0 0 0 h 1 v 0 0 0 0 0 h 1 v 0 0 0 0 h 1 v 0 0 0 0 h 1 v 1 0 0 0 h 1 v 0 0 0 0 h 1 v 0 0 0 0 h 1 v 0 0 0 0 0 h 1 v 1 0 0 0 h 1 v 0 0 0 0 h 1 v 0 0 0 0 h 1 v 0 0 0 0 h 1 v 0 1 0 0 h 1 v 0 0 0 0 0 h 1 v 0 0 0 0 h 1 v 0 0 0 0 h 1 v 0 0 1 0 h 1 v 0 0 0 0 h 1 v 0 0 0 0 h 1 v 0 0 0 0 h 1 v 0 0 0 1 0 h 1 v 0 0 0 0 h 1 v 0 0 0 0 h 1 v 0 0 0 0 h 1 v 0 0 0 0 l 1,1 v 0 0 0 0 h 1 v 0 0 0 0 0 h 1 v 0 0 0 0 h 1 v 0 0 0 0 l 1,1 v 0 0 0 0 h 1 v 0 0 0 0 h 1 v 0 0 0 0 h 1 v 0 0 0 0 0 h 1 v 1 0 0 0 h 1 v 0 0 0 0 h 1 v 0 0 0 0 h 1 v 0 0 0 0 h 1 v 0 1 0 0 h 1 v 0 0 0 0 0 h 1 v 0 0 0 0 h 1 v 0 0 0 0 h 1 v 0 1 0 0 h 1 v 0 0 0 0 h 1 v 0 0 0 0 h 1 v 0 0 0 0 0 h 1 v 0 0 1 0 h 1 v 0 0 0 0 h 1 v 0 0 0 0 h 1 v 0 0 0 0 h 1 v 0 0 0 1 h 1 v 0 0 0 0 0 h 1 v 0 0 0 0 h 1 v 0 0 0 0 h 1 v 0 0 0 0 l 1,1 v 0 0 0 0 h 1 v 0 0 0 0 h 1 v 0 0 0 0 0 h 1 v 0 0 0 0 l 1,1 v 0 0 0 0 h 1 v 0 0 0 0 h 1 v 0 0 0 0 h 1 v 0 0 0 0 h 1 v 1 0 0 0 h 1 v 0 0 0 0 0 h 1 v 0 0 0 0 h 1 v 0 0 0 0 h 1 v 0 1 0 0 h 1 v 0 0 0 0 h 1 v 0 0 0 0 h 1 v 0 0 0 0 0 h 1 v 0 1 0 0 h 1 v 0 0 0 0 h 1 v 0 0 0 0 h 1 v 0 0 0 0 h 1 v 0 0 0 1 h 1 v 0 0 0 0 0 h 1 v 0 0 0 0 h 1 v 0 0 0 0 h 1 v 0 0 0 1 h 1 v 0 0 0 0 h 1 v 0 0 0 0 h 1 v 0 0 0 0 0 h 1 v 0 0 0 0 l 1,1 v 0 0 0 0 h 1 v 0 0 0 0 h 1 v 0 0 0 0 h 1 v 0 0 0 0 h 1 v 1 0 0 0 0 h 1 v 0 0 0 0 h 1 v 0 0 0 0 h 1 v 0 0 0 0 h 1 v 0 1 0 0 h 1 v 0 0 0 0 h 1 v 0 0 0 0 0 h 1 v 0 0 0 0 h 1 v 0 1 0 0 h 1 v 0 0 0 0 h 1 v 0 0 0 0 h 1 v 0 0 0 0 h 1 v 0 0 1 0 0 h 1 v 0 0 0 0 h 1 v 0 0 0 0 h 1 v 0 0 0 0 h 1 v 0 0 0 1 h 1 v 0 0 0 0 h 1 v 0 0 0 0 h 1 v 0 0 0 0 0 h 1 v 0 0 0 1 h 1 v 0 0 0 0 h 1 v 0 0 0 0 h 1 v 0 0 0 0 h 1 v 0 0 0 0 h 1 v 1 0 0 0 0 h 1 v 0 0 0 0 h 1 v 0 0 0 0 h 1 v 0 0 0 0 h 1 v 1 0 0 0 h 1 v 0 0 0 0 h 1 v 0 0 0 0 0 h 1 v 0 0 0 0 h 1 v 0 1 0 0 h 1 v 0 0 0 0 h 1 v 0 0 0 0 h 1 v 0 0 0 0 h 1 v 0 0 1 0 0 h 1 v 0 0 0 0 h 1 v 0"
           stroke="#ffc000"
           stroke-width="2"
           stroke-linecap="round"
           stroke-linejoin="round"
           stroke-miterlimit="10"
           fill="none"
           id="path284" />
      </g>
      <g
         clip-path="url(#clip12)"
         id="g290">
        <text
           font-family="Arial, Arial_MSFontService, sans-serif"
           font-weight="400"
           font-size="12px"
           transform="translate(681.007,348)"
           id="text288">1.E-09</text>
      </g>
      <g
         clip-path="url(#clip13)"
         id="g294">
        <text
           font-family="Arial, Arial_MSFontService, sans-serif"
           font-weight="400"
           font-size="12px"
           transform="translate(681.007,301)"
           id="text292">1.E-08</text>
      </g>
      <g
         clip-path="url(#clip14)"
         id="g298">
        <text
           font-family="Arial, Arial_MSFontService, sans-serif"
           font-weight="400"
           font-size="12px"
           transform="translate(681.007,254)"
           id="text296">1.E-07</text>
      </g>
      <g
         clip-path="url(#clip15)"
         id="g302">
        <text
           font-family="Arial, Arial_MSFontService, sans-serif"
           font-weight="400"
           font-size="12px"
           transform="translate(681.007,207)"
           id="text300">1.E-06</text>
      </g>
      <g
         clip-path="url(#clip16)"
         id="g306">
        <text
           font-family="Arial, Arial_MSFontService, sans-serif"
           font-weight="400"
           font-size="12px"
           transform="translate(681.007,160)"
           id="text304">1.E-05</text>
      </g>
      <g
         clip-path="url(#clip17)"
         id="g310">
        <text
           font-family="Arial, Arial_MSFontService, sans-serif"
           font-weight="400"
           font-size="12px"
           transform="translate(681.007,113)"
           id="text308">1.E-04</text>
      </g>
      <g
         clip-path="url(#clip18)"
         id="g314">
        <text
           font-family="Arial, Arial_MSFontService, sans-serif"
           font-weight="400"
           font-size="12px"
           transform="translate(681.007,66)"
           id="text312">1.E-03</text>
      </g>
      <g
         clip-path="url(#clip19)"
         id="g318">
        <text
           font-family="Arial, Arial_MSFontService, sans-serif"
           font-weight="400"
           font-size="12px"
           transform="translate(681.007,19)"
           id="text316">1.E-02</text>
      </g>
      <g
         clip-path="url(#clip20)"
         id="g322">
        <text
           font-family="Arial, Arial_MSFontService, sans-serif"
           font-weight="400"
           font-size="12px"
           transform="translate(723.344,33)"
           id="text320">0</text>
      </g>
      <g
         clip-path="url(#clip21)"
         id="g326">
        <text
           font-family="Arial, Arial_MSFontService, sans-serif"
           font-weight="400"
           font-size="12px"
           transform="translate(813.52,33)"
           id="text324">500</text>
      </g>
      <g
         clip-path="url(#clip22)"
         id="g330">
        <text
           font-family="Arial, Arial_MSFontService, sans-serif"
           font-weight="400"
           font-size="12px"
           transform="translate(907.034,33)"
           id="text328">1000</text>
      </g>
      <g
         clip-path="url(#clip23)"
         id="g334">
        <text
           font-family="Arial, Arial_MSFontService, sans-serif"
           font-weight="400"
           font-size="12px"
           transform="translate(1003.88,33)"
           id="text332">1500</text>
      </g>
      <g
         clip-path="url(#clip24)"
         id="g338">
        <text
           font-family="Arial, Arial_MSFontService, sans-serif"
           font-weight="400"
           font-size="12px"
           transform="translate(1100.73,33)"
           id="text336">2000</text>
      </g>
      <g
         clip-path="url(#clip25)"
         id="g342">
        <text
           font-family="Arial, Arial_MSFontService, sans-serif"
           font-weight="400"
           font-size="12px"
           transform="translate(1197.58,33)"
           id="text340">2500</text>
      </g>
      <g
         clip-path="url(#clip26)"
         id="g346">
        <text
           font-family="Arial, Arial_MSFontService, sans-serif"
           font-weight="400"
           font-size="12px"
           transform="translate(1294.44,33)"
           id="text344">3000</text>
      </g>
      <g
         clip-path="url(#clip27)"
         id="g350">
        <text
           font-family="Arial, Arial_MSFontService, sans-serif"
           font-weight="400"
           font-size="13px"
           transform="rotate(-90,457.3335,-210.3335)"
           id="text348">Resíduo da velocidade</text>
      </g>
      <g
         clip-path="url(#clip28)"
         id="g354">
        <text
           font-family="Arial, Arial_MSFontService, sans-serif"
           font-weight="400"
           font-size="13px"
           transform="translate(1022.2,359)"
           id="text352">Iteração</text>
      </g>
      <g
         clip-path="url(#clip29)"
         id="g358">
        <rect
           x="1245.5"
           y="69.500099"
           width="113"
           height="69"
           stroke="#000000"
           stroke-linejoin="round"
           stroke-miterlimit="10"
           fill="#ffffff"
           id="rect356" />
      </g>
      <g
         clip-path="url(#clip30)"
         id="g362">
        <path
           d="m 1259,81 26,1e-4"
           stroke="#70ad47"
           stroke-width="2"
           stroke-linecap="round"
           stroke-linejoin="round"
           stroke-miterlimit="10"
           fill="none"
           fill-rule="evenodd"
           id="path360" />
      </g>
      <g
         clip-path="url(#clip31)"
         id="g366">
        <text
           font-family="Arial, Arial_MSFontService, sans-serif"
           font-weight="400"
           font-size="13px"
           transform="translate(1287.32,85)"
           id="text364">VMS-Lin</text>
      </g>
      <g
         clip-path="url(#clip32)"
         id="g370">
        <path
           d="m 1259,104 h 26"
           stroke="#4472c4"
           stroke-width="2"
           stroke-linecap="round"
           stroke-linejoin="round"
           stroke-miterlimit="10"
           fill="none"
           fill-rule="evenodd"
           id="path368" />
      </g>
      <g
         clip-path="url(#clip33)"
         id="g374">
        <text
           font-family="Arial, Arial_MSFontService, sans-serif"
           font-weight="400"
           font-size="13px"
           transform="translate(1287.32,108)"
           id="text372">VMS-Qua</text>
      </g>
      <g
         clip-path="url(#clip34)"
         id="g378">
        <path
           d="m 1259,127 h 26"
           stroke="#ffc000"
           stroke-width="2"
           stroke-linecap="round"
           stroke-linejoin="round"
           stroke-miterlimit="10"
           fill="none"
           fill-rule="evenodd"
           id="path376" />
      </g>
      <g
         clip-path="url(#clip35)"
         id="g382">
        <text
           font-family="Arial, Arial_MSFontService, sans-serif"
           font-weight="400"
           font-size="13px"
           transform="translate(1287.32,131)"
           id="text380">LES</text>
      </g>
    </g>
  </g>
</svg>
